<svg width="24" height="24" viewBox="0 0 24 24" fill="none" xmlns="http://www.w3.org/2000/svg">
<path d="M12,2.24998c1.2804,0 2.5485,0.25221 3.7314,0.74219c1.1829,0.48998 2.2578,1.20797 3.1631,2.11328c0.9053,0.90531 1.6233,1.98026 2.1133,3.16309c0.49,1.18292 0.7422,2.45106 0.7422,3.73146l-0.0117,0.4795c-0.055,1.1166 -0.3018,2.2169 -0.7305,3.2519c-0.49,1.1829 -1.208,2.2578 -2.1133,3.1631c-0.9053,0.9053 -1.9802,1.6233 -3.1631,2.1133c-1.035,0.4287 -2.1353,0.6755 -3.2519,0.7305l-0.4795,0.0117c-1.2804,0 -2.54852,-0.2522 -3.73145,-0.7422c-1.18283,-0.49 -2.25777,-1.208 -3.16308,-2.1133c-0.90531,-0.9053 -1.6233,-1.9802 -2.11328,-3.1631c-0.42873,-1.035 -0.6755,-2.1353 -0.73047,-3.2519l-0.01172,-0.4795c0,-1.2804 0.2522,-2.54854 0.74219,-3.73146c0.48998,-1.18283 1.20797,-2.25778 2.11328,-3.16309c0.90531,-0.90531 1.98025,-1.6233 3.16308,-2.11328c1.18293,-0.48998 2.45105,-0.74219 3.73145,-0.74219zM12,3.74998c-1.0834,0 -2.15629,0.21333 -3.15723,0.62793c-1.00091,0.4146 -1.91069,1.02202 -2.67676,1.78809c-0.76607,0.76607 -1.37348,1.67584 -1.78808,2.67676c-0.4146,1.00093 -0.62793,2.07384 -0.62793,3.15724l0.00976,0.4053c0.04648,0.9449 0.25534,1.876 0.61817,2.7519c0.4146,1.0009 1.02201,1.9107 1.78808,2.6768c0.76607,0.766 1.67585,1.3735 2.67676,1.7881c1.00094,0.4146 2.07383,0.6279 3.15723,0.6279l0.4053,-0.0098c0.9449,-0.0465 1.876,-0.2553 2.7519,-0.6181c1.0009,-0.4146 1.9107,-1.0221 2.6768,-1.7881c0.7661,-0.7661 1.3735,-1.6759 1.7881,-2.6768c0.4146,-1.0009 0.6279,-2.0738 0.6279,-3.1572l-0.0098,-0.4053c-0.0464,-0.9449 -0.2553,-1.876 -0.6181,-2.75194c-0.4146,-1.00092 -1.022,-1.91069 -1.7881,-2.67676c-0.7661,-0.76607 -1.6759,-1.37349 -2.6768,-1.78809c-1.0009,-0.4146 -2.0738,-0.62793 -3.1572,-0.62793zM14.9853,9.79881c0.3554,-0.13463 0.762,0.01896 0.9356,0.36619c0.1733,0.3472 0.0523,0.7643 -0.2686,0.9678l-0.0673,0.0381h-0.001l-0.001,0.001l-0.0254,0.0127c-0.0169,0.0082 -0.0415,0.0204 -0.0723,0.0351c-0.0613,0.0294 -0.149,0.0709 -0.2578,0.1201c-0.2171,0.0984 -0.5213,0.2296 -0.8672,0.3614c-0.4566,0.1739 -1.0391,0.3663 -1.6103,0.4707v1.8281c0,-0.0025 0.0143,0.113 0.2012,0.3623c0.1683,0.2244 0.4086,0.4681 0.6718,0.7021c0.2596,0.2307 0.5223,0.4353 0.7217,0.583c0.0992,0.0735 0.1817,0.1314 0.2383,0.1709c0.0283,0.0198 0.0502,0.0352 0.0645,0.045c0.0069,0.0047 0.0124,0.0086 0.0156,0.0107l0.0029,0.002l0.0615,0.0459c0.2934,0.2417 0.3619,0.671 0.1465,0.9941c-0.2153,0.323 -0.6377,0.4247 -0.9736,0.2471l-0.0664,-0.0391h-0.001v-0.001l-0.0019,-0.0009c-0.0016,-0.0011 -0.0042,-0.0031 -0.0069,-0.0049c-0.0052,-0.0036 -0.0124,-0.0085 -0.0215,-0.0147c-0.0187,-0.0127 -0.0458,-0.0305 -0.0791,-0.0537c-0.0664,-0.0464 -0.1597,-0.1135 -0.2715,-0.1963c-0.2224,-0.1647 -0.5222,-0.3977 -0.8251,-0.667c-0.2101,-0.1867 -0.4308,-0.4006 -0.6319,-0.6279c-0.1979,0.2225 -0.4139,0.4328 -0.6201,0.6172c-0.3021,0.2701 -0.6013,0.5055 -0.8232,0.6719c-0.1116,0.0836 -0.2053,0.1513 -0.2715,0.1982c-0.0331,0.0234 -0.0595,0.0418 -0.0782,0.0547c-0.0093,0.0064 -0.0171,0.011 -0.0224,0.0146c-0.0026,0.0018 -0.0043,0.0039 -0.0059,0.0049l-0.0019,0.001l-0.001,0.001c-0.34291,0.2322 -0.80969,0.1426 -1.042,-0.2002c-0.23221,-0.3429 -0.1426,-0.8097 0.2002,-1.042h0.00098c0.00061,-0.0004 0.00161,-0.0011 0.00293,-0.002c0.00321,-0.0022 0.00855,-0.0058 0.01562,-0.0107c0.01434,-0.0099 0.03609,-0.0258 0.06445,-0.0459c0.05674,-0.0402 0.13903,-0.0994 0.23829,-0.1738c0.19986,-0.1498 0.46343,-0.3572 0.72363,-0.5899c0.2638,-0.2359 0.5047,-0.4805 0.6738,-0.7051c0.1897,-0.2518 0.2012,-0.3631 0.2012,-0.3515v-1.8281c-0.5712,-0.1044 -1.1537,-0.2968 -1.61035,-0.4707c-0.34587,-0.1318 -0.65003,-0.263 -0.86719,-0.3614c-0.10876,-0.0492 -0.19645,-0.0907 -0.25781,-0.1201c-0.03071,-0.0147 -0.05539,-0.0269 -0.07227,-0.0351l-0.02539,-0.0127l-0.00098,-0.001h-0.00097l-0.06739,-0.0381c-0.32084,-0.2035 -0.4419,-0.6206 -0.26855,-0.9678c0.18518,-0.37033 0.63545,-0.52086 1.00586,-0.33591h0.00098c0.00056,0.00027 0.00169,0.00134 0.00293,0.00195c0.00293,0.00145 0.00748,0.0038 0.01367,0.00683c0.013,0.00637 0.03322,0.01571 0.05957,0.02832c0.05288,0.02532 0.13131,0.06199 0.22949,0.10645c0.1968,0.08916 0.47106,0.20796 0.7812,0.32616c0.6509,0.2479 1.3514,0.4512 1.8272,0.4512c0.4758,0 1.1763,-0.2033 1.8271,-0.4512c0.3102,-0.1182 0.5845,-0.237 0.7813,-0.32616c0.0982,-0.04446 0.1766,-0.08113 0.2295,-0.10645c0.0263,-0.01261 0.0466,-0.02195 0.0596,-0.02832c0.0061,-0.00303 0.0107,-0.00538 0.0136,-0.00683c0.0013,-0.00061 0.0024,-0.00168 0.003,-0.00195h0.0009zM12,6.24998c0.6904,0 1.25,0.55965 1.25,1.25c0,0.69036 -0.5596,1.25 -1.25,1.25c-0.6904,0 -1.25,-0.55964 -1.25,-1.25c0,-0.69035 0.5596,-1.25 1.25,-1.25z" fill="#002B51"/>
</svg>
