<svg width="24" height="24" viewBox="0 0 24 24" fill="none" xmlns="http://www.w3.org/2000/svg">
<path fill-rule="evenodd" clip-rule="evenodd" d="M8.26883,2.99216c1.18293,-0.48998 2.45077,-0.74218 3.73117,-0.74218c1.2804,0 2.5482,0.2522 3.7312,0.74218c1.1829,0.48998 2.2577,1.20816 3.1631,2.11353c0.9054,0.90537 1.6235,1.98021 2.1135,3.16313c0.49,1.18293 0.7422,2.45078 0.7422,3.73118c0,1.2804 -0.2522,2.5482 -0.7422,3.7311c-0.49,1.183 -1.2081,2.2578 -2.1135,3.1632c-0.9054,0.9053 -1.9802,1.6235 -3.1631,2.1135c-1.183,0.49 -2.4508,0.7422 -3.7312,0.7422c-1.2804,0 -2.54824,-0.2522 -3.73117,-0.7422c-1.18292,-0.49 -2.25775,-1.2082 -3.16312,-2.1135c-0.90537,-0.9054 -1.62355,-1.9802 -2.11354,-3.1632c-0.48998,-1.1829 -0.74217,-2.4507 -0.74217,-3.7311c0,-1.2804 0.25219,-2.54826 0.74217,-3.73118c0.48999,-1.18292 1.20817,-2.25776 2.11354,-3.16313c0.90537,-0.90537 1.9802,-1.62355 3.16312,-2.11353zM12,3.74998c-1.0834,0 -2.1562,0.2134 -3.15714,0.628c-1.00094,0.4146 -1.91041,1.02229 -2.67649,1.78837c-0.76609,0.76609 -1.37378,1.67556 -1.78838,2.6765c-0.4146,1.00093 -0.62799,2.07375 -0.62799,3.15715c0,1.0834 0.21339,2.1562 0.62799,3.1571c0.4146,1.001 1.02229,1.9104 1.78838,2.6765c0.76608,0.7661 1.67555,1.3738 2.67649,1.7884c1.00094,0.4146 2.07374,0.628 3.15714,0.628c1.0834,0 2.1562,-0.2134 3.1571,-0.628c1.001,-0.4146 1.9104,-1.0223 2.6765,-1.7884c0.7661,-0.7661 1.3738,-1.6755 1.7884,-2.6765c0.4146,-1.0009 0.628,-2.0737 0.628,-3.1571c0,-1.0834 -0.2134,-2.15622 -0.628,-3.15715c-0.4146,-1.00094 -1.0223,-1.91041 -1.7884,-2.6765c-0.7661,-0.76608 -1.6755,-1.37377 -2.6765,-1.78837c-1.0009,-0.4146 -2.0737,-0.628 -3.1571,-0.628zM9.08527,9.82909l0.00014,0.00007l0.00013,0.00007l0.00296,0.00147l0.01416,0.00697c0.01303,0.00638 0.03309,0.01613 0.05951,0.02878c0.05288,0.02531 0.13106,0.06211 0.22924,0.10657c0.1969,0.08918 0.47145,0.20788 0.78179,0.32608c0.6509,0.248 1.351,0.4509 1.8268,0.4509c0.4758,0 1.1759,-0.2029 1.8268,-0.4509c0.3103,-0.1182 0.5849,-0.2369 0.7818,-0.32608c0.0982,-0.04446 0.1763,-0.08126 0.2292,-0.10657c0.0264,-0.01265 0.0465,-0.0224 0.0595,-0.02878l0.0142,-0.00697l0.003,-0.00147l0.0001,-0.00007l0.0001,-0.00007c0.3705,-0.18513 0.8209,-0.03495 1.0061,0.33551c0.1853,0.3705 0.0351,0.821 -0.3354,1.0062l-0.3354,-0.6708c0.3354,0.6708 0.3353,0.6708 0.3352,0.6709l-0.0002,0.0001l-0.0006,0.0003l-0.0018,0.0009l-0.0057,0.0028l-0.0198,0.0098c-0.0168,0.0082 -0.041,0.02 -0.0717,0.0347c-0.0614,0.0293 -0.1492,0.0707 -0.2581,0.1199c-0.2171,0.0984 -0.5207,0.2297 -0.8666,0.3614c-0.4568,0.1741 -1.0391,0.3696 -1.6107,0.4739v0v0.0048v0.0048v0.0047v0.0048v0.0047v0.0048v0.0047v0.0047v0.0048v0.0047v0.0047v0.0047v0.0047v0.0047v0.0047v0.0047v0.0047v0.0047v0.0047v0.0047v0.0047v0.0046v0.0047v0.0047v0.0046v0.0047v0.0047v0.0046v0.0046v0.0047v0.0046v0.0047v0.0046v0.0046v0.0046v0.0047v0.0046v0.0046v0.0046v0.0046v0.0046v0.0046v0.0046v0.0046v0.0046v0.0046v0.0046v0.0046v0.0045v0.0046v0.0046v0.0046v0.0045v0.0046v0.0046v0.0045v0.0046v0.0045v0.0046v0.0045v0.0046v0.0045v0.0046v0.0045v0.0045v0.0046v0.0045v0.0045v0.0046v0.0045v0.0045v0.0045v0.0045v0.0046v0.0045v0.0045v0.0045v0.0045v0.0045v0.0045v0.0045v0.0045v0.0045v0.0045v0.0045v0.0045v0.0045v0.0045v0.0045v0.0045v0.0045v0.0045v0.0044v0.0045v0.0045v0.0045v0.0045v0.0045v0.0044v0.0045v0.0045v0.0045v0.0044v0.0045v0.0045v0.0045v0.0044v0.0045v0.0045v0.0044v0.0045v0.0045v0.0044v0.0045v0.0045v0.0044v0.0045v0.0045v0.0044v0.0045v0.0045v0.0044v0.0045v0.0045v0.0044v0.0045v0.0044v0.0045v0.0045v0.0044v0.0045v0.0045v0.0044v0.0045v0.0045v0.0044v0.0045v0.0045v0.0044v0.0045v0.0045v0.0044v0.0045v0.0045v0.0044v0.0045v0.0045v0.0045v0.0044v0.0045v0.0045v0.0045v0.0044v0.0045v0.0045v0.0045v0.0045v0.0044v0.0045v0.0045v0.0045v0.0045v0.0045v0.0045v0.0045v0.0045v0.0044v0.0045v0.0045v0.0045v0.0045v0.0045v0.0046v0.0045v0.0045v0.0045v0.0045v0.0045v0.0045v0.0045v0.0046v0.0045v0.0045v0.0045v0.0046v0.0045v0.0045v0.0046v0.0045v0.0046v0.0045v0.0045v0.0046v0.0045v0.0046v0.0046v0.0045v0.0046v0.0045v0.0046v0.0046v0.0045v0.0046v0.0046v0.0046v0.0046v0.0046v0.0046v0.0045v0.0046v0.0046v0.0046v0.0047v0.0046v0.0046v0.0046v0.0046v0.0046v0.0047v0.0046v0.0046v0.0047v0.0046v0.0047v0.0046v0.0047v0.0046v0.0047v0.0047v0.0046v0.0047v0.0047v0.0047v0.0046v0.0047v0.0047v0.0047v0.0047v0.0047v0.0047v0.0048v0.0047v0.0047v0.0047v0.0048v0.0047v0.0047v0.0048v0.0047v0.0048v0.0048v0.0047v0.0048v0.0048v0.0048v0.0047v0.0048v0.0048v0.0048v0.0048v0.0048v0.0049v0.0048v0.0048v0.0048v0.0049v0.0048v0.0049v0.0048v0.0049v0.0048v0.0049v0.0049v0.0049v0.0049v0.0048v0.0049v0.0049v0.005v0.0049v0.0049v0.0049v0.005v0.0049v0.0049v0.005v0.005v0.0049v0.005v0.005v0.0049v0.005v0.005v0.005v0.005v0.0051v0.005v0.005v0.005v0.0051v0.005v0.0051v0.005v0.0051v0.0051v0.0051v0.0051v0.0051v0.0051v0.0051v0.0051v0.0051v0.0051v0.0052v0.0051v0.0052v0.0051v0.0052v0.0052v0.0052v0.0051v0.0052v0.0052v0.0053v0.0052v0.0052v0.0052v0.0053v0.0052v0.0053v0.0053v0.0052v0.0053v0.0053v0.0053v0.0053v0.0053v0.0053v0.0054v0.0053v0.0054v0.0053v0.0054v0.0053v0.0054v0.0054v0.0054v0.0054v0.0054v0.0054v0.0055v0.0054v0.0055v0.0054v0.0055v0.0055v0.0054v0.0055v0.0055v0.0055v0.0056v0.0055v0.0055v0.0056v0.0055v0.0056v0.0056v0.0055v0.0056v0.0056v0.0056v0.0057v0.0056v0.0056v0.0057v0.0056v0.0057v0.0057v0.0057v0.0057v0.0057v0.0057c0,-0.0002 0,0.0001 0.0002,0.0006v0.0001c0.002,0.0103 0.0248,0.1264 0.2014,0.3618c0.1683,0.2244 0.4083,0.4678 0.6717,0.7019c0.2595,0.2307 0.5221,0.4352 0.7216,0.5829c0.0991,0.0735 0.1813,0.1319 0.2379,0.1714c0.0282,0.0197 0.05,0.0347 0.0643,0.0444l0.0156,0.0106l0.0032,0.0022h0.0001l0.0002,0.0002c0.3445,0.2298 0.4376,0.6953 0.2078,1.0399c-0.2297,0.3447 -0.6954,0.4378 -1.04,0.208l0.416,-0.624c-0.416,0.624 -0.4161,0.624 -0.4162,0.6239l-0.0003,-0.0002l-0.0007,-0.0005l-0.002,-0.0013l-0.0064,-0.0043l-0.022,-0.0149c-0.0187,-0.0128 -0.0453,-0.031 -0.0785,-0.0542c-0.0665,-0.0464 -0.1601,-0.113 -0.2719,-0.1958c-0.2224,-0.1648 -0.5223,-0.3979 -0.8253,-0.6672c-0.2096,-0.1863 -0.4306,-0.3987 -0.6314,-0.6254c-0.1976,0.222 -0.4145,0.431 -0.6204,0.6151c-0.3022,0.2703 -0.6015,0.5052 -0.8235,0.6716c-0.1116,0.0836 -0.205,0.1509 -0.2713,0.1979c-0.0331,0.0235 -0.0596,0.0419 -0.0782,0.0548l-0.0219,0.0151l-0.0064,0.0043l-0.0019,0.0013l-0.0007,0.0005l-0.0003,0.0001c-0.0001,0.0001 -0.0002,0.0002 -0.4207,-0.6208l0.4205,0.621c-0.34293,0.2322 -0.80925,0.1425 -1.04151,-0.2005c-0.23219,-0.3428 -0.14256,-0.809 0.20016,-1.0413h0.00002h0.00003l0.0001,-0.0001l0.00016,-0.0001l0.00017,-0.0001l0.00332,-0.0023l0.01568,-0.0108c0.01434,-0.0099 0.03623,-0.0252 0.06459,-0.0453c0.05679,-0.0402 0.13916,-0.0995 0.23853,-0.174c0.19986,-0.1498 0.46305,-0.3568 0.72335,-0.5895c0.264,-0.2361 0.505,-0.481 0.6742,-0.7056c0.1631,-0.2166 0.1941,-0.3291 0.1996,-0.349l0.0006,-0.0021c0.0004,-0.0014 0.0005,-0.0015 0.0005,-0.0003v-0.0057v-0.0057v-0.0057v-0.0057v-0.0057v-0.0057v-0.0056v-0.0057v-0.0056v-0.0056v-0.0057v-0.0056v-0.0056v-0.0056v-0.0055v-0.0056v-0.0056v-0.0055v-0.0056v-0.0055v-0.0055v-0.0056v-0.0055v-0.0055v-0.0055v-0.0054v-0.0055v-0.0055v-0.0054v-0.0055v-0.0054v-0.0055v-0.0054v-0.0054v-0.0054v-0.0054v-0.0054v-0.0054v-0.0053v-0.0054v-0.0053v-0.0054v-0.0053v-0.0054v-0.0053v-0.0053v-0.0053v-0.0053v-0.0053v-0.0053v-0.0052v-0.0053v-0.0053v-0.0052v-0.0053v-0.0052v-0.0052v-0.0052v-0.0053v-0.0052v-0.0052v-0.0051v-0.0052v-0.0052v-0.0052v-0.0051v-0.0052v-0.0051v-0.0052v-0.0051v-0.0051v-0.0051v-0.0051v-0.0051v-0.0051v-0.0051v-0.0051v-0.0051v-0.0051v-0.005v-0.0051v-0.005v-0.0051v-0.005v-0.005v-0.005v-0.0051v-0.005v-0.005v-0.005v-0.005v-0.0049v-0.005v-0.005v-0.0049v-0.005v-0.005v-0.0049v-0.0049v-0.005v-0.0049v-0.0049v-0.0049v-0.005v-0.0049v-0.0049v-0.0048v-0.0049v-0.0049v-0.0049v-0.0049v-0.0048v-0.0049v-0.0048v-0.0049v-0.0048v-0.0049v-0.0048v-0.0048v-0.0048v-0.0049v-0.0048v-0.0048v-0.0048v-0.0048v-0.0048v-0.0047v-0.0048v-0.0048v-0.0048v-0.0047v-0.0048v-0.0048v-0.0047v-0.0048v-0.0047v-0.0047v-0.0048v-0.0047v-0.0047v-0.0047v-0.0048v-0.0047v-0.0047v-0.0047v-0.0047v-0.0047v-0.0047v-0.0046v-0.0047v-0.0047v-0.0047v-0.0046v-0.0047v-0.0047v-0.0046v-0.0047v-0.0046v-0.0047v-0.0046v-0.0047v-0.0046v-0.0046v-0.0047v-0.0046v-0.0046v-0.0046v-0.0046v-0.0046v-0.0047v-0.0046v-0.0046v-0.0046v-0.0045v-0.0046v-0.0046v-0.0046v-0.0046v-0.0046v-0.0046v-0.0045v-0.0046v-0.0046v-0.0045v-0.0046v-0.0045v-0.0046v-0.0046v-0.0045v-0.0046v-0.0045v-0.0045v-0.0046v-0.0045v-0.0046v-0.0045v-0.0045v-0.0046v-0.0045v-0.0045v-0.0045v-0.0046v-0.0045v-0.0045v-0.0045v-0.0045v-0.0045v-0.0045v-0.0045v-0.0046v-0.0045v-0.0045v-0.0045v-0.0045v-0.0045v-0.0044v-0.0045v-0.0045v-0.0045v-0.0045v-0.0045v-0.0045v-0.0045v-0.0045v-0.0044v-0.0045v-0.0045v-0.0045v-0.0045v-0.0044v-0.0045v-0.0045v-0.0045v-0.0044v-0.0045v-0.0045v-0.0045v-0.0044v-0.0045v-0.0045v-0.0044v-0.0045v-0.0045v-0.0044v-0.0045v-0.0045v-0.0044v-0.0045v-0.0045v-0.0044v-0.0045v-0.0045v-0.0044v-0.0045v-0.0045v-0.0044v-0.0045v-0.0044v-0.0045v-0.0045v-0.0044v-0.0045v-0.0045v-0.0044v-0.0045v-0.0045v-0.0044v-0.0045v-0.0045v-0.0044v-0.0045v-0.0045v-0.0044v-0.0045v-0.0045v-0.0044v-0.0045v-0.0045v-0.0045v-0.0044v-0.0045v-0.0045v-0.0045v-0.0044v-0.0045v-0.0045v-0.0045v-0.0045v-0.0045v-0.0044v-0.0045v-0.0045v-0.0045v-0.0045v-0.0045v-0.0045v-0.0045v-0.0045v-0.0045v-0.0045v-0.0045v-0.0045v-0.0045v-0.0045v-0.0045v-0.0045v-0.0045v-0.0045v-0.0046v-0.0045v-0.0045v-0.0045v-0.0045v-0.0046v-0.0045v-0.0045v-0.0046v-0.0045v-0.0045v-0.0046v-0.0045v-0.0046v-0.0045v-0.0046v-0.0045v-0.0046v-0.0045v-0.0046v-0.0046v-0.0045v-0.0046v-0.0046v-0.0046v-0.0045v-0.0046v-0.0046v-0.0046v-0.0046v-0.0046v-0.0046v-0.0046v-0.0046v-0.0046v-0.0046v-0.0046v-0.0046v-0.0047v-0.0046v-0.0046v-0.0046v-0.0047v-0.0046v-0.0047v-0.0046v-0.0046v-0.0047v-0.0047v-0.0046v-0.0047v-0.0047v-0.0046v-0.0047v-0.0047v-0.0047v-0.0047v-0.0047v-0.0047v-0.0047v-0.0047v-0.0047v-0.0047v-0.0047v-0.0047v-0.0048v-0.0047v-0.0047v-0.0048v-0.0047v-0.0048v-0.0047v-0.0048v-0.0048v0c-0.5716,-0.1043 -1.1539,-0.2998 -1.61075,-0.4739c-0.34587,-0.1317 -0.64944,-0.263 -0.8666,-0.3614c-0.10886,-0.0492 -0.19669,-0.0906 -0.25807,-0.1199c-0.0307,-0.0147 -0.05484,-0.0265 -0.07172,-0.0347l-0.01981,-0.0098l-0.00568,-0.0028l-0.00176,-0.0009l-0.0006,-0.0003l-0.00024,-0.0001c-0.00009,-0.0001 -0.00018,-0.0001 0.33523,-0.6709l-0.33541,0.6708c-0.37049,-0.1852 -0.52065,-0.6357 -0.33541,-1.0062c0.1852,-0.37042 0.63553,-0.52061 1.00597,-0.33557l0.00002,0.00001zM13.25,7.49998c0,0.69036 -0.5596,1.25 -1.25,1.25c-0.6904,0 -1.25,-0.55964 -1.25,-1.25c0,-0.69035 0.5596,-1.25 1.25,-1.25c0.6904,0 1.25,0.55965 1.25,1.25z" fill="#002B51"/>
</svg>
