<svg width="24" height="24" viewBox="0 0 24 24" fill="none" xmlns="http://www.w3.org/2000/svg">
<path d="M12,2.24998c1.2804,0 2.5485,0.25221 3.7314,0.74219c1.1829,0.48998 2.2578,1.20797 3.1631,2.11328c0.9053,0.90531 1.6233,1.98026 2.1133,3.16309c0.49,1.18292 0.7422,2.45106 0.7422,3.73146l-0.0117,0.4795c-0.055,1.1166 -0.3018,2.2169 -0.7305,3.2519c-0.49,1.1829 -1.208,2.2578 -2.1133,3.1631c-0.9053,0.9053 -1.9802,1.6233 -3.1631,2.1133c-1.035,0.4287 -2.1353,0.6755 -3.2519,0.7305l-0.4795,0.0117c-1.2804,0 -2.54852,-0.2522 -3.73145,-0.7422c-1.18282,-0.49 -2.25777,-1.208 -3.16308,-2.1133c-0.90531,-0.9053 -1.6233,-1.9802 -2.11328,-3.1631c-0.42873,-1.035 -0.67549,-2.1353 -0.73047,-3.2519l-0.01172,-0.4795c0,-1.2804 0.2522,-2.54854 0.74219,-3.73146c0.48998,-1.18283 1.20797,-2.25778 2.11328,-3.16309c0.90531,-0.90531 1.98026,-1.6233 3.16308,-2.11328c1.18293,-0.48998 2.45105,-0.74219 3.73145,-0.74219zM15.9209,10.165c-0.1736,-0.34723 -0.5802,-0.50082 -0.9355,-0.36619l-0.0704,0.03028h-0.0009c-0.0006,0.00027 -0.0017,0.00134 -0.003,0.00195c-0.0029,0.00145 -0.0075,0.0038 -0.0136,0.00683c-0.013,0.00637 -0.0333,0.01571 -0.0596,0.02832c-0.0529,0.02532 -0.1313,0.06199 -0.2295,0.10645c-0.1968,0.08916 -0.4711,0.20796 -0.7813,0.32616c-0.6508,0.2479 -1.3513,0.4512 -1.8271,0.4512c-0.4758,0 -1.1763,-0.2033 -1.8271,-0.4512c-0.31024,-0.1182 -0.5845,-0.237 -0.7813,-0.32616c-0.09818,-0.04446 -0.17661,-0.08113 -0.22949,-0.10645c-0.02635,-0.01261 -0.04657,-0.02195 -0.05957,-0.02832c-0.00619,-0.00303 -0.01074,-0.00538 -0.01367,-0.00683c-0.00124,-0.00061 -0.00237,-0.00168 -0.00293,-0.00195h-0.00098c-0.37041,-0.18495 -0.82068,-0.03442 -1.00586,0.33591c-0.17335,0.3472 -0.05229,0.7643 0.26856,0.9678l0.06738,0.0381h0.00098l0.00097,0.001l0.02539,0.0127c0.01688,0.0082 0.04156,0.0204 0.07227,0.0351c0.06137,0.0294 0.14905,0.0709 0.25781,0.1201c0.21716,0.0984 0.52132,0.2296 0.86719,0.3614c0.45665,0.1739 1.03915,0.3663 1.61035,0.4707v1.8281c0,-0.0116 -0.0115,0.0997 -0.2012,0.3515c-0.1691,0.2246 -0.41,0.4692 -0.6738,0.7051c-0.2602,0.2327 -0.52377,0.4401 -0.72363,0.5899c-0.09926,0.0744 -0.18155,0.1336 -0.23828,0.1738c-0.02837,0.0201 -0.05012,0.036 -0.06446,0.0459c-0.00707,0.0049 -0.01241,0.0085 -0.01562,0.0107c-0.00132,0.0009 -0.00232,0.0016 -0.00293,0.002h-0.00098c-0.3428,0.2323 -0.43241,0.6991 -0.20019,1.042c0.2323,0.3428 0.69909,0.4324 1.04199,0.2002l0.001,-0.001l0.0019,-0.001c0.0016,-0.001 0.0033,-0.0031 0.0059,-0.0049c0.0053,-0.0036 0.0131,-0.0082 0.0224,-0.0146c0.0187,-0.0129 0.0451,-0.0313 0.0782,-0.0547c0.0662,-0.0469 0.1599,-0.1146 0.2715,-0.1982c0.2219,-0.1664 0.5211,-0.4018 0.8232,-0.6719c0.2062,-0.1844 0.4222,-0.3947 0.6201,-0.6172c0.2011,0.2273 0.4218,0.4412 0.6319,0.6279c0.3029,0.2693 0.6027,0.5023 0.8251,0.667c0.1118,0.0828 0.2051,0.1499 0.2715,0.1963c0.0333,0.0232 0.0604,0.041 0.0791,0.0537c0.0091,0.0062 0.0163,0.0111 0.0215,0.0147c0.0027,0.0018 0.0053,0.0038 0.0069,0.0049l0.0019,0.0009v0.001h0.001l0.0664,0.0391c0.3359,0.1776 0.7583,0.0759 0.9736,-0.2471c0.2154,-0.3231 0.1469,-0.7524 -0.1465,-0.9941l-0.0615,-0.0459l-0.0029,-0.002c-0.0032,-0.0021 -0.0087,-0.006 -0.0156,-0.0107c-0.0143,-0.0098 -0.0362,-0.0252 -0.0645,-0.045c-0.0566,-0.0395 -0.1391,-0.0974 -0.2383,-0.1709c-0.1994,-0.1477 -0.4621,-0.3523 -0.7217,-0.583c-0.2632,-0.234 -0.5035,-0.4777 -0.6718,-0.7021c-0.1869,-0.2493 -0.2012,-0.3648 -0.2012,-0.3623v-1.8281c0.5712,-0.1044 1.1537,-0.2968 1.6104,-0.4707c0.3458,-0.1318 0.65,-0.263 0.8671,-0.3614c0.1088,-0.0492 0.1965,-0.0907 0.2579,-0.1201c0.0307,-0.0147 0.0553,-0.0269 0.0722,-0.0351l0.0254,-0.0127l0.001,-0.001h0.001l0.0673,-0.0381c0.3209,-0.2035 0.4419,-0.6206 0.2686,-0.9678zM12,6.24998c-0.6904,0 -1.25,0.55965 -1.25,1.25c0,0.69036 0.5596,1.25 1.25,1.25c0.6904,0 1.25,-0.55964 1.25,-1.25c0,-0.69035 -0.5596,-1.25 -1.25,-1.25z" fill="#002B51"/>
</svg>
