<svg width="24" height="24" viewBox="0 0 24 24" fill="none" xmlns="http://www.w3.org/2000/svg">
<path d="M5.56628,4.9327l0.00005,-0.00008l0.64312,0.38587zM8.35886,4.71888l0.35092,-0.66284h-0.00001zM14.0687,7.99158l-0.3917,0.39142l-0.4894,-0.25909l0.3509,-0.66284zM14.4703,5.46963l0.0094,-0.00934l0.0096,-0.00901l0.5112,0.54885zM19.5308,4.4698l0.0001,0.00012l-0.5304,0.53021zM18.5493,9.51132l-0.0092,0.00983l-0.0095,0.00949l-0.5301,-0.53051zM15.8748,10.8131l-0.2594,-0.4898l0.392,-0.39176l0.5302,0.53046zM19.9435,15.2907l0.0001,0.0001l-0.6629,0.3509zM18.6821,17.7911l0.3859,0.6432v0zM16.6098,17.4474l0.5726,-0.4845v0zM12.8441,13.0939l0.5763,-0.5765l0.5266,0.6223l-0.5725,0.4845zM10.038,16.4874l-0.14664,-0.4397l0.32774,-0.3278l0.5304,0.5302zM12.0156,17.6759l0.0001,0.0001l-0.7115,0.2372zM11.5934,19.4669l-0.0001,0.0001l-0.5303,-0.5303zM10.1021,20.9582l-0.0002,0.0002l-0.53015,-0.5305zM8.03318,20.47l-0.00002,-0.0001l0.71144,-0.2373zM6.94624,17.2121l-0.00006,-0.0002l0.71151,-0.2372zM7.26296,15.6304l0.00019,0.0001l-0.2373,0.7114zM3.52996,15.9675l-0.00057,-0.0002l0.23767,-0.7113zM3.04126,13.8977l0.00016,-0.0002l0.53033,0.5304zM4.53263,12.4063l0.00013,-0.0001l0.5302,0.5305zM6.0864,12.6954l-0.23717,0.7116zM8.28089,13.7804l-0.32777,0.3279l-0.43983,-0.1467l0.23717,-0.7115zM10.859,10.0526l0.6221,0.5264l-0.5762,0.5764l-0.5304,-0.5303zM7.03668,6.81822l0.00001,0.00001l-0.48447,0.57253zM5.56633,4.93262c0.64822,-1.08038 2.02889,-1.46663 3.14344,-0.87658l-0.35091,0.66284l-0.35091,0.66285c-0.40892,-0.21649 -0.91673,-0.07512 -1.15538,0.32263l-0.64312,-0.38587zM8.70978,4.05604l5.17972,2.74219l-0.351,0.66284l-0.3509,0.66284l-5.17965,-2.74218l0.35091,-0.66285zM13.0084,6.93056l1.4619,-1.46093l0.5302,0.5305l0.5301,0.53051l-1.4619,1.46094l-0.5302,-0.53051zM14.4893,5.45128c0.025,-0.02322 0.7335,-0.6822 1.6481,-1.15371c0.4562,-0.2352 1.0168,-0.452 1.6028,-0.48682c0.6117,-0.03634 1.2599,0.12835 1.7906,0.65905l-0.5303,0.53033l-0.5304,0.53033c-0.1732,-0.17326 -0.3742,-0.2382 -0.6409,-0.22235c-0.2924,0.01737 -0.6396,0.13458 -1.0045,0.32271c-0.7277,0.37516 -1.3152,0.92014 -1.3131,0.91817l-0.5111,-0.54886zM19.5309,4.46992c0.5307,0.5309 0.6952,1.17929 0.6587,1.79102c-0.035,0.58615 -0.2519,1.14678 -0.4872,1.60304c-0.4716,0.91469 -1.1305,1.62306 -1.1531,1.64734l-0.5488,-0.51119l-0.5488,-0.51118c-0.0028,0.0029 0.5422,-0.58454 0.9176,-1.31241c0.1882,-0.36502 0.3055,-0.71236 0.323,-1.00491c0.0159,-0.26696 -0.0491,-0.46799 -0.2223,-0.64128l0.5305,-0.53022zM18.5306,9.53064l-1.4629,1.46196l-0.5301,-0.5306l-0.5302,-0.53046l1.4629,-1.46191l0.5302,0.5305zM17.2004,10.111l2.7431,5.1797l-0.6628,0.351l-0.6628,0.351l-2.7431,-5.1796l0.6628,-0.3511zM19.9436,15.2908c0.5896,1.1138 0.2055,2.4948 -0.8756,3.1435l-0.3859,-0.6432l-0.3859,-0.6431c0.3971,-0.2382 0.5385,-0.7457 0.3217,-1.1554l0.6628,-0.3509zM19.068,18.4343c-0.9972,0.5983 -2.2803,0.3844 -3.0307,-0.5024l0.5725,-0.4845l0.5726,-0.4845c0.2763,0.3266 0.748,0.4046 1.1138,0.1851l0.3859,0.6431zM16.0373,17.9319l-3.2353,-3.8233l0.5725,-0.4844l0.5725,-0.4845l3.2354,3.8232l-0.5726,0.4845zM13.9049,14.1544l-2.625,2.626l-0.5304,-0.5303l-0.5304,-0.5302l2.625,-2.626l0.5304,0.5303zM11.461,16.0128l0.5546,1.6631l-0.7114,0.2373l-0.7115,0.2373l-0.5547,-1.6631l0.7115,-0.2373zM12.0157,17.676c0.2094,0.6284 0.0465,1.3219 -0.4223,1.7909l-0.5304,-0.5302l-0.5305,-0.5302c0.0666,-0.0667 0.0902,-0.1659 0.0602,-0.2561l0.7115,-0.2372zM11.5933,19.467l-1.4912,1.4912l-0.53035,-0.5303l-0.53033,-0.5304l1.49118,-1.4912l0.5304,0.5304zM10.1019,20.9584c-0.65711,0.6566 -1.77473,0.3925 -2.06872,-0.4884l0.71142,-0.2374l0.71143,-0.2375c-0.05877,-0.1761 -0.28291,-0.2292 -0.41441,-0.0978l0.53013,0.5306zM8.03316,20.4699l-1.08692,-3.2578l0.71145,-0.2374l0.71145,-0.2373l1.08691,3.2578l-0.71145,0.2374zM6.94618,17.2119c-0.02523,-0.0757 -0.08406,-0.134 -0.15762,-0.1585l0.23729,-0.7115l0.2373,-0.7114c0.52348,0.1746 0.93225,0.5857 1.10605,1.1071l-0.71151,0.2371zM6.78875,17.0535l-3.25879,-1.086l0.2371,-0.7115l0.23711,-0.7115l3.25879,1.0859l-0.23711,0.7115zM3.52939,15.9673c-0.88072,-0.2942 -1.14463,-1.4127 -0.48813,-2.0696l0.53049,0.5302l0.5305,0.5301c0.13132,-0.1314 0.07865,-0.3545 -0.09751,-0.4133l-0.23768,0.7113zM3.04142,13.8975l1.49121,-1.4912l0.53033,0.5304l0.53033,0.5303l-1.49121,1.4912l-0.53033,-0.5303zM4.53276,12.4062c0.46899,-0.4688 1.16249,-0.6317 1.79081,-0.4223l-0.23717,0.7115l-0.23717,0.7116c-0.0902,-0.0301 -0.18939,-0.0065 -0.25607,0.0601l-0.5302,-0.5304zM6.32357,11.9839l1.66406,0.5547l-0.23717,0.7115l-0.23717,0.7115l-1.66406,-0.5546l0.23717,-0.7116zM7.22003,12.7199l2.62403,-2.625l0.53044,0.5302l0.5304,0.5303l-2.62401,2.625l-0.53043,-0.5303zM9.89002,11.1977l-3.82227,-3.23441l0.48447,-0.57253l0.48447,-0.57253l3.82231,3.23437l-0.4845,0.5725zM6.06776,7.9633c-0.88749,-0.75096 -1.09913,-2.03426 -0.50148,-3.0306l0.64317,0.38579l0.64316,0.3858c-0.2199,0.3666 -0.14174,0.83825 0.18407,1.11393l-0.48446,0.57254z" fill="#002B51"/>
</svg>
