<svg width="24" height="24" viewBox="0 0 24 24" fill="none" xmlns="http://www.w3.org/2000/svg">
<path d="M20.2496,18.0003c0.4142,0 0.75,0.3357 0.75,0.75c-0.0001,0.4141 -0.3358,0.75 -0.75,0.75h-16.49998c-0.41397,-0.0002 -0.74987,-0.3361 -0.75,-0.75c0,-0.4141 0.33595,-0.7498 0.75,-0.75zM7.06798,5.46998c0.7916,-0.94317 2.16874,-1.13678 3.18942,-0.44726l4.5537,3.07812l1.5215,-0.70898c0.0408,-0.01888 0.8119,-0.37467 1.6983,-0.5127c0.4435,-0.06901 0.9791,-0.09449 1.4873,0.04981c0.536,0.1523 1.0389,0.49641 1.3291,1.11816l0.0927,0.2334c0.1794,0.53949 0.1086,1.05898 -0.0908,1.50391c-0.216,0.48206 -0.579,0.87536 -0.917,1.17086c-0.6754,0.5907 -1.4435,0.9535 -1.4843,0.9727l-8.53715,3.9805c-1.27085,0.5925 -2.75803,0.4239 -3.86035,-0.418l-0.21484,-0.1768l-1.44141,-1.2812l-0.00098,-0.001c-0.65424,-0.5822 -0.52217,-1.6383 0.25489,-2.042l0.8955,-0.4648c0.84226,-0.4372 1.83279,-0.4019 2.63086,0.0547l1.34668,-0.7832l-2.52734,-3.60844v-0.00098c-0.36612,-0.52317 -0.33644,-1.22711 0.07422,-1.7168zM9.41759,6.26588c-0.36551,-0.24676 -0.85318,-0.1932 -1.15625,0.11914l2.95706,4.22068c0.1204,0.172 0.1643,0.3868 0.1191,0.5918c-0.0452,0.2049 -0.1741,0.3819 -0.3555,0.4873l-2.46871,1.4326c-0.27976,0.1625 -0.63295,0.1278 -0.875,-0.0869c-0.38644,-0.3426 -0.94389,-0.414 -1.40332,-0.1758l-0.57324,0.2979l1.16992,1.0391l0.12891,0.1074c0.66135,0.5049 1.55404,0.6054 2.3164,0.25l8.53324,-3.9795c0,0 0.1556,-0.0718 0.3759,-0.2022c0.2265,-0.1339 0.5069,-0.3207 0.7588,-0.54097c0.2584,-0.226 0.4439,-0.45175 0.5352,-0.65527c0.0793,-0.17708 0.0854,-0.32391 0.0078,-0.49024l-0.0654,-0.11035c-0.0741,-0.09797 -0.1743,-0.15844 -0.3145,-0.19824c-0.2147,-0.06096 -0.5071,-0.0636 -0.8467,-0.01074c-0.3306,0.05148 -0.6532,0.14695 -0.9013,0.23437c-0.123,0.04334 -0.224,0.08269 -0.293,0.11133l-0.1035,0.0459l-1.9053,0.88867c-0.2455,0.1145 -0.5337,0.08656 -0.7539,-0.07129c-0.0088,-0.00632 -0.0175,-0.01222 -0.0234,-0.0166c-0.0028,-0.00203 -0.0057,-0.00428 -0.0078,-0.00586c-0.0024,-0.00177 -0.0052,-0.00264 -0.0069,-0.00391c-0.0011,-0.00077 -0.0022,-0.0014 -0.0029,-0.00195z" fill="#002B51"/>
</svg>
