<svg width="24" height="24" viewBox="0 0 24 24" fill="none" xmlns="http://www.w3.org/2000/svg">
<path d="M20.2496,18.0003c0.4142,0 0.75,0.3358 0.75,0.75c-0.0001,0.4141 -0.3359,0.75 -0.75,0.75h-16.49998c-0.41395,-0.0002 -0.74984,-0.336 -0.75,-0.75c0,-0.4141 0.33595,-0.7498 0.75,-0.75zM12.5084,3.25032l0.2285,0.01074c1.129,0.10702 2.0435,0.99732 2.1631,2.14551l0.5703,5.46683l1.5186,0.708l-0.3164,0.6797l0.3174,-0.6788l0.0136,0.0059c0.0073,0.0035 0.0173,0.0088 0.0293,0.0147c0.0247,0.0121 0.0602,0.0288 0.1026,0.0507c0.0846,0.0438 0.2022,0.1076 0.3398,0.1885c0.2725,0.1602 0.6381,0.398 0.9854,0.6992c0.3405,0.2954 0.7073,0.6902 0.9267,1.1739c0.2315,0.5102 0.295,1.1203 0.0029,1.747l-0.1181,0.2227c-0.3003,0.4872 -0.7488,0.7664 -1.2207,0.8984c-0.5115,0.1429 -1.0509,0.1158 -1.4961,0.0449c-0.454,-0.0722 -0.8711,-0.2009 -1.169,-0.3066c-0.1505,-0.0534 -0.2753,-0.102 -0.3632,-0.1387c-0.044,-0.0183 -0.0794,-0.0347 -0.1045,-0.0459c-0.0121,-0.0053 -0.022,-0.0094 -0.0293,-0.0127l-8.54984,-3.9863c-1.2708,-0.5927 -2.0976,-1.841 -2.16113,-3.22655l-0.00293,-0.27832l0.05371,-1.92774l0.00098,-0.00097c0.0256,-0.87523 0.91934,-1.45293 1.72754,-1.11817l0.00097,0.00098l0.93262,0.38672l0.19238,0.08887c0.7726,0.39308 1.30497,1.12407 1.45606,1.96093l1.46484,0.5293l1.1396,-4.25684c0.1656,-0.61671 0.7249,-1.04639 1.3633,-1.04687zM11.2428,9.73078c-0.0543,0.20263 -0.1921,0.37352 -0.3779,0.47072c-0.1861,0.097 -0.4052,0.1123 -0.6026,0.041l-2.68358,-0.96972c-0.30395,-0.11008 -0.503,-0.4024 -0.49414,-0.72559c0.01245,-0.45204 -0.21992,-0.87088 -0.59863,-1.10156l-0.16993,-0.08692l-0.59765,-0.24804l-0.04395,1.56445l0.00196,0.16797c0.03837,0.8311 0.53474,1.58001 1.29687,1.93551l8.55275,3.9883c0.0159,0.0071 0.0419,0.0174 0.0752,0.0313c0.0669,0.0279 0.1658,0.0672 0.2871,0.1103c0.2461,0.0874 0.5694,0.1853 0.9023,0.2383c0.3422,0.0545 0.6387,0.052 0.8565,-0.0088c0.1893,-0.0529 0.3058,-0.1427 0.3838,-0.3096l0.0429,-0.122c0.0274,-0.1204 0.0092,-0.2377 -0.0517,-0.3721c-0.0935,-0.2058 -0.2834,-0.4332 -0.5449,-0.6602c-0.2548,-0.2209 -0.5375,-0.4057 -0.7627,-0.538c-0.1111,-0.0653 -0.2042,-0.1162 -0.2686,-0.1495c-0.0321,-0.0165 -0.0566,-0.0294 -0.0723,-0.0371l-1.9248,-0.8974c-0.2146,-0.1002 -0.3682,-0.2946 -0.417,-0.5225l-0.0136,-0.1006c-0.0008,-0.0108 -0.0015,-0.0209 -0.002,-0.0283c-0.0002,-0.0034 -0.0008,-0.0071 -0.001,-0.0098v-0.0107l-0.6064,-5.81836c-0.0458,-0.43905 -0.4007,-0.77682 -0.834,-0.80859z" fill="#002B51"/>
</svg>
