<svg width="24" height="24" viewBox="0 0 24 24" fill="none" xmlns="http://www.w3.org/2000/svg">
<path d="M20.2496,18.0001c0.4142,0 0.75,0.3359 0.75,0.75c0,0.4143 -0.3358,0.75 -0.75,0.75h-16.49998c-0.41405,-0.0002 -0.75,-0.3359 -0.75,-0.75c0.00006,-0.414 0.33599,-0.7498 0.75,-0.75zM7.22325,5.3019c0.80725,-0.79571 2.07738,-0.92464 3.03415,-0.27832l4.5547,3.07813l1.5195,-0.70899l0.1514,-0.0664c0.2711,-0.11304 0.8731,-0.34038 1.541,-0.44531c0.4441,-0.06971 0.9809,-0.0959 1.4903,0.04785c0.5372,0.15179 1.0412,0.4957 1.332,1.11914l0.0937,0.2334c0.1798,0.54098 0.1078,1.0623 -0.0927,1.50781c-0.2174,0.48249 -0.5821,0.87659 -0.9209,1.17189c-0.6799,0.5924 -1.452,0.9535 -1.4805,0.9668l-8.53613,3.9804c-1.27041,0.5921 -2.75729,0.4245 -3.85937,-0.4169l-0.21387,-0.1778l-1.44238,-1.2812l-0.00098,0.0009c-0.65467,-0.5821 -0.52211,-1.6389 0.25391,-2.0429l0.00098,-0.001l0.89648,-0.4648l0.19238,-0.0909c0.79779,-0.3388 1.69886,-0.2757 2.43653,0.1465l1.34765,-0.7822l-2.52832,-3.60938v-0.00097c-0.36626,-0.52347 -0.33508,-1.22844 0.0752,-1.71778zM9.41759,6.26577c-0.36541,-0.24678 -0.85216,-0.1919 -1.15528,0.12012l2.95699,4.22071c0.1202,0.1719 0.1624,0.387 0.1172,0.5918c-0.0453,0.2046 -0.1742,0.381 -0.3554,0.4863l-2.46879,1.4336c-0.27971,0.1621 -0.63214,0.1267 -0.87402,-0.0879c-0.33837,-0.2999 -0.80705,-0.3914 -1.22656,-0.25l-0.17676,0.0742l-0.57422,0.2989l1.1709,1.039l0.12891,0.1065c0.66114,0.5047 1.55397,0.6054 2.3164,0.25l8.53324,-3.9795c0,0 0.615,-0.2897 1.1308,-0.73928c0.2597,-0.22633 0.446,-0.4529 0.5381,-0.65722c0.0801,-0.17781 0.0856,-0.32451 0.0078,-0.49121l-0.0654,-0.11133c-0.0742,-0.0978 -0.1748,-0.15855 -0.3154,-0.19824c-0.2158,-0.06087 -0.5092,-0.06322 -0.8496,-0.00977c-0.3389,0.05322 -0.6626,0.15188 -0.9014,0.23633l-0.3916,0.1543l-1.9053,0.88867c-0.2148,0.10003 -0.463,0.09275 -0.6689,-0.0166l-0.085,-0.05469c-0.0086,-0.00616 -0.0166,-0.01131 -0.0225,-0.01563c-0.0029,-0.00215 -0.0065,-0.00419 -0.0087,-0.00586c-0.0024,-0.00173 -0.0042,-0.00364 -0.0059,-0.00488l-0.002,-0.00195z" fill="#002B51"/>
</svg>
