<svg width="24" height="24" viewBox="0 0 24 24" fill="none" xmlns="http://www.w3.org/2000/svg">
<path d="M5.89657,4.88684c0.61744,-0.8328 1.76214,-1.10374 2.69629,-0.60938l4.85254,2.56836l1.2012,-1.19921l0.0058,-0.00586l0.0069,-0.00586v-0.00098h0.0009l0.002,-0.00195c0.0018,-0.00166 0.0048,-0.0041 0.0078,-0.00684c0.0061,-0.00558 0.0146,-0.01369 0.0254,-0.02344c0.0218,-0.01955 0.0532,-0.047 0.0928,-0.08105c0.0791,-0.06815 0.1928,-0.16323 0.333,-0.27149c0.2786,-0.21512 0.6717,-0.49114 1.1181,-0.72265c0.4418,-0.22899 0.9689,-0.4322 1.5079,-0.46582c0.5561,-0.03459 1.1331,0.11276 1.6064,0.58594l0.1631,0.18261c0.3444,0.43496 0.4531,0.93728 0.4228,1.42383c-0.0335,0.53907 -0.2358,1.06601 -0.4648,1.50781c-0.2317,0.44689 -0.5084,0.84036 -0.7236,1.11914c-0.1083,0.14017 -0.2024,0.25389 -0.2705,0.33301c-0.0341,0.03955 -0.0625,0.07004 -0.0821,0.0918c-0.0097,0.01084 -0.0169,0.02027 -0.0224,0.02637l-0.0098,0.00976l-0.3662,-0.34082l0.3652,0.3418l-0.0117,0.01172l-1.2012,1.19926l2.5713,4.8554l0.0889,0.1895c0.3664,0.8945 0.0779,1.9287 -0.6983,2.5049l-0.1738,0.1162c-0.8357,0.5014 -1.8972,0.3661 -2.5801,-0.3067l-0.1318,-0.1416l-2.8857,-3.4092l-2.0215,2.0215l0.458,1.3721l0.0527,0.2041c0.0755,0.4115 -0.0249,0.8372 -0.2764,1.1719l-0.1386,0.1592l-1.49124,1.4912c-0.49251,0.4921 -1.31024,0.3384 -1.60449,-0.2637l-0.05176,-0.127l-1.08593,-3.2587c-0.03735,-0.1117 -0.1119,-0.2058 -0.20996,-0.2666l-0.10547,-0.0489l-3.25879,-1.0859c-0.7055,-0.2353 -0.91557,-1.131 -0.39063,-1.6563l1.49121,-1.4912l0.15918,-0.1386c0.39035,-0.2933 0.90478,-0.3807 1.37598,-0.2237l1.36914,0.4561l2.02246,-2.0225l-3.40722,-2.88279c-0.79317,-0.67136 -0.98418,-1.81911 -0.44922,-2.71094z" fill="#002B51"/>
</svg>
