<svg width="24" height="24" viewBox="0 0 24 24" fill="none" xmlns="http://www.w3.org/2000/svg">
<path d="M20.2496,17.9999c0.4142,0 0.7499,0.3358 0.75,0.75c0,0.4142 -0.3358,0.75 -0.75,0.75h-16.49998c-0.41405,-0.0002 -0.75,-0.3359 -0.75,-0.75c0.00008,-0.4141 0.336,-0.7498 0.75,-0.75zM7.22325,5.30162c0.80711,-0.79582 2.07709,-0.92585 3.03415,-0.2793l4.5537,3.0791l1.5196,-0.708l0.3164,0.67968l-0.3155,-0.68066l0.0127,-0.00586c0.0074,-0.00336 0.0179,-0.00816 0.0303,-0.01367c0.0252,-0.01116 0.0614,-0.02652 0.1055,-0.04492c0.0879,-0.0367 0.2121,-0.08628 0.3623,-0.13965c0.2978,-0.10581 0.7151,-0.23331 1.1689,-0.30567c0.4452,-0.07095 0.9836,-0.09786 1.4952,0.04493c0.5396,0.15071 1.0475,0.49365 1.3398,1.12011l0.0947,0.23438c0.1802,0.54331 0.1057,1.0663 -0.0967,1.51269c-0.2193,0.48382 -0.5872,0.87932 -0.9277,1.17482c-0.347,0.3011 -0.713,0.5381 -0.9853,0.6982c-0.1377,0.081 -0.2552,0.1447 -0.3399,0.1885c-0.0424,0.0219 -0.0778,0.0387 -0.1025,0.0508c-0.0119,0.0058 -0.0211,0.0112 -0.0283,0.0146l-0.0147,0.0069l-8.53515,3.9804c-1.27068,0.5924 -2.75818,0.4236 -3.86035,-0.4179l-0.21484,-0.1778l-1.44239,-1.2802l-0.00097,-0.001c-0.65534,-0.5835 -0.51884,-1.6402 0.25683,-2.043l0.89551,-0.4648l0.19141,-0.0908c0.79779,-0.3392 1.70033,-0.2768 2.43847,0.1455l1.34668,-0.7823l-2.52734,-3.60934v-0.00098c-0.36615,-0.52335 -0.33561,-1.22722 0.07519,-1.71679zM9.41759,6.26549c-0.36511,-0.24658 -0.852,-0.19283 -1.15528,0.11914l2.95799,4.22067c0.1202,0.1719 0.1622,0.387 0.1172,0.5918c-0.0452,0.2049 -0.1741,0.3819 -0.3555,0.4873l-2.46871,1.4336c-0.24468,0.142 -0.54501,0.1325 -0.77832,-0.0156l-0.0957,-0.0732c-0.33828,-0.2999 -0.80855,-0.3908 -1.22852,-0.2491l-0.17578,0.0752l-0.57422,0.2979l1.1709,1.039l0.12891,0.1065c0.66135,0.5049 1.55408,0.6063 2.3164,0.251l8.55274,-3.9893c0.0156,-0.0076 0.0405,-0.0197 0.0723,-0.0361c0.0643,-0.0333 0.1585,-0.0842 0.2695,-0.1494c0.2252,-0.1325 0.508,-0.3181 0.7627,-0.5391c0.2615,-0.22703 0.4506,-0.45525 0.5439,-0.66113c0.081,-0.17896 0.0867,-0.32615 0.0088,-0.49317l-0.0654,-0.11133c-0.0746,-0.0983 -0.1762,-0.15953 -0.3184,-0.19922c-0.2177,-0.06072 -0.5135,-0.06132 -0.8554,-0.00683c-0.3332,0.05311 -0.6571,0.15079 -0.9034,0.23828c-0.1212,0.04308 -0.2202,0.08147 -0.2871,0.10937c-0.0332,0.01387 -0.0583,0.02518 -0.0742,0.03223l-1.9248,0.89746c-0.2148,0.10008 -0.463,0.0927 -0.6689,-0.0166l-0.085,-0.05469c-0.0088,-0.00633 -0.0175,-0.01125 -0.0234,-0.01562c-0.0028,-0.00208 -0.0056,-0.00423 -0.0078,-0.00586c-0.0025,-0.00182 -0.0051,-0.00359 -0.0069,-0.00488l-0.0019,-0.00196z" fill="#002B51"/>
</svg>
