<svg width="24" height="24" viewBox="0 0 24 24" fill="none" xmlns="http://www.w3.org/2000/svg">
<path fill-rule="evenodd" clip-rule="evenodd" d="M5.56631,4.93274l0.00005,-0.00008l0.64312,0.38587zM8.35889,4.71892l0.35092,-0.66284h-0.00001zM14.0687,7.99162l-0.3917,0.39142l-0.4893,-0.25909l0.3509,-0.66284zM14.4703,5.46967l0.0094,-0.00934l0.0097,-0.00901l0.5111,0.54885zM19.5308,4.46984l0.0001,0.00012l-0.5304,0.53021zM18.5493,9.51136l-0.0092,0.00983l-0.0095,0.00949l-0.5301,-0.53051zM15.8748,10.8131l-0.2594,-0.4898l0.392,-0.39172l0.5302,0.53052zM19.2808,15.6418l0.6628,-0.3509v-0.0001zM18.6821,17.7912l0.3859,0.6431v0zM16.6099,17.4474l0.5725,-0.4844v0zM12.8441,13.094l0.5763,-0.5766l0.5266,0.6223l-0.5725,0.4845zM10.038,16.4875l-0.14661,-0.4397l0.32771,-0.3279l0.5304,0.5303zM11.3042,17.9133l0.7115,-0.2372v-0.0001zM11.5935,19.4669l-0.0002,0.0001l-0.5303,-0.5303zM10.1021,20.9582l-0.0002,0.0002l-0.53012,-0.5305zM8.74463,20.2326l-0.71145,0.2374h0.00003zM6.94627,17.2121l-0.00006,-0.0001l0.71151,-0.2372zM7.26299,15.6304l0.00019,0.0001l-0.2373,0.7115zM3.52999,15.9676l-0.00057,-0.0002l0.23767,-0.7114zM3.04129,13.8977l0.00016,-0.0001l0.53033,0.5303zM4.53266,12.4064l0.00013,-0.0002l0.5302,0.5305zM6.08643,12.6955l-0.23717,0.7115zM8.28092,13.7804l-0.32777,0.3279l-0.43983,-0.1466l0.23717,-0.7115zM10.859,10.0526l0.6221,0.5265l-0.5762,0.5763l-0.5304,-0.5302zM7.03671,6.81826l0.00001,0.00001l-0.48447,0.57253zM5.56636,4.93266c0.64822,-1.08038 2.02889,-1.46663 3.14344,-0.87658l-0.35091,0.66284l-0.35091,0.66285c-0.40892,-0.21649 -0.91673,-0.07512 -1.15538,0.32263l-0.64312,-0.38587zM8.70981,4.05608l5.17969,2.74219l-0.3509,0.66284l-0.3509,0.66284l-5.17973,-2.74218l0.35092,-0.66285zM13.0084,6.93061l1.4619,-1.46094l0.5302,0.5305l0.5301,0.53051l-1.4619,1.46094l-0.5301,-0.53051zM14.4894,5.45132c0.0249,-0.02322 0.7334,-0.6822 1.648,-1.15371c0.4562,-0.2352 1.0168,-0.452 1.6029,-0.48682c0.6116,-0.03634 1.2598,0.12835 1.7905,0.65905l-0.5303,0.53033l-0.5303,0.53033c-0.1733,-0.17326 -0.3742,-0.2382 -0.641,-0.22235c-0.2923,0.01737 -0.6395,0.13458 -1.0045,0.32271c-0.7277,0.37516 -1.3152,0.92014 -1.3131,0.91817l-0.5111,-0.54886zM19.5309,4.46996c0.5307,0.5309 0.6952,1.17929 0.6587,1.79102c-0.0349,0.58615 -0.2519,1.14678 -0.4871,1.60304c-0.4717,0.91469 -1.1306,1.62306 -1.1532,1.64734l-0.5488,-0.51119l-0.5488,-0.51118c-0.0027,0.00291 0.5423,-0.58454 0.9176,-1.31241c0.1882,-0.36502 0.3055,-0.71236 0.323,-1.00491c0.0159,-0.26696 -0.049,-0.46799 -0.2223,-0.64128l0.5305,-0.53022zM18.5306,9.53068l-1.4628,1.46192l-0.5302,-0.5305l-0.5302,-0.53052l1.4629,-1.46191l0.5302,0.5305zM17.2004,10.1111l2.7432,5.1797l-0.6628,0.351l-0.6628,0.351l-2.7432,-5.1797l0.6628,-0.351zM19.9436,15.2909c0.5896,1.1138 0.2055,2.4948 -0.8756,3.1434l-0.3859,-0.6431l-0.3858,-0.6431c0.397,-0.2382 0.5385,-0.7458 0.3216,-1.1554l0.6629,-0.3509zM19.068,18.4343c-0.9972,0.5983 -2.2803,0.3844 -3.0307,-0.5024l0.5726,-0.4845l0.5725,-0.4844c0.2763,0.3265 0.7481,0.4045 1.1139,0.1851l0.3858,0.6431zM16.0373,17.9319l-3.2353,-3.8232l0.5725,-0.4845l0.5725,-0.4845l3.2354,3.8233l-0.5725,0.4844zM13.9049,14.1544l-2.625,2.626l-0.5304,-0.5302l-0.5304,-0.5303l2.625,-2.6259l0.5304,0.5302zM11.461,16.0129l0.5547,1.6631l-0.7115,0.2373l-0.7115,0.2373l-0.5547,-1.6631l0.7115,-0.2373zM12.0157,17.6761c0.2095,0.6283 0.0465,1.3218 -0.4222,1.7908l-0.5305,-0.5302l-0.5305,-0.5302c0.0667,-0.0667 0.0903,-0.1659 0.0602,-0.2561l0.7115,-0.2371zM11.5933,19.467l-1.4912,1.4912l-0.53032,-0.5303l-0.53033,-0.5303l1.49125,-1.4912l0.5303,0.5303zM10.1019,20.9584c-0.65708,0.6566 -1.7747,0.3926 -2.06869,-0.4884l0.71142,-0.2374l0.71143,-0.2374c-0.05878,-0.1761 -0.28291,-0.2292 -0.41441,-0.0978l0.53013,0.5305zM8.03318,20.47l-1.08691,-3.2579l0.71145,-0.2373l0.71145,-0.2374l1.08691,3.2578l-0.71145,0.2374zM6.94621,17.212c-0.02524,-0.0757 -0.08406,-0.134 -0.15763,-0.1586l0.2373,-0.7114l0.2373,-0.7115c0.52347,0.1746 0.93225,0.5857 1.10605,1.1071l-0.71151,0.2372zM6.78878,17.0535l-3.25879,-1.0859l0.2371,-0.7116l0.23711,-0.7115l3.25879,1.0859l-0.23711,0.7116zM3.52942,15.9674c-0.88072,-0.2943 -1.14464,-1.4127 -0.48813,-2.0697l0.53049,0.5302l0.53049,0.5302c0.13133,-0.1314 0.07866,-0.3546 -0.0975,-0.4134l-0.23768,0.7113zM3.04145,13.8976l1.49121,-1.4912l0.53033,0.5303l0.53033,0.5303l-1.49121,1.4912l-0.53033,-0.5303zM4.53279,12.4062c0.46899,-0.4687 1.16249,-0.6317 1.79081,-0.4222l-0.23717,0.7115l-0.23717,0.7115c-0.0902,-0.0301 -0.1894,-0.0065 -0.25607,0.0602l-0.5302,-0.5305zM6.3236,11.984l1.66406,0.5547l-0.23717,0.7115l-0.23717,0.7115l-1.66406,-0.5547l0.23717,-0.7115zM7.22006,12.7199l2.62403,-2.625l0.53041,0.5303l0.5304,0.5302l-2.62398,2.625l-0.53043,-0.5302zM9.89005,11.1977l-3.82227,-3.23437l0.48447,-0.57253l0.48447,-0.57253l3.82228,3.23433l-0.4845,0.5726zM6.06779,7.96334c-0.8875,-0.75096 -1.09913,-2.03426 -0.50148,-3.0306l0.64317,0.38579l0.64316,0.3858c-0.2199,0.3666 -0.14174,0.83825 0.18407,1.11393l-0.48446,0.57254z" fill="#002B51"/>
</svg>
