<svg width="24" height="24" viewBox="0 0 24 24" fill="none" xmlns="http://www.w3.org/2000/svg">
<path d="M20.2496,18.0003c0.4142,0 0.75,0.3358 0.75,0.75c-0.0001,0.4141 -0.3359,0.75 -0.75,0.75h-16.49998c-0.41395,-0.0002 -0.74984,-0.336 -0.75,-0.75c0,-0.4141 0.33595,-0.7498 0.75,-0.75zM12.5084,3.25032l0.2275,0.00976c1.1289,0.10655 2.0441,0.99697 2.1641,2.14551l0.5703,5.46781l1.5196,0.708l0.1445,0.0722c0.2587,0.1338 0.8201,0.4482 1.331,0.8926c0.3395,0.2953 0.7056,0.6891 0.9239,1.1719c0.2302,0.5097 0.2922,1.1191 0.0009,1.7441l-0.1181,0.2217c-0.2996,0.4865 -0.7467,0.766 -1.2178,0.8984c-0.5103,0.1435 -1.0476,0.1171 -1.4922,0.0469c-0.8911,-0.1407 -1.6627,-0.5001 -1.6875,-0.5117l-8.53611,-3.9805c-1.27065,-0.5928 -2.09763,-1.8404 -2.16114,-3.22555l-0.00195,-0.27832l0.05371,-1.92871l0.00098,-0.00098c0.02592,-0.87515 0.91953,-1.45206 1.72754,-1.11719h0.00097l0.93262,0.3877l0.19336,0.08887c0.77238,0.39331 1.30328,1.12496 1.4541,1.96191l1.46482,0.5293l1.1406,-4.25684v-0.00098c0.1656,-0.61681 0.725,-1.0464 1.3633,-1.04687zM11.2418,9.73176c-0.0545,0.20243 -0.1921,0.37264 -0.3779,0.46974c-0.186,0.0969 -0.4043,0.1122 -0.6016,0.041l-2.68358,-0.96972c-0.26585,-0.0962 -0.45171,-0.33169 -0.48828,-0.60547l-0.00586,-0.12012c0.01245,-0.45199 -0.21988,-0.87087 -0.59863,-1.10156l-0.1709,-0.08692l-0.59668,-0.24804l-0.04395,1.56445l0.00196,0.16797c0.03838,0.83116 0.53494,1.58011 1.29687,1.93551l8.53415,3.9795l0.3858,0.1524c0.2383,0.0844 0.5626,0.1836 0.9023,0.2373c0.3411,0.0538 0.6359,0.051 0.8526,-0.0098c0.1885,-0.053 0.3049,-0.1436 0.3828,-0.3105l0.0429,-0.1221c0.0272,-0.1198 0.0085,-0.2356 -0.0517,-0.3691c-0.0927,-0.2051 -0.2804,-0.4325 -0.541,-0.6592c-0.2594,-0.2256 -0.543,-0.4109 -0.7608,-0.5391l-0.3652,-0.1973l-1.9063,-0.8886c-0.2147,-0.1003 -0.3683,-0.2954 -0.417,-0.5235l-0.0136,-0.0996c-0.0008,-0.0108 -0.0015,-0.021 -0.002,-0.0283c-0.0002,-0.0035 -0.0008,-0.007 -0.001,-0.0098c-0.0001,-0.003 -0.0008,-0.0056 -0.0009,-0.0078l0.0009,-0.0029l-0.6064,-5.81934c-0.0459,-0.43837 -0.4005,-0.77577 -0.834,-0.80761z" fill="#002B51"/>
</svg>
