<svg width="24" height="24" viewBox="0 0 24 24" fill="none" xmlns="http://www.w3.org/2000/svg">
<path d="M12,2.49967c0.6652,0 1.1704,0.29793 1.5303,0.71485c0.3472,0.40221 0.5609,0.914 0.6963,1.38281c0.2705,0.93725 0.2733,1.86694 0.2734,1.90137v2.41796l5.7607,2.19634l0.1368,0.0576c0.6687,0.3154 1.1025,0.9906 1.1025,1.7392l-0.0117,0.2119c-0.1063,0.9728 -0.9349,1.7131 -1.9131,1.711l-0.2119,-0.0117l-4.8633,-0.5411v2.1358l1.2725,0.7646l0.1601,0.1114c0.3556,0.2822 0.5674,0.7137 0.5674,1.1748v2.2246l-0.0088,0.1367c-0.0828,0.6196 -0.7211,1.014 -1.3125,0.8105l-0.126,-0.0527l-2.8291,-1.415c-0.1055,-0.0528 -0.2253,-0.0664 -0.3379,-0.0401l-0.1093,0.0401l-2.82913,1.415c-0.62327,0.3116 -1.34973,-0.0939 -1.43848,-0.7578l-0.00879,-0.1367v-2.2246c0,-0.5267 0.27621,-1.015 0.72754,-1.2862l1.27246,-0.7646v-2.1358l-4.86328,0.5411c-1.06773,0.1186 -2.01109,-0.6571 -2.125,-1.6993l-0.01172,-0.2119c0,-0.7983 0.49361,-1.5128 1.23926,-1.7968l5.76074,-2.19634v-2.41796l0.00488,-0.17774c0.0134,-0.31897 0.06518,-1.01918 0.26856,-1.72363c0.13539,-0.46881 0.34906,-0.9806 0.69626,-1.38281c0.3599,-0.41692 0.8651,-0.71485 1.5303,-0.71485z" fill="#002B51"/>
</svg>
