<svg width="24" height="24" viewBox="0 0 24 24" fill="none" xmlns="http://www.w3.org/2000/svg">
<path d="M20.2496,17.9998c0.4142,0 0.7499,0.3359 0.75,0.75c0,0.4143 -0.3358,0.75 -0.75,0.75h-16.49997c-0.41404,-0.0002 -0.75,-0.3359 -0.75,-0.75c0.0001,-0.414 0.33602,-0.7498 0.75,-0.75zM7.2594,5.6307c0.70932,-0.84498 1.94304,-1.01774 2.8574,-0.40039l4.6719,3.1582l1.6484,-0.76953c0.0289,-0.01339 0.772,-0.35619 1.6231,-0.49023c0.427,-0.06722 0.9239,-0.08882 1.3847,0.04101c0.4793,0.13519 0.9203,0.43578 1.1758,0.9834l0.0811,0.20508c0.1583,0.47499 0.0961,0.93162 -0.083,1.3291c-0.1967,0.43646 -0.5325,0.80296 -0.8584,1.08696c-0.6476,0.5641 -1.3857,0.9121 -1.419,0.9277l-8.5361,3.9805c-1.18583,0.5528 -2.57384,0.3956 -3.60254,-0.3897l-0.20117,-0.166l-1.44141,-1.2813c-0.52373,-0.4656 -0.4186,-1.3117 0.20313,-1.6347l0.8955,-0.4649c0.80899,-0.42 1.76895,-0.3605 2.51368,0.1241l1.70996,-0.9932l-2.68457,-3.83204c-0.30132,-0.43057 -0.27652,-1.01041 0.06054,-1.41308z" fill="#002B51"/>
</svg>
