<svg width="24" height="24" viewBox="0 0 24 24" fill="none" xmlns="http://www.w3.org/2000/svg">
<path d="M20.2496,18.0003c0.4142,0 0.75,0.3358 0.75,0.75c-0.0001,0.4141 -0.3359,0.75 -0.75,0.75h-16.49997c-0.41394,-0.0002 -0.74984,-0.336 -0.75,-0.75c0,-0.4141 0.33596,-0.7498 0.75,-0.75zM12.7135,3.5091c1.0115,0.09591 1.8313,0.89488 1.9385,1.92383l0.584,5.60747l1.6875,0.7861c0.0231,0.0113 0.0553,0.0289 0.0957,0.0498c0.0812,0.042 0.1959,0.1024 0.3291,0.1807c0.2646,0.1555 0.6164,0.385 0.9482,0.6728c0.3273,0.284 0.6648,0.6506 0.8633,1.0879c0.2064,0.455 0.26,0.9881 0.0039,1.5381l-0.1045,0.1953c-0.2632,0.4279 -0.6551,0.6733 -1.0762,0.791c-0.4626,0.1292 -0.9606,0.1062 -1.3886,0.0381c-0.4339,-0.0691 -0.8357,-0.1912 -1.125,-0.2939c-0.1457,-0.0518 -0.2662,-0.0996 -0.3506,-0.1348c-0.0419,-0.0175 -0.0751,-0.0326 -0.0987,-0.043c-0.0118,-0.0052 -0.0225,-0.0086 -0.0293,-0.0117l-8.54683,-3.9863c-1.2647,-0.5902 -2.05786,-1.8755 -2.01855,-3.27054h-0.00098l0.05566,-1.92773c0.0201,-0.70072 0.73666,-1.16339 1.38379,-0.89453l0.93164,0.38672l0.17481,0.08203c0.74506,0.37942 1.2459,1.10375 1.3457,1.92285l1.85936,0.67285l1.21,-4.52051c0.1361,-0.50772 0.597,-0.86125 1.123,-0.86132z" fill="#002B51"/>
</svg>
