<svg width="24" height="24" viewBox="0 0 24 24" fill="none" xmlns="http://www.w3.org/2000/svg">
<path d="M14,6.49967h0.75v-0.00121zM13.7329,9.96222l-0.4829,-0.18405v-0.51678h0.75zM20.083,11.5798l-0.2671,0.7008h0.0001zM21,12.9098l0.75,0.0002v-0.0002zM19.3361,15.0693v0l0.0828,-0.7454zM13.25,13.7214v-0.8381l0.8329,0.0926l-0.0829,0.7455zM13.6137,17.3418l-0.3637,-0.2186v-0.4243h0.75zM15.1286,18.252l-0.0002,-0.0001l0.3862,-0.6429zM16,20.6911l0.75,0.0001v-0.0001zM14.941,21.8092l-0.0001,-0.0001l0.3355,-0.6708zM12.4473,19.7233l0.3355,-0.6708h-0.0002zM11.5527,19.7233l-0.3353,-0.6708h-0.0002zM9.05914,21.8091l-0.00016,0.0001l-0.33535,-0.6709zM8,20.6911h-0.75v0.0001zM8.87165,18.2519l-0.00022,0.0001l-0.38608,-0.643zM10.75,16.6989v0.4243l-0.3637,0.2186l-0.3863,-0.6429zM9.91712,12.9759l0.83288,-0.0926v0.8381h-0.75zM4.58105,14.3239l0.08283,0.7454h0.00006zM3,12.9098h-0.75v0.0002zM3.91699,11.5798l0.267,0.7008h0.0001zM10.75,9.26139v0.51678l-0.4829,0.18405l-0.2671,-0.70083zM10,6.49967l-0.75,-0.00121v0.00121zM12,2.24967c0.749,0 1.3197,0.3386 1.7191,0.80123c0.3805,0.4406 0.6069,0.99044 0.7472,1.47601c0.2813,0.97365 0.2836,1.93392 0.2837,1.97155l-0.75,0.00121l-0.75,0.00121c0,0.00695 -0.0001,-0.19183 -0.0293,-0.4918c-0.0295,-0.30252 -0.0868,-0.68983 -0.1955,-1.06582c-0.1111,-0.38457 -0.2604,-0.70243 -0.4414,-0.91201c-0.1619,-0.18754 -0.3384,-0.28158 -0.5838,-0.28158v-0.75zM14.75,6.49967v2.76172h-0.75h-0.75v-2.76172h0.75zM14.2671,8.56056l6.083,2.31834l-0.2671,0.7009l-0.2671,0.7008l-6.083,-2.31838l0.2671,-0.70083zM20.35,10.8789c0.8425,0.3209 1.4,1.1287 1.4,2.0309h-0.75h-0.75c0,-0.2791 -0.1725,-0.5296 -0.434,-0.6292l0.267,-0.7008zM21.75,12.91c-0.0002,1.2958 -1.1271,2.3023 -2.4139,2.1593l0.0828,-0.7454l0.0829,-0.7454c0.3994,0.0444 0.7481,-0.268 0.7482,-0.6688l0.75,0.0001zM19.3361,15.0693l-5.419,-0.6025l0.0829,-0.7454l0.0829,-0.7455l5.4189,0.6026l-0.0829,0.7454zM14.75,13.7214v2.9775h-0.75h-0.75v-2.9775h0.75zM14.3863,16.056l1.5146,0.9102l-0.3863,0.6428l-0.3862,0.6429l-1.5147,-0.9101l0.3863,-0.6429zM15.9007,16.9661c0.5268,0.3162 0.8493,0.8857 0.8493,1.5004h-0.75h-0.75c0,-0.0877 -0.0461,-0.1692 -0.1214,-0.2145l0.386,-0.643zM16.75,18.4665v2.2246h-0.75h-0.75v-2.2246h0.75zM16.75,20.6912c-0.0002,0.9288 -0.9777,1.5335 -1.809,1.118l0.3354,-0.6709l0.3353,-0.6708c-0.1664,-0.0832 -0.3617,0.0378 -0.3617,0.2234l0.75,0.0002zM14.9409,21.8091l-2.8291,-1.415l0.3355,-0.6708l0.3355,-0.6708l2.8291,1.4151l-0.3355,0.6707zM12.1119,20.3942c-0.0704,-0.0352 -0.1534,-0.0352 -0.2238,0l-0.3354,-0.6709l-0.3353,-0.6708c0.4926,-0.2463 1.0726,-0.2463 1.5652,0l-0.3353,0.6708zM11.8882,20.3941l-2.82906,1.415l-0.33551,-0.6708l-0.3355,-0.6707l2.82907,-1.4151l0.3355,0.6708zM9.05898,21.8092c-0.83125,0.4155 -1.80877,-0.1892 -1.80898,-1.118l0.75,-0.0001l0.75,-0.0002c-0.00004,-0.1856 -0.19528,-0.3066 -0.36171,-0.2234l0.33534,0.6708zM7.25,20.6911v-2.2246h0.75h0.75v2.2246h-0.75zM7.25,18.4665c0,-0.6147 0.32254,-1.1842 0.84927,-1.5004l0.38608,0.6429l0.38608,0.643c-0.07535,0.0453 -0.12143,0.1268 -0.12143,0.2145h-0.75zM8.09905,16.9662l1.51465,-0.9102l0.3863,0.6429l0.3863,0.6429l-1.51465,0.9101l-0.3863,-0.6429zM9.25,16.6989v-2.9775h0.75h0.75v2.9775h-0.75zM10.0829,14.4668l-5.41896,0.6025l-0.08289,-0.7454l-0.08288,-0.7454l5.41895,-0.6026l0.08288,0.7455zM4.66388,15.0693c-1.28682,0.143 -2.41364,-0.8635 -2.41388,-2.1593l0.75,-0.0002l0.75,-0.0001c0.00007,0.4008 0.34877,0.7132 0.74823,0.6688l0.08282,0.7454zM2.25,12.9098c0,-0.9022 0.55751,-1.71 1.4,-2.0309l0.26699,0.7009l0.267,0.7008c-0.26146,0.0996 -0.43399,0.3501 -0.43399,0.6292h-0.75zM3.64989,10.8789l6.08301,-2.31834l0.2671,0.70083l0.2671,0.70083l-6.08301,2.31838l-0.2671,-0.7008zM9.25,9.26139v-2.76172h0.75h0.75v2.76172h-0.75zM9.25,6.49846c0.00006,-0.03763 0.0024,-0.9979 0.28371,-1.97155c0.14029,-0.48557 0.36668,-1.03541 0.74719,-1.47601c0.3994,-0.46263 0.9701,-0.80123 1.7191,-0.80123v0.75v0.75c-0.2454,0 -0.4219,0.09404 -0.5838,0.28158c-0.181,0.20958 -0.3303,0.52744 -0.4414,0.91201c-0.1087,0.37599 -0.166,0.7633 -0.1955,1.06582c-0.0292,0.29997 -0.0293,0.49875 -0.0293,0.4918l-0.75,-0.00121z" fill="#002B51"/>
</svg>
