<svg width="24" height="24" viewBox="0 0 24 24" fill="none" xmlns="http://www.w3.org/2000/svg">
<path d="M20.2496,17.9996c0.4141,0 0.7498,0.336 0.75,0.75c0,0.4142 -0.3358,0.75 -0.75,0.75h-16.49997c-0.41404,-0.0002 -0.75,-0.3359 -0.75,-0.75c0.00022,-0.4139 0.33609,-0.7498 0.75,-0.75zM7.39807,5.48009c0.72366,-0.71349 1.86249,-0.82837 2.71973,-0.24902h0.001l4.6699,3.15722l1.6475,-0.76855l0.2109,0.45312l-0.21,-0.45312l0.0381,-0.01856c0.0236,-0.01045 0.0584,-0.02436 0.1006,-0.04199c0.0845,-0.03525 0.205,-0.084 0.3506,-0.13574c0.2892,-0.10269 0.6906,-0.22484 1.124,-0.29395c0.428,-0.06819 0.9262,-0.09098 1.3887,0.03809c0.4813,0.13438 0.924,0.43635 1.1807,0.98633l0.083,0.20508c0.1586,0.47672 0.0936,0.93475 -0.087,1.333c-0.1983,0.4374 -0.535,0.8048 -0.8623,1.0889c-0.3317,0.2879 -0.6846,0.5163 -0.9492,0.6718c-0.1332,0.0783 -0.2469,0.1407 -0.3281,0.1827c-0.0403,0.0208 -0.0736,0.0365 -0.0967,0.0478c-0.0113,0.0056 -0.0208,0.0105 -0.0273,0.0137l-8.5469,3.9853c-1.18594,0.5527 -2.57409,0.3957 -3.60254,-0.3896l-0.20117,-0.166l-1.44239,-1.2813c-0.52307,-0.4657 -0.41772,-1.3116 0.20313,-1.6347h0.00098l0.89648,-0.4649l0.1748,-0.082c0.76967,-0.3269 1.64653,-0.244 2.3379,0.206l1.70996,-0.9931l-2.68457,-3.83206c-0.30145,-0.43065 -0.27661,-1.01105 0.06152,-1.41406z" fill="#002B51"/>
</svg>
