<svg width="24" height="24" viewBox="0 0 24 24" fill="none" xmlns="http://www.w3.org/2000/svg">
<path d="M20.2496,18.0003c0.4142,0 0.75,0.3358 0.75,0.75c-0.0001,0.4141 -0.3359,0.75 -0.75,0.75h-16.49997c-0.41394,-0.0002 -0.74984,-0.336 -0.75,-0.75c0,-0.4141 0.33596,-0.7498 0.75,-0.75zM12.5094,3.50032c1.103,0.00047 2.0281,0.83391 2.1426,1.93164l0.584,5.60844l1.6601,0.7734c0.0066,0.0031 0.0152,0.0082 0.0264,0.0137c0.0232,0.0113 0.0569,0.0277 0.0976,0.0488c0.0813,0.042 0.1951,0.1025 0.3282,0.1807c0.2647,0.1555 0.6173,0.3858 0.9492,0.6738c0.327,0.2838 0.664,0.65 0.8623,1.0869c0.2065,0.4551 0.2603,0.9889 0.0039,1.5391l-0.1045,0.1943c-0.2632,0.428 -0.655,0.6733 -1.0762,0.791c-0.4625,0.1292 -0.9607,0.1072 -1.3886,0.0391c-0.4338,-0.0691 -0.8358,-0.1913 -1.125,-0.294c-0.1455,-0.0516 -0.2652,-0.1005 -0.3496,-0.1357c-0.0422,-0.0176 -0.076,-0.0325 -0.0997,-0.043c-0.0116,-0.0052 -0.0216,-0.0087 -0.0283,-0.0117l-8.54685,-3.9854c-1.26517,-0.5899 -2.05883,-1.8761 -2.01953,-3.27144l0.05468,-1.92871c0.02077,-0.701 0.73717,-1.16221 1.38282,-0.89453l0.93164,0.3877c0.84173,0.34971 1.41295,1.12294 1.5205,2.00488l1.86134,0.67188l1.21,-4.51954c0.1361,-0.50791 0.5969,-0.86133 1.123,-0.86132z" fill="#002B51"/>
</svg>
