<svg width="24" height="24" viewBox="0 0 24 24" fill="none" xmlns="http://www.w3.org/2000/svg">
<path d="M20.2496,18.0003c0.4142,0 0.75,0.3358 0.75,0.75c-0.0001,0.4141 -0.3359,0.75 -0.75,0.75h-16.49998c-0.41395,-0.0002 -0.74984,-0.336 -0.75,-0.75c0,-0.4141 0.33595,-0.7498 0.75,-0.75zM12.5074,3.25032c1.2314,0 2.2656,0.93022 2.3936,2.15527l0.5693,5.46781l1.5205,0.7089c0.0353,0.0165 0.802,0.3773 1.4785,0.9668c0.339,0.2954 0.7035,0.6893 0.9209,1.1719c0.2294,0.5093 0.2918,1.1173 0.001,1.7412l-0.1201,0.2217c-0.299,0.4853 -0.7446,0.7648 -1.2148,0.8975c-0.5094,0.1435 -1.0453,0.1176 -1.4893,0.0478c-0.8899,-0.1399 -1.6617,-0.4979 -1.6914,-0.5117l-8.53614,-3.9805c-1.35504,-0.632 -2.20604,-2.009 -2.16406,-3.50387l0.05469,-1.92774v-0.00097c0.0254,-0.87586 0.92018,-1.45263 1.72851,-1.11719l0.93262,0.38672c0.87623,0.36428 1.48537,1.14543 1.64844,2.0498l1.46484,0.5293l1.1396,-4.25586l0.001,-0.00098c0.1656,-0.61685 0.724,-1.04544 1.3623,-1.04589zM11.2418,9.73078c-0.0544,0.20269 -0.1909,0.37452 -0.3769,0.47172c-0.186,0.097 -0.4043,0.1112 -0.6016,0.04l-2.68458,-0.96972c-0.30432,-0.10991 -0.50401,-0.40313 -0.49512,-0.72657c0.01389,-0.51643 -0.29011,-0.98888 -0.76758,-1.1875l-0.59765,-0.24804l-0.04297,1.56445c-0.02519,0.8967 0.48467,1.72318 1.29785,2.10258l8.53415,3.9795c0,-0.0001 0.6164,0.2843 1.292,0.3906c0.3405,0.0535 0.6348,0.051 0.8506,-0.0098c0.1875,-0.053 0.3042,-0.1429 0.3818,-0.3096l0.043,-0.122c0.0272,-0.1197 0.0082,-0.236 -0.0517,-0.3692c-0.0922,-0.2044 -0.2793,-0.4308 -0.5391,-0.6572c-0.2587,-0.2254 -0.5426,-0.4105 -0.7607,-0.5391l-0.3682,-0.2002l-1.9063,-0.8886c-0.2454,-0.1146 -0.4101,-0.353 -0.4306,-0.6231c-0.0008,-0.0108 -0.0015,-0.021 -0.002,-0.0283c-0.0001,-0.0034 0.0002,-0.0071 0,-0.0098c-0.0002,-0.0028 -0.0008,-0.0057 -0.001,-0.0078c-0.0001,-0.0011 0.0001,-0.0021 0,-0.0029l-0.6064,-5.81934c-0.046,-0.43855 -0.401,-0.77622 -0.835,-0.80761z" fill="#002B51"/>
</svg>
