<svg width="24" height="24" viewBox="0 0 24 24" fill="none" xmlns="http://www.w3.org/2000/svg">
<path d="M20.2496,18c0.4142,0 0.7499,0.3358 0.75,0.75c0,0.4142 -0.3358,0.75 -0.75,0.75h-16.49997c-0.41404,-0.0002 -0.75,-0.3359 -0.75,-0.75c0.0001,-0.414 0.33602,-0.7498 0.75,-0.75zM7.39807,5.48043c0.7233,-0.7132 1.86136,-0.82903 2.71873,-0.25l4.6719,3.1582l1.6484,-0.76953l0.1465,-0.06347c0.2624,-0.10913 0.8443,-0.32882 1.4854,-0.42871c0.4262,-0.06637 0.9206,-0.08641 1.3799,0.04394c0.478,0.1357 0.917,0.43629 1.1718,0.98242l0.0821,0.2041c0.1579,0.47344 0.0958,0.92947 -0.0821,1.32618c-0.1954,0.43554 -0.5296,0.80114 -0.8545,1.08494c-0.4885,0.4268 -1.03,0.7305 -1.2822,0.8613l-0.1435,0.0713l-7.5342,3.5137c-0.0029,0.0014 -0.0059,0.0035 -0.0088,0.0049l-0.9922,0.4629c-1.18585,0.5527 -2.57391,0.3956 -3.60254,-0.3897l-0.20117,-0.166l-1.44239,-1.2812c-0.52423,-0.4666 -0.41528,-1.3113 0.20508,-1.6338l0.89453,-0.4649l0.00098,-0.0009l0.17383,-0.0821c0.76969,-0.3273 1.647,-0.244 2.33887,0.2061l1.70996,-0.9932l-2.68457,-3.83202c-0.30158,-0.43077 -0.27625,-1.01124 0.06152,-1.41406z" fill="#002B51"/>
</svg>
