<svg width="24" height="24" viewBox="0 0 24 24" fill="none" xmlns="http://www.w3.org/2000/svg">
<path fill-rule="evenodd" clip-rule="evenodd" d="M7.60656 3.55887C7.85018 3.89386 7.77612 4.36293 7.44113 4.60656L4.69113 6.60656C4.35614 6.85018 3.88708 6.77612 3.64345 6.44113C3.39982 6.10614 3.47389 5.63708 3.80888 5.39345L6.55888 3.39345C6.89386 3.14982 7.36293 3.22388 7.60656 3.55887ZM12 5.25C7.71974 5.25 4.24995 8.71979 4.24995 13C4.24995 17.2802 7.71974 20.75 12 20.75C16.2802 20.75 19.75 17.2802 19.75 13C19.75 8.71979 16.2802 5.25 12 5.25ZM5.74995 13C5.74995 9.54822 8.54817 6.75 12 6.75C15.4517 6.75 18.25 9.54822 18.25 13C18.25 16.4518 15.4517 19.25 12 19.25C8.54817 19.25 5.74995 16.4518 5.74995 13ZM12.75 9.75C12.75 9.33578 12.4142 9 12 9C11.5857 9 11.25 9.33578 11.25 9.75V13C11.25 13.2634 11.3882 13.5076 11.6141 13.6431L14.1141 15.1431C14.4693 15.3562 14.93 15.2411 15.1431 14.8859C15.3562 14.5307 15.241 14.07 14.8858 13.8569L12.75 12.5754V9.75ZM17.4411 3.39345C17.1061 3.14982 16.6371 3.22388 16.3935 3.55887C16.1498 3.89386 16.2239 4.36293 16.5589 4.60656L19.3089 6.60656C19.6439 6.85018 20.1129 6.77612 20.3566 6.44113C20.6002 6.10614 20.5261 5.63708 20.1911 5.39345L17.4411 3.39345Z" fill="#002B51"/>
</svg>
