<svg width="24" height="24" viewBox="0 0 24 24" fill="none" xmlns="http://www.w3.org/2000/svg">
<path fill-rule="evenodd" clip-rule="evenodd" d="M17.4414,3.39356l2.75,2l0.0595,0.04785c0.2834,0.2535 0.3339,0.68592 0.1055,1c-0.2285,0.31391 -0.655,0.39846 -0.9834,0.20703l-0.0645,-0.04199l-2.75,-2l-0.0595,-0.04785c-0.2834,-0.25349 -0.3339,-0.68592 -0.1055,-1c0.2285,-0.3139 0.655,-0.39846 0.9834,-0.20703zM6.55855,3.39356c0.33491,-0.24357 0.80417,-0.16975 1.04785,0.16504c0.24357,0.33491 0.16975,0.80418 -0.16504,1.04785l-2.75,2c-0.33491,0.24358 -0.80418,0.16976 -1.04785,-0.16504c-0.24357,-0.33491 -0.16975,-0.80417 0.16504,-1.04785zM5.7499,13c0,3.4518 2.79822,6.25 6.25,6.25c3.4518,0 6.25,-2.7982 6.25,-6.25c0,-3.45178 -2.7982,-6.25 -6.25,-6.25c-3.45178,0 -6.25,2.79822 -6.25,6.25zM4.2499,13c0,-4.28021 3.46979,-7.75 7.75,-7.75c4.2802,0 7.75,3.46979 7.75,7.75c0,4.2802 -3.4698,7.75 -7.75,7.75c-4.28021,0 -7.75,-3.4698 -7.75,-7.75zM12.7499,9.75v2.8242l2.1357,1.2822l0.0635,0.043c0.3048,0.2274 0.394,0.6533 0.1944,0.9863c-0.1998,0.333 -0.6179,0.4556 -0.962,0.294l-0.0673,-0.0361l-2.5,-1.5c-0.2259,-0.1356 -0.3643,-0.3802 -0.3643,-0.6436v-3.25c0,-0.41421 0.3358,-0.75 0.75,-0.75c0.4142,0 0.75,0.33579 0.75,0.75z" fill="#002B51"/>
</svg>
