<svg width="24" height="24" viewBox="0 0 24 24" fill="none" xmlns="http://www.w3.org/2000/svg">
<path fill-rule="evenodd" clip-rule="evenodd" d="M7.60661 3.55887C7.85023 3.89386 7.77617 4.36293 7.44118 4.60656L4.69118 6.60656C4.35619 6.85018 3.88713 6.77612 3.6435 6.44113C3.39987 6.10614 3.47393 5.63708 3.80892 5.39345L6.55892 3.39345C6.89391 3.14982 7.36298 3.22388 7.60661 3.55887ZM12 5.25C7.71979 5.25 4.25 8.71979 4.25 13C4.25 17.2802 7.71979 20.75 12 20.75C16.2802 20.75 19.75 17.2802 19.75 13C19.75 8.71979 16.2802 5.25 12 5.25ZM12 9.00001C12.4142 9.00001 12.75 9.3358 12.75 9.75001V12.5754L14.8859 13.8569C15.2411 14.07 15.3562 14.5307 15.1431 14.8859C14.93 15.2411 14.4693 15.3562 14.1141 15.1431L11.6141 13.6431C11.3882 13.5076 11.25 13.2635 11.25 13V9.75001C11.25 9.3358 11.5858 9.00001 12 9.00001ZM17.4412 3.39345C17.1062 3.14982 16.6371 3.22388 16.3935 3.55887C16.1499 3.89386 16.2239 4.36293 16.5589 4.60656L19.3089 6.60656C19.6439 6.85018 20.113 6.77612 20.3566 6.44113C20.6002 6.10614 20.5262 5.63708 20.1912 5.39345L17.4412 3.39345Z" fill="#002B51"/>
</svg>
