<svg width="24" height="24" viewBox="0 0 24 24" fill="none" xmlns="http://www.w3.org/2000/svg">
<path fill-rule="evenodd" clip-rule="evenodd" d="M17.4414,3.39356l2.75,2l0.0596,0.04785c0.2833,0.2535 0.3339,0.68592 0.1054,1c-0.2284,0.31391 -0.655,0.39846 -0.9834,0.20703l-0.0644,-0.04199l-2.75,-2l-0.0596,-0.04785c-0.2833,-0.25349 -0.3339,-0.68592 -0.1054,-1c0.2284,-0.3139 0.655,-0.39846 0.9834,-0.20703zM6.55859,3.39356c0.33492,-0.24357 0.80418,-0.16975 1.04785,0.16504c0.24358,0.33491 0.16976,0.80418 -0.16503,1.04785l-2.75,2c-0.33492,0.24358 -0.80418,0.16976 -1.04786,-0.16504c-0.24357,-0.33491 -0.16975,-0.80417 0.16504,-1.04785zM4.24995,13c0,-4.28021 3.46979,-7.75 7.74995,-7.75c4.2803,0 7.75,3.46979 7.75,7.75c0,4.2802 -3.4697,7.75 -7.75,7.75c-4.28016,0 -7.74995,-3.4698 -7.74995,-7.75zM11.2499,13c0,0.2635 0.1384,0.508 0.3643,0.6436l2.5,1.5l0.0674,0.0361c0.344,0.1617 0.7621,0.0391 0.9619,-0.2939c0.1997,-0.3331 0.1104,-0.759 -0.1943,-0.9864l-0.0635,-0.0429l-2.1358,-1.2823v-2.82418c0,-0.41422 -0.3357,-0.75 -0.75,-0.75c-0.4142,0 -0.75,0.33578 -0.75,0.75z" fill="#002B51"/>
</svg>
