<svg width="24" height="24" viewBox="0 0 24 24" fill="none" xmlns="http://www.w3.org/2000/svg">
<path fill-rule="evenodd" clip-rule="evenodd" d="M7.60661,3.55887c0.24362,0.33499 0.16956,0.80406 -0.16543,1.04769l-2.75,2c-0.33499,0.24362 -0.80405,0.16956 -1.04768,-0.16543c-0.24363,-0.33499 -0.16957,-0.80405 0.16542,-1.04768l2.75,-2c0.33499,-0.24363 0.80406,-0.16957 1.04769,0.16542zM19.75,13c0,4.2802 -3.4698,7.75 -7.75,7.75c-4.28021,0 -7.75,-3.4698 -7.75,-7.75c0,-4.28021 3.46979,-7.75 7.75,-7.75c4.2802,0 7.75,3.46979 7.75,7.75zM11.25,9.75001v3.24999c0,0.2635 0.1382,0.5076 0.3641,0.6431l2.5,1.5c0.3552,0.2131 0.8159,0.098 1.029,-0.2572c0.2131,-0.3552 0.098,-0.8159 -0.2572,-1.029l-2.1359,-1.2815v-2.82539c0,-0.41421 -0.3358,-0.75 -0.75,-0.75c-0.4142,0 -0.75,0.33579 -0.75,0.75zM20.1912,5.39345c0.335,0.24363 0.409,0.71269 0.1654,1.04768c-0.2436,0.33499 -0.7127,0.40905 -1.0477,0.16543l-2.75,-2c-0.335,-0.24363 -0.409,-0.7127 -0.1654,-1.04769c0.2436,-0.33499 0.7127,-0.40905 1.0477,-0.16542z" fill="#002B51"/>
</svg>
