<svg width="24" height="24" viewBox="0 0 24 24" fill="none" xmlns="http://www.w3.org/2000/svg">
<path fill-rule="evenodd" clip-rule="evenodd" d="M7.60656,3.55887c0.24362,0.33499 0.16956,0.80406 -0.16543,1.04769l-2.75,2c-0.33499,0.24362 -0.80405,0.16956 -1.04768,-0.16543c-0.24363,-0.33499 -0.16956,-0.80405 0.16543,-1.04768l2.75,-2c0.33498,-0.24363 0.80405,-0.16957 1.04768,0.16542zM19.75,13c0,4.2802 -3.4698,7.75 -7.75,7.75c-4.28026,0 -7.75005,-3.4698 -7.75005,-7.75c0,-4.28021 3.46979,-7.75 7.75005,-7.75c4.2802,0 7.75,3.46979 7.75,7.75zM12,19.25c3.4517,0 6.25,-2.7982 6.25,-6.25c0,-3.45178 -2.7983,-6.25 -6.25,-6.25c-3.45183,0 -6.25005,2.79822 -6.25005,6.25c0,3.4518 2.79822,6.25 6.25005,6.25zM12.75,12.5754l2.1358,1.2815c0.3552,0.2131 0.4704,0.6738 0.2573,1.029c-0.2131,0.3552 -0.6738,0.4703 -1.029,0.2572l-2.5,-1.5c-0.2259,-0.1355 -0.3641,-0.3797 -0.3641,-0.6431v-3.25c0,-0.41422 0.3357,-0.75 0.75,-0.75c0.4142,0 0.75,0.33578 0.75,0.75zM20.1911,5.39345c0.335,0.24363 0.4091,0.71269 0.1655,1.04768c-0.2437,0.33499 -0.7127,0.40905 -1.0477,0.16543l-2.75,-2c-0.335,-0.24363 -0.4091,-0.7127 -0.1654,-1.04769c0.2436,-0.33499 0.7126,-0.40905 1.0476,-0.16542z" fill="#002B51"/>
</svg>
