<svg width="24" height="24" viewBox="0 0 24 24" fill="none" xmlns="http://www.w3.org/2000/svg">
<path d="M11.9999,5.24998c4.2802,0 7.75,3.46981 7.75,7.75002c0,4.2802 -3.4698,7.75 -7.75,7.75c-4.28018,0 -7.74998,-3.4698 -7.74998,-7.75c0.00003,-4.28021 3.46981,-7.75002 7.74998,-7.75002zM11.9999,6.74998c-3.45174,0 -6.24995,2.79824 -6.24998,6.25002c0,3.4518 2.79822,6.25 6.24998,6.25c3.4518,0 6.25,-2.7982 6.25,-6.25c0,-3.45178 -2.7982,-6.25002 -6.25,-6.25002zM11.9999,8.99998c0.4142,0 0.75,0.33581 0.75,0.75v2.82422l2.1358,1.2822l0.0634,0.043c0.3048,0.2274 0.394,0.6532 0.1944,0.9863c-0.1998,0.333 -0.6179,0.4556 -0.9619,0.294l-0.0674,-0.0362l-2.5,-1.5c-0.2259,-0.1355 -0.3643,-0.3801 -0.3643,-0.6435v-3.25002c0,-0.41419 0.3358,-0.75 0.75,-0.75zM6.55852,3.39353c0.33489,-0.24355 0.80416,-0.1697 1.04785,0.16504c0.24357,0.33491 0.16975,0.80418 -0.16504,1.04785l-2.75,2c-0.33491,0.24357 -0.80418,0.16975 -1.04785,-0.16503c-0.24352,-0.33491 -0.16973,-0.80419 0.16504,-1.04786zM16.3935,3.55857c0.2284,-0.31387 0.655,-0.39841 0.9834,-0.20703l0.0644,0.04199l2.75,2l0.0596,0.04786c0.2833,0.25349 0.3339,0.68592 0.1055,1c-0.2285,0.3139 -0.655,0.39845 -0.9834,0.20703l-0.0645,-0.042l-2.75,-2l-0.0596,-0.04785c-0.2832,-0.2535 -0.3338,-0.68594 -0.1054,-1z" fill="#002B51"/>
</svg>
