<svg width="24" height="24" viewBox="0 0 24 24" fill="none" xmlns="http://www.w3.org/2000/svg">
<path fill-rule="evenodd" clip-rule="evenodd" d="M9.63917,3.23938c1.06713,-1.7862 3.65453,-1.78619 4.72163,0.00001l7.9755,13.35021c1.095,1.8331 -0.2256,4.1604 -2.3608,4.1604h-15.95101c-2.13521,0 -3.45585,-2.3273 -2.3608,-4.1604zM11.25,8.24999v4.00001c0,0.4142 0.3358,0.75 0.75,0.75c0.4142,0 0.75,-0.3358 0.75,-0.75v-4.00001c0,-0.41422 -0.3358,-0.75 -0.75,-0.75c-0.4142,0 -0.75,0.33578 -0.75,0.75zM12,14.25c-0.6214,0 -1.125,0.5037 -1.125,1.125c0,0.6213 0.5036,1.125 1.125,1.125c0.6213,0 1.125,-0.5037 1.125,-1.125c0,-0.6213 -0.5037,-1.125 -1.125,-1.125z" fill="#002B51"/>
</svg>
