<svg width="24" height="24" viewBox="0 0 24 24" fill="none" xmlns="http://www.w3.org/2000/svg">
<path fill-rule="evenodd" clip-rule="evenodd" d="M11.1161 2.94454C11.6043 2.45638 12.3958 2.45638 12.8839 2.94454L21.0555 11.1161C21.5436 11.6043 21.5436 12.3957 21.0555 12.8839L12.8839 21.0555C12.3957 21.5436 11.6042 21.5436 11.1161 21.0554L2.94456 12.8839C2.45641 12.3957 2.45641 11.6043 2.94457 11.1161L11.1161 2.94454ZM13.9446 1.88388C12.8706 0.809939 11.1294 0.809937 10.0555 1.88388L1.88391 10.0555C0.809967 11.1294 0.809963 12.8706 1.8839 13.9445L10.0554 22.1161C11.1294 23.1901 12.8706 23.1901 13.9445 22.1161L22.1161 13.9445C23.1901 12.8706 23.1901 11.1294 22.1161 10.0554L13.9446 1.88388ZM12 7.49999C12.4142 7.49999 12.75 7.83578 12.75 8.24999V12.25C12.75 12.6642 12.4142 13 12 13C11.5858 13 11.25 12.6642 11.25 12.25V8.24999C11.25 7.83578 11.5858 7.49999 12 7.49999ZM13.125 15.375C13.125 15.9963 12.6213 16.5 12 16.5C11.3787 16.5 10.875 15.9963 10.875 15.375C10.875 14.7537 11.3787 14.25 12 14.25C12.6213 14.25 13.125 14.7537 13.125 15.375Z" fill="#002B51"/>
</svg>
