<svg width="24" height="24" viewBox="0 0 24 24" fill="none" xmlns="http://www.w3.org/2000/svg">
<path fill-rule="evenodd" clip-rule="evenodd" d="M10.6144 1.69462C11.4706 1.19515 12.5294 1.19515 13.3856 1.69462L20.3856 5.77796C21.2305 6.27079 21.75 7.17526 21.75 8.15335V15.8559C21.75 16.834 21.2305 17.7384 20.3856 18.2313L13.3856 22.3146C12.5294 22.8141 11.4706 22.8141 10.6144 22.3146L3.61435 18.2313C2.76951 17.7384 2.25 16.834 2.25 15.8559V8.15335C2.25 7.17526 2.7695 6.27079 3.61435 5.77796L10.6144 1.69462ZM12 7.49999C12.4142 7.49999 12.75 7.83578 12.75 8.24999V12.25C12.75 12.6642 12.4142 13 12 13C11.5858 13 11.25 12.6642 11.25 12.25V8.24999C11.25 7.83578 11.5858 7.49999 12 7.49999ZM13.125 15.375C13.125 15.9963 12.6213 16.5 12 16.5C11.3787 16.5 10.875 15.9963 10.875 15.375C10.875 14.7537 11.3787 14.25 12 14.25C12.6213 14.25 13.125 14.7537 13.125 15.375Z" fill="#002B51"/>
</svg>
