<svg width="24" height="24" viewBox="0 0 24 24" fill="none" xmlns="http://www.w3.org/2000/svg">
<path fill-rule="evenodd" clip-rule="evenodd" d="M9.63917 3.23938C10.7063 1.45318 13.2937 1.45319 14.3608 3.23939L22.3363 16.5896C23.4313 18.4227 22.1107 20.75 19.9755 20.75H4.02449C1.88928 20.75 0.568635 18.4227 1.66369 16.5896L9.63917 3.23938ZM12 7.49999C12.4142 7.49999 12.75 7.83577 12.75 8.24999V12.25C12.75 12.6642 12.4142 13 12 13C11.5858 13 11.25 12.6642 11.25 12.25V8.24999C11.25 7.83577 11.5858 7.49999 12 7.49999ZM13.125 15.375C13.125 15.9963 12.6213 16.5 12 16.5C11.3786 16.5 10.875 15.9963 10.875 15.375C10.875 14.7537 11.3786 14.25 12 14.25C12.6213 14.25 13.125 14.7537 13.125 15.375Z" fill="#002B51"/>
</svg>
