<svg width="24" height="24" viewBox="0 0 24 24" fill="none" xmlns="http://www.w3.org/2000/svg">
<path fill-rule="evenodd" clip-rule="evenodd" d="M10.6144,1.69462c0.8562,-0.49947 1.915,-0.49947 2.7712,0l7,4.08334c0.8449,0.49283 1.3644,1.3973 1.3644,2.37539v7.70255c0,0.9781 -0.5195,1.8825 -1.3644,2.3754l-7,4.0833c-0.8562,0.4995 -1.915,0.4995 -2.7712,0l-7.00005,-4.0833c-0.84484,-0.4929 -1.36435,-1.3973 -1.36435,-2.3754v-7.70255c0,-0.97809 0.5195,-1.88256 1.36435,-2.37539zM11.25,8.24999v4.00001c0,0.4142 0.3358,0.75 0.75,0.75c0.4142,0 0.75,-0.3358 0.75,-0.75v-4.00001c0,-0.41421 -0.3358,-0.75 -0.75,-0.75c-0.4142,0 -0.75,0.33579 -0.75,0.75zM12,14.25c-0.6213,0 -1.125,0.5037 -1.125,1.125c0,0.6213 0.5037,1.125 1.125,1.125c0.6213,0 1.125,-0.5037 1.125,-1.125c0,-0.6213 -0.5037,-1.125 -1.125,-1.125z" fill="#002B51"/>
</svg>
