<svg width="24" height="24" viewBox="0 0 24 24" fill="none" xmlns="http://www.w3.org/2000/svg">
<path fill-rule="evenodd" clip-rule="evenodd" d="M10.0553,1.88387c1.0739,-1.07394 2.8151,-1.07394 3.8891,0l8.1715,8.17153c1.074,1.074 1.074,2.8152 0,3.8891l-8.1716,8.1716c-1.0739,1.0739 -2.8151,1.0739 -3.8891,0l-8.1715,-8.1716c-1.07394,-1.0739 -1.07394,-2.8151 0,-3.8891zM11.25,8.24999v4.00001c0,0.4142 0.3358,0.75 0.75,0.75c0.4142,0 0.75,-0.3358 0.75,-0.75v-4.00001c0,-0.41421 -0.3358,-0.75 -0.75,-0.75c-0.4142,0 -0.75,0.33579 -0.75,0.75zM12,14.25c-0.6214,0 -1.125,0.5037 -1.125,1.125c0,0.6213 0.5036,1.125 1.125,1.125c0.6213,0 1.125,-0.5037 1.125,-1.125c0,-0.6213 -0.5037,-1.125 -1.125,-1.125z" fill="#002B51"/>
</svg>
