<svg width="24" height="24" viewBox="0 0 24 24" fill="none" xmlns="http://www.w3.org/2000/svg">
<path fill-rule="evenodd" clip-rule="evenodd" d="M10.0555 1.88388C11.1295 0.809937 12.8707 0.809939 13.9446 1.88388L22.1162 10.0554C23.1901 11.1294 23.1901 12.8706 22.1162 13.9445L13.9446 22.1161C12.8706 23.1901 11.1294 23.1901 10.0555 22.1161L1.88394 13.9445C0.810005 12.8706 0.810009 11.1294 1.88395 10.0555L10.0555 1.88388ZM12 7.49999C12.4143 7.49999 12.75 7.83578 12.75 8.24999V12.25C12.75 12.6642 12.4143 13 12 13C11.5858 13 11.25 12.6642 11.25 12.25V8.24999C11.25 7.83578 11.5858 7.49999 12 7.49999ZM13.125 15.375C13.125 15.9963 12.6214 16.5 12 16.5C11.3787 16.5 10.875 15.9963 10.875 15.375C10.875 14.7537 11.3787 14.25 12 14.25C12.6214 14.25 13.125 14.7537 13.125 15.375Z" fill="#002B51"/>
</svg>
