<svg width="24" height="24" viewBox="0 0 24 24" fill="none" xmlns="http://www.w3.org/2000/svg">
<path fill-rule="evenodd" clip-rule="evenodd" d="M11.3702 2.98569C11.7594 2.75865 12.2406 2.75865 12.6298 2.98569L19.6298 7.06902C20.0139 7.29303 20.25 7.70416 20.25 8.14874V15.8513C20.25 16.2958 20.0139 16.707 19.6298 16.931L12.6298 21.0143C12.2406 21.2414 11.7594 21.2414 11.3702 21.0143L4.37016 16.931C3.98614 16.707 3.75 16.2958 3.75 15.8513V8.14874C3.75 7.70416 3.98614 7.29303 4.37016 7.06902L11.3702 2.98569ZM13.3856 1.69002C12.5294 1.19054 11.4706 1.19054 10.6144 1.69002L3.61435 5.77335C2.7695 6.26618 2.25 7.17066 2.25 8.14874V15.8513C2.25 16.8293 2.76951 17.7338 3.61435 18.2267L10.6144 22.31C11.4706 22.8095 12.5294 22.8095 13.3856 22.31L20.3856 18.2267C21.2305 17.7338 21.75 16.8293 21.75 15.8513V8.14874C21.75 7.17066 21.2305 6.26618 20.3856 5.77335L13.3856 1.69002ZM12 7.5C12.4142 7.5 12.75 7.83578 12.75 8.25V12.25C12.75 12.6642 12.4142 13 12 13C11.5858 13 11.25 12.6642 11.25 12.25V8.25C11.25 7.83578 11.5858 7.5 12 7.5ZM13.125 15.375C13.125 15.9963 12.6213 16.5 12 16.5C11.3787 16.5 10.875 15.9963 10.875 15.375C10.875 14.7537 11.3787 14.25 12 14.25C12.6213 14.25 13.125 14.7537 13.125 15.375Z" fill="#002B51"/>
</svg>
