<svg width="24" height="24" viewBox="0 0 24 24" fill="none" xmlns="http://www.w3.org/2000/svg">
<path fill-rule="evenodd" clip-rule="evenodd" d="M2.95116,17.3592c-0.49776,0.8332 0.10254,1.8911 1.07309,1.8911h15.95095c0.9706,0 1.5709,-1.0579 1.0731,-1.8911l-7.9755,-13.35027c-0.485,-0.81191 -1.6611,-0.81191 -2.1462,0zM22.336,16.5899c1.0951,1.833 -0.2256,4.1604 -2.3608,4.1604h-15.95095c-2.13521,0 -3.45586,-2.3274 -2.36081,-4.1604l7.97549,-13.35025c1.06707,-1.7862 3.65457,-1.7862 4.72157,0zM12,7.50001c0.4142,0 0.75,0.33578 0.75,0.75v3.99999c0,0.4142 -0.3358,0.75 -0.75,0.75c-0.4142,0 -0.75,-0.3358 -0.75,-0.75v-3.99999c0,-0.41422 0.3358,-0.75 0.75,-0.75zM13.125,15.375c0,0.6213 -0.5037,1.125 -1.125,1.125c-0.6213,0 -1.125,-0.5037 -1.125,-1.125c0,-0.6213 0.5037,-1.125 1.125,-1.125c0.6213,0 1.125,0.5037 1.125,1.125z" fill="#002B51"/>
</svg>
