<svg width="24" height="24" viewBox="0 0 24 24" fill="none" xmlns="http://www.w3.org/2000/svg">
<path d="M15.7637,4.25c1.0416,0 1.9941,0.58885 2.4599,1.52051l2.4082,4.81639l2.2129,2.6553c0.2619,0.3144 0.4053,0.7109 0.4053,1.1201v2.1377c0,0.9665 -0.7835,1.75 -1.75,1.75h-0.2607c-0.1263,1.4016 -1.3048,2.5 -2.7393,2.5c-1.4345,0 -2.613,-1.0984 -2.7393,-2.5h-7.52144c-0.12631,1.4016 -1.30475,2.5 -2.73926,2.5c-1.43451,0 -2.61295,-1.0984 -2.73926,-2.5h-0.26074c-0.9665,0 -1.75,-0.7835 -1.75,-1.75v-10.5c0,-0.9665 0.7835,-1.75 1.75,-1.75zM5.5,16.75c-0.69036,0 -1.25,0.5596 -1.25,1.25c0,0.6904 0.55964,1.25 1.25,1.25c0.69036,0 1.25,-0.5596 1.25,-1.25c0,-0.6904 -0.55964,-1.25 -1.25,-1.25zM18.5,16.75c-0.6904,0 -1.25,0.5596 -1.25,1.25c0,0.6904 0.5596,1.25 1.25,1.25c0.6904,0 1.25,-0.5596 1.25,-1.25c0,-0.6904 -0.5596,-1.25 -1.25,-1.25zM8,8.25c-0.41421,0 -0.75,0.33579 -0.75,0.75v1.25h-1.25c-0.41421,0 -0.75,0.3358 -0.75,0.75c0,0.4142 0.33579,0.75 0.75,0.75h1.25v1.25c0,0.4142 0.33579,0.75 0.75,0.75c0.41421,0 0.75,-0.3358 0.75,-0.75v-1.25h1.25c0.4142,0 0.75,-0.3358 0.75,-0.75c0,-0.4142 -0.3358,-0.75 -0.75,-0.75h-1.25v-1.25c0,-0.41421 -0.33579,-0.75 -0.75,-0.75zM14.75,10.25h4.0361l-1.9043,-3.80859c-0.2117,-0.42348 -0.6447,-0.69141 -1.1181,-0.69141h-1.0137z" fill="#002B51"/>
</svg>
