<svg width="24" height="24" viewBox="0 0 24 24" fill="none" xmlns="http://www.w3.org/2000/svg">
<path d="M15.7637,4.25c1.0416,0 1.9941,0.58885 2.4599,1.52051l2.4073,4.81449l2.2138,2.6572l0.0928,0.1211c0.203,0.2921 0.3125,0.6408 0.3125,0.999v2.6377c0,0.9665 -0.7835,1.75 -1.75,1.75h-0.3564c-0.3268,1.1539 -1.3851,2 -2.6436,2c-1.2585,0 -2.3168,-0.8461 -2.6436,-2h-7.71285c-0.32671,1.1539 -1.38505,2 -2.64355,2c-1.2585,0 -2.31684,-0.8461 -2.64355,-2h-0.35645c-0.9665,0 -1.75,-0.7835 -1.75,-1.75v-11c0,-0.9665 0.7835,-1.75 1.75,-1.75zM5.5,16.75c-0.69036,0 -1.25,0.5596 -1.25,1.25c0,0.6904 0.55964,1.25 1.25,1.25c0.69036,0 1.25,-0.5596 1.25,-1.25c0,-0.6904 -0.55964,-1.25 -1.25,-1.25zM18.5,16.75c-0.6904,0 -1.25,0.5596 -1.25,1.25c0,0.6904 0.5596,1.25 1.25,1.25c0.6904,0 1.25,-0.5596 1.25,-1.25c0,-0.6904 -0.5596,-1.25 -1.25,-1.25zM2.5,5.75c-0.13807,0 -0.25,0.11193 -0.25,0.25v11c0,0.1381 0.11193,0.25 0.25,0.25h0.35645c0.32671,-1.1539 1.38505,-2 2.64355,-2c1.2585,0 2.31684,0.8461 2.64355,2h5.10645v-11.5zM14.75,17.25h1.1064c0.3268,-1.1539 1.3851,-2 2.6436,-2c1.2585,0 2.3168,0.8461 2.6436,2h0.3564c0.1381,0 0.25,-0.1119 0.25,-0.25v-2.6377c0,-0.044 -0.0115,-0.0873 -0.0332,-0.125l-0.0244,-0.0352l-2.044,-2.4521h-4.8984zM8,8.25c0.41421,0 0.75,0.33579 0.75,0.75v1.25h1.25c0.4142,0 0.75,0.3358 0.75,0.75c0,0.4142 -0.3358,0.75 -0.75,0.75h-1.25v1.25c0,0.4142 -0.33579,0.75 -0.75,0.75c-0.41421,0 -0.75,-0.3358 -0.75,-0.75v-1.25h-1.25c-0.41421,0 -0.75,-0.3358 -0.75,-0.75c0,-0.4142 0.33579,-0.75 0.75,-0.75h1.25v-1.25c0,-0.41421 0.33579,-0.75 0.75,-0.75zM14.75,10.25h4.0361l-1.9043,-3.80859c-0.2117,-0.42348 -0.6447,-0.69141 -1.1181,-0.69141h-1.0137z" fill="#002B51"/>
</svg>
