<svg width="24" height="24" viewBox="0 0 24 24" fill="none" xmlns="http://www.w3.org/2000/svg">
<path fill-rule="evenodd" clip-rule="evenodd" d="M2.5 4.75C1.5335 4.75 0.75 5.5335 0.75 6.5V16.5C0.75 17.4665 1.5335 18.25 2.5 18.25H2.85352C3.17998 19.4043 4.24122 20.25 5.5 20.25C6.75878 20.25 7.82002 19.4043 8.14648 18.25H14H15.8535C16.18 19.4043 17.2412 20.25 18.5 20.25C19.7588 20.25 20.82 19.4043 21.1465 18.25H21.5C22.4665 18.25 23.25 17.4665 23.25 16.5V14.3621C23.25 13.9527 23.1065 13.5562 22.8444 13.2417L20.6232 10.5763L18.2269 6.18316C17.7451 5.29969 16.8191 4.75 15.8127 4.75H14H2.5ZM18.5 14.75C17.2412 14.75 16.18 15.5957 15.8535 16.75H14.75V11.75H19.6487L21.6921 14.202C21.7295 14.2469 21.75 14.3036 21.75 14.3621V16.5C21.75 16.6381 21.6381 16.75 21.5 16.75H21.1465C20.82 15.5957 19.7588 14.75 18.5 14.75ZM18.5 16.25C19.1904 16.25 19.75 16.8096 19.75 17.5C19.75 18.1904 19.1904 18.75 18.5 18.75C17.8096 18.75 17.25 18.1904 17.25 17.5C17.25 16.8096 17.8096 16.25 18.5 16.25ZM8.14648 16.75H13.25V11V6.25H2.5C2.36193 6.25 2.25 6.36193 2.25 6.5V16.5C2.25 16.6381 2.36193 16.75 2.5 16.75H2.85352C3.17998 15.5957 4.24122 14.75 5.5 14.75C6.75878 14.75 7.82002 15.5957 8.14648 16.75ZM14.75 10.25V6.25H15.8127C16.2702 6.25 16.6911 6.49986 16.9101 6.90143L18.7366 10.25H14.75ZM4.25 17.5C4.25 16.8096 4.80964 16.25 5.5 16.25C6.19036 16.25 6.75 16.8096 6.75 17.5C6.75 18.1904 6.19036 18.75 5.5 18.75C4.80964 18.75 4.25 18.1904 4.25 17.5ZM8.75 9C8.75 8.58579 8.41421 8.25 8 8.25C7.58579 8.25 7.25 8.58579 7.25 9V10.25H6C5.58579 10.25 5.25 10.5858 5.25 11C5.25 11.4142 5.58579 11.75 6 11.75H7.25V13C7.25 13.4142 7.58579 13.75 8 13.75C8.41421 13.75 8.75 13.4142 8.75 13V11.75H10C10.4142 11.75 10.75 11.4142 10.75 11C10.75 10.5858 10.4142 10.25 10 10.25H8.75V9Z" fill="#002B51"/>
</svg>
