<svg width="24" height="24" viewBox="0 0 24 24" fill="none" xmlns="http://www.w3.org/2000/svg">
<path d="M11.9999,2.25002c1.5188,0 2.75,1.23121 2.75,2.75c0,1.2584 -0.8462,2.31577 -2,2.64258v2.10742h2.25c0.4143,0 0.75,0.33578 0.75,0.74998c0,0.4142 -0.3357,0.75 -0.75,0.75h-2.25v8.9453c2.4404,-0.3491 4.3384,-2.3751 4.4893,-4.874l-0.209,0.209c-0.2929,0.2929 -0.7676,0.2929 -1.0605,0c-0.2929,-0.2929 -0.2929,-0.7677 0,-1.0606l1.5,-1.5l0.1142,-0.0937c0.1223,-0.0815 0.2669,-0.126 0.416,-0.126c0.199,0 0.3897,0.0791 0.5303,0.2197l1.5,1.5l0.0518,0.0567c0.2403,0.2946 0.2228,0.7293 -0.0518,1.0039c-0.2746,0.2746 -0.7093,0.2921 -1.0039,0.0517l-0.0566,-0.0517l-0.2276,-0.2275c-0.1583,3.5874 -3.1157,6.4472 -6.7422,6.4472c-3.62642,0 -6.58478,-2.8598 -6.74312,-6.4472l-0.22656,0.2275c-0.2929,0.2929 -0.76766,0.2929 -1.06055,0c-0.29289,-0.2929 -0.29289,-0.7677 0,-1.0606l1.5,-1.5l0.11426,-0.0937c0.12229,-0.0815 0.26686,-0.126 0.41601,-0.126c0.19891,0 0.38963,0.0791 0.53028,0.2197l1.5,1.5l0.05175,0.0567c0.24031,0.2946 0.22285,0.7293 -0.05175,1.0039c-0.27461,0.2746 -0.70933,0.2921 -1.00391,0.0517l-0.05664,-0.0517l-0.20899,-0.209c0.1509,2.4989 2.04895,4.5249 4.48922,4.874v-8.9453h-2.24996c-0.41421,0 -0.75,-0.3358 -0.75,-0.75c0,-0.4142 0.33579,-0.74998 0.75,-0.74998h2.24996v-2.10742c-1.1537,-0.32681 -1.99996,-1.38418 -1.99996,-2.64258c0,-1.51879 1.23126,-2.75 2.74996,-2.75zM11.9999,3.75002c-0.6903,0 -1.25,0.55964 -1.25,1.25c0,0.69035 0.5597,1.25 1.25,1.25c0.6904,0 1.25,-0.55965 1.25,-1.25c0,-0.69036 -0.5596,-1.25 -1.25,-1.25z" fill="#002B51"/>
</svg>
