<svg width="24" height="24" viewBox="0 0 24 24" fill="none" xmlns="http://www.w3.org/2000/svg">
<path fill-rule="evenodd" clip-rule="evenodd" d="M14.75,5.00002c0,1.25878 -0.8457,2.32002 -2,2.64648v2.10352h2.25c0.4142,0 0.75,0.33578 0.75,0.74998c0,0.4142 -0.3358,0.75 -0.75,0.75h-2.25v8.9469c2.4408,-0.3492 4.34,-2.3771 4.4904,-4.8766l-0.2101,0.21c-0.2929,0.2929 -0.7677,0.2929 -1.0606,0c-0.2929,-0.2928 -0.2929,-0.7677 0,-1.0606l1.5,-1.5c0.1406,-0.1407 0.3314,-0.2197 0.5303,-0.2197c0.1989,0 0.3897,0.079 0.5303,0.2197l1.5,1.5c0.2929,0.2929 0.2929,0.7678 0,1.0606c-0.2929,0.2929 -0.7677,0.2929 -1.0606,0l-0.2264,-0.2263c-0.159,3.5868 -3.1172,6.446 -6.7433,6.446c-3.62607,0 -6.58434,-2.8592 -6.74329,-6.446l-0.22638,0.2263c-0.29289,0.2929 -0.76776,0.2929 -1.06066,0c-0.29289,-0.2928 -0.29289,-0.7677 0,-1.0606l1.49999,-1.5c0.14065,-0.1407 0.33142,-0.2197 0.53033,-0.2197c0.19891,0 0.38968,0.079 0.53033,0.2197l1.50001,1.5c0.29289,0.2929 0.29289,0.7678 0,1.0606c-0.29289,0.2929 -0.76776,0.2929 -1.06066,0l-0.21007,-0.21c0.15041,2.4995 2.04962,4.5274 4.4904,4.8766v-8.9469h-2.25c-0.41421,0 -0.75,-0.3358 -0.75,-0.75c0,-0.4142 0.33579,-0.74998 0.75,-0.74998h2.25v-2.10352c-1.1543,-0.32647 -2,-1.38771 -2,-2.64648c0,-1.51879 1.2312,-2.75 2.75,-2.75c1.5188,0 2.75,1.23121 2.75,2.75zM12,6.25002c0.6904,0 1.25,-0.55965 1.25,-1.25c0,-0.69036 -0.5596,-1.25 -1.25,-1.25c-0.6904,0 -1.25,0.55964 -1.25,1.25c0,0.69035 0.5596,1.25 1.25,1.25z" fill="#002B51"/>
</svg>
