<svg width="24" height="24" viewBox="0 0 24 24" fill="none" xmlns="http://www.w3.org/2000/svg">
<path fill-rule="evenodd" clip-rule="evenodd" d="M15.25,5c0,1.35198 -0.8255,2.51114 -2,3.00092v1.24908h1.75c0.6904,0 1.25,0.55964 1.25,1.25c0,0.6904 -0.5596,1.25 -1.25,1.25h-1.75v7.8338c1.6196,-0.4406 2.8949,-1.7167 3.3346,-3.3367c-0.3475,0.0235 -0.7029,-0.0976 -0.9685,-0.3632c-0.4881,-0.4882 -0.4881,-1.2796 0,-1.7678l1.5,-1.5c0.2344,-0.2344 0.5524,-0.3661 0.8839,-0.3661c0.3315,0 0.6495,0.1317 0.8839,0.3661l1.5,1.5c0.4881,0.4882 0.4881,1.2796 0,1.7678c-0.3338,0.3338 -0.8094,0.4393 -1.2328,0.3167c-0.5721,3.4327 -3.556,6.0494 -7.1511,6.0494c-3.59509,0 -6.57901,-2.6167 -7.15106,-6.0494c-0.42347,0.1226 -0.89904,0.0171 -1.23282,-0.3167c-0.48816,-0.4882 -0.48816,-1.2796 -0.00001,-1.7678l1.5,-1.5c0.23442,-0.2344 0.55236,-0.3661 0.88388,-0.3661c0.33152,0 0.64946,0.1317 0.88388,0.3661l1.50001,1.5c0.48816,0.4882 0.48816,1.2796 0.00001,1.7678c-0.26561,0.2656 -0.621,0.3867 -0.96848,0.3632c0.43964,1.62 1.715,2.8961 3.33459,3.3367v-7.8338h-1.75c-0.69036,0 -1.25,-0.5596 -1.25,-1.25c0,-0.69036 0.55964,-1.25 1.25,-1.25h1.75v-1.24908c-1.17448,-0.48978 -2,-1.64895 -2,-3.00092c0,-1.79493 1.4551,-3.25 3.25,-3.25c1.7949,0 3.25,1.45507 3.25,3.25zM12,5.75c0.4142,0 0.75,-0.33579 0.75,-0.75c0,-0.41421 -0.3358,-0.75 -0.75,-0.75c-0.4142,0 -0.75,0.33579 -0.75,0.75c0,0.41421 0.3358,0.75 0.75,0.75z" fill="#002B51"/>
</svg>
