<svg width="24" height="24" viewBox="0 0 24 24" fill="none" xmlns="http://www.w3.org/2000/svg">
<path fill-rule="evenodd" clip-rule="evenodd" d="M12 2.25002C10.4812 2.25002 9.25002 3.48123 9.25002 5.00002C9.25002 6.25879 10.0958 7.32003 11.25 7.6465V9.75002H9.00002C8.5858 9.75002 8.25002 10.0858 8.25002 10.5C8.25002 10.9142 8.5858 11.25 9.00002 11.25H11.25V20.1969C8.80924 19.8477 6.91003 17.8198 6.75962 15.3203L6.96969 15.5303C7.26258 15.8232 7.73745 15.8232 8.03035 15.5303C8.32324 15.2375 8.32324 14.7626 8.03034 14.4697L6.53034 12.9697C6.38968 12.829 6.19892 12.75 6.00001 12.75C5.80109 12.75 5.61033 12.829 5.46968 12.9697L3.96968 14.4697C3.67679 14.7626 3.67679 15.2375 3.96969 15.5303C4.26258 15.8232 4.73745 15.8232 5.03035 15.5303L5.25673 15.304C5.41568 18.8908 8.37394 21.75 12 21.75C15.6261 21.75 18.5843 18.8908 18.7433 15.304L18.9697 15.5303C19.2626 15.8232 19.7375 15.8232 20.0303 15.5303C20.3232 15.2375 20.3232 14.7626 20.0303 14.4697L18.5303 12.9697C18.3897 12.829 18.1989 12.75 18 12.75C17.8011 12.75 17.6103 12.829 17.4697 12.9697L15.9697 14.4697C15.6768 14.7626 15.6768 15.2375 15.9697 15.5303C16.2626 15.8232 16.7375 15.8232 17.0303 15.5303L17.2404 15.3203C17.09 17.8198 15.1908 19.8477 12.75 20.1969V11.25H15C15.4142 11.25 15.75 10.9142 15.75 10.5C15.75 10.0858 15.4142 9.75002 15 9.75002H12.75V7.6465C13.9043 7.32004 14.75 6.2588 14.75 5.00002C14.75 3.48123 13.5188 2.25002 12 2.25002ZM10.75 5.00002C10.75 4.30966 11.3097 3.75002 12 3.75002C12.6904 3.75002 13.25 4.30966 13.25 5.00002C13.25 5.69037 12.6904 6.25002 12 6.25002C11.3097 6.25002 10.75 5.69037 10.75 5.00002Z" fill="#002B51"/>
</svg>
