<svg width="24" height="24" viewBox="0 0 24 24" fill="none" xmlns="http://www.w3.org/2000/svg">
<path d="M11.9999,1.75c1.7949,0 3.25,1.45507 3.25,3.25c0,1.35172 -0.8259,2.50908 -2,2.99902v1.25098h1.75c0.6904,0 1.25,0.55964 1.25,1.25c0,0.6904 -0.5596,1.25 -1.25,1.25h-1.75v7.832c1.6199,-0.4408 2.8938,-1.7163 3.333,-3.3369c-0.347,0.023 -0.7015,-0.0961 -0.9668,-0.3613c-0.4881,-0.4882 -0.4881,-1.2794 0,-1.7676l1.5,-1.5l0.0918,-0.083c0.2224,-0.1822 0.502,-0.2832 0.792,-0.2832c0.3315,0 0.6494,0.1318 0.8838,0.3662l1.5,1.5l0.0859,0.0947c0.4005,0.491 0.3718,1.2152 -0.0859,1.6729c-0.3346,0.3346 -0.8112,0.4384 -1.2354,0.3144c-0.5713,3.4337 -3.5527,6.0518 -7.1484,6.0518c-3.59544,0 -6.57778,-2.6175 -7.14941,-6.0508c-0.42389,0.1236 -0.9001,0.0189 -1.23437,-0.3154c-0.48816,-0.4882 -0.48816,-1.2794 0,-1.7676l1.5,-1.5l0.09179,-0.083c0.22242,-0.1822 0.50194,-0.2832 0.79199,-0.2832c0.33152,0 0.64938,0.1318 0.88379,0.3662l1.5,1.5l0.08594,0.0947c0.40048,0.491 0.37172,1.2152 -0.08594,1.6729c-0.26545,0.2654 -0.6205,0.3855 -0.96777,0.3623c0.43939,1.6202 1.71434,2.8951 3.33398,3.3359v-7.832h-1.75c-0.69035,0 -1.25,-0.5596 -1.25,-1.25c0,-0.69036 0.55965,-1.25 1.25,-1.25h1.75v-1.25098c-1.17411,-0.48994 -2,-1.6473 -2,-2.99902c0,-1.79493 1.4551,-3.25 3.25,-3.25zM11.9999,4.25c-0.4142,0 -0.75,0.33579 -0.75,0.75c0,0.41421 0.3358,0.75 0.75,0.75c0.4142,0 0.75,-0.33579 0.75,-0.75c0,-0.41421 -0.3358,-0.75 -0.75,-0.75z" fill="#002B51"/>
</svg>
