<svg width="24" height="24" viewBox="0 0 24 24" fill="none" xmlns="http://www.w3.org/2000/svg">
<path fill-rule="evenodd" clip-rule="evenodd" d="M10.7499,5.00002c0,0.69035 0.5597,1.25 1.25,1.25c0.6904,0 1.25,-0.55965 1.25,-1.25c0,-0.69036 -0.5596,-1.25 -1.25,-1.25c-0.6903,0 -1.25,0.55964 -1.25,1.25zM14.7499,5.00002c0,1.25878 -0.8457,2.32002 -2,2.64648v2.10352h2.25c0.4143,0 0.75,0.33578 0.75,0.74998c0,0.4142 -0.3357,0.75 -0.75,0.75h-2.25v8.9469c2.4408,-0.3492 4.3401,-2.3772 4.4904,-4.8767l-0.2101,0.2101c-0.2929,0.2929 -0.7676,0.2929 -1.0605,0c-0.2929,-0.2929 -0.2929,-0.7677 0,-1.0606l1.5,-1.5l0.1142,-0.0937c0.1223,-0.0815 0.2669,-0.126 0.416,-0.126c0.199,0 0.3897,0.0791 0.5303,0.2197l1.5,1.5l0.0518,0.0567c0.2403,0.2946 0.2228,0.7293 -0.0518,1.0039c-0.2746,0.2746 -0.7093,0.2921 -1.0039,0.0517l-0.0566,-0.0517l-0.2265,-0.2265c-0.1589,3.587 -3.1172,6.4462 -6.7433,6.4462c-3.62606,0 -6.58435,-2.8592 -6.74325,-6.4461l-0.22643,0.2264c-0.2929,0.2929 -0.76766,0.2929 -1.06055,0c-0.29289,-0.2929 -0.29289,-0.7677 0,-1.0606l1.5,-1.5l0.11426,-0.0937c0.12229,-0.0815 0.26686,-0.126 0.41601,-0.126c0.19891,0 0.38963,0.0791 0.53028,0.2197l1.5,1.5l0.05175,0.0567c0.24031,0.2946 0.22285,0.7293 -0.05175,1.0039c-0.27461,0.2746 -0.70933,0.2921 -1.00391,0.0517l-0.05664,-0.0517l-0.21013,-0.2101c0.15035,2.4995 2.04959,4.5275 4.49036,4.8767v-8.9469h-2.24996c-0.41421,0 -0.75,-0.3358 -0.75,-0.75c0,-0.4142 0.33579,-0.74998 0.75,-0.74998h2.24996v-2.10352c-1.1542,-0.32647 -1.99996,-1.38771 -1.99996,-2.64648c0,-1.51879 1.23126,-2.75 2.74996,-2.75c1.5188,0 2.75,1.23121 2.75,2.75z" fill="#002B51"/>
</svg>
