<svg width="24" height="24" viewBox="0 0 24 24" fill="none" xmlns="http://www.w3.org/2000/svg">
<path fill-rule="evenodd" clip-rule="evenodd" d="M12 1.75C10.2051 1.75 8.75 3.20507 8.75 5C8.75 6.35197 9.57552 7.51114 10.75 8.00092V9.25H9C8.30964 9.25 7.75 9.80964 7.75 10.5C7.75 11.1904 8.30964 11.75 9 11.75H10.75V19.5838C9.13041 19.1432 7.85505 17.8671 7.41541 16.2471C7.76289 16.2706 8.11828 16.1495 8.38389 15.8839C8.87204 15.3957 8.87204 14.6043 8.38388 14.1161L6.88387 12.6161C6.64945 12.3817 6.33151 12.25 5.99999 12.25C5.66847 12.25 5.35053 12.3817 5.11611 12.6161L3.61611 14.1161C3.12796 14.6043 3.12796 15.3957 3.61612 15.8839C3.9499 16.2177 4.42547 16.3232 4.84894 16.2006C5.42099 19.6333 8.40491 22.25 12 22.25C15.5951 22.25 18.579 19.6333 19.1511 16.2006C19.5745 16.3232 20.0501 16.2177 20.3839 15.8839C20.872 15.3957 20.872 14.6043 20.3839 14.1161L18.8839 12.6161C18.6495 12.3817 18.3315 12.25 18 12.25C17.6685 12.25 17.3505 12.3817 17.1161 12.6161L15.6161 14.1161C15.128 14.6043 15.128 15.3957 15.6161 15.8839C15.8817 16.1495 16.2371 16.2706 16.5846 16.2471C16.1449 17.8671 14.8696 19.1432 13.25 19.5838V11.75H15C15.6904 11.75 16.25 11.1904 16.25 10.5C16.25 9.80964 15.6904 9.25 15 9.25H13.25V8.00092C14.4245 7.51114 15.25 6.35198 15.25 5C15.25 3.20507 13.7949 1.75 12 1.75ZM11.25 5C11.25 4.58579 11.5858 4.25 12 4.25C12.4142 4.25 12.75 4.58579 12.75 5C12.75 5.41421 12.4142 5.75 12 5.75C11.5858 5.75 11.25 5.41421 11.25 5Z" fill="#002B51"/>
</svg>
