<svg width="24" height="24" viewBox="0 0 24 24" fill="none" xmlns="http://www.w3.org/2000/svg">
<path fill-rule="evenodd" clip-rule="evenodd" d="M11.2499,5c0,0.41421 0.3358,0.75 0.75,0.75c0.4142,0 0.75,-0.33579 0.75,-0.75c0,-0.41421 -0.3358,-0.75 -0.75,-0.75c-0.4142,0 -0.75,0.33579 -0.75,0.75zM15.2499,5c0,1.35198 -0.8255,2.51114 -2,3.00092v1.24908h1.75c0.6904,0 1.25,0.55964 1.25,1.25c0,0.6904 -0.5596,1.25 -1.25,1.25h-1.75v7.8338c1.6196,-0.4406 2.895,-1.7167 3.3346,-3.3367c-0.3474,0.0234 -0.7028,-0.0977 -0.9684,-0.3633c-0.4881,-0.4882 -0.4881,-1.2794 0,-1.7676l1.5,-1.5l0.0918,-0.083c0.2224,-0.1822 0.502,-0.2832 0.792,-0.2832c0.3315,0 0.6494,0.1318 0.8838,0.3662l1.5,1.5l0.0859,0.0947c0.4005,0.491 0.3718,1.2152 -0.0859,1.6729c-0.3338,0.3338 -0.8093,0.4394 -1.2327,0.3168c-0.5721,3.4327 -3.556,6.0494 -7.1511,6.0494c-3.59512,0 -6.57907,-2.6168 -7.15107,-6.0496c-0.42342,0.1227 -0.89893,0.0172 -1.23271,-0.3166c-0.48816,-0.4882 -0.48816,-1.2794 0,-1.7676l1.5,-1.5l0.09179,-0.083c0.22242,-0.1822 0.50194,-0.2832 0.79199,-0.2832c0.33152,0 0.64937,0.1318 0.88379,0.3662l1.5,1.5l0.08594,0.0947c0.40048,0.491 0.37172,1.2152 -0.08594,1.6729c-0.26558,0.2656 -0.62093,0.3867 -0.96837,0.3634c0.43965,1.6199 1.715,2.896 3.33458,3.3366v-7.8338h-1.75c-0.69035,0 -1.25,-0.5596 -1.25,-1.25c0,-0.69036 0.55965,-1.25 1.25,-1.25h1.75v-1.24908c-1.17447,-0.48978 -2,-1.64895 -2,-3.00092c0,-1.79493 1.4551,-3.25 3.25,-3.25c1.7949,0 3.25,1.45507 3.25,3.25z" fill="#002B51"/>
</svg>
