<svg width="24" height="24" viewBox="0 0 24 24" fill="none" xmlns="http://www.w3.org/2000/svg">
<path fill-rule="evenodd" clip-rule="evenodd" d="M4,4.75c-0.13807,0 -0.25,0.11193 -0.25,0.25v2.25h2.5v-2.5zM7.75,4.75v2.5h2.5v-2.5zM11.75,4.75v2.5h8.5v-2.25c0,-0.13807 -0.1119,-0.25 -0.25,-0.25zM20.25,8.75h-9.25h-4h-3.25v10.25c0,0.1381 0.11193,0.25 0.25,0.25h16c0.1381,0 0.25,-0.1119 0.25,-0.25zM2.25,5c0,-0.9665 0.7835,-1.75 1.75,-1.75h3h4h9c0.9665,0 1.75,0.7835 1.75,1.75v3v11c0,0.9665 -0.7835,1.75 -1.75,1.75h-16c-0.9665,0 -1.75,-0.7835 -1.75,-1.75v-11z" fill="#002B51"/>
</svg>
