<svg width="24" height="24" viewBox="0 0 24 24" fill="none" xmlns="http://www.w3.org/2000/svg">
<path d="M20.25,8.75h-16.5v10.25l0.00488,0.0508c0.02345,0.1137 0.12443,0.1992 0.24512,0.1992h16c0.1381,0 0.25,-0.1119 0.25,-0.25zM7.75,7.25h2.5v-2.5h-2.5zM20.25,5c0,-0.13807 -0.1119,-0.25 -0.25,-0.25h-8.25v2.5h8.5zM3.75,7.25h2.5v-2.5h-2.25c-0.13807,0 -0.25,0.11193 -0.25,0.25zM21.75,19c0,0.9665 -0.7835,1.75 -1.75,1.75h-16c-0.90617,0 -1.6517,-0.6887 -1.74121,-1.5713l-0.00879,-0.1787v-14c0,-0.9665 0.7835,-1.75 1.75,-1.75h16c0.9665,0 1.75,0.7835 1.75,1.75z" fill="#002B51"/>
</svg>
