<svg width="24" height="24" viewBox="0 0 24 24" fill="none" xmlns="http://www.w3.org/2000/svg">
<path fill-rule="evenodd" clip-rule="evenodd" d="M4 4.75C3.86193 4.75 3.75 4.86193 3.75 5V7.25H6.25V4.75H4ZM7.75 4.75V7.25H10.25V4.75H7.75ZM11.75 4.75V7.25H20.25V5C20.25 4.86193 20.1381 4.75 20 4.75H11.75ZM20.25 8.75H11H7H3.75V19C3.75 19.1381 3.86193 19.25 4 19.25H20C20.1381 19.25 20.25 19.1381 20.25 19V8.75ZM2.25 5C2.25 4.0335 3.0335 3.25 4 3.25H7H11H20C20.9665 3.25 21.75 4.0335 21.75 5V8V19C21.75 19.9665 20.9665 20.75 20 20.75H4C3.0335 20.75 2.25 19.9665 2.25 19V8V5Z" fill="#002B51"/>
</svg>
