<svg width="24" height="24" viewBox="0 0 24 24" fill="none" xmlns="http://www.w3.org/2000/svg">
<path fill-rule="evenodd" clip-rule="evenodd" d="M20,3.25c0.9665,0 1.75,0.7835 1.75,1.75v14c0,0.9665 -0.7835,1.75 -1.75,1.75h-16c-0.9665,0 -1.75,-0.7835 -1.75,-1.75v-14c0,-0.9665 0.7835,-1.75 1.75,-1.75zM6.5,6.5c-0.55228,0 -1,0.44772 -1,1c0,0.55228 0.44772,1 1,1c0.55228,0 1,-0.44772 1,-1c0,-0.55228 -0.44772,-1 -1,-1zM10,8.5c0.5523,0 1,-0.44772 1,-1c0,-0.55228 -0.4477,-1 -1,-1c-0.55228,0 -1,0.44772 -1,1c0,0.55228 0.44772,1 1,1z" fill="#002B51"/>
</svg>
