<svg width="24" height="24" viewBox="0 0 24 24" fill="none" xmlns="http://www.w3.org/2000/svg">
<path fill-rule="evenodd" clip-rule="evenodd" d="M4 3.25C3.0335 3.25 2.25 4.0335 2.25 5V19C2.25 19.9665 3.0335 20.75 4 20.75H20C20.9665 20.75 21.75 19.9665 21.75 19V5C21.75 4.0335 20.9665 3.25 20 3.25H4ZM6.5 6.5C5.94772 6.5 5.5 6.94772 5.5 7.5C5.5 8.05228 5.94772 8.5 6.5 8.5C7.05228 8.5 7.5 8.05228 7.5 7.5C7.5 6.94772 7.05228 6.5 6.5 6.5ZM9 7.5C9 6.94772 9.44772 6.5 10 6.5C10.5523 6.5 11 6.94772 11 7.5C11 8.05228 10.5523 8.5 10 8.5C9.44772 8.5 9 8.05228 9 7.5Z" fill="#002B51"/>
</svg>
