<svg width="24" height="24" viewBox="0 0 24 24" fill="none" xmlns="http://www.w3.org/2000/svg">
<path fill-rule="evenodd" clip-rule="evenodd" d="M15.8839,12.8839c-0.4882,0.4881 -1.2796,0.4881 -1.7678,0c-0.4881,-0.4882 -0.4881,-1.2796 0,-1.7678l1.8661,-1.8661h-8.4822c-0.41421,0 -0.75,0.33579 -0.75,0.75v11c0,0.6904 -0.55964,1.25 -1.25,1.25c-0.69036,0 -1.25,-0.5596 -1.25,-1.25v-11c0,-1.79492 1.45507,-3.25 3.25,-3.25h8.4822l-1.8661,-1.86612c-0.4881,-0.48815 -0.4881,-1.27961 0,-1.76776c0.4882,-0.48816 1.2796,-0.48816 1.7678,0l4,4c0.4881,0.48815 0.4881,1.27961 0,1.76776z" fill="#002B51"/>
</svg>
