<svg width="24" height="24" viewBox="0 0 24 24" fill="none" xmlns="http://www.w3.org/2000/svg">
<path fill-rule="evenodd" clip-rule="evenodd" d="M4,9.24994c-0.69031,0 -1.24995,-0.55968 -1.25,-1.25v-5c0,-0.33138 0.131,-0.6494 0.36523,-0.88379c0.20511,-0.20512 0.47461,-0.33192 0.76075,-0.36035l0.12402,-0.00586h5c0.69035,0 1.25,0.55965 1.25,1.25c0,0.69032 -0.55967,1.24999 -1.25,1.25h-1.98242l5.40232,5.40234c1.0981,1.09842 1.7454,2.56352 1.8223,4.10742l0.0078,0.3096v6.9306c0,0.6903 -0.5597,1.25 -1.25,1.25c-0.6903,0 -1.25,-0.5596 -1.25,-1.25v-6.9296c-0.0002,-0.9942 -0.3958,-1.9474 -1.0986,-2.6504l-5.4014,-5.40238v1.98242c-0.00003,0.69028 -0.55969,1.24995 -1.25,1.25zM15.4993,8.25018c0.6903,0 1.25,0.55965 1.25,1.25c0,0.69032 -0.5597,1.25002 -1.25,1.25002c-0.6904,0 -1.25,-0.5597 -1.25,-1.25002c0,-0.69035 0.5596,-1.25 1.25,-1.25zM19.9993,6.25018c-0.6904,0 -1.25,-0.55964 -1.25,-1.25c0,-0.69035 0.5596,-1.25 1.25,-1.25c0.6903,0 1.25,0.55965 1.25,1.25c0,0.69036 -0.5597,1.25 -1.25,1.25zM17.7493,6.00018c0.6903,0 1.25,0.55965 1.25,1.25c0,0.69036 -0.5597,1.25 -1.25,1.25c-0.6904,0 -1.25,-0.55964 -1.25,-1.25c0,-0.69035 0.5596,-1.25 1.25,-1.25z" fill="#002B51"/>
</svg>
