<svg width="24" height="24" viewBox="0 0 24 24" fill="none" xmlns="http://www.w3.org/2000/svg">
<path d="M11.2108,4.03027c0.491,-0.40048 1.2152,-0.37172 1.6729,0.08594l6,5.99999l0.0859,0.0947c0.4005,0.491 0.3718,1.2152 -0.0859,1.6729c-0.4577,0.4577 -1.1819,0.4864 -1.6729,0.0859l-0.0947,-0.0859l-3.8662,-3.86622v10.98242c0,0.6904 -0.5596,1.25 -1.25,1.25c-0.6904,0 -1.25,-0.5596 -1.25,-1.25v-10.98242l-3.86621,3.86622c-0.48815,0.4881 -1.27942,0.4881 -1.76757,0c-0.48816,-0.4882 -0.48816,-1.2794 0,-1.7676l5.99998,-5.99999z" fill="#002B51"/>
</svg>
