<svg width="24" height="24" viewBox="0 0 24 24" fill="none" xmlns="http://www.w3.org/2000/svg">
<path fill-rule="evenodd" clip-rule="evenodd" d="M4.46967,8.53033c-0.29289,-0.29289 -0.29289,-0.76777 0,-1.06066l4,-4c0.29289,-0.29289 0.76777,-0.29289 1.06066,0c0.29289,0.29289 0.29289,0.76777 0,1.06066l-2.71967,2.71967h9.68934c1.5188,0 2.75,1.23122 2.75,2.75v11c0,0.4142 -0.3358,0.75 -0.75,0.75c-0.4142,0 -0.75,-0.3358 -0.75,-0.75v-11c0,-0.69036 -0.5596,-1.25 -1.25,-1.25h-9.68934l2.71967,2.7197c0.29289,0.2929 0.29289,0.7677 0,1.0606c-0.29289,0.2929 -0.76777,0.2929 -1.06066,0z" fill="#002B51"/>
</svg>
