<svg width="24" height="24" viewBox="0 0 24 24" fill="none" xmlns="http://www.w3.org/2000/svg">
<path fill-rule="evenodd" clip-rule="evenodd" d="M2.46963,7.46981l3.99999,-4l0.05665,-0.05176c0.29458,-0.24031 0.7293,-0.22285 1.0039,0.05176l4.00003,4c0.2929,0.29289 0.2929,0.76765 0,1.06054c-0.2929,0.2929 -0.7677,0.2929 -1.0606,0l-2.7197,-2.71972v8.18947c0,0.4142 -0.33579,0.75 -0.75,0.75c-0.41422,0 -0.75,-0.3358 -0.75,-0.75v-8.18947l-2.71973,2.71972l-0.05664,0.05176c-0.29458,0.24031 -0.7293,0.22285 -1.0039,-0.05176c-0.27461,-0.2746 -0.29207,-0.70932 -0.05176,-1.0039zM13.4735,15.418l0.0567,0.0518l2.7197,2.7197v-7.1894c0,-0.4142 0.3358,-0.75 0.75,-0.75c0.4142,0 0.75,0.3358 0.75,0.75v7.1894l2.7197,-2.7197l0.0567,-0.0518c0.2945,-0.2403 0.7293,-0.2228 1.0039,0.0518c0.2746,0.2746 0.292,0.7093 0.0517,1.0039l-0.0517,0.0567l-4,4c-0.2929,0.2928 -0.7677,0.2928 -1.0606,0l-4,-4l-0.0517,-0.0567c-0.2403,-0.2946 -0.2229,-0.7293 0.0517,-1.0039c0.2746,-0.2746 0.7093,-0.2921 1.0039,-0.0518z" fill="#002B51"/>
</svg>
