<svg width="24" height="24" viewBox="0 0 24 24" fill="none" xmlns="http://www.w3.org/2000/svg">
<path fill-rule="evenodd" clip-rule="evenodd" d="M12.8839,8.11614c0.4881,0.48816 0.4881,1.27961 0,1.76777c-0.4882,0.48819 -1.2796,0.48819 -1.7678,0l-1.8661,-1.86612v8.48221c0,0.4142 0.33579,0.75 0.75,0.75h11c0.6904,0 1.25,0.5597 1.25,1.25c0,0.6904 -0.5596,1.25 -1.25,1.25h-11c-1.79493,0 -3.25,-1.455 -3.25,-3.25v-8.48221l-1.86612,1.86612c-0.48815,0.48819 -1.27961,0.48819 -1.76776,0c-0.48816,-0.48816 -0.48816,-1.27961 0,-1.76777l4,-4c0.48815,-0.48815 1.27961,-0.48815 1.76776,0z" fill="#002B51"/>
</svg>
