<svg width="24" height="24" viewBox="0 0 24 24" fill="none" xmlns="http://www.w3.org/2000/svg">
<path d="M11.9999,4.25c0.4143,0 0.75,0.33579 0.75,0.75v12.1895l2.7198,-2.7198l0.0566,-0.0517c0.2946,-0.2403 0.7293,-0.2229 1.0039,0.0517c0.2746,0.2746 0.2921,0.7094 0.0518,1.0039l-0.0518,0.0567l-4,4c-0.2746,0.2746 -0.7093,0.292 -1.0039,0.0517l-0.0566,-0.0517l-4.00003,-4c-0.29289,-0.2929 -0.29289,-0.7677 0,-1.0606c0.29289,-0.2929 0.76765,-0.2929 1.06055,0l2.71968,2.7198v-12.1895c0,-0.41421 0.3358,-0.75 0.75,-0.75z" fill="#002B51"/>
</svg>
