<svg width="24" height="24" viewBox="0 0 24 24" fill="none" xmlns="http://www.w3.org/2000/svg">
<path d="M15.2109,4.03024c0.491,-0.40048 1.2152,-0.37172 1.6729,0.08594l4,4l0.0859,0.09472c0.4005,0.49097 0.3718,1.21519 -0.0859,1.67285c-0.4577,0.45765 -1.1819,0.48645 -1.6729,0.08594l-0.0947,-0.08594l-1.8662,-1.86621v8.48246c0,1.7949 -1.4551,3.25 -3.25,3.25h-11c-0.69036,0 -1.25,-0.5597 -1.25,-1.25c0,-0.6904 0.55964,-1.25 1.25,-1.25h11c0.4142,0 0.75,-0.3358 0.75,-0.75v-8.48246l-1.8662,1.86621c-0.4882,0.48815 -1.2794,0.48815 -1.7676,0c-0.4881,-0.48815 -0.4881,-1.27942 0,-1.76757l4,-4z" fill="#002B51"/>
</svg>
