<svg width="24" height="24" viewBox="0 0 24 24" fill="none" xmlns="http://www.w3.org/2000/svg">
<path fill-rule="evenodd" clip-rule="evenodd" d="M6.11612,3.11616c0.48815,-0.48816 1.27961,-0.48816 1.76776,0l4.00002,4c0.4881,0.48815 0.4881,1.27961 0,1.76776c-0.4882,0.48816 -1.2796,0.48816 -1.7678,0l-1.8661,-1.86611v6.98219c0,0.6904 -0.55965,1.25 -1.25,1.25c-0.69036,0 -1.25,-0.5596 -1.25,-1.25v-6.98219l-1.86612,1.86611c-0.48815,0.48816 -1.27961,0.48816 -1.76776,0c-0.48816,-0.48815 -0.48816,-1.27961 0,-1.76776zM15.75,16.9823v-5.9823c0,-0.6903 0.5596,-1.24996 1.25,-1.24996c0.6904,0 1.25,0.55966 1.25,1.24996v5.9823l1.8661,-1.8661c0.4882,-0.4882 1.2796,-0.4882 1.7678,0c0.4881,0.4881 0.4881,1.2796 0,1.7677l-4,4c-0.4882,0.4882 -1.2796,0.4882 -1.7678,0l-4,-4c-0.4881,-0.4881 -0.4881,-1.2796 0,-1.7677c0.4882,-0.4882 1.2796,-0.4882 1.7678,0z" fill="#002B51"/>
</svg>
