<svg width="24" height="24" viewBox="0 0 24 24" fill="none" xmlns="http://www.w3.org/2000/svg">
<path fill-rule="evenodd" clip-rule="evenodd" d="M19.5264,3.41801c0.2946,-0.24031 0.7293,-0.22285 1.0039,0.05176c0.2746,0.2746 0.2921,0.70932 0.0518,1.0039l-0.0518,0.05664l-4.7197,4.71973h2.1894c0.4143,0 0.75,0.33579 0.75,0.74996c0,0.4143 -0.3357,0.75 -0.75,0.75h-4c-0.4142,0 -0.75,-0.3357 -0.75,-0.75v-3.99996c0,-0.41421 0.3358,-0.75 0.75,-0.75c0.4143,0 0.75,0.33579 0.75,0.75v2.18945l4.7198,-4.71972zM10.75,14v4c0,0.4142 -0.3358,0.75 -0.75,0.75c-0.4142,0 -0.74999,-0.3358 -0.74999,-0.75v-2.1894l-4.71973,4.7197l-0.05664,0.0517c-0.29458,0.2403 -0.7293,0.2229 -1.0039,-0.0517c-0.27461,-0.2746 -0.29207,-0.7093 -0.05176,-1.0039l0.05176,-0.0567l4.71972,-4.7197h-2.18945c-0.41421,0 -0.75,-0.3358 -0.75,-0.75c0,-0.4142 0.33579,-0.75 0.75,-0.75h3.99999c0.4142,0 0.75,0.3358 0.75,0.75z" fill="#002B51"/>
</svg>
