<svg width="24" height="24" viewBox="0 0 24 24" fill="none" xmlns="http://www.w3.org/2000/svg">
<path fill-rule="evenodd" clip-rule="evenodd" d="M20.5303,6.46967c0.2929,0.29289 0.2929,0.76777 0,1.06066l-4,3.99997c-0.2929,0.2929 -0.7677,0.2929 -1.0606,0c-0.2929,-0.2929 -0.2929,-0.7677 0,-1.0606l2.7196,-2.7197h-8.1893c-0.41421,0 -0.75,-0.33579 -0.75,-0.75c0,-0.41421 0.33579,-0.75 0.75,-0.75h8.1893l-2.7196,-2.71967c-0.2929,-0.29289 -0.2929,-0.76777 0,-1.06066c0.2929,-0.29289 0.7677,-0.29289 1.0606,0zM5.81066,16.25h7.18934c0.4142,0 0.75,0.3358 0.75,0.75c0,0.4142 -0.3358,0.75 -0.75,0.75h-7.18934l2.71967,2.7197c0.29289,0.2929 0.29289,0.7677 0,1.0606c-0.29289,0.2929 -0.76777,0.2929 -1.06066,0l-4,-4c-0.29289,-0.2929 -0.29289,-0.7677 0,-1.0606l4,-4c0.29289,-0.2929 0.76777,-0.2929 1.06066,0c0.29289,0.2929 0.29289,0.7677 0,1.0606z" fill="#002B51"/>
</svg>
