<svg width="24" height="24" viewBox="0 0 24 24" fill="none" xmlns="http://www.w3.org/2000/svg">
<path fill-rule="evenodd" clip-rule="evenodd" d="M4.46967 15.4697C4.17678 15.7626 4.17678 16.2374 4.46967 16.5303L8.46967 20.5303C8.76256 20.8232 9.23744 20.8232 9.53033 20.5303C9.82322 20.2374 9.82322 19.7626 9.53033 19.4697L6.81066 16.75H16.5C18.0188 16.75 19.25 15.5188 19.25 14V3C19.25 2.58579 18.9142 2.25 18.5 2.25C18.0858 2.25 17.75 2.58579 17.75 3V14C17.75 14.6904 17.1904 15.25 16.5 15.25H6.81066L9.53033 12.5303C9.82322 12.2374 9.82322 11.7626 9.53033 11.4697C9.23744 11.1768 8.76256 11.1768 8.46967 11.4697L4.46967 15.4697Z" fill="#002B51"/>
</svg>
