<svg width="24" height="24" viewBox="0 0 24 24" fill="none" xmlns="http://www.w3.org/2000/svg">
<path d="M10.5264,5.41789c0.2945,-0.24026 0.7293,-0.22269 1.0039,0.05176c0.2746,0.2746 0.292,0.70933 0.0517,1.00391l-0.0517,0.05664l-4.71975,4.7197h12.18945c0.4142,0 0.7499,0.3359 0.75,0.75c0,0.4142 -0.3358,0.75 -0.75,0.75h-12.18945l4.71975,4.7198c0.2929,0.2928 0.2929,0.7676 0,1.0605c-0.2929,0.2929 -0.7677,0.2929 -1.0606,0l-5.99997,-6l-0.05176,-0.0566c-0.24015,-0.2946 -0.22279,-0.7294 0.05176,-1.0039l5.99997,-6.00005z" fill="#002B51"/>
</svg>
