<svg width="24" height="24" viewBox="0 0 24 24" fill="none" xmlns="http://www.w3.org/2000/svg">
<path d="M7.46974,4.46968c0.27458,-0.27457 0.70933,-0.29199 1.00391,-0.05176l0.05664,0.05176l4.00001,4c0.2929,0.29289 0.2929,0.76765 0,1.06055c-0.2929,0.29289 -0.7677,0.29289 -1.0606,0l-2.71968,-2.71973v9.6895c0,0.6903 0.55968,1.2499 1.24998,1.25h11c0.4142,0 0.75,0.3358 0.75,0.75c0,0.4142 -0.3358,0.75 -0.75,0.75h-11c-1.51873,-0.0001 -2.74998,-1.2313 -2.74998,-2.75v-9.6895l-2.71973,2.71973l-0.05664,0.05175c-0.29458,0.24031 -0.72931,0.22285 -1.00391,-0.05175c-0.27452,-0.27461 -0.29204,-0.70936 -0.05175,-1.00391l0.05175,-0.05664z" fill="#002B51"/>
</svg>
