<svg width="24" height="24" viewBox="0 0 24 24" fill="none" xmlns="http://www.w3.org/2000/svg">
<path fill-rule="evenodd" clip-rule="evenodd" d="M8.99999,2.25c0.41421,-0.00001 0.75001,0.33578 0.75001,0.74999c0,0.41421 -0.33578,0.75 -0.74999,0.75001l-3.18974,0.00004l6.25573,6.25566v0.0001c1.0777,1.078 1.6833,2.5398 1.6836,4.0641v0.0001l0.0004,6.93c0,0.4142 -0.3357,0.75 -0.75,0.75c-0.4142,0 -0.75,-0.3357 -0.75,-0.75l-0.0004,-6.9298v-0.0001c-0.0002,-1.1266 -0.4478,-2.207 -1.2444,-3.0038l-6.25543,-6.25545l0.00023,3.1891c0.00003,0.41421 -0.33573,0.75002 -0.74994,0.75005c-0.41422,0.00003 -0.75003,-0.33573 -0.75006,-0.74995l-0.00037,-4.99993c-0.00001,-0.19892 0.079,-0.3897 0.21965,-0.53037c0.14065,-0.14066 0.33142,-0.21969 0.53034,-0.21969zM15.4993,8.75009c0.4142,0 0.75,0.33579 0.75,0.75c0,0.41422 -0.3358,0.75001 -0.75,0.75001c-0.4142,0 -0.75,-0.33579 -0.75,-0.75001c0,-0.41421 0.3358,-0.75 0.75,-0.75zM19.9993,5.75009c-0.4142,0 -0.75,-0.33578 -0.75,-0.75c0,-0.41421 0.3358,-0.75 0.75,-0.75c0.4142,0 0.75,0.33579 0.75,0.75c0,0.41422 -0.3358,0.75 -0.75,0.75zM17.7493,6.50009c0.4142,0 0.75,0.33579 0.75,0.75c0,0.41422 -0.3358,0.75 -0.75,0.75c-0.4142,0 -0.75,-0.33578 -0.75,-0.75c0,-0.41421 0.3358,-0.75 0.75,-0.75z" fill="#002B51"/>
</svg>
