<svg width="24" height="24" viewBox="0 0 24 24" fill="none" xmlns="http://www.w3.org/2000/svg">
<path d="M18.5,1.75c0.6904,0 1.25,0.55964 1.25,1.25v11c0,1.7949 -1.4551,3.25 -3.25,3.25h-8.48242l1.86621,1.8662l0.08594,0.0947c0.40047,0.491 0.37167,1.2152 -0.08594,1.6729c-0.45766,0.4576 -1.18188,0.4864 -1.67285,0.0859l-0.09473,-0.0859l-4,-4c-0.45766,-0.4577 -0.48642,-1.1819 -0.08594,-1.6729l0.08594,-0.0947l4,-4c0.48816,-0.4881 1.27942,-0.4881 1.76758,0c0.48811,0.4882 0.48811,1.2794 0,1.7676l-1.86621,1.8662h8.48242c0.4142,0 0.75,-0.3358 0.75,-0.75v-11c0,-0.69036 0.5596,-1.25 1.25,-1.25z" fill="#002B51"/>
</svg>
