<svg width="24" height="24" viewBox="0 0 24 24" fill="none" xmlns="http://www.w3.org/2000/svg">
<path d="M9,1.74988c0.69016,0.0002 1.25,0.5598 1.25,1.25c0,0.6902 -0.55984,1.24979 -1.25,1.25h-1.98242l5.40232,5.40234c1.0979,1.09838 1.7453,2.56368 1.8223,4.10738l0.0078,0.3096v6.9307c0,0.6902 -0.5599,1.2497 -1.25,1.25c-0.6902,-0.0002 -1.25,-0.5598 -1.25,-1.25v-6.9297c-0.0002,-0.994 -0.3959,-1.9474 -1.0986,-2.6504l-5.4014,-5.40234v1.98242c-0.00003,0.69016 -0.55986,1.24975 -1.25,1.25c-0.69015,-0.0002 -1.24995,-0.5598 -1.25,-1.25v-5c0.00002,-0.33128 0.13111,-0.64943 0.36523,-0.88379c0.205,-0.20493 0.47482,-0.33186 0.76075,-0.36035l0.12402,-0.00586zM15.5,8.24988c0.6899,0.00039 1.2498,0.56003 1.25,1.25c0,0.69012 -0.56,1.24962 -1.25,1.25002c-0.6904,0 -1.25,-0.5597 -1.25,-1.25002c0.0002,-0.69022 0.5597,-1.25 1.25,-1.25zM17.75,5.99988c0.6899,0.00039 1.2498,0.56003 1.25,1.25c0,0.69011 -0.56,1.2496 -1.25,1.25c-0.6904,0 -1.25,-0.55965 -1.25,-1.25c0.0002,-0.69022 0.5597,-1.25 1.25,-1.25zM20,3.74988c0.6899,0.00039 1.2498,0.56003 1.25,1.25c0,0.69011 -0.56,1.2496 -1.25,1.25c-0.6904,0 -1.25,-0.55965 -1.25,-1.25c0.0002,-0.69022 0.5597,-1.25 1.25,-1.25z" fill="#002B51"/>
</svg>
