<svg width="24" height="24" viewBox="0 0 24 24" fill="none" xmlns="http://www.w3.org/2000/svg">
<path d="M19,13.2501h-10.98242l3.86622,3.8662c0.4881,0.4882 0.4881,1.2794 0,1.7676c-0.4882,0.4881 -1.2794,0.4881 -1.7676,0l-5.99999,-6l-0.08594,-0.0947c-0.40048,-0.491 -0.37172,-1.2152 0.08594,-1.6729l5.99999,-6l0.0947,-0.08594c0.491,-0.40048 1.2152,-0.37172 1.6729,0.08594c0.4577,0.45766 0.4864,1.18188 0.0859,1.67285l-0.0859,0.09473l-3.86622,3.86622h10.98242c0.6904,0 1.25,0.5596 1.25,1.25c0,0.6903 -0.5596,1.25 -1.25,1.25z" fill="#002B51"/>
</svg>
