<svg width="24" height="24" viewBox="0 0 24 24" fill="none" xmlns="http://www.w3.org/2000/svg">
<path d="M10,13.2499c0.4141,0 0.7499,0.3359 0.75,0.75v4c0,0.4142 -0.3358,0.7499 -0.75,0.75c-0.41416,-0.0001 -0.75,-0.3358 -0.75,-0.75v-2.1895l-4.71972,4.7198l-0.05664,0.0517c-0.29457,0.2403 -0.72931,0.2228 -1.00391,-0.0517c-0.27449,-0.2747 -0.29203,-0.7094 -0.05176,-1.0039l0.05176,-0.0567l4.71973,-4.7197h-2.18946c-0.41416,-0.0001 -0.75,-0.3358 -0.75,-0.75c0.0001,-0.4141 0.3359,-0.75 0.75,-0.75zM19.5264,3.41785c0.2945,-0.24019 0.7293,-0.2227 1.0039,0.05176c0.2745,0.27457 0.2919,0.70933 0.0517,1.00391l-0.0517,0.05664l-4.7197,4.71972h2.1894c0.4141,0.00005 0.7499,0.33592 0.75,0.75c0,0.41422 -0.3358,0.74992 -0.75,0.75002h-4c-0.4142,-0.0001 -0.75,-0.3358 -0.75,-0.75002v-4c0.0001,-0.41408 0.3359,-0.74994 0.75,-0.75c0.4141,0.00005 0.7499,0.33592 0.75,0.75v2.18946l4.7197,-4.71973z" fill="#002B51"/>
</svg>
