<svg width="24" height="24" viewBox="0 0 24 24" fill="none" xmlns="http://www.w3.org/2000/svg">
<path fill-rule="evenodd" clip-rule="evenodd" d="M10.8107,3.25h1.1893c1.7306,0 3.4223,0.51318 4.8612,1.47464c1.439,0.96146 2.5605,2.32803 3.2227,3.92688c0.6623,1.59888 0.8356,3.35818 0.498,5.05548c-0.3376,1.6974 -1.171,3.2565 -2.3947,4.4802c-1.2237,1.2237 -2.7828,2.0571 -4.4802,2.3947c-1.6973,0.3376 -3.4566,0.1643 -5.05548,-0.498c-1.59885,-0.6622 -2.96542,-1.7837 -3.92688,-3.2227c-0.96146,-1.4389 -1.47464,-3.1306 -1.47464,-4.8612c0,-0.4142 0.33579,-0.75 0.75,-0.75c0.41421,0 0.75,0.3358 0.75,0.75c0,1.4339 0.4252,2.8356 1.22185,4.0279c0.79664,1.1922 1.92893,2.1215 3.25369,2.6702c1.32476,0.5488 2.78246,0.6923 4.18886,0.4126c1.4064,-0.2797 2.6982,-0.9702 3.7121,-1.9842c1.014,-1.0139 1.7045,-2.3057 1.9842,-3.7121c0.2797,-1.4064 0.1362,-2.8641 -0.4126,-4.18886c-0.5487,-1.32476 -1.478,-2.45705 -2.6702,-3.25369c-1.1923,-0.79664 -2.594,-1.22185 -4.0279,-1.22185h-1.1893l1.7196,1.71967c0.2929,0.29289 0.2929,0.76777 0,1.06066c-0.2929,0.29289 -0.7677,0.29289 -1.0606,0l-3.00003,-3c-0.29289,-0.29289 -0.29289,-0.76777 0,-1.06066l3.00003,-3c0.2929,-0.29289 0.7677,-0.29289 1.0606,0c0.2929,0.29289 0.2929,0.76777 0,1.06066z" fill="#002B51"/>
</svg>
