<svg width="24" height="24" viewBox="0 0 24 24" fill="none" xmlns="http://www.w3.org/2000/svg">
<path fill-rule="evenodd" clip-rule="evenodd" d="M15.4697 19.5303C15.7626 19.8232 16.2374 19.8232 16.5303 19.5303L20.5303 15.5303C20.8232 15.2374 20.8232 14.7626 20.5303 14.4697C20.2374 14.1768 19.7626 14.1768 19.4697 14.4697L16.75 17.1893V7.5C16.75 5.98122 15.5188 4.75 14 4.75L3 4.75C2.58579 4.75 2.25 5.08579 2.25 5.5C2.25 5.91421 2.58579 6.25 3 6.25L14 6.25C14.6904 6.25 15.25 6.80964 15.25 7.5V17.1893L12.5303 14.4697C12.2374 14.1768 11.7626 14.1768 11.4697 14.4697C11.1768 14.7626 11.1768 15.2374 11.4697 15.5303L15.4697 19.5303Z" fill="#002B51"/>
</svg>
