<svg width="24" height="24" viewBox="0 0 24 24" fill="none" xmlns="http://www.w3.org/2000/svg">
<path d="M18.5,2.25c0.4142,0 0.75,0.33579 0.75,0.75v11c0,1.5188 -1.2312,2.75 -2.75,2.75h-9.68944l2.71973,2.7197l0.05176,0.0567c0.24031,0.2945 0.22284,0.7293 -0.05176,1.0039c-0.27461,0.2745 -0.70934,0.292 -1.00391,0.0517l-0.05664,-0.0517l-4,-4c-0.27454,-0.2746 -0.29201,-0.7094 -0.05175,-1.0039l0.05175,-0.0567l4,-4c0.29288,-0.2929 0.76765,-0.2928 1.06055,0c0.29289,0.2929 0.29289,0.7677 0,1.0606l-2.71973,2.7197h9.68944c0.6904,0 1.25,-0.5596 1.25,-1.25v-11c0,-0.41418 0.3358,-0.74995 0.75,-0.75z" fill="#002B51"/>
</svg>
