<svg width="24" height="24" viewBox="0 0 24 24" fill="none" xmlns="http://www.w3.org/2000/svg">
<path fill-rule="evenodd" clip-rule="evenodd" d="M12.5303,1.53022l-1.7198,1.71972h1.1895c0.0092,0 0.0185,0.00017 0.0276,0.0005l0.2966,0.00536c1.617,0.05994 3.1882,0.56743 4.5371,1.46875c1.4389,0.96144 2.5604,2.32797 3.2227,3.92676c0.6208,1.49879 0.8123,3.13879 0.5556,4.73629l-0.0576,0.3194c-0.3376,1.6973 -1.1708,3.2567 -2.3945,4.4804c-1.1473,1.1473 -2.5897,1.951 -4.1641,2.3252l-0.3164,0.0694c-1.6973,0.3376 -3.4568,0.1642 -5.05563,-0.4981c-1.59879,-0.6622 -2.96532,-1.7838 -3.92676,-3.2226c-0.90133,-1.349 -1.40881,-2.9201 -1.46875,-4.5371l-0.00586,-0.3243c0,-0.4142 0.33579,-0.75 0.75,-0.75c0.38817,0 0.70747,0.2949 0.74609,0.6729l0.00391,0.0771c0,1.434 0.42504,2.8361 1.22168,4.0284c0.79663,1.1921 1.92923,2.1212 3.25391,2.6699c1.32461,0.5487 2.78221,0.6918 4.18851,0.4121l0.2627,-0.0566c1.3044,-0.3101 2.4996,-0.9762 3.4502,-1.9268c1.0139,-1.0139 1.7036,-2.3065 1.9834,-3.7129l0.0478,-0.2637c0.2128,-1.3238 0.0545,-2.6828 -0.46,-3.92477c-0.5487,-1.32468 -1.4777,-2.45727 -2.6699,-3.25391c-1.1177,-0.74683 -2.4199,-1.16714 -3.7597,-1.21679l-0.2686,-0.00489h-1.1895l1.7198,1.71973l0.0517,0.05664c0.2403,0.29458 0.2229,0.7293 -0.0517,1.00391c-0.2746,0.2746 -0.7094,0.29206 -1.0039,0.05175l-0.0567,-0.05175l-2.99997,-3c-0.2929,-0.2929 -0.2929,-0.76766 0,-1.06055l2.99997,-3c0.2929,-0.29289 0.7677,-0.29289 1.0606,0c0.2929,0.29289 0.2929,0.76765 0,1.06055z" fill="#002B51"/>
</svg>
