<svg width="24" height="24" viewBox="0 0 24 24" fill="none" xmlns="http://www.w3.org/2000/svg">
<path fill-rule="evenodd" clip-rule="evenodd" d="M8.53033 4.46964C8.23744 4.17674 7.76256 4.17674 7.46967 4.46964L3.46967 8.46964C3.17678 8.76253 3.17678 9.2374 3.46967 9.5303C3.76256 9.82319 4.23744 9.82319 4.53033 9.5303L7.25 6.81063L7.25 16.5C7.25 18.0188 8.48122 19.25 10 19.25L21 19.25C21.4142 19.25 21.75 18.9142 21.75 18.5C21.75 18.0858 21.4142 17.75 21 17.75L10 17.75C9.30964 17.75 8.75 17.1903 8.75 16.5L8.75 6.81063L11.4697 9.5303C11.7626 9.82319 12.2374 9.82319 12.5303 9.5303C12.8232 9.2374 12.8232 8.76253 12.5303 8.46964L8.53033 4.46964Z" fill="#002B51"/>
</svg>
