<svg width="24" height="24" viewBox="0 0 24 24" fill="none" xmlns="http://www.w3.org/2000/svg">
<path d="M9.00009,14.2501c0.41421,0 0.75,0.3358 0.75,0.75v4c0,0.4142 -0.33579,0.75 -0.75,0.75c-0.41422,0 -0.75,-0.3358 -0.75,-0.75v-2.1895l-4.71973,4.7198l-0.05664,0.0517c-0.29458,0.2403 -0.7293,0.2229 -1.00391,-0.0517c-0.2746,-0.2746 -0.29206,-0.7094 -0.05175,-1.0039l0.05175,-0.0567l4.71973,-4.7197h-2.18945c-0.41422,0 -0.75,-0.3358 -0.75,-0.75c0,-0.4142 0.33578,-0.75 0.75,-0.75zM19.0001,14.2501c0.4142,0 0.75,0.3358 0.75,0.75c0,0.4142 -0.3358,0.75 -0.75,0.75h-2.1895l4.7198,4.7197l0.0517,0.0567c0.2403,0.2945 0.2229,0.7293 -0.0517,1.0039c-0.2746,0.2745 -0.7094,0.292 -1.0039,0.0517l-0.0567,-0.0517l-4.7197,-4.7198v2.1895c0,0.4142 -0.3358,0.75 -0.75,0.75c-0.4142,-0.0001 -0.75,-0.3358 -0.75,-0.75v-4c0,-0.4142 0.3358,-0.7499 0.75,-0.75zM2.46981,2.46981c0.27461,-0.2746 0.70933,-0.29206 1.00391,-0.05175l0.05664,0.05175l4.71973,4.71973v-2.18945c0,-0.41422 0.33578,-0.75 0.75,-0.75c0.41421,0 0.75,0.33578 0.75,0.75v4c0,0.41421 -0.33579,0.75 -0.75,0.75h-4c-0.41422,0 -0.75,-0.33579 -0.75,-0.75c0,-0.41422 0.33578,-0.75 0.75,-0.75h2.18945l-4.71973,-4.71973l-0.05175,-0.05664c-0.24031,-0.29458 -0.22285,-0.7293 0.05175,-1.00391zM20.5265,2.41806c0.2945,-0.24031 0.7293,-0.22285 1.0039,0.05175c0.2746,0.27461 0.292,0.70933 0.0517,1.00391l-0.0517,0.05664l-4.7198,4.71973h2.1895c0.4142,0 0.75,0.33578 0.75,0.75c0,0.41421 -0.3358,0.75 -0.75,0.75h-4c-0.4142,0 -0.75,-0.33579 -0.75,-0.75v-4c0,-0.41422 0.3358,-0.75 0.75,-0.75c0.4142,0 0.75,0.33578 0.75,0.75v2.18945l4.7197,-4.71973z" fill="#002B51"/>
</svg>
