<svg width="24" height="24" viewBox="0 0 24 24" fill="none" xmlns="http://www.w3.org/2000/svg">
<path d="M9.21094,13.0302c0.49097,-0.4004 1.21516,-0.3717 1.67286,0.086c0.4577,0.4576 0.4864,1.1819 0.0859,1.6728l-0.0859,0.0948l-3.86622,3.8662h0.98242c0.69036,0 1.25,0.5596 1.25,1.25c0,0.6903 -0.55964,1.25 -1.25,1.25h-4c-0.69036,0 -1.25,-0.5597 -1.25,-1.25v-4c0,-0.6904 0.55964,-1.25 1.25,-1.25c0.69036,0 1.25,0.5596 1.25,1.25v0.9824l3.86621,-3.8662zM20,2.74997c0.6904,0 1.25,0.55964 1.25,1.25v4c0,0.69036 -0.5596,1.25 -1.25,1.25c-0.6904,0 -1.25,-0.55964 -1.25,-1.25v-0.98242l-3.8662,3.86625l-0.0947,0.0859c-0.491,0.4005 -1.2152,0.3717 -1.6729,-0.0859c-0.4577,-0.4577 -0.4864,-1.18192 -0.0859,-1.67289l0.0859,-0.09473l3.8662,-3.86621h-0.9824c-0.6904,0 -1.25,-0.55964 -1.25,-1.25c0,-0.69036 0.5596,-1.25 1.25,-1.25z" fill="#002B51"/>
</svg>
