<svg width="24" height="24" viewBox="0 0 24 24" fill="none" xmlns="http://www.w3.org/2000/svg">
<path d="M13.2501,4.99999v10.98241l3.8662,-3.8662c0.4882,-0.4882 1.2795,-0.4882 1.7676,0c0.4882,0.4882 0.4882,1.2794 0,1.7676l-6,6l-0.0947,0.0859c-0.491,0.4005 -1.2152,0.3717 -1.6729,-0.0859l-5.99997,-6l-0.08593,-0.0947c-0.40049,-0.491 -0.37173,-1.2152 0.08593,-1.6729c0.45767,-0.4577 1.18189,-0.4864 1.67286,-0.0859l0.09472,0.0859l3.86619,3.8662v-10.98241c0,-0.69036 0.5597,-1.25 1.25,-1.25c0.6904,0 1.25,0.55964 1.25,1.25z" fill="#002B51"/>
</svg>
