<svg width="24" height="24" viewBox="0 0 24 24" fill="none" xmlns="http://www.w3.org/2000/svg">
<path d="M8.52638,3.41796c0.29455,-0.24028 0.7293,-0.22276 1.00391,0.05176c0.2746,0.2746 0.29205,0.70932 0.05175,1.0039l-0.05175,0.05664l-2.71973,2.71973h9.68944c1.5188,0 2.75,1.23126 2.75,2.75v11.00001c0,0.4142 -0.3358,0.75 -0.75,0.75c-0.4142,-0.0001 -0.75,-0.3358 -0.75,-0.75v-11.00001c0,-0.69032 -0.5597,-1.25 -1.25,-1.25h-9.68944l2.71973,2.71971c0.29289,0.2929 0.29289,0.7677 0,1.0606c-0.2929,0.2929 -0.76766,0.2929 -1.06055,0l-4,-4.00004l-0.05176,-0.05664c-0.24023,-0.29458 -0.22281,-0.72933 0.05176,-1.0039l4,-4z" fill="#002B51"/>
</svg>
