<svg width="24" height="24" viewBox="0 0 24 24" fill="none" xmlns="http://www.w3.org/2000/svg">
<path fill-rule="evenodd" clip-rule="evenodd" d="M11.4697,0.46967c0.2929,-0.29289 0.7677,-0.29289 1.0606,0l3,3c0.2929,0.29289 0.2929,0.76765 0,1.06055l-3,3l-0.0567,0.05175c-0.2945,0.24031 -0.7293,0.22285 -1.0039,-0.05175c-0.2746,-0.27461 -0.292,-0.70933 -0.0517,-1.00391l0.0517,-0.05664l1.7198,-1.71973h-1.1895l-0.2686,0.00489c-1.3398,0.04965 -2.64201,0.46996 -3.75972,1.21679c-1.19215,0.79664 -2.12122,1.92923 -2.66992,3.25391c-0.51445,1.24197 -0.67273,2.60097 -0.45996,3.92477l0.04785,0.2637c0.27974,1.4064 0.96947,2.699 1.9834,3.7129c0.95056,0.9506 2.14574,1.6167 3.45015,1.9268l0.2627,0.0566c1.4063,0.2797 2.8639,0.1366 4.1885,-0.4121c1.3247,-0.5487 2.4573,-1.4778 3.2539,-2.6699c0.7967,-1.1923 1.2217,-2.5944 1.2217,-4.0284l0.0039,-0.0771c0.0386,-0.378 0.3579,-0.6729 0.7461,-0.6729c0.4142,0 0.75,0.3358 0.75,0.75l-0.0059,0.3243c-0.0599,1.617 -0.5674,3.1881 -1.4687,4.5371c-0.9614,1.4388 -2.328,2.5604 -3.9268,3.2226c-1.5988,0.6623 -3.3583,0.8357 -5.0556,0.4981l-0.31644,-0.0694c-1.57439,-0.3742 -3.01679,-1.1779 -4.16406,-2.3252c-1.22371,-1.2237 -2.05691,-2.7831 -2.39453,-4.4804l-0.05762,-0.3194c-0.25661,-1.5975 -0.06515,-3.2375 0.55567,-4.73629c0.66226,-1.59879 1.78378,-2.96532 3.22265,-3.92676c1.34893,-0.90132 2.92013,-1.40881 4.53713,-1.46875l0.2966,-0.00536c0.0091,-0.00033 0.0184,-0.0005 0.0276,-0.0005h1.1895l-1.7198,-1.71972c-0.2929,-0.2929 -0.2929,-0.76766 0,-1.06055z" fill="#002B51"/>
</svg>
