<svg width="24" height="24" viewBox="0 0 24 24" fill="none" xmlns="http://www.w3.org/2000/svg">
<path d="M8.52638,7.41803c0.29454,-0.24027 0.7293,-0.22274 1.00391,0.05176c0.2746,0.2746 0.29206,0.70932 0.05175,1.00391l-0.05175,0.05664l-2.71973,2.71976h12.18944c0.4142,0 0.75,0.3358 0.75,0.75c0,0.4142 -0.3358,0.75 -0.75,0.75h-12.18944l2.71973,2.7197c0.29289,0.2929 0.29289,0.7676 0,1.0605c-0.2929,0.2929 -0.76767,0.2929 -1.06055,0l-4,-4l-0.05176,-0.0566c-0.24019,-0.2946 -0.22276,-0.7293 0.05176,-1.0039l4,-4.00001z" fill="#002B51"/>
</svg>
