<svg width="24" height="24" viewBox="0 0 24 24" fill="none" xmlns="http://www.w3.org/2000/svg">
<path d="M17.7501,14v-11c0,-0.41421 0.3358,-0.75 0.75,-0.75c0.4142,0 0.75,0.33579 0.75,0.75v11c0,1.5188 -1.2312,2.75 -2.75,2.75h-9.68944l2.71973,2.7197l0.05176,0.0567c0.24031,0.2945 0.22284,0.7293 -0.05176,1.0039c-0.2746,0.2746 -0.70932,0.292 -1.00391,0.0517l-0.05664,-0.0517l-4,-4c-0.2746,-0.2746 -0.29206,-0.7094 -0.05175,-1.0039l0.05175,-0.0567l4,-4c0.2929,-0.2929 0.76766,-0.2929 1.06055,0c0.29289,0.2929 0.29289,0.7677 0,1.0606l-2.71973,2.7197h9.68944c0.6904,0 1.25,-0.5596 1.25,-1.25z" fill="#002B51"/>
</svg>
