<svg width="24" height="24" viewBox="0 0 24 24" fill="none" xmlns="http://www.w3.org/2000/svg">
<path fill-rule="evenodd" clip-rule="evenodd" d="M4.11612 15.1161C3.62796 15.6043 3.62796 16.3957 4.11612 16.8839L8.11612 20.8839C8.60427 21.372 9.39573 21.372 9.88388 20.8839C10.372 20.3957 10.372 19.6043 9.88388 19.1161L8.01777 17.25H16.5C18.2949 17.25 19.75 15.7949 19.75 14V3C19.75 2.30964 19.1904 1.75 18.5 1.75C17.8096 1.75 17.25 2.30964 17.25 3V14C17.25 14.4142 16.9142 14.75 16.5 14.75H8.01777L9.88388 12.8839C10.372 12.3957 10.372 11.6043 9.88388 11.1161C9.39573 10.628 8.60427 10.628 8.11612 11.1161L4.11612 15.1161Z" fill="#002B51"/>
</svg>
