<svg width="24" height="24" viewBox="0 0 24 24" fill="none" xmlns="http://www.w3.org/2000/svg">
<path d="M14.4697,3.46972c0.2746,-0.27455 0.7094,-0.29202 1.0039,-0.05176l0.0567,0.05176l4,4c0.2746,0.27458 0.292,0.70932 0.0517,1.0039l-0.0517,0.05664l-4,4.00004c-0.2929,0.2929 -0.7677,0.2929 -1.0606,0c-0.2928,-0.2929 -0.2929,-0.7677 0,-1.0606l2.7198,-2.71971h-9.6895c-0.69033,0 -1.24995,0.55968 -1.25,1.25v11.00001c0,0.4142 -0.33579,0.75 -0.75,0.75c-0.41421,0 -0.75,-0.3358 -0.75,-0.75v-11.00001c0.00005,-1.51874 1.23125,-2.75 2.75,-2.75h9.6895l-2.7198,-2.71973l-0.0517,-0.05664c-0.2403,-0.29458 -0.2229,-0.72932 0.0517,-1.0039z" fill="#002B51"/>
</svg>
