<svg width="24" height="24" viewBox="0 0 24 24" fill="none" xmlns="http://www.w3.org/2000/svg">
<path d="M5,11.2499h12.1895l-4.7198,-4.71968c-0.2929,-0.2929 -0.2929,-0.76766 0,-1.06055c0.2929,-0.29289 0.7677,-0.29289 1.0606,0l6,6.00003l0.0517,0.0566c0.2403,0.2946 0.2229,0.7293 -0.0517,1.0039l-6,6l-0.0567,0.0518c-0.2945,0.2403 -0.7293,0.2228 -1.0039,-0.0518c-0.2746,-0.2746 -0.292,-0.7093 -0.0517,-1.0039l0.0517,-0.0566l4.7198,-4.7198h-12.1895c-0.41421,0 -0.75,-0.3357 -0.75,-0.75c0,-0.4142 0.33579,-0.75 0.75,-0.75z" fill="#002B51"/>
</svg>
