<svg width="24" height="24" viewBox="0 0 24 24" fill="none" xmlns="http://www.w3.org/2000/svg">
<path fill-rule="evenodd" clip-rule="evenodd" d="M16.8839 2.11612C16.3957 1.62796 15.6043 1.62796 15.1161 2.11612C14.628 2.60427 14.628 3.39573 15.1161 3.88388L16.9822 5.75H10C9.30964 5.75 8.75 6.30964 8.75 7C8.75 7.69035 9.30964 8.25 10 8.25H16.9822L15.1161 10.1161C14.628 10.6043 14.628 11.3957 15.1161 11.8839C15.6043 12.372 16.3957 12.372 16.8839 11.8839L20.8839 7.88388C21.372 7.39573 21.372 6.60427 20.8839 6.11612L16.8839 2.11612ZM8.88388 13.8839C9.37204 13.3957 9.37204 12.6043 8.88388 12.1161C8.39573 11.628 7.60427 11.628 7.11612 12.1161L3.11612 16.1161C2.62796 16.6043 2.62796 17.3957 3.11612 17.8839L7.11612 21.8839C7.60427 22.372 8.39573 22.372 8.88388 21.8839C9.37204 21.3957 9.37204 20.6043 8.88388 20.1161L7.01777 18.25H13C13.6904 18.25 14.25 17.6904 14.25 17C14.25 16.3096 13.6904 15.75 13 15.75H7.01777L8.88388 13.8839Z" fill="#002B51"/>
</svg>
