<svg width="24" height="24" viewBox="0 0 24 24" fill="none" xmlns="http://www.w3.org/2000/svg">
<path fill-rule="evenodd" clip-rule="evenodd" d="M2.46967 7.46963C2.17678 7.76252 2.17678 8.2374 2.46967 8.53029C2.76256 8.82318 3.23744 8.82318 3.53033 8.53029L6.25 5.81062L6.25 14C6.25 14.4142 6.58579 14.75 7 14.75C7.41421 14.75 7.75 14.4142 7.75 14L7.75 5.81062L10.4697 8.53029C10.7626 8.82318 11.2374 8.82318 11.5303 8.53029C11.8232 8.2374 11.8232 7.76252 11.5303 7.46963L7.53033 3.46963C7.23744 3.17674 6.76256 3.17674 6.46967 3.46963L2.46967 7.46963ZM13.5303 15.4696C13.2374 15.1767 12.7626 15.1767 12.4697 15.4696C12.1768 15.7625 12.1768 16.2374 12.4697 16.5303L16.4697 20.5303C16.7626 20.8232 17.2374 20.8232 17.5303 20.5303L21.5303 16.5303C21.8232 16.2374 21.8232 15.7625 21.5303 15.4696C21.2374 15.1767 20.7626 15.1767 20.4697 15.4696L17.75 18.1893L17.75 11C17.75 10.5857 17.4142 10.25 17 10.25C16.5858 10.25 16.25 10.5857 16.25 11L16.25 18.1893L13.5303 15.4696Z" fill="#002B51"/>
</svg>
