<svg width="24" height="24" viewBox="0 0 24 24" fill="none" xmlns="http://www.w3.org/2000/svg">
<path d="M10.5264,5.41793c0.2946,-0.24029 0.7293,-0.22276 1.0039,0.05176c0.2746,0.27459 0.2921,0.70932 0.0518,1.0039l-0.0518,0.05664l-4.71971,4.71977h12.18941c0.4142,0 0.75,0.3358 0.75,0.75c0,0.4142 -0.3357,0.75 -0.75,0.75h-12.18941l4.71971,4.7197c0.2929,0.2929 0.2929,0.7676 0,1.0605c-0.2929,0.2929 -0.7676,0.2929 -1.0605,0l-6.00003,-6l-0.05176,-0.0566c-0.24023,-0.2946 -0.22281,-0.7293 0.05176,-1.0039l6.00003,-6.00001z" fill="#002B51"/>
</svg>
