<svg width="24" height="24" viewBox="0 0 24 24" fill="none" xmlns="http://www.w3.org/2000/svg">
<path d="M18,13.25c0.4141,0 0.7499,0.3358 0.75,0.75c0,0.4142 -0.3358,0.75 -0.75,0.75h-2.1895l4.7197,4.7197l0.0518,0.0567c0.2403,0.2945 0.2228,0.7293 -0.0518,1.0039c-0.2746,0.2745 -0.7093,0.292 -1.0039,0.0517l-0.0566,-0.0517l-4.7197,-4.7198v2.1895c0,0.4142 -0.3358,0.75 -0.75,0.75c-0.4142,-0.0001 -0.75,-0.3358 -0.75,-0.75v-4c0,-0.4141 0.3358,-0.7499 0.75,-0.75zM3.46968,3.46972c0.27457,-0.27457 0.70932,-0.29198 1.0039,-0.05176l0.05664,0.05176l4.71973,4.71973v-2.18945c0.00005,-0.41415 0.33586,-0.74995 0.75,-0.75c0.41415,0 0.74995,0.33582 0.75005,0.75v4c0,0.4142 -0.3358,0.75 -0.75005,0.75h-4c-0.41417,-0.0001 -0.75,-0.3358 -0.75,-0.75c0.00005,-0.41414 0.33586,-0.74995 0.75,-0.75h2.18945l-4.71972,-4.71973l-0.05176,-0.05664c-0.24022,-0.29458 -0.22282,-0.72933 0.05176,-1.00391z" fill="#002B51"/>
</svg>
