<svg width="24" height="24" viewBox="0 0 24 24" fill="none" xmlns="http://www.w3.org/2000/svg">
<path d="M16.5001,8.75012h-9.68944l2.71973,2.71968c0.29289,0.2929 0.29289,0.7677 0,1.0606c-0.29289,0.2929 -0.76765,0.2929 -1.06055,0l-4,-4.00001l-0.05175,-0.05664c-0.24031,-0.29458 -0.22285,-0.7293 0.05175,-1.00391l4,-4l0.05664,-0.05175c0.29459,-0.24031 0.72931,-0.22285 1.00391,0.05175c0.2746,0.27461 0.29207,0.70933 0.05176,1.00391l-0.05176,0.05664l-2.71973,2.71973h9.68944c1.5188,0 2.75,1.23121 2.75,2.74998v11c0,0.4142 -0.3358,0.75 -0.75,0.75c-0.4142,0 -0.75,-0.3358 -0.75,-0.75v-11c0,-0.69034 -0.5596,-1.24998 -1.25,-1.24998z" fill="#002B51"/>
</svg>
