<svg width="24" height="24" viewBox="0 0 24 24" fill="none" xmlns="http://www.w3.org/2000/svg">
<path d="M7.11621,4.11624c0.45766,-0.45767 1.18188,-0.48643 1.67285,-0.08594l0.09473,0.08594l4.00001,4c0.4881,0.48815 0.4881,1.27942 0,1.76757c-0.4882,0.48819 -1.2794,0.48819 -1.7676,0l-1.8662,-1.86621v8.4824c0,0.4142 0.33579,0.75 0.75,0.75h11c0.6904,0 1.25,0.5597 1.25,1.25c0,0.6904 -0.5596,1.25 -1.25,1.25h-11c-1.79493,0 -3.25,-1.455 -3.25,-3.25v-8.4824l-1.86621,1.86621l-0.09473,0.08594c-0.49097,0.40045 -1.21519,0.37175 -1.67285,-0.08594c-0.45766,-0.45766 -0.48642,-1.18188 -0.08594,-1.67285l0.08594,-0.09472z" fill="#002B51"/>
</svg>
