<svg width="24" height="24" viewBox="0 0 24 24" fill="none" xmlns="http://www.w3.org/2000/svg">
<path d="M15.25,16.5001v-9.68941l-2.7197,2.71973c-0.2929,0.29289 -0.7677,0.29289 -1.0606,0c-0.2929,-0.29289 -0.2929,-0.76765 0,-1.06055l4,-4l0.0567,-0.05176c0.2945,-0.2403 0.7293,-0.22284 1.0039,0.05176l4,4l0.0517,0.05664c0.2403,0.29458 0.2229,0.72931 -0.0517,1.00391c-0.2746,0.2746 -0.7094,0.29207 -1.0039,0.05176l-0.0567,-0.05176l-2.7197,-2.71973v9.68941c0,1.5188 -1.2312,2.75 -2.75,2.75h-11c-0.41421,0 -0.75,-0.3357 -0.75,-0.75c0,-0.4142 0.33579,-0.75 0.75,-0.75h11c0.6904,0 1.25,-0.5596 1.25,-1.25z" fill="#002B51"/>
</svg>
