<svg width="24" height="24" viewBox="0 0 24 24" fill="none" xmlns="http://www.w3.org/2000/svg">
<path d="M9.52637,13.4179c0.29455,-0.2402 0.72933,-0.2228 1.00393,0.0517c0.2745,0.2746 0.2919,0.7094 0.0517,1.0039l-0.0517,0.0567l-4.71975,4.7197h2.18945c0.41414,0.0001 0.74997,0.3359 0.75,0.75c0,0.4142 -0.33584,0.7499 -0.75,0.75h-4c-0.41416,-0.0001 -0.75,-0.3358 -0.75,-0.75v-4c0.00003,-0.4141 0.33586,-0.7499 0.75,-0.75c0.41414,0.0001 0.74997,0.3359 0.75,0.75v2.1895l4.71973,-4.7198zM20,3.24991c0.4141,0.00006 0.75,0.33585 0.75,0.75v4c0,0.41417 -0.3358,0.74993 -0.75,0.75c-0.4142,-0.00007 -0.75,-0.33583 -0.75,-0.75v-2.18945l-4.7197,4.71974l-0.0567,0.0517c-0.2945,0.2403 -0.7293,0.2228 -1.0039,-0.0517c-0.2745,-0.2746 -0.292,-0.70937 -0.0517,-1.00392l0.0517,-0.05664l4.7198,-4.71973h-2.1895c-0.4142,-0.00007 -0.75,-0.33583 -0.75,-0.75c0,-0.41415 0.3359,-0.74994 0.75,-0.75z" fill="#002B51"/>
</svg>
