<svg width="24" height="24" viewBox="0 0 24 24" fill="none" xmlns="http://www.w3.org/2000/svg">
<path fill-rule="evenodd" clip-rule="evenodd" d="M4.53028,3.46977l4.71973,4.71972v-2.18945c0,-0.41421 0.33579,-0.75 0.74999,-0.75c0.4142,0 0.75,0.33579 0.75,0.75v3.99996c0,0.4143 -0.3358,0.75 -0.75,0.75h-3.99999c-0.41421,0 -0.75,-0.3357 -0.75,-0.75c0,-0.41417 0.33579,-0.74996 0.75,-0.74996h2.18945l-4.71972,-4.71973l-0.05176,-0.05664c-0.24031,-0.29458 -0.22285,-0.7293 0.05176,-1.0039c0.2746,-0.27461 0.70932,-0.29207 1.0039,-0.05176zM14,13.25h4c0.4143,0 0.75,0.3358 0.75,0.75c0,0.4142 -0.3357,0.75 -0.75,0.75h-2.1894l4.7197,4.7197l0.0518,0.0567c0.2403,0.2946 0.2228,0.7293 -0.0518,1.0039c-0.2746,0.2746 -0.7093,0.292 -1.0039,0.0517l-0.0566,-0.0517l-4.7198,-4.7197v2.1894c0,0.4142 -0.3357,0.75 -0.75,0.75c-0.4142,0 -0.75,-0.3358 -0.75,-0.75v-4c0,-0.4142 0.3358,-0.75 0.75,-0.75z" fill="#002B51"/>
</svg>
