<svg width="24" height="24" viewBox="0 0 24 24" fill="none" xmlns="http://www.w3.org/2000/svg">
<path d="M14,6.25h-11c-0.41421,0 -0.75,-0.33579 -0.75,-0.75c0,-0.41421 0.33579,-0.75 0.75,-0.75h11c1.5188,0 2.75,1.23122 2.75,2.75v9.6895l2.7197,-2.7198l0.0567,-0.0517c0.2945,-0.2403 0.7293,-0.2229 1.0039,0.0517c0.2746,0.2746 0.292,0.7094 0.0517,1.0039l-0.0517,0.0567l-4,4c-0.2746,0.2746 -0.7094,0.292 -1.0039,0.0517l-0.0567,-0.0517l-4,-4c-0.2929,-0.2929 -0.2929,-0.7677 0,-1.0606c0.2929,-0.2929 0.7677,-0.2929 1.0606,0l2.7197,2.7198v-9.6895c0,-0.69036 -0.5596,-1.25 -1.25,-1.25z" fill="#002B51"/>
</svg>
