<svg width="24" height="25" viewBox="0 0 24 25" fill="none" xmlns="http://www.w3.org/2000/svg">
<path fill-rule="evenodd" clip-rule="evenodd" d="M12.8839 2.88388C13.372 2.39573 13.372 1.60427 12.8839 1.11612C12.3957 0.627961 11.6043 0.627961 11.1161 1.11612L8.11612 4.11612C7.62796 4.60427 7.62796 5.39573 8.11612 5.88388L11.1161 8.88388C11.6043 9.37204 12.3957 9.37204 12.8839 8.88388C13.372 8.39573 13.372 7.60427 12.8839 7.11612L12.0178 6.25002C13.3466 6.25352 14.645 6.64918 15.7501 7.38758C16.8601 8.12928 17.7253 9.18349 18.2362 10.4169C18.7471 11.6503 18.8808 13.0075 18.6203 14.3169C18.3599 15.6262 17.717 16.829 16.773 17.773C15.829 18.717 14.6262 19.3599 13.3169 19.6203C12.0075 19.8808 10.6503 19.7471 9.41689 19.2362C8.18349 18.7253 7.12928 17.8601 6.38758 16.7501C5.64588 15.6401 5.25 14.335 5.25 13C5.25 12.3096 4.69036 11.75 4 11.75C3.30964 11.75 2.75 12.3096 2.75 13C2.75 14.8295 3.2925 16.6179 4.30891 18.139C5.32531 19.6602 6.76996 20.8458 8.46018 21.5459C10.1504 22.246 12.0103 22.4292 13.8046 22.0723C15.5989 21.7154 17.2471 20.8344 18.5407 19.5407C19.8344 18.2471 20.7154 16.5989 21.0723 14.8046C21.4292 13.0103 21.246 11.1504 20.5459 9.46018C19.8458 7.76996 18.6602 6.32531 17.139 5.30891C15.6228 4.29579 13.841 3.75351 12.0177 3.75002L12.8839 2.88388Z" fill="#002B51"/>
</svg>
