<svg width="24" height="24" viewBox="0 0 24 24" fill="none" xmlns="http://www.w3.org/2000/svg">
<path d="M12,3.75c0.6903,0 1.25,0.55964 1.25,1.25v10.9824l1.8662,-1.8662c0.4881,-0.4881 1.2794,-0.4881 1.7676,0c0.4881,0.4882 0.4881,1.2794 0,1.7676l-4,4l-0.0948,0.0859c-0.4909,0.4005 -1.2152,0.3717 -1.6728,-0.0859l-4.00003,-4l-0.08593,-0.0947c-0.40044,-0.491 -0.37168,-1.2152 0.08593,-1.6729c0.45765,-0.4576 1.18189,-0.4864 1.67286,-0.0859l0.09472,0.0859l1.86625,1.8662v-10.9824c0,-0.69033 0.5596,-1.24996 1.25,-1.25z" fill="#002B51"/>
</svg>
