<svg width="24" height="24" viewBox="0 0 24 24" fill="none" xmlns="http://www.w3.org/2000/svg">
<path fill-rule="evenodd" clip-rule="evenodd" d="M3.99988,3.24992h4c0.41421,0 0.75,0.33579 0.75,0.75c0,0.41422 -0.33579,0.75 -0.75,0.75h-2.18946l4.71978,4.71973l0.0517,0.05664c0.2403,0.29458 0.2229,0.72931 -0.0517,1.00391c-0.2747,0.2746 -0.70937,0.2921 -1.00395,0.0518l-0.05665,-0.0518l-4.71972,-4.71973v2.18945c0,0.41422 -0.33579,0.75 -0.75,0.75c-0.41422,0 -0.75,-0.33578 -0.75,-0.75v-4c0,-0.41421 0.33578,-0.75 0.75,-0.75zM14.5302,13.4697l4.7197,4.7197v-2.1895c0,-0.4142 0.3358,-0.75 0.75,-0.75c0.4142,0 0.75,0.3358 0.75,0.75v4c0,0.4142 -0.3358,0.75 -0.75,0.75h-4c-0.4142,0 -0.75,-0.3358 -0.75,-0.75c0,-0.4142 0.3358,-0.75 0.75,-0.75h2.1894l-4.7197,-4.7197l-0.0518,-0.0566c-0.2403,-0.2946 -0.2228,-0.7293 0.0518,-1.0039c0.2746,-0.2747 0.7093,-0.2921 1.0039,-0.0518z" fill="#002B51"/>
</svg>
