<svg width="24" height="24" viewBox="0 0 24 24" fill="none" xmlns="http://www.w3.org/2000/svg">
<path fill-rule="evenodd" clip-rule="evenodd" d="M15 2.25C14.5858 2.24999 14.25 2.58578 14.25 2.99999C14.25 3.4142 14.5858 3.74999 15 3.75L18.1897 3.75004L11.934 10.0057L11.934 10.0058C10.8563 11.0838 10.2507 12.5456 10.2504 14.0699V14.07L10.25 21C10.25 21.4142 10.5857 21.75 11 21.75C11.4142 21.75 11.75 21.4143 11.75 21L11.7504 14.0702V14.0701C11.7506 12.9435 12.1982 11.8631 12.9948 11.0663L19.2502 4.81085L19.25 7.99995C19.25 8.41416 19.5857 8.74997 19.9999 8.75C20.4142 8.75003 20.75 8.41427 20.75 8.00005L20.7504 3.00012C20.7504 2.8012 20.6714 2.61042 20.5307 2.46975C20.3901 2.32909 20.1993 2.25006 20.0004 2.25006L15 2.25ZM8.50073 8.75009C8.08652 8.75009 7.75073 9.08588 7.75073 9.50009C7.75073 9.91431 8.08652 10.2501 8.50073 10.2501C8.91495 10.2501 9.25073 9.91431 9.25073 9.50009C9.25073 9.08588 8.91495 8.75009 8.50073 8.75009ZM3.25073 5.00009C3.25073 4.58588 3.58652 4.25009 4.00073 4.25009C4.41495 4.25009 4.75073 4.58588 4.75073 5.00009C4.75073 5.41431 4.41495 5.75009 4.00073 5.75009C3.58652 5.75009 3.25073 5.41431 3.25073 5.00009ZM6.25073 6.50009C5.83652 6.50009 5.50073 6.83588 5.50073 7.25009C5.50073 7.66431 5.83652 8.00009 6.25073 8.00009C6.66495 8.00009 7.00073 7.66431 7.00073 7.25009C7.00073 6.83588 6.66495 6.50009 6.25073 6.50009Z" fill="#002B51"/>
</svg>
