<svg width="24" height="24" viewBox="0 0 24 24" fill="none" xmlns="http://www.w3.org/2000/svg">
<path d="M10,12.75c0.6903,0 1.25,0.5597 1.25,1.25v4c0,0.6903 -0.5597,1.25 -1.25,1.25c-0.69034,0 -1.24998,-0.5597 -1.25,-1.25v-0.9824l-3.86621,3.8662l-0.09473,0.0859c-0.49095,0.4005 -1.21519,0.3717 -1.67285,-0.0859c-0.45766,-0.4577 -0.48642,-1.1819 -0.08594,-1.6729l0.08594,-0.0947l3.86621,-3.8662h-0.98242c-0.69035,0 -1.24998,-0.5597 -1.25,-1.25c0,-0.6903 0.55964,-1.25 1.25,-1.25zM19.2109,3.03028c0.491,-0.40048 1.2152,-0.37172 1.6729,0.08594c0.4576,0.45766 0.4864,1.18189 0.0859,1.67285l-0.0859,0.09473l-3.8662,3.86621h0.9824c0.6903,0.00001 1.25,0.55965 1.25,1.24999c0,0.6904 -0.5597,1.25 -1.25,1.25h-4c-0.6904,0 -1.25,-0.5596 -1.25,-1.25v-3.99999c0,-0.69035 0.5596,-1.25 1.25,-1.25c0.6903,0.00001 1.25,0.55965 1.25,1.25v0.98242l3.8662,-3.86621z" fill="#002B51"/>
</svg>
