<svg width="24" height="24" viewBox="0 0 24 24" fill="none" xmlns="http://www.w3.org/2000/svg">
<path d="M14.75,16.5v-8.48246l-1.8662,1.86622c-0.4882,0.48814 -1.2794,0.48814 -1.7676,0c-0.4881,-0.48816 -0.4881,-1.27943 0,-1.76758l4,-4l0.0947,-0.08594c0.491,-0.40048 1.2152,-0.37172 1.6729,0.08594l4,4l0.0859,0.09472c0.4005,0.49097 0.3718,1.21519 -0.0859,1.67286c-0.4577,0.45764 -1.1819,0.48644 -1.6729,0.08593l-0.0947,-0.08593l-1.8662,-1.86622v8.48246c0,1.7949 -1.4551,3.25 -3.25,3.25h-11c-0.69036,0 -1.25,-0.5597 -1.25,-1.25c0,-0.6904 0.55964,-1.25 1.25,-1.25h11c0.4142,0 0.75,-0.3358 0.75,-0.75z" fill="#002B51"/>
</svg>
