<svg width="24" height="24" viewBox="0 0 24 24" fill="none" xmlns="http://www.w3.org/2000/svg">
<path d="M4.4967,4.4974c0.29277,-0.29277 0.76763,-0.29251 1.06055,0l11.91995,11.9189v-9.50288c0,-0.41411 0.3359,-0.74987 0.75,-0.75c0.414,0.00021 0.7499,0.33594 0.75,0.75v11.31348l-0.0039,0.0771c-0.0386,0.3779 -0.3581,0.6727 -0.7461,0.6729h-11.31448l-0.07617,-0.0039c-0.37811,-0.0385 -0.67383,-0.3578 -0.67383,-0.7461c0.00005,-0.3882 0.29575,-0.7076 0.67383,-0.7461l0.07617,-0.0039h9.50388l-11.9199,-11.91895c-0.29239,-0.2928 -0.2924,-0.76775 0,-1.06055z" fill="#002B51"/>
</svg>
