<svg width="24" height="24" viewBox="0 0 24 24" fill="none" xmlns="http://www.w3.org/2000/svg">
<path d="M18,12.75c0.6904,0 1.25,0.5597 1.25,1.25c0,0.6904 -0.5597,1.25 -1.25,1.25h-0.9824l3.8662,3.8662l0.0859,0.0948c0.4005,0.4909 0.3717,1.2151 -0.0859,1.6728c-0.4577,0.4576 -1.1819,0.4864 -1.6729,0.0859l-0.0947,-0.0859l-3.8662,-3.8662v0.9824c0,0.6904 -0.5597,1.25 -1.25,1.25c-0.6903,0 -1.25,-0.5597 -1.25,-1.25v-4c0,-0.6903 0.5597,-1.25 1.25,-1.25zM3.11621,3.11623c0.45766,-0.45767 1.18188,-0.48643 1.67285,-0.08594l0.09473,0.08594l3.86621,3.86621v-0.98242c0,-0.69036 0.55964,-1.25 1.25,-1.25c0.6904,0 1.25,0.55964 1.25,1.25v3.99998c0,0.6904 -0.5596,1.25 -1.25,1.25h-4c-0.69036,0 -1.25,-0.5596 -1.25,-1.25c0,-0.69034 0.55964,-1.24999 1.25,-1.24999h0.98242l-3.86621,-3.86621l-0.08594,-0.09472c-0.40048,-0.49097 -0.37172,-1.21519 0.08594,-1.67285z" fill="#002B51"/>
</svg>
