<svg width="24" height="24" viewBox="0 0 24 24" fill="none" xmlns="http://www.w3.org/2000/svg">
<path fill-rule="evenodd" clip-rule="evenodd" d="M19.8839,15.1161c0.4881,0.4882 0.4881,1.2796 0,1.7678l-4,4c-0.4882,0.4881 -1.2796,0.4881 -1.7678,0c-0.4881,-0.4882 -0.4881,-1.2796 0,-1.7678l1.8661,-1.8661h-8.4822c-1.79493,0 -3.25,-1.4551 -3.25,-3.25v-11c0,-0.69036 0.55964,-1.25 1.25,-1.25c0.69036,0 1.25,0.55964 1.25,1.25v11c0,0.4142 0.33579,0.75 0.75,0.75h8.4822l-1.8661,-1.8661c-0.4881,-0.4882 -0.4881,-1.2796 0,-1.7678c0.4882,-0.4881 1.2796,-0.4881 1.7678,0z" fill="#002B51"/>
</svg>
