<svg width="24" height="24" viewBox="0 0 24 24" fill="none" xmlns="http://www.w3.org/2000/svg">
<path d="M8.52642,7.41808c0.29458,-0.24031 0.72931,-0.22284 1.00391,0.05175c0.2746,0.27461 0.29207,0.70933 0.05176,1.00391l-0.05176,0.05664l-2.71973,2.71972h12.1895c0.4142,0 0.75,0.3358 0.75,0.75c-0.0001,0.4142 -0.3358,0.75 -0.75,0.75h-12.1895l2.71973,2.7197c0.29289,0.2929 0.29289,0.7677 0,1.0606c-0.2929,0.2928 -0.76767,0.2929 -1.06055,0l-4,-4l-0.05176,-0.0567c-0.24028,-0.2945 -0.22278,-0.7293 0.05176,-1.0039l4,-3.99997z" fill="#002B51"/>
</svg>
