<svg width="24" height="24" viewBox="0 0 24 24" fill="none" xmlns="http://www.w3.org/2000/svg">
<path d="M12,4.25c0.4142,0.00006 0.75,0.33582 0.75,0.75v12.1894l4.7197,-4.7197l0.0567,-0.0517c0.2946,-0.2403 0.7293,-0.2229 1.0039,0.0517c0.2745,0.2746 0.292,0.7094 0.0517,1.0039l-0.0517,0.0567l-6,6c-0.2746,0.2745 -0.7093,0.2919 -1.0039,0.0517l-0.0567,-0.0517l-5.99997,-6c-0.29289,-0.2929 -0.29289,-0.7677 0,-1.0606c0.29289,-0.2929 0.76766,-0.2929 1.06055,0l4.71972,4.7197v-12.1894c0,-0.41422 0.3358,-0.75 0.75,-0.75z" fill="#002B51"/>
</svg>
