<svg width="24" height="24" viewBox="0 0 24 24" fill="none" xmlns="http://www.w3.org/2000/svg">
<path fill-rule="evenodd" clip-rule="evenodd" d="M4.11612,8.88388c-0.48816,-0.48815 -0.48816,-1.27961 0,-1.76776l4,-4c0.48815,-0.48816 1.27961,-0.48816 1.76776,0c0.48812,0.48815 0.48812,1.27961 0,1.76776l-1.86611,1.86612h8.48223c1.7949,0 3.25,1.45508 3.25,3.25v11c0,0.6904 -0.5596,1.25 -1.25,1.25c-0.6904,0 -1.25,-0.5596 -1.25,-1.25v-11c0,-0.41421 -0.3358,-0.75 -0.75,-0.75h-8.48223l1.86611,1.8661c0.48812,0.4882 0.48812,1.2796 0,1.7678c-0.48815,0.4881 -1.27961,0.4881 -1.76776,0z" fill="#002B51"/>
</svg>
