<svg width="24" height="24" viewBox="0 0 24 24" fill="none" xmlns="http://www.w3.org/2000/svg">
<path d="M10,13.2499c0.4141,0.0001 0.75,0.3359 0.75,0.75v4c0,0.4142 -0.3358,0.7499 -0.75,0.75c-0.41417,0 -0.74997,-0.3358 -0.74997,-0.75v-2.1895l-4.71972,4.7198l-0.05664,0.0517c-0.29457,0.2403 -0.7293,0.2228 -1.00391,-0.0517c-0.27456,-0.2746 -0.29205,-0.7094 -0.05176,-1.0039l0.05176,-0.0567l4.71973,-4.7197h-2.18946c-0.4142,0 -0.75,-0.3358 -0.75,-0.75c0.00008,-0.4141 0.33585,-0.75 0.75,-0.75zM19.5264,3.41786c0.2946,-0.24018 0.7293,-0.22275 1.0039,0.05176c0.2746,0.27456 0.292,0.70933 0.0518,1.00391l-0.0518,0.05664l-4.7197,4.71972h2.1894c0.4141,0.00005 0.7499,0.3359 0.75,0.75c0,0.41421 -0.3358,0.74991 -0.75,0.75001h-4c-0.4142,0 -0.75,-0.3358 -0.75,-0.75001v-4c0.0001,-0.41412 0.3359,-0.74999 0.75,-0.75c0.4141,0.00005 0.7499,0.3359 0.75,0.75v2.18946l4.7198,-4.71973z" fill="#002B51"/>
</svg>
