<svg width="24" height="24" viewBox="0 0 24 24" fill="none" xmlns="http://www.w3.org/2000/svg">
<path d="M19.0001,12.7501h-12.18944l2.71973,2.7197c0.29289,0.2929 0.29289,0.7677 0,1.0606c-0.29289,0.2929 -0.76765,0.2929 -1.06055,0l-4,-4l-0.05175,-0.0567c-0.24031,-0.2945 -0.22285,-0.7293 0.05175,-1.0039l4,-3.99996l0.05664,-0.05175c0.29459,-0.24031 0.72931,-0.22285 1.00391,0.05175c0.2746,0.27461 0.29207,0.70933 0.05176,1.00391l-0.05176,0.05664l-2.71973,2.71971h12.18944c0.4142,0 0.75,0.3358 0.75,0.75c0,0.4142 -0.3358,0.75 -0.75,0.75z" fill="#002B51"/>
</svg>
