<svg width="24" height="24" viewBox="0 0 24 24" fill="none" xmlns="http://www.w3.org/2000/svg">
<path d="M18.25,11v5.9824l1.8662,-1.8662l0.0948,-0.0859c0.4909,-0.4005 1.2152,-0.3717 1.6728,0.0859c0.4576,0.4577 0.4864,1.1819 0.086,1.6729l-0.086,0.0947l-4,4c-0.4881,0.4881 -1.2794,0.4881 -1.7676,0l-4,-4l-0.0859,-0.0947c-0.4005,-0.491 -0.3717,-1.2152 0.0859,-1.6729c0.4577,-0.4576 1.1819,-0.4864 1.6729,-0.0859l0.0947,0.0859l1.8662,1.8662v-5.9824c0,-0.6903 0.5597,-1.24997 1.25,-1.24997c0.6904,0.00003 1.25,0.55967 1.25,1.24997zM11.8838,7.11624c0.4881,0.48816 0.4882,1.27944 0,1.76758c-0.4881,0.48812 -1.2794,0.48808 -1.7676,0l-1.86617,-1.86621v6.98239c-0.00004,0.6903 -0.5597,1.25 -1.25,1.25c-0.69033,0 -1.24995,-0.5597 -1.25,-1.25v-6.98239l-1.86621,1.86621l-0.09473,0.08593c-0.49094,0.40046 -1.21518,0.37166 -1.67285,-0.08593c-0.45765,-0.45766 -0.4864,-1.18189 -0.08593,-1.67285l0.08593,-0.09473l4,-4c0.48816,-0.48816 1.27943,-0.48816 1.76758,0z" fill="#002B51"/>
</svg>
