<svg width="24" height="24" viewBox="0 0 24 24" fill="none" xmlns="http://www.w3.org/2000/svg">
<path d="M9.25,7.50004v8.48246l1.8662,-1.8663c0.4882,-0.4881 1.2794,-0.4881 1.7676,0c0.4881,0.4882 0.4881,1.2795 0,1.7676l-4.00001,4l-0.09473,0.086c-0.49097,0.4004 -1.21519,0.3717 -1.67285,-0.086l-4,-4l-0.08594,-0.0947c-0.40048,-0.491 -0.37172,-1.2152 0.08594,-1.6729c0.45766,-0.4576 1.18188,-0.4864 1.67285,-0.0859l0.09473,0.0859l1.86621,1.8663v-8.48246c0,-1.79493 1.45508,-3.25 3.25,-3.25h11c0.6904,0 1.25,0.55964 1.25,1.25c0,0.69036 -0.5596,1.25 -1.25,1.25h-11c-0.41421,0 -0.75,0.33579 -0.75,0.75z" fill="#002B51"/>
</svg>
