<svg width="24" height="24" viewBox="0 0 24 24" fill="none" xmlns="http://www.w3.org/2000/svg">
<path fill-rule="evenodd" clip-rule="evenodd" d="M15.1161,4.11608c0.4882,-0.48815 1.2796,-0.48815 1.7678,0l4,4c0.4881,0.48816 0.4881,1.27961 0,1.76777c-0.4882,0.48815 -1.2796,0.48815 -1.7678,0l-1.8661,-1.86612v8.48227c0,1.7949 -1.4551,3.25 -3.25,3.25h-11c-0.69036,0 -1.25,-0.5597 -1.25,-1.25c0,-0.6904 0.55964,-1.25 1.25,-1.25h11c0.4142,0 0.75,-0.3358 0.75,-0.75v-8.48227l-1.8661,1.86612c-0.4882,0.48815 -1.2796,0.48815 -1.7678,0c-0.4881,-0.48816 -0.4881,-1.27961 0,-1.76777z" fill="#002B51"/>
</svg>
