<svg width="24" height="24" viewBox="0 0 24 24" fill="none" xmlns="http://www.w3.org/2000/svg">
<path fill-rule="evenodd" clip-rule="evenodd" d="M15.1161 19.8839C15.6043 20.372 16.3957 20.372 16.8839 19.8839L20.8839 15.8839C21.372 15.3957 21.372 14.6043 20.8839 14.1161C20.3957 13.628 19.6043 13.628 19.1161 14.1161L17.25 15.9822V7.49999C17.25 5.70507 15.7949 4.24999 14 4.24999L3 4.24999C2.30964 4.24999 1.75 4.80963 1.75 5.49999C1.75 6.19035 2.30964 6.74999 3 6.74999L14 6.74999C14.4142 6.74999 14.75 7.08578 14.75 7.49999V15.9822L12.8839 14.1161C12.3957 13.628 11.6043 13.628 11.1161 14.1161C10.628 14.6043 10.628 15.3957 11.1161 15.8839L15.1161 19.8839Z" fill="#002B51"/>
</svg>
