<svg width="24" height="24" viewBox="0 0 24 24" fill="none" xmlns="http://www.w3.org/2000/svg">
<path fill-rule="evenodd" clip-rule="evenodd" d="M17.8839,10.3839l-5,5c-0.4882,0.4881 -1.2796,0.4881 -1.7678,0l-4.99998,-5c-0.48816,-0.48817 -0.48816,-1.27963 0,-1.76778c0.48815,-0.48816 1.27961,-0.48816 1.76776,0l2.86612,2.86608v-7.4822c0,-0.69036 0.5596,-1.25 1.25,-1.25c0.6904,0 1.25,0.55964 1.25,1.25v7.4822l2.8661,-2.86608c0.4882,-0.48816 1.2796,-0.48816 1.7678,0c0.4881,0.48815 0.4881,1.27961 0,1.76778zM19,17.75c0.6904,0 1.25,0.5596 1.25,1.25c0,0.6904 -0.5596,1.25 -1.25,1.25h-14c-0.69036,0 -1.25,-0.5596 -1.25,-1.25c0,-0.6904 0.55964,-1.25 1.25,-1.25z" fill="#002B51"/>
</svg>
