<svg width="24" height="25" viewBox="0 0 24 25" fill="none" xmlns="http://www.w3.org/2000/svg">
<path fill-rule="evenodd" clip-rule="evenodd" d="M12.8838,2.88369l-0.8672,0.86622c0.0109,0.00014 0.0217,0.00042 0.0325,0.00084l0.2937,0.00501c1.7092,0.06337 3.3699,0.60007 4.7959,1.55274c1.5211,1.01637 2.7071,2.46123 3.4072,4.15137c0.6564,1.58463 0.8584,3.31873 0.5869,5.00783l-0.0605,0.3369c-0.357,1.7943 -1.2377,3.4427 -2.5313,4.7363c-1.2127,1.2127 -2.7372,2.0624 -4.4014,2.458l-0.3349,0.0733c-1.7943,0.3569 -3.6545,0.1737 -5.34474,-0.5264c-1.69014,-0.7001 -3.135,-1.8861 -4.15137,-3.4072c-0.95266,-1.4259 -1.48937,-3.0867 -1.55273,-4.7959l-0.00586,-0.3428c0,-0.6904 0.55964,-1.25 1.25,-1.25c0.64715,0 1.17908,0.4918 1.24316,1.1221l0.00684,0.1279c0,1.335 0.396,2.64 1.1377,3.75c0.7417,1.11 1.79589,1.9754 3.02929,2.4863c1.23321,0.5108 2.59021,0.6442 3.89941,0.3838l0.2451,-0.0527c1.2144,-0.2887 2.327,-0.909 3.2119,-1.794c0.944,-0.944 1.5863,-2.1476 1.8467,-3.457l0.044,-0.2451c0.1981,-1.2326 0.0512,-2.4979 -0.4278,-3.6543c-0.5109,-1.2334 -1.3763,-2.2876 -2.4863,-3.0293c-1.0406,-0.69532 -2.2526,-1.08659 -3.5,-1.13281l-0.2321,-0.00453l0.8659,0.86586l0.0859,0.09472c0.4005,0.49097 0.3718,1.21519 -0.0859,1.67285c-0.4577,0.45767 -1.1819,0.48643 -1.6729,0.08594l-0.0947,-0.08594l-2.99999,-3c-0.48815,-0.48815 -0.48815,-1.27942 0,-1.76757l2.99999,-3c0.4882,-0.48816 1.2794,-0.48816 1.7676,0c0.4881,0.48815 0.4881,1.27942 0,1.76757z" fill="#002B51"/>
</svg>
