<svg width="24" height="24" viewBox="0 0 24 24" fill="none" xmlns="http://www.w3.org/2000/svg">
<path fill-rule="evenodd" clip-rule="evenodd" d="M16.5303 2.46967C16.2374 2.17678 15.7626 2.17678 15.4697 2.46967C15.1768 2.76256 15.1768 3.23744 15.4697 3.53033L18.1893 6.25H10C9.58579 6.25 9.25 6.58579 9.25 7C9.25 7.41421 9.58579 7.75 10 7.75H18.1893L15.4697 10.4697C15.1768 10.7626 15.1768 11.2374 15.4697 11.5303C15.7626 11.8232 16.2374 11.8232 16.5303 11.5303L20.5303 7.53033C20.8232 7.23744 20.8232 6.76256 20.5303 6.46967L16.5303 2.46967ZM8.53033 13.5303C8.82322 13.2374 8.82322 12.7626 8.53033 12.4697C8.23744 12.1768 7.76256 12.1768 7.46967 12.4697L3.46967 16.4697C3.17678 16.7626 3.17678 17.2374 3.46967 17.5303L7.46967 21.5303C7.76256 21.8232 8.23744 21.8232 8.53033 21.5303C8.82322 21.2374 8.82322 20.7626 8.53033 20.4697L5.81066 17.75H13C13.4142 17.75 13.75 17.4142 13.75 17C13.75 16.5858 13.4142 16.25 13 16.25H5.81066L8.53033 13.5303Z" fill="#002B51"/>
</svg>
