<svg width="24" height="24" viewBox="0 0 24 24" fill="none" xmlns="http://www.w3.org/2000/svg">
<path fill-rule="evenodd" clip-rule="evenodd" d="M12.5303,8.46964c0.2929,0.29289 0.2929,0.76776 0,1.06066c-0.2929,0.29289 -0.7677,0.29289 -1.0606,0l-2.7197,-2.71967v9.68937c0,0.6903 0.55964,1.25 1.25,1.25h11c0.4142,0 0.75,0.3358 0.75,0.75c0,0.4142 -0.3358,0.75 -0.75,0.75h-11c-1.51878,0 -2.75,-1.2312 -2.75,-2.75v-9.68937l-2.71967,2.71967c-0.29289,0.29289 -0.76777,0.29289 -1.06066,0c-0.29289,-0.2929 -0.29289,-0.76777 0,-1.06066l4,-4c0.29289,-0.2929 0.76777,-0.2929 1.06066,0z" fill="#002B51"/>
</svg>
