<svg width="24" height="24" viewBox="0 0 24 24" fill="none" xmlns="http://www.w3.org/2000/svg">
<path fill-rule="evenodd" clip-rule="evenodd" d="M4,8.75006c-0.41419,0 -0.74997,-0.33581 -0.75,-0.75v-5c0,-0.1989 0.07909,-0.38962 0.21973,-0.53027c0.10543,-0.10536 0.23877,-0.17627 0.38281,-0.20508l0.14746,-0.01465h5c0.41421,0 0.74999,0.33579 0.75,0.75c-0.00003,0.41418 -0.33581,0.75 -0.75,0.75h-3.18945l6.25585,6.25584c1.0776,1.078 1.6833,2.5403 1.6836,4.0645v6.9297l-0.0039,0.0761c-0.0382,0.3784 -0.3576,0.6738 -0.7461,0.6739c-0.3881,0 -0.7074,-0.2949 -0.7461,-0.6729l-0.0039,-0.0771v-6.9297c-0.0002,-1.1267 -0.4486,-2.2072 -1.2451,-3.0039l-6.2549,-6.25589v3.18945c-0.00003,0.41416 -0.33583,0.74997 -0.75,0.75zM15.4993,8.75009c0.4142,0 0.75,0.33579 0.75,0.75c0,0.41422 -0.3358,0.75001 -0.75,0.75001c-0.4142,0 -0.75,-0.33579 -0.75,-0.75001c0,-0.41421 0.3358,-0.75 0.75,-0.75zM19.9993,5.75009c-0.4142,0 -0.75,-0.33578 -0.75,-0.75c0,-0.41421 0.3358,-0.75 0.75,-0.75c0.4142,0 0.75,0.33579 0.75,0.75c0,0.41422 -0.3358,0.75 -0.75,0.75zM17.7493,6.50009c0.4142,0 0.75,0.33579 0.75,0.75c0,0.41422 -0.3358,0.75 -0.75,0.75c-0.4142,0 -0.75,-0.33578 -0.75,-0.75c0,-0.41421 0.3358,-0.75 0.75,-0.75z" fill="#002B51"/>
</svg>
