<svg width="24" height="24" viewBox="0 0 24 24" fill="none" xmlns="http://www.w3.org/2000/svg">
<path d="M4.51664,4.51586c0.48808,-0.48763 1.27954,-0.48771 1.76757,0l11.06539,11.06644v-8.29593c0,-0.69036 0.5597,-1.25 1.25,-1.25c0.6904,0 1.25,0.55964 1.25,1.25v11.31343l-0.0068,0.128c-0.0641,0.6301 -0.5961,1.122 -1.2432,1.122h-11.31343l-0.12793,-0.0068c-0.63031,-0.064 -1.122,-0.596 -1.12207,-1.2432c0,-0.6472 0.49172,-1.1801 1.12207,-1.2441l0.12793,-0.0059h8.29593l-11.06546,-11.06539c-0.48793,-0.48817 -0.48808,-1.28047 0,-1.76855z" fill="#002B51"/>
</svg>
