<svg width="24" height="24" viewBox="0 0 24 24" fill="none" xmlns="http://www.w3.org/2000/svg">
<path fill-rule="evenodd" clip-rule="evenodd" d="M11.4697,15.5303c-0.2929,-0.2929 -0.2929,-0.7677 0,-1.0606c0.2929,-0.2929 0.7677,-0.2929 1.0606,0l2.7197,2.7196v-9.6893c0,-0.69036 -0.5596,-1.25 -1.25,-1.25h-11c-0.41421,0 -0.75,-0.33579 -0.75,-0.75c0,-0.41421 0.33579,-0.75 0.75,-0.75h11c1.5188,0 2.75,1.23122 2.75,2.75v9.6893l2.7197,-2.7196c0.2929,-0.2929 0.7677,-0.2929 1.0606,0c0.2929,0.2929 0.2929,0.7677 0,1.0606l-4,4c-0.2929,0.2929 -0.7677,0.2929 -1.0606,0z" fill="#002B51"/>
</svg>
