<svg width="24" height="24" viewBox="0 0 24 24" fill="none" xmlns="http://www.w3.org/2000/svg">
<path fill-rule="evenodd" clip-rule="evenodd" d="M8.88388 4.11614C8.39573 3.62799 7.60427 3.62799 7.11612 4.11614L3.11612 8.11614C2.62796 8.6043 2.62796 9.39575 3.11612 9.88391C3.60427 10.3721 4.39573 10.3721 4.88388 9.88391L6.75 8.01779L6.75 16.5C6.75 18.295 8.20507 19.75 10 19.75H21C21.6904 19.75 22.25 19.1904 22.25 18.5C22.25 17.8097 21.6904 17.25 21 17.25L10 17.25C9.58579 17.25 9.25 16.9142 9.25 16.5L9.25 8.01779L11.1161 9.88391C11.6043 10.3721 12.3957 10.3721 12.8839 9.88391C13.372 9.39575 13.372 8.6043 12.8839 8.11614L8.88388 4.11614Z" fill="#002B51"/>
</svg>
