<svg width="24" height="25" viewBox="0 0 24 25" fill="none" xmlns="http://www.w3.org/2000/svg">
<path d="M15.8838,3.36612c0.4881,0.48815 0.4881,1.27942 0,1.76757l-3,3l-0.0947,0.08594c-0.491,0.40049 -1.2152,0.37173 -1.6729,-0.08594c-0.4577,-0.45766 -0.4864,-1.18188 -0.0859,-1.67285l0.0859,-0.09472l0.8662,-0.86621l-0.2324,0.00488c-1.2474,0.04622 -2.45937,0.43749 -3.5,1.13281c-1.11003,0.7417 -1.97544,1.7959 -2.48633,3.0293c-0.47898,1.1564 -0.6259,2.4217 -0.42773,3.6543l0.04394,0.2451c0.26045,1.3094 0.90268,2.513 1.84668,3.457c0.88493,0.885 1.99756,1.5053 3.21194,1.794l0.2451,0.0527c1.3092,0.2604 2.6662,0.127 3.8994,-0.3838c1.2334,-0.5109 2.2876,-1.3763 3.0293,-2.4863c0.7417,-1.11 1.1377,-2.415 1.1377,-3.75l0.0068,-0.1279c0.0641,-0.6303 0.596,-1.1221 1.2432,-1.1221c0.6904,0 1.25,0.5596 1.25,1.25l-0.0059,0.3428c-0.0633,1.7092 -0.6,3.37 -1.5527,4.7959c-1.0164,1.5211 -2.4612,2.7071 -4.1514,3.4072c-1.6902,0.7001 -3.5504,0.8833 -5.3447,0.5264l-0.33495,-0.0733c-1.66413,-0.3956 -3.18868,-1.2453 -4.40137,-2.458c-1.29361,-1.2936 -2.17432,-2.942 -2.53125,-4.7363l-0.06054,-0.3369c-0.27148,-1.6891 -0.06949,-3.4232 0.58691,-5.00783c0.70012,-1.69014 1.88613,-3.135 3.40723,-4.15137c1.42592,-0.95267 3.08665,-1.48937 4.79587,-1.55274l0.3203,-0.00585c0.002,-0.00004 0.0039,0.00002 0.0059,0l-0.8672,-0.86622c-0.4881,-0.48815 -0.4881,-1.27942 0,-1.76757c0.4882,-0.48816 1.2794,-0.48816 1.7676,0z" fill="#002B51"/>
</svg>
