<svg width="24" height="24" viewBox="0 0 24 24" fill="none" xmlns="http://www.w3.org/2000/svg">
<path d="M4.51572,4.51623c0.48796,-0.48796 1.27938,-0.48757 1.76758,0l11.0664,11.06547v-8.29594c0.0001,-0.69014 0.5599,-1.24981 1.25,-1.25c0.6901,0.00021 1.2489,0.55987 1.249,1.25v11.31344l-0.0058,0.128c-0.064,0.6302 -0.5961,1.1218 -1.2432,1.122h-11.31445l-0.12695,-0.0058c-0.63018,-0.0642 -1.12207,-0.5971 -1.12207,-1.2442c0.00022,-0.6469 0.49202,-1.179 1.12207,-1.2431l0.12695,-0.0069h8.29685l-11.06638,-11.06539c-0.48749,-0.48812 -0.4877,-1.2796 0,-1.76758z" fill="#002B51"/>
</svg>
