<svg width="24" height="24" viewBox="0 0 24 24" fill="none" xmlns="http://www.w3.org/2000/svg">
<path d="M20.0004,2.25l0.1474,0.01465c0.1439,0.02886 0.2775,0.0998 0.3828,0.20508c0.1406,0.14062 0.2198,0.33146 0.2198,0.53027v5c-0.0001,0.41407 -0.336,0.7498 -0.75,0.75c-0.4142,-0.00003 -0.75,-0.33584 -0.75,-0.75v-3.18945l-6.2549,6.25585c-0.7966,0.7968 -1.2449,1.8773 -1.2451,3.0039v6.9297l-0.0039,0.0771c-0.0387,0.3779 -0.3582,0.6727 -0.7461,0.6729c-0.3885,0 -0.7079,-0.2954 -0.7461,-0.6738l-0.0039,-0.0762v-6.9297c0.0003,-1.5242 0.606,-2.9865 1.6836,-4.0644l6.2558,-6.2559h-3.1894c-0.4142,-0.00001 -0.75,-0.33582 -0.75,-0.75c0,-0.41418 0.3358,-0.75 0.75,-0.75zM9.25037,9.5c0,0.41421 -0.33579,0.75 -0.75,0.75c-0.41405,-0.0002 -0.75,-0.33591 -0.75,-0.75c0.00005,-0.41405 0.33598,-0.7498 0.75,-0.75c0.41418,0 0.74995,0.33583 0.75,0.75zM7.00037,7.25c0,0.41421 -0.33579,0.75 -0.75,0.75c-0.41405,-0.0002 -0.75,-0.33591 -0.75,-0.75c0.00005,-0.41405 0.33598,-0.7498 0.75,-0.75c0.41418,0 0.74995,0.33583 0.75,0.75zM4.75037,5c0,0.41421 -0.33579,0.75 -0.75,0.75c-0.41405,-0.0002 -0.75,-0.33591 -0.75,-0.75c0.00005,-0.41405 0.33598,-0.7498 0.75,-0.75c0.41418,0 0.74995,0.33583 0.75,0.75z" fill="#002B51"/>
</svg>
