<svg width="24" height="24" viewBox="0 0 24 24" fill="none" xmlns="http://www.w3.org/2000/svg">
<path d="M17.75,10.9999v7.1895l2.7198,-2.7197l0.0566,-0.0518c0.2946,-0.2402 0.7293,-0.2227 1.0039,0.0518c0.2746,0.2745 0.292,0.7093 0.0518,1.0039l-0.0518,0.0566l-4,4c-0.2929,0.2929 -0.7676,0.2929 -1.0605,0l-4,-4l-0.0518,-0.0566c-0.2402,-0.2946 -0.2228,-0.7294 0.0518,-1.0039c0.2745,-0.2745 0.7093,-0.292 1.0039,-0.0518l0.0566,0.0518l2.7197,2.7197v-7.1895c0.0001,-0.4141 0.3359,-0.75 0.75,-0.75c0.4142,0 0.7499,0.3359 0.75,0.75zM11.5303,7.46966c0.2929,0.29286 0.2928,0.76764 0,1.06054c-0.2929,0.2929 -0.7676,0.2929 -1.0605,0l-2.71976,-2.71972v8.18942c0,0.4142 -0.33578,0.75 -0.75,0.75c-0.4142,0 -0.75,-0.3358 -0.75,-0.75v-8.18942l-2.71972,2.71972l-0.05665,0.05176c-0.29458,0.24031 -0.7293,0.22285 -1.0039,-0.05176c-0.27451,-0.27461 -0.29204,-0.70936 -0.05176,-1.0039l0.05176,-0.05664l4,-4l0.05664,-0.05176c0.29454,-0.24021 0.72932,-0.22273 1.00391,0.05176z" fill="#002B51"/>
</svg>
