<svg width="24" height="24" viewBox="0 0 24 24" fill="none" xmlns="http://www.w3.org/2000/svg">
<path fill-rule="evenodd" clip-rule="evenodd" d="M8.11612,11.1161c0.48815,-0.4881 1.27961,-0.4881 1.76776,0c0.48812,0.4882 0.48812,1.2796 0,1.7678l-1.86611,1.8661h8.48223c0.4142,0 0.75,-0.3358 0.75,-0.75v-11c0,-0.69036 0.5596,-1.25 1.25,-1.25c0.6904,0 1.25,0.55964 1.25,1.25v11c0,1.7949 -1.4551,3.25 -3.25,3.25h-8.48223l1.86611,1.8661c0.48812,0.4882 0.48812,1.2796 0,1.7678c-0.48815,0.4881 -1.27961,0.4881 -1.76776,0l-4,-4c-0.48816,-0.4882 -0.48816,-1.2796 0,-1.7678z" fill="#002B51"/>
</svg>
