<svg width="24" height="24" viewBox="0 0 24 24" fill="none" xmlns="http://www.w3.org/2000/svg">
<path d="M10.2109,5.03024c0.491,-0.40043 1.2152,-0.37168 1.6729,0.08594c0.4576,0.45764 0.4863,1.18188 0.0859,1.67285l-0.0859,0.09472l-3.86624,3.86625h10.98244c0.6903,0 1.2499,0.5597 1.25,1.25c0,0.6903 -0.5597,1.2499 -1.25,1.25h-10.98244l3.86624,3.8662c0.4881,0.4881 0.4881,1.2794 0,1.7676c-0.4882,0.4881 -1.2794,0.4881 -1.7676,0l-6,-6l-0.08594,-0.0948c-0.40046,-0.4909 -0.37172,-1.2152 0.08594,-1.6728l6,-6.00002z" fill="#002B51"/>
</svg>
