<svg width="24" height="24" viewBox="0 0 24 24" fill="none" xmlns="http://www.w3.org/2000/svg">
<path fill-rule="evenodd" clip-rule="evenodd" d="M8.46967,11.4697c0.29289,-0.2929 0.76777,-0.2929 1.06066,0c0.29289,0.2929 0.29289,0.7677 0,1.0606l-2.71967,2.7197h9.68934c0.6904,0 1.25,-0.5596 1.25,-1.25v-11c0,-0.41421 0.3358,-0.75 0.75,-0.75c0.4142,0 0.75,0.33579 0.75,0.75v11c0,1.5188 -1.2312,2.75 -2.75,2.75h-9.68934l2.71967,2.7197c0.29289,0.2929 0.29289,0.7677 0,1.0606c-0.29289,0.2929 -0.76777,0.2929 -1.06066,0l-4,-4c-0.29289,-0.2929 -0.29289,-0.7677 0,-1.0606z" fill="#002B51"/>
</svg>
