<svg width="24" height="24" viewBox="0 0 24 24" fill="none" xmlns="http://www.w3.org/2000/svg">
<path fill-rule="evenodd" clip-rule="evenodd" d="M20.0004,1.75c0.3315,0 0.6495,0.13171 0.8839,0.36615c0.2344,0.23444 0.3661,0.55241 0.3661,0.88394l-0.0004,4.99994c-0.0001,0.69036 -0.5597,1.24996 -1.2501,1.24991c-0.6903,-0.00005 -1.25,-0.55974 -1.2499,-1.25009l0.0001,-1.98186l-5.4017,5.40181l-0.0002,0.0001c-0.7027,0.703 -1.0976,1.6562 -1.0978,2.6502v0.0002l-0.0004,6.9297c0,0.6904 -0.5597,1.25 -1.2501,1.2499c-0.6903,0 -1.24994,-0.5597 -1.2499,-1.25l0.00037,-6.93v-0.0002c0.00035,-1.6568 0.65853,-3.2457 1.83003,-4.41747l0.0001,-0.00011l5.4021,-5.40216l-1.9826,-0.00002c-0.6904,-0.00001 -1.25,-0.55966 -1.25,-1.25002c0,-0.69035 0.5597,-1.24999 1.25,-1.24998zM9.75073,9.50024c0,0.69036 -0.55964,1.24996 -1.25,1.24996c-0.69035,0 -1.25,-0.5596 -1.25,-1.24996c0,-0.69035 0.55965,-1.25 1.25,-1.25c0.69036,0 1.25,0.55965 1.25,1.25zM2.75073,5.00024c0,-0.69035 0.55965,-1.25 1.25,-1.25c0.69036,0 1.25,0.55965 1.25,1.25c0,0.69036 -0.55964,1.25 -1.25,1.25c-0.69035,0 -1.25,-0.55964 -1.25,-1.25zM7.50073,7.25024c0,0.69036 -0.55964,1.25 -1.25,1.25c-0.69035,0 -1.25,-0.55964 -1.25,-1.25c0,-0.69035 0.55965,-1.25 1.25,-1.25c0.69036,0 1.25,0.55965 1.25,1.25z" fill="#002B51"/>
</svg>
