<svg width="24" height="24" viewBox="0 0 24 24" fill="none" xmlns="http://www.w3.org/2000/svg">
<path d="M14.1162,7.1162c0.4882,-0.48815 1.2794,-0.48815 1.7676,0l4,4l0.0859,0.0947c0.4004,0.491 0.3717,1.2153 -0.0859,1.6729l-4,4l-0.0947,0.0859c-0.491,0.4004 -1.2153,0.3716 -1.6729,-0.0859c-0.4576,-0.4576 -0.4863,-1.1819 -0.0859,-1.6729l0.0859,-0.0947l1.8662,-1.8662h-10.9824c-0.6903,0 -1.2499,-0.5597 -1.25,-1.25c0,-0.6904 0.55964,-1.25 1.25,-1.25h10.9824l-1.8662,-1.86622c-0.4881,-0.48812 -0.4881,-1.27941 0,-1.76758z" fill="#002B51"/>
</svg>
