<svg width="24" height="24" viewBox="0 0 24 24" fill="none" xmlns="http://www.w3.org/2000/svg">
<path d="M19,18.2501c0.4142,0 0.75,0.3358 0.75,0.75c0,0.4142 -0.3358,0.75 -0.75,0.75h-14c-0.41421,0 -0.75,-0.3358 -0.75,-0.75c0,-0.4142 0.33579,-0.75 0.75,-0.75zM11.4697,3.46984c0.2746,-0.2746 0.7094,-0.29206 1.0039,-0.05175l0.0567,0.05175l5,5c0.2929,0.2929 0.2929,0.76766 0,1.06055c-0.2929,0.29289 -0.7677,0.29289 -1.0606,0l-3.7197,-3.71973v10.18944c0,0.4142 -0.3358,0.75 -0.75,0.75c-0.4142,0 -0.75,-0.3358 -0.75,-0.75v-10.18944l-3.71973,3.71973l-0.05664,0.05176c-0.29458,0.24031 -0.7293,0.22284 -1.0039,-0.05176c-0.27461,-0.2746 -0.29207,-0.70932 -0.05176,-1.00391l0.05176,-0.05664z" fill="#002B51"/>
</svg>
