<svg width="24" height="24" viewBox="0 0 24 24" fill="none" xmlns="http://www.w3.org/2000/svg">
<path d="M20.0004,1.74994l0.124,0.00586c0.286,0.0285 0.5557,0.15532 0.7607,0.36035c0.2342,0.23436 0.3653,0.55251 0.3653,0.88379v5c-0.0001,0.6902 -0.5599,1.2498 -1.25,1.25c-0.6903,-0.00005 -1.25,-0.55972 -1.25,-1.25v-1.98242l-5.4014,5.40238c-0.7028,0.703 -1.0984,1.6563 -1.0986,2.6504v6.9296c-0.0001,0.6903 -0.5599,1.2498 -1.25,1.25c-0.6903,0 -1.25,-0.5597 -1.25003,-1.25v-6.9306l0.00781,-0.3096c0.07695,-1.5439 0.72422,-3.009 1.82222,-4.10742l5.4024,-5.40234h-1.9824c-0.6904,-0.00001 -1.25,-0.55968 -1.25,-1.25c0,-0.69032 0.5596,-1.25 1.25,-1.25zM9.75037,9.49994c0,0.69036 -0.55965,1.24996 -1.25,1.24996c-0.69019,-0.0002 -1.25,-0.5597 -1.25,-1.24996c0.00016,-0.69009 0.55991,-1.2498 1.25,-1.25c0.69025,0 1.24983,0.55978 1.25,1.25zM7.50037,7.24994c0,0.69035 -0.55965,1.25 -1.25,1.25c-0.69019,-0.0002 -1.25,-0.55977 -1.25,-1.25c0.00016,-0.69009 0.55991,-1.2498 1.25,-1.25c0.69025,0 1.24983,0.55978 1.25,1.25zM5.25037,4.99994c0,0.69035 -0.55965,1.25 -1.25,1.25c-0.69019,-0.0002 -1.25,-0.55977 -1.25,-1.25c0.00016,-0.69009 0.55991,-1.2498 1.25,-1.25c0.69025,0 1.24983,0.55978 1.25,1.25z" fill="#002B51"/>
</svg>
