<svg width="24" height="24" viewBox="0 0 24 24" fill="none" xmlns="http://www.w3.org/2000/svg">
<path fill-rule="evenodd" clip-rule="evenodd" d="M19.5303 8.53033C19.8232 8.23744 19.8232 7.76256 19.5303 7.46967L15.5303 3.46967C15.2374 3.17678 14.7626 3.17678 14.4697 3.46967C14.1768 3.76256 14.1768 4.23744 14.4697 4.53033L17.1893 7.25H7.5C5.98122 7.25 4.75 8.48122 4.75 10V21C4.75 21.4142 5.08579 21.75 5.5 21.75C5.91421 21.75 6.25 21.4142 6.25 21V10C6.25 9.30964 6.80964 8.75 7.5 8.75H17.1893L14.4697 11.4697C14.1768 11.7626 14.1768 12.2374 14.4697 12.5303C14.7626 12.8232 15.2374 12.8232 15.5303 12.5303L19.5303 8.53033Z" fill="#002B51"/>
</svg>
