<svg width="24" height="24" viewBox="0 0 24 24" fill="none" xmlns="http://www.w3.org/2000/svg">
<path d="M19,13.25h-10.98242l1.86621,1.8662c0.48811,0.4882 0.48811,1.2794 0,1.7676c-0.48816,0.4881 -1.27942,0.4881 -1.76758,0l-4,-4l-0.08594,-0.0947c-0.40048,-0.491 -0.37172,-1.2152 0.08594,-1.6729l4,-3.99999l0.09473,-0.08594c0.49097,-0.40048 1.21519,-0.37172 1.67285,0.08594c0.45771,0.45766 0.48641,1.18188 0.08594,1.67285l-0.08594,0.09473l-1.86621,1.86621h10.98242c0.6904,0 1.25,0.5596 1.25,1.25c0,0.6904 -0.5596,1.25 -1.25,1.25z" fill="#002B51"/>
</svg>
