<svg width="24" height="24" viewBox="0 0 24 24" fill="none" xmlns="http://www.w3.org/2000/svg">
<path fill-rule="evenodd" clip-rule="evenodd" d="M20.8839,6.11612c0.4881,0.48815 0.4881,1.27961 0,1.76776l-4,4.00002c-0.4882,0.4881 -1.2796,0.4881 -1.7678,0c-0.4881,-0.4882 -0.4881,-1.2796 0,-1.7678l1.8661,-1.8661h-6.9822c-0.69036,0 -1.25,-0.55965 -1.25,-1.25c0,-0.69036 0.55964,-1.25 1.25,-1.25h6.9822l-1.8661,-1.86612c-0.4881,-0.48815 -0.4881,-1.27961 0,-1.76776c0.4882,-0.48816 1.2796,-0.48816 1.7678,0zM7.01777,15.75h5.98223c0.6904,0 1.25,0.5596 1.25,1.25c0,0.6904 -0.5596,1.25 -1.25,1.25h-5.98223l1.86611,1.8661c0.48816,0.4882 0.48816,1.2796 0,1.7678c-0.48815,0.4881 -1.27961,0.4881 -1.76776,0l-4,-4c-0.48816,-0.4882 -0.48816,-1.2796 0,-1.7678l4,-4c0.48815,-0.4881 1.27961,-0.4881 1.76776,0c0.48816,0.4882 0.48816,1.2796 0,1.7678z" fill="#002B51"/>
</svg>
