<svg width="24" height="24" viewBox="0 0 24 24" fill="none" xmlns="http://www.w3.org/2000/svg">
<path d="M14.1162,3.11621c0.4577,-0.45766 1.1819,-0.48642 1.6729,-0.08594l0.0947,0.08594l4,4c0.4577,0.45766 0.4864,1.18188 0.0859,1.67285l-0.0859,0.09473l-4,4.00001c-0.4882,0.4881 -1.2794,0.4881 -1.7676,0c-0.4881,-0.4882 -0.4881,-1.2794 0,-1.7676l1.8662,-1.8662h-8.4824c-0.41421,0 -0.75,0.33579 -0.75,0.75v11c0,0.6904 -0.55964,1.25 -1.25,1.25c-0.69036,0 -1.25,-0.5596 -1.25,-1.25v-11c0,-1.79492 1.45507,-3.25 3.25,-3.25h8.4824l-1.8662,-1.86621l-0.0859,-0.09473c-0.4005,-0.49097 -0.3718,-1.21519 0.0859,-1.67285z" fill="#002B51"/>
</svg>
