<svg width="24" height="24" viewBox="0 0 24 24" fill="none" xmlns="http://www.w3.org/2000/svg">
<path fill-rule="evenodd" clip-rule="evenodd" d="M2.11621,2.11618c0.45766,-0.45766 1.18188,-0.48642 1.67285,-0.08594l0.09473,0.08594l3.86621,3.86621v-0.98242c0,-0.69036 0.55964,-1.25 1.25,-1.25c0.69036,0 1.25,0.55964 1.25,1.25v4c0,0.69035 -0.55964,1.25003 -1.25,1.25003h-4c-0.69036,0 -1.25,-0.55968 -1.25,-1.25003c0,-0.69036 0.55964,-1.25 1.25,-1.25h0.98242l-3.86621,-3.86621l-0.08594,-0.09473c-0.40048,-0.49097 -0.37172,-1.21519 0.08594,-1.67285zM10.25,15v4c0,0.6903 -0.55964,1.25 -1.25,1.25c-0.69036,0 -1.25,-0.5597 -1.25,-1.25v-0.9825l-3.86621,3.8663l-0.09473,0.0859c-0.49097,0.4005 -1.21519,0.3717 -1.67285,-0.0859c-0.45766,-0.4577 -0.48642,-1.1819 -0.08594,-1.6729l0.08594,-0.0947l3.86621,-3.8662h-0.98242c-0.69036,0 -1.25,-0.5597 -1.25,-1.25c0,-0.6904 0.55964,-1.25 1.25,-1.25h4c0.69036,0 1.25,0.5596 1.25,1.25zM15.0001,13.75h4c0.6904,0 1.25,0.5596 1.25,1.25c0,0.6903 -0.5596,1.25 -1.25,1.25h-0.9824l3.8662,3.8662l0.0859,0.0947c0.4005,0.491 0.3718,1.2152 -0.0859,1.6729c-0.4577,0.4576 -1.1819,0.4864 -1.6728,0.0859l-0.0948,-0.0859l-3.8662,-3.8663v0.9825c0,0.6903 -0.5596,1.25 -1.25,1.25c-0.6903,0 -1.25,-0.5597 -1.25,-1.25v-4c0,-0.6904 0.5597,-1.25 1.25,-1.25zM20.2109,2.03024c0.491,-0.40048 1.2152,-0.37172 1.6729,0.08594c0.4577,0.45766 0.4864,1.18188 0.0859,1.67285l-0.0859,0.09473l-3.8662,3.86621h0.9824c0.6904,0 1.25,0.55964 1.25,1.25c0,0.69035 -0.5596,1.25003 -1.25,1.25003h-4c-0.6904,0 -1.25,-0.55968 -1.25,-1.25003v-4c0,-0.69036 0.5596,-1.25 1.25,-1.25c0.6904,0 1.25,0.55964 1.25,1.25v0.98242l3.8662,-3.86621z" fill="#002B51"/>
</svg>
