<svg width="24" height="24" viewBox="0 0 24 24" fill="none" xmlns="http://www.w3.org/2000/svg">
<path d="M10.0001,17.7501h11c0.4142,0 0.75,0.3358 0.75,0.75c0,0.4142 -0.3358,0.75 -0.75,0.75h-11c-1.51877,0 -2.74998,-1.2312 -2.74998,-2.75v-9.68947l-2.71973,2.71973l-0.05664,0.05176c-0.29458,0.2403 -0.7293,0.22284 -1.00391,-0.05176c-0.2746,-0.27461 -0.29206,-0.70933 -0.05175,-1.00391l0.05175,-0.05664l4,-4c0.27461,-0.2746 0.70933,-0.29207 1.00391,-0.05176l0.05664,0.05176l4.00001,4c0.2929,0.29289 0.2929,0.76766 0,1.06055c-0.2929,0.29289 -0.7677,0.29289 -1.0606,0l-2.71968,-2.71973v9.68947c0,0.6903 0.55964,1.25 1.24998,1.25z" fill="#002B51"/>
</svg>
