<svg width="24" height="24" viewBox="0 0 24 24" fill="none" xmlns="http://www.w3.org/2000/svg">
<path fill-rule="evenodd" clip-rule="evenodd" d="M11.4697,3.46967c0.2929,-0.29289 0.7677,-0.29289 1.0606,0l5,5c0.2929,0.29289 0.2929,0.76777 0,1.06066c-0.2929,0.29289 -0.7677,0.29289 -1.0606,0l-3.7197,-3.71967v10.18934c0,0.4142 -0.3358,0.75 -0.75,0.75c-0.4142,0 -0.75,-0.3358 -0.75,-0.75v-10.18934l-3.71967,3.71967c-0.29289,0.29289 -0.76777,0.29289 -1.06066,0c-0.29289,-0.29289 -0.29289,-0.76777 0,-1.06066zM19,18.25c0.4142,0 0.75,0.3358 0.75,0.75c0,0.4142 -0.3358,0.75 -0.75,0.75h-14c-0.41421,0 -0.75,-0.3358 -0.75,-0.75c0,-0.4142 0.33579,-0.75 0.75,-0.75z" fill="#002B51"/>
</svg>
