<svg width="24" height="24" viewBox="0 0 24 24" fill="none" xmlns="http://www.w3.org/2000/svg">
<path fill-rule="evenodd" clip-rule="evenodd" d="M3.25012,7.99991v-4c0,-0.41422 0.33579,-0.75 0.75,-0.75h4c0.41422,0 0.75,0.33578 0.75,0.75c0,0.41421 -0.33578,0.75 -0.75,0.75h-2.18945l4.71973,4.71973l0.0518,0.05664c0.2403,0.29458 0.2228,0.72932 -0.0518,1.00392c-0.2746,0.2746 -0.70933,0.292 -1.00391,0.0517l-0.05664,-0.0517l-4.71973,-4.71974v2.18945c0,0.41421 -0.33578,0.75 -0.75,0.75c-0.41421,0 -0.75,-0.33579 -0.75,-0.75zM13.4698,13.4696c0.2747,-0.2746 0.7094,-0.292 1.004,-0.0517l0.0566,0.0517l4.7197,4.7198v-2.1895c0,-0.4142 0.3358,-0.75 0.75,-0.75c0.4142,0 0.75,0.3358 0.75,0.75v4c0,0.4142 -0.3358,0.75 -0.75,0.75h-4c-0.4142,0 -0.75,-0.3358 -0.75,-0.75c0,-0.4142 0.3358,-0.75 0.75,-0.75h2.1895l-4.7198,-4.7197l-0.0517,-0.0567c-0.2403,-0.2945 -0.2229,-0.7293 0.0517,-1.0039zM20.0003,8.74991c-0.4142,0 -0.75,-0.33579 -0.75,-0.75v-2.18945l-4.7197,4.71974l-0.0566,0.0517c-0.2946,0.2403 -0.7293,0.2229 -1.0039,-0.0517c-0.2746,-0.2746 -0.2921,-0.70934 -0.0518,-1.00392l0.0518,-0.05664l4.7197,-4.71973h-2.1895c-0.4142,0 -0.75,-0.33579 -0.75,-0.75c0,-0.41422 0.3358,-0.75 0.75,-0.75h4c0.4142,0 0.75,0.33578 0.75,0.75v4c0,0.41421 -0.3358,0.75 -0.75,0.75zM10.5824,14.4735l-0.0518,0.0567l-4.71972,4.7197h2.18945c0.41422,0 0.75,0.3358 0.75,0.75c0,0.4142 -0.33578,0.75 -0.75,0.75h-4c-0.41421,0 -0.75,-0.3358 -0.75,-0.75v-4c0,-0.4142 0.33579,-0.75 0.75,-0.75c0.41422,0 0.75,0.3358 0.75,0.75v2.1895l4.71973,-4.7198l0.05664,-0.0517c0.29458,-0.2403 0.7293,-0.2229 1.0039,0.0517c0.2746,0.2746 0.2921,0.7094 0.0518,1.0039z" fill="#002B51"/>
</svg>
