<svg width="25" height="24" viewBox="0 0 25 24" fill="none" xmlns="http://www.w3.org/2000/svg">
<path d="M19.3661,8.11622c0.4882,-0.48815 1.2794,-0.48815 1.7676,0l3,2.99998c0.4881,0.4882 0.4881,1.2794 0,1.7676c-0.4882,0.4882 -1.2794,0.4882 -1.7676,0l-0.8662,-0.8672l-0.0059,0.3262c-0.0633,1.7092 -0.6,3.37 -1.5527,4.7959c-1.0164,1.5211 -2.4612,2.7071 -4.1514,3.4072c-1.6902,0.7001 -3.5504,0.8833 -5.3447,0.5264c-1.79427,-0.357 -3.4427,-1.2377 -4.73631,-2.5313c-0.48803,-0.488 -0.48778,-1.2794 0,-1.7676c0.48815,-0.4881 1.27942,-0.4881 1.76758,0c0.944,0.9441 2.14766,1.5863 3.45703,1.8467c1.3092,0.2604 2.6662,0.127 3.8994,-0.3838c1.2334,-0.5109 2.2876,-1.3763 3.0293,-2.4863c0.6953,-1.0406 1.0866,-2.2526 1.1328,-3.5l0.0039,-0.2324l-0.8652,0.8662l-0.0947,0.0859c-0.491,0.4005 -1.2152,0.3718 -1.6729,-0.0859c-0.4576,-0.4577 -0.4864,-1.1819 -0.0859,-1.6729l0.0859,-0.0947zM8.70987,3.45411c1.69023,-0.70011 3.55043,-0.88328 5.34473,-0.52637c1.7943,0.35693 3.4427,1.23764 4.7363,2.53125c0.488,0.48803 0.4878,1.2794 0,1.76758c-0.4881,0.48816 -1.2794,0.48816 -1.7676,0c-0.944,-0.944 -2.1476,-1.58623 -3.457,-1.84668c-1.3092,-0.26033 -2.6662,-0.127 -3.8994,0.38379c-1.2334,0.51089 -2.2876,1.3763 -3.0293,2.48633c-0.69532,1.04063 -1.08659,2.25259 -1.13281,3.49999l-0.00488,0.2315l0.86621,-0.8653l0.09472,-0.0859c0.49097,-0.4005 1.21519,-0.3717 1.67285,0.0859c0.45767,0.4577 0.48643,1.1819 0.08594,1.6729l-0.08594,0.0947l-3,3c-0.48815,0.4882 -1.27942,0.4882 -1.76757,0l-3,-3c-0.48815,-0.4882 -0.48815,-1.2794 0,-1.7676c0.48816,-0.4881 1.27942,-0.4881 1.76757,0l0.86622,0.8672l0.00585,-0.3262c0.06337,-1.70921 0.60007,-3.36994 1.55274,-4.79586c1.01637,-1.5211 2.46123,-2.70711 4.15137,-3.40723z" fill="#002B51"/>
</svg>
