<svg width="24" height="24" viewBox="0 0 24 24" fill="none" xmlns="http://www.w3.org/2000/svg">
<path d="M12.4697,5.46972c0.2929,-0.29286 0.7677,-0.29288 1.0606,0l6,5.99998l0.0517,0.0567c0.2403,0.2945 0.2228,0.7293 -0.0517,1.0039l-6,6l-0.0567,0.0517c-0.2945,0.2403 -0.7293,0.2228 -1.0039,-0.0517c-0.2746,-0.2746 -0.292,-0.7094 -0.0517,-1.0039l0.0517,-0.0567l4.7198,-4.7197h-12.1895c-0.4142,0 -0.74997,-0.3358 -0.75,-0.75c0,-0.4142 0.33579,-0.75 0.75,-0.75h12.1895l-4.7198,-4.71973c-0.2929,-0.2929 -0.2929,-0.76766 0,-1.06055z" fill="#002B51"/>
</svg>
