<svg width="24" height="24" viewBox="0 0 24 24" fill="none" xmlns="http://www.w3.org/2000/svg">
<path d="M9,2.25c0.41402,0.0002 0.74996,0.33594 0.75,0.75c-0.00003,0.41406 -0.33598,0.7498 -0.75,0.75h-3.18945l6.25585,6.2559c1.0774,1.0779 1.6833,2.5403 1.6836,4.0644v6.9297l-0.0039,0.0762c-0.0382,0.3782 -0.3578,0.6736 -0.7461,0.6738c-0.388,-0.0002 -0.7074,-0.295 -0.7461,-0.6729l-0.0039,-0.0771v-6.9297c-0.0003,-1.1265 -0.4487,-2.2072 -1.2451,-3.0039l-6.2549,-6.25585v3.18945c-0.00003,0.41404 -0.33599,0.74977 -0.75,0.75c-0.41402,-0.0002 -0.74997,-0.33593 -0.75,-0.75v-5c0.00002,-0.19881 0.0792,-0.38965 0.21973,-0.53027c0.10532,-0.10518 0.23899,-0.17624 0.38281,-0.20508l0.14746,-0.01465zM15.5,8.75c0.4138,0.0004 0.75,0.33607 0.75,0.75c0,0.41397 -0.3361,0.7496 -0.75,0.75c-0.4142,0 -0.75,-0.33579 -0.75,-0.75c0,-0.41417 0.3358,-0.75 0.75,-0.75zM17.75,6.5c0.4138,0.0004 0.75,0.33607 0.75,0.75c0,0.41397 -0.3361,0.7496 -0.75,0.75c-0.4142,0 -0.75,-0.33579 -0.75,-0.75c0,-0.41417 0.3358,-0.75 0.75,-0.75zM20,4.25c0.4138,0.0004 0.75,0.33607 0.75,0.75c0,0.41397 -0.3361,0.7496 -0.75,0.75c-0.4142,0 -0.75,-0.33579 -0.75,-0.75c0,-0.41417 0.3358,-0.75 0.75,-0.75z" fill="#002B51"/>
</svg>
