<svg width="24" height="24" viewBox="0 0 24 24" fill="none" xmlns="http://www.w3.org/2000/svg">
<path fill-rule="evenodd" clip-rule="evenodd" d="M15 1.74994C14.3097 1.74993 13.75 2.30957 13.75 2.99992C13.75 3.69028 14.3096 4.24993 15 4.24994L16.9826 4.24996L11.5805 9.65212L11.5804 9.65223C10.4089 10.824 9.75072 12.4129 9.75037 14.0697V14.0699L9.75 20.9999C9.74996 21.6902 10.3096 22.2499 10.9999 22.2499C11.6903 22.25 12.25 21.6904 12.25 21L12.2504 14.0703V14.0701C12.2506 13.0761 12.6455 12.1229 13.3482 11.4199L13.3484 11.4198L18.7501 6.01799L18.75 7.99985C18.7499 8.6902 19.3096 9.24989 19.9999 9.24994C20.6903 9.24999 21.2499 8.69039 21.25 8.00003L21.2504 3.00009C21.2504 2.66856 21.1187 2.35059 20.8843 2.11615C20.6499 1.88171 20.3319 1.75 20.0004 1.75L15 1.74994ZM8.50073 8.25024C7.81038 8.25024 7.25073 8.80989 7.25073 9.50024C7.25073 10.1906 7.81038 10.7502 8.50073 10.7502C9.19109 10.7502 9.75073 10.1906 9.75073 9.50024C9.75073 8.80989 9.19109 8.25024 8.50073 8.25024ZM2.75073 5.00024C2.75073 4.30989 3.31038 3.75024 4.00073 3.75024C4.69109 3.75024 5.25073 4.30989 5.25073 5.00024C5.25073 5.6906 4.69109 6.25024 4.00073 6.25024C3.31038 6.25024 2.75073 5.6906 2.75073 5.00024ZM6.25073 6.00024C5.56038 6.00024 5.00073 6.55989 5.00073 7.25024C5.00073 7.9406 5.56038 8.50024 6.25073 8.50024C6.94109 8.50024 7.50073 7.9406 7.50073 7.25024C7.50073 6.55989 6.94109 6.00024 6.25073 6.00024Z" fill="#002B51"/>
</svg>
