<svg width="24" height="24" viewBox="0 0 24 24" fill="none" xmlns="http://www.w3.org/2000/svg">
<path fill-rule="evenodd" clip-rule="evenodd" d="M19.25,8.00006v-3.18945l-6.2549,6.25589c-0.7965,0.7967 -1.2449,1.8772 -1.2451,3.0039v6.9297l-0.0039,0.0771c-0.0387,0.378 -0.358,0.6729 -0.7461,0.6729c-0.3885,-0.0001 -0.7079,-0.2955 -0.7461,-0.6739l-0.0039,-0.0761v-6.9297c0.0003,-1.5242 0.606,-2.9865 1.6836,-4.0645l6.2559,-6.25584h-3.1895c-0.4142,0 -0.75,-0.33582 -0.75,-0.75c0,-0.41421 0.3358,-0.75 0.75,-0.75h5l0.1475,0.01465c0.144,0.02881 0.2773,0.09972 0.3828,0.20508c0.1406,0.14065 0.2197,0.33137 0.2197,0.53027v5c0,0.41419 -0.3358,0.75 -0.75,0.75c-0.4142,-0.00003 -0.75,-0.33584 -0.75,-0.75zM9.25073,9.50009c0,0.41422 -0.33578,0.75001 -0.75,0.75001c-0.41421,0 -0.75,-0.33579 -0.75,-0.75001c0,-0.41421 0.33579,-0.75 0.75,-0.75c0.41422,0 0.75,0.33579 0.75,0.75zM3.25073,5.00009c0,-0.41421 0.33579,-0.75 0.75,-0.75c0.41422,0 0.75,0.33579 0.75,0.75c0,0.41422 -0.33578,0.75 -0.75,0.75c-0.41421,0 -0.75,-0.33578 -0.75,-0.75zM7.00073,7.25009c0,0.41422 -0.33578,0.75 -0.75,0.75c-0.41421,0 -0.75,-0.33578 -0.75,-0.75c0,-0.41421 0.33579,-0.75 0.75,-0.75c0.41422,0 0.75,0.33579 0.75,0.75z" fill="#002B51"/>
</svg>
