<svg width="24" height="24" viewBox="0 0 24 24" fill="none" xmlns="http://www.w3.org/2000/svg">
<path fill-rule="evenodd" clip-rule="evenodd" d="M19.8839 8.88388C20.372 8.39573 20.372 7.60427 19.8839 7.11612L15.8839 3.11612C15.3957 2.62796 14.6043 2.62796 14.1161 3.11612C13.628 3.60427 13.628 4.39573 14.1161 4.88388L15.9822 6.75H7.5C5.70507 6.75 4.25 8.20508 4.25 10V21C4.25 21.6904 4.80964 22.25 5.5 22.25C6.19036 22.25 6.75 21.6904 6.75 21V10C6.75 9.58579 7.08579 9.25 7.5 9.25H15.9822L14.1161 11.1161C13.628 11.6043 13.628 12.3957 14.1161 12.8839C14.6043 13.372 15.3957 13.372 15.8839 12.8839L19.8839 8.88388Z" fill="#002B51"/>
</svg>
