<svg width="24" height="24" viewBox="0 0 24 24" fill="none" xmlns="http://www.w3.org/2000/svg">
<path d="M5,10.7499h10.9824l-1.8662,-1.86621c-0.4881,-0.48815 -0.4881,-1.27942 0,-1.76757c0.4882,-0.48816 1.2794,-0.48816 1.7676,0l4,3.99998l0.0859,0.0947c0.4005,0.491 0.3718,1.2152 -0.0859,1.6729l-4,4l-0.0947,0.0859c-0.491,0.4005 -1.2152,0.3718 -1.6729,-0.0859c-0.4577,-0.4577 -0.4864,-1.1819 -0.0859,-1.6729l0.0859,-0.0947l1.8662,-1.8662h-10.9824c-0.69036,0 -1.25,-0.5596 -1.25,-1.25c0,-0.6904 0.55964,-1.25 1.25,-1.25z" fill="#002B51"/>
</svg>
