<svg width="24" height="24" viewBox="0 0 24 24" fill="none" xmlns="http://www.w3.org/2000/svg">
<path d="M14.4697,3.46976c0.2746,-0.27461 0.7094,-0.29207 1.0039,-0.05176l0.0567,0.05176l4,3.99999c0.2746,0.27461 0.292,0.70934 0.0517,1.00391l-0.0517,0.05664l-4,4c-0.2929,0.2929 -0.7677,0.2929 -1.0606,0c-0.2929,-0.2929 -0.2929,-0.7677 0,-1.0605l2.7198,-2.71977h-9.6895c-0.69036,0 -1.25,0.55964 -1.25,1.24997v11c-0.00002,0.4142 -0.3358,0.75 -0.75,0.75c-0.4142,0 -0.74998,-0.3358 -0.75,-0.75v-11c0,-1.51875 1.23122,-2.74997 2.75,-2.74997h9.6895l-2.7198,-2.71973l-0.0517,-0.05664c-0.2403,-0.29457 -0.2229,-0.7293 0.0517,-1.0039z" fill="#002B51"/>
</svg>
