<svg width="24" height="24" viewBox="0 0 24 24" fill="none" xmlns="http://www.w3.org/2000/svg">
<path d="M4.49674,4.49669c0.29281,-0.29282 0.76861,-0.29267 1.06152,0l11.91894,11.91991v-9.5039c0.0003,-0.414 0.336,-0.74902 0.75,-0.74902c0.414,0.0001 0.7498,0.33509 0.75,0.74902v11.3145l-0.0039,0.0761c-0.0384,0.3782 -0.3578,0.6738 -0.7461,0.6739h-11.31347l-0.07715,-0.004c-0.37809,-0.0384 -0.67271,-0.3578 -0.67285,-0.746c0,-0.3884 0.29465,-0.7087 0.67285,-0.7471l0.07715,-0.0029h9.50297l-11.91996,-11.91997c-0.29225,-0.29293 -0.29264,-0.76786 0,-1.06054z" fill="#002B51"/>
</svg>
