<svg width="24" height="24" viewBox="0 0 24 24" fill="none" xmlns="http://www.w3.org/2000/svg">
<path d="M16.5,9.25h-8.48242l1.86621,1.8662c0.48811,0.4882 0.48811,1.2794 0,1.7676c-0.48816,0.4881 -1.27942,0.4881 -1.76758,0l-4,-4.00001l-0.08594,-0.09473c-0.40048,-0.49096 -0.37172,-1.21519 0.08594,-1.67285l4,-4l0.09473,-0.08594c0.49097,-0.40048 1.21519,-0.37172 1.67285,0.08594c0.45771,0.45766 0.48641,1.18188 0.08594,1.67285l-0.08594,0.09473l-1.86621,1.86621h8.48242c1.7949,0 3.25,1.45508 3.25,3.25v11c0,0.6904 -0.5596,1.25 -1.25,1.25c-0.6904,0 -1.25,-0.5596 -1.25,-1.25v-11c0,-0.41421 -0.3358,-0.75 -0.75,-0.75z" fill="#002B51"/>
</svg>
