<svg width="24" height="24" viewBox="0 0 24 24" fill="none" xmlns="http://www.w3.org/2000/svg">
<path d="M15.5264,4.41799c0.2945,-0.24026 0.7293,-0.22279 1.0039,0.05175l4,4l0.0517,0.05665c0.2403,0.29456 0.2228,0.7293 -0.0517,1.0039c-0.2746,0.27461 -0.7094,0.29207 -1.0039,0.05176l-0.0567,-0.05176l-2.7197,-2.71973v9.68944c0,1.5188 -1.2312,2.75 -2.75,2.75h-11c-0.41421,0 -0.75,-0.3358 -0.75,-0.75c0.00005,-0.4142 0.33582,-0.75 0.75,-0.75h11c0.6904,0 1.25,-0.5596 1.25,-1.25v-9.68944l-2.7197,2.71973c-0.2929,0.29289 -0.7677,0.29289 -1.0606,0c-0.2928,-0.2929 -0.2929,-0.76767 0,-1.06055l4,-4z" fill="#002B51"/>
</svg>
