<svg width="24" height="24" viewBox="0 0 24 24" fill="none" xmlns="http://www.w3.org/2000/svg">
<path fill-rule="evenodd" clip-rule="evenodd" d="M8.53036,19.5304c-0.29289,0.2929 -0.76777,0.2929 -1.06066,0l-4,-4c-0.29289,-0.2929 -0.29289,-0.7678 0,-1.0607c0.29289,-0.2929 0.76777,-0.2929 1.06066,0l2.71967,2.7197v-9.68933c0,-1.51878 1.23122,-2.75 2.74997,-2.75h11c0.4142,0 0.75,0.33579 0.75,0.75c0,0.41421 -0.3358,0.75 -0.75,0.75h-11c-0.69033,0 -1.24997,0.55964 -1.24997,1.25v9.68933l2.71967,-2.7197c0.2929,-0.2929 0.7678,-0.2929 1.0607,0c0.2929,0.2929 0.2929,0.7678 0,1.0607z" fill="#002B51"/>
</svg>
