<svg width="24" height="24" viewBox="0 0 24 24" fill="none" xmlns="http://www.w3.org/2000/svg">
<path d="M10.7499,19v-10.98242l-1.86621,1.86621c-0.48815,0.48811 -1.27942,0.48811 -1.76757,0c-0.48816,-0.48816 -0.48816,-1.27942 0,-1.76758l3.99998,-4l0.0947,-0.08594c0.491,-0.40048 1.2152,-0.37172 1.6729,0.08594l4,4l0.0859,0.09473c0.4005,0.49097 0.3718,1.21519 -0.0859,1.67285c-0.4577,0.45771 -1.1819,0.48641 -1.6729,0.08594l-0.0947,-0.08594l-1.8662,-1.86621v10.98242c0,0.6904 -0.5596,1.25 -1.25,1.25c-0.6904,0 -1.25,-0.5596 -1.25,-1.25z" fill="#002B51"/>
</svg>
