<svg width="24" height="24" viewBox="0 0 24 24" fill="none" xmlns="http://www.w3.org/2000/svg">
<path d="M8.75012,7.50007v9.68943l2.71968,-2.7197c0.2929,-0.2929 0.7677,-0.2929 1.0606,0c0.2929,0.2929 0.2929,0.7677 0,1.0605l-4.00001,4l-0.05664,0.0518c-0.29458,0.2403 -0.7293,0.2228 -1.00391,-0.0518l-4,-4l-0.05175,-0.0566c-0.24031,-0.2946 -0.22285,-0.7293 0.05175,-1.0039c0.27461,-0.2746 0.70933,-0.2921 1.00391,-0.0518l0.05664,0.0518l2.71973,2.7197v-9.68943c0,-1.51878 1.23121,-2.75 2.74998,-2.75h11c0.4142,0 0.75,0.33579 0.75,0.75c0,0.41421 -0.3358,0.75 -0.75,0.75h-11c-0.69034,0 -1.24998,0.55965 -1.24998,1.25z" fill="#002B51"/>
</svg>
