<svg width="24" height="24" viewBox="0 0 24 24" fill="none" xmlns="http://www.w3.org/2000/svg">
<path fill-rule="evenodd" clip-rule="evenodd" d="M20,9.24997c-0.6904,0 -1.25,-0.55964 -1.25,-1.25v-0.98242l-3.8662,3.86625l-0.0947,0.0859c-0.491,0.4005 -1.2152,0.3717 -1.6729,-0.0859c-0.4576,-0.4577 -0.4864,-1.18192 -0.0859,-1.67289l0.0859,-0.09473l3.8662,-3.86621h-0.9824c-0.6904,0 -1.25,-0.55964 -1.25,-1.25c0,-0.69036 0.5596,-1.25 1.25,-1.25h4c0.6904,0 1.25,0.55964 1.25,1.25v4c0,0.69036 -0.5596,1.25 -1.25,1.25zM10.9697,14.789l-0.0859,0.0948l-3.86622,3.8662h0.98242c0.69036,0 1.25,0.5596 1.25,1.25c0,0.6903 -0.55964,1.25 -1.25,1.25h-4c-0.69035,0 -1.25,-0.5597 -1.25,-1.25v-4c0,-0.6904 0.55965,-1.25 1.25,-1.25c0.69036,0 1.25,0.5596 1.25,1.25v0.9824l3.86621,-3.8662l0.09473,-0.086c0.49097,-0.4004 1.21516,-0.3717 1.67286,0.086c0.4577,0.4576 0.4864,1.1819 0.0859,1.6728zM2.75003,7.99997v-4c0,-0.69036 0.55965,-1.25 1.25,-1.25h4c0.69036,0 1.25,0.55964 1.25,1.25c0,0.69036 -0.55964,1.25 -1.25,1.25h-0.98242l3.86619,3.86621l0.086,0.09473c0.4004,0.49097 0.3717,1.21519 -0.086,1.67289c-0.4576,0.4576 -1.18186,0.4864 -1.67283,0.0859l-0.09473,-0.0859l-3.86621,-3.86625v0.98242c0,0.69036 -0.55964,1.25 -1.25,1.25c-0.69035,0 -1.25,-0.55964 -1.25,-1.25zM13.1162,13.1162c0.4577,-0.4577 1.1819,-0.4864 1.6729,-0.086l0.0947,0.086l3.8662,3.8662v-0.9824c0,-0.6904 0.5597,-1.25 1.25,-1.25c0.6904,0 1.25,0.5596 1.25,1.25v4c0,0.6903 -0.5596,1.25 -1.25,1.25h-4c-0.6903,0 -1.25,-0.5597 -1.25,-1.25c0,-0.6904 0.5597,-1.25 1.25,-1.25h0.9825l-3.8663,-3.8662l-0.0859,-0.0948c-0.4005,-0.4909 -0.3717,-1.2152 0.0859,-1.6728z" fill="#002B51"/>
</svg>
