<svg width="24" height="24" viewBox="0 0 24 24" fill="none" xmlns="http://www.w3.org/2000/svg">
<path d="M11.5263,4.41809c0.2946,-0.24031 0.7293,-0.22285 1.0039,0.05175l4,4l0.0518,0.05664c0.2403,0.29459 0.2228,0.72931 -0.0518,1.00391c-0.2746,0.2746 -0.7093,0.29207 -1.0039,0.05176l-0.0566,-0.05176l-2.7198,-2.71973v12.18944c0,0.4142 -0.3357,0.75 -0.75,0.75c-0.4142,0 -0.75,-0.3358 -0.75,-0.75v-12.18944l-2.71968,2.71973c-0.2929,0.29289 -0.76766,0.29289 -1.06055,0c-0.29289,-0.29289 -0.29289,-0.76765 0,-1.06055l4.00003,-4z" fill="#002B51"/>
</svg>
