<svg width="24" height="24" viewBox="0 0 24 24" fill="none" xmlns="http://www.w3.org/2000/svg">
<path d="M13.1162,13.1162c0.4577,-0.4577 1.1819,-0.4864 1.6729,-0.0859l0.0947,0.0859l3.8662,3.8662v-0.9824c0,-0.6904 0.5596,-1.25 1.25,-1.25c0.6904,0 1.25,0.5596 1.25,1.25v4c0,0.6903 -0.5596,1.25 -1.25,1.25h-4c-0.6904,0 -1.25,-0.5597 -1.25,-1.25c0,-0.6904 0.5596,-1.25 1.25,-1.25h0.9824l-3.8662,-3.8662l-0.0859,-0.0948c-0.4005,-0.4909 -0.3718,-1.2151 0.0859,-1.6728zM8,2.74998c0.69036,0 1.25,0.55965 1.25,1.25c0,0.69036 -0.55964,1.25 -1.25,1.25h-0.98242l3.86622,3.86622l0.0859,0.09472c0.4005,0.49097 0.3718,1.21518 -0.0859,1.67288c-0.4577,0.4576 -1.18189,0.4864 -1.67286,0.0859l-0.09473,-0.0859l-3.86621,-3.86624v0.98242c0,0.69036 -0.55964,1.25 -1.25,1.25c-0.69036,0 -1.25,-0.55964 -1.25,-1.25v-4c0,-0.69035 0.55964,-1.25 1.25,-1.25z" fill="#002B51"/>
</svg>
