<svg width="24" height="24" viewBox="0 0 24 24" fill="none" xmlns="http://www.w3.org/2000/svg">
<path d="M11.2499,19.0001v-12.18943l-4.71968,4.71973c-0.2929,0.2929 -0.76766,0.2929 -1.06055,0c-0.29289,-0.2929 -0.29289,-0.7677 0,-1.0606l6.00003,-5.99995l0.0566,-0.05176c0.2946,-0.24031 0.7293,-0.22285 1.0039,0.05176l6,5.99995l0.0518,0.0567c0.2403,0.2946 0.2228,0.7293 -0.0518,1.0039c-0.2746,0.2746 -0.7093,0.2921 -1.0039,0.0518l-0.0566,-0.0518l-4.7198,-4.71973v12.18943c0,0.4142 -0.3357,0.75 -0.75,0.75c-0.4142,0 -0.75,-0.3358 -0.75,-0.75z" fill="#002B51"/>
</svg>
