<svg width="24" height="24" viewBox="0 0 24 24" fill="none" xmlns="http://www.w3.org/2000/svg">
<path fill-rule="evenodd" clip-rule="evenodd" d="M11.1161,3.11612c0.4882,-0.48816 1.2796,-0.48816 1.7678,0l5,5c0.4881,0.48815 0.4881,1.27961 0,1.76776c-0.4882,0.48812 -1.2796,0.48812 -1.7678,0l-2.8661,-2.86611v7.48223c0,0.6904 -0.5596,1.25 -1.25,1.25c-0.6904,0 -1.25,-0.5596 -1.25,-1.25v-7.48223l-2.86612,2.86611c-0.48815,0.48812 -1.27961,0.48812 -1.76776,0c-0.48816,-0.48815 -0.48816,-1.27961 0,-1.76776zM19,17.75c0.6904,0 1.25,0.5596 1.25,1.25c0,0.6904 -0.5596,1.25 -1.25,1.25h-14c-0.69036,0 -1.25,-0.5596 -1.25,-1.25c0,-0.6904 0.55964,-1.25 1.25,-1.25z" fill="#002B51"/>
</svg>
