<svg width="24" height="24" viewBox="0 0 24 24" fill="none" xmlns="http://www.w3.org/2000/svg">
<path d="M7.46978,4.46972c0.2746,-0.2746 0.70933,-0.29206 1.00391,-0.05175l0.05664,0.05175l3.99997,4c0.2929,0.2929 0.2929,0.76767 0,1.06055c-0.2929,0.29288 -0.7676,0.29286 -1.0605,0l-2.71975,-2.71973v9.68946c0.00002,0.6903 0.55966,1.25 1.25005,1.25h11c0.4142,0 0.75,0.3358 0.75,0.75c-0.0001,0.4142 -0.3359,0.75 -0.75,0.75h-11c-1.51882,0 -2.75003,-1.2312 -2.75005,-2.75v-9.68946l-2.71972,2.71973l-0.05664,0.05176c-0.29457,0.2403 -0.7293,0.22282 -1.00391,-0.05176c-0.2746,-0.2746 -0.29206,-0.70933 -0.05176,-1.00391l0.05176,-0.05664z" fill="#002B51"/>
</svg>
