<svg width="24" height="24" viewBox="0 0 24 24" fill="none" xmlns="http://www.w3.org/2000/svg">
<path d="M14.4697,7.46985c0.2929,-0.2929 0.7677,-0.2929 1.0606,0l4,3.99995l0.0517,0.0567c0.2402,0.2946 0.2228,0.7293 -0.0517,1.0039l-4,4l-0.0567,0.0518c-0.2945,0.2402 -0.7293,0.2226 -1.0039,-0.0518c-0.2746,-0.2746 -0.292,-0.7093 -0.0517,-1.0039l0.0517,-0.0567l2.7198,-2.7197h-12.1895c-0.41414,0 -0.74988,-0.3359 -0.75,-0.75c0,-0.4142 0.33579,-0.75 0.75,-0.75h12.1895l-2.7198,-2.71971c-0.2928,-0.29287 -0.2928,-0.76765 0,-1.06054z" fill="#002B51"/>
</svg>
