<svg width="24" height="24" viewBox="0 0 24 24" fill="none" xmlns="http://www.w3.org/2000/svg">
<path fill-rule="evenodd" clip-rule="evenodd" d="M19.5303,15.4697c0.2929,0.2929 0.2929,0.7677 0,1.0606l-4,4c-0.2929,0.2929 -0.7677,0.2929 -1.0606,0c-0.2929,-0.2929 -0.2929,-0.7677 0,-1.0606l2.7196,-2.7197h-9.6893c-1.51878,0 -2.75,-1.2312 -2.75,-2.75v-11c0,-0.41421 0.33579,-0.75 0.75,-0.75c0.41421,0 0.75,0.33579 0.75,0.75v11c0,0.6904 0.55964,1.25 1.25,1.25h9.6893l-2.7196,-2.7197c-0.2929,-0.2929 -0.2929,-0.7677 0,-1.0606c0.2929,-0.2929 0.7677,-0.2929 1.0606,0z" fill="#002B51"/>
</svg>
