<svg width="24" height="24" viewBox="0 0 24 24" fill="none" xmlns="http://www.w3.org/2000/svg">
<path d="M7.5,15.25h9.6895l-2.7198,-2.7197c-0.2929,-0.2929 -0.2929,-0.7677 0,-1.0606c0.2929,-0.2929 0.7677,-0.2929 1.0606,0l4,4l0.0517,0.0567c0.2403,0.2945 0.2229,0.7293 -0.0517,1.0039l-4,4l-0.0567,0.0517c-0.2945,0.2403 -0.7293,0.2229 -1.0039,-0.0517c-0.2746,-0.2746 -0.292,-0.7094 -0.0517,-1.0039l0.0517,-0.0567l2.7198,-2.7197h-9.6895c-1.51878,0 -2.75,-1.2312 -2.75,-2.75v-11c0,-0.41421 0.33579,-0.75 0.75,-0.75c0.41421,0 0.75,0.33579 0.75,0.75v11c0,0.6904 0.55964,1.25 1.25,1.25z" fill="#002B51"/>
</svg>
