<svg width="24" height="24" viewBox="0 0 24 24" fill="none" xmlns="http://www.w3.org/2000/svg">
<path d="M13.4696,13.4697c0.2746,-0.2746 0.7093,-0.292 1.0039,-0.0518l0.0567,0.0518l4.7197,4.7197v-2.1895c0,-0.4141 0.3359,-0.7499 0.75,-0.75c0.4142,0 0.75,0.3358 0.75,0.75v4c0,0.4142 -0.3358,0.75 -0.75,0.75h-4c-0.4142,0 -0.75,-0.3358 -0.75,-0.75c0,-0.4141 0.3359,-0.7499 0.75,-0.75h2.1894l-4.7197,-4.7197l-0.0517,-0.0566c-0.2403,-0.2946 -0.2228,-0.7294 0.0517,-1.0039zM7.99989,3.24992c0.4142,0 0.74997,0.33582 0.75,0.75c0,0.41422 -0.33578,0.75 -0.75,0.75h-2.18945l4.71976,4.71973l0.0517,0.05664c0.2403,0.29458 0.2229,0.72931 -0.0517,1.00391c-0.2746,0.2746 -0.70937,0.2921 -1.00394,0.0518l-0.05664,-0.0518l-4.71973,-4.71973v2.18945c0,0.41422 -0.33578,0.75 -0.75,0.75c-0.41415,-0.00006 -0.75,-0.33582 -0.75,-0.75v-4c0.00004,-0.41414 0.33587,-0.74993 0.75,-0.75z" fill="#002B51"/>
</svg>
