<svg width="24" height="24" viewBox="0 0 24 24" fill="none" xmlns="http://www.w3.org/2000/svg">
<path d="M19,17.75c0.6904,0 1.25,0.5596 1.25,1.25c0,0.6904 -0.5596,1.25 -1.25,1.25h-14c-0.69036,0 -1.25,-0.5596 -1.25,-1.25c0,-0.6904 0.55964,-1.25 1.25,-1.25zM12,2.75c0.6904,0 1.25,0.55964 1.25,1.25v7.4824l2.8662,-2.86619l0.0947,-0.08594c0.491,-0.40048 1.2152,-0.37172 1.6729,0.08594c0.4577,0.45766 0.4864,1.18188 0.0859,1.67289l-0.0859,0.0947l-5,5c-0.4577,0.4577 -1.1819,0.4864 -1.6729,0.0859l-0.0947,-0.0859l-4.99999,-5c-0.48815,-0.48817 -0.48815,-1.27943 0,-1.76759c0.48816,-0.48815 1.27942,-0.48815 1.76758,0l2.86621,2.86619v-7.4824c0,-0.69036 0.5596,-1.25 1.25,-1.25z" fill="#002B51"/>
</svg>
