<svg width="24" height="24" viewBox="0 0 24 24" fill="none" xmlns="http://www.w3.org/2000/svg">
<path fill-rule="evenodd" clip-rule="evenodd" d="M8.88388,19.8839c-0.48815,0.4882 -1.27961,0.4882 -1.76776,0l-4,-4c-0.48816,-0.4881 -0.48816,-1.2796 0,-1.7677c0.48815,-0.4882 1.27961,-0.4882 1.76776,0l1.86612,1.8661v-8.48226c0,-1.79493 1.45508,-3.25 3.25,-3.25h11c0.6904,0 1.25,0.55964 1.25,1.25c0,0.69036 -0.5596,1.25 -1.25,1.25h-11c-0.41421,0 -0.75,0.33579 -0.75,0.75v8.48226l1.8661,-1.8661c0.4882,-0.4882 1.2796,-0.4882 1.7678,0c0.4881,0.4881 0.4881,1.2796 0,1.7677z" fill="#002B51"/>
</svg>
