<svg width="24" height="24" viewBox="0 0 24 24" fill="none" xmlns="http://www.w3.org/2000/svg">
<path fill-rule="evenodd" clip-rule="evenodd" d="M2.11612 7.11616C1.62796 7.60431 1.62796 8.39577 2.11612 8.88392C2.60427 9.37208 3.39573 9.37208 3.88388 8.88392L5.75 7.01781V14C5.75 14.6904 6.30964 15.25 7 15.25C7.69035 15.25 8.25 14.6904 8.25 14L8.25 7.01781L10.1161 8.88392C10.6043 9.37208 11.3957 9.37208 11.8839 8.88392C12.372 8.39577 12.372 7.60431 11.8839 7.11616L7.88388 3.11616C7.39573 2.628 6.60427 2.628 6.11612 3.11616L2.11612 7.11616ZM13.8839 15.1162C13.3957 14.628 12.6043 14.628 12.1161 15.1162C11.628 15.6043 11.628 16.3958 12.1161 16.8839L16.1161 20.8839C16.6043 21.3721 17.3957 21.3721 17.8839 20.8839L21.8839 16.8839C22.372 16.3958 22.372 15.6043 21.8839 15.1162C21.3957 14.628 20.6043 14.628 20.1161 15.1162L18.25 16.9823L18.25 11C18.25 10.3097 17.6904 9.75004 17 9.75004C16.3096 9.75004 15.75 10.3097 15.75 11L15.75 16.9823L13.8839 15.1162Z" fill="#002B51"/>
</svg>
