<svg width="24" height="24" viewBox="0 0 24 24" fill="none" xmlns="http://www.w3.org/2000/svg">
<path fill-rule="evenodd" clip-rule="evenodd" d="M15.4697,4.4697c0.2929,-0.29289 0.7677,-0.29289 1.0606,0l4,4c0.2929,0.29289 0.2929,0.76777 0,1.06066c-0.2929,0.29289 -0.7677,0.29289 -1.0606,0l-2.7197,-2.71967v9.68931c0,1.5188 -1.2312,2.75 -2.75,2.75h-11c-0.41421,0 -0.75,-0.3358 -0.75,-0.75c0,-0.4142 0.33579,-0.75 0.75,-0.75h11c0.6904,0 1.25,-0.5596 1.25,-1.25v-9.68931l-2.7197,2.71967c-0.2929,0.29289 -0.7677,0.29289 -1.0606,0c-0.2929,-0.29289 -0.2929,-0.76777 0,-1.06066z" fill="#002B51"/>
</svg>
