<svg width="24" height="25" viewBox="0 0 24 25" fill="none" xmlns="http://www.w3.org/2000/svg">
<path fill-rule="evenodd" clip-rule="evenodd" d="M12.0177,3.75002c1.8233,0.00349 3.6051,0.54577 5.1213,1.55889c1.5212,1.0164 2.7068,2.46105 3.4069,4.15127c0.7001,1.69022 0.8833,3.55012 0.5264,5.34442c-0.3569,1.7943 -1.2379,3.4425 -2.5316,4.7361c-1.2936,1.2937 -2.9418,2.1747 -4.7361,2.5316c-1.7943,0.3569 -3.6542,0.1737 -5.34442,-0.5264c-1.69022,-0.7001 -3.13487,-1.8857 -4.15127,-3.4069c-1.01641,-1.5211 -1.55891,-3.3095 -1.55891,-5.139c0,-0.6904 0.55964,-1.25 1.25,-1.25c0.69036,0 1.25,0.5596 1.25,1.25c0,1.335 0.39588,2.6401 1.13758,3.7501c0.7417,1.11 1.79591,1.9752 3.02931,2.4861c1.23341,0.5109 2.59061,0.6446 3.90001,0.3841c1.3093,-0.2604 2.5121,-0.9033 3.4561,-1.8473c0.944,-0.944 1.5869,-2.1468 1.8473,-3.4561c0.2605,-1.3094 0.1268,-2.6666 -0.3841,-3.9c-0.5109,-1.23341 -1.3761,-2.28762 -2.4861,-3.02932c-1.1051,-0.7384 -2.4035,-1.13406 -3.7323,-1.13756l0.8661,0.8661c0.4881,0.48815 0.4881,1.27961 0,1.76776c-0.4882,0.48816 -1.2796,0.48816 -1.7678,0l-2.99998,-3c-0.48816,-0.48815 -0.48816,-1.27961 0,-1.76776l2.99998,-3c0.4882,-0.48816 1.2796,-0.48816 1.7678,0c0.4881,0.48815 0.4881,1.27961 0,1.76776z" fill="#002B51"/>
</svg>
