<svg width="24" height="24" viewBox="0 0 24 24" fill="none" xmlns="http://www.w3.org/2000/svg">
<path fill-rule="evenodd" clip-rule="evenodd" d="M8.99998,1.74988c0.69036,-0.00001 1.25002,0.55963 1.25002,1.24998c0,0.69036 -0.55963,1.25001 -1.24998,1.25002l-1.98266,0.00002l5.40214,5.40216l0.0001,0.00011c1.1715,1.17173 1.8297,2.76063 1.83,4.41753v0.0002l0.0004,6.9299c0,0.6904 -0.5596,1.25 -1.2499,1.2501c-0.6904,0 -1.2501,-0.5596 -1.2501,-1.25l-0.0004,-6.9297v-0.0002c-0.0002,-0.994 -0.3951,-1.9472 -1.0978,-2.6502l-0.0002,-0.0001l-5.40174,-5.40177l0.00014,1.98186c0.00005,0.69035 -0.55955,1.25004 -1.24991,1.25009c-0.69035,0.00005 -1.25004,-0.55955 -1.25009,-1.24991l-0.00037,-4.99994c-0.00002,-0.33153 0.13166,-0.6495 0.36608,-0.88394c0.23442,-0.23444 0.55238,-0.36615 0.88391,-0.36615zM15.4993,8.25018c0.6903,0 1.25,0.55965 1.25,1.25c0,0.69032 -0.5597,1.25002 -1.25,1.25002c-0.6904,0 -1.25,-0.5597 -1.25,-1.25002c0,-0.69035 0.5596,-1.25 1.25,-1.25zM19.9993,6.25018c-0.6904,0 -1.25,-0.55964 -1.25,-1.25c0,-0.69035 0.5596,-1.25 1.25,-1.25c0.6903,0 1.25,0.55965 1.25,1.25c0,0.69036 -0.5597,1.25 -1.25,1.25zM17.7493,6.00018c0.6903,0 1.25,0.55965 1.25,1.25c0,0.69036 -0.5597,1.25 -1.25,1.25c-0.6904,0 -1.25,-0.55964 -1.25,-1.25c0,-0.69035 0.5596,-1.25 1.25,-1.25z" fill="#002B51"/>
</svg>
