<svg width="24" height="24" viewBox="0 0 24 24" fill="none" xmlns="http://www.w3.org/2000/svg">
<path d="M4.49646,4.49702c0.29277,-0.29276 0.7686,-0.29251 1.06152,0l11.91892,11.91898v-9.50296c0.0001,-0.41408 0.336,-0.74987 0.75,-0.75c0.4141,0.00007 0.75,0.33588 0.75,0.75v11.31346l-0.0039,0.0772c-0.0385,0.378 -0.3579,0.6728 -0.7461,0.6728h-11.31345l-0.07715,-0.0029c-0.37805,-0.0386 -0.67285,-0.3589 -0.67285,-0.7471c0.00018,-0.388 0.29493,-0.7075 0.67285,-0.7461l0.07715,-0.0039h9.50295l-11.91994,-11.91893c-0.29216,-0.29282 -0.29232,-0.76783 0,-1.06055z" fill="#002B51"/>
</svg>
