<svg width="24" height="24" viewBox="0 0 24 24" fill="none" xmlns="http://www.w3.org/2000/svg">
<path fill-rule="evenodd" clip-rule="evenodd" d="M20.7501,3.99991v4c0,0.41421 -0.3358,0.75 -0.75,0.75c-0.4142,0 -0.75,-0.33579 -0.75,-0.75v-2.18945l-4.7197,4.71974l-0.0566,0.0517c-0.2946,0.2403 -0.7293,0.2229 -1.004,-0.0517c-0.2746,-0.2746 -0.292,-0.70934 -0.0517,-1.00392l0.0517,-0.05664l4.7198,-4.71973h-2.1895c-0.4142,0 -0.75,-0.33579 -0.75,-0.75c0,-0.41422 0.3358,-0.75 0.75,-0.75h4c0.4142,0 0.75,0.33578 0.75,0.75zM9.52649,13.4179c0.29458,-0.2403 0.72931,-0.2229 1.00391,0.0517c0.2746,0.2746 0.2921,0.7094 0.0518,1.0039l-0.0518,0.0567l-4.71973,4.7197h2.18945c0.41422,0 0.75,0.3358 0.75,0.75c0,0.4142 -0.33578,0.75 -0.75,0.75h-4c-0.41421,0 -0.75,-0.3358 -0.75,-0.75v-4c0,-0.4142 0.33579,-0.75 0.75,-0.75c0.41422,0 0.75,0.3358 0.75,0.75v2.1895l4.71973,-4.7198z" fill="#002B51"/>
</svg>
