<svg width="24" height="25" viewBox="0 0 24 25" fill="none" xmlns="http://www.w3.org/2000/svg">
<path d="M11.1162,1.11619c0.4882,-0.48815 1.2794,-0.48815 1.7676,0c0.4881,0.48817 0.4881,1.27946 0,1.76758l-0.8672,0.86621c0.002,0.00003 0.0039,-0.00003 0.0059,0l0.3203,0.00586c1.7092,0.06337 3.37,0.60007 4.7959,1.55274c1.521,1.01636 2.7071,2.46126 3.4072,4.15136c0.6563,1.58466 0.8584,3.31876 0.5869,5.00786l-0.0605,0.3369c-0.357,1.7942 -1.2377,3.4427 -2.5313,4.7363c-1.2127,1.2126 -2.7373,2.0624 -4.4014,2.458l-0.3349,0.0732c-1.7943,0.3569 -3.6545,0.1738 -5.34474,-0.5263c-1.69009,-0.7001 -3.135,-1.8862 -4.15137,-3.4072c-0.95263,-1.4259 -1.48934,-3.0868 -1.55273,-4.7959l-0.00586,-0.3428c0,-0.6904 0.55964,-1.25 1.25,-1.25c0.64715,0 1.17908,0.4918 1.24316,1.1221l0.00684,0.1279c0.00003,1.3349 0.39603,2.64 1.1377,3.75c0.74169,1.11 1.79594,1.9754 3.02929,2.4863c1.23321,0.5108 2.59021,0.6441 3.89941,0.3838l0.2451,-0.0527c1.2143,-0.2887 2.327,-0.9091 3.2119,-1.794c0.944,-0.9439 1.5862,-2.1477 1.8467,-3.457l0.044,-0.2451c0.1981,-1.2326 0.0512,-2.4979 -0.4278,-3.6543c-0.5109,-1.2334 -1.3763,-2.28762 -2.4863,-3.02932c-1.0406,-0.69532 -2.2526,-1.08659 -3.5,-1.13281l-0.2324,-0.00489l0.8662,0.86621l0.0859,0.09473c0.4004,0.49097 0.3717,1.21522 -0.0859,1.67285c-0.4577,0.45756 -1.1819,0.48633 -1.6729,0.08594l-0.0947,-0.08594l-2.99999,-3c-0.48813,-0.48812 -0.48807,-1.27941 0,-1.76758z" fill="#002B51"/>
</svg>
