<svg width="24" height="24" viewBox="0 0 24 24" fill="none" xmlns="http://www.w3.org/2000/svg">
<path d="M11.4697,0.46972c0.2929,-0.29289 0.7677,-0.29289 1.0606,0c0.2928,0.2929 0.2928,0.76767 0,1.06055l-1.7198,1.71973h1.1895l0.3242,0.00585c1.617,0.05995 3.1882,0.56743 4.5371,1.46875c1.4389,0.96144 2.5604,2.328 3.2227,3.92676c0.6208,1.49874 0.8123,3.13884 0.5556,4.73634l-0.0576,0.3193c-0.3376,1.6973 -1.1708,3.2568 -2.3945,4.4805c-1.1473,1.1472 -2.5897,1.951 -4.1641,2.3252l-0.3164,0.0693c-1.6973,0.3376 -3.4568,0.1642 -5.05563,-0.498c-1.59876,-0.6623 -2.96533,-1.7838 -3.92676,-3.2227c-0.90131,-1.3489 -1.40879,-2.9201 -1.46875,-4.5371l-0.00586,-0.3242c0,-0.4142 0.33579,-0.75 0.75,-0.75c0.38816,0 0.70747,0.2949 0.74609,0.6728l0.00391,0.0772c0.00002,1.4339 0.42506,2.8361 1.22168,4.0283c0.79663,1.1921 1.92925,2.1212 3.25391,2.6699c1.32461,0.5487 2.78221,0.6918 4.18851,0.4121l0.2627,-0.0566c1.3044,-0.3101 2.4996,-0.9762 3.4502,-1.9268c1.0139,-1.0139 1.7036,-2.3065 1.9834,-3.7128l0.0478,-0.2637c0.2128,-1.3238 0.0545,-2.6828 -0.46,-3.92482c-0.5487,-1.32466 -1.4778,-2.45727 -2.6699,-3.2539c-1.1177,-0.74683 -2.4199,-1.16715 -3.7597,-1.2168l-0.2686,-0.00488h-1.1895l1.7198,1.71972l0.0517,0.05664c0.2403,0.29458 0.2229,0.72933 -0.0517,1.00391c-0.2746,0.27454 -0.7094,0.292 -1.0039,0.05176l-0.0567,-0.05176l-2.99997,-3c-0.29288,-0.29288 -0.29284,-0.76765 0,-1.06055z" fill="#002B51"/>
</svg>
