<svg width="24" height="24" viewBox="0 0 24 24" fill="none" xmlns="http://www.w3.org/2000/svg">
<path d="M8.96982,13.7891l-0.08594,0.0947l-1.86621,1.8662h5.98243c0.6904,0 1.25,0.5596 1.25,1.25c0,0.6904 -0.5596,1.25 -1.25,1.25h-5.98243l1.86621,1.8662l0.08594,0.0947c0.40049,0.491 0.37173,1.2152 -0.08594,1.6729c-0.45766,0.4576 -1.18188,0.4864 -1.67285,0.0859l-0.09472,-0.0859l-4,-4c-0.48816,-0.4882 -0.48816,-1.2794 0,-1.7676l4,-4l0.09472,-0.0859c0.49097,-0.4005 1.21519,-0.3718 1.67285,0.0859c0.45767,0.4577 0.48643,1.1819 0.08594,1.6729zM16.8839,2.11621l4,4c0.4881,0.48816 0.4881,1.27942 0,1.76758l-4,4.00001c-0.4882,0.4881 -1.2794,0.4881 -1.7676,0c-0.4882,-0.4882 -0.4882,-1.2794 0,-1.7676l1.8662,-1.8662h-6.9824c-0.69036,0 -1.25001,-0.55964 -1.25001,-1.25c0,-0.69036 0.55965,-1.25 1.25001,-1.25h6.9824l-1.8662,-1.86621l-0.0859,-0.09473c-0.4005,-0.49097 -0.3718,-1.21519 0.0859,-1.67285c0.4577,-0.45766 1.1819,-0.48642 1.6729,-0.08594z" fill="#002B51"/>
</svg>
