<svg width="24" height="24" viewBox="0 0 24 24" fill="none" xmlns="http://www.w3.org/2000/svg">
<path fill-rule="evenodd" clip-rule="evenodd" d="M6.46967,3.46963c0.29289,-0.29289 0.76777,-0.29289 1.06066,0l3.99997,4c0.2929,0.29289 0.2929,0.76777 0,1.06066c-0.2929,0.29289 -0.7677,0.29289 -1.0606,0l-2.7197,-2.71967v8.18938c0,0.4142 -0.33579,0.75 -0.75,0.75c-0.41421,0 -0.75,-0.3358 -0.75,-0.75v-8.18938l-2.71967,2.71967c-0.29289,0.29289 -0.76777,0.29289 -1.06066,0c-0.29289,-0.29289 -0.29289,-0.76777 0,-1.06066zM16.25,18.1893v-7.1893c0,-0.4143 0.3358,-0.75 0.75,-0.75c0.4142,0 0.75,0.3357 0.75,0.75v7.1893l2.7197,-2.7197c0.2929,-0.2929 0.7677,-0.2929 1.0606,0c0.2929,0.2929 0.2929,0.7678 0,1.0607l-4,4c-0.2929,0.2929 -0.7677,0.2929 -1.0606,0l-4,-4c-0.2929,-0.2929 -0.2929,-0.7678 0,-1.0607c0.2929,-0.2929 0.7677,-0.2929 1.0606,0z" fill="#002B51"/>
</svg>
