<svg width="24" height="24" viewBox="0 0 24 24" fill="none" xmlns="http://www.w3.org/2000/svg">
<path fill-rule="evenodd" clip-rule="evenodd" d="M20.0004,2.25006c0.1989,0 0.3897,0.07903 0.5303,0.21969c0.1407,0.14067 0.2197,0.33145 0.2197,0.53037l-0.0004,4.99993c0,0.41422 -0.3358,0.74998 -0.7501,0.74995c-0.4142,-0.00003 -0.7499,-0.33584 -0.7499,-0.75005l0.0002,-3.1891l-6.2554,6.25545c-0.7966,0.7968 -1.2442,1.8772 -1.2444,3.0038v0.0001l-0.0004,6.9298c0,0.4143 -0.3358,0.75 -0.75,0.75c-0.4143,0 -0.75,-0.3358 -0.75,-0.75l0.0004,-6.93v-0.0001c0.0003,-1.5243 0.6059,-2.9861 1.6836,-4.0641v-0.0001l6.2557,-6.25566l-3.1897,-0.00004c-0.4142,-0.00001 -0.75,-0.3358 -0.75,-0.75001c0,-0.41421 0.3358,-0.75 0.75,-0.74999zM9.25073,9.50009c0,0.41422 -0.33578,0.75001 -0.75,0.75001c-0.41421,0 -0.75,-0.33579 -0.75,-0.75001c0,-0.41421 0.33579,-0.75 0.75,-0.75c0.41422,0 0.75,0.33579 0.75,0.75zM3.25073,5.00009c0,-0.41421 0.33579,-0.75 0.75,-0.75c0.41422,0 0.75,0.33579 0.75,0.75c0,0.41422 -0.33578,0.75 -0.75,0.75c-0.41421,0 -0.75,-0.33578 -0.75,-0.75zM7.00073,7.25009c0,0.41422 -0.33578,0.75 -0.75,0.75c-0.41421,0 -0.75,-0.33578 -0.75,-0.75c0,-0.41421 0.33579,-0.75 0.75,-0.75c0.41422,0 0.75,0.33579 0.75,0.75z" fill="#002B51"/>
</svg>
