<svg width="24" height="24" viewBox="0 0 24 24" fill="none" xmlns="http://www.w3.org/2000/svg">
<path d="M19,17.75c0.6904,0 1.25,0.5596 1.25,1.25c0,0.6904 -0.5596,1.25 -1.25,1.25h-14c-0.69036,0 -1.25,-0.5596 -1.25,-1.25c0,-0.6904 0.55964,-1.25 1.25,-1.25zM11.1162,3.11621c0.4577,-0.45766 1.1819,-0.48642 1.6729,-0.08594l0.0947,0.08594l5,5c0.4881,0.48816 0.4881,1.27942 0,1.76758c-0.4882,0.48811 -1.2794,0.48811 -1.7676,0l-2.8662,-2.86621v7.48242c0,0.6904 -0.5596,1.25 -1.25,1.25c-0.6904,0 -1.25,-0.5596 -1.25,-1.25v-7.48242l-2.86621,2.86621l-0.09473,0.08594c-0.49097,0.40047 -1.21519,0.37177 -1.67285,-0.08594c-0.45766,-0.45766 -0.48642,-1.18188 -0.08594,-1.67285l0.08594,-0.09473z" fill="#002B51"/>
</svg>
