<svg width="24" height="24" viewBox="0 0 24 24" fill="none" xmlns="http://www.w3.org/2000/svg">
<path fill-rule="evenodd" clip-rule="evenodd" d="M15.5303,12.5303c-0.2929,0.2929 -0.7677,0.2929 -1.0606,0c-0.2929,-0.2929 -0.2929,-0.7677 0,-1.0606l2.7196,-2.7197h-9.6893c-0.69036,0 -1.25,0.55964 -1.25,1.25v11c0,0.4142 -0.33579,0.75 -0.75,0.75c-0.41421,0 -0.75,-0.3358 -0.75,-0.75v-11c0,-1.51878 1.23122,-2.75 2.75,-2.75h9.6893l-2.7196,-2.71967c-0.2929,-0.29289 -0.2929,-0.76777 0,-1.06066c0.2929,-0.29289 0.7677,-0.29289 1.0606,0l4,4c0.2929,0.29289 0.2929,0.76777 0,1.06066z" fill="#002B51"/>
</svg>
