<svg width="24" height="24" viewBox="0 0 24 24" fill="none" xmlns="http://www.w3.org/2000/svg">
<path d="M4.51562,4.51597c0.4879,-0.48787 1.27938,-0.48737 1.76758,0l11.0664,11.06643v-8.2969c0.0003,-0.68998 0.56,-1.24883 1.25,-1.24902c0.69,0.00019 1.2497,0.55904 1.25,1.24902v11.3145l-0.0068,0.1279c-0.0642,0.63 -0.5963,1.1219 -1.2432,1.1221h-11.31444l-0.12696,-0.0069c-0.63008,-0.0641 -1.12192,-0.5962 -1.12207,-1.2431c0.00006,-0.6471 0.49192,-1.1801 1.12207,-1.2442l0.12696,-0.0058h8.29684l-11.06638,-11.06645c-0.48733,-0.48818 -0.48777,-1.27968 0,-1.76758z" fill="#002B51"/>
</svg>
