<svg width="24" height="24" viewBox="0 0 24 24" fill="none" xmlns="http://www.w3.org/2000/svg">
<path d="M8.58191,13.4738l-0.05175,0.0566l-2.71973,2.7197h7.18947c0.4142,0 0.75,0.3358 0.75,0.75c0,0.4142 -0.3358,0.75 -0.75,0.75h-7.18947l2.71973,2.7197l0.05175,0.0567c0.24031,0.2946 0.22285,0.7293 -0.05175,1.0039c-0.27461,0.2746 -0.70933,0.2921 -1.00391,0.0517l-0.05664,-0.0517l-4,-4c-0.29289,-0.2929 -0.29289,-0.7677 0,-1.0606l4,-4l0.05664,-0.0517c0.29458,-0.2403 0.7293,-0.2229 1.00391,0.0517c0.2746,0.2746 0.29206,0.7094 0.05175,1.004zM16.5302,2.46984l4,4l0.0517,0.05664c0.2403,0.29459 0.2229,0.72931 -0.0517,1.00391l-4,4.00001c-0.2929,0.2929 -0.7677,0.2929 -1.0606,0c-0.2929,-0.2929 -0.2929,-0.7677 0,-1.0606l2.7197,-2.71968h-8.18942c-0.41421,0 -0.75,-0.33579 -0.75,-0.75c0,-0.41422 0.33579,-0.75 0.75,-0.75h8.18942l-2.7197,-2.71973l-0.0517,-0.05664c-0.2404,-0.29458 -0.2229,-0.7293 0.0517,-1.00391c0.2746,-0.2746 0.7093,-0.29206 1.0039,-0.05175z" fill="#002B51"/>
</svg>
