<svg width="24" height="24" viewBox="0 0 24 24" fill="none" xmlns="http://www.w3.org/2000/svg">
<path fill-rule="evenodd" clip-rule="evenodd" d="M11.1161,15.8839c-0.4881,-0.4882 -0.4881,-1.2796 0,-1.7678c0.4882,-0.4881 1.2796,-0.4881 1.7678,0l1.8661,1.8661v-8.48221c0,-0.41421 -0.3358,-0.75 -0.75,-0.75h-11c-0.69036,0 -1.25,-0.55964 -1.25,-1.25c0,-0.69036 0.55964,-1.25 1.25,-1.25h11c1.7949,0 3.25,1.45508 3.25,3.25v8.48221l1.8661,-1.8661c0.4882,-0.4881 1.2796,-0.4881 1.7678,0c0.4881,0.4882 0.4881,1.2796 0,1.7678l-4,4c-0.4882,0.4881 -1.2796,0.4881 -1.7678,0z" fill="#002B51"/>
</svg>
