<svg width="24" height="24" viewBox="0 0 24 24" fill="none" xmlns="http://www.w3.org/2000/svg">
<path d="M14,4.24999c1.7949,0 3.25,1.45508 3.25,3.25v8.48241l1.8662,-1.8662l0.0947,-0.0859c0.491,-0.4005 1.2152,-0.3718 1.6729,0.0859c0.4577,0.4577 0.4864,1.1819 0.0859,1.6729l-0.0859,0.0947l-4,4c-0.4577,0.4576 -1.1819,0.4864 -1.6729,0.0859l-0.0947,-0.0859l-4,-4c-0.4881,-0.4882 -0.4881,-1.2794 0,-1.7676c0.4882,-0.4882 1.2794,-0.4882 1.7676,0l1.8662,1.8662v-8.48241c0,-0.41421 -0.3358,-0.75 -0.75,-0.75h-11c-0.69036,0 -1.25,-0.55964 -1.25,-1.25c0,-0.69035 0.55964,-1.25 1.25,-1.25z" fill="#002B51"/>
</svg>
