<svg width="24" height="24" viewBox="0 0 24 24" fill="none" xmlns="http://www.w3.org/2000/svg">
<path d="M9.74414,13.2607c0.65416,0.097 1.00436,0.8444 0.66016,1.4091l-0.084,0.1182l-3.71873,4.4619h3.39843c0.4142,0 0.7499,0.3359 0.75,0.75c0,0.4142 -0.3358,0.75 -0.75,0.75h-5c-0.29084,0 -0.5552,-0.1683 -0.67871,-0.4316c-0.12336,-0.2635 -0.08373,-0.5753 0.10254,-0.7988l3.97461,-4.7696h-3.39844c-0.41418,0 -0.75,-0.3358 -0.75,-0.75c0.00007,-0.4141 0.33586,-0.7499 0.75,-0.75h4.59961zM16.5,3.24992c0.4142,0.00002 0.75,0.33582 0.75,0.75v14.18948l2.2197,-2.2197l0.0567,-0.0518c0.2945,-0.2403 0.7293,-0.2228 1.0039,0.0518c0.2746,0.2745 0.292,0.7093 0.0517,1.0039l-0.0517,0.0566l-3.5,3.5c-0.2746,0.2746 -0.7093,0.2921 -1.0039,0.0518l-0.0567,-0.0518l-3.5,-3.5c-0.2928,-0.2929 -0.2928,-0.7677 0,-1.0605c0.2929,-0.2929 0.7677,-0.2929 1.0606,0l2.2197,2.2197v-14.18948c0,-0.41417 0.3358,-0.74998 0.75,-0.75zM6.70313,3.99211c0.35924,-0.58944 1.23447,-0.5894 1.59375,0l0.06836,0.13477l1.70216,4.08496l0.625,1.5l0.0254,0.07226c0.1098,0.3638 -0.0713,0.7589 -0.4297,0.9082c-0.35846,0.1491 -0.76649,-0.0006 -0.94728,-0.335l-0.0332,-0.0693l-0.43262,-1.03808h-2.75l-0.43261,1.03808c-0.15927,0.3822 -0.5982,0.5634 -0.98047,0.4043c-0.38217,-0.1593 -0.56334,-0.5982 -0.4043,-0.98046l0.625,-1.5l1.70215,-4.08496zM6.75,7.74992h1.5l-0.75,-1.7998z" fill="#002B51"/>
</svg>
