<svg width="24" height="24" viewBox="0 0 24 24" fill="none" xmlns="http://www.w3.org/2000/svg">
<path d="M9.74414,13.2607c0.65416,0.097 1.00436,0.8445 0.66016,1.4092l-0.084,0.1181l-3.71873,4.462h3.39843c0.4142,0 0.7499,0.3358 0.75,0.75c0,0.4142 -0.3358,0.75 -0.75,0.75h-5c-0.29084,-0.0001 -0.5552,-0.1684 -0.67871,-0.4317c-0.12336,-0.2635 -0.08373,-0.5753 0.10254,-0.7988l3.97461,-4.7695h-3.39844c-0.41418,-0.0001 -0.75,-0.3358 -0.75,-0.75c0.00007,-0.4142 0.33586,-0.75 0.75,-0.75h4.59961zM15.9697,3.46969c0.2746,-0.27455 0.7094,-0.29192 1.0039,-0.05176l0.0567,0.05176l3.5,3.5c0.2929,0.29289 0.2929,0.76765 0,1.06054c-0.2929,0.29288 -0.7677,0.29289 -1.0606,0l-2.2197,-2.21972v14.18949c0,0.4142 -0.3358,0.75 -0.75,0.75c-0.4141,-0.0001 -0.75,-0.3359 -0.75,-0.75v-14.18949l-2.2197,2.21972l-0.0567,0.05176c-0.2945,0.24029 -0.7293,0.22284 -1.0039,-0.05176c-0.2744,-0.2746 -0.292,-0.70938 -0.0517,-1.0039l0.0517,-0.05664zM6.70313,3.99215c0.35924,-0.58945 1.23447,-0.5894 1.59375,0l0.06836,0.13476l1.70216,4.08497l0.625,1.5l0.0254,0.07226c0.1098,0.36386 -0.0713,0.75886 -0.4297,0.90816c-0.35846,0.1492 -0.76649,-0.0005 -0.94728,-0.3349l-0.0332,-0.0694l-0.43262,-1.03804h-2.75l-0.43261,1.03804c-0.15927,0.3823 -0.5982,0.5634 -0.98047,0.4043c-0.38217,-0.1593 -0.56334,-0.5982 -0.4043,-0.98042l0.625,-1.5l1.70215,-4.08497zM6.75,7.74996h1.5l-0.75,-1.7998z" fill="#002B51"/>
</svg>
