<svg width="24" height="24" viewBox="0 0 24 24" fill="none" xmlns="http://www.w3.org/2000/svg">
<path fill-rule="evenodd" clip-rule="evenodd" d="M18.2502,5c0.9665,0 1.75,0.7835 1.75,1.75v10.5c0,0.9665 -0.7835,1.75 -1.75,1.75h-9.73773c-0.56284,0 -1.09132,-0.2707 -1.42019,-0.7275l-3.67482,-5.1039c-0.50258,-0.698 -0.50258,-1.6392 0,-2.3372l3.67482,-5.10393c0.32887,-0.45676 0.85735,-0.72747 1.42019,-0.72747zM16.0303,10.0303c0.2929,-0.29287 0.2929,-0.76774 0,-1.06063c-0.2928,-0.2929 -0.7677,-0.2929 -1.0606,0l-1.9697,1.96963l-1.9697,-1.9696c-0.2928,-0.2929 -0.7677,-0.2929 -1.06062,0c-0.29289,0.29289 -0.29289,0.76777 0.00001,1.0607l1.96961,1.9696l-1.96961,1.9697c-0.2929,0.2929 -0.2929,0.7677 0,1.0606c0.29291,0.2929 0.76781,0.2929 1.06061,0l1.9697,-1.9696l1.9697,1.9696c0.2929,0.2929 0.7678,0.2929 1.0606,0c0.2929,-0.2929 0.2929,-0.7677 0,-1.0606l-1.9696,-1.9697z" fill="#002B51"/>
</svg>
