<svg width="24" height="24" viewBox="0 0 24 24" fill="none" xmlns="http://www.w3.org/2000/svg">
<path fill-rule="evenodd" clip-rule="evenodd" d="M8.51247 5C7.94963 5 7.42115 5.27071 7.09228 5.72747L3.41746 10.8314C2.91488 11.5294 2.91488 12.4706 3.41746 13.1686L7.09228 18.2725C7.42115 18.7293 7.94963 19 8.51247 19H18.2502C19.2167 19 20.0002 18.2165 20.0002 17.25V6.75C20.0002 5.7835 19.2167 5 18.2502 5H8.51247ZM8.30959 6.60392C8.35657 6.53867 8.43206 6.5 8.51247 6.5H18.2502C18.3883 6.5 18.5002 6.61193 18.5002 6.75V17.25C18.5002 17.3881 18.3883 17.5 18.2502 17.5H8.51247C8.43206 17.5 8.35657 17.4613 8.30959 17.3961L4.63476 12.2922C4.50912 12.1176 4.50912 11.8824 4.63476 11.7078L8.30959 6.60392ZM16.0303 8.96967C16.3232 9.26256 16.3232 9.73743 16.0303 10.0303L14.0607 12L16.0303 13.9697C16.3232 14.2626 16.3232 14.7374 16.0303 15.0303C15.7374 15.3232 15.2626 15.3232 14.9697 15.0303L13 13.0607L11.0303 15.0303C10.7374 15.3232 10.2626 15.3232 9.96968 15.0303C9.67678 14.7374 9.67678 14.2626 9.96968 13.9697L11.9393 12L9.96968 10.0304C9.67678 9.73747 9.67678 9.26259 9.96968 8.9697C10.2626 8.6768 10.7374 8.6768 11.0303 8.9697L13 10.9393L14.9697 8.96967C15.2626 8.67677 15.7374 8.67677 16.0303 8.96967Z" fill="#002B51"/>
</svg>
