<svg width="24" height="24" viewBox="0 0 24 24" fill="none" xmlns="http://www.w3.org/2000/svg">
<path fill-rule="evenodd" clip-rule="evenodd" d="M9.0247,19c-0.88444,0 -1.71467,-0.4258 -2.23145,-1.1436l-3.06055,-4.25c-0.69064,-0.9596 -0.69064,-2.2532 0,-3.2128l3.06055,-4.25005l0.10059,-0.13183c0.52029,-0.63794 1.30185,-1.0117 2.13086,-1.01172h8.2256c1.5188,0 2.75,1.23122 2.75,2.75v8.5c0,1.5188 -1.2312,2.75 -2.75,2.75zM16.0305,8.96984c-0.2747,-0.2746 -0.7094,-0.29207 -1.004,-0.05176l-0.0566,0.05176l-1.9697,1.96976l-1.9697,-1.96973l-0.0567,-0.05176c-0.2946,-0.24031 -0.7293,-0.22284 -1.00389,0.05176c-0.27461,0.2746 -0.29207,0.70933 -0.05176,1.00391l0.05176,0.05662l1.96969,1.9697l-1.96969,1.9697c-0.2929,0.2929 -0.2929,0.7677 0,1.0606c0.29289,0.2929 0.76769,0.2929 1.06059,0l1.9697,-1.9697l1.9697,1.9697l0.0566,0.0518c0.2946,0.2403 0.7294,0.2228 1.004,-0.0518c0.2745,-0.2746 0.292,-0.7093 0.0517,-1.0039l-0.0517,-0.0566l-1.9698,-1.9698l1.9698,-1.9697l0.0517,-0.05665c0.2403,-0.29459 0.2229,-0.72931 -0.0517,-1.00391z" fill="#002B51"/>
</svg>
