<svg width="24" height="24" viewBox="0 0 24 24" fill="none" xmlns="http://www.w3.org/2000/svg">
<path fill-rule="evenodd" clip-rule="evenodd" d="M18.2502,5c0.9665,0 1.75,0.7835 1.75,1.75v10.5c0,0.9665 -0.7835,1.75 -1.75,1.75h-9.73773c-0.56284,0 -1.09132,-0.2707 -1.42019,-0.7275l-3.67482,-5.1039c-0.50258,-0.698 -0.50258,-1.6392 0,-2.3372l3.67482,-5.10393c0.32887,-0.45676 0.85735,-0.72747 1.42019,-0.72747zM4.63476,11.7078c-0.12564,0.1746 -0.12564,0.4098 0,0.5844l3.67483,5.1039c0.04698,0.0652 0.12247,0.1039 0.20288,0.1039h9.73773c0.1381,0 0.25,-0.1119 0.25,-0.25v-10.5c0,-0.13807 -0.1119,-0.25 -0.25,-0.25h-9.73773c-0.08041,0 -0.1559,0.03867 -0.20288,0.10392zM16.0303,8.96967c0.2929,0.29289 0.2929,0.76776 0,1.06063l-1.9696,1.9697l1.9696,1.9697c0.2929,0.2929 0.2929,0.7677 0,1.0606c-0.2929,0.2929 -0.7677,0.2929 -1.0606,0l-1.9697,-1.9696l-1.9697,1.9696c-0.2929,0.2929 -0.7677,0.2929 -1.06062,0c-0.2929,-0.2929 -0.2929,-0.7677 0,-1.0606l1.96962,-1.9697l-1.96962,-1.9696c-0.2929,-0.29293 -0.2929,-0.76781 0,-1.0607c0.29292,-0.2929 0.76772,-0.2929 1.06062,0l1.9697,1.9696l1.9697,-1.96963c0.2929,-0.2929 0.7677,-0.2929 1.0606,0z" fill="#002B51"/>
</svg>
