<svg width="24" height="24" viewBox="0 0 24 24" fill="none" xmlns="http://www.w3.org/2000/svg">
<path d="M17.2505,5c1.5187,0.00014 2.75,1.2313 2.75,2.75v8.5c0,1.5187 -1.2313,2.7499 -2.75,2.75h-8.22556c-0.88438,0 -1.71466,-0.4259 -2.23144,-1.1436l-3.06055,-4.25c-0.69065,-0.9596 -0.69065,-2.2532 0,-3.2128l3.06055,-4.25005l0.10058,-0.13183c0.52029,-0.63786 1.30191,-1.0117 2.13086,-1.01172zM16.0308,8.96973c-0.2745,-0.27452 -0.7093,-0.29184 -1.0039,-0.05176l-0.0566,0.05176l-1.9698,1.96977l-1.9697,-1.96977l-0.0566,-0.05176c-0.2945,-0.24022 -0.7293,-0.2226 -1.00395,0.05176c-0.27459,0.27459 -0.29204,0.70932 -0.05175,1.0039l0.05175,0.05667l1.96975,1.9697l-1.96975,1.9697c-0.29289,0.2929 -0.29289,0.7677 0,1.0606c0.29295,0.2927 0.76765,0.2928 1.06055,0l1.9697,-1.9698l1.9698,1.9698l0.0566,0.0517c0.2946,0.2402 0.7294,0.2228 1.0039,-0.0517c0.2743,-0.2746 0.2919,-0.7094 0.0518,-1.0039l-0.0518,-0.0567l-1.9697,-1.9697l1.9697,-1.9697l0.0518,-0.05667c0.24,-0.29453 0.2226,-0.72937 -0.0518,-1.0039z" fill="#002B51"/>
</svg>
