<svg width="24" height="24" viewBox="0 0 24 24" fill="none" xmlns="http://www.w3.org/2000/svg">
<path d="M17.2505,5c1.5187,0.00014 2.75,1.2313 2.75,2.75v8.5c0,1.5187 -1.2313,2.7499 -2.75,2.75h-8.22559c-0.88438,0 -1.71466,-0.4259 -2.23144,-1.1436l-3.06055,-4.25c-0.69065,-0.9596 -0.69065,-2.2532 0,-3.2128l3.06055,-4.25005l0.10058,-0.13183c0.52029,-0.63786 1.3019,-1.0117 2.13086,-1.01172zM9.02491,6.5c-0.35164,0.00002 -0.68483,0.1479 -0.91992,0.40332l-0.09473,0.11621l-3.05957,4.24997c-0.31411,0.4363 -0.31411,1.0247 0,1.461l3.05957,4.25c0.2349,0.3261 0.6127,0.5195 1.01465,0.5195h8.22559c0.6902,-0.0001 1.25,-0.5597 1.25,-1.25v-8.5c0,-0.69027 -0.5598,-1.24986 -1.25,-1.25zM15.0269,8.91797c0.2945,-0.24007 0.7294,-0.22276 1.0039,0.05176c0.2744,0.27453 0.2918,0.70937 0.0517,1.0039l-0.0517,0.05667l-1.9698,1.9697l1.9698,1.9697l0.0517,0.0567c0.2401,0.2945 0.2226,0.7293 -0.0517,1.0039c-0.2746,0.2745 -0.7094,0.2919 -1.0039,0.0517l-0.0567,-0.0517l-1.9697,-1.9698l-1.9697,1.9698c-0.2929,0.2928 -0.7677,0.2927 -1.06058,0c-0.29289,-0.2929 -0.29289,-0.7677 0,-1.0606l1.96968,-1.9697l-1.96968,-1.9697l-0.05175,-0.05667c-0.2403,-0.29458 -0.22284,-0.72931 0.05175,-1.0039c0.27458,-0.27435 0.70938,-0.29198 1.00388,-0.05176l0.0567,0.05176l1.9697,1.96977l1.9697,-1.96977z" fill="#002B51"/>
</svg>
