<svg width="24" height="24" viewBox="0 0 24 24" fill="none" xmlns="http://www.w3.org/2000/svg">
<path d="M17.2501,5c1.5188,0 2.75,1.23122 2.75,2.75v8.5c0,1.5188 -1.2312,2.75 -2.75,2.75h-8.22556c-0.88438,-0.0001 -1.7147,-0.4258 -2.23145,-1.1436l-3.06055,-4.25c-0.69057,-0.9595 -0.69057,-2.2533 0,-3.2128l3.06055,-4.25005c0.51675,-0.7177 1.34707,-1.14348 2.23145,-1.14355zM16.0304,8.96973c-0.2746,-0.27447 -0.7094,-0.29192 -1.0039,-0.05176l-0.0567,0.05176l-1.9697,1.96977l-1.9697,-1.96977l-0.0566,-0.05176c-0.2946,-0.24016 -0.7294,-0.22267 -1.00395,0.05176c-0.27448,0.27457 -0.29194,0.70936 -0.05176,1.0039l0.05176,0.05667l1.96975,1.9697l-1.96975,1.9697c-0.29277,0.2929 -0.29277,0.7677 0,1.0606c0.29285,0.2928 0.76765,0.2928 1.06055,0l1.9697,-1.9698l1.9697,1.9698l0.0567,0.0517c0.2945,0.2403 0.7293,0.2228 1.0039,-0.0517c0.2744,-0.2746 0.292,-0.7094 0.0518,-1.0039l-0.0518,-0.0567l-1.9697,-1.9697l1.9697,-1.9697l0.0518,-0.05667c0.2401,-0.29457 0.2227,-0.72934 -0.0518,-1.0039z" fill="#002B51"/>
</svg>
