<svg width="24" height="24" viewBox="0 0 24 24" fill="none" xmlns="http://www.w3.org/2000/svg">
<path d="M17.2501,5c1.5187,0 2.75,1.23122 2.75,2.75v8.5c0,1.5188 -1.2313,2.75 -2.75,2.75h-8.22562c-0.88438,-0.0001 -1.7147,-0.4258 -2.23145,-1.1436l-3.06055,-4.25c-0.69057,-0.9595 -0.69057,-2.2533 0,-3.2128l3.06055,-4.25005c0.51675,-0.7177 1.34707,-1.14348 2.23145,-1.14355zM9.02448,6.5c-0.40195,0.00007 -0.77979,0.19333 -1.01465,0.51953l-3.05957,4.24997c-0.31404,0.4363 -0.31404,1.0247 0,1.461l3.05957,4.25c0.23486,0.3262 0.6127,0.5194 1.01465,0.5195h8.22562c0.6903,0 1.25,-0.5596 1.25,-1.25v-8.5c0,-0.69036 -0.5597,-1.25 -1.25,-1.25zM15.0264,8.91797c0.2946,-0.24026 0.7293,-0.22277 1.0039,0.05176c0.2746,0.27458 0.2921,0.70932 0.0518,1.0039l-0.0518,0.05667l-1.9697,1.9697l1.9697,1.9697l0.0518,0.0567c0.2403,0.2945 0.2228,0.7293 -0.0518,1.0039c-0.2746,0.2746 -0.7093,0.292 -1.0039,0.0517l-0.0566,-0.0517l-1.9697,-1.9698l-1.9698,1.9698c-0.2929,0.2929 -0.7676,0.2929 -1.06051,0c-0.29282,-0.2929 -0.29287,-0.7677 0,-1.0606l1.96971,-1.9697l-1.96971,-1.9697l-0.05176,-0.05667c-0.24022,-0.29458 -0.22281,-0.72933 0.05176,-1.0039c0.27461,-0.27453 0.70931,-0.29198 1.00391,-0.05176l0.0566,0.05176l1.9698,1.96977l1.9697,-1.96977z" fill="#002B51"/>
</svg>
