<svg width="24" height="24" viewBox="0 0 24 24" fill="none" xmlns="http://www.w3.org/2000/svg">
<path fill-rule="evenodd" clip-rule="evenodd" d="M17.2503,5c1.5187,0 2.75,1.23122 2.75,2.75v8.5c0,1.5188 -1.2313,2.75 -2.75,2.75h-8.22558c-0.88445,0 -1.71493,-0.4254 -2.23172,-1.1432l-3.06,-4.25c-0.69104,-0.9597 -0.69104,-2.2539 0,-3.2136l3.06,-4.25004c0.51679,-0.71776 1.34727,-1.14316 2.23172,-1.14316zM4.9503,11.2696c-0.31411,0.4363 -0.31411,1.0245 0,1.4608l3.06,4.25c0.23491,0.3262 0.6124,0.5196 1.01442,0.5196h8.22558c0.6903,0 1.25,-0.5596 1.25,-1.25v-8.5c0,-0.69036 -0.5597,-1.25 -1.25,-1.25h-8.22558c-0.40202,0 -0.77951,0.19336 -1.01442,0.51962zM16.0304,8.96967c0.2928,0.29289 0.2928,0.76776 0,1.06063l-1.9697,1.9697l1.9697,1.9697c0.2928,0.2929 0.2929,0.7677 0,1.0606c-0.2929,0.2929 -0.7678,0.2929 -1.0607,0l-1.9697,-1.9696l-1.9696,1.9696c-0.2929,0.2929 -0.7678,0.2929 -1.0607,0c-0.2929,-0.2929 -0.2929,-0.7677 0,-1.0606l1.9697,-1.9697l-1.9697,-1.9696c-0.2929,-0.29293 -0.2929,-0.76781 -0.00001,-1.0607c0.29291,-0.2929 0.76781,-0.2929 1.06071,0l1.9696,1.9696l1.9697,-1.96963c0.2929,-0.2929 0.7678,-0.2929 1.0607,0z" fill="#002B51"/>
</svg>
