<svg width="24" height="24" viewBox="0 0 24 24" fill="none" xmlns="http://www.w3.org/2000/svg">
<path fill-rule="evenodd" clip-rule="evenodd" d="M17.2503,5c1.5187,0 2.75,1.23122 2.75,2.75v8.5c0,1.5188 -1.2313,2.75 -2.75,2.75h-8.22558c-0.88445,0 -1.71493,-0.4254 -2.23172,-1.1432l-3.06,-4.25c-0.69104,-0.9597 -0.69104,-2.2539 0,-3.2136l3.06,-4.25004c0.51679,-0.71776 1.34727,-1.14316 2.23172,-1.14316zM16.0304,10.0303c0.2929,-0.29287 0.2929,-0.76774 0,-1.06063c-0.2929,-0.2929 -0.7678,-0.2929 -1.0607,0l-1.9697,1.96963l-1.9696,-1.9696c-0.2929,-0.2929 -0.7678,-0.2929 -1.0607,0c-0.29289,0.29289 -0.29289,0.76777 0.00001,1.0607l1.96969,1.9696l-1.96969,1.9697c-0.2929,0.2929 -0.2929,0.7677 0,1.0606c0.29289,0.2929 0.76779,0.2929 1.06069,0l1.9696,-1.9696l1.9697,1.9696c0.2929,0.2929 0.7678,0.2929 1.0607,0c0.2929,-0.2929 0.2929,-0.7677 0,-1.0606l-1.9697,-1.9697z" fill="#002B51"/>
</svg>
