<svg width="24" height="24" viewBox="0 0 24 24" fill="none" xmlns="http://www.w3.org/2000/svg">
<path fill-rule="evenodd" clip-rule="evenodd" d="M9.02464,6.5c-0.3517,0.00002 -0.68483,0.14783 -0.91993,0.40332l-0.09472,0.11621l-3.05957,4.24997c-0.31411,0.4363 -0.31411,1.0247 0,1.461l3.05957,4.25c0.23489,0.3262 0.61264,0.5195 1.01465,0.5195h8.22556c0.6904,0 1.25,-0.5596 1.25,-1.25v-8.5c0,-0.69036 -0.5596,-1.25 -1.25,-1.25zM9.02464,19c-0.88444,0 -1.71467,-0.4258 -2.23145,-1.1436l-3.06055,-4.25c-0.69064,-0.9596 -0.69064,-2.2532 0,-3.2128l3.06055,-4.25005l0.10059,-0.13183c0.52029,-0.63794 1.30185,-1.0117 2.13086,-1.01172h8.22556c1.5188,0 2.75,1.23122 2.75,2.75v8.5c0,1.5188 -1.2312,2.75 -2.75,2.75zM15.0265,8.91808c0.2946,-0.24031 0.7293,-0.22284 1.0039,0.05176c0.2746,0.2746 0.2921,0.70932 0.0517,1.00391l-0.0517,0.05665l-1.9698,1.9697l1.9698,1.9698l0.0517,0.0566c0.2403,0.2946 0.2229,0.7293 -0.0517,1.0039c-0.2746,0.2746 -0.7093,0.2921 -1.0039,0.0518l-0.0567,-0.0518l-1.9697,-1.9697l-1.9697,1.9697c-0.2929,0.2929 -0.7677,0.2929 -1.06056,0c-0.2929,-0.2929 -0.2929,-0.7677 0,-1.0606l1.96966,-1.9697l-1.96966,-1.9697l-0.05176,-0.05662c-0.24031,-0.29458 -0.22285,-0.72931 0.05176,-1.00391c0.27456,-0.2746 0.70936,-0.29207 1.00386,-0.05176l0.0567,0.05176l1.9697,1.96973l1.9697,-1.96976z" fill="#002B51"/>
</svg>
