<svg width="24" height="24" viewBox="0 0 24 24" fill="none" xmlns="http://www.w3.org/2000/svg">
<path d="M14.5,2.25c1.2426,0 2.25,1.00736 2.25,2.25c0,1.35086 -0.6318,2.5526 -1.6143,3.33105c3.2832,1.26107 5.6143,4.44185 5.6143,8.16895v1c0,2.6234 -2.1266,4.75 -4.75,4.75h-8c-2.62335,0 -4.75,-2.1266 -4.75,-4.75v-1c0,-3.7268 2.3306,-6.90766 5.61328,-8.16895c-0.98214,-0.77847 -1.61328,-1.98046 -1.61328,-3.33105c0,-1.24264 1.00736,-2.25 2.25,-2.25zM12,8.75c-4.00406,0 -7.25,3.2459 -7.25,7.25v1c0,1.7949 1.45507,3.25 3.25,3.25h8c1.7949,0 3.25,-1.4551 3.25,-3.25v-1c0,-4.0041 -3.2459,-7.25 -7.25,-7.25zM9.5,3.75c-0.41421,0 -0.75,0.33579 -0.75,0.75c0,1.51878 1.23122,2.75 2.75,2.75h1c1.5188,0 2.75,-1.23122 2.75,-2.75c0,-0.41421 -0.3358,-0.75 -0.75,-0.75z" fill="#002B51"/>
</svg>
