<svg width="24" height="24" viewBox="0 0 24 24" fill="none" xmlns="http://www.w3.org/2000/svg">
<path fill-rule="evenodd" clip-rule="evenodd" d="M21.1071,7.20151c0.3968,0.22046 0.6429,0.63873 0.6429,1.09269v1.2058c0,0.6904 -0.5596,1.25 -1.25,1.25h-1.75v7.25h2.25c0.4142,0 0.75,0.3358 0.75,0.75c0,0.4142 -0.3358,0.75 -0.75,0.75h-18c-0.41421,0 -0.75,-0.3358 -0.75,-0.75c0,-0.4142 0.33579,-0.75 0.75,-0.75h2.25v-7.25h-1.75c-0.69036,0 -1.25,-0.5596 -1.25,-1.25v-1.2058c0,-0.45396 0.24612,-0.87223 0.64295,-1.0927l8.49995,-4.72222c0.3776,-0.20973 0.8366,-0.20973 1.2142,0zM7.75,18v-7.25h-1v7.25zM9.25,18h5.5v-7.25h-5.5zM17.25,10.75h-1v7.25h1zM20.25,9.25v-0.8087l-8.25,-4.58333l-8.25,4.58333v0.8087zM4.25,21.25c0,-0.4142 0.33579,-0.75 0.75,-0.75h14c0.4142,0 0.75,0.3358 0.75,0.75c0,0.4142 -0.3358,0.75 -0.75,0.75h-14c-0.41421,0 -0.75,-0.3358 -0.75,-0.75z" fill="#002B51"/>
</svg>
