<svg width="24" height="24" viewBox="0 0 24 24" fill="none" xmlns="http://www.w3.org/2000/svg">
<path d="M19,20.5004c0.4142,0 0.75,0.3358 0.75,0.75c-0.0002,0.414 -0.3359,0.75 -0.75,0.75h-14c-0.41409,0 -0.7498,-0.336 -0.75,-0.75c0,-0.4142 0.33579,-0.75 0.75,-0.75zM11.3926,2.47988c0.3303,-0.18349 0.7234,-0.2069 1.0693,-0.06933l0.1455,0.06933l8.5,4.72168c0.3966,0.22047 0.6425,0.63903 0.6426,1.09277v1.20606c-0.0002,0.69021 -0.5598,1.25001 -1.25,1.25001h-1.75v7.25h2.25c0.4142,0 0.75,0.3358 0.75,0.75c-0.0002,0.414 -0.3359,0.75 -0.75,0.75h-18c-0.41409,0 -0.7498,-0.336 -0.75,-0.75c0,-0.4142 0.33579,-0.75 0.75,-0.75h2.25v-7.25h-1.75c-0.69023,0 -1.24979,-0.5598 -1.25,-1.25001v-1.20606c0.00009,-0.45374 0.246,-0.8723 0.64258,-1.09277zM9.25,18.0004h5.5v-7.25h-5.5zM16.25,18.0004h1v-7.25h-1zM6.75,18.0004h1v-7.25h-1zM3.75,8.44082v0.80957h16.5v-0.80957l-8.25,-4.58399z" fill="#002B51"/>
</svg>
