<svg width="24" height="24" viewBox="0 0 24 24" fill="none" xmlns="http://www.w3.org/2000/svg">
<path fill-rule="evenodd" clip-rule="evenodd" d="M20.25,9.25024v-0.80957l-8.25,-4.58399l-8.25,4.58399v0.80957zM18.75,10.7502v7.2501h2.25c0.4142,0 0.75,0.3357 0.75,0.75c0,0.4142 -0.3358,0.75 -0.75,0.75h-18c-0.41421,0 -0.75,-0.3358 -0.75,-0.75c0,-0.4143 0.33579,-0.75 0.75,-0.75h2.25v-7.2501h-1.75c-0.69036,0 -1.25,-0.5596 -1.25,-1.24996v-1.20606c0.00009,-0.4538 0.2459,-0.87233 0.64258,-1.09277l8.50002,-4.72168l0.1455,-0.06933c0.2964,-0.1179 0.6274,-0.1179 0.9238,0l0.1455,0.06933l8.5,4.72168l0.1416,0.0918c0.3128,0.23391 0.5009,0.60393 0.501,1.00097v1.20606c0,0.69036 -0.5596,1.24996 -1.25,1.24996zM7.75,18.0003v-7.2501h-1v7.2501zM9.25,18.0003h5.5v-7.2501h-5.5zM17.25,10.7502h-1v7.2501h1zM19,20.5003l0.0771,0.0039c0.378,0.0386 0.6729,0.3579 0.6729,0.7461c0,0.3881 -0.2949,0.7074 -0.6729,0.7461l-0.0771,0.0039h-14c-0.41421,0 -0.75,-0.3358 -0.75,-0.75c0,-0.4143 0.33579,-0.75 0.75,-0.75z" fill="#002B51"/>
</svg>
