<svg width="24" height="24" viewBox="0 0 24 24" fill="none" xmlns="http://www.w3.org/2000/svg">
<path d="M19.0771,20.5036c0.3779,0.0386 0.6727,0.3581 0.6729,0.7461c0,0.3882 -0.2949,0.7075 -0.6729,0.7461l-0.0771,0.0039h-14c-0.41421,0 -0.75,-0.3358 -0.75,-0.75c0.00016,-0.4141 0.33589,-0.75 0.75,-0.75h14zM11.5381,2.40987c0.2964,-0.11784 0.6274,-0.11784 0.9238,0l0.1455,0.06933l8.5,4.72168l0.1416,0.0918c0.3127,0.23386 0.5008,0.60405 0.501,1.00098v1.20605c0,0.69039 -0.5596,1.24999 -1.25,1.24999h-1.75v7.25h2.25c0.4141,0 0.7498,0.3359 0.75,0.75c0,0.4142 -0.3358,0.75 -0.75,0.75h-18c-0.41421,0 -0.75,-0.3358 -0.75,-0.75c0.00016,-0.4141 0.33589,-0.75 0.75,-0.75h2.25v-7.25h-1.75c-0.69036,0 -1.25,-0.5596 -1.25,-1.24999v-1.20605c0.0002,-0.4537 0.24599,-0.87238 0.64258,-1.09278l8.50002,-4.72168zM9.25,17.9997h5.5v-7.25h-5.5zM16.25,17.9997h1v-7.25h-1zM6.75,17.9997h1v-7.25h-1zM3.75,8.44014v0.80957h16.5v-0.80957l-8.25,-4.58398z" fill="#002B51"/>
</svg>
