<svg width="24" height="24" viewBox="0 0 24 24" fill="none" xmlns="http://www.w3.org/2000/svg">
<path fill-rule="evenodd" clip-rule="evenodd" d="M12.6071 2.47928C12.2295 2.26955 11.7705 2.26955 11.3929 2.47928L2.89295 7.2015C2.49612 7.42197 2.25 7.84024 2.25 8.2942V9.5C2.25 10.1904 2.80964 10.75 3.5 10.75H5.25V18H3C2.58579 18 2.25 18.3358 2.25 18.75C2.25 19.1642 2.58579 19.5 3 19.5H21C21.4142 19.5 21.75 19.1642 21.75 18.75C21.75 18.3358 21.4142 18 21 18H18.75V10.75H20.5C21.1904 10.75 21.75 10.1904 21.75 9.5V8.2942C21.75 7.84024 21.5039 7.42197 21.1071 7.20151L12.6071 2.47928ZM6.75 18V10.75H7.75V18H6.75ZM9.25 18H14.75V10.75H9.25V18ZM17.25 10.75H16.25V18H17.25V10.75ZM3.75 9.25V8.4413L12 3.85797L20.25 8.4413V9.25H3.75ZM4.25 21.25C4.25 20.8358 4.58579 20.5 5 20.5H19C19.4142 20.5 19.75 20.8358 19.75 21.25C19.75 21.6642 19.4142 22 19 22H5C4.58579 22 4.25 21.6642 4.25 21.25Z" fill="#002B51"/>
</svg>
