<svg width="24" height="24" viewBox="0 0 24 24" fill="none" xmlns="http://www.w3.org/2000/svg">
<path fill-rule="evenodd" clip-rule="evenodd" d="M9,3.24996c0.41421,0 0.75,0.33579 0.75,0.75c0,0.41422 -0.33579,0.75 -0.75,0.75h-3c-0.69036,0 -1.25,0.55965 -1.25,1.25v3c0,0.41422 -0.33579,0.75 -0.75,0.75c-0.41421,0 -0.75,-0.33578 -0.75,-0.75v-3c0,-1.51878 1.23122,-2.75 2.75,-2.75zM15,20.75c-0.4142,0 -0.75,-0.3358 -0.75,-0.75c0,-0.4143 0.3358,-0.75 0.75,-0.75h3c0.6904,0 1.25,-0.5597 1.25,-1.25v-3c0,-0.4143 0.3358,-0.75 0.75,-0.75c0.4142,0 0.75,0.3357 0.75,0.75v3c0,1.5187 -1.2312,2.75 -2.75,2.75zM18,3.24996c1.5188,0 2.75,1.23122 2.75,2.75v3c0,0.41422 -0.3358,0.75 -0.75,0.75c-0.4142,0 -0.75,-0.33578 -0.75,-0.75v-3c0,-0.69035 -0.5596,-1.25 -1.25,-1.25h-3c-0.4142,0 -0.75,-0.33578 -0.75,-0.75c0,-0.41421 0.3358,-0.75 0.75,-0.75zM3.25001,15c0,-0.4143 0.33579,-0.75 0.75,-0.75c0.41421,0 0.75,0.3357 0.75,0.75v3c0,0.6903 0.55964,1.25 1.25,1.25h3c0.41421,0 0.75,0.3357 0.75,0.75c0,0.4142 -0.33579,0.75 -0.75,0.75h-3c-1.51878,0 -2.75,-1.2313 -2.75,-2.75zM7.5,8.24996c0.41421,0 0.75,0.33579 0.75,0.75v6.00004c0,0.4142 -0.33579,0.75 -0.75,0.75c-0.41421,0 -0.75,-0.3358 -0.75,-0.75v-6.00004c0,-0.41421 0.33579,-0.75 0.75,-0.75zM11.25,15c0,0.4142 -0.3358,0.75 -0.75,0.75c-0.4142,0 -0.75,-0.3358 -0.75,-0.75v-6.00004c0,-0.41421 0.3358,-0.75 0.75,-0.75c0.4142,0 0.75,0.33579 0.75,0.75zM13.5,8.24996c0.4142,0 0.75,0.33579 0.75,0.75v6.00004c0,0.4142 -0.3358,0.75 -0.75,0.75c-0.4142,0 -0.75,-0.3358 -0.75,-0.75v-6.00004c0,-0.41421 0.3358,-0.75 0.75,-0.75zM17.25,15c0,0.4142 -0.3358,0.75 -0.75,0.75c-0.4142,0 -0.75,-0.3358 -0.75,-0.75v-6.00004c0,-0.41421 0.3358,-0.75 0.75,-0.75c0.4142,0 0.75,0.33579 0.75,0.75z" fill="#002B51"/>
</svg>
