<svg width="24" height="24" viewBox="0 0 24 24" fill="none" xmlns="http://www.w3.org/2000/svg">
<path fill-rule="evenodd" clip-rule="evenodd" d="M6 3.24996C4.48122 3.24996 3.25 4.48118 3.25 5.99996V8.99996C3.25 9.41418 3.58579 9.74996 4 9.74996C4.41421 9.74996 4.75 9.41418 4.75 8.99996V5.99996C4.75 5.30961 5.30964 4.74996 6 4.74996H9C9.41421 4.74996 9.75 4.41418 9.75 3.99996C9.75 3.58575 9.41421 3.24996 9 3.24996H6ZM18 20.75C19.5188 20.75 20.75 19.5187 20.75 18V15C20.75 14.5857 20.4142 14.25 20 14.25C19.5858 14.25 19.25 14.5857 19.25 15V18C19.25 18.6903 18.6904 19.25 18 19.25H15C14.5858 19.25 14.25 19.5857 14.25 20C14.25 20.4142 14.5858 20.75 15 20.75H18ZM18 3.24996C19.5188 3.24996 20.75 4.48118 20.75 5.99996V8.99996C20.75 9.41418 20.4142 9.74996 20 9.74996C19.5858 9.74996 19.25 9.41418 19.25 8.99996V5.99996C19.25 5.30961 18.6904 4.74996 18 4.74996L15 4.74996C14.5858 4.74996 14.25 4.41418 14.25 3.99996C14.25 3.58575 14.5858 3.24996 15 3.24996H18ZM3.25001 18C3.25001 19.5187 4.48123 20.75 6.00001 20.75H9.00001C9.41422 20.75 9.75001 20.4142 9.75001 20C9.75001 19.5857 9.41422 19.25 9.00001 19.25H6.00001C5.30965 19.25 4.75001 18.6903 4.75001 18L4.75001 15C4.75001 14.5857 4.41422 14.25 4.00001 14.25C3.5858 14.25 3.25001 14.5857 3.25001 15L3.25001 18ZM7.5 8.24996C7.91421 8.24996 8.25 8.58575 8.25 8.99996L8.25 15C8.25 15.4142 7.91421 15.75 7.5 15.75C7.08579 15.75 6.75 15.4142 6.75 15L6.75 8.99996C6.75 8.58575 7.08579 8.24996 7.5 8.24996ZM11.25 8.99996C11.25 8.58575 10.9142 8.24996 10.5 8.24996C10.0858 8.24996 9.75 8.58575 9.75 8.99996L9.75 15C9.75 15.4142 10.0858 15.75 10.5 15.75C10.9142 15.75 11.25 15.4142 11.25 15L11.25 8.99996ZM13.5 8.24996C13.9142 8.24996 14.25 8.58575 14.25 8.99996V15C14.25 15.4142 13.9142 15.75 13.5 15.75C13.0858 15.75 12.75 15.4142 12.75 15V8.99996C12.75 8.58575 13.0858 8.24996 13.5 8.24996ZM17.25 8.99996C17.25 8.58575 16.9142 8.24996 16.5 8.24996C16.0858 8.24996 15.75 8.58575 15.75 8.99996V15C15.75 15.4142 16.0858 15.75 16.5 15.75C16.9142 15.75 17.25 15.4142 17.25 15V8.99996Z" fill="#002B51"/>
</svg>
