<svg width="24" height="24" viewBox="0 0 24 24" fill="none" xmlns="http://www.w3.org/2000/svg">
<path fill-rule="evenodd" clip-rule="evenodd" d="M4,3c0,-0.41421 0.33579,-0.75 0.75,-0.75h1.25h12h1.25c0.4142,0 0.75,0.33579 0.75,0.75c0,0.41421 -0.3358,0.75 -0.75,0.75h-0.5v7.5h0.5c0.4142,0 0.75,0.3358 0.75,0.75c0,0.4142 -0.3358,0.75 -0.75,0.75h-0.5v7.5h0.5c0.4142,0 0.75,0.3358 0.75,0.75c0,0.4142 -0.3358,0.75 -0.75,0.75h-1.25h-12h-1.25c-0.41421,0 -0.75,-0.3358 -0.75,-0.75c0,-0.4142 0.33579,-0.75 0.75,-0.75h0.5v-7.5h-0.5c-0.41421,0 -0.75,-0.3358 -0.75,-0.75c0,-0.4142 0.33579,-0.75 0.75,-0.75h0.5v-7.5h-0.5c-0.41421,0 -0.75,-0.33579 -0.75,-0.75zM6.75,3.75v7.5h5.25h5.25v-7.5zM17.25,12.75h-5.25h-5.25v7.5h10.5z" fill="#002B51"/>
</svg>
