<svg width="24" height="24" viewBox="0 0 24 24" fill="none" xmlns="http://www.w3.org/2000/svg">
<path fill-rule="evenodd" clip-rule="evenodd" d="M4.75 2.25C4.33579 2.25 4 2.58579 4 3C4 3.41421 4.33579 3.75 4.75 3.75H5.25V11.25H4.75C4.33579 11.25 4 11.5858 4 12C4 12.4142 4.33579 12.75 4.75 12.75H5.25V20.25H4.75C4.33579 20.25 4 20.5858 4 21C4 21.4142 4.33579 21.75 4.75 21.75H6H18H19.25C19.6642 21.75 20 21.4142 20 21C20 20.5858 19.6642 20.25 19.25 20.25H18.75V12.75H19.25C19.6642 12.75 20 12.4142 20 12C20 11.5858 19.6642 11.25 19.25 11.25H18.75V3.75H19.25C19.6642 3.75 20 3.41421 20 3C20 2.58579 19.6642 2.25 19.25 2.25H18H6H4.75Z" fill="#002B51"/>
</svg>
