<svg width="24" height="24" viewBox="0 0 24 24" fill="none" xmlns="http://www.w3.org/2000/svg">
<path d="M16.0003,2.24989c0.8593,0.00009 1.7108,0.40632 2.1895,1.19433c0.894,1.4718 2.5605,4.71933 2.5605,8.55568c0,3.8362 -1.6665,7.0837 -2.5605,8.5556c-0.4787,0.7881 -1.3302,1.1943 -2.1895,1.1944h-7.99999c-0.85936,0 -1.71073,-0.4063 -2.18946,-1.1944c-0.89399,-1.4717 -2.56054,-4.7192 -2.56054,-8.5556c0.00003,-3.83639 1.66656,-7.0839 2.56054,-8.55568l0.09375,-0.14355c0.49117,-0.69388 1.2901,-1.05078 2.09571,-1.05078zM15.8362,16.7499c-0.1109,0.6562 -0.2319,1.2587 -0.3554,1.7939c-0.158,0.6844 -0.3171,1.262 -0.4492,1.7061h0.9687c0.3994,-0.0001 0.7323,-0.1849 0.9072,-0.4727c0.4093,-0.6737 0.9767,-1.7266 1.4512,-3.0273zM9.68488,16.7499c0.09372,0.5267 0.19409,1.0149 0.29589,1.456c0.18273,0.7919 0.36513,1.4304 0.50103,1.8682c0.0195,0.063 0.0401,0.1212 0.0576,0.1758h2.9218c0.0175,-0.0545 0.0381,-0.1129 0.0577,-0.1758c0.1358,-0.4378 0.3182,-1.0764 0.5009,-1.8682c0.1018,-0.4411 0.2022,-0.9293 0.2959,-1.456zM5.64191,16.7499c0.47457,1.3007 1.04195,2.3536 1.45117,3.0273c0.17496,0.2878 0.5077,0.4727 0.90723,0.4727h0.96875c-0.13212,-0.4441 -0.29125,-1.0216 -0.44922,-1.7061c-0.12352,-0.5352 -0.24448,-1.1377 -0.35547,-1.7939zM16.0511,8.74989c0.1191,1.00847 0.1992,2.10291 0.1992,3.25001c0,1.1471 -0.0802,2.2415 -0.1992,3.25h2.7715c0.2561,-1.003 0.4277,-2.1 0.4277,-3.25c0,-1.1501 -0.1716,-2.24703 -0.4277,-3.25001zM5.17706,8.74989c-0.25612,1.00295 -0.42674,2.09991 -0.42675,3.25001c0,1.15 0.17066,2.2471 0.42675,3.25h2.77149c-0.11906,-1.0085 -0.19824,-2.1029 -0.19824,-3.25c0,-1.1471 0.07917,-2.24155 0.19824,-3.25001zM9.45831,8.74989c-0.12485,1.00437 -0.208,2.10061 -0.208,3.25001c0,1.1494 0.08316,2.2456 0.208,3.25h5.08299c0.1249,-1.0044 0.209,-2.1006 0.209,-3.25c0,-1.1494 -0.0841,-2.24564 -0.209,-3.25001zM15.0316,3.74989c0.1321,0.4441 0.2912,1.02155 0.4492,1.70605c0.1235,0.5352 0.2445,1.13778 0.3554,1.79395h2.5225c-0.4746,-1.30072 -1.042,-2.35367 -1.4512,-3.02735c-0.1749,-0.28774 -0.5078,-0.47256 -0.9072,-0.47265zM8.00031,3.74989c-0.34974,0 -0.64857,0.14181 -0.83497,0.37011l-0.07226,0.10254c-0.4092,0.67365 -0.97661,1.72669 -1.45117,3.02735h2.52246c0.11098,-0.65612 0.23197,-1.25878 0.35547,-1.79395c0.15798,-0.68454 0.3171,-1.26195 0.44922,-1.70605zM10.4818,3.92567c-0.1359,0.43773 -0.3183,1.07634 -0.50103,1.86816c-0.10179,0.44112 -0.20218,0.92939 -0.29589,1.45606h4.63082c-0.0937,-0.52672 -0.1941,-1.0149 -0.2959,-1.45606c-0.1827,-0.79189 -0.3651,-1.4304 -0.5009,-1.86816c-0.0196,-0.06299 -0.0401,-0.12122 -0.0577,-0.17578h-2.9218c-0.0175,0.05456 -0.0381,0.11278 -0.0576,0.17578z" fill="#002B51"/>
</svg>
