<svg width="24" height="24" viewBox="0 0 24 24" fill="none" xmlns="http://www.w3.org/2000/svg">
<path fill-rule="evenodd" clip-rule="evenodd" d="M5.74982,17c0,0.1381 0.11193,0.25 0.25,0.25h11.99998c0.1381,0 0.25,-0.1119 0.25,-0.25v-2c0,-0.138 -0.1119,-0.25 -0.25,-0.25h-11.99998c-0.13807,0 -0.25,0.112 -0.25,0.25zM19.7498,17c0,0.9665 -0.7835,1.75 -1.75,1.75h-11.99998c-0.9665,0 -1.75,-0.7835 -1.75,-1.75v-2c0,-0.9665 0.7835,-1.75 1.75,-1.75h11.99998c0.9665,0 1.75,0.7835 1.75,1.75zM5.74982,9.00005c0,0.13807 0.11193,0.25 0.25,0.25h11.99998c0.1381,0 0.25,-0.11193 0.25,-0.25v-2c0,-0.13808 -0.1119,-0.25 -0.25,-0.25h-11.99998c-0.13807,0 -0.25,0.11192 -0.25,0.25zM19.7498,9.00005c0,0.96649 -0.7835,1.74995 -1.75,1.74995h-11.99998c-0.9665,0 -1.75,-0.78346 -1.75,-1.74995v-2c0,-0.9665 0.7835,-1.75 1.75,-1.75h11.99998c0.9665,0 1.75,0.7835 1.75,1.75z" fill="#002B51"/>
</svg>
