<svg width="24" height="24" viewBox="0 0 24 24" fill="none" xmlns="http://www.w3.org/2000/svg">
<path fill-rule="evenodd" clip-rule="evenodd" d="M7,5.75c-0.13807,0 -0.25,0.11193 -0.25,0.25v12c0,0.1381 0.11193,0.25 0.25,0.25h2c0.13807,0 0.25,-0.1119 0.25,-0.25v-12c0,-0.13807 -0.11193,-0.25 -0.25,-0.25zM7,19.75c-0.9665,0 -1.75,-0.7835 -1.75,-1.75v-12c0,-0.9665 0.7835,-1.75 1.75,-1.75h2c0.9665,0 1.75,0.7835 1.75,1.75v12c0,0.9665 -0.7835,1.75 -1.75,1.75zM15,5.75c-0.1381,0 -0.25,0.11193 -0.25,0.25v12c0,0.1381 0.1119,0.25 0.25,0.25h2c0.1381,0 0.25,-0.1119 0.25,-0.25v-12c0,-0.13807 -0.1119,-0.25 -0.25,-0.25zM15,19.75c-0.9665,0 -1.75,-0.7835 -1.75,-1.75v-12c0,-0.9665 0.7835,-1.75 1.75,-1.75h2c0.9665,0 1.75,0.7835 1.75,1.75v12c0,0.9665 -0.7835,1.75 -1.75,1.75z" fill="#002B51"/>
</svg>
