<svg width="24" height="24" viewBox="0 0 24 24" fill="none" xmlns="http://www.w3.org/2000/svg">
<path fill-rule="evenodd" clip-rule="evenodd" d="M4.2498,15c0,-0.9665 0.7835,-1.75 1.75,-1.75h12c0.9665,0 1.75,0.7835 1.75,1.75v2c0,0.9665 -0.7835,1.75 -1.75,1.75h-12c-0.9665,0 -1.75,-0.7835 -1.75,-1.75zM17.9998,17.25c0.1381,0 0.25,-0.1119 0.25,-0.25v-2c0,-0.138 -0.1119,-0.25 -0.25,-0.25h-12c-0.13807,0 -0.25,0.112 -0.25,0.25v2c0,0.1381 0.11193,0.25 0.25,0.25zM4.2498,7.00005c0,-0.9665 0.7835,-1.75 1.75,-1.75h12c0.9665,0 1.75,0.7835 1.75,1.75v2c0,0.96649 -0.7835,1.74995 -1.75,1.74995h-12c-0.9665,0 -1.75,-0.78346 -1.75,-1.74995zM17.9998,9.25005c0.1381,0 0.25,-0.11193 0.25,-0.25v-2c0,-0.13808 -0.1119,-0.25 -0.25,-0.25h-12c-0.13807,0 -0.25,0.11192 -0.25,0.25v2c0,0.13807 0.11193,0.25 0.25,0.25z" fill="#002B51"/>
</svg>
