<svg width="24" height="24" viewBox="0 0 24 24" fill="none" xmlns="http://www.w3.org/2000/svg">
<path fill-rule="evenodd" clip-rule="evenodd" d="M4.2498 17C4.2498 17.9665 5.0333 18.75 5.9998 18.75H17.9998C18.9663 18.75 19.7498 17.9665 19.7498 17V15C19.7498 14.0335 18.9663 13.25 17.9998 13.25H5.9998C5.0333 13.25 4.2498 14.0335 4.2498 15V17ZM5.9998 17.25C5.86173 17.25 5.7498 17.1381 5.7498 17V15C5.7498 14.862 5.86173 14.75 5.9998 14.75H17.9998C18.1379 14.75 18.2498 14.862 18.2498 15V17C18.2498 17.1381 18.1379 17.25 17.9998 17.25H5.9998ZM4.2498 9.00005C4.2498 9.96654 5.0333 10.75 5.9998 10.75H17.9998C18.9663 10.75 19.7498 9.96654 19.7498 9.00005V7.00005C19.7498 6.03355 18.9663 5.25005 17.9998 5.25005H5.9998C5.0333 5.25005 4.2498 6.03355 4.2498 7.00005V9.00005ZM5.9998 9.25005C5.86173 9.25005 5.7498 9.13812 5.7498 9.00005V7.00005C5.7498 6.86197 5.86173 6.75005 5.9998 6.75005H17.9998C18.1379 6.75005 18.2498 6.86197 18.2498 7.00005V9.00005C18.2498 9.13812 18.1379 9.25005 17.9998 9.25005H5.9998Z" fill="#002B51"/>
</svg>
