<svg width="24" height="24" viewBox="0 0 24 24" fill="none" xmlns="http://www.w3.org/2000/svg">
<path d="M17.9998,13.25c0.9665,0 1.75,0.7835 1.75,1.75v2c0,0.9665 -0.7835,1.75 -1.75,1.75h-11.99998c-0.9665,0 -1.75,-0.7835 -1.75,-1.75v-2c0,-0.9665 0.7835,-1.75 1.75,-1.75zM5.99982,14.75c-0.13807,0 -0.25,0.112 -0.25,0.25v2c0,0.1381 0.11193,0.25 0.25,0.25h11.99998c0.1381,0 0.25,-0.1119 0.25,-0.25v-2c0,-0.138 -0.1119,-0.25 -0.25,-0.25zM17.9998,5.25005c0.9665,0 1.75,0.7835 1.75,1.75v2c0,0.96649 -0.7835,1.74995 -1.75,1.74995h-11.99998c-0.9665,0 -1.75,-0.78346 -1.75,-1.74995v-2c0,-0.9665 0.7835,-1.75 1.75,-1.75zM5.99982,6.75005c-0.13807,0 -0.25,0.11192 -0.25,0.25v2c0,0.13807 0.11193,0.25 0.25,0.25h11.99998c0.1381,0 0.25,-0.11193 0.25,-0.25v-2c0,-0.13807 -0.1119,-0.25 -0.25,-0.25z" fill="#002B51"/>
</svg>
