<svg width="24" height="24" viewBox="0 0 24 24" fill="none" xmlns="http://www.w3.org/2000/svg">
<path fill-rule="evenodd" clip-rule="evenodd" d="M7 4.25C6.0335 4.25 5.25 5.0335 5.25 6V18C5.25 18.9665 6.0335 19.75 7 19.75H9C9.9665 19.75 10.75 18.9665 10.75 18V6C10.75 5.0335 9.9665 4.25 9 4.25H7ZM6.75 6C6.75 5.86193 6.86193 5.75 7 5.75H9C9.13807 5.75 9.25 5.86193 9.25 6V18C9.25 18.1381 9.13807 18.25 9 18.25H7C6.86193 18.25 6.75 18.1381 6.75 18V6ZM15 4.25C14.0335 4.25 13.25 5.0335 13.25 6V18C13.25 18.9665 14.0335 19.75 15 19.75H17C17.9665 19.75 18.75 18.9665 18.75 18V6C18.75 5.0335 17.9665 4.25 17 4.25H15ZM14.75 6C14.75 5.86193 14.8619 5.75 15 5.75H17C17.1381 5.75 17.25 5.86193 17.25 6V18C17.25 18.1381 17.1381 18.25 17 18.25H15C14.8619 18.25 14.75 18.1381 14.75 18V6Z" fill="#002B51"/>
</svg>
