<svg width="24" height="24" viewBox="0 0 24 24" fill="none" xmlns="http://www.w3.org/2000/svg">
<path fill-rule="evenodd" clip-rule="evenodd" d="M21.5 9.75003C21.5 9.33582 21.1642 9.00003 20.75 9.00003C20.3358 9.00003 20 9.33582 20 9.75003V14.25C20 14.6642 20.3358 15 20.75 15C21.1642 15 21.5 14.6642 21.5 14.25V9.75003ZM18.75 9.00003C18.75 7.48125 17.5188 6.25003 16 6.25003H5.50003C3.98125 6.25003 2.75003 7.48125 2.75003 9.00003V15C2.75003 16.5188 3.98125 17.75 5.50003 17.75H16C17.5188 17.75 18.75 16.5188 18.75 15V9.00003ZM16 7.75003C16.6904 7.75003 17.25 8.30967 17.25 9.00003V15C17.25 15.6904 16.6904 16.25 16 16.25H5.50003C4.80967 16.25 4.25003 15.6904 4.25003 15V9.00003C4.25003 8.30967 4.80967 7.75003 5.50003 7.75003H16Z" fill="#002B51"/>
</svg>
