<svg width="24" height="24" viewBox="0 0 24 24" fill="none" xmlns="http://www.w3.org/2000/svg">
<path d="M16,6.25005c1.5188,0 2.75,1.23121 2.75,2.75v5.99995c0,1.5188 -1.2312,2.75 -2.75,2.75h-10.5c-1.51878,0 -2.75,-1.2312 -2.75,-2.75v-5.99995c0,-1.51879 1.23122,-2.75 2.75,-2.75zM6.25,9.00005c-0.41421,0 -0.75,0.33578 -0.75,0.75v4.49995c0,0.4143 0.33579,0.75 0.75,0.75c0.41421,0 0.75,-0.3357 0.75,-0.75v-4.49995c0,-0.41422 -0.33579,-0.75 -0.75,-0.75zM20.75,9.00005c0.4142,0 0.75,0.33578 0.75,0.75v4.49995c0,0.4143 -0.3358,0.75 -0.75,0.75c-0.4142,0 -0.75,-0.3357 -0.75,-0.75v-4.49995c0,-0.41422 0.3358,-0.75 0.75,-0.75z" fill="#002B51"/>
</svg>
