<svg width="24" height="24" viewBox="0 0 24 24" fill="none" xmlns="http://www.w3.org/2000/svg">
<path fill-rule="evenodd" clip-rule="evenodd" d="M21.5001,14.25c0,0.4142 -0.3358,0.75 -0.75,0.75c-0.4143,0 -0.75,-0.3358 -0.75,-0.75v-4.49997c0,-0.41421 0.3357,-0.75 0.75,-0.75c0.4142,0 0.75,0.33579 0.75,0.75zM18.7501,15c0,1.5188 -1.2313,2.75 -2.75,2.75h-10.50004c-1.51878,0 -2.75,-1.2312 -2.75,-2.75v-5.99997c0,-1.51878 1.23122,-2.75 2.75,-2.75h10.50004c1.5187,0 2.75,1.23122 2.75,2.75zM5.50006,7.75003c-0.69036,0 -1.25,0.55964 -1.25,1.25v5.99997c0,0.6904 0.55964,1.25 1.25,1.25h10.50004c0.6903,0 1.25,-0.5596 1.25,-1.25v-5.99997c0,-0.69036 -0.5597,-1.25 -1.25,-1.25z" fill="#002B51"/>
</svg>
