<svg width="24" height="24" viewBox="0 0 24 24" fill="none" xmlns="http://www.w3.org/2000/svg">
<path fill-rule="evenodd" clip-rule="evenodd" d="M9.75 2.50001C9.33579 2.50001 9 2.83579 9 3.25001C9 3.66422 9.33579 4.00001 9.75 4.00001H14.25C14.6642 4.00001 15 3.66422 15 3.25001C15 2.83579 14.6642 2.50001 14.25 2.50001H9.75ZM6.25 8.00001C6.25 6.48123 7.48122 5.25001 9 5.25001H15C16.5188 5.25001 17.75 6.48122 17.75 8.00001V18.5C17.75 20.0188 16.5188 21.25 15 21.25H9C7.48122 21.25 6.25 20.0188 6.25 18.5V8.00001ZM9.75 17C9.33579 17 9 17.3358 9 17.75C9 18.1642 9.33579 18.5 9.75 18.5H14.25C14.6642 18.5 15 18.1642 15 17.75C15 17.3358 14.6642 17 14.25 17H9.75Z" fill="#002B51"/>
</svg>
