<svg width="24" height="24" viewBox="0 0 24 24" fill="none" xmlns="http://www.w3.org/2000/svg">
<path fill-rule="evenodd" clip-rule="evenodd" d="M9.75 2.5C9.33579 2.5 9 2.83579 9 3.25C9 3.66421 9.33579 4 9.75 4H14.25C14.6642 4 15 3.66421 15 3.25C15 2.83579 14.6642 2.5 14.25 2.5H9.75ZM9.75 8C9.33579 8 9 8.33579 9 8.75C9 9.16421 9.33579 9.5 9.75 9.5H14.25C14.6642 9.5 15 9.16421 15 8.75C15 8.33579 14.6642 8 14.25 8H9.75ZM9 11.75C9 11.3358 9.33579 11 9.75 11H14.25C14.6642 11 15 11.3358 15 11.75C15 12.1642 14.6642 12.5 14.25 12.5H9.75C9.33579 12.5 9 12.1642 9 11.75ZM9.75 17C9.33579 17 9 17.3358 9 17.75C9 18.1642 9.33579 18.5 9.75 18.5H14.25C14.6642 18.5 15 18.1642 15 17.75C15 17.3358 14.6642 17 14.25 17H9.75ZM9 14.75C9 14.3358 9.33579 14 9.75 14H14.25C14.6642 14 15 14.3358 15 14.75C15 15.1642 14.6642 15.5 14.25 15.5H9.75C9.33579 15.5 9 15.1642 9 14.75ZM9 5.25C7.48122 5.25 6.25 6.48122 6.25 8V18.5C6.25 20.0188 7.48122 21.25 9 21.25H15C16.5188 21.25 17.75 20.0188 17.75 18.5V8C17.75 6.48122 16.5188 5.25 15 5.25H9ZM7.75 8C7.75 7.30964 8.30964 6.75 9 6.75H15C15.6904 6.75 16.25 7.30964 16.25 8V18.5C16.25 19.1904 15.6904 19.75 15 19.75H9C8.30964 19.75 7.75 19.1904 7.75 18.5V8Z" fill="#002B51"/>
</svg>
