<svg width="24" height="24" viewBox="0 0 24 24" fill="none" xmlns="http://www.w3.org/2000/svg">
<path fill-rule="evenodd" clip-rule="evenodd" d="M9.00002,3.25001c0,-0.41422 0.33578,-0.75 0.75,-0.75h4.49998c0.4142,0 0.75,0.33578 0.75,0.75c0,0.41421 -0.3358,0.75 -0.75,0.75h-4.49998c-0.41422,0 -0.75,-0.33579 -0.75,-0.75zM9.00002,17.75c0,-0.4142 0.33578,-0.75 0.75,-0.75h4.49998c0.4142,0 0.75,0.3358 0.75,0.75c0,0.4142 -0.3358,0.75 -0.75,0.75h-4.49998c-0.41422,0 -0.75,-0.3358 -0.75,-0.75zM15,5.25001c1.5188,0 2.75,1.23121 2.75,2.75v10.49999c0,1.5188 -1.2312,2.75 -2.75,2.75h-5.99998c-1.51879,0 -2.75,-1.2312 -2.75,-2.75v-10.49999c0,-1.51878 1.23121,-2.75 2.75,-2.75zM7.75002,18.5c0,0.6904 0.55964,1.25 1.25,1.25h5.99998c0.6904,0 1.25,-0.5596 1.25,-1.25v-10.49999c0,-0.69036 -0.5596,-1.25 -1.25,-1.25h-5.99998c-0.69036,0 -1.25,0.55964 -1.25,1.25z" fill="#002B51"/>
</svg>
