<svg width="24" height="24" viewBox="0 0 24 24" fill="none" xmlns="http://www.w3.org/2000/svg">
<path fill-rule="evenodd" clip-rule="evenodd" d="M20.75 9.00004C21.1642 9.00004 21.5 9.33582 21.5 9.75004V14.25C21.5 14.6643 21.1642 15 20.75 15C20.3358 15 20 14.6643 20 14.25V9.75004C20 9.33582 20.3358 9.00004 20.75 9.00004ZM18.75 9.00004C18.75 7.48126 17.5188 6.25004 16 6.25004H5.5C3.98122 6.25004 2.75 7.48125 2.75 9.00004V15C2.75 16.5188 3.98122 17.75 5.5 17.75H16C17.5188 17.75 18.75 16.5188 18.75 15V9.00004ZM10.75 8.00004C11.1642 8.00004 11.5 8.33582 11.5 8.75004V11.75C11.5 12.1643 11.1642 12.5 10.75 12.5C10.3358 12.5 10 12.1643 10 11.75V8.75004C10 8.33582 10.3358 8.00004 10.75 8.00004ZM11.875 14.625C11.875 15.2464 11.3713 15.75 10.75 15.75C10.1287 15.75 9.625 15.2464 9.625 14.625C9.625 14.0037 10.1287 13.5 10.75 13.5C11.3713 13.5 11.875 14.0037 11.875 14.625Z" fill="#002B51"/>
</svg>
