<svg width="24" height="24" viewBox="0 0 24 24" fill="none" xmlns="http://www.w3.org/2000/svg">
<path fill-rule="evenodd" clip-rule="evenodd" d="M21.5 9.75001C21.5 9.33579 21.1642 9.00001 20.75 9.00001C20.3358 9.00001 20 9.33579 20 9.75001V14.25C20 14.6642 20.3358 15 20.75 15C21.1642 15 21.5 14.6642 21.5 14.25V9.75001ZM16 9.75001C16 9.33579 15.6642 9.00001 15.25 9.00001C14.8358 9.00001 14.5 9.33579 14.5 9.75001V14.25C14.5 14.6642 14.8358 15 15.25 15C15.6642 15 16 14.6642 16 14.25V9.75001ZM12.25 9.00001C12.6642 9.00001 13 9.33579 13 9.75001V14.25C13 14.6642 12.6642 15 12.25 15C11.8358 15 11.5 14.6642 11.5 14.25V9.75001C11.5 9.33579 11.8358 9.00001 12.25 9.00001ZM7.00002 9.75001C7.00002 9.33579 6.66423 9.00001 6.25002 9.00001C5.8358 9.00001 5.50002 9.33579 5.50002 9.75001V14.25C5.50002 14.6642 5.8358 15 6.25002 15C6.66423 15 7.00002 14.6642 7.00002 14.25V9.75001ZM9.25002 9.00001C9.66423 9.00001 10 9.33579 10 9.75001V14.25C10 14.6642 9.66423 15 9.25002 15C8.8358 15 8.50002 14.6642 8.50002 14.25V9.75001C8.50002 9.33579 8.8358 9.00001 9.25002 9.00001ZM18.75 9.00001C18.75 7.48122 17.5188 6.25001 16 6.25001H5.50002C3.98123 6.25001 2.75002 7.48122 2.75002 9.00001V15C2.75002 16.5188 3.98123 17.75 5.50002 17.75H16C17.5188 17.75 18.75 16.5188 18.75 15V9.00001ZM16 7.75001C16.6904 7.75001 17.25 8.30965 17.25 9.00001V15C17.25 15.6904 16.6904 16.25 16 16.25H5.50002C4.80966 16.25 4.25002 15.6904 4.25002 15V9.00001C4.25002 8.30965 4.80966 7.75001 5.50002 7.75001H16Z" fill="#002B51"/>
</svg>
