<svg width="24" height="24" viewBox="0 0 24 24" fill="none" xmlns="http://www.w3.org/2000/svg">
<path fill-rule="evenodd" clip-rule="evenodd" d="M20.75 9.00004C21.1642 9.00004 21.5 9.33582 21.5 9.75004V14.25C21.5 14.6643 21.1642 15 20.75 15C20.3358 15 20 14.6643 20 14.25V9.75004C20 9.33582 20.3358 9.00004 20.75 9.00004ZM6.25 9.00004C6.66421 9.00004 7 9.33582 7 9.75004V14.25C7 14.6643 6.66421 15 6.25 15C5.83579 15 5.5 14.6643 5.5 14.25V9.75004C5.5 9.33582 5.83579 9.00004 6.25 9.00004ZM18.75 9.00004C18.75 7.48126 17.5188 6.25004 16 6.25004L5.5 6.25004C3.98122 6.25004 2.75 7.48125 2.75 9.00004V15C2.75 16.5188 3.98122 17.75 5.5 17.75H16C17.5188 17.75 18.75 16.5188 18.75 15V9.00004ZM16 7.75004C16.6904 7.75004 17.25 8.30968 17.25 9.00004V15C17.25 15.6904 16.6904 16.25 16 16.25H5.5C4.80964 16.25 4.25 15.6904 4.25 15V9.00004C4.25 8.30968 4.80964 7.75004 5.5 7.75004H16Z" fill="#002B51"/>
</svg>
