<svg width="24" height="24" viewBox="0 0 24 24" fill="none" xmlns="http://www.w3.org/2000/svg">
<path fill-rule="evenodd" clip-rule="evenodd" d="M5.5,6.25004h3.81237l-1.125,1.5h-2.68737c-0.69036,0 -1.25,0.55964 -1.25,1.25v5.99996c0,0.6904 0.55964,1.25 1.25,1.25h1.26054c0.0455,0.5412 0.23745,1.0603 0.55278,1.5h-1.81332c-1.51878,0 -2.75,-1.2312 -2.75,-2.75v-5.99996c0,-1.51878 1.23122,-2.75 2.75,-2.75zM17.25,15v-5.99996c0,-0.69036 -0.5596,-1.25 -1.25,-1.25h-1.2598c-0.0455,-0.54114 -0.2375,-1.06026 -0.5529,-1.5h1.8127c1.5188,0 2.75,1.23122 2.75,2.75v5.99996c0,1.5188 -1.2312,2.75 -2.75,2.75h-3.8121l1.125,-1.5h2.6871c0.6904,0 1.25,-0.5596 1.25,-1.25zM20,14.25v-4.49996c0,-0.41422 0.3358,-0.75 0.75,-0.75c0.4142,0 0.75,0.33578 0.75,0.75v4.49996c0,0.4143 -0.3358,0.75 -0.75,0.75c-0.4142,0 -0.75,-0.3357 -0.75,-0.75zM11.2412,7.44923c0.2291,-0.2119 0.5715,-0.26245 0.8564,-0.11328c0.3259,0.17072 0.4806,0.5524 0.3643,0.90137l-0.7949,2.38278l1.418,0.709c0.1987,0.0994 0.3433,0.2819 0.3945,0.4981c0.0511,0.2164 0.0035,0.4451 -0.1299,0.623l-3,4c-0.2207,0.294 -0.62159,0.3844 -0.94726,0.2139c-0.32583,-0.1707 -0.48058,-0.5524 -0.36426,-0.9014l0.79394,-2.3838l-1.41699,-0.708c-0.19891,-0.0994 -0.34344,-0.2826 -0.39453,-0.499c-0.05097,-0.2164 -0.00349,-0.4443 0.12988,-0.6221l3.00002,-3.99998z" fill="#002B51"/>
</svg>
