<svg width="24" height="24" viewBox="0 0 24 24" fill="none" xmlns="http://www.w3.org/2000/svg">
<path d="M8.0137,7.75005h-2.51367c-0.69035,0 -1.25,0.55964 -1.25,1.25v5.99995c0,0.6904 0.55965,1.25 1.25,1.25h0.76172c-0.04386,0.5219 0.04979,1.0377 0.26172,1.5h-1.02344c-1.51878,0 -2.75,-1.2312 -2.75,-2.75v-5.99995c0,-1.51879 1.23122,-2.75 2.75,-2.75h3.84766zM16,6.25005c1.5188,0 2.75,1.23121 2.75,2.75v5.99995c0,1.5188 -1.2312,2.75 -2.75,2.75h-3.8476l1.334,-1.5h2.5136c0.6904,0 1.25,-0.5596 1.25,-1.25v-5.99995c0,-0.69036 -0.5596,-1.25 -1.25,-1.25h-0.7617c0.0439,-0.52189 -0.0498,-1.03754 -0.2617,-1.5zM11.7823,6.91411c0.2298,-0.18362 0.5512,-0.21816 0.8183,-0.07715c0.305,0.16129 0.4606,0.50994 0.377,0.84473l-0.8184,3.27241l1.2725,0.3184l0.0927,0.0293c0.2105,0.0827 0.3746,0.2572 0.4424,0.4766c0.0774,0.2505 0.0179,0.5237 -0.1562,0.7197l-4.00002,4.5c-0.22942,0.2579 -0.60586,0.3262 -0.91114,0.165c-0.30493,-0.1612 -0.4604,-0.51 -0.37695,-0.8447l0.81738,-3.2734l-1.27148,-0.3174c-0.25432,-0.0636 -0.45766,-0.2554 -0.53516,-0.5059c-0.07738,-0.2505 -0.01783,-0.5236 0.15625,-0.7197l4.00002,-4.5zM20.75,9.00005c0.4142,0 0.75,0.33578 0.75,0.75v4.49995c0,0.4143 -0.3358,0.75 -0.75,0.75c-0.4142,0 -0.75,-0.3357 -0.75,-0.75v-4.49995c0,-0.41422 0.3358,-0.75 0.75,-0.75z" fill="#002B51"/>
</svg>
