<svg width="24" height="24" viewBox="0 0 24 24" fill="none" xmlns="http://www.w3.org/2000/svg">
<path fill-rule="evenodd" clip-rule="evenodd" d="M5.5,6.25004h3.81251l-2.9625,3.94996c-0.53374,0.7116 -0.72414,1.6234 -0.51977,2.4892c0.17586,0.745 0.62841,1.3898 1.2582,1.8087l-0.18449,0.5534c-0.31305,0.9391 -0.13676,1.9378 0.40906,2.6987h-1.81301c-1.51878,0 -2.75,-1.2312 -2.75,-2.75v-5.99996c0,-1.51879 1.23122,-2.75 2.75,-2.75zM16,17.75h-3.8125l2.9625,-3.95c0.5337,-0.7117 0.7241,-1.6235 0.5197,-2.4893c-0.1758,-0.7449 -0.6284,-1.38969 -1.2581,-1.80856l0.1844,-0.55339c0.3131,-0.93914 0.1368,-1.93778 -0.409,-2.69871h1.813c1.5188,0 2.75,1.23122 2.75,2.75v5.99996c0,1.5188 -1.2312,2.75 -2.75,2.75zM21.5,14.25c0,0.4143 -0.3358,0.75 -0.75,0.75c-0.4142,0 -0.75,-0.3357 -0.75,-0.75v-4.49996c0,-0.41422 0.3358,-0.75 0.75,-0.75c0.4142,0 0.75,0.33578 0.75,0.75zM12.0981,7.33566c0.3258,0.17072 0.4797,0.55255 0.3634,0.90151l-0.7943,2.38293l1.4182,0.709c0.1989,0.0995 0.3434,0.2821 0.3945,0.4985c0.0511,0.2165 0.0035,0.4444 -0.1299,0.6223l-3,4.0001c-0.2207,0.2943 -0.62225,0.3851 -0.94808,0.2143c-0.32583,-0.1707 -0.47976,-0.5525 -0.36343,-0.9015l0.7943,-2.3828l-1.41821,-0.7092c-0.19891,-0.0994 -0.34343,-0.2821 -0.39452,-0.4985c-0.05109,-0.2164 -0.0035,-0.4444 0.12994,-0.6223l3,-4c0.2207,-0.29427 0.6223,-0.38505 0.9481,-0.21434z" fill="#002B51"/>
</svg>
