<svg width="24" height="24" viewBox="0 0 24 24" fill="none" xmlns="http://www.w3.org/2000/svg">
<path fill-rule="evenodd" clip-rule="evenodd" d="M21.5 9.75004C21.5 9.33582 21.1642 9.00004 20.75 9.00004C20.3358 9.00004 20 9.33582 20 9.75004V14.25C20 14.6643 20.3358 15 20.75 15C21.1642 15 21.5 14.6643 21.5 14.25V9.75004ZM7.00003 9.75004C7.00003 9.33582 6.66424 9.00004 6.25003 9.00004C5.83582 9.00004 5.50003 9.33582 5.50003 9.75004V14.25C5.50003 14.6643 5.83582 15 6.25003 15C6.66424 15 7.00003 14.6643 7.00003 14.25V9.75004ZM9.25003 9.00004C9.66424 9.00004 10 9.33582 10 9.75004V14.25C10 14.6643 9.66424 15 9.25003 15C8.83582 15 8.50003 14.6643 8.50003 14.25V9.75004C8.50003 9.33582 8.83582 9.00004 9.25003 9.00004ZM18.75 9.00004C18.75 7.48126 17.5188 6.25004 16 6.25004H5.50003C3.98125 6.25004 2.75003 7.48125 2.75003 9.00004V15C2.75003 16.5188 3.98125 17.75 5.50003 17.75H16C17.5188 17.75 18.75 16.5188 18.75 15V9.00004ZM16 7.75004C16.6904 7.75004 17.25 8.30968 17.25 9.00004V15C17.25 15.6904 16.6904 16.25 16 16.25H5.50003C4.80967 16.25 4.25003 15.6904 4.25003 15V9.00004C4.25003 8.30968 4.80967 7.75004 5.50003 7.75004H16Z" fill="#002B51"/>
</svg>
