<svg width="24" height="24" viewBox="0 0 24 24" fill="none" xmlns="http://www.w3.org/2000/svg">
<path fill-rule="evenodd" clip-rule="evenodd" d="M9.75 2.50001C9.33579 2.50001 9 2.83579 9 3.25001C9 3.66422 9.33579 4.00001 9.75 4.00001H14.25C14.6642 4.00001 15 3.66422 15 3.25001C15 2.83579 14.6642 2.50001 14.25 2.50001H9.75ZM9 5.25001C7.48122 5.25001 6.25 6.48123 6.25 8.00001V18.5C6.25 20.0188 7.48122 21.25 9 21.25H15C16.5188 21.25 17.75 20.0188 17.75 18.5V8.00001C17.75 6.48122 16.5188 5.25001 15 5.25001H9ZM7.75 8.00001C7.75 7.30965 8.30964 6.75001 9 6.75001H15C15.6904 6.75001 16.25 7.30965 16.25 8.00001V18.5C16.25 19.1904 15.6904 19.75 15 19.75H9C8.30964 19.75 7.75 19.1904 7.75 18.5V8.00001Z" fill="#002B51"/>
</svg>
