<svg width="24" height="24" viewBox="0 0 24 24" fill="none" xmlns="http://www.w3.org/2000/svg">
<path fill-rule="evenodd" clip-rule="evenodd" d="M9 3.25001C9 2.83579 9.33579 2.50001 9.75 2.50001H14.25C14.6642 2.50001 15 2.83579 15 3.25001C15 3.66422 14.6642 4.00001 14.25 4.00001H9.75C9.33579 4.00001 9 3.66422 9 3.25001ZM9 5.25001C7.48122 5.25001 6.25 6.48123 6.25 8.00001V18.5C6.25 20.0188 7.48122 21.25 9 21.25H15C16.5188 21.25 17.75 20.0188 17.75 18.5V8.00001C17.75 6.48122 16.5188 5.25001 15 5.25001H9ZM12 8.75C12.4142 8.75 12.75 9.08579 12.75 9.5V13.5C12.75 13.9142 12.4142 14.25 12 14.25C11.5858 14.25 11.25 13.9142 11.25 13.5V9.5C11.25 9.08579 11.5858 8.75 12 8.75ZM13.125 16.625C13.125 17.2463 12.6213 17.75 12 17.75C11.3787 17.75 10.875 17.2463 10.875 16.625C10.875 16.0037 11.3787 15.5 12 15.5C12.6213 15.5 13.125 16.0037 13.125 16.625Z" fill="#002B51"/>
</svg>
