<svg width="24" height="24" viewBox="0 0 24 24" fill="none" xmlns="http://www.w3.org/2000/svg">
<path fill-rule="evenodd" clip-rule="evenodd" d="M20,14.25v-4.49997c0,-0.41421 0.3358,-0.75 0.75,-0.75c0.4142,0 0.75,0.33579 0.75,0.75v4.49997c0,0.4142 -0.3358,0.75 -0.75,0.75c-0.4142,0 -0.75,-0.3358 -0.75,-0.75zM17.25,9.00003c0,-0.69036 -0.5596,-1.25 -1.25,-1.25h-10.49997c-0.69035,0 -1.25,0.55964 -1.25,1.25v5.99997c0,0.6904 0.55965,1.25 1.25,1.25h10.49997c0.6904,0 1.25,-0.5596 1.25,-1.25zM2.75003,9.00003c0,-1.51878 1.23122,-2.75 2.75,-2.75h10.49997c1.5188,0 2.75,1.23122 2.75,2.75v5.99997c0,1.5188 -1.2312,2.75 -2.75,2.75h-10.49997c-1.51878,0 -2.75,-1.2312 -2.75,-2.75z" fill="#002B51"/>
</svg>
