<svg width="24" height="24" viewBox="0 0 24 24" fill="none" xmlns="http://www.w3.org/2000/svg">
<path d="M6.34961,10.2002c-0.5334,0.7115 -0.72376,1.6238 -0.51953,2.4893c0.17596,0.745 0.62981,1.3888 1.25976,1.8076l-0.18554,0.5537c-0.31321,0.9398 -0.13451,1.938 0.41211,2.6992h-1.81641c-1.51878,0 -2.75,-1.2312 -2.75,-2.75v-5.99995c0,-1.51879 1.23122,-2.75 2.75,-2.75h3.8125zM16,6.25005c1.5188,0 2.75,1.23121 2.75,2.75v5.99995c0,1.5188 -1.2312,2.75 -2.75,2.75h-3.8125l2.9629,-3.9501c0.5335,-0.7116 0.7238,-1.6237 0.5195,-2.4893c-0.176,-0.7453 -0.6295,-1.3898 -1.2597,-1.8086l0.1855,-0.55371l0.0752,-0.2627c0.2025,-0.86016 0.0086,-1.74509 -0.4873,-2.43554zM11.2412,7.44926c0.2291,-0.21186 0.5715,-0.26242 0.8565,-0.11328c0.3257,0.17072 0.4805,0.55244 0.3642,0.90137l-0.7949,2.38285l1.418,0.7089c0.1987,0.0994 0.3433,0.2819 0.3945,0.4981c0.051,0.2164 0.0035,0.4452 -0.1299,0.623l-3,4c-0.2207,0.2939 -0.62161,0.3844 -0.94726,0.2139c-0.32578,-0.1707 -0.48052,-0.5524 -0.36425,-0.9014l0.79394,-2.3837l-1.41699,-0.7081c-0.19887,-0.0994 -0.34342,-0.2826 -0.39453,-0.499c-0.05094,-0.2163 -0.00344,-0.4443 0.12988,-0.622l3.00001,-4.00005zM20.75,9.00005c0.4142,0 0.75,0.33578 0.75,0.75v4.49995c0,0.4143 -0.3358,0.75 -0.75,0.75c-0.4142,0 -0.75,-0.3357 -0.75,-0.75v-4.49995c0,-0.41422 0.3358,-0.75 0.75,-0.75z" fill="#002B51"/>
</svg>
