<svg width="24" height="24" viewBox="0 0 24 24" fill="none" xmlns="http://www.w3.org/2000/svg">
<path d="M6.00781,10.0069c-0.69694,0.7842 -0.93356,1.8764 -0.62402,2.8789c0.21433,0.6934 0.66907,1.2738 1.26562,1.6504l-0.30957,1.2363c-0.16991,0.6799 -0.09291,1.3742 0.1836,1.9775h-1.02344c-1.51878,0 -2.75,-1.2312 -2.75,-2.75v-5.99996c0,-1.51878 1.23122,-2.75 2.75,-2.75h3.84766zM16,6.25004c1.5188,0 2.75,1.23122 2.75,2.75v5.99996c0,1.5188 -1.2312,2.75 -2.75,2.75h-3.8477l3.3399,-3.7568c0.6969,-0.7842 0.9336,-1.8765 0.624,-2.8789c-0.2144,-0.6935 -0.6689,-1.27481 -1.2656,-1.65137l0.3096,-1.23535c0.1698,-0.67983 0.0928,-1.37423 -0.1836,-1.97754zM11.7822,6.9141c0.2298,-0.18362 0.5513,-0.21816 0.8184,-0.07715c0.305,0.16129 0.4605,0.50995 0.3769,0.84473l-0.8183,3.27242l1.2724,0.3184l0.0928,0.0293c0.2105,0.0827 0.3746,0.2572 0.4424,0.4766c0.0773,0.2505 0.0179,0.5237 -0.1563,0.7197l-3.99995,4.5c-0.22942,0.2579 -0.60586,0.3262 -0.91114,0.165c-0.30493,-0.1612 -0.4604,-0.51 -0.37695,-0.8447l0.81738,-3.2734l-1.27148,-0.3174c-0.25432,-0.0637 -0.45766,-0.2555 -0.53516,-0.5059c-0.07738,-0.2505 -0.01783,-0.5237 0.15625,-0.7197l4.00005,-4.50001zM20.75,9.00004c0.4142,0 0.75,0.33578 0.75,0.75v4.49996c0,0.4143 -0.3358,0.75 -0.75,0.75c-0.4142,0 -0.75,-0.3357 -0.75,-0.75v-4.49996c0,-0.41422 0.3358,-0.75 0.75,-0.75z" fill="#002B51"/>
</svg>
