<svg width="24" height="24" viewBox="0 0 24 24" fill="none" xmlns="http://www.w3.org/2000/svg">
<path fill-rule="evenodd" clip-rule="evenodd" d="M5.50003,16.25h2.24917c0.17209,0.5912 0.51415,1.11 0.96975,1.5h-3.21892c-1.51878,0 -2.75,-1.2312 -2.75,-2.75v-5.99997c0,-1.51878 1.23122,-2.75 2.75,-2.75h2.81303c-0.30866,0.42907 -0.5068,0.94296 -0.55275,1.5h-2.26028c-0.69035,0 -1.25,0.55964 -1.25,1.25v5.99997c0,0.6904 0.55965,1.25 1.25,1.25zM12.7811,17.75c0.4556,-0.39 0.7977,-0.9088 0.9698,-1.5h2.2491c0.6904,0 1.25,-0.5596 1.25,-1.25v-5.99997c0,-0.69036 -0.5596,-1.25 -1.25,-1.25h-2.2602c-0.046,-0.55704 -0.2441,-1.07093 -0.5528,-1.5h2.813c1.5188,0 2.75,1.23122 2.75,2.75v5.99997c0,1.5188 -1.2312,2.75 -2.75,2.75zM20,14.25v-4.49997c0,-0.41421 0.3358,-0.75 0.75,-0.75c0.4142,0 0.75,0.33579 0.75,0.75v4.49997c0,0.4142 -0.3358,0.75 -0.75,0.75c-0.4142,0 -0.75,-0.3358 -0.75,-0.75zM10,12.25v-3.99997c0,-0.41421 0.3358,-0.75 0.75,-0.75c0.4142,0 0.75,0.33579 0.75,0.75v3.99997c0,0.4142 -0.3358,0.75 -0.75,0.75c-0.4142,0 -0.75,-0.3358 -0.75,-0.75zM11.875,15.375c0,0.6214 -0.5036,1.125 -1.125,1.125c-0.6213,0 -1.12497,-0.5036 -1.12497,-1.125c0,-0.6213 0.50367,-1.125 1.12497,-1.125c0.6214,0 1.125,0.5037 1.125,1.125z" fill="#002B51"/>
</svg>
