<svg width="24" height="24" viewBox="0 0 24 24" fill="none" xmlns="http://www.w3.org/2000/svg">
<path fill-rule="evenodd" clip-rule="evenodd" d="M20,14.25v-4.49996c0,-0.41422 0.3358,-0.75 0.75,-0.75c0.4142,0 0.75,0.33578 0.75,0.75v4.49996c0,0.4143 -0.3358,0.75 -0.75,0.75c-0.4142,0 -0.75,-0.3357 -0.75,-0.75zM5.5,17.75c-1.51878,0 -2.75,-1.2312 -2.75,-2.75v-5.99996c0,-1.51878 1.23122,-2.75 2.75,-2.75h10.5c1.5188,0 2.75,1.23122 2.75,2.75v5.99996c0,1.5188 -1.2312,2.75 -2.75,2.75zM6.25,15c0.41421,0 0.75,-0.3357 0.75,-0.75v-4.49996c0,-0.41422 -0.33579,-0.75 -0.75,-0.75c-0.41421,0 -0.75,0.33578 -0.75,0.75v4.49996c0,0.4143 0.33579,0.75 0.75,0.75z" fill="#002B51"/>
</svg>
