<svg width="24" height="24" viewBox="0 0 24 24" fill="none" xmlns="http://www.w3.org/2000/svg">
<path fill-rule="evenodd" clip-rule="evenodd" d="M21.5 9.75003C21.5 9.33582 21.1642 9.00003 20.75 9.00003C20.3358 9.00003 20 9.33582 20 9.75003V14.25C20 14.6642 20.3358 15 20.75 15C21.1642 15 21.5 14.6642 21.5 14.25V9.75003ZM16 6.25003C17.5188 6.25003 18.75 7.48125 18.75 9.00003V15C18.75 16.5188 17.5188 17.75 16 17.75H5.5C3.98122 17.75 2.75 16.5188 2.75 15V9.00003C2.75 7.48125 3.98122 6.25003 5.5 6.25003H16Z" fill="#002B51"/>
</svg>
