<svg width="24" height="24" viewBox="0 0 24 24" fill="none" xmlns="http://www.w3.org/2000/svg">
<path fill-rule="evenodd" clip-rule="evenodd" d="M14.25,2.50002c0.4142,0 0.75,0.33578 0.75,0.75c0,0.41421 -0.3358,0.75 -0.75,0.75h-4.5c-0.41421,0 -0.75,-0.33579 -0.75,-0.75c0,-0.41422 0.33579,-0.75 0.75,-0.75zM9,21.25c-1.51878,0 -2.75,-1.2312 -2.75,-2.75v-10.49998c0,-1.51879 1.23122,-2.75 2.75,-2.75h6c1.5188,0 2.75,1.23121 2.75,2.75v10.49998c0,1.5188 -1.2312,2.75 -2.75,2.75zM12,14.25c0.4142,0 0.75,-0.3358 0.75,-0.75v-3.99999c0,-0.41421 -0.3358,-0.75 -0.75,-0.75c-0.4142,0 -0.75,0.33579 -0.75,0.75v3.99999c0,0.4142 0.3358,0.75 0.75,0.75zM12,15.5c-0.6213,0 -1.125,0.5037 -1.125,1.125c0,0.6213 0.5037,1.125 1.125,1.125c0.6213,0 1.125,-0.5037 1.125,-1.125c0,-0.6213 -0.5037,-1.125 -1.125,-1.125z" fill="#002B51"/>
</svg>
