<svg width="24" height="24" viewBox="0 0 24 24" fill="none" xmlns="http://www.w3.org/2000/svg">
<path d="M8.31644,6.25003c-0.3093,0.42936 -0.50866,0.94231 -0.55469,1.5h-2.26172c-0.69035,0 -1.24999,0.55965 -1.25,1.25v5.99997c0,0.6904 0.55964,1.25 1.25,1.25h2.25c0.17239,0.5921 0.51603,1.1099 0.97266,1.5h-3.22266c-1.51878,0 -2.75,-1.2312 -2.75,-2.75v-5.99997c0.00001,-1.51878 1.23122,-2.75 2.75,-2.75zM16,6.25003c1.5188,0.00001 2.75,1.23123 2.75,2.75v5.99997c0,1.5188 -1.2312,2.75 -2.75,2.75h-3.2226c0.4566,-0.3901 0.8002,-0.9079 0.9726,-1.5h2.25c0.6904,0 1.25,-0.5596 1.25,-1.25v-5.99997c0,-0.69035 -0.5596,-1.24999 -1.25,-1.25h-2.2617c-0.046,-0.55769 -0.2454,-1.07064 -0.5547,-1.5zM10.75,14.25c0.6214,0 1.125,0.5037 1.125,1.125c0,0.6214 -0.5036,1.125 -1.125,1.125c-0.6213,0 -1.12497,-0.5036 -1.12497,-1.125c0,-0.6213 0.50367,-1.125 1.12497,-1.125zM20.75,9.00003c0.4142,0.00001 0.75,0.3358 0.75,0.75v4.49997c0,0.4142 -0.3358,0.75 -0.75,0.75c-0.4142,0 -0.75,-0.3358 -0.75,-0.75v-4.49997c0,-0.41421 0.3358,-0.75 0.75,-0.75zM10.75,7.50003c0.4142,0 0.75,0.33579 0.75,0.75v3.99997c0,0.4142 -0.3358,0.75 -0.75,0.75c-0.4142,0 -0.75,-0.3358 -0.75,-0.75v-3.99997c0,-0.41421 0.3358,-0.75 0.75,-0.75z" fill="#002B51"/>
</svg>
