<svg width="24" height="24" viewBox="0 0 24 24" fill="none" xmlns="http://www.w3.org/2000/svg">
<path d="M16.5,2.25003c0.4142,0 0.75,0.33579 0.75,0.75c0,0.41421 -0.3358,0.75 -0.75,0.75c-0.5483,0 -1.1252,0.23259 -1.5645,0.62305c-0.4379,0.38932 -0.6855,0.88467 -0.6855,1.37695c0,0.00621 -0.0008,0.01238 -0.001,0.01856c0.4662,0.5287 0.751,1.22116 0.751,1.98144c0,0.06829 -0.0033,0.13597 -0.0078,0.20313c0.2546,-0.17152 0.5118,-0.33577 0.7705,-0.48145c0.698,-0.39301 1.4877,-0.72168 2.2373,-0.72168c2.6234,0 4.75,2.12665 4.75,4.74997c0,2.6234 -2.1266,4.75 -4.75,4.75c-0.4341,0 -0.881,-0.1121 -1.3164,-0.2812c-0.2329,1.7566 -1.0712,3.1073 -1.9492,4.0439c-0.5155,0.5499 -1.0505,0.966 -1.5,1.2481c-0.2241,0.1406 -0.435,0.2528 -0.6192,0.333c-0.1476,0.0643 -0.3832,0.1562 -0.6152,0.1562c-0.232,0 -0.4676,-0.0919 -0.6152,-0.1562c-0.1842,-0.0802 -0.3951,-0.1924 -0.6192,-0.333c-0.4495,-0.2821 -0.98448,-0.6982 -1.49998,-1.2481c-0.87809,-0.9366 -1.71733,-2.2872 -1.95019,-4.0439c-0.43517,0.1689 -0.8816,0.2812 -1.31543,0.2812c-2.62335,0 -4.75,-2.1266 -4.75,-4.75c0,-2.62332 2.12665,-4.74997 4.75,-4.74997c0.74955,0 1.53926,0.32867 2.2373,0.72168c0.25852,0.14555 0.51514,0.31009 0.76954,0.48145c-0.00449,-0.06713 -0.00684,-0.13486 -0.00684,-0.20313c0,-0.76005 0.28409,-1.4528 0.75,-1.98144c-0.00015,-0.00617 0,-0.01236 0,-0.01856c0,-0.49228 -0.24761,-0.98763 -0.68555,-1.37695c-0.43926,-0.39046 -1.0161,-0.62305 -1.56445,-0.62305c-0.41421,0 -0.75,-0.33579 -0.75,-0.75c0,-0.41421 0.33579,-0.75 0.75,-0.75c0.9516,0 1.87482,0.39247 2.5605,1.00195c0.4807,0.42723 0.8695,0.98661 1.0606,1.62891c0.278,-0.08505 0.5731,-0.13086 0.8789,-0.13086c0.3055,0 0.6002,0.04599 0.8779,0.13086c0.1911,-0.64241 0.5809,-1.20162 1.0616,-1.62891c0.6857,-0.60948 1.6089,-1.00195 2.5605,-1.00195zM14.3457,18.0801c-0.702,0.2169 -1.5581,0.4199 -2.3457,0.4199c-0.788,0 -1.6445,-0.2029 -2.34668,-0.4199c0.21756,0.3394 0.45778,0.6424 0.70608,0.9072c0.4218,0.45 0.8558,0.7841 1.2031,1.002c0.1741,0.1092 0.3191,0.1847 0.4219,0.2295c0.0053,0.0023 0.0107,0.0038 0.0156,0.0058c0.0049,-0.002 0.0103,-0.0035 0.0156,-0.0058c0.1028,-0.0448 0.2478,-0.1203 0.4219,-0.2295c0.3473,-0.2179 0.7813,-0.552 1.2031,-1.002c0.2482,-0.2647 0.4876,-0.5679 0.7051,-0.9072zM14.7764,14.8994c-0.1534,0.0582 -0.3335,0.1248 -0.5332,0.1895c-0.6051,0.1959 -1.443,0.4111 -2.2432,0.4111c-0.8002,0 -1.6381,-0.2152 -2.24316,-0.4111c-0.20007,-0.0648 -0.38061,-0.1312 -0.53418,-0.1895c-0.15466,0.1084 -0.31006,0.2155 -0.46778,0.3165c0.01245,0.347 0.05365,0.6765 0.12012,0.9882c0.00715,0.003 0.01412,0.0067 0.02148,0.0098c0.2135,0.0889 0.51488,0.2077 0.86329,0.3262c0.71553,0.2432 1.55843,0.4599 2.24023,0.4599c0.6818,0 1.5247,-0.2167 2.2402,-0.4599c0.3484,-0.1185 0.6498,-0.2373 0.8633,-0.3262c0.0071,-0.0029 0.0136,-0.0069 0.0205,-0.0098c0.0666,-0.3121 0.1065,-0.6418 0.1192,-0.9892c-0.1574,-0.1007 -0.3126,-0.2074 -0.4668,-0.3155zM6,8.25003c-1.79493,0 -3.25,1.45507 -3.25,3.24997c0,1.795 1.45507,3.25 3.25,3.25c0.35501,0 0.8679,-0.1713 1.50195,-0.5283c0.61386,-0.3456 1.25705,-0.817 1.85157,-1.3027c0.59177,-0.4836 1.11978,-0.9693 1.49998,-1.335c0.0296,-0.0284 0.0573,-0.0571 0.085,-0.084c-0.0277,-0.0268 -0.0554,-0.0555 -0.085,-0.084c-0.3802,-0.3657 -0.90821,-0.8514 -1.49998,-1.3349c-0.59452,-0.48578 -1.23771,-0.95711 -1.85157,-1.30275c-0.63405,-0.35698 -1.14694,-0.52832 -1.50195,-0.52832zM18,8.25003c-0.355,0 -0.8679,0.17134 -1.502,0.52832c-0.6138,0.34564 -1.257,0.81697 -1.8515,1.30275c-0.5918,0.4835 -1.1198,0.9692 -1.5,1.3349c-0.0296,0.0285 -0.0573,0.0572 -0.085,0.084c0.0277,0.0269 0.0554,0.0556 0.085,0.084c0.3802,0.3657 0.9082,0.8514 1.5,1.335c0.5945,0.4857 1.2377,0.9571 1.8515,1.3027c0.6341,0.357 1.147,0.5283 1.502,0.5283c1.7949,0 3.25,-1.455 3.25,-3.25c0,-1.7949 -1.4551,-3.24997 -3.25,-3.24997zM11.8926,12.666c-0.3244,0.312 -0.7551,0.7082 -1.2432,1.1231c0.4464,0.1207 0.9254,0.2109 1.3506,0.2109c0.4249,0 0.9034,-0.0904 1.3496,-0.2109c-0.4879,-0.4148 -0.9179,-0.8112 -1.2422,-1.1231c-0.0376,-0.0361 -0.0726,-0.0725 -0.1074,-0.1064c-0.0348,0.0339 -0.0698,0.0703 -0.1074,0.1064zM12,6.25003c-0.8284,0 -1.5,0.67157 -1.5,1.5c0,0.82843 0.6716,1.5 1.5,1.5c0.8284,0 1.5,-0.67157 1.5,-1.5c0,-0.82843 -0.6716,-1.5 -1.5,-1.5z" fill="#002B51"/>
</svg>
