<svg width="24" height="24" viewBox="0 0 24 24" fill="none" xmlns="http://www.w3.org/2000/svg">
<path fill-rule="evenodd" clip-rule="evenodd" d="M9.75003,5.75003c0,-0.49228 -0.24761,-0.98763 -0.68555,-1.37695c-0.43926,-0.39046 -1.0161,-0.62305 -1.56445,-0.62305c-0.41421,0 -0.75,-0.33579 -0.75,-0.75c0,-0.41421 0.33579,-0.75 0.75,-0.75c0.9516,0 1.87482,0.39247 2.56057,1.00195c0.4806,0.42722 0.8709,0.98612 1.062,1.6284c0.2776,-0.08475 0.5722,-0.13035 0.8774,-0.13035c0.3053,0 0.5999,0.0456 0.8774,0.13035c0.1912,-0.64228 0.5815,-1.20118 1.0621,-1.6284c0.6857,-0.60948 1.6089,-1.00195 2.5605,-1.00195c0.4142,0 0.75,0.33579 0.75,0.75c0,0.41421 -0.3358,0.75 -0.75,0.75c-0.5483,0 -1.1252,0.23259 -1.5644,0.62305c-0.438,0.38932 -0.6856,0.88467 -0.6856,1.37695c0,0.00517 0,0.01032 -0.0001,0.01546c0.4668,0.52887 0.7501,1.22362 0.7501,1.98454c0,0.06678 -0.0022,0.13306 -0.0064,0.19876c0.2536,-0.17079 0.5114,-0.33196 0.7691,-0.47708c0.6981,-0.39301 1.4878,-0.72168 2.2373,-0.72168c2.6234,0 4.75,2.12665 4.75,4.74997c0,2.6234 -2.1266,4.75 -4.75,4.75c-0.4329,0 -0.8793,-0.1096 -1.3136,-0.278c-0.2334,1.7553 -1.0744,3.1046 -1.952,4.0407c-0.5155,0.5499 -1.0504,0.966 -1.5,1.2481c-0.2241,0.1405 -0.435,0.2528 -0.6191,0.333c-0.1477,0.0643 -0.3833,0.1562 -0.6153,0.1562c-0.232,0 -0.4675,-0.0919 -0.6152,-0.1562c-0.1841,-0.0802 -0.3951,-0.1925 -0.6191,-0.333c-0.4496,-0.2821 -0.98455,-0.6982 -1.50004,-1.2481c-0.87761,-0.9361 -1.71855,-2.2854 -1.95196,-4.0407c-0.43435,0.1684 -0.88071,0.278 -1.31367,0.278c-2.62335,0 -4.75,-2.1266 -4.75,-4.75c0,-2.62332 2.12665,-4.74997 4.75,-4.74997c0.74956,0 1.53926,0.32867 2.23731,0.72168c0.25774,0.14512 0.51551,0.30629 0.76917,0.47708c-0.0043,-0.0657 -0.00648,-0.13198 -0.00648,-0.19876c0,-0.76092 0.28329,-1.45567 0.75016,-1.98454c-0.00011,-0.00514 -0.00016,-0.01029 -0.00016,-0.01546zM13.5,7.75003c0,-0.82843 -0.6715,-1.5 -1.5,-1.5c-0.8284,0 -1.5,0.67157 -1.5,1.5c0,0.82843 0.6716,1.5 1.5,1.5c0.8285,0 1.5,-0.67157 1.5,-1.5zM8.75394,15.2171c0.01254,0.347 0.05486,0.6763 0.12137,0.9879l0.0212,0.0089c0.21351,0.0888 0.51487,0.2077 0.86329,0.3262c0.7155,0.2432 1.5584,0.4599 2.2402,0.4599c0.6819,0 1.5248,-0.2167 2.2403,-0.4599c0.3484,-0.1185 0.6497,-0.2374 0.8632,-0.3262l0.0213,-0.0089c0.0665,-0.3116 0.1088,-0.6409 0.1213,-0.9879c-0.1581,-0.1011 -0.3152,-0.2068 -0.4703,-0.3154c-0.1531,0.058 -0.3335,0.1227 -0.5326,0.1872c-0.6051,0.1958 -1.443,0.4111 -2.2432,0.4111c-0.8002,0 -1.6381,-0.2153 -2.24313,-0.4111c-0.19916,-0.0645 -0.37949,-0.1292 -0.53261,-0.1872c-0.15508,0.1086 -0.31218,0.2143 -0.47032,0.3154zM10.6519,13.7899c0.4457,0.1204 0.9237,0.2101 1.3481,0.2101c0.4244,0 0.9024,-0.0897 1.3481,-0.2101c-0.4877,-0.4146 -0.9165,-0.8121 -1.2406,-1.1239c-0.0372,-0.0357 -0.073,-0.0703 -0.1075,-0.1038c-0.0344,0.0335 -0.0702,0.0681 -0.1074,0.1038c-0.3242,0.3118 -0.7529,0.7093 -1.2407,1.1239zM2.75003,11.5c0,1.795 1.45508,3.25 3.25,3.25c0.35501,0 0.8679,-0.1713 1.50195,-0.5283c0.61386,-0.3456 1.25706,-0.817 1.85157,-1.3027c0.59177,-0.4836 1.11975,-0.9693 1.49995,-1.335c0.016,-0.0153 0.0314,-0.0308 0.0466,-0.046c0.0129,-0.0129 0.0257,-0.0256 0.0384,-0.038c-0.0127,-0.0123 -0.0255,-0.0251 -0.0384,-0.038c-0.0152,-0.0152 -0.0306,-0.0306 -0.0466,-0.046c-0.3802,-0.3657 -0.90818,-0.8514 -1.49995,-1.3349c-0.59451,-0.48578 -1.23771,-0.95711 -1.85157,-1.30275c-0.63405,-0.35698 -1.14694,-0.52832 -1.50195,-0.52832c-1.79492,0 -3.25,1.45507 -3.25,3.24997zM18,8.25003c-0.355,0 -0.8679,0.17134 -1.5019,0.52832c-0.6139,0.34564 -1.2571,0.81697 -1.8516,1.30275c-0.5918,0.4835 -1.1197,0.9692 -1.5,1.3349c-0.016,0.0154 -0.0314,0.0308 -0.0466,0.046c-0.0129,0.0129 -0.0256,0.0257 -0.0383,0.038c0.0127,0.0124 0.0254,0.0251 0.0383,0.038c0.0152,0.0152 0.0306,0.0307 0.0466,0.046c0.3803,0.3657 0.9082,0.8514 1.5,1.335c0.5945,0.4857 1.2377,0.9571 1.8516,1.3027c0.634,0.357 1.1469,0.5283 1.5019,0.5283c1.795,0 3.25,-1.455 3.25,-3.25c0,-1.7949 -1.455,-3.24997 -3.25,-3.24997zM11.5625,19.9893c0.1741,0.1092 0.3191,0.1847 0.4219,0.2295c0.0028,0.0012 0.0057,0.0022 0.0084,0.0032h0.0001l0.0034,0.0012l0.0037,0.0014c0.0023,-0.0009 0.0047,-0.0018 0.0072,-0.0026c0.0028,-0.001 0.0056,-0.002 0.0085,-0.0032c0.1027,-0.0448 0.2478,-0.1203 0.4218,-0.2295c0.3473,-0.218 0.7813,-0.552 1.2032,-1.002c0.2481,-0.2646 0.4898,-0.5664 0.7072,-0.9056c-0.7022,0.217 -1.5597,0.4183 -2.3479,0.4183c-0.7882,0 -1.6456,-0.2013 -2.34787,-0.4183c0.21748,0.3392 0.45917,0.641 0.70727,0.9056c0.4219,0.45 0.8559,0.784 1.2031,1.002z" fill="#002B51"/>
</svg>
