<svg width="24" height="24" viewBox="0 0 24 24" fill="none" xmlns="http://www.w3.org/2000/svg">
<path fill-rule="evenodd" clip-rule="evenodd" d="M6.75,3.00003c0,-0.41421 0.33579,-0.75 0.75,-0.75c0.95165,0 1.87504,0.3924 2.5608,1.00194c0.4806,0.42722 0.8708,0.98612 1.0618,1.62839c0.2776,-0.08474 0.5722,-0.13033 0.8774,-0.13033c0.3052,0 0.5998,0.04559 0.8774,0.13033c0.191,-0.64227 0.5812,-1.20117 1.0618,-1.62839c0.6858,-0.60954 1.6091,-1.00194 2.5608,-1.00194c0.4142,0 0.75,0.33579 0.75,0.75c0,0.41421 -0.3358,0.75 -0.75,0.75c-0.5483,0 -1.125,0.2326 -1.5642,0.62306c-0.438,0.38934 -0.6858,0.88462 -0.6858,1.37694c0,0.00517 -0.0001,0.01032 -0.0002,0.01546c0.4669,0.52887 0.7502,1.22362 0.7502,1.98454c0,0.06672 -0.0022,0.13292 -0.0065,0.19856c0.2536,-0.17081 0.5113,-0.332 0.7691,-0.4771c0.698,-0.39301 1.4878,-0.72146 2.2374,-0.72146c2.6234,0 4.75,2.12665 4.75,4.74997c0,2.6234 -2.1266,4.75 -4.75,4.75c-0.4329,0 -0.8793,-0.1095 -1.3137,-0.2778c-0.2333,1.7552 -1.0741,3.1047 -1.9516,4.0408c-0.5155,0.5499 -1.0506,0.9653 -1.5001,1.2473c-0.2244,0.1408 -0.4355,0.2534 -0.6198,0.3336c-0.1476,0.0643 -0.3828,0.1561 -0.6148,0.1561c-0.232,0 -0.4672,-0.0918 -0.6148,-0.1561c-0.1843,-0.0802 -0.3954,-0.1928 -0.6198,-0.3336c-0.4495,-0.282 -0.98456,-0.6974 -1.50005,-1.2473c-0.87759,-0.9361 -1.71831,-2.2856 -1.95168,-4.0408c-0.43436,0.1683 -0.88073,0.2778 -1.31367,0.2778c-2.62335,0 -4.75,-2.1266 -4.75,-4.75c0,-2.62332 2.12665,-4.74997 4.75,-4.74997c0.74956,0 1.53938,0.32845 2.23743,0.72146c0.25772,0.1451 0.51543,0.30629 0.76904,0.47709c-0.00429,-0.06563 -0.00647,-0.13183 -0.00647,-0.19855c0,-0.76092 0.28329,-1.45567 0.75016,-1.98454c-0.00011,-0.00514 -0.00016,-0.01029 -0.00016,-0.01546c0,-0.49232 -0.24776,-0.9876 -0.68577,-1.37694c-0.43927,-0.39046 -1.01588,-0.62306 -1.56423,-0.62306c-0.41421,0 -0.75,-0.33579 -0.75,-0.75zM12,6.25003c-0.8284,0 -1.5,0.67157 -1.5,1.5c0,0.82843 0.6716,1.5 1.5,1.5c0.8284,0 1.5,-0.67157 1.5,-1.5c0,-0.82843 -0.6716,-1.5 -1.5,-1.5zM6,8.25003c-1.79493,0 -3.25,1.45507 -3.25,3.24997c0,1.795 1.45507,3.25 3.25,3.25c0.35501,0 0.86747,-0.1715 1.50153,-0.5285c0.61395,-0.3457 1.25774,-0.8164 1.85235,-1.3022c0.59177,-0.4836 1.11912,-0.9691 1.49942,-1.3348l0.0874,-0.0845l-0.0874,-0.0844c-0.3803,-0.3657 -0.90765,-0.8513 -1.49942,-1.3348c-0.59461,-0.48584 -1.2384,-0.95657 -1.85235,-1.30223c-0.63406,-0.35699 -1.14652,-0.52854 -1.50153,-0.52854zM8.75392,15.2174c0.01255,0.3468 0.05488,0.6759 0.12138,0.9875l0.02146,0.009c0.21355,0.0888 0.5148,0.2076 0.86332,0.326c0.71552,0.2433 1.55812,0.4601 2.23992,0.4601c0.6818,0 1.5244,-0.2168 2.2399,-0.4601c0.3485,-0.1184 0.6498,-0.2372 0.8633,-0.326l0.0215,-0.009c0.0665,-0.3116 0.1088,-0.6407 0.1214,-0.9875c-0.1582,-0.1012 -0.3152,-0.2069 -0.4703,-0.3156c-0.153,0.0579 -0.3331,0.1223 -0.5322,0.1868c-0.6051,0.1959 -1.4432,0.4114 -2.2436,0.4114c-0.8004,0 -1.6385,-0.2155 -2.24357,-0.4114c-0.19914,-0.0645 -0.37926,-0.1289 -0.53223,-0.1868c-0.15506,0.1087 -0.31215,0.2144 -0.47028,0.3156zM10.6515,13.7902c0.4458,0.1203 0.924,0.2098 1.3485,0.2098c0.4245,0 0.9027,-0.0895 1.3485,-0.2098c-0.4882,-0.4149 -0.9172,-0.8126 -1.2416,-1.1246c-0.037,-0.0356 -0.0726,-0.0701 -0.1069,-0.1034c-0.0343,0.0333 -0.0699,0.0678 -0.1069,0.1034c-0.3244,0.312 -0.7534,0.7097 -1.2416,1.1246zM16.4985,8.77857c-0.614,0.34566 -1.2578,0.81639 -1.8524,1.30223c-0.5918,0.4835 -1.1191,0.9691 -1.4994,1.3348l-0.0874,0.0844l0.0874,0.0845c0.3803,0.3657 0.9076,0.8512 1.4994,1.3348c0.5946,0.4858 1.2384,0.9565 1.8524,1.3022c0.634,0.357 1.1465,0.5285 1.5015,0.5285c1.7949,0 3.25,-1.455 3.25,-3.25c0,-1.7949 -1.4551,-3.24997 -3.25,-3.24997c-0.355,0 -0.8675,0.17155 -1.5015,0.52854zM11.984,20.2186l0.016,0.0069l0.016,-0.0069c0.1028,-0.0447 0.2473,-0.1197 0.4213,-0.2289c0.3473,-0.2179 0.781,-0.5525 1.203,-1.0026c0.248,-0.2646 0.4896,-0.5661 0.707,-0.9051c-0.7021,0.2169 -1.5593,0.418 -2.3473,0.418c-0.788,0 -1.6452,-0.2011 -2.34735,-0.418c0.21742,0.339 0.45905,0.6405 0.70705,0.9051c0.422,0.4501 0.8557,0.7847 1.203,1.0026c0.174,0.1092 0.3185,0.1842 0.4213,0.2289z" fill="#002B51"/>
</svg>
