<svg width="24" height="24" viewBox="0 0 24 24" fill="none" xmlns="http://www.w3.org/2000/svg">
<path fill-rule="evenodd" clip-rule="evenodd" d="M6.75,3.00003c0,-0.41421 0.33579,-0.75 0.75,-0.75c0.95165,0 1.87504,0.3924 2.5608,1.00194c0.4806,0.42722 0.8708,0.98612 1.0618,1.62839c0.2776,-0.08474 0.5722,-0.13033 0.8774,-0.13033c0.3052,0 0.5998,0.04559 0.8774,0.13033c0.191,-0.64227 0.5812,-1.20117 1.0618,-1.62839c0.6858,-0.60954 1.6091,-1.00194 2.5608,-1.00194c0.4142,0 0.75,0.33579 0.75,0.75c0,0.41421 -0.3358,0.75 -0.75,0.75c-0.5483,0 -1.125,0.2326 -1.5642,0.62306c-0.438,0.38934 -0.6858,0.88462 -0.6858,1.37694c0,0.00517 -0.0001,0.01032 -0.0002,0.01546c0.4669,0.52887 0.7502,1.22362 0.7502,1.98454c0,0.06672 -0.0022,0.13292 -0.0065,0.19856c0.2536,-0.17081 0.5113,-0.332 0.7691,-0.4771c0.698,-0.39301 1.4878,-0.72146 2.2374,-0.72146c2.6234,0 4.75,2.12665 4.75,4.74997c0,2.6234 -2.1266,4.75 -4.75,4.75c-0.4954,0 -1.0084,-0.1434 -1.5008,-0.3542c-0.069,0.0279 -0.154,0.0617 -0.253,0.0999c-0.2925,0.113 -0.7042,0.2638 -1.1791,0.4144c-0.968,0.307 -2.128,0.5899 -3.0671,0.5899c-0.9391,0 -2.09913,-0.2829 -3.06709,-0.5899c-0.47487,-0.1506 -0.88659,-0.3014 -1.17909,-0.4144c-0.099,-0.0382 -0.18407,-0.072 -0.25301,-0.0999c-0.49245,0.2108 -1.00542,0.3542 -1.50081,0.3542c-2.62335,0 -4.75,-2.1266 -4.75,-4.75c0,-2.62332 2.12665,-4.74997 4.75,-4.74997c0.74956,0 1.53938,0.32845 2.23743,0.72146c0.25772,0.1451 0.51543,0.30629 0.76904,0.47709c-0.00429,-0.06563 -0.00647,-0.13183 -0.00647,-0.19855c0,-0.76092 0.28329,-1.45567 0.75016,-1.98454c-0.00011,-0.00514 -0.00016,-0.01029 -0.00016,-0.01546c0,-0.49232 -0.24776,-0.9876 -0.68577,-1.37694c-0.43927,-0.39046 -1.01588,-0.62306 -1.56423,-0.62306c-0.41421,0 -0.75,-0.33579 -0.75,-0.75zM6,14.75c0.35501,0 0.86747,-0.1715 1.50153,-0.5285c0.61395,-0.3457 1.25774,-0.8164 1.85235,-1.3022c0.59177,-0.4836 1.11912,-0.9691 1.49942,-1.3348l0.0874,-0.0845l-0.0874,-0.0844c-0.3803,-0.3657 -0.90765,-0.8513 -1.49942,-1.3348c-0.59461,-0.48584 -1.2384,-0.95657 -1.85235,-1.30223c-0.63406,-0.35699 -1.14652,-0.52854 -1.50153,-0.52854c-1.79493,0 -3.25,1.45507 -3.25,3.24997c0,1.795 1.45507,3.25 3.25,3.25zM14.8112,14.9266c-0.3886,-0.2707 -0.7651,-0.5606 -1.1142,-0.8458c-0.1109,-0.0906 -0.2195,-0.1812 -0.3254,-0.271c-0.4604,0.1173 -0.9265,0.1902 -1.3716,0.1902c-0.4451,0 -0.9112,-0.0729 -1.3716,-0.1902c-0.1059,0.0898 -0.2145,0.1804 -0.3254,0.271c-0.34911,0.2852 -0.72556,0.5751 -1.11419,0.8458c0.84629,0.3149 1.83469,0.5734 2.81119,0.5734c0.9765,0 1.9649,-0.2585 2.8112,-0.5734zM21.25,11.5c0,-1.7949 -1.4551,-3.24997 -3.25,-3.24997c-0.355,0 -0.8675,0.17155 -1.5015,0.52854c-0.614,0.34566 -1.2578,0.81639 -1.8524,1.30223c-0.5918,0.4835 -1.1191,0.9691 -1.4994,1.3348l-0.0874,0.0844l0.0874,0.0845c0.3803,0.3657 0.9076,0.8512 1.4994,1.3348c0.5946,0.4858 1.2384,0.9565 1.8524,1.3022c0.634,0.357 1.1465,0.5285 1.5015,0.5285c1.7949,0 3.25,-1.455 3.25,-3.25zM15.5205,17.8399c0.2742,-0.0869 0.5283,-0.1738 0.7536,-0.2544c-0.3833,0.9922 -0.9531,1.8021 -1.5394,2.4275c-0.5155,0.5499 -1.0506,0.9653 -1.5001,1.2473c-0.2244,0.1408 -0.4354,0.2534 -0.6198,0.3336c-0.1476,0.0643 -0.3828,0.1561 -0.6148,0.1561c-0.232,0 -0.4671,-0.0918 -0.6148,-0.1561c-0.1843,-0.0802 -0.3953,-0.1928 -0.6197,-0.3336c-0.4496,-0.282 -0.98463,-0.6974 -1.50012,-1.2473c-0.58631,-0.6254 -1.15616,-1.4353 -1.53943,-2.4274c0.22525,0.0806 0.47942,0.1674 0.75352,0.2543c1.00282,0.3181 2.34283,0.6601 3.52053,0.6601c1.1777,0 2.5177,-0.342 3.5205,-0.6601z" fill="#002B51"/>
</svg>
