<svg width="24" height="24" viewBox="0 0 24 24" fill="none" xmlns="http://www.w3.org/2000/svg">
<path d="M16.2725,17.584c-0.3834,0.9924 -0.9517,1.8032 -1.5381,2.4287c-0.5155,0.5499 -1.0505,0.966 -1.5,1.2481c-0.2241,0.1406 -0.435,0.2528 -0.6192,0.333c-0.1476,0.0643 -0.3832,0.1562 -0.6152,0.1562c-0.232,0 -0.4676,-0.0919 -0.6152,-0.1562c-0.1842,-0.0802 -0.3951,-0.1924 -0.6192,-0.333c-0.4495,-0.2821 -0.98449,-0.6982 -1.49998,-1.2481c-0.5865,-0.6256 -1.1557,-1.4361 -1.53906,-2.4287c0.22529,0.0807 0.47899,0.169 0.75293,0.2559c1.00282,0.318 2.34281,0.6601 3.52051,0.6601c1.1777,0 2.5177,-0.3421 3.5205,-0.6601c0.2736,-0.0868 0.5269,-0.1753 0.752,-0.2559zM16.5,2.25003c0.4142,0 0.75,0.33579 0.75,0.75c0,0.41421 -0.3358,0.75 -0.75,0.75c-0.5483,0 -1.1252,0.23259 -1.5645,0.62305c-0.4379,0.38932 -0.6855,0.88467 -0.6855,1.37695c0,0.00621 -0.0008,0.01238 -0.001,0.01856c0.4662,0.5287 0.751,1.22116 0.751,1.98144c0,0.06829 -0.0033,0.13597 -0.0078,0.20313c0.2546,-0.17152 0.5118,-0.33577 0.7705,-0.48145c0.698,-0.39301 1.4877,-0.72168 2.2373,-0.72168c2.6234,0 4.75,2.12665 4.75,4.74997c0,2.6234 -2.1266,4.75 -4.75,4.75c-0.4954,0 -1.0075,-0.1456 -1.5,-0.3564c-0.0692,0.0281 -0.1542,0.064 -0.2539,0.1025c-0.2924,0.113 -0.7041,0.2636 -1.1787,0.4141c-0.968,0.307 -2.1283,0.5898 -3.0674,0.5898c-0.9391,0 -2.09943,-0.2828 -3.06738,-0.5898c-0.47463,-0.1505 -0.88629,-0.3011 -1.17871,-0.4141c-0.10012,-0.0387 -0.1855,-0.0743 -0.25489,-0.1025c-0.4922,0.2106 -1.00386,0.3564 -1.49902,0.3564c-2.62335,0 -4.75,-2.1266 -4.75,-4.75c0,-2.62332 2.12665,-4.74997 4.75,-4.74997c0.74955,0 1.53926,0.32867 2.2373,0.72168c0.25852,0.14555 0.51514,0.31009 0.76954,0.48145c-0.00449,-0.06713 -0.00684,-0.13486 -0.00684,-0.20313c0,-0.76005 0.28409,-1.4528 0.75,-1.98144c-0.00015,-0.00617 0,-0.01236 0,-0.01856c0,-0.49228 -0.24761,-0.98763 -0.68555,-1.37695c-0.43926,-0.39046 -1.0161,-0.62305 -1.56445,-0.62305c-0.41421,0 -0.75,-0.33579 -0.75,-0.75c0,-0.41421 0.33579,-0.75 0.75,-0.75c0.9516,0 1.87482,0.39247 2.5605,1.00195c0.4807,0.42723 0.8695,0.98661 1.0606,1.62891c0.278,-0.08505 0.5731,-0.13086 0.8789,-0.13086c0.3055,0 0.6002,0.04599 0.8779,0.13086c0.1911,-0.64241 0.5809,-1.20162 1.0616,-1.62891c0.6857,-0.60948 1.6089,-1.00195 2.5605,-1.00195zM13.3701,13.8067c-0.46,0.1176 -0.9252,0.1933 -1.3701,0.1933c-0.4454,0 -0.9114,-0.0746 -1.3721,-0.1924c-0.1062,0.0902 -0.2139,0.1826 -0.3252,0.2735c-0.34886,0.2851 -0.72676,0.5723 -1.1152,0.8428c0.8466,0.3156 1.8353,0.5761 2.8125,0.5761c0.9769,0 1.9651,-0.2605 2.8115,-0.5761c-0.3882,-0.2703 -0.7655,-0.5579 -1.1142,-0.8428c-0.1119,-0.0914 -0.2204,-0.1839 -0.3272,-0.2744zM6,8.25003c-1.79493,0 -3.25,1.45507 -3.25,3.24997c0,1.795 1.45507,3.25 3.25,3.25c0.35501,0 0.8679,-0.1713 1.50195,-0.5283c0.61386,-0.3456 1.25705,-0.817 1.85157,-1.3027c0.59177,-0.4836 1.11978,-0.9693 1.49998,-1.335c0.0296,-0.0284 0.0573,-0.0571 0.085,-0.084c-0.0277,-0.0268 -0.0554,-0.0555 -0.085,-0.084c-0.3802,-0.3657 -0.90821,-0.8514 -1.49998,-1.3349c-0.59452,-0.48578 -1.23771,-0.95711 -1.85157,-1.30275c-0.63405,-0.35698 -1.14694,-0.52832 -1.50195,-0.52832zM18,8.25003c-0.355,0 -0.8679,0.17134 -1.502,0.52832c-0.6138,0.34564 -1.257,0.81697 -1.8515,1.30275c-0.5918,0.4835 -1.1198,0.9692 -1.5,1.3349c-0.0296,0.0285 -0.0573,0.0572 -0.085,0.084c0.0277,0.0269 0.0554,0.0556 0.085,0.084c0.3802,0.3657 0.9082,0.8514 1.5,1.335c0.5945,0.4857 1.2377,0.9571 1.8515,1.3027c0.6341,0.357 1.147,0.5283 1.502,0.5283c1.7949,0 3.25,-1.455 3.25,-3.25c0,-1.7949 -1.4551,-3.24997 -3.25,-3.24997z" fill="#002B51"/>
</svg>
