<svg width="36" height="24" viewBox="0 0 36 24" fill="none" xmlns="http://www.w3.org/2000/svg">
<g clip-path="url(#clip0_4050_16860)">
<rect width="36" height="24" fill="#FF4E4E"/>
<path d="M0,0h48v24h-48z" fill="#CE1720"/>
<mask id="mask0_4050_16860" style="mask-type:luminance" maskUnits="userSpaceOnUse" x="0" y="0" width="6" height="24">
<path d="M0.25415,0h5.33333v16.2133h0.21334v7.5734l-0.21334,0.2133h-5.33333z" fill="white"/>
</mask>
<g mask="url(#mask0_4050_16860)">
<path d="M1.2141,0v0.37333h-0.23999v0.37333h-0.29333v0.42666h-0.21333v0.34667h-0.42667v-0.88h0.42667v-0.48h-0.42667v-0.16zM1.90744,2.05333v0.4h-0.21334v0.32h-0.21333v-0.32h-0.21333v-0.4h-0.21334v-0.53333h0.21334v-0.4h0.21333v-0.32h0.21333v0.32h0.21334v0.4h0.21333v0.53333zM1.4541,2.02667h0.26667v-0.48h-0.26667zM0.76077,4.4h0.21333v0.48h-0.21333zM2.20077,4.4h0.21333v0.48h-0.21333zM0.04077,8.13333h0.37333v0.34667h0.16v0.42667h0.24v0.4h0.32v-0.4h0.24v-0.42667h0.21334v-0.34667h-0.32v-0.4h0.56v0.26667h0.34666v0.45333h0.29334v0.50667h-0.21334v0.37333h-0.18666v0.34667h-0.16v0.3733h-0.24v0.32h-0.18667v0.2934h-0.24v0.3733h-0.34666v-0.4h-0.24v-0.3733h-0.18667v-0.24h-0.42667v-0.61337h0.42667v-0.53333h-0.42667z" fill="white"/>
<path d="M5.80045,0v0.16h-0.42667v0.48h0.42667v0.88h-0.42667v-0.34667h-0.21333v-0.42666h-0.29334v-0.37333h-0.24v-0.37333zM3.72045,2.05333v-0.53333h0.21333v-0.4h0.21333v-0.32h0.21334v0.32h0.21333v0.4h0.21333v0.53333h-0.21333v0.4h-0.21333v0.32h-0.21334v-0.32h-0.21333v-0.4zM4.38711,1.54667h-0.26666v0.48h0.26666zM5.08045,4.88h-0.21334v-0.48h0.21334zM3.64045,4.88h-0.21334v-0.48h0.21334zM5.80045,8.88h-0.42667v0.53333h0.42667v0.61337h-0.42667v0.24h-0.18667v0.3733h-0.24v0.4h-0.34666v-0.3733h-0.24v-0.2934h-0.18667v-0.32h-0.24v-0.3733h-0.16v-0.34667h-0.18667v-0.37333h-0.21333v-0.50667h0.29333v-0.45333h0.34667v-0.26667h0.56v0.4h-0.32v0.34667h0.21333v0.42667h0.24v0.4h0.32v-0.4h0.24v-0.42667h0.16v-0.34667h0.37334z" fill="white"/>
<path d="M2.81411,0v0.85333h0.21333v-0.85333h0.85333v0.37333h-0.21333v0.37333h-0.32v0.42666h-0.21334v0.34667h-0.42666v-0.34667h-0.21334v-0.42666h-0.31999v-0.37333h-0.21334v-0.37333zM2.76077,7.30667v-0.29334h-0.16v-0.34666h-0.18667v-0.37334h-0.21333v-0.37333h-0.21333v-0.26667h-0.24v-0.37333h-0.32v0.37333h-0.24v0.26667h-0.18667v0.37333h-0.21333v0.37334h-0.16v0.34666h-0.16v0.45334h-0.42667v-1.17334h0.42667v-0.53333h-0.42667v-0.88h0.42667v0.37333h0.26667v0.37334h0.26666v-0.37334h0.26667v-0.37333h0.21333v-0.48h-0.21333v-0.37333h-0.26667v-0.37334h-0.26666v0.37334h-0.26667v0.37333h-0.42667v-1.09333h0.42667v-0.50667h-0.42667v-0.74667h0.42667v0.34667h0.21333v0.42667h0.29333v0.34666h0.24001v0.4h0.18666v0.32h0.37333v-0.32h0.18667v-0.4h0.24v-0.34666h0.29333v-0.42667h0.21334v-0.34667h0.42666v0.34667h0.21334v0.42667h0.29333v0.34666h0.24v0.4h0.18667v0.32h0.37333v-0.32h0.18667v-0.4h0.24v-0.34666h0.29333v-0.42667h0.21333v-0.34667h0.42667v0.74667h-0.42667v0.50667h0.42667v1.09333h-0.42667v-0.37333h-0.26666v-0.37334h-0.26667v0.37334h-0.26666v0.37333h-0.21334v0.48h0.21334v0.37333h0.26666v0.37334h0.26667v-0.37334h0.26666v-0.37333h0.42667v0.88h-0.42667v0.53333h0.42667v1.17334h-0.42667v-0.45334h-0.15999v-0.34666h-0.16v-0.37334h-0.21334v-0.37333h-0.18666v-0.26667h-0.24001v-0.37333h-0.31999v0.37333h-0.24v0.26667h-0.21334v0.37333h-0.21333v0.37334h-0.18667v0.34666h-0.16v0.29334zM2.81411,2.85333v0.72h0.21333v-0.72zM2.70744,4.4v-0.37333h-0.26667v-0.37334h-0.26666v0.37334h-0.26667v0.37333h-0.21333v0.48h0.21333v0.37333h0.26667v0.37334h0.26666v-0.37334h0.26667v-0.37333h0.42666v0.37333h0.26667v0.37334h0.26667v-0.37334h0.26666v-0.37333h0.21334v-0.48h-0.21334v-0.37333h-0.26666v-0.37334h-0.26667v0.37334h-0.26667v0.37333zM2.81411,5.62667v0.72h0.21333v-0.72z" fill="white"/>
<path d="M0.04077,24v-0.16h0.42667v-0.48h-0.42667v-0.88h0.42667v0.3467h0.21333v0.4266h0.29333v0.3734h0.23999v0.3733zM2.12077,21.9467v0.5333h-0.21333v0.4h-0.21334v0.32h-0.21333v-0.32h-0.21333v-0.4h-0.21334v-0.5333h0.21334v-0.4h0.21333v-0.32h0.21333v0.32h0.21334v0.4zM1.4541,22.4533h0.26667v-0.48h-0.26667zM0.76077,19.12h0.21333v0.48h-0.21333zM2.20077,19.12h0.21333v0.48h-0.21333zM0.04077,15.12h0.42667v-0.5333h-0.42667v-0.6134h0.42667v-0.24h0.18667v-0.3733h0.24v-0.4h0.34666v0.3733h0.24v0.2934h0.18667v0.32h0.24v0.3733h0.16v0.3467h0.18666v0.3733h0.21334v0.5067h-0.29334v0.4533h-0.34666v0.2667h-0.56v-0.4h0.32v-0.3467h-0.21334v-0.4267h-0.24v-0.4h-0.32v0.4h-0.24v0.4267h-0.16v0.3467h-0.37333z" fill="white"/>
<path d="M4.62711,24v-0.3733h0.24v-0.3733h0.29334v-0.4267h0.21333v-0.3467h0.42667v0.88h-0.42667v0.48h0.42667v0.16zM3.93378,21.9467v-0.4h0.21333v-0.32h0.21334v0.32h0.21333v0.4h0.21333v0.5333h-0.21333v0.4h-0.21333v0.32h-0.21334v-0.32h-0.21333v-0.4h-0.21333v-0.5333zM4.38711,21.9734h-0.26666v0.48h0.26666zM5.08045,19.6h-0.21334v-0.48h0.21334zM3.64045,19.6h-0.21334v-0.48h0.21334zM5.80045,15.8667h-0.37334v-0.3467h-0.16v-0.4266h-0.24v-0.4h-0.32v0.4h-0.24v0.4266h-0.21333v0.3467h0.32v0.4h-0.56v-0.2667h-0.34667v-0.4533h-0.29333v-0.5067h0.21333v-0.3733h0.18667v-0.3467h0.16v-0.3733h0.24v-0.32h0.18667v-0.2933h0.24v-0.3734h0.34666v0.4h0.24v0.3734h0.18667v0.24h0.42667v0.6133h-0.42667v0.5333h0.42667z" fill="white"/>
<path d="M1.96053,24v-0.3733h0.21333v-0.3733h0.32v-0.4267h0.21333v-0.3467h0.42667v0.3467h0.21333v0.4267h0.32v0.3733h0.21334v0.3733h-0.85334v-0.8533h-0.21333v0.8533zM3.08053,16.6934v0.2933h0.16v0.3467h0.18666v0.3733h0.21334v0.3733h0.21333v0.2667h0.24v0.3733h0.32v-0.3733h0.24v-0.2667h0.18667v-0.3733h0.21333v-0.3733h0.16v-0.3467h0.16v-0.4533h0.42667v1.1733h-0.42667v0.5333h0.42667v0.88h-0.42667v-0.3733h-0.26667v-0.3733h-0.26666v0.3733h-0.26667v0.3733h-0.21333v0.48h0.21333v0.3734h0.26667v0.3733h0.26666v-0.3733h0.26667v-0.3734h0.42667v1.0934h-0.42667v0.5066h0.42667v0.7467h-0.42667v-0.3467h-0.21333v-0.4266h-0.29334v-0.3467h-0.24v-0.4h-0.18666v-0.32h-0.37334v0.32h-0.18666v0.4h-0.24v0.3467h-0.29334v0.4266h-0.21333v0.3467h-0.42667v-0.3467h-0.21333v-0.4266h-0.29333v-0.3467h-0.24v-0.4h-0.18667v-0.32h-0.37333v0.32h-0.18667v0.4h-0.24v0.3467h-0.29333v0.4266h-0.21333v0.3467h-0.42667v-0.7467h0.42667v-0.5066h-0.42667v-1.0934h0.42667v0.3734h0.26667v0.3733h0.26667v-0.3733h0.26666v-0.3734h0.21334v-0.48h-0.21334v-0.3733h-0.26666v-0.3733h-0.26667v0.3733h-0.26667v0.3733h-0.42667v-0.88h0.42667v-0.5333h-0.42667v-1.1733h0.42667v0.4533h0.16v0.3467h0.16v0.3733h0.21334v0.3733h0.18666v0.2667h0.24v0.3733h0.32v-0.3733h0.24v-0.2667h0.21334v-0.3733h0.21333v-0.3733h0.18667v-0.3467h0.16v-0.2933zM3.02719,21.1467v-0.72h-0.21333v0.72zM3.13386,19.6v0.3734h0.26667v0.3733h0.26666v-0.3733h0.26667v-0.3734h0.21333v-0.48h-0.21333v-0.3733h-0.26667v-0.3733h-0.26666v0.3733h-0.26667v0.3733h-0.42667v-0.3733h-0.26666v-0.3733h-0.26667v0.3733h-0.26667v0.3733h-0.21333v0.48h0.21333v0.3734h0.26667v0.3733h0.26667v-0.3733h0.26666v-0.3734zM3.02719,18.3734v-0.72h-0.21333v0.72z" fill="white"/>
<path d="M0.04077,10.88h0.42667v0.3733h0.18667v0.2134h0.21333v0.3733h0.18666v0.32h-0.18666v0.3733h-0.21333v0.2134h-0.18667v0.3733h-0.42667zM5.80077,10.88v2.24h-0.42667v-0.3733h-0.18666v-0.2134h-0.21334v-0.3733h-0.18666v-0.32h0.18666v-0.3733h0.21334v-0.2134h0.18666v-0.3733zM1.90744,12.24h0.21333v-0.48h-0.21333zM3.9341,12.24v-0.48h-0.21333v0.48zM2.81411,10.6667h0.21333v-0.48h-0.21333zM2.81411,13.3333v0.48h0.21333v-0.48zM1.48077,11.3333h0.37333v-0.2933h0.26667v-0.2667h0.13334v-0.2666h0.15999v-0.3734h0.21334v-0.37331h0.10667v-0.34667h0.37333v0.34667h0.10666v0.37331h0.21334v0.3734h0.16v0.2666h0.13333v0.2667h0.26667v0.2933h0.37333v1.3334h-0.37333v0.2933h-0.26667v0.2667h-0.13333v0.2666h-0.16v0.3734h-0.21334v0.3733h-0.10666v0.3467h-0.37333v-0.3467h-0.10667v-0.3733h-0.21334v-0.3734h-0.15999v-0.2666h-0.13334v-0.2667h-0.26667v-0.2933h-0.37333zM2.81411,11.5733v-0.4h-0.21334v-0.2666h-0.21333v0.6666h0.21333v0.24h0.13334v0.3734h-0.13334v0.24h-0.21333v0.6666h0.21333v-0.2666h0.21334v-0.4h0.21333v0.4h0.21333v0.2666h0.21334v-0.6666h-0.21334v-0.24h-0.13333v-0.3734h0.13333v-0.24h0.21334v-0.6666h-0.21334v0.2666h-0.21333v0.4z" fill="white"/>
</g>
<path d="M5.58716,16h42.41274v8h-42.41274z" fill="#007C30"/>
</g>
<defs>
<clipPath id="clip0_4050_16860">
<rect width="36" height="24" fill="white"/>
</clipPath>
</defs>
</svg>
