<svg width="36" height="24" viewBox="0 0 36 24" fill="none" xmlns="http://www.w3.org/2000/svg">
<g clip-path="url(#clip0_4050_17161)">
<path d="M0,2c0,-1.10457 0.89543,-2 2,-2h32c1.1046,0 2,0.89543 2,2v20c0,1.1046 -0.8954,2 -2,2h-32c-1.10457,0 -2,-0.8954 -2,-2z" fill="#FF4E4E"/>
<path d="M0,0h36v24h-36z" fill="#EF3340"/>
<path d="M0,0h24v24h-24z" fill="#FDDA25"/>
<path d="M0,0h12v24h-12z" fill="black"/>
</g>
<defs>
<clipPath id="clip0_4050_17161">
<path d="M0,2c0,-1.10457 0.89543,-2 2,-2h32c1.1046,0 2,0.89543 2,2v20c0,1.1046 -0.8954,2 -2,2h-32c-1.10457,0 -2,-0.8954 -2,-2z" fill="white"/>
</clipPath>
</defs>
</svg>
