<svg width="36" height="24" viewBox="0 0 36 24" fill="none" xmlns="http://www.w3.org/2000/svg">
<g clip-path="url(#clip0_4050_17163)">
<path d="M0,12c0,-6.62742 5.37258,-12 12,-12h12c6.6274,0 12,5.37258 12,12c0,6.6274 -5.3726,12 -12,12h-12c-6.62742,0 -12,-5.3726 -12,-12z" fill="#FF4E4E"/>
<path d="M0,0h36v24h-36z" fill="#EF3340"/>
<path d="M0,0h24v24h-24z" fill="#FDDA25"/>
<path d="M0,0h12v24h-12z" fill="black"/>
</g>
<defs>
<clipPath id="clip0_4050_17163">
<path d="M0,12c0,-6.62742 5.37258,-12 12,-12h12c6.6274,0 12,5.37258 12,12c0,6.6274 -5.3726,12 -12,12h-12c-6.62742,0 -12,-5.3726 -12,-12z" fill="white"/>
</clipPath>
</defs>
</svg>
