<svg width="24" height="24" viewBox="0 0 24 24" fill="none" xmlns="http://www.w3.org/2000/svg">
<path fill-rule="evenodd" clip-rule="evenodd" d="M6.47412,7.5348l-3.00445,-3.00445c-0.29289,-0.29289 -0.29289,-0.76776 0,-1.06066c0.29289,-0.29289 0.76777,-0.29289 1.06066,0l15.99997,16.00001c0.2929,0.2929 0.2929,0.7678 0,1.0607c-0.2929,0.2928 -0.7677,0.2928 -1.0606,0l-2.2804,-2.2804h-0.0162h-0.0287h-0.0286h-0.0288h-0.0289h-0.0289h-0.029h-0.029h-0.0292h-0.0292h-0.0586h-0.0294h-0.0295h-0.0295h-0.0297h-0.0297h-0.0297h-0.0299h-0.0298h-0.03h-0.03h-0.0301h-0.0302h-0.0302h-0.0303h-0.0303h-0.0304h-0.0305h-0.0305h-0.0306h-0.0307h-0.0307h-0.0308h-0.0308h-0.0309h-0.031h-0.031h-0.031h-0.0311h-0.0312h-0.0313h-0.0312h-0.0314h-0.0314h-0.0314h-0.0315h-0.0316h-0.0128c-0.1287,1.9545 -1.7548,3.5 -3.7418,3.5c-1.9871,0 -3.61319,-1.5455 -3.74184,-3.5h-0.14755h-0.48022h-0.46245h-0.22393h-0.02764h-0.02755h-0.05485h-0.0273h-0.02722h-0.02713h-0.02705h-0.81788h-0.02398h-0.02387h-0.02378h-0.02367h-0.02356h-0.02347h-0.02336h-0.02325h-0.02315h-0.02305h-0.02294h-0.02283h-0.02273h-0.02261h-0.02251h-0.02241h-0.17525h-0.0214h-0.02129h-0.02118h-0.02106h-0.02095h-0.02083h-0.02072h-0.0206h-0.02048h-0.02036h-0.02025h-0.02013h-0.02001h-0.01989h-0.01977h-0.01965h-0.01954h-0.0194h-0.01929h-0.01917h-0.01904h-0.01892h-0.01879h-0.01867h-0.01855h-0.01842h-0.0183h-0.01816h-0.07141h-0.01753h-0.0174h-0.01727h-0.01714h-0.01701h-0.01688h-0.01675h-0.01662c-0.95361,0 -1.26388,-1.1001 -0.74512,-1.6867c0.71182,-0.8047 1.0449,-1.5092 1.21463,-2.3181c0.17872,-0.8518 0.182,-1.8324 0.182,-3.2452c0,-1.29358 0.47515,-2.48401 1.22417,-3.4652zM7.54682,8.60751c-0.50505,0.71958 -0.79687,1.54209 -0.79687,2.39249v0.063c0.00005,1.3361 0.0001,2.47 -0.21396,3.4902c-0.16415,0.7823 -0.45076,1.4903 -0.92885,2.1968h3.39312h6.00004h0.689zM17.2503,11c0,-1.24235 -0.6227,-2.42513 -1.6231,-3.31445c-1.0017,-0.89044 -2.3283,-1.43555 -3.6269,-1.43555c-0.7433,0 -1.4958,0.17861 -2.19132,0.49835l-1.1154,-1.1154c0.78763,-0.43623 1.65972,-0.7306 2.55642,-0.83785v-1.7951c0,-0.41421 0.3358,-0.75 0.75,-0.75c0.4142,0 0.75,0.33579 0.75,0.75v1.79501c1.4364,0.17165 2.8096,0.82348 3.8738,1.76945c1.2494,1.11067 2.1265,2.6779 2.1265,4.43554c0,1.4127 0.0034,2.3934 0.1822,3.2451c0.1698,0.8089 0.503,1.5134 1.2149,2.3182c0.1923,0.2175 0.2699,0.499 0.2461,0.7696l-2.9655,-2.9655c-0.1777,-0.9723 -0.1777,-2.0497 -0.1777,-3.306zM12.0003,20.25c1.1581,0 2.1119,-0.875 2.2362,-2h-0.0152h-0.0335h-0.0336h-0.0335h-0.0336h-0.0336h-0.0337h-0.0337h-0.0337h-0.0337h-0.0337h-0.0338h-0.0338h-0.0338h-0.0339h-0.0338h-0.0339h-0.0339h-0.0339h-0.034h-0.034h-0.0339h-0.034h-0.0341h-0.034h-0.0341h-0.034h-0.0341h-0.0341h-0.0342h-0.0341h-0.0341h-0.0342h-0.0342h-0.0342h-0.0342h-0.0342h-0.0342h-0.0342h-0.0343h-0.0342h-0.0343h-0.0343h-0.0343h-0.0342h-0.0343h-0.0343h-0.0344h-0.2746h-0.5494h-0.5478h-0.2727h-0.034h-0.034h-0.034h-0.0339h-0.034h-0.0339h-0.0339h-0.0338h-0.0339h-0.0338h-0.0338h-0.0338h-0.0675h-0.0337h-0.0337h-0.2685h-0.40481c0.12436,1.125 1.07811,2 2.23631,2z" fill="#002B51"/>
</svg>
