<svg width="24" height="24" viewBox="0 0 24 24" fill="none" xmlns="http://www.w3.org/2000/svg">
<path d="M3.46978,3.46973c0.27456,-0.27455 0.70933,-0.29195 1.00391,-0.05176l0.05664,0.05176l15.99997,15.99997l0.0518,0.0567c0.2403,0.2945 0.2228,0.7293 -0.0518,1.0039c-0.2746,0.2746 -0.7093,0.292 -1.0039,0.0517l-0.0566,-0.0517l-2.2803,-2.2803h-1.4482c-0.1287,1.9545 -1.7542,3.5 -3.7412,3.5c-1.9868,-0.0003 -3.6126,-1.5457 -3.74126,-3.5h-3.66113c-0.95252,-0.0008 -1.26299,-1.1001 -0.74512,-1.6865l0.25,-0.2979c0.54285,-0.6849 0.81634,-1.3127 0.96485,-2.0205c0.17871,-0.8517 0.18261,-1.8323 0.18261,-3.2451c0,-1.29354 0.47497,-2.4844 1.22364,-3.46582l-3.00391,-3.00391l-0.05176,-0.05664c-0.24019,-0.29458 -0.2228,-0.72934 0.05176,-1.0039zM9.7647,18.25c0.12439,1.1248 1.0775,1.9997 2.2354,2c1.158,0 2.1109,-0.8751 2.2353,-2zM12.0001,2.25c0.414,0.00019 0.75,0.33591 0.75,0.75v1.7959c1.436,0.17172 2.809,0.82291 3.873,1.76855c1.2495,1.11068 2.127,2.6779 2.127,4.43555c0,1.4127 0.0038,2.3934 0.1826,3.2451c0.1698,0.8088 0.5031,1.5137 1.2148,2.3184c0.1918,0.2169 0.2676,0.4976 0.2442,0.7676l-2.961,-2.961c-0.1811,-0.9888 -0.1806,-2.0863 -0.1806,-3.3701c0,-1.24233 -0.6227,-2.42514 -1.6231,-3.31445c-1.0017,-0.89027 -2.3285,-1.43555 -3.6269,-1.43555c-0.7432,0.00009 -1.4961,0.17836 -2.19145,0.49805l-1.11524,-1.11524c0.78762,-0.43582 1.66019,-0.72965 2.55669,-0.83691v-1.7959c0,-0.41407 0.3359,-0.74977 0.75,-0.75zM7.54693,8.60742c-0.50478,0.7197 -0.79688,1.54228 -0.79688,2.39258c0,1.3634 0.0025,2.5166 -0.21484,3.5527c-0.16424,0.7827 -0.45216,1.4905 -0.93066,2.1973h10.08495z" fill="#002B51"/>
</svg>
