<svg width="24" height="24" viewBox="0 0 24 24" fill="none" xmlns="http://www.w3.org/2000/svg">
<path d="M12.0004,2.25c0.414,0.00019 0.75,0.33591 0.75,0.75v1.7959c1.4361,0.17176 2.809,0.82279 3.873,1.76855c1.2495,1.11068 2.127,2.6779 2.127,4.43555c0,1.4127 0.0038,2.3934 0.1826,3.2451c0.1698,0.8089 0.503,1.5136 1.2148,2.3184c0.5299,0.5995 0.1882,1.6862 -0.748,1.6865h-3.6582c-0.1287,1.9545 -1.7542,3.5 -3.7412,3.5c-1.9871,0 -3.61258,-1.5455 -3.74124,-3.5h-3.66114c-0.9531,-0.0003 -1.26343,-1.1 -0.74511,-1.6865l0.25,-0.2979c0.54287,-0.685 0.81633,-1.3127 0.96484,-2.0205c0.17871,-0.8517 0.18262,-1.8323 0.18262,-3.2451c0,-1.75756 0.87656,-3.3249 2.12597,-4.43555c1.06414,-0.94585 2.43768,-1.59682 3.87406,-1.76855v-1.7959c0,-0.41421 0.3358,-0.75 0.75,-0.75zM9.76501,18.25c0.12441,1.1249 1.07729,2 2.23539,2c1.158,0 2.1109,-0.8751 2.2353,-2z" fill="#002B51"/>
</svg>
