<svg width="24" height="24" viewBox="0 0 24 24" fill="none" xmlns="http://www.w3.org/2000/svg">
<path d="M3.46979,3.46982c0.27456,-0.27457 0.70932,-0.29196 1.0039,-0.05176l0.05664,0.05176l15.99997,15.99998l0.0518,0.0567c0.2403,0.2945 0.2228,0.7293 -0.0518,1.0039c-0.2746,0.2746 -0.7093,0.292 -1.0039,0.0517l-0.0566,-0.0517l-3.2803,-3.2803h-0.4482c-0.1287,1.9544 -1.7542,3.5 -3.7412,3.5c-1.9868,-0.0003 -3.61259,-1.5457 -3.74125,-3.5h-3.66113c-0.95253,-0.0008 -1.26299,-1.1001 -0.74512,-1.6865l0.25,-0.2979c0.54284,-0.6849 0.81633,-1.3128 0.96484,-2.0205c0.17871,-0.8518 0.18262,-1.8324 0.18262,-3.2451c0,-1.04189 0.30895,-2.01661 0.82031,-2.86915l-2.60058,-2.60059l-0.05176,-0.05664c-0.2402,-0.29458 -0.22281,-0.72934 0.05176,-1.0039zM9.76471,17.2501c0.12439,1.1248 1.07749,1.9997 2.23539,2c1.158,0 2.1109,-0.8751 2.2353,-2zM12.0001,3.75009c1.7016,0 3.3749,0.70515 4.623,1.81445c1.2495,1.11068 2.127,2.6779 2.127,4.43556c0,1.4127 0.0038,2.3934 0.1826,3.2451c0.1698,0.8088 0.5031,1.5137 1.2148,2.3184c0.3734,0.4224 0.3123,1.0847 -0.083,1.4404l-2.1943,-2.1943c-0.1815,-0.404 -0.3143,-0.8178 -0.4063,-1.2559c-0.2175,-1.0362 -0.2138,-2.1901 -0.2138,-3.5537c0,-1.24234 -0.6227,-2.42515 -1.6231,-3.31446c-1.0017,-0.89029 -2.3285,-1.43555 -3.6269,-1.43555c-0.9817,0.00012 -1.9796,0.31185 -2.84086,0.84863l-1.08301,-1.083c1.14109,-0.78772 2.52317,-1.26551 3.92387,-1.26563zM7.17584,8.23642c-0.27285,0.55504 -0.42578,1.15179 -0.42578,1.76368c0,1.3634 0.0025,2.5166 -0.21484,3.5527c-0.16424,0.7827 -0.45217,1.4905 -0.93067,2.1973h9.08495z" fill="#002B51"/>
</svg>
