<svg width="24" height="24" viewBox="0 0 24 24" fill="none" xmlns="http://www.w3.org/2000/svg">
<path fill-rule="evenodd" clip-rule="evenodd" d="M4.53042,3.46987l15.99998,16.00003l0.0518,0.0566c0.2403,0.2946 0.2228,0.7293 -0.0518,1.0039c-0.2746,0.2746 -0.7093,0.2921 -1.0039,0.0518l-0.0566,-0.0518l-3.2804,-3.2804h-0.4473c-0.1286,1.9545 -1.7547,3.5 -3.7418,3.5c-1.987,0 -3.61312,-1.5455 -3.74177,-3.5h-3.66046c-0.95311,-0.0003 -1.26344,-1.1 -0.74512,-1.6865l0.25,-0.2979c0.54288,-0.685 0.81634,-1.3127 0.96485,-2.0205c0.17871,-0.8517 0.18261,-1.8323 0.18261,-3.2451c0,-1.04192 0.30806,-2.017 0.81924,-2.8697l-2.59988,-2.59988l-0.05175,-0.05664c-0.24031,-0.29458 -0.22285,-0.7293 0.05175,-1.00391c0.27461,-0.2746 0.70933,-0.29206 1.00391,-0.05175zM14.6895,15.75l-7.51492,-7.51487c-0.27297,0.55519 -0.42407,1.15281 -0.42407,1.76487v0.046c0.00003,1.3434 0.00006,2.4823 -0.21484,3.5067c-0.16423,0.7828 -0.45214,1.4904 -0.93066,2.1973h3.39542zM17.2505,10.0665v-0.0665c0,-1.24232 -0.6226,-2.42513 -1.623,-3.31445c-1.0017,-0.89043 -2.3284,-1.43554 -3.627,-1.43554c-0.9819,0 -1.9798,0.31169 -2.84126,0.84867l-1.08304,-1.08305c1.14127,-0.78791 2.5233,-1.26562 3.9243,-1.26562c1.7017,0 3.3749,0.70499 4.6231,1.81445c1.2494,1.11068 2.1269,2.6779 2.1269,4.43554c0,1.4127 0.0038,2.3934 0.1826,3.2451c0.1698,0.8089 0.503,1.5136 1.2149,2.3184c0.3734,0.4225 0.3139,1.0869 -0.0814,1.4426l-2.1993,-2.1993c-0.1807,-0.4029 -0.3112,-0.8162 -0.4029,-1.2531c-0.214,-1.0193 -0.2139,-2.1525 -0.2139,-3.4872zM9.76416,17.25c0.12436,1.125 1.07814,2 2.23624,2c1.1582,0 2.1119,-0.875 2.2363,-2z" fill="#002B51"/>
</svg>
