<svg width="24" height="24" viewBox="0 0 24 24" fill="none" xmlns="http://www.w3.org/2000/svg">
<path d="M12.0005,3.75c1.7017,0 3.3749,0.705 4.623,1.81445c1.2495,1.11068 2.127,2.6779 2.127,4.43555c0,1.4127 0.0038,2.3934 0.1826,3.2451c0.1698,0.8089 0.503,1.5136 1.2149,2.3184c0.5298,0.5995 0.1881,1.6862 -0.7481,1.6865h-3.6582c-0.1286,1.9545 -1.7542,3.5 -3.7412,3.5c-1.987,0 -3.61254,-1.5455 -3.74121,-3.5h-3.66113c-0.9531,-0.0003 -1.26343,-1.1 -0.74512,-1.6865l0.25,-0.2979c0.54288,-0.685 0.81634,-1.3127 0.96485,-2.0205c0.17871,-0.8517 0.18261,-1.8323 0.18261,-3.2451c0,-1.75756 0.87656,-3.3249 2.12598,-4.43555c1.2483,-1.10954 2.92222,-1.81445 4.62402,-1.81445zM9.76515,17.25c0.12441,1.1249 1.07725,2 2.23535,2c1.1581,0 2.111,-0.8751 2.2354,-2zM12.0005,5.25c-1.2985,0 -2.62516,0.54514 -3.62695,1.43555c-1.00055,0.88934 -1.62305,2.07213 -1.62305,3.31445c0,1.3634 0.0025,2.5166 -0.21484,3.5527c-0.16423,0.7828 -0.45214,1.4904 -0.93067,2.1973h12.79101c-0.4785,-0.7067 -0.7673,-1.4137 -0.9316,-2.1963c-0.2175,-1.0362 -0.2139,-2.1901 -0.2139,-3.5537c0,-1.24233 -0.6226,-2.42514 -1.623,-3.31445c-1.0017,-0.89044 -2.3285,-1.43555 -3.627,-1.43555z" fill="#002B51"/>
</svg>
