<svg width="24" height="24" viewBox="0 0 24 24" fill="none" xmlns="http://www.w3.org/2000/svg">
<path fill-rule="evenodd" clip-rule="evenodd" d="M15.7422,18.25c-0.1287,1.9545 -1.7547,3.5 -3.7418,3.5c-1.9871,0 -3.61316,-1.5455 -3.7418,-3.5h-3.66046c-0.95311,-0.0004 -1.26344,-1.1 -0.74512,-1.6865l0.25,-0.2979c0.54288,-0.685 0.81634,-1.3127 0.96484,-2.0205c0.17872,-0.8518 0.18262,-1.8323 0.18262,-3.2451c0,-1.29357 0.47482,-2.48408 1.22364,-3.46531l-3.00428,-3.00428l-0.05175,-0.05664c-0.24031,-0.29458 -0.22285,-0.7293 0.05175,-1.00391c0.27461,-0.2746 0.70933,-0.29206 1.00391,-0.05176l0.05664,0.05176l16.00001,16.00004l0.0517,0.0566c0.2404,0.2946 0.2229,0.7293 -0.0517,1.0039c-0.2746,0.2746 -0.7093,0.2921 -1.0039,0.0518l-0.0567,-0.0518l-2.2804,-2.2804zM20.1479,16.5635c0.1923,0.2175 0.2698,0.4991 0.2458,0.7697l-11.70025,-11.70028c0.78768,-0.4362 1.65985,-0.73056 2.55655,-0.83782v-1.79512c0,-0.41421 0.3358,-0.75 0.75,-0.75c0.4142,0 0.75,0.33579 0.75,0.75v1.79501c1.4363,0.17166 2.8094,0.82356 3.8735,1.76945c1.2495,1.11068 2.127,2.6779 2.127,4.43556c0,1.4127 0.0038,2.3934 0.1826,3.2451c0.1698,0.8089 0.503,1.5136 1.2148,2.3184zM14.2367,18.25h-4.47257c0.12436,1.125 1.07817,2 2.23627,2c1.1581,0 2.1119,-0.875 2.2363,-2z" fill="#002B51"/>
</svg>
