<svg width="24" height="24" viewBox="0 0 24 24" fill="none" xmlns="http://www.w3.org/2000/svg">
<path d="M3.46973,3.46976c0.27456,-0.27457 0.70932,-0.29196 1.0039,-0.05176l0.05664,0.05176l16.00003,16.00004l0.0517,0.0566c0.2403,0.2946 0.2229,0.7293 -0.0517,1.0039c-0.2746,0.2746 -0.7094,0.2921 -1.0039,0.0518l-0.0567,-0.0518l-3.2802,-3.2803h-0.4483c-0.1287,1.9545 -1.7542,3.5 -3.7412,3.5c-1.9869,-0.0001 -3.61255,-1.5456 -3.74121,-3.5h-3.66113c-0.95273,-0.0006 -1.26314,-1.1 -0.74512,-1.6865l0.25,-0.2978c0.54285,-0.685 0.81633,-1.3128 0.96484,-2.0206c0.17871,-0.8517 0.18262,-1.8323 0.18262,-3.2451c0,-1.04188 0.30894,-2.01657 0.82031,-2.86911l-2.60058,-2.60059l-0.05176,-0.05664c-0.2402,-0.29458 -0.22281,-0.72934 0.05176,-1.0039zM9.76465,17.25c0.1244,1.1249 1.07745,1.9999 2.23535,2c1.158,0 2.1109,-0.8751 2.2354,-2zM12,3.75003c1.7016,0 3.3749,0.70509 4.623,1.81445c1.2495,1.11068 2.127,2.6779 2.127,4.43552c0,1.4127 0.0038,2.3934 0.1826,3.2451c0.1698,0.8089 0.5031,1.5137 1.2149,2.3184c0.3733,0.4224 0.3121,1.0847 -0.083,1.4404l-11.98833,-11.98824c1.14112,-0.78771 2.52313,-1.26555 3.92383,-1.26563z" fill="#002B51"/>
</svg>
