<svg width="24" height="24" viewBox="0 0 24 24" fill="none" xmlns="http://www.w3.org/2000/svg">
<path fill-rule="evenodd" clip-rule="evenodd" d="M6.47413,7.5347l-3.00429,-3.00429l-0.05175,-0.05664c-0.24031,-0.29458 -0.22285,-0.7293 0.05175,-1.0039c0.27461,-0.27461 0.70933,-0.29207 1.00391,-0.05176l0.05664,0.05176l16.00001,16.00003l0.0517,0.0566c0.2404,0.2946 0.2229,0.7293 -0.0517,1.0039c-0.2746,0.2746 -0.7093,0.2921 -1.0039,0.0518l-0.0567,-0.0518l-2.2804,-2.2804h-1.4472c-0.1287,1.9545 -1.7547,3.5 -3.7418,3.5c-1.9871,0 -3.61316,-1.5455 -3.74181,-3.5h-3.66046c-0.95311,-0.0003 -1.26343,-1.1 -0.74511,-1.6865l0.25,-0.2979c0.54287,-0.685 0.81634,-1.3127 0.96484,-2.0205c0.17871,-0.8517 0.18262,-1.8323 0.18262,-3.2451c0,-1.29355 0.47482,-2.48407 1.22365,-3.4653zM7.54705,8.60762c-0.50492,0.71956 -0.79657,1.54198 -0.79657,2.39238v0.046c0.00003,1.3434 0.00005,2.4823 -0.21485,3.5067c-0.16423,0.7828 -0.45214,1.4904 -0.93066,2.1973h3.39542h6.00001h0.689zM17.2505,11.0665v-0.0665c0,-1.24233 -0.6227,-2.42513 -1.6231,-3.31445c-1.0017,-0.89044 -2.3284,-1.43555 -3.6269,-1.43555c-0.7434,0 -1.4959,0.17865 -2.19151,0.49845l-1.11553,-1.11553c0.78768,-0.43619 1.65984,-0.73054 2.55654,-0.83781v-1.79511c0,-0.41421 0.3358,-0.75 0.75,-0.75c0.4142,0 0.75,0.33579 0.75,0.75v1.79501c1.4363,0.17165 2.8094,0.82355 3.8735,1.76945c1.2495,1.11067 2.127,2.6779 2.127,4.43554c0,1.4127 0.0038,2.3934 0.1826,3.2451c0.1698,0.8089 0.503,1.5136 1.2148,2.3184c0.1923,0.2175 0.2698,0.4991 0.2458,0.7697l-2.9659,-2.966c-0.1774,-0.9708 -0.1774,-2.0468 -0.1773,-3.3007zM12.0004,20.25c1.1581,0 2.1119,-0.875 2.2363,-2h-4.47257c0.12436,1.125 1.07817,2 2.23627,2z" fill="#002B51"/>
</svg>
