<svg width="24" height="24" viewBox="0 0 24 24" fill="none" xmlns="http://www.w3.org/2000/svg">
<path d="M12.0004,2.25c0.4141,0.00019 0.75,0.33591 0.75,0.75v1.7959c1.4361,0.17173 2.809,0.8228 3.8731,1.76855c1.2494,1.11068 2.1269,2.6779 2.1269,4.43555c0,1.4127 0.0039,2.3934 0.1826,3.2451c0.1699,0.8089 0.5031,1.5136 1.2149,2.3184c0.5298,0.5995 0.1881,1.6862 -0.7481,1.6865h-3.6582c-0.1286,1.9545 -1.7542,3.5 -3.7412,3.5c-1.987,-0.0001 -3.61252,-1.5456 -3.74119,-3.5h-3.66113c-0.95296,-0.0005 -1.26332,-1.1 -0.74512,-1.6865l0.25,-0.2979c0.54287,-0.685 0.81634,-1.3127 0.96485,-2.0205c0.17871,-0.8517 0.18261,-1.8323 0.18261,-3.2451c0.00001,-1.75753 0.87661,-3.3249 2.12598,-4.43555c1.06411,-0.94582 2.43772,-1.59679 3.874,-1.76855v-1.7959c0,-0.41421 0.3358,-0.75 0.75,-0.75zM9.76507,18.25c0.12441,1.1249 1.07733,1.9999 2.23533,2c1.1581,0 2.111,-0.8751 2.2354,-2z" fill="#002B51"/>
</svg>
