<svg width="24" height="24" viewBox="0 0 24 24" fill="none" xmlns="http://www.w3.org/2000/svg">
<path fill-rule="evenodd" clip-rule="evenodd" d="M4.53033 3.46969C4.23744 3.1768 3.76256 3.1768 3.46967 3.46969C3.17678 3.76259 3.17678 4.23746 3.46967 4.53035L6.06962 7.13031C5.55824 7.98298 5.24995 8.95802 5.24995 10C5.24995 11.4128 5.24667 12.3934 5.06796 13.2452C4.89823 14.0541 4.56515 14.7586 3.85333 15.5633C3.33456 16.1499 3.64483 17.25 4.59845 17.25H4.61507H4.63181H4.64869H4.6657H4.68284H4.70012H4.71752H4.73505H4.80645H4.82462H4.84291H4.86134H4.87988H4.89855H4.91735H4.93627H4.95531H4.97447H4.99376H5.01317H5.0327H5.05235H5.07212H5.09201H5.11203H5.13215H5.1524H5.17277H5.19325H5.21385H5.23457H5.2554H5.27635H5.29741H5.31858H5.33987H5.36128H5.53653H5.55893H5.58144H5.60406H5.62679H5.64962H5.67256H5.6956H5.71875H5.74201H5.76537H5.78883H5.8124H5.83607H5.85984H5.88372H5.90769H6.72558H6.75263H6.77976H6.80698H6.83428H6.88913H6.91668H6.94431H7.16825H7.6307H8.11091H8.25847C8.38711 19.2045 10.0132 20.75 12.0003 20.75C13.9873 20.75 15.6134 19.2045 15.7421 17.25H15.7549H15.7865H15.818H15.8494H15.8808H15.9122H15.9434H15.9747H16.0059H16.037H16.068H16.0991H16.13H16.1609H16.1893L19.4697 20.5304C19.7626 20.8232 20.2374 20.8232 20.5303 20.5304C20.8232 20.2375 20.8232 19.7626 20.5303 19.4697L4.53033 3.46969ZM14.6893 15.75L7.17425 8.23494C6.90116 8.79018 6.74995 9.38786 6.74995 10L6.74995 10.063C6.75001 11.3991 6.75005 12.533 6.53599 13.5532C6.37184 14.3355 6.08523 15.0435 5.60714 15.75H9.00027H14.6893ZM17.4645 13.5533C17.556 13.9892 17.6856 14.4021 17.8651 14.8044L20.0666 17.0059C20.4618 16.6502 20.521 15.9857 20.1474 15.5633C19.4355 14.7585 19.1023 14.054 18.9325 13.2451C18.7537 12.3934 18.7504 11.4127 18.7504 10C18.7504 8.24235 17.8732 6.67513 16.6238 5.56445C15.3756 4.45489 13.7022 3.75 12.0003 3.75C10.5993 3.75 9.21751 4.22773 8.07631 5.01568L9.15917 6.09854C10.0206 5.56163 11.0185 5.25 12.0003 5.25C13.2989 5.25 14.6255 5.79511 15.6272 6.68555C16.6277 7.57487 17.2504 8.75765 17.2504 10L17.2503 10.0614C17.2503 11.3983 17.2503 12.5326 17.4645 13.5533ZM14.2365 17.25C14.1122 18.375 13.1584 19.25 12.0003 19.25C10.8421 19.25 9.88836 18.375 9.764 17.25H10.1688H10.4373H10.471H10.5047H10.5722H10.606H10.6398H10.6736H10.7075H10.7413H10.7752H10.8092H10.8431H10.877H10.911H10.945H10.979H11.2517H11.7995H12.3489H12.6236H12.6579H12.6922H12.7265H12.7607H12.795H12.8293H12.8636H12.8978H12.9321H12.9663H13.0005H13.0347H13.0689H13.1031H13.1373H13.1715H13.2056H13.2398H13.2739H13.308H13.3421H13.3761H13.4102H13.4442H13.4783H13.5123H13.5463H13.5802H13.6142H13.6481H13.682H13.7159H13.7497H13.7836H13.8174H13.8512H13.885H13.9187H13.9524H13.9861H14.0198H14.0535H14.0871H14.1207H14.1542H14.1878H14.2213H14.2365Z" fill="#002B51"/>
</svg>
