<svg width="24" height="24" viewBox="0 0 24 24" fill="none" xmlns="http://www.w3.org/2000/svg">
<path d="M3.46978,3.46971c0.27456,-0.27454 0.70933,-0.29194 1.0039,-0.05176l0.05664,0.05176l15.99998,15.99999l0.0518,0.0567c0.2403,0.2945 0.2228,0.7293 -0.0518,1.0039c-0.2746,0.2746 -0.7093,0.292 -1.0039,0.0517l-0.0566,-0.0517l-2.2803,-2.2803h-1.4482c-0.1287,1.9544 -1.7542,3.4999 -3.7412,3.5c-1.9868,-0.0003 -3.6126,-1.5457 -3.74126,-3.5h-3.66113c-0.95252,-0.0008 -1.26299,-1.1001 -0.74512,-1.6865l0.25,-0.2979c0.54285,-0.6849 0.81633,-1.3128 0.96484,-2.0205c0.17872,-0.8518 0.18262,-1.8323 0.18262,-3.2451c0,-1.29355 0.47497,-2.48441 1.22363,-3.46584l-3.0039,-3.0039l-0.05176,-0.05664c-0.24018,-0.29458 -0.2228,-0.72935 0.05176,-1.00391zM9.7647,18.25c0.12439,1.1247 1.0775,1.9997 2.2354,2c1.158,-0.0001 2.1109,-0.8751 2.2353,-2zM12.0001,2.24998c0.414,0.0002 0.75,0.33591 0.75,0.75v1.7959c1.436,0.17173 2.809,0.82292 3.873,1.76856c1.2495,1.11067 2.1269,2.6779 2.127,4.43556c0,1.4126 0.0038,2.3934 0.1826,3.2451c0.1698,0.8088 0.5031,1.5137 1.2148,2.3184c0.1918,0.2169 0.2676,0.4975 0.2442,0.7675l-11.69829,-11.6982c0.78761,-0.43582 1.66019,-0.72965 2.55669,-0.83692v-1.7959c0,-0.41407 0.3359,-0.74977 0.75,-0.75z" fill="#002B51"/>
</svg>
