<svg width="24" height="24" viewBox="0 0 24 24" fill="none" xmlns="http://www.w3.org/2000/svg">
<path d="M12.0005,3.75c1.7017,0 3.3749,0.705 4.623,1.81445c1.2495,1.11068 2.127,2.6779 2.127,4.43555c0,1.4127 0.0038,2.3934 0.1826,3.2451c0.1698,0.8089 0.503,1.5136 1.2149,2.3184c0.5298,0.5995 0.1881,1.6862 -0.7481,1.6865h-3.6582c-0.1286,1.9545 -1.7542,3.5 -3.7412,3.5c-1.987,0 -3.61254,-1.5455 -3.74121,-3.5h-3.66113c-0.9531,-0.0003 -1.26343,-1.1 -0.74512,-1.6865l0.25,-0.2979c0.54288,-0.685 0.81634,-1.3127 0.96485,-2.0205c0.17871,-0.8517 0.18261,-1.8323 0.18261,-3.2451c0,-1.75756 0.87656,-3.3249 2.12598,-4.43555c1.2483,-1.10954 2.92222,-1.81445 4.62402,-1.81445zM9.76515,17.25c0.12441,1.1249 1.07725,2 2.23535,2c1.1581,0 2.111,-0.8751 2.2354,-2z" fill="#002B51"/>
</svg>
