<svg width="24" height="24" viewBox="0 0 24 24" fill="none" xmlns="http://www.w3.org/2000/svg">
<path fill-rule="evenodd" clip-rule="evenodd" d="M18.7505,10c0,1.4127 0.0038,2.3934 0.1826,3.2451c0.1698,0.8089 0.503,1.5136 1.2149,2.3184c0.5298,0.5995 0.1881,1.6862 -0.7481,1.6865h-3.6577c-0.1286,1.9545 -1.7547,3.5 -3.7418,3.5c-1.987,0 -3.61313,-1.5455 -3.74177,-3.5h-3.66047c-0.9531,-0.0003 -1.26343,-1.1 -0.74511,-1.6865l0.25,-0.2979c0.54287,-0.685 0.81634,-1.3127 0.96484,-2.0205c0.17871,-0.8517 0.18262,-1.8323 0.18262,-3.2451c0,-1.75756 0.87656,-3.3249 2.12597,-4.43555c1.24831,-1.10955 2.92222,-1.81445 4.62402,-1.81445c1.7017,0 3.3749,0.705 4.6231,1.81445c1.2494,1.11068 2.1269,2.6779 2.1269,4.43555zM9.76416,17.25c0.12436,1.125 1.07814,2 2.23624,2c1.1582,0 2.1119,-0.875 2.2363,-2z" fill="#002B51"/>
</svg>
