<svg width="24" height="24" viewBox="0 0 24 24" fill="none" xmlns="http://www.w3.org/2000/svg">
<path fill-rule="evenodd" clip-rule="evenodd" d="M12.75 2.99999C12.75 2.58578 12.4142 2.24999 12 2.24999C11.5858 2.24999 11.25 2.58578 11.25 2.99999V4.79509C10.3533 4.90235 9.4812 5.19672 8.69357 5.63295L20.3935 17.3329C20.4173 17.0623 20.3397 16.7808 20.1474 16.5633C19.4355 15.7585 19.1023 15.054 18.9325 14.2451C18.7537 13.3934 18.7503 12.4127 18.7503 11C18.7503 9.24235 17.8732 7.67513 16.6238 6.56445C15.5596 5.61848 14.1864 4.96665 12.75 4.795V2.99999ZM17.1893 18.25L19.4697 20.5304C19.7626 20.8232 20.2374 20.8232 20.5303 20.5304C20.8232 20.2375 20.8232 19.7626 20.5303 19.4697L4.53033 3.4697C4.23744 3.1768 3.76256 3.1768 3.46967 3.4697C3.17678 3.76259 3.17678 4.23746 3.46967 4.53036L6.47412 7.5348C5.7251 8.51599 5.24995 9.70641 5.24995 11C5.24995 12.4128 5.24667 13.3934 5.06796 14.2452C4.89823 15.0541 4.56515 15.7585 3.85332 16.5633C3.33456 17.1498 3.64483 18.25 4.59845 18.25H4.61506H4.63181H4.64869H4.6657H4.68284H4.70011H4.71751H4.73504H4.80645H4.82462H4.84291H4.86133H4.87988H4.89855H4.91735H4.93626H4.95531H4.97447H4.99376H5.01317H5.0327H5.05235H5.07212H5.09201H5.11202H5.13215H5.1524H5.17277H5.19325H5.21385H5.23456H5.2554H5.27634H5.2974H5.31858H5.33987H5.36128H5.53653H5.55893H5.58144H5.60406H5.62678H5.64962H5.67255H5.6956H5.71875H5.74201H5.76537H5.78883H5.8124H5.83607H5.85984H5.88371H5.90769H6.72557H6.75262H6.77976H6.80697H6.83428H6.88913H6.91668H6.94431H7.16824H7.6307H8.11091H8.25847C8.38711 20.2045 10.0132 21.75 12.0003 21.75C13.9873 21.75 15.6134 20.2045 15.7421 18.25H15.7549H15.7865H15.818H15.8494H15.8808H15.9122H15.9434H15.9747H16.0059H16.037H16.068H16.099H16.13H16.1609H16.1917H16.2225H16.2532H16.2839H16.3145H16.345H16.3755H16.4059H16.4362H16.4665H16.4967H16.5269H16.557H16.587H16.617H16.6468H16.6767H16.7064H16.7361H16.7658H16.7953H16.8248H16.8542H16.9128H16.942H16.9712H17.0002H17.0292H17.0581H17.087H17.1158H17.1445H17.1731H17.1893ZM12.0003 20.25C10.8421 20.25 9.88836 19.375 9.764 18.25H10.1688H10.4373H10.471H10.5047H10.5722H10.606H10.6398H10.6736H10.7075H10.7413H10.7752H10.8092H10.8431H10.877H10.911H10.945H10.979H11.2517H11.7995H12.3489H12.6235H12.6579H12.6922H12.7265H12.7607H12.795H12.8293H12.8636H12.8978H12.9321H12.9663H13.0005H13.0347H13.0689H13.1031H13.1373H13.1715H13.2056H13.2398H13.2739H13.308H13.3421H13.3761H13.4102H13.4442H13.4783H13.5123H13.5462H13.5802H13.6142H13.6481H13.682H13.7159H13.7497H13.7836H13.8174H13.8512H13.885H13.9187H13.9524H13.9861H14.0198H14.0535H14.0871H14.1207H14.1542H14.1878H14.2213H14.2365C14.1122 19.375 13.1584 20.25 12.0003 20.25Z" fill="#002B51"/>
</svg>
