<svg width="24" height="24" viewBox="0 0 24 24" fill="none" xmlns="http://www.w3.org/2000/svg">
<path fill-rule="evenodd" clip-rule="evenodd" d="M4.53039,3.46987l16.00001,16.00003l0.0517,0.0566c0.2404,0.2946 0.2229,0.7293 -0.0517,1.0039c-0.2746,0.2746 -0.7093,0.2921 -1.0039,0.0518l-0.0567,-0.0518l-3.2804,-3.2804h-0.4472c-0.1286,1.9545 -1.7547,3.5 -3.7418,3.5c-1.9871,0 -3.61315,-1.5455 -3.7418,-3.5h-3.66046c-0.95311,-0.0003 -1.26344,-1.1 -0.74512,-1.6865l0.25,-0.2979c0.54288,-0.685 0.81634,-1.3127 0.96485,-2.0205c0.17871,-0.8518 0.18262,-1.8323 0.18262,-3.2451c0,-1.04193 0.30805,-2.017 0.81923,-2.86971l-2.59988,-2.59987l-0.05175,-0.05664c-0.24031,-0.29458 -0.22285,-0.7293 0.05175,-1.00391c0.27461,-0.2746 0.70933,-0.29206 1.00391,-0.05175zM20.1479,15.5635c0.3734,0.4225 0.314,1.0869 -0.0813,1.4426l-11.99045,-11.99047c1.14128,-0.78792 2.52335,-1.26563 3.92435,-1.26563c1.7017,0 3.3748,0.70499 4.623,1.81445c1.2495,1.11068 2.127,2.6779 2.127,4.43555c0,1.4127 0.0038,2.3934 0.1826,3.2451c0.1698,0.8089 0.503,1.5136 1.2148,2.3184zM9.76413,17.25c0.12437,1.125 1.07817,2 2.23627,2c1.1581,0 2.1119,-0.875 2.2363,-2z" fill="#002B51"/>
</svg>
