<svg width="24" height="24" viewBox="0 0 24 24" fill="none" xmlns="http://www.w3.org/2000/svg">
<path fill-rule="evenodd" clip-rule="evenodd" d="M7.37678 5.56443C8.62508 4.45488 10.2986 3.75 12.0004 3.75C13.7022 3.75 15.3756 4.45489 16.6238 5.56445C17.8733 6.67513 18.7504 8.24235 18.7504 10C18.7504 11.4127 18.7537 12.3934 18.9325 13.2451C19.1023 14.054 19.4355 14.7585 20.1474 15.5633C20.6777 16.1629 20.336 17.25 19.3993 17.25H17.9157H17.8893H17.8628H17.8095H17.7827H17.7559H17.729H17.702H17.6749H17.6477H17.5931H17.5656H17.5381H17.5105H17.4828H17.4551H17.4272H17.3713H17.3432H17.3151H17.2868H17.2585H17.2301H17.2016H17.1731H17.1445H17.1158H17.087H17.0582H17.0293H17.0003H16.9712H16.9421H16.9129H16.8542H16.8248H16.7953H16.7658H16.7362H16.7065H16.6767H16.6469H16.617H16.587H16.557H16.5269H16.4968H16.4665H16.4362H16.4059H16.3755H16.345H16.3145H16.2839H16.2532H16.2225H16.1918H16.1609H16.13H16.0991H16.0681H16.037H16.0059H15.9747H15.9435H15.9122H15.8808H15.8494H15.818H15.7865H15.7549H15.7421C15.6134 19.2045 13.9874 20.75 12.0003 20.75C10.0132 20.75 8.38714 19.2045 8.25849 17.25H8.11094H7.63072H7.16827H6.94434H6.91671H6.88916H6.8343H6.807H6.77978H6.75265H6.7256H5.90772H5.88374H5.85987H5.83609H5.81242H5.78886H5.76539H5.74203H5.71878H5.69563H5.67258H5.64964H5.62681H5.60408H5.58147H5.55896H5.53655H5.3613H5.3399H5.31861H5.29743H5.27637H5.25542H5.23459H5.21388H5.19328H5.17279H5.15243H5.13218H5.11205H5.09204H5.07215H5.05238H5.03273H5.0132H4.99379H4.9745H4.95533H4.93629H4.91737H4.89858H4.87991H4.86136H4.84294H4.82465H4.80648H4.73507H4.71754H4.70014H4.68287H4.66573H4.64872H4.63184H4.61509H4.59847C3.64486 17.25 3.33459 16.1499 3.85335 15.5633C4.56517 14.7586 4.89825 14.0541 5.06798 13.2452C5.2467 12.3934 5.24998 11.4128 5.24998 10C5.24998 8.24232 6.12723 6.67509 7.37678 5.56443ZM9.76402 17.25C9.88839 18.375 10.8422 19.25 12.0003 19.25C13.1584 19.25 14.1122 18.375 14.2366 17.25H14.2213H14.1878H14.1543H14.1207H14.0871H14.0535H14.0198H13.9862H13.9525H13.9187H13.885H13.8512H13.8174H13.7836H13.7498H13.7159H13.682H13.6481H13.6142H13.5802H13.5463H13.5123H13.4783H13.4443H13.4102H13.3762H13.3421H13.308H13.2739H13.2398H13.2056H13.1715H13.1373H13.1032H13.069H13.0348H13.0006H12.9663H12.9321H12.8978H12.8636H12.8293H12.7951H12.7608H12.7265H12.6922H12.6579H12.6236H12.3489H11.7996H11.2517H10.979H10.945H10.911H10.8771H10.8431H10.8092H10.7753H10.7414H10.7075H10.6737H10.6398H10.606H10.5722H10.5047H10.471H10.4374H10.1689H9.76402Z" fill="#002B51"/>
</svg>
