<svg width="24" height="24" viewBox="0 0 24 24" fill="none" xmlns="http://www.w3.org/2000/svg">
<path fill-rule="evenodd" clip-rule="evenodd" d="M12.75,4.79501c1.4364,0.17165 2.8096,0.82348 3.8738,1.76945c1.2495,1.11067 2.1266,2.6779 2.1266,4.43554c0,1.4127 0.0033,2.3934 0.1821,3.2451c0.1698,0.8089 0.503,1.5134 1.2149,2.3182c0.5303,0.5996 0.1886,1.6867 -0.7481,1.6867h-1.4836h-0.0264h-0.0265h-0.0533h-0.0268h-0.0268h-0.0269h-0.027h-0.0271h-0.0272h-0.0547h-0.0274h-0.0275h-0.0276h-0.0277h-0.0277h-0.0279h-0.0559h-0.0281h-0.0282h-0.0282h-0.0283h-0.0284h-0.0285h-0.0285h-0.0286h-0.0287h-0.0288h-0.0288h-0.0289h-0.029h-0.0291h-0.0291h-0.0292h-0.0587h-0.0294h-0.0295h-0.0295h-0.0296h-0.0297h-0.0298h-0.0298h-0.0299h-0.03h-0.03h-0.0301h-0.0302h-0.0302h-0.0303h-0.0303h-0.0304h-0.0305h-0.0305h-0.0306h-0.0307h-0.0307h-0.0308h-0.0308h-0.0309h-0.0309h-0.031h-0.0311h-0.0311h-0.0312h-0.0312h-0.0313h-0.0314h-0.0314h-0.0314h-0.0315h-0.0316h-0.0128c-0.1287,1.9545 -1.7548,3.5 -3.7418,3.5c-1.9871,0 -3.61317,-1.5455 -3.74181,-3.5h-0.14756h-0.48021h-0.46246h-0.22393h-0.02763h-0.02755h-0.05485h-0.0273h-0.02722h-0.02714h-0.02704h-0.81789h-0.02397h-0.02388h-0.02377h-0.02367h-0.02357h-0.02346h-0.02336h-0.02326h-0.02315h-0.02304h-0.02294h-0.02284h-0.02272h-0.02262h-0.02251h-0.0224h-0.17525h-0.02141h-0.02129h-0.02117h-0.02107h-0.02094h-0.02084h-0.02071h-0.0206h-0.02048h-0.02037h-0.02025h-0.02013h-0.02001h-0.01989h-0.01977h-0.01965h-0.01953h-0.01941h-0.01929h-0.01916h-0.01904h-0.01892h-0.0188h-0.01867h-0.01855h-0.01842h-0.01829h-0.01817h-0.0714h-0.01753h-0.01741h-0.01727h-0.01714h-0.01701h-0.01688h-0.01675h-0.01661c-0.95362,0 -1.26389,-1.1001 -0.74513,-1.6867c0.71183,-0.8047 1.04491,-1.5092 1.21464,-2.3181c0.17871,-0.8518 0.18199,-1.8324 0.18199,-3.2452c0,-1.75768 0.87725,-3.32491 2.1268,-4.43557c1.06407,-0.94579 2.43708,-1.59755 3.87323,-1.76933v-1.7951c0,-0.41421 0.3358,-0.75 0.75,-0.75c0.4142,0 0.75,0.33579 0.75,0.75zM12.0003,20.25c1.1581,0 2.1119,-0.875 2.2363,-2h-0.0153h-0.0335h-0.0335h-0.0336h-0.0336h-0.0336h-0.0337h-0.0336h-0.0337h-0.0338h-0.0337h-0.0338h-0.0338h-0.0338h-0.0338h-0.0339h-0.0339h-0.0339h-0.0339h-0.034h-0.0339h-0.034h-0.034h-0.034h-0.0341h-0.034h-0.0341h-0.0341h-0.0341h-0.0341h-0.0342h-0.0341h-0.0342h-0.0342h-0.0341h-0.0342h-0.0343h-0.0342h-0.0342h-0.0343h-0.0342h-0.0343h-0.0343h-0.0342h-0.0343h-0.0343h-0.0343h-0.0343h-0.2747h-0.5493h-0.5479h-0.2727h-0.034h-0.034h-0.0339h-0.034h-0.0339h-0.0339h-0.0339h-0.0339h-0.0339h-0.0338h-0.0338h-0.0338h-0.0675h-0.0337h-0.0336h-0.2685h-0.40488c0.12436,1.125 1.07808,2 2.23628,2zM17.4645,14.5533c-0.2142,-1.0207 -0.2142,-2.155 -0.2141,-3.4919v-0.0614c0,-1.24235 -0.6227,-2.42513 -1.6232,-3.31445c-1.0017,-0.89044 -2.3283,-1.43555 -3.6268,-1.43555c-1.2986,0 -2.6253,0.54512 -3.62711,1.43557c-1.00055,0.88934 -1.62332,2.07211 -1.62332,3.31443v0.063c0.00006,1.3361 0.0001,2.47 -0.21396,3.4902c-0.16415,0.7823 -0.45076,1.4903 -0.92885,2.1968h3.39313h6.00001h3.3932c-0.4781,-0.7065 -0.7648,-1.4144 -0.929,-2.1967z" fill="#002B51"/>
</svg>
