<svg width="24" height="24" viewBox="0 0 24 24" fill="none" xmlns="http://www.w3.org/2000/svg">
<path fill-rule="evenodd" clip-rule="evenodd" d="M12.75,4.79501c1.4363,0.17165 2.8094,0.82355 3.8736,1.76945c1.2494,1.11067 2.1269,2.6779 2.1269,4.43554c0,1.4127 0.0038,2.3934 0.1826,3.2451c0.1698,0.8089 0.503,1.5136 1.2149,2.3184c0.5298,0.5995 0.1881,1.6862 -0.7481,1.6865h-3.6577c-0.1286,1.9545 -1.7547,3.5 -3.7418,3.5c-1.987,0 -3.61313,-1.5455 -3.74177,-3.5h-3.66047c-0.9531,-0.0003 -1.26343,-1.1 -0.74511,-1.6865l0.25,-0.2979c0.54287,-0.685 0.81634,-1.3127 0.96484,-2.0205c0.17871,-0.8517 0.18262,-1.8323 0.18262,-3.2451c0,-1.75756 0.87656,-3.3249 2.12597,-4.43554c1.06405,-0.94577 2.43732,-1.59754 3.87352,-1.76935v-1.79511c0,-0.41421 0.3358,-0.75 0.75,-0.75c0.4142,0 0.75,0.33579 0.75,0.75zM17.2505,11c0,-1.24233 -0.6226,-2.42513 -1.623,-3.31445c-1.0017,-0.89044 -2.3285,-1.43555 -3.627,-1.43555c-1.2985,0 -2.62515,0.54514 -3.62695,1.43555c-1.00055,0.88934 -1.62304,2.07213 -1.62304,3.31445v0.046c0.00003,1.3434 0.00005,2.4823 -0.21485,3.5067c-0.16423,0.7828 -0.45214,1.4904 -0.93066,2.1973h3.39542h5.99998h3.3956c-0.4785,-0.7067 -0.7673,-1.4137 -0.9316,-2.1963c-0.214,-1.0193 -0.214,-2.1525 -0.2139,-3.4872zM12.0004,20.25c1.1582,0 2.1119,-0.875 2.2363,-2h-4.47254c0.12436,1.125 1.07814,2 2.23624,2z" fill="#002B51"/>
</svg>
