<svg width="24" height="24" viewBox="0 0 24 24" fill="none" xmlns="http://www.w3.org/2000/svg">
<path fill-rule="evenodd" clip-rule="evenodd" d="M12.0004 3.75C10.2986 3.75 8.62508 4.45488 7.37678 5.56443C6.12723 6.67509 5.24998 8.24232 5.24998 10C5.24998 11.4128 5.2467 12.3934 5.06798 13.2452C4.89825 14.0541 4.56517 14.7586 3.85335 15.5633C3.33459 16.1499 3.64486 17.25 4.59847 17.25H4.61509H4.63184H4.64872H4.66573H4.68287H4.70014H4.71754H4.73507H4.80648H4.82465H4.84294H4.86136H4.87991H4.89858H4.91737H4.93629H4.95533H4.9745H4.99379H5.0132H5.03273H5.05238H5.07215H5.09204H5.11205H5.13218H5.15243H5.17279H5.19328H5.21388H5.23459H5.25542H5.27637H5.29743H5.31861H5.3399H5.3613H5.53655H5.55896H5.58147H5.60408H5.62681H5.64964H5.67258H5.69563H5.71878H5.74203H5.76539H5.78886H5.81242H5.83609H5.85987H5.88374H5.90772H6.7256H6.75265H6.77978H6.807H6.8343H6.88916H6.91671H6.94434H7.16827H7.63072H8.11094H8.25849C8.38714 19.2045 10.0132 20.75 12.0003 20.75C13.9874 20.75 15.6134 19.2045 15.7421 17.25H15.7549H15.7865H15.818H15.8494H15.8808H15.9122H15.9435H15.9747H16.0059H16.037H16.0681H16.0991H16.13H16.1609H16.1918H16.2225H16.2532H16.2839H16.3145H16.345H16.3755H16.4059H16.4362H16.4665H16.4968H16.5269H16.557H16.587H16.617H16.6469H16.6767H16.7065H16.7362H16.7658H16.7953H16.8248H16.8542H16.9129H16.9421H16.9712H17.0003H17.0293H17.0582H17.087H17.1158H17.1445H17.1731H17.2016H17.2301H17.2585H17.2868H17.3151H17.3432H17.3713H17.4272H17.4551H17.4828H17.5105H17.5381H17.5656H17.5931H17.6477H17.6749H17.702H17.729H17.7559H17.7828H17.8095H17.8628H17.8893H17.9157H19.3993C20.336 17.25 20.6777 16.1629 20.1474 15.5633C19.4355 14.7585 19.1023 14.054 18.9325 13.2451C18.7537 12.3934 18.7504 11.4127 18.7504 10C18.7504 8.24235 17.8733 6.67513 16.6238 5.56445C15.3756 4.45489 13.7022 3.75 12.0004 3.75ZM14.2366 17.25C14.1122 18.375 13.1584 19.25 12.0003 19.25C10.8422 19.25 9.88839 18.375 9.76402 17.25H10.1689H10.4374H10.471H10.5047H10.5722H10.606H10.6398H10.6737H10.7075H10.7414H10.7753H10.8092H10.8431H10.8771H10.911H10.945H10.979H11.2517H11.7996H12.3489H12.6236H12.6579H12.6922H12.7265H12.7608H12.7951H12.8293H12.8636H12.8978H12.9321H12.9663H13.0006H13.0348H13.069H13.1032H13.1373H13.1715H13.2056H13.2398H13.2739H13.308H13.3421H13.3762H13.4102H13.4443H13.4783H13.5123H13.5463H13.5802H13.6142H13.6481H13.682H13.7159H13.7498H13.7836H13.8174H13.8512H13.885H13.9187H13.9525H13.9862H14.0198H14.0535H14.0871H14.1207H14.1543H14.1878H14.2213H14.2366ZM15.0003 15.75H18.3935C17.9154 15.0435 17.6288 14.3356 17.4645 13.5533C17.2503 12.5326 17.2503 11.3983 17.2504 10.0614L17.2504 10C17.2504 8.75765 16.6277 7.57487 15.6272 6.68555C14.6255 5.79511 13.2989 5.25 12.0004 5.25C10.7018 5.25 9.3751 5.79512 8.3733 6.68557C7.37274 7.57491 6.74998 8.75768 6.74998 10L6.74998 10.063C6.75003 11.3991 6.75008 12.533 6.53602 13.5532C6.37187 14.3355 6.08526 15.0435 5.60717 15.75H9.00029H15.0003Z" fill="#002B51"/>
</svg>
