<svg width="24" height="24" viewBox="0 0 24 24" fill="none" xmlns="http://www.w3.org/2000/svg">
<path d="M3.46973,3.46971c0.27456,-0.27454 0.70933,-0.29194 1.0039,-0.05176l0.05664,0.05176l16.00003,15.99999l0.0517,0.0567c0.2403,0.2945 0.2229,0.7293 -0.0517,1.0039c-0.2746,0.2746 -0.7094,0.292 -1.0039,0.0517l-0.0567,-0.0517l-2.2802,-2.2803h-1.4483c-0.1287,1.9544 -1.7542,3.4999 -3.7412,3.5c-1.9869,-0.0002 -3.61255,-1.5456 -3.74121,-3.5h-3.66113c-0.95275,-0.0006 -1.26316,-1.1001 -0.74512,-1.6865l0.25,-0.2979c0.54286,-0.685 0.81634,-1.3127 0.96484,-2.0205c0.17872,-0.8518 0.18262,-1.8323 0.18262,-3.2451c0,-1.2936 0.47495,-2.48442 1.22363,-3.46584l-3.0039,-3.0039l-0.05176,-0.05664c-0.24018,-0.29458 -0.2228,-0.72935 0.05176,-1.00391zM9.76465,18.25c0.1244,1.1248 1.07745,1.9998 2.23535,2c1.1581,-0.0001 2.1109,-0.8751 2.2354,-2zM12,2.24998c0.4141,0.0002 0.75,0.33591 0.75,0.75v1.7959c1.436,0.17176 2.8091,0.82289 3.873,1.76856c1.2495,1.11067 2.127,2.6779 2.127,4.43556c0,1.4127 0.0038,2.3934 0.1826,3.2451c0.1698,0.8088 0.5031,1.5137 1.2149,2.3184c0.1917,0.2169 0.2675,0.4975 0.2441,0.7675l-11.69824,-11.6982c0.78762,-0.43583 1.66014,-0.72968 2.55664,-0.83692v-1.7959c0,-0.4141 0.3359,-0.74981 0.75,-0.75z" fill="#002B51"/>
</svg>
