<svg width="24" height="24" viewBox="0 0 24 24" fill="none" xmlns="http://www.w3.org/2000/svg">
<path fill-rule="evenodd" clip-rule="evenodd" d="M20.5303,19.4697c0.2929,0.2929 0.2929,0.7678 0,1.0607c-0.2929,0.2928 -0.7677,0.2928 -1.0606,0l-3.2804,-3.2804h-0.0284h-0.0309h-0.0309h-0.0311h-0.031h-0.0311h-0.0312h-0.0313h-0.0312h-0.0314h-0.0314h-0.0314h-0.0315h-0.0316h-0.0128c-0.1287,1.9545 -1.7548,3.5 -3.7418,3.5c-1.9871,0 -3.61318,-1.5455 -3.74183,-3.5h-0.14756h-0.48021h-0.46245h-0.22394h-0.02763h-0.02755h-0.05485h-0.0273h-0.02722h-0.02713h-0.02705h-0.81788h-0.02398h-0.02387h-0.02378h-0.02367h-0.02357h-0.02346h-0.02336h-0.02325h-0.02315h-0.02305h-0.02294h-0.02283h-0.02273h-0.02262h-0.02251h-0.0224h-0.17525h-0.0214h-0.02129h-0.02118h-0.02106h-0.02095h-0.02083h-0.02072h-0.0206h-0.02048h-0.02036h-0.02025h-0.02013h-0.02001h-0.01989h-0.01977h-0.01966h-0.01953h-0.01941h-0.01928h-0.01917h-0.01904h-0.01892h-0.01879h-0.01867h-0.01855h-0.01842h-0.0183h-0.01817h-0.0714h-0.01753h-0.0174h-0.01727h-0.01714h-0.01701h-0.01688h-0.01675h-0.01662c-0.95361,0 -1.26389,-1.1002 -0.74512,-1.6867c0.71182,-0.8048 1.0449,-1.5092 1.21463,-2.3181c0.17871,-0.8518 0.182,-1.8324 0.182,-3.24521c0,-1.04197 0.30828,-2.01701 0.81966,-2.86969l-2.59995,-2.59995c-0.29289,-0.29289 -0.29289,-0.76776 0,-1.06066c0.29289,-0.29289 0.76777,-0.29289 1.06066,0zM20.1474,15.5633c0.3736,0.4224 0.3144,1.0869 -0.0808,1.4426l-11.9903,-11.99022c1.1412,-0.78796 2.523,-1.26569 3.9241,-1.26569c1.7018,0 3.3752,0.70489 4.6234,1.81445c1.2494,1.11068 2.1266,2.6779 2.1266,4.43555c0,1.41271 0.0033,2.39331 0.1821,3.24511c0.1698,0.8089 0.503,1.5134 1.2149,2.3182zM9.764,17.25c0.12436,1.125 1.0781,2 2.2363,2c1.1581,0 2.1119,-0.875 2.2362,-2h-0.0152h-0.0335h-0.0336h-0.0335h-0.0336h-0.0336h-0.0337h-0.0337h-0.0337h-0.0337h-0.0337h-0.0338h-0.0338h-0.0338h-0.0339h-0.0338h-0.0339h-0.0339h-0.0339h-0.034h-0.0339h-0.034h-0.034h-0.0341h-0.034h-0.0341h-0.034h-0.0341h-0.0341h-0.0341h-0.0342h-0.0341h-0.0342h-0.0342h-0.0342h-0.0342h-0.0342h-0.0342h-0.0342h-0.0343h-0.0342h-0.0343h-0.0343h-0.0342h-0.0343h-0.0343h-0.0343h-0.0343h-0.2747h-0.5494h-0.5478h-0.2727h-0.034h-0.034h-0.034h-0.0339h-0.0339h-0.034h-0.0338h-0.0339h-0.0339h-0.0338h-0.0338h-0.0338h-0.0675h-0.0337h-0.0337h-0.2684z" fill="#002B51"/>
</svg>
