<svg width="24" height="24" viewBox="0 0 24 24" fill="none" xmlns="http://www.w3.org/2000/svg">
<path d="M3.46975,3.46973c0.27456,-0.27455 0.70933,-0.29195 1.0039,-0.05176l0.05664,0.05176l16.00001,15.99997l0.0518,0.0567c0.2403,0.2945 0.2228,0.7293 -0.0518,1.0039c-0.2746,0.2746 -0.7093,0.292 -1.0039,0.0517l-0.0567,-0.0517l-2.2802,-2.2803h-1.4483c-0.1286,1.9545 -1.7542,3.5 -3.7412,3.5c-1.9869,-0.0002 -3.61253,-1.5456 -3.74119,-3.5h-3.66113c-0.95275,-0.0006 -1.26317,-1.1001 -0.74512,-1.6865l0.25,-0.2979c0.54286,-0.6849 0.81634,-1.3127 0.96484,-2.0205c0.17872,-0.8517 0.18262,-1.8323 0.18262,-3.2451c0,-1.29359 0.47495,-2.4844 1.22363,-3.46582l-3.0039,-3.00391l-0.05176,-0.05664c-0.24019,-0.29458 -0.2228,-0.72934 0.05176,-1.0039zM9.76467,18.25c0.1244,1.1248 1.07743,1.9998 2.23533,2c1.1581,0 2.111,-0.8751 2.2354,-2zM12,2.25c0.4141,0.00019 0.75,0.33591 0.75,0.75v1.7959c1.436,0.17175 2.8091,0.82288 3.8731,1.76855c1.2494,1.11068 2.1269,2.6779 2.1269,4.43555c0,1.4127 0.0039,2.3934 0.1826,3.2451c0.1698,0.8089 0.5031,1.5137 1.2149,2.3184c0.1917,0.2169 0.2675,0.4976 0.2441,0.7676l-2.9609,-2.961c-0.1812,-0.9888 -0.1807,-2.0863 -0.1807,-3.3701c0,-1.24233 -0.6226,-2.42514 -1.623,-3.31445c-1.0017,-0.89034 -2.3285,-1.43555 -3.627,-1.43555c-0.7431,0.00006 -1.496,0.17836 -2.19139,0.49805l-1.11523,-1.11524c0.78762,-0.43582 1.66012,-0.72967 2.55662,-0.83691v-1.7959c0,-0.4141 0.336,-0.74982 0.75,-0.75zM7.5469,8.60742c-0.5048,0.7197 -0.79688,1.54218 -0.79688,2.39258c0,1.3634 0.0025,2.5166 -0.21484,3.5527c-0.16424,0.7828 -0.45216,1.4904 -0.93067,2.1973h10.08499z" fill="#002B51"/>
</svg>
