<svg width="24" height="24" viewBox="0 0 24 24" fill="none" xmlns="http://www.w3.org/2000/svg">
<path fill-rule="evenodd" clip-rule="evenodd" d="M12 4C11.5858 4 11.25 4.33579 11.25 4.75C11.25 5.16421 11.5858 5.5 12 5.5H14.4343L15.0945 7.81085L9.71467 12.7189L8.11186 8.75H9.00012C9.41434 8.75 9.75012 8.41421 9.75012 8C9.75012 7.58579 9.41434 7.25 9.00012 7.25H7.00012H5.50012C5.08591 7.25 4.75012 7.58579 4.75012 8C4.75012 8.41421 5.08591 8.75 5.50012 8.75H6.49416L8.72777 14.2808C8.73232 14.2921 8.73714 14.3033 8.74223 14.3143L9.31915 15.5643C9.49273 15.9404 9.93833 16.1045 10.3144 15.931C10.6905 15.7574 10.8547 15.3118 10.6811 14.9357L10.3342 14.1841L15.5547 9.42147L15.99 10.945C14.3714 11.702 13.25 13.3451 13.25 15.25C13.25 17.8734 15.3766 20 18 20C20.6234 20 22.75 17.8734 22.75 15.25C22.75 12.6266 20.6234 10.5 18 10.5C17.8079 10.5 17.6185 10.5114 17.4325 10.5336L15.7211 4.54396C15.6291 4.22198 15.3349 4 15 4H12ZM17.4325 10.5336L18.7211 15.044C18.8349 15.4422 18.6043 15.8573 18.206 15.9711C17.8078 16.0849 17.3927 15.8543 17.2789 15.456L15.99 10.945C16.4372 10.7358 16.9224 10.5943 17.4325 10.5336ZM5.92545 11.0265C5.78585 10.7028 5.43968 10.52 5.09366 10.5873C4.34545 10.7327 3.64323 11.0561 3.0463 11.53C2.44937 12.004 1.97527 12.6147 1.66404 13.3104C1.3528 14.0062 1.21358 14.7667 1.25812 15.5276C1.30266 16.2885 1.52966 17.0275 1.91994 17.6822C2.31023 18.3369 2.85234 18.8881 3.50048 19.2892C4.14863 19.6903 4.88379 19.9295 5.64385 19.9866C6.40392 20.0438 7.16658 19.9172 7.86741 19.6175C8.18671 19.481 8.48891 19.3104 8.76907 19.1094C9.05547 18.9039 9.16012 18.5267 9.02053 18.203L5.92545 11.0265Z" fill="#002B51"/>
</svg>
