<svg width="24" height="24" viewBox="0 0 24 24" fill="none" xmlns="http://www.w3.org/2000/svg">
<path fill-rule="evenodd" clip-rule="evenodd" d="M11.5001 4C11.0858 4 10.7501 4.33579 10.7501 4.75C10.7501 5.16421 11.0858 5.5 11.5001 5.5H13.4832L14.3736 7.83738L12.1526 11.1105L8.87839 8H9C9.41421 8 9.75 7.66421 9.75 7.25C9.75 6.83579 9.41421 6.5 9 6.5H7H5.5C5.08579 6.5 4.75 6.83579 4.75 7.25C4.75 7.66421 5.08579 8 5.5 8H6.70054L11.2989 12.3685L10.4584 13.6072C9.78978 11.7934 8.046 10.5 6.00012 10.5C3.37677 10.5 1.25012 12.6266 1.25012 15.25C1.25012 17.8734 3.37677 20 6.00012 20C8.39699 20 10.3792 18.2247 10.7036 15.9173L10.6475 16H10.2501H6.00012C5.58591 16 5.25012 15.6642 5.25012 15.25C5.25012 14.8358 5.58591 14.5 6.00012 14.5H9.85262L10.4584 13.6073C10.6471 14.1192 10.7501 14.6726 10.7501 15.25C10.7501 15.4764 10.7343 15.6991 10.7036 15.9171L10.8705 15.6711L15.0254 9.54828L15.6291 11.1331C16.0585 10.8853 16.5302 10.7027 17.0308 10.599L14.7009 4.483C14.5901 4.19219 14.3113 4 14.0001 4H11.5001ZM13.25 15.2501C13.25 13.4902 14.2071 11.9539 15.6291 11.1332L17.2991 15.5171C17.4466 15.9042 17.8799 16.0984 18.267 15.9509C18.6541 15.8035 18.8483 15.3702 18.7009 14.9831L17.0308 10.599C17.3437 10.5342 17.6679 10.5001 18 10.5001C20.6234 10.5001 22.75 12.6267 22.75 15.2501C22.75 17.8734 20.6234 20.0001 18 20.0001C15.3766 20.0001 13.25 17.8734 13.25 15.2501Z" fill="#002B51"/>
</svg>
