<svg width="24" height="24" viewBox="0 0 24 24" fill="none" xmlns="http://www.w3.org/2000/svg">
<path fill-rule="evenodd" clip-rule="evenodd" d="M15,4l0.123,0.00977c0.2821,0.04676 0.5171,0.25239 0.5977,0.53418l3,10.49995l0.0176,0.0752c0.0667,0.3741 -0.1591,0.7449 -0.5323,0.8516c-0.3735,0.1067 -0.7616,-0.0891 -0.9023,-0.4424l-0.0244,-0.0722l-1.7245,-6.03549l-5.2207,4.76299l0.3467,0.7519l0.0293,0.0713c0.1235,0.3594 -0.0431,0.7611 -0.3956,0.9239c-0.35269,0.1628 -0.76666,0.0287 -0.95991,-0.2989l-0.03516,-0.0673l-0.57715,-1.25c-0.00504,-0.011 -0.01014,-0.0221 -0.01465,-0.0333l-2.2334,-5.5312h-0.99414c-0.41421,0 -0.75,-0.33579 -0.75,-0.75c0,-0.41421 0.33579,-0.75 0.75,-0.75h3.5c0.41422,0 0.75,0.33579 0.75,0.75c0,0.41421 -0.33578,0.75 -0.75,0.75h-0.88867l1.60254,3.9688l5.38084,-4.90814l-0.6603,-2.31066h-2.4345c-0.4142,0 -0.75,-0.33579 -0.75,-0.75c0,-0.41421 0.3358,-0.75 0.75,-0.75zM5.37985,12.0596l-0.19043,0.0429c-0.3775,0.0973 -0.7344,0.2618 -1.05371,0.4854l-0.15625,0.1172c-0.35735,0.2837 -0.65099,0.6387 -0.86132,1.042l-0.08497,0.1758c-0.21289,0.4759 -0.30773,0.9961 -0.27734,1.5166l0.0166,0.1953c0.05382,0.4514 0.20203,0.8875 0.43555,1.2793l0.10547,0.165c0.25592,0.3759 0.58863,0.6945 0.97656,0.9346l0.16895,0.0976c0.40031,0.2156 0.84203,0.3457 1.29687,0.3799l0.19531,0.0088c0.45477,0.0068 0.90663,-0.0824 1.32618,-0.2617c0.47952,-0.205 0.90335,-0.5228 1.23437,-0.9258c0.26298,-0.3197 0.73572,-0.3663 1.05566,-0.1035c0.3199,0.2628 0.36606,0.7356 0.10352,1.0556c-0.4838,0.589 -1.10287,1.0529 -1.80371,1.3526c-0.61327,0.2622 -1.2737,0.3918 -1.93848,0.3818l-0.28515,-0.0127c-0.66513,-0.05 -1.31115,-0.2393 -1.89649,-0.5547l-0.24707,-0.1425c-0.56695,-0.351 -1.05276,-0.8168 -1.42676,-1.3662l-0.15332,-0.2403c-0.34154,-0.5729 -0.55812,-1.2108 -0.63672,-1.8711l-0.02539,-0.2842c-0.04449,-0.7608 0.09508,-1.5211 0.40625,-2.2168l0.12403,-0.2568c0.30734,-0.5894 0.73561,-1.1087 1.25781,-1.5234l0.22949,-0.1709c0.54446,-0.3813 1.1638,-0.6453 1.81836,-0.7725l0.07617,-0.0107c0.37847,-0.0343 0.72866,0.2234 0.80274,0.6045c0.0789,0.4065 -0.18626,0.7998 -0.59278,0.8789zM8.51169,17.3125l0.5791,0.4766l0.58008,0.4755zM20.1123,10.9951l0.3125,0.1699c0.713,0.4232 1.3049,1.0271 1.7139,1.753l0.1631,0.3164c0.3015,0.6435 0.4545,1.3469 0.4482,2.0576l-0.0166,0.3555c-0.0797,0.9488 -0.4427,1.8518 -1.042,2.5918c-0.5242,0.6474 -1.2081,1.1439 -1.9814,1.4423l-0.3369,0.1153c-0.7977,0.2408 -1.6427,0.2671 -2.4502,0.0791l-0.3438,-0.0938c-0.7949,-0.2492 -1.5082,-0.7022 -2.0703,-1.3115l-0.2314,-0.2705c-0.5914,-0.7462 -0.9449,-1.653 -1.0147,-2.6025c-0.0697,-0.9496 0.148,-1.8982 0.624,-2.7227c0.2072,-0.3586 0.6658,-0.4815 1.0245,-0.2744c0.3585,0.2071 0.4814,0.6658 0.2744,1.0244c-0.3258,0.5642 -0.4745,1.2135 -0.4268,1.8633c0.0478,0.6496 0.2898,1.2698 0.6944,1.7803l0.1582,0.1855c0.3846,0.4168 0.873,0.727 1.4169,0.8975l0.2344,0.0634c0.5526,0.1288 1.1309,0.1111 1.6768,-0.0537l0.2304,-0.0791c0.5292,-0.2041 0.9968,-0.5443 1.3555,-0.9873c0.41,-0.5063 0.6584,-1.1242 0.7129,-1.7734l0.0117,-0.2432c0.0043,-0.486 -0.1004,-0.9671 -0.3066,-1.4072l-0.1123,-0.2168c-0.2799,-0.4965 -0.6842,-0.9097 -1.1719,-1.1992l-0.2139,-0.1162l-0.0673,-0.0371c-0.3216,-0.2025 -0.4439,-0.62 -0.2715,-0.9678c0.1727,-0.348 0.5796,-0.5032 0.9355,-0.3692z" fill="#002B51"/>
</svg>
