<svg width="24" height="24" viewBox="0 0 24 24" fill="none" xmlns="http://www.w3.org/2000/svg">
<path fill-rule="evenodd" clip-rule="evenodd" d="M11.25 4.75C11.25 4.33579 11.5858 4 12 4H15C15.3349 4 15.6292 4.22198 15.7211 4.54396L18.7211 15.044C18.8349 15.4422 18.6043 15.8573 18.206 15.9711C17.8078 16.0849 17.3927 15.8543 17.2789 15.456L15.5547 9.42146L10.3342 14.1841L10.6811 14.9357C10.8547 15.3118 10.6905 15.7574 10.3144 15.931C9.93833 16.1045 9.49273 15.9404 9.31915 15.5643L8.74223 14.3143C8.73714 14.3033 8.73232 14.2921 8.72777 14.2808L6.49416 8.75H5.50012C5.08591 8.75 4.75012 8.41421 4.75012 8C4.75012 7.58579 5.08591 7.25 5.50012 7.25H7.00012H9.00012C9.41434 7.25 9.75012 7.58579 9.75012 8C9.75012 8.41421 9.41434 8.75 9.00012 8.75H8.11186L9.71467 12.7189L15.0945 7.81085L14.4343 5.5H12C11.5858 5.5 11.25 5.16421 11.25 4.75ZM5.37987 12.0597C5.78648 11.9807 6.05202 11.587 5.97299 11.1804C5.89395 10.7738 5.50026 10.5082 5.09366 10.5873C4.34545 10.7327 3.64323 11.0561 3.0463 11.53C2.44937 12.004 1.97527 12.6147 1.66404 13.3104C1.3528 14.0062 1.21358 14.7667 1.25812 15.5276C1.30266 16.2885 1.52966 17.0275 1.91994 17.6822C2.31023 18.3369 2.85234 18.8881 3.50048 19.2892C4.14863 19.6903 4.88379 19.9295 5.64385 19.9866C6.40392 20.0438 7.16658 19.9172 7.86741 19.6175C8.56825 19.3179 9.18669 18.854 9.67049 18.265C9.9334 17.9449 9.88706 17.4723 9.56698 17.2094C9.24691 16.9465 8.7743 16.9928 8.51138 17.3129C8.18036 17.7159 7.75723 18.0333 7.2777 18.2383C6.79818 18.4433 6.27637 18.53 5.75632 18.4909C5.23627 18.4517 4.73328 18.2881 4.28981 18.0136C3.84634 17.7392 3.47542 17.3621 3.20838 16.9141C2.94134 16.4662 2.78603 15.9605 2.75555 15.4399C2.72508 14.9193 2.82034 14.399 3.03329 13.9229C3.24624 13.4469 3.57063 13.0291 3.97905 12.7048C4.38747 12.3805 4.86794 12.1592 5.37987 12.0597ZM20.1121 10.9954C19.7411 10.8112 19.291 10.9627 19.1068 11.3337C18.9226 11.7047 19.0741 12.1548 19.4451 12.3389C20.0287 12.6286 20.5117 13.087 20.8315 13.6546C21.1513 14.2221 21.2932 14.8728 21.2387 15.522C21.1841 16.1712 20.9358 16.789 20.5258 17.2953C20.1158 17.8016 19.5631 18.173 18.9394 18.3613C18.3157 18.5496 17.6498 18.5461 17.0282 18.3513C16.4065 18.1565 15.8577 17.7793 15.4531 17.2687C15.0484 16.7582 14.8065 16.1378 14.7588 15.488C14.7111 14.8383 14.8597 14.1892 15.1855 13.625C15.3926 13.2663 15.2697 12.8076 14.911 12.6005C14.5522 12.3934 14.0935 12.5163 13.8864 12.875C13.4103 13.6996 13.1931 14.6483 13.2628 15.5979C13.3325 16.5475 13.6861 17.4542 14.2775 18.2005C14.869 18.9467 15.671 19.4979 16.5796 19.7826C17.4882 20.0674 18.4614 20.0725 19.373 19.7973C20.2845 19.5221 21.0923 18.9793 21.6915 18.2393C22.2907 17.4993 22.6537 16.5963 22.7334 15.6475C22.8131 14.6986 22.6057 13.7478 22.1383 12.9182C21.6709 12.0887 20.9649 11.4187 20.1121 10.9954Z" fill="#002B51"/>
</svg>
