<svg width="24" height="24" viewBox="0 0 24 24" fill="none" xmlns="http://www.w3.org/2000/svg">
<path fill-rule="evenodd" clip-rule="evenodd" d="M11.25,4.75c0,-0.41421 0.3358,-0.75 0.75,-0.75h3c0.3349,0 0.6292,0.22198 0.7211,0.54396l3,10.50004c0.1138,0.3982 -0.1168,0.8133 -0.5151,0.9271c-0.3982,0.1138 -0.8133,-0.1168 -0.9271,-0.5151l-1.7242,-6.03454l-5.2205,4.76264l0.3469,0.7516c0.1736,0.3761 0.0094,0.8217 -0.3667,0.9953c-0.37607,0.1735 -0.82167,0.0094 -0.99525,-0.3667l-0.57692,-1.25c-0.00509,-0.011 -0.00991,-0.0222 -0.01446,-0.0335l-2.23361,-5.5308h-0.99404c-0.41421,0 -0.75,-0.33579 -0.75,-0.75c0,-0.41421 0.33579,-0.75 0.75,-0.75h1.5h2c0.41422,0 0.75,0.33579 0.75,0.75c0,0.41421 -0.33578,0.75 -0.75,0.75h-0.88826l1.60281,3.9689l5.37983,-4.90805l-0.6602,-2.31085h-2.4343c-0.4142,0 -0.75,-0.33579 -0.75,-0.75zM3.97905,12.7048c-0.40842,0.3243 -0.73281,0.7421 -0.94576,1.2181c-0.21295,0.4761 -0.30821,0.9964 -0.27774,1.517c0.03048,0.5206 0.18579,1.0263 0.45283,1.4742c0.26704,0.448 0.63796,0.8251 1.08143,1.0995c0.44347,0.2745 0.94646,0.4381 1.46651,0.4773c0.52005,0.0391 1.04186,-0.0476 1.52138,-0.2526c0.47953,-0.205 0.90266,-0.5224 1.23368,-0.9254c0.26292,-0.3201 0.73553,-0.3664 1.0556,-0.1035c0.32008,0.2629 0.36642,0.7355 0.10351,1.0556c-0.4838,0.589 -1.10224,1.0529 -1.80308,1.3525c-0.70083,0.2997 -1.46349,0.4263 -2.22356,0.3691c-0.76006,-0.0571 -1.49522,-0.2963 -2.14337,-0.6974c-0.64814,-0.4011 -1.19025,-0.9523 -1.58054,-1.607c-0.39028,-0.6547 -0.61728,-1.3937 -0.66182,-2.1546c-0.04454,-0.7609 0.09468,-1.5214 0.40592,-2.2172c0.31123,-0.6957 0.78533,-1.3064 1.38226,-1.7804c0.59693,-0.4739 1.29915,-0.7973 2.04736,-0.9427c0.4066,-0.0791 0.80029,0.1865 0.87933,0.5931c0.07903,0.4066 -0.18651,0.8003 -0.59312,0.8793c-0.51193,0.0995 -0.9924,0.3208 -1.40082,0.6451zM22.1383,12.9182c0.4674,0.8296 0.6748,1.7804 0.5951,2.7293c-0.0797,0.9488 -0.4427,1.8518 -1.0419,2.5918c-0.5992,0.74 -1.407,1.2828 -2.3185,1.558c-0.9116,0.2752 -1.8848,0.2701 -2.7934,-0.0147c-0.9086,-0.2847 -1.7106,-0.8359 -2.3021,-1.5821c-0.5914,-0.7463 -0.945,-1.653 -1.0147,-2.6026c-0.0697,-0.9496 0.1475,-1.8983 0.6236,-2.7229c0.2071,-0.3587 0.6658,-0.4816 1.0246,-0.2745c0.3587,0.2071 0.4816,0.6658 0.2745,1.0245c-0.3258,0.5642 -0.4744,1.2133 -0.4267,1.863c0.0477,0.6498 0.2896,1.2702 0.6943,1.7807c0.4046,0.5106 0.9534,0.8878 1.5751,1.0826c0.6216,0.1948 1.2875,0.1983 1.9112,0.01c0.6237,-0.1883 1.1764,-0.5597 1.5864,-1.066c0.41,-0.5063 0.6583,-1.1241 0.7129,-1.7733c0.0545,-0.6492 -0.0874,-1.2999 -0.4072,-1.8674c-0.3198,-0.5676 -0.8028,-1.026 -1.3864,-1.3157c-0.371,-0.1841 -0.5225,-0.6342 -0.3383,-1.0052c0.1842,-0.371 0.6343,-0.5225 1.0053,-0.3383c0.8528,0.4233 1.5588,1.0933 2.0262,1.9228z" fill="#002B51"/>
</svg>
