<svg width="24" height="24" viewBox="0 0 24 24" fill="none" xmlns="http://www.w3.org/2000/svg">
<path fill-rule="evenodd" clip-rule="evenodd" d="M15,4c0.3349,0 0.6291,0.22198 0.7211,0.54396l1.7114,5.98964c0.186,-0.0222 0.3754,-0.0336 0.5675,-0.0336c2.6234,0 4.75,2.1266 4.75,4.75c0,2.6234 -2.1266,4.75 -4.75,4.75c-2.6234,0 -4.75,-2.1266 -4.75,-4.75c0,-1.9049 1.1214,-3.548 2.74,-4.305l-0.4353,-1.52353l-5.2205,4.76263l0.3469,0.7516c0.1736,0.3761 0.0094,0.8217 -0.3667,0.9953c-0.37607,0.1735 -0.82167,0.0094 -0.99525,-0.3667l-0.57692,-1.25c-0.00509,-0.011 -0.00991,-0.0222 -0.01446,-0.0335l-2.23361,-5.5308h-0.99404c-0.41421,0 -0.75,-0.33579 -0.75,-0.75c0,-0.41421 0.33579,-0.75 0.75,-0.75h1.5h2c0.41422,0 0.75,0.33579 0.75,0.75c0,0.41421 -0.33578,0.75 -0.75,0.75h-0.88826l1.60281,3.9689l5.37983,-4.90805l-0.6602,-2.31085h-2.4343c-0.4142,0 -0.75,-0.33579 -0.75,-0.75c0,-0.41421 0.3358,-0.75 0.75,-0.75zM15.99,10.945l1.2889,4.511c0.1138,0.3983 0.5289,0.6289 0.9271,0.5151c0.3983,-0.1138 0.6289,-0.5289 0.5151,-0.9271l-1.2886,-4.5104c-0.5101,0.0607 -0.9953,0.2022 -1.4425,0.4114zM9.02053,18.203c0.13959,0.3237 0.03494,0.7009 -0.25146,0.9064c-0.28016,0.201 -0.58236,0.3716 -0.90166,0.5081c-0.70083,0.2997 -1.46349,0.4263 -2.22356,0.3691c-0.76006,-0.0571 -1.49522,-0.2963 -2.14337,-0.6974c-0.64814,-0.4011 -1.19025,-0.9523 -1.58054,-1.607c-0.39028,-0.6547 -0.61728,-1.3937 -0.66182,-2.1546c-0.04454,-0.7609 0.09468,-1.5214 0.40592,-2.2172c0.31123,-0.6957 0.78533,-1.3064 1.38226,-1.7804c0.59693,-0.4739 1.29915,-0.7973 2.04736,-0.9427c0.34602,-0.0673 0.69219,0.1155 0.83179,0.4392z" fill="#002B51"/>
</svg>
