<svg width="24" height="24" viewBox="0 0 24 24" fill="none" xmlns="http://www.w3.org/2000/svg">
<path d="M14.1152,4.00879c0.2633,0.04085 0.4891,0.22025 0.586,0.47461l2.3291,6.1152c0.313,-0.0649 0.6374,-0.0986 0.9697,-0.0986c2.6234,0 4.75,2.1266 4.75,4.75c0,2.6234 -2.1266,4.75 -4.75,4.75c-2.6233,0 -4.75,-2.1267 -4.75,-4.75c0,-1.7597 0.9571,-3.2954 2.3789,-4.1162l-0.6045,-1.58595l-4.1543,6.12305l-0.168,0.248c-0.3251,2.3066 -2.30586,4.0811 -4.7021,4.0811c-2.62332,0 -4.75,-2.1267 -4.75,-4.75c0,-2.6233 2.12668,-4.75 4.75,-4.75c2.04593,0 3.78947,1.2936 4.458,3.1074l0.8408,-1.2392l-4.5986,-4.3682h-1.2002c-0.41418,-0.00004 -0.75,-0.33581 -0.75,-0.75c0,-0.41419 0.33582,-0.74996 0.75,-0.75h3.5c0.41421,0 0.75,0.33579 0.75,0.75c0,0.41421 -0.33579,0.75 -0.75,0.75h-0.12109l3.27339,3.1104l2.2207,-3.27251l-0.8896,-2.33789h-1.9834c-0.4142,-0.00004 -0.75,-0.33581 -0.75,-0.75c0,-0.41419 0.3358,-0.74996 0.75,-0.75h2.5zM6,12c-1.7949,0 -3.25,1.4551 -3.25,3.25c0,1.7949 1.4551,3.25 3.25,3.25c1.53671,0 2.82345,-1.0668 3.16211,-2.5h-3.16211c-0.41418,0 -0.75,-0.3358 -0.75,-0.75c0,-0.4142 0.33582,-0.75 0.75,-0.75h3.16211c-0.33866,-1.4332 -1.6254,-2.5 -3.16211,-2.5zM18,12c-0.144,0 -0.2858,0.0092 -0.4248,0.0273l1.126,2.9561l0.0234,0.0723c0.099,0.3672 -0.095,0.7572 -0.458,0.8955c-0.3629,0.1379 -0.7662,-0.0245 -0.9365,-0.3643l-0.0313,-0.0703l-1.1259,-2.9551c-0.859,0.5849 -1.4229,1.571 -1.4229,2.6885c0,1.7949 1.4551,3.25 3.25,3.25c1.7949,0 3.25,-1.4551 3.25,-3.25c0,-1.7949 -1.4551,-3.25 -3.25,-3.25z" fill="#002B51"/>
</svg>
