<svg width="24" height="24" viewBox="0 0 24 24" fill="none" xmlns="http://www.w3.org/2000/svg">
<path d="M6.00012,10.5c2.04561,0 3.78924,1.2931 4.45798,3.1064l-0.60544,0.8936h-3.85254c-0.41421,0 -0.75,0.3358 -0.75,0.75c0,0.4142 0.33579,0.75 0.75,0.75h4.64748l0.0547,-0.0811c-0.3252,2.3066 -2.30593,4.0811 -4.70218,4.0811c-2.62335,0 -4.75,-2.1266 -4.75,-4.75c0,-2.6234 2.12665,-4.75 4.75,-4.75zM18.0001,10.5c2.6233,0.0001 4.75,2.1267 4.75,4.75c0,2.6233 -2.1267,4.7499 -4.75,4.75c-2.6233,0 -4.75,-2.1266 -4.75,-4.75c0,-1.7596 0.9572,-3.2954 2.3789,-4.1162l1.67,4.3828l0.0312,0.0703c0.1704,0.3398 0.5737,0.5022 0.9365,0.3643c0.3629,-0.1384 0.557,-0.5284 0.458,-0.8955l-0.0234,-0.0723l-1.6709,-4.3848c0.313,-0.0649 0.6375,-0.0986 0.9697,-0.0986zM14.0001,4c0.3112,0.00003 0.5904,0.1926 0.7012,0.4834l2.3291,6.1152c-0.5006,0.1039 -0.972,0.2873 -1.4014,0.5352l-0.6045,-1.58595l-4.1543,6.12305l-0.1679,0.248c0.0308,-0.2186 0.0478,-0.4418 0.0478,-0.6689c0,-0.5774 -0.1033,-1.1307 -0.292,-1.6426l0.8409,-1.2392l-4.59868,-4.3682h-1.2002c-0.41421,0 -0.75,-0.33579 -0.75,-0.75c0,-0.41421 0.33579,-0.75 0.75,-0.75h3.5c0.41416,0.00007 0.75,0.33583 0.75,0.75c0,0.41417 -0.33584,0.74993 -0.75,0.75h-0.12109l3.27347,3.1104l2.2207,-3.27251l-0.8897,-2.33789h-1.9834c-0.4142,0 -0.75,-0.33579 -0.75,-0.75c0,-0.41421 0.3358,-0.75 0.75,-0.75z" fill="#002B51"/>
</svg>
