<svg width="24" height="24" viewBox="0 0 24 24" fill="none" xmlns="http://www.w3.org/2000/svg">
<path fill-rule="evenodd" clip-rule="evenodd" d="M14.0001,4c0.3112,0 0.59,0.19219 0.7008,0.483l2.3299,6.116c-0.5006,0.1037 -0.9723,0.2863 -1.4017,0.5341l-0.6037,-1.58482l-4.1549,6.12282l-0.1669,0.246c0.0307,-0.218 0.0465,-0.4407 0.0465,-0.6671c0,-0.5774 -0.103,-1.1308 -0.2917,-1.6427l-0.60578,0.8927h-3.8525c-0.41421,0 -0.75,0.3358 -0.75,0.75c0,0.4142 0.33579,0.75 0.75,0.75h4.24998h0.3974l0.0561,-0.0827c-0.3244,2.3074 -2.30661,4.0827 -4.70348,4.0827c-2.62335,0 -4.75,-2.1266 -4.75,-4.75c0,-2.6234 2.12665,-4.75 4.75,-4.75c2.04588,0 3.78966,1.2934 4.45828,3.1072l0.8405,-1.2387l-4.59836,-4.3685h-1.20054c-0.41421,0 -0.75,-0.33579 -0.75,-0.75c0,-0.41421 0.33579,-0.75 0.75,-0.75h1.5h2c0.41421,0 0.75,0.33579 0.75,0.75c0,0.41421 -0.33579,0.75 -0.75,0.75h-0.12161l3.27421,3.1105l2.221,-3.27312l-0.8904,-2.33738h-1.9831c-0.4143,0 -0.75,-0.33579 -0.75,-0.75c0,-0.41421 0.3357,-0.75 0.75,-0.75zM13.25,15.2501c0,-1.7599 0.9571,-3.2962 2.3791,-4.1169l1.67,4.3839c0.1475,0.3871 0.5808,0.5813 0.9679,0.4338c0.3871,-0.1474 0.5813,-0.5807 0.4339,-0.9678l-1.6701,-4.3841c0.3129,-0.0648 0.6371,-0.0989 0.9692,-0.0989c2.6234,0 4.75,2.1266 4.75,4.75c0,2.6233 -2.1266,4.75 -4.75,4.75c-2.6234,0 -4.75,-2.1267 -4.75,-4.75z" fill="#002B51"/>
</svg>
