<svg width="24" height="24" viewBox="0 0 24 24" fill="none" xmlns="http://www.w3.org/2000/svg">
<path d="M5.16989,10.5762c0.37847,-0.0343 0.72866,0.2234 0.80274,0.6045c0.0789,0.4065 -0.18626,0.7998 -0.59278,0.8789l-0.19043,0.0429c-0.3775,0.0973 -0.7344,0.2618 -1.05371,0.4854l-0.15625,0.1172c-0.35735,0.2837 -0.65099,0.6387 -0.86132,1.042l-0.08497,0.1758c-0.21289,0.4759 -0.30773,0.9961 -0.27734,1.5166l0.0166,0.1953c0.05382,0.4514 0.20203,0.8875 0.43555,1.2793l0.10547,0.165c0.25592,0.3759 0.58863,0.6945 0.97656,0.9346l0.16895,0.0976c0.40031,0.2156 0.84203,0.3457 1.29687,0.3799l0.19531,0.0088c0.45477,0.0068 0.90663,-0.0824 1.32618,-0.2617c0.47952,-0.205 0.90335,-0.5228 1.23437,-0.9258l0.5791,0.4766l0.58008,0.4755c-0.4838,0.589 -1.10287,1.0529 -1.80371,1.3526c-0.61327,0.2622 -1.2737,0.3918 -1.93848,0.3818l-0.28515,-0.0127c-0.66513,-0.05 -1.31115,-0.2393 -1.89649,-0.5547l-0.24707,-0.1425c-0.56695,-0.351 -1.05276,-0.8168 -1.42676,-1.3662l-0.15332,-0.2403c-0.34154,-0.5729 -0.55812,-1.2108 -0.63672,-1.8711l-0.02539,-0.2842c-0.04449,-0.7608 0.09508,-1.5211 0.40625,-2.2168l0.12403,-0.2568c0.30734,-0.5894 0.73561,-1.1087 1.25781,-1.5234l0.22949,-0.1709c0.54446,-0.3813 1.1638,-0.6453 1.81836,-0.7725zM19.1064,11.334c0.1727,-0.3479 0.5797,-0.5031 0.9356,-0.3692l0.0703,0.0303l0.3125,0.1699c0.7129,0.4232 1.3048,1.0271 1.7138,1.753l0.1631,0.3164c0.3016,0.6435 0.4546,1.3469 0.4483,2.0576l-0.0166,0.3555c-0.0797,0.9488 -0.4428,1.8518 -1.042,2.5918c-0.5243,0.6473 -1.2081,1.144 -1.9815,1.4423l-0.3369,0.1153c-0.7977,0.2408 -1.6427,0.2671 -2.4502,0.0791l-0.3437,-0.0938c-0.7949,-0.2492 -1.5083,-0.7022 -2.0703,-1.3115l-0.2315,-0.2705c-0.5913,-0.7462 -0.9449,-1.653 -1.0146,-2.6025c-0.0697,-0.9496 0.148,-1.8982 0.624,-2.7227c0.2071,-0.3586 0.6657,-0.4815 1.0244,-0.2744c0.3585,0.2071 0.4814,0.6658 0.2744,1.0244c-0.3257,0.5642 -0.4745,1.2136 -0.4267,1.8633c0.0477,0.6496 0.2897,1.2698 0.6943,1.7803l0.1582,0.1855c0.3846,0.4168 0.8731,0.727 1.417,0.8975l0.2344,0.0634c0.5526,0.1288 1.1309,0.1111 1.6767,-0.0537l0.2305,-0.0791c0.5291,-0.2041 0.9967,-0.5443 1.3555,-0.9873c0.4099,-0.5063 0.6583,-1.1242 0.7129,-1.7734l0.0117,-0.2432c0.0042,-0.486 -0.1005,-0.9671 -0.3067,-1.4072l-0.1123,-0.2168c-0.2798,-0.4965 -0.6842,-0.9097 -1.1718,-1.1992l-0.2139,-0.1162l-0.0674,-0.0371c-0.3216,-0.2025 -0.4439,-0.6201 -0.2715,-0.9678zM8.51169,17.3125c0.26298,-0.3197 0.73572,-0.3663 1.05566,-0.1035c0.3199,0.2628 0.36606,0.7356 0.10352,1.0556zM15.123,4.00977c0.2821,0.04676 0.5171,0.25239 0.5977,0.53418l3,10.49995l0.0176,0.0752c0.0667,0.3741 -0.1591,0.7449 -0.5323,0.8516c-0.3735,0.1067 -0.7616,-0.0891 -0.9023,-0.4424l-0.0244,-0.0722l-1.7246,-6.03618l-5.2207,4.76368l0.3466,0.7519l0.0293,0.0713c0.1236,0.3594 -0.0431,0.7611 -0.3955,0.9239c-0.35269,0.1627 -0.7667,0.0287 -0.95994,-0.2989l-0.03515,-0.0673l-0.57715,-1.25c-0.00504,-0.011 -0.01014,-0.0221 -0.01465,-0.0333l-2.2334,-5.5312h-0.99414c-0.41416,-0.00007 -0.75,-0.33583 -0.75,-0.75c0,-0.41417 0.33584,-0.74993 0.75,-0.75h3.5c0.41421,0 0.75,0.33579 0.75,0.75c0,0.41421 -0.33579,0.75 -0.75,0.75h-0.88867l1.60254,3.9688l5.38086,-4.90825l-0.6602,-2.31055h-2.4345c-0.4142,0 -0.75,-0.33579 -0.75,-0.75c0,-0.41421 0.3358,-0.75 0.75,-0.75h3z" fill="#002B51"/>
</svg>
