<svg width="24" height="24" viewBox="0 0 24 24" fill="none" xmlns="http://www.w3.org/2000/svg">
<path d="M19.1062,11.334c0.1726,-0.3479 0.5797,-0.503 0.9355,-0.3692l0.0703,0.0303l0.3125,0.1699c0.7129,0.4232 1.3049,1.0271 1.7139,1.753c0.4674,0.8295 0.6744,1.7806 0.5947,2.7295c-0.0797,0.9488 -0.4428,1.8518 -1.042,2.5918c-0.5991,0.7398 -1.407,1.2824 -2.3183,1.5576c-0.9115,0.2751 -1.8855,0.27 -2.794,-0.0147c-0.9082,-0.2848 -1.7105,-0.836 -2.3017,-1.582c-0.5913,-0.7461 -0.945,-1.6531 -1.0147,-2.6025c-0.0697,-0.9495 0.1481,-1.8982 0.624,-2.7227c0.2071,-0.3585 0.6658,-0.4813 1.0245,-0.2744c0.3585,0.2071 0.4814,0.6658 0.2744,1.0244c-0.3257,0.5642 -0.4745,1.2136 -0.4268,1.8633c0.0478,0.6495 0.2898,1.2698 0.6944,1.7803c0.4046,0.5104 0.9536,0.8881 1.5751,1.083c0.6215,0.1947 1.2877,0.1979 1.9112,0.0097c0.6236,-0.1883 1.176,-0.5602 1.5859,-1.0664c0.41,-0.5063 0.6584,-1.1242 0.7129,-1.7734c0.0544,-0.6491 -0.0875,-1.2997 -0.4072,-1.8672c-0.2799,-0.4964 -0.6843,-0.9098 -1.1719,-1.1992l-0.2139,-0.1162l-0.0673,-0.0371c-0.3214,-0.2025 -0.4438,-0.6202 -0.2715,-0.9678zM5.09348,10.5869c0.40653,-0.0789 0.79985,0.1872 0.8789,0.5938c0.0789,0.4065 -0.18626,0.7998 -0.59277,0.8789c-0.51178,0.0995 -0.99206,0.3213 -1.40039,0.6455c-0.40834,0.3242 -0.73337,0.7418 -0.94629,1.2178c-0.21286,0.4758 -0.30774,0.9961 -0.27735,1.5166c0.03047,0.5204 0.18524,1.0267 0.45215,1.4746c0.267,0.4479 0.63865,0.8252 1.08203,1.0996c0.44323,0.2742 0.9461,0.4383 1.46582,0.4775c0.51986,0.0391 1.04211,-0.0481 1.52149,-0.2529c0.47947,-0.205 0.90337,-0.5229 1.23437,-0.9258l0.57911,0.4766l0.58007,0.4755c-0.48378,0.589 -1.10292,1.053 -1.80371,1.3526c-0.70075,0.2995 -1.46367,0.4263 -2.22363,0.3691c-0.75986,-0.0572 -1.49557,-0.2963 -2.14355,-0.6972c-0.64779,-0.401 -1.18993,-0.9521 -1.58008,-1.6065c-0.39024,-0.6547 -0.61757,-1.3944 -0.66211,-2.1553c-0.04449,-0.7607 0.09511,-1.5211 0.40625,-2.2168c0.31114,-0.6955 0.78516,-1.3063 1.38183,-1.7802c0.59686,-0.4739 1.29975,-0.7979 2.04786,-0.9434zM8.51144,17.3125c0.26294,-0.3197 0.73572,-0.3662 1.05567,-0.1035c0.3199,0.2628 0.36605,0.7356 0.10351,1.0556zM14.9997,4c0.3348,0 0.6287,0.22208 0.7207,0.54395l3,10.49995c0.1138,0.3983 -0.1164,0.813 -0.5146,0.9268c-0.3734,0.1066 -0.7617,-0.0892 -0.9024,-0.4424l-0.0244,-0.0722l-1.7246,-6.03618l-5.2207,4.76368l0.3467,0.7519c0.1735,0.3761 0.0097,0.8215 -0.3662,0.9952c-0.35269,0.1625 -0.76679,0.0286 -0.95998,-0.2989l-0.03516,-0.0673l-0.57715,-1.25c-0.00502,-0.0109 -0.01015,-0.0221 -0.01465,-0.0333l-2.23339,-5.5312h-0.99414c-0.41403,-0.00022 -0.75,-0.33592 -0.75,-0.75c0,-0.41408 0.33597,-0.74978 0.75,-0.75h3.5c0.41421,0 0.75,0.33579 0.75,0.75c0,0.41421 -0.33579,0.75 -0.75,0.75h-0.88868l1.60254,3.9688l5.38091,-4.90825l-0.6602,-2.31055h-2.4346c-0.4141,-0.00015 -0.75,-0.33588 -0.75,-0.75c0,-0.41412 0.3359,-0.74985 0.75,-0.75z" fill="#002B51"/>
</svg>
