<svg width="24" height="24" viewBox="0 0 24 24" fill="none" xmlns="http://www.w3.org/2000/svg">
<path fill-rule="evenodd" clip-rule="evenodd" d="M14,4l0.1152,0.00879c0.2633,0.04085 0.4891,0.22024 0.586,0.47461l2.3297,6.1155c0.3129,-0.0648 0.637,-0.0989 0.9691,-0.0989c2.6234,0 4.75,2.1266 4.75,4.75c0,2.6234 -2.1266,4.75 -4.75,4.75c-2.6234,0 -4.75,-2.1266 -4.75,-4.75c0,-1.7599 0.9571,-3.2962 2.3791,-4.1169l-0.6039,-1.58546l-4.1551,6.12326l-0.1666,0.2462c-0.3243,2.3075 -2.30658,4.0829 -4.7035,4.0829c-2.62335,0 -4.75,-2.1266 -4.75,-4.75c0,-2.6234 2.12665,-4.75 4.75,-4.75c2.04589,0 3.78967,1.2934 4.4582,3.1072l0.8406,-1.239l-4.5986,-4.3682h-1.2002c-0.41421,0 -0.75,-0.33579 -0.75,-0.75c0,-0.41421 0.33579,-0.75 0.75,-0.75h3.5c0.41421,0 0.75,0.33579 0.75,0.75c0,0.41421 -0.33579,0.75 -0.75,0.75h-0.12109l3.27339,3.1104l2.2216,-3.27252l-0.8905,-2.33788h-1.9834c-0.4142,0 -0.75,-0.33579 -0.75,-0.75c0,-0.41421 0.3358,-0.75 0.75,-0.75zM9.16303,14.5c-0.33858,-1.4334 -1.62624,-2.5 -3.16303,-2.5c-1.79493,0 -3.25,1.4551 -3.25,3.25c0,1.7949 1.45507,3.25 3.25,3.25c1.53679,0 2.82445,-1.0666 3.16303,-2.5h-3.16303c-0.41421,0 -0.75,-0.3358 -0.75,-0.75c0,-0.4142 0.33579,-0.75 0.75,-0.75zM17.2988,15.5166l-1.1256,-2.955c-0.859,0.5849 -1.4232,1.5708 -1.4232,2.6884c0,1.7949 1.4551,3.25 3.25,3.25c1.7949,0 3.25,-1.4551 3.25,-3.25c0,-1.7949 -1.4551,-3.25 -3.25,-3.25c-0.144,0 -0.2858,0.0094 -0.4249,0.0275l1.1261,2.9559l0.0234,0.0723c0.099,0.3672 -0.095,0.7572 -0.458,0.8955c-0.3629,0.1379 -0.7661,-0.0245 -0.9365,-0.3643z" fill="#002B51"/>
</svg>
