<svg width="24" height="24" viewBox="0 0 24 24" fill="none" xmlns="http://www.w3.org/2000/svg">
<path d="M17.9998,10.5c2.6233,0 4.75,2.1266 4.75,4.75c0,2.6234 -2.1267,4.75 -4.75,4.75c-2.6233,-0.0001 -4.75,-2.1267 -4.75,-4.75c0,-1.9049 1.1216,-3.5476 2.7402,-4.3047l1.2891,4.5108l0.0244,0.0722c0.1407,0.3532 0.5289,0.549 0.9023,0.4424c0.3732,-0.1067 0.599,-0.4775 0.5322,-0.8516l-0.0175,-0.0752l-1.2891,-4.5097c0.1863,-0.0222 0.3761,-0.0342 0.5684,-0.0342zM5.22241,10.5732c0.30001,-0.0058 0.58086,0.17 0.70313,0.4532l3.09472,7.1767c0.13936,0.3236 0.0352,0.7008 -0.25097,0.9063c-0.28014,0.201 -0.58307,0.3713 -0.90235,0.5078c-0.70075,0.2996 -1.46367,0.4263 -2.22363,0.3691c-0.75986,-0.0572 -1.49557,-0.2963 -2.14355,-0.6972c-0.64789,-0.4011 -1.18992,-0.953 -1.58008,-1.6075c-0.39009,-0.6545 -0.61758,-1.3936 -0.66211,-2.1543c-0.04449,-0.7607 0.09514,-1.5211 0.40625,-2.2168c0.31122,-0.6957 0.78496,-1.3073 1.38183,-1.7812c0.59687,-0.4739 1.29973,-0.7969 2.04786,-0.9424zM14.9998,4c0.3347,0 0.6286,0.22208 0.7207,0.54395l1.7109,5.99025c-0.5096,0.0608 -0.9945,0.2021 -1.4414,0.4111l-0.4365,-1.52538l-5.2198,4.76368l0.3467,0.7519c0.1736,0.3761 0.0097,0.8215 -0.3662,0.9952c-0.35266,0.1625 -0.76676,0.0286 -0.95995,-0.2989l-0.03516,-0.0673l-0.57715,-1.25c-0.00502,-0.0109 -0.01015,-0.0221 -0.01465,-0.0333l-2.23339,-5.5312h-0.99414c-0.41404,-0.00021 -0.75,-0.33592 -0.75,-0.75c0,-0.41408 0.33596,-0.74979 0.75,-0.75h3.5c0.41421,0 0.75,0.33579 0.75,0.75c0,0.41421 -0.33579,0.75 -0.75,0.75h-0.88868l1.60254,3.9688l5.37988,-4.90825l-0.6592,-2.31055h-2.4345c-0.4141,-0.00015 -0.75,-0.33588 -0.75,-0.75c0,-0.41412 0.3359,-0.74985 0.75,-0.75z" fill="#002B51"/>
</svg>
