<svg width="24" height="24" viewBox="0 0 24 24" fill="none" xmlns="http://www.w3.org/2000/svg">
<path fill-rule="evenodd" clip-rule="evenodd" d="M15.7207,4.54395l1.7114,5.98965c0.1862,-0.0222 0.3757,-0.0336 0.5679,-0.0336c2.6234,0 4.75,2.1266 4.75,4.75c0,2.6234 -2.1266,4.75 -4.75,4.75c-2.6233,0 -4.75,-2.1266 -4.75,-4.75c0,-1.9051 1.1216,-3.5482 2.7404,-4.3052l-0.4356,-1.52419l-5.2207,4.76299l0.3467,0.7519l0.0293,0.0713c0.1236,0.3594 -0.0431,0.7611 -0.3955,0.9239c-0.35272,0.1628 -0.76669,0.0287 -0.95994,-0.2989l-0.03516,-0.0673l-0.57715,-1.25c-0.00504,-0.011 -0.01013,-0.0221 -0.01465,-0.0333l-2.23339,-5.5312h-0.99415c-0.41421,0 -0.75,-0.33579 -0.75,-0.75c0,-0.41421 0.33579,-0.75 0.75,-0.75h3.5c0.41422,0 0.75,0.33579 0.75,0.75c0,0.41421 -0.33578,0.75 -0.75,0.75h-0.88867l1.60254,3.9688l5.38077,-4.90813l-0.6602,-2.31067h-2.4346c-0.4142,0 -0.75,-0.33579 -0.75,-0.75c0,-0.41421 0.3358,-0.75 0.75,-0.75h3l0.1231,0.00977c0.282,0.04676 0.5171,0.25239 0.5976,0.53418zM15.7479,9.24445v0.00004l0.2425,1.70031v0zM15.4918,7.44855l-0.4918,-3.44855l0.4918,3.44858zM15.9904,10.9448l1.2889,4.5113l0.0245,0.0722c0.1407,0.3533 0.5288,0.5491 0.9023,0.4424c0.3732,-0.1067 0.599,-0.4775 0.5322,-0.8516l-0.0176,-0.0752l-1.2886,-4.5103c-0.5097,0.0607 -0.9947,0.2022 -1.4417,0.4112zM9.02055,18.2034c0.12192,0.283 0.05742,0.6071 -0.15234,0.8213l-0.09864,0.0849c-0.21016,0.1508 -0.43312,0.2844 -0.66601,0.3994l-0.23633,0.1084c-0.70079,0.2996 -1.46362,0.4263 -2.22363,0.3692c-0.75996,-0.0572 -1.49549,-0.2963 -2.14356,-0.6973c-0.64802,-0.4011 -1.18985,-0.9528 -1.58008,-1.6074c-0.39019,-0.6547 -0.61757,-1.3935 -0.66211,-2.1543c-0.04453,-0.7608 0.09511,-1.5211 0.40625,-2.2168c0.31124,-0.6958 0.78492,-1.3073 1.38184,-1.7813c0.59693,-0.4739 1.29964,-0.7969 2.04785,-0.9423l0.12891,-0.0137c0.30011,-0.0058 0.58093,0.1698 0.70312,0.4531z" fill="#002B51"/>
</svg>
