<svg width="24" height="24" viewBox="0 0 24 24" fill="none" xmlns="http://www.w3.org/2000/svg">
<path fill-rule="evenodd" clip-rule="evenodd" d="M10.75,4.75c0,-0.41421 0.3358,-0.75 0.75,-0.75h2.5c0.3112,0 0.5901,0.19219 0.7009,0.483l2.3299,6.116c0.3129,-0.0649 0.6371,-0.099 0.9692,-0.099c2.6234,0 4.75,2.1266 4.75,4.75c0,2.6234 -2.1266,4.75 -4.75,4.75c-2.6234,0 -4.75,-2.1266 -4.75,-4.75c0,-1.7599 0.9571,-3.2962 2.3791,-4.1169l-0.6037,-1.58477l-4.1549,6.12277l-0.167,0.2462c-0.3244,2.3074 -2.30663,4.0827 -4.7035,4.0827c-2.62335,0 -4.75,-2.1266 -4.75,-4.75c0,-2.6234 2.12665,-4.75 4.75,-4.75c2.04592,0 3.78973,1.2935 4.4583,3.1073l0.8406,-1.2388l-4.59836,-4.3685h-1.20054c-0.41421,0 -0.75,-0.33579 -0.75,-0.75c0,-0.41421 0.33579,-0.75 0.75,-0.75h1.5h2c0.41421,0 0.75,0.33579 0.75,0.75c0,0.41421 -0.33579,0.75 -0.75,0.75h-0.12161l3.27421,3.1105l2.221,-3.27307l-0.8905,-2.33743h-1.9831c-0.4142,0 -0.75,-0.33579 -0.75,-0.75zM9.16303,14.5c-0.33858,-1.4334 -1.62624,-2.5 -3.16303,-2.5c-1.79493,0 -3.25,1.4551 -3.25,3.25c0,1.7949 1.45507,3.25 3.25,3.25c1.53679,0 2.82445,-1.0666 3.16303,-2.5h-3.16303c-0.41421,0 -0.75,-0.3358 -0.75,-0.75c0,-0.4142 0.33579,-0.75 0.75,-0.75zM17.2991,15.517l-1.1258,-2.9554c-0.8591,0.5849 -1.4233,1.5707 -1.4233,2.6884c0,1.7949 1.4551,3.25 3.25,3.25c1.7949,0 3.25,-1.4551 3.25,-3.25c0,-1.7949 -1.4551,-3.25 -3.25,-3.25c-0.1441,0 -0.2859,0.0094 -0.425,0.0275l1.1259,2.9555c0.1474,0.3871 -0.0468,0.8204 -0.4339,0.9679c-0.3871,0.1474 -0.8204,-0.0468 -0.9679,-0.4339z" fill="#002B51"/>
</svg>
