<svg width="24" height="24" viewBox="0 0 24 24" fill="none" xmlns="http://www.w3.org/2000/svg">
<path d="M18,10.5c2.6234,0 4.75,2.1266 4.75,4.75c0,2.6234 -2.1266,4.75 -4.75,4.75c-2.6233,0 -4.75,-2.1266 -4.75,-4.75c0,-1.905 1.1216,-3.5477 2.7403,-4.3047l1.289,4.5108l0.0244,0.0722c0.1408,0.3533 0.5289,0.5491 0.9024,0.4424c0.3732,-0.1067 0.599,-0.4775 0.5322,-0.8516l-0.0176,-0.0752l-1.289,-4.5097c0.1863,-0.0222 0.376,-0.0342 0.5683,-0.0342zM5.22268,10.5732c0.30004,-0.0058 0.58089,0.17 0.70313,0.4532l3.09473,7.1767c0.1219,0.283 0.05732,0.6071 -0.15235,0.8213l-0.09863,0.085c-0.21014,0.1507 -0.43316,0.2844 -0.66602,0.3994l-0.23632,0.1084c-0.7008,0.2996 -1.46363,0.4263 -2.22364,0.3691c-0.75995,-0.0572 -1.49549,-0.2962 -2.14355,-0.6972c-0.64797,-0.4011 -1.18987,-0.9529 -1.58008,-1.6075c-0.39013,-0.6546 -0.61758,-1.3935 -0.66211,-2.1543c-0.04449,-0.7607 0.09514,-1.5211 0.40625,-2.2168c0.31123,-0.6956 0.78497,-1.3073 1.38184,-1.7812c0.5969,-0.4739 1.29969,-0.797 2.04785,-0.9424zM15.1231,4.00977c0.282,0.04676 0.5171,0.25239 0.5976,0.53418l1.711,5.99025c-0.5097,0.0608 -0.9945,0.2021 -1.4414,0.4111l-0.4366,-1.52538l-5.2197,4.76368l0.3467,0.7519l0.0293,0.0713c0.1236,0.3594 -0.0431,0.7611 -0.3955,0.9239c-0.35273,0.1627 -0.76675,0.0287 -0.95998,-0.2989l-0.03516,-0.0673l-0.57714,-1.25c-0.00504,-0.011 -0.01015,-0.0221 -0.01465,-0.0333l-2.2334,-5.5312h-0.99414c-0.41416,-0.00007 -0.75,-0.33583 -0.75,-0.75c0,-0.41417 0.33584,-0.74993 0.75,-0.75h3.5c0.41421,0 0.75,0.33579 0.75,0.75c0,0.41421 -0.33579,0.75 -0.75,0.75h-0.88867l1.60254,3.9688l5.3799,-4.90825l-0.6592,-2.31055h-2.4346c-0.4142,0 -0.75,-0.33579 -0.75,-0.75c0,-0.41421 0.3358,-0.75 0.75,-0.75h3z" fill="#002B51"/>
</svg>
