<svg width="24" height="24" viewBox="0 0 24 24" fill="none" xmlns="http://www.w3.org/2000/svg">
<path fill-rule="evenodd" clip-rule="evenodd" d="M19.4773,7.6705c0.8217,0.61624 1.2315,1.639 1.0626,2.6521l-1.5216,9.1295c-0.221,1.326 -1.3682,2.2979 -2.7125,2.2979h-8.61154c-1.3443,0 -2.49158,-0.9719 -2.71258,-2.2979l-1.52158,-9.1295c-0.16885,-1.0131 0.24092,-2.03586 1.06258,-2.6521l5.82732,-4.3705c0.9778,-0.73333 2.3222,-0.73333 3.3,0zM12,16c-0.6903,0 -1.25,0.5596 -1.25,1.25c0,0.6904 0.5597,1.25 1.25,1.25c0.6904,0 1.25,-0.5596 1.25,-1.25c0,-0.6904 -0.5596,-1.25 -1.25,-1.25zM12,14.625c1.7259,0 3.125,-1.3991 3.125,-3.125c0,-1.72589 -1.3991,-3.125 -3.125,-3.125c-1.7259,0 -3.12498,1.39911 -3.12498,3.125c0,1.7259 1.39908,3.125 3.12498,3.125zM13.875,11.5c0,1.0355 -0.8394,1.875 -1.875,1.875c-1.0355,0 -1.875,-0.8395 -1.875,-1.875c0,-1.0355 0.8395,-1.875 1.875,-1.875c1.0356,0 1.875,0.8395 1.875,1.875z" fill="#002B51"/>
</svg>
