<svg width="24" height="24" viewBox="0 0 24 24" fill="none" xmlns="http://www.w3.org/2000/svg">
<path d="M10.3501,3.29967c0.9777,-0.73308 2.3231,-0.73325 3.3008,0l5.8271,4.37109c0.8212,0.61618 1.2311,1.63867 1.0625,2.65134l-1.5215,9.1299c-0.2209,1.3259 -1.3687,2.2977 -2.7128,2.2979h-8.61138c-1.3443,0 -2.49188,-0.9719 -2.71289,-2.2979l-1.52148,-9.1299c-0.16865,-1.0128 0.24117,-2.03515 1.0625,-2.65134zM11.9995,16.0008c-0.6901,0.0003 -1.25,0.5599 -1.25,1.25c0.0005,0.6898 0.5602,1.2497 1.25,1.25c0.6901,0 1.2496,-0.56 1.25,-1.25c0,-0.6903 -0.5596,-1.25 -1.25,-1.25zM11.9995,8.25084c-1.7947,0.0003 -3.24999,1.45526 -3.24999,3.24996c0.00046,1.7944 1.45559,3.2497 3.24999,3.25c1.7947,0 3.2496,-1.4554 3.25,-3.25c0,-1.79489 -1.4551,-3.24996 -3.25,-3.24996zM11.9995,9.75084c0.9665,0 1.75,0.78346 1.75,1.74996c-0.0004,0.9662 -0.7838,1.75 -1.75,1.75c-0.9659,-0.0003 -1.7495,-0.784 -1.75,-1.75c0,-0.9663 0.7838,-1.74966 1.75,-1.74996z" fill="#002B51"/>
</svg>
