<svg width="24" height="24" viewBox="0 0 24 24" fill="none" xmlns="http://www.w3.org/2000/svg">
<path fill-rule="evenodd" clip-rule="evenodd" d="M13.65 3.3C12.6722 2.56667 11.3278 2.56667 10.35 3.3L4.52268 7.6705C3.70102 8.28674 3.29125 9.3095 3.4601 10.3226L4.98168 19.4521C5.20268 20.7781 6.34996 21.75 7.69426 21.75H16.3058C17.6501 21.75 18.7973 20.7781 19.0183 19.4521L20.5399 10.3226C20.7088 9.3095 20.299 8.28674 19.4773 7.6705L13.65 3.3ZM12 16C11.3097 16 10.75 16.5596 10.75 17.25C10.75 17.9404 11.3097 18.5 12 18.5C12.6904 18.5 13.25 17.9404 13.25 17.25C13.25 16.5596 12.6904 16 12 16ZM8.87502 11.5C8.87502 9.77411 10.2741 8.375 12 8.375C13.7259 8.375 15.125 9.77411 15.125 11.5C15.125 13.2259 13.7259 14.625 12 14.625C10.2741 14.625 8.87502 13.2259 8.87502 11.5ZM12 9.625C10.9645 9.625 10.125 10.4645 10.125 11.5C10.125 12.5355 10.9645 13.375 12 13.375C13.0356 13.375 13.875 12.5355 13.875 11.5C13.875 10.4645 13.0356 9.625 12 9.625Z" fill="#002B51"/>
</svg>
