<svg width="24" height="24" viewBox="0 0 24 24" fill="none" xmlns="http://www.w3.org/2000/svg">
<path d="M10.35,3.29967c0.9778,-0.73308 2.3232,-0.73325 3.3008,0l5.8272,4.37109c0.8211,0.61618 1.231,1.63867 1.0625,2.65134l-1.5215,9.1299c-0.221,1.3259 -1.3688,2.2977 -2.7129,2.2979h-8.61134c-1.3443,0 -2.49188,-0.9719 -2.71289,-2.2979l-1.52148,-9.1299c-0.16865,-1.0128 0.24117,-2.03515 1.0625,-2.65134zM12.7504,4.49986c-0.4443,-0.33325 -1.0556,-0.33308 -1.5,0l-5.82712,4.37012c-0.37346,0.2801 -0.56012,0.74558 -0.4834,1.20602l1.52148,9.1289c0.10046,0.6028 0.62235,1.045 1.2334,1.045h8.61134c0.6109,-0.0002 1.133,-0.4424 1.2334,-1.045l1.5215,-9.1289c0.0766,-0.46031 -0.1101,-0.92593 -0.4834,-1.20602zM12.0004,15.9999c0.6901,0.0002 1.25,0.5598 1.25,1.25c0,0.6902 -0.5598,1.2497 -1.25,1.25c-0.6903,0 -1.25,-0.5597 -1.25,-1.25c0.0001,-0.6903 0.5597,-1.25 1.25,-1.25zM12.0004,8.24986c1.7947,0.00024 3.25,1.45528 3.25,3.25004c0,1.7947 -1.4552,3.2497 -3.25,3.25c-1.7949,0 -3.24997,-1.4551 -3.24997,-3.25c0.00007,-1.7949 1.45507,-3.25004 3.24997,-3.25004zM12.0004,9.74986c-0.9664,0 -1.7499,0.78354 -1.75,1.75004c0,0.9665 0.7835,1.75 1.75,1.75c0.9663,-0.0003 1.75,-0.7837 1.75,-1.75c0,-0.9663 -0.7837,-1.7498 -1.75,-1.75004z" fill="#002B51"/>
</svg>
