<svg width="24" height="24" viewBox="0 0 24 24" fill="none" xmlns="http://www.w3.org/2000/svg">
<path fill-rule="evenodd" clip-rule="evenodd" d="M19.4776,7.67109c0.7702,0.5778 1.1781,1.51259 1.0869,2.46191l-0.0244,0.1895l-1.5215,9.1298c-0.221,1.3261 -1.3686,2.2979 -2.7129,2.2979h-8.6113c-1.3443,0 -2.49188,-0.9718 -2.71289,-2.2979l-1.52148,-9.1298c-0.16868,-1.01289 0.24115,-2.03521 1.0625,-2.65141l5.82717,-4.37109c0.9778,-0.73333 2.323,-0.73333 3.3008,0zM12.0001,16.0002c-0.6904,0 -1.25,0.5596 -1.25,1.25c0,0.6904 0.5596,1.25 1.25,1.25c0.6903,0 1.25,-0.5596 1.25,-1.25c0,-0.6904 -0.5597,-1.25 -1.25,-1.25zM12.0001,13.2502c-0.9665,0 -1.75,-0.7835 -1.75,-1.75c0,-0.9665 0.7835,-1.75 1.75,-1.75c0.9665,0 1.75,0.7835 1.75,1.75c0,0.9665 -0.7835,1.75 -1.75,1.75zM12.0001,8.2502c-1.7949,0 -3.25002,1.45507 -3.25002,3.25c0,1.7949 1.45512,3.25 3.25002,3.25c1.7949,0 3.25,-1.4551 3.25,-3.25c0,-1.79493 -1.4551,-3.25 -3.25,-3.25z" fill="#002B51"/>
</svg>
