<svg width="24" height="24" viewBox="0 0 24 24" fill="none" xmlns="http://www.w3.org/2000/svg">
<path fill-rule="evenodd" clip-rule="evenodd" d="M10.3497,3.3c0.9778,-0.73333 2.323,-0.73333 3.3008,0l5.8271,4.37109c0.7702,0.5778 1.1781,1.51259 1.0869,2.46191l-0.0244,0.1895l-1.5215,9.1298c-0.221,1.3261 -1.3686,2.2979 -2.7129,2.2979h-8.6113c-1.3443,0 -2.49188,-0.9718 -2.71289,-2.2979l-1.52148,-9.1298c-0.16868,-1.01289 0.24115,-2.03521 1.0625,-2.65141zM12.7501,4.5002c-0.4445,-0.33334 -1.0556,-0.33334 -1.5,0l-5.82718,4.37011c-0.37348,0.28011 -0.56015,0.74556 -0.4834,1.20609l1.52148,9.1289c0.10046,0.6027 0.62235,1.0449 1.2334,1.0449h8.6113c0.6111,0 1.133,-0.4422 1.2334,-1.0449l1.5215,-9.1289l0.0166,-0.17288c0.0106,-0.40126 -0.1732,-0.78814 -0.5,-1.03321zM10.7501,17.2502c0,-0.6904 0.5596,-1.25 1.25,-1.25c0.6903,0 1.25,0.5596 1.25,1.25c0,0.6904 -0.5597,1.25 -1.25,1.25c-0.6904,0 -1.25,-0.5596 -1.25,-1.25zM10.2501,11.5002c0,0.9665 0.7835,1.75 1.75,1.75c0.9665,0 1.75,-0.7835 1.75,-1.75c0,-0.9665 -0.7835,-1.75 -1.75,-1.75c-0.9665,0 -1.75,0.7835 -1.75,1.75zM8.75007,11.5002c0,-1.79493 1.45503,-3.25 3.25003,-3.25c1.7949,0 3.25,1.45507 3.25,3.25c0,1.7949 -1.4551,3.25 -3.25,3.25c-1.795,0 -3.25003,-1.4551 -3.25003,-3.25z" fill="#002B51"/>
</svg>
