<svg width="24" height="24" viewBox="0 0 24 24" fill="none" xmlns="http://www.w3.org/2000/svg">
<path fill-rule="evenodd" clip-rule="evenodd" d="M12.75,4.5c-0.4444,-0.33333 -1.0556,-0.33333 -1.5,0l-5.82733,4.3705c-0.37348,0.28011 -0.55974,0.745 -0.48299,1.2055l1.52158,9.1295c0.10046,0.6027 0.62195,1.0445 1.233,1.0445h8.61144c0.6111,0 1.1326,-0.4418 1.233,-1.0445l1.5216,-9.1295c0.0768,-0.4605 -0.1095,-0.92539 -0.483,-1.2055zM10.35,3.3c0.9778,-0.73333 2.3222,-0.73333 3.3,0l5.8273,4.3705c0.8217,0.61624 1.2315,1.639 1.0626,2.6521l-1.5216,9.1295c-0.221,1.326 -1.3682,2.2979 -2.7126,2.2979h-8.61144c-1.34431,0 -2.49158,-0.9719 -2.71259,-2.2979l-1.52158,-9.1295c-0.16885,-1.0131 0.24093,-2.03586 1.06258,-2.6521zM10.75,17.25c0,-0.6904 0.5596,-1.25 1.25,-1.25c0.6904,0 1.25,0.5596 1.25,1.25c0,0.6904 -0.5596,1.25 -1.25,1.25c-0.6904,0 -1.25,-0.5596 -1.25,-1.25zM15.125,11.5c0,1.7259 -1.3991,3.125 -3.125,3.125c-1.7259,0 -3.125,-1.3991 -3.125,-3.125c0,-1.72589 1.3991,-3.125 3.125,-3.125c1.7259,0 3.125,1.39911 3.125,3.125zM12,13.375c1.0355,0 1.875,-0.8395 1.875,-1.875c0,-1.0355 -0.8395,-1.875 -1.875,-1.875c-1.0355,0 -1.875,0.8395 -1.875,1.875c0,1.0355 0.8395,1.875 1.875,1.875z" fill="#002B51"/>
</svg>
