<svg width="24" height="24" viewBox="0 0 24 24" fill="none" xmlns="http://www.w3.org/2000/svg">
<path d="M10.3494,3.2998c0.9777,-0.73329 2.323,-0.73321 3.3008,0l5.8271,4.3711c0.7702,0.57779 1.1781,1.51258 1.087,2.4619l-0.0245,0.1895l-1.5214,9.1298c-0.2211,1.326 -1.3686,2.2979 -2.7129,2.2979h-8.61136c-1.34419,-0.0001 -2.49189,-0.9719 -2.71289,-2.2979l-1.52148,-9.1298c-0.16865,-1.01281 0.24127,-2.0352 1.0625,-2.6514zM11.9998,16c-0.6902,0.0001 -1.25,0.5597 -1.25,1.25c0,0.6903 0.5598,1.2499 1.25,1.25c0.6904,0 1.25,-0.5596 1.25,-1.25c0,-0.6904 -0.5596,-1.25 -1.25,-1.25zM11.9998,8.25c-1.7948,0.00014 -3.24999,1.45516 -3.24999,3.25c0,1.7948 1.45519,3.2499 3.24999,3.25c1.7949,0 3.25,-1.4551 3.25,-3.25c0,-1.79493 -1.4551,-3.25 -3.25,-3.25zM11.9998,9.75c0.9665,0 1.75,0.7835 1.75,1.75c0,0.9665 -0.7835,1.75 -1.75,1.75c-0.9664,-0.0001 -1.75,-0.7836 -1.75,-1.75c0,-0.9664 0.7836,-1.74986 1.75,-1.75z" fill="#002B51"/>
</svg>
