<svg width="24" height="24" viewBox="0 0 24 24" fill="none" xmlns="http://www.w3.org/2000/svg">
<path d="M10.3494,3.2998c0.9777,-0.73329 2.323,-0.73321 3.3007,0l5.8272,4.3711c0.7701,0.57779 1.1781,1.51258 1.0869,2.4619l-0.0244,0.1895l-1.5215,9.1298c-0.221,1.326 -1.3686,2.2979 -2.7129,2.2979h-8.61131c-1.3442,-0.0001 -2.4919,-0.9719 -2.7129,-2.2979l-1.52148,-9.1298c-0.16865,-1.01281 0.24127,-2.0352 1.0625,-2.6514zM12.7497,4.5c-0.4444,-0.33322 -1.0556,-0.3333 -1.5,0l-5.8271,4.37012c-0.37336,0.28011 -0.56012,0.74563 -0.4834,1.20608l1.52149,9.1289c0.10044,0.6026 0.62245,1.0448 1.2334,1.0449h8.61131c0.611,0 1.1329,-0.4422 1.2334,-1.0449l1.5215,-9.1289l0.0166,-0.17288c0.0106,-0.40126 -0.1732,-0.78814 -0.5,-1.0332zM11.9997,16c0.6904,0 1.25,0.5596 1.25,1.25c0,0.6904 -0.5596,1.25 -1.25,1.25c-0.6902,-0.0001 -1.25,-0.5597 -1.25,-1.25c0,-0.6903 0.5598,-1.2499 1.25,-1.25zM11.9997,8.25c1.795,0 3.25,1.45507 3.25,3.25c0,1.7949 -1.455,3.25 -3.25,3.25c-1.7948,-0.0001 -3.24995,-1.4552 -3.24995,-3.25c0,-1.79484 1.45515,-3.24987 3.24995,-3.25zM11.9997,9.75c-0.9663,0.00013 -1.75,0.7836 -1.75,1.75c0,0.9664 0.7837,1.7499 1.75,1.75c0.9665,0 1.75,-0.7835 1.75,-1.75c0,-0.9665 -0.7835,-1.75 -1.75,-1.75z" fill="#002B51"/>
</svg>
