<svg width="24" height="24" viewBox="0 0 24 24" fill="none" xmlns="http://www.w3.org/2000/svg">
<path fill-rule="evenodd" clip-rule="evenodd" d="M16.3033 17.364L19.4697 20.5304C19.7626 20.8232 20.2374 20.8232 20.5303 20.5304C20.8232 20.2375 20.8232 19.7626 20.5303 19.4697L4.53033 3.4697C4.23744 3.1768 3.76256 3.1768 3.46967 3.4697C3.17678 3.76259 3.17678 4.23746 3.46967 4.53036L10.25 11.3107V11.6869L6.4696 15.4672C6.1767 15.76 6.17668 16.2349 6.46957 16.5278C6.76245 16.8207 7.23732 16.8207 7.53023 16.5278L10.2499 13.8083V19.9975C10.2499 20.2741 10.4021 20.5282 10.646 20.6587C10.8898 20.7893 11.1857 20.775 11.4159 20.6216L16.3033 17.364ZM17.4161 8.62154L13.9757 10.9151L10.25 7.18945V3.9975C10.25 3.7209 10.4023 3.46676 10.6461 3.33624C10.89 3.20573 11.1859 3.22003 11.4161 3.37346L17.4161 7.37346C17.6247 7.51256 17.75 7.74673 17.75 7.9975C17.75 8.24826 17.6247 8.48244 17.4161 8.62154Z" fill="#002B51"/>
</svg>
