<svg width="24" height="24" viewBox="0 0 24 24" fill="none" xmlns="http://www.w3.org/2000/svg">
<path d="M10.6466,3.33619c0.2438,-0.13036 0.5394,-0.11621 0.7695,0.03711l6,4c0.2086,0.1391 0.334,0.37326 0.334,0.62402c0,0.25077 -0.1254,0.48493 -0.334,0.62403l-5.0654,3.37595l5.0634,3.3789c0.2084,0.1392 0.3331,0.3735 0.333,0.6241c-0.0001,0.2506 -0.1254,0.485 -0.3339,0.624l-5.9971,3.997c-0.2301,0.1534 -0.5257,0.1675 -0.7695,0.0372c-0.2439,-0.1306 -0.3965,-0.3846 -0.3965,-0.6612v-6.1894l-2.71975,2.7197c-0.29288,0.2928 -0.76768,0.2928 -1.06055,0c-0.2928,-0.2929 -0.29282,-0.7677 0,-1.0605l3.46973,-3.4698l-3.46973,-3.4697l-0.05175,-0.05664c-0.24024,-0.29458 -0.22281,-0.72933 0.05175,-1.00391c0.27459,-0.27452 0.70935,-0.292 1.00391,-0.05176l0.05664,0.05176l2.71975,2.71975v-6.18948l0.0068,-0.10253c0.0325,-0.23568 0.1763,-0.44439 0.3897,-0.5586z" fill="#002B51"/>
</svg>
