<svg width="24" height="24" viewBox="0 0 24 24" fill="none" xmlns="http://www.w3.org/2000/svg">
<path fill-rule="evenodd" clip-rule="evenodd" d="M11.4159,20.6216c-0.2301,0.1534 -0.526,0.1676 -0.7699,0.0371c-0.2438,-0.1305 -0.396,-0.3846 -0.396,-0.6612v-6.1892l-2.71972,2.7195c-0.2929,0.2929 -0.76777,0.2929 -1.06066,0c-0.29288,-0.2929 -0.29287,-0.7678 0.00004,-1.0607l3.78044,-3.7802v-0.3762l-6.7804,-6.78034c-0.29289,-0.2929 -0.29289,-0.76777 0,-1.06066c0.29289,-0.2929 0.76777,-0.2929 1.06066,0l16.00004,16c0.2929,0.2929 0.2929,0.7678 0,1.0607c-0.2929,0.2928 -0.7678,0.2928 -1.0607,0l-3.1664,-3.1664zM11.75,13.3997v5.1966l3.4716,-2.314l-1.7008,-1.7008zM17.4161,8.62152l-3.4404,2.29358l-1.0816,-1.08165l2.7539,-1.83597l-3.8979,-2.59861v3.2906l-1.5,-1.5v-3.19199c0,-0.27659 0.1522,-0.53074 0.3961,-0.66125c0.2439,-0.13052 0.5398,-0.11621 0.7699,0.03722l6,4c0.2087,0.1391 0.334,0.37327 0.334,0.62403c0,0.25077 -0.1253,0.48494 -0.334,0.62404z" fill="#002B51"/>
</svg>
