<svg width="24" height="24" viewBox="0 0 24 24" fill="none" xmlns="http://www.w3.org/2000/svg">
<path d="M10.6465,3.33636c0.2437,-0.13035 0.5394,-0.11621 0.7695,0.03711l6,4c0.2086,0.1391 0.334,0.37326 0.334,0.62403c0,0.25076 -0.1254,0.48492 -0.334,0.62402l-5.0654,3.37598l5.0634,3.3789c0.2084,0.1392 0.3331,0.3734 0.333,0.624c-0.0001,0.2507 -0.1254,0.485 -0.3339,0.6241l-5.9971,3.997c-0.2301,0.1534 -0.5257,0.1675 -0.7695,0.0371c-0.2439,-0.1305 -0.3965,-0.3845 -0.3965,-0.6611v-6.1895l-2.71976,2.7198c-0.29288,0.2928 -0.76767,0.2928 -1.06054,0c-0.29281,-0.2929 -0.29282,-0.7677 0,-1.0606l3.46972,-3.4697l-3.46972,-3.46973c-0.29283,-0.29289 -0.29286,-0.76767 0,-1.06055c0.27458,-0.27452 0.70934,-0.292 1.0039,-0.05175l0.05664,0.05175l2.71976,2.71978v-6.1895c0,-0.27656 0.1526,-0.53061 0.3965,-0.66114zM11.75,18.5961l3.8955,-2.5966l-3.8955,-2.6006zM11.75,10.5961l3.8974,-2.5986l-3.8974,-2.59864z" fill="#002B51"/>
</svg>
