<svg width="24" height="24" viewBox="0 0 24 24" fill="none" xmlns="http://www.w3.org/2000/svg">
<path fill-rule="evenodd" clip-rule="evenodd" d="M17.4161,7.37346c0.2087,0.1391 0.334,0.37327 0.334,0.62404c0,0.25076 -0.1253,0.48494 -0.334,0.62404l-5.0645,3.37636l5.0622,3.3783c0.2085,0.1391 0.3337,0.3733 0.3337,0.624c-0.0001,0.2507 -0.1254,0.4848 -0.3341,0.6239l-5.9975,3.9975c-0.2301,0.1534 -0.526,0.1677 -0.7699,0.0371c-0.2438,-0.1305 -0.396,-0.3846 -0.396,-0.6612v-6.1892l-2.71972,2.7195c-0.2929,0.2929 -0.76777,0.2929 -1.06066,0c-0.29288,-0.2929 -0.29287,-0.7678 0.00004,-1.0606l3.4698,-3.4696l-3.4698,-3.46963c-0.29291,-0.29289 -0.29292,-0.76776 -0.00004,-1.06066c0.29289,-0.29291 0.76776,-0.29292 1.06066,-0.00004l2.71982,2.71963v-6.1894c0,-0.2766 0.1522,-0.53074 0.3961,-0.66126c0.2439,-0.13051 0.5398,-0.11621 0.7699,0.03722zM15.648,7.9975l-3.8979,-2.59861v5.19721zM15.6458,15.9996l-3.8958,-2.5999v5.1966z" fill="#002B51"/>
</svg>
