<svg width="24" height="24" viewBox="0 0 24 24" fill="none" xmlns="http://www.w3.org/2000/svg">
<path d="M3.46975,3.46995c0.27461,-0.27461 0.70933,-0.29207 1.00391,-0.05176l0.05664,0.05176l16,15.99995l0.0518,0.0567c0.2402,0.2946 0.2228,0.7293 -0.0518,1.0039c-0.2746,0.2744 -0.7094,0.2919 -1.0039,0.0518l-0.0566,-0.0518l-3.168,-3.168l-4.8858,3.2588c-0.2299,0.1533 -0.5258,0.1672 -0.7695,0.0371c-0.2437,-0.1304 -0.3963,-0.3847 -0.3965,-0.6611v-6.1895l-2.7197,2.7198c-0.29277,0.2926 -0.76766,0.2924 -1.06055,0c-0.29279,-0.2929 -0.29279,-0.7677 0,-1.0606l3.78025,-3.7803v-0.3759l-6.78025,-6.78031l-0.05175,-0.05664c-0.24025,-0.29451 -0.22266,-0.72929 0.05175,-1.0039zM10.6465,3.33616c0.2438,-0.1303 0.5395,-0.11619 0.7695,0.03711l6,4c0.2085,0.13913 0.334,0.37341 0.334,0.62402c-0.0001,0.2506 -0.1254,0.48498 -0.334,0.62402l-3.4414,2.29299l-3.7246,-3.72463v-3.19238l0.0069,-0.10254c0.0324,-0.23568 0.1763,-0.44439 0.3896,-0.55859z" fill="#002B51"/>
</svg>
