<svg width="24" height="24" viewBox="0 0 24 24" fill="none" xmlns="http://www.w3.org/2000/svg">
<path d="M3.46974,3.47014c0.27461,-0.27461 0.70933,-0.29207 1.00391,-0.05176l0.05664,0.05176l16.00001,15.99996l0.0517,0.0567c0.2403,0.2946 0.2229,0.7293 -0.0517,1.0039c-0.2746,0.2744 -0.7094,0.2919 -1.0039,0.0517l-0.0567,-0.0517l-3.167,-3.167l-4.8867,3.2578c-0.23,0.1533 -0.5257,0.1674 -0.7695,0.0371c-0.2438,-0.1305 -0.3965,-0.3845 -0.3965,-0.6611v-6.1895l-2.71971,2.7198c-0.29287,0.2927 -0.76768,0.2927 -1.06055,0c-0.29279,-0.2929 -0.29282,-0.7677 0,-1.0606l3.78026,-3.7803v-0.3759l-6.78026,-6.78031l-0.05176,-0.05665c-0.24025,-0.29451 -0.22266,-0.72929 0.05176,-1.0039zM11.75,18.5961l3.4707,-2.3144l-1.7031,-1.7032l-1.7676,-1.1797zM10.6465,3.33635c0.2438,-0.13033 0.5395,-0.1162 0.7695,0.03711l6,4c0.2087,0.1391 0.334,0.37328 0.334,0.62402c0,0.25075 -0.1253,0.48492 -0.334,0.62403l-3.4414,2.29199l-1.081,-1.08106l2.7539,-1.83496l-3.8975,-2.59863v3.29004l-1.5,-1.5v-3.19141c0,-0.27655 0.1527,-0.5306 0.3965,-0.66113z" fill="#002B51"/>
</svg>
