<svg width="24" height="24" viewBox="0 0 24 24" fill="none" xmlns="http://www.w3.org/2000/svg">
<path d="M3.46978,3.46994c0.2746,-0.27461 0.70932,-0.29207 1.00391,-0.05176l0.05664,0.05176l15.99997,15.99996l0.0518,0.0567c0.2402,0.2946 0.2228,0.7293 -0.0518,1.0039c-0.2746,0.2744 -0.7094,0.2919 -1.0039,0.0517l-0.0566,-0.0517l-3.168,-3.168l-4.8857,3.2588c-0.23,0.1533 -0.5258,0.1673 -0.7696,0.0371c-0.2437,-0.1305 -0.3963,-0.3847 -0.3964,-0.6611v-6.1895l-2.71977,2.7198c-0.29278,0.2926 -0.76766,0.2924 -1.06055,0c-0.2928,-0.2929 -0.2928,-0.7677 0,-1.0606l3.78032,-3.7803v-0.3759l-6.78032,-6.78032l-0.05176,-0.05664c-0.24025,-0.29451 -0.22266,-0.72929 0.05176,-1.0039zM11.7501,18.5959l3.4707,-2.3144l-1.7032,-1.7032l-1.7675,-1.1797zM10.6465,3.33615c0.2438,-0.13031 0.5395,-0.1162 0.7696,0.03711l6,4c0.2084,0.13913 0.334,0.3734 0.334,0.62402c-0.0002,0.25062 -0.1255,0.48498 -0.334,0.62402l-3.4414,2.293l-1.0811,-1.08108l2.7539,-1.83594l-3.8974,-2.59863v3.29101l-1.5,-1.5v-3.19238l0.0068,-0.10254c0.0325,-0.23567 0.1763,-0.44439 0.3896,-0.55859z" fill="#002B51"/>
</svg>
