<svg width="24" height="24" viewBox="0 0 24 24" fill="none" xmlns="http://www.w3.org/2000/svg">
<path fill-rule="evenodd" clip-rule="evenodd" d="M17.4162,7.37333c0.2087,0.13909 0.334,0.37325 0.334,0.62402c0,0.25076 -0.1253,0.48492 -0.334,0.62402l-5.0645,3.37633l5.0624,3.3786c0.2084,0.1391 0.3331,0.3734 0.333,0.624c-0.0001,0.2506 -0.1254,0.485 -0.3339,0.624l-5.9971,3.9971c-0.2301,0.1533 -0.5257,0.1674 -0.7695,0.0371c-0.2439,-0.1305 -0.3965,-0.3846 -0.3965,-0.6612v-6.1893l-2.71963,2.7196c-0.29287,0.2929 -0.76765,0.2928 -1.06054,0c-0.29289,-0.2929 -0.29291,-0.7676 0,-1.0605l3.46966,-3.4697l-3.46979,-3.46978l-0.05175,-0.05664c-0.24024,-0.29457 -0.22281,-0.72932 0.05175,-1.00391c0.27459,-0.27452 0.70935,-0.29199 1.00391,-0.05175l0.05664,0.05175l2.71985,2.71983v-6.18955l0.0068,-0.10254c0.0325,-0.23571 0.1763,-0.4444 0.3897,-0.55859c0.2438,-0.13038 0.5394,-0.11627 0.7695,0.03711z" fill="#002B51"/>
</svg>
