<svg width="24" height="24" viewBox="0 0 24 24" fill="none" xmlns="http://www.w3.org/2000/svg">
<path fill-rule="evenodd" clip-rule="evenodd" d="M11.4158,20.6214c-0.2301,0.1533 -0.5258,0.1674 -0.7696,0.0371c-0.2438,-0.1306 -0.3964,-0.3846 -0.3964,-0.6612v-6.1893l-2.71964,2.7196c-0.29288,0.2929 -0.76766,0.2928 -1.06055,0c-0.29289,-0.2929 -0.2929,-0.7677 0,-1.0605l3.78029,-3.7803v-0.3763l-6.78006,-6.78008l-0.05175,-0.05664c-0.24031,-0.29459 -0.22285,-0.72931 0.05175,-1.00391c0.27461,-0.2746 0.70933,-0.29207 1.00391,-0.05176l0.05664,0.05176l16.00001,16.00003l0.0517,0.0566c0.2404,0.2946 0.2229,0.7293 -0.0517,1.0039c-0.2746,0.2746 -0.7093,0.2921 -1.0039,0.0518l-0.0567,-0.0518l-3.1665,-3.1666zM11.7498,13.3987v5.1973l3.4715,-2.3141l-1.7016,-1.7016zM17.4159,8.62136l-3.4404,2.29364l-1.0817,-1.08172l2.7535,-1.83595l-3.8974,-2.59863v3.29068l-1.5,-1.5v-3.19205l0.0068,-0.10254c0.0325,-0.23571 0.1763,-0.4444 0.3897,-0.55859c0.2438,-0.13037 0.5394,-0.11627 0.7695,0.03711l6,4c0.2086,0.1391 0.334,0.37326 0.334,0.62402c0,0.25077 -0.1254,0.48493 -0.334,0.62403z" fill="#002B51"/>
</svg>
