<svg width="24" height="24" viewBox="0 0 24 24" fill="none" xmlns="http://www.w3.org/2000/svg">
<path fill-rule="evenodd" clip-rule="evenodd" d="M11.4159,20.6216c-0.2302,0.1534 -0.5261,0.1677 -0.7699,0.0371c-0.2439,-0.1305 -0.3961,-0.3846 -0.3961,-0.6612v-6.1892l-2.71967,2.7195c-0.29291,0.2929 -0.76778,0.2929 -1.06066,0c-0.29289,-0.2929 -0.29287,-0.7678 0.00003,-1.0606l3.7804,-3.7803v-0.3762l-6.78033,-6.78034c-0.29289,-0.2929 -0.29289,-0.76777 0,-1.06066c0.29289,-0.2929 0.76777,-0.2929 1.06066,0l15.99997,16c0.2929,0.2929 0.2929,0.7678 0,1.0607c-0.2929,0.2928 -0.7677,0.2928 -1.0606,0l-3.1664,-3.1664zM17.4161,8.62154l-3.4404,2.29356l-3.7257,-3.72565v-3.19195c0,-0.2766 0.1523,-0.53074 0.3961,-0.66126c0.2439,-0.13051 0.5398,-0.11621 0.77,0.03722l6,4c0.2086,0.1391 0.3339,0.37327 0.3339,0.62404c0,0.25076 -0.1253,0.48494 -0.3339,0.62404z" fill="#002B51"/>
</svg>
