<svg width="24" height="24" viewBox="0 0 24 24" fill="none" xmlns="http://www.w3.org/2000/svg">
<path d="M3.46973,3.47015c0.2746,-0.2746 0.70932,-0.29206 1.0039,-0.05175l0.05664,0.05175l16.00003,16.00005l0.0517,0.0566c0.2402,0.2946 0.2228,0.7293 -0.0517,1.0039c-0.2746,0.2744 -0.7094,0.2919 -1.0039,0.0518l-0.0567,-0.0518l-3.167,-3.167l-4.8867,3.2578c-0.23,0.1533 -0.5257,0.1675 -0.7695,0.0371c-0.2439,-0.1305 -0.3965,-0.3845 -0.3965,-0.6611v-6.1895l-2.71973,2.7198c-0.29286,0.2928 -0.76767,0.2927 -1.06054,0c-0.29281,-0.2929 -0.29282,-0.7677 0,-1.0606l3.78027,-3.7802v-0.376l-6.78027,-6.7803l-0.05176,-0.05664c-0.24025,-0.29451 -0.22266,-0.72929 0.05176,-1.00391zM10.6465,3.33636c0.2438,-0.13031 0.5395,-0.1162 0.7695,0.03711l6,4c0.2086,0.13911 0.334,0.37329 0.334,0.62403c0,0.25074 -0.1254,0.48492 -0.334,0.62402l-3.4414,2.29198l-3.7246,-3.7246v-3.1914c0,-0.27656 0.1527,-0.53061 0.3965,-0.66114z" fill="#002B51"/>
</svg>
