<svg width="24" height="24" viewBox="0 0 24 24" fill="none" xmlns="http://www.w3.org/2000/svg">
<path fill-rule="evenodd" clip-rule="evenodd" d="M16.3033 17.364L19.4697 20.5304C19.7626 20.8232 20.2375 20.8232 20.5303 20.5304C20.8232 20.2375 20.8232 19.7626 20.5303 19.4697L4.53035 3.4697C4.23745 3.1768 3.76258 3.1768 3.46969 3.4697C3.17679 3.76259 3.17679 4.23746 3.46969 4.53036L10.2501 11.3107V11.6869L6.46964 15.4671C6.17674 15.76 6.17672 16.2349 6.46961 16.5278C6.76249 16.8207 7.23737 16.8207 7.53027 16.5278L10.25 13.8083V19.9975C10.25 20.2741 10.4022 20.5282 10.646 20.6587C10.8899 20.7892 11.1858 20.775 11.4159 20.6216L16.3033 17.364ZM13.5208 14.5815L15.2216 16.2823L11.75 18.5963V13.3997L13.5208 14.5815ZM17.4161 8.62152L13.9757 10.9151L12.8941 9.83345L15.648 7.99748L11.7501 5.39887V8.68947L10.2501 7.18947V3.99748C10.2501 3.72089 10.4023 3.46674 10.6462 3.33623C10.8901 3.20571 11.186 3.22002 11.4161 3.37345L17.4161 7.37345C17.6248 7.51255 17.7501 7.74672 17.7501 7.99748C17.7501 8.24825 17.6248 8.48242 17.4161 8.62152Z" fill="#002B51"/>
</svg>
