<svg width="24" height="24" viewBox="0 0 24 24" fill="none" xmlns="http://www.w3.org/2000/svg">
<path fill-rule="evenodd" clip-rule="evenodd" d="M11.4161 3.37346C11.186 3.22003 10.8901 3.20573 10.6462 3.33624C10.4024 3.46676 10.2501 3.7209 10.2501 3.9975V10.1869L7.53031 7.46727C7.23741 7.17439 6.76254 7.1744 6.46965 7.46731C6.17677 7.76021 6.17678 8.23508 6.46969 8.52797L9.93949 11.9976L6.46969 15.4672C6.17678 15.76 6.17677 16.2349 6.46965 16.5278C6.76254 16.8207 7.23741 16.8207 7.53031 16.5278L10.25 13.8083V19.9975C10.25 20.2741 10.4022 20.5282 10.6461 20.6587C10.8899 20.7893 11.1858 20.775 11.416 20.6216L17.4135 16.6241C17.6221 16.485 17.7474 16.2509 17.7475 16.0002C17.7476 15.7495 17.6224 15.5153 17.4138 15.3762L12.3517 11.9979L17.4161 8.62154C17.6248 8.48244 17.7501 8.24826 17.7501 7.9975C17.7501 7.74673 17.6248 7.51256 17.4161 7.37346L11.4161 3.37346Z" fill="#002B51"/>
</svg>
