<svg width="24" height="24" viewBox="0 0 24 24" fill="none" xmlns="http://www.w3.org/2000/svg">
<path d="M14.4395,2.50191c0.2294,-0.25808 0.6057,-0.32626 0.9111,-0.16504c0.305,0.16128 0.4605,0.50994 0.3769,0.84472l-1.8183,7.27251l3.2724,0.8183c0.2544,0.0636 0.4577,0.2554 0.5352,0.5059c0.0774,0.2506 0.0179,0.5236 -0.1563,0.7197l-7.99995,9c-0.22942,0.2581 -0.60578,0.3263 -0.91114,0.165c-0.30504,-0.1612 -0.46054,-0.5099 -0.37695,-0.8447l1.81734,-7.2734l-3.27144,-0.8174c-0.25443,-0.0636 -0.45769,-0.2553 -0.53516,-0.5059c-0.07739,-0.2506 -0.01797,-0.5236 0.15625,-0.7197zM8.38281,11.5722l2.79879,0.7002c0.4018,0.1005 0.6462,0.5075 0.5459,0.9092l-1.2597,5.0381l5.1484,-5.793l-2.7978,-0.6992c-0.193,-0.0483 -0.3596,-0.1712 -0.462,-0.3418c-0.1021,-0.1705 -0.1321,-0.3746 -0.0839,-0.5674l1.2587,-5.03905z" fill="#002B51"/>
</svg>
