<svg width="24" height="24" viewBox="0 0 24 24" fill="none" xmlns="http://www.w3.org/2000/svg">
<path fill-rule="evenodd" clip-rule="evenodd" d="M15.3502,2.33675c0.3053,0.16123 0.4612,0.51012 0.3774,0.84512l-1.8181,7.27253l3.2724,0.818c0.2545,0.0636 0.4573,0.2556 0.5347,0.5063c0.0774,0.2506 0.0182,0.5235 -0.156,0.7196l-8.00005,8.9999c-0.22941,0.2581 -0.60539,0.3262 -0.91075,0.165c-0.30536,-0.1612 -0.46116,-0.5101 -0.37741,-0.8451l1.81811,-7.2723l-3.2724,-0.8182c-0.2545,-0.0636 -0.45726,-0.2556 -0.53468,-0.5062c-0.07742,-0.2507 -0.01825,-0.5236 0.15603,-0.7196l7.99995,-9.0001c0.2294,-0.25809 0.6054,-0.32619 0.9108,-0.16495zM8.38325,11.5728l2.79865,0.6997c0.4019,0.1005 0.6462,0.5077 0.5457,0.9095l-1.2593,5.0373l5.1484,-5.792l-2.7986,-0.6996c-0.193,-0.0482 -0.3589,-0.1712 -0.4612,-0.3417c-0.1023,-0.1706 -0.1327,-0.3748 -0.0845,-0.5678l1.2594,-5.03754z" fill="#002B51"/>
</svg>
