<svg width="24" height="24" viewBox="0 0 24 24" fill="none" xmlns="http://www.w3.org/2000/svg">
<path fill-rule="evenodd" clip-rule="evenodd" d="M13.9095,10.4544l3.2724,0.818c0.2545,0.0636 0.4573,0.2556 0.5347,0.5063c0.0774,0.2506 0.0182,0.5235 -0.156,0.7196l-8.00005,8.9999c-0.22941,0.2581 -0.60539,0.3262 -0.91075,0.165c-0.30536,-0.1612 -0.46116,-0.5101 -0.37741,-0.8451l1.81811,-7.2723l-3.2724,-0.8182c-0.2545,-0.0636 -0.45726,-0.2556 -0.53468,-0.5062c-0.07742,-0.2507 -0.01825,-0.5236 0.15603,-0.7196l7.99995,-9.0001c0.2294,-0.25809 0.6054,-0.32619 0.9108,-0.16495c0.3053,0.16123 0.4612,0.51012 0.3774,0.84512z" fill="#002B51"/>
</svg>
