<svg width="24" height="24" viewBox="0 0 24 24" fill="none" xmlns="http://www.w3.org/2000/svg">
<path d="M14.5324,2.41386c0.2298,-0.18362 0.5512,-0.21818 0.8183,-0.07715c0.3051,0.16128 0.4606,0.50995 0.377,0.84473l-1.8184,7.27246l3.2725,0.8184c0.2544,0.0636 0.4576,0.2553 0.5351,0.5058c0.0774,0.2506 0.018,0.5237 -0.1562,0.7197l-8.00001,9c-0.22941,0.2581 -0.60577,0.3263 -0.91113,0.1651c-0.30504,-0.1613 -0.46054,-0.5099 -0.37695,-0.8447l1.81739,-7.2735l-3.27149,-0.8174c-0.25443,-0.0636 -0.45769,-0.2553 -0.53516,-0.5058c-0.07739,-0.2506 -0.01797,-0.5237 0.15625,-0.7197l8,-9.00005zM8.38296,11.5721l2.79884,0.7002c0.4017,0.1004 0.6461,0.5074 0.5459,0.9091l-1.2598,5.0381l5.1485,-5.7929l-2.7979,-0.6993c-0.193,-0.0482 -0.3596,-0.1712 -0.4619,-0.3418c-0.1021,-0.1704 -0.1322,-0.3746 -0.084,-0.5673l1.2588,-5.0391z" fill="#002B51"/>
</svg>
