<svg width="24" height="24" viewBox="0 0 24 24" fill="none" xmlns="http://www.w3.org/2000/svg">
<path d="M14.4395,2.50191c0.2294,-0.25808 0.6057,-0.32626 0.9111,-0.16504c0.305,0.16128 0.4605,0.50994 0.3769,0.84472l-1.8183,7.27251l3.2724,0.8183c0.2544,0.0636 0.4577,0.2554 0.5352,0.5059c0.0774,0.2506 0.0179,0.5236 -0.1563,0.7197l-7.99995,9c-0.22942,0.2581 -0.60578,0.3263 -0.91114,0.165c-0.30504,-0.1612 -0.46054,-0.5099 -0.37695,-0.8447l1.81734,-7.2734l-3.27144,-0.8174c-0.25443,-0.0636 -0.45769,-0.2553 -0.53516,-0.5059c-0.07739,-0.2506 -0.01797,-0.5236 0.15625,-0.7197z" fill="#002B51"/>
</svg>
