<svg width="24" height="24" viewBox="0 0 24 24" fill="none" xmlns="http://www.w3.org/2000/svg">
<path fill-rule="evenodd" clip-rule="evenodd" d="M4.25,4.5c0,-1.24264 1.00736,-2.25 2.25,-2.25h11c1.2426,0 2.25,1.00736 2.25,2.25v16.5c0,0.2674 -0.1423,0.5145 -0.3736,0.6487c-0.2312,0.1342 -0.5164,0.1351 -0.7485,0.0025l-6.6279,-3.7874l-6.6279,3.7874c-0.23212,0.1326 -0.51731,0.1317 -0.74855,-0.0025c-0.23123,-0.1342 -0.37355,-0.3813 -0.37355,-0.6487zM6.5,3.75c-0.41421,0 -0.75,0.33579 -0.75,0.75v15.2076l5.8779,-3.3588c0.2306,-0.1317 0.5136,-0.1317 0.7442,0l5.8779,3.3588v-15.2076c0,-0.41421 -0.3358,-0.75 -0.75,-0.75z" fill="#002B51"/>
</svg>
