<svg width="24" height="24" viewBox="0 0 24 24" fill="none" xmlns="http://www.w3.org/2000/svg">
<path d="M18.25,4.5c0,-0.41421 -0.3358,-0.75 -0.75,-0.75h-11c-0.41421,0 -0.75,0.33579 -0.75,0.75v15.207l5.8779,-3.3584l0.0889,-0.0429c0.2117,-0.0864 0.4536,-0.0723 0.6553,0.0429l5.8779,3.3584zM19.75,21c0,0.2674 -0.1428,0.5142 -0.374,0.6484c-0.2312,0.1341 -0.516,0.1355 -0.7481,0.003l-6.6279,-3.7881l-6.62793,3.7881c-0.23203,0.1325 -0.51689,0.1311 -0.74805,-0.003c-0.23123,-0.1342 -0.37402,-0.381 -0.37402,-0.6484v-16.5c0,-1.24264 1.00736,-2.25 2.25,-2.25h11c1.2426,0 2.25,1.00736 2.25,2.25z" fill="#002B51"/>
</svg>
