<svg width="24" height="24" viewBox="0 0 24 24" fill="none" xmlns="http://www.w3.org/2000/svg">
<path fill-rule="evenodd" clip-rule="evenodd" d="M19,1.24997c0.4142,0 0.75,0.33579 0.75,0.75v2.25004l2.25,-0.00001c0.4142,0 0.75,0.33578 0.75,0.75c0,0.41421 -0.3358,0.75 -0.75,0.75l-2.25,0.00001v2.24996c0,0.41421 -0.3358,0.75 -0.75,0.75c-0.4142,0 -0.75,-0.33579 -0.75,-0.75v-2.24995l-2.25,0.00001c-0.4142,0 -0.75,-0.33578 -0.75,-0.75c0,-0.41421 0.3358,-0.75 0.75,-0.75l2.25,-0.00001v-2.25005c0,-0.41421 0.3358,-0.75 0.75,-0.75zM6.5,2.25001h8.2993c-0.675,0.29512 -1.2204,0.83144 -1.5272,1.5h-6.7721c-0.41421,0 -0.75,0.33578 -0.75,0.75v15.20759l5.8779,-3.3588c0.2306,-0.1317 0.5136,-0.1317 0.7442,0l5.8779,3.3588v-8.8021c0.2397,0.0617 0.491,0.0945 0.75,0.0945c0.259,0 0.5103,-0.0328 0.75,-0.0945v10.0945c0,0.2674 -0.1423,0.5145 -0.3736,0.6487c-0.2312,0.1342 -0.5164,0.1351 -0.7485,0.0025l-6.6279,-3.7874l-6.6279,3.7874c-0.23212,0.1326 -0.51731,0.1317 -0.74855,-0.0025c-0.23123,-0.1342 -0.37355,-0.3813 -0.37355,-0.6487v-16.49999c0,-1.24264 1.00736,-2.25 2.25,-2.25z" fill="#002B51"/>
</svg>
