<svg width="24" height="24" viewBox="0 0 24 24" fill="none" xmlns="http://www.w3.org/2000/svg">
<path fill-rule="evenodd" clip-rule="evenodd" d="M18.25,7.99997v-2.24997h-2.25c-0.4142,0 -0.75,-0.33579 -0.75,-0.75c0,-0.4142 0.3358,-0.75 0.75,-0.75h2.25v-2.25003c0,-0.41421 0.3358,-0.75 0.75,-0.75c0.4142,0 0.75,0.33579 0.75,0.75v2.25003h2.25l0.0772,0.00391c0.3779,0.03862 0.6728,0.35793 0.6728,0.74609c0,0.38817 -0.2949,0.70747 -0.6728,0.74609l-0.0772,0.00391h-2.25v2.24997c0,0.41421 -0.3358,0.75 -0.75,0.75c-0.4142,0 -0.75,-0.33579 -0.75,-0.75zM19,11c0.259,0 0.5103,-0.0328 0.75,-0.0945v10.0945c0,0.2673 -0.1428,0.5142 -0.374,0.6484c-0.2312,0.1341 -0.516,0.1355 -0.7481,0.003l-6.6279,-3.7881l-6.62793,3.7881c-0.23203,0.1325 -0.51689,0.1311 -0.74805,-0.003c-0.23123,-0.1342 -0.37402,-0.3811 -0.37402,-0.6484v-16.50001c0,-1.24264 1.00736,-2.25 2.25,-2.25h8.2992c-1.0591,0.46312 -1.7992,1.52016 -1.7992,2.75003c0,1.65685 1.3432,3 3,3c0,1.65684 1.3432,2.99998 3,2.99998z" fill="#002B51"/>
</svg>
