<svg width="24" height="24" viewBox="0 0 24 24" fill="none" xmlns="http://www.w3.org/2000/svg">
<path d="M14.8066,2.24997c-1.0624,0.46169 -1.8066,1.51774 -1.8066,2.75c0,1.60509 1.2606,2.91578 2.8457,2.99609l0.1543,0.00391c0,1.65685 1.3432,3.00003 3,3.00003c0.2593,0 0.51,-0.0368 0.75,-0.0987v10.0987c0,0.2673 -0.1428,0.5142 -0.374,0.6484c-0.2312,0.134 -0.516,0.1355 -0.7481,0.0029l-6.6279,-3.788l-6.62793,3.788c-0.23203,0.1326 -0.51689,0.1311 -0.74805,-0.0029c-0.23123,-0.1342 -0.37402,-0.3811 -0.37402,-0.6484v-16.50003c0.00001,-1.24263 1.00737,-2.25 2.25,-2.25zM19,1.24997c0.4142,0 0.75,0.33579 0.75,0.75v2.25h2.25l0.0771,0.00391c0.378,0.03862 0.6729,0.35794 0.6729,0.74609c0,0.38816 -0.2949,0.70747 -0.6729,0.74609l-0.0771,0.00391h-2.25v2.25c0,0.41421 -0.3358,0.75 -0.75,0.75c-0.4142,0 -0.75,-0.33579 -0.75,-0.75v-2.25h-2.25c-0.4142,0 -0.75,-0.33579 -0.75,-0.75c0,-0.41418 0.3358,-0.74999 0.75,-0.75h2.25v-2.25c0,-0.41421 0.3358,-0.75 0.75,-0.75z" fill="#002B51"/>
</svg>
