<svg width="24" height="24" viewBox="0 0 24 24" fill="none" xmlns="http://www.w3.org/2000/svg">
<path d="M14.8066,2.24997c-0.6773,0.29436 -1.2233,0.83 -1.5312,1.5h-6.7754c-0.4142,0 -0.74998,0.3358 -0.75,0.75v15.20703l5.8779,-3.3584l0.0889,-0.043c0.2117,-0.0864 0.4536,-0.0722 0.6553,0.043l5.8779,3.3584v-8.8057c0.24,0.0619 0.4907,0.0987 0.75,0.0987c0.2593,0 0.51,-0.0368 0.75,-0.0987v10.0987c0,0.2673 -0.1428,0.5142 -0.374,0.6484c-0.2312,0.134 -0.516,0.1355 -0.7481,0.0029l-6.6279,-3.788l-6.62793,3.788c-0.23203,0.1326 -0.51689,0.1311 -0.74805,-0.0029c-0.23122,-0.1342 -0.37402,-0.3811 -0.37402,-0.6484v-16.50003c0.00002,-1.24262 1.00737,-2.25 2.25,-2.25zM19,1.24997c0.4142,0 0.75,0.33579 0.75,0.75v2.25h2.25l0.0771,0.00391c0.378,0.03862 0.6729,0.35794 0.6729,0.74609c0,0.38816 -0.2949,0.70747 -0.6729,0.74609l-0.0771,0.00391h-2.25v2.25c0,0.41421 -0.3358,0.75 -0.75,0.75c-0.4142,0 -0.75,-0.33579 -0.75,-0.75v-2.25h-2.25c-0.4142,0 -0.75,-0.33579 -0.75,-0.75c0,-0.41418 0.3358,-0.74999 0.75,-0.75h2.25v-2.25c0,-0.41421 0.3358,-0.75 0.75,-0.75z" fill="#002B51"/>
</svg>
