<svg width="24" height="24" viewBox="0 0 24 24" fill="none" xmlns="http://www.w3.org/2000/svg">
<path fill-rule="evenodd" clip-rule="evenodd" d="M19,1.24997c0.4142,0 0.75,0.33579 0.75,0.75v2.25004l2.25,-0.00001c0.4142,0 0.75,0.33578 0.75,0.75c0,0.41421 -0.3358,0.75 -0.75,0.75l-2.25,0.00001v2.24996c0,0.41421 -0.3358,0.75 -0.75,0.75c-0.4142,0 -0.75,-0.33579 -0.75,-0.75v-2.24995l-2.25,0.00001c-0.4142,0 -0.75,-0.33578 -0.75,-0.75c0,-0.41421 0.3358,-0.75 0.75,-0.75l2.25,-0.00001v-2.25005c0,-0.41421 0.3358,-0.75 0.75,-0.75zM16,8.00005c0,1.65683 1.3432,2.99995 3,2.99995c0.259,0 0.5103,-0.0328 0.75,-0.0945v10.0945c0,0.2673 -0.1423,0.5145 -0.3736,0.6487c-0.2312,0.1342 -0.5164,0.1351 -0.7485,0.0025l-6.6279,-3.7874l-6.6279,3.7874c-0.23212,0.1326 -0.51731,0.1317 -0.74855,-0.0025c-0.23123,-0.1342 -0.37355,-0.3814 -0.37355,-0.6487v-16.50001c0,-1.24264 1.00736,-2.25 2.25,-2.25h8.2993c-1.0592,0.4631 -1.7993,1.52016 -1.7993,2.75008c0,1.65685 1.3432,2.99998 3,2.99998z" fill="#002B51"/>
</svg>
