<svg width="24" height="24" viewBox="0 0 24 24" fill="none" xmlns="http://www.w3.org/2000/svg">
<g clip-path="url(#clip0_4144_20607)">
<rect width="24" height="24" fill="#FF4E4E"/>
<path d="M35.9987,23.9986h-47.9972v-23.9986h47.9972z" fill="#002395"/>
<path d="M0.72022,0h23.99859v24z" fill="#FECB00"/>
<path d="M-1.9376,4.5752l0.51084,-1.57464l-1.33887,-0.97398h1.65605l0.51225,-1.57605l0.51085,1.57605h1.65604l-1.33887,0.97398l0.51085,1.57464l-1.33887,-0.97398z" fill="white"/>
<path d="M3.74221,7.57573l-1.34027,-0.97398l-1.34028,0.97398l0.51225,-1.57605l-1.34027,-0.97398h1.65605l0.51225,-1.57464l0.51225,1.57464h1.65604l-1.34027,0.97398z" fill="white"/>
<path d="M4.06191,10.5749l0.51085,-1.57608l-1.33887,-0.97258h1.65604l0.51225,-1.57604l0.51085,1.57604h1.65604l-1.33887,0.97258l0.51085,1.57608l-1.33887,-0.97401z" fill="white"/>
<path d="M7.06093,13.5754l0.51225,-1.5761l-1.34027,-0.9739h1.65604l0.51226,-1.57468l0.51225,1.57468h1.65604l-1.34027,0.9739l0.51225,1.5761l-1.34027,-0.974z" fill="white"/>
<path d="M12.7408,16.5745l-1.3389,-0.974l-1.3402,0.974l0.5108,-1.5746l-1.33886,-0.974h1.65606l0.5122,-1.5761l0.5109,1.5761h1.656l-1.3388,0.974z" fill="white"/>
<path d="M13.06,19.5754l0.5122,-1.5761l-1.3403,-0.974h1.6561l0.5122,-1.5746l0.5123,1.5746h1.656l-1.3402,0.974l0.5122,1.5761l-1.3403,-0.974z" fill="white"/>
<path d="M16.0604,22.5745l0.5109,-1.5761l-1.3389,-0.9725h1.6561l0.5122,-1.5761l0.5109,1.5761h1.656l-1.3389,0.9725l0.5109,1.5761l-1.3389,-0.974z" fill="white"/>
<path d="M19.572,23.999l-1.3403,-0.974h1.656l0.5123,-1.5747l0.5122,1.5747h1.6561l-1.3403,0.974z" fill="white"/>
</g>
<defs>
<clipPath id="clip0_4144_20607">
<rect width="24" height="24" fill="white"/>
</clipPath>
</defs>
</svg>
