<svg width="24" height="24" viewBox="0 0 24 24" fill="none" xmlns="http://www.w3.org/2000/svg">
<path fill-rule="evenodd" clip-rule="evenodd" d="M5.5293,7.50018l2.35324,1.3233l6.56966,-3.58344l-2.4522,-1.37951zM12,11.1389l6.4697,-3.63872l-2.4756,-1.39272l-6.56934,3.58326zM20.75,16.5002c0,0.2707 -0.146,0.5204 -0.3818,0.6533l-8,4.5c-0.2283,0.1284 -0.5081,0.1284 -0.7364,0l-7.99996,-4.5c-0.23586,-0.1329 -0.38184,-0.3826 -0.38184,-0.6533v-9.00002c0,-0.27076 0.14598,-0.52041 0.38184,-0.65332l7.99996,-4.5l0.0879,-0.04297c0.2095,-0.08435 0.4486,-0.06943 0.6485,0.04297l8,4.5c0.2358,0.13291 0.3818,0.38256 0.3818,0.65332z" fill="#002B51"/>
</svg>
