<svg width="24" height="24" viewBox="0 0 24 24" fill="none" xmlns="http://www.w3.org/2000/svg">
<path fill-rule="evenodd" clip-rule="evenodd" d="M12.3677 2.34632C12.1394 2.21789 11.8606 2.21789 11.6323 2.34632L3.6323 6.84632C3.39615 6.97916 3.25 7.22904 3.25 7.5V16.5C3.25 16.771 3.39615 17.0208 3.6323 17.1537L11.6323 21.6537C11.8606 21.7821 12.1394 21.7821 12.3677 21.6537L20.3677 17.1537C20.6039 17.0208 20.75 16.771 20.75 16.5V7.5C20.75 7.22904 20.6039 6.97916 20.3677 6.84632L12.3677 2.34632ZM11.25 12.4386L4.75 8.78239V16.0614L11.25 19.7176V12.4386ZM19.25 16.0614L12.75 19.7176V12.4386L19.25 8.78239V16.0614ZM18.4702 7.5L12 11.1395L9.42466 9.69086L15.9944 6.10736L18.4702 7.5ZM14.4523 5.23991L7.88251 8.8234L5.5298 7.5L12 3.86051L14.4523 5.23991Z" fill="#002B51"/>
</svg>
