<svg width="24" height="24" viewBox="0 0 24 24" fill="none" xmlns="http://www.w3.org/2000/svg">
<path fill-rule="evenodd" clip-rule="evenodd" d="M11.25,12.4387l-6.5,-3.65629v7.27829l6.5,3.6563zM19.25,16.0607v-7.27829l-6.5,3.65629v7.2783zM14.4522,5.24004l-2.4522,-1.37951l-6.4707,3.63965l2.35324,1.3233zM15.9941,6.10746l-6.56934,3.58326l2.57524,1.44818l6.4697,-3.63872zM12.3682,21.6535c-0.2283,0.1284 -0.5081,0.1284 -0.7364,0l-7.99996,-4.5c-0.23586,-0.1329 -0.38184,-0.3826 -0.38184,-0.6533v-9.00002c0,-0.27076 0.14598,-0.52041 0.38184,-0.65332l7.99996,-4.5l0.0879,-0.04297c0.2095,-0.08435 0.4486,-0.06943 0.6485,0.04297l8,4.5c0.2358,0.13291 0.3818,0.38256 0.3818,0.65332v9.00002c0,0.2707 -0.146,0.5204 -0.3818,0.6533z" fill="#002B51"/>
</svg>
