<svg width="24" height="24" viewBox="0 0 24 24" fill="none" xmlns="http://www.w3.org/2000/svg">
<path fill-rule="evenodd" clip-rule="evenodd" d="M20.3677,6.84632c0.2362,0.13284 0.3823,0.38272 0.3823,0.65368v9c0,0.271 -0.1461,0.5208 -0.3823,0.6537l-8,4.5c-0.2283,0.1284 -0.5071,0.1284 -0.7354,0l-8,-4.5c-0.23615,-0.1329 -0.3823,-0.3827 -0.3823,-0.6537v-9c0,-0.27096 0.14615,-0.52084 0.3823,-0.65368l8,-4.5c0.2283,-0.12843 0.5071,-0.12843 0.7354,0zM11.25,12.4386l-6.5,-3.65621v7.27901l6.5,3.6562zM19.25,8.78239l-6.5,3.65621v7.279l6.5,-3.6562zM15.9944,6.10736l-6.56974,3.5835l2.57534,1.44864l6.4702,-3.6395zM12,3.86051l-6.4702,3.63949l2.35271,1.3234l6.56979,-3.58349z" fill="#002B51"/>
</svg>
