<svg width="24" height="24" viewBox="0 0 24 24" fill="none" xmlns="http://www.w3.org/2000/svg">
<path d="M11.7197,2.30386c0.2095,-0.08431 0.4487,-0.06938 0.6485,0.04297l8,4.5c0.2358,0.13288 0.3817,0.38263 0.3818,0.65332v8.99995c0,0.2708 -0.146,0.5204 -0.3818,0.6534l-8,4.5c-0.2283,0.1284 -0.5081,0.1284 -0.7364,0l-7.99996,-4.5c-0.23582,-0.133 -0.38184,-0.3826 -0.38184,-0.6534v-8.99995c0.00006,-0.27069 0.14603,-0.52044 0.38184,-0.65332l7.99996,-4.5zM9.4248,9.69058l2.5752,1.44822l6.4697,-3.63865l-2.4756,-1.39356zM5.5293,7.50015l2.35254,1.32324l6.57026,-3.58398l-2.4521,-1.37891z" fill="#002B51"/>
</svg>
