<svg width="24" height="24" viewBox="0 0 24 24" fill="none" xmlns="http://www.w3.org/2000/svg">
<path d="M19.75,3.25c0.5523,0 1,0.44772 1,1v3.5c0,0.55228 -0.4477,1 -1,1v10.25c0,0.9665 -0.7835,1.75 -1.75,1.75h-12c-0.90617,0 -1.6517,-0.6887 -1.74121,-1.5713l-0.00879,-0.1787v-10.25c-0.55228,0 -1,-0.44772 -1,-1v-3.5c0,-0.55228 0.44772,-1 1,-1zM5.75,19l0.00488,0.0508c0.02345,0.1137 0.12443,0.1992 0.24512,0.1992h12c0.1381,0 0.25,-0.1119 0.25,-0.25v-10.25h-12.5zM14,11.25c0.4142,0 0.75,0.3358 0.75,0.75c0,0.4142 -0.3358,0.75 -0.75,0.75h-4c-0.41421,0 -0.75,-0.3358 -0.75,-0.75c0,-0.4142 0.33579,-0.75 0.75,-0.75zM4.75,7.25h14.5v-2.5h-14.5z" fill="#002B51"/>
</svg>
