<svg width="24" height="24" viewBox="0 0 24 24" fill="none" xmlns="http://www.w3.org/2000/svg">
<path fill-rule="evenodd" clip-rule="evenodd" d="M3.25,4.25c0,-0.55228 0.44772,-1 1,-1h15.5c0.5523,0 1,0.44772 1,1v3.5c0,0.55228 -0.4477,1 -1,1v10.25c0,0.9665 -0.7835,1.75 -1.75,1.75h-12c-0.9665,0 -1.75,-0.7835 -1.75,-1.75v-10.25c-0.55228,0 -1,-0.44772 -1,-1zM4.75,4.75v2.5h0.25h14h0.25v-2.5zM10,12.75h4c0.4142,0 0.75,-0.3358 0.75,-0.75c0,-0.4142 -0.3358,-0.75 -0.75,-0.75h-4c-0.41421,0 -0.75,0.3358 -0.75,0.75c0,0.4142 0.33579,0.75 0.75,0.75z" fill="#002B51"/>
</svg>
