<svg width="24" height="24" viewBox="0 0 24 24" fill="none" xmlns="http://www.w3.org/2000/svg">
<path fill-rule="evenodd" clip-rule="evenodd" d="M19,3.25c0.9665,0 1.75,0.7835 1.75,1.75v14c0,0.9665 -0.7835,1.75 -1.75,1.75h-14c-0.9665,0 -1.75,-0.7835 -1.75,-1.75v-14c0,-0.9665 0.7835,-1.75 1.75,-1.75zM14.125,4.75h-4.25v5.25c0,0.2305 0.1269,0.4423 0.3301,0.551c0.2032,0.1088 0.4498,0.0969 0.6416,-0.031l1.1533,-0.76884l1.1533,0.76884c0.1918,0.1279 0.4384,0.1398 0.6416,0.031c0.2032,-0.1087 0.3301,-0.3205 0.3301,-0.551z" fill="#002B51"/>
</svg>
