<svg width="24" height="24" viewBox="0 0 24 24" fill="none" xmlns="http://www.w3.org/2000/svg">
<path d="M19,3.25c0.9665,0 1.75,0.7835 1.75,1.75v14c0,0.9665 -0.7835,1.75 -1.75,1.75h-14c-0.9665,0 -1.75,-0.7835 -1.75,-1.75v-14c0,-0.9665 0.7835,-1.75 1.75,-1.75zM7,16.25c-0.41421,0 -0.75,0.3358 -0.75,0.75c0,0.4142 0.33579,0.75 0.75,0.75h4l0.0771,-0.0039c0.378,-0.0386 0.6729,-0.3579 0.6729,-0.7461c0,-0.3882 -0.2949,-0.7075 -0.6729,-0.7461l-0.0771,-0.0039zM9.75,10c0,0.2766 0.15262,0.5306 0.3965,0.6611c0.2438,0.1304 0.5394,0.1163 0.7695,-0.0371l1.084,-0.72263l1.084,0.72263c0.2301,0.1534 0.5257,0.1675 0.7695,0.0371c0.2439,-0.1305 0.3965,-0.3845 0.3965,-0.6611v-5.25h-4.5z" fill="#002B51"/>
</svg>
