<svg width="24" height="24" viewBox="0 0 24 24" fill="none" xmlns="http://www.w3.org/2000/svg">
<path fill-rule="evenodd" clip-rule="evenodd" d="M10,3.25h4h5c0.9665,0 1.75,0.7835 1.75,1.75v14c0,0.9665 -0.7835,1.75 -1.75,1.75h-14c-0.9665,0 -1.75,-0.7835 -1.75,-1.75v-14c0,-0.9665 0.7835,-1.75 1.75,-1.75zM9.25,4.75h-4.25c-0.13807,0 -0.25,0.11193 -0.25,0.25v14c0,0.1381 0.11193,0.25 0.25,0.25h14c0.1381,0 0.25,-0.1119 0.25,-0.25v-14c0,-0.13807 -0.1119,-0.25 -0.25,-0.25h-4.25v5.25c0,0.2599 -0.1346,0.5013 -0.3557,0.638c-0.2211,0.1366 -0.4972,0.1491 -0.7297,0.0328l-1.6646,-0.83227l-1.6646,0.83227c-0.2325,0.1163 -0.50859,0.1038 -0.7297,-0.0328c-0.22111,-0.1367 -0.3557,-0.3781 -0.3557,-0.638zM13.25,4.75h-2.5v4.03647l0.9146,-0.45729c0.2111,-0.10557 0.4597,-0.10557 0.6708,0l0.9146,0.45729z" fill="#002B51"/>
</svg>
