<svg width="24" height="24" viewBox="0 0 24 24" fill="none" xmlns="http://www.w3.org/2000/svg">
<path fill-rule="evenodd" clip-rule="evenodd" d="M19,3.25c0.9665,0 1.75,0.7835 1.75,1.75v14c0,0.9665 -0.7835,1.75 -1.75,1.75h-14c-0.9665,0 -1.75,-0.7835 -1.75,-1.75v-14c0,-0.9665 0.7835,-1.75 1.75,-1.75zM14.25,4.75h-4.5v5.25c0,0.2766 0.15224,0.5307 0.3961,0.6613c0.2439,0.1305 0.5398,0.1162 0.7699,-0.0373l1.084,-0.72261l1.084,0.72261c0.2301,0.1535 0.526,0.1678 0.7699,0.0373c0.2439,-0.1306 0.3961,-0.3847 0.3961,-0.6613zM7,17.75h4c0.4142,0 0.75,-0.3358 0.75,-0.75c0,-0.4142 -0.3358,-0.75 -0.75,-0.75h-4c-0.41421,0 -0.75,0.3358 -0.75,0.75c0,0.4142 0.33579,0.75 0.75,0.75z" fill="#002B51"/>
</svg>
