<svg width="24" height="24" viewBox="0 0 24 24" fill="none" xmlns="http://www.w3.org/2000/svg">
<path fill-rule="evenodd" clip-rule="evenodd" d="M19.25,5c0,-0.13807 -0.1119,-0.25 -0.25,-0.25h-4.25v5.25c0,0.2598 -0.1345,0.501 -0.3555,0.6377c-0.1934,0.1195 -0.429,0.1439 -0.6406,0.0703l-0.0889,-0.0371l-1.665,-0.83301l-1.665,0.83301c-0.2324,0.116 -0.50854,0.1034 -0.72953,-0.0332c-0.22094,-0.1367 -0.35547,-0.3779 -0.35547,-0.6377v-5.25h-4.25c-0.13807,0 -0.25,0.11193 -0.25,0.25v14c0,0.1381 0.11193,0.25 0.25,0.25h14c0.1381,0 0.25,-0.1119 0.25,-0.25zM10.75,8.78613l0.915,-0.45703l0.0801,-0.03418c0.1919,-0.06937 0.4051,-0.05807 0.5899,0.03418l0.915,0.45703v-4.03613h-2.5zM20.75,5v14c0,0.9665 -0.7835,1.75 -1.75,1.75h-14c-0.9665,0 -1.75,-0.7835 -1.75,-1.75v-14c0,-0.9665 0.7835,-1.75 1.75,-1.75h5h4h5c0.9665,0 1.75,0.7835 1.75,1.75zM11.75,17c0,0.3882 -0.2949,0.7075 -0.6729,0.7461l-0.0771,0.0039h-4c-0.41421,0 -0.75,-0.3358 -0.75,-0.75c0,-0.4142 0.33579,-0.75 0.75,-0.75h4l0.0771,0.0039c0.378,0.0386 0.6729,0.3579 0.6729,0.7461z" fill="#002B51"/>
</svg>
