<svg width="24" height="24" viewBox="0 0 24 24" fill="none" xmlns="http://www.w3.org/2000/svg">
<path fill-rule="evenodd" clip-rule="evenodd" d="M9.25 2.25C7.49678 2.25 6.04464 3.53909 5.7897 5.22114C4.16685 5.77619 3 7.31369 3 9.125C3 9.71972 3.12627 10.2862 3.35357 10.798C2.66682 11.5876 2.25 12.6205 2.25 13.75C2.25 15.0843 2.83136 16.283 3.75226 17.1061C3.75076 17.1539 3.75 17.2019 3.75 17.25C3.75 19.7353 5.76472 21.75 8.25 21.75C9.40253 21.75 10.4539 21.3167 11.25 20.6042V12.4616C10.5694 13.1178 9.79487 13.5256 9.23717 13.7115C8.84421 13.8425 8.41947 13.6301 8.28849 13.2372C8.1575 12.8442 8.36987 12.4195 8.76283 12.2885C9.1584 12.1566 9.79926 11.8188 10.3311 11.2586C10.8508 10.7112 11.25 9.97186 11.25 9V3C11.25 2.96042 11.2531 2.92155 11.259 2.88363C10.6904 2.48436 9.99755 2.25 9.25 2.25ZM12.741 2.88363C12.7469 2.92155 12.75 2.96042 12.75 3V9C12.75 9.97186 13.1492 10.7112 13.6689 11.2586C14.2007 11.8188 14.8416 12.1566 15.2372 12.2885C15.6301 12.4195 15.8425 12.8442 15.7115 13.2372C15.5805 13.6301 15.1558 13.8425 14.7628 13.7115C14.2051 13.5256 13.4306 13.1178 12.75 12.4616V20.6042C13.5461 21.3167 14.5975 21.75 15.75 21.75C18.2353 21.75 20.25 19.7353 20.25 17.25C20.25 17.2019 20.2492 17.1539 20.2477 17.1061C21.1686 16.283 21.75 15.0843 21.75 13.75C21.75 12.6205 21.3332 11.5876 20.6464 10.798C20.8737 10.2862 21 9.71972 21 9.125C21 7.31369 19.8332 5.77619 18.2103 5.22114C17.9554 3.53909 16.5032 2.25 14.75 2.25C14.0024 2.25 13.3096 2.48437 12.741 2.88363Z" fill="#002B51"/>
</svg>
