<svg width="24" height="24" viewBox="0 0 24 24" fill="none" xmlns="http://www.w3.org/2000/svg">
<path fill-rule="evenodd" clip-rule="evenodd" d="M11.25,20.6042c-0.7961,0.7125 -1.84747,1.1458 -3,1.1458c-2.48528,0 -4.5,-2.0147 -4.5,-4.5c0,-0.0358 0.0013,-0.0716 0.0026,-0.1072l0.00131,-0.0373c-0.92122,-0.8231 -1.50391,-2.0208 -1.50391,-3.3555c0,-1.1304 0.41791,-2.1633 1.10547,-2.9531c-0.22734,-0.5113 -0.35547,-1.07687 -0.35547,-1.6719c0,-1.81105 1.1668,-3.3471 2.78906,-3.90234c0.25428,-1.68283 1.70717,-2.97266 3.46094,-2.97266c0.74755,0 1.4404,0.23436 2.009,0.63363c-0.0059,0.03792 -0.009,0.07679 -0.009,0.11637v6c0,0.97186 -0.3992,1.7114 -0.9189,2.2588c-0.46542,0.4901 -1.01431,0.8101 -1.40923,0.9707l-0.15918,0.0586c-0.39295,0.131 -0.60559,0.5562 -0.4746,0.9492c0.13098,0.393 0.55626,0.6056 0.94921,0.4746l0.23731,-0.0879c0.52809,-0.2131 1.18689,-0.5952 1.77539,-1.1628zM12.741,2.88363c0.5686,-0.39926 1.2614,-0.63363 2.009,-0.63363c1.7538,0 3.2067,1.28983 3.4609,2.97266c1.6223,0.55524 2.7891,2.09129 2.7891,3.90234c0,0.59503 -0.1281,1.1606 -0.3555,1.6719c0.6876,0.7898 1.1055,1.8227 1.1055,2.9531c0,1.3347 -0.5827,2.5324 -1.5039,3.3555l0.0013,0.0373c0.0013,0.0356 0.0026,0.0714 0.0026,0.1072c0,2.4853 -2.0147,4.5 -4.5,4.5c-1.1525,0 -2.2039,-0.4333 -3,-1.1458v-8.143c0.5885,0.5676 1.2473,0.9497 1.7754,1.1628l0.2373,0.0879c0.393,0.131 0.8182,-0.0816 0.9492,-0.4746c0.131,-0.393 -0.0816,-0.8182 -0.4746,-0.9492l-0.1592,-0.0586c-0.3949,-0.1606 -0.9438,-0.4806 -1.4092,-0.9707c-0.5197,-0.5474 -0.9189,-1.28694 -0.9189,-2.2588v-6c0,-0.03958 -0.0031,-0.07845 -0.009,-0.11637z" fill="#002B51"/>
</svg>
