<svg width="24" height="24" viewBox="0 0 24 24" fill="none" xmlns="http://www.w3.org/2000/svg">
<path fill-rule="evenodd" clip-rule="evenodd" d="M4.58827,9.80324c0.07357,-0.0403 0.14841,-0.07861 0.22444,-0.11487c0.37386,-0.17833 0.82149,-0.01981 0.99982,0.35403c0.17832,0.3739 0.01981,0.8215 -0.35406,0.9998c-0.58636,0.2797 -1.06609,0.7422 -1.36708,1.3179c-0.22536,0.4311 -0.34139,0.9082 -0.34139,1.3899l0.00018,0.0325c0.00163,0.1509 0.01465,0.3021 0.03926,0.4523c0.10498,0.6411 0.41524,1.2308 0.88414,1.6805c0.46889,0.4496 1.07107,0.7349 1.71602,0.813c0.41121,0.0497 0.70422,0.4234 0.65446,0.8346c-0.04976,0.4113 -0.42346,0.7043 -0.83467,0.6545c-0.29305,-0.0355 -0.58022,-0.0994 -0.85773,-0.1902c0.3424,1.2801 1.51028,2.2228 2.89834,2.2228c1.65685,0 3,-1.3431 3,-3v-4.7884c-0.6806,0.6562 -1.45512,1.064 -2.01282,1.2499c-0.39296,0.131 -0.8177,-0.0814 -0.94869,-0.4743c-0.13098,-0.393 0.08139,-0.8177 0.47435,-0.9487c0.39556,-0.1319 1.03642,-0.4697 1.56826,-1.0299c0.5186,-0.5462 0.9172,-1.28351 0.9189,-2.25223v-0.00128v-0.00509v-0.00198v-0.00098v-3.24408v-0.00296v-0.00066l-0.0003,-0.03335c-0.005,-0.29335 -0.0744,-0.58215 -0.2036,-0.84587c-0.0845,-0.17237 -0.193,-0.33115 -0.322,-0.47177c-0.0375,-0.04093 -0.0768,-0.08033 -0.1177,-0.11807c-0.0418,-0.03864 -0.0854,-0.07554 -0.1306,-0.11059c-0.241,-0.18694 -0.52155,-0.31628 -0.82022,-0.37814c-0.13459,-0.02787 -0.27126,-0.0417 -0.40783,-0.04155c-0.16649,0.00019 -0.33283,0.02116 -0.49512,0.06283c-0.29543,0.07586 -0.56959,0.21827 -0.80152,0.41636c-0.23193,0.19808 -0.41548,0.44659 -0.53661,0.72651c-0.12114,0.27993 -0.17664,0.58384 -0.16227,0.88851c0.01436,0.30467 0.09822,0.60202 0.24516,0.8693c0.19955,0.36298 0.06707,0.81899 -0.29591,1.01854c-0.36298,0.19955 -0.819,0.06707 -1.01855,-0.29591c-0.1122,-0.20409 -0.20338,-0.4182 -0.27262,-0.63903c-0.83823,0.4384 -1.41031,1.31683 -1.41031,2.32789c0,0.2349 0.0307,0.46216 0.08827,0.67824zM12,19.7383c-0.8062,1.2126 -2.18477,2.0117 -3.75,2.0117c-2.48528,0 -4.5,-2.0147 -4.5,-4.5c0,-0.0481 0.00076,-0.0961 0.00226,-0.1439l-0.02869,-0.0258c-0.02974,-0.0271 -0.05914,-0.0545 -0.08821,-0.0824c-0.10808,-0.1036 -0.21055,-0.2122 -0.30714,-0.3253c-0.67168,-0.7859 -1.07822,-1.8068 -1.07822,-2.9226c0,-1.1295 0.41682,-2.1624 1.10357,-2.952c-0.2273,-0.5118 -0.35357,-1.07828 -0.35357,-1.673c0,-1.81131 1.16685,-3.34881 2.7897,-3.90386c0.25494,-1.68205 1.70708,-2.97114 3.4603,-2.97114h0.00227c0.92523,0.00059 1.76653,0.36021 2.39203,0.94709c0.0538,0.05041 0.1059,0.10247 0.1562,0.15609c0.0698,0.07421 0.1364,0.15146 0.1995,0.23153c0.0631,-0.08007 0.1297,-0.15732 0.1995,-0.23153c0.0503,-0.05362 0.1024,-0.10568 0.1562,-0.15609c0.6255,-0.58688 1.4668,-0.9465 2.392,-0.94709h0.0023c1.7532,0 3.2054,1.28909 3.4603,2.97114c1.6229,0.55505 2.7897,2.09255 2.7897,3.90386c0,0.59472 -0.1263,1.1612 -0.3536,1.673c0.6868,0.7896 1.1036,1.8225 1.1036,2.952c0,1.1158 -0.4065,2.1367 -1.0782,2.9226c-0.0966,0.1131 -0.1991,0.2217 -0.3072,0.3253c-0.029,0.0279 -0.0584,0.0553 -0.0882,0.0824l-0.0287,0.0258c0.0015,0.0478 0.0023,0.0958 0.0023,0.1439c0,2.4853 -2.0147,4.5 -4.5,4.5c-1.5652,0 -2.9438,-0.7991 -3.75,-2.0117zM12.75,9.00637c0.0017,0.96872 0.4003,1.70603 0.9189,2.25223c0.5318,0.5602 1.1727,0.898 1.5683,1.0299c0.3929,0.131 0.6053,0.5557 0.4743,0.9487c-0.131,0.3929 -0.5557,0.6053 -0.9487,0.4743c-0.5577,-0.1859 -1.3322,-0.5937 -2.0128,-1.2499v4.7884c0,1.6569 1.3431,3 3,3c1.3881,0 2.5559,-0.9427 2.8983,-2.2228c-0.2775,0.0908 -0.5646,0.1547 -0.8577,0.1902c-0.4112,0.0498 -0.7849,-0.2432 -0.8347,-0.6545c-0.0497,-0.4112 0.2433,-0.7849 0.6545,-0.8346c0.645,-0.0781 1.2471,-0.3634 1.716,-0.813c0.4689,-0.4497 0.7792,-1.0394 0.8842,-1.6805c0.0246,-0.1502 0.0376,-0.3014 0.0392,-0.4523l0.0002,-0.0325c0,-0.4817 -0.116,-0.9588 -0.3414,-1.3899c-0.301,-0.5757 -0.7807,-1.0382 -1.3671,-1.3179c-0.3738,-0.1783 -0.5324,-0.6259 -0.354,-0.9998c0.1783,-0.37384 0.6259,-0.53236 0.9998,-0.35403c0.076,0.03626 0.1509,0.07457 0.2244,0.11487c0.0576,-0.21608 0.0883,-0.44334 0.0883,-0.67824c0,-1.01106 -0.5721,-1.88949 -1.4103,-2.32789c-0.0692,0.22083 -0.1604,0.43494 -0.2726,0.63903c-0.1996,0.36298 -0.6556,0.49546 -1.0186,0.29591c-0.363,-0.19955 -0.4954,-0.65556 -0.2959,-1.01854c0.1469,-0.26728 0.2308,-0.56463 0.2452,-0.8693c0.0143,-0.30467 -0.0412,-0.60858 -0.1623,-0.88851c-0.1211,-0.27992 -0.3047,-0.52843 -0.5366,-0.72651c-0.2319,-0.19809 -0.5061,-0.3405 -0.8015,-0.41636c-0.1623,-0.04167 -0.3287,-0.06264 -0.4951,-0.06283c-0.1366,-0.00015 -0.2733,0.01368 -0.4079,0.04155c-0.2986,0.06186 -0.5792,0.1912 -0.8202,0.37814c-0.0452,0.03505 -0.0888,0.07195 -0.1306,0.11059c-0.0409,0.03774 -0.0802,0.07714 -0.1177,0.11807c-0.129,0.14062 -0.2375,0.2994 -0.322,0.47177c-0.1292,0.26372 -0.1986,0.55252 -0.2036,0.84587l-0.0003,0.03335v0.00066v0.00296v3.24408v0.00098v0.00198v0.00509z" fill="#002B51"/>
</svg>
