<svg width="24" height="24" viewBox="0 0 24 24" fill="none" xmlns="http://www.w3.org/2000/svg">
<path d="M14.7783,2.25098c0.089,0.00081 0.1779,0.00414 0.2666,0.01172c0.0318,0.00264 0.0632,0.00725 0.0947,0.01074c0.0601,0.00678 0.12,0.01453 0.1797,0.02441c0.0413,0.00676 0.0823,0.01427 0.1231,0.02246c0.0593,0.01201 0.1189,0.02495 0.1777,0.04004c0.0075,0.00193 0.015,0.00389 0.0225,0.00586c0.0423,0.01114 0.0842,0.02346 0.126,0.03613c0.0432,0.01317 0.0862,0.02719 0.1289,0.042c0.0657,0.02281 0.1304,0.04766 0.1943,0.07421c0.0434,0.01801 0.0863,0.03693 0.1289,0.05665c0.0361,0.01675 0.072,0.03381 0.1074,0.05175c0.0598,0.03021 0.1188,0.06211 0.1768,0.09571c0.0332,0.01931 0.0661,0.0392 0.0986,0.05957c0.0534,0.0333 0.1057,0.06831 0.1572,0.10449c0.0253,0.01773 0.0505,0.03533 0.0752,0.05371c0.0639,0.04739 0.1269,0.09664 0.1875,0.14844c0.0036,0.003 0.0073,0.00577 0.0108,0.00879c0.0127,0.01097 0.0245,0.02302 0.0371,0.03418c0.0521,0.04622 0.1022,0.09442 0.1514,0.14355c0.0205,0.0205 0.0415,0.04052 0.0615,0.06152c0.0569,0.05986 0.1125,0.12094 0.165,0.18457c0.0186,0.02253 0.0357,0.04634 0.0537,0.06934c0.0384,0.04891 0.0757,0.09854 0.1114,0.14941c0.0168,0.02393 0.0335,0.0479 0.0498,0.07227c0.0263,0.03957 0.0505,0.08046 0.0752,0.12109c0.0414,0.06805 0.0813,0.13702 0.1181,0.20801c0.0149,0.02869 0.0289,0.05779 0.043,0.08692c0.0212,0.04372 0.0431,0.08711 0.0625,0.13183h-0.001c0.0266,0.06151 0.0513,0.12377 0.0742,0.18653c0.0192,0.05219 0.0371,0.10487 0.0537,0.1582c0.009,0.02873 0.0162,0.05798 0.0245,0.08691c0.0168,0.05939 0.0331,0.11906 0.0468,0.17969c0.0134,0.0586 0.0248,0.11756 0.0352,0.17676c0.0043,0.02479 0.0109,0.04924 0.0146,0.07422c1.6223,0.55524 2.7891,2.09129 2.7891,3.90234c0,0.59503 -0.1281,1.1606 -0.3555,1.6719c0.059,0.0677 0.1151,0.1378 0.17,0.209c0.017,0.022 0.0341,0.044 0.0507,0.0664c0.0599,0.0807 0.1174,0.1633 0.1719,0.248c0.0125,0.0195 0.0249,0.0389 0.0371,0.0586c0.0547,0.0879 0.1067,0.1777 0.1553,0.2695c0.0029,0.0055 0.0059,0.0112 0.0088,0.0166c0.0036,0.0069 0.0072,0.0137 0.0107,0.0205c0.2654,0.5127 0.4342,1.0833 0.4844,1.6875c0.001,0.0121 0.002,0.0241 0.0029,0.0362c0.0085,0.1125 0.0137,0.2261 0.0137,0.3408c0,0.118 -0.0057,0.2349 -0.0146,0.3506c-0.0008,0.0097 -0.0012,0.0195 -0.002,0.0293c-0.0194,0.2311 -0.0573,0.4569 -0.1104,0.6767c-0.003,0.0127 -0.0056,0.0255 -0.0087,0.0381c-0.0571,0.2276 -0.1315,0.4479 -0.2217,0.6602c-0.0037,0.0087 -0.007,0.0176 -0.0108,0.0263c-0.0905,0.2094 -0.1965,0.4102 -0.3164,0.6016c-0.0073,0.0118 -0.015,0.0234 -0.0224,0.0352c-0.0588,0.0919 -0.1195,0.1823 -0.1846,0.2695c-0.0154,0.0206 -0.0321,0.0402 -0.0479,0.0605c-0.0459,0.0594 -0.0938,0.117 -0.1425,0.1739c-0.0272,0.0317 -0.054,0.0637 -0.0821,0.0947c-0.0616,0.0681 -0.1247,0.135 -0.1904,0.1992c-0.0107,0.0105 -0.0204,0.0219 -0.0312,0.0322c-0.022,0.0211 -0.0461,0.04 -0.0684,0.0606c-0.0168,0.0154 -0.0328,0.0317 -0.0498,0.0469c0.0015,0.048 0.0039,0.0961 0.0039,0.1445c0,2.4853 -2.0147,4.5 -4.5,4.5c-1.5658,0 -2.9439,-0.8004 -3.75,-2.0137c-0.8061,1.2133 -2.18417,2.0137 -3.75,2.0137c-2.48528,0 -4.5,-2.0147 -4.5,-4.5c0,-0.0484 0.00237,-0.0965 0.00391,-0.1445c-0.017,-0.0152 -0.03304,-0.0315 -0.04981,-0.0469c-0.02233,-0.0206 -0.04641,-0.0395 -0.06836,-0.0606c-0.0108,-0.0103 -0.02056,-0.0217 -0.03125,-0.0322c-0.06568,-0.0642 -0.12874,-0.1311 -0.19043,-0.1992c-0.02805,-0.031 -0.0549,-0.063 -0.08203,-0.0947c-0.04873,-0.0569 -0.09668,-0.1145 -0.14258,-0.1739c-0.01572,-0.0203 -0.03249,-0.0399 -0.04785,-0.0605c-0.06508,-0.0872 -0.1258,-0.1776 -0.18457,-0.2695c-0.00747,-0.0118 -0.01509,-0.0234 -0.02246,-0.0352c-0.11992,-0.1914 -0.22588,-0.3922 -0.31641,-0.6016c-0.00375,-0.0087 -0.00704,-0.0176 -0.01074,-0.0263c-0.0902,-0.2123 -0.16465,-0.4326 -0.22168,-0.6602c-0.00317,-0.0126 -0.00573,-0.0254 -0.00879,-0.0381c-0.05305,-0.2198 -0.09097,-0.4456 -0.11035,-0.6767c-0.00083,-0.0098 -0.00119,-0.0196 -0.00195,-0.0293c-0.00894,-0.1157 -0.01465,-0.2326 -0.01465,-0.3506c0,-0.1147 0.00522,-0.2283 0.01367,-0.3408c0.00091,-0.0121 0.00192,-0.0241 0.00293,-0.0362c0.05025,-0.6042 0.21899,-1.1748 0.48438,-1.6875c0.00353,-0.0068 0.00716,-0.0136 0.01074,-0.0205c0.00287,-0.0054 0.0059,-0.0111 0.00879,-0.0166c0.04863,-0.0918 0.10062,-0.1816 0.15527,-0.2695c0.01219,-0.0197 0.02463,-0.0391 0.03711,-0.0586c0.0545,-0.0847 0.11199,-0.1673 0.17188,-0.248c0.01659,-0.0224 0.03378,-0.0444 0.05078,-0.0664c0.05487,-0.0712 0.11099,-0.1413 0.16992,-0.209c-0.22734,-0.5113 -0.35547,-1.07687 -0.35547,-1.6719c0,-1.81105 1.1668,-3.3471 2.78906,-3.90234c0.00378,-0.02498 0.01035,-0.04943 0.01465,-0.07422c0.01035,-0.0592 0.02177,-0.11816 0.03516,-0.17676c0.01378,-0.06063 0.02999,-0.1203 0.04687,-0.17969c0.00825,-0.02893 0.01542,-0.05818 0.02442,-0.08691c0.01667,-0.05333 0.03459,-0.10601 0.05371,-0.1582c0.02298,-0.06276 0.04761,-0.12502 0.07422,-0.18653h-0.00098c0.01937,-0.04472 0.04134,-0.08811 0.0625,-0.13183c0.01406,-0.02913 0.02812,-0.05823 0.04297,-0.08692c0.03683,-0.07099 0.07672,-0.13996 0.11816,-0.20801c0.02468,-0.04063 0.04891,-0.08152 0.0752,-0.12109c0.01623,-0.02437 0.03298,-0.04834 0.0498,-0.07227c0.03567,-0.05087 0.07301,-0.1005 0.11133,-0.14941c0.01807,-0.023 0.03509,-0.04681 0.05371,-0.06934c0.05249,-0.06364 0.10809,-0.12471 0.16504,-0.18457c0.02001,-0.021 0.041,-0.04102 0.06152,-0.06152c0.04914,-0.04913 0.09925,-0.09733 0.15137,-0.14355c0.01258,-0.01116 0.02437,-0.02321 0.03711,-0.03418c0.0035,-0.00302 0.00723,-0.00579 0.01074,-0.00879c0.06066,-0.0518 0.12363,-0.10105 0.1875,-0.14844c0.02472,-0.01838 0.04998,-0.03598 0.0752,-0.05371c0.05156,-0.03618 0.10385,-0.07119 0.15722,-0.10449c0.03255,-0.02037 0.06538,-0.04026 0.09864,-0.05957c0.058,-0.0336 0.11693,-0.0655 0.17676,-0.09571c0.03543,-0.01794 0.0713,-0.035 0.10742,-0.05175c0.04259,-0.01972 0.08553,-0.03864 0.1289,-0.05665c0.0639,-0.02655 0.12859,-0.0514 0.19434,-0.07421c0.04267,-0.01481 0.08564,-0.02883 0.12891,-0.042c0.04172,-0.01267 0.0836,-0.02499 0.12597,-0.03613c0.00748,-0.00197 0.01497,-0.00393 0.02246,-0.00586c0.05881,-0.01509 0.11837,-0.02803 0.17774,-0.04004c0.04078,-0.00819 0.08176,-0.0157 0.12304,-0.02246c0.05971,-0.00988 0.11964,-0.01763 0.17969,-0.02441c0.03151,-0.00349 0.06297,-0.00809 0.09473,-0.01074c0.08869,-0.00758 0.17763,-0.01091 0.2666,-0.01172c0.00943,-0.00008 0.01887,-0.00098 0.02832,-0.00098c0.02055,0 0.04106,0.00062 0.06152,0.00098c0.03126,0.00052 0.06251,0.00157 0.09375,0.00293c0.0222,0.00097 0.04432,0.00252 0.06641,0.0039c0.04429,0.00277 0.08862,0.0053 0.13281,0.00977c0.00752,0.00075 0.01496,0.00212 0.02246,0.00293c0.04854,0.00522 0.09716,0.0103 0.14551,0.01758c0.06209,0.00929 0.12359,0.02069 0.18457,0.0332c0.001,0.00021 0.00193,0.00077 0.00293,0.00098c0.00741,0.00153 0.01506,0.00329 0.02246,0.00488c0.05418,0.01153 0.10788,0.02408 0.16118,0.03808c0.0117,0.00311 0.0234,0.00654 0.0351,0.00977c0.1148,0.03151 0.2272,0.06874 0.3369,0.11133c0.0138,0.00533 0.0274,0.01109 0.041,0.0166c0.0478,0.01922 0.095,0.03931 0.1416,0.06055c0.0081,0.00368 0.0164,0.007 0.0245,0.01074c0.0395,0.01836 0.0784,0.03784 0.1171,0.05762c0.103,0.05252 0.2033,0.11028 0.3008,0.17285c0.0263,0.01691 0.0523,0.03417 0.0782,0.05176c0.0223,0.01523 0.0443,0.0311 0.0664,0.04687c0.0276,0.0198 0.0549,0.03997 0.082,0.06055c0.0093,0.00704 0.0191,0.01336 0.0283,0.02051c0.0098,0.00763 0.0196,0.0157 0.0293,0.02343c0.0331,0.02632 0.0655,0.05357 0.0977,0.08106c0.0166,0.01424 0.0334,0.02842 0.0498,0.04297c0.0238,0.02111 0.0471,0.04271 0.0703,0.06445c0.0686,0.06429 0.1351,0.13072 0.1982,0.20019c0.0399,0.04389 0.0786,0.08889 0.1162,0.13477c0.0033,0.00393 0.0066,0.00777 0.0098,0.01172c0.0114,0.01404 0.0221,0.0287 0.0332,0.04297c0.0111,-0.01427 0.0218,-0.02893 0.0332,-0.04297c0.0032,-0.00395 0.0065,-0.00779 0.0098,-0.01172c0.0376,-0.04587 0.0763,-0.09088 0.1162,-0.13477c0.0631,-0.06947 0.1296,-0.1359 0.1982,-0.20019c0.0232,-0.02174 0.0466,-0.04334 0.0703,-0.06445c0.0164,-0.01455 0.0332,-0.02873 0.0498,-0.04297c0.0322,-0.02748 0.0646,-0.05474 0.0977,-0.08106c0.0097,-0.00773 0.0195,-0.01581 0.0293,-0.02343c0.0092,-0.00715 0.019,-0.01347 0.0283,-0.02051c0.0271,-0.02058 0.0544,-0.04075 0.082,-0.06055c0.0221,-0.01577 0.0441,-0.03164 0.0664,-0.04687c0.0259,-0.01759 0.0519,-0.03485 0.0782,-0.05176c0.0975,-0.06257 0.1978,-0.12033 0.3008,-0.17285c0.0387,-0.01978 0.0776,-0.03926 0.1171,-0.05762c0.0081,-0.00374 0.0164,-0.00707 0.0245,-0.01074c0.0466,-0.02124 0.0938,-0.04133 0.1416,-0.06055c0.0136,-0.00551 0.0272,-0.01127 0.041,-0.0166c0.1097,-0.04259 0.2221,-0.07982 0.3369,-0.11133c0.0117,-0.00323 0.0234,-0.00666 0.0351,-0.00977c0.0533,-0.014 0.107,-0.02655 0.1612,-0.03808c0.0074,-0.00159 0.015,-0.00335 0.0224,-0.00488c0.001,-0.00021 0.002,-0.00077 0.003,-0.00098c0.0609,-0.01251 0.1224,-0.02391 0.1845,-0.0332c0.0484,-0.00728 0.097,-0.01236 0.1455,-0.01758c0.0075,-0.00081 0.015,-0.00218 0.0225,-0.00293c0.0442,-0.00447 0.0885,-0.007 0.1328,-0.00977c0.0221,-0.00138 0.0442,-0.00293 0.0664,-0.0039c0.0313,-0.00136 0.0625,-0.00241 0.0938,-0.00293c0.0204,-0.00036 0.041,-0.00098 0.0615,-0.00098c0.0094,0 0.0189,0.0009 0.0283,0.00098zM9.21973,3.75098c-0.32371,0.0048 -0.62848,0.08638 -0.89746,0.22754c-0.12921,0.06783 -0.25128,0.14947 -0.36329,0.24414c-0.18154,0.1536 -0.33469,0.33927 -0.45214,0.54785c-0.03385,0.06013 -0.06526,0.12198 -0.09278,0.18554c-0.05764,0.13332 -0.09954,0.27234 -0.12695,0.41407c-0.01807,0.09389 -0.02877,0.19001 -0.0332,0.28808c-0.00196,0.0426 -0.00273,0.08519 -0.00196,0.12793c0.00006,0.00193 0.00094,0.00387 0.00098,0.00586l0.00098,0.0791c0.01338,0.21909 0.06268,0.43446 0.1455,0.63672l0.09766,0.20606l0.03418,0.06836c0.1486,0.34985 0.01007,0.76302 -0.33008,0.95019c-0.33996,0.18647 -0.7617,0.08179 -0.97754,-0.23047l-0.04101,-0.06543l-0.09082,-0.17773c-0.07122,-0.14908 -0.13135,-0.30289 -0.18067,-0.45996c-0.83829,0.43834 -1.41113,1.31526 -1.41113,2.32617c0,0.23543 0.03178,0.46303 0.08984,0.67969c0.07331,-0.04014 0.14692,-0.08007 0.22266,-0.11621c0.37367,-0.17806 0.82159,-0.01996 1,0.35352c0.17824,0.3738 0.01916,0.8216 -0.35449,1c-0.27719,0.1323 -0.53019,0.3059 -0.75196,0.5127c-0.07655,0.0713 -0.14904,0.1468 -0.21777,0.2256c-0.09886,0.1137 -0.19032,0.2343 -0.27148,0.3623c-0.00267,0.0042 -0.00517,0.0085 -0.00782,0.0127c-0.04169,0.0664 -0.08062,0.1351 -0.11718,0.2051c-0.1839,0.3518 -0.29429,0.7344 -0.3291,1.125c-0.00145,0.0165 -0.00371,0.0331 -0.00489,0.0498c-0.01029,0.1423 -0.01019,0.2855 0,0.4287c0.00665,0.0944 0.01803,0.1875 0.03321,0.2793c0.06562,0.3933 0.20933,0.7667 0.41894,1.1006c0.00381,0.006 0.0069,0.0125 0.01074,0.0185c0.07993,0.1253 0.16941,0.2447 0.26758,0.3574c0.0633,0.0726 0.13025,0.1418 0.2002,0.208c0.40794,0.3862 0.9144,0.65 1.46191,0.7618l0.23926,0.039l0.07519,0.0127c0.37075,0.0835 0.62546,0.4359 0.57911,0.8213c-0.04669,0.3853 -0.37797,0.6672 -0.75782,0.6602l-0.07715,-0.0049l-0.35937,-0.0586c-0.16811,-0.0344 -0.33285,-0.0808 -0.49512,-0.1338c0.34206,1.2806 1.50709,2.2246 2.89551,2.2246c1.65685,0 3,-1.3431 3,-3v-4.7939c-0.6811,0.6575 -1.45436,1.0697 -2.0127,1.2558c-0.39286,0.1308 -0.81825,-0.0817 -0.94921,-0.4746c-0.13094,-0.3928 0.08184,-0.8181 0.47461,-0.9492c0.39552,-0.1319 1.03672,-0.4694 1.5684,-1.0293c0.4871,-0.5132 0.8692,-1.1953 0.915,-2.07911l0.0039,-0.17969v-3.25293c-0.0013,-0.88742 -0.5809,-1.63822 -1.38184,-1.89844c-0.06965,-0.02263 -0.14085,-0.04171 -0.21289,-0.05664c-0.07208,-0.01491 -0.14481,-0.0253 -0.21777,-0.03222c-0.01556,-0.00145 -0.03121,-0.00185 -0.04688,-0.00293c-0.05694,-0.00407 -0.11388,-0.00667 -0.17089,-0.00586zM14.6094,3.75684c-0.0157,0.00108 -0.0313,0.00148 -0.0469,0.00293c-0.073,0.00692 -0.1457,0.01731 -0.2178,0.03222c-0.072,0.01493 -0.1432,0.03401 -0.2129,0.05664c-0.8009,0.26023 -1.3805,1.01102 -1.3818,1.89844v3.25293l0.0039,0.17969c0.0458,0.88381 0.4279,1.56591 0.915,2.07911c0.5317,0.5599 1.1729,0.8974 1.5684,1.0293c0.3928,0.1311 0.6056,0.5563 0.4746,0.9492c-0.1309,0.3929 -0.5563,0.6054 -0.9492,0.4746c-0.5583,-0.1861 -1.3316,-0.5983 -2.0127,-1.2558v4.7939c0,1.6569 1.3431,3 3,3c1.3884,0 2.5534,-0.944 2.8955,-2.2246c-0.1623,0.053 -0.327,0.0994 -0.4951,0.1338l-0.3594,0.0586l-0.0771,0.0049c-0.3799,0.007 -0.7112,-0.2749 -0.7578,-0.6602c-0.0464,-0.3854 0.2083,-0.7378 0.5791,-0.8213l0.0752,-0.0127l0.2392,-0.039c0.5475,-0.1118 1.054,-0.3756 1.4619,-0.7618c0.07,-0.0662 0.1369,-0.1354 0.2002,-0.208c0.0982,-0.1127 0.1877,-0.2321 0.2676,-0.3574c0.0038,-0.006 0.0069,-0.0125 0.0107,-0.0185c0.2096,-0.3339 0.3534,-0.7073 0.419,-1.1006c0.0152,-0.0918 0.0265,-0.1849 0.0332,-0.2793c0.0102,-0.1432 0.0103,-0.2864 0,-0.4287c-0.0012,-0.0167 -0.0034,-0.0333 -0.0049,-0.0498c-0.0348,-0.3906 -0.1452,-0.7732 -0.3291,-1.125c-0.0366,-0.07 -0.0755,-0.1387 -0.1172,-0.2051c-0.0026,-0.0042 -0.0051,-0.0085 -0.0078,-0.0127c-0.0812,-0.128 -0.1726,-0.2486 -0.2715,-0.3623c-0.0687,-0.0788 -0.1412,-0.1543 -0.2178,-0.2256c-0.2217,-0.2068 -0.4747,-0.3804 -0.7519,-0.5127c-0.3737,-0.1784 -0.5327,-0.6262 -0.3545,-1c0.1784,-0.37348 0.6263,-0.53157 1,-0.35352c0.0757,0.03614 0.1493,0.07607 0.2227,0.11621c0.058,-0.21666 0.0898,-0.44426 0.0898,-0.67969c0,-1.01091 -0.5728,-1.88783 -1.4111,-2.32617c-0.0494,0.15707 -0.1095,0.31088 -0.1807,0.45996l-0.0908,0.17773l-0.041,0.06543c-0.2159,0.31226 -0.6376,0.41694 -0.9776,0.23047c-0.3401,-0.18717 -0.4786,-0.60034 -0.33,-0.95019l0.0341,-0.06836l0.0977,-0.20606c0.0828,-0.20226 0.1321,-0.41763 0.1455,-0.63672l0.001,-0.0791c0,-0.00199 0.0009,-0.00393 0.0009,-0.00586c0.0008,-0.04274 0.0001,-0.08533 -0.0019,-0.12793c-0.0044,-0.09807 -0.0151,-0.19419 -0.0332,-0.28808c-0.0274,-0.14173 -0.0693,-0.28075 -0.127,-0.41407c-0.0275,-0.06356 -0.0589,-0.12541 -0.0927,-0.18554c-0.1175,-0.20858 -0.2706,-0.39425 -0.4522,-0.54785c-0.112,-0.09467 -0.2341,-0.17631 -0.3633,-0.24414c-0.269,-0.14116 -0.5737,-0.22274 -0.8974,-0.22754c-0.057,-0.00081 -0.114,0.00179 -0.1709,0.00586z" fill="#002B51"/>
</svg>
