<svg width="24" height="24" viewBox="0 0 24 24" fill="none" xmlns="http://www.w3.org/2000/svg">
<path d="M9.25,2.25c0.74799,0 1.4402,0.23591 2.0088,0.63574c-0.0057,0.03725 -0.0088,0.07542 -0.0088,0.11426v6l-0.0049,0.17969c-0.0458,0.88391 -0.4269,1.56591 -0.914,2.07911c-0.53173,0.5599 -1.17287,0.8974 -1.5684,1.0293c-0.3928,0.131 -0.60553,0.5563 -0.47461,0.9492c0.13099,0.3928 0.55634,0.6054 0.94921,0.4746c0.55839,-0.1862 1.3316,-0.5982 2.0127,-1.2558v8.1445c-0.7961,0.7138 -1.84653,1.1494 -3,1.1494c-2.48528,0 -4.5,-2.0147 -4.5,-4.5c0,-0.0484 0.00237,-0.0965 0.00391,-0.1445c-0.92122,-0.8231 -1.50391,-2.0208 -1.50391,-3.3555c0,-1.1304 0.41791,-2.1633 1.10547,-2.9531c-0.22734,-0.5113 -0.35547,-1.07687 -0.35547,-1.6719c0,-1.81105 1.1668,-3.3471 2.78906,-3.90234c0.25428,-1.68283 1.70717,-2.97266 3.46094,-2.97266zM14.75,2.25c1.7538,0 3.2067,1.28983 3.4609,2.97266c1.6223,0.55524 2.7891,2.09129 2.7891,3.90234c0,0.59503 -0.1281,1.1606 -0.3555,1.6719c0.6876,0.7898 1.1055,1.8227 1.1055,2.9531c0,1.3347 -0.5827,2.5324 -1.5039,3.3555c0.0015,0.048 0.0039,0.0961 0.0039,0.1445c0,2.4853 -2.0147,4.5 -4.5,4.5c-1.1535,0 -2.2039,-0.4356 -3,-1.1494v-8.1445c0.6811,0.6575 1.4543,1.0697 2.0127,1.2558c0.3929,0.1308 0.8182,-0.0818 0.9492,-0.4746c0.1309,-0.3929 -0.0818,-0.8182 -0.4746,-0.9492c-0.3955,-0.1319 -1.0367,-0.4694 -1.5684,-1.0293c-0.4871,-0.5132 -0.8692,-1.1952 -0.915,-2.07911l-0.0039,-0.17969v-6c0,-0.03892 -0.004,-0.07694 -0.0098,-0.11426c0.5688,-0.40011 1.2615,-0.63574 2.0098,-0.63574z" fill="#002B51"/>
</svg>
