<svg width="24" height="24" viewBox="0 0 24 24" fill="none" xmlns="http://www.w3.org/2000/svg">
<path fill-rule="evenodd" clip-rule="evenodd" d="M11.25,5.75001c0,-0.0143 -0.0002,-0.02859 -0.0005,-0.04287c-0.0045,-0.2142 -0.0432,-0.42594 -0.1147,-0.62706l-0.0889,-0.20996c-0.1007,-0.20548 -0.2355,-0.39166 -0.3984,-0.55078l-0.1719,-0.14941c-0.1807,-0.14016 -0.3835,-0.24811 -0.59962,-0.31934l-0.22071,-0.05859c-0.14118,-0.02922 -0.28461,-0.04328 -0.42783,-0.04187c-0.07941,0.00088 -0.1577,0.00638 -0.23462,0.01626l-0.01626,0.00217l-0.22363,0.04395c-0.20839,0.0535 -0.4066,0.14024 -0.58652,0.25618c-0.01146,0.0074 -0.02284,0.01492 -0.03414,0.02255l-0.1811,0.13826c-0.17393,0.14857 -0.32099,0.32519 -0.43457,0.52246l-0.10254,0.2041c-0.07402,0.17117 -0.12351,0.35135 -0.14749,0.53518c-0.01058,0.08187 -0.01621,0.1653 -0.01657,0.24998l0.00048,0.00288c0.00022,0.00098 0.00044,0.00198 0.0005,0.00298c0.00065,0.01068 0.00157,0.02662 0.00195,0.04492l0.00149,0.07475l0.02195,0.20455c0.02437,0.14971 0.06556,0.29614 0.12304,0.43652l0.09766,0.20605l0.03418,0.06836c0.14866,0.34996 0.01027,0.76309 -0.33008,0.9502c-0.34004,0.18668 -0.76166,0.08193 -0.97754,-0.23047l-0.04101,-0.06543l-0.09082,-0.17773c-0.07142,-0.1495 -0.13207,-0.3036 -0.18156,-0.46113c-0.83817,0.43839 -1.41024,1.31652 -1.41024,2.32734c0,0.23477 0.0308,0.46197 0.08855,0.67809c0.07341,-0.0402 0.14809,-0.07843 0.22395,-0.11462l0.07129,-0.02929c0.35774,-0.12806 0.76144,0.03259 0.92871,0.38281c0.17832,0.3739 0.01937,0.8217 -0.35449,1l-0.21387,0.1133c-0.15897,0.0922 -0.30855,0.1986 -0.4471,0.3175l-0.02653,0.0233c-0.11325,0.0996 -0.21888,0.2074 -0.31597,0.3226c-0.08773,0.1043 -0.1685,0.2148 -0.24165,0.3307l-0.12109,0.211c-0.19818,0.3791 -0.31212,0.7937 -0.33685,1.2157c-0.00329,0.0576 -0.00495,0.1155 -0.00495,0.1739c0,0.1142 0.00637,0.2268 0.01878,0.3377c0.00554,0.0489 0.0123,0.0979 0.02028,0.1467c0.09523,0.5815 0.35987,1.1209 0.75816,1.5517c0.04125,0.0446 0.08384,0.0879 0.12771,0.1299l0.17287,0.1534c0.04135,0.0339 0.08364,0.0668 0.12681,0.0986l0.03045,0.0224c0.34193,0.2445 0.73212,0.4148 1.14533,0.4991l0.23926,0.039l0.07519,0.0127c0.37093,0.0834 0.62554,0.4358 0.57911,0.8213c-0.04665,0.3855 -0.37781,0.6674 -0.75782,0.6602l-0.07715,-0.0049l-0.35937,-0.0586c-0.16879,-0.0345 -0.33501,-0.0785 -0.4979,-0.1318c0.34246,1.28 1.5103,2.2226 2.89829,2.2226c1.65685,0 3,-1.3431 3,-3v-4.7887c-0.5885,0.5675 -1.2473,0.9496 -1.77539,1.1627l-0.23731,0.0879c-0.39295,0.131 -0.81823,-0.0816 -0.94921,-0.4746c-0.13099,-0.3929 0.08165,-0.8182 0.47461,-0.9492l0.15918,-0.0586c0.39491,-0.1606 0.9438,-0.4805 1.40922,-0.9707c0.5197,-0.5474 0.9189,-1.28693 0.9189,-2.25879zM5.78906,5.22266c0.23084,-1.52772 1.44953,-2.73155 2.98438,-2.94048c0.33082,-0.04546 0.66693,-0.04343 0.99784,0.00638c0.56612,0.08454 1.08792,0.30465 1.53142,0.62624c0.0313,0.02266 0.0622,0.04585 0.0928,0.06958l0.003,0.00246c0.0498,0.03875 0.0984,0.07881 0.146,0.12013l0.0053,0.00436c0.1647,0.14357 0.3154,0.30199 0.4502,0.47303c0.1348,-0.17104 0.2855,-0.32946 0.4502,-0.47303l0.0053,-0.00436c0.0476,-0.04132 0.0962,-0.08138 0.146,-0.12013l0.003,-0.00246c0.0306,-0.02373 0.0615,-0.04692 0.0928,-0.06958c0.4435,-0.32159 0.9653,-0.5417 1.5314,-0.62624c0.3309,-0.04981 0.667,-0.05184 0.9979,-0.00638c1.5348,0.20893 2.7535,1.41276 2.9843,2.94048c1.6223,0.55524 2.7891,2.09129 2.7891,3.90235c0,0.59467 -0.128,1.15989 -0.3551,1.67099c0.1508,0.1732 0.2885,0.3582 0.4117,0.5536l0.0053,0.0091c0.062,0.0987 0.1203,0.1999 0.1748,0.3035l0.0016,0.0028c0.0178,0.0342 0.0352,0.0685 0.0522,0.1031c0.294,0.5978 0.4595,1.2706 0.4595,1.9819c0,0.7992 -0.2089,1.5492 -0.5743,2.1992c-0.2158,0.3853 -0.4886,0.7392 -0.8114,1.0489l-0.0306,0.027c-0.0288,0.0272 -0.058,0.054 -0.0876,0.0804l0.0013,0.0373c0.0013,0.0356 0.0026,0.0714 0.0026,0.1072c0,2.4853 -2.0147,4.5 -4.5,4.5c-1.5652,0 -2.9438,-0.7991 -3.75,-2.0117c-0.8062,1.2126 -2.18477,2.0117 -3.75,2.0117c-2.48528,0 -4.5,-2.0147 -4.5,-4.5c0,-0.0358 0.0013,-0.0716 0.0026,-0.1072l0.00131,-0.0373c-0.02957,-0.0264 -0.05879,-0.0532 -0.08765,-0.0804l-0.03052,-0.027c-0.32287,-0.3097 -0.5956,-0.6636 -0.81142,-1.0489c-0.36541,-0.65 -0.57432,-1.4 -0.57432,-2.1992c0,-0.7113 0.1655,-1.3841 0.45954,-1.9819c0.01693,-0.0346 0.03433,-0.0689 0.05218,-0.1031l0.00163,-0.0028c0.05441,-0.1036 0.11273,-0.2048 0.17476,-0.3035l0.00525,-0.0091c0.12323,-0.1954 0.26096,-0.3804 0.41171,-0.5536c-0.22709,-0.5111 -0.35507,-1.07632 -0.35507,-1.67099c0,-1.81106 1.1668,-3.34711 2.78906,-3.90235zM12.75,9.00001c0,0.97186 0.3992,1.71139 0.9189,2.25879c0.4654,0.4902 1.0143,0.8101 1.4092,0.9707l0.1592,0.0586c0.393,0.131 0.6056,0.5563 0.4746,0.9492c-0.131,0.393 -0.5562,0.6056 -0.9492,0.4746l-0.2373,-0.0879c-0.5281,-0.2131 -1.1869,-0.5952 -1.7754,-1.1627v4.7887c0,1.6569 1.3431,3 3,3c1.388,0 2.5558,-0.9426 2.8983,-2.2226c-0.1629,0.0533 -0.3291,0.0973 -0.4979,0.1318l-0.3594,0.0586l-0.0771,0.0049c-0.38,0.0072 -0.7112,-0.2747 -0.7578,-0.6602c-0.0465,-0.3855 0.2081,-0.7379 0.5791,-0.8213l0.0752,-0.0127l0.2392,-0.039c0.4132,-0.0843 0.8034,-0.2546 1.1453,-0.4991l0.0305,-0.0224c0.0432,-0.0318 0.0854,-0.0647 0.1268,-0.0986l0.1729,-0.1534c0.0438,-0.042 0.0864,-0.0853 0.1277,-0.1299c0.3983,-0.4308 0.6629,-0.9702 0.7581,-1.5517c0.008,-0.0488 0.0148,-0.0978 0.0203,-0.1467c0.0124,-0.1109 0.0188,-0.2235 0.0188,-0.3377c0,-0.0584 -0.0017,-0.1163 -0.0049,-0.1739c-0.0248,-0.422 -0.1387,-0.8366 -0.3369,-1.2157l-0.1211,-0.211c-0.0731,-0.1159 -0.1539,-0.2264 -0.2416,-0.3307c-0.0971,-0.1152 -0.2028,-0.223 -0.316,-0.3226l-0.0265,-0.0233c-0.1386,-0.1189 -0.2882,-0.2253 -0.4471,-0.3175l-0.2139,-0.1133c-0.3739,-0.1783 -0.5328,-0.6261 -0.3545,-1c0.1673,-0.35022 0.571,-0.51087 0.9287,-0.38281l0.0713,0.02929c0.0759,0.03619 0.1505,0.07442 0.224,0.11462c0.0577,-0.21612 0.0885,-0.44332 0.0885,-0.67809c0,-1.01082 -0.5721,-1.88895 -1.4102,-2.32734c-0.0495,0.15753 -0.1102,0.31163 -0.1816,0.46113l-0.0908,0.17773l-0.041,0.06543c-0.2159,0.3124 -0.6375,0.41715 -0.9776,0.23047c-0.3403,-0.18711 -0.4787,-0.60024 -0.33,-0.9502l0.0341,-0.06836l0.0977,-0.20605c0.0575,-0.14038 0.0987,-0.28681 0.123,-0.43652l0.022,-0.20455l0.0015,-0.07475c0.0004,-0.0183 0.0013,-0.03424 0.0019,-0.04492c0.0001,-0.001 0.0003,-0.00199 0.0005,-0.00297v-0.00001l0.0005,-0.00288c-0.0004,-0.08468 -0.006,-0.16811 -0.0166,-0.24998c-0.0239,-0.18383 -0.0734,-0.36401 -0.1475,-0.53518l-0.1025,-0.2041c-0.1136,-0.19727 -0.2606,-0.37389 -0.4346,-0.52246l-0.1811,-0.13826c-0.0113,-0.00763 -0.0226,-0.01515 -0.0341,-0.02255c-0.1799,-0.11594 -0.3781,-0.20268 -0.5865,-0.25618l-0.2237,-0.04395l-0.0162,-0.00217c-0.0769,-0.00988 -0.1552,-0.01538 -0.2346,-0.01626c-0.1433,-0.00141 -0.2867,0.01265 -0.4279,0.04187l-0.2207,0.05859c-0.2161,0.07123 -0.4189,0.17918 -0.5996,0.31934l-0.1719,0.14941c-0.1629,0.15912 -0.2977,0.3453 -0.3984,0.55078l-0.0889,0.20996c-0.0714,0.20112 -0.1102,0.41286 -0.1147,0.62706c-0.0003,0.01428 -0.0005,0.02857 -0.0005,0.04287z" fill="#002B51"/>
</svg>
