<svg width="24" height="24" viewBox="0 0 24 24" fill="none" xmlns="http://www.w3.org/2000/svg">
<path d="M14.2666,2.28312c0.2618,-0.03648 0.5265,-0.04256 0.7891,-0.01954c0.0113,0.00099 0.0228,0.00086 0.0341,0.00196c0.0906,0.00883 0.1808,0.02218 0.2706,0.03808c0.0159,0.0028 0.0319,0.0048 0.0478,0.00782c0.0059,0.00112 0.0117,0.00274 0.0176,0.0039l0.1943,0.04492c0.0078,0.00201 0.0157,0.00381 0.0235,0.00586c0.0413,0.01089 0.0823,0.02281 0.123,0.03516c0.0611,0.01855 0.1217,0.03874 0.1816,0.06055c0.0365,0.01329 0.0725,0.02753 0.1084,0.04199c0.0612,0.02459 0.122,0.05014 0.1817,0.07812c0.0256,0.01204 0.0509,0.02448 0.0762,0.03711c0.0653,0.03259 0.1292,0.06788 0.1923,0.1045c0.0221,0.01283 0.0447,0.02478 0.0664,0.03808c0.0705,0.04297 0.1387,0.08975 0.2061,0.1377c0.0143,0.01016 0.0289,0.0199 0.043,0.03027c0.015,0.01101 0.0301,0.02194 0.0449,0.0332l0.1562,0.12598c0.0035,0.00299 0.0073,0.00578 0.0108,0.00879c0.011,0.00947 0.0213,0.0197 0.0322,0.0293c0.1381,0.12194 0.2661,0.25418 0.3828,0.3955c0.0057,0.00692 0.0119,0.01354 0.0176,0.02051l0.0391,0.04883c0.0429,0.05483 0.0834,0.11164 0.123,0.16894c0.0119,0.01713 0.0236,0.03441 0.0352,0.05176c0.048,0.07214 0.0951,0.14508 0.1377,0.22071c0.0069,0.01239 0.0126,0.02559 0.0195,0.03808c0.0194,0.03548 0.0385,0.07124 0.0566,0.10742l0.0244,0.05371c0.0205,0.04231 0.0409,0.0847 0.0596,0.12793l0.0742,0.18555v0.00098c0.0175,0.04774 0.0344,0.09584 0.0498,0.14453c0.0111,0.03485 0.0203,0.07031 0.0303,0.10547c0.0158,0.05583 0.0309,0.11201 0.044,0.16894c0.0155,0.06758 0.0285,0.13574 0.04,0.2041c0.0029,0.01764 0.0081,0.03502 0.0107,0.05274c1.6223,0.55524 2.7891,2.0913 2.7891,3.90234c0,0.595 -0.1281,1.16059 -0.3555,1.67189c0.0038,0.0043 0.008,0.0083 0.0117,0.0127c0.0221,0.0255 0.043,0.0521 0.0645,0.0781c0.0416,0.0504 0.0817,0.1021 0.1211,0.1543c0.0131,0.0174 0.0272,0.0342 0.04,0.0518c0.0534,0.0728 0.1044,0.1475 0.1534,0.2236c0.0069,0.0108 0.0146,0.0213 0.0214,0.0322l0.0176,0.0293c0.0547,0.0879 0.1067,0.1777 0.1553,0.2695l0.0088,0.0167c0.0035,0.0068 0.0072,0.0136 0.0107,0.0205c0.2658,0.5135 0.4345,1.0851 0.4844,1.6904c0.0009,0.0114 0.0021,0.0228 0.0029,0.0342c0.0084,0.1121 0.0137,0.2255 0.0137,0.3398c0,0.1177 -0.0058,0.2343 -0.0146,0.3496c-0.0008,0.0101 -0.0011,0.0202 -0.002,0.0303c-0.0194,0.2311 -0.0573,0.457 -0.1104,0.6768c-0.003,0.0126 -0.0056,0.0254 -0.0087,0.038c-0.0571,0.2275 -0.1315,0.448 -0.2217,0.6602c-0.0038,0.0088 -0.0079,0.0176 -0.0117,0.0264c-0.0439,0.1013 -0.0898,0.2015 -0.1407,0.2988c-0.0087,0.0168 -0.0184,0.0331 -0.0273,0.0498c-0.0426,0.079 -0.0877,0.1564 -0.1348,0.2324c-0.0153,0.0249 -0.031,0.0496 -0.0469,0.0742c-0.055,0.0852 -0.1123,0.1689 -0.1728,0.25c-0.0176,0.0236 -0.0367,0.0461 -0.0547,0.0694c-0.0439,0.0564 -0.0893,0.1117 -0.1357,0.166c-0.0271,0.0317 -0.054,0.0637 -0.0821,0.0947c-0.0616,0.0681 -0.1247,0.135 -0.1904,0.1992c-0.0107,0.0105 -0.0205,0.0219 -0.0312,0.0323l-0.0625,0.0556c-0.0186,0.0172 -0.0368,0.0349 -0.0557,0.0518c0.0015,0.048 0.0039,0.0962 0.0039,0.1445c0,2.4853 -2.0147,4.5 -4.5,4.5c-1.5658,0 -2.9439,-0.8004 -3.75,-2.0137c-0.8061,1.2133 -2.1842,2.0137 -3.75,2.0137c-2.48525,0 -4.49995,-2.0147 -4.5,-4.5c0,-0.0483 0.00237,-0.0965 0.00391,-0.1445c-0.01888,-0.0169 -0.03707,-0.0346 -0.05567,-0.0518l-0.0625,-0.0556c-0.01078,-0.0104 -0.02058,-0.0218 -0.03125,-0.0323c-0.06566,-0.0642 -0.12876,-0.1311 -0.19043,-0.1992c-0.02804,-0.031 -0.05491,-0.063 -0.08203,-0.0947c-0.04647,-0.0543 -0.09184,-0.1095 -0.13574,-0.166c-0.01804,-0.0233 -0.03713,-0.0458 -0.05469,-0.0694c-0.06053,-0.0811 -0.11777,-0.1648 -0.17285,-0.25c-0.01584,-0.0246 -0.03152,-0.0493 -0.04687,-0.0742c-0.04708,-0.076 -0.09218,-0.1534 -0.13477,-0.2324c-0.00895,-0.0167 -0.0186,-0.033 -0.02734,-0.0498c-0.05092,-0.0973 -0.09679,-0.1975 -0.14063,-0.2988c-0.0038,-0.0088 -0.00797,-0.0176 -0.01172,-0.0264c-0.09019,-0.2122 -0.16466,-0.4327 -0.22168,-0.6602c-0.00316,-0.0126 -0.00574,-0.0254 -0.00879,-0.038c-0.05304,-0.2198 -0.09097,-0.4457 -0.11035,-0.6768c-0.00085,-0.0101 -0.00117,-0.0202 -0.00195,-0.0303c-0.00889,-0.1153 -0.01465,-0.2319 -0.01465,-0.3496c0,-0.1143 0.00527,-0.2277 0.01367,-0.3398c0.00086,-0.0114 0.00199,-0.0228 0.00293,-0.0342c0.04994,-0.6053 0.21858,-1.1769 0.48438,-1.6904c0.00352,-0.0069 0.00717,-0.0137 0.01074,-0.0205l0.00879,-0.0167c0.04862,-0.0918 0.10064,-0.1816 0.15527,-0.2695l0.01758,-0.0293c0.00687,-0.0109 0.01452,-0.0214 0.02148,-0.0322c0.04901,-0.0761 0.09997,-0.1508 0.15332,-0.2236c0.01287,-0.0176 0.02693,-0.0344 0.04004,-0.0518c0.03942,-0.0522 0.0795,-0.1039 0.1211,-0.1543c0.02147,-0.026 0.0424,-0.0526 0.06445,-0.0781c0.00375,-0.0044 0.00795,-0.0084 0.01172,-0.0127c-0.22733,-0.5113 -0.35546,-1.07689 -0.35547,-1.67189c0,-1.81104 1.16681,-3.34709 2.78906,-3.90234c0.00268,-0.01772 0.00779,-0.0351 0.01074,-0.05274c0.01152,-0.06836 0.02449,-0.13652 0.04004,-0.2041c0.01304,-0.05693 0.02817,-0.11311 0.04395,-0.16894c0.00996,-0.03515 0.01921,-0.07062 0.03027,-0.10547c0.01544,-0.04869 0.03232,-0.09679 0.04981,-0.14453v-0.00098l0.07422,-0.18555c0.01873,-0.04323 0.03916,-0.08562 0.05957,-0.12793l0.02441,-0.05371c0.01817,-0.03617 0.03725,-0.07194 0.05664,-0.10742c0.00684,-0.01249 0.01255,-0.02569 0.01953,-0.03808c0.04256,-0.07563 0.0897,-0.14857 0.1377,-0.22071c0.01156,-0.01734 0.02329,-0.03463 0.03515,-0.05176c0.03963,-0.05729 0.08008,-0.11411 0.12305,-0.16894l0.03906,-0.04883c0.00567,-0.00696 0.01186,-0.01359 0.01758,-0.02051c0.11673,-0.14132 0.24471,-0.27356 0.38281,-0.3955c0.01087,-0.0096 0.02125,-0.01984 0.03223,-0.0293c0.00349,-0.00301 0.00724,-0.0058 0.01074,-0.00879l0.15625,-0.12598c0.01482,-0.01125 0.02994,-0.02219 0.04492,-0.0332c0.0141,-0.01037 0.02872,-0.02011 0.04297,-0.03027c0.06738,-0.04795 0.13557,-0.09474 0.20606,-0.1377c0.02175,-0.01329 0.04435,-0.02526 0.0664,-0.03808c0.06315,-0.03662 0.12709,-0.07191 0.19239,-0.1045c0.02523,-0.01263 0.0506,-0.02507 0.07617,-0.03711c0.05964,-0.02797 0.12046,-0.05353 0.18164,-0.07812c0.03589,-0.01446 0.07193,-0.0287 0.1084,-0.04199c0.05991,-0.02181 0.1205,-0.042 0.18164,-0.06055c0.04074,-0.01235 0.08169,-0.02427 0.12305,-0.03516c0.00777,-0.00205 0.01564,-0.00386 0.02343,-0.00586l0.19434,-0.04492c0.00588,-0.00116 0.01169,-0.00278 0.01758,-0.0039c0.01585,-0.00302 0.03192,-0.00502 0.04785,-0.00782c0.08978,-0.0159 0.17994,-0.02925 0.27051,-0.03808c0.01133,-0.00109 0.02281,-0.00097 0.03418,-0.00196c0.26259,-0.02302 0.52728,-0.01694 0.78906,0.01954c0.075,0.01036 0.14925,0.02305 0.22265,0.03808c0.00131,0.00027 0.0026,0.00071 0.00391,0.00098l0.16504,0.03808c0.2358,0.06069 0.462,0.14515 0.6758,0.25098c0.0108,0.00534 0.0214,0.01115 0.0322,0.0166c0.032,0.01624 0.0633,0.0336 0.0947,0.05078c0.0306,0.01668 0.0608,0.03416 0.0909,0.05176c0.0205,0.01204 0.0412,0.02369 0.0615,0.03613c0.0253,0.01552 0.0502,0.03169 0.0752,0.04786c0.0265,0.01728 0.053,0.03475 0.0791,0.05273c0.0217,0.01493 0.043,0.03046 0.0644,0.0459c0.0223,0.0161 0.0446,0.03221 0.0664,0.04883c0.01,0.00758 0.0204,0.01476 0.0303,0.02246l0.0293,0.02343c0.0331,0.02632 0.0655,0.05359 0.0977,0.08106l0.0273,0.02246c0.0083,0.00726 0.0162,0.01513 0.0244,0.02246c0.0205,0.01821 0.0405,0.03699 0.0606,0.05567c0.0258,0.02401 0.0511,0.04848 0.0761,0.07324c0.0139,0.01375 0.0274,0.02801 0.0411,0.04199c0.0225,0.02304 0.0455,0.04569 0.0673,0.06934c0.019,0.02046 0.0373,0.04158 0.0557,0.0625c0.0201,0.02281 0.041,0.04502 0.0605,0.06836c0.0167,0.01986 0.0327,0.04031 0.0489,0.06054c0.0052,0.00651 0.0104,0.01299 0.0156,0.01953c0.0052,-0.00654 0.0104,-0.01302 0.0156,-0.01953c0.0162,-0.02023 0.0322,-0.04068 0.0489,-0.06054c0.0195,-0.02334 0.0404,-0.04555 0.0605,-0.06836c0.0184,-0.02092 0.0367,-0.04204 0.0557,-0.0625c0.0218,-0.02365 0.0448,-0.0463 0.0673,-0.06934c0.0137,-0.01398 0.0272,-0.02824 0.0411,-0.04199c0.025,-0.02476 0.0504,-0.04923 0.0761,-0.07324c0.0201,-0.01868 0.0401,-0.03746 0.0606,-0.05567c0.0082,-0.00733 0.0161,-0.01521 0.0244,-0.02246l0.0273,-0.02246c0.0322,-0.02747 0.0646,-0.05474 0.0977,-0.08106l0.0293,-0.02343c0.0099,-0.00769 0.0203,-0.01489 0.0303,-0.02246c0.0218,-0.01661 0.0441,-0.03273 0.0664,-0.04883c0.0214,-0.01544 0.0427,-0.03097 0.0644,-0.0459c0.0261,-0.01798 0.0526,-0.03545 0.0791,-0.05273c0.025,-0.01617 0.0499,-0.03235 0.0752,-0.04786c0.0203,-0.01244 0.041,-0.02409 0.0615,-0.03613c0.0301,-0.01759 0.0603,-0.03508 0.0909,-0.05176c0.0314,-0.01718 0.0627,-0.03454 0.0947,-0.05078c0.0108,-0.00545 0.0214,-0.01126 0.0322,-0.0166c0.2138,-0.10583 0.44,-0.19029 0.6758,-0.25098l0.165,-0.03808c0.0013,-0.00027 0.0026,-0.00071 0.0039,-0.00098c0.0734,-0.01503 0.1477,-0.02772 0.2227,-0.03808zM9.20703,3.75187c-0.73048,0.01541 -1.36391,0.42138 -1.70019,1.01855l-0.09278,0.18555c-0.05764,0.13331 -0.09953,0.27235 -0.12695,0.41406c-0.0192,0.09979 -0.03042,0.20217 -0.03418,0.30664c-0.00127,0.03478 -0.00152,0.06962 -0.00098,0.10449c0.00013,0.00345 0.0009,0.00708 0.00098,0.01074l0.00098,0.07422l0.02246,0.20508c0.02437,0.14969 0.06557,0.29617 0.12304,0.43652l0.09766,0.20606l0.03418,0.06836c0.14861,0.34994 0.01025,0.7631 -0.33008,0.95019c-0.34001,0.18665 -0.76166,0.08188 -0.97754,-0.23046l-0.04101,-0.06543l-0.09082,-0.17774c-0.07126,-0.14915 -0.12929,-0.30378 -0.17871,-0.46094c-0.83933,0.43802 -1.41309,1.31548 -1.41309,2.32715c0.00001,0.23507 0.03194,0.46235 0.08984,0.67871c0.07317,-0.04004 0.14707,-0.07917 0.22266,-0.11523l0.07129,-0.0293c0.35774,-0.12805 0.76144,0.03259 0.92871,0.38281c0.17827,0.3739 0.01935,0.8217 -0.35449,1l-0.21387,0.1133c-0.18326,0.1063 -0.35398,0.2316 -0.50976,0.373c-0.12142,0.1103 -0.234,0.23 -0.33594,0.3584c-0.06643,0.0839 -0.12818,0.1718 -0.18555,0.2627l-0.12109,0.211c-0.18346,0.3509 -0.29398,0.7325 -0.3291,1.122c-0.00155,0.0176 -0.00364,0.0352 -0.00489,0.0528c-0.01029,0.1423 -0.01019,0.2856 0,0.4287c0.00665,0.0944 0.01803,0.1875 0.03321,0.2793c0.02536,0.152 0.0615,0.3013 0.10937,0.4463c0.02793,0.0847 0.05963,0.1678 0.09473,0.249c0.06055,0.1401 0.13273,0.275 0.21386,0.4043c0.00403,0.0064 0.00765,0.0131 0.01172,0.0195c0.07994,0.1253 0.16941,0.2448 0.26758,0.3574c0.14509,0.1664 0.30796,0.317 0.48633,0.4483l0.03223,0.0234c0.34152,0.2438 0.73102,0.4139 1.14355,0.4981l0.23926,0.039l0.07519,0.0127c0.37092,0.0834 0.62554,0.4358 0.57911,0.8213c-0.04669,0.3854 -0.37784,0.6674 -0.75782,0.6602l-0.07715,-0.0049l-0.35937,-0.0586c-0.16792,-0.0343 -0.33303,-0.079 -0.49512,-0.1318c0.34271,1.2796 1.50778,2.2226 2.89551,2.2226c1.65683,0 3,-1.3432 3,-3v-4.793c-0.5891,0.5687 -1.2467,0.9537 -1.77539,1.167l-0.23731,0.0879c-0.39292,0.131 -0.8182,-0.0817 -0.94921,-0.4746c-0.13099,-0.3929 0.08167,-0.8182 0.47461,-0.9492l0.15918,-0.0586c0.3949,-0.1606 0.94381,-0.4806 1.40922,-0.9707c0.4871,-0.5132 0.8682,-1.1952 0.914,-2.0791l0.0049,-0.17969v-3.25c0,-0.80537 -0.477,-1.49747 -1.1631,-1.81445c-0.0514,-0.02376 -0.10386,-0.04515 -0.15721,-0.06445c-0.02051,-0.00742 -0.04072,-0.0157 -0.06153,-0.02246l-0.21289,-0.05665c-0.02297,-0.00475 -0.04625,-0.00776 -0.06933,-0.01171c-0.10094,-0.01709 -0.2041,-0.02794 -0.30957,-0.0293c-0.02313,-0.00034 -0.04622,0.00051 -0.06934,0.00098zM14.7236,3.75089c-0.1054,0.00136 -0.2086,0.01221 -0.3095,0.0293c-0.0231,0.00395 -0.0464,0.00696 -0.0694,0.01171l-0.2129,0.05665c-0.0208,0.00676 -0.041,0.01504 -0.0615,0.02246c-0.0533,0.0193 -0.1058,0.04069 -0.1572,0.06445c-0.6861,0.31698 -1.1631,1.00908 -1.1631,1.81445v3.25l0.0049,0.17969c0.0458,0.8839 0.4269,1.5659 0.914,2.0791c0.4654,0.4901 1.0143,0.8101 1.4092,0.9707l0.1592,0.0586c0.3929,0.131 0.6056,0.5563 0.4746,0.9492c-0.131,0.3929 -0.5563,0.6056 -0.9492,0.4746l-0.2373,-0.0879c-0.5287,-0.2133 -1.1863,-0.5983 -1.7754,-1.167v4.793c0,1.6568 1.3432,3 3,3c1.3877,0 2.5528,-0.943 2.8955,-2.2226c-0.1621,0.0528 -0.3272,0.0975 -0.4951,0.1318l-0.3594,0.0586l-0.0771,0.0049c-0.38,0.0072 -0.7112,-0.2748 -0.7578,-0.6602c-0.0465,-0.3855 0.2081,-0.7379 0.5791,-0.8213l0.0752,-0.0127l0.2392,-0.039c0.4125,-0.0842 0.802,-0.2543 1.1436,-0.4981l0.0322,-0.0234c0.1784,-0.1313 0.3412,-0.2819 0.4863,-0.4483c0.0982,-0.1126 0.1877,-0.2321 0.2676,-0.3574c0.0041,-0.0064 0.0077,-0.0131 0.0117,-0.0195c0.0811,-0.1293 0.1533,-0.2642 0.2139,-0.4043c0.0351,-0.0812 0.0668,-0.1643 0.0947,-0.249c0.0479,-0.145 0.084,-0.2943 0.1094,-0.4463c0.0152,-0.0918 0.0265,-0.1849 0.0332,-0.2793c0.0102,-0.1431 0.0103,-0.2864 0,-0.4287c-0.0013,-0.0176 -0.0033,-0.0352 -0.0049,-0.0528c-0.0351,-0.3895 -0.1456,-0.7711 -0.3291,-1.122l-0.1211,-0.211c-0.0574,-0.0909 -0.1191,-0.1788 -0.1855,-0.2627c-0.102,-0.1284 -0.2146,-0.2481 -0.336,-0.3584c-0.1558,-0.1414 -0.3265,-0.2667 -0.5097,-0.373l-0.2139,-0.1133c-0.3738,-0.1783 -0.5328,-0.6261 -0.3545,-1c0.1673,-0.35022 0.571,-0.51086 0.9287,-0.38281l0.0713,0.0293c0.0756,0.03606 0.1495,0.07519 0.2227,0.11523c0.0579,-0.21636 0.0898,-0.44364 0.0898,-0.67871c0,-1.01167 -0.5738,-1.88914 -1.4131,-2.32715c-0.0494,0.15716 -0.1074,0.31179 -0.1787,0.46094l-0.0908,0.17774l-0.041,0.06543c-0.2159,0.31234 -0.6376,0.41711 -0.9776,0.23046c-0.3403,-0.18709 -0.4787,-0.60025 -0.33,-0.95019l0.0341,-0.06836l0.0977,-0.20606c0.0575,-0.14034 0.0987,-0.28683 0.123,-0.43652l0.0225,-0.20508l0.001,-0.07422c0,-0.00366 0.0008,-0.00729 0.0009,-0.01074c0.0006,-0.03487 0.0003,-0.06971 -0.0009,-0.10449c-0.0038,-0.10448 -0.015,-0.20685 -0.0342,-0.30664c-0.0274,-0.14171 -0.0693,-0.28074 -0.127,-0.41406l-0.0927,-0.18555c-0.3363,-0.59717 -0.9698,-1.00315 -1.7002,-1.01855c-0.0232,-0.00047 -0.0462,-0.00132 -0.0694,-0.00098z" fill="#002B51"/>
</svg>
