<svg width="24" height="24" viewBox="0 0 24 24" fill="none" xmlns="http://www.w3.org/2000/svg">
<path fill-rule="evenodd" clip-rule="evenodd" d="M11.259,2.88363c-0.0059,0.03792 -0.009,0.07679 -0.009,0.11637v6c0,0.97186 -0.3992,1.7112 -0.9189,2.2586c-0.53184,0.5602 -1.1727,0.898 -1.56827,1.0299c-0.39296,0.131 -0.60533,0.5557 -0.47434,0.9487c0.13098,0.3929 0.55572,0.6053 0.94868,0.4743c0.5577,-0.1859 1.33223,-0.5937 2.01283,-1.2499v8.1426c-0.7961,0.7125 -1.84747,1.1458 -3,1.1458c-2.48528,0 -4.5,-2.0147 -4.5,-4.5c0,-0.0481 0.00076,-0.0961 0.00226,-0.1439c-0.9209,-0.8231 -1.50226,-2.0218 -1.50226,-3.3561c0,-1.1295 0.41682,-2.1624 1.10357,-2.952c-0.2273,-0.5118 -0.35357,-1.07828 -0.35357,-1.673c0,-1.81131 1.16685,-3.34881 2.7897,-3.90386c0.25494,-1.68205 1.70708,-2.97114 3.4603,-2.97114c0.74755,0 1.4404,0.23436 2.009,0.63363zM14.75,2.25c1.7532,0 3.2054,1.28909 3.4603,2.97114c1.6229,0.55505 2.7897,2.09255 2.7897,3.90386c0,0.59472 -0.1263,1.1612 -0.3536,1.673c0.6868,0.7896 1.1036,1.8225 1.1036,2.952c0,1.3343 -0.5814,2.533 -1.5023,3.3561c0.0015,0.0478 0.0023,0.0958 0.0023,0.1439c0,2.4853 -2.0147,4.5 -4.5,4.5c-1.1525,0 -2.2039,-0.4333 -3,-1.1458v-8.1426c0.6806,0.6562 1.4551,1.064 2.0128,1.2499c0.393,0.131 0.8177,-0.0814 0.9487,-0.4743c0.131,-0.393 -0.0814,-0.8177 -0.4743,-0.9487c-0.3956,-0.1319 -1.0365,-0.4697 -1.5683,-1.0299c-0.5197,-0.5474 -0.9189,-1.28674 -0.9189,-2.2586v-6c0,-0.03958 -0.0031,-0.07845 -0.009,-0.11637c0.5686,-0.39926 1.2614,-0.63363 2.009,-0.63363z" fill="#002B51"/>
</svg>
