<svg width="24" height="24" viewBox="0 0 24 24" fill="none" xmlns="http://www.w3.org/2000/svg">
<path fill-rule="evenodd" clip-rule="evenodd" d="M9.99969,3.75c-0.69035,0 -1.25,0.55964 -1.25,1.25v1.25h6.50001v-1.25c0,-0.69036 -0.5596,-1.25 -1.25,-1.25zM7.24969,6.25v-1.25c0,-1.51878 1.23122,-2.75 2.75,-2.75h4.00001c1.5188,0 2.75,1.23122 2.75,2.75v1.25h2.25c1.5188,0 2.75,1.23122 2.75,2.75v9c0,1.5188 -1.2312,2.75 -2.75,2.75h-14.00001c-1.51878,0 -2.75,-1.2312 -2.75,-2.75v-9c0,-1.51878 1.23122,-2.75 2.75,-2.75zM7.24969,7.75h-2.25c-0.69035,0 -1.25,0.55964 -1.25,1.25v9c0,0.6904 0.55965,1.25 1.25,1.25h14.00001c0.6904,0 1.25,-0.5596 1.25,-1.25v-9c0,-0.69036 -0.5596,-1.25 -1.25,-1.25h-2.25z" fill="#002B51"/>
</svg>
