<svg width="24" height="24" viewBox="0 0 24 24" fill="none" xmlns="http://www.w3.org/2000/svg">
<path fill-rule="evenodd" clip-rule="evenodd" d="M13.9997,2.25008c1.5188,0 2.75,1.23121 2.75,2.75v1.25h2.25c1.5188,0 2.75,1.23121 2.75,2.75v9.00002c0,1.5188 -1.2312,2.75 -2.75,2.75h-14.00001c-1.51878,0 -2.75,-1.2312 -2.75,-2.75v-9.00002c0,-1.51879 1.23122,-2.75 2.75,-2.75h2.25v-1.25c0,-1.51879 1.23122,-2.75 2.75,-2.75zM15.2497,6.25008v-1.25c0,-0.69036 -0.5596,-1.25 -1.25,-1.25h-4.00001c-0.69035,0 -1.25,0.55964 -1.25,1.25v1.25zM7.24969,7.75008h-2.25c-0.69035,0 -1.25,0.55964 -1.25,1.25v2.16842c1.59465,0.8585 3.82046,1.5892 6.00968,1.909c0.08555,-0.7472 0.72013,-1.3275 1.49023,-1.3275h1.5c0.7701,0 1.4047,0.5804 1.4902,1.3276c2.1892,-0.3197 4.4151,-1.0503 6.0099,-1.9087v-2.16882c0,-0.69036 -0.5596,-1.25 -1.25,-1.25h-2.25h-0.75h-8.00001zM14.2496,14.5909v0.1591c0,0.8284 -0.6716,1.5 -1.5,1.5h-1.5c-0.8285,0 -1.50005,-0.6716 -1.50005,-1.5v-0.1593c-2.12774,-0.2876 -4.28978,-0.939 -5.99986,-1.7438v5.1532c0,0.6903 0.55965,1.25 1.25,1.25h14.00001c0.6904,0 1.25,-0.5597 1.25,-1.25v-5.1529c-1.7102,0.8048 -3.8724,1.4562 -6.0001,1.7437zM11.2496,14.75h1.5v-1.5h-1.5z" fill="#002B51"/>
</svg>
