<svg width="24" height="24" viewBox="0 0 24 24" fill="none" xmlns="http://www.w3.org/2000/svg">
<path fill-rule="evenodd" clip-rule="evenodd" d="M9.99966,3.75008c-0.69035,0 -1.25,0.55964 -1.25,1.25v1.25h6.50004v-1.25c0,-0.69036 -0.5597,-1.25 -1.25,-1.25zM7.24966,6.25008v-1.25c0,-1.51879 1.23122,-2.75 2.75,-2.75h4.00004c1.5187,0 2.75,1.23121 2.75,2.75v1.25h2.25c1.5187,0 2.75,1.23121 2.75,2.75v9.00002c0,1.5188 -1.2313,2.75 -2.75,2.75h-14.00004c-1.51878,0 -2.75,-1.2312 -2.75,-2.75v-9.00002c0,-1.51879 1.23122,-2.75 2.75,-2.75zM7.24966,7.75008h-2.25c-0.69035,0 -1.25,0.55964 -1.25,1.25v2.16622l0.28039,0.1481c1.56942,0.7945 3.66561,1.4614 5.72931,1.7629c0.08564,-0.7471 0.72014,-1.3273 1.49014,-1.3273h1.5c0.7701,0 1.4046,0.5803 1.4902,1.3275c2.1892,-0.3196 4.4152,-1.0502 6.01,-1.9086v-2.16882c0,-0.69036 -0.5597,-1.25 -1.25,-1.25h-2.25zM14.2495,14.5906v0.1594c0,0.8284 -0.6716,1.5 -1.5,1.5h-1.5c-0.8284,0 -1.49998,-0.6716 -1.49998,-1.5v-0.1594c-2.12773,-0.2876 -4.28976,-0.9391 -5.99986,-1.7439v5.1534c0,0.6903 0.55965,1.25 1.25,1.25h14.00004c0.6903,0 1.25,-0.5597 1.25,-1.25v-5.1535c-1.7102,0.8048 -3.8724,1.4564 -6.0002,1.744zM12.7495,14.75v-1.5h-1.5v1.5z" fill="#002B51"/>
</svg>
