<svg width="24" height="24" viewBox="0 0 24 24" fill="none" xmlns="http://www.w3.org/2000/svg">
<path fill-rule="evenodd" clip-rule="evenodd" d="M9.99988 2.25008C8.48109 2.25008 7.24988 3.48129 7.24988 5.00008V6.25008H4.99988C3.48109 6.25008 2.24988 7.48129 2.24988 9.00008V10.2396C4.18063 11.5523 6.89248 12.6797 9.75823 13.0874C9.83931 12.3355 10.476 11.7501 11.2495 11.7501H12.7495C13.523 11.7501 14.1598 12.3356 14.2408 13.0876C17.1068 12.68 19.8189 11.5525 21.7499 10.2398V9.00008C21.7499 7.48129 20.5187 6.25008 18.9999 6.25008H16.7499V5.00008C16.7499 3.48129 15.5187 2.25008 13.9999 2.25008H9.99988ZM14.2495 14.6002V14.7501C14.2495 15.5785 13.5779 16.2501 12.7495 16.2501H11.2495C10.4211 16.2501 9.74951 15.5785 9.74951 14.7501V14.6001C6.96958 14.2359 4.31796 13.2435 2.24988 12.0155V18.0001C2.24988 19.5189 3.48109 20.7501 4.99988 20.7501H18.9999C20.5187 20.7501 21.7499 19.5189 21.7499 18.0001V12.0157C19.6816 13.2438 17.0297 14.2361 14.2495 14.6002ZM15.2499 6.25008V5.00008C15.2499 4.30972 14.6902 3.75008 13.9999 3.75008H9.99988C9.30952 3.75008 8.74988 4.30972 8.74988 5.00008V6.25008H15.2499ZM11.2495 13.2501H12.7495V14.7501H11.2495V13.2501Z" fill="#002B51"/>
</svg>
