<svg width="24" height="24" viewBox="0 0 24 24" fill="none" xmlns="http://www.w3.org/2000/svg">
<path d="M21.7499,18.0001c0,1.5188 -1.2312,2.75 -2.75,2.75h-14.00002c-1.51879,0 -2.75,-1.2312 -2.75,-2.75v-5.9873c2.06825,1.228 4.71956,2.2207 7.5,2.5849v0.1524c0,0.8284 0.67162,1.5 1.50002,1.5h1.5c0.8282,-0.0002 1.5,-0.6717 1.5,-1.5v-0.1533c2.7807,-0.3641 5.4316,-1.3571 7.5,-2.585zM12.7499,14.7501h-1.5v-1.5h1.5zM13.9999,2.25008c1.5188,0 2.75,1.23121 2.75,2.75v1.25h2.25c1.5188,0 2.75,1.23121 2.75,2.75v1.23732c-1.9311,1.313 -4.6432,2.4391 -7.5098,2.8467c-0.0826,-0.7502 -0.7181,-1.3338 -1.4902,-1.334h-1.5c-0.7723,0 -1.40862,0.5837 -1.49123,1.334c-2.86625,-0.4077 -5.57796,-1.5339 -7.50879,-2.8467v-1.23732c0,-1.51879 1.23121,-2.75 2.75,-2.75h2.25v-1.25c0,-1.51879 1.23121,-2.75 2.75,-2.75zM9.99988,3.75008c-0.69036,0 -1.25,0.55964 -1.25,1.25v1.25h6.50002v-1.25c0,-0.69036 -0.5597,-1.25 -1.25,-1.25z" fill="#002B51"/>
</svg>
