<svg width="24" height="24" viewBox="0 0 24 24" fill="none" xmlns="http://www.w3.org/2000/svg">
<path d="M13.9997,2.25c1.5188,0 2.75,1.23122 2.75,2.75v1.25h2.25c1.5188,0 2.75,1.23122 2.75,2.75v9c0,1.5188 -1.2312,2.75 -2.75,2.75h-14.00001c-1.51869,-0.0001 -2.75,-1.2313 -2.75,-2.75v-9c0,-1.51872 1.23131,-2.7499 2.75,-2.75h2.25v-1.25c0,-1.51872 1.23131,-2.7499 2.75,-2.75zM20.2497,14.3447c-2.3225,1.0932 -5.4783,1.9053 -8.25,1.9053c-2.77192,-0.0001 -5.92753,-0.8121 -8.25001,-1.9053v3.6553c0,0.6903 0.55973,1.2499 1.25,1.25h14.00001c0.6904,0 1.25,-0.5596 1.25,-1.25zM4.99969,7.75c-0.69027,0.0001 -1.25,0.55971 -1.25,1.25v3.666l0.28028,0.1485c2.14772,1.0873 5.28227,1.9354 7.96973,1.9355c2.8072,0 6.1013,-0.9272 8.25,-2.084v-3.666c0,-0.69036 -0.5596,-1.25 -1.25,-1.25zM11.9997,11c0.5523,0 1,0.4477 1,1c0,0.5523 -0.4477,1 -1,1c-0.5521,-0.0002 -1,-0.4478 -1,-1c0,-0.5522 0.4479,-0.9998 1,-1zM9.99969,3.75c-0.69027,0.0001 -1.25,0.55971 -1.25,1.25v1.25h6.50001v-1.25c0,-0.69036 -0.5596,-1.25 -1.25,-1.25z" fill="#002B51"/>
</svg>
