<svg width="24" height="24" viewBox="0 0 24 24" fill="none" xmlns="http://www.w3.org/2000/svg">
<path fill-rule="evenodd" clip-rule="evenodd" d="M13.9999,2.25008c1.5188,0 2.75,1.23121 2.75,2.75v1.25h2.25c1.5188,0 2.75,1.23121 2.75,2.75v1.23972c-1.931,1.3127 -4.6431,2.4402 -7.5091,2.8478c-0.081,-0.752 -0.7178,-1.3375 -1.4913,-1.3375h-1.5c-0.7735,0 -1.41019,0.5854 -1.49127,1.3373c-2.86575,-0.4077 -5.5776,-1.5351 -7.50835,-2.8478v-1.23952c0,-1.51879 1.23121,-2.75 2.75,-2.75h2.25v-1.25c0,-1.51879 1.23121,-2.75 2.75,-2.75zM21.7499,12.0157v5.9844c0,1.5188 -1.2312,2.75 -2.75,2.75h-14.00002c-1.51879,0 -2.75,-1.2312 -2.75,-2.75v-5.9846c2.06808,1.228 4.7197,2.2204 7.49963,2.5846v0.15c0,0.8284 0.67159,1.5 1.49999,1.5h1.5c0.8284,0 1.5,-0.6716 1.5,-1.5v-0.1499c2.7802,-0.3641 5.4321,-1.3564 7.5004,-2.5845zM15.2499,6.25008v-1.25c0,-0.69036 -0.5597,-1.25 -1.25,-1.25h-4.00002c-0.69036,0 -1.25,0.55964 -1.25,1.25v1.25zM11.2495,13.2501h1.5v1.5h-1.5z" fill="#002B51"/>
</svg>
