<svg width="24" height="24" viewBox="0 0 24 24" fill="none" xmlns="http://www.w3.org/2000/svg">
<path fill-rule="evenodd" clip-rule="evenodd" d="M9.99988 2.25C8.48109 2.25 7.24988 3.48122 7.24988 5V6.25H4.99988C3.48109 6.25 2.24988 7.48122 2.24988 9V18C2.24988 19.5188 3.48109 20.75 4.99988 20.75H18.9999C20.5187 20.75 21.7499 19.5188 21.7499 18V9C21.7499 7.48122 20.5187 6.25 18.9999 6.25H16.7499V5C16.7499 3.48122 15.5187 2.25 13.9999 2.25H9.99988ZM15.2499 6.25V5C15.2499 4.30964 14.6902 3.75 13.9999 3.75H9.99988C9.30952 3.75 8.74988 4.30964 8.74988 5V6.25H15.2499Z" fill="#002B51"/>
</svg>
