<svg width="24" height="24" viewBox="0 0 24 24" fill="none" xmlns="http://www.w3.org/2000/svg">
<path d="M13.9997,2.25008c1.5188,0 2.75,1.23121 2.75,2.75v1.25h2.25c1.5188,0 2.75,1.23121 2.75,2.75v9.00002c0,1.5188 -1.2312,2.75 -2.75,2.75h-14.00001c-1.51869,-0.0001 -2.75,-1.2313 -2.75,-2.75v-9.00002c0,-1.51873 1.23131,-2.7499 2.75,-2.75h2.25v-1.25c0,-1.51873 1.23131,-2.7499 2.75,-2.75zM20.2497,12.8448c-1.7102,0.8044 -3.8721,1.4539 -6,1.7412v0.1641c0,0.8283 -0.6717,1.4999 -1.5,1.5h-1.5c-0.8284,0 -1.49996,-0.6716 -1.50001,-1.5v-0.1641c-2.12774,-0.2873 -4.28995,-0.9356 -6,-1.7402v5.1543c0,0.6903 0.55973,1.2499 1.25,1.25h14.00001c0.6904,0 1.25,-0.5597 1.25,-1.25zM11.2497,14.7501h1.5v-1.5h-1.5zM4.99969,7.75008c-0.69027,0.0001 -1.25,0.5597 -1.25,1.25v2.16602l0.28028,0.1484c1.56955,0.7946 3.66656,1.4585 5.73047,1.7598c0.08703,-0.7456 0.72026,-1.3242 1.48926,-1.3242h1.5c0.7685,0 1.4008,0.5782 1.4883,1.3232c2.19,-0.3192 4.4165,-1.0476 6.0117,-1.9062v-2.16702c0,-0.69036 -0.5596,-1.25 -1.25,-1.25zM9.99969,3.75008c-0.69027,0.0001 -1.25,0.5597 -1.25,1.25v1.25h6.50001v-1.25c0,-0.69036 -0.5596,-1.25 -1.25,-1.25z" fill="#002B51"/>
</svg>
