<svg width="24" height="24" viewBox="0 0 24 24" fill="none" xmlns="http://www.w3.org/2000/svg">
<path fill-rule="evenodd" clip-rule="evenodd" d="M13.9999,2.25c1.5188,0 2.75,1.23122 2.75,2.75v1.25h2.25c1.5188,0 2.75,1.23122 2.75,2.75v2.7397c-2.4297,1.6519 -6.0963,3.0103 -9.7499,3.0103c-3.65373,0 -7.32041,-1.3585 -9.75012,-3.0105v-2.7395c0,-1.51878 1.23121,-2.75 2.75,-2.75h2.25v-1.25c0,-1.51878 1.23121,-2.75 2.75,-2.75zM2.24988,18v-4.4846c2.62148,1.5567 6.18058,2.7346 9.75012,2.7346c3.5694,0 7.1284,-1.1779 9.7499,-2.7344v4.4844c0,1.5188 -1.2312,2.75 -2.75,2.75h-14.00002c-1.51879,0 -2.75,-1.2312 -2.75,-2.75zM15.2499,6.25v-1.25c0,-0.69036 -0.5597,-1.25 -1.25,-1.25h-4.00002c-0.69036,0 -1.25,0.55964 -1.25,1.25v1.25zM12,13c0.5523,0 1,-0.4477 1,-1c0,-0.5523 -0.4477,-1 -1,-1c-0.5523,0 -1,0.4477 -1,1c0,0.5523 0.4477,1 1,1z" fill="#002B51"/>
</svg>
