<svg width="24" height="24" viewBox="0 0 24 24" fill="none" xmlns="http://www.w3.org/2000/svg">
<path d="M2.24988,13.5107c2.62156,1.5574 6.17954,2.7393 9.75002,2.7393c3.5696,0 7.1284,-1.1788 9.75,-2.7354v4.4854c0,1.5188 -1.2312,2.75 -2.75,2.75h-14.00002c-1.51879,0 -2.75,-1.2312 -2.75,-2.75zM13.9999,2.25c1.5188,0 2.75,1.23122 2.75,2.75v1.25h2.25c1.5188,0 2.75,1.23122 2.75,2.75v2.7354c-2.4297,1.6525 -6.0954,3.0146 -9.75,3.0146c-3.65446,0 -7.32035,-1.3613 -9.75002,-3.0137v-2.7363c0,-1.51878 1.23121,-2.75 2.75,-2.75h2.25v-1.25c0,-1.51878 1.23121,-2.75 2.75,-2.75zM11.9999,11c-0.5523,0.0001 -1,0.4478 -1,1c0,0.5522 0.4477,0.9999 1,1c0.5523,0 1,-0.4477 1,-1c0,-0.5523 -0.4477,-1 -1,-1zM9.99988,3.75c-0.69036,0 -1.25,0.55964 -1.25,1.25v1.25h6.50002v-1.25c0,-0.69036 -0.5597,-1.25 -1.25,-1.25z" fill="#002B51"/>
</svg>
