<svg width="24" height="24" viewBox="0 0 24 24" fill="none" xmlns="http://www.w3.org/2000/svg">
<path d="M21.7499,18.0001c0,1.5188 -1.2312,2.75 -2.75,2.75h-14.00002c-1.51879,0 -2.75,-1.2312 -2.75,-2.75v-5.9864c2.0682,1.2281 4.71987,2.2198 7.5,2.584v0.1524c0,0.8284 0.67162,1.5 1.50002,1.5h1.5c0.8282,-0.0002 1.5,-0.6717 1.5,-1.5v-0.1524c2.7807,-0.3641 5.4316,-1.3577 7.5,-2.5859zM12.7499,14.7501h-1.5v-1.5h1.5zM13.9999,2.25008c1.5188,0 2.75,1.23121 2.75,2.75v1.25h2.25c1.5188,0 2.75,1.23121 2.75,2.75v1.23732c-1.9311,1.3131 -4.6432,2.4401 -7.5098,2.8476c-0.0822,-0.7506 -0.7178,-1.3347 -1.4902,-1.3349h-1.5c-0.7727,0 -1.40906,0.5842 -1.49123,1.3349c-2.86615,-0.4076 -5.57793,-1.5348 -7.50879,-2.8476v-1.23732c0,-1.51879 1.23121,-2.75 2.75,-2.75h2.25v-1.25c0,-1.51879 1.23121,-2.75 2.75,-2.75zM9.99988,3.75008c-0.69036,0 -1.25,0.55964 -1.25,1.25v1.25h6.50002v-1.25c0,-0.69036 -0.5597,-1.25 -1.25,-1.25z" fill="#002B51"/>
</svg>
