<svg width="24" height="24" viewBox="0 0 24 24" fill="none" xmlns="http://www.w3.org/2000/svg">
<path fill-rule="evenodd" clip-rule="evenodd" d="M9.99969 2.25C8.48091 2.25 7.24969 3.48122 7.24969 5V6.25H4.99969C3.48091 6.25 2.24969 7.48122 2.24969 9V18C2.24969 19.5188 3.48091 20.75 4.99969 20.75H18.9997C20.5185 20.75 21.7497 19.5188 21.7497 18V9C21.7497 7.48122 20.5185 6.25 18.9997 6.25H16.7497V5C16.7497 3.48122 15.5185 2.25 13.9997 2.25H9.99969ZM15.2497 6.25V5C15.2497 4.30964 14.6901 3.75 13.9997 3.75H9.99969C9.30934 3.75 8.74969 4.30964 8.74969 5V6.25H15.2497ZM7.24969 7.75H4.99969C4.30934 7.75 3.74969 8.30964 3.74969 9V12.6685C5.89839 13.8252 9.19304 14.75 12 14.75C14.8067 14.75 18.101 13.8253 20.2497 12.6688V9C20.2497 8.30964 19.6901 7.75 18.9997 7.75H16.7497H15.9997H7.99969H7.24969ZM3.74969 18V14.3468C6.07218 15.4398 9.22833 16.25 12 16.25C14.7714 16.25 17.9273 15.44 20.2497 14.3471V18C20.2497 18.6904 19.6901 19.25 18.9997 19.25H4.99969C4.30934 19.25 3.74969 18.6904 3.74969 18ZM12 13C12.5523 13 13 12.5523 13 12C13 11.4477 12.5523 11 12 11C11.4477 11 11 11.4477 11 12C11 12.5523 11.4477 13 12 13Z" fill="#002B51"/>
</svg>
