<svg width="24" height="24" viewBox="0 0 24 24" fill="none" xmlns="http://www.w3.org/2000/svg">
<path d="M17.834,5.10558c0.2745,-0.27429 0.7084,-0.29164 1.0029,-0.05175l0.0576,0.05175l0.3223,0.33887c1.573,1.73088 2.5332,4.03184 2.5332,6.55565c-0.0001,2.6919 -1.0922,5.1301 -2.8555,6.8936c-0.2929,0.2929 -0.7676,0.2929 -1.0605,0c-0.2928,-0.2929 -0.2929,-0.7677 0,-1.0606c1.4935,-1.4937 2.4159,-3.5549 2.416,-5.833c0,-2.13572 -0.8106,-4.08127 -2.1426,-5.54686l-0.2734,-0.28711l-0.0518,-0.05664c-0.2404,-0.29458 -0.2229,-0.72927 0.0518,-1.00391zM5.16309,5.05383c0.29451,-0.23989 0.72845,-0.22254 1.00293,0.05175c0.27463,0.27464 0.29216,0.70933 0.05175,1.00391l-0.05175,0.05664c-1.49368,1.49375 -2.416,3.5557 -2.41602,5.83397c0.00008,2.1358 0.81054,4.0813 2.14258,5.5469l0.27344,0.2861l0.05175,0.0576c0.24011,0.2946 0.22271,0.7284 -0.05175,1.003c-0.27454,0.2745 -0.70836,0.2918 -1.00293,0.0517l-0.05762,-0.0517l-0.32227,-0.3379c-1.57314,-1.7309 -2.53312,-4.0318 -2.5332,-6.5557c0.00002,-2.69207 1.09199,-5.13096 2.85547,-6.89452zM7.28418,7.17492c0.29453,-0.23993 0.72942,-0.2226 1.00391,0.05176c0.29254,0.29279 0.29246,0.7677 0,1.06054l-0.17481,0.18262c-0.84768,0.9327 -1.3631,2.17036 -1.36328,3.52926c0,1.3592 0.51551,2.5975 1.36328,3.5303l0.17481,0.1826l0.05078,0.0567c0.2404,0.2944 0.22358,0.7292 -0.05078,1.0039c-0.27451,0.2745 -0.70933,0.2918 -1.00391,0.0517l-0.05762,-0.0517l-0.22265,-0.2344c-1.08888,-1.1981 -1.75391,-2.7918 -1.75391,-4.5391c0.00019,-1.8633 0.75618,-3.55191 1.97656,-4.77242zM15.7119,7.22668c0.2745,-0.27436 0.7094,-0.29169 1.0039,-0.05176l0.0576,0.05176l0.2227,0.23437c1.0888,1.19799 1.7537,2.79105 1.7539,4.53805c0,1.8636 -0.7561,3.5528 -1.9766,4.7735l-0.0576,0.0517c-0.2946,0.2401 -0.7294,0.2228 -1.0039,-0.0517c-0.2925,-0.2929 -0.2925,-0.7678 0,-1.0606l0.1748,-0.1826c0.8478,-0.9328 1.3633,-2.1711 1.3633,-3.5303c-0.0002,-1.3589 -0.5156,-2.59656 -1.3633,-3.52926l-0.1748,-0.18262l-0.0508,-0.05664c-0.2403,-0.2945 -0.2236,-0.72926 0.0508,-1.0039zM12,8.75011c1.7949,0 3.25,1.45509 3.25,3.24999c-0.0001,1.7948 -1.4552,3.25 -3.25,3.25c-1.7948,0 -3.24987,-1.4552 -3.25,-3.25c0,-1.7949 1.4551,-3.24999 3.25,-3.24999zM12,10.2501c-0.9665,0 -1.75,0.7835 -1.75,1.75c0.0001,0.9664 0.7836,1.75 1.75,1.75c0.9664,0 1.7499,-0.7836 1.75,-1.75c0,-0.9665 -0.7835,-1.75 -1.75,-1.75z" fill="#002B51"/>
</svg>
