<svg width="24" height="24" viewBox="0 0 24 24" fill="none" xmlns="http://www.w3.org/2000/svg">
<path d="M17.834,5.1056c0.2745,-0.27432 0.7084,-0.29166 1.0029,-0.05176l0.0576,0.05176l0.3223,0.33886c1.573,1.73089 2.5332,4.03183 2.5332,6.55564c-0.0001,2.6919 -1.0922,5.1301 -2.8555,6.8936c-0.2929,0.2929 -0.7676,0.2929 -1.0605,0c-0.2928,-0.2929 -0.2929,-0.7677 0,-1.0606c1.4935,-1.4937 2.4159,-3.5549 2.416,-5.833c0,-2.13572 -0.8106,-4.08125 -2.1426,-5.54685l-0.2734,-0.28711l-0.0518,-0.05664c-0.2404,-0.29458 -0.2229,-0.72926 0.0518,-1.0039zM5.16309,5.05384c0.29451,-0.2399 0.72844,-0.22256 1.00293,0.05176c0.27464,0.27464 0.29217,0.70932 0.05175,1.0039l-0.05175,0.05664c-1.49369,1.49376 -2.41601,3.55569 -2.41602,5.83396c0.00008,2.1358 0.81053,4.0813 2.14258,5.5469l0.27344,0.2861l0.05175,0.0577c0.24012,0.2945 0.22273,0.7283 -0.05175,1.0029c-0.27454,0.2745 -0.70836,0.2919 -1.00293,0.0517l-0.05762,-0.0517l-0.32227,-0.3379c-1.57315,-1.7309 -2.53312,-4.0318 -2.5332,-6.5557c0.00001,-2.69206 1.09198,-5.13094 2.85547,-6.8945zM7.28418,7.17493c0.29452,-0.23991 0.72942,-0.22258 1.00391,0.05176c0.29254,0.29279 0.29244,0.7677 0,1.06055l-0.17481,0.18261c-0.84767,0.9327 -1.36309,2.17035 -1.36328,3.52935c0,1.3591 0.51552,2.5974 1.36328,3.5302l0.17481,0.1826l0.05078,0.0567c0.24039,0.2944 0.22357,0.7292 -0.05078,1.0039c-0.27451,0.2745 -0.70933,0.2918 -1.00391,0.0517l-0.05762,-0.0517l-0.22265,-0.2344c-1.08887,-1.1981 -1.75391,-2.7918 -1.75391,-4.539c0.0002,-1.8634 0.75619,-3.552 1.97656,-4.77251zM15.7119,7.22669c0.2745,-0.27434 0.7094,-0.29167 1.0039,-0.05176l0.0576,0.05176l0.2227,0.23437c1.0888,1.19799 1.7537,2.79114 1.7539,4.53814c0,1.8635 -0.7561,3.5527 -1.9766,4.7734l-0.0576,0.0517c-0.2946,0.2401 -0.7294,0.2228 -1.0039,-0.0517c-0.2925,-0.2928 -0.2925,-0.7678 0,-1.0606l0.1748,-0.1826c0.8478,-0.9328 1.3633,-2.1711 1.3633,-3.5302c-0.0002,-1.359 -0.5156,-2.59665 -1.3633,-3.52935l-0.1748,-0.18261l-0.0508,-0.05664c-0.2403,-0.29451 -0.2236,-0.72927 0.0508,-1.00391zM12,8.75013c1.7949,0 3.25,1.45507 3.25,3.24997c-0.0001,1.7948 -1.4552,3.25 -3.25,3.25c-1.7948,0 -3.24987,-1.4552 -3.25,-3.25c0,-1.7949 1.4551,-3.24997 3.25,-3.24997z" fill="#002B51"/>
</svg>
