<svg width="24" height="24" viewBox="0 0 24 24" fill="none" xmlns="http://www.w3.org/2000/svg">
<path fill-rule="evenodd" clip-rule="evenodd" d="M10.6428,9.87147c-0.81776,1.12443 -1.38379,2.14553 -1.6917,2.79643c1.055,0.476 1.905,1.326 2.381,2.381c0.6509,-0.3079 1.672,-0.8739 2.7964,-1.6917c-0.4196,-0.9691 -0.8322,-1.6252 -1.3463,-2.1394c-0.5142,-0.5141 -1.1703,-0.9267 -2.1394,-1.34633zM11.5998,8.65701c0.9011,0.4203 1.6297,0.88681 2.243,1.50019c0.6134,0.6133 1.0799,1.3419 1.5002,2.243c0.235,-0.2007 0.4705,-0.4116 0.7041,-0.6326c2.0726,-1.96048 3.9218,-4.63852 4.1737,-7.98843c-3.3499,0.25195 -6.0279,2.10117 -7.9884,4.17373c-0.221,0.23362 -0.4319,0.46906 -0.6326,0.70411zM21,2.25c0.4142,0 0.75,0.33579 0.75,0.75c0,4.28411 -2.2779,7.5926 -4.6721,9.8574c-2.0328,1.9229 -4.2172,3.1591 -5.3521,3.6603c0.016,0.1586 0.0242,0.3195 0.0242,0.4823c0,2.6234 -2.12665,4.75 -4.75,4.75h-4c-0.41421,0 -0.75,-0.3358 -0.75,-0.75v-4c0,-2.6234 2.12665,-4.75 4.75,-4.75c0.16282,0 0.32373,0.0082 0.48233,0.0242c0.50112,-1.1349 1.73741,-3.31931 3.66027,-5.3521c2.2648,-2.39417 5.5733,-4.6721 9.8574,-4.6721zM7,13.75c-1.79493,0 -3.25,1.4551 -3.25,3.25v3.25h3.25c1.79493,0 3.25,-1.4551 3.25,-3.25c0,-1.7949 -1.45507,-3.25 -3.25,-3.25z" fill="#002B51"/>
</svg>
