<svg width="24" height="24" viewBox="0 0 24 24" fill="none" xmlns="http://www.w3.org/2000/svg">
<path fill-rule="evenodd" clip-rule="evenodd" d="M7 2.25C6.30964 2.25 5.75 2.80964 5.75 3.5V11.275C5.17944 11.3908 4.75 11.8953 4.75 12.5V15.5C4.75 16.1904 5.30964 16.75 6 16.75H9.25V19C9.25 20.5188 10.4812 21.75 12 21.75C13.5188 21.75 14.75 20.5188 14.75 19V16.75H18C18.6904 16.75 19.25 16.1904 19.25 15.5V12.5C19.25 11.8953 18.8206 11.3908 18.25 11.275V3.5C18.25 2.80964 17.6904 2.25 17 2.25H14H10H7ZM13.25 3.75V7.5C13.25 7.91421 13.5858 8.25 14 8.25C14.4142 8.25 14.75 7.91421 14.75 7.5V3.75H16.75V11.25H7.25V3.75H9.25V5.5C9.25 5.91421 9.58579 6.25 10 6.25C10.4142 6.25 10.75 5.91421 10.75 5.5V3.75H13.25ZM7 12.75H6.25V15.25H9.70588C10.2825 15.25 10.75 15.7175 10.75 16.2941V19C10.75 19.6904 11.3096 20.25 12 20.25C12.6904 20.25 13.25 19.6904 13.25 19V16.2941C13.25 15.7175 13.7175 15.25 14.2941 15.25H17.75V12.75H17H7Z" fill="#002B51"/>
</svg>
