<svg width="24" height="24" viewBox="0 0 24 24" fill="none" xmlns="http://www.w3.org/2000/svg">
<path fill-rule="evenodd" clip-rule="evenodd" d="M21.0771,2.25391c0.378,0.03862 0.6729,0.35792 0.6729,0.74609c0,4.28406 -2.2777,7.5927 -4.6719,9.8574c-2.0328,1.923 -4.2173,3.1595 -5.3522,3.6607c0.0159,0.1585 0.0241,0.3192 0.0241,0.4819c0,2.6234 -2.12665,4.75 -4.75,4.75h-4c-0.41421,0 -0.75,-0.3358 -0.75,-0.75v-4c0,-2.6234 2.12665,-4.75 4.75,-4.75c0.16268,0 0.32344,0.0082 0.48191,0.0241c0.50116,-1.1349 1.7377,-3.31937 3.66069,-5.35222c2.2647,-2.39415 5.5733,-4.67188 9.8574,-4.67188zM14.124,13.3467c-0.418,-0.9634 -0.8295,-1.6167 -1.3418,-2.1289c-0.5122,-0.5123 -1.1655,-0.9238 -2.1289,-1.34182l-0.0104,-0.00433c-0.81763,1.12445 -1.38358,2.14555 -1.69144,2.79645c1.05474,0.4759 1.90454,1.3257 2.38044,2.3804c0.6509,-0.3078 1.672,-0.8738 2.7964,-1.6914z" fill="#002B51"/>
</svg>
