<svg width="24" height="24" viewBox="0 0 24 24" fill="none" xmlns="http://www.w3.org/2000/svg">
<path fill-rule="evenodd" clip-rule="evenodd" d="M13.25,3v0.75v3.75c0,0.41421 0.3358,0.75 0.75,0.75c0.4142,0 0.75,-0.33579 0.75,-0.75v-3.75v-0.75v-0.75h2.25c0.6904,0 1.25,0.55964 1.25,1.25v7.775c0.5706,0.1158 1,0.6203 1,1.225v3c0,0.6904 -0.5596,1.25 -1.25,1.25h-3.25v2.25c0,1.5188 -1.2312,2.75 -2.75,2.75c-1.5188,0 -2.75,-1.2312 -2.75,-2.75v-2.25h-3.25c-0.69036,0 -1.25,-0.5596 -1.25,-1.25v-3c0,-0.6047 0.42944,-1.1092 1,-1.225v-7.775c0,-0.69036 0.55964,-1.25 1.25,-1.25h2.25v0.75v0.75v1.75c0,0.41421 0.33579,0.75 0.75,0.75c0.4142,0 0.75,-0.33579 0.75,-0.75v-1.75v-0.75v-0.75h2.5zM6.25,12.75v2.5h3.45588c0.57662,0 1.04412,0.4675 1.04412,1.0441v2.7059c0,0.6904 0.5596,1.25 1.25,1.25c0.6904,0 1.25,-0.5596 1.25,-1.25v-2.7059c0,-0.5766 0.4675,-1.0441 1.0441,-1.0441h3.4559v-2.5h-0.75h-10z" fill="#002B51"/>
</svg>
