<svg width="24" height="24" viewBox="0 0 24 24" fill="none" xmlns="http://www.w3.org/2000/svg">
<path d="M17,2.25c0.6904,0 1.25,0.55964 1.25,1.25v7.7754c0.5705,0.1158 1,0.6199 1,1.2246v3c0,0.6904 -0.5596,1.25 -1.25,1.25h-3.25v2.25c0,1.5188 -1.2312,2.75 -2.75,2.75c-1.5188,0 -2.75,-1.2312 -2.75,-2.75v-2.25h-3.25c-0.69036,0 -1.25,-0.5596 -1.25,-1.25v-3c0,-0.6048 0.42938,-1.1098 1,-1.2256v-7.7744c0,-0.69036 0.55964,-1.25 1.25,-1.25zM6.25,15.25h3.45605c0.57655,0.0001 1.04385,0.4674 1.04395,1.0439v2.7061c0,0.6904 0.5596,1.25 1.25,1.25c0.6904,0 1.25,-0.5596 1.25,-1.25v-2.7061c0.0001,-0.5765 0.4674,-1.0438 1.0439,-1.0439h3.4561v-2.5h-11.5zM7.25,11.25h9.5v-7.5h-2v3.75c0,0.41421 -0.3358,0.75 -0.75,0.75c-0.4142,0 -0.75,-0.33579 -0.75,-0.75v-3.75h-2.5v1.75c0,0.41421 -0.3358,0.75 -0.75,0.75c-0.41421,0 -0.75,-0.33579 -0.75,-0.75v-1.75h-2z" fill="#002B51"/>
</svg>
