<svg width="24" height="24" viewBox="0 0 24 24" fill="none" xmlns="http://www.w3.org/2000/svg">
<path fill-rule="evenodd" clip-rule="evenodd" d="M14.75,7.5c0,0.41421 -0.3358,0.75 -0.75,0.75c-0.4142,0 -0.75,-0.33579 -0.75,-0.75v-3.75h-2.5v1.75c0,0.41421 -0.3358,0.75 -0.75,0.75c-0.41418,0 -0.74997,-0.33579 -0.74997,-0.75v-1.75h-2v7.5h9.49997v-7.5h-2zM14,2.25h3c0.6904,0 1.25,0.55964 1.25,1.25v7.7754c0.5706,0.1158 1,0.6199 1,1.2246v3c0,0.6904 -0.5596,1.25 -1.25,1.25h-3.25v2.25c0,1.5188 -1.2312,2.75 -2.75,2.75c-1.5188,0 -2.74997,-1.2312 -2.74997,-2.75v-2.25h-3.25c-0.69036,0 -1.25,-0.5596 -1.25,-1.25v-3c0,-0.6047 0.42944,-1.1092 1,-1.225v-7.775c0,-0.69036 0.55964,-1.25 1.25,-1.25h2.99997zM7.00003,12.75h-0.75v2.5h3.45606c0.57651,0.0001 1.04381,0.4674 1.04391,1.0439v2.7061c0,0.6904 0.5597,1.25 1.25,1.25c0.6904,0 1.25,-0.5596 1.25,-1.25v-2.7061c0.0001,-0.5765 0.4675,-1.0438 1.044,-1.0439h3.456v-2.5h-0.75z" fill="#002B51"/>
</svg>
