<svg width="24" height="24" viewBox="0 0 24 24" fill="none" xmlns="http://www.w3.org/2000/svg">
<path fill-rule="evenodd" clip-rule="evenodd" d="M21.0772,2.25391c0.3779,0.03862 0.6728,0.35792 0.6728,0.74609c0,4.28406 -2.2777,7.5927 -4.6718,9.8574c-2.0329,1.923 -4.2174,3.1595 -5.3523,3.6607c0.0159,0.1585 0.0241,0.3192 0.0241,0.4819c0,2.6234 -2.12662,4.75 -4.74997,4.75h-4c-0.41421,0 -0.75,-0.3358 -0.75,-0.75v-4c0,-2.6234 2.12665,-4.75 4.75,-4.75c0.16268,0 0.32344,0.0082 0.48191,0.0241c0.50116,-1.1349 1.7377,-3.31937 3.66066,-5.35222c2.2648,-2.39415 5.5734,-4.67188 9.8574,-4.67188zM14.1241,13.3467c-0.4181,-0.9634 -0.8296,-1.6167 -1.3418,-2.1289c-0.5123,-0.5123 -1.1656,-0.9238 -2.1289,-1.34182l-0.0104,-0.00433c-0.8177,1.12445 -1.38365,2.14555 -1.69151,2.79645c1.05471,0.4759 1.90451,1.3257 2.38041,2.3804c0.6509,-0.3078 1.672,-0.8738 2.7965,-1.6914zM16.0469,11.7676c2.0725,-1.96051 3.9208,-4.63849 4.1729,-7.9883c-3.3494,0.25228 -6.027,2.10149 -7.9873,4.17382c-0.2211,0.23373 -0.4321,0.46927 -0.6329,0.70442c0.9012,0.42022 1.6299,0.88635 2.2432,1.49966c0.6133,0.6134 1.0795,1.342 1.4997,2.2432c0.2351,-0.2008 0.4707,-0.4117 0.7044,-0.6328zM10.25,17c0,-1.7949 -1.45504,-3.25 -3.24997,-3.25c-1.79492,0 -3.25,1.4551 -3.25,3.25v3.25h3.25c1.79493,0 3.24997,-1.4551 3.24997,-3.25z" fill="#002B51"/>
</svg>
