<svg width="24" height="24" viewBox="0 0 24 24" fill="none" xmlns="http://www.w3.org/2000/svg">
<path d="M21.0771,2.25391c0.378,0.03862 0.6729,0.35792 0.6729,0.74609c0,4.28406 -2.2777,7.5927 -4.6719,9.8574c-2.0326,1.9228 -4.2175,3.1579 -5.3525,3.6592c0.0161,0.159 0.0244,0.3202 0.0244,0.4834c0,2.6234 -2.12665,4.75 -4.75,4.75h-4c-0.41421,0 -0.75,-0.3358 -0.75,-0.75v-4c0,-2.6234 2.12665,-4.75 4.75,-4.75c0.16283,0 0.32381,0.0074 0.48242,0.0234c0.50139,-1.1351 1.73763,-3.31914 3.66018,-5.35152c2.2647,-2.39415 5.5733,-4.67188 9.8574,-4.67188zM7,13.75c-1.79493,0 -3.25,1.4551 -3.25,3.25v3.25h3.25c1.79493,0 3.25,-1.4551 3.25,-3.25c0,-1.7949 -1.45507,-3.25 -3.25,-3.25zM10.6436,9.87207c-0.81808,1.12493 -1.3827,2.14703 -1.69048,2.79783c1.05268,0.4756 1.90008,1.3234 2.37598,2.376c0.6508,-0.3077 1.6727,-0.8723 2.7979,-1.6904l-0.003,-0.0088c-0.418,-0.9634 -0.8295,-1.6167 -1.3418,-2.1289c-0.5122,-0.5123 -1.1655,-0.9238 -2.1289,-1.34182zM20.2197,3.7793c-3.3494,0.25228 -6.027,2.10149 -7.9873,4.17382c-0.2212,0.23385 -0.4319,0.46981 -0.6328,0.70508c0.9011,0.42018 1.6299,0.88575 2.2432,1.499c0.613,0.613 1.078,1.3417 1.498,2.2422c0.2353,-0.2009 0.4722,-0.4106 0.7061,-0.6318c2.0725,-1.96051 3.9208,-4.63849 4.1728,-7.9883z" fill="#002B51"/>
</svg>
