<svg width="24" height="24" viewBox="0 0 24 24" fill="none" xmlns="http://www.w3.org/2000/svg">
<path fill-rule="evenodd" clip-rule="evenodd" d="M10.6428,9.87147c-0.81776,1.12443 -1.38379,2.14553 -1.6917,2.79643c1.055,0.476 1.905,1.326 2.381,2.381c0.6509,-0.3079 1.672,-0.8739 2.7964,-1.6917c-0.4196,-0.9691 -0.8322,-1.6252 -1.3463,-2.1394c-0.5142,-0.5141 -1.1703,-0.9267 -2.1394,-1.34633zM17.0779,12.8574c-2.0328,1.9229 -4.2172,3.1591 -5.3521,3.6603c0.016,0.1586 0.0242,0.3195 0.0242,0.4823c0,2.6234 -2.12665,4.75 -4.75,4.75h-4c-0.41421,0 -0.75,-0.3358 -0.75,-0.75v-4c0,-2.6234 2.12665,-4.75 4.75,-4.75c0.16282,0 0.32373,0.0082 0.48233,0.0242c0.50112,-1.1349 1.73741,-3.31931 3.66027,-5.3521c2.2648,-2.39417 5.5733,-4.6721 9.8574,-4.6721c0.4142,0 0.75,0.33579 0.75,0.75c0,4.28411 -2.2779,7.5926 -4.6721,9.8574z" fill="#002B51"/>
</svg>
