<svg width="24" height="24" viewBox="0 0 24 24" fill="none" xmlns="http://www.w3.org/2000/svg">
<path fill-rule="evenodd" clip-rule="evenodd" d="M15.1438 3.64932C15.5025 3.44222 15.6254 2.98352 15.4183 2.6248C15.2112 2.26609 14.7525 2.14318 14.3938 2.35029C14.0114 2.57107 13.5867 2.83801 13.2643 3.22893C13.0235 3.52092 12.8584 3.85727 12.7743 4.24991H11.4554C11.3713 3.85727 11.2062 3.52092 10.9654 3.22893C10.643 2.83801 10.2183 2.57107 9.83594 2.35029C9.47722 2.14318 9.01853 2.26609 8.81142 2.6248C8.60431 2.98352 8.72722 3.44222 9.08594 3.64932C9.45507 3.86244 9.67114 4.01713 9.80822 4.18334C9.86799 4.25581 9.92087 4.34048 9.95885 4.45384C8.95628 4.86424 8.25 5.84959 8.25 6.99991V7.96464C8.2 7.99026 8.15064 8.0167 8.10197 8.04399C7.55331 8.3516 7.08094 8.77209 6.74911 9.33272C6.58926 9.60279 6.46768 9.89584 6.38455 10.2107C6.20041 10.0107 6.08554 9.80246 6.0075 9.58192C5.86387 9.17606 5.82692 8.68136 5.82692 7.9998C5.82692 7.58559 5.49114 7.2498 5.07692 7.2498C4.66271 7.2498 4.32692 7.58559 4.32692 7.9998C4.32692 8.69497 4.35726 9.41499 4.59343 10.0823C4.84183 10.7842 5.29839 11.3795 6.05344 11.8692C6.11587 11.9097 6.18208 11.9397 6.25 11.9597V13.321H4C3.58579 13.321 3.25 13.6567 3.25 14.071C3.25 14.4852 3.58579 14.821 4 14.821H6.25V15.059C6.25 15.5887 6.34239 16.1217 6.50397 16.6417C5.91606 17.0349 5.38629 17.4639 4.99755 17.9965C4.55835 18.5983 4.32692 19.293 4.32692 20.1331C4.32692 20.5474 4.66271 20.8831 5.07692 20.8831C5.49114 20.8831 5.82692 20.5474 5.82692 20.1331C5.82692 19.5965 5.96567 19.2144 6.20915 18.8809C6.41315 18.6014 6.70688 18.3336 7.11398 18.0431C7.42103 18.5914 7.78971 19.1035 8.18591 19.5556C8.72818 20.1745 9.34789 20.7119 9.98538 21.0995C10.6135 21.4814 11.3125 21.7499 12 21.7499C12.6875 21.7499 13.3865 21.4814 14.0146 21.0995C14.6521 20.7119 15.2718 20.1745 15.8141 19.5556C16.2103 19.1035 16.579 18.5914 16.886 18.0431C17.2931 18.3336 17.5868 18.6014 17.7908 18.881C18.0344 19.2146 18.1731 19.5967 18.1731 20.1331C18.1731 20.5474 18.5089 20.8831 18.9231 20.8831C19.3373 20.8831 19.6731 20.5474 19.6731 20.1331C19.6731 19.2932 19.4416 18.5984 19.0025 17.9967C18.6137 17.464 18.084 17.0349 17.496 16.6417C17.6576 16.1217 17.75 15.5887 17.75 15.059V14.821H20C20.4142 14.821 20.75 14.4852 20.75 14.071C20.75 13.6567 20.4142 13.321 20 13.321H17.75V12.0287C17.8179 12.0087 17.8841 11.9786 17.9466 11.9381C18.7113 11.4422 19.1642 10.8236 19.409 10.1097C19.6424 9.429 19.6731 8.69587 19.6731 7.9998C19.6731 7.58559 19.3373 7.2498 18.9231 7.2498C18.5089 7.2498 18.1731 7.58559 18.1731 7.9998C18.1731 8.68012 18.1365 9.19616 17.9901 9.62323C17.9142 9.84449 17.8054 10.0512 17.6386 10.2457C17.5566 9.8844 17.429 9.5526 17.2546 9.25118C16.92 8.67296 16.4405 8.25423 15.8835 7.95791C15.8395 7.93454 15.795 7.91189 15.75 7.88995V6.99991C15.75 5.92913 15.138 5.00128 14.2447 4.54707C14.2822 4.38475 14.3464 4.27442 14.4215 4.18334C14.5586 4.01713 14.7747 3.86244 15.1438 3.64932ZM14.25 6.99991V7.4211C13.5328 7.29008 12.7636 7.24993 12 7.24993C11.2288 7.24993 10.4619 7.30659 9.75 7.45495V6.99991C9.75 6.30956 10.3096 5.74991 11 5.74991H13C13.6904 5.74991 14.25 6.30956 14.25 6.99991ZM7.75 11.304C7.75 10.7819 7.86431 10.3935 8.03995 10.0968C8.21593 9.79943 8.47794 9.55287 8.83553 9.35239C9.57398 8.93838 10.6691 8.74993 12 8.74993C13.3576 8.74993 14.4466 8.89261 15.179 9.28222C15.5282 9.46795 15.7831 9.70325 15.9563 10.0025C16.1311 10.3045 16.25 10.7191 16.25 11.304V15.059C16.25 16.1873 15.618 17.5033 14.6859 18.5671C14.2282 19.0895 13.7229 19.5214 13.2354 19.8178C13.0646 19.9216 12.9022 20.0051 12.7499 20.07V10.7575C12.7499 10.3433 12.4141 10.0075 11.9999 10.0075C11.5857 10.0075 11.2499 10.3433 11.2499 10.7575V20.0699C11.0976 20.005 10.9353 19.9215 10.7646 19.8178C10.2771 19.5214 9.77182 19.0895 9.31409 18.5671C8.382 17.5033 7.75 16.1873 7.75 15.059V11.304Z" fill="#002B51"/>
</svg>
