<svg width="24" height="24" viewBox="0 0 24 24" fill="none" xmlns="http://www.w3.org/2000/svg">
<path fill-rule="evenodd" clip-rule="evenodd" d="M15.1438,3.64932c-0.3691,0.21312 -0.5851,0.36804 -0.7222,0.53425c-0.0751,0.09103 -0.1392,0.2014 -0.1766,0.36365c0.8931,0.45426 1.505,1.38202 1.505,2.45269v0.88991c0.0451,0.02199 0.0897,0.04468 0.1338,0.06812c0.5569,0.29629 1.0365,0.71488 1.3711,1.29297c0.1744,0.30141 0.3019,0.63328 0.3838,0.99469c0.1669,-0.1946 0.2757,-0.40151 0.3515,-0.62275c0.1463,-0.42699 0.1827,-0.94294 0.1827,-1.62305c0,-0.41413 0.3358,-0.74987 0.75,-0.75c0.4142,0 0.75,0.33579 0.75,0.75c0,0.69607 -0.0303,1.42966 -0.2637,2.1104c-0.2448,0.7137 -0.6983,1.3322 -1.4629,1.8281l-0.0664,0.0381c-0.0422,0.0216 -0.0857,0.0389 -0.1299,0.0519v1.2928h2.25l0.0771,0.0039c0.378,0.0386 0.6729,0.3579 0.6729,0.7461c-0.0001,0.3881 -0.2949,0.7075 -0.6729,0.7461l-0.0771,0.0039h-2.25v0.2384c-0.0001,0.5306 -0.0928,1.0645 -0.2549,1.5854l0.3203,0.2182c0.4597,0.3333 0.8705,0.6994 1.1875,1.1338c0.439,0.6016 0.67,1.2969 0.67,2.1367c-0.0003,0.414 -0.336,0.75 -0.75,0.75c-0.414,-0.0001 -0.7498,-0.3361 -0.75,-0.75c0,-0.5364 -0.1384,-0.9193 -0.3819,-1.2529c-0.1949,-0.2671 -0.4722,-0.5232 -0.8515,-0.7989l-0.0542,-0.0371c-0.3068,0.5477 -0.6751,1.0592 -1.0708,1.5109c-0.5423,0.6189 -1.1624,1.1564 -1.7999,1.5439c-0.6281,0.3819 -1.3271,0.6504 -2.0146,0.6504c-0.6875,0 -1.3865,-0.2685 -2.01465,-0.6504c-0.63749,-0.3875 -1.25753,-0.925 -1.7998,-1.5439c-0.39617,-0.4522 -0.7648,-0.9643 -1.07179,-1.5126c-0.40699,0.2905 -0.70084,0.5583 -0.90478,0.8377c-0.24348,0.3336 -0.38183,0.7163 -0.38183,1.2529c-0.00025,0.4139 -0.33604,0.7499 -0.75,0.75c-0.41406,0 -0.74976,-0.336 -0.75,-0.75c0,-0.8399 0.23094,-1.5351 0.66992,-2.1367c0.38872,-0.5326 0.91898,-0.9617 1.50694,-1.3549c-0.16156,-0.52 -0.25396,-1.0529 -0.25401,-1.5825v-0.2384h-2.25c-0.41417,0 -0.74992,-0.3359 -0.75,-0.75c0,-0.4142 0.33579,-0.75 0.75,-0.75h2.25v-1.3612c-0.04421,-0.013 -0.08769,-0.0303 -0.12988,-0.0519l-0.06641,-0.0391l-0.26953,-0.1884c-0.59642,-0.4515 -0.97306,-0.9837 -1.19043,-1.5977c-0.23617,-0.66734 -0.2666,-1.38783 -0.2666,-2.083c0,-0.41421 0.33578,-0.75 0.75,-0.75c0.41411,0.00013 0.75,0.33587 0.75,0.75c0,0.68156 0.03703,1.17617 0.18066,1.58204c0.07805,0.22053 0.19273,0.42886 0.37674,0.62896c0.08312,-0.31485 0.20468,-0.60784 0.36447,-0.87786c0.33178,-0.56054 0.80399,-0.98147 1.35254,-1.28906c0.04881,-0.02737 0.09829,-0.05388 0.14844,-0.07957v-0.9644c0,-1.15021 0.70615,-2.1355 1.70858,-2.54596c-0.03792,-0.11329 -0.09071,-0.19796 -0.15043,-0.27038c-0.13708,-0.16621 -0.35308,-0.32113 -0.72221,-0.53425c-0.35872,-0.2071 -0.48163,-0.6658 -0.27452,-1.02452c0.20711,-0.35871 0.6658,-0.48162 1.02452,-0.27451c0.38236,0.22078 0.80746,0.48805 1.12986,0.87897c0.2406,0.29181 0.4055,0.62818 0.4895,1.02065h1.3192c0.084,-0.39247 0.2489,-0.72884 0.4894,-1.02065c0.3225,-0.39092 0.7475,-0.65819 1.1299,-0.87897c0.3587,-0.20711 0.8174,-0.0842 1.0245,0.27451c0.2071,0.35872 0.0842,0.81742 -0.2745,1.02452zM13,5.74991h-2c-0.6904,0 -1.25,0.55965 -1.25,1.25v0.45493c0.712,-0.1483 1.4789,-0.20491 2.25,-0.20491c0.7636,0 1.5328,0.04015 2.25,0.17115v-0.42117c0,-0.69035 -0.5596,-1.25 -1.25,-1.25zM15.1787,9.28216c-0.7324,-0.38949 -1.8213,-0.53223 -3.1787,-0.53223c-1.3307,0 -2.42562,0.18864 -3.16406,0.60254c-0.35753,0.20045 -0.61992,0.44688 -0.7959,0.74413c-0.1756,0.2967 -0.28999,0.6851 -0.29004,1.207v3.7559c0.00017,1.1281 0.63249,2.4442 1.56445,3.5078c0.45761,0.5222 0.96285,0.9537 1.45015,1.25c0.1707,0.1038 0.333,0.1873 0.4853,0.2523v-9.3121c0,-0.4142 0.3358,-0.75 0.75,-0.75c0.4142,0 0.75,0.3358 0.75,0.75v9.3122c0.1523,-0.065 0.3147,-0.1486 0.4855,-0.2524c0.4873,-0.2963 0.9925,-0.7278 1.4501,-1.25c0.932,-1.0636 1.5643,-2.3797 1.5645,-3.5078v-3.7559c0,-0.5845 -0.1193,-0.9988 -0.2939,-1.3007c-0.1732,-0.2993 -0.4282,-0.53501 -0.7774,-0.72074z" fill="#002B51"/>
</svg>
