<svg width="24" height="24" viewBox="0 0 24 24" fill="none" xmlns="http://www.w3.org/2000/svg">
<path fill-rule="evenodd" clip-rule="evenodd" d="M14.4215,4.18334c-0.0751,0.09108 -0.1393,0.20141 -0.1768,0.36373c0.8933,0.45421 1.5053,1.38206 1.5053,2.45284v0.89004c0.045,0.02194 0.0895,0.04459 0.1335,0.06796c0.557,0.29632 1.0365,0.71505 1.3711,1.29327c0.1744,0.30142 0.302,0.63322 0.384,0.99452c0.1668,-0.1945 0.2756,-0.40121 0.3515,-0.62247c0.1464,-0.42707 0.183,-0.94311 0.183,-1.62343c0,-0.41421 0.3358,-0.75 0.75,-0.75c0.4142,0 0.75,0.33579 0.75,0.75c0,0.69607 -0.0307,1.4292 -0.2641,2.1099c-0.2448,0.7139 -0.6977,1.3325 -1.4624,1.8284c-0.0625,0.0405 -0.1287,0.0706 -0.1966,0.0906v1.2923h2.25c0.4142,0 0.75,0.3357 0.75,0.75c0,0.4142 -0.3358,0.75 -0.75,0.75h-2.25v0.238c0,0.5297 -0.0924,1.0627 -0.254,1.5827c0.588,0.3932 1.1177,0.8223 1.5065,1.355c0.4391,0.6017 0.6706,1.2965 0.6706,2.1364c0,0.4143 -0.3358,0.75 -0.75,0.75c-0.4142,0 -0.75,-0.3357 -0.75,-0.75c0,-0.5364 -0.1387,-0.9185 -0.3823,-1.2521c-0.204,-0.2796 -0.4977,-0.5474 -0.9048,-0.8379c-0.307,0.5483 -0.6757,1.0604 -1.0719,1.5125c-0.5423,0.6189 -1.162,1.1563 -1.7995,1.5439c-0.6281,0.3819 -1.3271,0.6504 -2.0146,0.6504c-0.6875,0 -1.3865,-0.2685 -2.01462,-0.6504c-0.63749,-0.3876 -1.2572,-0.925 -1.79947,-1.5439c-0.3962,-0.4521 -0.76488,-0.9642 -1.07193,-1.5125c-0.4071,0.2905 -0.70083,0.5583 -0.90483,0.8378c-0.24348,0.3335 -0.38223,0.7156 -0.38223,1.2522c0,0.4143 -0.33578,0.75 -0.75,0.75c-0.41421,0 -0.75,-0.3357 -0.75,-0.75c0,-0.8401 0.23143,-1.5348 0.67063,-2.1366c0.38874,-0.5326 0.91851,-0.9616 1.50642,-1.3548c-0.16158,-0.52 -0.25397,-1.053 -0.25397,-1.5827v-0.238h-2.25c-0.41421,0 -0.75,-0.3358 -0.75,-0.75c0,-0.4143 0.33579,-0.75 0.75,-0.75h2.25v-1.3613c-0.06792,-0.02 -0.13413,-0.05 -0.19656,-0.0905c-0.75505,-0.4897 -1.21161,-1.085 -1.46001,-1.7869c-0.23617,-0.66731 -0.26651,-1.38733 -0.26651,-2.0825c0,-0.41421 0.33579,-0.75 0.75,-0.75c0.41422,0 0.75,0.33579 0.75,0.75c0,0.68156 0.03695,1.17626 0.18058,1.58212c0.07804,0.22054 0.19291,0.42878 0.37705,0.62878c0.08313,-0.31486 0.20471,-0.60791 0.36456,-0.87798c0.33183,-0.56063 0.8042,-0.98112 1.35286,-1.28873c0.04867,-0.02729 0.09803,-0.05373 0.14803,-0.07935v-0.96473c0,-1.15032 0.70628,-2.13567 1.70885,-2.54607c-0.03798,-0.11336 -0.09086,-0.19803 -0.15063,-0.2705c-0.13708,-0.16621 -0.35315,-0.3209 -0.72228,-0.53402c-0.35872,-0.2071 -0.48163,-0.6658 -0.27452,-1.02452c0.20711,-0.35871 0.6658,-0.48162 1.02452,-0.27451c0.38236,0.22078 0.80706,0.48772 1.12946,0.87864c0.2408,0.29199 0.4059,0.62834 0.49,1.02098h1.3189c0.0841,-0.39264 0.2492,-0.72899 0.49,-1.02098c0.3224,-0.39092 0.7471,-0.65786 1.1295,-0.87864c0.3587,-0.20711 0.8174,-0.0842 1.0245,0.27451c0.2071,0.35872 0.0842,0.81742 -0.2745,1.02452c-0.3691,0.21312 -0.5852,0.36781 -0.7223,0.53402zM13,5.74991h-2c-0.6904,0 -1.25,0.55965 -1.25,1.25v0.45504c0.7119,-0.14836 1.4788,-0.20502 2.25,-0.20502c0.7636,0 1.5328,0.04015 2.25,0.17117v-0.42119c0,-0.69035 -0.5596,-1.25 -1.25,-1.25zM7.75,15.059c0,1.1283 0.632,2.4443 1.56409,3.5081c0.45773,0.5224 0.96301,0.9543 1.45051,1.2507c0.1707,0.1037 0.333,0.1872 0.4853,0.2521v-9.3124c0,-0.4142 0.3358,-0.75 0.75,-0.75c0.4142,0 0.75,0.3358 0.75,0.75v9.3125c0.1523,-0.0649 0.3147,-0.1484 0.4855,-0.2522c0.4875,-0.2964 0.9928,-0.7283 1.4505,-1.2507c0.9321,-1.0638 1.5641,-2.3798 1.5641,-3.5081v-3.755c0,-0.5849 -0.1189,-0.9995 -0.2937,-1.3015c-0.1732,-0.29925 -0.4281,-0.53455 -0.7773,-0.72028c-0.7324,-0.38961 -1.8214,-0.53229 -3.179,-0.53229c-1.3309,0 -2.42602,0.18845 -3.16447,0.60246c-0.35759,0.20048 -0.6196,0.44704 -0.79558,0.74441c-0.17564,0.2967 -0.28995,0.6851 -0.28995,1.2072z" fill="#002B51"/>
</svg>
