<svg width="24" height="24" viewBox="0 0 24 24" fill="none" xmlns="http://www.w3.org/2000/svg">
<path d="M14.3936,2.35027c0.3586,-0.20706 0.8172,-0.08411 1.0244,0.27442c0.2071,0.35872 0.0843,0.8173 -0.2744,1.02441c-0.3689,0.21296 -0.5846,0.3681 -0.7217,0.53418c-0.0754,0.09143 -0.1394,0.2028 -0.1768,0.36621c0.8925,0.45442 1.5048,1.38003 1.5049,2.4502v0.89062c0.045,0.02194 0.0898,0.044 0.1338,0.06739c0.5569,0.29629 1.0365,0.71488 1.3711,1.29296c0.1744,0.30142 0.2999,0.63374 0.3818,0.99514c0.1674,-0.1949 0.2775,-0.4014 0.3535,-0.62307c0.1463,-0.42697 0.1827,-0.943 0.1827,-1.62304c0,-0.41408 0.3359,-0.74988 0.75,-0.75c0.4141,0 0.7499,0.33584 0.75,0.75c0,0.69602 -0.0304,1.42968 -0.2637,2.11031c-0.2448,0.7138 -0.6984,1.3323 -1.4629,1.8282l-0.0664,0.038c-0.0422,0.0217 -0.0857,0.0388 -0.1299,0.0518v1.293h2.25l0.0771,0.0039c0.378,0.0386 0.6728,0.358 0.6729,0.7461c-0.0001,0.3881 -0.2949,0.7075 -0.6729,0.7461l-0.0771,0.0039h-2.25v0.2383c-0.0001,0.5303 -0.0949,1.0633 -0.2568,1.5839l0.3222,0.2198c0.4596,0.3333 0.8706,0.6995 1.1875,1.1338c0.439,0.6016 0.6699,1.2969 0.67,2.1367c-0.0003,0.414 -0.336,0.75 -0.75,0.75c-0.414,-0.0001 -0.7498,-0.3361 -0.75,-0.75c-0.0001,-0.5364 -0.1384,-0.9193 -0.3819,-1.253c-0.1949,-0.267 -0.4722,-0.5231 -0.8515,-0.7988l-0.0547,-0.0381c-0.3069,0.5478 -0.6745,1.0599 -1.0703,1.5118c-0.5423,0.6188 -1.1624,1.1563 -1.7999,1.5439c-0.5995,0.3645 -1.2645,-0.1324 -1.2646,-0.834v-9.2656c0,-0.4142 -0.3358,-0.75 -0.75,-0.75c-0.4142,0 -0.75,0.3358 -0.75,0.75v9.2656c-0.0001,0.7016 -0.6651,1.1985 -1.26465,0.834c-0.63749,-0.3876 -1.25753,-0.9251 -1.7998,-1.5439c-0.39597,-0.452 -0.7644,-0.9638 -1.07129,-1.5118c-0.40698,0.2904 -0.70133,0.5576 -0.90528,0.8369c-0.24346,0.3336 -0.38181,0.7164 -0.38183,1.253c-0.00025,0.4139 -0.33604,0.7499 -0.75,0.75c-0.41406,0 -0.74976,-0.336 -0.75,-0.75c0.00002,-0.8399 0.23096,-1.5351 0.66992,-2.1367c0.38887,-0.5328 0.92058,-0.9602 1.50879,-1.3536c-0.16192,-0.5205 -0.25581,-1.0537 -0.25586,-1.5839v-0.2383h-2.25c-0.41417,0 -0.74992,-0.3359 -0.75,-0.75c0.00007,-0.4142 0.33583,-0.75 0.75,-0.75h2.25v-1.3614c-0.04419,-0.013 -0.08772,-0.0301 -0.12988,-0.0517l-0.06641,-0.0391l-0.26953,-0.1884c-0.59639,-0.4515 -0.97306,-0.9838 -1.19043,-1.5977c-0.23613,-0.66733 -0.2666,-1.38789 -0.2666,-2.08301c0.00007,-0.41416 0.33583,-0.75 0.75,-0.75c0.41407,0.00012 0.74993,0.33592 0.75,0.75c0,0.68149 0.03707,1.17619 0.18066,1.58203c0.07805,0.22052 0.19393,0.42788 0.37793,0.62788c0.08311,-0.31436 0.20368,-0.60721 0.36328,-0.8769c0.33178,-0.56054 0.80399,-0.98147 1.35254,-1.28907c0.04875,-0.02733 0.09836,-0.05344 0.14844,-0.0791v-0.96484c0.00009,-1.14969 0.70624,-2.13323 1.70801,-2.54395c-0.03795,-0.11399 -0.08946,-0.19974 -0.14942,-0.27246c-0.13708,-0.16621 -0.35352,-0.32106 -0.72265,-0.53418c-0.35865,-0.20713 -0.4815,-0.66573 -0.27442,-1.02441c0.20715,-0.35861 0.66575,-0.48149 1.02442,-0.27442c0.38236,0.22078 0.80746,0.48801 1.12986,0.87891c0.2405,0.29164 0.4033,0.62832 0.4873,1.02051h1.3233c0.084,-0.39217 0.2469,-0.72887 0.4873,-1.02051c0.3223,-0.39086 0.7475,-0.65814 1.1299,-0.87891zM11,5.74969c-0.6903,0 -1.24987,0.55975 -1.25,1.25v0.45508c0.712,-0.1483 1.4789,-0.20508 2.25,-0.20508c0.7636,0 1.5328,0.04085 2.25,0.17187v-0.42187c-0.0001,-0.69025 -0.5597,-1.25 -1.25,-1.25z" fill="#002B51"/>
</svg>
