<svg width="24" height="24" viewBox="0 0 24 24" fill="none" xmlns="http://www.w3.org/2000/svg">
<path fill-rule="evenodd" clip-rule="evenodd" d="M15.4183,2.6248c0.2071,0.35872 0.0842,0.81742 -0.2745,1.02452c-0.3691,0.21312 -0.5852,0.36781 -0.7223,0.53402c-0.0751,0.09108 -0.1393,0.20141 -0.1768,0.36373c0.8933,0.45421 1.5053,1.38206 1.5053,2.45284v0.88979c0.045,0.02194 0.0895,0.04459 0.1335,0.06796c0.557,0.29632 1.0365,0.71505 1.3711,1.29327c0.1745,0.30147 0.3021,0.63333 0.3841,0.99467c0.1668,-0.1944 0.2755,-0.40113 0.3514,-0.62237c0.1464,-0.42707 0.183,-0.94311 0.183,-1.62343c0,-0.41421 0.3358,-0.75 0.75,-0.75c0.4142,0 0.75,0.33579 0.75,0.75c0,0.69607 -0.0307,1.4292 -0.2641,2.1099c-0.2448,0.7139 -0.6977,1.3325 -1.4624,1.8284c-0.0625,0.0405 -0.1287,0.0706 -0.1966,0.0906v1.2923h2.25c0.4142,0 0.75,0.3357 0.75,0.75c0,0.4142 -0.3358,0.75 -0.75,0.75h-2.25v0.2378c0,0.5297 -0.0924,1.0627 -0.254,1.5829c0.5879,0.3932 1.1177,0.8223 1.5065,1.355c0.4391,0.6017 0.6706,1.2965 0.6706,2.1364c0,0.4143 -0.3358,0.75 -0.75,0.75c-0.4142,0 -0.75,-0.3357 -0.75,-0.75c0,-0.5364 -0.1387,-0.9185 -0.3823,-1.2521c-0.204,-0.2796 -0.4978,-0.5475 -0.9049,-0.838c-0.307,0.5482 -0.6757,1.0603 -1.0718,1.5124c-0.5423,0.6189 -1.162,1.1563 -1.7995,1.5438c-0.5998,0.3647 -1.2646,-0.1311 -1.2646,-0.8331v-9.2664c0,-0.4142 -0.3358,-0.75 -0.75,-0.75c-0.4142,0 -0.75,0.3358 -0.75,0.75v9.2664c0,0.702 -0.6648,1.1978 -1.26462,0.8331c-0.63749,-0.3875 -1.2572,-0.9249 -1.79947,-1.5438c-0.39615,-0.4521 -0.7648,-0.9642 -1.07183,-1.5124c-0.40715,0.2905 -0.70092,0.5583 -0.90493,0.8379c-0.24348,0.3335 -0.38223,0.7156 -0.38223,1.2522c0,0.4143 -0.33578,0.75 -0.75,0.75c-0.41421,0 -0.75,-0.3357 -0.75,-0.75c0,-0.8401 0.23143,-1.5348 0.67063,-2.1366c0.38875,-0.5326 0.91855,-0.9616 1.50649,-1.3548c-0.16162,-0.5202 -0.25404,-1.0532 -0.25404,-1.5829v-0.2378h-2.25c-0.41421,0 -0.75,-0.3358 -0.75,-0.75c0,-0.4143 0.33579,-0.75 0.75,-0.75h2.25v-1.3613c-0.06792,-0.02 -0.13413,-0.05 -0.19656,-0.0905c-0.75505,-0.4897 -1.21161,-1.085 -1.46001,-1.7869c-0.23617,-0.66731 -0.26651,-1.38733 -0.26651,-2.0825c0,-0.41421 0.33579,-0.75 0.75,-0.75c0.41422,0 0.75,0.33579 0.75,0.75c0,0.68156 0.03695,1.17626 0.18058,1.58212c0.07804,0.22052 0.19289,0.42878 0.377,0.62878c0.08313,-0.315 0.20473,-0.60811 0.36461,-0.87823c0.33183,-0.56063 0.8042,-0.98112 1.35286,-1.28873c0.04868,-0.02729 0.09803,-0.05373 0.14803,-0.07936v-0.96447c0,-1.15031 0.70628,-2.13567 1.70885,-2.54607c-0.03798,-0.11336 -0.09086,-0.19803 -0.15063,-0.2705c-0.13708,-0.16621 -0.35315,-0.3209 -0.72228,-0.53402c-0.35872,-0.2071 -0.48163,-0.6658 -0.27452,-1.02452c0.20711,-0.35871 0.6658,-0.48162 1.02452,-0.27451c0.38236,0.22078 0.80706,0.48772 1.12946,0.87864c0.2408,0.29199 0.4059,0.62834 0.49,1.02098h1.3189c0.0841,-0.39264 0.2492,-0.72899 0.49,-1.02098c0.3224,-0.39092 0.7471,-0.65786 1.1295,-0.87864c0.3587,-0.20711 0.8174,-0.0842 1.0245,0.27451zM14.25,7.42085v-0.42094c0,-0.69035 -0.5596,-1.25 -1.25,-1.25h-2c-0.6904,0 -1.25,0.55965 -1.25,1.25v0.45479c0.7119,-0.14836 1.4789,-0.20502 2.25,-0.20502c0.7636,0 1.5329,0.04015 2.25,0.17117z" fill="#002B51"/>
</svg>
