<svg width="24" height="24" viewBox="0 0 24 24" fill="none" xmlns="http://www.w3.org/2000/svg">
<path fill-rule="evenodd" clip-rule="evenodd" d="M11,4.75c0,-0.5 0.25,-1 1,-1.5c0.75,0.5 1,1 1,1.5c0,0.75 -0.5,1 -1,1c-0.5,0 -1,-0.25 -1,-1zM19.25,13c0,-0.6904 -0.5596,-1.25 -1.25,-1.25h-12c-0.69036,0 -1.25,0.5596 -1.25,1.25v1.5499c0.9226,-0.4709 2.05035,-0.3876 2.90039,0.2499l1.59961,1.2002c0.44444,0.3333 1.0556,0.3333 1.5,0l1.5996,-1.2002l0.1875,-0.1289c0.957,-0.6017 2.1966,-0.5586 3.1133,0.1289l1.5996,1.2002l0.085,0.0586c0.435,0.2735 0.9983,0.2539 1.415,-0.0586l0.5,-0.3748zM19.25,20.25v-2.7999c-0.8563,0.4371 -1.8893,0.3968 -2.7129,-0.121l-0.1875,-0.1289l-1.5996,-1.2002c-0.4167,-0.3125 -0.98,-0.3321 -1.415,-0.0586l-0.085,0.0586l-1.5996,1.2002c-0.9778,0.7333 -2.32301,0.7333 -3.30079,0l-1.59961,-1.2002c-0.44444,-0.3333 -1.05556,-0.3333 -1.5,0l-0.5,0.3748v3.8752zM20.75,20.25h1c0.4142,0 0.75,0.3358 0.75,0.75c0,0.4142 -0.3358,0.75 -0.75,0.75h-19.5c-0.41421,0 -0.75,-0.3358 -0.75,-0.75c0,-0.4142 0.33579,-0.75 0.75,-0.75h1v-7.25c0,-1.5188 1.23122,-2.75 2.75,-2.75h1.25v-2.25c0,-0.41421 0.33579,-0.75 0.75,-0.75c0.41421,0 0.75,0.33579 0.75,0.75v2.25h2.5v-2.25c0,-0.41421 0.3358,-0.75 0.75,-0.75c0.4142,0 0.75,0.33579 0.75,0.75v2.25h2.5v-2.25c0,-0.41421 0.3358,-0.75 0.75,-0.75c0.4142,0 0.75,0.33579 0.75,0.75v2.25h1.25c1.5188,0 2.75,1.2312 2.75,2.75zM17,4.75c0,0.75 -0.5,1 -1,1c-0.5,0 -1,-0.25 -1,-1c0,-0.5 0.25,-1 1,-1.5c0.75,0.5 1,1 1,1.5zM7,4.75c0,-0.5 0.25,-1 1,-1.5c0.75,0.5 1,1 1,1.5c0,0.75 -0.5,1 -1,1c-0.5,0 -1,-0.25 -1,-1z" fill="#002B51"/>
</svg>
