<svg width="24" height="24" viewBox="0 0 24 24" fill="none" xmlns="http://www.w3.org/2000/svg">
<path fill-rule="evenodd" clip-rule="evenodd" d="M11,4.75c0,-0.5 0.25,-1 1,-1.5c0.75,0.5 1,1 1,1.5c0,0.75 -0.5,1 -1,1c-0.5,0 -1,-0.25 -1,-1zM8,7.25c0.41421,0 0.75,0.33579 0.75,0.75v2.25h2.5v-2.25c0,-0.41421 0.3358,-0.75 0.75,-0.75c0.4142,0 0.75,0.33579 0.75,0.75v2.25h2.5v-2.25c0,-0.41421 0.3358,-0.75 0.75,-0.75c0.4142,0 0.75,0.33579 0.75,0.75v2.25h1.75c1.2426,0 2.25,1.0074 2.25,2.25v3.4913v0.0163v4.2424h1c0.4142,0 0.75,0.3358 0.75,0.75c0,0.4142 -0.3358,0.75 -0.75,0.75h-1.75h-16h-1.75c-0.41421,0 -0.75,-0.3358 -0.75,-0.75c0,-0.4142 0.33579,-0.75 0.75,-0.75h1v-4.2413v-0.0163v-3.4924c0,-1.2426 1.00736,-2.25 2.25,-2.25h1.75v-2.25c0,-0.41421 0.33579,-0.75 0.75,-0.75zM18.5,11.75h-2.5h-4h-4h-2.5c-0.41421,0 -0.75,0.3358 -0.75,0.75v2.0503c0.92251,-0.4711 2.04985,-0.3879 2.9,0.2497l1.6,1.2c0.44444,0.3333 1.0556,0.3333 1.5,0l1.6,-1.2c0.9778,-0.7333 2.3222,-0.7333 3.3,0l1.6,1.2c0.4444,0.3333 1.0556,0.3333 1.5,0l0.5,-0.375v-3.125c0,-0.4142 -0.3358,-0.75 -0.75,-0.75zM19.25,20.25v-2.8003c-0.9225,0.4711 -2.0499,0.3879 -2.9,-0.2497l-1.6,-1.2c-0.4444,-0.3333 -1.0556,-0.3333 -1.5,0l-1.6,1.2c-0.9778,0.7333 -2.32222,0.7333 -3.3,0l-1.6,-1.2c-0.44444,-0.3333 -1.05556,-0.3333 -1.5,0l-0.5,0.375v3.875zM17,4.75c0,0.75 -0.5,1 -1,1c-0.5,0 -1,-0.25 -1,-1c0,-0.5 0.25,-1 1,-1.5c0.75,0.5 1,1 1,1.5zM7,4.75c0,-0.5 0.25,-1 1,-1.5c0.75,0.5 1,1 1,1.5c0,0.75 -0.5,1 -1,1c-0.5,0 -1,-0.25 -1,-1z" fill="#002B51"/>
</svg>
