<svg width="24" height="24" viewBox="0 0 24 24" fill="none" xmlns="http://www.w3.org/2000/svg">
<path d="M5.25,16c0.44444,-0.3333 1.05556,-0.3333 1.5,0l1.59961,1.2002c0.97778,0.7333 2.32299,0.7333 3.30079,0l1.5996,-1.2002l0.085,-0.0586c0.435,-0.2735 0.9983,-0.2539 1.415,0.0586l1.5996,1.2002l0.1875,0.1289c0.957,0.6017 2.1966,0.5586 3.1133,-0.1289l1.0996,-0.8252v3.875h1c0.4142,0 0.75,0.3358 0.75,0.75c0,0.4142 -0.3358,0.75 -0.75,0.75h-19.5c-0.41421,0 -0.75,-0.3358 -0.75,-0.75c0,-0.4142 0.33579,-0.75 0.75,-0.75h1v-2.751zM16,7.25c0.4142,0 0.75,0.33579 0.75,0.75v2.25h1.25c1.5188,0 2.75,1.2312 2.75,2.75v1.5l-2,1.5c-0.4167,0.3125 -0.98,0.3321 -1.415,0.0586l-0.085,-0.0586l-1.5996,-1.2002c-0.9167,-0.6875 -2.1563,-0.7306 -3.1133,-0.1289l-0.1875,0.1289l-1.5996,1.2002c-0.4444,0.3333 -1.05556,0.3333 -1.5,0l-1.59961,-1.2002c-0.97778,-0.7333 -2.323,-0.7333 -3.30078,0l-1.09961,0.8242v-2.624c0,-1.5188 1.23122,-2.75 2.75,-2.75h1.25v-2.25c0,-0.41421 0.33579,-0.75 0.75,-0.75c0.41421,0 0.75,0.33579 0.75,0.75v2.25h2.5v-2.25c0,-0.41421 0.3358,-0.75 0.75,-0.75c0.4142,0 0.75,0.33579 0.75,0.75v2.25h2.5v-2.25c0,-0.41421 0.3358,-0.75 0.75,-0.75zM8,3.25c0.75,0.5 1,1 1,1.5c0,0.75 -0.5,1 -1,1c-0.5,0 -1,-0.25 -1,-1c0,-0.5 0.25,-1 1,-1.5zM12,3.25c0.75,0.5 1,1 1,1.5c0,0.75 -0.5,1 -1,1c-0.5,0 -1,-0.25 -1,-1c0,-0.5 0.25,-1 1,-1.5zM16,3.25c0.75,0.5 1,1 1,1.5c0,0.75 -0.5,1 -1,1c-0.5,0 -1,-0.25 -1,-1c0,-0.5 0.25,-1 1,-1.5z" fill="#002B51"/>
</svg>
