<svg width="24" height="24" viewBox="0 0 24 24" fill="none" xmlns="http://www.w3.org/2000/svg">
<path fill-rule="evenodd" clip-rule="evenodd" d="M12 5.75C12.5 5.75 13 5.5 13 4.75C13 4.25 12.75 3.75 12 3.25C11.25 3.75 11 4.25 11 4.75C11 5.5 11.5 5.75 12 5.75ZM8.75 8C8.75 7.58579 8.41421 7.25 8 7.25C7.58579 7.25 7.25 7.58579 7.25 8V10.25H5.5C4.25736 10.25 3.25 11.2574 3.25 12.5V15.625L4.35 14.8C5.32778 14.0667 6.67222 14.0667 7.65 14.8L9.25 16C9.69444 16.3333 10.3056 16.3333 10.75 16L12.35 14.8C13.3278 14.0667 14.6722 14.0667 15.65 14.8L17.25 16C17.6944 16.3333 18.3056 16.3333 18.75 16L20.75 14.5V12.5C20.75 11.2574 19.7426 10.25 18.5 10.25H16.75V8C16.75 7.58579 16.4142 7.25 16 7.25C15.5858 7.25 15.25 7.58579 15.25 8V10.25H12.75V8C12.75 7.58579 12.4142 7.25 12 7.25C11.5858 7.25 11.25 7.58579 11.25 8V10.25H8.75V8ZM3.25 20.25V17.5L5.25 16C5.69444 15.6667 6.30556 15.6667 6.75 16L8.35 17.2C9.32778 17.9333 10.6722 17.9333 11.65 17.2L13.25 16C13.6944 15.6667 14.3056 15.6667 14.75 16L16.35 17.2C17.3278 17.9333 18.6722 17.9333 19.65 17.2L20.75 16.375V20.25H21.75C22.1642 20.25 22.5 20.5858 22.5 21C22.5 21.4142 22.1642 21.75 21.75 21.75H20H4H2.25C1.83579 21.75 1.5 21.4142 1.5 21C1.5 20.5858 1.83579 20.25 2.25 20.25H3.25ZM17 4.75C17 5.5 16.5 5.75 16 5.75C15.5 5.75 15 5.5 15 4.75C15 4.25 15.25 3.75 16 3.25C16.75 3.75 17 4.25 17 4.75ZM8 5.75C8.5 5.75 9 5.5 9 4.75C9 4.25 8.75 3.75 8 3.25C7.25 3.75 7 4.25 7 4.75C7 5.5 7.5 5.75 8 5.75Z" fill="#002B51"/>
</svg>
