<svg width="24" height="24" viewBox="0 0 24 24" fill="none" xmlns="http://www.w3.org/2000/svg">
<path fill-rule="evenodd" clip-rule="evenodd" d="M17.5,2.25c1.2426,0 2.25,1.00736 2.25,2.25v15c0,1.2426 -1.0074,2.25 -2.25,2.25h-11c-1.24264,0 -2.25,-1.0074 -2.25,-2.25v-15c0,-1.24264 1.00736,-2.25 2.25,-2.25zM8.5,7.5h7c0.4142,0 0.75,-0.33579 0.75,-0.75c0,-0.41421 -0.3358,-0.75 -0.75,-0.75h-7c-0.41421,0 -0.75,0.33579 -0.75,0.75c0,0.41421 0.33579,0.75 0.75,0.75zM14.75,13.75v3.5c0,0.4142 0.3358,0.75 0.75,0.75c0.4142,0 0.75,-0.3358 0.75,-0.75v-3.5c0,-0.4142 -0.3358,-0.75 -0.75,-0.75c-0.4142,0 -0.75,0.3358 -0.75,0.75zM8.5,11c0.41421,0 0.75,-0.3358 0.75,-0.75c0,-0.41421 -0.33579,-0.75 -0.75,-0.75c-0.41421,0 -0.75,0.33579 -0.75,0.75c0,0.4142 0.33579,0.75 0.75,0.75zM8.5,13c-0.41421,0 -0.75,0.3358 -0.75,0.75c0,0.4142 0.33579,0.75 0.75,0.75c0.41421,0 0.75,-0.3358 0.75,-0.75c0,-0.4142 -0.33579,-0.75 -0.75,-0.75zM8.5,18c0.41421,0 0.75,-0.3358 0.75,-0.75c0,-0.4142 -0.33579,-0.75 -0.75,-0.75c-0.41421,0 -0.75,0.3358 -0.75,0.75c0,0.4142 0.33579,0.75 0.75,0.75zM12,9.5c-0.4142,0 -0.75,0.33579 -0.75,0.75c0,0.4142 0.3358,0.75 0.75,0.75c0.4142,0 0.75,-0.3358 0.75,-0.75c0,-0.41421 -0.3358,-0.75 -0.75,-0.75zM12,14.5c0.4142,0 0.75,-0.3358 0.75,-0.75c0,-0.4142 -0.3358,-0.75 -0.75,-0.75c-0.4142,0 -0.75,0.3358 -0.75,0.75c0,0.4142 0.3358,0.75 0.75,0.75zM12,16.5c-0.4142,0 -0.75,0.3358 -0.75,0.75c0,0.4142 0.3358,0.75 0.75,0.75c0.4142,0 0.75,-0.3358 0.75,-0.75c0,-0.4142 -0.3358,-0.75 -0.75,-0.75zM15.5,11c0.4142,0 0.75,-0.3358 0.75,-0.75c0,-0.41421 -0.3358,-0.75 -0.75,-0.75c-0.4142,0 -0.75,0.33579 -0.75,0.75c0,0.4142 0.3358,0.75 0.75,0.75z" fill="#002B51"/>
</svg>
