<svg width="24" height="24" viewBox="0 0 24 24" fill="none" xmlns="http://www.w3.org/2000/svg">
<path d="M17,2.25c1.5188,0 2.75,1.23122 2.75,2.75v14c0,1.5188 -1.2312,2.75 -2.75,2.75h-10c-1.51878,0 -2.75,-1.2312 -2.75,-2.75v-14c0,-1.51878 1.23122,-2.75 2.75,-2.75zM8.5,16.5c-0.41421,0 -0.75,0.3358 -0.75,0.75c0,0.4142 0.33579,0.75 0.75,0.75c0.41421,0 0.75,-0.3358 0.75,-0.75c0,-0.4142 -0.33579,-0.75 -0.75,-0.75zM12,16.5c-0.4142,0 -0.75,0.3358 -0.75,0.75c0,0.4142 0.3358,0.75 0.75,0.75c0.4142,0 0.75,-0.3358 0.75,-0.75c0,-0.4142 -0.3358,-0.75 -0.75,-0.75zM15.5,13c-0.4142,0 -0.75,0.3358 -0.75,0.75v3.5c0,0.4142 0.3358,0.75 0.75,0.75c0.4142,0 0.75,-0.3358 0.75,-0.75v-3.5c0,-0.4142 -0.3358,-0.75 -0.75,-0.75zM8.5,13c-0.41421,0 -0.75,0.3358 -0.75,0.75c0,0.4142 0.33579,0.75 0.75,0.75c0.41421,0 0.75,-0.3358 0.75,-0.75c0,-0.4142 -0.33579,-0.75 -0.75,-0.75zM12,13c-0.4142,0 -0.75,0.3358 -0.75,0.75c0,0.4142 0.3358,0.75 0.75,0.75c0.4142,0 0.75,-0.3358 0.75,-0.75c0,-0.4142 -0.3358,-0.75 -0.75,-0.75zM8.5,9.5c-0.41421,0 -0.75,0.33579 -0.75,0.75c0,0.4142 0.33579,0.75 0.75,0.75c0.41421,0 0.75,-0.3358 0.75,-0.75c0,-0.41421 -0.33579,-0.75 -0.75,-0.75zM12,9.5c-0.4142,0 -0.75,0.33579 -0.75,0.75c0,0.4142 0.3358,0.75 0.75,0.75c0.4142,0 0.75,-0.3358 0.75,-0.75c0,-0.41421 -0.3358,-0.75 -0.75,-0.75zM15.5,9.5c-0.4142,0 -0.75,0.33579 -0.75,0.75c0,0.4142 0.3358,0.75 0.75,0.75c0.4142,0 0.75,-0.3358 0.75,-0.75c0,-0.41421 -0.3358,-0.75 -0.75,-0.75zM8.5,6c-0.41421,0 -0.75,0.33579 -0.75,0.75c0,0.41421 0.33579,0.75 0.75,0.75h7c0.4142,0 0.75,-0.33579 0.75,-0.75c0,-0.41421 -0.3358,-0.75 -0.75,-0.75z" fill="#002B51"/>
</svg>
