<svg width="24" height="24" viewBox="0 0 24 24" fill="none" xmlns="http://www.w3.org/2000/svg">
<path fill-rule="evenodd" clip-rule="evenodd" d="M6.5 2.25C5.25736 2.25 4.25 3.25736 4.25 4.5V19.5C4.25 20.7426 5.25736 21.75 6.5 21.75H17.5C18.7426 21.75 19.75 20.7426 19.75 19.5V4.5C19.75 3.25736 18.7426 2.25 17.5 2.25H6.5ZM5.75 4.5C5.75 4.08579 6.08579 3.75 6.5 3.75H17.5C17.9142 3.75 18.25 4.08579 18.25 4.5V19.5C18.25 19.9142 17.9142 20.25 17.5 20.25H6.5C6.08579 20.25 5.75 19.9142 5.75 19.5V4.5ZM8.5 6C8.08579 6 7.75 6.33579 7.75 6.75C7.75 7.16421 8.08579 7.5 8.5 7.5H15.5C15.9142 7.5 16.25 7.16421 16.25 6.75C16.25 6.33579 15.9142 6 15.5 6H8.5ZM15.5 13C15.9142 13 16.25 13.3358 16.25 13.75V17.25C16.25 17.6642 15.9142 18 15.5 18C15.0858 18 14.75 17.6642 14.75 17.25V13.75C14.75 13.3358 15.0858 13 15.5 13ZM8.5 11C8.91421 11 9.25 10.6642 9.25 10.25C9.25 9.83579 8.91421 9.5 8.5 9.5C8.08579 9.5 7.75 9.83579 7.75 10.25C7.75 10.6642 8.08579 11 8.5 11ZM9.25 13.75C9.25 14.1642 8.91421 14.5 8.5 14.5C8.08579 14.5 7.75 14.1642 7.75 13.75C7.75 13.3358 8.08579 13 8.5 13C8.91421 13 9.25 13.3358 9.25 13.75ZM8.5 18C8.91421 18 9.25 17.6642 9.25 17.25C9.25 16.8358 8.91421 16.5 8.5 16.5C8.08579 16.5 7.75 16.8358 7.75 17.25C7.75 17.6642 8.08579 18 8.5 18ZM12.75 10.25C12.75 10.6642 12.4142 11 12 11C11.5858 11 11.25 10.6642 11.25 10.25C11.25 9.83579 11.5858 9.5 12 9.5C12.4142 9.5 12.75 9.83579 12.75 10.25ZM12 14.5C12.4142 14.5 12.75 14.1642 12.75 13.75C12.75 13.3358 12.4142 13 12 13C11.5858 13 11.25 13.3358 11.25 13.75C11.25 14.1642 11.5858 14.5 12 14.5ZM12.75 17.25C12.75 17.6642 12.4142 18 12 18C11.5858 18 11.25 17.6642 11.25 17.25C11.25 16.8358 11.5858 16.5 12 16.5C12.4142 16.5 12.75 16.8358 12.75 17.25ZM15.5 11C15.9142 11 16.25 10.6642 16.25 10.25C16.25 9.83579 15.9142 9.5 15.5 9.5C15.0858 9.5 14.75 9.83579 14.75 10.25C14.75 10.6642 15.0858 11 15.5 11Z" fill="#002B51"/>
</svg>
