<svg width="24" height="24" viewBox="0 0 24 24" fill="none" xmlns="http://www.w3.org/2000/svg">
<path fill-rule="evenodd" clip-rule="evenodd" d="M7.25,4.5v-1.25c0,-0.41421 0.33579,-0.75 0.75,-0.75c0.41421,0 0.75,0.33579 0.75,0.75v1.25h6.5v-1.25c0,-0.41421 0.3358,-0.75 0.75,-0.75c0.4142,0 0.75,0.33579 0.75,0.75v1.25h1.25c1.5188,0 2.75,1.23122 2.75,2.75v4.75v0.8447c-0.4558,0.1171 -0.8895,0.343 -1.2598,0.6777l-0.1114,0.1065l-0.1288,0.1288v-1.7577h-14.5v7.25c0,0.6904 0.55964,1.25 1.25,1.25h7.0078l1.5,1.5h-8.5078c-1.51878,0 -2.75,-1.2312 -2.75,-2.75v-7.25v-4.75c0,-1.51878 1.23122,-2.75 2.75,-2.75zM22.0821,16.2238l-0.0517,0.0566l-4.5,4.5c-0.2746,0.2746 -0.7093,0.2921 -1.0039,0.0518l-0.0567,-0.0518l-2.5,-2.5l-0.0517,-0.0566c-0.2403,-0.2946 -0.2229,-0.7293 0.0517,-1.0039c0.2746,-0.2746 0.7094,-0.2921 1.0039,-0.0518l0.0567,0.0518l1.9697,1.9697l3.9697,-3.9697l0.0567,-0.0518c0.2946,-0.2403 0.7293,-0.2228 1.0039,0.0518c0.2746,0.2746 0.2921,0.7093 0.0517,1.0039z" fill="#002B51"/>
</svg>
