<svg width="24" height="24" viewBox="0 0 24 24" fill="none" xmlns="http://www.w3.org/2000/svg">
<path fill-rule="evenodd" clip-rule="evenodd" d="M7.25,4.5v-1.25c0,-0.41421 0.33579,-0.75 0.75,-0.75c0.41421,0 0.75,0.33579 0.75,0.75v1.25h6.5v-1.25c0,-0.41421 0.3358,-0.75 0.75,-0.75c0.4142,0 0.75,0.33579 0.75,0.75v1.25h1.25c1.5188,0 2.75,1.23122 2.75,2.75v4.75v0.5074l-0.6287,-0.6287c-1.1716,-1.1716 -3.0711,-1.1716 -4.2426,0c-0.0397,0.0396 -0.0779,0.0801 -0.1149,0.1213h-11.0138v7.25c0,0.6904 0.55964,1.25 1.25,1.25h6.3411c0.4751,0.3159 1.0455,0.5 1.6589,0.5h1.1708c-0.1139,0.3229 -0.1708,0.6615 -0.1708,1h-9c-1.51878,0 -2.75,-1.2312 -2.75,-2.75v-7.25v-4.75c0,-1.51878 1.23122,-2.75 2.75,-2.75zM10,14.5l0.0771,0.0039c0.378,0.0386 0.6729,0.3579 0.6729,0.7461v2l-0.0039,0.0771c-0.0386,0.378 -0.3579,0.6729 -0.7461,0.6729h-2c-0.41421,0 -0.75,-0.3358 -0.75,-0.75v-2l0.00391,-0.0771c0.03862,-0.378 0.35792,-0.6729 0.74609,-0.6729zM17.4697,22.5303c-0.2929,-0.2929 -0.2929,-0.7677 0,-1.0606l2.7197,-2.7197h-6.1894c-0.4142,0 -0.75,-0.3358 -0.75,-0.75c0,-0.4142 0.3358,-0.75 0.75,-0.75h6.1894l-2.7197,-2.7197c-0.2929,-0.2929 -0.2929,-0.7677 0,-1.0606c0.2929,-0.2929 0.7678,-0.2929 1.0606,0l4,4c0.2929,0.2929 0.2929,0.7677 0,1.0606l-4,4c-0.2928,0.2929 -0.7677,0.2929 -1.0606,0z" fill="#002B51"/>
</svg>
