<svg width="24" height="24" viewBox="0 0 24 24" fill="none" xmlns="http://www.w3.org/2000/svg">
<path d="M16,2.50002c0.4142,0 0.75,0.33578 0.75,0.75v1.25h1.25c1.5188,0 2.75,1.23121 2.75,2.75v5.59468c-0.4558,0.1172 -0.8894,0.3431 -1.2598,0.6778l-0.1113,0.1064l-0.1289,0.1289v-1.7578h-14.5v7.25c0,0.6904 0.55964,1.25 1.25,1.25h7.0078l1.5,1.5h-8.5078c-1.51878,0 -2.75,-1.2312 -2.75,-2.75v-11.99998c0,-1.51879 1.23122,-2.75 2.75,-2.75h1.25v-1.25c0,-0.41422 0.33579,-0.75 0.75,-0.75c0.41421,0 0.75,0.33578 0.75,0.75v1.25h6.5v-1.25c0,-0.41422 0.3358,-0.75 0.75,-0.75zM21.0264,15.168c0.2945,-0.2403 0.7293,-0.2228 1.0039,0.0517c0.2746,0.2746 0.292,0.7094 0.0517,1.0039l-0.0517,0.0567l-4.5,4.5c-0.2746,0.2746 -0.7094,0.2921 -1.0039,0.0517l-0.0567,-0.0517l-2.5,-2.5l-0.0517,-0.0567c-0.2402,-0.2945 -0.2228,-0.7293 0.0517,-1.0039c0.2746,-0.2745 0.7094,-0.2919 1.0039,-0.0517l0.0567,0.0517l1.9697,1.9698l3.9697,-3.9698zM6,6.00002c-0.69036,0 -1.25,0.55964 -1.25,1.25v3.24998h14.5v-3.24998c0,-0.69036 -0.5596,-1.25 -1.25,-1.25h-1.25v1.25c0,0.41421 -0.3358,0.75 -0.75,0.75c-0.4142,0 -0.75,-0.33579 -0.75,-0.75v-1.25h-6.5v1.25c0,0.41421 -0.33579,0.75 -0.75,0.75c-0.41421,0 -0.75,-0.33579 -0.75,-0.75v-1.25z" fill="#002B51"/>
</svg>
