<svg width="24" height="24" viewBox="0 0 24 24" fill="none" xmlns="http://www.w3.org/2000/svg">
<path fill-rule="evenodd" clip-rule="evenodd" d="M8.75,4.50002h6.5v-1.25c0,-0.41422 0.3358,-0.75 0.75,-0.75c0.4142,0 0.75,0.33578 0.75,0.75v1.25h1.25c1.5188,0 2.75,1.23121 2.75,2.75v3.23518c-0.4801,-0.1757 -0.9818,-0.3068 -1.5,-0.3881v-2.84708c0,-0.69036 -0.5596,-1.25 -1.25,-1.25h-1.25v1.25c0,0.41421 -0.3358,0.75 -0.75,0.75c-0.4142,0 -0.75,-0.33579 -0.75,-0.75v-1.25h-6.5v1.25c0,0.41421 -0.33579,0.75 -0.75,0.75c-0.41421,0 -0.75,-0.33579 -0.75,-0.75v-1.25h-1.25c-0.69036,0 -1.25,0.55964 -1.25,1.25v3.24998h10.4599c-0.9274,0.3451 -1.7734,0.8573 -2.5016,1.5h-7.9583v7.25c0,0.6904 0.55964,1.25 1.25,1.25h4.3984c0.1729,0.5262 0.399,1.0283 0.6718,1.5h-5.0702c-1.51878,0 -2.75,-1.2312 -2.75,-2.75v-11.99998c0,-1.51879 1.23122,-2.75 2.75,-2.75h1.25v-1.25c0,-0.41422 0.33579,-0.75 0.75,-0.75c0.41421,0 0.75,0.33578 0.75,0.75zM18,13.75c-2.3472,0 -4.25,1.9028 -4.25,4.25c0,2.3472 1.9028,4.25 4.25,4.25c2.3472,0 4.25,-1.9028 4.25,-4.25c0,-2.3472 -1.9028,-4.25 -4.25,-4.25zM12.25,18c0,-3.1756 2.5744,-5.75 5.75,-5.75c3.1756,0 5.75,2.5744 5.75,5.75c0,3.1756 -2.5744,5.75 -5.75,5.75c-3.1756,0 -5.75,-2.5744 -5.75,-5.75zM18,14.7501c0.4142,0 0.75,0.3358 0.75,0.75v2.0986l1.166,0.7773c0.3447,0.2298 0.4378,0.6954 0.208,1.0401c-0.2297,0.3446 -0.6954,0.4378 -1.04,0.208l-1.5,-1c-0.2087,-0.1391 -0.334,-0.3733 -0.334,-0.624v-2.5c0,-0.4142 0.3358,-0.75 0.75,-0.75z" fill="#002B51"/>
</svg>
