<svg width="24" height="24" viewBox="0 0 24 24" fill="none" xmlns="http://www.w3.org/2000/svg">
<path fill-rule="evenodd" clip-rule="evenodd" d="M8.74998,4.50002h6.50002v-1.25c0,-0.41422 0.3358,-0.75 0.75,-0.75c0.4142,0 0.75,0.33578 0.75,0.75v1.25h1.25c1.5188,0 2.75,1.23121 2.75,2.75v5.54898c-0.1458,-0.334 -0.3554,-0.647 -0.6287,-0.9203c-1.1716,-1.1716 -3.0711,-1.1716 -4.2426,0l-0.1214,0.1213h-11.00732v7.25c0,0.6904 0.55965,1.25 1.25,1.25h6.25732l1.5,1.5h-7.75732c-1.51878,0 -2.75,-1.2312 -2.75,-2.75v-11.99998c0,-1.51879 1.23122,-2.75 2.75,-2.75h1.25v-1.25c0,-0.41422 0.33579,-0.75 0.75,-0.75c0.41422,0 0.75,0.33578 0.75,0.75zM4.74998,7.25002v3.24998h14.50002v-3.24998c0,-0.69036 -0.5597,-1.25 -1.25,-1.25h-1.25v1.25c0,0.41421 -0.3358,0.75 -0.75,0.75c-0.4142,0 -0.75,-0.33579 -0.75,-0.75v-1.25h-6.50002v1.25c0,0.41421 -0.33578,0.75 -0.75,0.75c-0.41421,0 -0.75,-0.33579 -0.75,-0.75v-1.25h-1.25c-0.69035,0 -1.25,0.55964 -1.25,1.25zM7.24998,15.25c0,-0.4142 0.33579,-0.75 0.75,-0.75h2c0.41422,0 0.75002,0.3358 0.75002,0.75v2c0,0.4142 -0.3358,0.75 -0.75002,0.75h-2c-0.41421,0 -0.75,-0.3358 -0.75,-0.75zM17.4697,13.4697c0.2929,-0.2929 0.7677,-0.2929 1.0606,0c0.2929,0.2929 0.2929,0.7677 0,1.0606l-2.7196,2.7197h6.1893c0.4142,0 0.75,0.3358 0.75,0.75c0,0.4142 -0.3358,0.75 -0.75,0.75h-6.1893l2.7196,2.7197c0.2929,0.2929 0.2929,0.7677 0,1.0606c-0.2929,0.2929 -0.7677,0.2929 -1.0606,0l-4,-4c-0.2929,-0.2929 -0.2929,-0.7677 0,-1.0606z" fill="#002B51"/>
</svg>
