<svg width="24" height="24" viewBox="0 0 24 24" fill="none" xmlns="http://www.w3.org/2000/svg">
<path fill-rule="evenodd" clip-rule="evenodd" d="M8.75 3.25002C8.75 2.8358 8.41421 2.50002 8 2.50002C7.58579 2.50002 7.25 2.8358 7.25 3.25002V4.50002H6C4.48122 4.50002 3.25 5.73123 3.25 7.25002V19.25C3.25 20.7688 4.48122 22 6 22H14.5074L13.0074 20.5H6C5.30964 20.5 4.75 19.9404 4.75 19.25V12H19.25V13.7574L19.3787 13.6287C19.7721 13.2353 20.2476 12.974 20.75 12.8448V7.25002C20.75 5.73123 19.5188 4.50002 18 4.50002H16.75V3.25002C16.75 2.8358 16.4142 2.50002 16 2.50002C15.5858 2.50002 15.25 2.8358 15.25 3.25002V4.50002H8.75V3.25002ZM6 6.00002H7.25V7.25002C7.25 7.66423 7.58579 8.00002 8 8.00002C8.41421 8.00002 8.75 7.66423 8.75 7.25002V6.00002H15.25V7.25002C15.25 7.66423 15.5858 8.00002 16 8.00002C16.4142 8.00002 16.75 7.66423 16.75 7.25002V6.00002H18C18.6904 6.00002 19.25 6.55966 19.25 7.25002V10.5H4.75V7.25002C4.75 6.55966 5.30964 6.00002 6 6.00002ZM22.0303 16.2803C22.3232 15.9875 22.3232 15.5126 22.0303 15.2197C21.7374 14.9268 21.2626 14.9268 20.9697 15.2197L17 19.1894L15.0303 17.2197C14.7374 16.9268 14.2626 16.9268 13.9697 17.2197C13.6768 17.5126 13.6768 17.9875 13.9697 18.2803L16.4697 20.7803C16.7626 21.0732 17.2374 21.0732 17.5303 20.7803L22.0303 16.2803Z" fill="#002B51"/>
</svg>
