<svg width="24" height="24" viewBox="0 0 24 24" fill="none" xmlns="http://www.w3.org/2000/svg">
<path fill-rule="evenodd" clip-rule="evenodd" d="M8,2.50002c0.41421,0 0.75,0.33578 0.75,0.75v1.25h6.5v-1.25c0,-0.41422 0.3358,-0.75 0.75,-0.75c0.4142,0 0.75,0.33578 0.75,0.75v1.25h1.25c1.5188,0 2.75,1.23121 2.75,2.75v5.55158c-0.1454,-0.3348 -0.3549,-0.6484 -0.6289,-0.9225c-1.1351,-1.135 -2.9533,-1.1707 -4.1309,-0.1064l-0.1113,0.1064l-0.1209,0.1209h-11.008v7.25c0,0.6904 0.55964,1.25 1.25,1.25h6.2575l1.5,1.5h-7.7575c-1.51878,0 -2.75,-1.2312 -2.75,-2.75v-11.99998c0,-1.51879 1.23122,-2.75 2.75,-2.75h1.25v-1.25c0,-0.41422 0.33579,-0.75 0.75,-0.75zM4.75,7.25002v3.24998h14.5v-3.24998c0,-0.69036 -0.5596,-1.25 -1.25,-1.25h-1.25v1.25c0,0.41421 -0.3358,0.75 -0.75,0.75c-0.4142,0 -0.75,-0.33579 -0.75,-0.75v-1.25h-6.5v1.25c0,0.41421 -0.33579,0.75 -0.75,0.75c-0.41421,0 -0.75,-0.33579 -0.75,-0.75v-1.25h-1.25c-0.69036,0 -1.25,0.55964 -1.25,1.25zM10,14.5l0.0771,0.0039c0.378,0.0386 0.6729,0.3579 0.6729,0.7461v2l-0.0039,0.0772c-0.0386,0.3779 -0.3579,0.6728 -0.7461,0.6728h-2c-0.41421,0 -0.75,-0.3358 -0.75,-0.75v-2l0.00391,-0.0771c0.03862,-0.378 0.35792,-0.6729 0.74609,-0.6729zM18.5304,21.4698c0.2929,0.2929 0.2929,0.7677 0,1.0606c-0.2929,0.2929 -0.7676,0.2929 -1.0605,0l-4,-4l-0.0518,-0.0567c-0.2403,-0.2945 -0.2228,-0.7293 0.0518,-1.0039l4,-4l0.0566,-0.0517c0.2946,-0.2403 0.7293,-0.2229 1.0039,0.0517c0.2746,0.2746 0.2921,0.7094 0.0518,1.0039l-0.0518,0.0567l-2.7197,2.7197h6.1894c0.4143,0 0.75,0.3358 0.75,0.75c0,0.4142 -0.3357,0.75 -0.75,0.75h-6.1894z" fill="#002B51"/>
</svg>
