<svg width="24" height="24" viewBox="0 0 24 24" fill="none" xmlns="http://www.w3.org/2000/svg">
<path fill-rule="evenodd" clip-rule="evenodd" d="M8,2.5c0.41421,0 0.75,0.33579 0.75,0.75v1.25h6.5v-1.25c0,-0.41421 0.3358,-0.75 0.75,-0.75c0.4142,0 0.75,0.33579 0.75,0.75v1.25h1.25c1.5188,0 2.75,1.23122 2.75,2.75v5.2576l-0.6289,-0.6289c-1.1716,-1.1716 -3.0706,-1.1716 -4.2422,0c-0.0396,0.0396 -0.0779,0.0801 -0.1148,0.1213h-11.0141v7.25c0,0.6904 0.55964,1.25 1.25,1.25h6.3414c0.4751,0.3158 1.0454,0.4998 1.6586,0.4998h1.1748c-0.1141,0.3231 -0.1715,0.6617 -0.172,1.0002h-9.0028c-1.51878,0 -2.75,-1.2312 -2.75,-2.75v-12c0,-1.51878 1.23122,-2.75 2.75,-2.75h1.25v-1.25c0,-0.41421 0.33579,-0.75 0.75,-0.75zM4.75,7.25v3.25h14.5v-3.25c0,-0.69036 -0.5596,-1.25 -1.25,-1.25h-1.25v1.25c0,0.41421 -0.3358,0.75 -0.75,0.75c-0.4142,0 -0.75,-0.33579 -0.75,-0.75v-1.25h-6.5v1.25c0,0.41421 -0.33579,0.75 -0.75,0.75c-0.41421,0 -0.75,-0.33579 -0.75,-0.75v-1.25h-1.25c-0.69036,0 -1.25,0.55964 -1.25,1.25zM10,14.5l0.0771,0.0039c0.378,0.0386 0.6729,0.3579 0.6729,0.7461v2l-0.0039,0.0771c-0.0386,0.378 -0.3579,0.6729 -0.7461,0.6729h-2c-0.41421,0 -0.75,-0.3358 -0.75,-0.75v-2l0.00391,-0.0771c0.03862,-0.378 0.35792,-0.6729 0.74609,-0.6729zM17.4697,14.5302c-0.2929,-0.2929 -0.2929,-0.7676 0,-1.0605c0.2929,-0.2929 0.7677,-0.2929 1.0606,0l4,4l0.0517,0.0566c0.2404,0.2946 0.2229,0.7293 -0.0517,1.0039l-4,4l-0.0567,0.0518c-0.2945,0.2403 -0.7293,0.2228 -1.0039,-0.0518c-0.2746,-0.2746 -0.292,-0.7093 -0.0517,-1.0039l0.0517,-0.0566l2.7198,-2.7198h-6.1895c-0.4142,0 -0.75,-0.3358 -0.75,-0.75c0,-0.4142 0.3358,-0.75 0.75,-0.75h6.1895z" fill="#002B51"/>
</svg>
