<svg width="24" height="24" viewBox="0 0 24 24" fill="none" xmlns="http://www.w3.org/2000/svg">
<path fill-rule="evenodd" clip-rule="evenodd" d="M7.25,4.5v-1.25c0,-0.41421 0.33579,-0.75 0.75,-0.75c0.41421,0 0.75,0.33579 0.75,0.75v1.25h6.5v-1.25c0,-0.41421 0.3358,-0.75 0.75,-0.75c0.4142,0 0.75,0.33579 0.75,0.75v1.25h1.25c1.5188,0 2.75,1.23122 2.75,2.75v4.75v7.25c0,1.5188 -1.2312,2.75 -2.75,2.75h-12c-1.51878,0 -2.75,-1.2312 -2.75,-2.75v-7.25v-4.75c0,-1.51878 1.23122,-2.75 2.75,-2.75zM19.25,12h-14.5v7.25c0,0.6904 0.55964,1.25 1.25,1.25h12c0.6904,0 1.25,-0.5596 1.25,-1.25zM10,14.5l0.0771,0.0039c0.378,0.0386 0.6729,0.3579 0.6729,0.7461v2l-0.0039,0.0771c-0.0386,0.378 -0.3579,0.6729 -0.7461,0.6729h-2c-0.41421,0 -0.75,-0.3358 -0.75,-0.75v-2l0.00391,-0.0771c0.03862,-0.378 0.35792,-0.6729 0.74609,-0.6729z" fill="#002B51"/>
</svg>
