<svg width="24" height="24" viewBox="0 0 24 24" fill="none" xmlns="http://www.w3.org/2000/svg">
<path d="M17.4697,13.4697c0.2929,-0.2928 0.7677,-0.2929 1.0606,0l4,4l0.0517,0.0567c0.2402,0.2945 0.2228,0.7293 -0.0517,1.0039l-4,4l-0.0567,0.0517c-0.2945,0.2403 -0.7293,0.2227 -1.0039,-0.0517c-0.2746,-0.2746 -0.292,-0.7094 -0.0517,-1.0039l0.0517,-0.0567l2.7198,-2.7197h-6.1895c-0.4142,0 -0.7499,-0.3359 -0.75,-0.75c0,-0.4142 0.3358,-0.75 0.75,-0.75h6.1895l-2.7198,-2.7197c-0.2928,-0.2929 -0.2928,-0.7677 0,-1.0606zM16,2.5c0.4142,0 0.75,0.33579 0.75,0.75v1.25h1.25c1.5188,0 2.75,1.23122 2.75,2.75v5.2578l-0.6289,-0.6289c-1.1716,-1.1716 -3.0706,-1.1716 -4.2422,0c-0.0393,0.0394 -0.0766,0.0802 -0.1133,0.1211h-11.0156v7.25c0,0.6904 0.55964,1.25 1.25,1.25h6.3428c0.4749,0.3154 1.0444,0.5 1.6572,0.5h1.1748c-0.114,0.323 -0.1704,0.6615 -0.1709,1h-9.0039c-1.51878,0 -2.75,-1.2312 -2.75,-2.75v-12c0,-1.51878 1.23122,-2.75 2.75,-2.75h1.25v-1.25c0,-0.41421 0.33579,-0.75 0.75,-0.75c0.41421,0 0.75,0.33579 0.75,0.75v1.25h6.5v-1.25c0,-0.41421 0.3358,-0.75 0.75,-0.75zM10.0771,14.5039c0.378,0.0386 0.6729,0.3579 0.6729,0.7461v2l-0.0039,0.0771c-0.0386,0.378 -0.3579,0.6729 -0.7461,0.6729h-2c-0.41421,0 -0.75,-0.3358 -0.75,-0.75v-2l0.00391,-0.0771c0.03862,-0.378 0.35792,-0.6729 0.74609,-0.6729h2zM6,6c-0.69036,0 -1.25,0.55964 -1.25,1.25v3.25h14.5v-3.25c0,-0.69036 -0.5596,-1.25 -1.25,-1.25h-1.25v1.25c0,0.41421 -0.3358,0.75 -0.75,0.75c-0.4142,0 -0.75,-0.33579 -0.75,-0.75v-1.25h-6.5v1.25c0,0.41421 -0.33579,0.75 -0.75,0.75c-0.41421,0 -0.75,-0.33579 -0.75,-0.75v-1.25z" fill="#002B51"/>
</svg>
