<svg width="24" height="24" viewBox="0 0 24 24" fill="none" xmlns="http://www.w3.org/2000/svg">
<path fill-rule="evenodd" clip-rule="evenodd" d="M8,2.5c0.41421,0 0.75,0.33579 0.75,0.75v1.25h6.5v-1.25c0,-0.41421 0.3358,-0.75 0.75,-0.75c0.4142,0 0.75,0.33579 0.75,0.75v1.25h1.25c1.5188,0 2.75,1.23122 2.75,2.75v4v0.75v0.8448c-0.5024,0.1292 -0.9779,0.3905 -1.3713,0.7839l-0.1287,0.1287v-1.7574h-14.5v7.25c0,0.6904 0.55964,1.25 1.25,1.25h7.0073l1.5,1.5h-8.5073c-1.51878,0 -2.75,-1.2312 -2.75,-2.75v-7.25v-0.75v-4c0,-1.51878 1.23122,-2.75 2.75,-2.75h1.25v-1.25c0,-0.41421 0.33579,-0.75 0.75,-0.75zM17.5303,20.7803c-0.2929,0.2929 -0.7677,0.2929 -1.0606,0l-2.5,-2.5c-0.2929,-0.2929 -0.2929,-0.7677 0,-1.0606c0.2929,-0.2929 0.7677,-0.2929 1.0606,0l1.9697,1.9697l3.9697,-3.9697c0.2929,-0.2929 0.7677,-0.2929 1.0606,0c0.2929,0.2929 0.2929,0.7677 0,1.0606z" fill="#002B51"/>
</svg>
