<svg width="24" height="24" viewBox="0 0 24 24" fill="none" xmlns="http://www.w3.org/2000/svg">
<path d="M18,12.25c3.1756,0 5.75,2.5744 5.75,5.75c0,3.1756 -2.5744,5.75 -5.75,5.75c-3.1756,0 -5.75,-2.5744 -5.75,-5.75c0,-3.1756 2.5744,-5.75 5.75,-5.75zM18,13.75c-2.3472,0 -4.25,1.9028 -4.25,4.25c0,2.3472 1.9028,4.25 4.25,4.25c2.3472,0 4.25,-1.9028 4.25,-4.25c0,-2.3472 -1.9028,-4.25 -4.25,-4.25zM16,2.5c0.4142,0 0.75,0.33579 0.75,0.75v1.25h1.25c1.5188,0 2.75,1.23122 2.75,2.75v3.2344c-0.8574,-0.3139 -1.7839,-0.4844 -2.75,-0.4844c-2.0282,0 -3.879,0.756 -5.2891,2h-7.9609v7.25c0,0.6904 0.55964,1.25 1.25,1.25h4.4004c0.1731,0.5265 0.3998,1.0281 0.6728,1.5h-5.0732c-1.51878,0 -2.75,-1.2312 -2.75,-2.75v-12c0,-1.51878 1.23122,-2.75 2.75,-2.75h1.25v-1.25c0,-0.41421 0.33579,-0.75 0.75,-0.75c0.41421,0 0.75,0.33579 0.75,0.75v1.25h6.5v-1.25c0,-0.41421 0.3358,-0.75 0.75,-0.75zM18,14.75c0.4142,0 0.75,0.3358 0.75,0.75v2.0986l1.166,0.7774l0.0615,0.0459c0.2934,0.2417 0.3619,0.671 0.1465,0.9941c-0.2153,0.323 -0.6377,0.4247 -0.9736,0.2471l-0.0664,-0.0391l-1.5,-1c-0.2086,-0.1391 -0.334,-0.3732 -0.334,-0.624v-2.5c0,-0.4142 0.3358,-0.75 0.75,-0.75z" fill="#002B51"/>
</svg>
