<svg width="24" height="24" viewBox="0 0 24 24" fill="none" xmlns="http://www.w3.org/2000/svg">
<path fill-rule="evenodd" clip-rule="evenodd" d="M8,2.50002c0.41421,0 0.75,0.33578 0.75,0.75v1.25h6.5v-1.25c0,-0.41422 0.3358,-0.75 0.75,-0.75c0.4142,0 0.75,0.33578 0.75,0.75v1.25h1.25c1.5188,0 2.75,1.23121 2.75,2.75v3.99998v0.75v0.799c-0.1458,-0.334 -0.3554,-0.647 -0.6287,-0.9203c-1.1716,-1.1716 -3.071,-1.1716 -4.2426,0l-0.1213,0.1213h-11.0074v7.25c0,0.6904 0.55964,1.25 1.25,1.25h6.2574l1.5,1.5h-7.7574c-1.51878,0 -2.75,-1.2312 -2.75,-2.75v-7.25v-0.75v-3.99998c0,-1.51879 1.23122,-2.75 2.75,-2.75h1.25v-1.25c0,-0.41422 0.33579,-0.75 0.75,-0.75zM7.25,15.25c0,-0.4142 0.33579,-0.75 0.75,-0.75h2c0.4142,0 0.75,0.3358 0.75,0.75v2c0,0.4142 -0.3358,0.75 -0.75,0.75h-2c-0.41421,0 -0.75,-0.3358 -0.75,-0.75zM17.4697,13.4697c0.2929,-0.2929 0.7678,-0.2929 1.0607,0c0.2928,0.2929 0.2928,0.7677 0,1.0606l-2.7197,2.7197h6.1893c0.4142,0 0.75,0.3358 0.75,0.75c0,0.4142 -0.3358,0.75 -0.75,0.75h-6.1893l2.7197,2.7197c0.2928,0.2929 0.2928,0.7677 0,1.0606c-0.2929,0.2929 -0.7678,0.2929 -1.0607,0l-4,-4c-0.2929,-0.2929 -0.2929,-0.7677 0,-1.0606z" fill="#002B51"/>
</svg>
