<svg width="24" height="24" viewBox="0 0 24 24" fill="none" xmlns="http://www.w3.org/2000/svg">
<path d="M17.4697,13.4697c0.2929,-0.2928 0.7677,-0.2928 1.0606,0c0.2929,0.2929 0.2929,0.7677 0,1.0606l-2.7198,2.7197h6.1895c0.4142,0 0.75,0.3358 0.75,0.75c0,0.4142 -0.3358,0.75 -0.75,0.75h-6.1895l2.7198,2.7197c0.2929,0.2929 0.2929,0.7677 0,1.0606c-0.2929,0.2929 -0.7677,0.2929 -1.0606,0l-4,-4l-0.0517,-0.0567c-0.2403,-0.2945 -0.2229,-0.7293 0.0517,-1.0039zM16,2.50002c0.4142,0 0.75,0.33578 0.75,0.75v1.25h1.25c1.5188,0 2.75,1.23121 2.75,2.75v5.55178c-0.1453,-0.3352 -0.3547,-0.6497 -0.6289,-0.9239c-1.1714,-1.1708 -3.0707,-1.1708 -4.2422,0l-0.1221,0.1221h-11.0068v7.25c0,0.6904 0.55964,1.25 1.25,1.25h6.2588l1.5,1.5h-7.7588c-1.51878,0 -2.75,-1.2312 -2.75,-2.75v-11.99998c0,-1.51879 1.23122,-2.75 2.75,-2.75h1.25v-1.25c0,-0.41422 0.33579,-0.75 0.75,-0.75c0.41421,0 0.75,0.33578 0.75,0.75v1.25h6.5v-1.25c0,-0.41422 0.3358,-0.75 0.75,-0.75zM10.0771,14.5039c0.378,0.0386 0.6729,0.3579 0.6729,0.7461v2l-0.0039,0.0772c-0.0386,0.3779 -0.3579,0.6728 -0.7461,0.6728h-2c-0.41421,0 -0.75,-0.3358 -0.75,-0.75v-2c0,-0.4142 0.33579,-0.75 0.75,-0.75h2z" fill="#002B51"/>
</svg>
