<svg width="24" height="24" viewBox="0 0 24 24" fill="none" xmlns="http://www.w3.org/2000/svg">
<path fill-rule="evenodd" clip-rule="evenodd" d="M8.75 3.25C8.75 2.83579 8.41421 2.5 8 2.5C7.58579 2.5 7.25 2.83579 7.25 3.25V4.5H6C4.48122 4.5 3.25 5.73122 3.25 7.25V19.25C3.25 20.7688 4.48122 22 6 22H18C19.5188 22 20.75 20.7688 20.75 19.25V7.25C20.75 5.73122 19.5188 4.5 18 4.5H16.75V3.25C16.75 2.83579 16.4142 2.5 16 2.5C15.5858 2.5 15.25 2.83579 15.25 3.25V4.5H8.75V3.25ZM6 6H7.25V7.25C7.25 7.66421 7.58579 8 8 8C8.41421 8 8.75 7.66421 8.75 7.25V6H15.25V7.25C15.25 7.66421 15.5858 8 16 8C16.4142 8 16.75 7.66421 16.75 7.25V6H18C18.6904 6 19.25 6.55964 19.25 7.25V10.5H4.75V7.25C4.75 6.55964 5.30964 6 6 6ZM4.75 12V19.25C4.75 19.9404 5.30964 20.5 6 20.5H18C18.6904 20.5 19.25 19.9404 19.25 19.25V12H4.75ZM7.25 15.25C7.25 14.8358 7.58579 14.5 8 14.5H10C10.4142 14.5 10.75 14.8358 10.75 15.25V17.25C10.75 17.6642 10.4142 18 10 18H8C7.58579 18 7.25 17.6642 7.25 17.25V15.25Z" fill="#002B51"/>
</svg>
