<svg width="24" height="24" viewBox="0 0 24 24" fill="none" xmlns="http://www.w3.org/2000/svg">
<path fill-rule="evenodd" clip-rule="evenodd" d="M8,2.5c0.41421,0 0.75,0.33579 0.75,0.75v1.25h6.5v-1.25c0,-0.41421 0.3358,-0.75 0.75,-0.75c0.4142,0 0.75,0.33579 0.75,0.75v1.25h1.25c1.5188,0 2.75,1.23122 2.75,2.75v3.2352c-0.8575,-0.3139 -1.7838,-0.4852 -2.75,-0.4852c-2.0289,0 -3.8814,0.7553 -5.2917,2h-7.9583v7.25c0,0.6904 0.55964,1.25 1.25,1.25h4.3984c0.1729,0.5262 0.399,1.0283 0.6718,1.5h-5.0702c-1.51878,0 -2.75,-1.2312 -2.75,-2.75v-7.25v-0.75v-4c0,-1.51878 1.23122,-2.75 2.75,-2.75h1.25v-1.25c0,-0.41421 0.33579,-0.75 0.75,-0.75zM18,13.75c-2.3472,0 -4.25,1.9028 -4.25,4.25c0,2.3472 1.9028,4.25 4.25,4.25c2.3472,0 4.25,-1.9028 4.25,-4.25c0,-2.3472 -1.9028,-4.25 -4.25,-4.25zM12.25,18c0,-3.1756 2.5744,-5.75 5.75,-5.75c3.1756,0 5.75,2.5744 5.75,5.75c0,3.1756 -2.5744,5.75 -5.75,5.75c-3.1756,0 -5.75,-2.5744 -5.75,-5.75zM18,14.7501c0.4142,0 0.75,0.3357 0.75,0.75v2.0986l1.166,0.7773c0.3447,0.2298 0.4378,0.6954 0.208,1.0401c-0.2297,0.3446 -0.6954,0.4378 -1.04,0.208l-1.5,-1c-0.2087,-0.1391 -0.334,-0.3733 -0.334,-0.624v-2.5c0,-0.4143 0.3358,-0.75 0.75,-0.75z" fill="#002B51"/>
</svg>
