<svg width="24" height="24" viewBox="0 0 24 24" fill="none" xmlns="http://www.w3.org/2000/svg">
<path fill-rule="evenodd" clip-rule="evenodd" d="M8.74998 3.25002C8.74998 2.8358 8.4142 2.50002 7.99998 2.50002C7.58577 2.50002 7.24998 2.8358 7.24998 3.25002V4.50002H5.99998C4.4812 4.50002 3.24998 5.73123 3.24998 7.25002V19.25C3.24998 20.7688 4.4812 22 5.99998 22H13.7573L12.2573 20.5H5.99998C5.30963 20.5 4.74998 19.9404 4.74998 19.25V12H15.7573L15.8787 11.8787C17.0502 10.7071 18.9497 10.7071 20.1213 11.8787C20.3946 12.152 20.6042 12.465 20.75 12.799V7.25002C20.75 5.73123 19.5188 4.50002 18 4.50002H16.75V3.25002C16.75 2.8358 16.4142 2.50002 16 2.50002C15.5858 2.50002 15.25 2.8358 15.25 3.25002V4.50002H8.74998V3.25002ZM5.99998 6.00002H7.24998V7.25002C7.24998 7.66423 7.58577 8.00002 7.99998 8.00002C8.4142 8.00002 8.74998 7.66423 8.74998 7.25002V6.00002H15.25V7.25002C15.25 7.66423 15.5858 8.00002 16 8.00002C16.4142 8.00002 16.75 7.66423 16.75 7.25002V6.00002H18C18.6903 6.00002 19.25 6.55966 19.25 7.25002V10.5H4.74998V7.25002C4.74998 6.55966 5.30963 6.00002 5.99998 6.00002ZM7.24998 15.25C7.24998 14.8358 7.58577 14.5 7.99998 14.5H9.99998C10.4142 14.5 10.75 14.8358 10.75 15.25V17.25C10.75 17.6642 10.4142 18 9.99998 18H7.99998C7.58577 18 7.24998 17.6642 7.24998 17.25V15.25ZM13.4697 17.4697C13.1768 17.7626 13.1768 18.2374 13.4697 18.5303L17.4697 22.5303C17.7626 22.8232 18.2374 22.8232 18.5303 22.5303C18.8232 22.2374 18.8232 21.7626 18.5303 21.4697L15.8107 18.75H22C22.4142 18.75 22.75 18.4142 22.75 18C22.75 17.5858 22.4142 17.25 22 17.25H15.8107L18.5303 14.5303C18.8232 14.2374 18.8232 13.7626 18.5303 13.4697C18.2374 13.1768 17.7626 13.1768 17.4697 13.4697L13.4697 17.4697Z" fill="#002B51"/>
</svg>
