<svg width="24" height="24" viewBox="0 0 24 24" fill="none" xmlns="http://www.w3.org/2000/svg">
<path fill-rule="evenodd" clip-rule="evenodd" d="M8.75 3.25C8.75 2.83579 8.41421 2.5 8 2.5C7.58579 2.5 7.25 2.83579 7.25 3.25V4.5H6C4.48122 4.5 3.25 5.73122 3.25 7.25V19.25C3.25 20.7688 4.48122 22 6 22H15C15 21.6615 15.0569 21.3229 15.1708 21H14C13.3866 21 12.8162 20.8159 12.3411 20.5H6C5.30964 20.5 4.75 19.9404 4.75 19.25V12H15.7638C15.8008 11.9588 15.839 11.9183 15.8787 11.8787C17.0502 10.7071 18.9497 10.7071 20.1213 11.8787L20.75 12.5074V7.25C20.75 5.73122 19.5188 4.5 18 4.5H16.75V3.25C16.75 2.83579 16.4142 2.5 16 2.5C15.5858 2.5 15.25 2.83579 15.25 3.25V4.5H8.75V3.25ZM6 6H7.25V7.25C7.25 7.66421 7.58579 8 8 8C8.41421 8 8.75 7.66421 8.75 7.25V6H15.25V7.25C15.25 7.66421 15.5858 8 16 8C16.4142 8 16.75 7.66421 16.75 7.25V6H18C18.6904 6 19.25 6.55964 19.25 7.25V10.5H4.75V7.25C4.75 6.55964 5.30964 6 6 6ZM7.25 15.25C7.25 14.8358 7.58579 14.5 8 14.5H10C10.4142 14.5 10.75 14.8358 10.75 15.25V17.25C10.75 17.6642 10.4142 18 10 18H8C7.58579 18 7.25 17.6642 7.25 17.25V15.25ZM18.5303 22.5303L22.5303 18.5303C22.8232 18.2374 22.8232 17.7626 22.5303 17.4697L18.5303 13.4697C18.2375 13.1768 17.7626 13.1768 17.4697 13.4697C17.1768 13.7626 17.1768 14.2374 17.4697 14.5303L20.1894 17.25H14C13.5858 17.25 13.25 17.5858 13.25 18C13.25 18.4142 13.5858 18.75 14 18.75H20.1894L17.4697 21.4697C17.1768 21.7626 17.1768 22.2374 17.4697 22.5303C17.7626 22.8232 18.2375 22.8232 18.5303 22.5303Z" fill="#002B51"/>
</svg>
