<svg width="24" height="24" viewBox="0 0 24 24" fill="none" xmlns="http://www.w3.org/2000/svg">
<path fill-rule="evenodd" clip-rule="evenodd" d="M8.1709,6.97069c-0.32456,0.48685 -0.87097,0.77928 -1.45608,0.77928h-1.71482c-0.69036,0 -1.25,0.55964 -1.25,1.25v9.00003c0,0.6903 0.55964,1.25 1.25,1.25h14c0.6904,0 1.25,-0.5597 1.25,-1.25v-9.00003c0,-0.69036 -0.5596,-1.25 -1.25,-1.25h-1.7148c-0.5851,0 -1.1315,-0.29243 -1.4561,-0.77928l-1.4063,-2.1094c-0.0463,-0.06955 -0.1244,-0.11132 -0.208,-0.11132h-4.42962c-0.08358,0 -0.16164,0.04177 -0.20801,0.11132zM14.2148,3.24997c0.5851,0 1.1315,0.29243 1.4561,0.77927l1.4063,2.1094c0.0463,0.06955 0.1244,0.11133 0.208,0.11133h1.7148c1.5188,0 2.75,1.23122 2.75,2.75v9.00003c0,1.5188 -1.2312,2.75 -2.75,2.75h-14c-1.51878,0 -2.75,-1.2312 -2.75,-2.75v-9.00003c0,-1.51878 1.23122,-2.75 2.75,-2.75h1.71482c0.08358,0 0.16164,-0.04178 0.20801,-0.11133l1.40627,-2.1094c0.32456,-0.48684 0.87097,-0.77927 1.45608,-0.77927zM12,15.25c1.2426,0 2.25,-1.0074 2.25,-2.25c0,-1.2427 -1.0074,-2.25 -2.25,-2.25c-1.2426,0 -2.25,1.0073 -2.25,2.25c0,1.2426 1.0074,2.25 2.25,2.25zM15.75,13c0,2.071 -1.6789,3.75 -3.75,3.75c-2.07107,0 -3.75,-1.679 -3.75,-3.75c0,-2.0711 1.67893,-3.75003 3.75,-3.75003c2.0711,0 3.75,1.67893 3.75,3.75003z" fill="#002B51"/>
</svg>
