<svg width="24" height="24" viewBox="0 0 24 24" fill="none" xmlns="http://www.w3.org/2000/svg">
<path fill-rule="evenodd" clip-rule="evenodd" d="M14.2148,3.24997c0.5851,0 1.1315,0.29243 1.4561,0.77927l1.4063,2.1094c0.0463,0.06955 0.1244,0.11133 0.208,0.11133h1.7148c1.5188,0 2.75,1.23122 2.75,2.75v9.00003c0,1.5188 -1.2312,2.75 -2.75,2.75h-14c-1.51878,0 -2.75,-1.2312 -2.75,-2.75v-9.00003c0,-1.51878 1.23122,-2.75 2.75,-2.75h1.71482c0.08358,0 0.16164,-0.04178 0.20801,-0.11133l1.40627,-2.1094c0.32456,-0.48684 0.87097,-0.77927 1.45608,-0.77927zM9,13c0,1.6568 1.3431,3 3,3c1.6569,0 3,-1.3432 3,-3c0,-1.6569 -1.3431,-3.00003 -3,-3.00003c-1.6569,0 -3,1.34313 -3,3.00003z" fill="#002B51"/>
</svg>
