<svg width="24" height="24" viewBox="0 0 24 24" fill="none" xmlns="http://www.w3.org/2000/svg">
<path fill-rule="evenodd" clip-rule="evenodd" d="M17.2852,7.74997c-0.5121,-0.00001 -0.9942,-0.22421 -1.3243,-0.60645l-0.1318,-0.17285l-1.4062,-2.10937c-0.0464,-0.06954 -0.1245,-0.11132 -0.2081,-0.11133h-4.42964c-0.06273,0.00001 -0.12253,0.02332 -0.16797,0.06445l-0.04004,0.04688l-1.40625,2.10937c-0.32456,0.48684 -0.87095,0.77929 -1.45606,0.7793h-1.71484c-0.69036,0 -1.25,0.55964 -1.25,1.25v9.00003c0,0.6903 0.55964,1.25 1.25,1.25h14c0.6904,0 1.25,-0.5597 1.25,-1.25v-9.00003c0,-0.69036 -0.5596,-1.25 -1.25,-1.25zM5,20.75c-1.51878,0 -2.75,-1.2312 -2.75,-2.75v-9.00003c0,-1.51878 1.23122,-2.75 2.75,-2.75h1.71484c0.08358,-0.00001 0.16165,-0.04179 0.20801,-0.11133l1.40625,-2.10937l0.13184,-0.17286c0.33001,-0.38224 0.81216,-0.60643 1.32422,-0.60644h4.42964c0.5852,0.00001 1.1315,0.29246 1.4561,0.7793l1.4062,2.10937l0.0401,0.04688c0.0454,0.04113 0.1052,0.06444 0.168,0.06445h1.7148c1.5188,0 2.75,1.23122 2.75,2.75v9.00003c0,1.5188 -1.2312,2.75 -2.75,2.75zM9.75,13c0,1.2426 1.0074,2.25 2.25,2.25c1.2426,0 2.25,-1.0074 2.25,-2.25c0,-1.2427 -1.0074,-2.25 -2.25,-2.25c-1.2426,0 -2.25,1.0073 -2.25,2.25zM8.25,13c0,-2.0711 1.67893,-3.75003 3.75,-3.75003c2.0711,0 3.75,1.67893 3.75,3.75003c0,2.071 -1.6789,3.75 -3.75,3.75c-2.07107,0 -3.75,-1.679 -3.75,-3.75z" fill="#002B51"/>
</svg>
