<svg width="24" height="24" viewBox="0 0 24 24" fill="none" xmlns="http://www.w3.org/2000/svg">
<path fill-rule="evenodd" clip-rule="evenodd" d="M9.78518 3.24997C9.20007 3.24997 8.65366 3.5424 8.3291 4.02924L6.92283 6.13864C6.87646 6.20819 6.7984 6.24997 6.71482 6.24997H5C3.48122 6.24997 2.25 7.48119 2.25 8.99997V18C2.25 19.5188 3.48122 20.75 5 20.75H19C20.5188 20.75 21.75 19.5188 21.75 18V8.99997C21.75 7.48119 20.5188 6.24997 19 6.24997H17.2852C17.2016 6.24997 17.1235 6.20819 17.0772 6.13864L15.6709 4.02924C15.3463 3.5424 14.7999 3.24997 14.2148 3.24997H9.78518ZM12 9.99997C13.6569 9.99997 15 11.3431 15 13C15 14.6568 13.6569 16 12 16C10.3431 16 9 14.6568 9 13C9 11.3431 10.3431 9.99997 12 9.99997Z" fill="#002B51"/>
</svg>
