<svg width="24" height="24" viewBox="0 0 24 24" fill="none" xmlns="http://www.w3.org/2000/svg">
<path d="M14.2148,3.24997c0.5852,0.00001 1.1315,0.29246 1.4561,0.7793l1.4062,2.10937l0.0401,0.04688c0.0454,0.04113 0.1052,0.06444 0.168,0.06445h1.7148c1.5188,0 2.75,1.23122 2.75,2.75v9.00003c0,1.5188 -1.2312,2.75 -2.75,2.75h-14c-1.51878,0 -2.75,-1.2312 -2.75,-2.75v-9.00003c0,-1.51878 1.23122,-2.75 2.75,-2.75h1.71484c0.08358,-0.00001 0.16165,-0.04179 0.20801,-0.11133l1.40625,-2.10937l0.13184,-0.17286c0.33001,-0.38224 0.81216,-0.60643 1.32422,-0.60644zM12,9.99997c-1.6569,0 -3,1.34313 -3,3.00003c0,1.6568 1.3431,3 3,3c1.6569,0 3,-1.3432 3,-3c0,-1.6569 -1.3431,-3.00003 -3,-3.00003z" fill="#002B51"/>
</svg>
