<svg width="24" height="24" viewBox="0 0 24 24" fill="none" xmlns="http://www.w3.org/2000/svg">
<path fill-rule="evenodd" clip-rule="evenodd" d="M9.57717 4.86129C9.62354 4.79174 9.7016 4.74997 9.78518 4.74997H14.2148C14.2984 4.74997 14.3765 4.79174 14.4228 4.86129L15.8291 6.97069C16.1537 7.45754 16.7001 7.74997 17.2852 7.74997H19C19.6904 7.74997 20.25 8.30961 20.25 8.99997V18C20.25 18.6903 19.6904 19.25 19 19.25H5C4.30964 19.25 3.75 18.6903 3.75 18V8.99997C3.75 8.30961 4.30964 7.74997 5 7.74997H6.71482C7.29993 7.74997 7.84634 7.45754 8.1709 6.97069L9.57717 4.86129ZM9.78518 3.24997C9.20007 3.24997 8.65366 3.5424 8.3291 4.02924L6.92283 6.13864C6.87646 6.20819 6.7984 6.24997 6.71482 6.24997H5C3.48122 6.24997 2.25 7.48119 2.25 8.99997V18C2.25 19.5188 3.48122 20.75 5 20.75H19C20.5188 20.75 21.75 19.5188 21.75 18V8.99997C21.75 7.48119 20.5188 6.24997 19 6.24997H17.2852C17.2016 6.24997 17.1235 6.20819 17.0772 6.13864L15.6709 4.02924C15.3463 3.5424 14.7999 3.24997 14.2148 3.24997H9.78518ZM9.75 13C9.75 11.7573 10.7574 10.75 12 10.75C13.2426 10.75 14.25 11.7573 14.25 13C14.25 14.2426 13.2426 15.25 12 15.25C10.7574 15.25 9.75 14.2426 9.75 13ZM12 9.24997C9.92893 9.24997 8.25 10.9289 8.25 13C8.25 15.071 9.92893 16.75 12 16.75C14.0711 16.75 15.75 15.071 15.75 13C15.75 10.9289 14.0711 9.24997 12 9.24997Z" fill="#002B51"/>
</svg>
