<svg width="24" height="24" viewBox="0 0 24 24" fill="none" xmlns="http://www.w3.org/2000/svg">
<path fill-rule="evenodd" clip-rule="evenodd" d="M19.4014,11.25h0.5986c1.5188,0 2.75,1.2312 2.75,2.75v1.5c0,1.2602 -0.8477,2.3224 -2.0039,2.6476c-0.0767,1.4501 -1.2768,2.6024 -2.7461,2.6024c-1.4345,0 -2.6125,-1.0984 -2.7388,-2.5h-6.52241c-0.12631,1.4016 -1.30428,2.5 -2.73879,2.5c-1.46927,0 -2.66942,-1.1523 -2.7461,-2.6024c-1.15625,-0.3252 -2.0039,-1.3874 -2.0039,-2.6476v-1.5c0,-1.3269 0.93973,-2.4343 2.18996,-2.6929l1.50633,-4.51901c0.30632,-0.9186 1.16642,-1.53805 2.13476,-1.53809h7.11625c0.7522,0.00001 1.4547,0.37602 1.872,1.00195zM17.5986,11.25l-2.7773,-4.16602c-0.1391,-0.20863 -0.3733,-0.33397 -0.624,-0.33398h-3.4473v4.5zM9.25,11.25v-4.5h-2.16895c-0.32278,0.00004 -0.60983,0.20647 -0.71191,0.5127l-1.32812,3.9873zM4,12.75c-0.69036,0 -1.25,0.5596 -1.25,1.25v1.5c0,0.5456 0.34952,1.0095 0.83686,1.1801c0.46715,-0.8523 1.37267,-1.4301 2.41314,-1.4301c1.06867,0 1.99497,0.6096 2.45015,1.5h7.09975c0.4551,-0.8904 1.3814,-1.5 2.4501,-1.5c1.0405,0 1.946,0.5778 2.4131,1.4301c0.4874,-0.1706 0.8369,-0.6345 0.8369,-1.1801v-1.5c0,-0.6904 -0.5596,-1.25 -1.25,-1.25h-1zM4.75,18c0,0.6904 0.55964,1.25 1.25,1.25c0.69036,0 1.25,-0.5596 1.25,-1.25c0,-0.6904 -0.55964,-1.25 -1.25,-1.25c-0.69036,0 -1.25,0.5596 -1.25,1.25zM16.75,18c0,0.6904 0.5596,1.25 1.25,1.25c0.6904,0 1.25,-0.5596 1.25,-1.25c0,-0.6904 -0.5596,-1.25 -1.25,-1.25c-0.6904,0 -1.25,0.5596 -1.25,1.25z" fill="#002B51"/>
</svg>
