<svg width="24" height="24" viewBox="0 0 24 24" fill="none" xmlns="http://www.w3.org/2000/svg">
<path fill-rule="evenodd" clip-rule="evenodd" d="M5.04057,11.25h4.20943v-4.5h-2.16886c-0.32282,0 -0.60943,0.20657 -0.71151,0.51283zM3.44044,11.307l1.50616,-4.51851c0.30626,-0.91877 1.16607,-1.53849 2.13454,-1.53849h2.91886h4.1972c0.7523,0 1.4548,0.37598 1.8721,1.00192l3.3321,4.99808h0.5986c1.5188,0 2.75,1.2312 2.75,2.75v1.5c0,1.2602 -0.8477,2.3224 -2.0039,2.6476c-0.0767,1.4501 -1.2768,2.6024 -2.7461,2.6024c-1.4345,0 -2.6125,-1.0984 -2.7388,-2.5h-6.52241c-0.12631,1.4016 -1.30428,2.5 -2.73879,2.5c-1.46927,0 -2.66942,-1.1523 -2.7461,-2.6024c-1.15625,-0.3252 -2.0039,-1.3874 -2.0039,-2.6476v-1.5c0,-1.327 0.93997,-2.4346 2.19044,-2.693zM4,12.75c-0.69036,0 -1.25,0.5596 -1.25,1.25v1.5c0,0.5456 0.34952,1.0095 0.83686,1.1801c0.46715,-0.8523 1.37267,-1.4301 2.41314,-1.4301c1.06867,0 1.99497,0.6096 2.45015,1.5h7.09975c0.4551,-0.8904 1.3814,-1.5 2.4501,-1.5c1.0405,0 1.946,0.5778 2.4131,1.4301c0.4874,-0.1706 0.8369,-0.6345 0.8369,-1.1801v-1.5c0,-0.6904 -0.5596,-1.25 -1.25,-1.25h-1h-9zM17.5986,11.25l-2.7773,-4.16603c-0.1391,-0.20864 -0.3733,-0.33397 -0.6241,-0.33397h-3.4472v4.5zM6,19.25c0.69036,0 1.25,-0.5596 1.25,-1.25c0,-0.6904 -0.55964,-1.25 -1.25,-1.25c-0.69036,0 -1.25,0.5596 -1.25,1.25c0,0.6904 0.55964,1.25 1.25,1.25zM18,19.25c0.6904,0 1.25,-0.5596 1.25,-1.25c0,-0.6904 -0.5596,-1.25 -1.25,-1.25c-0.6904,0 -1.25,0.5596 -1.25,1.25c0,0.6904 0.5596,1.25 1.25,1.25z" fill="#002B51"/>
</svg>
