<svg width="24" height="24" viewBox="0 0 24 24" fill="none" xmlns="http://www.w3.org/2000/svg">
<path d="M14.1973,5.25c0.7522,0.00001 1.4547,0.37602 1.872,1.00195l3.3321,4.99805h0.5986c1.5188,0 2.75,1.2312 2.75,2.75v1.5c0,1.2612 -0.8501,2.3203 -2.0078,2.6445c-0.0753,1.4515 -1.272,2.6055 -2.7422,2.6055c-1.4345,0 -2.6109,-1.0984 -2.7373,-2.5h-6.5254c-0.12636,1.4016 -1.30283,2.5 -2.7373,2.5c-1.47025,0 -2.66792,-1.1539 -2.74316,-2.6055c-1.15724,-0.3245 -2.00684,-1.3836 -2.00684,-2.6445v-1.5c0,-1.3267 0.93943,-2.4345 2.18945,-2.6934l1.50684,-4.51851c0.30632,-0.9186 1.16642,-1.53805 2.13476,-1.53809zM6,16.75c-0.69036,0 -1.25,0.5596 -1.25,1.25c0,0.6904 0.55964,1.25 1.25,1.25c0.69036,0 1.25,-0.5596 1.25,-1.25c0,-0.6904 -0.55964,-1.25 -1.25,-1.25zM18,16.75c-0.6904,0 -1.25,0.5596 -1.25,1.25c0,0.6904 0.5596,1.25 1.25,1.25c0.6904,0 1.25,-0.5596 1.25,-1.25c0,-0.6904 -0.5596,-1.25 -1.25,-1.25zM7.08105,6.75c-0.32278,0.00004 -0.60983,0.20647 -0.71191,0.5127l-1.32812,3.9873h4.20898v-4.5zM10.75,11.25h6.8486l-2.7773,-4.16602c-0.1391,-0.20863 -0.3733,-0.33397 -0.624,-0.33398h-3.4473z" fill="#002B51"/>
</svg>
