<svg width="24" height="24" viewBox="0 0 24 24" fill="none" xmlns="http://www.w3.org/2000/svg">
<path d="M19,4.25c1.5188,0 2.75,1.23122 2.75,2.75v10c0,1.5188 -1.2312,2.75 -2.75,2.75h-14c-1.51878,0 -2.75,-1.2312 -2.75,-2.75v-10c0,-1.51878 1.23122,-2.75 2.75,-2.75zM8,12.75c-1.51878,0 -2.74999,1.2312 -2.75,2.75v0.5c0,0.4142 0.33579,0.75 0.75,0.75c0.41421,0 0.75,-0.3358 0.75,-0.75v-0.5c0.00001,-0.6904 0.55965,-1.25 1.25,-1.25h2c0.6903,0 1.25,0.5597 1.25,1.25v0.5c0,0.4142 0.3358,0.75 0.75,0.75c0.4142,0 0.75,-0.3358 0.75,-0.75v-0.5c0,-1.5188 -1.2312,-2.75 -2.75,-2.75zM14.5,11.25c-0.4142,0 -0.75,0.3358 -0.75,0.75c0,0.4142 0.3358,0.75 0.75,0.75h2c0.4142,0 0.75,-0.3358 0.75,-0.75c0,-0.4142 -0.3358,-0.75 -0.75,-0.75zM9.03027,7.25c-1.44969,0 -2.62499,1.1753 -2.625,2.625c0.00005,1.4497 1.17533,2.625 2.625,2.625c1.44963,-0.0001 2.62493,-1.1754 2.62503,-2.625c0,-1.44963 -1.1754,-2.62489 -2.62503,-2.625zM9.03027,8.75c0.62118,0.00011 1.12503,0.5038 1.12503,1.125c-0.0001,0.6212 -0.50387,1.1249 -1.12503,1.125c-0.62124,0 -1.12495,-0.5038 -1.125,-1.125c0.00001,-0.62127 0.50373,-1.125 1.125,-1.125zM14.5,8.25c-0.4142,0 -0.75,0.33579 -0.75,0.75c0,0.41421 0.3358,0.75 0.75,0.75h4c0.4142,0 0.75,-0.33579 0.75,-0.75c0,-0.41421 -0.3358,-0.75 -0.75,-0.75z" fill="#002B51"/>
</svg>
