<svg width="24" height="24" viewBox="0 0 24 24" fill="none" xmlns="http://www.w3.org/2000/svg">
<path d="M14.3271,2.75391c0.378,0.03862 0.6729,0.35792 0.6729,0.74609v16.25h0.75v-12l0.0039,-0.07715c0.0386,-0.37797 0.3579,-0.67285 0.7461,-0.67285h4l0.0771,0.00391c0.378,0.03862 0.6729,0.35792 0.6729,0.74609v12h1c0.4142,0 0.75,0.3358 0.75,0.75c0,0.4142 -0.3358,0.75 -0.75,0.75h-20c-0.41421,0 -0.75,-0.3358 -0.75,-0.75c0,-0.4142 0.33579,-0.75 0.75,-0.75h1v-7.75l0.00391,-0.0771c0.03862,-0.378 0.35792,-0.6729 0.74609,-0.6729h4l0.07715,0.0039c0.37797,0.0386 0.67285,0.3579 0.67285,0.7461v7.75h0.75v-16.25l0.00391,-0.07715c0.03862,-0.37797 0.35792,-0.67285 0.74609,-0.67285h4z" fill="#002B51"/>
</svg>
