<svg width="24" height="24" viewBox="0 0 24 24" fill="none" xmlns="http://www.w3.org/2000/svg">
<path fill-rule="evenodd" clip-rule="evenodd" d="M4.25,5c0,-1.51878 1.23122,-2.75 2.75,-2.75h6.1716c0.0262,0 0.0523,0.00037 0.0784,0.00112v4.74888c0,0.9665 0.7835,1.75 1.75,1.75h4.7489c0.0007,0.0261 0.0011,0.05224 0.0011,0.07843v1.26637c-0.9938,-0.25559 -2.0932,0.0057 -2.8713,0.7839l-2.1213,2.1213h-6.7574c-0.41421,0 -0.75,0.3358 -0.75,0.75c0,0.4142 0.33579,0.75 0.75,0.75h5.2574l-3.37872,3.3787c-0.09255,0.0925 -0.17842,0.1905 -0.25731,0.2931c-0.33272,-0.1012 -0.70821,-0.1684 -1.12094,-0.1684c-0.08249,0 -0.16433,0.0024 -0.24535,0.0071c-0.31896,-0.4299 -0.77181,-0.8698 -1.41289,-1.1904c-0.94106,-0.4705 -1.85701,-0.461 -2.59219,-0.2861zM15,7.25c-0.1381,0 -0.25,-0.11193 -0.25,-0.25v-4.25192c0.1299,0.09103 0.2525,0.19371 0.3661,0.30738l3.8284,3.82842c0.1137,0.11367 0.2164,0.23625 0.3074,0.36612zM8,11.5h4c0.4142,0 0.75,-0.3358 0.75,-0.75c0,-0.4142 -0.3358,-0.75 -0.75,-0.75h-4c-0.41421,0 -0.75,0.3358 -0.75,0.75c0,0.4142 0.33579,0.75 0.75,0.75zM18.4697,12.4697c0.2929,-0.2929 0.7677,-0.2929 1.0606,0l2,2c0.2929,0.2929 0.2929,0.7677 0,1.0606l-0.9696,0.9697l0.9696,0.9697c0.2929,0.2929 0.2929,0.7677 0,1.0606l-2.5,2.5c-0.2929,0.2929 -0.7677,0.2929 -1.0606,0c-0.2929,-0.2929 -0.2929,-0.7677 0,-1.0606l1.9696,-1.9697l-0.4393,-0.4393l-4.9697,4.9696c-0.1406,0.1407 -0.3314,0.2197 -0.5303,0.2197h-2c-0.4142,0 -0.75,-0.3358 -0.75,-0.75v-2c0,-0.1989 0.079,-0.3897 0.2197,-0.5303zM19,14.0607l-6.25,6.25v0.9393h0.9393l5.2796,-5.2795l0.0008,-0.0008l0.0008,-0.0008l0.9688,-0.9689zM3.00049,22.7534c-0.41422,0 -0.75,-0.3358 -0.75,-0.75c0,-0.4122 0.14634,-0.8435 0.32591,-1.2116c0.18647,-0.3823 0.44355,-0.7674 0.73851,-1.0992c0.29027,-0.3266 0.64954,-0.6379 1.05281,-0.8284c0.40773,-0.1925 0.94322,-0.2941 1.46819,-0.0316c0.46613,0.233 0.71972,0.6266 0.86729,0.9639c0.12396,0.2834 0.20019,0.5952 0.25376,0.8143l0.01685,0.0686c0.42543,-0.2051 0.96232,-0.426 1.52662,-0.426c0.49471,0 0.90691,0.2427 1.20001,0.4625c0.2932,0.2199 0.57516,0.5019 0.81166,0.7384l0.0187,0.0187c0.2929,0.2929 0.2929,0.7678 0,1.0607c-0.2929,0.2929 -0.76775,0.2929 -1.06064,0c-0.25979,-0.2598 -0.47065,-0.4685 -0.66968,-0.6178c-0.0956,-0.0717 -0.16997,-0.1151 -0.22565,-0.1395c-0.05398,-0.0236 -0.07599,-0.023 -0.0744,-0.023c-0.28848,0 -0.6214,0.1493 -1.16455,0.4208c-0.19286,0.0964 -0.43961,0.1797 -0.71542,0.1541c-0.30422,-0.0283 -0.53938,-0.1787 -0.70005,-0.3623c-0.1435,-0.164 -0.22486,-0.3498 -0.2748,-0.4865c-0.05194,-0.1421 -0.09126,-0.2932 -0.12277,-0.4192l-0.02429,-0.0977c-0.05767,-0.2327 -0.10128,-0.4087 -0.1696,-0.5649c-0.07053,-0.1612 -0.12901,-0.2058 -0.163,-0.2231c-0.00177,-0.0001 -0.00559,-0.0003 -0.01191,0.0001c-0.02161,0.0014 -0.06958,0.0099 -0.14582,0.0459c-0.15923,0.0752 -0.36246,0.2326 -0.57218,0.4685c-0.20504,0.2307 -0.38545,0.5019 -0.51148,0.7603c-0.13292,0.2725 -0.17407,0.4661 -0.17407,0.554c0,0.4142 -0.33579,0.75 -0.75,0.75zM6.64306,20.8426l-0.00318,0.0011c-0.00002,0.0001 0.00103,-0.0002 0.00318,-0.0011z" fill="#002B51"/>
</svg>
