<svg width="24" height="24" viewBox="0 0 24 24" fill="none" xmlns="http://www.w3.org/2000/svg">
<path d="M12,2.25c5.3848,0 9.75,4.36522 9.75,9.75c0,5.3848 -4.3652,9.75 -9.75,9.75c-5.38478,0 -9.75,-4.3652 -9.75,-9.75c0,-5.38478 4.36522,-9.75 9.75,-9.75zM12.75,12c0,0.4142 -0.3358,0.75 -0.75,0.75h-8.21387c0.37903,4.2048 3.91041,7.5 8.21387,7.5c4.5563,0 8.25,-3.6937 8.25,-8.25c0,-4.30349 -3.2952,-7.83586 -7.5,-8.21484zM11.25,3.78516c-3.95772,0.35671 -7.10711,3.50714 -7.46387,7.46484h7.46387z" fill="#002B51"/>
</svg>
