<svg width="24" height="24" viewBox="0 0 24 24" fill="none" xmlns="http://www.w3.org/2000/svg">
<path d="M3.5,1.25c0.41421,0 0.75,0.33579 0.75,0.75v1h12c0.3882,0 0.7075,0.29488 0.7461,0.67285l0.0039,0.07715v4.75h3.5c0.3882,0 0.7075,0.29488 0.7461,0.67285l0.0039,0.07715v5.5c0,0.3882 -0.2949,0.7075 -0.6729,0.7461l-0.0771,0.0039h-7.75v4.75c0,0.3882 -0.2949,0.7075 -0.6729,0.7461l-0.0771,0.0039h-7.75v1c0,0.4142 -0.33579,0.75 -0.75,0.75c-0.41421,0 -0.75,-0.3358 -0.75,-0.75v-20c0,-0.41421 0.33579,-0.75 0.75,-0.75zM4.25,15.5v4h7v-4zM4.25,10v4h15.5v-4zM4.25,4.5v4h11.25v-4z" fill="#002B51"/>
</svg>
