<svg width="24" height="24" viewBox="0 0 24 24" fill="none" xmlns="http://www.w3.org/2000/svg">
<path fill-rule="evenodd" clip-rule="evenodd" d="M11.25,3.78363c-3.95785,0.35666 -7.10971,3.50852 -7.46637,7.46637h7.46637zM3.78363,12.75c0.37892,4.2049 3.91284,7.5 8.21637,7.5c4.5563,0 8.25,-3.6937 8.25,-8.25c0,-4.30353 -3.2951,-7.83745 -7.5,-8.21637v8.21637c0,0.4142 -0.3358,0.75 -0.75,0.75zM21.75,12c0,5.3848 -4.3652,9.75 -9.75,9.75c-5.38478,0 -9.75,-4.3652 -9.75,-9.75c0,-5.38478 4.36522,-9.75 9.75,-9.75c5.3848,0 9.75,4.36522 9.75,9.75z" fill="#002B51"/>
</svg>
