<svg width="24" height="24" viewBox="0 0 24 24" fill="none" xmlns="http://www.w3.org/2000/svg">
<path fill-rule="evenodd" clip-rule="evenodd" d="M15.7312,2.99216c1.1829,0.48998 2.2577,1.20816 3.1631,2.11353c0.9054,0.90537 1.6235,1.98021 2.1135,3.16313c0.49,1.18293 0.7422,2.45078 0.7422,3.73118c0,1.2804 -0.2522,2.5482 -0.7422,3.7311c-0.49,1.183 -1.2081,2.2578 -2.1135,3.1632c-0.9054,0.9053 -1.9802,1.6235 -3.1631,2.1135c-1.183,0.49 -2.4508,0.7422 -3.7312,0.7422c-1.2804,0 -2.54824,-0.2522 -3.73116,-0.7422c-1.18293,-0.49 -2.25776,-1.2082 -3.16313,-2.1135c-0.90537,-0.9054 -1.62355,-1.9802 -2.11354,-3.1632c-0.48998,-1.1829 -0.74217,-2.4507 -0.74217,-3.7311c0,-1.2804 0.25219,-2.54825 0.74217,-3.73118c0.48999,-1.18292 1.20817,-2.25775 2.11354,-3.16313c0.90537,-0.90537 1.9802,-1.62355 3.16313,-2.11353c1.18292,-0.48998 2.45076,-0.74218 3.73116,-0.74218c1.2804,0 2.5482,0.2522 3.7312,0.74218zM9.08541,9.82916l-0.00014,-0.00007l-0.0001,-0.00004l-0.00002,-0.00002c-0.37043,-0.18504 -0.82077,-0.03485 -1.00597,0.33557c-0.18524,0.3705 -0.03507,0.821 0.33541,1.0062l0.33541,-0.6708c-0.33541,0.6708 -0.33532,0.6708 -0.33522,0.6709l0.00023,0.0001l0.0006,0.0003l0.00176,0.0009l0.00568,0.0028l0.01982,0.0098c0.01688,0.0082 0.04101,0.02 0.07171,0.0347c0.06138,0.0293 0.14922,0.0707 0.25807,0.12c0.21716,0.0983 0.52073,0.2296 0.8666,0.3614c0.45685,0.174 1.03915,0.3695 1.61075,0.4738v0v0.0048v0.0048v0.0047v0.0048v0.0047v0.0048v0.0047v0.0047v0.0048v0.0047v0.0047v0.0047v0.0047v0.0047v0.0047v0.0047v0.0047v0.0047v0.0047v0.0047v0.0047v0.0046v0.0047v0.0047v0.0046v0.0047v0.0047v0.0046v0.0046v0.0047v0.0046v0.0047v0.0046v0.0046v0.0047v0.0046v0.0046v0.0046v0.0046v0.0046v0.0046v0.0046v0.0046v0.0046v0.0046v0.0046v0.0046v0.0046v0.0045v0.0046v0.0046v0.0046v0.0045v0.0046v0.0046v0.0045v0.0046v0.0045v0.0046v0.0045v0.0046v0.0045v0.0046v0.0045v0.0045v0.0046v0.0045v0.0045v0.0046v0.0045v0.0045v0.0045v0.0045v0.0046v0.0045v0.0045v0.0045v0.0045v0.0045v0.0045v0.0045v0.0045v0.0045v0.0045v0.0045v0.0045v0.0045v0.0045v0.0045v0.0045v0.0045v0.0045v0.0044v0.0045v0.0045v0.0045v0.0045v0.0045v0.0044v0.0045v0.0045v0.0045v0.0044v0.0045v0.0045v0.0045v0.0044v0.0045v0.0045v0.0044v0.0045v0.0045v0.0044v0.0045v0.0045v0.0044v0.0045v0.0045v0.0044v0.0045v0.0045v0.0044v0.0045v0.0045v0.0044v0.0045v0.0044v0.0045v0.0045v0.0044v0.0045v0.0045v0.0044v0.0045v0.0045v0.0044v0.0045v0.0045v0.0044v0.0045v0.0045v0.0044v0.0045v0.0045v0.0044v0.0045v0.0045v0.0045v0.0044v0.0045v0.0045v0.0045v0.0044v0.0045v0.0045v0.0045v0.0045v0.0044v0.0045v0.0045v0.0045v0.0045v0.0045v0.0045v0.0045v0.0045v0.0044v0.0045v0.0045v0.0045v0.0045v0.0045v0.0046v0.0045v0.0045v0.0045v0.0045v0.0045v0.0045v0.0045v0.0046v0.0045v0.0045v0.0045v0.0046v0.0045v0.0045v0.0046v0.0045v0.0046v0.0045v0.0045v0.0046v0.0045v0.0046v0.0046v0.0045v0.0046v0.0045v0.0046v0.0046v0.0045v0.0046v0.0046v0.0046v0.0046v0.0046v0.0046v0.0045v0.0046v0.0046v0.0046v0.0047v0.0046v0.0046v0.0046v0.0046v0.0046v0.0047v0.0046v0.0046v0.0047v0.0046v0.0047v0.0046v0.0047v0.0046v0.0047v0.0047v0.0046v0.0047v0.0047v0.0047v0.0046v0.0047v0.0047v0.0047v0.0047v0.0047v0.0047v0.0048v0.0047v0.0047v0.0047v0.0048v0.0047v0.0047v0.0048v0.0047v0.0048v0.0048v0.0047v0.0048v0.0048v0.0048v0.0047v0.0048v0.0048v0.0048v0.0048v0.0048v0.0049v0.0048v0.0048v0.0048v0.0049v0.0048v0.0049v0.0048v0.0049v0.0048v0.0049v0.0049v0.0049v0.0049v0.0048v0.0049v0.0049v0.005v0.0049v0.0049v0.0049v0.005v0.0049v0.0049v0.005v0.005v0.0049v0.005v0.005v0.0049v0.005v0.005v0.005v0.005v0.0051v0.005v0.005v0.005v0.0051v0.005v0.0051v0.005v0.0051v0.0051v0.0051v0.0051v0.0051v0.0051v0.0051v0.0051v0.0051v0.0051v0.0052v0.0051v0.0052v0.0051v0.0052v0.0052v0.0052v0.0051v0.0052v0.0052v0.0053v0.0052v0.0052v0.0052v0.0053v0.0052v0.0053v0.0053v0.0052v0.0053v0.0053v0.0053v0.0053v0.0053v0.0053v0.0054v0.0053v0.0054v0.0053v0.0054v0.0053v0.0054v0.0054v0.0054v0.0054v0.0054v0.0054v0.0055v0.0054v0.0055v0.0054v0.0055v0.0055v0.0054v0.0055v0.0055v0.0055v0.0056v0.0055v0.0055v0.0056v0.0055v0.0056v0.0056v0.0055v0.0056v0.0056v0.0056v0.0057v0.0056v0.0056v0.0057v0.0056v0.0057v0.0057v0.0057v0.0057v0.0057v0.0057c0,-0.0012 -0.0001,-0.0011 -0.0005,0.0003c-0.0002,0.0005 -0.0004,0.0012 -0.0006,0.0021c-0.0055,0.0199 -0.0365,0.1324 -0.1996,0.349c-0.1692,0.2246 -0.4102,0.4695 -0.6742,0.7056c-0.2603,0.2327 -0.52348,0.4397 -0.72335,0.5895c-0.09937,0.0745 -0.18174,0.1338 -0.23852,0.174c-0.02837,0.0201 -0.05026,0.0354 -0.0646,0.0453l-0.01568,0.0108l-0.00332,0.0023l-0.00017,0.0001l-0.00016,0.0001l-0.0001,0.0001h-0.00003h-0.00002c-0.34271,0.2323 -0.43234,0.6985 -0.20015,1.0413c0.23225,0.343 0.69857,0.4327 1.0415,0.2005l-0.4205,-0.621c0.4205,0.621 0.4206,0.6209 0.4207,0.6208l0.0003,-0.0001l0.0007,-0.0005l0.0019,-0.0013l0.0064,-0.0043l0.0219,-0.0151c0.0186,-0.0129 0.0451,-0.0313 0.0782,-0.0548c0.0663,-0.047 0.1597,-0.1143 0.2713,-0.1979c0.222,-0.1664 0.5213,-0.4013 0.8235,-0.6716c0.2059,-0.1841 0.4228,-0.393 0.6204,-0.6151c0.2008,0.2267 0.4218,0.4391 0.6314,0.6254c0.303,0.2693 0.6029,0.5024 0.8253,0.6672c0.1118,0.0828 0.2054,0.1494 0.2719,0.1958c0.0332,0.0232 0.0598,0.0414 0.0785,0.0542l0.022,0.0149l0.0064,0.0043l0.002,0.0013l0.0007,0.0005l0.0003,0.0002c0.0001,0.0001 0.0002,0.0001 0.4162,-0.6239l-0.416,0.624c0.3446,0.2298 0.8103,0.1367 1.04,-0.208c0.2298,-0.3446 0.1367,-0.8101 -0.2078,-1.0399l-0.0002,-0.0002h-0.0001l-0.0032,-0.0022l-0.0156,-0.0106c-0.0143,-0.0097 -0.0361,-0.0247 -0.0643,-0.0444c-0.0566,-0.0395 -0.1388,-0.0979 -0.2379,-0.1714c-0.1995,-0.1477 -0.4621,-0.3522 -0.7216,-0.5829c-0.2634,-0.234 -0.5034,-0.4774 -0.6717,-0.7019c-0.1766,-0.2354 -0.1994,-0.3515 -0.2014,-0.3618v-0.0001c-0.0002,-0.0005 -0.0002,-0.0008 -0.0002,-0.0006v-0.0057v-0.0057v-0.0057v-0.0057v-0.0057v-0.0057v-0.0056v-0.0057v-0.0056v-0.0056v-0.0057v-0.0056v-0.0056v-0.0056v-0.0055v-0.0056v-0.0056v-0.0055v-0.0056v-0.0055v-0.0055v-0.0056v-0.0055v-0.0055v-0.0055v-0.0054v-0.0055v-0.0055v-0.0054v-0.0055v-0.0054v-0.0055v-0.0054v-0.0054v-0.0054v-0.0054v-0.0054v-0.0054v-0.0053v-0.0054v-0.0053v-0.0054v-0.0053v-0.0054v-0.0053v-0.0053v-0.0053v-0.0053v-0.0053v-0.0053v-0.0052v-0.0053v-0.0053v-0.0052v-0.0053v-0.0052v-0.0052v-0.0052v-0.0053v-0.0052v-0.0052v-0.0051v-0.0052v-0.0052v-0.0052v-0.0051v-0.0052v-0.0051v-0.0052v-0.0051v-0.0051v-0.0051v-0.0051v-0.0051v-0.0051v-0.0051v-0.0051v-0.0051v-0.0051v-0.005v-0.0051v-0.005v-0.0051v-0.005v-0.005v-0.005v-0.0051v-0.005v-0.005v-0.005v-0.005v-0.0049v-0.005v-0.005v-0.0049v-0.005v-0.005v-0.0049v-0.0049v-0.005v-0.0049v-0.0049v-0.0049v-0.005v-0.0049v-0.0049v-0.0048v-0.0049v-0.0049v-0.0049v-0.0049v-0.0048v-0.0049v-0.0048v-0.0049v-0.0048v-0.0049v-0.0048v-0.0048v-0.0048v-0.0049v-0.0048v-0.0048v-0.0048v-0.0048v-0.0048v-0.0047v-0.0048v-0.0048v-0.0048v-0.0047v-0.0048v-0.0048v-0.0047v-0.0048v-0.0047v-0.0047v-0.0048v-0.0047v-0.0047v-0.0047v-0.0048v-0.0047v-0.0047v-0.0047v-0.0047v-0.0047v-0.0047v-0.0046v-0.0047v-0.0047v-0.0047v-0.0046v-0.0047v-0.0047v-0.0046v-0.0047v-0.0046v-0.0047v-0.0046v-0.0047v-0.0046v-0.0046v-0.0047v-0.0046v-0.0046v-0.0046v-0.0046v-0.0046v-0.0047v-0.0046v-0.0046v-0.0046v-0.0045v-0.0046v-0.0046v-0.0046v-0.0046v-0.0046v-0.0046v-0.0045v-0.0046v-0.0046v-0.0045v-0.0046v-0.0045v-0.0046v-0.0046v-0.0045v-0.0046v-0.0045v-0.0045v-0.0046v-0.0045v-0.0046v-0.0045v-0.0045v-0.0046v-0.0045v-0.0045v-0.0045v-0.0046v-0.0045v-0.0045v-0.0045v-0.0045v-0.0045v-0.0045v-0.0045v-0.0046v-0.0045v-0.0045v-0.0045v-0.0045v-0.0045v-0.0044v-0.0045v-0.0045v-0.0045v-0.0045v-0.0045v-0.0045v-0.0045v-0.0045v-0.0044v-0.0045v-0.0045v-0.0045v-0.0045v-0.0044v-0.0045v-0.0045v-0.0045v-0.0044v-0.0045v-0.0045v-0.0045v-0.0044v-0.0045v-0.0045v-0.0044v-0.0045v-0.0045v-0.0044v-0.0045v-0.0045v-0.0044v-0.0045v-0.0045v-0.0044v-0.0045v-0.0045v-0.0044v-0.0045v-0.0045v-0.0044v-0.0045v-0.0044v-0.0045v-0.0045v-0.0044v-0.0045v-0.0045v-0.0044v-0.0045v-0.0045v-0.0044v-0.0045v-0.0045v-0.0044v-0.0045v-0.0045v-0.0044v-0.0045v-0.0045v-0.0044v-0.0045v-0.0045v-0.0045v-0.0044v-0.0045v-0.0045v-0.0045v-0.0044v-0.0045v-0.0045v-0.0045v-0.0045v-0.0045v-0.0044v-0.0045v-0.0045v-0.0045v-0.0045v-0.0045v-0.0045v-0.0045v-0.0045v-0.0045v-0.0045v-0.0045v-0.0045v-0.0045v-0.0045v-0.0045v-0.0045v-0.0045v-0.0045v-0.0046v-0.0045v-0.0045v-0.0045v-0.0045v-0.0046v-0.0045v-0.0045v-0.0046v-0.0045v-0.0045v-0.0046v-0.0045v-0.0046v-0.0045v-0.0046v-0.0045v-0.0046v-0.0045v-0.0046v-0.0046v-0.0045v-0.0046v-0.0046v-0.0046v-0.0045v-0.0046v-0.0046v-0.0046v-0.0046v-0.0046v-0.0046v-0.0046v-0.0046v-0.0046v-0.0046v-0.0046v-0.0046v-0.0046v-0.0047v-0.0046v-0.0046v-0.0047v-0.0046v-0.0047v-0.0046v-0.0046v-0.0047v-0.0047v-0.0046v-0.0047v-0.0047v-0.0046v-0.0047v-0.0047v-0.0047v-0.0047v-0.0047v-0.0047v-0.0047v-0.0047v-0.0047v-0.0047v-0.0047v-0.0047v-0.0048v-0.0047v-0.0047v-0.0048v-0.0047v-0.0048v-0.0047v-0.0048v-0.0048v0c0.5716,-0.1043 1.1539,-0.2998 1.6107,-0.4738c0.3459,-0.1318 0.6495,-0.2631 0.8666,-0.3614c0.1089,-0.0493 0.1967,-0.0907 0.2581,-0.12c0.0307,-0.0147 0.0549,-0.0265 0.0717,-0.0347l0.0198,-0.0098l0.0057,-0.0028l0.0018,-0.0009l0.0006,-0.0003l0.0002,-0.0001c0.0001,-0.0001 0.0002,-0.0001 -0.3352,-0.6709l0.3354,0.6708c0.3705,-0.1852 0.5207,-0.6357 0.3354,-1.0062c-0.1852,-0.37046 -0.6356,-0.52064 -1.0061,-0.33551l-0.0001,0.00007l-0.0001,0.00007l-0.003,0.00147l-0.0142,0.00697c-0.013,0.00638 -0.0331,0.01613 -0.0595,0.02878c-0.0529,0.02531 -0.131,0.06211 -0.2292,0.10657c-0.1969,0.08918 -0.4715,0.20788 -0.7818,0.32608c-0.6509,0.248 -1.351,0.4509 -1.8268,0.4509c-0.4758,0 -1.1759,-0.2029 -1.8268,-0.4509c-0.31033,-0.1182 -0.58489,-0.2369 -0.78179,-0.32608c-0.09818,-0.04446 -0.17635,-0.08126 -0.22923,-0.10657c-0.02643,-0.01265 -0.04649,-0.0224 -0.05951,-0.02878l-0.01417,-0.00697l-0.00296,-0.00147zM12,8.74998c0.6904,0 1.25,-0.55964 1.25,-1.25c0,-0.69035 -0.5596,-1.25 -1.25,-1.25c-0.6904,0 -1.25,0.55965 -1.25,1.25c0,0.69036 0.5596,1.25 1.25,1.25z" fill="#002B51"/>
</svg>
