<svg width="24" height="24" viewBox="0 0 24 24" fill="none" xmlns="http://www.w3.org/2000/svg">
<path fill-rule="evenodd" clip-rule="evenodd" d="M2.76256,3.76256c0.32819,-0.32819 0.77331,-0.51256 1.23744,-0.51256h4c0.46413,0 0.90925,0.18438 1.23744,0.51256c0.32819,0.32819 0.51256,0.77331 0.51256,1.23744v4c0,0.46413 -0.18437,0.90925 -0.51256,1.2374c-0.32819,0.3282 -0.77331,0.5126 -1.23744,0.5126h-4c-0.46413,0 -0.90925,-0.1844 -1.23744,-0.5126c-0.32819,-0.32815 -0.51256,-0.77327 -0.51256,-1.2374v-4c0,-0.46413 0.18437,-0.90925 0.51256,-1.23744zM21,3.75c0.6904,0 1.25,0.55964 1.25,1.25c0,0.69036 -0.5596,1.25 -1.25,1.25h-8c-0.6904,0 -1.25,-0.55964 -1.25,-1.25c0,-0.69036 0.5596,-1.25 1.25,-1.25zM18,7.75c0.6904,0 1.25,0.55964 1.25,1.25c0,0.69036 -0.5596,1.25 -1.25,1.25h-5c-0.6904,0 -1.25,-0.55964 -1.25,-1.25c0,-0.69036 0.5596,-1.25 1.25,-1.25zM11.75,15c0,-0.6904 0.5596,-1.25 1.25,-1.25h8c0.6904,0 1.25,0.5596 1.25,1.25c0,0.6904 -0.5596,1.25 -1.25,1.25h-8c-0.6904,0 -1.25,-0.5596 -1.25,-1.25zM18,17.75c0.6904,0 1.25,0.5596 1.25,1.25c0,0.6904 -0.5596,1.25 -1.25,1.25h-5c-0.6904,0 -1.25,-0.5596 -1.25,-1.25c0,-0.6904 0.5596,-1.25 1.25,-1.25zM2.76256,13.7626c0.32819,-0.3282 0.77331,-0.5126 1.23744,-0.5126h4c0.46413,0 0.90925,0.1844 1.23744,0.5126c0.32819,0.3282 0.51256,0.7733 0.51256,1.2374v4c0,0.4641 -0.18437,0.9092 -0.51256,1.2374c-0.32819,0.3282 -0.77331,0.5126 -1.23744,0.5126h-4c-0.46413,0 -0.90925,-0.1844 -1.23744,-0.5126c-0.32819,-0.3282 -0.51256,-0.7733 -0.51256,-1.2374v-4c0,-0.4641 0.18437,-0.9092 0.51256,-1.2374z" fill="#002B51"/>
</svg>
