<svg width="24" height="24" viewBox="0 0 24 24" fill="none" xmlns="http://www.w3.org/2000/svg">
<path fill-rule="evenodd" clip-rule="evenodd" d="M21.25,14.75c0,0.4142 -0.3358,0.75 -0.75,0.75h-7.75v4.75c0,0.4142 -0.3358,0.75 -0.75,0.75h-7.75v1c0,0.4142 -0.33579,0.75 -0.75,0.75c-0.41421,0 -0.75,-0.3358 -0.75,-0.75v-1.75v-5.5v-5.5v-5.5v-1.75c0,-0.41421 0.33579,-0.75 0.75,-0.75c0.41421,0 0.75,0.33579 0.75,0.75v1h12c0.4142,0 0.75,0.33579 0.75,0.75v4.75h3.5c0.4142,0 0.75,0.33579 0.75,0.75zM4.25,8.5h11.25v-4h-11.25zM4.25,14h7.75h7.75v-4h-3.5h-12zM4.25,19.5h7v-4h-7z" fill="#002B51"/>
</svg>
