<svg width="24" height="24" viewBox="0 0 24 24" fill="none" xmlns="http://www.w3.org/2000/svg">
<path fill-rule="evenodd" clip-rule="evenodd" d="M11.25 3.78363C7.29215 4.14029 4.14029 7.29215 3.78363 11.25H11.25V3.78363ZM3.78363 12.75C4.16255 16.9549 7.69647 20.25 12 20.25C16.5563 20.25 20.25 16.5563 20.25 12C20.25 7.69647 16.9549 4.16255 12.75 3.78363V12C12.75 12.4142 12.4142 12.75 12 12.75H3.78363ZM12 2.25C6.61522 2.25 2.25 6.61522 2.25 12C2.25 17.3848 6.61522 21.75 12 21.75C17.3848 21.75 21.75 17.3848 21.75 12C21.75 6.61522 17.3848 2.25 12 2.25Z" fill="#002B51"/>
</svg>
