<svg width="24" height="24" viewBox="0 0 24 24" fill="none" xmlns="http://www.w3.org/2000/svg">
<path fill-rule="evenodd" clip-rule="evenodd" d="M15.5,3.5v3.5h4.75l0.0771,0.00391c0.378,0.03862 0.6729,0.35792 0.6729,0.74609v12h1c0.4142,0 0.75,0.3358 0.75,0.75c0,0.4142 -0.3358,0.75 -0.75,0.75h-1.75h-5.5h-5.5h-5.5h-1.75c-0.41421,0 -0.75,-0.3358 -0.75,-0.75c0,-0.4142 0.33579,-0.75 0.75,-0.75h1v-7.75l0.00391,-0.0771c0.03862,-0.378 0.35792,-0.6729 0.74609,-0.6729h4.75v-7.75l0.00391,-0.07715c0.03862,-0.37797 0.35792,-0.67285 0.74609,-0.67285h5.5l0.0771,0.00391c0.378,0.03862 0.6729,0.35792 0.6729,0.74609zM19.5,19.75v-11.25h-4v11.25zM14,19.75v-12v-3.5h-4v7.75v7.75zM8.5,19.75v-7h-4v7z" fill="#002B51"/>
</svg>
