<svg width="24" height="24" viewBox="0 0 24 24" fill="none" xmlns="http://www.w3.org/2000/svg">
<path d="M14.25,2.75c0.4142,0 0.75,0.33579 0.75,0.75v16.25h0.75v-12c0,-0.41421 0.3358,-0.75 0.75,-0.75h4c0.4142,0 0.75,0.33579 0.75,0.75v12h1c0.4142,0 0.75,0.3358 0.75,0.75c0,0.4142 -0.3358,0.75 -0.75,0.75h-20c-0.41421,0 -0.75,-0.3358 -0.75,-0.75c0,-0.4142 0.33579,-0.75 0.75,-0.75h1v-7.75c0,-0.4142 0.33579,-0.75 0.75,-0.75h4c0.41421,0 0.75,0.3358 0.75,0.75v7.75h0.75v-16.25c0,-0.41421 0.33579,-0.75 0.75,-0.75z" fill="#002B51"/>
</svg>
