<svg width="24" height="24" viewBox="0 0 24 24" fill="none" xmlns="http://www.w3.org/2000/svg">
<path fill-rule="evenodd" clip-rule="evenodd" d="M14.75,2.75c0.4142,0 0.75,0.33579 0.75,0.75v3.5h4.75c0.4142,0 0.75,0.33579 0.75,0.75v12h1c0.4142,0 0.75,0.3358 0.75,0.75c0,0.4142 -0.3358,0.75 -0.75,0.75h-1.75h-5.5h-5.5h-5.5h-1.75c-0.41421,0 -0.75,-0.3358 -0.75,-0.75c0,-0.4142 0.33579,-0.75 0.75,-0.75h1v-7.75c0,-0.4142 0.33579,-0.75 0.75,-0.75h4.75v-7.75c0,-0.41421 0.33579,-0.75 0.75,-0.75zM19.5,19.75v-11.25h-4v11.25zM14,19.75v-12v-3.5h-4v7.75v7.75zM8.5,19.75v-7h-4v7z" fill="#002B51"/>
</svg>
