<svg width="24" height="24" viewBox="0 0 24 24" fill="none" xmlns="http://www.w3.org/2000/svg">
<path fill-rule="evenodd" clip-rule="evenodd" d="M9.25 2.75C8.83579 2.75 8.5 3.08579 8.5 3.5V11.25H3.75C3.33579 11.25 3 11.5858 3 12V19.75H2C1.58579 19.75 1.25 20.0858 1.25 20.5C1.25 20.9142 1.58579 21.25 2 21.25H3.75H9.25H14.75H20.25H22C22.4142 21.25 22.75 20.9142 22.75 20.5C22.75 20.0858 22.4142 19.75 22 19.75H21V7.75C21 7.33579 20.6642 7 20.25 7H15.5V3.5C15.5 3.08579 15.1642 2.75 14.75 2.75H9.25ZM19.5 19.75V8.5H15.5V19.75H19.5ZM14 19.75V7.75V4.25H10V12V19.75H14ZM8.5 19.75V12.75H4.5V19.75H8.5Z" fill="#002B51"/>
</svg>
