<svg width="24" height="24" viewBox="0 0 24 24" fill="none" xmlns="http://www.w3.org/2000/svg">
<path fill-rule="evenodd" clip-rule="evenodd" d="M11.9957,1.75c0.4822,-0.00063 0.9586,0.10606 1.3945,0.31233c0.4359,0.20628 0.8204,0.50698 1.1257,0.8803c0.1566,0.19154 0.2904,0.39974 0.3991,0.62031c0.1484,-0.03231 0.2997,-0.05236 0.4523,-0.05974c0.419,-0.02024 0.8372,0.05566 1.2224,0.2219c0.3852,0.16624 0.7272,0.4184 0.9999,0.7372c0.2728,0.31879 0.469,0.69576 0.5736,1.10205c0.1046,0.40629 0.1148,0.83112 0.0299,1.24199c-0.0848,0.41086 -0.2626,0.79686 -0.5196,1.12844c-0.257,0.33158 -0.5865,0.59996 -0.9633,0.7846c-0.1482,0.07267 -0.3023,0.13161 -0.4602,0.17637v1.10425v1.5c0,2.3472 -1.9028,4.25 -4.25,4.25c-2.34721,0 -4.25,-1.9028 -4.25,-4.25v-1.5v-1.10425c-0.15851,-0.04493 -0.31314,-0.10415 -0.46196,-0.17722c-0.37717,-0.18518 -0.7069,-0.45432 -0.96386,-0.78678c-0.25697,-0.33245 -0.43433,-0.71937 -0.51847,-1.13104c-0.08415,-0.41167 -0.07284,-0.83715 0.03306,-1.24377c0.10589,-0.40662 0.30356,-0.78357 0.57782,-1.1019c0.27426,-0.31834 0.61782,-0.56959 1.0043,-0.73447c0.38648,-0.16488 0.8056,-0.23901 1.2252,-0.21669c0.14809,0.00788 0.29484,0.0277 0.43889,0.05906c0.10747,-0.218 0.23939,-0.42393 0.3937,-0.61365c0.30429,-0.37412 0.68802,-0.67584 1.12342,-0.88327c0.4353,-0.20743 0.9114,-0.31538 1.3936,-0.31602zM14.75,10.499c-0.1293,-0.048 -0.2857,-0.1017 -0.4655,-0.1556c-0.5751,-0.1726 -1.3758,-0.3434 -2.2845,-0.3434c-0.9087,0 -1.7094,0.1708 -2.28449,0.3434c-0.17982,0.0539 -0.33625,0.1076 -0.46551,0.1556v1.001c0,1.5188 1.2312,2.75 2.75,2.75c1.5188,0 2.75,-1.2312 2.75,-2.75zM15.1663,10.6717c0.0002,0.0001 0.0001,0 -0.0004,-0.0002zM5.25,21.4c0,-2.5681 2.08187,-4.65 4.65,-4.65h4.2c2.5681,0 4.65,2.0819 4.65,4.65v0.1c0,0.1989 -0.079,0.3897 -0.2197,0.5303c-0.1406,0.1407 -0.3314,0.2197 -0.5303,0.2197h-12c-0.41421,0 -0.75,-0.3358 -0.75,-0.75z" fill="#002B51"/>
</svg>
