<svg width="24" height="24" viewBox="0 0 24 24" fill="none" xmlns="http://www.w3.org/2000/svg">
<path fill-rule="evenodd" clip-rule="evenodd" d="M14.5159,2.94263c0.1566,0.19154 0.2904,0.39974 0.3991,0.62031c0.1484,-0.03231 0.2997,-0.05236 0.4523,-0.05974c0.419,-0.02024 0.8372,0.05566 1.2224,0.2219c0.3852,0.16624 0.7272,0.4184 0.9999,0.7372c0.2728,0.31879 0.469,0.69576 0.5736,1.10205c0.1046,0.40629 0.1148,0.83112 0.0299,1.24199c-0.0848,0.41086 -0.2626,0.79686 -0.5196,1.12844c-0.257,0.33158 -0.5865,0.59996 -0.9633,0.7846c-0.1482,0.07267 -0.3023,0.13161 -0.4602,0.17637v1.10425v1.5c0,2.3472 -1.9028,4.25 -4.25,4.25c-2.34721,0 -4.25,-1.9028 -4.25,-4.25v-1.5v-1.10425c-0.15851,-0.04493 -0.31314,-0.10415 -0.46196,-0.17722c-0.37717,-0.18518 -0.7069,-0.45432 -0.96386,-0.78678c-0.25697,-0.33245 -0.43433,-0.71937 -0.51847,-1.13104c-0.08415,-0.41167 -0.07284,-0.83715 0.03306,-1.24377c0.10589,-0.40662 0.30356,-0.78357 0.57782,-1.1019c0.27426,-0.31834 0.61782,-0.56959 1.0043,-0.73447c0.38648,-0.16488 0.8056,-0.23901 1.2252,-0.21669c0.14809,0.00788 0.29484,0.0277 0.43889,0.05906c0.10747,-0.218 0.23939,-0.42393 0.3937,-0.61365c0.30429,-0.37412 0.68802,-0.67584 1.12342,-0.88327c0.4353,-0.20743 0.9114,-0.31538 1.3936,-0.31602c0.4822,-0.00063 0.9586,0.10606 1.3945,0.31233c0.4359,0.20628 0.8204,0.50698 1.1257,0.8803zM15.2425,5.02682c-0.0109,0.12575 -0.0326,0.24766 -0.058,0.37261c-0.0828,0.40586 -0.4789,0.66777 -0.8848,0.585c-0.4058,-0.08277 -0.6678,-0.47888 -0.585,-0.88474c0.0337,-0.16537 0.0362,-0.21933 0.0351,-0.25266c-0.0011,-0.03706 -0.0079,-0.09292 -0.0509,-0.26666c-0.0622,-0.25209 -0.1798,-0.48717 -0.3442,-0.68818c-0.1644,-0.20102 -0.3714,-0.36294 -0.6061,-0.47401c-0.2348,-0.11107 -0.4912,-0.16852 -0.7509,-0.16818c-0.2597,0.00034 -0.516,0.05847 -0.7504,0.17016c-0.2345,0.1117 -0.4411,0.27416 -0.6049,0.47561c-0.1639,0.20145 -0.2808,0.43684 -0.3424,0.68909c-0.0428,0.17496 -0.0489,0.22841 -0.0499,0.26302c-0.0008,0.03112 0.0015,0.08294 0.0361,0.25031c0.0839,0.40564 -0.177,0.80244 -0.58264,0.88629c-0.40564,0.08384 -0.80244,-0.17703 -0.88629,-0.58267c-0.02589,-0.12529 -0.04825,-0.24798 -0.0595,-0.37494c-0.06286,-0.01325 -0.12684,-0.02167 -0.19137,-0.0251c-0.19072,-0.01015 -0.38123,0.02354 -0.55691,0.09849c-0.17567,0.07495 -0.33183,0.18915 -0.4565,0.33385c-0.12466,0.1447 -0.21451,0.31603 -0.26264,0.50086c-0.04814,0.18483 -0.05328,0.37823 -0.01503,0.56535c0.03825,0.18713 0.11887,0.363 0.23567,0.51411c0.1168,0.15112 0.26668,0.27346 0.43812,0.35763c0.17144,0.08417 0.3599,0.12794 0.55089,0.12794c0.41421,0 0.75,0.33579 0.75,0.75v0.66705l0.03449,-0.01042c0.67487,-0.20246 1.62421,-0.40663 2.71551,-0.40663c1.0913,0 2.0406,0.20417 2.7155,0.40663l0.0345,0.01042v-0.66705c0,-0.41421 0.3358,-0.75 0.75,-0.75c0.1907,0 0.3789,-0.04363 0.5501,-0.12756c0.1712,-0.08392 0.321,-0.20591 0.4378,-0.35663c0.1169,-0.15072 0.1977,-0.32617 0.2363,-0.51293c0.0385,-0.18676 0.0339,-0.37986 -0.0137,-0.56454c-0.0475,-0.18468 -0.1367,-0.35603 -0.2607,-0.50093c-0.1239,-0.14491 -0.2794,-0.25953 -0.4545,-0.33509c-0.1751,-0.07557 -0.3651,-0.11007 -0.5556,-0.10086c-0.0665,0.00321 -0.1325,0.01172 -0.1972,0.02536zM14.75,10.499c-0.1293,-0.048 -0.2857,-0.1017 -0.4655,-0.1556c-0.5751,-0.1726 -1.3758,-0.3434 -2.2845,-0.3434c-0.9087,0 -1.7094,0.1708 -2.28449,0.3434c-0.17982,0.0539 -0.33625,0.1076 -0.46551,0.1556v1.001c0,1.5188 1.2312,2.75 2.75,2.75c1.5188,0 2.75,-1.2312 2.75,-2.75zM15.1663,10.6717c0.0002,0.0001 0.0001,0 -0.0004,-0.0002zM5.25,21.4c0,-2.5681 2.08187,-4.65 4.65,-4.65h4.2c2.5681,0 4.65,2.0819 4.65,4.65v0.1c0,0.4142 -0.3358,0.75 -0.75,0.75c-0.4142,0 -0.75,-0.3358 -0.75,-0.75v-0.1c0,-1.7397 -1.4103,-3.15 -3.15,-3.15h-4.2c-1.7397,0 -3.15,1.4103 -3.15,3.15v0.1c0,0.4142 -0.33578,0.75 -0.75,0.75c-0.41421,0 -0.75,-0.3358 -0.75,-0.75z" fill="#002B51"/>
</svg>
