<svg width="24" height="24" viewBox="0 0 24 24" fill="none" xmlns="http://www.w3.org/2000/svg">
<path fill-rule="evenodd" clip-rule="evenodd" d="M11.9957,1.75c0.4822,-0.00063 0.9586,0.10606 1.3945,0.31233c0.4359,0.20628 0.8204,0.50698 1.1257,0.8803c0.1566,0.19154 0.2904,0.39974 0.3991,0.62031c0.1495,-0.03253 0.3018,-0.05264 0.4555,-0.05989c0.4189,-0.01975 0.8368,0.05657 1.2217,0.22312c0.3848,0.16656 0.7265,0.41895 0.9989,0.73785c0.2724,0.3189 0.4682,0.69587 0.5725,1.10208c0.1043,0.40621 0.1143,0.83089 0.0293,1.24157c-0.0851,0.41067 -0.2629,0.79645 -0.52,1.12782c-0.257,0.33138 -0.5864,0.59958 -0.9631,0.78409c-0.1481,0.07258 -0.302,0.13145 -0.4598,0.17617v1.10425v1.5c0,2.3472 -1.9028,4.25 -4.25,4.25c-2.34721,0 -4.25,-1.9028 -4.25,-4.25v-1.5v-1.10425c-0.15775,-0.04472 -0.31167,-0.10359 -0.45983,-0.17617c-0.37662,-0.18451 -0.70605,-0.45271 -0.9631,-0.78409c-0.25704,-0.33137 -0.43489,-0.71715 -0.51993,-1.12783c-0.08505,-0.41067 -0.07504,-0.83535 0.02926,-1.24156c0.10429,-0.40621 0.30012,-0.78318 0.57248,-1.10208c0.27237,-0.31891 0.61407,-0.57129 0.99896,-0.73785c0.3849,-0.16655 0.80278,-0.24287 1.2217,-0.22312c0.15368,0.00725 0.30601,0.02736 0.45544,0.05989c0.10747,-0.218 0.23939,-0.42393 0.3937,-0.61365c0.30429,-0.37412 0.68802,-0.67584 1.12342,-0.88327c0.4353,-0.20743 0.9114,-0.31538 1.3936,-0.31602zM14.75,10.499c-0.1293,-0.048 -0.2857,-0.1017 -0.4655,-0.1556c-0.5751,-0.1726 -1.3758,-0.3434 -2.2845,-0.3434c-0.9087,0 -1.7094,0.1708 -2.28449,0.3434c-0.17982,0.0539 -0.33625,0.1076 -0.46551,0.1556v1.001c0,1.5188 1.2312,2.75 2.75,2.75c1.5188,0 2.75,-1.2312 2.75,-2.75zM15.1663,10.6717c0.0002,0.0001 0.0001,0 -0.0004,-0.0002zM5.25,21.4c0,-2.5681 2.08187,-4.65 4.65,-4.65h4.2c2.5681,0 4.65,2.0819 4.65,4.65v0.1c0,0.1989 -0.079,0.3897 -0.2197,0.5303c-0.1406,0.1407 -0.3314,0.2197 -0.5303,0.2197h-12c-0.41421,0 -0.75,-0.3358 -0.75,-0.75z" fill="#002B51"/>
</svg>
