<svg width="24" height="24" viewBox="0 0 24 24" fill="none" xmlns="http://www.w3.org/2000/svg">
<path fill-rule="evenodd" clip-rule="evenodd" d="M14.5159,2.94263c0.1566,0.19154 0.2904,0.39974 0.3991,0.62031c0.1495,-0.03253 0.3018,-0.05264 0.4555,-0.05989c0.4189,-0.01975 0.8368,0.05657 1.2217,0.22312c0.3848,0.16656 0.7265,0.41895 0.9989,0.73785c0.2724,0.3189 0.4682,0.69587 0.5725,1.10208c0.1043,0.40621 0.1143,0.83089 0.0293,1.24157c-0.0851,0.41067 -0.2629,0.79645 -0.52,1.12782c-0.257,0.33138 -0.5864,0.59958 -0.9631,0.78409c-0.1481,0.07258 -0.302,0.13145 -0.4598,0.17617v1.10425v1.5c0,2.3472 -1.9028,4.25 -4.25,4.25c-2.34721,0 -4.25,-1.9028 -4.25,-4.25v-1.5v-1.10425c-0.15775,-0.04472 -0.31167,-0.10359 -0.45983,-0.17617c-0.37662,-0.18451 -0.70605,-0.45271 -0.9631,-0.78409c-0.25704,-0.33137 -0.43489,-0.71715 -0.51993,-1.12783c-0.08505,-0.41067 -0.07504,-0.83535 0.02926,-1.24156c0.10429,-0.40621 0.30012,-0.78318 0.57248,-1.10208c0.27237,-0.31891 0.61407,-0.57129 0.99896,-0.73785c0.3849,-0.16655 0.80278,-0.24287 1.2217,-0.22312c0.15368,0.00725 0.30601,0.02736 0.45544,0.05989c0.10747,-0.218 0.23939,-0.42393 0.3937,-0.61365c0.30429,-0.37412 0.68802,-0.67584 1.12342,-0.88327c0.4353,-0.20743 0.9114,-0.31538 1.3936,-0.31602c0.4822,-0.00063 0.9586,0.10606 1.3945,0.31233c0.4359,0.20628 0.8204,0.50698 1.1257,0.8803zM15.2425,5.02682c-0.0109,0.12575 -0.0326,0.24766 -0.058,0.37261c-0.0828,0.40586 -0.4789,0.66777 -0.8848,0.585c-0.4058,-0.08277 -0.6678,-0.47888 -0.585,-0.88474c0.0337,-0.16537 0.0362,-0.21933 0.0351,-0.25266c-0.0011,-0.03706 -0.0079,-0.09292 -0.0509,-0.26666c-0.0622,-0.25209 -0.1798,-0.48717 -0.3442,-0.68818c-0.1644,-0.20102 -0.3714,-0.36294 -0.6061,-0.47401c-0.2348,-0.11107 -0.4912,-0.16852 -0.7509,-0.16818c-0.2597,0.00034 -0.516,0.05847 -0.7504,0.17016c-0.2345,0.1117 -0.4411,0.27416 -0.6049,0.47561c-0.1639,0.20145 -0.2808,0.43684 -0.3424,0.68909c-0.0428,0.17496 -0.0489,0.22841 -0.0499,0.26302c-0.0008,0.03112 0.0015,0.08294 0.0361,0.25031c0.0839,0.40564 -0.177,0.80244 -0.58264,0.88629c-0.40564,0.08384 -0.80244,-0.17703 -0.88629,-0.58267c-0.02589,-0.12529 -0.04825,-0.24798 -0.0595,-0.37494c-0.06531,-0.01377 -0.13182,-0.02232 -0.19889,-0.02548c-0.19041,-0.00898 -0.38036,0.02571 -0.55531,0.10142c-0.17496,0.0757 -0.33027,0.19042 -0.45408,0.33538c-0.1238,0.14496 -0.21281,0.31631 -0.26022,0.50095c-0.04741,0.18464 -0.05196,0.37768 -0.0133,0.56434c0.03866,0.18667 0.1195,0.36203 0.23634,0.51265c0.11683,0.15063 0.26658,0.27254 0.43777,0.3564c0.17119,0.08387 0.35929,0.12747 0.54992,0.12747c0.41421,0 0.75,0.33579 0.75,0.75v0.66705l0.03449,-0.01042c0.67487,-0.20246 1.62421,-0.40663 2.71551,-0.40663c1.0913,0 2.0406,0.20417 2.7155,0.40663l0.0345,0.01042v-0.66705c0,-0.41421 0.3358,-0.75 0.75,-0.75c0.1906,0 0.3787,-0.0436 0.5499,-0.12747c0.1712,-0.08386 0.321,-0.20577 0.4378,-0.3564c0.1168,-0.15062 0.1977,-0.32598 0.2363,-0.51265c0.0387,-0.18666 0.0341,-0.3797 -0.0133,-0.56434c-0.0474,-0.18464 -0.1364,-0.35599 -0.2602,-0.50095c-0.1238,-0.14496 -0.2791,-0.25968 -0.4541,-0.33538c-0.1749,-0.07571 -0.3649,-0.1104 -0.5553,-0.10142c-0.067,0.00316 -0.1334,0.01169 -0.1986,0.02543zM14.75,10.499c-0.1293,-0.048 -0.2857,-0.1017 -0.4655,-0.1556c-0.5751,-0.1726 -1.3758,-0.3434 -2.2845,-0.3434c-0.9087,0 -1.7094,0.1708 -2.28449,0.3434c-0.17982,0.0539 -0.33625,0.1076 -0.46551,0.1556v1.001c0,1.5188 1.2312,2.75 2.75,2.75c1.5188,0 2.75,-1.2312 2.75,-2.75zM15.1663,10.6717c0.0002,0.0001 0.0001,0 -0.0004,-0.0002zM5.25,21.4c0,-2.5681 2.08187,-4.65 4.65,-4.65h4.2c2.5681,0 4.65,2.0819 4.65,4.65v0.1c0,0.4142 -0.3358,0.75 -0.75,0.75c-0.4142,0 -0.75,-0.3358 -0.75,-0.75v-0.1c0,-1.7397 -1.4103,-3.15 -3.15,-3.15h-4.2c-1.7397,0 -3.15,1.4103 -3.15,3.15v0.1c0,0.4142 -0.33578,0.75 -0.75,0.75c-0.41421,0 -0.75,-0.3358 -0.75,-0.75z" fill="#002B51"/>
</svg>
