<svg width="24" height="24" viewBox="0 0 24 24" fill="none" xmlns="http://www.w3.org/2000/svg">
<path d="M14.0996,16.75c2.5681,0 4.6504,2.0823 4.6504,4.6504v0.0996c0,0.1989 -0.0791,0.3896 -0.2197,0.5303c-0.1407,0.1406 -0.3314,0.2197 -0.5303,0.2197h-12c-0.41421,0 -0.75,-0.3358 -0.75,-0.75v-0.0996l0.00586,-0.2393c0.12433,-2.4571 2.15651,-4.4111 4.64453,-4.4111zM11.9961,1.75c0.4821,-0.00058 0.9587,0.10628 1.3945,0.3125c0.4356,0.20622 0.8199,0.50682 1.125,0.87989c0.1572,0.19215 0.2904,0.40161 0.3994,0.62304c0.1495,-0.03258 0.3014,-0.05523 0.4551,-0.0625l0.1572,-0.00293c0.3659,0.00364 0.7277,0.08086 1.0645,0.22656l0.1426,0.06641c0.3268,0.1642 0.6182,0.392 0.8564,0.6709l0.0987,0.12207c0.2214,0.29142 0.3833,0.62491 0.4746,0.98047l0.0341,0.15234c0.0708,0.35918 0.0686,0.72937 -0.0058,1.08887c-0.0744,0.35927 -0.2194,0.69957 -0.4268,1.00098l-0.0927,0.12695c-0.2571,0.33133 -0.5864,0.59969 -0.9629,0.78418c-0.1481,0.07254 -0.3023,0.13012 -0.46,0.1748v2.60547c0,2.3472 -1.9028,4.25 -4.25,4.25c-2.34721,0 -4.25,-1.9028 -4.25,-4.25v-2.60742c-0.10752,-0.03049 -0.21403,-0.06486 -0.31738,-0.1084l-0.14258,-0.06445c-0.32956,-0.16146 -0.62287,-0.3872 -0.86328,-0.66309l-0.09961,-0.12109c-0.22499,-0.29005 -0.38889,-0.62197 -0.4834,-0.97559l-0.03613,-0.15234c-0.08502,-0.41054 -0.07588,-0.83512 0.02832,-1.24121l0.04394,-0.15137c0.11108,-0.34857 0.29102,-0.67218 0.5293,-0.95117l0.10547,-0.11621c0.2531,-0.26414 0.55685,-0.47539 0.89355,-0.6211l0.14551,-0.05859c0.34355,-0.12591 0.70963,-0.18232 1.07617,-0.16504l0.15625,0.01172c0.10038,0.0105 0.19954,0.0284 0.29785,0.04981c0.10756,-0.21867 0.2399,-0.42511 0.39454,-0.61524c0.30429,-0.37412 0.68868,-0.67538 1.12398,-0.88281c0.4353,-0.20736 0.9114,-0.31577 1.3936,-0.31641zM12,10c-0.9086,0 -1.7091,0.1712 -2.28418,0.3438c-0.17998,0.0539 -0.3365,0.1082 -0.46582,0.1562v1c0,1.5188 1.2312,2.75 2.75,2.75c1.5188,0 2.75,-1.2312 2.75,-2.75v-1c-0.1293,-0.048 -0.2858,-0.1023 -0.4658,-0.1562c-0.5751,-0.1726 -1.3756,-0.3438 -2.2842,-0.3438z" fill="#002B51"/>
</svg>
