<svg width="24" height="24" viewBox="0 0 24 24" fill="none" xmlns="http://www.w3.org/2000/svg">
<path d="M14.0996,16.75c2.5681,0 4.6504,2.0823 4.6504,4.6504v0.0996c0,0.4142 -0.3358,0.75 -0.75,0.75c-0.4142,0 -0.75,-0.3358 -0.75,-0.75v-0.0996c0,-1.7397 -1.4107,-3.1504 -3.1504,-3.1504h-4.19921c-1.7397,0 -3.15039,1.4107 -3.15039,3.1504v0.0996c0,0.4142 -0.33579,0.75 -0.75,0.75c-0.41421,0 -0.75,-0.3358 -0.75,-0.75v-0.0996c0,-2.5681 2.08226,-4.6504 4.65039,-4.6504zM11.9961,1.75c0.4821,-0.00058 0.9587,0.10628 1.3945,0.3125c0.4356,0.20622 0.8199,0.50682 1.125,0.87989c0.1572,0.19215 0.2904,0.40161 0.3994,0.62304c0.1495,-0.03258 0.3014,-0.05523 0.4551,-0.0625l0.1572,-0.00293c0.3659,0.00364 0.7277,0.08086 1.0645,0.22656l0.1426,0.06641c0.3268,0.1642 0.6182,0.392 0.8564,0.6709l0.0987,0.12207c0.2214,0.29142 0.3833,0.62491 0.4746,0.98047l0.0341,0.15234c0.0708,0.35918 0.0686,0.72937 -0.0058,1.08887c-0.0744,0.35927 -0.2194,0.69957 -0.4268,1.00098l-0.0927,0.12695c-0.2571,0.33133 -0.5864,0.59969 -0.9629,0.78418c-0.1481,0.07254 -0.3023,0.13012 -0.46,0.1748v2.60547c0,2.3472 -1.9028,4.25 -4.25,4.25c-2.34721,0 -4.25,-1.9028 -4.25,-4.25v-2.60742c-0.10752,-0.03049 -0.21403,-0.06486 -0.31738,-0.1084l-0.14258,-0.06445c-0.32956,-0.16146 -0.62287,-0.3872 -0.86328,-0.66309l-0.09961,-0.12109c-0.22499,-0.29005 -0.38889,-0.62197 -0.4834,-0.97559l-0.03613,-0.15234c-0.08502,-0.41054 -0.07588,-0.83512 0.02832,-1.24121l0.04394,-0.15137c0.11108,-0.34857 0.29102,-0.67218 0.5293,-0.95117l0.10547,-0.11621c0.2531,-0.26414 0.55685,-0.47539 0.89355,-0.6211l0.14551,-0.05859c0.34355,-0.12591 0.70963,-0.18232 1.07617,-0.16504l0.15625,0.01172c0.10038,0.0105 0.19954,0.0284 0.29785,0.04981c0.10756,-0.21867 0.2399,-0.42511 0.39454,-0.61524c0.30429,-0.37412 0.68868,-0.67538 1.12398,-0.88281c0.4353,-0.20736 0.9114,-0.31577 1.3936,-0.31641zM12,10c-0.9086,0 -1.7091,0.1712 -2.28418,0.3438c-0.17998,0.0539 -0.3365,0.1082 -0.46582,0.1562v1c0,1.5188 1.2312,2.75 2.75,2.75c1.5188,0 2.75,-1.2312 2.75,-2.75v-1c-0.1293,-0.048 -0.2858,-0.1023 -0.4658,-0.1562c-0.5751,-0.1726 -1.3756,-0.3438 -2.2842,-0.3438zM11.998,3.25c-0.2596,0.00035 -0.5165,0.05823 -0.7509,0.16992c-0.2343,0.11165 -0.4407,0.27428 -0.6045,0.47559c-0.1639,0.20145 -0.2812,0.4372 -0.3428,0.68945c-0.0426,0.17449 -0.0488,0.22809 -0.0498,0.2627c-0.0004,0.01555 0.0001,0.03649 0.0049,0.07422l0.0312,0.17676l0.0118,0.07519c0.039,0.37823 -0.2144,0.73193 -0.59478,0.81055c-0.37997,0.07833 -0.7519,-0.14564 -0.86621,-0.50782l-0.01953,-0.07519l-0.05078,-0.29199c-0.00332,-0.02651 -0.00544,-0.05323 -0.00781,-0.08008c-0.01956,-0.00409 -0.03885,-0.00949 -0.05859,-0.0127l-0.14161,-0.01562c-0.1426,-0.00669 -0.28493,0.01156 -0.42089,0.05273l-0.13379,0.04883c-0.13107,0.05672 -0.25144,0.13561 -0.35547,0.23242l-0.09864,0.10352c-0.09288,0.10875 -0.16595,0.2323 -0.21679,0.36523l-0.04395,0.13575c-0.04732,0.18453 -0.05133,0.3779 -0.01269,0.56445l0.03613,0.13769c0.04452,0.13501 0.11264,0.26212 0.2002,0.375l0.09277,0.10743c0.09941,0.10174 0.21637,0.18515 0.34473,0.24804l0.13085,0.05567c0.0894,0.0318 0.18211,0.05363 0.27637,0.06445l0.14258,0.00781l0.07715,0.00391c0.03477,0.00355 0.06836,0.01139 0.10156,0.01953c0.02576,0.00631 0.05056,0.01454 0.0752,0.02344c0.0209,0.00755 0.04153,0.0151 0.06152,0.02441c0.02407,0.01121 0.04673,0.02448 0.06934,0.03809c0.01648,0.00992 0.0332,0.01915 0.04882,0.03027c0.02327,0.01656 0.04424,0.03564 0.06543,0.05469c0.01376,0.01236 0.02821,0.02378 0.04102,0.03711c0.01991,0.02073 0.03724,0.04349 0.05469,0.0664c0.01113,0.01463 0.02314,0.02851 0.0332,0.04395c0.01535,0.02356 0.02737,0.04892 0.04004,0.07422c0.00834,0.01665 0.01828,0.03247 0.02539,0.0498c0.012,0.02924 0.02005,0.05987 0.02832,0.09082c0.01655,0.06193 0.02832,0.12622 0.02832,0.19336v0.66699c0.01136,-0.00345 0.02267,-0.00729 0.03418,-0.01074c0.67487,-0.20246 1.62452,-0.40625 2.71582,-0.40625c1.0913,0 2.0409,0.20379 2.7158,0.40625c0.0115,0.00345 0.0228,0.00729 0.0342,0.01074v-0.66699c0,-0.41421 0.3358,-0.75 0.75,-0.75c0.1906,0 0.3786,-0.04406 0.5498,-0.12793c0.171,-0.08377 0.3207,-0.20509 0.4375,-0.35547l0.0811,-0.11816c0.0737,-0.12143 0.1262,-0.25477 0.1552,-0.39453c0.029,-0.13996 0.0341,-0.28391 0.0147,-0.42481l-0.0274,-0.13964c-0.0355,-0.13839 -0.0944,-0.26976 -0.1738,-0.3877l-0.0869,-0.11328c-0.0928,-0.10864 -0.203,-0.20051 -0.3262,-0.27149l-0.1279,-0.06445c-0.131,-0.05663 -0.2704,-0.09007 -0.4121,-0.09961l-0.1426,-0.00195c-0.0679,0.0032 -0.135,0.01327 -0.2012,0.02734c-0.0108,0.12516 -0.0303,0.24672 -0.0556,0.3711l-0.0196,0.07422c-0.1131,0.36289 -0.4847,0.58829 -0.8652,0.51074c-0.4059,-0.08277 -0.6677,-0.47891 -0.585,-0.88477l0.0303,-0.17578c0.0047,-0.03833 0.0054,-0.06048 0.0049,-0.07715c-0.0012,-0.03707 -0.008,-0.09341 -0.0508,-0.2666c-0.0622,-0.25196 -0.1804,-0.48657 -0.3447,-0.6875c-0.1643,-0.20093 -0.3709,-0.36354 -0.6055,-0.47461c-0.2346,-0.11102 -0.4914,-0.16826 -0.751,-0.16797z" fill="#002B51"/>
</svg>
