<svg width="24" height="24" viewBox="0 0 24 24" fill="none" xmlns="http://www.w3.org/2000/svg">
<path fill-rule="evenodd" clip-rule="evenodd" d="M12,21c-4.97056,0 -9,-4.0294 -9,-9c0,-4.97056 4.02944,-9 9,-9c4.9706,0 9,4.02944 9,9c0,4.9706 -4.0294,9 -9,9z" fill="#002B51"/>
<path fill-rule="evenodd" clip-rule="evenodd" d="M9,12.75c-0.41421,0 -0.75,-0.3358 -0.75,-0.75c0.00002,-0.4142 0.3358,-0.75 0.75,-0.75h2.25v-2.25c0,-0.41421 0.3358,-0.75 0.75,-0.75c0.4142,0 0.75,0.33579 0.75,0.75v2.25h2.25l0.0771,0.0039c0.378,0.0387 0.6729,0.358 0.6729,0.7461c0,0.3882 -0.2949,0.7075 -0.6729,0.7461l-0.0771,0.0039h-2.25v2.25c0,0.4142 -0.3358,0.75 -0.75,0.75c-0.4142,0 -0.75,-0.3358 -0.75,-0.75v-2.25z" fill="white"/>
</svg>
