<svg width="24" height="24" viewBox="0 0 24 24" fill="none" xmlns="http://www.w3.org/2000/svg">
<path fill-rule="evenodd" clip-rule="evenodd" d="M3.75,12c0,4.5563 3.69365,8.25 8.25,8.25c4.5563,0 8.25,-3.6937 8.25,-8.25c0,-4.55635 -3.6937,-8.25 -8.25,-8.25c-4.55635,0 -8.25,3.69365 -8.25,8.25zM2.25,12c0,-5.38478 4.36522,-9.75 9.75,-9.75c5.3848,0 9.75,4.36522 9.75,9.75c0,5.3848 -4.3652,9.75 -9.75,9.75c-5.38478,0 -9.75,-4.3652 -9.75,-9.75zM15.75,12c0,0.3882 -0.2949,0.7075 -0.6728,0.7461l-0.0772,0.0039h-5.99999c-0.41421,0 -0.75,-0.3358 -0.75,-0.75c0.00001,-0.4142 0.33579,-0.75 0.75,-0.75h5.99999l0.0772,0.0039c0.3779,0.0387 0.6728,0.358 0.6728,0.7461z" fill="#002B51"/>
</svg>
