<svg width="24" height="24" viewBox="0 0 24 24" fill="none" xmlns="http://www.w3.org/2000/svg">
<path fill-rule="evenodd" clip-rule="evenodd" d="M3.75,12c0,4.5563 3.69365,8.25 8.25,8.25c4.5563,0 8.25,-3.6937 8.25,-8.25c0,-4.55635 -3.6937,-8.25 -8.25,-8.25c-4.55635,0 -8.25,3.69365 -8.25,8.25zM2.25,12c0,-5.38478 4.36522,-9.75 9.75,-9.75c5.3848,0 9.75,4.36522 9.75,9.75c0,5.3848 -4.3652,9.75 -9.75,9.75c-5.38478,0 -9.75,-4.3652 -9.75,-9.75zM14.0265,8.91808c0.2946,-0.24031 0.7293,-0.22284 1.0039,0.05176c0.2746,0.2746 0.2921,0.70932 0.0518,1.00391l-0.0518,0.05665l-1.9697,1.9697l1.9697,1.9698l0.0518,0.0566c0.2402,0.2946 0.2228,0.7293 -0.0518,1.0039c-0.2746,0.2746 -0.7093,0.2921 -1.0039,0.0518l-0.0566,-0.0518l-1.9698,-1.9697l-1.9697,1.9697c-0.2929,0.2929 -0.76766,0.2929 -1.06055,0c-0.29289,-0.2929 -0.29289,-0.7677 0,-1.0606l1.96975,-1.9697l-1.96975,-1.9697l-0.05176,-0.05662c-0.24031,-0.29458 -0.22284,-0.72931 0.05176,-1.00391c0.2746,-0.2746 0.70932,-0.29207 1.00391,-0.05176l0.05664,0.05176l1.9697,1.96973l1.9698,-1.96976z" fill="#002B51"/>
</svg>
