<svg width="24" height="24" viewBox="0 0 24 24" fill="none" xmlns="http://www.w3.org/2000/svg">
<path d="M12,2.25c5.3848,0 9.75,4.36522 9.75,9.75c0,5.3848 -4.3652,9.75 -9.75,9.75c-5.38478,0 -9.75,-4.3652 -9.75,-9.75c0,-5.38478 4.36522,-9.75 9.75,-9.75zM12,3.75c-4.55635,0 -8.25,3.69365 -8.25,8.25c0,4.5563 3.69365,8.25 8.25,8.25c4.5563,0 8.25,-3.6937 8.25,-8.25c0,-4.55635 -3.6937,-8.25 -8.25,-8.25zM15.0264,9.16797c0.2945,-0.24027 0.7293,-0.22273 1.0039,0.05176c0.2746,0.27459 0.292,0.70932 0.0517,1.00387l-0.0517,0.0567l-4.5,4.5c-0.2746,0.2746 -0.7094,0.292 -1.0039,0.0517l-0.0567,-0.0517l-2.49997,-2.5l-0.05176,-0.0567c-0.2402,-0.2945 -0.22281,-0.7293 0.05176,-1.0039c0.27456,-0.2745 0.70933,-0.2919 1.0039,-0.0517l0.05664,0.0517l1.96973,1.9698l3.9697,-3.96977z" fill="#002B51"/>
</svg>
