<svg width="24" height="24" viewBox="0 0 24 24" fill="none" xmlns="http://www.w3.org/2000/svg">
<path fill-rule="evenodd" clip-rule="evenodd" d="M3.75 12C3.75 7.44365 7.44365 3.75 12 3.75C16.5563 3.75 20.25 7.44365 20.25 12C20.25 16.5563 16.5563 20.25 12 20.25C7.44365 20.25 3.75 16.5563 3.75 12ZM12 2.25C6.61522 2.25 2.25 6.61522 2.25 12C2.25 17.3848 6.61522 21.75 12 21.75C17.3848 21.75 21.75 17.3848 21.75 12C21.75 6.61522 17.3848 2.25 12 2.25ZM16.0303 10.2803C16.3232 9.98745 16.3232 9.51258 16.0303 9.21968C15.7374 8.92679 15.2626 8.92679 14.9697 9.21968L11 13.1894L9.03033 11.2197C8.73743 10.9268 8.26256 10.9268 7.96967 11.2197C7.67677 11.5126 7.67677 11.9874 7.96967 12.2803L10.4697 14.7803C10.7626 15.0732 11.2374 15.0732 11.5303 14.7803L16.0303 10.2803Z" fill="#002B51"/>
</svg>
