<svg width="24" height="24" viewBox="0 0 24 24" fill="none" xmlns="http://www.w3.org/2000/svg">
<path fill-rule="evenodd" clip-rule="evenodd" d="M21.75,12c0,5.3848 -4.3652,9.75 -9.75,9.75c-5.38478,0 -9.75,-4.3652 -9.75,-9.75c0,-5.38478 4.36522,-9.75 9.75,-9.75c5.3848,0 9.75,4.36522 9.75,9.75z" fill="#002B51"/>
<path fill-rule="evenodd" clip-rule="evenodd" d="M16.0303,9.21969c0.2929,0.29289 0.2929,0.76776 0,1.06061l-4.5,4.5c-0.2929,0.2929 -0.7677,0.2929 -1.0606,0l-2.50003,-2.5c-0.29289,-0.2928 -0.29289,-0.7677 0,-1.0606c0.29289,-0.2929 0.76777,-0.2929 1.06066,0l1.96967,1.9697l3.9697,-3.96971c0.2929,-0.2929 0.7677,-0.2929 1.0606,0z" fill="white"/>
</svg>
