<svg width="24" height="24" viewBox="0 0 24 24" fill="none" xmlns="http://www.w3.org/2000/svg">
<path fill-rule="evenodd" clip-rule="evenodd" d="M2.25,12c0,-5.38478 4.36522,-9.75 9.75,-9.75c5.3848,0 9.75,4.36522 9.75,9.75c0,5.3848 -4.3652,9.75 -9.75,9.75c-5.38478,0 -9.75,-4.3652 -9.75,-9.75z" fill="#002B51"/>
<path fill-rule="evenodd" clip-rule="evenodd" d="M15.0821,9.97375l-0.0517,0.05665l-1.9698,1.9697l1.9698,1.9698l0.0517,0.0566c0.2403,0.2946 0.2229,0.7293 -0.0517,1.0039c-0.2746,0.2746 -0.7093,0.2921 -1.0039,0.0518l-0.0567,-0.0518l-1.9697,-1.9697l-1.9697,1.9697c-0.2929,0.2929 -0.76766,0.2929 -1.06056,0c-0.29289,-0.2929 -0.29289,-0.7677 0,-1.0606l1.96976,-1.9697l-1.96976,-1.9697l-0.05175,-0.05662c-0.24031,-0.29458 -0.22285,-0.7293 0.05175,-1.00391c0.27461,-0.2746 0.70933,-0.29206 1.00391,-0.05175l0.05665,0.05175l1.9697,1.96973l1.9697,-1.96976l0.0567,-0.05175c0.2946,-0.24031 0.7293,-0.22285 1.0039,0.05175c0.2746,0.27461 0.2921,0.70933 0.0517,1.00391z" fill="white"/>
</svg>
