<svg width="24" height="24" viewBox="0 0 24 24" fill="none" xmlns="http://www.w3.org/2000/svg">
<path fill-rule="evenodd" clip-rule="evenodd" d="M2.25,12c0,-5.38478 4.36522,-9.75 9.75,-9.75c5.3848,0 9.75,4.36522 9.75,9.75c0,5.3848 -4.3652,9.75 -9.75,9.75c-5.38478,0 -9.75,-4.3652 -9.75,-9.75zM15.0304,8.96984c-0.2746,-0.2746 -0.7093,-0.29207 -1.0039,-0.05176l-0.0566,0.05176l-1.9698,1.96976l-1.9697,-1.96973l-0.05664,-0.05176c-0.29459,-0.24031 -0.72931,-0.22284 -1.00391,0.05176c-0.2746,0.2746 -0.29207,0.70933 -0.05176,1.00391l0.05176,0.05662l1.96975,1.9697l-1.96975,1.9697c-0.29289,0.2929 -0.29289,0.7677 0,1.0606c0.29289,0.2929 0.76765,0.2929 1.06055,0l1.9697,-1.9697l1.9698,1.9697l0.0566,0.0518c0.2946,0.2403 0.7293,0.2228 1.0039,-0.0518c0.2746,-0.2746 0.292,-0.7093 0.0518,-1.0039l-0.0518,-0.0566l-1.9697,-1.9698l1.9697,-1.9697l0.0518,-0.05665c0.2403,-0.29459 0.2228,-0.72931 -0.0518,-1.00391z" fill="#002B51"/>
</svg>
