<svg width="24" height="24" viewBox="0 0 24 24" fill="none" xmlns="http://www.w3.org/2000/svg">
<path fill-rule="evenodd" clip-rule="evenodd" d="M2.25,12c0,-5.38478 4.36522,-9.75 9.75,-9.75c5.3848,0 9.75,4.36522 9.75,9.75c0,5.3848 -4.3652,9.75 -9.75,9.75c-5.38478,0 -9.75,-4.3652 -9.75,-9.75z" fill="#002B51"/>
<path d="M15.0265,9.1681c0.2946,-0.24031 0.7293,-0.22284 1.0039,0.05176c0.2746,0.2746 0.2921,0.70932 0.0517,1.00394l-0.0517,0.0566l-4.5,4.5c-0.2746,0.2746 -0.7093,0.2921 -1.0039,0.0518l-0.0567,-0.0518l-2.49996,-2.5l-0.05175,-0.0566c-0.24031,-0.2946 -0.22285,-0.7293 0.05175,-1.0039c0.27461,-0.2746 0.70933,-0.2921 1.00391,-0.0518l0.05664,0.0518l1.96971,1.9697l3.9697,-3.96974z" fill="white"/>
</svg>
