<svg width="24" height="24" viewBox="0 0 24 24" fill="none" xmlns="http://www.w3.org/2000/svg">
<path d="M12,2.25c5.3848,0 9.75,4.36522 9.75,9.75c0,5.3848 -4.3652,9.75 -9.75,9.75c-5.38478,0 -9.75,-4.3652 -9.75,-9.75c0,-5.38478 4.36522,-9.75 9.75,-9.75zM12,3.75c-4.55635,0 -8.25,3.69365 -8.25,8.25c0,4.5563 3.69365,8.25 8.25,8.25c4.5563,0 8.25,-3.6937 8.25,-8.25c0,-4.55635 -3.6937,-8.25 -8.25,-8.25zM14.0264,8.91797c0.2945,-0.24028 0.7293,-0.22274 1.0039,0.05176c0.2746,0.2746 0.292,0.70932 0.0517,1.0039l-0.0517,0.05667l-1.9698,1.9697l1.9698,1.9697l0.0517,0.0567c0.2403,0.2945 0.2229,0.7293 -0.0517,1.0039c-0.2746,0.2746 -0.7094,0.292 -1.0039,0.0517l-0.0567,-0.0517l-1.9697,-1.9698l-1.9697,1.9698c-0.29292,0.2929 -0.76768,0.2929 -1.06057,0c-0.29278,-0.2929 -0.29286,-0.7677 0,-1.0606l1.96977,-1.9697l-1.96977,-1.9697l-0.05176,-0.05667c-0.24019,-0.29458 -0.2228,-0.72934 0.05176,-1.0039c0.27456,-0.27455 0.70933,-0.29195 1.0039,-0.05176l0.05667,0.05176l1.9697,1.96977l1.9697,-1.96977z" fill="#002B51"/>
</svg>
