<svg width="24" height="24" viewBox="0 0 24 24" fill="none" xmlns="http://www.w3.org/2000/svg">
<path d="M12,3c4.9706,0 9,4.02944 9,9c0,4.9706 -4.0294,9 -9,9c-4.97056,0 -9,-4.0294 -9,-9c0,-4.97056 4.02944,-9 9,-9z" stroke="#002B51" stroke-width="1.5" stroke-linecap="round" stroke-linejoin="round"/>
<path d="M12,3c4.9706,0 9,4.02944 9,9c0,4.9706 -4.0294,9 -9,9c-4.97056,0 -9,-4.0294 -9,-9c0,-4.97056 4.02944,-9 9,-9z" fill="#002B51"/>
<path fill-rule="evenodd" clip-rule="evenodd" d="M13.0607,12l1.9696,1.9697c0.2929,0.2929 0.2929,0.7677 0,1.0606c-0.2929,0.2929 -0.7677,0.2929 -1.0606,0l-1.9697,-1.9696l-1.9697,1.9696c-0.29286,0.2929 -0.76774,0.2929 -1.06063,0c-0.29289,-0.2929 -0.29289,-0.7677 0,-1.0606l1.96963,-1.9697l-1.96963,-1.9696c-0.29289,-0.29293 -0.29289,-0.7678 0,-1.0607c0.29289,-0.29289 0.76776,-0.29289 1.06063,0l1.9697,1.9696l1.9697,-1.96963c0.2929,-0.29289 0.7677,-0.29289 1.0606,0c0.2929,0.29289 0.2929,0.76777 0,1.06063z" fill="white"/>
</svg>
