<svg width="24" height="24" viewBox="0 0 24 24" fill="none" xmlns="http://www.w3.org/2000/svg">
<path d="M12,2.25002c5.3848,0 9.75,4.36522 9.75,9.74998c0,5.3848 -4.3652,9.75 -9.75,9.75c-5.38478,0 -9.75,-4.3652 -9.75,-9.75c0,-5.38476 4.36522,-9.74998 9.75,-9.74998zM5.66016,6.72072c-1.19261,1.43063 -1.91016,3.27115 -1.91016,5.27928c0,4.5564 3.69365,8.25 8.25,8.25c2.0081,0 3.8477,-0.7186 5.2783,-1.9111zM12,3.75002c-2.00815,0 -3.84867,0.71754 -5.2793,1.91015l11.6182,11.61813c1.1925,-1.4306 1.9111,-3.2702 1.9111,-5.2783c0,-4.55633 -3.6937,-8.24998 -8.25,-8.24998z" fill="#002B51"/>
</svg>
