<svg width="24" height="24" viewBox="0 0 24 24" fill="none" xmlns="http://www.w3.org/2000/svg">
<path fill-rule="evenodd" clip-rule="evenodd" d="M2.25,12c0,-5.38478 4.36522,-9.75 9.75,-9.75c5.3848,0 9.75,4.36522 9.75,9.75c0,5.3848 -4.3652,9.75 -9.75,9.75c-5.38478,0 -9.75,-4.3652 -9.75,-9.75zM11.25,12.75v2.25c0,0.4142 0.3358,0.75 0.75,0.75c0.4142,0 0.75,-0.3358 0.75,-0.75v-2.25h2.25l0.0772,-0.0039c0.3779,-0.0386 0.6728,-0.3579 0.6728,-0.7461c0,-0.3881 -0.2949,-0.7074 -0.6728,-0.7461l-0.0772,-0.0039h-2.25v-2.25c0,-0.41422 -0.3358,-0.75 -0.75,-0.75c-0.4142,0 -0.75,0.33578 -0.75,0.75v2.25h-2.24999c-0.41421,0 -0.74999,0.3358 -0.75,0.75c0,0.4142 0.33579,0.75 0.75,0.75z" fill="#002B51"/>
</svg>
