<svg width="24" height="24" viewBox="0 0 24 24" fill="none" xmlns="http://www.w3.org/2000/svg">
<path d="M12 3C16.9706 3 21 7.02944 21 12C21 16.9706 16.9706 21 12 21C7.02944 21 3 16.9706 3 12C3 7.02944 7.02944 3 12 3Z" stroke="#002B51" stroke-width="1.5" stroke-linecap="round" stroke-linejoin="round"/>
<path d="M12 3C16.9706 3 21 7.02944 21 12C21 16.9706 16.9706 21 12 21C7.02944 21 3 16.9706 3 12C3 7.02944 7.02944 3 12 3Z" fill="#002B51"/>
<path fill-rule="evenodd" clip-rule="evenodd" d="M15.0303 10.0303C15.3232 9.73744 15.3232 9.26256 15.0303 8.96967C14.7374 8.67678 14.2626 8.67678 13.9697 8.96967L12 10.9393L10.0303 8.9697C9.73743 8.67681 9.26256 8.67681 8.96967 8.9697C8.67678 9.2626 8.67678 9.73747 8.96967 10.0304L10.9393 12L8.96967 13.9697C8.67678 14.2626 8.67678 14.7374 8.96967 15.0303C9.26256 15.3232 9.73744 15.3232 10.0303 15.0303L12 13.0607L13.9697 15.0303C14.2626 15.3232 14.7374 15.3232 15.0303 15.0303C15.3232 14.7374 15.3232 14.2626 15.0303 13.9697L13.0607 12L15.0303 10.0303Z" fill="white"/>
</svg>
