<svg width="24" height="24" viewBox="0 0 24 24" fill="none" xmlns="http://www.w3.org/2000/svg">
<path d="M12,1.75002c5.6609,0 10.25,4.58908 10.25,10.24998c0,5.6609 -4.5891,10.25 -10.25,10.25c-5.66092,0 -10.25,-4.5891 -10.25,-10.25c0,-5.6609 4.58908,-10.24998 10.25,-10.24998zM5.70898,7.47658c-0.91704,1.27314 -1.45898,2.83462 -1.45898,4.52342c0,4.2802 3.46979,7.75 7.75,7.75c1.6888,0 3.2493,-0.543 4.5225,-1.4599zM12,4.25002c-1.6889,0 -3.25029,0.54193 -4.52344,1.45898l10.81344,10.8135c0.917,-1.2731 1.46,-2.8337 1.46,-4.5225c0,-4.28019 -3.4698,-7.74998 -7.75,-7.74998z" fill="#002B51"/>
</svg>
