<svg width="24" height="24" viewBox="0 0 24 24" fill="none" xmlns="http://www.w3.org/2000/svg">
<path d="M12,2.25c5.3848,0 9.75,4.36522 9.75,9.75c0,5.3848 -4.3652,9.75 -9.75,9.75c-5.38478,0 -9.75,-4.3652 -9.75,-9.75c0,-5.38478 4.36522,-9.75 9.75,-9.75zM16.0303,9.21973c-0.2746,-0.27449 -0.7094,-0.29203 -1.0039,-0.05176l-0.0567,0.05176l-3.9697,3.96977l-1.96973,-1.9698l-0.05664,-0.0517c-0.29457,-0.2402 -0.72934,-0.2228 -1.0039,0.0517c-0.27457,0.2746 -0.29196,0.7094 -0.05176,1.0039l0.05176,0.0567l2.49997,2.5l0.0567,0.0517c0.2945,0.2403 0.7293,0.2229 1.0039,-0.0517l4.5,-4.5l0.0517,-0.0567c0.2403,-0.29455 0.2229,-0.72928 -0.0517,-1.00387z" fill="#002B51"/>
</svg>
