<svg width="24" height="24" viewBox="0 0 24 24" fill="none" xmlns="http://www.w3.org/2000/svg">
<path d="M12,3c4.9706,0 9,4.02944 9,9c0,4.9706 -4.0294,9 -9,9c-4.97056,0 -9,-4.0294 -9,-9c0,-4.97056 4.02944,-9 9,-9z" fill="#002B51" stroke="#002B51" stroke-width="1.5" stroke-linecap="round" stroke-linejoin="round"/>
<path d="M12,3c4.9706,0 9,4.02944 9,9c0,4.9706 -4.0294,9 -9,9c-4.97056,0 -9,-4.0294 -9,-9c0,-4.97056 4.02944,-9 9,-9z" fill="#002B51"/>
<path fill-rule="evenodd" clip-rule="evenodd" d="M15,12.75l-6,0.0001c-0.41421,0 -0.75,-0.3358 -0.75,-0.75c0,-0.4142 0.33578,-0.75 0.75,-0.75l6,-0.0001c0.4142,0 0.75,0.3358 0.75,0.75c0,0.4142 -0.3358,0.75 -0.75,0.75z" fill="white"/>
</svg>
