<svg width="24" height="24" viewBox="0 0 24 24" fill="none" xmlns="http://www.w3.org/2000/svg">
<path d="M12 3C16.9706 3 21 7.02944 21 12C21 16.9706 16.9706 21 12 21C7.02944 21 3 16.9706 3 12C3 7.02944 7.02944 3 12 3Z" fill="#002B51" stroke="#002B51" stroke-width="1.5" stroke-linecap="round" stroke-linejoin="round"/>
<path d="M12 3C16.9706 3 21 7.02944 21 12C21 16.9706 16.9706 21 12 21C7.02944 21 3 16.9706 3 12C3 7.02944 7.02944 3 12 3Z" fill="#002B51"/>
<path fill-rule="evenodd" clip-rule="evenodd" d="M15 12.75L9 12.7501C8.58579 12.7501 8.25 12.4143 8.25 12.0001C8.25 11.5859 8.58578 11.2501 9 11.2501L15 11.25C15.4142 11.25 15.75 11.5858 15.75 12C15.75 12.4142 15.4142 12.75 15 12.75Z" fill="white"/>
</svg>
