<svg width="24" height="24" viewBox="0 0 24 24" fill="none" xmlns="http://www.w3.org/2000/svg">
<path fill-rule="evenodd" clip-rule="evenodd" d="M3.75,12c0,4.5563 3.69365,8.25 8.25,8.25c4.5563,0 8.25,-3.6937 8.25,-8.25c0,-4.55635 -3.6937,-8.25 -8.25,-8.25c-4.55635,0 -8.25,3.69365 -8.25,8.25zM2.25,12c0,-5.38478 4.36522,-9.75 9.75,-9.75c5.3848,0 9.75,4.36522 9.75,9.75c0,5.3848 -4.3652,9.75 -9.75,9.75c-5.38478,0 -9.75,-4.3652 -9.75,-9.75zM16.0821,10.2238l-0.0517,0.0566l-4.5,4.5c-0.2746,0.2746 -0.7093,0.2921 -1.0039,0.0518l-0.0567,-0.0518l-2.49996,-2.5l-0.05176,-0.0566c-0.24031,-0.2946 -0.22284,-0.7293 0.05176,-1.0039c0.2746,-0.2746 0.70932,-0.2921 1.0039,-0.0518l0.05665,0.0518l1.96971,1.9697l3.9697,-3.96974l0.0567,-0.05176c0.2946,-0.24031 0.7293,-0.22285 1.0039,0.05176c0.2746,0.2746 0.2921,0.70932 0.0517,1.00394z" fill="#002B51"/>
</svg>
