<svg width="24" height="24" viewBox="0 0 24 24" fill="none" xmlns="http://www.w3.org/2000/svg">
<path fill-rule="evenodd" clip-rule="evenodd" d="M12,20.25c4.5563,0 8.25,-3.6937 8.25,-8.25c0,-4.55635 -3.6937,-8.25 -8.25,-8.25c-4.55635,0 -8.25,3.69365 -8.25,8.25c0,4.5563 3.69365,8.25 8.25,8.25zM21.75,12c0,5.3848 -4.3652,9.75 -9.75,9.75c-5.38478,0 -9.75,-4.3652 -9.75,-9.75c0,-5.38478 4.36522,-9.75 9.75,-9.75c5.3848,0 9.75,4.36522 9.75,9.75zM15.0303,8.96967c0.2929,0.29289 0.2929,0.76776 0,1.06063l-1.9696,1.9697l1.9696,1.9697c0.2929,0.2929 0.2929,0.7677 0,1.0606c-0.2929,0.2929 -0.7677,0.2929 -1.0606,0l-1.9697,-1.9696l-1.9697,1.9696c-0.29286,0.2929 -0.76773,0.2929 -1.06062,0c-0.2929,-0.2929 -0.2929,-0.7677 0,-1.0606l1.96962,-1.9697l-1.96962,-1.9696c-0.2929,-0.29293 -0.2929,-0.76781 0,-1.0607c0.29289,-0.2929 0.76776,-0.2929 1.06062,0l1.9697,1.9696l1.9697,-1.96963c0.2929,-0.2929 0.7677,-0.2929 1.0606,0z" fill="#002B51"/>
</svg>
