<svg width="24" height="24" viewBox="0 0 24 24" fill="none" xmlns="http://www.w3.org/2000/svg">
<path fill-rule="evenodd" clip-rule="evenodd" d="M21.75,12c0,5.3848 -4.3652,9.75 -9.75,9.75c-5.38478,0 -9.75,-4.3652 -9.75,-9.75c0,-5.38478 4.36522,-9.75 9.75,-9.75c5.3848,0 9.75,4.36522 9.75,9.75z" fill="#002B51"/>
<path fill-rule="evenodd" clip-rule="evenodd" d="M13.0607,12l1.9696,1.9697c0.2929,0.2929 0.2929,0.7677 0,1.0606c-0.2929,0.2929 -0.7677,0.2929 -1.0606,0l-1.9697,-1.9696l-1.9697,1.9696c-0.29286,0.2929 -0.76774,0.2929 -1.06063,0c-0.29289,-0.2929 -0.29289,-0.7677 0,-1.0606l1.96963,-1.9697l-1.96963,-1.9696c-0.29289,-0.29293 -0.29289,-0.7678 0,-1.0607c0.29289,-0.29289 0.76776,-0.29289 1.06063,0l1.9697,1.9696l1.9697,-1.96963c0.2929,-0.29289 0.7677,-0.29289 1.0606,0c0.2929,0.29289 0.2929,0.76777 0,1.06063z" fill="white"/>
</svg>
