<svg width="24" height="24" viewBox="0 0 24 24" fill="none" xmlns="http://www.w3.org/2000/svg">
<path fill-rule="evenodd" clip-rule="evenodd" d="M21.75,12c0,5.3848 -4.3652,9.75 -9.75,9.75c-5.38478,0 -9.75,-4.3652 -9.75,-9.75c0,-5.38478 4.36522,-9.75 9.75,-9.75c5.3848,0 9.75,4.36522 9.75,9.75zM12.75,9c0,-0.41422 -0.3358,-0.75 -0.75,-0.75c-0.4142,0 -0.75,0.33578 -0.75,0.75v2.25l-2.25,0.0001c-0.41421,0 -0.74999,0.3357 -0.74999,0.75c0,0.4142 0.33579,0.75 0.75,0.75l2.24999,-0.0001v2.25c0,0.4142 0.3358,0.75 0.75,0.75c0.4142,0 0.75,-0.3358 0.75,-0.75v-2.25h2.25c0.4142,0 0.75,-0.3358 0.75,-0.75c0,-0.4142 -0.3358,-0.75 -0.75,-0.75h-2.25z" fill="#002B51"/>
</svg>
