<svg width="24" height="24" viewBox="0 0 24 24" fill="none" xmlns="http://www.w3.org/2000/svg">
<path d="M12,2.25c5.3848,0 9.75,4.36522 9.75,9.75c0,5.3848 -4.3652,9.75 -9.75,9.75c-5.38478,0 -9.75,-4.3652 -9.75,-9.75c0,-5.38478 4.36522,-9.75 9.75,-9.75zM15.0303,8.96973c-0.2746,-0.2745 -0.7094,-0.29204 -1.0039,-0.05176l-0.0567,0.05176l-1.9697,1.96977l-1.9697,-1.96977l-0.05667,-0.05176c-0.29457,-0.24019 -0.72934,-0.22279 -1.0039,0.05176c-0.27456,0.27456 -0.29195,0.70932 -0.05176,1.0039l0.05176,0.05667l1.96977,1.9697l-1.96977,1.9697c-0.29286,0.2929 -0.29278,0.7677 0,1.0606c0.29289,0.2929 0.76765,0.2929 1.06057,0l1.9697,-1.9698l1.9697,1.9698l0.0567,0.0517c0.2945,0.2403 0.7293,0.2229 1.0039,-0.0517c0.2746,-0.2746 0.292,-0.7094 0.0517,-1.0039l-0.0517,-0.0567l-1.9698,-1.9697l1.9698,-1.9697l0.0517,-0.05667c0.2403,-0.29458 0.2229,-0.7293 -0.0517,-1.0039z" fill="#002B51"/>
</svg>
