<svg width="24" height="24" viewBox="0 0 24 24" fill="none" xmlns="http://www.w3.org/2000/svg">
<path d="M13,2.24994c1.2585,0 2.3168,0.84614 2.6436,2h1.3564c1.5188,0 2.75,1.23122 2.75,2.75v11.99996c0,1.5188 -1.2312,2.75 -2.75,2.75h-10c-1.51878,0 -2.75,-1.2312 -2.75,-2.75v-11.99996c0,-1.51878 1.23122,-2.75 2.75,-2.75h1.35645c0.32671,-1.15386 1.38505,-2 2.64355,-2zM7,5.74994c-0.69036,0 -1.25,0.55964 -1.25,1.25v11.99996c0,0.6904 0.55964,1.25 1.25,1.25h10c0.6904,0 1.25,-0.5596 1.25,-1.25v-11.99996c0,-0.69036 -0.5596,-1.25 -1.25,-1.25h-1.3564c-0.3268,1.15386 -1.3851,2 -2.6436,2h-2c-1.2585,0 -2.31684,-0.84614 -2.64355,-2zM9,16.4999c0.55228,0 1,0.4478 1,1c0,0.5523 -0.44772,1 -1,1c-0.55228,0 -1,-0.4477 -1,-1c0,-0.5522 0.44772,-1 1,-1zM15,16.7499c0.4142,0 0.75,0.3358 0.75,0.75c0,0.4143 -0.3358,0.75 -0.75,0.75h-2c-0.4142,0 -0.75,-0.3357 -0.75,-0.75c0,-0.4142 0.3358,-0.75 0.75,-0.75zM9,12.9999c0.55228,0 1,0.4478 1,1c0,0.5523 -0.44772,1 -1,1c-0.55228,0 -1,-0.4477 -1,-1c0,-0.5522 0.44772,-1 1,-1zM15,13.2499c0.4142,0 0.75,0.3358 0.75,0.75c0,0.4143 -0.3358,0.75 -0.75,0.75h-2c-0.4142,0 -0.75,-0.3357 -0.75,-0.75c0,-0.4142 0.3358,-0.75 0.75,-0.75zM9,9.49994c0.55228,0 1,0.44771 1,0.99996c0,0.5523 -0.44772,1 -1,1c-0.55228,0 -1,-0.4477 -1,-1c0,-0.55225 0.44772,-0.99996 1,-0.99996zM15,9.74994c0.4142,0 0.75,0.33576 0.75,0.74996c0,0.4143 -0.3358,0.75 -0.75,0.75h-2c-0.4142,0 -0.75,-0.3357 -0.75,-0.75c0,-0.4142 0.3358,-0.74996 0.75,-0.74996zM11,3.74994c-0.6904,0 -1.25,0.55964 -1.25,1.25c0,0.69035 0.5596,1.25 1.25,1.25h2c0.6904,0 1.25,-0.55965 1.25,-1.25c0,-0.69036 -0.5596,-1.25 -1.25,-1.25z" fill="#002B51"/>
</svg>
