<svg width="24" height="24" viewBox="0 0 24 24" fill="none" xmlns="http://www.w3.org/2000/svg">
<path fill-rule="evenodd" clip-rule="evenodd" d="M11,3.74995c-0.6904,0 -1.25,0.55965 -1.25,1.25c0,0.69036 0.5596,1.25 1.25,1.25h2c0.6904,0 1.25,-0.55964 1.25,-1.25c0,-0.69035 -0.5596,-1.25 -1.25,-1.25zM15.6465,4.24995h1.3535c1.5188,0 2.75,1.23122 2.75,2.75v12.00005c0,1.5187 -1.2312,2.75 -2.75,2.75h-10c-1.51878,0 -2.75,-1.2313 -2.75,-2.75v-12.00005c0,-1.51878 1.23122,-2.75 2.75,-2.75h1.35352c0.32646,-1.15425 1.3877,-2 2.64648,-2h2c1.2588,0 2.32,0.84575 2.6465,2zM11,7.74995c-1.25878,0 -2.32002,-0.84574 -2.64648,-2h-1.35352c-0.69036,0 -1.25,0.55965 -1.25,1.25v12.00005c0,0.6903 0.55964,1.25 1.25,1.25h10c0.6904,0 1.25,-0.5597 1.25,-1.25v-12.00005c0,-0.69035 -0.5596,-1.25 -1.25,-1.25h-1.3535c-0.3265,1.15426 -1.3877,2 -2.6465,2zM15,9.74995c0.4142,0 0.75,0.33575 0.75,0.75005c0,0.4142 -0.3358,0.75 -0.75,0.75h-2c-0.4142,0 -0.75,-0.3358 -0.75,-0.75c0,-0.4143 0.3358,-0.75005 0.75,-0.75005zM8,10.5c0,-0.55233 0.44772,-1.00005 1,-1.00005c0.55228,0 1,0.44772 1,1.00005c0,0.5522 -0.44772,1 -1,1c-0.55228,0 -1,-0.4478 -1,-1zM15,13.25c0.4142,0 0.75,0.3357 0.75,0.75c0,0.4142 -0.3358,0.75 -0.75,0.75h-2c-0.4142,0 -0.75,-0.3358 -0.75,-0.75c0,-0.4143 0.3358,-0.75 0.75,-0.75zM15,18.25h-2c-0.4142,0 -0.75,-0.3358 -0.75,-0.75c0,-0.4143 0.3358,-0.75 0.75,-0.75h2c0.4142,0 0.75,0.3357 0.75,0.75c0,0.4142 -0.3358,0.75 -0.75,0.75zM10,14c0,0.5522 -0.44772,1 -1,1c-0.55228,0 -1,-0.4478 -1,-1c0,-0.5523 0.44772,-1 1,-1c0.55228,0 1,0.4477 1,1zM8,17.5c0,-0.5523 0.44772,-1 1,-1c0.55228,0 1,0.4477 1,1c0,0.5522 -0.44772,1 -1,1c-0.55228,0 -1,-0.4478 -1,-1z" fill="#002B51"/>
</svg>
