<svg width="24" height="24" viewBox="0 0 24 24" fill="none" xmlns="http://www.w3.org/2000/svg">
<path fill-rule="evenodd" clip-rule="evenodd" d="M11,3.74997c-0.6904,0 -1.25,0.55964 -1.25,1.25c0,0.69036 0.5596,1.25 1.25,1.25h2c0.6904,0 1.25,-0.55964 1.25,-1.25c0,-0.69036 -0.5596,-1.25 -1.25,-1.25zM15.6465,4.24997h1.3535c1.5188,0 2.75,1.23122 2.75,2.75v12.00003c0,1.5188 -1.2312,2.75 -2.75,2.75h-10c-1.51878,0 -2.75,-1.2312 -2.75,-2.75v-12.00003c0,-1.51878 1.23122,-2.75 2.75,-2.75h1.35352c0.32646,-1.15425 1.3877,-2 2.64648,-2h2c1.2588,0 2.32,0.84575 2.6465,2zM11,7.74997c-1.25878,0 -2.32002,-0.84575 -2.64648,-2h-1.35352c-0.69036,0 -1.25,0.55964 -1.25,1.25v12.00003c0,0.6903 0.55964,1.25 1.25,1.25h10c0.6904,0 1.25,-0.5597 1.25,-1.25v-12.00003c0,-0.69036 -0.5596,-1.25 -1.25,-1.25h-1.3535c-0.3265,1.15425 -1.3877,2 -2.6465,2z" fill="#002B51"/>
</svg>
