<svg width="24" height="24" viewBox="0 0 24 24" fill="none" xmlns="http://www.w3.org/2000/svg">
<path d="M13,2.24995c1.2585,0 2.3168,0.84614 2.6436,2h1.3564c1.5188,0 2.75,1.23122 2.75,2.75v12.00005c0,1.5187 -1.2312,2.75 -2.75,2.75h-10c-1.51878,0 -2.75,-1.2313 -2.75,-2.75v-12.00005c0,-1.51878 1.23122,-2.75 2.75,-2.75h0.85645c0.32671,-1.15386 1.38505,-2 2.64355,-2zM9,16.5c-0.55228,0 -1,0.4477 -1,1c0,0.5522 0.44772,1 1,1c0.55228,0 1,-0.4478 1,-1c0,-0.5523 -0.44772,-1 -1,-1zM13,16.75c-0.4142,0 -0.75,0.3357 -0.75,0.75c0,0.4142 0.3358,0.75 0.75,0.75h2c0.4142,0 0.75,-0.3358 0.75,-0.75c0,-0.4143 -0.3358,-0.75 -0.75,-0.75zM9,13c-0.55228,0 -1,0.4477 -1,1c0,0.5522 0.44772,1 1,1c0.55228,0 1,-0.4478 1,-1c0,-0.5523 -0.44772,-1 -1,-1zM13,13.25c-0.4142,0 -0.75,0.3357 -0.75,0.75c0,0.4142 0.3358,0.75 0.75,0.75h2c0.4142,0 0.75,-0.3358 0.75,-0.75c0,-0.4143 -0.3358,-0.75 -0.75,-0.75zM9,9.49995c-0.55228,0 -1,0.44772 -1,1.00005c0,0.5522 0.44772,1 1,1c0.55228,0 1,-0.4478 1,-1c0,-0.55233 -0.44772,-1.00005 -1,-1.00005zM13,9.74995c-0.4142,0 -0.75,0.33575 -0.75,0.75005c0,0.4142 0.3358,0.75 0.75,0.75h2c0.4142,0 0.75,-0.3358 0.75,-0.75c0,-0.4143 -0.3358,-0.75005 -0.75,-0.75005zM10.5,3.74995c-0.69036,0 -1.25,0.55965 -1.25,1.25c0,0.69036 0.55964,1.25 1.25,1.25h2.5c0.6904,0 1.25,-0.55964 1.25,-1.25c0,-0.69035 -0.5596,-1.25 -1.25,-1.25z" fill="#002B51"/>
</svg>
