<svg width="24" height="24" viewBox="0 0 24 24" fill="none" xmlns="http://www.w3.org/2000/svg">
<path d="M13,2.24997c1.2585,0 2.3168,0.84614 2.6436,2h1.3564c1.5188,0 2.75,1.23122 2.75,2.75v12.00003c0,1.5188 -1.2312,2.75 -2.75,2.75h-10c-1.51878,0 -2.75,-1.2312 -2.75,-2.75v-12.00003c0,-1.51878 1.23122,-2.75 2.75,-2.75h0.85645c0.32671,-1.15386 1.38505,-2 2.64355,-2zM10.5,3.74997c-0.69036,0 -1.25,0.55964 -1.25,1.25c0,0.69036 0.55964,1.25 1.25,1.25h2.5c0.6904,0 1.25,-0.55964 1.25,-1.25c0,-0.69036 -0.5596,-1.25 -1.25,-1.25z" fill="#002B51"/>
</svg>
