<svg width="24" height="24" viewBox="0 0 24 24" fill="none" xmlns="http://www.w3.org/2000/svg">
<path fill-rule="evenodd" clip-rule="evenodd" d="M12 2.25C6.61522 2.25 2.25 6.61522 2.25 12C2.25 17.3848 6.61522 21.75 12 21.75C17.3848 21.75 21.75 17.3848 21.75 12C21.75 6.61522 17.3848 2.25 12 2.25ZM12 6.125C12.4832 6.125 12.875 6.51675 12.875 7V11.5317L15.4854 13.272C15.8875 13.54 15.9961 14.0833 15.728 14.4854C15.46 14.8875 14.9167 14.9961 14.5146 14.728L11.5146 12.728C11.2712 12.5658 11.125 12.2926 11.125 12V7C11.125 6.51675 11.5168 6.125 12 6.125Z" fill="#002B51"/>
</svg>
