<svg width="24" height="24" viewBox="0 0 24 24" fill="none" xmlns="http://www.w3.org/2000/svg">
<path fill-rule="evenodd" clip-rule="evenodd" d="M21.75,12c0,5.3848 -4.3652,9.75 -9.75,9.75c-5.38478,0 -9.75,-4.3652 -9.75,-9.75c0,-5.38478 4.36522,-9.75 9.75,-9.75c5.3848,0 9.75,4.36522 9.75,9.75zM11.125,7v5c0,0.2926 0.1462,0.5658 0.3896,0.728l3,2c0.4021,0.2681 0.9454,0.1595 1.2134,-0.2426c0.2681,-0.4021 0.1595,-0.9454 -0.2426,-1.2134l-2.6104,-1.7403v-4.5317c0,-0.48325 -0.3918,-0.875 -0.875,-0.875c-0.4832,0 -0.875,0.39175 -0.875,0.875z" fill="#002B51"/>
</svg>
