<svg width="24" height="24" viewBox="0 0 24 24" fill="none" xmlns="http://www.w3.org/2000/svg">
<path fill-rule="evenodd" clip-rule="evenodd" d="M21.75,12c0,5.3848 -4.3652,9.75 -9.75,9.75c-5.38478,0 -9.75,-4.3652 -9.75,-9.75c0,-5.38478 4.36522,-9.75 9.75,-9.75c5.3848,0 9.75,4.36522 9.75,9.75zM11.25,7v5c0,0.2508 0.1253,0.4849 0.334,0.624l3,2c0.3446,0.2298 0.8103,0.1367 1.04,-0.208c0.2298,-0.3446 0.1367,-0.8103 -0.208,-1.04l-2.666,-1.7774v-4.5986c0,-0.41421 -0.3358,-0.75 -0.75,-0.75c-0.4142,0 -0.75,0.33579 -0.75,0.75z" fill="#002B51"/>
</svg>
