<svg width="24" height="24" viewBox="0 0 24 24" fill="none" xmlns="http://www.w3.org/2000/svg">
<path fill-rule="evenodd" clip-rule="evenodd" d="M2.25,12c0,-5.38478 4.36522,-9.75 9.75,-9.75c5.3848,0 9.75,4.36522 9.75,9.75c0,5.3848 -4.3652,9.75 -9.75,9.75c-5.38478,0 -9.75,-4.3652 -9.75,-9.75zM11.25,12c0,0.2508 0.1253,0.4849 0.334,0.624l3,2l0.0664,0.0391c0.3359,0.1776 0.7583,0.0759 0.9736,-0.2471c0.2154,-0.3231 0.1469,-0.7524 -0.1465,-0.9941l-0.0615,-0.0459l-2.666,-1.7774v-4.5986c0,-0.41421 -0.3358,-0.75 -0.75,-0.75c-0.4142,0 -0.75,0.33579 -0.75,0.75z" fill="#002B51"/>
</svg>
