<svg width="24" height="24" viewBox="0 0 24 24" fill="none" xmlns="http://www.w3.org/2000/svg">
<path d="M3.46973,3.4698c0.27457,-0.27455 0.70933,-0.29197 1.0039,-0.05176l0.05664,0.05176l16.00003,16l0.0517,0.0566c0.2403,0.2946 0.2229,0.7293 -0.0517,1.0039c-0.2746,0.2747 -0.7094,0.2921 -1.0039,0.0518l-0.0567,-0.0518l-1.5537,-1.5537c-0.1369,0.0135 -0.2755,0.0235 -0.416,0.0235h-9.5c-3.17564,0 -5.75,-2.5744 -5.75,-5.75c0,-0.0202 0.00077,-0.0404 0.00098,-0.0606c0.00477,-0.0241 0.01173,-0.0481 0.01367,-0.0732l0.04004,-0.3526c0.1217,-0.8173 0.4442,-1.594 0.9414,-2.2587l0.22266,-0.2764c0.5408,-0.62508 1.22974,-1.10752 2.00586,-1.40235c0.63138,-0.23983 1.3022,-0.34562 1.97168,-0.31934l-3.97656,-3.97656l-0.05176,-0.05664c-0.24021,-0.29458 -0.22281,-0.72934 0.05176,-1.00391zM17.4248,11.5987c0.6346,-0.1539 1.3023,-0.1273 1.9258,0.0791l0.2617,0.0986c0.6016,0.2543 1.122,0.6728 1.5,1.21l0.1523,0.2354c0.2967,0.5029 0.4613,1.0728 0.4815,1.6572c-0.0311,1.0436 -0.4397,1.9912 -1.0918,2.7148l-4.9707,-4.9707c0.4013,-0.4331 0.9062,-0.761 1.4717,-0.9472zM12,5.00008c3.1127,0 5.6919,2.2757 6.1689,5.25392c-0.4117,0.007 -0.8228,0.0646 -1.2226,0.1787l-0.1826,0.0557c-0.752,0.2477 -1.4267,0.6786 -1.9658,1.249l-5.90728,-5.90725c0.91567,-0.52716 1.97678,-0.83007 3.10938,-0.83007z" fill="#002B51"/>
</svg>
