<svg width="24" height="24" viewBox="0 0 24 24" fill="none" xmlns="http://www.w3.org/2000/svg">
<path fill-rule="evenodd" clip-rule="evenodd" d="M6.92584,7.60029c1.13375,-1.57362 2.98384,-2.60029 5.07416,-2.60029c3.2184,0 5.8686,2.4326 6.2123,5.5594c2.0081,0.3389 3.5377,2.0861 3.5377,4.1906c0,2.3472 -1.9028,4.25 -4.25,4.25h-4.5h-1h-4c-3.17564,0 -5.75,-2.5744 -5.75,-5.75c0,-2.8088 2.01331,-5.14626 4.67584,-5.64971zM9.46967,12.2803c0.29289,0.2929 0.76773,0.2929 1.06063,0l0.7197,-0.7196v3.6893c0,0.4142 0.3358,0.75 0.75,0.75c0.4142,0 0.75,-0.3358 0.75,-0.75v-3.6893l0.7197,0.7196c0.2929,0.2929 0.7677,0.2929 1.0606,0c0.2929,-0.2929 0.2929,-0.7677 0,-1.0606l-2,-2.00003c-0.2929,-0.29289 -0.7677,-0.29289 -1.0606,0l-2.00003,2.00003c-0.29289,0.2929 -0.29289,0.7677 0,1.0606z" fill="#002B51"/>
</svg>
