<svg width="24" height="24" viewBox="0 0 24 24" fill="none" xmlns="http://www.w3.org/2000/svg">
<path fill-rule="evenodd" clip-rule="evenodd" d="M20.5303,19.4697c0.2929,0.2929 0.2929,0.7678 0,1.0606c-0.2929,0.2929 -0.7678,0.2929 -1.0607,0l-1.5506,-1.5506c-0.1379,0.0135 -0.2776,0.0204 -0.419,0.0204h-3.75h-0.75h-1h-0.75h-3.25c-3.17564,0 -5.75,-2.5744 -5.75,-5.75l0.00013,-0.0386c0.00719,-0.0308 0.01214,-0.0625 0.01464,-0.095c0.07279,-0.946 0.41325,-1.8518 0.98161,-2.6115c0.56835,-0.75979 1.34115,-1.34213 2.22812,-1.67906c0.6305,-0.2395 1.30018,-0.34797 1.96859,-0.32214l-3.97345,-3.97345c-0.29289,-0.2929 -0.29289,-0.76777 0,-1.06066c0.29289,-0.2929 0.76777,-0.2929 1.06066,0zM21.748,14.8801c-0.0313,1.0435 -0.4388,1.9924 -1.0915,2.7159l-4.9742,-4.9742c0.4012,-0.4332 0.9074,-0.7598 1.4729,-0.9461c0.713,-0.2348 1.4825,-0.2342 2.1951,0.0018c0.7126,0.2359 1.3304,0.6947 1.7623,1.3086c0.3922,0.5574 0.6122,1.2159 0.6354,1.894zM16.7642,10.4885c-0.7523,0.2477 -1.4271,0.6784 -1.9663,1.2489l-5.90912,-5.90915c0.91617,-0.52687 1.97852,-0.82819 3.11122,-0.82819c3.1116,0 5.6922,2.27392 6.1705,5.25064c-0.4751,0.008 -0.9493,0.0872 -1.4063,0.2378z" fill="#002B51"/>
</svg>
