<svg width="24" height="24" viewBox="0 0 24 24" fill="none" xmlns="http://www.w3.org/2000/svg">
<path d="M12,5c3.2187,0 5.8677,2.43326 6.2109,5.5605c2.0089,0.3386 3.5391,2.0845 3.5391,4.1895c0,2.2738 -1.7857,4.1303 -4.0312,4.2441l-0.2188,0.0059h-9.5c-3.17564,0 -5.75,-2.5744 -5.75,-5.75c0,-2.8092 2.01413,-5.14432 4.67676,-5.64746c1.13344,-1.57408 2.98218,-2.60254 5.07324,-2.60254zM12,6.5c-1.6813,0 -3.1586,0.87375 -4.00391,2.19531l-0.18945,0.2959l-0.34766,0.04395c-2.09145,0.26545 -3.70898,2.05154 -3.70898,4.21484c0,2.3472 1.90279,4.25 4.25,4.25h9.5l0.2812,-0.0146c1.3867,-0.1409 2.4688,-1.3116 2.4688,-2.7354c0,-1.4689 -1.152,-2.6693 -2.6016,-2.7461l-0.1689,-0.0039l-0.7295,-0.0205v-0.7295c0,-2.62335 -2.1266,-4.75 -4.75,-4.75zM12,9c0.4142,0 0.75,0.33579 0.75,0.75v3.6895l0.7197,-0.7198l0.0567,-0.0517c0.2945,-0.2403 0.7293,-0.2229 1.0039,0.0517c0.2746,0.2746 0.292,0.7094 0.0517,1.0039l-0.0517,0.0567l-2,2c-0.2746,0.2746 -0.7094,0.292 -1.0039,0.0517l-0.0567,-0.0517l-1.99997,-2c-0.2929,-0.2929 -0.2929,-0.7677 0,-1.0606c0.29289,-0.2929 0.76767,-0.2929 1.06057,0l0.7197,0.7198v-3.6895c0,-0.41421 0.3358,-0.75 0.75,-0.75z" fill="#002B51"/>
</svg>
