<svg width="24" height="24" viewBox="0 0 24 24" fill="none" xmlns="http://www.w3.org/2000/svg">
<path d="M3.46979,3.46982c0.27457,-0.27456 0.70933,-0.29197 1.0039,-0.05176l0.05664,0.05176l15.99997,15.99998l0.0518,0.0567c0.2403,0.2945 0.2228,0.7293 -0.0518,1.0039c-0.2746,0.2746 -0.7093,0.292 -1.0039,0.0517l-0.0566,-0.0517l-1.5527,-1.5528c-0.0658,0.0065 -0.1317,0.0133 -0.1983,0.0166l-0.2187,0.0059h-9.50004c-3.17564,0 -5.75,-2.5744 -5.75,-5.75c0.00002,-2.6971 1.85673,-4.95679 4.36133,-5.57813l-3.1416,-3.14161l-0.05176,-0.05664c-0.24021,-0.29458 -0.22281,-0.72933 0.05176,-1.0039zM12.0001,5.00009c3.2187,0 5.8676,2.43328 6.2109,5.56051c2.0088,0.3385 3.539,2.0845 3.5391,4.1895c0,1.0946 -0.4151,2.0914 -1.0948,2.8447l-1.0644,-1.0644c0.4092,-0.48 0.6592,-1.1 0.6592,-1.7803c-0.0001,-1.4689 -1.1521,-2.6693 -2.6016,-2.7461l-0.1689,-0.0039l-0.0196,-0.001c-0.0026,0.0001 -0.0052,0.0009 -0.0078,0.001c-0.6385,0.0112 -1.2509,0.2455 -1.7344,0.6572l-1.0634,-1.0635l0.0312,-0.0283c0.5733,-0.5066 1.2703,-0.8467 2.0156,-0.9892c-0.3273,-2.30415 -2.3066,-4.07621 -4.7011,-4.07621c-0.7143,0 -1.3922,0.15671 -2,0.43945l-1.10941,-1.10937c0.91541,-0.52697 1.97651,-0.83008 3.10941,-0.83008zM7.94049,9.00107c-0.14642,0.0021 -0.2928,0.01114 -0.43848,0.02832l-0.04296,0.00586c-2.09144,0.26545 -3.70897,2.05155 -3.70899,4.21485c0,2.3472 1.90279,4.25 4.25,4.25h8.43944z" fill="#002B51"/>
</svg>
