<svg width="24" height="24" viewBox="0 0 24 24" fill="none" xmlns="http://www.w3.org/2000/svg">
<path d="M3.46973,3.4698c0.27456,-0.27456 0.70932,-0.29196 1.0039,-0.05176l0.05664,0.05176l16.00003,16l0.0517,0.0566c0.2403,0.2946 0.2229,0.7293 -0.0517,1.0039c-0.2746,0.2746 -0.7094,0.2921 -1.0039,0.0518l-0.0567,-0.0518l-1.5527,-1.5527c-0.0657,0.0065 -0.1317,0.0132 -0.1982,0.0166l-0.2188,0.0059h-9.5c-3.17564,0 -5.75,-2.5744 -5.75,-5.75c0.00002,-2.6971 1.85673,-4.95681 4.36133,-5.57815l-3.1416,-3.1416l-0.05176,-0.05664c-0.2402,-0.29458 -0.2228,-0.72935 0.05176,-1.00391zM12,5.00007c3.2187,0 5.8677,2.43328 6.2109,5.56053c2.0089,0.3385 3.5391,2.0845 3.5391,4.1895c0,1.0946 -0.415,2.0914 -1.0947,2.8447l-1.0645,-1.0645c0.4092,-0.4799 0.6592,-1.1 0.6592,-1.7802c0,-1.4689 -1.152,-2.6693 -2.6016,-2.7461l-0.1689,-0.0039l-0.7295,-0.0205v-0.7295c0,-2.62336 -2.1267,-4.75003 -4.75,-4.75003c-0.7141,0 -1.3913,0.15783 -1.999,0.44043l-1.11038,-1.11035c0.91542,-0.52696 1.97648,-0.83008 3.10938,-0.83008zM7.80664,8.99128l-0.34766,0.04395c-2.09143,0.26545 -3.70896,2.05157 -3.70898,4.21487c0,2.3472 1.90279,4.25 4.25,4.25h8.4395l-8.58501,-8.58499z" fill="#002B51"/>
</svg>
