<svg width="24" height="24" viewBox="0 0 24 24" fill="none" xmlns="http://www.w3.org/2000/svg">
<path fill-rule="evenodd" clip-rule="evenodd" d="M4.53033 3.46969C4.23744 3.17679 3.76257 3.17679 3.46967 3.46969C3.17678 3.76258 3.17678 4.23745 3.46967 4.53035L6.60895 7.66962C4.10518 8.2919 2.25 10.5538 2.25 13.2501C2.25 16.4257 4.82436 19.0001 8 19.0001H12H13H17.5C17.6414 19.0001 17.7812 18.9932 17.919 18.9797L19.4697 20.5303C19.7626 20.8232 20.2374 20.8232 20.5303 20.5303C20.8232 20.2375 20.8232 19.7626 20.5303 19.4697L4.53033 3.46969ZM21.75 14.7501C21.75 15.8446 21.3362 16.8426 20.6565 17.596L8.8889 5.82833C9.80485 5.3016 10.8671 5.00006 12 5.00006C15.2184 5.00006 17.8686 7.43266 18.2123 10.5595C20.2204 10.8983 21.75 12.6456 21.75 14.7501Z" fill="#002B51"/>
</svg>
