<svg width="24" height="24" viewBox="0 0 24 24" fill="none" xmlns="http://www.w3.org/2000/svg">
<path d="M12,5c3.2187,0 5.8677,2.43326 6.211,5.5605c2.0088,0.3386 3.539,2.0845 3.539,4.1895c0,2.2738 -1.7857,4.1303 -4.0312,4.2441l-0.2188,0.0059h-9.49997c-3.17564,0 -5.75,-2.5744 -5.75,-5.75c0,-2.8092 2.01413,-5.14432 4.67676,-5.64746c1.13344,-1.57408 2.98218,-2.60254 5.07321,-2.60254zM12,6.5c-1.1471,0 -2.19922,0.40677 -3.02048,1.08496c0.11834,0.02043 0.2364,0.04339 0.35352,0.07129l0.28418,0.07617c0.56378,0.16526 1.09908,0.41576 1.58688,0.74317l0.2403,0.16992l0.0595,0.0498c0.2793,0.25729 0.3241,0.68926 0.0918,1c-0.2326,0.31099 -0.6604,0.39029 -0.9863,0.19434l-0.0635,-0.04297l-0.1777,-0.12598c-0.3605,-0.24191 -0.75623,-0.42671 -1.17286,-0.54882l-0.20996,-0.05665c-0.48594,-0.11576 -0.9884,-0.14437 -1.4834,-0.08593l-0.04297,0.00586c-2.09144,0.26545 -3.70898,2.05154 -3.70898,4.21484c0,2.3472 1.90279,4.25 4.25,4.25h9.49997l0.2813,-0.0146c1.3866,-0.1409 2.4687,-1.3116 2.4687,-2.7354c0,-1.4689 -1.152,-2.6693 -2.6015,-2.7461l-0.169,-0.0039l-0.0195,-0.001c-0.0026,0.0001 -0.0052,0.001 -0.0078,0.001c-0.6993,0.0122 -1.3677,0.2908 -1.8692,0.7783l-0.0576,0.0508c-0.2979,0.2363 -0.7321,0.2129 -1.0029,-0.0654c-0.2888,-0.297 -0.2823,-0.7718 0.0146,-1.0606l0.1485,-0.1377c0.5733,-0.5067 1.2703,-0.8467 2.0156,-0.9892c-0.3273,-2.30416 -2.3066,-4.0762 -4.7012,-4.0762z" fill="#002B51"/>
</svg>
