<svg width="24" height="24" viewBox="0 0 24 24" fill="none" xmlns="http://www.w3.org/2000/svg">
<path fill-rule="evenodd" clip-rule="evenodd" d="M20.5303,19.4697c0.2929,0.2929 0.2929,0.7678 0,1.0606c-0.2929,0.2929 -0.7677,0.2929 -1.0606,0l-1.5507,-1.5506c-0.1378,0.0135 -0.2776,0.0204 -0.419,0.0204h-4.5h-1h-3.99997c-3.17564,0 -5.75,-2.5744 -5.75,-5.75c0,-2.6963 1.85516,-4.95818 4.35893,-5.58047l-3.13929,-3.13928c-0.29289,-0.2929 -0.29289,-0.76777 0,-1.06066c0.2929,-0.2929 0.76777,-0.2929 1.06066,0zM16.4394,17.5001l-8.49959,-8.49962c-0.22673,0.00322 -0.4534,0.02457 -0.67783,0.06415c-0.01103,0.00194 -0.02206,0.00364 -0.03306,0.00508c-1.97881,0.36234 -3.47889,2.09669 -3.47889,4.18039c0,2.3472 1.90279,4.25 4.25,4.25h3.99997h1zM12,6.50006c-0.7141,0 -1.3916,0.1575 -1.9994,0.43994l-1.11169,-1.11165c0.91596,-0.52674 1.97829,-0.82829 3.11109,-0.82829c3.2184,0 5.8686,2.4326 6.2123,5.55944c2.0081,0.3388 3.5377,2.0861 3.5377,4.1906c0,1.0945 -0.4138,2.0925 -1.0935,2.8459l-1.0628,-1.0629c0.4093,-0.4801 0.6563,-1.1027 0.6563,-1.783c0,-1.5188 -1.2312,-2.75 -2.75,-2.75h-0.0328l-0.0152,0.0004c-0.6387,0.0111 -1.2515,0.2441 -1.735,0.6559l-1.0629,-1.0628c0.5795,-0.5225 1.289,-0.873 2.0484,-1.0181c-0.3275,-2.30385 -2.3081,-4.07544 -4.7025,-4.07544z" fill="#002B51"/>
</svg>
