<svg width="24" height="24" viewBox="0 0 24 24" fill="none" xmlns="http://www.w3.org/2000/svg">
<path d="M12,5c3.1123,0 5.6915,2.27517 6.1689,5.2529c-0.4747,0.008 -0.9486,0.085 -1.4052,0.2354c-0.9674,0.3187 -1.8071,0.9404 -2.3946,1.7724c-0.1987,0.282 -0.1314,0.6721 0.1504,0.8711c0.282,0.1991 0.672,0.1316 0.8711,-0.1504c0.4329,-0.6131 1.0518,-1.0708 1.7647,-1.3056c0.7128,-0.2348 1.4828,-0.234 2.1953,0.0019c0.7123,0.236 1.3299,0.6949 1.7617,1.3086c0.3938,0.5597 0.612,1.2213 0.6338,1.9024c-0.0732,2.283 -1.9453,4.1113 -4.2461,4.1113h-9.5c-3.17564,0 -5.75,-2.5744 -5.75,-5.75c0,-0.0202 0.00077,-0.0404 0.00098,-0.0605c0.00476,-0.0242 0.01173,-0.0482 0.01367,-0.0733c0.07282,-0.9459 0.41319,-1.8517 0.98144,-2.6113c0.56835,-0.75974 1.34158,-1.3418 2.22852,-1.67873c0.88694,-0.3369 1.85185,-0.4144 2.78125,-0.22363c0.9292,0.19085 1.78544,0.64183 2.46774,1.30078c0.2483,0.23958 0.6441,0.23258 0.8838,-0.01562c0.2395,-0.24832 0.2326,-0.64411 -0.0156,-0.88379c-0.8531,-0.82381 -1.92326,-1.38748 -3.08496,-1.62598c-0.43184,-0.08864 -0.86983,-0.13134 -1.30664,-0.12793c1.14639,-1.3743 2.8702,-2.25 4.7998,-2.25z" fill="#002B51"/>
</svg>
