<svg width="24" height="24" viewBox="0 0 24 24" fill="none" xmlns="http://www.w3.org/2000/svg">
<path fill-rule="evenodd" clip-rule="evenodd" d="M13 19H13.75H17.5C19.8037 19 21.6793 17.1671 21.748 14.8801C21.7248 14.2019 21.5048 13.5435 21.1126 12.9861C20.6807 12.3722 20.0629 11.9134 19.3503 11.6774C18.6377 11.4415 17.8682 11.4409 17.1552 11.6757C16.4423 11.9105 15.8237 12.3683 15.3908 12.9815C15.1917 13.2635 14.8018 13.3307 14.5198 13.1316C14.2378 12.9326 14.1705 12.5426 14.3696 12.2606C14.9571 11.4284 15.7966 10.8071 16.7642 10.4884C17.2212 10.3379 17.6954 10.2586 18.1705 10.2507C17.6922 7.27392 15.1116 5 12 5C10.0697 5 8.34373 5.87511 7.19726 7.25023C7.635 7.24654 8.07393 7.28882 8.50677 7.37767C9.66856 7.61615 10.7385 8.18027 11.5916 9.00414C11.8399 9.24392 11.8469 9.63959 11.6071 9.88789C11.3673 10.1362 10.9716 10.1431 10.7233 9.90332C10.0408 9.24422 9.18485 8.79292 8.25542 8.60214C7.326 8.41135 6.36147 8.48896 5.4745 8.82588C4.58753 9.16281 3.81473 9.74515 3.24638 10.5049C2.67802 11.2646 2.33756 12.1704 2.26477 13.1164C2.26227 13.1489 2.25732 13.1807 2.25013 13.2114C2.25004 13.2243 2.25 13.2371 2.25 13.25C2.25 16.4256 4.82436 19 8 19H11.25H12H13Z" fill="#002B51"/>
</svg>
