<svg width="24" height="24" viewBox="0 0 24 24" fill="none" xmlns="http://www.w3.org/2000/svg">
<path fill-rule="evenodd" clip-rule="evenodd" d="M6.92584 7.60029C8.05959 6.02667 9.90968 5 12 5C15.2184 5 17.8686 7.4326 18.2123 10.5594C20.2204 10.8983 21.75 12.6455 21.75 14.75C21.75 17.0972 19.8472 19 17.5 19H13H12H8C4.82436 19 2.25 16.4256 2.25 13.25C2.25 10.4412 4.26331 8.10374 6.92584 7.60029ZM9.46967 11.2197L11.4697 9.21967C11.7626 8.92678 12.2374 8.92678 12.5303 9.21967L14.5303 11.2197C14.8232 11.5126 14.8232 11.9874 14.5303 12.2803C14.2374 12.5732 13.7626 12.5732 13.4697 12.2803L12.75 11.5607V15.25C12.75 15.6642 12.4142 16 12 16C11.5858 16 11.25 15.6642 11.25 15.25V11.5607L10.5303 12.2803C10.2374 12.5732 9.76256 12.5732 9.46967 12.2803C9.17678 11.9874 9.17678 11.5126 9.46967 11.2197Z" fill="#002B51"/>
</svg>
