<svg width="24" height="24" viewBox="0 0 24 24" fill="none" xmlns="http://www.w3.org/2000/svg">
<path d="M3.46973,3.46982c0.27457,-0.27456 0.70933,-0.29197 1.0039,-0.05176l0.05664,0.05176l16.00003,15.99998l0.0517,0.0567c0.2403,0.2945 0.2229,0.7293 -0.0517,1.0039c-0.2746,0.2746 -0.7094,0.292 -1.0039,0.0517l-0.0567,-0.0517l-1.5537,-1.5537c-0.1369,0.0134 -0.2755,0.0234 -0.416,0.0234h-9.5c-3.17564,0 -5.75,-2.5744 -5.75,-5.75c0,-0.0202 0.00077,-0.0404 0.00098,-0.0606c0.00477,-0.0241 0.01173,-0.0481 0.01367,-0.0732l0.04004,-0.3525c0.1217,-0.8174 0.4442,-1.5941 0.9414,-2.2588l0.22266,-0.2764c0.5408,-0.62506 1.22974,-1.10751 2.00586,-1.40234c0.63138,-0.23983 1.3022,-0.34561 1.97168,-0.31933l-3.97656,-3.97657l-0.05176,-0.05664c-0.24021,-0.29458 -0.22281,-0.72933 0.05176,-1.0039zM17.4248,11.5987c0.6346,-0.1539 1.3023,-0.1273 1.9258,0.0791l0.2617,0.0987c0.6016,0.2542 1.122,0.6727 1.5,1.2099l0.1523,0.2354c0.2967,0.5029 0.4613,1.0728 0.4815,1.6572c-0.0311,1.0436 -0.4397,1.9912 -1.0918,2.7148l-4.9707,-4.9707c0.4013,-0.4331 0.9062,-0.761 1.4717,-0.9472zM12,5.00009c3.1127,0 5.6919,2.27571 6.1689,5.25391c-0.4117,0.007 -0.8228,0.0646 -1.2226,0.1787l-0.1826,0.0557c-0.752,0.2477 -1.4267,0.6786 -1.9658,1.249l-5.90728,-5.90723c0.91567,-0.52717 1.97678,-0.83008 3.10938,-0.83008z" fill="#002B51"/>
</svg>
