<svg width="24" height="24" viewBox="0 0 24 24" fill="none" xmlns="http://www.w3.org/2000/svg">
<path fill-rule="evenodd" clip-rule="evenodd" d="M6.92584 7.60029C8.05959 6.02667 9.90968 5 12 5C15.2184 5 17.8686 7.4326 18.2123 10.5594C20.2204 10.8983 21.75 12.6455 21.75 14.75C21.75 17.0972 19.8472 19 17.5 19H13H12H8C4.82436 19 2.25 16.4256 2.25 13.25C2.25 10.4412 4.26331 8.10374 6.92584 7.60029ZM14.5303 13.7803L12.5303 15.7803C12.2374 16.0732 11.7626 16.0732 11.4697 15.7803L9.46967 13.7803C9.17678 13.4874 9.17678 13.0126 9.46967 12.7197C9.76256 12.4268 10.2374 12.4268 10.5303 12.7197L11.25 13.4393V9.75C11.25 9.33579 11.5858 9 12 9C12.4142 9 12.75 9.33579 12.75 9.75V13.4393L13.4697 12.7197C13.7626 12.4268 14.2374 12.4268 14.5303 12.7197C14.8232 13.0126 14.8232 13.4874 14.5303 13.7803Z" fill="#002B51"/>
</svg>
