<svg width="24" height="24" viewBox="0 0 24 24" fill="none" xmlns="http://www.w3.org/2000/svg">
<path d="M3.46973,3.46982c0.27456,-0.27457 0.70932,-0.29196 1.0039,-0.05176l0.05664,0.05176l16.00003,15.99998l0.0517,0.0567c0.2403,0.2945 0.2229,0.7293 -0.0517,1.0039c-0.2746,0.2746 -0.7094,0.292 -1.0039,0.0517l-0.0567,-0.0517l-1.5527,-1.5528c-0.0657,0.0065 -0.1317,0.0133 -0.1982,0.0166l-0.2188,0.0059h-9.5c-3.17564,0 -5.75,-2.5744 -5.75,-5.75c0.00002,-2.6971 1.85673,-4.95679 4.36133,-5.57814l-3.1416,-3.1416l-0.05176,-0.05664c-0.2402,-0.29458 -0.2228,-0.72934 0.05176,-1.0039zM12,5.00009c3.2187,0 5.8677,2.43327 6.2109,5.56051c2.0089,0.3385 3.5391,2.0845 3.5391,4.1895c0,1.0946 -0.415,2.0914 -1.0947,2.8447l-11.76468,-11.76463c0.91542,-0.52697 1.97648,-0.83008 3.10938,-0.83008z" fill="#002B51"/>
</svg>
