<svg width="24" height="24" viewBox="0 0 24 24" fill="none" xmlns="http://www.w3.org/2000/svg">
<path fill-rule="evenodd" clip-rule="evenodd" d="M20.5303,19.4697c0.2929,0.2929 0.2929,0.7678 0,1.0606c-0.2929,0.2929 -0.7677,0.2929 -1.0606,0l-1.5507,-1.5506c-0.1378,0.0135 -0.2776,0.0204 -0.419,0.0204h-4.5h-1h-4c-3.17564,0 -5.75,-2.5744 -5.75,-5.75c0,-2.6963 1.85518,-4.9582 4.35895,-5.58048l-3.13928,-3.13927c-0.29289,-0.2929 -0.29289,-0.76777 0,-1.06066c0.2929,-0.2929 0.76777,-0.2929 1.06066,0zM16.4394,17.5001l-8.58516,-8.58519l-0.04802,0.07506l-0.34815,0.04423c-2.091,0.26565 -3.70807,2.0525 -3.70807,4.2159c0,2.3472 1.90279,4.25 4.25,4.25h4h1zM17.5,12.0001h-0.75v-0.75c0,-2.62339 -2.1266,-4.75004 -4.75,-4.75004c-0.7141,0 -1.3916,0.1575 -1.9994,0.43993l-1.1117,-1.11166c0.91595,-0.52673 1.9782,-0.82827 3.1111,-0.82827c3.2184,0 5.8686,2.4326 6.2123,5.55944c2.0081,0.3388 3.5377,2.0861 3.5377,4.1906c0,1.0945 -0.4138,2.0925 -1.0935,2.8459l-1.0628,-1.0629c0.4093,-0.4801 0.6563,-1.1027 0.6563,-1.783c0,-1.5188 -1.2312,-2.75 -2.75,-2.75z" fill="#002B51"/>
</svg>
