<svg width="24" height="24" viewBox="0 0 24 24" fill="none" xmlns="http://www.w3.org/2000/svg">
<path d="M12,5c3.1127,0 5.6919,2.27568 6.1689,5.2539c-0.4117,0.007 -0.8228,0.0646 -1.2226,0.1787l-0.1826,0.0557c-0.9674,0.3187 -1.8071,0.9403 -2.3946,1.7724c-0.1987,0.282 -0.1314,0.6721 0.1504,0.8711c0.282,0.1989 0.6721,0.1315 0.8711,-0.1504c0.4329,-0.6131 1.0518,-1.0708 1.7647,-1.3056l0.2695,-0.0772c0.6346,-0.1539 1.3023,-0.1273 1.9258,0.0791l0.2617,0.0987c0.6016,0.2542 1.122,0.6727 1.5,1.2099l0.1523,0.2354c0.2967,0.503 0.4613,1.0728 0.4815,1.6572c-0.0682,2.2876 -1.942,4.1211 -4.2461,4.1211h-9.5c-3.17564,0 -5.75,-2.5744 -5.75,-5.75c0,-0.0202 0.00077,-0.0404 0.00098,-0.0605c0.00477,-0.0242 0.01173,-0.0482 0.01367,-0.0733l0.04004,-0.3525c0.1217,-0.8174 0.44419,-1.5941 0.9414,-2.2588l0.22266,-0.2764c0.5408,-0.62507 1.22973,-1.1075 2.00586,-1.40233c0.88694,-0.3369 1.85186,-0.4144 2.78125,-0.22363l0.34473,0.08301c0.79566,0.22322 1.52591,0.64116 2.12301,1.21777c0.2483,0.23948 0.6441,0.23248 0.8838,-0.01562c0.2095,-0.2172 0.2306,-0.54747 0.0664,-0.78711l-0.082,-0.09668c-0.7998,-0.77231 -1.79031,-1.31662 -2.86817,-1.57813l-0.21679,-0.04785c-0.43182,-0.08864 -0.86986,-0.13134 -1.30664,-0.12793c1.14639,-1.3743 2.8702,-2.25 4.7998,-2.25z" fill="#002B51"/>
</svg>
