<svg width="24" height="24" viewBox="0 0 24 24" fill="none" xmlns="http://www.w3.org/2000/svg">
<path fill-rule="evenodd" clip-rule="evenodd" d="M12 5C9.90968 5 8.05959 6.02667 6.92584 7.60029C4.26331 8.10374 2.25 10.4412 2.25 13.25C2.25 16.4256 4.82436 19 8 19H12H13H17.5C19.8472 19 21.75 17.0972 21.75 14.75C21.75 12.6455 20.2204 10.8983 18.2123 10.5594C17.8686 7.4326 15.2184 5 12 5ZM7.99533 8.69429C8.84051 7.37313 10.3185 6.5 12 6.5C14.6234 6.5 16.75 8.62665 16.75 11.25V12H17.5C19.0188 12 20.25 13.2312 20.25 14.75C20.25 16.2688 19.0188 17.5 17.5 17.5H13H12H8C5.65279 17.5 3.75 15.5972 3.75 13.25C3.75 11.0866 5.36707 9.29979 7.45807 9.03415L7.80622 8.98992L7.99533 8.69429ZM14.5303 13.7803L12.5303 15.7803C12.2374 16.0732 11.7626 16.0732 11.4697 15.7803L9.46967 13.7803C9.17678 13.4874 9.17678 13.0126 9.46967 12.7197C9.76256 12.4268 10.2374 12.4268 10.5303 12.7197L11.25 13.4393V9.75C11.25 9.33579 11.5858 9 12 9C12.4142 9 12.75 9.33579 12.75 9.75V13.4393L13.4697 12.7197C13.7626 12.4268 14.2374 12.4268 14.5303 12.7197C14.8232 13.0126 14.8232 13.4874 14.5303 13.7803Z" fill="#002B51"/>
</svg>
