<svg width="24" height="24" viewBox="0 0 24 24" fill="none" xmlns="http://www.w3.org/2000/svg">
<path fill-rule="evenodd" clip-rule="evenodd" d="M20.5303,19.4697c0.2929,0.2929 0.2929,0.7678 0,1.0606c-0.2929,0.2929 -0.7677,0.2929 -1.0606,0l-1.5507,-1.5506c-0.1378,0.0135 -0.2776,0.0204 -0.419,0.0204h-4.5h-1h-4c-3.17564,0 -5.75,-2.5744 -5.75,-5.75c0,-2.6963 1.85518,-4.9582 4.35895,-5.58048l-3.13928,-3.13927c-0.29289,-0.2929 -0.29289,-0.76777 0,-1.06066c0.2929,-0.2929 0.76777,-0.2929 1.06066,0zM21.75,14.7501c0,1.0945 -0.4138,2.0925 -1.0935,2.8459l-11.7676,-11.76767c0.91595,-0.52673 1.9782,-0.82827 3.1111,-0.82827c3.2184,0 5.8686,2.4326 6.2123,5.55944c2.0081,0.3388 3.5377,2.0861 3.5377,4.1906z" fill="#002B51"/>
</svg>
