<svg width="24" height="24" viewBox="0 0 24 24" fill="none" xmlns="http://www.w3.org/2000/svg">
<path fill-rule="evenodd" clip-rule="evenodd" d="M4.53035 3.46969C4.23745 3.17679 3.76258 3.17679 3.46969 3.46969C3.17679 3.76258 3.17679 4.23745 3.46969 4.53035L6.60896 7.66962C4.10519 8.2919 2.25001 10.5538 2.25001 13.2501C2.25001 16.4257 4.82437 19.0001 8.00001 19.0001H12H13H17.5C17.6414 19.0001 17.7812 18.9932 17.919 18.9797L19.4697 20.5303C19.7626 20.8232 20.2375 20.8232 20.5303 20.5303C20.8232 20.2375 20.8232 19.7626 20.5303 19.4697L4.53035 3.46969ZM16.4394 17.5001L7.85425 8.91491L7.80623 8.98997L7.45808 9.0342C5.36708 9.29985 3.75001 11.0867 3.75001 13.2501C3.75001 15.5973 5.6528 17.5001 8.00001 17.5001H12H13H16.4394ZM20.25 14.7501C20.25 15.4304 20.003 16.053 19.5937 16.5331L20.6565 17.596C21.3362 16.8426 21.75 15.8446 21.75 14.7501C21.75 12.6456 20.2204 10.8983 18.2123 10.5595C17.8686 7.43266 15.2184 5.00006 12 5.00006C10.8672 5.00006 9.80486 5.3016 8.88891 5.82833L10.0006 6.93999C10.6084 6.65756 11.2859 6.50006 12 6.50006C14.6234 6.50006 16.75 8.62671 16.75 11.2501V12.0001H17.5C19.0188 12.0001 20.25 13.2313 20.25 14.7501Z" fill="#002B51"/>
</svg>
