<svg width="24" height="24" viewBox="0 0 24 24" fill="none" xmlns="http://www.w3.org/2000/svg">
<path d="M2.25,13.25c0,-2.8092 2.01413,-5.14432 4.67676,-5.64746c1.13344,-1.57408 2.98218,-2.60254 5.07324,-2.60254c3.2187,0 5.8677,2.43326 6.2109,5.5605c2.0089,0.3386 3.5391,2.0845 3.5391,4.1895c0,2.2738 -1.7857,4.1303 -4.0312,4.2441l-0.2188,0.0059h-9.5c-3.17564,0 -5.75,-2.5744 -5.75,-5.75zM3.75,13.25c0,2.3472 1.90279,4.25 4.25,4.25h9.5l0.2812,-0.0146c1.3867,-0.1409 2.4688,-1.3116 2.4688,-2.7354c0,-1.4689 -1.152,-2.6693 -2.6016,-2.7461l-0.1689,-0.0039l-0.7295,-0.0205v-0.7295c0,-2.62335 -2.1266,-4.75 -4.75,-4.75c-1.6813,0 -3.1586,0.87375 -4.00391,2.19531l-0.18945,0.2959l-0.34766,0.04395c-2.09145,0.26545 -3.70898,2.05154 -3.70898,4.21484z" fill="#002B51"/>
</svg>
