<svg width="24" height="24" viewBox="0 0 24 24" fill="none" xmlns="http://www.w3.org/2000/svg">
<path fill-rule="evenodd" clip-rule="evenodd" d="M18.2123,10.5594c2.0081,0.3389 3.5377,2.0861 3.5377,4.1906c0,2.3472 -1.9028,4.25 -4.25,4.25h-4.5h-1h-3.99997c-3.17564,0 -5.75,-2.5744 -5.75,-5.75c0,-2.8088 2.01331,-5.14626 4.67584,-5.64971c1.13375,-1.57362 2.98384,-2.60029 5.07413,-2.60029c3.2184,0 5.8686,2.4326 6.2123,5.5594zM9.33254,7.65654c0.76416,0.18204 1.48286,0.51871 2.11186,0.98925c0.3316,0.24813 0.3994,0.71815 0.1513,1.04982c-0.2482,0.33169 -0.7182,0.39939 -1.0499,0.15128c-0.4649,-0.34779 -0.99609,-0.59664 -1.56088,-0.73119c-0.56479,-0.13455 -1.15116,-0.15195 -1.72294,-0.05113c-0.01103,0.00194 -0.02206,0.00364 -0.03306,0.00508c-1.97881,0.36234 -3.47889,2.09675 -3.47889,4.18035c0,2.3472 1.90279,4.25 4.25,4.25h3.99997h1h4.5c1.5188,0 2.75,-1.2312 2.75,-2.75c0,-1.5188 -1.2312,-2.75 -2.75,-2.75h-0.0328c-0.0051,0.0002 -0.0101,0.0003 -0.0152,0.0004c-0.6993,0.0122 -1.3677,0.2905 -1.8692,0.7781c-0.2969,0.2888 -0.7718,0.2821 -1.0605,-0.0148c-0.2888,-0.297 -0.2822,-0.7718 0.0148,-1.0606c0.5997,-0.5832 1.354,-0.9726 2.1654,-1.1276c-0.3275,-2.30391 -2.3081,-4.0755 -4.7025,-4.0755c-1.147,0 -2.19939,0.40632 -3.02077,1.084c0.11834,0.02045 0.23617,0.04463 0.35331,0.07254z" fill="#002B51"/>
</svg>
