<svg width="24" height="24" viewBox="0 0 24 24" fill="none" xmlns="http://www.w3.org/2000/svg">
<path d="M3.46973,3.46976c0.27456,-0.27457 0.70932,-0.29196 1.0039,-0.05176l0.05664,0.05176l16.00003,16.00004l0.0517,0.0566c0.2403,0.2946 0.2229,0.7293 -0.0517,1.0039c-0.2746,0.2746 -0.7094,0.2921 -1.0039,0.0518l-0.0567,-0.0518l-1.5527,-1.5527c-0.0657,0.0064 -0.1317,0.0132 -0.1982,0.0166l-0.2188,0.0058h-9.5c-3.17564,0 -5.75,-2.5743 -5.75,-5.75c0.00002,-2.697 1.85673,-4.95675 4.36133,-5.57809l-3.1416,-3.14161l-0.05176,-0.05664c-0.2402,-0.29457 -0.2228,-0.72934 0.05176,-1.0039zM12,5.00003c3.2187,0 5.8677,2.43328 6.2109,5.56057c2.0089,0.3385 3.5391,2.0844 3.5391,4.1894c0,1.0946 -0.415,2.0914 -1.0947,2.8448l-11.76468,-11.76469c0.91542,-0.52697 1.97648,-0.83008 3.10938,-0.83008z" fill="#002B51"/>
</svg>
