<svg width="24" height="24" viewBox="0 0 24 24" fill="none" xmlns="http://www.w3.org/2000/svg">
<path fill-rule="evenodd" clip-rule="evenodd" d="M4.5303 3.46969C4.23741 3.17679 3.76254 3.17679 3.46964 3.46969C3.17675 3.76258 3.17675 4.23745 3.46964 4.53035L7.44309 8.5038C6.77468 8.47797 6.105 8.58644 5.4745 8.82594C4.58753 9.16287 3.81473 9.74521 3.24638 10.505C2.67802 11.2647 2.33756 12.1705 2.26477 13.1165C2.26227 13.149 2.25732 13.1807 2.25013 13.2115L2.25 13.2501C2.25 16.4257 4.82436 19.0001 8 19.0001H11.25H12H13H13.75H17.5C17.6414 19.0001 17.7811 18.9932 17.919 18.9797L19.4696 20.5303C19.7625 20.8232 20.2374 20.8232 20.5303 20.5303C20.8232 20.2375 20.8232 19.7626 20.5303 19.4697L4.5303 3.46969ZM21.748 14.8801C21.7167 15.9236 21.3092 16.8725 20.6565 17.596L15.6823 12.6218C16.0835 12.1886 16.5897 11.862 17.1552 11.6757C17.8682 11.4409 18.6377 11.4415 19.3503 11.6775C20.0629 11.9134 20.6807 12.3722 21.1126 12.9861C21.5048 13.5435 21.7248 14.202 21.748 14.8801ZM16.7642 10.4885C16.0119 10.7362 15.3371 11.1669 14.7979 11.7374L8.88878 5.82825C9.80495 5.30138 10.8673 5.00006 12 5.00006C15.1116 5.00006 17.6922 7.27398 18.1705 10.2507C17.6954 10.2587 17.2212 10.3379 16.7642 10.4885Z" fill="#002B51"/>
</svg>
