<svg width="24" height="24" viewBox="0 0 24 24" fill="none" xmlns="http://www.w3.org/2000/svg">
<path d="M12.0001,5c3.2187,0 5.8676,2.43326 6.2109,5.5605c2.0089,0.3386 3.5391,2.0845 3.5391,4.1895c0,2.2738 -1.7857,4.1303 -4.0313,4.2441l-0.2187,0.0059h-9.50004c-3.17564,0 -5.75,-2.5744 -5.75,-5.75c0,-2.8092 2.01413,-5.14432 4.67676,-5.64746c1.13344,-1.57408 2.98218,-2.60254 5.07328,-2.60254zM12.0001,6.5c-1.1472,0 -2.19929,0.40677 -3.02055,1.08496c0.1182,0.02041 0.23655,0.04343 0.35352,0.07129l0.28418,0.07617c0.56365,0.16524 1.09925,0.41589 1.58695,0.74317l0.2402,0.16992l0.0596,0.0498c0.279,0.25728 0.3238,0.68937 0.0918,1c-0.2326,0.31079 -0.6606,0.38999 -0.9864,0.19434l-0.0634,-0.04297l-0.1778,-0.12598c-0.3603,-0.24178 -0.7564,-0.42672 -1.17283,-0.54882l-0.20996,-0.05665c-0.48575,-0.11569 -0.98855,-0.14429 -1.4834,-0.08593l-0.04296,0.00586c-2.09145,0.26545 -3.70899,2.05154 -3.70899,4.21484c0,2.3472 1.90279,4.25 4.25,4.25h9.50004l0.2812,-0.0146c1.3867,-0.1409 2.4688,-1.3116 2.4688,-2.7354c0,-1.4689 -1.1521,-2.6693 -2.6016,-2.7461l-0.1689,-0.0039l-0.0196,-0.001c-0.0026,0.0001 -0.0052,0.001 -0.0078,0.001c-0.6991,0.0123 -1.3678,0.291 -1.8691,0.7783l-0.0576,0.0508c-0.2978,0.2361 -0.7322,0.2126 -1.003,-0.0654c-0.2886,-0.2969 -0.2821,-0.7718 0.0147,-1.0606l0.1484,-0.1377c0.5733,-0.5066 1.2703,-0.8467 2.0156,-0.9892c-0.3273,-2.30416 -2.3066,-4.0762 -4.7011,-4.0762z" fill="#002B51"/>
</svg>
