<svg width="24" height="24" viewBox="0 0 24 24" fill="none" xmlns="http://www.w3.org/2000/svg">
<path fill-rule="evenodd" clip-rule="evenodd" d="M2.25,13.25c0,-0.0133 0.00005,-0.0266 0.00014,-0.0399c0.00707,-0.0305 0.01193,-0.0619 0.01441,-0.094l0.04004,-0.3526c0.1217,-0.8174 0.44416,-1.594 0.9414,-2.2588l0.22266,-0.2763c0.54081,-0.62513 1.22971,-1.10755 2.00586,-1.40238c0.88696,-0.33692 1.85183,-0.41441 2.78125,-0.22363l0.34472,0.08301c0.79573,0.22322 1.52592,0.64111 2.12302,1.21777c0.2483,0.23963 0.6441,0.23263 0.8838,-0.01562c0.2095,-0.21725 0.2307,-0.54746 0.0664,-0.78711l-0.082,-0.09668c-0.7998,-0.77236 -1.79025,-1.31663 -2.86817,-1.57813l-0.2168,-0.04785c-0.43278,-0.08884 -0.87171,-0.13117 -1.30946,-0.12756c1.14646,-1.37512 2.87243,-2.25022 4.80273,-2.25022c3.1117,0 5.6923,2.27398 6.1706,5.2508c-0.4124,0.0068 -0.824,0.0674 -1.2243,0.1817l-0.1827,0.0556c-0.9674,0.3187 -1.8071,0.9404 -2.3945,1.7725c-0.1988,0.282 -0.1315,0.6721 0.1504,0.8711c0.282,0.199 0.672,0.1316 0.8711,-0.1504c0.4329,-0.6132 1.0517,-1.0709 1.7646,-1.3057l0.2696,-0.0771c0.6347,-0.154 1.3022,-0.1274 1.9258,0.0791l0.2617,0.0986c0.6017,0.2543 1.122,0.6727 1.5,1.21l0.1523,0.2353c0.297,0.5035 0.4635,1.074 0.4834,1.659c-0.069,2.2869 -1.9445,4.1195 -4.248,4.1195h-3.75h-2.5h-3.25c-3.17564,0 -5.75,-2.5744 -5.75,-5.75z" fill="#002B51"/>
</svg>
