<svg width="24" height="24" viewBox="0 0 24 24" fill="none" xmlns="http://www.w3.org/2000/svg">
<path d="M12,5c3.2187,0 5.8677,2.43326 6.2109,5.5605c2.0089,0.3386 3.5391,2.0845 3.5391,4.1895c0,2.2738 -1.7857,4.1303 -4.0312,4.2441l-0.2188,0.0059h-9.5c-3.17564,0 -5.75,-2.5744 -5.75,-5.75c0,-2.8092 2.01413,-5.14432 4.67676,-5.64746c1.13344,-1.57408 2.98218,-2.60254 5.07324,-2.60254zM12.4736,9.16797c-0.2945,-0.24031 -0.7293,-0.22285 -1.0039,0.05176l-1.99997,1.99997l-0.05176,0.0567c-0.24031,0.2945 -0.22285,0.7293 0.05176,1.0039c0.2746,0.2746 0.70937,0.292 1.00387,0.0517l0.0567,-0.0517l0.7197,-0.7198v3.6895c0,0.4142 0.3358,0.75 0.75,0.75c0.4142,0 0.75,-0.3358 0.75,-0.75v-3.6895l0.7197,0.7198c0.2929,0.2929 0.7677,0.2929 1.0606,0c0.2929,-0.2929 0.2929,-0.7677 0,-1.0606l-2,-1.99997z" fill="#002B51"/>
</svg>
