<svg width="24" height="24" viewBox="0 0 24 24" fill="none" xmlns="http://www.w3.org/2000/svg">
<path fill-rule="evenodd" clip-rule="evenodd" d="M4.53035 3.46969C4.23745 3.17679 3.76258 3.17679 3.46969 3.46969C3.17679 3.76258 3.17679 4.23745 3.46969 4.53035L6.60897 7.66963C4.10521 8.29192 2.25005 10.5538 2.25005 13.2501C2.25005 16.4257 4.82441 19.0001 8.00005 19.0001H12H13H17.5C17.6414 19.0001 17.7812 18.9932 17.919 18.9797L19.4697 20.5303C19.7626 20.8232 20.2375 20.8232 20.5303 20.5303C20.8232 20.2375 20.8232 19.7626 20.5303 19.4697L4.53035 3.46969ZM16.4394 17.5001L7.93983 9.00049C7.71309 9.0037 7.48642 9.02505 7.262 9.06463C7.25096 9.06657 7.23994 9.06827 7.22894 9.06971C5.25013 9.43205 3.75005 11.1664 3.75005 13.2501C3.75005 15.5973 5.65284 17.5001 8.00005 17.5001H12H13H16.4394ZM16.7025 10.5755C15.9431 10.7206 15.2336 11.0711 14.6542 11.5936L15.717 12.6564C16.2005 12.2446 16.8134 12.0116 17.4521 12.0005L17.4672 12.0001H17.5C19.0188 12.0001 20.25 13.2313 20.25 14.7501C20.25 15.4304 20.003 16.053 19.5937 16.5331L20.6566 17.596C21.3363 16.8426 21.75 15.8446 21.75 14.7501C21.75 12.6456 20.2204 10.8983 18.2123 10.5595C17.8686 7.43266 15.2184 5.00006 12 5.00006C10.8672 5.00006 9.80488 5.30161 8.88893 5.82835L10.0006 6.94C10.6084 6.65756 11.2859 6.50006 12 6.50006C14.3944 6.50006 16.375 8.27165 16.7025 10.5755Z" fill="#002B51"/>
</svg>
