<svg width="24" height="24" viewBox="0 0 24 24" fill="none" xmlns="http://www.w3.org/2000/svg">
<path d="M3.46973,3.46976c0.27457,-0.27456 0.70933,-0.29197 1.0039,-0.05176l0.05664,0.05176l16.00003,16.00004l0.0517,0.0566c0.2403,0.2946 0.2229,0.7293 -0.0517,1.0039c-0.2746,0.2746 -0.7094,0.2921 -1.0039,0.0518l-0.0567,-0.0518l-1.5527,-1.5527c-0.1373,0.0134 -0.2762,0.0224 -0.417,0.0224h-9.5c-3.17564,0 -5.75,-2.5743 -5.75,-5.75c0,-0.0202 0.00077,-0.0404 0.00098,-0.0605c0.00476,-0.0241 0.01174,-0.0481 0.01367,-0.0733c0.07282,-0.9458 0.4132,-1.8516 0.98144,-2.6113c0.56835,-0.75969 1.34159,-1.34177 2.22852,-1.6787c0.63139,-0.23983 1.3022,-0.34561 1.97168,-0.31933l-3.97656,-3.97657l-0.05176,-0.05664c-0.24021,-0.29458 -0.22281,-0.72933 0.05176,-1.0039zM17.1553,11.6758c0.7128,-0.2347 1.4828,-0.2339 2.1953,0.002c0.7123,0.2359 1.3299,0.6948 1.7617,1.3086c0.3937,0.5596 0.612,1.2212 0.6338,1.9023c-0.0334,1.0398 -0.4416,1.9837 -1.0918,2.7051l-4.9707,-4.9707c0.4013,-0.4331 0.9062,-0.761 1.4717,-0.9473zM12,5.00003c3.1123,0 5.6915,2.2752 6.1689,5.25297c-0.4747,0.0079 -0.9486,0.0849 -1.4052,0.2353c-0.752,0.2478 -1.4267,0.6787 -1.9658,1.249l-5.90728,-5.90719c0.91567,-0.52717 1.97678,-0.83008 3.10938,-0.83008z" fill="#002B51"/>
</svg>
