<svg width="24" height="24" viewBox="0 0 24 24" fill="none" xmlns="http://www.w3.org/2000/svg">
<path d="M3.46973,3.46982c0.27457,-0.27456 0.70933,-0.29197 1.0039,-0.05176l0.05664,0.05176l16.00003,15.99998l0.0517,0.0567c0.2403,0.2945 0.2229,0.7293 -0.0517,1.0039c-0.2746,0.2746 -0.7094,0.292 -1.0039,0.0517l-0.0567,-0.0517l-1.5527,-1.5528c-0.1373,0.0134 -0.2762,0.0225 -0.417,0.0225h-9.5c-3.17564,0 -5.75,-2.5744 -5.75,-5.75v-0.04c0.00704,-0.0305 0.01218,-0.0617 0.01465,-0.0938l0.04004,-0.3525c0.1217,-0.8175 0.44417,-1.5941 0.9414,-2.2588l0.22266,-0.2764c0.54082,-0.62509 1.22971,-1.10751 2.00586,-1.40234c0.63143,-0.23984 1.30218,-0.34563 1.97168,-0.31933l-3.97656,-3.97657l-0.05176,-0.05664c-0.24021,-0.29458 -0.22281,-0.72933 0.05176,-1.0039zM17.4248,11.5987c0.6347,-0.154 1.3023,-0.1273 1.9258,0.0791l0.2617,0.0987c0.6017,0.2542 1.122,0.6727 1.5,1.2099l0.1523,0.2354c0.297,0.5035 0.4635,1.0741 0.4834,1.6592c-0.0315,1.0431 -0.4392,1.9915 -1.0918,2.7148l-4.9746,-4.9736c0.4013,-0.4332 0.9081,-0.7601 1.4737,-0.9463zM12,5.00009c3.1117,0 5.6926,2.27416 6.1709,5.25101c-0.4123,0.0068 -0.8243,0.0673 -1.2246,0.1816l-0.1826,0.0557c-0.752,0.2477 -1.4267,0.6786 -1.9658,1.249l-5.90923,-5.90918c0.91618,-0.52688 1.97863,-0.82813 3.11133,-0.82813z" fill="#002B51"/>
</svg>
