<svg width="24" height="24" viewBox="0 0 24 24" fill="none" xmlns="http://www.w3.org/2000/svg">
<path fill-rule="evenodd" clip-rule="evenodd" d="M12,19h-0.75h-3.25c-3.17564,0 -5.75,-2.5744 -5.75,-5.75c0,-0.0129 0.00004,-0.0257 0.00013,-0.0386c0.00719,-0.0307 0.01214,-0.0625 0.01464,-0.095c0.07279,-0.946 0.41325,-1.8518 0.98161,-2.6115c0.56835,-0.75975 1.34115,-1.34209 2.22812,-1.67902c0.88697,-0.33692 1.8515,-0.41453 2.78092,-0.22374c0.92943,0.19078 1.78538,0.64208 2.46788,1.30118c0.2483,0.23978 0.644,0.23288 0.8838,-0.01543c0.2398,-0.2483 0.2328,-0.64397 -0.0155,-0.88375c-0.8531,-0.82387 -1.92304,-1.38799 -3.08483,-1.62647c-0.43284,-0.08885 -0.87177,-0.13113 -1.30951,-0.12744c1.14647,-1.37512 2.87244,-2.25023 4.80274,-2.25023c3.1116,0 5.6922,2.27392 6.1705,5.2507c-0.4751,0.0079 -0.9493,0.0872 -1.4063,0.2377c-0.9676,0.3187 -1.8071,0.94 -2.3946,1.7722c-0.1991,0.282 -0.1318,0.672 0.1502,0.871c0.282,0.1991 0.6719,0.1319 0.871,-0.1501c0.4329,-0.6132 1.0515,-1.071 1.7644,-1.3058c0.713,-0.2348 1.4825,-0.2342 2.1951,0.0017c0.7126,0.236 1.3304,0.6948 1.7623,1.3087c0.3922,0.5574 0.6122,1.2158 0.6354,1.894c-0.0687,2.287 -1.9443,4.1199 -4.248,4.1199h-3.75h-0.75z" fill="#002B51"/>
</svg>
