<svg width="24" height="24" viewBox="0 0 24 24" fill="none" xmlns="http://www.w3.org/2000/svg">
<path fill-rule="evenodd" clip-rule="evenodd" d="M12 5C9.90971 5 8.05962 6.02667 6.92587 7.60029C4.26334 8.10374 2.25003 10.4412 2.25003 13.25C2.25003 16.4256 4.82439 19 8.00003 19H12H13H17.5C19.8472 19 21.75 17.0972 21.75 14.75C21.75 12.6455 20.2204 10.8983 18.2123 10.5594C17.8686 7.4326 15.2184 5 12 5ZM8.97923 7.584C9.80061 6.90632 10.853 6.5 12 6.5C14.3944 6.5 16.375 8.27159 16.7025 10.5755C15.8911 10.7305 15.1368 11.1199 14.5371 11.7031C14.2401 11.9919 14.2335 12.4667 14.5223 12.7637C14.811 13.0606 15.2859 13.0673 15.5828 12.7785C16.0843 12.2909 16.7527 12.0126 17.452 12.0004C17.4571 12.0003 17.4621 12.0002 17.4672 12H17.5C19.0188 12 20.25 13.2312 20.25 14.75C20.25 16.2688 19.0188 17.5 17.5 17.5H13H12H8.00003C5.65282 17.5 3.75003 15.5972 3.75003 13.25C3.75003 11.1664 5.25011 9.43199 7.22892 9.06965C7.23992 9.06821 7.25095 9.06651 7.26198 9.06457C7.83376 8.96375 8.42013 8.98115 8.98492 9.1157C9.54971 9.25025 10.0809 9.4991 10.5458 9.84689C10.8775 10.095 11.3475 10.0273 11.5957 9.69561C11.8438 9.36394 11.776 8.89392 11.4444 8.64579C10.8154 8.17525 10.0967 7.83858 9.33254 7.65654C9.2154 7.62863 9.09757 7.60445 8.97923 7.584Z" fill="#002B51"/>
</svg>
