<svg width="24" height="24" viewBox="0 0 24 24" fill="none" xmlns="http://www.w3.org/2000/svg">
<path d="M3.46977,3.46982c0.27457,-0.27456 0.70933,-0.29197 1.00391,-0.05176l0.05664,0.05176l15.99998,15.99998l0.0518,0.0567c0.2403,0.2945 0.2228,0.7293 -0.0518,1.0039c-0.2746,0.2746 -0.7093,0.292 -1.0039,0.0517l-0.0566,-0.0517l-1.5528,-1.5528c-0.0657,0.0065 -0.1316,0.0133 -0.1982,0.0166l-0.2188,0.0059h-9.49995c-3.17564,0 -5.75,-2.5744 -5.75,-5.75c0.00002,-2.6971 1.85672,-4.95679 4.36132,-5.57813l-3.1416,-3.14161l-0.05176,-0.05664c-0.24021,-0.29458 -0.22281,-0.72933 0.05176,-1.0039zM12,5.00009c3.2187,0 5.8677,2.43328 6.211,5.56051c2.0088,0.3385 3.539,2.0845 3.539,4.1895c0,1.0946 -0.415,2.0914 -1.0947,2.8447l-1.0644,-1.0644c0.4092,-0.48 0.6591,-1.1 0.6591,-1.7803c0,-1.4689 -1.152,-2.6693 -2.6015,-2.7461l-0.169,-0.0039l-0.0195,-0.001c-0.0026,0.0001 -0.0052,0.0009 -0.0078,0.001c-0.6387,0.0111 -1.2509,0.2454 -1.7344,0.6572l-1.0635,-1.0635l0.0313,-0.0283c0.5733,-0.5067 1.2704,-0.8467 2.0156,-0.9892c-0.3273,-2.30415 -2.3066,-4.07621 -4.7012,-4.07621c-0.7142,0 -1.3921,0.15671 -2,0.43945l-1.10933,-1.10937c0.91542,-0.52697 1.97653,-0.83008 3.10933,-0.83008zM7.94048,9.00107c-0.1464,0.00211 -0.29277,0.01112 -0.43848,0.02832l-0.04297,0.00586c-2.09144,0.26545 -3.70896,2.05155 -3.70898,4.21485c0,2.3472 1.90279,4.25 4.25,4.25h8.43945z" fill="#002B51"/>
</svg>
