<svg width="24" height="24" viewBox="0 0 24 24" fill="none" xmlns="http://www.w3.org/2000/svg">
<path fill-rule="evenodd" clip-rule="evenodd" d="M13.25,2.24991c0.9665,0 1.75,0.7835 1.75,1.75v0.65276c0,0.09286 0.0646,0.22469 0.2285,0.29987c0.4443,0.20386 0.8659,0.4484 1.2599,0.72877c0.1463,0.1041 0.2925,0.09429 0.373,0.0478l0.5669,-0.32728c0.837,-0.48325 1.9073,-0.19646 2.3905,0.64055l1.25,2.16506c0.4833,0.83701 0.1965,1.90726 -0.6405,2.39056l-0.5667,0.3272c-0.0805,0.0464 -0.1621,0.168 -0.1455,0.3468c0.0224,0.2398 0.0338,0.4826 0.0338,0.7279c0,0.2453 -0.0114,0.4881 -0.0338,0.7279c-0.0166,0.1788 0.065,0.3004 0.1455,0.3469l0.5666,0.3271c0.837,0.4833 1.1238,1.5536 0.6406,2.3906l-1.25,2.165c-0.4833,0.8371 -1.5536,1.1238 -2.3906,0.6406l-0.5668,-0.3273c-0.0805,-0.0465 -0.2267,-0.0563 -0.373,0.0478c-0.394,0.2804 -0.8156,0.5249 -1.2599,0.7288c-0.1639,0.0752 -0.2285,0.207 -0.2285,0.2999v0.6527c0,0.9665 -0.7835,1.75 -1.75,1.75h-2.5c-0.96647,0 -1.74997,-0.7835 -1.74997,-1.75v-0.6527c0,-0.0928 -0.06457,-0.2247 -0.22845,-0.2998c-0.44436,-0.2039 -0.86595,-0.4484 -1.26002,-0.7288c-0.1463,-0.1041 -0.29247,-0.0943 -0.37299,-0.0478l-0.56671,0.3272c-0.83701,0.4832 -1.90729,0.1965 -2.39054,-0.6406l-1.25,-2.165c-0.48325,-0.837 -0.19647,-1.9073 0.64054,-2.3906l0.56644,-0.327c0.08046,-0.0465 0.1621,-0.168 0.14542,-0.3468c-0.02237,-0.2399 -0.03379,-0.4828 -0.03379,-0.7281c0,-0.2453 0.01142,-0.4882 0.03379,-0.728c0.01668,-0.1788 -0.06496,-0.3004 -0.14542,-0.3469l-0.56647,-0.327c-0.83702,-0.4833 -1.1238,-1.55355 -0.64055,-2.39056l1.25,-2.16506c0.48325,-0.83702 1.55353,-1.1238 2.39055,-0.64055l0.56672,0.3272c0.08052,0.04649 0.2267,0.0563 0.373,-0.04779c0.39407,-0.28038 0.81567,-0.52493 1.26003,-0.72879c0.16388,-0.07518 0.22845,-0.20701 0.22845,-0.29988v-0.65266c0,-0.9665 0.7835,-1.75 1.74997,-1.75zM12,8.5c-1.933,0 -3.49999,1.567 -3.49999,3.5c0,1.933 1.56699,3.5 3.49999,3.5c1.933,0 3.5,-1.567 3.5,-3.5c0,-1.933 -1.567,-3.5 -3.5,-3.5z" fill="#002B51"/>
</svg>
