<svg width="24" height="24" viewBox="0 0 24 24" fill="none" xmlns="http://www.w3.org/2000/svg">
<path fill-rule="evenodd" clip-rule="evenodd" d="M15.557,5.11319c0.3245,0.16795 0.636,0.35804 0.9316,0.56836l0.0547,0.0332c0.1271,0.06723 0.2479,0.05533 0.3183,0.01465l0.5665,-0.32715l0.1591,-0.08203c0.809,-0.36383 1.7783,-0.06285 2.2315,0.72168l1.25,2.16602l0.082,0.15918c0.3634,0.80895 0.0619,1.7775 -0.7226,2.2305l-0.5665,0.3271c-0.0804,0.0465 -0.1621,0.1689 -0.1455,0.3477c0.0224,0.2397 0.0342,0.4824 0.0342,0.7275c0,0.2452 -0.0118,0.4878 -0.0342,0.7275c-0.0166,0.1788 0.0651,0.3013 0.1455,0.3477l0.5665,0.3272c0.8368,0.4832 1.1235,1.5527 0.6406,2.3896l-1.25,2.166c-0.4532,0.7846 -1.4225,1.0855 -2.2315,0.7217l-0.1591,-0.082l-0.5665,-0.3272c-0.0804,-0.0464 -0.2268,-0.056 -0.373,0.0479c-0.2956,0.2103 -0.6071,0.4004 -0.9316,0.5683l-0.3282,0.1612c-0.1638,0.0751 -0.2285,0.2069 -0.2285,0.2998v0.6523c0,0.9664 -0.7836,1.7498 -1.75,1.75h-2.5c-0.96648,0 -1.74998,-0.7835 -1.74998,-1.75v-0.6523c0,-0.0928 -0.06492,-0.2246 -0.22852,-0.2998c-0.3333,-0.1529 -0.65428,-0.3288 -0.95996,-0.5254l-0.30078,-0.2041c-0.10954,-0.0778 -0.21896,-0.0917 -0.30078,-0.0743l-0.07129,0.0264l-0.56738,0.3272c-0.83694,0.4832 -1.90731,0.1971 -2.39063,-0.6397l-1.25,-2.166c-0.48279,-0.8368 -0.19596,-1.9064 0.64063,-2.3896l0.5664,-0.3272l0.05957,-0.0488c0.05602,-0.0621 0.09831,-0.1641 0.08594,-0.2979c-0.02237,-0.2398 -0.0332,-0.4832 -0.0332,-0.7285c0,-0.2451 0.01086,-0.4878 0.0332,-0.7275c0.01251,-0.1341 -0.02985,-0.2367 -0.08594,-0.2989l-0.05957,-0.0488l-0.5664,-0.3271c-0.83662,-0.4833 -1.12344,-1.55284 -0.64063,-2.38968l1.25,-2.16602c0.48332,-0.83682 1.5537,-1.12285 2.39063,-0.63965l0.5664,0.32715c0.08045,0.04645 0.2269,0.05591 0.37305,-0.04785l0.30078,-0.2041c0.30568,-0.19664 0.62666,-0.37249 0.95996,-0.52539c0.16361,-0.07521 0.22852,-0.20701 0.22852,-0.29981v-0.65234c0,-0.9665 0.7835,-1.75 1.74998,-1.75h2.5c0.9664,0.00018 1.75,0.78361 1.75,1.75v0.65234c0,0.09286 0.0647,0.22462 0.2285,0.29981zM12,8.5c-1.933,0 -3.50004,1.567 -3.50004,3.5c0,1.933 1.56704,3.5 3.50004,3.5c1.933,0 3.5,-1.567 3.5,-3.5c0,-1.933 -1.567,-3.5 -3.5,-3.5z" fill="#002B51"/>
</svg>
