<svg width="24" height="24" viewBox="0 0 24 24" fill="none" xmlns="http://www.w3.org/2000/svg">
<path d="M13.2504,2.24991c0.9661,0.00046 1.75,0.78378 1.75,1.75v0.6543c0,0.09284 0.0646,0.22456 0.2285,0.2998l0.3282,0.16016c0.3241,0.16782 0.6354,0.35825 0.9306,0.56836l0.0547,0.03418c0.1266,0.06663 0.247,0.05414 0.3174,0.01367l0.5693,-0.32813l0.1592,-0.08203c0.8089,-0.36334 1.7784,-0.06184 2.2314,0.72266l1.2491,2.16406l0.082,0.15918c0.3394,0.75528 0.0995,1.65058 -0.5723,2.13478l-0.1504,0.0967l-0.5664,0.3271c-0.0804,0.0464 -0.1623,0.1676 -0.1455,0.3457l0.0264,0.3623c0.0058,0.1217 0.0088,0.2441 0.0088,0.3672c0,0.2459 -0.0124,0.4889 -0.0352,0.7285c-0.0168,0.1777 0.0642,0.2993 0.1446,0.3457l0.5683,0.3282c0.8365,0.4834 1.1237,1.5539 0.6406,2.3906l-1.25,2.164c-0.4832,0.8369 -1.5537,1.1236 -2.3906,0.6407l-0.5693,-0.3291c-0.0705,-0.0406 -0.1914,-0.0526 -0.3184,0.0146l-0.0547,0.0332c-0.3935,0.28 -0.815,0.5249 -1.2587,0.7285c-0.1636,0.0753 -0.2276,0.2071 -0.2276,0.2998v0.6553c0,0.9662 -0.7839,1.7495 -1.75,1.75h-2.5c-0.96649,0 -1.74999,-0.7835 -1.74999,-1.75v-0.6553c0,-0.0927 -0.06518,-0.2246 -0.22851,-0.2998c-0.33257,-0.1526 -0.65297,-0.3282 -0.95801,-0.5244l-0.30078,-0.2041c-0.10969,-0.0779 -0.21986,-0.0917 -0.30176,-0.0742l-0.07129,0.0264l-0.56738,0.3281c-0.78462,0.4535 -1.77486,0.2301 -2.29395,-0.4893l-0.09765,-0.1504l-1.25,-2.165c-0.48273,-0.8365 -0.19645,-1.9061 0.63965,-2.3896l0.56835,-0.3282l0.0586,-0.0488c0.05613,-0.0622 0.09937,-0.1646 0.08691,-0.2988c-0.02223,-0.2395 -0.0332,-0.4818 -0.0332,-0.7266c0,-0.245 0.01099,-0.4877 0.0332,-0.7275c0.01242,-0.1341 -0.03088,-0.2366 -0.08691,-0.2989l-0.0586,-0.0488l-0.5664,-0.3271c-0.83728,-0.4832 -1.12403,-1.55352 -0.64063,-2.39066l1.25,-2.16504l0.09668,-0.15039c0.51879,-0.71887 1.50851,-0.94275 2.29297,-0.49023l0.56836,0.32812c0.0806,0.04621 0.22689,0.05607 0.37305,-0.04785c0.39367,-0.27987 0.81511,-0.52409 1.25879,-0.72754c0.16333,-0.0751 0.22851,-0.20702 0.22851,-0.2998v-0.6543c0,-0.9665 0.7835,-1.75 1.74999,-1.75zM10.7504,3.74991c-0.1381,0 -0.25,0.11193 -0.25,0.25v0.6543c0,0.76384 -0.4885,1.3809 -1.1035,1.66308c-0.35754,0.16396 -0.69711,0.36117 -1.01465,0.58692c-0.55181,0.39233 -1.33056,0.5056 -1.99219,0.12402l-0.56836,-0.32715c-0.11947,-0.06879 -0.27178,-0.02754 -0.34082,0.0918l-1.25,2.16406c-0.06906,0.11959 -0.02781,0.27277 0.0918,0.3418l0.56543,0.32617l0.12012,0.07617c0.57604,0.39702 0.82792,1.07792 0.76953,1.70902c-0.01796,0.1937 -0.02637,0.3906 -0.02637,0.5898c0,0.1985 0.00842,0.3946 0.02637,0.5879c0.05859,0.6309 -0.19299,1.3118 -0.76856,1.709l-0.11914,0.0752l-0.56836,0.3291c-0.11921,0.069 -0.16042,0.2214 -0.09179,0.3408l1.25,2.165l0.03027,0.0411c0.07722,0.0866 0.20705,0.1101 0.31152,0.0498l0.56738,-0.3272l0.12598,-0.0664c0.63289,-0.3009 1.35055,-0.1778 1.86817,0.1904l0.24218,0.1641c0.24592,0.1581 0.5037,0.3 0.77149,0.4228c0.6148,0.2823 1.1035,0.8993 1.1035,1.6631v0.6553c0,0.1381 0.1119,0.25 0.25,0.25h2.5c0.1377,-0.0005 0.25,-0.1122 0.25,-0.25v-0.6553c0,-0.764 0.4876,-1.3809 1.1026,-1.6631c0.3573,-0.164 0.6971,-0.3609 1.0146,-0.5869l0.1055,-0.0703c0.543,-0.3349 1.2672,-0.4131 1.8877,-0.0547l0.5683,0.3291c0.1195,0.0687 0.2729,0.0276 0.3418,-0.0918l1.25,-2.164c0.0688,-0.1194 0.0274,-0.2727 -0.0918,-0.3418l-0.5683,-0.3281c-0.6606,-0.3817 -0.9517,-1.1121 -0.8877,-1.7862c0.0183,-0.1933 0.0283,-0.3892 0.0283,-0.5869c0,-0.0992 -0.0031,-0.1978 -0.0078,-0.2959l-0.0205,-0.292c-0.064,-0.6745 0.2272,-1.4056 0.8886,-1.78709l0.5664,-0.32617l0.0411,-0.03028c0.0745,-0.06616 0.1028,-0.17106 0.0713,-0.26562l-0.0206,-0.0459l-1.25,-2.16406c-0.0603,-0.10454 -0.1846,-0.14892 -0.2949,-0.11231l-0.0459,0.02051l-0.5693,0.32813c-0.62,0.35787 -1.343,0.28067 -1.8858,-0.05372l-0.1064,-0.07128c-0.3176,-0.22597 -0.6573,-0.4229 -1.0146,-0.58692c-0.6149,-0.28221 -1.1026,-0.89897 -1.1026,-1.66308v-0.6543c0,-0.13779 -0.1123,-0.24954 -0.25,-0.25zM12.0004,7.74991c2.3471,0.00013 4.25,1.90291 4.25,4.24999c0,2.3471 -1.9029,4.2499 -4.25,4.25c-2.3472,0 -4.24999,-1.9028 -4.24999,-4.25c0.00005,-2.34716 1.90282,-4.24999 4.24999,-4.24999zM12.0004,9.24991c-1.5187,0 -2.74994,1.23129 -2.74999,2.74999c0,1.5188 1.23119,2.75 2.74999,2.75c1.5187,-0.0001 2.75,-1.2313 2.75,-2.75c0,-1.5187 -1.2313,-2.74986 -2.75,-2.74999z" fill="#002B51"/>
</svg>
