<svg width="24" height="24" viewBox="0 0 24 24" fill="none" xmlns="http://www.w3.org/2000/svg">
<path fill-rule="evenodd" clip-rule="evenodd" d="M13.2222,2c0.5523,0 1,0.44771 1,1v0.79858c0,0.44241 0.2935,0.82611 0.7034,0.99263c0.0343,0.01394 0.0685,0.02812 0.1026,0.04254c0.4076,0.17245 0.8867,0.10875 1.1996,-0.20421l0.5648,-0.56474c0.3905,-0.39052 1.0237,-0.39052 1.4142,0l1.7285,1.72848c0.3905,0.39053 0.3905,1.02369 0,1.41422l-0.5648,0.56476c-0.313,0.31296 -0.3767,0.79201 -0.2042,1.19962c0.0144,0.03405 0.0286,0.06823 0.0425,0.10252c0.1665,0.40989 0.5502,0.70338 0.9926,0.70338h0.7986c0.5523,0 1,0.44772 1,1.00002v2.4444c0,0.5523 -0.4477,1 -1,1h-0.7986c-0.4424,0 -0.8261,0.2935 -0.9926,0.7034c-0.0139,0.0343 -0.0281,0.0685 -0.0425,0.1025c-0.1725,0.4076 -0.1088,0.8867 0.2042,1.1996l0.5648,0.5649c0.3906,0.3905 0.3906,1.0237 0,1.4142l-1.7284,1.7285c-0.3906,0.3905 -1.0237,0.3905 -1.4143,0l-0.5648,-0.5648c-0.3129,-0.313 -0.792,-0.3767 -1.1996,-0.2043c-0.0341,0.0145 -0.0683,0.0286 -0.1026,0.0426c-0.4099,0.1665 -0.7034,0.5502 -0.7034,0.9926v0.7986c0,0.5523 -0.4477,1 -1,1h-2.4444c-0.5523,0 -1.00002,-0.4477 -1.00002,-1v-0.7986c0,-0.4424 -0.29349,-0.8261 -0.70338,-0.9926c-0.03429,-0.0139 -0.06847,-0.0281 -0.10252,-0.0425c-0.40761,-0.1725 -0.88666,-0.1088 -1.19962,0.2042l-0.56492,0.5649c-0.39052,0.3905 -1.02369,0.3905 -1.41421,0l-1.72848,-1.7285c-0.39053,-0.3905 -0.39053,-1.0237 0,-1.4142l0.56489,-0.5649c0.31296,-0.3129 0.37666,-0.792 0.20421,-1.1996c-0.01442,-0.0341 -0.0286,-0.0683 -0.04254,-0.1026c-0.16652,-0.4099 -0.55022,-0.7034 -0.99263,-0.7034h-0.79858c-0.55228,0 -1,-0.4477 -1,-1v-2.4444c0,-0.5523 0.44771,-1.00002 1,-1.00002h0.79858c0.44242,0 0.82611,-0.29349 0.99263,-0.70338c0.01394,-0.03432 0.02812,-0.06852 0.04254,-0.1026c0.17246,-0.40761 0.10875,-0.88667 -0.20421,-1.19963l-0.56482,-0.56483c-0.39053,-0.39052 -0.39053,-1.02369 0,-1.41421l1.72848,-1.72848c0.39053,-0.39053 1.02369,-0.39053 1.41422,0l0.56485,0.56485c0.31296,0.31296 0.79201,0.37666 1.19962,0.20421c0.03405,-0.0144 0.06822,-0.02857 0.10252,-0.0425c0.40988,-0.16652 0.70337,-0.55021 0.70337,-0.99263v-0.79858c0,-0.55228 0.44772,-1 1.00002,-1zM12,15.5c1.933,0 3.5,-1.567 3.5,-3.5c0,-1.933 -1.567,-3.5 -3.5,-3.5c-1.933,0 -3.5,1.567 -3.5,3.5c0,1.933 1.567,3.5 3.5,3.5z" fill="#002B51"/>
</svg>
