<svg width="24" height="24" viewBox="0 0 24 24" fill="none" xmlns="http://www.w3.org/2000/svg">
<path fill-rule="evenodd" clip-rule="evenodd" d="M10.7503,3.74991c-0.138,0 -0.25,0.11193 -0.25,0.25v0.65234c0,0.7641 -0.4885,1.38092 -1.10348,1.66309c-0.26853,0.12319 -0.52684,0.26519 -0.77344,0.42383l-0.24219,0.16406c-0.51758,0.36825 -1.23433,0.4913 -1.86718,0.19043l-0.12598,-0.06543l-0.56641,-0.32715c-0.11951,-0.06898 -0.27272,-0.02862 -0.34179,0.09082l-1.25,2.16602c-0.06855,0.11941 -0.02743,0.27183 0.09179,0.34082l0.56641,0.32715l0.12012,0.07519c0.57625,0.39702 0.82836,1.07852 0.76953,1.70992c-0.01806,0.1937 -0.02735,0.3902 -0.02735,0.5889c0,0.1987 0.00929,0.3953 0.02735,0.5889c0.05884,0.6314 -0.19327,1.3129 -0.76953,1.7099l-0.12012,0.0752l-0.56641,0.3272c-0.11933,0.0691 -0.15969,0.2213 -0.09082,0.3408l1.25,2.166c0.06918,0.1191 0.22145,0.1597 0.34082,0.0908l0.56739,-0.3271l0.125,-0.0654c0.63285,-0.3009 1.3496,-0.1779 1.86718,0.1904l0.24219,0.1641c0.2466,0.1586 0.50491,0.3006 0.77344,0.4238c0.61508,0.2821 1.10348,0.899 1.10348,1.6631v0.6523c0,0.1381 0.112,0.25 0.25,0.25h2.5c0.1379,-0.0002 0.25,-0.112 0.25,-0.25v-0.6523c0,-0.7641 0.4876,-1.3819 1.1026,-1.6641l0.2646,-0.1289c0.2615,-0.1353 0.5125,-0.2883 0.751,-0.458c0.5521,-0.3928 1.3314,-0.5071 1.9932,-0.125l0.5664,0.3271l0.0459,0.0215c0.1102,0.0369 0.2354,-0.0078 0.2959,-0.1123l1.25,-2.166c0.0687,-0.1195 0.0276,-0.2719 -0.0918,-0.3408l-0.5664,-0.3272c-0.6609,-0.3815 -0.9515,-1.1116 -0.8887,-1.7851c0.018,-0.1936 0.0273,-0.3902 0.0273,-0.5889c0,-0.0992 -0.0032,-0.1979 -0.0078,-0.2959l-0.0195,-0.293c-0.0627,-0.6735 0.2278,-1.4036 0.8887,-1.78511l0.5664,-0.32715c0.1046,-0.06039 0.149,-0.18464 0.1123,-0.29493l-0.0205,-0.04589l-1.25,-2.16602c-0.0606,-0.10449 -0.1857,-0.14919 -0.2959,-0.1123l-0.0459,0.02148l-0.5664,0.32715c-0.6205,0.35821 -1.3439,0.28013 -1.8868,-0.05469l-0.1064,-0.07031c-0.2385,-0.16967 -0.4895,-0.3227 -0.751,-0.45801l-0.2646,-0.12891c-0.615,-0.28216 -1.1026,-0.89997 -1.1026,-1.66406v-0.65234c0,-0.13796 -0.1121,-0.24982 -0.25,-0.25zM15.557,5.11319c0.3245,0.16795 0.636,0.35804 0.9316,0.56836l0.0547,0.0332c0.1271,0.06723 0.2479,0.05533 0.3184,0.01465l0.5664,-0.32715l0.1591,-0.08203c0.809,-0.36383 1.7783,-0.06285 2.2315,0.72168l1.25,2.16602l0.082,0.15918c0.3634,0.80895 0.0619,1.7775 -0.7226,2.2305l-0.5664,0.3271c-0.0805,0.0465 -0.1622,0.1689 -0.1455,0.3477c0.0223,0.2397 0.0341,0.4824 0.0341,0.7275c0,0.2452 -0.0118,0.4878 -0.0341,0.7275c-0.0167,0.1788 0.065,0.3013 0.1455,0.3477l0.5664,0.3272c0.8368,0.4832 1.1236,1.5527 0.6406,2.3896l-1.25,2.166c-0.4532,0.7846 -1.4225,1.0855 -2.2315,0.7217l-0.1591,-0.082l-0.5664,-0.3272c-0.0805,-0.0464 -0.2269,-0.056 -0.3731,0.0479c-0.2956,0.2103 -0.6071,0.4004 -0.9316,0.5683l-0.3282,0.1612c-0.1638,0.0751 -0.2285,0.2069 -0.2285,0.2998v0.6523c0,0.9664 -0.7836,1.7498 -1.75,1.75h-2.5c-0.96646,0 -1.74997,-0.7835 -1.74997,-1.75v-0.6523c0,-0.0928 -0.06491,-0.2246 -0.22851,-0.2998c-0.3333,-0.1529 -0.65429,-0.3288 -0.95996,-0.5254l-0.30078,-0.2041c-0.10954,-0.0778 -0.21897,-0.0917 -0.30079,-0.0743l-0.07128,0.0264l-0.56739,0.3272c-0.83693,0.4832 -1.90731,0.1971 -2.39062,-0.6397l-1.25,-2.166c-0.4828,-0.8368 -0.19597,-1.9064 0.64062,-2.3896l0.56641,-0.3272l0.05957,-0.0488c0.05602,-0.0621 0.0983,-0.1641 0.08594,-0.2979c-0.02238,-0.2398 -0.03321,-0.4832 -0.03321,-0.7285c0,-0.2451 0.01086,-0.4878 0.03321,-0.7275c0.0125,-0.1341 -0.02985,-0.2367 -0.08594,-0.2989l-0.05957,-0.0488l-0.56641,-0.3271c-0.83662,-0.4833 -1.12344,-1.55284 -0.64062,-2.38968l1.25,-2.16602c0.48332,-0.83682 1.55369,-1.12285 2.39062,-0.63965l0.56641,0.32715c0.08044,0.04645 0.22689,0.05591 0.37305,-0.04785l0.30078,-0.2041c0.30567,-0.19664 0.62666,-0.37249 0.95996,-0.52539c0.1636,-0.07521 0.22851,-0.20701 0.22851,-0.29981v-0.65234c0,-0.9665 0.7835,-1.75 1.74997,-1.75h2.5c0.9664,0.00018 1.75,0.78361 1.75,1.75v0.65234c0,0.09286 0.0647,0.22462 0.2285,0.29981zM9.24996,12c0,1.5188 1.23124,2.75 2.75004,2.75c1.5187,0 2.75,-1.2312 2.75,-2.75c0,-1.5188 -1.2313,-2.75 -2.75,-2.75c-1.5188,0 -2.75004,1.2312 -2.75004,2.75zM7.74996,12c0,-2.34721 1.90279,-4.25 4.25004,-4.25c2.3472,0 4.25,1.90279 4.25,4.25c0,2.3472 -1.9028,4.25 -4.25,4.25c-2.34725,0 -4.25004,-1.9028 -4.25004,-4.25z" fill="#002B51"/>
</svg>
