<svg width="24" height="24" viewBox="0 0 24 24" fill="none" xmlns="http://www.w3.org/2000/svg">
<path d="M13.2227,2c0.5522,0 1,0.44772 1,1v0.79883c0,0.44226 0.2934,0.82561 0.7031,0.99219c0.0342,0.01389 0.0686,0.02859 0.1025,0.04296c0.4075,0.17232 0.8863,0.10854 1.1992,-0.2041l0.5655,-0.56543c0.3905,-0.39042 1.0235,-0.39042 1.414,0l1.7285,1.72852c0.3905,0.3905 0.3905,1.02356 0,1.41406l-0.5654,0.56543c-0.3126,0.31293 -0.3764,0.79178 -0.2041,1.19922c0.0144,0.03396 0.0291,0.06833 0.043,0.10254c0.1666,0.40968 0.5499,0.70309 0.9922,0.70312h0.7988c0.5523,0 1,0.44776 1,0.99996v2.4454c0,0.5522 -0.4477,1 -1,1h-0.7988c-0.4423,0 -0.8256,0.2934 -0.9922,0.7031c-0.0139,0.0342 -0.0286,0.0686 -0.043,0.1025c-0.1723,0.4075 -0.1085,0.8863 0.2041,1.1992l0.5654,0.5655c0.3905,0.3905 0.3905,1.0235 0,1.414l-1.7285,1.7285c-0.3905,0.3905 -1.0235,0.3905 -1.414,0l-0.5655,-0.5654c-0.3129,-0.3126 -0.7917,-0.3764 -1.1992,-0.2041c-0.0339,0.0144 -0.0683,0.0291 -0.1025,0.043c-0.4097,0.1666 -0.7031,0.5499 -0.7031,0.9922v0.7988c0,0.5523 -0.4478,1 -1,1h-2.4454c-0.5522,0 -0.99996,-0.4477 -0.99996,-1v-0.7988c-0.00003,-0.4423 -0.29344,-0.8256 -0.70312,-0.9922c-0.03421,-0.0139 -0.06858,-0.0286 -0.10254,-0.043c-0.40744,-0.1723 -0.88629,-0.1085 -1.19922,0.2041l-0.56543,0.5654c-0.3905,0.3905 -1.02356,0.3905 -1.41406,0l-1.72852,-1.7285c-0.39042,-0.3905 -0.39042,-1.0235 0,-1.414l0.56543,-0.5655c0.31264,-0.3129 0.37642,-0.7917 0.2041,-1.1992c-0.01437,-0.0339 -0.02907,-0.0683 -0.04296,-0.1025c-0.16658,-0.4097 -0.54993,-0.7031 -0.99219,-0.7031h-0.79883c-0.55228,0 -1,-0.4478 -1,-1v-2.4454c0,-0.5522 0.44772,-0.99996 1,-0.99996h0.79883c0.44226,-0.00003 0.82561,-0.29344 0.99219,-0.70312c0.01389,-0.03421 0.02859,-0.06858 0.04296,-0.10254c0.17232,-0.40744 0.10854,-0.88629 -0.2041,-1.19922l-0.56543,-0.56543c-0.39042,-0.3905 -0.39042,-1.02356 0,-1.41406l1.72852,-1.72852c0.3905,-0.39042 1.02356,-0.39042 1.41406,0l0.56543,0.56543c0.31293,0.31264 0.79178,0.37642 1.19922,0.2041c0.03396,-0.01437 0.06833,-0.02907 0.10254,-0.04296c0.40968,-0.16658 0.70309,-0.54993 0.70312,-0.99219v-0.79883c0,-0.55228 0.44776,-1 0.99996,-1zM12,8.5c-1.933,0 -3.5,1.567 -3.5,3.5c0,1.933 1.567,3.5 3.5,3.5c1.933,0 3.5,-1.567 3.5,-3.5c0,-1.933 -1.567,-3.5 -3.5,-3.5z" fill="#002B51"/>
</svg>
