<svg width="24" height="24" viewBox="0 0 24 24" fill="none" xmlns="http://www.w3.org/2000/svg">
<path fill-rule="evenodd" clip-rule="evenodd" d="M11,3.74991c-0.1381,0 -0.25,0.11193 -0.25,0.25v0.56836c0,0.7284 -0.4524,1.3173 -1.02832,1.60351l-0.11621,0.05274c-0.59652,0.24766 -1.33181,0.19201 -1.87109,-0.26563l-0.10547,-0.09765l-0.40235,-0.40235c-0.09766,-0.09726 -0.25601,-0.0975 -0.35351,0l-1.41407,1.41407c-0.0975,0.0975 -0.09725,0.25585 0,0.35351l0.40235,0.40234c0.54584,0.54585 0.62748,1.34021 0.36328,1.97657c-0.24527,0.59052 -0.80308,1.07972 -1.51172,1.13862l-0.14453,0.0059h-0.56836c-0.13807,0 -0.25,0.1119 -0.25,0.25v2c0,0.1381 0.11193,0.25 0.25,0.25h0.56836c0.77672,0 1.39458,0.5145 1.65625,1.1445c0.24766,0.5966 0.19201,1.3318 -0.26563,1.8711l-0.09765,0.1055l-0.40235,0.4023c-0.09725,0.0977 -0.0975,0.2561 0,0.3536l1.41407,1.414l0.04004,0.0323c0.09685,0.0636 0.22818,0.0527 0.31347,-0.0323l0.40235,-0.4023c0.54584,-0.5459 1.34021,-0.6275 1.97656,-0.3633l0.11621,0.0527c0.57592,0.2862 1.02832,0.8751 1.02832,1.6035v0.5684c0,0.1381 0.1119,0.25 0.25,0.25h2c0.1381,0 0.25,-0.1119 0.25,-0.25v-0.5684c0,-0.7767 0.5145,-1.3945 1.1445,-1.6562l0.1211,-0.0459c0.6136,-0.2067 1.3438,-0.1026 1.8555,0.4092l0.4023,0.4023l0.0391,0.0323c0.097,0.0637 0.2292,0.053 0.3145,-0.0323l1.414,-1.414c0.0975,-0.0975 0.0973,-0.2559 0,-0.3536l-0.4023,-0.4023c-0.5459,-0.5458 -0.6275,-1.3402 -0.3633,-1.9766c0.2617,-0.63 0.8795,-1.1445 1.6562,-1.1445h0.5684c0.1381,0 0.25,-0.1119 0.25,-0.25v-2c0,-0.1381 -0.1119,-0.25 -0.25,-0.25h-0.5684c-0.7284,0 -1.3173,-0.4524 -1.6035,-1.02831l-0.0527,-0.11621c-0.2642,-0.63636 -0.1826,-1.43072 0.3633,-1.97657l0.4023,-0.40234c0.0973,-0.09766 0.0975,-0.25601 0,-0.35351l-1.414,-1.41407c-0.0976,-0.0975 -0.2559,-0.09726 -0.3536,0l-0.4023,0.40235c-0.5458,0.54584 -1.3402,0.62748 -1.9766,0.36328c-0.63,-0.26167 -1.1445,-0.87953 -1.1445,-1.65625v-0.56836c0,-0.13807 -0.1119,-0.25 -0.25,-0.25zM15.3096,4.80069l0.4023,-0.40234l0.1338,-0.12012c0.6874,-0.56031 1.7012,-0.52048 2.3418,0.12012l1.4141,1.41406c0.6834,0.68342 0.6834,1.79217 0,2.47558l-0.4024,0.40235c-0.0593,0.05947 -0.103,0.18581 -0.039,0.33984l0.0273,0.05567c0.0696,0.11862 0.1752,0.16406 0.2441,0.16406h0.5684c0.9665,0 1.75,0.78349 1.75,1.74999v2c0,0.9665 -0.7835,1.75 -1.75,1.75h-0.5684c-0.0788,0 -0.205,0.0596 -0.2714,0.2197c-0.064,0.1541 -0.0203,0.2804 0.039,0.3399l0.4024,0.4023c0.6834,0.6834 0.6834,1.7922 0,2.4756l-1.4141,1.4141c-0.6406,0.6406 -1.6544,0.6804 -2.3418,0.1201l-0.1338,-0.1201l-0.4023,-0.4024c-0.0521,-0.0519 -0.155,-0.0913 -0.2832,-0.0576l-0.0567,0.0186c-0.1601,0.0664 -0.2197,0.1926 -0.2197,0.2714v0.5684c0,0.9665 -0.7835,1.75 -1.75,1.75h-2c-0.9665,0 -1.75,-0.7835 -1.75,-1.75v-0.5684c0,-0.0689 -0.04544,-0.1744 -0.16406,-0.2441l-0.05567,-0.0273c-0.15403,-0.064 -0.28037,-0.0203 -0.33984,0.039l-0.40234,0.4024c-0.64076,0.6407 -1.65542,0.6809 -2.34278,0.1201l-0.13281,-0.1201l-1.41406,-1.4141c-0.68342,-0.6834 -0.68342,-1.7922 0,-2.4756l0.40234,-0.4023l0.04004,-0.0557c0.03441,-0.0679 0.04713,-0.1683 -0.00098,-0.2842c-0.06647,-0.1601 -0.19267,-0.2197 -0.27148,-0.2197h-0.56836c-0.9665,0 -1.75,-0.7835 -1.75,-1.75v-2c0,-0.9665 0.7835,-1.74999 1.75,-1.74999h0.56836l0.06641,-0.01172c0.07173,-0.02424 0.15516,-0.0878 0.20507,-0.20801c0.06395,-0.15403 0.02027,-0.28037 -0.03906,-0.33984l-0.40234,-0.40235c-0.68342,-0.68341 -0.68342,-1.79216 0,-2.47558l1.41406,-1.41406c0.68342,-0.68342 1.79217,-0.68342 2.47559,0l0.40234,0.40234l0.05566,0.04004c0.06791,0.03441 0.16831,0.04713 0.28418,-0.00098l0.05567,-0.02734c0.11862,-0.06965 0.16406,-0.1752 0.16406,-0.24414v-0.56836c0,-0.9665 0.7835,-1.75 1.75,-1.75h2c0.9665,0 1.75,0.7835 1.75,1.75v0.56836c0,0.07881 0.0596,0.20501 0.2197,0.27148c0.1541,0.06395 0.2804,0.02026 0.3399,-0.03906zM9.25,12c0,1.5188 1.2312,2.75 2.75,2.75c1.5188,0 2.75,-1.2312 2.75,-2.75c0,-1.5188 -1.2312,-2.75 -2.75,-2.75c-1.5188,0 -2.75,1.2312 -2.75,2.75zM7.75,12c0,-2.34721 1.90279,-4.25 4.25,-4.25c2.3472,0 4.25,1.90279 4.25,4.25c0,2.3472 -1.9028,4.25 -4.25,4.25c-2.34721,0 -4.25,-1.9028 -4.25,-4.25z" fill="#002B51"/>
</svg>
