<svg width="24" height="24" viewBox="0 0 24 24" fill="none" xmlns="http://www.w3.org/2000/svg">
<path fill-rule="evenodd" clip-rule="evenodd" d="M13.25,2.24991c0.9665,0 1.75,0.7835 1.75,1.75v0.65276c0,0.09286 0.0646,0.22469 0.2285,0.29987c0.4443,0.20386 0.8659,0.4484 1.2599,0.72877c0.1463,0.1041 0.2925,0.09429 0.373,0.0478l0.5669,-0.32728c0.837,-0.48325 1.9073,-0.19646 2.3905,0.64055l1.25,2.16506c0.4833,0.83701 0.1965,1.90726 -0.6405,2.39056l-0.5667,0.3272c-0.0805,0.0464 -0.1621,0.168 -0.1455,0.3468c0.0224,0.2398 0.0338,0.4826 0.0338,0.7279c0,0.2453 -0.0114,0.4881 -0.0338,0.7279c-0.0166,0.1788 0.065,0.3004 0.1455,0.3469l0.5666,0.3271c0.837,0.4833 1.1238,1.5536 0.6406,2.3906l-1.25,2.165c-0.4833,0.8371 -1.5536,1.1238 -2.3906,0.6406l-0.5668,-0.3273c-0.0805,-0.0465 -0.2267,-0.0563 -0.373,0.0478c-0.394,0.2804 -0.8156,0.5249 -1.2599,0.7288c-0.1639,0.0752 -0.2285,0.207 -0.2285,0.2999v0.6527c0,0.9665 -0.7835,1.75 -1.75,1.75h-2.5c-0.96647,0 -1.74997,-0.7835 -1.74997,-1.75v-0.6527c0,-0.0928 -0.06457,-0.2247 -0.22845,-0.2998c-0.44436,-0.2039 -0.86595,-0.4484 -1.26002,-0.7288c-0.1463,-0.1041 -0.29247,-0.0943 -0.37299,-0.0478l-0.56671,0.3272c-0.83701,0.4832 -1.90729,0.1965 -2.39054,-0.6406l-1.25,-2.165c-0.48325,-0.837 -0.19647,-1.9073 0.64054,-2.3906l0.56644,-0.327c0.08046,-0.0465 0.1621,-0.168 0.14542,-0.3468c-0.02237,-0.2399 -0.03379,-0.4828 -0.03379,-0.7281c0,-0.2453 0.01142,-0.4882 0.03379,-0.728c0.01668,-0.1788 -0.06496,-0.3004 -0.14542,-0.3469l-0.56647,-0.327c-0.83702,-0.4833 -1.1238,-1.55355 -0.64055,-2.39056l1.25,-2.16506c0.48325,-0.83702 1.55353,-1.1238 2.39055,-0.64055l0.56672,0.3272c0.08052,0.04649 0.2267,0.0563 0.373,-0.04779c0.39407,-0.28038 0.81567,-0.52493 1.26003,-0.72879c0.16388,-0.07518 0.22845,-0.20701 0.22845,-0.29988v-0.65266c0,-0.9665 0.7835,-1.75 1.74997,-1.75zM10.5,4.65257c0,0.76411 -0.4879,1.3811 -1.10295,1.66326c-0.35796,0.16421 -0.69789,0.36135 -1.01591,0.58762c-0.55208,0.39281 -1.33083,0.50668 -1.99259,0.12462l-0.56672,-0.3272c-0.11958,-0.06904 -0.27248,-0.02807 -0.34151,0.09151l-1.25,2.16506c-0.06904,0.11957 -0.02807,0.27247 0.09151,0.34151l0.56647,0.32705c0.66093,0.3816 0.95177,1.1116 0.88894,1.7852c-0.01806,0.1936 -0.02731,0.39 -0.02731,0.5887c0,0.1987 0.00925,0.3951 0.02731,0.5887c0.06283,0.6736 -0.22801,1.4036 -0.88894,1.7852l-0.56644,0.3271c-0.11957,0.069 -0.16054,0.2219 -0.0915,0.3415l1.25,2.165c0.06903,0.1196 0.22193,0.1606 0.3415,0.0915l0.56671,-0.3271c0.66175,-0.3821 1.4405,-0.2682 1.99259,0.1246c0.31801,0.2262 0.65794,0.4234 1.01589,0.5876c0.61505,0.2821 1.10295,0.8991 1.10295,1.6632v0.6527c0,0.1381 0.112,0.25 0.25,0.25h2.5c0.1381,0 0.25,-0.1119 0.25,-0.25v-0.6527c0,-0.7641 0.4879,-1.3811 1.103,-1.6633c0.3579,-0.1642 0.6978,-0.3613 1.0158,-0.5876c0.5521,-0.3928 1.3308,-0.5067 1.9926,-0.1246l0.5668,0.3272c0.1196,0.0691 0.2725,0.0281 0.3415,-0.0915l1.25,-2.165c0.0691,-0.1196 0.0281,-0.2725 -0.0915,-0.3415l-0.5666,-0.3272c-0.661,-0.3816 -0.9518,-1.1116 -0.889,-1.7852c0.0181,-0.1936 0.0273,-0.3899 0.0273,-0.5886c0,-0.1987 -0.0092,-0.395 -0.0273,-0.5886c-0.0628,-0.6736 0.228,-1.4036 0.889,-1.78517l0.5667,-0.32718c0.1195,-0.06904 0.1605,-0.22194 0.0915,-0.34151l-1.25,-2.16506c-0.0691,-0.11958 -0.222,-0.16055 -0.3415,-0.09151l-0.5669,0.32728c-0.6618,0.38207 -1.4405,0.26818 -1.9926,-0.12464c-0.318,-0.22626 -0.6579,-0.42339 -1.0158,-0.58761c-0.6151,-0.28217 -1.103,-0.89914 -1.103,-1.66323v-0.65276c0,-0.13807 -0.1119,-0.25 -0.25,-0.25h-2.5c-0.138,0 -0.25,0.11193 -0.25,0.25zM12,14.75c1.5188,0 2.75,-1.2312 2.75,-2.75c0,-1.5188 -1.2312,-2.75 -2.75,-2.75c-1.5188,0 -2.75,1.2312 -2.75,2.75c0,1.5188 1.2312,2.75 2.75,2.75zM16.25,12c0,2.3472 -1.9028,4.25 -4.25,4.25c-2.34721,0 -4.25,-1.9028 -4.25,-4.25c0,-2.34721 1.90279,-4.25 4.25,-4.25c2.3472,0 4.25,1.90279 4.25,4.25z" fill="#002B51"/>
</svg>
