<svg width="24" height="24" viewBox="0 0 24 24" fill="none" xmlns="http://www.w3.org/2000/svg">
<path d="M13,2.24991c0.9665,0 1.75,0.7835 1.75,1.75v0.56836c0,0.07885 0.0596,0.20497 0.2197,0.27148l0.0567,0.01856c0.1284,0.03385 0.2321,-0.00559 0.2841,-0.05762l0.4024,-0.40234l0.1328,-0.12012c0.6873,-0.56058 1.7011,-0.52051 2.3418,0.12012l1.4141,1.41406c0.6406,0.6407 0.6807,1.65447 0.1201,2.3418l-0.1201,0.13281l-0.4024,0.40234c-0.0594,0.05945 -0.1031,0.18658 -0.039,0.34082l0.0273,0.05567c0.0697,0.11861 0.1752,0.16406 0.2441,0.16406h0.5684c0.9665,0 1.75,0.78349 1.75,1.74999v2c0,0.9665 -0.7835,1.75 -1.75,1.75h-0.5684c-0.0689,0 -0.1744,0.0455 -0.2441,0.1641l-0.0273,0.0556c-0.0641,0.1543 -0.0204,0.2814 0.039,0.3409l0.4024,0.4023l0.1201,0.1328c0.5232,0.6415 0.5232,1.5675 0,2.209l-0.1201,0.1328l-1.4141,1.4141c-0.6407,0.6406 -1.6545,0.6807 -2.3418,0.1201l-0.1328,-0.1201l-0.4024,-0.4024c-0.052,-0.052 -0.1557,-0.0914 -0.2841,-0.0576l-0.0567,0.0186c-0.1601,0.0665 -0.2197,0.1926 -0.2197,0.2714v0.5684c0,0.9665 -0.7835,1.75 -1.75,1.75h-2c-0.9665,0 -1.75,-0.7835 -1.75,-1.75v-0.5684c0,-0.0689 -0.04545,-0.1744 -0.16406,-0.2441l-0.05567,-0.0273c-0.11581,-0.0481 -0.21623,-0.0354 -0.28418,-0.001l-0.05664,0.04l-0.40234,0.4024c-0.6407,0.6406 -1.65447,0.6807 -2.3418,0.1201l-0.13281,-0.1201l-1.41406,-1.4141c-0.68332,-0.6834 -0.68332,-1.7912 0,-2.4746l0.40234,-0.4023l0.04004,-0.0567c0.02865,-0.0566 0.0418,-0.1356 0.01758,-0.2275l-0.01856,-0.0567c-0.06651,-0.1601 -0.19263,-0.2197 -0.27148,-0.2197h-0.56836c-0.9665,0 -1.75,-0.7835 -1.75,-1.75v-2c0,-0.9665 0.7835,-1.74999 1.75,-1.74999h0.56836c0.07885,0 0.20497,-0.05963 0.27148,-0.21973c0.04809,-0.11582 0.03534,-0.21623 0.00098,-0.28418l-0.04004,-0.05664l-0.40234,-0.40234c-0.68332,-0.6834 -0.68332,-1.79121 0,-2.47461l1.41406,-1.41406l0.13281,-0.12012c0.68733,-0.56058 1.7011,-0.52051 2.3418,0.12012l0.40234,0.40234l0.05664,0.04004c0.06795,0.03436 0.16837,0.04711 0.28418,-0.00098l0.05567,-0.02734c0.11861,-0.06968 0.16406,-0.17517 0.16406,-0.24414v-0.56836c0,-0.9665 0.7835,-1.75 1.75,-1.75zM11,3.74991c-0.1381,0 -0.25,0.11193 -0.25,0.25v0.56836c0,0.72843 -0.4524,1.31726 -1.02832,1.60351l-0.11621,0.05274c-0.59652,0.24767 -1.33176,0.19194 -1.87109,-0.26563l-0.10547,-0.09765l-0.40235,-0.40235c-0.09761,-0.09753 -0.2559,-0.09753 -0.35351,0l-1.41407,1.41407c-0.09753,0.09761 -0.09753,0.2559 0,0.35351l0.40235,0.40234c0.5459,0.5459 0.62752,1.34016 0.36328,1.97657c-0.26171,0.63002 -0.8795,1.14452 -1.65625,1.14452h-0.56836c-0.13807,0 -0.25,0.1119 -0.25,0.25v2c0,0.1381 0.11193,0.25 0.25,0.25h0.56836c0.77675,0 1.39454,0.5145 1.65625,1.1445l0.0459,0.1211c0.19298,0.5726 0.11557,1.2466 -0.31153,1.75l-0.09765,0.1055l-0.40235,0.4023c-0.09753,0.0977 -0.09753,0.256 0,0.3536l1.41407,1.414l0.03906,0.0323c0.097,0.064 0.22904,0.0531 0.31445,-0.0323l0.40235,-0.4023l0.10547,-0.0977c0.53933,-0.4575 1.27457,-0.5133 1.87109,-0.2656l0.11621,0.0527c0.57592,0.2863 1.02832,0.8751 1.02832,1.6035v0.5684c0,0.1381 0.1119,0.25 0.25,0.25h2c0.1381,0 0.25,-0.1119 0.25,-0.25v-0.5684c0,-0.7767 0.5145,-1.3945 1.1445,-1.6562l0.1211,-0.0459c0.6137,-0.2068 1.3437,-0.1026 1.8555,0.4092l0.4023,0.4023l0.0391,0.0323c0.097,0.064 0.229,0.0531 0.3145,-0.0323l1.414,-1.414c0.0854,-0.0855 0.0963,-0.2175 0.0322,-0.3145l-0.0322,-0.0391l-0.4023,-0.4023c-0.5459,-0.5459 -0.6275,-1.3401 -0.3633,-1.9766l0.0527,-0.1162c0.2863,-0.5759 0.8751,-1.0283 1.6035,-1.0283h0.5684c0.1381,0 0.25,-0.1119 0.25,-0.25v-2c0,-0.1381 -0.1119,-0.25 -0.25,-0.25h-0.5684c-0.7284,0 -1.3172,-0.4524 -1.6035,-1.02831l-0.0527,-0.11621c-0.2642,-0.63641 -0.1826,-1.43067 0.3633,-1.97657l0.4023,-0.40234l0.0322,-0.03906c0.0641,-0.09701 0.0532,-0.22904 -0.0322,-0.31445l-1.414,-1.41407c-0.0855,-0.08534 -0.2175,-0.09624 -0.3145,-0.03222l-0.0391,0.03222l-0.4023,0.40235c-0.5118,0.51182 -1.2418,0.61599 -1.8555,0.40918l-0.1211,-0.0459c-0.63,-0.26172 -1.1445,-0.8795 -1.1445,-1.65625v-0.56836c0,-0.13807 -0.1119,-0.25 -0.25,-0.25zM12,7.74991c2.3472,0 4.25,1.90283 4.25,4.24999c0,2.3472 -1.9028,4.25 -4.25,4.25c-2.34721,0 -4.25,-1.9028 -4.25,-4.25c0.00005,-2.34716 1.90282,-4.24999 4.25,-4.24999zM12,9.24991c-1.5188,0 -2.74995,1.23129 -2.75,2.74999c0,1.5188 1.2312,2.75 2.75,2.75c1.5188,0 2.75,-1.2312 2.75,-2.75c0,-1.5187 -1.2312,-2.74999 -2.75,-2.74999z" fill="#002B51"/>
</svg>
