<svg width="24" height="24" viewBox="0 0 24 24" fill="none" xmlns="http://www.w3.org/2000/svg">
<path d="M13.249,2.24991c0.9665,0 1.75,0.7835 1.75,1.75v0.65234c0,0.09273 0.0652,0.22457 0.2285,0.29981c0.4445,0.20388 0.8667,0.44906 1.2608,0.72949c0.146,0.10394 0.2924,0.09415 0.373,0.04785l0.5674,-0.32715c0.8369,-0.48301 1.9064,-0.19609 2.3897,0.64063l1.25,2.16406c0.4834,0.83713 0.1966,1.90746 -0.6407,2.39066l-0.5664,0.3271c-0.0803,0.0466 -0.162,0.1682 -0.1455,0.3467c0.0224,0.2399 0.0342,0.4831 0.0342,0.7285c0,0.2452 -0.0118,0.4878 -0.0342,0.7275c-0.0166,0.1785 0.0652,0.3001 0.1455,0.3467l0.5674,0.3282c0.8367,0.4834 1.1229,1.5537 0.6397,2.3906l-1.2491,2.164c-0.4833,0.8369 -1.5546,1.124 -2.3916,0.6407l-0.5664,-0.3272c-0.0806,-0.0462 -0.227,-0.056 -0.373,0.0479c-0.3941,0.2804 -0.8163,0.5256 -1.2608,0.7295c-0.1633,0.0752 -0.2285,0.207 -0.2285,0.2998v0.6523c0,0.9665 -0.7835,1.75 -1.75,1.75h-2.5c-0.96612,-0.0004 -1.74998,-0.7837 -1.74998,-1.75v-0.6523c0,-0.0929 -0.06465,-0.2256 -0.22851,-0.3008c-0.44407,-0.2038 -0.86593,-0.4483 -1.25977,-0.7285c-0.14619,-0.1039 -0.29258,-0.0943 -0.37304,-0.0479l-0.56641,0.3272c-0.83691,0.4829 -1.9074,0.1962 -2.39063,-0.6407l-1.25,-2.164c-0.48307,-0.8368 -0.19596,-1.9072 0.64063,-2.3906l0.56641,-0.3272c0.08037,-0.0464 0.16201,-0.1681 0.1455,-0.3467c-0.02237,-0.2398 -0.0332,-0.4832 -0.0332,-0.7285c0,-0.2455 0.0108,-0.4885 0.0332,-0.7285c0.0167,-0.1789 -0.06502,-0.3002 -0.1455,-0.3467l-0.56543,-0.3271c-0.83687,-0.4832 -1.12461,-1.5537 -0.64161,-2.39066l1.25,-2.16406c0.4832,-0.83678 1.55371,-1.1235 2.39063,-0.64063l0.56641,0.32715c0.08041,0.04642 0.22695,0.05579 0.37304,-0.04785c0.39377,-0.28018 0.81578,-0.52474 1.25977,-0.72852c0.16386,-0.07518 0.22851,-0.20792 0.22851,-0.30078v-0.65234c0,-0.96624 0.78386,-1.74959 1.74998,-1.75zM12,8.49991c-1.9329,0.00003 -3.49995,1.56709 -3.5,3.49999c0,1.933 1.567,3.5 3.5,3.5c1.933,0 3.5,-1.567 3.5,-3.5c0,-1.9329 -1.567,-3.49999 -3.5,-3.49999z" fill="#002B51"/>
</svg>
