<svg width="24" height="24" viewBox="0 0 24 24" fill="none" xmlns="http://www.w3.org/2000/svg">
<path fill-rule="evenodd" clip-rule="evenodd" d="M10.75 2.24991C9.78355 2.24991 9.00005 3.03341 9.00005 3.99991V4.65257C9.00005 4.74544 8.93548 4.87727 8.7716 4.95245C8.32723 5.15631 7.90564 5.40086 7.51156 5.68124C7.36526 5.78533 7.21909 5.77552 7.13857 5.72903L6.57184 5.40183C5.73483 4.91858 4.66455 5.20536 4.1813 6.04238L2.9313 8.20744C2.44805 9.04445 2.73483 10.1147 3.57184 10.598L4.13831 10.925C4.21877 10.9715 4.30042 11.0931 4.28374 11.2719C4.26136 11.5117 4.24994 11.7546 4.24994 11.9999C4.24994 12.2452 4.26136 12.4881 4.28374 12.728C4.30042 12.9068 4.21877 13.0283 4.13831 13.0748L3.57188 13.4018C2.73487 13.8851 2.44809 14.9554 2.93134 15.7924L4.18134 17.9574C4.66458 18.7945 5.73487 19.0812 6.57188 18.598L7.13858 18.2708C7.21911 18.2243 7.36528 18.2145 7.51158 18.3186C7.90565 18.599 8.32724 18.8435 8.7716 19.0474C8.93548 19.1225 9.00005 19.2544 9.00005 19.3472V19.9999C9.00005 20.9664 9.78355 21.7499 10.75 21.7499H13.25C14.2165 21.7499 15 20.9664 15 19.9999V19.3472C15 19.2543 15.0646 19.1225 15.2285 19.0473C15.6728 18.8434 16.0944 18.5989 16.4884 18.3185C16.6347 18.2144 16.7809 18.2242 16.8614 18.2707L17.4282 18.598C18.2653 19.0812 19.3355 18.7945 19.8188 17.9574L21.0688 15.7924C21.552 14.9554 21.2653 13.8851 20.4282 13.4018L19.8616 13.0747C19.7811 13.0282 19.6995 12.9066 19.7162 12.7278C19.7385 12.488 19.7499 12.2452 19.7499 11.9999C19.7499 11.7546 19.7385 11.5118 19.7162 11.272C19.6995 11.0932 19.7811 10.9716 19.8616 10.9252L20.4283 10.598C21.2653 10.1147 21.5521 9.04445 21.0688 8.20744L19.8188 6.04238C19.3356 5.20537 18.2653 4.91858 17.4283 5.40183L16.8614 5.72911C16.7809 5.7756 16.6347 5.78541 16.4884 5.68131C16.0944 5.40094 15.6728 5.1564 15.2285 4.95254C15.0646 4.87736 15 4.74553 15 4.65267V3.99991C15 3.03341 14.2165 2.24991 13.25 2.24991H10.75ZM10.5 3.99991C10.5 3.86184 10.612 3.74991 10.75 3.74991H13.25C13.3881 3.74991 13.5 3.86184 13.5 3.99991V4.65267C13.5 5.41676 13.988 6.03373 14.603 6.3159C14.9609 6.48012 15.3008 6.67725 15.6188 6.90351C16.1709 7.29633 16.9497 7.41022 17.6114 7.02815L18.1783 6.70087C18.2979 6.63183 18.4508 6.6728 18.5198 6.79238L19.7698 8.95744C19.8388 9.07701 19.7979 9.22991 19.6783 9.29895L19.1116 9.62613C18.4507 10.0077 18.1598 10.7377 18.2226 11.4113C18.2407 11.6049 18.2499 11.8012 18.2499 11.9999C18.2499 12.1986 18.2407 12.3949 18.2226 12.5885C18.1598 13.2621 18.4507 13.9921 19.1116 14.3737L19.6782 14.7009C19.7978 14.7699 19.8388 14.9228 19.7698 15.0424L18.5198 17.2074C18.4507 17.327 18.2978 17.368 18.1782 17.2989L17.6114 16.9717C16.9496 16.5896 16.1709 16.7035 15.6188 17.0963C15.3008 17.3226 14.9609 17.5197 14.603 17.6839C13.988 17.9661 13.5 18.5831 13.5 19.3472V19.9999C13.5 20.138 13.3881 20.2499 13.25 20.2499H10.75C10.612 20.2499 10.5 20.138 10.5 19.9999V19.3472C10.5 18.5831 10.0121 17.9661 9.39707 17.684C9.03911 17.5198 8.69918 17.3226 8.38117 17.0964C7.82909 16.7036 7.05034 16.5897 6.38858 16.9718L5.82188 17.2989C5.70231 17.368 5.54941 17.327 5.48037 17.2074L4.23037 15.0424C4.16134 14.9228 4.20231 14.7699 4.32188 14.7009L4.88831 14.3738C5.54925 13.9922 5.84009 13.2622 5.77725 12.5886C5.75919 12.395 5.74994 12.1986 5.74994 11.9999C5.74994 11.8012 5.75919 11.6048 5.77725 11.4112C5.84009 10.7376 5.54924 10.0076 4.88831 9.626L4.32184 9.29895C4.20227 9.22991 4.1613 9.07701 4.23033 8.95744L5.48033 6.79238C5.54937 6.6728 5.70227 6.63183 5.82184 6.70087L6.38857 7.02807C7.05032 7.41013 7.82907 7.29626 8.38116 6.90345C8.69917 6.67718 9.03911 6.48004 9.39707 6.31583C10.0121 6.03367 10.5 5.41668 10.5 4.65257V3.99991ZM9.25002 12C9.25002 10.4812 10.4812 9.25 12 9.25C13.5188 9.25 14.75 10.4812 14.75 12C14.75 13.5188 13.5188 14.75 12 14.75C10.4812 14.75 9.25002 13.5188 9.25002 12ZM12 7.75C9.65281 7.75 7.75002 9.65279 7.75002 12C7.75002 14.3472 9.65281 16.25 12 16.25C14.3472 16.25 16.25 14.3472 16.25 12C16.25 9.65279 14.3472 7.75 12 7.75Z" fill="#002B51"/>
</svg>
