<svg width="24" height="24" viewBox="0 0 24 24" fill="none" xmlns="http://www.w3.org/2000/svg">
<path d="M13.2493,2.24991c0.9665,0 1.75,0.7835 1.75,1.75v0.65234c0,0.09278 0.065,0.22459 0.2285,0.29981c0.4445,0.20391 0.8666,0.44901 1.2608,0.72949c0.1462,0.10403 0.2925,0.09425 0.373,0.04785l0.5674,-0.32715c0.8369,-0.48304 1.9064,-0.1962 2.3896,0.64063l1.25,2.16406c0.4533,0.78494 0.2297,1.77521 -0.4902,2.29396l-0.1504,0.0967l-0.5664,0.3271c-0.0804,0.0465 -0.1621,0.168 -0.1455,0.3467c0.0224,0.2399 0.0342,0.4831 0.0342,0.7285c0,0.2452 -0.0118,0.4878 -0.0342,0.7275c-0.0166,0.1787 0.0651,0.3002 0.1455,0.3467l0.5674,0.3282c0.8367,0.4834 1.1229,1.5537 0.6396,2.3906l-1.249,2.164c-0.4833,0.837 -1.5546,1.1241 -2.3916,0.6407l-0.5664,-0.3272c-0.0705,-0.0406 -0.1913,-0.0536 -0.3183,0.0137l-0.0547,0.0342c-0.3942,0.2804 -0.8163,0.5255 -1.2608,0.7295c-0.1635,0.0752 -0.2285,0.207 -0.2285,0.2998v0.6523c0,0.9665 -0.7835,1.75 -1.75,1.75h-2.5c-0.96626,-0.0003 -1.74999,-0.7837 -1.74999,-1.75v-0.6523c0,-0.0812 -0.04896,-0.1927 -0.1709,-0.2696l-0.05761,-0.0312c-0.33314,-0.1529 -0.65346,-0.3288 -0.95899,-0.5254l-0.30078,-0.2031c-0.1095,-0.0779 -0.21892,-0.0916 -0.30078,-0.0743l-0.07227,0.0264l-0.5664,0.3272c-0.78468,0.4529 -1.77416,0.2291 -2.29297,-0.4903l-0.09766,-0.1504l-1.25,-2.164c-0.48321,-0.8369 -0.19616,-1.9073 0.64063,-2.3906l0.5664,-0.3272l0.05957,-0.0488c0.0468,-0.0519 0.08401,-0.1316 0.0879,-0.2344l-0.00196,-0.0635c-0.02237,-0.2398 -0.0332,-0.4832 -0.0332,-0.7285c0,-0.2455 0.0108,-0.4885 0.0332,-0.7285c0.01253,-0.1342 -0.02974,-0.2367 -0.08594,-0.2988l-0.05957,-0.0479l-0.56543,-0.3271c-0.83707,-0.4832 -1.12474,-1.55361 -0.6416,-2.39066l1.25,-2.16406c0.48324,-0.83686 1.55368,-1.12368 2.39063,-0.64063l0.5664,0.32715l0.07227,0.02637c0.08182,0.01741 0.19127,0.00354 0.30078,-0.07422l0.30078,-0.2041c0.3054,-0.19646 0.62601,-0.37161 0.95899,-0.52442c0.16386,-0.07518 0.22851,-0.20792 0.22851,-0.30078v-0.65234c0,-0.96634 0.78373,-1.74974 1.74999,-1.75zM12.0003,8.49991c-1.933,0 -3.49996,1.56709 -3.50001,3.49999c0,1.933 1.56701,3.5 3.50001,3.5c1.9329,-0.0001 3.5,-1.5671 3.5,-3.5c-0.0001,-1.9329 -1.5672,-3.49986 -3.5,-3.49999z" fill="#002B51"/>
</svg>
