<svg width="24" height="24" viewBox="0 0 24 24" fill="none" xmlns="http://www.w3.org/2000/svg">
<path fill-rule="evenodd" clip-rule="evenodd" d="M10.75 2.24991C9.78353 2.24991 9.00003 3.03341 9.00003 3.99991V4.65257C9.00003 4.74544 8.93546 4.87727 8.77158 4.95245C8.32722 5.15631 7.90562 5.40086 7.51155 5.68124C7.36525 5.78533 7.21907 5.77552 7.13855 5.72903L6.57183 5.40183C5.73481 4.91858 4.66453 5.20536 4.18128 6.04238L2.93128 8.20744C2.44803 9.04445 2.73481 10.1147 3.57183 10.598L4.1383 10.925C4.21876 10.9715 4.3004 11.0931 4.28372 11.2719C4.26135 11.5117 4.24993 11.7546 4.24993 11.9999C4.24993 12.2452 4.26135 12.4881 4.28372 12.728C4.3004 12.9068 4.21876 13.0283 4.1383 13.0748L3.57186 13.4018C2.73485 13.8851 2.44807 14.9554 2.93132 15.7924L4.18132 17.9574C4.66457 18.7945 5.73485 19.0812 6.57186 18.598L7.13857 18.2708C7.21909 18.2243 7.36526 18.2145 7.51156 18.3186C7.90563 18.599 8.32722 18.8435 8.77158 19.0474C8.93546 19.1225 9.00003 19.2544 9.00003 19.3472V19.9999C9.00003 20.9664 9.78353 21.7499 10.75 21.7499H13.25C14.2165 21.7499 15 20.9664 15 19.9999V19.3472C15 19.2543 15.0646 19.1225 15.2285 19.0473C15.6728 18.8434 16.0944 18.5989 16.4884 18.3185C16.6347 18.2144 16.7809 18.2242 16.8614 18.2707L17.4282 18.598C18.2652 19.0812 19.3355 18.7945 19.8188 17.9574L21.0688 15.7924C21.552 14.9554 21.2652 13.8851 20.4282 13.4018L19.8616 13.0747C19.7811 13.0282 19.6995 12.9066 19.7161 12.7278C19.7385 12.488 19.7499 12.2452 19.7499 11.9999C19.7499 11.7546 19.7385 11.5118 19.7161 11.272C19.6995 11.0932 19.7811 10.9716 19.8616 10.9252L20.4283 10.598C21.2653 10.1147 21.5521 9.04445 21.0688 8.20744L19.8188 6.04238C19.3356 5.20537 18.2653 4.91858 17.4283 5.40183L16.8614 5.72911C16.7809 5.7756 16.6347 5.78541 16.4884 5.68131C16.0944 5.40094 15.6728 5.1564 15.2285 4.95254C15.0646 4.87736 15 4.74553 15 4.65267V3.99991C15 3.03341 14.2165 2.24991 13.25 2.24991H10.75ZM15.5 12C15.5 13.933 13.933 15.5 12 15.5C10.067 15.5 8.50001 13.933 8.50001 12C8.50001 10.067 10.067 8.5 12 8.5C13.933 8.5 15.5 10.067 15.5 12Z" fill="#002B51"/>
</svg>
