<svg width="24" height="24" viewBox="0 0 24 24" fill="none" xmlns="http://www.w3.org/2000/svg">
<path fill-rule="evenodd" clip-rule="evenodd" d="M10.7778 2C10.2255 2 9.77778 2.44772 9.77778 3V3.79858C9.77778 4.241 9.48429 4.62469 9.07441 4.79121C9.04011 4.80514 9.00594 4.81931 8.97189 4.83371C8.56428 5.00616 8.08523 4.94246 7.77227 4.6295L7.20742 4.06465C6.81689 3.67412 6.18373 3.67412 5.7932 4.06465L4.06472 5.79313C3.67419 6.18365 3.67419 6.81682 4.06472 7.20734L4.62954 7.77217C4.9425 8.08513 5.00621 8.56419 4.83375 8.9718C4.81933 9.00588 4.80515 9.04008 4.79121 9.0744C4.62469 9.48429 4.241 9.77778 3.79858 9.77778L3 9.77778C2.44771 9.77778 2 10.2255 2 10.7778V13.2222C2 13.7745 2.44772 14.2222 3 14.2222H3.79858C4.24099 14.2222 4.62469 14.5157 4.79121 14.9256C4.80515 14.9599 4.81933 14.9941 4.83375 15.0282C5.0062 15.4358 4.9425 15.9149 4.62954 16.2278L4.06465 16.7927C3.67412 17.1832 3.67412 17.8164 4.06465 18.2069L5.79313 19.9354C6.18365 20.3259 6.81682 20.3259 7.20734 19.9354L7.77226 19.3705C8.08522 19.0575 8.56427 18.9938 8.97188 19.1663C9.00593 19.1807 9.04011 19.1949 9.0744 19.2088C9.48429 19.3753 9.77778 19.759 9.77778 20.2014V21C9.77778 21.5523 10.2255 22 10.7778 22H13.2222C13.7745 22 14.2222 21.5523 14.2222 21V20.2014C14.2222 19.759 14.5157 19.3753 14.9256 19.2088C14.9599 19.1948 14.9941 19.1807 15.0282 19.1662C15.4358 18.9938 15.9149 19.0575 16.2278 19.3705L16.7926 19.9353C17.1832 20.3258 17.8163 20.3258 18.2069 19.9353L19.9353 18.2068C20.3259 17.8163 20.3259 17.1831 19.9353 16.7926L19.3705 16.2277C19.0575 15.9148 18.9938 15.4357 19.1663 15.0281C19.1807 14.9941 19.1949 14.9599 19.2088 14.9256C19.3753 14.5157 19.759 14.2222 20.2014 14.2222H21C21.5523 14.2222 22 13.7745 22 13.2222V10.7778C22 10.2255 21.5523 9.77778 21 9.77778L20.2014 9.77778C19.759 9.77778 19.3753 9.48429 19.2088 9.0744C19.1949 9.04011 19.1807 9.00593 19.1663 8.97188C18.9938 8.56427 19.0575 8.08522 19.3705 7.77226L19.9353 7.2075C20.3258 6.81697 20.3258 6.18381 19.9353 5.79328L18.2068 4.0648C17.8163 3.67428 17.1831 3.67428 16.7926 4.0648L16.2278 4.62954C15.9149 4.9425 15.4358 5.0062 15.0282 4.83375C14.9941 4.81933 14.9599 4.80515 14.9256 4.79121C14.5157 4.62469 14.2222 4.24099 14.2222 3.79858V3C14.2222 2.44771 13.7745 2 13.2222 2H10.7778ZM12 15.5C13.933 15.5 15.5 13.933 15.5 12C15.5 10.067 13.933 8.5 12 8.5C10.067 8.5 8.5 10.067 8.5 12C8.5 13.933 10.067 15.5 12 15.5Z" fill="#002B51"/>
</svg>
