<svg width="24" height="24" viewBox="0 0 24 24" fill="none" xmlns="http://www.w3.org/2000/svg">
<path fill-rule="evenodd" clip-rule="evenodd" d="M11 2.24991C10.0335 2.24991 9.25 3.03341 9.25 3.99991V4.56868C9.25 4.64748 9.19029 4.77305 9.03018 4.83953C8.87601 4.90354 8.7494 4.86022 8.68999 4.80081L8.28769 4.39851C7.60427 3.71509 6.49624 3.71509 5.81282 4.39851L4.3986 5.81272C3.71519 6.49614 3.71519 7.60418 4.3986 8.2876L4.8009 8.6899C4.86031 8.7493 4.90363 8.87592 4.83962 9.03009C4.77315 9.1902 4.64757 9.24991 4.56876 9.24991L4 9.24991C3.0335 9.24991 2.25 10.0334 2.25 10.9999V12.9999C2.25 13.9664 3.0335 14.7499 4 14.7499H4.56876C4.64757 14.7499 4.77315 14.8096 4.83962 14.9697C4.90363 15.1239 4.86031 15.2505 4.8009 15.3099L4.3986 15.7122C3.71519 16.3956 3.71519 17.5037 4.3986 18.1871L5.81282 19.6013C6.49623 20.2847 7.60427 20.2847 8.28769 19.6013L8.68999 19.199C8.7494 19.1396 8.87601 19.0963 9.03018 19.1603C9.19029 19.2268 9.25 19.3523 9.25 19.4311V19.9999C9.25 20.9664 10.0335 21.7499 11 21.7499H13C13.9665 21.7499 14.75 20.9664 14.75 19.9999V19.4311C14.75 19.3523 14.8097 19.2268 14.9698 19.1603C15.124 19.0963 15.2506 19.1396 15.31 19.199L15.7123 19.6013C16.3957 20.2847 17.5038 20.2847 18.1872 19.6013L19.6014 18.1871C20.2848 17.5037 20.2848 16.3956 19.6014 15.7122L19.1991 15.3099C19.1397 15.2505 19.0964 15.1239 19.1604 14.9697C19.2269 14.8096 19.3524 14.7499 19.4312 14.7499H20C20.9665 14.7499 21.75 13.9664 21.75 12.9999V10.9999C21.75 10.0334 20.9665 9.24991 20 9.24991L19.4312 9.24991C19.3524 9.24991 19.2269 9.1902 19.1604 9.03009C19.0964 8.87592 19.1397 8.7493 19.1991 8.6899L19.6014 8.2876C20.2848 7.60418 20.2848 6.49614 19.6014 5.81272L18.1872 4.39851C17.5038 3.71509 16.3957 3.71509 15.7123 4.39851L15.31 4.80081C15.2506 4.86022 15.124 4.90354 14.9698 4.83953C14.8097 4.77305 14.75 4.64748 14.75 4.56867V3.99991C14.75 3.03341 13.9665 2.24991 13 2.24991H11ZM10.75 3.99991C10.75 3.86184 10.8619 3.74991 11 3.74991H13C13.1381 3.74991 13.25 3.86184 13.25 3.99991V4.56867C13.25 5.34549 13.7645 5.96326 14.3947 6.22487C15.031 6.48908 15.8248 6.40731 16.3707 5.86147L16.773 5.45917C16.8706 5.36154 17.0289 5.36154 17.1265 5.45917L18.5407 6.87338C18.6384 6.97102 18.6384 7.12931 18.5407 7.22694L18.1384 7.62924C17.5926 8.17508 17.5108 8.9689 17.775 9.60526C18.0366 10.2354 18.6544 10.7499 19.4312 10.7499H20C20.1381 10.7499 20.25 10.8618 20.25 10.9999V12.9999C20.25 13.138 20.1381 13.2499 20 13.2499H19.4312C18.6544 13.2499 18.0366 13.7644 17.775 14.3946C17.5108 15.0309 17.5926 15.8247 18.1384 16.3706L18.5407 16.7729C18.6384 16.8705 18.6384 17.0288 18.5407 17.1264L17.1265 18.5406C17.0289 18.6383 16.8706 18.6383 16.773 18.5406L16.3707 18.1383C15.8248 17.5925 15.031 17.5107 14.3947 17.7749C13.7645 18.0366 13.25 18.6543 13.25 19.4311V19.9999C13.25 20.138 13.1381 20.2499 13 20.2499H11C10.8619 20.2499 10.75 20.138 10.75 19.9999V19.4311C10.75 18.6543 10.2355 18.0366 9.60535 17.7749C8.969 17.5107 8.17517 17.5925 7.62933 18.1383L7.22703 18.5406C7.1294 18.6383 6.97111 18.6383 6.87348 18.5406L5.45926 17.1264C5.36163 17.0288 5.36163 16.8705 5.45926 16.7729L5.86156 16.3706C6.4074 15.8247 6.48917 15.0309 6.22497 14.3946C5.96335 13.7644 5.34558 13.2499 4.56876 13.2499H4C3.86193 13.2499 3.75 13.138 3.75 12.9999V10.9999C3.75 10.8618 3.86193 10.7499 4 10.7499L4.56876 10.7499C5.34558 10.7499 5.96335 10.2354 6.22497 9.60526C6.48917 8.9689 6.4074 8.17508 5.86156 7.62924L5.45926 7.22694C5.36163 7.12931 5.36163 6.97101 5.45926 6.87338L6.87348 5.45917C6.97111 5.36154 7.1294 5.36154 7.22703 5.45917L7.62933 5.86147C8.17517 6.40731 8.969 6.48907 9.60535 6.22487C10.2355 5.96326 10.75 5.34549 10.75 4.56868V3.99991ZM9.25 12C9.25 10.4812 10.4812 9.25 12 9.25C13.5188 9.25 14.75 10.4812 14.75 12C14.75 13.5188 13.5188 14.75 12 14.75C10.4812 14.75 9.25 13.5188 9.25 12ZM12 7.75C9.65279 7.75 7.75 9.65279 7.75 12C7.75 14.3472 9.65279 16.25 12 16.25C14.3472 16.25 16.25 14.3472 16.25 12C16.25 9.65279 14.3472 7.75 12 7.75Z" fill="#002B51"/>
</svg>
