<svg width="24" height="24" viewBox="0 0 24 24" fill="none" xmlns="http://www.w3.org/2000/svg">
<path d="M13.2499,2.24991c0.9665,0.00003 1.75,0.78352 1.75,1.75v0.6543c0,0.09284 0.0646,0.22457 0.2285,0.2998c0.444,0.20375 0.8651,0.44836 1.2588,0.72852c0.1462,0.104 0.2925,0.09432 0.3731,0.04785l0.5683,-0.32813c0.837,-0.48305 1.9074,-0.19623 2.3906,0.64063l1.25,2.16406c0.4832,0.83701 0.1964,1.90736 -0.6406,2.39066l-0.5683,0.3281c-0.0805,0.0464 -0.1615,0.1677 -0.1446,0.3457c0.0227,0.2396 0.0342,0.4827 0.0342,0.7285c0,0.2459 -0.0114,0.489 -0.0342,0.7285c-0.0168,0.1777 0.0642,0.2984 0.1446,0.3448l0.5683,0.3291c0.8369,0.4833 1.1239,1.5536 0.6406,2.3906l-1.25,2.164c-0.4833,0.8371 -1.5536,1.124 -2.3906,0.6407l-0.5683,-0.3291c-0.0805,-0.0465 -0.2269,-0.056 -0.3731,0.0478c-0.3936,0.2801 -0.8149,0.5248 -1.2588,0.7285c-0.1638,0.0752 -0.2285,0.207 -0.2285,0.2998v0.6553c0,0.9665 -0.7835,1.75 -1.75,1.75h-2.5c-0.9665,0 -1.75,-0.7835 -1.75,-1.75v-0.6553c0,-0.0928 -0.06472,-0.2246 -0.22852,-0.2998c-0.44379,-0.2036 -0.86518,-0.4484 -1.25878,-0.7285c-0.14621,-0.1038 -0.2926,-0.0943 -0.37305,-0.0478l-0.56738,0.3281c-0.83695,0.4837 -1.90714,0.1974 -2.39063,-0.6397l-1.25,-2.165c-0.48298,-0.8367 -0.19679,-1.9062 0.63965,-2.3896l0.56738,-0.3282c0.08035,-0.0464 0.16226,-0.1684 0.14551,-0.3467c-0.0225,-0.2395 -0.03418,-0.4822 -0.03418,-0.7275c0,-0.2456 0.0117,-0.4886 0.03418,-0.7285c0.01673,-0.1786 -0.06508,-0.3002 -0.14551,-0.3467l-0.5664,-0.3271c-0.83703,-0.4833 -1.12389,-1.55363 -0.64063,-2.39066l1.25,-2.16504c0.48319,-0.83636 1.55289,-1.12307 2.38965,-0.64062l0.56836,0.32812c0.08048,0.04641 0.22671,0.05613 0.37305,-0.04785c0.3937,-0.27994 0.81503,-0.52403 1.25878,-0.72754c0.1637,-0.07508 0.22852,-0.20694 0.22852,-0.2998v-0.6543c0,-0.9665 0.7835,-1.75 1.75,-1.75zM10.7499,3.74991c-0.1381,0 -0.25,0.11193 -0.25,0.25v0.6543c0,0.76381 -0.4876,1.38087 -1.10254,1.66308c-0.35761,0.16399 -0.698,0.36108 -1.01562,0.58692c-0.55185,0.39223 -1.32969,0.50563 -1.99121,0.12402l-0.56836,-0.32715c-0.11956,-0.06898 -0.27277,-0.02772 -0.3418,0.0918l-1.25,2.16406c-0.06897,0.11958 -0.02778,0.27279 0.0918,0.3418l0.5664,0.32617c0.66115,0.38159 0.95183,1.11219 0.88867,1.78609c-0.01815,0.1938 -0.02734,0.3902 -0.02734,0.5889c0,0.1982 0.00917,0.3945 0.02734,0.5879c0.06315,0.6734 -0.22753,1.4025 -0.88769,1.7842l-0.56738,0.3291c-0.11943,0.069 -0.16065,0.2213 -0.0918,0.3408l1.25,2.165c0.06912,0.1195 0.22229,0.1599 0.3418,0.0909l0.56738,-0.3272c0.66189,-0.3825 1.44088,-0.2689 1.99316,0.124c0.31755,0.226 0.65723,0.4229 1.01465,0.5869c0.61484,0.2823 1.10254,0.8993 1.10254,1.6631v0.6553c0,0.1381 0.1119,0.25 0.25,0.25h2.5c0.138,0 0.25,-0.1119 0.25,-0.25v-0.6553c0,-0.7639 0.4877,-1.3808 1.1025,-1.6631c0.3574,-0.164 0.6971,-0.3609 1.0147,-0.5869c0.5521,-0.3928 1.3314,-0.5072 1.9932,-0.125l0.5683,0.3291c0.1196,0.0691 0.2728,0.0278 0.3418,-0.0918l1.25,-2.164c0.069,-0.1196 0.0277,-0.2728 -0.0918,-0.3418l-0.5683,-0.3281c-0.6607,-0.3816 -0.9526,-1.112 -0.8887,-1.7862c0.0183,-0.1932 0.0283,-0.3892 0.0283,-0.5869c0,-0.1978 -0.01,-0.3935 -0.0283,-0.5869c-0.064,-0.6745 0.2274,-1.4056 0.8887,-1.78711l0.5683,-0.32715c0.1195,-0.069 0.1607,-0.22224 0.0918,-0.3418l-1.25,-2.16406c-0.069,-0.11954 -0.2222,-0.16078 -0.3418,-0.0918l-0.5683,0.32813c-0.6618,0.38193 -1.4412,0.26781 -1.9932,-0.125c-0.3176,-0.22594 -0.6573,-0.42291 -1.0147,-0.58692c-0.6147,-0.28227 -1.1025,-0.89914 -1.1025,-1.66308v-0.6543c0,-0.13805 -0.112,-0.24997 -0.25,-0.25zM11.9999,7.74991c2.3472,0 4.25,1.90283 4.25,4.24999c0,2.3472 -1.9028,4.25 -4.25,4.25c-2.34716,-0.0001 -4.25,-1.9028 -4.25,-4.25c0.00005,-2.34712 1.90287,-4.24993 4.25,-4.24999zM11.9999,9.24991c-1.5187,0.00006 -2.74995,1.23129 -2.75,2.74999c0,1.5188 1.2313,2.7499 2.75,2.75c1.5188,0 2.75,-1.2312 2.75,-2.75c0,-1.5187 -1.2312,-2.74999 -2.75,-2.74999z" fill="#002B51"/>
</svg>
