<svg width="24" height="24" viewBox="0 0 24 24" fill="none" xmlns="http://www.w3.org/2000/svg">
<path fill-rule="evenodd" clip-rule="evenodd" d="M13,2.24991c0.9665,0 1.75,0.7835 1.75,1.75v0.56876c0,0.07881 0.0597,0.20438 0.2198,0.27086c0.1542,0.06401 0.2808,0.02069 0.3402,-0.03872l0.4023,-0.4023c0.6834,-0.68342 1.7915,-0.68342 2.4749,0l1.4142,1.41421c0.6834,0.68342 0.6834,1.79146 0,2.47488l-0.4023,0.4023c-0.0594,0.0594 -0.1027,0.18602 -0.0387,0.34019c0.0665,0.16011 0.192,0.21982 0.2708,0.21982h0.5688c0.9665,0 1.75,0.78349 1.75,1.74999v2c0,0.9665 -0.7835,1.75 -1.75,1.75h-0.5688c-0.0788,0 -0.2043,0.0597 -0.2708,0.2198c-0.064,0.1542 -0.0207,0.2808 0.0387,0.3402l0.4023,0.4023c0.6834,0.6834 0.6834,1.7915 0,2.4749l-1.4142,1.4142c-0.6834,0.6834 -1.7915,0.6834 -2.4749,0l-0.4023,-0.4023c-0.0594,-0.0594 -0.186,-0.1027 -0.3402,-0.0387c-0.1601,0.0665 -0.2198,0.192 -0.2198,0.2708v0.5688c0,0.9665 -0.7835,1.75 -1.75,1.75h-2c-0.9665,0 -1.75,-0.7835 -1.75,-1.75v-0.5688c0,-0.0788 -0.05971,-0.2043 -0.21982,-0.2708c-0.15417,-0.064 -0.28078,-0.0207 -0.34019,0.0387l-0.4023,0.4023c-0.68342,0.6834 -1.79146,0.6834 -2.47487,0l-1.41422,-1.4142c-0.68341,-0.6834 -0.68341,-1.7915 0,-2.4749l0.4023,-0.4023c0.05941,-0.0594 0.10273,-0.186 0.03872,-0.3402c-0.06647,-0.1601 -0.19205,-0.2198 -0.27086,-0.2198h-0.56876c-0.9665,0 -1.75,-0.7835 -1.75,-1.75v-2c0,-0.9665 0.7835,-1.74999 1.75,-1.74999h0.56876c0.07881,0 0.20439,-0.05971 0.27086,-0.21982c0.06401,-0.15417 0.02069,-0.28079 -0.03872,-0.34019l-0.4023,-0.4023c-0.68341,-0.68342 -0.68341,-1.79146 0,-2.47488l1.41422,-1.41421c0.68342,-0.68342 1.79145,-0.68342 2.47487,0l0.4023,0.4023c0.05941,0.05941 0.18602,0.10273 0.34019,0.03872c0.16011,-0.06648 0.21982,-0.19205 0.21982,-0.27085v-0.56877c0,-0.9665 0.7835,-1.75 1.75,-1.75zM10.75,4.56868c0,0.77681 -0.5145,1.39458 -1.14465,1.65619c-0.63635,0.2642 -1.43018,0.18244 -1.97602,-0.3634l-0.4023,-0.4023c-0.09763,-0.09763 -0.25592,-0.09763 -0.35355,0l-1.41422,1.41421c-0.09763,0.09763 -0.09763,0.25593 0,0.35356l0.4023,0.4023c0.54584,0.54584 0.62761,1.33966 0.36341,1.97602c-0.26162,0.63014 -0.87939,1.14464 -1.65621,1.14464h-0.56876c-0.13807,0 -0.25,0.1119 -0.25,0.25v2c0,0.1381 0.11193,0.25 0.25,0.25h0.56876c0.77682,0 1.39459,0.5145 1.65621,1.1447c0.2642,0.6363 0.18243,1.4301 -0.36341,1.976l-0.4023,0.4023c-0.09763,0.0976 -0.09763,0.2559 0,0.3535l1.41422,1.4142c0.09763,0.0977 0.25592,0.0977 0.35355,0l0.4023,-0.4023c0.54584,-0.5458 1.33967,-0.6276 1.97602,-0.3634c0.63015,0.2617 1.14465,0.8794 1.14465,1.6562v0.5688c0,0.1381 0.1119,0.25 0.25,0.25h2c0.1381,0 0.25,-0.1119 0.25,-0.25v-0.5688c0,-0.7768 0.5145,-1.3945 1.1447,-1.6562c0.6363,-0.2642 1.4301,-0.1824 1.976,0.3634l0.4023,0.4023c0.0976,0.0977 0.2559,0.0977 0.3535,0l1.4142,-1.4142c0.0977,-0.0976 0.0977,-0.2559 0,-0.3535l-0.4023,-0.4023c-0.5458,-0.5459 -0.6276,-1.3397 -0.3634,-1.976c0.2616,-0.6302 0.8794,-1.1447 1.6562,-1.1447h0.5688c0.1381,0 0.25,-0.1119 0.25,-0.25v-2c0,-0.1381 -0.1119,-0.25 -0.25,-0.25h-0.5688c-0.7768,0 -1.3946,-0.5145 -1.6562,-1.14464c-0.2642,-0.63636 -0.1824,-1.43018 0.3634,-1.97602l0.4023,-0.4023c0.0977,-0.09763 0.0977,-0.25592 0,-0.35356l-1.4142,-1.41421c-0.0976,-0.09763 -0.2559,-0.09763 -0.3535,0l-0.4023,0.4023c-0.5459,0.54584 -1.3397,0.62761 -1.976,0.3634c-0.6302,-0.26161 -1.1447,-0.87938 -1.1447,-1.6562v-0.56876c0,-0.13807 -0.1119,-0.25 -0.25,-0.25h-2c-0.1381,0 -0.25,0.11193 -0.25,0.25zM12,14.75c1.5188,0 2.75,-1.2312 2.75,-2.75c0,-1.5188 -1.2312,-2.75 -2.75,-2.75c-1.5188,0 -2.75,1.2312 -2.75,2.75c0,1.5188 1.2312,2.75 2.75,2.75zM16.25,12c0,2.3472 -1.9028,4.25 -4.25,4.25c-2.34721,0 -4.25,-1.9028 -4.25,-4.25c0,-2.34721 1.90279,-4.25 4.25,-4.25c2.3472,0 4.25,1.90279 4.25,4.25z" fill="#002B51"/>
</svg>
