<svg width="24" height="24" viewBox="0 0 24 24" fill="none" xmlns="http://www.w3.org/2000/svg">
<path d="M12,2c0.4142,0 0.75,0.33579 0.75,0.75c0,0.32868 0.1856,0.62928 0.4795,0.77637l0.1055,0.05273c0.8713,0.43565 1.415,1.33542 1.415,2.29981c-0.0001,0.77629 -0.3437,1.48051 -0.8877,1.96386l5.3145,2.65723h1.0732c0.9665,0 1.75,0.7835 1.75,1.75v8c0,0.9665 -0.7835,1.75 -1.75,1.75h-16.5c-0.9665,0 -1.75,-0.7835 -1.75,-1.75v-8c0,-0.9665 0.7835,-1.75 1.75,-1.75h0.82715l5.59375,-2.70117c-0.5637,-0.5036 -0.9209,-1.23346 -0.9209,-2.04883c0,-0.41421 0.33579,-0.75 0.75,-0.75c0.4142,0 0.75,0.33579 0.75,0.75c0,0.69036 0.5596,1.25 1.25,1.25h0.1455c0.6006,0 1.1043,-0.50237 1.1045,-1.12109c0,-0.40587 -0.2308,-0.78072 -0.585,-0.95801l-0.1064,-0.05274c-0.8021,-0.40117 -1.3086,-1.22132 -1.3086,-2.11816c0,-0.41421 0.3358,-0.75 0.75,-0.75zM3.75,12c-0.13807,0 -0.25,0.1119 -0.25,0.25v8c0,0.1381 0.11193,0.25 0.25,0.25h16.5c0.1381,0 0.25,-0.1119 0.25,-0.25v-8c0,-0.1381 -0.1119,-0.25 -0.25,-0.25zM7.25,13.5c0.41421,0 0.75,0.3358 0.75,0.75v4c0,0.4142 -0.33579,0.75 -0.75,0.75c-0.41421,0 -0.75,-0.3358 -0.75,-0.75v-4c0,-0.4142 0.33579,-0.75 0.75,-0.75zM12,13.5c0.4142,0 0.75,0.3358 0.75,0.75v4c0,0.4142 -0.3358,0.75 -0.75,0.75c-0.4142,0 -0.75,-0.3358 -0.75,-0.75v-4c0,-0.4142 0.3358,-0.75 0.75,-0.75zM16.75,13.5c0.4142,0 0.75,0.3358 0.75,0.75v4c0,0.4142 -0.3358,0.75 -0.75,0.75c-0.4142,0 -0.75,-0.3358 -0.75,-0.75v-4c0,-0.4142 0.3358,-0.75 0.75,-0.75zM12.1045,8.64062c-0.0692,-0.03459 -0.151,-0.03548 -0.2207,-0.00195l-3.8545,1.86133h7.7939z" fill="#002B51"/>
</svg>
