<svg width="24" height="24" viewBox="0 0 24 24" fill="none" xmlns="http://www.w3.org/2000/svg">
<path fill-rule="evenodd" clip-rule="evenodd" d="M9.25,5.75c0,-0.41421 0.33579,-0.75 0.75,-0.75c0.4142,0 0.75,0.33579 0.75,0.75c0,0.69036 0.5596,1.25 1.25,1.25h0.1455c0.6006,0 1.1043,-0.50237 1.1045,-1.12109c0,-0.40587 -0.2308,-0.78072 -0.585,-0.95801l-0.1064,-0.05274c-0.8021,-0.40117 -1.3086,-1.22132 -1.3086,-2.11816c0,-0.41421 0.3358,-0.75 0.75,-0.75c0.4142,0 0.75,0.33579 0.75,0.75c0,0.32868 0.1856,0.62928 0.4795,0.77637l0.1055,0.05273c0.8713,0.43565 1.415,1.33542 1.415,2.29981c-0.0001,0.77587 -0.3413,1.48195 -0.8849,1.96528l5.3117,2.65581h1.0732c0.9665,0 1.75,0.7835 1.75,1.75v8c0,0.9665 -0.7835,1.75 -1.75,1.75h-16.5c-0.9665,0 -1.75,-0.7835 -1.75,-1.75v-8c0,-0.9665 0.7835,-1.75 1.75,-1.75h0.82715l5.59115,-2.69876c-0.56354,-0.50359 -0.9183,-1.23599 -0.9183,-2.05124zM12.1045,8.64062c-0.0692,-0.03459 -0.151,-0.03548 -0.2207,-0.00195l-3.8545,1.86133h7.7939zM12,19c0.4142,0 0.75,-0.3358 0.75,-0.75v-4c0,-0.4142 -0.3358,-0.75 -0.75,-0.75c-0.4142,0 -0.75,0.3358 -0.75,0.75v4c0,0.4142 0.3358,0.75 0.75,0.75zM6.5,14.25v4c0,0.4142 0.33579,0.75 0.75,0.75c0.41421,0 0.75,-0.3358 0.75,-0.75v-4c0,-0.4142 -0.33579,-0.75 -0.75,-0.75c-0.41421,0 -0.75,0.3358 -0.75,0.75zM16.75,19c0.4142,0 0.75,-0.3358 0.75,-0.75v-4c0,-0.4142 -0.3358,-0.75 -0.75,-0.75c-0.4142,0 -0.75,0.3358 -0.75,0.75v4c0,0.4142 0.3358,0.75 0.75,0.75z" fill="#002B51"/>
</svg>
