<svg width="24" height="24" viewBox="0 0 24 24" fill="none" xmlns="http://www.w3.org/2000/svg">
<path fill-rule="evenodd" clip-rule="evenodd" d="M12,2.00002c0.4142,0 0.75,0.33578 0.75,0.75c0,0.32878 0.1858,0.62935 0.4798,0.77639l0.1056,0.05278c0.8713,0.43566 1.4146,1.33495 1.4146,2.29934c0,0.77602 -0.3411,1.48224 -0.8846,1.96565l5.3117,2.65582h1.0729c0.9665,0 1.75,0.7835 1.75,1.75v8c0,0.9665 -0.7835,1.75 -1.75,1.75h-16.5c-0.9665,0 -1.75,-0.7835 -1.75,-1.75v-8c0,-0.9665 0.7835,-1.75 1.75,-1.75h0.82844l5.59006,-2.69862c-0.56368,-0.50359 -0.9185,-1.23604 -0.9185,-2.05136c0,-0.41422 0.33579,-0.75 0.75,-0.75c0.4142,0 0.75,0.33578 0.75,0.75c0,0.69035 0.5596,1.25 1.25,1.25h0.1459c0.6007,0 1.1041,-0.50258 1.1041,-1.12149c0,-0.40602 -0.231,-0.78048 -0.5854,-0.95769l-0.1056,-0.05279c-0.8022,-0.40113 -1.309,-1.22109 -1.309,-2.11803c0,-0.41422 0.3358,-0.75 0.75,-0.75zM12.1041,8.64057c-0.0693,-0.03464 -0.1508,-0.03521 -0.2205,-0.00153l-3.8549,1.86096h7.7942zM11.25,14.25v4c0,0.4142 0.3358,0.75 0.75,0.75c0.4142,0 0.75,-0.3358 0.75,-0.75v-4c0,-0.4142 -0.3358,-0.75 -0.75,-0.75c-0.4142,0 -0.75,0.3358 -0.75,0.75zM8,14.25c0,-0.4142 -0.33579,-0.75 -0.75,-0.75c-0.41421,0 -0.75,0.3358 -0.75,0.75v4c0,0.4142 0.33579,0.75 0.75,0.75c0.41421,0 0.75,-0.3358 0.75,-0.75zM16,14.25v4c0,0.4142 0.3358,0.75 0.75,0.75c0.4142,0 0.75,-0.3358 0.75,-0.75v-4c0,-0.4142 -0.3358,-0.75 -0.75,-0.75c-0.4142,0 -0.75,0.3358 -0.75,0.75z" fill="#002B51"/>
</svg>
