<svg width="24" height="24" viewBox="0 0 24 24" fill="none" xmlns="http://www.w3.org/2000/svg">
<path fill-rule="evenodd" clip-rule="evenodd" d="M10 3.25C9.0335 3.25 8.25 4.0335 8.25 5V6.75H13.75C15.683 6.75 17.25 8.317 17.25 10.25V15.75H19C19.9665 15.75 20.75 14.9665 20.75 14V5C20.75 4.0335 19.9665 3.25 19 3.25H10ZM13.75 8.25H8.25H5C4.0335 8.25 3.25 9.0335 3.25 10V19C3.25 19.9665 4.0335 20.75 5 20.75H14C14.9665 20.75 15.75 19.9665 15.75 19V15.75V10.25V10C15.75 9.0335 14.9665 8.25 14 8.25H13.75Z" fill="#002B51"/>
</svg>
