<svg width="24" height="24" viewBox="0 0 24 24" fill="none" xmlns="http://www.w3.org/2000/svg">
<path fill-rule="evenodd" clip-rule="evenodd" d="M19.25,5c0,-0.13807 -0.1119,-0.25 -0.25,-0.25h-9c-0.13807,0 -0.25,0.11193 -0.25,0.25v3.25h4.25c0.9665,0 1.75,0.7835 1.75,1.75v4.25h3.25c0.1381,0 0.25,-0.1119 0.25,-0.25zM15.75,19c0,0.9665 -0.7835,1.75 -1.75,1.75h-9c-0.9665,0 -1.75,-0.7835 -1.75,-1.75v-9c0,-0.9665 0.7835,-1.75 1.75,-1.75h3.25v-3.25c0,-0.9665 0.7835,-1.75 1.75,-1.75h9c0.9665,0 1.75,0.7835 1.75,1.75v9c0,0.9665 -0.7835,1.75 -1.75,1.75h-3.25zM5,9.75c-0.13807,0 -0.25,0.11193 -0.25,0.25v9c0,0.1381 0.11193,0.25 0.25,0.25h9c0.1381,0 0.25,-0.1119 0.25,-0.25v-9c0,-0.13807 -0.1119,-0.25 -0.25,-0.25z" fill="#002B51"/>
</svg>
