<svg width="24" height="24" viewBox="0 0 24 24" fill="none" xmlns="http://www.w3.org/2000/svg">
<path fill-rule="evenodd" clip-rule="evenodd" d="M8.25 5C8.25 4.0335 9.0335 3.25 10 3.25H19C19.9665 3.25 20.75 4.0335 20.75 5V14C20.75 14.9665 19.9665 15.75 19 15.75H15.75V19C15.75 19.9665 14.9665 20.75 14 20.75H5C4.0335 20.75 3.25 19.9665 3.25 19V10C3.25 9.0335 4.0335 8.25 5 8.25H8.25V5ZM9.75 8.25H14C14.9665 8.25 15.75 9.0335 15.75 10V14.25H19C19.1381 14.25 19.25 14.1381 19.25 14V5C19.25 4.86193 19.1381 4.75 19 4.75H10C9.86193 4.75 9.75 4.86193 9.75 5V8.25ZM4.75 10C4.75 9.86193 4.86193 9.75 5 9.75H14C14.1381 9.75 14.25 9.86193 14.25 10V19C14.25 19.1381 14.1381 19.25 14 19.25H5C4.86193 19.25 4.75 19.1381 4.75 19V10Z" fill="#002B51"/>
</svg>
