<svg width="24" height="24" viewBox="0 0 24 24" fill="none" xmlns="http://www.w3.org/2000/svg">
<path fill-rule="evenodd" clip-rule="evenodd" d="M17.25,15.75v-5.5c0,-1.933 -1.567,-3.5 -3.5,-3.5h-5.5v-1.75c0,-0.9665 0.7835,-1.75 1.75,-1.75h9c0.9665,0 1.75,0.7835 1.75,1.75v9c0,0.9665 -0.7835,1.75 -1.75,1.75zM13.75,8.25h0.25c0.9665,0 1.75,0.7835 1.75,1.75v0.25v5.5v3.25c0,0.9665 -0.7835,1.75 -1.75,1.75h-9c-0.9665,0 -1.75,-0.7835 -1.75,-1.75v-9c0,-0.9665 0.7835,-1.75 1.75,-1.75h3.25z" fill="#002B51"/>
</svg>
