<svg width="24" height="24" viewBox="0 0 24 24" fill="none" xmlns="http://www.w3.org/2000/svg">
<path fill-rule="evenodd" clip-rule="evenodd" d="M5 4.25C3.48122 4.25 2.25 5.48122 2.25 7V10V17C2.25 18.5188 3.48122 19.75 5 19.75H19C20.5188 19.75 21.75 18.5188 21.75 17V10V7C21.75 5.48122 20.5188 4.25 19 4.25H5ZM20.25 9.25V7C20.25 6.30964 19.6904 5.75 19 5.75H5C4.30964 5.75 3.75 6.30964 3.75 7V9.25H20.25ZM3.75 10.75H20.25V17C20.25 17.6904 19.6904 18.25 19 18.25H5C4.30964 18.25 3.75 17.6904 3.75 17V10.75ZM10 14.25C9.58579 14.25 9.25 14.5858 9.25 15C9.25 15.4142 9.58579 15.75 10 15.75H13C13.4142 15.75 13.75 15.4142 13.75 15C13.75 14.5858 13.4142 14.25 13 14.25H10ZM6.125 15C6.125 14.5168 6.51675 14.125 7 14.125C7.48325 14.125 7.875 14.5168 7.875 15C7.875 15.4832 7.48325 15.875 7 15.875C6.51675 15.875 6.125 15.4832 6.125 15Z" fill="#002B51"/>
</svg>
