<svg width="24" height="24" viewBox="0 0 24 24" fill="none" xmlns="http://www.w3.org/2000/svg">
<path fill-rule="evenodd" clip-rule="evenodd" d="M7.5 3.25C6.25736 3.25 5.25 4.25736 5.25 5.5V7.5H3.5C2.25736 7.5 1.25 8.50736 1.25 9.75V18.25C1.25 19.4926 2.25736 20.5 3.5 20.5H16.5C17.7426 20.5 18.75 19.4926 18.75 18.25V16.25H20.5C21.7426 16.25 22.75 15.2426 22.75 14V5.5C22.75 4.25736 21.7426 3.25 20.5 3.25H7.5ZM18.75 14.75H20.5C20.9142 14.75 21.25 14.4142 21.25 14V5.5C21.25 5.08579 20.9142 4.75 20.5 4.75H7.5C7.08579 4.75 6.75 5.08579 6.75 5.5V7.5H16.5C17.7426 7.5 18.75 8.50736 18.75 9.75V14.75ZM17 11.75C17.0877 11.75 17.1718 11.765 17.25 11.7927V13.2073C17.1718 13.235 17.0877 13.25 17 13.25H2.75V11.75H17ZM7.25 16.25C7.25 15.8358 7.58579 15.5 8 15.5H10.5C10.9142 15.5 11.25 15.8358 11.25 16.25C11.25 16.6642 10.9142 17 10.5 17H8C7.58579 17 7.25 16.6642 7.25 16.25ZM5 17.125C5.48325 17.125 5.875 16.7332 5.875 16.25C5.875 15.7668 5.48325 15.375 5 15.375C4.51675 15.375 4.125 15.7668 4.125 16.25C4.125 16.7332 4.51675 17.125 5 17.125Z" fill="#002B51"/>
</svg>
