<svg width="24" height="24" viewBox="0 0 24 24" fill="none" xmlns="http://www.w3.org/2000/svg">
<path d="M20.5,3.25c1.2426,0 2.25,1.00736 2.25,2.25v8.5c0,1.2426 -1.0074,2.25 -2.25,2.25h-1.75v2c0,1.2426 -1.0074,2.25 -2.25,2.25h-13c-1.24264,0 -2.25,-1.0074 -2.25,-2.25v-8.5c0,-1.24264 1.00736,-2.25 2.25,-2.25h1.75v-2c0,-1.24264 1.00736,-2.25 2.25,-2.25zM17.25,13.2041c-0.0785,0.0279 -0.162,0.0459 -0.25,0.0459h-14.25v5c0,0.4142 0.33579,0.75 0.75,0.75h13c0.4142,0 0.75,-0.3358 0.75,-0.75zM5,15.375c0.48325,0 0.875,0.3918 0.875,0.875c0,0.4832 -0.39175,0.875 -0.875,0.875c-0.48325,0 -0.875,-0.3918 -0.875,-0.875c0,-0.4832 0.39175,-0.875 0.875,-0.875zM10.5771,15.5039c0.378,0.0386 0.6729,0.3579 0.6729,0.7461c0,0.3882 -0.2949,0.7075 -0.6729,0.7461l-0.0771,0.0039h-2.5c-0.41421,0 -0.75,-0.3358 -0.75,-0.75c0,-0.4142 0.33579,-0.75 0.75,-0.75h2.5zM7.5,4.75c-0.41421,0 -0.75,0.33579 -0.75,0.75v2h9.75c1.2426,0 2.25,1.00736 2.25,2.25v5h1.75c0.4142,0 0.75,-0.3358 0.75,-0.75v-8.5c0,-0.41421 -0.3358,-0.75 -0.75,-0.75zM3.5,9c-0.41421,0 -0.75,0.33579 -0.75,0.75v2h14.25c0.0879,0 0.1716,0.0171 0.25,0.0449v-2.0449c0,-0.41421 -0.3358,-0.75 -0.75,-0.75z" fill="#002B51"/>
</svg>
