<svg width="24" height="24" viewBox="0 0 24 24" fill="none" xmlns="http://www.w3.org/2000/svg">
<path fill-rule="evenodd" clip-rule="evenodd" d="M5,5.75c-0.69036,0 -1.25,0.55964 -1.25,1.25v2.25h16.5v-2.25c0,-0.69036 -0.5596,-1.25 -1.25,-1.25zM3.75,17c0,0.6904 0.55964,1.25 1.25,1.25h14c0.6904,0 1.25,-0.5596 1.25,-1.25v-6.25h-16.5zM21.75,17c0,1.5188 -1.2312,2.75 -2.75,2.75h-14c-1.51878,0 -2.75,-1.2312 -2.75,-2.75v-7v-3c0,-1.51878 1.23122,-2.75 2.75,-2.75h14c1.5188,0 2.75,1.23122 2.75,2.75v3zM13,15.75h-3c-0.41421,0 -0.75,-0.3358 -0.75,-0.75c0,-0.4142 0.33579,-0.75 0.75,-0.75h3c0.4142,0 0.75,0.3358 0.75,0.75c0,0.4142 -0.3358,0.75 -0.75,0.75zM6.125,15c0,-0.4832 0.39175,-0.875 0.875,-0.875c0.48325,0 0.875,0.3918 0.875,0.875c0,0.4832 -0.39175,0.875 -0.875,0.875c-0.48325,0 -0.875,-0.3918 -0.875,-0.875z" fill="#002B51"/>
</svg>
