<svg width="24" height="24" viewBox="0 0 24 24" fill="none" xmlns="http://www.w3.org/2000/svg">
<path fill-rule="evenodd" clip-rule="evenodd" d="M2.25,7c0,-1.51878 1.23122,-2.75 2.75,-2.75h14c1.5188,0 2.75,1.23122 2.75,2.75v2.25h-0.75h-0.75h-16.5h-0.75h-0.75zM21,10.75h0.75v6.25c0,1.5188 -1.2312,2.75 -2.75,2.75h-14c-1.51878,0 -2.75,-1.2312 -2.75,-2.75v-6.25h0.75h0.75h16.5zM10,15.75h3c0.4142,0 0.75,-0.3358 0.75,-0.75c0,-0.4142 -0.3358,-0.75 -0.75,-0.75h-3c-0.41421,0 -0.75,0.3358 -0.75,0.75c0,0.4142 0.33579,0.75 0.75,0.75zM7,14.125c-0.48325,0 -0.875,0.3918 -0.875,0.875c0,0.4832 0.39175,0.875 0.875,0.875c0.48325,0 0.875,-0.3918 0.875,-0.875c0,-0.4832 -0.39175,-0.875 -0.875,-0.875z" fill="#002B51"/>
</svg>
