<svg width="24" height="24" viewBox="0 0 24 24" fill="none" xmlns="http://www.w3.org/2000/svg">
<path fill-rule="evenodd" clip-rule="evenodd" d="M21.25,5.5c0,-0.41421 -0.3358,-0.75 -0.75,-0.75h-13c-0.41421,0 -0.75,0.33579 -0.75,0.75v2h9.75c1.2426,0 2.25,1.00736 2.25,2.25v5h1.75c0.4142,0 0.75,-0.3358 0.75,-0.75zM7.5,3.25h13c1.2426,0 2.25,1.00736 2.25,2.25v8.5c0,1.2426 -1.0074,2.25 -2.25,2.25h-1.75v2c0,1.2426 -1.0074,2.25 -2.25,2.25h-13c-1.24264,0 -2.25,-1.0074 -2.25,-2.25v-5.75v-2.75c0,-1.24264 1.00736,-2.25 2.25,-2.25h1.75v-2c0,-1.24264 1.00736,-2.25 2.25,-2.25zM2.75,13.25v5c0,0.4142 0.33579,0.75 0.75,0.75h13c0.4142,0 0.75,-0.3358 0.75,-0.75v-5.0427c-0.0782,0.0277 -0.1623,0.0427 -0.25,0.0427zM17.25,9.75c0,-0.41421 -0.3358,-0.75 -0.75,-0.75h-13c-0.41421,0 -0.75,0.33579 -0.75,0.75v2h14.25c0.0877,0 0.1718,0.015 0.25,0.0427zM10.5,15.5l0.0771,0.0039c0.378,0.0386 0.6729,0.3579 0.6729,0.7461c0,0.3882 -0.2949,0.7075 -0.6729,0.7461l-0.0771,0.0039h-2.5c-0.41421,0 -0.75,-0.3358 -0.75,-0.75c0,-0.4142 0.33579,-0.75 0.75,-0.75zM4.125,16.25c0,-0.4832 0.39175,-0.875 0.875,-0.875c0.48325,0 0.875,0.3918 0.875,0.875c0,0.4832 -0.39175,0.875 -0.875,0.875c-0.48325,0 -0.875,-0.3918 -0.875,-0.875z" fill="#002B51"/>
</svg>
