<svg width="24" height="24" viewBox="0 0 24 24" fill="none" xmlns="http://www.w3.org/2000/svg">
<path d="M21.75,10.75v6.25c0,1.5188 -1.2312,2.75 -2.75,2.75h-14c-1.51878,0 -2.75,-1.2312 -2.75,-2.75v-6.25zM7,14.125c-0.48325,0 -0.875,0.3918 -0.875,0.875c0,0.4832 0.39175,0.875 0.875,0.875c0.48325,0 0.875,-0.3918 0.875,-0.875c0,-0.4832 -0.39175,-0.875 -0.875,-0.875zM10,14.25c-0.41421,0 -0.75,0.3358 -0.75,0.75c0,0.4142 0.33579,0.75 0.75,0.75h3c0.4142,0 0.75,-0.3358 0.75,-0.75c0,-0.4142 -0.3358,-0.75 -0.75,-0.75zM19,4.25c1.5188,0 2.75,1.23122 2.75,2.75v2.25h-19.5v-2.25c0,-1.51878 1.23122,-2.75 2.75,-2.75z" fill="#002B51"/>
</svg>
