<svg width="24" height="24" viewBox="0 0 24 24" fill="none" xmlns="http://www.w3.org/2000/svg">
<path d="M11.7197,2.30389c0.2095,-0.08435 0.4486,-0.06943 0.6485,0.04297l8,4.5c0.2358,0.13291 0.3818,0.38256 0.3818,0.65332v9.00002c0,0.2707 -0.146,0.5204 -0.3818,0.6533l-8,4.5c-0.2283,0.1284 -0.5081,0.1284 -0.7364,0l-7.99996,-4.5c-0.23586,-0.1329 -0.38184,-0.3826 -0.38184,-0.6533v-9.00002c0,-0.27076 0.14598,-0.52041 0.38184,-0.65332l7.99996,-4.5zM4.75,16.0607l6.5,3.6563v-7.2783l-6.5,-3.65629zM12.75,12.4387v7.2783l6.5,-3.6563v-7.27829zM5.5293,7.50018l6.4707,3.63872l6.4697,-3.63872l-6.4697,-3.63965z" fill="#002B51"/>
</svg>
