<svg width="24" height="24" viewBox="0 0 24 24" fill="none" xmlns="http://www.w3.org/2000/svg">
<path fill-rule="evenodd" clip-rule="evenodd" d="M11.2499,21v-1.289c-1.7868,-0.1865 -3.355,-1.0256 -4.24233,-2.168l-0.18945,-0.2647l-0.03907,-0.0664c-0.17608,-0.337 -0.07142,-0.759 0.25293,-0.9726c0.32422,-0.2134 0.75309,-0.1432 0.99317,0.1513l0.04492,0.0625l0.12695,0.1758c0.58019,0.7412 1.68684,1.3928 3.05288,1.5723v-5.4818c-1.27969,-0.1074 -2.34162,-0.4959 -3.12807,-1.1393c-0.94969,-0.7771 -1.42774,-1.87101 -1.42774,-3.0801c0,-2.35242 1.931,-3.95763 4.55581,-4.21396v-1.28604c0,-0.41421 0.3358,-0.75 0.75,-0.75c0.4142,0 0.75,0.33579 0.75,0.75v1.28569c1.9302,0.18466 3.6383,1.07551 4.4764,2.4272c0.218,0.35195 0.1096,0.81398 -0.2422,1.03223c-0.352,0.21827 -0.8149,0.10985 -1.0332,-0.24219c-0.5114,-0.82467 -1.682,-1.53113 -3.201,-1.70953v5.4871c1.2815,0.1072 2.349,0.4951 3.1415,1.1365c0.9571,0.7747 1.4472,1.8686 1.4472,3.083c0,2.3577 -1.9646,3.9581 -4.5887,4.214v1.286c0,0.4142 -0.3358,0.75 -0.75,0.75c-0.4142,0 -0.75,-0.3358 -0.75,-0.75zM12.7499,18.2083c2.0396,-0.2355 3.0887,-1.4338 3.0887,-2.7083c0,-0.7854 -0.3036,-1.4417 -0.8906,-1.917c-0.4864,-0.3937 -1.2092,-0.695 -2.1981,-0.7962zM11.2499,11.2132v-5.42136c-2.02783,0.23529 -3.05581,1.42873 -3.05581,2.70816c0,0.79076 0.29988,1.44704 0.87793,1.9199c0.47869,0.3915 1.19268,0.6921 2.17788,0.7933z" fill="#002B51"/>
</svg>
