<svg width="24" height="24" viewBox="0 0 24 24" fill="none" xmlns="http://www.w3.org/2000/svg">
<path fill-rule="evenodd" clip-rule="evenodd" d="M12.75 3C12.75 2.58579 12.4142 2.25 12 2.25C11.5858 2.25 11.25 2.58579 11.25 3V4.28604C8.62517 4.54237 6.69409 6.14758 6.69409 8.5C6.69409 9.70924 7.17225 10.8034 8.12219 11.5805C8.90864 12.2239 9.97037 12.6121 11.25 12.7194L11.25 18.2012C9.77681 18.0075 8.60539 17.2649 8.07052 16.4529C7.84267 16.107 7.37755 16.0113 7.03163 16.2391C6.68571 16.4669 6.59 16.9321 6.81785 17.278C7.65854 18.5543 9.32774 19.5103 11.25 19.711V21C11.25 21.4142 11.5858 21.75 12 21.75C12.4142 21.75 12.75 21.4142 12.75 21V19.714C15.3742 19.4582 17.3388 17.8578 17.3388 15.5C17.3388 14.2855 16.8485 13.1917 15.8913 12.417C15.0988 11.7756 14.0315 11.3877 12.75 11.2805L12.75 5.79336C14.2692 5.9717 15.44 6.67817 15.9514 7.50298C16.1697 7.85501 16.632 7.96345 16.9841 7.74517C17.3361 7.5269 17.4445 7.06457 17.2263 6.71253C16.3881 5.3608 14.6802 4.47021 12.75 4.28565V3ZM11.25 5.79184C9.22215 6.02713 8.19409 7.22057 8.19409 8.5C8.19409 9.29076 8.49392 9.94661 9.07197 10.4195C9.55066 10.8111 10.2646 11.112 11.25 11.2131L11.25 5.79184ZM12.75 12.7868L12.75 18.2083C14.7897 17.9729 15.8388 16.7746 15.8388 15.5C15.8388 14.7145 15.5348 14.0583 14.9476 13.583C14.4612 13.1893 13.7388 12.8879 12.75 12.7868Z" fill="#002B51"/>
</svg>
