<svg width="24" height="24" viewBox="0 0 24 24" fill="none" xmlns="http://www.w3.org/2000/svg">
<path fill-rule="evenodd" clip-rule="evenodd" d="M10.7499,21v-0.8521c-1.72025,-0.2829 -3.23431,-1.1339 -4.13882,-2.3002l-0.21093,-0.295l-0.06446,-0.1103c-0.29317,-0.5616 -0.11955,-1.2651 0.4209,-1.6211c0.5403,-0.3558 1.25507,-0.2378 1.65528,0.2529l0.07617,0.1035l0.10547,0.1465c0.41233,0.5244 1.17484,1.0308 2.15639,1.2747v-4.4322c-1.16087,-0.1618 -2.16324,-0.5598 -2.94448,-1.1989c-1.0739,-0.8785 -1.61133,-2.11906 -1.61133,-3.4678c0,-2.55225 1.97977,-4.24158 4.55581,-4.65257v-0.84743c0,-0.69036 0.5597,-1.25 1.25,-1.25c0.6904,0 1.25,0.55964 1.25,1.25v0.84424c1.8645,0.28397 3.5297,1.19937 4.4012,2.60498l0.0615,0.1123c0.2776,0.56928 0.0849,1.26732 -0.4648,1.6084c-0.5867,0.36379 -1.3579,0.18341 -1.7217,-0.40332c-0.3541,-0.57109 -1.1591,-1.13316 -2.2762,-1.38256v4.44906c1.1631,0.1616 2.1698,0.559 2.9559,1.1952c1.0805,0.8745 1.6328,2.1143 1.6328,3.4717c0,2.5603 -2.0129,4.2429 -4.5887,4.6527v0.8473c0,0.6904 -0.5596,1.25 -1.25,1.25c-0.6903,0 -1.25,-0.5596 -1.25,-1.25zM13.2499,17.6181c1.4715,-0.3416 2.0887,-1.2862 2.0887,-2.1181c0,-0.6426 -0.2421,-1.1528 -0.706,-1.5283c-0.3099,-0.2507 -0.7613,-0.4737 -1.3827,-0.6033zM10.7499,10.631v-4.24812c-1.45368,0.34086 -2.05581,1.27854 -2.05581,2.11712c0,0.65119 0.24035,1.16076 0.69434,1.5322c0.30277,0.2477 0.74617,0.4694 1.36147,0.5988z" fill="#002B51"/>
</svg>
