<svg width="24" height="24" viewBox="0 0 24 24" fill="none" xmlns="http://www.w3.org/2000/svg">
<path d="M11.9998,1.75c0.6903,0 1.25,0.55964 1.25,1.25v0.84473c1.8645,0.28393 3.5297,1.19886 4.4013,2.60449l0.0615,0.1123c0.2776,0.56928 0.0849,1.26732 -0.4648,1.6084c-0.5867,0.36371 -1.3579,0.18337 -1.7217,-0.40332c-0.3541,-0.57113 -1.1592,-1.13345 -2.2763,-1.38281v4.44921c1.1631,0.1615 2.1699,0.5591 2.956,1.1953c1.0805,0.8745 1.6328,2.1143 1.6328,3.4717c0,2.5603 -2.0131,4.2406 -4.5888,4.6504v0.8496c0,0.6904 -0.5597,1.25 -1.25,1.25c-0.6903,-0.0002 -1.25,-0.5597 -1.25,-1.25v-0.8525c-1.72016,-0.283 -3.23427,-1.1336 -4.13872,-2.2998l-0.21093,-0.295l-0.06446,-0.1103c-0.29312,-0.5616 -0.11946,-1.2651 0.4209,-1.6211c0.54027,-0.3557 1.25505,-0.2377 1.65528,0.2529l0.07617,0.1035l0.10547,0.1465c0.41222,0.5243 1.17506,1.0285 2.15629,1.2725v-4.4317c-1.16071,-0.1618 -2.16326,-0.5582 -2.94438,-1.1972c-1.07384,-0.8785 -1.61133,-2.1191 -1.61133,-3.4678c0,-2.55214 1.97977,-4.24127 4.55571,-4.65234v-0.84766c0,-0.69026 0.5597,-1.24984 1.25,-1.25zM13.2498,17.6152c1.4712,-0.3416 2.0888,-1.2833 2.0888,-2.1152c0,-0.6426 -0.2421,-1.1528 -0.706,-1.5283c-0.3099,-0.2507 -0.7615,-0.473 -1.3828,-0.6026zM10.7498,6.38477c-1.45323,0.341 -2.05571,1.27678 -2.05571,2.11523c0,0.65115 0.2404,1.16077 0.69434,1.5322c0.30268,0.2476 0.74627,0.4683 1.36137,0.5977z" fill="#002B51"/>
</svg>
