<svg width="24" height="24" viewBox="0 0 24 24" fill="none" xmlns="http://www.w3.org/2000/svg">
<path fill-rule="evenodd" clip-rule="evenodd" d="M7.89819,8.08453c-0.23805,0.37098 -0.44068,0.76118 -0.6064,1.16542h7.70821c0.4142,0 0.75,0.33579 0.75,0.75c0,0.41425 -0.3358,0.75005 -0.75,0.75005h-8.14143c-0.0723,0.413 -0.10894,0.8333 -0.10857,1.2563c0.00037,0.4187 0.03699,0.8347 0.10857,1.2437h6.14143c0.4142,0 0.75,0.3357 0.75,0.75c0,0.4142 -0.3358,0.75 -0.75,0.75h-5.7082c0.1673,0.4081 0.37224,0.8019 0.61324,1.176c0.75288,1.1688 1.82595,2.0965 3.09136,2.6725c1.2653,0.576 2.6696,0.776 4.0455,0.5762c1.3759,-0.1998 2.6653,-0.791 3.7145,-1.7031c0.3126,-0.2718 0.7864,-0.2386 1.0581,0.074c0.2718,0.3126 0.2386,0.7863 -0.074,1.0581c-1.2663,1.1008 -2.8225,1.8143 -4.483,2.0554c-1.6606,0.2412 -3.3554,-0.0002 -4.8826,-0.6954c-1.52716,-0.6952 -2.82224,-1.8148 -3.73089,-3.2254c-0.40144,-0.6232 -0.71998,-1.2916 -0.95063,-1.9883h-1.69338c-0.41421,0 -0.75,-0.3358 -0.75,-0.75c0,-0.4143 0.33579,-0.75 0.75,-0.75h1.33974c-0.05916,-0.41 -0.08937,-0.8251 -0.08974,-1.2424c-0.00037,-0.4225 0.02985,-0.8427 0.08974,-1.2576h-1.33974c-0.41421,0 -0.75,-0.3358 -0.75,-0.75005c0,-0.41421 0.33579,-0.75 0.75,-0.75h1.69337c0.22906,-0.6919 0.5448,-1.35591 0.94238,-1.9755c0.90618,-1.41221 2.19931,-2.53408 3.72525,-3.23191c1.526,-0.69783 3.2204,-0.94219 4.8813,-0.70395c1.661,0.23823 3.2184,0.94902 4.4867,2.04764c0.3131,0.2712 0.347,0.74486 0.0758,1.05794c-0.2712,0.31309 -0.7448,0.34704 -1.0579,0.07584c-1.0509,-0.91029 -2.3413,-1.49922 -3.7175,-1.69662c-1.3763,-0.19739 -2.7802,0.00507 -4.0446,0.58328c-1.26432,0.5782 -2.33577,1.50775 -3.08661,2.67786z" fill="#002B51"/>
</svg>
