<svg width="24" height="24" viewBox="0 0 24 24" fill="none" xmlns="http://www.w3.org/2000/svg">
<path d="M12,2.49997c5.3848,0 9.75,4.36522 9.75,9.75003c0,5.3847 -4.3652,9.75 -9.75,9.75c-5.38478,0 -9.75,-4.3653 -9.75,-9.75c0,-5.38481 4.36522,-9.75003 9.75,-9.75003zM12.1973,7.76169c-0.5923,0.04772 -1.1635,0.23492 -1.6739,0.54297l-0.2148,0.13965c-0.49166,0.34196 -0.90283,0.7917 -1.20801,1.31445l-0.12403,0.22851c-0.2008,0.39703 -0.33904,0.82353 -0.41308,1.26273h-0.26368c-0.4141,0.0001 -0.75,0.3358 -0.75,0.75c0,0.4141 0.3359,0.7498 0.75,0.75h0.26368c0.07397,0.4391 0.21228,0.8656 0.41308,1.2627l0.12403,0.2285c0.30518,0.5227 0.71635,0.9725 1.20801,1.3144l0.2148,0.1397c0.5104,0.308 1.0816,0.4952 1.6739,0.543l0.2539,0.0117c0.5071,0.0065 1.0099,-0.0892 1.4814,-0.2813l0.2324,-0.1045c0.3725,-0.1811 0.5277,-0.6295 0.3467,-1.0019c-0.1698,-0.3493 -0.5747,-0.5078 -0.9316,-0.377l-0.0703,0.0303c-0.329,0.16 -0.6836,0.239 -1.0391,0.2344l-0.1523,-0.0069c-0.3555,-0.0286 -0.7037,-0.1414 -1.0196,-0.332l-0.1338,-0.0869c-0.3063,-0.2131 -0.5697,-0.4985 -0.7685,-0.8389l-0.0811,-0.1494c-0.0939,-0.1856 -0.1671,-0.3824 -0.2197,-0.5859h1.6543l0.0762,-0.0039c0.3783,-0.0383 0.6738,-0.3577 0.6738,-0.7461c0,-0.3885 -0.2955,-0.7079 -0.6738,-0.7461l-0.0762,-0.0039h-1.6543c0.0526,-0.2035 0.1258,-0.4003 0.2197,-0.586l0.0811,-0.1494c0.1988,-0.3403 0.4622,-0.62574 0.7685,-0.83885l0.1338,-0.08691c0.3159,-0.19061 0.6641,-0.30342 1.0196,-0.33203l0.1523,-0.00684c0.3047,-0.00393 0.6087,0.05362 0.8965,0.1709l0.1426,0.06347l0.0703,0.03028c0.3569,0.13085 0.7618,-0.02772 0.9316,-0.37696c0.1697,-0.3492 0.044,-0.76498 -0.2793,-0.96484l-0.0674,-0.03711l-0.2324,-0.10449c-0.4715,-0.19204 -0.9743,-0.28783 -1.4814,-0.28125z" fill="#002B51"/>
</svg>
