<svg width="24" height="24" viewBox="0 0 24 24" fill="none" xmlns="http://www.w3.org/2000/svg">
<path d="M3.46977,3.46972c0.27455,-0.27452 0.70934,-0.29191 1.0039,-0.05175l0.05664,0.05175l15.99999,15.99998l0.0518,0.0567c0.2403,0.2945 0.2228,0.7293 -0.0518,1.0039c-0.2746,0.2746 -0.7093,0.292 -1.0039,0.0517l-0.0566,-0.0517l-1.0088,-1.0088c-0.8904,0.5285 -1.8684,0.9002 -2.8936,1.0869l-0.3095,0.0508c-1.6605,0.2411 -3.3558,-0.0003 -4.8829,-0.6953c-1.43158,-0.6517 -2.65907,-1.6771 -3.55563,-2.9649l-0.17578,-0.2607c-0.40124,-0.623 -0.71866,-1.2919 -0.94922,-1.9883h-1.69433c-0.41408,0 -0.74978,-0.336 -0.75,-0.75c0.00003,-0.4142 0.33581,-0.75 0.75,-0.75h1.33984c-0.04424,-0.3066 -0.0725,-0.6166 -0.08398,-0.9277l-0.00586,-0.3145c-0.00037,-0.4224 0.02998,-0.8429 0.08984,-1.2578h-1.33984c-0.41408,0 -0.74978,-0.336 -0.75,-0.75c0.00003,-0.41419 0.33581,-0.75 0.75,-0.75h1.69336c0.19719,-0.59567 0.45865,-1.17106 0.78125,-1.71485l-3.00488,-3.00488l-0.05176,-0.05664c-0.24016,-0.29458 -0.22279,-0.72936 0.05176,-1.00391zM13.4971,14.5576c-0.1326,0.1182 -0.3055,0.1924 -0.4971,0.1924h-5.70699c0.16728,0.4078 0.37149,0.8019 0.6123,1.1758l0.14453,0.2168c0.74282,1.0668 1.76023,1.9161 2.94626,2.456c1.2653,0.576 2.6701,0.776 4.0459,0.5762l0.2569,-0.042c0.7221,-0.1315 1.4169,-0.3728 2.0625,-0.7109zM6.85844,10.75c-0.07228,0.4127 -0.10874,0.8332 -0.1084,1.2559l0.00488,0.2607c0.01218,0.3306 0.04679,0.6595 0.10352,0.9834h5.33106l-2.50001,-2.5zM15.0772,9.2539c0.3779,0.03864 0.6728,0.35797 0.6728,0.7461c-0.0002,0.388 -0.295,0.7075 -0.6728,0.7461l-0.0772,0.0039h-1.1894l-1.5,-1.5h2.6894zM7.57719,8.63769c-0.10468,0.19987 -0.19987,0.40434 -0.28516,0.61231h0.89746zM10.6495,3.91699c1.4494,-0.60084 3.0358,-0.80143 4.5927,-0.57813c1.5572,0.22336 3.0239,0.86148 4.2461,1.84571l0.2403,0.20214l0.0556,0.05274c0.2606,0.27664 0.2747,0.71141 0.0205,1.00488c-0.2542,0.29308 -0.6862,0.34124 -0.997,0.12305l-0.0606,-0.04688l-0.2002,-0.16699c-1.0127,-0.81548 -2.2274,-1.3452 -3.5176,-1.53027c-1.2901,-0.18503 -2.6046,-0.0184 -3.8056,0.47949l-0.2393,0.10352c-0.5592,0.25579 -1.0811,0.57999 -1.5537,0.96386l-1.06543,-1.06543c0.60198,-0.5065 1.27336,-0.93118 1.99613,-1.26172z" fill="#002B51"/>
</svg>
