<svg width="24" height="24" viewBox="0 0 24 24" fill="none" xmlns="http://www.w3.org/2000/svg">
<path fill-rule="evenodd" clip-rule="evenodd" d="M12,3.99997c-4.55635,0 -8.25001,3.69365 -8.25001,8.25003c0,4.5563 3.69366,8.25 8.25001,8.25c4.5563,0 8.25,-3.6937 8.25,-8.25c0,-4.55638 -3.6937,-8.25003 -8.25,-8.25003zM2.24999,12.25c0,-5.38481 4.36523,-9.75003 9.75001,-9.75003c5.3848,0 9.75,4.36522 9.75,9.75003c0,5.3847 -4.3652,9.75 -9.75,9.75c-5.38478,0 -9.75001,-4.3653 -9.75001,-9.75zM12.1975,7.76213c0.677,-0.0545 1.354,0.07494 1.9679,0.37344c0.3725,0.18113 0.5276,0.62995 0.3465,1.00246c-0.1811,0.37251 -0.6299,0.52765 -1.0025,0.34652c-0.3761,-0.18288 -0.7853,-0.25996 -1.1915,-0.22726c-0.4063,0.03271 -0.8027,0.17474 -1.1527,0.41812c-0.3504,0.24366 -0.6443,0.58219 -0.8501,0.98899c-0.0938,0.1856 -0.1676,0.3822 -0.2202,0.5856h1.6551c0.4143,0 0.75,0.3358 0.75,0.75c0,0.4142 -0.3357,0.75 -0.75,0.75h-1.6551c0.0526,0.2034 0.1264,0.3999 0.2202,0.5856c0.2058,0.4067 0.4997,0.7453 0.8501,0.9889c0.35,0.2434 0.7464,0.3854 1.1527,0.4182c0.4062,0.0326 0.8154,-0.0444 1.1915,-0.2273c0.3726,-0.1811 0.8214,-0.026 1.0025,0.3465c0.1811,0.3725 0.026,0.8213 -0.3465,1.0025c-0.6139,0.2985 -1.2909,0.4279 -1.9679,0.3734c-0.6768,-0.0545 -1.3261,-0.2906 -1.8886,-0.6817c-0.56212,-0.3909 -1.01848,-0.9231 -1.3323,-1.5436c-0.20082,-0.397 -0.33983,-0.8234 -0.41388,-1.2625h-0.26268c-0.41421,0 -0.75,-0.3358 -0.75,-0.75c0,-0.4142 0.33579,-0.75 0.75,-0.75h0.26268c0.07405,-0.4392 0.21306,-0.8655 0.41388,-1.2626c0.31382,-0.6205 0.77018,-1.15266 1.3323,-1.54352c0.5625,-0.39115 1.2118,-0.62726 1.8886,-0.68175z" fill="#002B51"/>
</svg>
