<svg width="24" height="24" viewBox="0 0 24 24" fill="none" xmlns="http://www.w3.org/2000/svg">
<path fill-rule="evenodd" clip-rule="evenodd" d="M15.6416,2.89645c1.6325,0.29436 3.1582,1.02356 4.415,2.1123c0.5215,0.45206 0.5779,1.24101 0.126,1.7627c-0.4519,0.52165 -1.2409,0.57852 -1.7627,0.12695c-0.9173,-0.79461 -2.0312,-1.32628 -3.2226,-1.54102l-0.2393,-0.03906c-1.2011,-0.17221 -2.4248,-0.01726 -3.543,0.44629l-0.2226,0.09668c-1.1036,0.50476 -2.0494,1.29718 -2.73928,2.29199l-0.13378,0.20117c-0.08304,0.12941 -0.16146,0.26134 -0.23518,0.39552h6.91584l0.1279,0.00683c0.6303,0.06409 1.1221,0.59601 1.1221,1.24317c0,0.64713 -0.4918,1.17903 -1.1221,1.24313l-0.1279,0.0069h-7.70818c-0.02799,0.2501 -0.04204,0.5025 -0.04182,0.7558l0.00488,0.2422c0.00618,0.1681 0.01862,0.3355 0.03721,0.502h5.70791c0.6904,0 1.25,0.5596 1.25,1.25c0,0.6903 -0.5596,1.25 -1.25,1.25h-4.91622c0.07555,0.1375 0.15605,0.2727 0.24142,0.4052l0.13476,0.2012c0.69161,0.9936 1.63874,1.7843 2.74314,2.2871c1.178,0.5362 2.4857,0.7221 3.7666,0.5361l0.2393,-0.039c1.191,-0.2168 2.3038,-0.7497 3.2197,-1.5459c0.521,-0.4529 1.3098,-0.3979 1.7627,0.123c0.4529,0.5211 0.398,1.3108 -0.123,1.7637c-1.255,1.0909 -2.7793,1.822 -4.4112,2.1191l-0.3281,0.0538c-1.7553,0.2548 -3.5468,-0.0006 -5.1611,-0.7354c-1.5136,-0.689 -2.81198,-1.7723 -3.7598,-3.1338l-0.18457,-0.2764c-0.35802,-0.5558 -0.65373,-1.1456 -0.88392,-1.7587h-1.33971c-0.69036,0 -1.25,-0.5597 -1.25,-1.25c0,-0.6904 0.55964,-1.25 1.25,-1.25h0.78008c-0.0111,-0.1364 -0.01918,-0.2731 -0.02422,-0.4102l-0.00586,-0.332c-0.00021,-0.2536 0.01,-0.5064 0.03045,-0.7578h-0.78045c-0.69036,0 -1.25,-0.5597 -1.25,-1.25003c0,-0.69036 0.55964,-1.25 1.25,-1.25h1.33984c0.22822,-0.60807 0.52091,-1.19326 0.875,-1.74513l0.18457,-0.27636c0.94545,-1.3632 2.24152,-2.449 3.75389,-3.14063l0.3047,-0.13281c1.5323,-0.63518 3.2095,-0.84742 4.8555,-0.61133z" fill="#002B51"/>
</svg>
