<svg width="24" height="24" viewBox="0 0 24 24" fill="none" xmlns="http://www.w3.org/2000/svg">
<path fill-rule="evenodd" clip-rule="evenodd" d="M6.47471,7.5354l-3.00503,-3.00503c-0.2929,-0.29289 -0.2929,-0.76776 0,-1.06066c0.29289,-0.29289 0.76776,-0.29289 1.06066,0l15.99996,15.99999c0.2929,0.2929 0.2929,0.7678 0,1.0607c-0.2929,0.2929 -0.7677,0.2929 -1.0606,0l-1.0051,-1.0051c-0.9803,0.5815 -2.0692,0.9686 -3.2071,1.1338c-1.6606,0.2412 -3.3554,-0.0002 -4.8826,-0.6954c-1.52716,-0.6951 -2.82224,-1.8148 -3.73089,-3.2254c-0.40144,-0.6232 -0.71997,-1.2916 -0.95063,-1.9883h-1.69338c-0.41421,0 -0.75,-0.3358 -0.75,-0.75c0,-0.4142 0.33579,-0.75 0.75,-0.75h1.33975c-0.05917,-0.4099 -0.08938,-0.825 -0.08974,-1.2424c-0.00037,-0.4225 0.02985,-0.8427 0.08973,-1.2576h-1.33974c-0.41421,0 -0.75,-0.3358 -0.75,-0.75002c0,-0.41421 0.33579,-0.75 0.75,-0.75h1.69338c0.19721,-0.59572 0.45869,-1.17076 0.78133,-1.71458zM17.3624,18.4231l-3.8633,-3.8633c-0.1326,0.1183 -0.3074,0.1902 -0.4991,0.1902h-5.7082c0.16731,0.4081 0.37224,0.8019 0.61324,1.176c0.75288,1.1688 1.82595,2.0965 3.09136,2.6725c1.2653,0.576 2.6696,0.776 4.0455,0.5762c0.8144,-0.1182 1.5986,-0.3737 2.3205,-0.7516zM12.1893,13.25l-2.50001,-2.5h-2.83072c-0.0723,0.413 -0.10893,0.8333 -0.10856,1.2563c0.00036,0.4187 0.03699,0.8348 0.10856,1.2437zM7.57686,8.63756c-0.10467,0.19995 -0.19976,0.40432 -0.28507,0.61242h0.8975zM13.8106,10.75l-1.5,-1.50002h2.6894c0.4142,0 0.75,0.33579 0.75,0.75c0,0.41422 -0.3358,0.75002 -0.75,0.75002zM10.361,4.04257c1.526,-0.69783 3.2204,-0.94219 4.8813,-0.70395c1.661,0.23823 3.2184,0.94902 4.4867,2.04764c0.3131,0.2712 0.347,0.74486 0.0758,1.05794c-0.2712,0.31309 -0.7448,0.34704 -1.0579,0.07584c-1.0509,-0.91029 -2.3413,-1.49922 -3.7175,-1.69662c-1.3762,-0.19739 -2.7802,0.00507 -4.0446,0.58328c-0.5592,0.25577 -1.08079,0.58028 -1.55353,0.96396l-1.0654,-1.06539c0.60191,-0.50655 1.27241,-0.93219 1.99513,-1.2627z" fill="#002B51"/>
</svg>
