<svg width="24" height="24" viewBox="0 0 24 24" fill="none" xmlns="http://www.w3.org/2000/svg">
<path fill-rule="evenodd" clip-rule="evenodd" d="M3.46967 4.53036L6.4747 7.53539C6.15206 8.07921 5.89059 8.65425 5.69337 9.24997H4C3.58579 9.24997 3.25 9.58575 3.25 9.99997C3.25 10.4142 3.58579 10.75 4 10.75H5.33974C5.27985 11.1649 5.24963 11.5851 5.25 12.0076C5.25037 12.4249 5.28058 12.8401 5.33974 13.25H4C3.58579 13.25 3.25 13.5858 3.25 14C3.25 14.4142 3.58579 14.75 4 14.75H5.69338C5.92403 15.4467 6.24257 16.1151 6.64401 16.7383C7.55266 18.1489 8.84774 19.2685 10.3749 19.9637C11.9021 20.6589 13.5969 20.9003 15.2575 20.6591C16.3954 20.4939 17.4843 20.1068 18.4646 19.5253L19.4697 20.5304C19.7626 20.8233 20.2374 20.8233 20.5303 20.5304C20.8232 20.2375 20.8232 19.7626 20.5303 19.4697L4.53033 3.4697C4.23744 3.1768 3.76257 3.1768 3.46967 3.4697C3.17678 3.76259 3.17678 4.23746 3.46967 4.53036ZM13.6893 14.75L17.3624 18.4231C16.6404 18.801 15.8563 19.0564 15.0419 19.1747C13.666 19.3745 12.2617 19.1745 10.9964 18.5985C9.73099 18.0225 8.65792 17.0948 7.90504 15.926C7.66404 15.5519 7.4591 15.1581 7.2918 14.75H12V14.75H13.6893ZM9.68928 10.75L12.1893 13.25H6.85857C6.78699 12.8411 6.75037 12.425 6.75 12.0063C6.74963 11.5833 6.78627 11.163 6.85857 10.75H9.68928ZM7.29179 9.24997H8.18928L7.57686 8.63754C7.47219 8.83749 7.3771 9.04187 7.29179 9.24997ZM12.3106 9.24997L13.8106 10.75H15C15.4142 10.75 15.75 10.4142 15.75 9.99997C15.75 9.58575 15.4142 9.24997 15 9.24997H12.3106ZM9.43126 6.37065L8.36587 5.30526C8.96777 4.7987 9.63828 4.37307 10.361 4.04256C11.887 3.34472 13.5814 3.10037 15.2423 3.3386C16.9033 3.57684 18.4607 4.28762 19.729 5.38624C20.0421 5.65744 20.076 6.1311 19.8048 6.44419C19.5336 6.75727 19.06 6.79122 18.7469 6.52002C17.696 5.60974 16.4056 5.0208 15.0294 4.82341C13.6531 4.62601 12.2492 4.82848 10.9848 5.40668C10.4255 5.66245 9.904 5.98697 9.43126 6.37065Z" fill="#002B51"/>
</svg>
