<svg width="24" height="24" viewBox="0 0 24 24" fill="none" xmlns="http://www.w3.org/2000/svg">
<path d="M12,2.49997c5.3848,0 9.75,4.36522 9.75,9.75003c0,5.3847 -4.3652,9.75 -9.75,9.75c-5.38478,0 -9.75,-4.3653 -9.75,-9.75c0,-5.38481 4.36522,-9.75003 9.75,-9.75003zM12,3.99997c-4.55635,0 -8.25,3.69365 -8.25,8.25003c0,4.5563 3.69365,8.25 8.25,8.25c4.5563,0 8.25,-3.6937 8.25,-8.25c0,-4.55638 -3.6937,-8.25003 -8.25,-8.25003zM12.4512,7.74997c0.5071,-0.00658 1.0099,0.08921 1.4814,0.28125l0.2324,0.10449l0.0674,0.03711c0.3233,0.19986 0.449,0.61564 0.2793,0.96484c-0.1698,0.34924 -0.5747,0.50781 -0.9316,0.37696l-0.0703,-0.03028l-0.1426,-0.06347c-0.2878,-0.11728 -0.5918,-0.17483 -0.8965,-0.1709l-0.1523,0.00684c-0.3555,0.02861 -0.7037,0.14142 -1.0196,0.33203l-0.1338,0.08691c-0.3063,0.21311 -0.5697,0.49855 -0.7685,0.83885l-0.0811,0.1494c-0.0939,0.1857 -0.1671,0.3825 -0.2197,0.586h1.6543l0.0762,0.0039c0.3783,0.0382 0.6738,0.3576 0.6738,0.7461c0,0.3884 -0.2955,0.7078 -0.6738,0.7461l-0.0762,0.0039h-1.6543c0.0526,0.2035 0.1258,0.4003 0.2197,0.5859l0.0811,0.1494c0.1988,0.3404 0.4622,0.6258 0.7685,0.8389l0.1338,0.0869c0.3159,0.1906 0.6641,0.3034 1.0196,0.332l0.1523,0.0069c0.3555,0.0046 0.7101,-0.0744 1.0391,-0.2344l0.0703,-0.0303c0.3569,-0.1308 0.7618,0.0277 0.9316,0.377c0.181,0.3724 0.0258,0.8208 -0.3467,1.0019l-0.2324,0.1045c-0.4715,0.1921 -0.9743,0.2878 -1.4814,0.2813l-0.2539,-0.0117c-0.5923,-0.0478 -1.1635,-0.235 -1.6739,-0.543l-0.2148,-0.1397c-0.49166,-0.3419 -0.90283,-0.7917 -1.20801,-1.3144l-0.12403,-0.2285c-0.2008,-0.3971 -0.33911,-0.8236 -0.41308,-1.2627h-0.26368c-0.4141,-0.0002 -0.75,-0.3359 -0.75,-0.75c0,-0.4142 0.3359,-0.7499 0.75,-0.75h0.26368c0.07404,-0.4392 0.21228,-0.8657 0.41308,-1.26273l0.12403,-0.22851c0.30518,-0.52275 0.71635,-0.97249 1.20801,-1.31445l0.2148,-0.13965c0.5104,-0.30805 1.0816,-0.49525 1.6739,-0.54297z" fill="#002B51"/>
</svg>
