<svg width="24" height="24" viewBox="0 0 24 24" fill="none" xmlns="http://www.w3.org/2000/svg">
<path fill-rule="evenodd" clip-rule="evenodd" d="M11.25,19.9999v-4.25h-4.25003c-0.41421,0 -0.75,-0.3358 -0.75,-0.75c0,-0.4142 0.33579,-0.75 0.75,-0.75h4.25003v-1.5h-4.25003c-0.41421,0 -0.75,-0.3358 -0.75,-0.75c0,-0.4142 0.33579,-0.75 0.75,-0.75h3.50073l-5.10029,-6.79977l-0.04297,-0.06348c-0.19645,-0.32554 -0.11815,-0.75317 0.19238,-0.98632c0.31069,-0.23302 0.74335,-0.18876 1.00098,0.09082l0.04883,0.05859l5.40037,7.20016l5.4004,-7.20016c0.2486,-0.3311 0.7185,-0.39786 1.0498,-0.14941c0.3311,0.24859 0.3979,0.71853 0.1494,1.0498l-5.1002,6.79977h3.5006c0.4142,0 0.75,0.3358 0.75,0.75c0,0.4142 -0.3358,0.75 -0.75,0.75h-4.25v1.5h4.25c0.4142,0 0.75,0.3358 0.75,0.75c0,0.4142 -0.3358,0.75 -0.75,0.75h-4.25v4.25c0,0.4142 -0.3358,0.75 -0.75,0.75c-0.4142,0 -0.75,-0.3358 -0.75,-0.75z" fill="#002B51"/>
</svg>
