<svg width="24" height="24" viewBox="0 0 24 24" fill="none" xmlns="http://www.w3.org/2000/svg">
<path fill-rule="evenodd" clip-rule="evenodd" d="M13.2501 3C13.2501 2.30964 12.6904 1.75 12.0001 1.75C11.3097 1.75 10.7501 2.30964 10.7501 3V3.84743C8.17398 4.25841 6.19414 5.94775 6.19414 8.5C6.19414 9.84874 6.73175 11.089 7.80564 11.9675C8.58689 12.6066 9.58919 13.0048 10.7501 13.1667L10.7501 17.5989C9.67744 17.3323 8.86648 16.7523 8.48813 16.1778C8.10838 15.6013 7.33317 15.4418 6.75664 15.8215C6.18011 16.2013 6.02059 16.9765 6.40034 17.553C7.26769 18.8698 8.88807 19.8417 10.7501 20.1479V21C10.7501 21.6904 11.3097 22.25 12.0001 22.25C12.6904 22.25 13.2501 21.6904 13.2501 21V20.1527C15.8259 19.743 17.8389 18.0604 17.8389 15.5C17.8389 14.1426 17.2864 12.9029 16.2059 12.0284C15.4198 11.3921 14.4131 10.9946 13.2501 10.8331L13.2501 6.38396C14.3672 6.6333 15.1724 7.19532 15.5265 7.76646C15.8903 8.35319 16.6609 8.53391 17.2476 8.17012C17.8343 7.80633 18.015 7.03578 17.6513 6.44905C16.7797 5.04339 15.1146 4.12809 13.2501 3.84419V3ZM10.7501 6.38287C9.29633 6.72374 8.69414 7.66141 8.69414 8.5C8.69414 9.15126 8.93452 9.66102 9.38861 10.0325C9.69137 10.2802 10.1347 10.5018 10.7501 10.6311L10.7501 6.38287ZM13.2501 13.3683L13.2501 17.6181C14.7217 17.2766 15.3389 16.332 15.3389 15.5C15.3389 14.8574 15.097 14.3471 14.6331 13.9716C14.3232 13.7208 13.8717 13.4978 13.2501 13.3683Z" fill="#002B51"/>
</svg>
