<svg width="24" height="24" viewBox="0 0 24 24" fill="none" xmlns="http://www.w3.org/2000/svg">
<path fill-rule="evenodd" clip-rule="evenodd" d="M10.75,20v-2.7501h-3.75014c-0.69035,0 -1.25,-0.5596 -1.25,-1.25c0,-0.6903 0.55965,-1.25 1.25,-1.25h3.75014v-1.25h-3.75014c-0.69035,0 -1.25,-0.5596 -1.25,-1.25c0,-0.6903 0.55965,-1.25 1.25,-1.25h2.68796l-4.68787,-6.24995c-0.41421,-0.55228 -0.30228,-1.33578 0.25,-1.75c0.55229,-0.41421 1.33579,-0.30228 1.75,0.25l5.00005,6.66602l5,-6.66602c0.4142,-0.55228 1.1977,-0.66421 1.75,-0.25c0.5522,0.41422 0.6642,1.19772 0.25,1.75l-4.6879,6.24995h2.6878c0.6903,0 1.25,0.5597 1.25,1.25c0,0.6904 -0.5597,1.25 -1.25,1.25h-3.7499v1.25h3.7499c0.6903,0 1.25,0.5597 1.25,1.25c0,0.6904 -0.5597,1.25 -1.25,1.25h-3.7499v2.7501c0,0.6903 -0.5597,1.25 -1.25,1.25c-0.6904,0 -1.25,-0.5597 -1.25,-1.25z" fill="#002B51"/>
</svg>
