<svg width="24" height="24" viewBox="0 0 24 24" fill="none" xmlns="http://www.w3.org/2000/svg">
<path fill-rule="evenodd" clip-rule="evenodd" d="M11.1928 5.86142C12.3699 5.32309 13.6771 5.13459 14.9584 5.31837C16.2397 5.50215 17.4411 6.05047 18.4195 6.89798C18.9413 7.34998 19.7307 7.2934 20.1827 6.77159C20.6347 6.24978 20.5782 5.46035 20.0564 5.00835C18.7156 3.84695 17.0692 3.09555 15.3133 2.8437C13.5575 2.59185 11.7662 2.85017 10.1531 3.58788C8.53992 4.32558 7.1729 5.51156 6.21493 7.00447C5.86074 7.55645 5.56799 8.14178 5.33974 8.75H4C3.30964 8.75 2.75 9.30964 2.75 10C2.75 10.6904 3.30964 11.25 4 11.25H4.78045C4.75999 11.5015 4.74978 11.7544 4.75 12.0081C4.75022 12.2563 4.76043 12.5038 4.78045 12.75H4C3.30964 12.75 2.75 13.3096 2.75 14C2.75 14.6904 3.30964 15.25 4 15.25H5.33975C5.56988 15.8632 5.86557 16.4532 6.22367 17.0091C7.18424 18.5003 8.55333 19.6839 10.1678 20.4188C11.7822 21.1537 13.5739 21.4089 15.3293 21.154C17.0847 20.8991 18.7298 20.1448 20.0685 18.9811C20.5896 18.5281 20.6448 17.7386 20.1919 17.2176C19.7389 16.6966 18.9494 16.6414 18.4284 17.0943C17.4515 17.9435 16.251 18.4939 14.97 18.6799C13.6891 18.8659 12.3816 18.6797 11.2035 18.1434C10.0254 17.6072 9.02634 16.7435 8.32538 15.6553C8.24 15.5227 8.15949 15.3876 8.08392 15.25H13C13.6904 15.25 14.25 14.6904 14.25 14C14.25 13.3096 13.6904 12.75 13 12.75H7.29179C7.26426 12.5037 7.25022 12.2553 7.25 12.0059C7.24978 11.7525 7.26382 11.5002 7.29179 11.25H15C15.6904 11.25 16.25 10.6904 16.25 10C16.25 9.30964 15.6904 8.75 15 8.75H8.08391C8.1576 8.61586 8.23599 8.48398 8.31901 8.35461C9.01806 7.26519 10.0156 6.39975 11.1928 5.86142Z" fill="#002B51"/>
</svg>
