<svg width="24" height="24" viewBox="0 0 24 24" fill="none" xmlns="http://www.w3.org/2000/svg">
<path d="M17.4003,3.54971c0.2486,-0.33107 0.7186,-0.39781 1.0498,-0.14941c0.3311,0.24859 0.3979,0.71854 0.1495,1.04981l-5.1006,6.79979h3.5009c0.4143,0 0.75,0.3358 0.75,0.75c0,0.4142 -0.3357,0.75 -0.75,0.75h-4.25v1.5h4.25c0.4143,0 0.75,0.3358 0.75,0.75c0,0.4142 -0.3357,0.75 -0.75,0.75h-4.25v4.25c0,0.4142 -0.3357,0.75 -0.75,0.75c-0.4141,0 -0.75,-0.3358 -0.75,-0.75v-4.25h-4.24995c-0.41421,0 -0.75,-0.3358 -0.75,-0.75c0,-0.4142 0.33579,-0.75 0.75,-0.75h4.24995v-1.5h-4.24995c-0.41421,0 -0.75,-0.3358 -0.75,-0.75c0,-0.4142 0.33579,-0.75 0.75,-0.75h3.50095l-5.10056,-6.79979l-0.04297,-0.06348c-0.19641,-0.32554 -0.11813,-0.75319 0.19238,-0.98633c0.31067,-0.233 0.74334,-0.18871 1.00098,0.09082l0.04883,0.05859l5.40034,7.20019z" fill="#002B51"/>
</svg>
