<svg width="24" height="24" viewBox="0 0 24 24" fill="none" xmlns="http://www.w3.org/2000/svg">
<path d="M10.6494,3.91673c1.4495,-0.60084 3.0358,-0.80143 4.5928,-0.57813c1.5572,0.22335 3.0238,0.86146 4.2461,1.8457l0.2402,0.20215l0.0557,0.05274c0.2608,0.27663 0.2747,0.71133 0.0205,1.00488c-0.2542,0.29335 -0.6861,0.34145 -0.9971,0.12305l-0.0605,-0.04688l-0.2002,-0.16699c-1.0127,-0.81549 -2.2274,-1.34521 -3.5176,-1.53027c-1.2901,-0.18503 -2.6046,-0.0184 -3.8057,0.47949l-0.2392,0.10351c-1.18525,0.54206 -2.20046,1.39363 -2.94143,2.46192l-0.14453,0.21679c-0.23797,0.37088 -0.44072,0.76095 -0.60645,1.16504h7.70801l0.0771,0.00391c0.378,0.03862 0.6729,0.35795 0.6729,0.74609c0,0.38817 -0.2949,0.70747 -0.6729,0.74607l-0.0771,0.0039h-8.1416c-0.07232,0.4129 -0.10874,0.8331 -0.1084,1.2559l0.00488,0.2607c0.01217,0.3308 0.04677,0.6594 0.10352,0.9834h6.1416c0.4142,0 0.75,0.3358 0.75,0.75c0,0.4142 -0.3358,0.75 -0.75,0.75h-5.70703c0.16731,0.4079 0.37142,0.8018 0.6123,1.1758l0.14453,0.2168c0.74284,1.067 1.76013,1.9161 2.9463,2.4561c1.2654,0.576 2.67,0.7759 4.0459,0.5761l0.2568,-0.042c1.2792,-0.2329 2.4743,-0.806 3.458,-1.6611l0.4912,0.5664l0.4922,0.5654c-1.1872,1.0321 -2.629,1.7238 -4.1728,2.0049l-0.3096,0.0508c-1.6605,0.2411 -3.3557,-0.0002 -4.8828,-0.6953c-1.43172,-0.6517 -2.65909,-1.677 -3.55566,-2.9648l-0.17579,-0.2608c-0.40131,-0.6231 -0.71865,-1.2917 -0.94921,-1.9883h-1.69434c-0.41421,0 -0.75,-0.3358 -0.75,-0.75c0.00003,-0.4142 0.33581,-0.75 0.75,-0.75h1.33984c-0.04425,-0.3067 -0.07251,-0.6164 -0.08398,-0.9277l-0.00586,-0.3145c-0.00037,-0.4225 0.02994,-0.8428 0.08984,-1.2578h-1.33984c-0.41421,0 -0.75,-0.3358 -0.75,-0.74997c0.00003,-0.41418 0.33581,-0.75 0.75,-0.75h1.69336c0.22905,-0.69193 0.54482,-1.35601 0.94238,-1.97558l0.17481,-0.26172c0.89429,-1.28918 2.12039,-2.3156 3.55075,-2.96973zM18.7568,17.4714c0.3126,-0.2715 0.786,-0.2383 1.0577,0.0742c0.2716,0.3126 0.2383,0.7859 -0.0743,1.0576z" fill="#002B51"/>
</svg>
