<svg width="24" height="24" viewBox="0 0 24 24" fill="none" xmlns="http://www.w3.org/2000/svg">
<path fill-rule="evenodd" clip-rule="evenodd" d="M12,3.99998c-4.55635,0 -8.25,3.69366 -8.25,8.25002c0,4.5563 3.69365,8.25 8.25,8.25c4.5563,0 8.25,-3.6937 8.25,-8.25c0,-4.55636 -3.6937,-8.25002 -8.25,-8.25002zM2.25,12.25c0,-5.38479 4.36522,-9.75002 9.75,-9.75002c5.3848,0 9.75,4.36523 9.75,9.75002c0,5.3848 -4.3652,9.75 -9.75,9.75c-5.38478,0 -9.75,-4.3652 -9.75,-9.75zM12.1976,7.76214c0.677,-0.0545 1.3539,0.07495 1.9678,0.37344c0.3725,0.18114 0.5276,0.62995 0.3465,1.00246c-0.1811,0.37251 -0.6299,0.52766 -1.0024,0.34652c-0.3762,-0.18288 -0.7854,-0.25995 -1.1916,-0.22726c-0.4063,0.03271 -0.8027,0.17474 -1.1527,0.41812c-0.3504,0.24367 -0.6443,0.58218 -0.85,0.98898c-0.0939,0.1856 -0.1677,0.3822 -0.2203,0.5856h1.6551c0.4143,0 0.75,0.3358 0.75,0.75c0,0.4142 -0.3357,0.75 -0.75,0.75h-1.6551c0.0526,0.2034 0.1264,0.3999 0.2203,0.5856c0.2057,0.4068 0.4996,0.7453 0.85,0.9889c0.35,0.2434 0.7464,0.3855 1.1527,0.4182c0.4062,0.0327 0.8154,-0.0444 1.1916,-0.2273c0.3725,-0.1811 0.8213,-0.026 1.0024,0.3465c0.1811,0.3725 0.026,0.8214 -0.3465,1.0025c-0.6139,0.2985 -1.2908,0.4279 -1.9678,0.3734c-0.6769,-0.0545 -1.3262,-0.2906 -1.8887,-0.6817c-0.56211,-0.3909 -1.01848,-0.923 -1.3323,-1.5436c-0.20082,-0.397 -0.33982,-0.8234 -0.41387,-1.2625h-0.26268c-0.41421,0 -0.75,-0.3358 -0.75,-0.75c0,-0.4142 0.33579,-0.75 0.75,-0.75h0.26268c0.07405,-0.4392 0.21305,-0.8655 0.41387,-1.26258c0.31382,-0.62051 0.77019,-1.15267 1.3323,-1.54353c0.5625,-0.39115 1.2118,-0.62726 1.8887,-0.68175z" fill="#002B51"/>
</svg>
