<svg width="24" height="24" viewBox="0 0 24 24" fill="none" xmlns="http://www.w3.org/2000/svg">
<path fill-rule="evenodd" clip-rule="evenodd" d="M21.75,12.25c0,5.3848 -4.3652,9.75 -9.75,9.75c-5.38478,0 -9.75,-4.3652 -9.75,-9.75c0,-5.38479 4.36522,-9.75002 9.75,-9.75002c5.3848,0 9.75,4.36523 9.75,9.75002zM14.1654,8.13558c-0.6139,-0.29849 -1.2908,-0.42794 -1.9678,-0.37344c-0.6769,0.05449 -1.3262,0.2906 -1.8887,0.68175c-0.56211,0.39086 -1.01848,0.92302 -1.3323,1.54353c-0.20082,0.39708 -0.33982,0.82338 -0.41387,1.26258h-0.26268c-0.41421,0 -0.75,0.3358 -0.75,0.75c0,0.4142 0.33579,0.75 0.75,0.75h0.26268c0.07405,0.4391 0.21305,0.8655 0.41387,1.2625c0.31382,0.6206 0.77019,1.1527 1.3323,1.5436c0.5625,0.3911 1.2118,0.6272 1.8887,0.6817c0.677,0.0545 1.3539,-0.0749 1.9678,-0.3734c0.3725,-0.1811 0.5276,-0.63 0.3465,-1.0025c-0.1811,-0.3725 -0.6299,-0.5276 -1.0024,-0.3465c-0.3762,0.1829 -0.7854,0.26 -1.1916,0.2273c-0.4063,-0.0327 -0.8027,-0.1748 -1.1527,-0.4182c-0.3504,-0.2436 -0.6443,-0.5821 -0.85,-0.9889c-0.0939,-0.1857 -0.1677,-0.3822 -0.2203,-0.5856h1.6551c0.4143,0 0.75,-0.3358 0.75,-0.75c0,-0.4142 -0.3357,-0.75 -0.75,-0.75h-1.6551c0.0526,-0.2034 0.1264,-0.4 0.2203,-0.5856c0.2057,-0.4068 0.4996,-0.74531 0.85,-0.98898c0.35,-0.24338 0.7464,-0.38541 1.1527,-0.41812c0.4062,-0.03269 0.8154,0.04438 1.1916,0.22726c0.3725,0.18114 0.8213,0.02599 1.0024,-0.34652c0.1811,-0.37251 0.026,-0.82132 -0.3465,-1.00246z" fill="#002B51"/>
</svg>
