<svg width="24" height="24" viewBox="0 0 24 24" fill="none" xmlns="http://www.w3.org/2000/svg">
<path fill-rule="evenodd" clip-rule="evenodd" d="M5.55,3.39995c0.33137,-0.24853 0.80147,-0.18137 1.05,0.15l5.4,7.20005l5.4,-7.20005c0.2485,-0.33137 0.7186,-0.39853 1.05,-0.15c0.3314,0.24853 0.3985,0.71863 0.15,1.05l-5.1,6.79995h3.5c0.4142,0 0.75,0.3358 0.75,0.75c0,0.4142 -0.3358,0.75 -0.75,0.75h-4.25v1.5h4.25c0.4142,0 0.75,0.3358 0.75,0.75c0,0.4142 -0.3358,0.75 -0.75,0.75h-4.25v4.2501c0,0.4142 -0.3358,0.75 -0.75,0.75c-0.4142,0 -0.75,-0.3358 -0.75,-0.75v-4.2501h-4.25005c-0.41421,0 -0.75,-0.3358 -0.75,-0.75c0,-0.4142 0.33579,-0.75 0.75,-0.75h4.25005v-1.5h-4.25005c-0.41421,0 -0.75,-0.3358 -0.75,-0.75c0,-0.4142 0.33579,-0.75 0.75,-0.75h3.50005l-5.1,-6.79995c-0.24853,-0.33137 -0.18137,-0.80147 0.15,-1.05z" fill="#002B51"/>
</svg>
