<svg width="24" height="24" viewBox="0 0 24 24" fill="none" xmlns="http://www.w3.org/2000/svg">
<path fill-rule="evenodd" clip-rule="evenodd" d="M10.9848 5.40667C12.2492 4.82846 13.6531 4.626 15.0294 4.82339C16.4056 5.02079 17.696 5.60972 18.7469 6.52001C19.06 6.79121 19.5336 6.75726 19.8048 6.44417C20.076 6.13109 20.0421 5.65743 19.729 5.38623C18.4607 4.28761 16.9033 3.57682 15.2423 3.33859C13.5814 3.10035 11.887 3.34471 10.361 4.04254C8.83506 4.74037 7.54193 5.86224 6.63575 7.27445C6.23817 7.89404 5.92243 8.55805 5.69337 9.24995H4C3.58579 9.24995 3.25 9.58574 3.25 9.99995C3.25 10.4142 3.58579 10.75 4 10.75H5.33974C5.27985 11.1649 5.24963 11.5851 5.25 12.0076C5.25037 12.4249 5.28058 12.84 5.33974 13.25H4C3.58579 13.25 3.25 13.5857 3.25 14C3.25 14.4142 3.58579 14.75 4 14.75H5.69338C5.92403 15.4467 6.24257 16.1151 6.64401 16.7383C7.55266 18.1489 8.84774 19.2685 10.3749 19.9637C11.9021 20.6589 13.5969 20.9003 15.2575 20.6591C16.918 20.418 18.4742 19.7045 19.7405 18.6037C20.0531 18.3319 20.0863 17.8582 19.8145 17.5456C19.5428 17.233 19.069 17.1998 18.7564 17.4716C17.7072 18.3837 16.4178 18.9749 15.0419 19.1747C13.666 19.3745 12.2617 19.1745 10.9964 18.5985C9.73099 18.0225 8.65792 17.0948 7.90504 15.926C7.66404 15.5519 7.4591 15.1581 7.2918 14.75H13C13.4142 14.75 13.75 14.4142 13.75 14C13.75 13.5857 13.4142 13.25 13 13.25H6.85857C6.78699 12.841 6.75037 12.425 6.75 12.0063C6.74963 11.5833 6.78627 11.163 6.85857 10.75H15C15.4142 10.75 15.75 10.4142 15.75 9.99995C15.75 9.58574 15.4142 9.24995 15 9.24995H7.29179C7.45751 8.84571 7.66014 8.45551 7.89819 8.08453C8.64903 6.91442 9.72048 5.98487 10.9848 5.40667Z" fill="#002B51"/>
</svg>
