<svg width="24" height="24" viewBox="0 0 24 24" fill="none" xmlns="http://www.w3.org/2000/svg">
<path fill-rule="evenodd" clip-rule="evenodd" d="M3.46967,3.4697c0.2929,-0.2929 0.76777,-0.2929 1.06066,0l15.99997,16c0.2929,0.2929 0.2929,0.7678 0,1.0607c-0.2929,0.2929 -0.7677,0.2929 -1.0606,0l-1.0051,-1.0051c-0.9803,0.5815 -2.0692,0.9686 -3.2071,1.1338c-1.6606,0.2412 -3.3554,-0.0002 -4.8826,-0.6954c-1.52716,-0.6952 -2.82224,-1.8148 -3.73089,-3.2254c-0.40144,-0.6232 -0.71998,-1.2916 -0.95063,-1.9883h-1.69338c-0.41421,0 -0.75,-0.3358 -0.75,-0.75c0,-0.4142 0.33579,-0.75 0.75,-0.75h1.33974c-0.05916,-0.4099 -0.08937,-0.8251 -0.08974,-1.2424c-0.00037,-0.4225 0.02985,-0.8427 0.08974,-1.2576h-1.33974c-0.41421,0 -0.75,-0.3358 -0.75,-0.75003c0,-0.41422 0.33579,-0.75 0.75,-0.75h1.69337c0.19722,-0.59572 0.45869,-1.17076 0.78133,-1.71458l-3.00503,-3.00503c-0.29289,-0.2929 -0.29289,-0.76777 0,-1.06066zM12,14.75v0h-4.7082c0.1673,0.4081 0.37224,0.8019 0.61324,1.176c0.75288,1.1688 1.82595,2.0965 3.09136,2.6725c1.2653,0.576 2.6696,0.776 4.0455,0.5762c0.8144,-0.1183 1.5985,-0.3737 2.3205,-0.7516l-3.6731,-3.6731zM6.85857,10.75c-0.0723,0.413 -0.10894,0.8333 -0.10857,1.2563c0.00037,0.4187 0.03699,0.8348 0.10857,1.2437h5.33073l-2.50002,-2.5zM7.29179,9.24997h0.89749l-0.61242,-0.61243c-0.10467,0.19995 -0.19976,0.40433 -0.28507,0.61243zM15,9.24997c0.4142,0 0.75,0.33578 0.75,0.75c0,0.41423 -0.3358,0.75003 -0.75,0.75003h-1.1894l-1.5,-1.50003zM9.43126,6.37065l-1.06539,-1.06539c0.6019,-0.50656 1.27241,-0.93219 1.99513,-1.2627c1.526,-0.69784 3.2204,-0.94219 4.8813,-0.70396c1.661,0.23824 3.2184,0.94902 4.4867,2.04764c0.3131,0.2712 0.347,0.74486 0.0758,1.05795c-0.2712,0.31308 -0.7448,0.34703 -1.0579,0.07583c-1.0509,-0.91028 -2.3413,-1.49922 -3.7175,-1.69661c-1.3763,-0.1974 -2.7802,0.00507 -4.0446,0.58327c-0.5593,0.25577 -1.0808,0.58029 -1.55354,0.96397z" fill="#002B51"/>
</svg>
