<svg width="24" height="24" viewBox="0 0 24 24" fill="none" xmlns="http://www.w3.org/2000/svg">
<path fill-rule="evenodd" clip-rule="evenodd" d="M8.31901,8.35462c-0.08302,0.12937 -0.16141,0.26125 -0.2351,0.39539h6.91609c0.6904,0 1.25,0.55965 1.25,1.24999c0,0.6904 -0.5596,1.25 -1.25,1.25h-7.70821c-0.02797,0.2502 -0.04201,0.5025 -0.04179,0.7559c0.00022,0.2494 0.01426,0.4978 0.04179,0.7441h5.70821c0.6904,0 1.25,0.5597 1.25,1.25c0,0.6904 -0.5596,1.25 -1.25,1.25h-4.91608c0.07557,0.1376 0.15608,0.2728 0.24146,0.4053c0.70096,1.0882 1.70002,1.9519 2.87812,2.4882c1.1781,0.5362 2.4856,0.7225 3.7665,0.5364c1.281,-0.186 2.4815,-0.7364 3.4584,-1.5856c0.521,-0.4529 1.3105,-0.3977 1.7635,0.1233c0.4529,0.521 0.3977,1.3106 -0.1234,1.7635c-1.3387,1.1637 -2.9838,1.918 -4.7392,2.1729c-1.7554,0.2549 -3.5471,-0.0003 -5.1615,-0.7352c-1.61447,-0.7349 -2.98356,-1.9185 -3.94413,-3.4097c-0.3581,-0.5559 -0.65379,-1.1459 -0.88392,-1.7591h-1.33975c-0.69036,0 -1.25,-0.5596 -1.25,-1.25c0,-0.6903 0.55964,-1.25 1.25,-1.25h0.78045c-0.02002,-0.2462 -0.03023,-0.4937 -0.03045,-0.7419c-0.00022,-0.2537 0.00999,-0.5066 0.03045,-0.7581h-0.78045c-0.69036,0 -1.25,-0.5596 -1.25,-1.25c0,-0.69034 0.55964,-1.24999 1.25,-1.24999h1.33974c0.22825,-0.60822 0.521,-1.19355 0.87519,-1.74553c0.95797,-1.4929 2.32499,-2.67888 3.93817,-3.41659c1.6131,-0.7377 3.4044,-0.99603 5.1602,-0.74418c1.7559,0.25185 3.4023,1.00325 4.7431,2.16465c0.5218,0.452 0.5783,1.24143 0.1263,1.76324c-0.452,0.52181 -1.2414,0.5784 -1.7632,0.12639c-0.9784,-0.8475 -2.1798,-1.39582 -3.4611,-1.5796c-1.2813,-0.18379 -2.5885,0.00472 -3.7656,0.54305c-1.1772,0.53832 -2.17474,1.40377 -2.87379,2.49318z" fill="#002B51"/>
</svg>
