<svg width="24" height="24" viewBox="0 0 24 24" fill="none" xmlns="http://www.w3.org/2000/svg">
<path fill-rule="evenodd" clip-rule="evenodd" d="M4.53039,3.46981l16.00001,15.99999l0.0518,0.0567c0.2403,0.2945 0.2228,0.7293 -0.0518,1.0039c-0.2746,0.2746 -0.7093,0.292 -1.0039,0.0517l-0.0567,-0.0517l-1.0053,-1.0054c-0.8909,0.5286 -1.8715,0.8966 -2.8971,1.0833l-0.3096,0.0508c-1.6605,0.2412 -3.3557,-0.0002 -4.8828,-0.6953c-1.43173,-0.6517 -2.65908,-1.6769 -3.55566,-2.9648l-0.17579,-0.2608c-0.40138,-0.6231 -0.71983,-1.2915 -0.9504,-1.9882h-1.69315c-0.41421,0 -0.75,-0.3358 -0.75,-0.75c0,-0.4143 0.33579,-0.75 0.75,-0.75h1.33964c-0.04426,-0.3068 -0.07231,-0.6165 -0.08378,-0.9278l-0.00586,-0.3144c-0.00037,-0.4226 0.02985,-0.8429 0.08976,-1.2578h-1.33976c-0.41421,0 -0.75,-0.3358 -0.75,-0.75004c0,-0.41422 0.33579,-0.75 0.75,-0.75h1.69337c0.19722,-0.59578 0.45871,-1.17088 0.78136,-1.71472l-3.00488,-3.00488l-0.05176,-0.05664c-0.24031,-0.29458 -0.22285,-0.7293 0.05176,-1.00391c0.2746,-0.2746 0.70932,-0.29206 1.0039,-0.05175zM17.3626,18.4232l-3.8634,-3.8635c-0.1326,0.1183 -0.3075,0.1903 -0.4992,0.1903h-5.70794c0.16733,0.408 0.37227,0.8017 0.61321,1.1757l0.14453,0.2168c0.74284,1.067 1.76012,1.9161 2.9463,2.4561c1.2654,0.576 2.67,0.776 4.0459,0.5762l0.2568,-0.042c0.7224,-0.1316 1.418,-0.3716 2.0638,-0.7096zM12.1894,13.25l-2.49995,-2.5h-2.8308c-0.07232,0.4128 -0.10899,0.833 -0.10865,1.2558l0.00488,0.2608c0.01217,0.3308 0.04697,0.6593 0.10373,0.9834zM8.18945,9.24996l-0.61225,-0.61225c-0.10467,0.19989 -0.19976,0.40421 -0.28508,0.61225zM13.8105,10.75l-1.5,-1.50004h2.6895l0.0771,0.0039c0.378,0.03862 0.6729,0.35793 0.6729,0.7461c0,0.38814 -0.2949,0.70744 -0.6729,0.74614l-0.0771,0.0039zM10.3613,4.04292l0.2881,-0.12598c1.4495,-0.60084 3.0358,-0.80143 4.5928,-0.57812c1.5572,0.22335 3.0238,0.86145 4.2461,1.8457l0.2402,0.20215l0.0557,0.05273c0.2608,0.27665 0.2748,0.71134 0.0205,1.00489c-0.2542,0.29334 -0.6861,0.34145 -0.9971,0.12304l-0.0605,-0.04687l-0.2002,-0.16699c-1.0127,-0.81551 -2.2274,-1.34522 -3.5176,-1.53028c-1.2901,-0.18503 -2.6046,-0.0184 -3.8057,0.47949l-0.2392,0.10352c-0.5593,0.25578 -1.0807,0.58047 -1.5533,0.96432l-1.06506,-1.06506c0.60197,-0.50647 1.27255,-0.93203 1.99526,-1.26254z" fill="#002B51"/>
</svg>
