<svg width="24" height="24" viewBox="0 0 24 24" fill="none" xmlns="http://www.w3.org/2000/svg">
<path fill-rule="evenodd" clip-rule="evenodd" d="M13.2501,3.84419c1.8645,0.2839 3.5296,1.1992 4.4012,2.60486c0.3637,0.58673 0.183,1.35728 -0.4037,1.72107c-0.5867,0.36379 -1.3573,0.18307 -1.7211,-0.40366c-0.3541,-0.57114 -1.1593,-1.13316 -2.2764,-1.3825v4.44914c1.163,0.1615 2.1697,0.559 2.9558,1.1953c1.0805,0.8745 1.633,2.1142 1.633,3.4716c0,2.5604 -2.013,4.243 -4.5888,4.6527v0.8473c0,0.6904 -0.5597,1.25 -1.25,1.25c-0.6904,0 -1.25,-0.5596 -1.25,-1.25v-0.8521c-1.86203,-0.3062 -3.48241,-1.2781 -4.34976,-2.5949c-0.37975,-0.5765 -0.22023,-1.3517 0.3563,-1.7315c0.57653,-0.3797 1.35174,-0.2202 1.73149,0.3563c0.37835,0.5745 1.18931,1.1545 2.26197,1.4211v-4.4322c-1.16091,-0.1619 -2.16321,-0.5601 -2.94446,-1.1992c-1.07389,-0.8785 -1.6115,-2.11876 -1.6115,-3.4675c0,-2.55225 1.97984,-4.24159 4.55596,-4.65257v-0.84743c0,-0.69036 0.5596,-1.25 1.25,-1.25c0.6903,0 1.25,0.55964 1.25,1.25zM10.7501,6.38287c-1.45377,0.34087 -2.05596,1.27854 -2.05596,2.11713c0,0.65126 0.24038,1.16102 0.69447,1.5325c0.30276,0.2477 0.74609,0.4693 1.36149,0.5986zM13.2501,13.3683v4.2498c1.4716,-0.3415 2.0888,-1.2861 2.0888,-2.1181c0,-0.6426 -0.2419,-1.1529 -0.7058,-1.5284c-0.3099,-0.2508 -0.7614,-0.4738 -1.383,-0.6033z" fill="#002B51"/>
</svg>
