<svg width="24" height="24" viewBox="0 0 24 24" fill="none" xmlns="http://www.w3.org/2000/svg">
<path fill-rule="evenodd" clip-rule="evenodd" d="M19.4883,5.18455l0.2402,0.20215l0.0557,0.05273c0.2608,0.27665 0.2748,0.71134 0.0205,1.00489c-0.2542,0.29334 -0.6861,0.34145 -0.9971,0.12304l-0.0605,-0.04687l-0.2002,-0.16699c-1.0127,-0.81551 -2.2274,-1.34522 -3.5176,-1.53028c-1.2901,-0.18503 -2.6046,-0.01841 -3.8057,0.47949l-0.2392,0.10352c-1.18526,0.54206 -2.20046,1.39361 -2.94143,2.46191l-0.14453,0.2168c-0.23798,0.37088 -0.44059,0.76095 -0.60632,1.16505h7.70788l0.0771,0.0039c0.378,0.03862 0.6729,0.35793 0.6729,0.7461c0,0.38821 -0.2949,0.70751 -0.6729,0.74611l-0.0771,0.0039h-8.14135c-0.07232,0.4129 -0.10899,0.833 -0.10865,1.2558l0.00488,0.2608c0.01217,0.3308 0.04697,0.6593 0.10373,0.9834h6.14139c0.4142,0 0.75,0.3358 0.75,0.75c0,0.4142 -0.3358,0.75 -0.75,0.75h-5.70794c0.16733,0.408 0.37227,0.8017 0.61321,1.1758l0.14453,0.2168c0.74284,1.0669 1.76012,1.916 2.9463,2.456c1.2654,0.576 2.67,0.776 4.0459,0.5762l0.2568,-0.042c1.2792,-0.2329 2.4743,-0.806 3.458,-1.6611c0.3126,-0.2716 0.786,-0.2384 1.0577,0.0742c0.2716,0.3126 0.2383,0.7859 -0.0743,1.0576c-1.1872,1.032 -2.629,1.7238 -4.1728,2.0049l-0.3096,0.0508c-1.6605,0.2411 -3.3557,-0.0002 -4.8828,-0.6954c-1.43173,-0.6517 -2.65908,-1.6769 -3.55566,-2.9648l-0.17579,-0.2607c-0.40138,-0.6232 -0.71983,-1.2916 -0.9504,-1.9883h-1.69315c-0.41421,0 -0.75,-0.3358 -0.75,-0.75c0,-0.4142 0.33579,-0.75 0.75,-0.75h1.33964c-0.04426,-0.3068 -0.07231,-0.6164 -0.08378,-0.9278l-0.00586,-0.3144c-0.00037,-0.4225 0.02985,-0.8428 0.08976,-1.2578h-1.33976c-0.41421,0 -0.75,-0.3358 -0.75,-0.75001c0,-0.41422 0.33579,-0.75 0.75,-0.75h1.69337c0.22906,-0.69195 0.5448,-1.35601 0.94237,-1.9756l0.17481,-0.26171c0.8943,-1.28921 2.12038,-2.3156 3.55075,-2.96973l0.2881,-0.12598c1.4495,-0.60084 3.0358,-0.80143 4.5928,-0.57812c1.5572,0.22335 3.0238,0.86145 4.2461,1.8457zM18.7568,17.4717l0.4912,0.5664l0.4922,0.5654z" fill="#002B51"/>
</svg>
