<svg width="24" height="24" viewBox="0 0 24 24" fill="none" xmlns="http://www.w3.org/2000/svg">
<path fill-rule="evenodd" clip-rule="evenodd" d="M12.75,4.28565c1.9302,0.18456 3.6381,1.07515 4.4763,2.42688c0.2182,0.35204 0.1098,0.81437 -0.2422,1.03264c-0.3521,0.21828 -0.8144,0.10984 -1.0327,-0.24219c-0.5114,-0.82481 -1.6822,-1.53128 -3.2014,-1.70962v5.48714c1.2815,0.1072 2.3488,0.4951 3.1413,1.1365c0.9572,0.7747 1.4475,1.8685 1.4475,3.083c0,2.3578 -1.9646,3.9582 -4.5888,4.214v1.286c0,0.4142 -0.3358,0.75 -0.75,0.75c-0.4142,0 -0.75,-0.3358 -0.75,-0.75v-1.289c-1.92226,-0.2007 -3.59146,-1.1567 -4.43215,-2.433c-0.22785,-0.3459 -0.13214,-0.8111 0.21378,-1.0389c0.34592,-0.2278 0.81104,-0.1321 1.03889,0.2138c0.53487,0.812 1.70629,1.5546 3.17948,1.7483v-5.4818c-1.27963,-0.1073 -2.34136,-0.4955 -3.12781,-1.1389c-0.94994,-0.7771 -1.4281,-1.87126 -1.4281,-3.0805c0,-2.35242 1.93108,-3.95763 4.55591,-4.21396v-1.28604c0,-0.41421 0.3358,-0.75 0.75,-0.75c0.4142,0 0.75,0.33579 0.75,0.75zM11.25,5.79184c-2.02785,0.23529 -3.05591,1.42873 -3.05591,2.70816c0,0.79076 0.29983,1.44661 0.87788,1.9195c0.47869,0.3916 1.19263,0.6925 2.17803,0.7936zM12.75,12.7868v5.4215c2.0397,-0.2354 3.0888,-1.4337 3.0888,-2.7083c0,-0.7855 -0.304,-1.4417 -0.8912,-1.917c-0.4864,-0.3937 -1.2088,-0.6951 -2.1976,-0.7962z" fill="#002B51"/>
</svg>
