<svg width="24" height="24" viewBox="0 0 24 24" fill="none" xmlns="http://www.w3.org/2000/svg">
<path fill-rule="evenodd" clip-rule="evenodd" d="M14.75,5.5c0,-0.9665 0.7835,-1.75 1.75,-1.75c0.9665,0 1.75,0.7835 1.75,1.75c0,0.9665 -0.7835,1.75 -1.75,1.75c-0.9665,0 -1.75,-0.7835 -1.75,-1.75zM8.75,18c0,2.0711 -1.67893,3.75 -3.75,3.75c-2.07107,0 -3.75,-1.6789 -3.75,-3.75c0,-2.0711 1.67893,-3.75 3.75,-3.75c2.07107,0 3.75,1.6789 3.75,3.75zM5,20.25c1.24264,0 2.25,-1.0074 2.25,-2.25c0,-1.2426 -1.00736,-2.25 -2.25,-2.25c-1.24264,0 -2.25,1.0074 -2.25,2.25c0,1.2426 1.00736,2.25 2.25,2.25zM22.75,18c0,2.0711 -1.6789,3.75 -3.75,3.75c-2.0711,0 -3.75,-1.6789 -3.75,-3.75c0,-2.0711 1.6789,-3.75 3.75,-3.75c2.0711,0 3.75,1.6789 3.75,3.75zM19,20.25c1.2426,0 2.25,-1.0074 2.25,-2.25c0,-1.2426 -1.0074,-2.25 -2.25,-2.25c-1.2426,0 -2.25,1.0074 -2.25,2.25c0,1.2426 1.0074,2.25 2.25,2.25zM16.4014,10.25h2.5986c0.4142,0 0.75,0.3358 0.75,0.75c0,0.4142 -0.3358,0.75 -0.75,0.75h-3c-0.2508,0 -0.4849,-0.1253 -0.624,-0.334l-1.5463,-2.31932l-3.7069,2.96552l2.4075,2.4075c0.1407,0.1406 0.2197,0.3314 0.2197,0.5303v4c0,0.4142 -0.3358,0.75 -0.75,0.75c-0.4142,0 -0.75,-0.3358 -0.75,-0.75v-3.6893l-2.78033,-2.7804c-0.15085,-0.1508 -0.23032,-0.3588 -0.21852,-0.5718c0.0118,-0.213 0.11374,-0.4109 0.28033,-0.5442l5.00002,-3.99995c0.1641,-0.13132 0.3758,-0.18772 0.5836,-0.15547c0.2077,0.03225 0.3923,0.15019 0.5089,0.32509z" fill="#002B51"/>
</svg>
