<svg width="24" height="24" viewBox="0 0 24 24" fill="none" xmlns="http://www.w3.org/2000/svg">
<path fill-rule="evenodd" clip-rule="evenodd" d="M14.75,5.5c0,-0.9665 0.7835,-1.75 1.75,-1.75c0.9665,0 1.75,0.7835 1.75,1.75c0,0.9665 -0.7835,1.75 -1.75,1.75c-0.9665,0 -1.75,-0.7835 -1.75,-1.75zM2.75,18c0,1.2426 1.00736,2.25 2.25,2.25c1.24264,0 2.25,-1.0074 2.25,-2.25c0,-1.2426 -1.00736,-2.25 -2.25,-2.25c-1.24264,0 -2.25,1.0074 -2.25,2.25zM1.25,18c0,-2.0711 1.67893,-3.75 3.75,-3.75c2.07107,0 3.75,1.6789 3.75,3.75c0,2.0711 -1.67893,3.75 -3.75,3.75c-2.07107,0 -3.75,-1.6789 -3.75,-3.75zM16.75,18c0,1.2426 1.0074,2.25 2.25,2.25c1.2426,0 2.25,-1.0074 2.25,-2.25c0,-1.2426 -1.0074,-2.25 -2.25,-2.25c-1.2426,0 -2.25,1.0074 -2.25,2.25zM15.25,18c0,-2.0711 1.6789,-3.75 3.75,-3.75c2.0711,0 3.75,1.6789 3.75,3.75c0,2.0711 -1.6789,3.75 -3.75,3.75c-2.0711,0 -3.75,-1.6789 -3.75,-3.75zM8.46973,12.5303c-0.15074,-0.1508 -0.23041,-0.3585 -0.21875,-0.5713c0.01179,-0.213 0.11369,-0.4117 0.28027,-0.5449l4.99995,-4.00004l0.0635,-0.0459c0.1534,-0.09837 0.3387,-0.1376 0.5205,-0.10937c0.2077,0.03228 0.3922,0.15033 0.5088,0.32519l1.7774,2.66602h2.5986c0.4142,0 0.75,0.3358 0.75,0.75c0,0.4142 -0.3358,0.75 -0.75,0.75h-3c-0.2508,0 -0.4849,-0.1253 -0.624,-0.334l-1.5469,-2.31932l-3.7061,2.96582l2.4073,2.4072l0.0937,0.1143c0.0816,0.1223 0.126,0.2668 0.126,0.416v4c0,0.4142 -0.3358,0.75 -0.75,0.75c-0.4142,0 -0.75,-0.3358 -0.75,-0.75v-3.6895z" fill="#002B51"/>
</svg>
