<svg width="24" height="24" viewBox="0 0 24 24" fill="none" xmlns="http://www.w3.org/2000/svg">
<path fill-rule="evenodd" clip-rule="evenodd" d="M14.75 5.5C14.75 4.5335 15.5335 3.75 16.5 3.75C17.4665 3.75 18.25 4.5335 18.25 5.5C18.25 6.4665 17.4665 7.25 16.5 7.25C15.5335 7.25 14.75 6.4665 14.75 5.5ZM5 14.25C2.92893 14.25 1.25 15.9289 1.25 18C1.25 20.0711 2.92893 21.75 5 21.75C7.07107 21.75 8.75 20.0711 8.75 18C8.75 15.9289 7.07107 14.25 5 14.25ZM15.25 18C15.25 15.9289 16.9289 14.25 19 14.25C21.0711 14.25 22.75 15.9289 22.75 18C22.75 20.0711 21.0711 21.75 19 21.75C16.9289 21.75 15.25 20.0711 15.25 18ZM14.624 7.58397C14.5074 7.40907 14.3228 7.29113 14.1151 7.25888C13.9073 7.22663 13.6956 7.28303 13.5315 7.41435L8.53148 11.4143C8.36489 11.5476 8.26295 11.7455 8.25115 11.9585C8.23935 12.1715 8.31882 12.3795 8.46967 12.5303L11.25 15.3107V19C11.25 19.4142 11.5858 19.75 12 19.75C12.4142 19.75 12.75 19.4142 12.75 19V15C12.75 14.8011 12.671 14.6103 12.5303 14.4697L10.1228 12.0622L13.8297 9.09668L15.376 11.416C15.5151 11.6247 15.7492 11.75 16 11.75H19C19.4142 11.75 19.75 11.4142 19.75 11C19.75 10.5858 19.4142 10.25 19 10.25H16.4014L14.624 7.58397Z" fill="#002B51"/>
</svg>
