<svg width="24" height="24" viewBox="0 0 24 24" fill="none" xmlns="http://www.w3.org/2000/svg">
<g clip-path="url(#clip0_4144_22904)">
<path d="M0,2c0,-1.10457 0.89543,-2 2,-2h20c1.1046,0 2,0.89543 2,2v20c0,1.1046 -0.8954,2 -2,2h-20c-1.10457,0 -2,-0.8954 -2,-2z" fill="#FF4E4E"/>
<path d="M24,24h-24v-24h24z" fill="#D7141A"/>
<path d="M24,12h-24v-12h24z" fill="white"/>
<path d="M0,24v-24l12,12z" fill="#11457E"/>
</g>
<defs>
<clipPath id="clip0_4144_22904">
<path d="M0,2c0,-1.10457 0.89543,-2 2,-2h20c1.1046,0 2,0.89543 2,2v20c0,1.1046 -0.8954,2 -2,2h-20c-1.10457,0 -2,-0.8954 -2,-2z" fill="white"/>
</clipPath>
</defs>
</svg>
