<svg width="24" height="24" viewBox="0 0 24 24" fill="none" xmlns="http://www.w3.org/2000/svg">
<path fill-rule="evenodd" clip-rule="evenodd" d="M17.202,4.02593c0.6803,0.24295 1.2839,0.54973 1.7318,0.92792c0.4444,0.37524 0.8162,0.89459 0.8162,1.54615v5.5v5.5c0,0.6516 -0.3718,1.1709 -0.8162,1.5462c-0.4479,0.3781 -1.0515,0.6849 -1.7318,0.9279c-1.3671,0.4882 -3.2063,0.7759 -5.202,0.7759c-1.9957,0 -3.83495,-0.2877 -5.202,-0.7759c-0.68026,-0.243 -1.28389,-0.5498 -1.73177,-0.9279c-0.4444,-0.3753 -0.81623,-0.8946 -0.81623,-1.5462v-5.5v-5.5c0,-0.65156 0.37183,-1.17091 0.81623,-1.54615c0.44788,-0.37819 1.05151,-0.68497 1.73177,-0.92792c1.36705,-0.48824 3.2063,-0.77593 5.202,-0.77593c1.9957,0 3.8349,0.28769 5.202,0.77593zM18.25,12v-3.49056c-0.3167,0.17539 -0.6706,0.32984 -1.048,0.46463c-1.3671,0.48824 -3.2063,0.77593 -5.202,0.77593c-1.9957,0 -3.83495,-0.28769 -5.202,-0.77593c-0.37743,-0.13479 -0.73127,-0.28924 -1.048,-0.46463v3.49056c0,0.0388 0.01993,0.1771 0.28396,0.4001c0.26055,0.22 0.68206,0.4519 1.26854,0.6614c1.16645,0.4165 2.8272,0.6885 4.6975,0.6885c1.8703,0 3.531,-0.272 4.6975,-0.6885c0.5865,-0.2095 1.008,-0.4414 1.2685,-0.6614c0.2641,-0.223 0.284,-0.3613 0.284,-0.4001zM5.75,17.5c0,0.0388 0.01993,0.1771 0.28396,0.4001c0.26055,0.22 0.68206,0.4519 1.26854,0.6614c1.16645,0.4165 2.8272,0.6885 4.6975,0.6885c1.8703,0 3.531,-0.272 4.6975,-0.6885c0.5865,-0.2095 1.008,-0.4414 1.2685,-0.6614c0.2641,-0.223 0.284,-0.3613 0.284,-0.4001v-3.4906c-0.3167,0.1754 -0.6706,0.3299 -1.048,0.4647c-1.3671,0.4882 -3.2063,0.7759 -5.202,0.7759c-1.9957,0 -3.83495,-0.2877 -5.202,-0.7759c-0.37743,-0.1348 -0.73127,-0.2893 -1.048,-0.4647zM18.25,6.5c0,-0.0388 -0.0199,-0.17713 -0.284,-0.40007c-0.2605,-0.22001 -0.682,-0.45193 -1.2685,-0.66139c-1.1665,-0.41659 -2.8272,-0.68854 -4.6975,-0.68854c-1.8703,0 -3.53105,0.27195 -4.6975,0.68854c-0.58648,0.20946 -1.00799,0.44138 -1.26854,0.66139c-0.26403,0.22294 -0.28396,0.36127 -0.28396,0.40007c0,0.0388 0.01993,0.17713 0.28396,0.40007c0.26055,0.22001 0.68206,0.45193 1.26854,0.66139c1.16645,0.41659 2.8272,0.68854 4.6975,0.68854c1.8703,0 3.531,-0.27195 4.6975,-0.68854c0.5865,-0.20946 1.008,-0.44138 1.2685,-0.66139c0.2641,-0.22294 0.284,-0.36127 0.284,-0.40007z" fill="#002B51"/>
</svg>
