<svg width="24" height="24" viewBox="0 0 24 24" fill="none" xmlns="http://www.w3.org/2000/svg">
<path d="M12,3.25c1.9957,0 3.8351,0.28813 5.2021,0.77637c0.6802,0.24293 1.2837,0.5496 1.7315,0.92773c0.4444,0.37525 0.8164,0.89435 0.8164,1.5459v11c0,0.6515 -0.372,1.1707 -0.8164,1.5459c-0.4478,0.3781 -1.0513,0.6848 -1.7315,0.9277c-1.367,0.4883 -3.2064,0.7764 -5.2021,0.7764c-1.9957,0 -3.83509,-0.2881 -5.20215,-0.7764c-0.68015,-0.2429 -1.28362,-0.5496 -1.73144,-0.9277c-0.4444,-0.3752 -0.81641,-0.8944 -0.81641,-1.5459v-11c0,-0.65155 0.37201,-1.17065 0.81641,-1.5459c0.44782,-0.37813 1.05129,-0.6848 1.73144,-0.92773c1.36706,-0.48824 3.20645,-0.77637 5.20215,-0.77637zM18.25,14.0068c-0.3169,0.1756 -0.6701,0.3319 -1.0479,0.4668c-1.367,0.4883 -3.2064,0.7764 -5.2021,0.7764c-1.9957,0 -3.83509,-0.2881 -5.20215,-0.7764c-0.37776,-0.1349 -0.73093,-0.2912 -1.04785,-0.4668v3.4932c0,0.0388 0.02015,0.1774 0.28418,0.4004c0.26058,0.2199 0.68228,0.4517 1.26855,0.6611c1.16644,0.4166 2.82707,0.6885 4.69727,0.6885c1.8702,0 3.5308,-0.2719 4.6973,-0.6885c0.5862,-0.2094 1.0079,-0.4412 1.2685,-0.6611c0.2641,-0.223 0.2842,-0.3616 0.2842,-0.4004zM18.25,8.50684c-0.3169,0.17557 -0.6701,0.33186 -1.0479,0.46679c-1.367,0.48824 -3.2064,0.77637 -5.2021,0.77637c-1.9957,0 -3.83509,-0.28813 -5.20215,-0.77637c-0.37776,-0.13493 -0.73093,-0.29122 -1.04785,-0.46679v3.49316c0,0.0388 0.02015,0.1774 0.28418,0.4004c0.26058,0.2199 0.68228,0.4517 1.26855,0.6611c1.16644,0.4166 2.82707,0.6885 4.69727,0.6885c1.8702,0 3.5308,-0.2719 4.6973,-0.6885c0.5862,-0.2094 1.0079,-0.4412 1.2685,-0.6611c0.2641,-0.223 0.2842,-0.3616 0.2842,-0.4004zM12,4.75c-1.8702,0 -3.53083,0.27193 -4.69727,0.68848c-0.58627,0.20938 -1.00797,0.44119 -1.26855,0.66113c-0.26403,0.22294 -0.28418,0.36159 -0.28418,0.40039c0,0.0388 0.02015,0.17745 0.28418,0.40039c0.26058,0.21994 0.68228,0.45175 1.26855,0.66113c1.16644,0.41655 2.82707,0.68848 4.69727,0.68848c1.8702,0 3.5308,-0.27193 4.6973,-0.68848c0.5862,-0.20938 1.0079,-0.44119 1.2685,-0.66113c0.2641,-0.22294 0.2842,-0.36159 0.2842,-0.40039c0,-0.0388 -0.0201,-0.17745 -0.2842,-0.40039c-0.2606,-0.21994 -0.6823,-0.45175 -1.2685,-0.66113c-1.1665,-0.41655 -2.8271,-0.68848 -4.6973,-0.68848z" fill="#002B51"/>
</svg>
