<svg width="36" height="24" viewBox="0 0 36 24" fill="none" xmlns="http://www.w3.org/2000/svg">
<g clip-path="url(#clip0_4144_25042)">
<path d="M0,12c0,-6.62742 5.37258,-12 12,-12h12c6.6274,0 12,5.37258 12,12c0,6.6274 -5.3726,12 -12,12h-12c-6.62742,0 -12,-5.3726 -12,-12z" fill="#FF4E4E"/>
<path d="M0,-1.62161h36v27.24321h-36z" fill="#DA0025"/>
<path d="M15.5676,25.6216h-3.8919v-11.6756h-11.6757v-3.8919h11.6757v-11.67571h3.8919v11.67571h20.4324v3.8919h-20.4324z" fill="white"/>
</g>
<defs>
<clipPath id="clip0_4144_25042">
<path d="M0,12c0,-6.62742 5.37258,-12 12,-12h12c6.6274,0 12,5.37258 12,12c0,6.6274 -5.3726,12 -12,12h-12c-6.62742,0 -12,-5.3726 -12,-12z" fill="white"/>
</clipPath>
</defs>
</svg>
