<svg width="24" height="24" viewBox="0 0 24 24" fill="none" xmlns="http://www.w3.org/2000/svg">
<g clip-path="url(#clip0_4144_25046)">
<path d="M0,12c0,-6.62742 5.37258,-12 12,-12c6.6274,0 12,5.37258 12,12c0,6.6274 -5.3726,12 -12,12c-6.62742,0 -12,-5.3726 -12,-12z" fill="#FF4E4E"/>
<path d="M-6,-1.62158h36v27.24328h-36z" fill="#DA0025"/>
<path d="M9.56757,25.6217h-3.89189v-11.6757h-11.67568v-3.8919h11.67568v-11.67568h3.89189v11.67568h20.43243v3.8919h-20.43243z" fill="white"/>
</g>
<defs>
<clipPath id="clip0_4144_25046">
<path d="M0,12c0,-6.62742 5.37258,-12 12,-12c6.6274,0 12,5.37258 12,12c0,6.6274 -5.3726,12 -12,12c-6.62742,0 -12,-5.3726 -12,-12z" fill="white"/>
</clipPath>
</defs>
</svg>
