<svg width="36" height="24" viewBox="0 0 36 24" fill="none" xmlns="http://www.w3.org/2000/svg">
<g clip-path="url(#clip0_4144_25041)">
<path d="M0,4c0,-2.20914 1.79086,-4 4,-4h28c2.2091,0 4,1.79086 4,4v16c0,2.2091 -1.7909,4 -4,4h-28c-2.20914,0 -4,-1.7909 -4,-4z" fill="#FF4E4E"/>
<path d="M0,-1.62161h36v27.24321h-36z" fill="#DA0025"/>
<path d="M15.5676,25.6216h-3.8919v-11.6756h-11.6757v-3.8919h11.6757v-11.67571h3.8919v11.67571h20.4324v3.8919h-20.4324z" fill="white"/>
</g>
<defs>
<clipPath id="clip0_4144_25041">
<path d="M0,4c0,-2.20914 1.79086,-4 4,-4h28c2.2091,0 4,1.79086 4,4v16c0,2.2091 -1.7909,4 -4,4h-28c-2.20914,0 -4,-1.7909 -4,-4z" fill="white"/>
</clipPath>
</defs>
</svg>
