<svg width="24" height="24" viewBox="0 0 24 24" fill="none" xmlns="http://www.w3.org/2000/svg">
<g clip-path="url(#clip0_4144_25044)">
<path d="M0,2c0,-1.10457 0.89543,-2 2,-2h20c1.1046,0 2,0.89543 2,2v20c0,1.1046 -0.8954,2 -2,2h-20c-1.10457,0 -2,-0.8954 -2,-2z" fill="#FF4E4E"/>
<path d="M-6,-1.62158h36v27.24328h-36z" fill="#DA0025"/>
<path d="M9.56757,25.6217h-3.89189v-11.6757h-11.67568v-3.8919h11.67568v-11.67568h3.89189v11.67568h20.43243v3.8919h-20.43243z" fill="white"/>
</g>
<defs>
<clipPath id="clip0_4144_25044">
<path d="M0,2c0,-1.10457 0.89543,-2 2,-2h20c1.1046,0 2,0.89543 2,2v20c0,1.1046 -0.8954,2 -2,2h-20c-1.10457,0 -2,-0.8954 -2,-2z" fill="white"/>
</clipPath>
</defs>
</svg>
