<svg width="24" height="24" viewBox="0 0 24 24" fill="none" xmlns="http://www.w3.org/2000/svg">
<path d="M18.5,3.5c1.5188,0 2.75,1.23122 2.75,2.75v8c0,1.5188 -1.2312,2.75 -2.75,2.75h-3l0.9004,1.2002c0.8649,1.1536 0.0415,2.7998 -1.4004,2.7998h-6c-1.44195,0 -2.26526,-1.6462 -1.40039,-2.7998l0.90039,-1.2002h-3c-1.51878,0 -2.75,-1.2312 -2.75,-2.75v-8c0,-1.51878 1.23122,-2.75 2.75,-2.75zM10.375,17l-1.5752,2.0996c-0.1236,0.1648 -0.00581,0.4004 0.2002,0.4004h6c0.206,0 0.3238,-0.2356 0.2002,-0.4004l-1.5752,-2.0996zM5.5,5c-0.69036,0 -1.25,0.55964 -1.25,1.25v8c0,0.6904 0.55964,1.25 1.25,1.25h13c0.6904,0 1.25,-0.5596 1.25,-1.25v-8c0,-0.69036 -0.5596,-1.25 -1.25,-1.25z" fill="#002B51"/>
</svg>
