<svg width="24" height="24" viewBox="0 0 24 24" fill="none" xmlns="http://www.w3.org/2000/svg">
<path fill-rule="evenodd" clip-rule="evenodd" d="M5.5 3.5C3.98122 3.5 2.75 4.73122 2.75 6.25V14.25C2.75 15.7688 3.98122 17 5.5 17H8.5L7.6 18.2C6.73475 19.3537 7.55792 21 9 21H15C16.4421 21 17.2652 19.3537 16.4 18.2L15.5 17H18.5C20.0188 17 21.25 15.7688 21.25 14.25V6.25C21.25 4.73122 20.0188 3.5 18.5 3.5H5.5ZM13.625 17H10.375L8.8 19.1C8.67639 19.2648 8.79399 19.5 9 19.5H15C15.206 19.5 15.3236 19.2648 15.2 19.1L13.625 17ZM14.375 15.5H18.5C19.1904 15.5 19.75 14.9404 19.75 14.25V6.25C19.75 5.55964 19.1904 5 18.5 5H5.5C4.80964 5 4.25 5.55964 4.25 6.25V14.25C4.25 14.9404 4.80964 15.5 5.5 15.5H9.625H10H14H14.375Z" fill="#002B51"/>
</svg>
