<svg width="24" height="24" viewBox="0 0 24 24" fill="none" xmlns="http://www.w3.org/2000/svg">
<path fill-rule="evenodd" clip-rule="evenodd" d="M18.5,3.5c1.5188,0 2.75,1.23122 2.75,2.75v8c0,1.5188 -1.2312,2.75 -2.75,2.75h-3l0.9,1.2c0.8652,1.1537 0.0421,2.8 -1.4,2.8h-6c-1.44208,0 -2.26525,-1.6463 -1.4,-2.8l0.9,-1.2h-3c-1.51878,0 -2.75,-1.2312 -2.75,-2.75v-8c0,-1.51878 1.23122,-2.75 2.75,-2.75zM13.625,17h-3.25l-1.575,2.1c-0.12361,0.1648 -0.00601,0.4 0.2,0.4h6c0.206,0 0.3236,-0.2352 0.2,-0.4zM14.375,15.5h4.125c0.6904,0 1.25,-0.5596 1.25,-1.25v-8c0,-0.69036 -0.5596,-1.25 -1.25,-1.25h-13c-0.69036,0 -1.25,0.55964 -1.25,1.25v8c0,0.6904 0.55964,1.25 1.25,1.25h4.125h0.375h4z" fill="#002B51"/>
</svg>
