<svg width="24" height="24" viewBox="0 0 24 24" fill="none" xmlns="http://www.w3.org/2000/svg">
<path fill-rule="evenodd" clip-rule="evenodd" d="M22.1163,10.0559c1.0735,1.074 1.0737,2.8149 0,3.8887l-8.1718,8.1719c-1.0738,1.0736 -2.8148,1.0734 -3.8887,0l-8.17188,-8.1719c-1.07374,-1.0739 -1.07374,-2.8148 0,-3.8887l8.17188,-8.17183c1.0739,-1.07374 2.8148,-1.07374 3.8887,0zM12,13c0.4142,0 0.75,-0.3358 0.75,-0.75v-4.00002c0,-0.41421 -0.3358,-0.75 -0.75,-0.75c-0.4142,0 -0.75,0.33579 -0.75,0.75v4.00002c0,0.4142 0.3358,0.75 0.75,0.75zM12,14.25c-0.6213,0 -1.125,0.5037 -1.125,1.125c0,0.6213 0.5037,1.125 1.125,1.125c0.6213,0 1.125,-0.5037 1.125,-1.125c0,-0.6213 -0.5037,-1.125 -1.125,-1.125z" fill="#002B51"/>
</svg>
