<svg width="24" height="24" viewBox="0 0 24 24" fill="none" xmlns="http://www.w3.org/2000/svg">
<path d="M10.0562,1.8843c1.0739,-1.07371 2.8148,-1.07373 3.8887,0l8.1719,8.1719c1.0731,1.0739 1.0735,2.8149 0,3.8886l-8.1719,8.1719c-1.0737,1.0736 -2.8147,1.0732 -3.8887,0l-8.17186,-8.1719c-1.07374,-1.0739 -1.07374,-2.8147 0,-3.8886zM12.8843,2.94485c-0.4881,-0.48795 -1.2794,-0.48793 -1.7675,0l-8.17191,8.17185c-0.48796,0.4881 -0.48795,1.2795 0,1.7676l8.17191,8.1719c0.4881,0.4874 1.2796,0.4878 1.7675,0l8.1719,-8.1719c0.4878,-0.4879 0.4874,-1.2794 0,-1.7676zM11.9996,14.2495c0.6211,0 1.1247,0.5039 1.125,1.125c0,0.6214 -0.5037,1.125 -1.125,1.125c-0.6211,-0.0002 -1.125,-0.5038 -1.125,-1.125c0.0002,-0.6209 0.504,-1.1247 1.125,-1.125zM11.9996,7.49954c0.414,0 0.7497,0.33599 0.75,0.75v3.99996c0,0.4143 -0.3358,0.75 -0.75,0.75c-0.414,-0.0002 -0.75,-0.3359 -0.75,-0.75v-3.99996c0.0002,-0.41387 0.3361,-0.74977 0.75,-0.75z" fill="#002B51"/>
</svg>
