<svg width="24" height="24" viewBox="0 0 24 24" fill="none" xmlns="http://www.w3.org/2000/svg">
<path d="M10.0559,1.88406c1.0739,-1.07365 2.8148,-1.07355 3.8887,0l8.1719,8.17184c1.0732,1.074 1.0735,2.815 0,3.8887l-8.1719,8.1719c-1.0737,1.0735 -2.8147,1.0732 -3.8887,0l-8.17184,-8.1719c-1.07356,-1.0739 -1.07365,-2.8148 0,-3.8887zM12.0003,8.25027c-0.4142,0 -0.75,0.33579 -0.75,0.75v2.25003h-2.25003c-0.41419,0 -0.74996,0.3358 -0.75,0.75c0.00017,0.414 0.33589,0.75 0.75,0.75h2.25003v2.25c0.0001,0.414 0.3359,0.75 0.75,0.75c0.4139,-0.0002 0.7498,-0.3361 0.75,-0.75v-2.25h2.25l0.0771,-0.0039c0.3778,-0.0388 0.6727,-0.3582 0.6729,-0.7461c0,-0.3881 -0.2951,-0.7073 -0.6729,-0.7461l-0.0771,-0.0039h-2.25v-2.25003c0,-0.41411 -0.336,-0.74983 -0.75,-0.75z" fill="#002B51"/>
</svg>
