<svg width="24" height="24" viewBox="0 0 24 24" fill="none" xmlns="http://www.w3.org/2000/svg">
<path d="M10.0554,1.88348c1.0738,-1.07363 2.8147,-1.07342 3.8887,0l8.1718,8.17192c1.0738,1.0739 1.0738,2.8147 0,3.8886l-8.1718,8.1719c-1.0739,1.0738 -2.8148,1.0737 -3.8887,0l-8.17188,-8.1719c-1.07343,-1.0739 -1.07364,-2.8148 0,-3.8886zM12.8835,2.94403c-0.4881,-0.48763 -1.2796,-0.48785 -1.7676,0l-8.17184,8.17187c-0.48785,0.488 -0.48763,1.2794 0,1.7676l8.17184,8.1719c0.4882,0.4879 1.2795,0.4879 1.7676,0l8.1719,-8.1719c0.4879,-0.4881 0.4879,-1.2795 0,-1.7676z" fill="#002B51"/>
</svg>
