<svg width="24" height="24" viewBox="0 0 24 24" fill="none" xmlns="http://www.w3.org/2000/svg">
<path d="M10.056,1.88407c1.0739,-1.07374 2.8148,-1.07374 3.8887,0l8.1718,8.17183c1.0735,1.074 1.0737,2.8149 0,3.8887l-8.1718,8.1719c-1.0738,1.0736 -2.8148,1.0734 -3.8887,0l-8.17189,-8.1719c-1.07374,-1.0739 -1.07374,-2.8148 0,-3.8887zM12.8841,2.94462c-0.4881,-0.48796 -1.2795,-0.48796 -1.7676,0l-8.17184,8.17188c-0.48796,0.4881 -0.48796,1.2795 0,1.7676l8.17184,8.1718c0.4882,0.4877 1.2796,0.4879 1.7676,0l8.1719,-8.1718c0.4878,-0.488 0.4876,-1.2795 0,-1.7676zM12.0003,8.25028c0.4141,0.00017 0.75,0.33589 0.75,0.75v2.25002h2.25l0.0772,0.0039c0.3778,0.0388 0.6728,0.358 0.6728,0.7461c-0.0001,0.3879 -0.2951,0.7073 -0.6728,0.7461l-0.0772,0.0039h-2.25v2.25c-0.0001,0.414 -0.336,0.7498 -0.75,0.75c-0.4141,0 -0.7498,-0.3359 -0.75,-0.75v-2.25h-2.24998c-0.41412,0 -0.74985,-0.3359 -0.75,-0.75c0.00002,-0.4142 0.3358,-0.75 0.75,-0.75h2.24998v-2.25002c0,-0.41421 0.3358,-0.75 0.75,-0.75z" fill="#002B51"/>
</svg>
