<svg width="24" height="24" viewBox="0 0 24 24" fill="none" xmlns="http://www.w3.org/2000/svg">
<path d="M10.0565,1.88461c1.0739,-1.07372 2.8148,-1.07373 3.8887,0l8.1719,8.17189c1.0729,1.0739 1.0734,2.815 0,3.8887l-8.1719,8.1718c-1.0736,1.0735 -2.8147,1.0729 -3.8887,0l-8.17186,-8.1718c-1.07373,-1.0739 -1.07372,-2.8148 0,-3.8887zM11.9999,8.24984c-0.4139,0.00021 -0.7498,0.33612 -0.75,0.75v2.24996h-2.25003c-0.41386,0.0003 -0.74972,0.3362 -0.75,0.75c0.00017,0.414 0.33607,0.7498 0.75,0.75h2.25003v2.25c0.0001,0.414 0.336,0.7498 0.75,0.75c0.414,-0.0001 0.7498,-0.336 0.75,-0.75v-2.25h2.25l0.0771,-0.0039c0.3778,-0.0387 0.6727,-0.3581 0.6729,-0.7461c-0.0003,-0.3878 -0.2952,-0.7073 -0.6729,-0.7461l-0.0771,-0.0039h-2.25v-2.24996c-0.0003,-0.41392 -0.3361,-0.74986 -0.75,-0.75z" fill="#002B51"/>
</svg>
