<svg width="24" height="24" viewBox="0 0 24 24" fill="none" xmlns="http://www.w3.org/2000/svg">
<path d="M10.0559,1.88397c1.0739,-1.07373 2.8148,-1.07373 3.8887,0l8.1719,8.17193c1.0735,1.0739 1.0736,2.8148 0,3.8886l-8.1719,8.1719c-1.0738,1.0737 -2.8148,1.0735 -3.8887,0l-8.17186,-8.1719c-1.07374,-1.0739 -1.07374,-2.8147 0,-3.8886zM12.884,2.94452c-0.4881,-0.48795 -1.2794,-0.48794 -1.7675,0l-8.17191,8.17188c-0.48796,0.4881 -0.48796,1.2795 0,1.7676l8.17191,8.1718c0.4881,0.4878 1.2795,0.4879 1.7675,0l8.1719,-8.1718c0.4879,-0.4881 0.4877,-1.2795 0,-1.7676zM12.47,8.46894c0.2745,-0.27408 0.7095,-0.29175 1.0039,-0.05176l0.0566,0.05176l2,1.99996l0.0518,0.0567c0.2241,0.2748 0.2238,0.6723 0,0.9472l-0.0518,0.0567l-2,2c-0.2929,0.2929 -0.7676,0.2929 -1.0605,0c-0.2927,-0.2929 -0.2928,-0.7678 0,-1.0606l0.7197,-0.7197h-3.1894c-0.13788,0 -0.24966,0.1123 -0.25005,0.25v2c0,0.4141 -0.3359,0.7499 -0.75,0.75c-0.41421,0 -0.75,-0.3358 -0.75,-0.75v-2c0.00039,-0.9662 0.78374,-1.75 1.75005,-1.75h3.1894l-0.7197,-0.71972l-0.0518,-0.05664c-0.24,-0.29457 -0.2227,-0.7294 0.0518,-1.0039z" fill="#002B51"/>
</svg>
