<svg width="24" height="24" viewBox="0 0 24 24" fill="none" xmlns="http://www.w3.org/2000/svg">
<path d="M10.0548,1.88293c1.0736,-1.07344 2.8147,-1.0729 3.8887,0l8.1719,8.17187c1.0737,1.0739 1.0737,2.8148 0,3.8887l-8.1719,8.1719c-1.0739,1.0737 -2.8148,1.0737 -3.8887,0l-8.17187,-8.1719c-1.07291,-1.074 -1.07346,-2.8151 0,-3.8887zM12.8829,2.94348c-0.4881,-0.48712 -1.2797,-0.48766 -1.7675,0l-8.17192,8.17192c-0.48768,0.4878 -0.48713,1.2794 0,1.7675l8.17192,8.1719c0.4881,0.4879 1.2794,0.488 1.7675,0l8.1719,-8.1719c0.4879,-0.4881 0.488,-1.2794 0,-1.7675zM12.0001,14.2501c0.6213,0.0001 1.125,0.5037 1.125,1.125c-0.0001,0.6212 -0.5038,1.1249 -1.125,1.125c-0.6213,0 -1.1249,-0.5037 -1.125,-1.125c0,-0.6213 0.5037,-1.125 1.125,-1.125zM12.0001,7.50012c0.4142,0.00008 0.75,0.33584 0.75,0.75v3.99998c-0.0001,0.4141 -0.3359,0.7499 -0.75,0.75c-0.4141,0 -0.7499,-0.3358 -0.75,-0.75v-3.99998c0,-0.41421 0.3358,-0.75 0.75,-0.75z" fill="#002B51"/>
</svg>
