<svg width="24" height="24" viewBox="0 0 24 24" fill="none" xmlns="http://www.w3.org/2000/svg">
<path d="M10.056,1.8841c1.0739,-1.07374 2.8147,-1.07374 3.8886,0l8.1719,8.1719c1.0735,1.0739 1.0737,2.8148 0,3.8886l-8.1719,8.1719c-1.0737,1.0737 -2.8147,1.0734 -3.8886,0l-8.1719,-8.1719c-1.07374,-1.0739 -1.07374,-2.8147 0,-3.8886zM12.8841,2.94465c-0.4881,-0.48796 -1.2795,-0.48796 -1.7676,0l-8.17185,8.17185c-0.48796,0.4881 -0.48795,1.2795 0,1.7676l8.17185,8.1719c0.4882,0.4876 1.2796,0.4878 1.7676,0l8.1719,-8.1719c0.4878,-0.488 0.4876,-1.2794 0,-1.7676z" fill="#002B51"/>
</svg>
