<svg width="24" height="24" viewBox="0 0 24 24" fill="none" xmlns="http://www.w3.org/2000/svg">
<path d="M10.0551,1.88345c1.0738,-1.07363 2.8148,-1.07342 3.8887,0l8.1719,8.17185c1.0737,1.0739 1.0737,2.8148 0,3.8887l-8.1719,8.1719c-1.0739,1.0737 -2.8147,1.0737 -3.8887,0l-8.17183,-8.1719c-1.07342,-1.0739 -1.07363,-2.8149 0,-3.8887zM11.9995,14.2497c-0.621,0.0002 -1.1248,0.5039 -1.125,1.125c0,0.6211 0.5039,1.1247 1.125,1.125c0.6213,0 1.125,-0.5037 1.125,-1.125c-0.0002,-0.6212 -0.5038,-1.125 -1.125,-1.125zM11.9995,7.49967c-0.4139,0.00025 -0.7498,0.33608 -0.75,0.75v4.00003c0,0.414 0.336,0.7497 0.75,0.75c0.4142,0 0.75,-0.3358 0.75,-0.75v-4.00003c-0.0002,-0.41407 -0.3359,-0.75 -0.75,-0.75z" fill="#002B51"/>
</svg>
