<svg width="24" height="24" viewBox="0 0 24 24" fill="none" xmlns="http://www.w3.org/2000/svg">
<path fill-rule="evenodd" clip-rule="evenodd" d="M22.1165,10.0559c1.0734,1.074 1.0736,2.8149 0,3.8887l-8.1719,8.1719c-1.0738,1.0736 -2.8147,1.0734 -3.8887,0l-8.17186,-8.1719c-1.07374,-1.0739 -1.07374,-2.8148 0,-3.8887l8.17186,-8.17183c1.0739,-1.07374 2.8148,-1.07374 3.8887,0zM2.94459,11.1165c-0.48796,0.4881 -0.48796,1.2795 0,1.7676l8.17191,8.1718c0.4881,0.4877 1.2795,0.4879 1.7675,0l8.1719,-8.1718c0.4879,-0.488 0.4877,-1.2795 0,-1.7676l-8.1719,-8.17188c-0.4881,-0.48796 -1.2794,-0.48796 -1.7675,0zM11.25,12.25v-4.00002c0,-0.41421 0.3358,-0.75 0.75,-0.75c0.4142,0 0.75,0.33579 0.75,0.75v4.00002c0,0.4142 -0.3358,0.75 -0.75,0.75c-0.4142,0 -0.75,-0.3358 -0.75,-0.75zM13.125,15.375c0,0.6213 -0.5037,1.125 -1.125,1.125c-0.6213,0 -1.125,-0.5037 -1.125,-1.125c0,-0.6213 0.5037,-1.125 1.125,-1.125c0.6213,0 1.125,0.5037 1.125,1.125z" fill="#002B51"/>
</svg>
