<svg width="24" height="24" viewBox="0 0 24 24" fill="none" xmlns="http://www.w3.org/2000/svg">
<path d="M10.0549,1.88293c1.0736,-1.07344 2.8147,-1.0729 3.8886,0l8.1719,8.17187c1.0737,1.0739 1.0737,2.8148 0,3.8887l-8.1719,8.1719c-1.0739,1.0737 -2.8147,1.0737 -3.8886,0l-8.1719,-8.1719c-1.07292,-1.074 -1.07347,-2.8151 0,-3.8887zM12.883,2.94348c-0.4882,-0.48712 -1.2797,-0.48766 -1.7676,0l-8.17186,8.17192c-0.48768,0.4878 -0.48713,1.2794 0,1.7675l8.17186,8.1719c0.4881,0.4879 1.2795,0.488 1.7676,0l8.1719,-8.1719c0.4879,-0.4881 0.4879,-1.2794 0,-1.7675zM12.0002,8.25012c0.4141,0.0001 0.75,0.33585 0.75,0.75v2.24998h2.25l0.0771,0.0039c0.3779,0.0387 0.6729,0.358 0.6729,0.7461c-0.0001,0.3881 -0.295,0.7074 -0.6729,0.7461l-0.0771,0.0039h-2.25v2.25c-0.0001,0.4141 -0.3359,0.7499 -0.75,0.75c-0.4142,0 -0.7499,-0.3358 -0.75,-0.75v-2.25h-2.25002c-0.41416,0 -0.74992,-0.3358 -0.75,-0.75c0.00004,-0.4142 0.33581,-0.75 0.75,-0.75h2.25002v-2.24998c0,-0.41421 0.3358,-0.75 0.75,-0.75z" fill="#002B51"/>
</svg>
