<svg width="24" height="24" viewBox="0 0 24 24" fill="none" xmlns="http://www.w3.org/2000/svg">
<path d="M10.0549,1.883c1.0737,-1.07348 2.8147,-1.07298 3.8887,0l8.1719,8.1719c1.0737,1.0739 1.0737,2.8147 0,3.8886l-8.1719,8.1719c-1.0739,1.0738 -2.8148,1.0737 -3.8887,0l-8.17184,-8.1719c-1.07299,-1.0739 -1.07349,-2.815 0,-3.8886zM12.8831,2.94354c-0.4882,-0.48719 -1.2798,-0.48769 -1.7676,0l-8.1719,8.17186c-0.4877,0.4879 -0.48719,1.2794 0,1.7676l8.1719,8.1719c0.4881,0.4879 1.2794,0.4879 1.7676,0l8.1718,-8.1719c0.488,-0.4881 0.488,-1.2795 0,-1.7676zM12.47,8.46893c0.2745,-0.27408 0.7095,-0.29175 1.0039,-0.05175l0.0566,0.05175l2,1.99997l0.0518,0.0567c0.2241,0.2748 0.2238,0.6723 0,0.9472l-0.0518,0.0567l-2,2c-0.2929,0.2929 -0.7676,0.2929 -1.0605,0c-0.2927,-0.2929 -0.2928,-0.7678 0,-1.0606l0.7197,-0.7197h-3.1895c-0.13779,0 -0.24957,0.1123 -0.24996,0.25v2c0,0.4141 -0.33589,0.7499 -0.75,0.75c-0.41421,0 -0.75,-0.3358 -0.75,-0.75v-2c0.00039,-0.9662 0.78375,-1.75 1.74996,-1.75h3.1895l-0.7197,-0.71972l-0.0518,-0.05664c-0.24,-0.29458 -0.2227,-0.7294 0.0518,-1.00391z" fill="#002B51"/>
</svg>
