<svg width="24" height="24" viewBox="0 0 24 24" fill="none" xmlns="http://www.w3.org/2000/svg">
<path fill-rule="evenodd" clip-rule="evenodd" d="M2.94452,11.1161c-0.48815,0.4882 -0.48815,1.2796 0,1.7678l8.17148,8.1715c0.4882,0.4882 1.2797,0.4882 1.7678,0l8.1716,-8.1715c0.4882,-0.4882 0.4882,-1.2796 0,-1.7678l-8.1715,-8.17157c-0.4882,-0.48815 -1.2796,-0.48815 -1.7678,0zM22.1161,10.0554c1.0739,1.074 1.0739,2.8152 0,3.8891l-8.1716,8.1716c-1.074,1.0739 -2.8152,1.0739 -3.8891,0l-8.17154,-8.1716c-1.07394,-1.0739 -1.07394,-2.8151 0,-3.8891l8.17154,-8.17153c1.074,-1.07394 2.8152,-1.07394 3.8891,0zM12,7.49999c0.4142,0 0.75,0.33579 0.75,0.75v4.00001c0,0.4142 -0.3358,0.75 -0.75,0.75c-0.4142,0 -0.75,-0.3358 -0.75,-0.75v-4.00001c0,-0.41421 0.3358,-0.75 0.75,-0.75zM13.125,15.375c0,0.6213 -0.5037,1.125 -1.125,1.125c-0.6213,0 -1.125,-0.5037 -1.125,-1.125c0,-0.6213 0.5037,-1.125 1.125,-1.125c0.6213,0 1.125,0.5037 1.125,1.125z" fill="#002B51"/>
</svg>
