<svg width="24" height="24" viewBox="0 0 24 24" fill="none" xmlns="http://www.w3.org/2000/svg">
<path d="M10.0559,1.884c1.0739,-1.07374 2.8148,-1.07374 3.8887,0l8.1719,8.1719c1.0735,1.0739 1.0736,2.8148 0,3.8886l-8.1719,8.1719c-1.0738,1.0737 -2.8148,1.0735 -3.8887,0l-8.17187,-8.1719c-1.07374,-1.0739 -1.07374,-2.8147 0,-3.8886zM12.884,2.94455c-0.4881,-0.48795 -1.2794,-0.48795 -1.7675,0l-8.17192,8.17185c-0.48795,0.4881 -0.48795,1.2795 0,1.7676l8.17192,8.1719c0.4881,0.4877 1.2795,0.4879 1.7675,0l8.1719,-8.1719c0.4879,-0.488 0.4878,-1.2794 0,-1.7676z" fill="#002B51"/>
</svg>
