<svg width="24" height="24" viewBox="0 0 24 24" fill="none" xmlns="http://www.w3.org/2000/svg">
<path fill-rule="evenodd" clip-rule="evenodd" d="M12.8839,2.94455c-0.4881,-0.48816 -1.2796,-0.48816 -1.7677,0l-8.17162,8.17155c-0.48816,0.4882 -0.48816,1.2796 -0.00001,1.7678l8.17153,8.1716c0.4882,0.4881 1.2796,0.4881 1.7678,0l8.1716,-8.1716c0.4881,-0.4882 0.4881,-1.2796 0,-1.7678zM10.0555,1.88389c1.0739,-1.07395 2.8151,-1.07394 3.8891,0l8.1715,8.17161c1.074,1.0739 1.074,2.8151 0,3.889l-8.1716,8.1716c-1.0739,1.074 -2.8151,1.074 -3.8891,0l-8.17149,-8.1716c-1.07394,-1.0739 -1.07393,-2.8151 0.00001,-3.889z" fill="#002B51"/>
</svg>
