<svg width="24" height="24" viewBox="0 0 24 24" fill="none" xmlns="http://www.w3.org/2000/svg">
<path d="M10.0546,1.8826c1.0735,-1.07334 2.8146,-1.07257 3.8886,0l8.1719,8.1719c1.0737,1.0739 1.0737,2.8147 0,3.8886l-8.1719,8.1719c-1.0739,1.0738 -2.8147,1.0737 -3.8886,0l-8.17191,-8.1719c-1.07257,-1.0739 -1.07333,-2.8151 0,-3.8886zM11.9999,8.24979c-0.414,0.00019 -0.7498,0.33605 -0.75,0.75v2.25001h-2.25002c-0.41392,0.0002 -0.74979,0.3361 -0.75,0.75c0.00007,0.414 0.336,0.7498 0.75,0.75h2.25002v2.25c0.0001,0.414 0.336,0.7498 0.75,0.75c0.4141,-0.0001 0.7499,-0.3359 0.75,-0.75v-2.25h2.25l0.0771,-0.0039c0.3779,-0.0387 0.6728,-0.3581 0.6729,-0.7461c-0.0002,-0.388 -0.2951,-0.7074 -0.6729,-0.7461l-0.0771,-0.0039h-2.25v-2.25001c-0.0002,-0.41401 -0.336,-0.7499 -0.75,-0.75z" fill="#002B51"/>
</svg>
