<svg width="24" height="24" viewBox="0 0 24 24" fill="none" xmlns="http://www.w3.org/2000/svg">
<path fill-rule="evenodd" clip-rule="evenodd" d="M22.1166,10.0559c1.0734,1.074 1.0736,2.8149 0,3.8887l-8.1719,8.1719c-1.0738,1.0736 -2.8147,1.0734 -3.8887,0l-8.17184,-8.1719c-1.07374,-1.0739 -1.07374,-2.8148 0,-3.8887l8.17184,-8.17183c1.0739,-1.07374 2.8148,-1.07374 3.8887,0zM12.0001,15.75c0.4142,0 0.75,-0.3358 0.75,-0.75v-2.25h2.25l0.0771,-0.0039c0.378,-0.0386 0.6729,-0.3579 0.6729,-0.7461c0,-0.3882 -0.2949,-0.7075 -0.6729,-0.7461l-0.0771,-0.0039h-2.25v-2.25002c0,-0.41421 -0.3358,-0.75 -0.75,-0.75c-0.4143,0 -0.75,0.33579 -0.75,0.75v2.25002h-2.25004c-0.4142,0 -0.74998,0.3358 -0.75,0.75c0,0.4142 0.33579,0.75 0.75,0.75h2.25004v2.25c0,0.4142 0.3357,0.75 0.75,0.75z" fill="#002B51"/>
</svg>
