<svg width="24" height="24" viewBox="0 0 24 24" fill="none" xmlns="http://www.w3.org/2000/svg">
<path d="M10.0558,1.88409c1.0738,-1.07368 2.8147,-1.07358 3.8887,0l8.1718,8.17191c1.0733,1.0739 1.0736,2.8149 0,3.8886l-8.1718,8.1719c-1.0738,1.0736 -2.8148,1.0733 -3.8887,0l-8.17189,-8.1719c-1.07358,-1.0739 -1.07369,-2.8148 0,-3.8886zM12.0001,14.2503c-0.6213,0.0001 -1.125,0.5037 -1.125,1.125c0.0002,0.6212 0.5038,1.1249 1.125,1.125c0.6211,-0.0001 1.1249,-0.5039 1.125,-1.125c0,-0.6212 -0.5038,-1.1249 -1.125,-1.125zM12.0001,7.50031c-0.4141,0.00005 -0.75,0.33582 -0.75,0.75v3.99999c0.0002,0.414 0.336,0.7499 0.75,0.75c0.414,-0.0001 0.7499,-0.336 0.75,-0.75v-3.99999c0,-0.41413 -0.3359,-0.74987 -0.75,-0.75z" fill="#002B51"/>
</svg>
