<svg width="24" height="24" viewBox="0 0 24 24" fill="none" xmlns="http://www.w3.org/2000/svg">
<path fill-rule="evenodd" clip-rule="evenodd" d="M2.94458,11.1161c-0.48816,0.4881 -0.48816,1.2796 -0.00001,1.7678l8.17153,8.1715c0.4882,0.4882 1.2796,0.4882 1.7678,0l8.1716,-8.1715c0.4881,-0.4882 0.4881,-1.2797 0,-1.7678l-8.1716,-8.17158c-0.4881,-0.48816 -1.2796,-0.48816 -1.7677,0zM22.1161,10.0554c1.074,1.074 1.074,2.8152 0,3.8891l-8.1716,8.1716c-1.0739,1.0739 -2.8151,1.0739 -3.8891,0l-8.17149,-8.1716c-1.07394,-1.0739 -1.07393,-2.8151 0.00001,-3.8891l8.17158,-8.17154c1.0739,-1.07395 2.8151,-1.07395 3.8891,0zM12,8.24997c0.4142,0 0.75,0.33579 0.75,0.75v2.25003h2.25c0.4142,0 0.75,0.3358 0.75,0.75c0,0.4142 -0.3358,0.75 -0.75,0.75h-2.25v2.25c0,0.4142 -0.3358,0.75 -0.75,0.75c-0.4142,0 -0.75,-0.3358 -0.75,-0.75v-2.25h-2.24998c-0.41421,0 -0.75,-0.3357 -0.75,-0.75c0,-0.4142 0.33578,-0.75 0.75,-0.75h2.24998v-2.25003c0,-0.41421 0.3358,-0.75 0.75,-0.75z" fill="#002B51"/>
</svg>
