<svg width="24" height="24" viewBox="0 0 24 24" fill="none" xmlns="http://www.w3.org/2000/svg">
<path fill-rule="evenodd" clip-rule="evenodd" d="M10.0555,1.88386c1.074,-1.07395 2.8152,-1.07395 3.8891,0l8.1716,8.17154c1.0739,1.074 1.0739,2.8152 0,3.8891l-8.1716,8.1716c-1.074,1.0739 -2.8152,1.0739 -3.8891,0l-8.17156,-8.1716c-1.07394,-1.0739 -1.07393,-2.8151 0.00001,-3.8891zM11.2501,8.99997v2.25003h-2.25005c-0.41422,0 -0.75,0.3358 -0.75,0.75c0,0.4143 0.33579,0.75 0.75,0.75h2.25005v2.25c0,0.4142 0.3357,0.75 0.75,0.75c0.4142,0 0.75,-0.3358 0.75,-0.75v-2.25h2.25c0.4142,0 0.75,-0.3358 0.75,-0.75c-0.0001,-0.4142 -0.3358,-0.75 -0.7501,-0.75h-2.2499v-2.25003c0,-0.41421 -0.3358,-0.75 -0.75,-0.75c-0.4143,0 -0.75,0.33579 -0.75,0.75z" fill="#002B51"/>
</svg>
