<svg width="24" height="24" viewBox="0 0 24 24" fill="none" xmlns="http://www.w3.org/2000/svg">
<path d="M10.0562,1.88428c1.0739,-1.07373 2.8147,-1.07374 3.8886,0l8.1719,8.17192c1.0732,1.0739 1.0736,2.8149 0,3.8886l-8.1719,8.1719c-1.0737,1.0736 -2.8147,1.0732 -3.8886,0l-8.17192,-8.1719c-1.07374,-1.0739 -1.07373,-2.8147 0,-3.8886zM13.4741,8.41748c-0.2944,-0.23999 -0.7293,-0.22232 -1.0039,0.05176c-0.2745,0.27451 -0.2918,0.70933 -0.0517,1.00391l0.0517,0.05664l0.7197,0.71971h-3.1894c-0.96627,0 -1.74962,0.7838 -1.75001,1.75v2c0.00017,0.4141 0.33589,0.75 0.75,0.75c0.41387,-0.0003 0.74984,-0.3361 0.75,-0.75v-2c0.00039,-0.1377 0.11217,-0.25 0.25001,-0.25h3.1894l-0.7197,0.7197c-0.2928,0.2929 -0.2926,0.7677 0,1.0606c0.2929,0.2926 0.7678,0.2928 1.0606,0l2,-2l0.0517,-0.0567c0.2238,-0.2748 0.2239,-0.6725 0,-0.9472l-0.0517,-0.0567l-2,-1.99996z" fill="#002B51"/>
</svg>
