<svg width="24" height="24" viewBox="0 0 24 24" fill="none" xmlns="http://www.w3.org/2000/svg">
<path d="M10.0563,1.8843c1.0739,-1.07371 2.8147,-1.07373 3.8886,0l8.1719,8.1719c1.0732,1.0739 1.0735,2.8149 0,3.8886l-8.1719,8.1719c-1.0737,1.0736 -2.8147,1.0732 -3.8886,0l-8.17192,-8.1719c-1.07374,-1.0739 -1.07374,-2.8147 0,-3.8886zM12.8844,2.94485c-0.4881,-0.48795 -1.2795,-0.48793 -1.7676,0l-8.17187,8.17185c-0.48795,0.4881 -0.48795,1.2795 0,1.7676l8.17187,8.1719c0.4882,0.4874 1.2797,0.4878 1.7676,0l8.1719,-8.1719c0.4877,-0.4879 0.4874,-1.2794 0,-1.7676zM11.9996,8.24954c0.4141,0 0.7498,0.33599 0.75,0.75v2.24996h2.25l0.0772,0.0039c0.3778,0.0386 0.6726,0.3582 0.6728,0.7461c0,0.3882 -0.2949,0.7075 -0.6728,0.7461l-0.0772,0.0039h-2.25v2.25c0,0.4143 -0.3358,0.75 -0.75,0.75c-0.414,-0.0002 -0.75,-0.3359 -0.75,-0.75v-2.25h-2.24998c-0.41403,-0.0002 -0.75,-0.3359 -0.75,-0.75c0.00027,-0.4138 0.33613,-0.7498 0.75,-0.75h2.24998v-2.24996c0.0003,-0.41388 0.3361,-0.74979 0.75,-0.75z" fill="#002B51"/>
</svg>
