<svg width="24" height="24" viewBox="0 0 24 24" fill="none" xmlns="http://www.w3.org/2000/svg">
<path d="M5.00014,9.2501c0.19889,0.00002 0.38964,0.07909 0.53027,0.21973l2,1.99997l0.05176,0.0567c0.24031,0.2945 0.22284,0.7293 -0.05176,1.0039c-0.2746,0.2746 -0.70932,0.292 -1.0039,0.0517l-0.05664,-0.0517l-0.71973,-0.7198v7.379l0.71973,-0.7198c0.29289,-0.2929 0.76765,-0.2929 1.06054,0c0.29289,0.2929 0.29289,0.7677 0,1.0606l-2,2c-0.14063,0.1406 -0.33138,0.2197 -0.53027,0.2197c-0.19889,0 -0.38963,-0.0791 -0.53027,-0.2197l-2,-2l-0.05176,-0.0567c-0.24031,-0.2945 -0.22285,-0.7293 0.05176,-1.0039c0.2746,-0.2746 0.70933,-0.292 1.0039,-0.0517l0.05664,0.0517l0.71973,0.7198v-7.379l-0.71973,0.7198c-0.29289,0.2929 -0.76765,0.2929 -1.06054,0c-0.29289,-0.2929 -0.29289,-0.7677 0,-1.0606l2,-1.99997l0.11425,-0.09375c0.12229,-0.08151 0.26689,-0.12598 0.41602,-0.12598zM19.0001,9.2501c0.7294,0.00002 1.4287,0.28995 1.9444,0.8057c0.5157,0.5157 0.8056,1.215 0.8056,1.9443v7c0,0.7293 -0.2899,1.4286 -0.8056,1.9443c-0.5157,0.5157 -1.215,0.8057 -1.9444,0.8057h-7c-0.7293,0 -1.4286,-0.29 -1.9443,-0.8057c-0.51572,-0.5157 -0.80566,-1.215 -0.80566,-1.9443v-7c0,-0.7293 0.28994,-1.4286 0.80566,-1.9443c0.5157,-0.51574 1.215,-0.8057 1.9443,-0.8057zM12.0001,10.7501c-0.3315,0 -0.6493,0.1318 -0.8837,0.3662c-0.2345,0.2344 -0.3663,0.5523 -0.3663,0.8838v7c0,0.3315 0.1318,0.6494 0.3663,0.8838c0.2344,0.2344 0.5522,0.3662 0.8837,0.3662h7c0.3315,0 0.6494,-0.1318 0.8838,-0.3662c0.2344,-0.2344 0.3662,-0.5523 0.3662,-0.8838v-7c0,-0.3315 -0.1318,-0.6494 -0.3662,-0.8838c-0.2344,-0.2344 -0.5523,-0.3662 -0.8838,-0.3662zM18.4699,2.46983c0.2746,-0.27456 0.7093,-0.29203 1.0039,-0.05176l0.0566,0.05176l2,2c0.2746,0.27459 0.292,0.70934 0.0518,1.0039l-0.0518,0.05664l-2,2c-0.2929,0.29285 -0.7676,0.29285 -1.0605,0c-0.2929,-0.29288 -0.2929,-0.76766 0,-1.06054l0.7197,-0.71973h-7.3789l0.7197,0.71973l0.0518,0.05664c0.2402,0.29457 0.2228,0.72931 -0.0518,1.0039c-0.2746,0.2746 -0.7093,0.29204 -1.0039,0.05176l-0.0566,-0.05176l-2.00003,-2c-0.2929,-0.29289 -0.2929,-0.76765 0,-1.06054l2.00003,-2l0.0566,-0.05176c0.2946,-0.24028 0.7293,-0.22284 1.0039,0.05176c0.2746,0.27459 0.292,0.70933 0.0518,1.0039l-0.0518,0.05664l-0.7197,0.71973h7.3789l-0.7197,-0.71973l-0.0518,-0.05664c-0.2403,-0.29457 -0.2228,-0.72931 0.0518,-1.0039z" fill="#002B51"/>
</svg>
