<svg width="24" height="24" viewBox="0 0 24 24" fill="none" xmlns="http://www.w3.org/2000/svg">
<path fill-rule="evenodd" clip-rule="evenodd" d="M12.5303,2.46967c0.2929,0.29289 0.2929,0.76777 0,1.06066l-0.7197,0.71967h7.3787l-0.7196,-0.71968c-0.2929,-0.2929 -0.2929,-0.76777 0,-1.06066c0.2929,-0.29289 0.7678,-0.29288 1.0607,0.00002l1.9999,2c0.2929,0.29289 0.2929,0.76775 0,1.06064l-1.9999,2c-0.2929,0.2929 -0.7678,0.29291 -1.0607,0.00002c-0.2929,-0.29289 -0.2929,-0.76776 0,-1.06066l0.7196,-0.71968h-7.3787l0.7197,0.71967c0.2929,0.29289 0.2929,0.76777 0,1.06066c-0.2929,0.29289 -0.7678,0.29289 -1.0607,0l-1.99997,-2c-0.29289,-0.29289 -0.29289,-0.76777 0,-1.06066l1.99997,-2c0.2929,-0.29289 0.7678,-0.29289 1.0607,0zM4.99995,9.25c0.19891,0 0.38968,0.07901 0.53033,0.21966l2.00006,2.00004c0.2929,0.2929 0.29291,0.7677 0.00002,1.0606c-0.29289,0.2929 -0.76776,0.2929 -1.06066,0l-0.71974,-0.7197v7.3788l0.71974,-0.7197c0.2929,-0.2929 0.76777,-0.2929 1.06066,0c0.29289,0.2929 0.29288,0.7677 -0.00002,1.0606l-2.00006,2c-0.14065,0.1407 -0.33142,0.2197 -0.53033,0.2197c-0.19891,0 -0.38968,-0.079 -0.53033,-0.2197l-1.99994,-2c-0.29288,-0.2929 -0.29288,-0.7677 0.00002,-1.0606c0.2929,-0.2929 0.76777,-0.2929 1.06066,0l0.7196,0.7196v-7.3786l-0.7196,0.7196c-0.29289,0.2929 -0.76776,0.2929 -1.06066,0c-0.2929,-0.2929 -0.2929,-0.7677 -0.00002,-1.0606l1.99994,-2.00002c0.14065,-0.14066 0.33142,-0.21968 0.53033,-0.21968zM10.75,12v7c0,0.3315 0.1317,0.6495 0.3661,0.8839c0.2344,0.2344 0.5523,0.3661 0.8839,0.3661h7c0.3315,0 0.6494,-0.1317 0.8838,-0.3661c0.2345,-0.2344 0.3662,-0.5524 0.3662,-0.8839v-7c0,-0.3315 -0.1317,-0.6495 -0.3662,-0.8839c-0.2344,-0.2344 -0.5523,-0.3661 -0.8838,-0.3661h-7c-0.3316,0 -0.6495,0.1317 -0.8839,0.3661c-0.2344,0.2344 -0.3661,0.5524 -0.3661,0.8839zM19,9.25c0.7293,0 1.4288,0.28973 1.9445,0.8055c0.5157,0.5157 0.8055,1.2152 0.8055,1.9445v7c0,0.7293 -0.2898,1.4288 -0.8055,1.9445c-0.5157,0.5158 -1.2152,0.8055 -1.9445,0.8055h-7c-0.7294,0 -1.4289,-0.2897 -1.9446,-0.8055c-0.51571,-0.5157 -0.80544,-1.2152 -0.80544,-1.9445v-7c0,-0.7293 0.28973,-1.4288 0.80544,-1.9445c0.5157,-0.51577 1.2152,-0.8055 1.9446,-0.8055z" fill="#002B51"/>
</svg>
