<svg width="24" height="24" viewBox="0 0 24 24" fill="none" xmlns="http://www.w3.org/2000/svg">
<path fill-rule="evenodd" clip-rule="evenodd" d="M18.4698,2.46984c0.2746,-0.27458 0.7093,-0.29203 1.0039,-0.05175l0.0567,0.05175l2,2c0.2746,0.27461 0.292,0.70933 0.0517,1.00391l-0.0517,0.05664l-2,2c-0.2929,0.29286 -0.7677,0.29288 -1.0606,0c-0.2928,-0.29288 -0.2928,-0.76766 0,-1.06055l0.7197,-0.71972h-7.3789l0.7198,0.71972l0.0517,0.05664c0.2403,0.29459 0.2229,0.72931 -0.0517,1.00391c-0.2746,0.2746 -0.7094,0.29207 -1.0039,0.05176l-0.0567,-0.05176l-1.99999,-2c-0.29289,-0.29289 -0.29289,-0.76765 0,-1.06055l1.99999,-2l0.0567,-0.05175c0.2945,-0.24031 0.7293,-0.22285 1.0039,0.05175c0.2746,0.27461 0.292,0.70933 0.0517,1.00391l-0.0517,0.05664l-0.7198,0.71973h7.3789l-0.7197,-0.71973l-0.0517,-0.05664c-0.2403,-0.29457 -0.2229,-0.72931 0.0517,-1.00391zM5.00014,9.25012c0.19889,0.00001 0.38964,0.07909 0.53028,0.21972l2,1.99996l0.05175,0.0567c0.24031,0.2946 0.22284,0.7293 -0.05175,1.0039c-0.27461,0.2746 -0.70933,0.2921 -1.00391,0.0517l-0.05664,-0.0517l-0.71973,-0.7197v7.3789l0.71973,-0.7198c0.29289,-0.2928 0.76766,-0.2928 1.06055,0c0.29288,0.2929 0.29289,0.7677 0,1.0606l-2,2c-0.14064,0.1406 -0.33139,0.2197 -0.53028,0.2197c-0.19889,0 -0.38962,-0.0791 -0.53027,-0.2197l-2,-2l-0.05176,-0.0567c-0.24031,-0.2945 -0.22284,-0.7293 0.05176,-1.0039c0.27461,-0.2746 0.70933,-0.292 1.00391,-0.0517l0.05664,0.0517l0.71972,0.7198v-7.3789l-0.71972,0.7197c-0.29289,0.2929 -0.76765,0.2929 -1.06055,0c-0.29289,-0.2929 -0.29289,-0.7677 0,-1.0606l2,-1.99996l0.11426,-0.09375c0.12228,-0.08151 0.26688,-0.12597 0.41601,-0.12597zM19.0001,10.7501h-7c-0.3315,0 -0.6494,0.1318 -0.8838,0.3662c-0.2344,0.2344 -0.3662,0.5523 -0.3662,0.8838v7c0,0.3315 0.1318,0.6494 0.3662,0.8838c0.2344,0.2344 0.5523,0.3662 0.8838,0.3662h7c0.3315,0 0.6494,-0.1318 0.8838,-0.3662c0.2344,-0.2344 0.3662,-0.5523 0.3662,-0.8838v-7c0,-0.3315 -0.1318,-0.6494 -0.3662,-0.8838c-0.2344,-0.2344 -0.5523,-0.3662 -0.8838,-0.3662zM19.0001,21.7501h-7c-0.7294,0 -1.4286,-0.2899 -1.9444,-0.8056c-0.51568,-0.5158 -0.80562,-1.215 -0.80562,-1.9444v-7c0,-0.7293 0.28994,-1.4286 0.80562,-1.9443c0.5158,-0.51574 1.215,-0.80568 1.9444,-0.80568h7c0.7293,0 1.4286,0.28994 1.9443,0.80568c0.5157,0.5157 0.8057,1.215 0.8057,1.9443v7c0,0.7294 -0.29,1.4286 -0.8057,1.9444c-0.5157,0.5157 -1.215,0.8056 -1.9443,0.8056z" fill="#002B51"/>
</svg>
