<svg width="24" height="24" viewBox="0 0 24 24" fill="none" xmlns="http://www.w3.org/2000/svg">
<path d="M11.9998,1.75c0.6903,0 1.25,0.55964 1.25,1.25v0.84473c1.8645,0.28393 3.5297,1.19886 4.4013,2.60449c0.3636,0.5866 0.1831,1.35685 -0.4033,1.7207c-0.5867,0.36371 -1.3579,0.18337 -1.7217,-0.40332c-0.3541,-0.57113 -1.1592,-1.13345 -2.2763,-1.38281v4.44921c1.1631,0.1615 2.1699,0.5591 2.956,1.1953c1.0805,0.8745 1.6328,2.1143 1.6328,3.4717c0,2.5603 -2.0131,4.2406 -4.5888,4.6504v0.8496c0,0.6904 -0.5597,1.25 -1.25,1.25c-0.6903,-0.0002 -1.25,-0.5597 -1.25,-1.25v-0.8535c-1.86183,-0.3064 -3.48238,-1.2771 -4.34965,-2.5938c-0.37948,-0.5764 -0.21991,-1.3517 0.35644,-1.7314c0.57647,-0.3796 1.35171,-0.2199 1.73145,0.3564c0.37825,0.5743 1.18951,1.1523 2.26176,1.419v-4.4317c-1.16071,-0.1618 -2.16326,-0.5582 -2.94438,-1.1972c-1.07384,-0.8785 -1.61133,-2.1191 -1.61133,-3.4678c0,-2.55214 1.97977,-4.24127 4.55571,-4.65234v-0.84766c0,-0.69026 0.5597,-1.24984 1.25,-1.25zM13.2498,17.6152c1.4712,-0.3416 2.0888,-1.2833 2.0888,-2.1152c0,-0.6426 -0.2421,-1.1528 -0.706,-1.5283c-0.3099,-0.2507 -0.7615,-0.473 -1.3828,-0.6026zM10.7498,6.38477c-1.45323,0.341 -2.05571,1.27678 -2.05571,2.11523c0,0.65115 0.2404,1.16077 0.69434,1.5322c0.30268,0.2476 0.74627,0.4683 1.36137,0.5977z" fill="#002B51"/>
</svg>
