<svg width="24" height="24" viewBox="0 0 24 24" fill="none" xmlns="http://www.w3.org/2000/svg">
<path d="M11.9998,2.25c0.4142,0 0.75,0.33579 0.75,0.75v1.28613c1.9302,0.18462 3.6384,1.07504 4.4765,2.42676c0.218,0.35195 0.1096,0.81398 -0.2422,1.03223c-0.352,0.21822 -0.8149,0.10983 -1.0332,-0.24219c-0.5115,-0.82469 -1.6821,-1.53062 -3.2011,-1.70898v5.48725c1.2815,0.1072 2.3491,0.4944 3.1416,1.1358c0.9571,0.7747 1.4472,1.8686 1.4472,3.083c0,2.3577 -1.9647,3.9561 -4.5888,4.2119v1.2881c0,0.4142 -0.3358,0.75 -0.75,0.75c-0.4141,-0.0001 -0.75,-0.3359 -0.75,-0.75v-1.291c-1.92191,-0.2008 -3.59097,-1.1546 -4.43168,-2.4307c-0.22781,-0.3459 -0.13199,-0.8112 0.21386,-1.039c0.34588,-0.2277 0.81028,-0.132 1.03809,0.2138c0.53481,0.812 1.70664,1.5525 3.17973,1.7461v-5.4814c-1.27959,-0.1075 -2.3416,-0.4944 -3.12797,-1.1377c-0.94966,-0.7771 -1.42774,-1.87104 -1.42774,-3.0801c0,-2.35231 1.93102,-3.95644 4.55571,-4.21289v-1.28711c0,-0.41413 0.3359,-0.74987 0.75,-0.75zM12.7498,18.207c2.0396,-0.2354 3.0888,-1.4325 3.0888,-2.707c0,-0.7854 -0.3036,-1.4417 -0.8906,-1.917c-0.4865,-0.3937 -1.2093,-0.6957 -2.1982,-0.7969zM11.2498,5.79297c-2.02764,0.23539 -3.05571,1.42768 -3.05571,2.70703c0,0.79074 0.29991,1.44704 0.87793,1.9199c0.47863,0.3915 1.19268,0.6909 2.17778,0.792z" fill="#002B51"/>
</svg>
