<svg width="24" height="24" viewBox="0 0 24 24" fill="none" xmlns="http://www.w3.org/2000/svg">
<path fill-rule="evenodd" clip-rule="evenodd" d="M15.75,2.25h2.25c0.4142,0 0.75,0.33579 0.75,0.75v17.25h3c0.4142,0 0.75,0.3358 0.75,0.75c0,0.4142 -0.3358,0.75 -0.75,0.75h-3.75h-2.25v0.25c0,0.2133 -0.0908,0.4166 -0.2498,0.5588c-0.159,0.1423 -0.371,0.2102 -0.583,0.1866l-8.95874,-0.9954h-3.70846c-0.41421,0 -0.75,-0.3358 -0.75,-0.75c0,-0.4142 0.33579,-0.75 0.75,-0.75h3v-17.25c0,-0.38216 0.28735,-0.70321 0.66718,-0.74541l9.00002,-1c0.212,-0.02356 0.424,0.04429 0.583,0.18657c0.159,0.14227 0.2498,0.34551 0.2498,0.55884zM17.25,20.25v-16.5h-1.5v16.5zM12.25,11.5c-0.5523,0 -1,0.4477 -1,1c0,0.5523 0.4477,1 1,1c0.5523,0 1,-0.4477 1,-1c0,-0.5523 -0.4477,-1 -1,-1z" fill="#002B51"/>
</svg>
