<svg width="24" height="24" viewBox="0 0 24 24" fill="none" xmlns="http://www.w3.org/2000/svg">
<path d="M14.9971,1.25001c0.1846,-0.00073 0.3639,0.06702 0.5029,0.1914c0.1589,0.14228 0.25,0.34527 0.25,0.5586v0.25h2.25l0.0771,0.0039c0.378,0.03862 0.6729,0.35793 0.6729,0.7461v17.24999h3c0.4142,0 0.75,0.3358 0.75,0.75c0,0.4142 -0.3358,0.75 -0.75,0.75h-6v0.25c0,0.2133 -0.0911,0.4163 -0.25,0.5586c-0.159,0.1423 -0.371,0.2101 -0.583,0.1865l-8.95606,-0.9951h-3.71094c-0.41421,0 -0.75,-0.3358 -0.75,-0.75c0,-0.4142 0.33579,-0.75 0.75,-0.75h3v-17.24999c0,-0.38209 0.28728,-0.70282 0.66699,-0.74512l9.00001,-1zM6.75,3.6709v16.6572l7.5,0.834v-18.32518zM15.75,20.25h1.5v-16.49999h-1.5zM12.25,11.5c0.5523,0 1,0.4477 1,1c0,0.5523 -0.4477,1 -1,1c-0.5523,0 -1,-0.4477 -1,-1c0,-0.5523 0.4477,-1 1,-1z" fill="#002B51"/>
</svg>
