<svg width="24" height="24" viewBox="0 0 24 24" fill="none" xmlns="http://www.w3.org/2000/svg">
<path fill-rule="evenodd" clip-rule="evenodd" d="M15.75 2C15.75 1.78667 15.6592 1.58343 15.5002 1.44116C15.3412 1.29888 15.1292 1.23103 14.9172 1.25459L5.91718 2.25459C5.53735 2.29679 5.25 2.61784 5.25 3V20.25H2.25C1.83579 20.25 1.5 20.5858 1.5 21C1.5 21.4142 1.83579 21.75 2.25 21.75H5.95846L14.9172 22.7454C15.1292 22.769 15.3412 22.7011 15.5002 22.5588C15.6592 22.4166 15.75 22.2133 15.75 22V21.75H18H21.75C22.1642 21.75 22.5 21.4142 22.5 21C22.5 20.5858 22.1642 20.25 21.75 20.25H18.75V3C18.75 2.58579 18.4142 2.25 18 2.25H15.75V2ZM14.25 21.1621L6.75 20.3287V3.67129L14.25 2.83795V3V21V21.1621ZM15.75 20.25V3.75H17.25V20.25H15.75ZM12.25 13.5C12.8023 13.5 13.25 13.0523 13.25 12.5C13.25 11.9477 12.8023 11.5 12.25 11.5C11.6977 11.5 11.25 11.9477 11.25 12.5C11.25 13.0523 11.6977 13.5 12.25 13.5Z" fill="#002B51"/>
</svg>
