<svg width="24" height="24" viewBox="0 0 24 24" fill="none" xmlns="http://www.w3.org/2000/svg">
<path d="M18.0771,2.25391c0.378,0.03862 0.6729,0.35792 0.6729,0.74609v17.25h3c0.4142,0 0.75,0.3358 0.75,0.75c0,0.4142 -0.3358,0.75 -0.75,0.75h-19.5c-0.41421,0 -0.75,-0.3358 -0.75,-0.75c0,-0.4142 0.33579,-0.75 0.75,-0.75h3v-17.25l0.00391,-0.07715c0.03862,-0.37797 0.35792,-0.67285 0.74609,-0.67285h12zM6.75,20.25h10.5v-16.5h-10.5zM14.5,11.5c0.5523,0 1,0.4477 1,1c0,0.5523 -0.4477,1 -1,1c-0.5523,0 -1,-0.4477 -1,-1c0,-0.5523 0.4477,-1 1,-1z" fill="#002B51"/>
</svg>
