<svg width="24" height="24" viewBox="0 0 24 24" fill="none" xmlns="http://www.w3.org/2000/svg">
<path fill-rule="evenodd" clip-rule="evenodd" d="M6 2.25C5.58579 2.25 5.25 2.58579 5.25 3V20.25H2.25C1.83579 20.25 1.5 20.5858 1.5 21C1.5 21.4142 1.83579 21.75 2.25 21.75H6H18H21.75C22.1642 21.75 22.5 21.4142 22.5 21C22.5 20.5858 22.1642 20.25 21.75 20.25H18.75V3C18.75 2.58579 18.4142 2.25 18 2.25H6ZM17.25 20.25H6.75V3.75H17.25V20.25ZM14.5 13.5C15.0523 13.5 15.5 13.0523 15.5 12.5C15.5 11.9477 15.0523 11.5 14.5 11.5C13.9477 11.5 13.5 11.9477 13.5 12.5C13.5 13.0523 13.9477 13.5 14.5 13.5Z" fill="#002B51"/>
</svg>
