<svg width="24" height="24" viewBox="0 0 24 24" fill="none" xmlns="http://www.w3.org/2000/svg">
<path d="M5,9.75c0.59674,0 1.16886,0.23722 1.59082,0.6592c0.42196,0.4219 0.65918,0.9941 0.65918,1.5908c0,0.5967 -0.23722,1.1689 -0.65918,1.5908c-0.42196,0.422 -0.99408,0.6592 -1.59082,0.6592c-0.59674,0 -1.16886,-0.2372 -1.59082,-0.6592c-0.42196,-0.4219 -0.65918,-0.9941 -0.65918,-1.5908c0,-0.5967 0.23722,-1.1689 0.65918,-1.5908c0.42196,-0.42198 0.99408,-0.6592 1.59082,-0.6592zM12,9.75c0.5967,0 1.1689,0.23722 1.5908,0.6592c0.422,0.4219 0.6592,0.9941 0.6592,1.5908c0,0.5967 -0.2372,1.1689 -0.6592,1.5908c-0.4219,0.422 -0.9941,0.6592 -1.5908,0.6592c-0.5967,0 -1.1689,-0.2372 -1.5908,-0.6592c-0.42198,-0.4219 -0.6592,-0.9941 -0.6592,-1.5908c0,-0.5967 0.23722,-1.1689 0.6592,-1.5908c0.4219,-0.42198 0.9941,-0.6592 1.5908,-0.6592zM19,9.75c0.5967,0 1.1689,0.23722 1.5908,0.6592c0.422,0.4219 0.6592,0.9941 0.6592,1.5908c0,0.5967 -0.2372,1.1689 -0.6592,1.5908c-0.4219,0.422 -0.9941,0.6592 -1.5908,0.6592c-0.5967,0 -1.1689,-0.2372 -1.5908,-0.6592c-0.422,-0.4219 -0.6592,-0.9941 -0.6592,-1.5908c0,-0.5967 0.2372,-1.1689 0.6592,-1.5908c0.4219,-0.42198 0.9941,-0.6592 1.5908,-0.6592z" fill="#002B51"/>
</svg>
