<svg width="24" height="24" viewBox="0 0 24 24" fill="none" xmlns="http://www.w3.org/2000/svg">
<path fill-rule="evenodd" clip-rule="evenodd" d="M12 2.75C11.4033 2.75 10.831 2.98705 10.409 3.40901C9.98705 3.83097 9.75 4.40326 9.75 5C9.75 5.59674 9.98705 6.16903 10.409 6.59099C10.831 7.01295 11.4033 7.25 12 7.25C12.5967 7.25 13.169 7.01295 13.591 6.59099C14.0129 6.16903 14.25 5.59674 14.25 5C14.25 4.40326 14.0129 3.83097 13.591 3.40901C13.169 2.98705 12.5967 2.75 12 2.75ZM12 9.75C11.4033 9.75 10.831 9.98705 10.409 10.409C9.98705 10.831 9.75 11.4033 9.75 12C9.75 12.5967 9.98705 13.169 10.409 13.591C10.831 14.0129 11.4033 14.25 12 14.25C12.5967 14.25 13.169 14.0129 13.591 13.591C14.0129 13.169 14.25 12.5967 14.25 12C14.25 11.4033 14.0129 10.831 13.591 10.409C13.169 9.98705 12.5967 9.75 12 9.75ZM10.409 17.409C10.831 16.9871 11.4033 16.75 12 16.75C12.5967 16.75 13.169 16.9871 13.591 17.409C14.0129 17.831 14.25 18.4033 14.25 19C14.25 19.5967 14.0129 20.169 13.591 20.591C13.169 21.0129 12.5967 21.25 12 21.25C11.4033 21.25 10.831 21.0129 10.409 20.591C9.98705 20.169 9.75 19.5967 9.75 19C9.75 18.4033 9.98705 17.831 10.409 17.409Z" fill="#002B51"/>
</svg>
