<svg width="24" height="24" viewBox="0 0 24 24" fill="none" xmlns="http://www.w3.org/2000/svg">
<path fill-rule="evenodd" clip-rule="evenodd" d="M2.75 12C2.75 12.5967 2.98705 13.169 3.40901 13.591C3.83097 14.0129 4.40326 14.25 5 14.25C5.59674 14.25 6.16903 14.0129 6.59099 13.591C7.01295 13.169 7.25 12.5967 7.25 12C7.25 11.4032 7.01295 10.831 6.59099 10.409C6.16903 9.98704 5.59674 9.74998 5 9.74998C4.40326 9.74998 3.83097 9.98704 3.40901 10.409C2.98705 10.831 2.75 11.4032 2.75 12ZM9.75 12C9.75 12.5967 9.98705 13.169 10.409 13.591C10.831 14.0129 11.4033 14.25 12 14.25C12.5967 14.25 13.169 14.0129 13.591 13.591C14.0129 13.169 14.25 12.5967 14.25 12C14.25 11.4032 14.0129 10.831 13.591 10.409C13.169 9.98704 12.5967 9.74998 12 9.74998C11.4033 9.74998 10.831 9.98704 10.409 10.409C9.98705 10.831 9.75 11.4032 9.75 12ZM17.409 13.591C16.9871 13.169 16.75 12.5967 16.75 12C16.75 11.4032 16.9871 10.831 17.409 10.409C17.831 9.98704 18.4033 9.74998 19 9.74998C19.5967 9.74998 20.169 9.98704 20.591 10.409C21.0129 10.831 21.25 11.4032 21.25 12C21.25 12.5967 21.0129 13.169 20.591 13.591C20.169 14.0129 19.5967 14.25 19 14.25C18.4033 14.25 17.831 14.0129 17.409 13.591Z" fill="#002B51"/>
</svg>
