<svg width="24" height="24" viewBox="0 0 24 24" fill="none" xmlns="http://www.w3.org/2000/svg">
<path fill-rule="evenodd" clip-rule="evenodd" d="M13.2374,3.76256c0.3282,0.32819 0.5126,0.77331 0.5126,1.23744c0,0.46413 -0.1844,0.90925 -0.5126,1.23744c-0.3282,0.32818 -0.7733,0.51256 -1.2374,0.51256c-0.4641,0 -0.9092,-0.18438 -1.2374,-0.51256c-0.3282,-0.32819 -0.5126,-0.77331 -0.5126,-1.23744c0,-0.46413 0.1844,-0.90925 0.5126,-1.23744c0.3282,-0.32818 0.7733,-0.51256 1.2374,-0.51256c0.4641,0 0.9092,0.18438 1.2374,0.51256zM13.2374,10.7626c0.3282,0.3282 0.5126,0.7733 0.5126,1.2374c0,0.4641 -0.1844,0.9092 -0.5126,1.2374c-0.3282,0.3282 -0.7733,0.5126 -1.2374,0.5126c-0.4641,0 -0.9092,-0.1844 -1.2374,-0.5126c-0.3282,-0.3282 -0.5126,-0.7733 -0.5126,-1.2374c0,-0.4641 0.1844,-0.9092 0.5126,-1.2374c0.3282,-0.3282 0.7733,-0.5126 1.2374,-0.5126c0.4641,0 0.9092,0.1844 1.2374,0.5126zM10.7626,17.7626c0.3282,-0.3282 0.7733,-0.5126 1.2374,-0.5126c0.4641,0 0.9092,0.1844 1.2374,0.5126c0.3282,0.3282 0.5126,0.7733 0.5126,1.2374c0,0.4641 -0.1844,0.9092 -0.5126,1.2374c-0.3282,0.3282 -0.7733,0.5126 -1.2374,0.5126c-0.4641,0 -0.9092,-0.1844 -1.2374,-0.5126c-0.3282,-0.3282 -0.5126,-0.7733 -0.5126,-1.2374c0,-0.4641 0.1844,-0.9092 0.5126,-1.2374z" fill="#002B51"/>
</svg>
