<svg width="24" height="24" viewBox="0 0 24 24" fill="none" xmlns="http://www.w3.org/2000/svg">
<path fill-rule="evenodd" clip-rule="evenodd" d="M3.40901,10.409c0.42196,-0.42196 0.99425,-0.65902 1.59099,-0.65902c0.59674,0 1.16903,0.23706 1.59099,0.65902c0.42196,0.422 0.65901,0.9942 0.65901,1.591c0,0.5967 -0.23705,1.169 -0.65901,1.591c-0.42196,0.4219 -0.99425,0.659 -1.59099,0.659c-0.59674,0 -1.16903,-0.2371 -1.59099,-0.659c-0.42196,-0.422 -0.65901,-0.9943 -0.65901,-1.591c0,-0.5968 0.23705,-1.169 0.65901,-1.591zM10.409,10.409c0.422,-0.42196 0.9943,-0.65902 1.591,-0.65902c0.5967,0 1.169,0.23706 1.591,0.65902c0.4219,0.422 0.659,0.9942 0.659,1.591c0,0.5967 -0.2371,1.169 -0.659,1.591c-0.422,0.4219 -0.9943,0.659 -1.591,0.659c-0.5967,0 -1.169,-0.2371 -1.591,-0.659c-0.42195,-0.422 -0.659,-0.9943 -0.659,-1.591c0,-0.5968 0.23705,-1.169 0.659,-1.591zM17.409,13.591c-0.4219,-0.422 -0.659,-0.9943 -0.659,-1.591c0,-0.5968 0.2371,-1.169 0.659,-1.591c0.422,-0.42196 0.9943,-0.65902 1.591,-0.65902c0.5967,0 1.169,0.23706 1.591,0.65902c0.4219,0.422 0.659,0.9942 0.659,1.591c0,0.5967 -0.2371,1.169 -0.659,1.591c-0.422,0.4219 -0.9943,0.659 -1.591,0.659c-0.5967,0 -1.169,-0.2371 -1.591,-0.659z" fill="#002B51"/>
</svg>
