<svg width="24" height="24" viewBox="0 0 24 24" fill="none" xmlns="http://www.w3.org/2000/svg">
<path fill-rule="evenodd" clip-rule="evenodd" d="M3.76256,10.7626c0.32819,-0.3282 0.77331,-0.5126 1.23744,-0.5126c0.46413,0 0.90925,0.1844 1.23744,0.5126c0.32818,0.3282 0.51256,0.7733 0.51256,1.2374c0,0.4641 -0.18438,0.9092 -0.51256,1.2374c-0.32819,0.3282 -0.77331,0.5126 -1.23744,0.5126c-0.46413,0 -0.90925,-0.1844 -1.23744,-0.5126c-0.32818,-0.3282 -0.51256,-0.7733 -0.51256,-1.2374c0,-0.4641 0.18438,-0.9092 0.51256,-1.2374zM10.7626,10.7626c0.3282,-0.3282 0.7733,-0.5126 1.2374,-0.5126c0.4641,0 0.9092,0.1844 1.2374,0.5126c0.3282,0.3282 0.5126,0.7733 0.5126,1.2374c0,0.4641 -0.1844,0.9092 -0.5126,1.2374c-0.3282,0.3282 -0.7733,0.5126 -1.2374,0.5126c-0.4641,0 -0.9092,-0.1844 -1.2374,-0.5126c-0.3282,-0.3282 -0.5126,-0.7733 -0.5126,-1.2374c0,-0.4641 0.1844,-0.9092 0.5126,-1.2374zM17.7626,13.2374c-0.3282,-0.3282 -0.5126,-0.7733 -0.5126,-1.2374c0,-0.4641 0.1844,-0.9092 0.5126,-1.2374c0.3282,-0.3282 0.7733,-0.5126 1.2374,-0.5126c0.4641,0 0.9092,0.1844 1.2374,0.5126c0.3282,0.3282 0.5126,0.7733 0.5126,1.2374c0,0.4641 -0.1844,0.9092 -0.5126,1.2374c-0.3282,0.3282 -0.7733,0.5126 -1.2374,0.5126c-0.4641,0 -0.9092,-0.1844 -1.2374,-0.5126z" fill="#002B51"/>
</svg>
