<svg width="24" height="24" viewBox="0 0 24 24" fill="none" xmlns="http://www.w3.org/2000/svg">
<path d="M12,16.75c0.5221,0 1.0254,0.1817 1.4258,0.5098l0.165,0.1494l0.1494,0.165c0.3281,0.4004 0.5098,0.9037 0.5098,1.4258c0,0.5967 -0.2372,1.1689 -0.6592,1.5908c-0.4219,0.422 -0.9941,0.6592 -1.5908,0.6592c-0.5967,0 -1.1689,-0.2372 -1.5908,-0.6592c-0.42198,-0.4219 -0.6592,-0.9941 -0.6592,-1.5908c0,-0.5967 0.23722,-1.1689 0.6592,-1.5908l0.165,-0.1494c0.4004,-0.3281 0.9037,-0.5098 1.4258,-0.5098zM12,9.75c0.5221,0 1.0254,0.18171 1.4258,0.5098l0.165,0.1494l0.1494,0.165c0.3281,0.4004 0.5098,0.9037 0.5098,1.4258c0,0.5967 -0.2372,1.1689 -0.6592,1.5908c-0.4219,0.422 -0.9941,0.6592 -1.5908,0.6592c-0.5967,0 -1.1689,-0.2372 -1.5908,-0.6592c-0.42198,-0.4219 -0.6592,-0.9941 -0.6592,-1.5908c0,-0.5967 0.23722,-1.1689 0.6592,-1.5908l0.165,-0.1494c0.4004,-0.32809 0.9037,-0.5098 1.4258,-0.5098zM12.2227,2.76074c0.4414,0.04388 0.86,0.21789 1.2031,0.49903l0.165,0.14941l0.1494,0.16504c0.3281,0.40038 0.5098,0.90363 0.5098,1.42578c0,0.59674 -0.2372,1.16886 -0.6592,1.59082c-0.4219,0.42196 -0.9941,0.65918 -1.5908,0.65918c-0.5967,0 -1.1689,-0.23722 -1.5908,-0.65918c-0.42198,-0.42196 -0.6592,-0.99408 -0.6592,-1.59082c0,-0.59674 0.23722,-1.16886 0.6592,-1.59082l0.165,-0.14941c0.4004,-0.32806 0.9037,-0.50977 1.4258,-0.50977z" fill="#002B51"/>
</svg>
