<svg width="24" height="24" viewBox="0 0 24 24" fill="none" xmlns="http://www.w3.org/2000/svg">
<path d="M12,17.25c0.4641,0 0.9091,0.1845 1.2373,0.5127c0.3282,0.3282 0.5127,0.7732 0.5127,1.2373c0,0.4641 -0.1845,0.9091 -0.5127,1.2373c-0.3282,0.3282 -0.7732,0.5127 -1.2373,0.5127c-0.4641,0 -0.9091,-0.1845 -1.2373,-0.5127c-0.3282,-0.3282 -0.5127,-0.7732 -0.5127,-1.2373c0,-0.4641 0.1845,-0.9091 0.5127,-1.2373c0.3282,-0.3282 0.7732,-0.5127 1.2373,-0.5127zM12,10.25c0.4641,0 0.9091,0.1845 1.2373,0.5127c0.3282,0.3282 0.5127,0.7732 0.5127,1.2373c0,0.4641 -0.1845,0.9091 -0.5127,1.2373c-0.3282,0.3282 -0.7732,0.5127 -1.2373,0.5127c-0.4641,0 -0.9091,-0.1845 -1.2373,-0.5127c-0.3282,-0.3282 -0.5127,-0.7732 -0.5127,-1.2373c0,-0.4641 0.1845,-0.9091 0.5127,-1.2373c0.3282,-0.3282 0.7732,-0.5127 1.2373,-0.5127zM12.1729,3.25879c0.4006,0.03976 0.7772,0.21672 1.0644,0.50391c0.3282,0.32818 0.5127,0.77317 0.5127,1.2373c0,0.46413 -0.1845,0.90912 -0.5127,1.2373c-0.3282,0.32819 -0.7732,0.5127 -1.2373,0.5127c-0.4641,0 -0.9091,-0.18451 -1.2373,-0.5127c-0.3282,-0.32818 -0.5127,-0.77317 -0.5127,-1.2373c0,-0.46413 0.1845,-0.90912 0.5127,-1.2373c0.3282,-0.32819 0.7732,-0.5127 1.2373,-0.5127z" fill="#002B51"/>
</svg>
