<svg width="24" height="24" viewBox="0 0 24 24" fill="none" xmlns="http://www.w3.org/2000/svg">
<path d="M4.99999,10.25c0.46413,0 0.90912,0.1845 1.23731,0.5127c0.32819,0.3282 0.51269,0.7732 0.51269,1.2373c0,0.4641 -0.1845,0.9091 -0.51269,1.2373c-0.32819,0.3282 -0.77318,0.5127 -1.23731,0.5127c-0.46413,0 -0.90911,-0.1845 -1.2373,-0.5127c-0.32819,-0.3282 -0.5127,-0.7732 -0.5127,-1.2373l0.00879,-0.1729c0.03976,-0.4006 0.21672,-0.7772 0.50391,-1.0644c0.32819,-0.3282 0.77317,-0.5127 1.2373,-0.5127zM12,10.25c0.4641,0 0.9091,0.1845 1.2373,0.5127c0.3282,0.3282 0.5127,0.7732 0.5127,1.2373c0,0.4641 -0.1845,0.9091 -0.5127,1.2373c-0.3282,0.3282 -0.7732,0.5127 -1.2373,0.5127c-0.4641,0 -0.9091,-0.1845 -1.2373,-0.5127c-0.3282,-0.3282 -0.5127,-0.7732 -0.5127,-1.2373c0,-0.4641 0.1845,-0.9091 0.5127,-1.2373c0.3282,-0.3282 0.7732,-0.5127 1.2373,-0.5127zM19,10.25c0.4641,0 0.9091,0.1845 1.2373,0.5127c0.3282,0.3282 0.5127,0.7732 0.5127,1.2373c0,0.4641 -0.1845,0.9091 -0.5127,1.2373c-0.3282,0.3282 -0.7732,0.5127 -1.2373,0.5127c-0.4641,0 -0.9091,-0.1845 -1.2373,-0.5127c-0.3282,-0.3282 -0.5127,-0.7732 -0.5127,-1.2373c0,-0.4641 0.1845,-0.9091 0.5127,-1.2373c0.3282,-0.3282 0.7732,-0.5127 1.2373,-0.5127z" fill="#002B51"/>
</svg>
