<svg width="26" height="24" viewBox="0 0 26 24" fill="none" xmlns="http://www.w3.org/2000/svg">
<path fill-rule="evenodd" clip-rule="evenodd" d="M7.11612,11.1161c0.48815,-0.4881 1.27961,-0.4881 1.76776,0c0.48816,0.4882 0.48816,1.2796 0,1.7678l-3,3c-0.48815,0.4881 -1.27961,0.4881 -1.76776,0l-3,-3c-0.48816,-0.4882 -0.48816,-1.2796 0,-1.7678c0.48815,-0.4881 1.27961,-0.4881 1.76776,0l0.86614,0.8662c0.00349,-1.8233 0.54577,-3.60509 1.55889,-5.12132c1.0164,-1.52116 2.46105,-2.70675 4.15127,-3.40686c1.69022,-0.70011 3.55012,-0.88329 5.34442,-0.52638c1.7943,0.35691 3.4425,1.23789 4.7361,2.53153c0.4882,0.48815 0.4882,1.27961 0,1.76776c-0.4881,0.48816 -1.2796,0.48816 -1.7677,0c-0.944,-0.944 -2.1468,-1.58688 -3.4561,-1.84733c-1.3094,-0.26045 -2.6666,-0.12677 -3.9,0.38412c-1.23341,0.51089 -2.28762,1.37605 -3.02932,2.48608c-0.7384,1.1051 -1.13406,2.4035 -1.13756,3.7323zM22.25,12.0178c-0.0035,1.8232 -0.5458,3.605 -1.5589,5.1212c-1.0164,1.5212 -2.4611,2.7068 -4.1513,3.4069c-1.6902,0.7001 -3.5501,0.8833 -5.3444,0.5264c-1.79431,-0.3569 -3.4425,-1.2379 -4.73614,-2.5316c-0.48815,-0.4881 -0.48815,-1.2796 0,-1.7677c0.48816,-0.4882 1.27962,-0.4882 1.76777,0c0.94401,0.944 2.14677,1.5869 3.45607,1.8473c1.3094,0.2605 2.6666,0.1268 3.9,-0.3841c1.2334,-0.5109 2.2876,-1.3761 3.0293,-2.4861c0.7384,-1.1051 1.1341,-2.4035 1.1376,-3.7323l-0.8661,0.8661c-0.4882,0.4881 -1.2796,0.4881 -1.7678,0c-0.4881,-0.4882 -0.4881,-1.2796 0,-1.7678l3,-2.99998c0.4882,-0.48816 1.2796,-0.48816 1.7678,0l3,2.99998c0.4881,0.4882 0.4881,1.2796 0,1.7678c-0.4882,0.4881 -1.2796,0.4881 -1.7678,0z" fill="#002B51"/>
</svg>
