<svg width="24" height="24" viewBox="0 0 24 24" fill="none" xmlns="http://www.w3.org/2000/svg">
<path fill-rule="evenodd" clip-rule="evenodd" d="M5.97185,7.97212c-0.79664,1.19226 -1.22185,2.59398 -1.22185,4.02788v1.1893l1.71967,-1.7196c0.29289,-0.2929 0.76777,-0.2929 1.06066,0c0.29289,0.2929 0.29289,0.7677 0,1.0606l-3,3c-0.29289,0.2929 -0.76777,0.2929 -1.06066,0l-3,-3c-0.29289,-0.2929 -0.29289,-0.7677 0,-1.0606c0.29289,-0.2929 0.76777,-0.2929 1.06066,0l1.71967,1.7196v-1.1893c0,-1.7306 0.51318,-3.42231 1.47464,-4.86124c0.96146,-1.43893 2.32803,-2.56044 3.92688,-3.2227c1.59888,-0.66227 3.35818,-0.83555 5.05548,-0.49793c1.6974,0.33762 3.2565,1.17098 4.4802,2.39469c0.2929,0.29289 0.2929,0.76777 0,1.06066c-0.2929,0.29289 -0.7678,0.29289 -1.0607,0c-1.0139,-1.01393 -2.3057,-1.70443 -3.7121,-1.98417c-1.4064,-0.27974 -2.8641,-0.13617 -4.18886,0.41257c-1.32476,0.54873 -2.45705,1.47798 -3.25369,2.67024zM20.75,10.8107v1.1893c0,1.7306 -0.5132,3.4223 -1.4746,4.8612c-0.9615,1.439 -2.3281,2.5605 -3.9269,3.2227c-1.5989,0.6623 -3.3582,0.8356 -5.0555,0.498c-1.69737,-0.3376 -3.25647,-1.171 -4.48018,-2.3947c-0.2929,-0.2929 -0.29289,-0.7678 0,-1.0607c0.29289,-0.2929 0.76777,-0.2929 1.06066,0c1.01393,1.014 2.30576,1.7045 3.71212,1.9842c1.4064,0.2797 2.8641,0.1362 4.1889,-0.4126c1.3247,-0.5487 2.457,-1.478 3.2537,-2.6702c0.7966,-1.1923 1.2218,-2.594 1.2218,-4.0279v-1.1893l-1.7197,1.7196c-0.2929,0.2929 -0.7677,0.2929 -1.0606,0c-0.2929,-0.2929 -0.2929,-0.7677 0,-1.0606l3,-3.00003c0.2929,-0.29289 0.7677,-0.29289 1.0606,0l3,3.00003c0.2929,0.2929 0.2929,0.7677 0,1.0606c-0.2929,0.2929 -0.7677,0.2929 -1.0606,0z" fill="#002B51"/>
</svg>
