<svg width="24" height="24" viewBox="0 0 24 24" fill="none" xmlns="http://www.w3.org/2000/svg">
<path fill-rule="evenodd" clip-rule="evenodd" d="M3.2558,11.6759c0.05994,-1.617 0.56743,-3.18817 1.46875,-4.5371c0.96144,-1.43887 2.32797,-2.56039 3.92676,-3.22266c1.59889,-0.66226 3.35839,-0.83565 5.05569,-0.49804c1.6973,0.33762 3.2567,1.17082 4.4804,2.39453c0.2928,0.29277 0.2926,0.76762 0,1.06054c-0.2928,0.2929 -0.7676,0.2929 -1.0605,0c-1.0139,-1.01393 -2.3065,-1.70365 -3.7129,-1.98339c-1.4062,-0.27967 -2.8638,-0.13657 -4.18847,0.4121c-1.32468,0.54871 -2.45727,1.47778 -3.25391,2.66993c-0.74683,1.11771 -1.16714,2.41989 -1.21679,3.75979l-0.00489,0.2685v1.1895l1.71973,-1.7197l0.05664,-0.0518c0.29458,-0.2403 0.7293,-0.2229 1.00391,0.0518c0.2746,0.2746 0.29206,0.7093 0.05175,1.0039l-0.05175,0.0566l-3,3c-0.2929,0.2929 -0.76766,0.2929 -1.06055,0l-3,-3c-0.29289,-0.2929 -0.29289,-0.7677 0,-1.0605c0.29289,-0.2929 0.76765,-0.2929 1.06055,0l1.71972,1.7197v-1.1895c0,-0.0092 0.00017,-0.0184 0.0005,-0.0276zM20.7499,10.8107v1.1894c0,0.0093 -0.0001,0.0185 -0.0005,0.0276l-0.0053,0.2966c-0.06,1.617 -0.5674,3.1882 -1.4688,4.5372c-0.9614,1.4388 -2.3279,2.5603 -3.9267,3.2226c-1.5989,0.6623 -3.3584,0.8357 -5.0557,0.4981c-1.69732,-0.3377 -3.25675,-1.1709 -4.48046,-2.3946c-0.29276,-0.2927 -0.29252,-0.7676 0,-1.0605c0.2929,-0.2929 0.76766,-0.2929 1.06055,0c1.01393,1.0139 2.30653,1.7036 3.71291,1.9834c1.4062,0.2796 2.8638,0.1365 4.1885,-0.4121c1.3246,-0.5487 2.4572,-1.4778 3.2539,-2.67c0.7468,-1.1177 1.1671,-2.4199 1.2168,-3.7597l0.0048,-0.2686v-1.1894l-1.7197,1.7197l-0.0566,0.0518c-0.2946,0.2403 -0.7293,0.2228 -1.0039,-0.0518c-0.2746,-0.2746 -0.2921,-0.7093 -0.0518,-1.0039l0.0518,-0.0566l3,-3.00005c0.2929,-0.29289 0.7676,-0.29289 1.0605,0l3,3.00005c0.2929,0.2928 0.2929,0.7676 0,1.0605c-0.2929,0.2929 -0.7676,0.2929 -1.0605,0z" fill="#002B51"/>
</svg>
