<svg width="26" height="24" viewBox="0 0 26 24" fill="none" xmlns="http://www.w3.org/2000/svg">
<path fill-rule="evenodd" clip-rule="evenodd" d="M6.25002 11.9822C6.25352 10.6534 6.64918 9.355 7.38758 8.2499C8.12928 7.13987 9.18349 6.27471 10.4169 5.76382C11.6503 5.25293 13.0075 5.11925 14.3169 5.3797C15.6262 5.64015 16.829 6.28303 17.773 7.22703C18.2611 7.71519 19.0526 7.71519 19.5407 7.22703C20.0289 6.73888 20.0289 5.94742 19.5407 5.45927C18.2471 4.16563 16.5989 3.28465 14.8046 2.92774C13.0103 2.57083 11.1504 2.75401 9.46018 3.45412C7.76996 4.15423 6.32531 5.33982 5.30891 6.86098C4.29579 8.37721 3.75351 10.159 3.75002 11.9823L2.88388 11.1161C2.39573 10.628 1.60427 10.628 1.11612 11.1161C0.627961 11.6043 0.627961 12.3957 1.11612 12.8839L4.11612 15.8839C4.60427 16.372 5.39573 16.372 5.88388 15.8839L8.88388 12.8839C9.37204 12.3957 9.37204 11.6043 8.88388 11.1161C8.39573 10.628 7.60427 10.628 7.11612 11.1161L6.25002 11.9822ZM23.1161 12.8839C23.6043 13.372 24.3957 13.372 24.8839 12.8839C25.372 12.3957 25.372 11.6043 24.8839 11.1161L21.8839 8.11612C21.3957 7.62796 20.6043 7.62796 20.1161 8.11612L17.1161 11.1161C16.628 11.6043 16.628 12.3957 17.1161 12.8839C17.6043 13.372 18.3957 13.372 18.8839 12.8839L19.75 12.0178C19.7465 13.3466 19.3508 14.645 18.6124 15.7501C17.8707 16.8601 16.8165 17.7253 15.5831 18.2362C14.3497 18.7471 12.9925 18.8808 11.6831 18.6203C10.3738 18.3599 9.17104 17.717 8.22703 16.773C7.73888 16.2848 6.94742 16.2848 6.45926 16.773C5.97111 17.2611 5.97111 18.0526 6.45926 18.5407C7.7529 19.8344 9.40109 20.7154 11.1954 21.0723C12.9897 21.4292 14.8496 21.246 16.5398 20.5459C18.23 19.8458 19.6747 18.6602 20.6911 17.139C21.7042 15.6228 22.2465 13.841 22.25 12.0178L23.1161 12.8839Z" fill="#002B51"/>
</svg>
