<svg width="24" height="24" viewBox="0 0 24 24" fill="none" xmlns="http://www.w3.org/2000/svg">
<path d="M17,14.3869c0,-1.4656 -0.5837,-3.12 -1.6133,-5.002c-0.9377,-1.71411 -2.2088,-3.55003 -3.6367,-5.5293c-1.4279,1.97926 -2.69898,3.8152 -3.63672,5.5293c-1.02954,1.882 -1.61328,3.5364 -1.61328,5.002c0,2.9827 2.41308,5.4375 5.25,5.4375c2.8369,0 5.25,-2.4548 5.25,-5.4375zM18.5,14.3869c0,3.7672 -3.0415,6.9375 -6.75,6.9375c-3.70853,0 -6.75,-3.1703 -6.75,-6.9375c0,-1.8396 0.72424,-3.7602 1.79785,-5.7227c1.07753,-1.96956 2.55347,-4.06251 4.14255,-6.25196l0.0801,-0.09668c0.3924,-0.42083 1.0666,-0.42083 1.459,0l0.0801,0.09668l1.166,1.62403c1.136,1.6045 2.1684,3.15083 2.9765,4.62793c1.0737,1.9625 1.7979,3.8831 1.7979,5.7227z" fill="#002B51"/>
</svg>
