<svg width="24" height="24" viewBox="0 0 24 24" fill="none" xmlns="http://www.w3.org/2000/svg">
<path d="M11.0205,2.31541c0.3924,-0.42063 1.0666,-0.42063 1.459,0l0.0801,0.09668l1.166,1.62402c1.136,1.60443 2.1685,3.15091 2.9765,4.62793c1.0736,1.96236 1.7978,3.88316 1.7979,5.72266c0,3.7673 -3.0415,6.9375 -6.75,6.9375c-3.70853,0 -6.75,-3.1702 -6.75,-6.9375c0.00008,-1.8395 0.72429,-3.7603 1.79785,-5.72266c1.07752,-1.96949 2.55353,-4.06259 4.14255,-6.25195zM11.75,3.85545c-1.4278,1.97917 -2.69899,3.81525 -3.63672,5.52929c-1.02947,1.88186 -1.6132,3.53646 -1.61328,5.00196c0,2.9827 2.41308,5.4375 5.25,5.4375c2.8369,0 5.25,-2.4548 5.25,-5.4375c-0.0001,-1.4655 -0.5838,-3.1201 -1.6133,-5.00196c-0.9377,-1.71404 -2.2089,-3.55012 -3.6367,-5.52929z" fill="#002B51"/>
</svg>
