<svg width="24" height="24" viewBox="0 0 24 24" fill="none" xmlns="http://www.w3.org/2000/svg">
<path fill-rule="evenodd" clip-rule="evenodd" d="M11.75,3.85254c-1.4285,1.98006 -2.6984,3.81728 -3.63647,5.53198c-1.02969,1.88218 -1.61353,3.53678 -1.61353,5.00238c0,2.9828 2.41308,5.4375 5.25,5.4375c2.8369,0 5.25,-2.4547 5.25,-5.4375c0,-1.4656 -0.5838,-3.1202 -1.6135,-5.00238c-0.9381,-1.7147 -2.208,-3.55192 -3.6365,-5.53198zM10.9407,2.41242c0.3991,-0.54998 1.2195,-0.54998 1.6186,0c1.5893,2.1896 3.0656,4.28251 4.1431,6.25218c1.0736,1.9625 1.7976,3.8828 1.7976,5.7223c0,3.7673 -3.0415,6.9375 -6.75,6.9375c-3.70852,0 -6.75,-3.1702 -6.75,-6.9375c0,-1.8395 0.72397,-3.7598 1.79759,-5.7223c1.07755,-1.96967 2.55385,-4.06258 4.14311,-6.25218z" fill="#002B51"/>
</svg>
