<svg width="24" height="24" viewBox="0 0 24 24" fill="none" xmlns="http://www.w3.org/2000/svg">
<path d="M12,2.25c4.4519,0 7.25,3.37451 7.25,7.25c0,1.8662 -0.402,3.3739 -1.1631,4.6885c-0.754,1.3024 -1.8347,2.3707 -3.1181,3.3974c-1.1712,0.9369 -1.703,1.817 -2.3926,2.6446c-0.3349,0.4018 -0.7173,0.7954 -1.2256,1.08c-0.5197,0.291 -1.1185,0.4395 -1.8506,0.4395c-1.56009,0 -2.53646,-0.8069 -3.08496,-1.7471c-0.52319,-0.8969 -0.66504,-1.9131 -0.66504,-2.5029c0,-0.4142 0.33579,-0.75 0.75,-0.75c0.41421,0 0.75,0.3358 0.75,0.75c0,0.4102 0.10823,1.144 0.45996,1.7471c0.32652,0.5597 0.85023,1.0029 1.79004,1.0029c0.5178,0 0.8566,-0.1016 1.1182,-0.248c0.2727,-0.1528 0.5156,-0.3844 0.8056,-0.7325c0.5603,-0.6724 1.2787,-1.7924 2.6074,-2.8554c1.2166,-0.9733 2.1359,-1.905 2.7569,-2.9776c0.6139,-1.0604 0.9619,-2.3027 0.9619,-3.9365c0,-3.12451 -2.2019,-5.75 -5.75,-5.75c-3.54809,0 -5.75,2.62549 -5.75,5.75c0,0.41421 -0.33579,0.75 -0.75,0.75c-0.41421,0 -0.75,-0.33579 -0.75,-0.75c0,-3.87549 2.79809,-7.25 7.25,-7.25zM12,5.75c1.2035,0 2.1613,0.459 2.8105,1.18945c0.637,0.71664 0.9395,1.6508 0.9395,2.56055c0,0.41421 -0.3358,0.75 -0.75,0.75c-0.4142,0 -0.75,-0.33579 -0.75,-0.75c0,-0.5902 -0.1976,-1.1561 -0.5605,-1.56445c-0.3508,-0.39449 -0.8931,-0.68555 -1.6895,-0.68555c-0.6485,0 -1.2077,0.20196 -1.5957,0.55469c-0.3765,0.34229 -0.6543,0.88231 -0.6543,1.69531c0,0.2692 0.08163,0.36319 0.17969,0.43945c0.16041,0.12455 0.40161,0.21335 0.80761,0.34865c0.3437,0.1145 0.8528,0.2761 1.2549,0.5889c0.4642,0.3612 0.7578,0.8924 0.7578,1.623c0,1.2264 -0.476,2.0539 -1.1309,2.627c-0.5951,0.5207 -1.3612,0.8324 -1.78414,1.0439c-0.37041,0.1849 -0.82068,0.0344 -1.00586,-0.3359c-0.18494,-0.3704 -0.03441,-0.8207 0.33594,-1.0059l0.79785,-0.3906c0.24371,-0.1274 0.46561,-0.2634 0.66801,-0.4405c0.345,-0.3019 0.6191,-0.7245 0.6191,-1.498c0,-0.2692 -0.0816,-0.3632 -0.1797,-0.4395c-0.1604,-0.1245 -0.4016,-0.2133 -0.8076,-0.3486c-0.34366,-0.1145 -0.85276,-0.2761 -1.25489,-0.5889c-0.46421,-0.3612 -0.75781,-0.8924 -0.75781,-1.623c0,-1.18693 0.4221,-2.14698 1.14551,-2.80469c0.71199,-0.64726 1.65299,-0.94531 2.60449,-0.94531z" fill="#002B51"/>
</svg>
