<svg width="24" height="24" viewBox="0 0 24 24" fill="none" xmlns="http://www.w3.org/2000/svg">
<path fill-rule="evenodd" clip-rule="evenodd" d="M5.5,10.25c-0.41421,0 -0.75,-0.33579 -0.75,-0.75c0,-3.87549 2.79809,-7.25 7.25,-7.25c4.4519,0 7.25,3.37451 7.25,7.25c0,1.8662 -0.4023,3.3737 -1.1634,4.6883c-0.754,1.3024 -1.8346,2.3706 -3.1181,3.3974c-0.8782,0.7025 -1.3968,1.3731 -1.8921,2.0136c-0.1652,0.2136 -0.3278,0.4239 -0.5002,0.6308c-0.3349,0.4019 -0.717,0.7958 -1.2254,1.0805c-0.5196,0.291 -1.1186,0.4394 -1.8508,0.4394c-1.56019,0 -2.53685,-0.8068 -3.08533,-1.7471c-0.52319,-0.8969 -0.66467,-1.9131 -0.66467,-2.5029c0,-0.4142 0.33579,-0.75 0.75,-0.75c0.41421,0 0.75,0.3358 0.75,0.75c0,0.4102 0.10852,1.144 0.46033,1.7471c0.32652,0.5597 0.84986,1.0029 1.78967,1.0029c0.5178,0 0.8563,-0.1016 1.1179,-0.2481c0.2729,-0.1528 0.5158,-0.3839 0.8059,-0.732c0.1247,-0.1496 0.2571,-0.3213 0.4024,-0.5096c0.5078,-0.6583 1.172,-1.5193 2.2053,-2.346c1.2165,-0.9732 2.1359,-1.905 2.7569,-2.9776c0.6139,-1.0604 0.9616,-2.3029 0.9616,-3.9367c0,-3.12451 -2.2019,-5.75 -5.75,-5.75c-3.54809,0 -5.75,2.62549 -5.75,5.75c0,0.41421 -0.33579,0.75 -0.75,0.75zM14.8106,6.93923c0.637,0.71664 0.9394,1.65097 0.9394,2.56077c0,0.41421 -0.3358,0.75 -0.75,0.75c-0.4142,0 -0.75,-0.33579 -0.75,-0.75c0,-0.5902 -0.1976,-1.15587 -0.5606,-1.56423c-0.3507,-0.39455 -0.8929,-0.68577 -1.6894,-0.68577c-0.6485,0 -1.2075,0.20222 -1.5955,0.55496c-0.3765,0.34228 -0.6545,0.88204 -0.6545,1.69504c0,0.2692 0.08115,0.36297 0.17921,0.43924c0.16039,0.12476 0.40159,0.21376 0.80799,0.34926l0.0455,0.0151c0.342,0.1137 0.8243,0.2739 1.209,0.5731c0.4645,0.3613 0.7583,0.8925 0.7583,1.6233c0,1.2265 -0.4762,2.0539 -1.1311,2.6269c-0.4901,0.4288 -1.0956,0.7159 -1.5303,0.9219c-0.09318,0.0442 -0.17853,0.0847 -0.25319,0.122c-0.37048,0.1853 -0.82099,0.0351 -1.00623,-0.3354c-0.18524,-0.3705 -0.03507,-0.821 0.33541,-1.0062c0.12407,-0.0621 0.24387,-0.1195 0.35952,-0.1749c0.42225,-0.2023 0.78919,-0.3781 1.10699,-0.6562c0.3451,-0.302 0.6189,-0.7246 0.6189,-1.4981c0,-0.2692 -0.0812,-0.363 -0.1792,-0.4392c-0.1604,-0.1248 -0.4016,-0.2138 -0.808,-0.3493l-0.0455,-0.0151c-0.34198,-0.1137 -0.82429,-0.2739 -1.20901,-0.5731c-0.46444,-0.3613 -0.75829,-0.8925 -0.75829,-1.6233c0,-1.187 0.42201,-2.14724 1.1455,-2.80496c0.712,-0.64725 1.653,-0.94504 2.6045,-0.94504c1.2035,0 2.1613,0.45878 2.8106,1.18923z" fill="#002B51"/>
</svg>
