<svg width="24" height="24" viewBox="0 0 24 24" fill="none" xmlns="http://www.w3.org/2000/svg">
<path fill-rule="evenodd" clip-rule="evenodd" d="M6.25 9.5C6.25 6.37549 8.45191 3.75 12 3.75C15.5481 3.75 17.75 6.37549 17.75 9.5C17.75 11.1338 17.4023 12.3763 16.7884 13.4367C16.1674 14.5093 15.248 15.4411 14.0315 16.4143C12.9982 17.241 12.334 18.102 11.8262 18.7603C11.6809 18.9486 11.5485 19.1203 11.4238 19.2699C11.1337 19.618 10.8908 19.8491 10.6179 20.0019C10.3563 20.1484 10.0178 20.25 9.5 20.25C8.56019 20.25 8.03685 19.8068 7.71033 19.2471C7.35852 18.644 7.25 17.9102 7.25 17.5C7.25 17.0858 6.91421 16.75 6.5 16.75C6.08579 16.75 5.75 17.0858 5.75 17.5C5.75 18.0898 5.89148 19.106 6.41467 20.0029C6.96315 20.9432 7.93981 21.75 9.5 21.75C10.2322 21.75 10.8312 21.6016 11.3508 21.3106C11.8592 21.0259 12.2413 20.632 12.5762 20.2301C12.7486 20.0232 12.9112 19.8129 13.0764 19.5993C13.5717 18.9588 14.0903 18.2882 14.9685 17.5857C16.252 16.5589 17.3326 15.4907 18.0866 14.1883C18.8477 12.8737 19.25 11.3662 19.25 9.5C19.25 5.62451 16.4519 2.25 12 2.25C7.54809 2.25 4.75 5.62451 4.75 9.5C4.75 9.91421 5.08579 10.25 5.5 10.25C5.91421 10.25 6.25 9.91421 6.25 9.5ZM12 5.75C11.0485 5.75 10.1075 6.04779 9.3955 6.69504C8.67201 7.35276 8.25 8.313 8.25 9.5C8.25 10.2308 8.54385 10.762 9.00829 11.1233C9.39301 11.4225 9.87532 11.5827 10.2173 11.6964L10.2628 11.7115C10.6692 11.847 10.9104 11.936 11.0708 12.0608C11.1688 12.137 11.25 12.2308 11.25 12.5C11.25 13.2735 10.9762 13.6961 10.6311 13.9981C10.3133 14.2762 9.94636 14.452 9.52411 14.6543C9.40846 14.7097 9.28866 14.7671 9.16459 14.8292C8.79411 15.0144 8.64394 15.4649 8.82918 15.8354C9.01442 16.2059 9.46493 16.3561 9.83541 16.1708C9.91007 16.1335 9.99542 16.093 10.0886 16.0488C10.5233 15.8428 11.1288 15.5557 11.6189 15.1269C12.2738 14.5539 12.75 13.7265 12.75 12.5C12.75 11.7692 12.4562 11.238 11.9917 10.8767C11.607 10.5775 11.1247 10.4173 10.7827 10.3036L10.7372 10.2885C10.3308 10.153 10.0896 10.064 9.92921 9.93924C9.83115 9.86297 9.75 9.7692 9.75 9.5C9.75 8.687 10.028 8.14724 10.4045 7.80496C10.7925 7.45222 11.3515 7.25 12 7.25C12.7965 7.25 13.3387 7.54122 13.6894 7.93577C14.0524 8.34413 14.25 8.9098 14.25 9.5C14.25 9.91421 14.5858 10.25 15 10.25C15.4142 10.25 15.75 9.91421 15.75 9.5C15.75 8.5902 15.4476 7.65587 14.8106 6.93923C14.1613 6.20878 13.2035 5.75 12 5.75Z" fill="#002B51"/>
</svg>
