<svg width="24" height="24" viewBox="0 0 24 24" fill="none" xmlns="http://www.w3.org/2000/svg">
<path d="M12,2.25c5.3848,0 9.75,4.36523 9.75,9.75c0,5.3848 -4.3652,9.75 -9.75,9.75c-5.38477,0 -9.75,-4.3652 -9.75,-9.75c0,-5.38477 4.36523,-9.75 9.75,-9.75zM12,3.75c-4.55635,0 -8.25,3.69365 -8.25,8.25c0,4.5563 3.69365,8.25 8.25,8.25c4.5563,0 8.25,-3.6937 8.25,-8.25c0,-4.55635 -3.6937,-8.25 -8.25,-8.25zM12,14.25c1.5458,0 3.1448,0.4806 4.3047,1.5068l0.2256,0.2129l0.0517,0.0567c0.2403,0.2945 0.2229,0.7293 -0.0517,1.0039c-0.2746,0.2746 -0.7094,0.292 -1.0039,0.0517l-0.0567,-0.0517l-0.1601,-0.1504c-0.8287,-0.7318 -2.0427,-1.1299 -3.3096,-1.1299c-1.3511,0 -2.64221,0.4528 -3.46973,1.2803l-0.05664,0.0517c-0.29458,0.2403 -0.7293,0.2229 -1.0039,-0.0517c-0.27461,-0.2746 -0.29207,-0.7094 -0.05176,-1.0039l0.05176,-0.0567c1.17248,-1.1725 2.88137,-1.7197 4.53027,-1.7197zM8.25,9c0.69035,0 1.25,0.55965 1.25,1.25c0,0.6904 -0.55964,1.25 -1.25,1.25c-0.69035,0 -1.25,-0.5596 -1.25,-1.25c0,-0.69035 0.55965,-1.25 1.25,-1.25zM15.75,9c0.6904,0 1.25,0.55965 1.25,1.25c0,0.6904 -0.5596,1.25 -1.25,1.25c-0.6904,0 -1.25,-0.5596 -1.25,-1.25c0,-0.69035 0.5596,-1.25 1.25,-1.25z" fill="#002B51"/>
</svg>
