<svg width="24" height="24" viewBox="0 0 24 24" fill="none" xmlns="http://www.w3.org/2000/svg">
<path fill-rule="evenodd" clip-rule="evenodd" d="M21.75,12c0,5.3848 -4.3652,9.75 -9.75,9.75c-5.38478,0 -9.75,-4.3652 -9.75,-9.75c0,-5.38478 4.36522,-9.75 9.75,-9.75c5.3848,0 9.75,4.36522 9.75,9.75zM12,20.25c4.5563,0 8.25,-3.6937 8.25,-8.25c0,-4.55635 -3.6937,-8.25 -8.25,-8.25c-4.55635,0 -8.25,3.69365 -8.25,8.25c0,4.5563 3.69365,8.25 8.25,8.25zM7,10.25c0,-0.69036 0.55964,-1.25 1.25,-1.25c0.69036,0 1.25,0.55964 1.25,1.25c0,0.6904 -0.55964,1.25 -1.25,1.25c-0.69036,0 -1.25,-0.5596 -1.25,-1.25zM17,10.25c0,0.6904 -0.5596,1.25 -1.25,1.25c-0.6904,0 -1.25,-0.5596 -1.25,-1.25c0,-0.69036 0.5596,-1.25 1.25,-1.25c0.6904,0 1.25,0.55964 1.25,1.25zM16,13.75c0.2275,0 0.4427,0.1032 0.585,0.2807c0.1424,0.1775 0.1965,0.4099 0.1471,0.632c-1.174,5.2831 -8.29023,5.2831 -9.46424,0c-0.04935,-0.2221 0.00476,-0.4545 0.1471,-0.632c0.14235,-0.1775 0.35755,-0.2807 0.58504,-0.2807zM9.04757,15.25c1.22223,2.5 4.68263,2.5 5.90483,0z" fill="#002B51"/>
</svg>
