<svg width="24" height="24" viewBox="0 0 24 24" fill="none" xmlns="http://www.w3.org/2000/svg">
<path fill-rule="evenodd" clip-rule="evenodd" d="M21.75,12c0,0.7942 -0.095,1.5662 -0.2741,2.3053c-0.3247,-0.4733 -0.7815,-0.8488 -1.3173,-1.0734c0.0602,-0.4019 0.0914,-0.8132 0.0914,-1.2319c0,-4.55635 -3.6937,-8.25 -8.25,-8.25c-4.55635,0 -8.25,3.69365 -8.25,8.25c0,4.5563 3.69365,8.25 8.25,8.25c0.4187,0 0.83,-0.0312 1.2319,-0.0914c0.2245,0.5358 0.6001,0.9927 1.0734,1.3173c-0.7391,0.1791 -1.5111,0.2741 -2.3053,0.2741c-5.38478,0 -9.75,-4.3652 -9.75,-9.75c0,-5.38478 4.36522,-9.75 9.75,-9.75c5.3848,0 9.75,4.36522 9.75,9.75zM7,10.25c0,-0.69036 0.55964,-1.25 1.25,-1.25c0.69036,0 1.25,0.55964 1.25,1.25c0,0.6904 -0.55964,1.25 -1.25,1.25c-0.69036,0 -1.25,-0.5596 -1.25,-1.25zM17,10.25c0,0.6904 -0.5596,1.25 -1.25,1.25c-0.6904,0 -1.25,-0.5596 -1.25,-1.25c0,-0.69036 0.5596,-1.25 1.25,-1.25c0.6904,0 1.25,0.55964 1.25,1.25zM19.75,18.25h2.25c0.4142,0 0.75,0.3358 0.75,0.75c0,0.4142 -0.3358,0.75 -0.75,0.75h-2.25v2.25c0,0.4142 -0.3358,0.75 -0.75,0.75c-0.4142,0 -0.75,-0.3358 -0.75,-0.75v-2.25l-2.25,0.0001c-0.4142,0 -0.75,-0.3358 -0.75,-0.75c0,-0.4143 0.3358,-0.75 0.75,-0.75l2.25,-0.0001v-2.25c0,-0.4142 0.3358,-0.75 0.75,-0.75c0.4142,0 0.75,0.3358 0.75,0.75zM12,15.75c1.3511,0 2.6421,-0.4528 3.4697,-1.2803c0.2929,-0.2929 0.7677,-0.2929 1.0606,0c0.2929,0.2929 0.2929,0.7677 0,1.0606c-1.1724,1.1725 -2.8814,1.7197 -4.5303,1.7197c-1.6489,0 -3.35785,-0.5472 -4.53033,-1.7197c-0.29289,-0.2929 -0.29289,-0.7677 0,-1.0606c0.29289,-0.2929 0.76777,-0.2929 1.06066,0c0.82752,0.8275 2.11857,1.2803 3.46967,1.2803z" fill="#002B51"/>
</svg>
