<svg width="24" height="24" viewBox="0 0 24 24" fill="none" xmlns="http://www.w3.org/2000/svg">
<path fill-rule="evenodd" clip-rule="evenodd" d="M12 2.25C6.61522 2.25 2.25 6.61522 2.25 12C2.25 17.3848 6.61522 21.75 12 21.75C17.3848 21.75 21.75 17.3848 21.75 12C21.75 6.61522 17.3848 2.25 12 2.25ZM3.75 12C3.75 7.44365 7.44365 3.75 12 3.75C16.5563 3.75 20.25 7.44365 20.25 12C20.25 16.5563 16.5563 20.25 12 20.25C7.44365 20.25 3.75 16.5563 3.75 12ZM8.25 11.5C8.94036 11.5 9.5 10.9404 9.5 10.25C9.5 9.55964 8.94036 9 8.25 9C7.55964 9 7 9.55964 7 10.25C7 10.9404 7.55964 11.5 8.25 11.5ZM17 10.25C17 10.9404 16.4404 11.5 15.75 11.5C15.0596 11.5 14.5 10.9404 14.5 10.25C14.5 9.55964 15.0596 9 15.75 9C16.4404 9 17 9.55964 17 10.25ZM8.53033 14.4697C8.23743 14.1768 7.76256 14.1768 7.46967 14.4697C7.17677 14.7626 7.17677 15.2374 7.46967 15.5303C8.64215 16.7028 10.3511 17.25 12 17.25C13.6489 17.25 15.3578 16.7028 16.5303 15.5303C16.8232 15.2374 16.8232 14.7626 16.5303 14.4697C16.2374 14.1768 15.7626 14.1768 15.4697 14.4697C14.6421 15.2972 13.3511 15.75 12 15.75C10.6489 15.75 9.35785 15.2972 8.53033 14.4697Z" fill="#002B51"/>
</svg>
