<svg width="24" height="24" viewBox="0 0 24 24" fill="none" xmlns="http://www.w3.org/2000/svg">
<path fill-rule="evenodd" clip-rule="evenodd" d="M3.75,12c0,4.5563 3.69365,8.25 8.25,8.25c4.5563,0 8.25,-3.6937 8.25,-8.25c0,-4.55635 -3.6937,-8.25 -8.25,-8.25c-4.55635,0 -8.25,3.69365 -8.25,8.25zM2.25,12c0,-5.38478 4.36522,-9.75 9.75,-9.75c5.3848,0 9.75,4.36522 9.75,9.75c0,5.3848 -4.3652,9.75 -9.75,9.75c-5.38478,0 -9.75,-4.3652 -9.75,-9.75zM7,10.25c0,-0.69036 0.55964,-1.25 1.25,-1.25c0.69036,0 1.25,0.55964 1.25,1.25c0,0.6904 -0.55964,1.25 -1.25,1.25c-0.69036,0 -1.25,-0.5596 -1.25,-1.25zM17,10.25c0,0.6904 -0.5596,1.25 -1.25,1.25c-0.6904,0 -1.25,-0.5596 -1.25,-1.25c0,-0.69036 0.5596,-1.25 1.25,-1.25c0.6904,0 1.25,0.55964 1.25,1.25zM16.582,15.4736l-0.0517,0.0567c-1.1725,1.1725 -2.8814,1.7197 -4.5303,1.7197c-1.5458,0 -3.1448,-0.4806 -4.30469,-1.5068l-0.22559,-0.2129l-0.05176,-0.0567c-0.2403,-0.2946 -0.22284,-0.7293 0.05176,-1.0039c0.27461,-0.2746 0.70933,-0.292 1.00391,-0.0517l0.05664,0.0517l0.16016,0.1504c0.82864,0.7318 2.04267,1.1299 3.30957,1.1299c1.3511,0 2.6422,-0.4528 3.4697,-1.2803l0.0567,-0.0517c0.2945,-0.2403 0.7293,-0.2229 1.0039,0.0517c0.2746,0.2746 0.292,0.7093 0.0517,1.0039z" fill="#002B51"/>
</svg>
