<svg width="24" height="24" viewBox="0 0 24 24" fill="none" xmlns="http://www.w3.org/2000/svg">
<path fill-rule="evenodd" clip-rule="evenodd" d="M12 2.25C6.61522 2.25 2.25 6.61522 2.25 12C2.25 17.3848 6.61522 21.75 12 21.75C17.3848 21.75 21.75 17.3848 21.75 12C21.75 6.61522 17.3848 2.25 12 2.25ZM3.75 12C3.75 7.44365 7.44365 3.75 12 3.75C16.5563 3.75 20.25 7.44365 20.25 12C20.25 16.5563 16.5563 20.25 12 20.25C7.44365 20.25 3.75 16.5563 3.75 12ZM8.25 11.5C8.94036 11.5 9.5 10.9404 9.5 10.25C9.5 9.55964 8.94036 9 8.25 9C7.55964 9 7 9.55964 7 10.25C7 10.9404 7.55964 11.5 8.25 11.5ZM17 10.25C17 10.9404 16.4404 11.5 15.75 11.5C15.0596 11.5 14.5 10.9404 14.5 10.25C14.5 9.55964 15.0596 9 15.75 9C16.4404 9 17 9.55964 17 10.25ZM8 13.75C7.77251 13.75 7.55731 13.8532 7.41496 14.0307C7.27262 14.2082 7.21851 14.4406 7.26786 14.6627C8.44187 19.9458 15.5581 19.9458 16.7321 14.6627C16.7815 14.4406 16.7274 14.2082 16.585 14.0307C16.4427 13.8532 16.2275 13.75 16 13.75H8ZM14.9524 15.25C13.7302 17.75 10.2698 17.75 9.04757 15.25H14.9524Z" fill="#002B51"/>
</svg>
