<svg width="24" height="24" viewBox="0 0 24 24" fill="none" xmlns="http://www.w3.org/2000/svg">
<path fill-rule="evenodd" clip-rule="evenodd" d="M3.75,12c0,4.5563 3.69365,8.25 8.25,8.25c4.5563,0 8.25,-3.6937 8.25,-8.25c0,-4.55635 -3.6937,-8.25 -8.25,-8.25c-4.55635,0 -8.25,3.69365 -8.25,8.25zM2.25,12c0,-5.38478 4.36522,-9.75 9.75,-9.75c5.3848,0 9.75,4.36522 9.75,9.75c0,5.3848 -4.3652,9.75 -9.75,9.75c-5.38478,0 -9.75,-4.3652 -9.75,-9.75zM9.32596,10.8866c-0.21773,0.3672 -0.6181,0.6134 -1.07596,0.6134c-0.69036,0 -1.25,-0.5596 -1.25,-1.25c0,-0.45786 0.24617,-0.85823 0.61338,-1.07596l-0.97214,-0.97214c-0.29289,-0.29289 -0.29289,-0.76777 0,-1.06066c0.29289,-0.29289 0.76777,-0.29289 1.06066,0l2.8284,2.82843c0.2929,0.29293 0.2929,0.76773 0,1.06063c-0.2929,0.2929 -0.76774,0.2929 -1.06063,0zM17,10.25c0,0.6904 -0.5596,1.25 -1.25,1.25c-0.4579,0 -0.8582,-0.2462 -1.076,-0.6134l-0.1437,0.1437c-0.2929,0.2929 -0.7677,0.2929 -1.0606,0c-0.2929,-0.2929 -0.2929,-0.7677 0,-1.06063l2.8284,-2.82843l0.0573,-0.05179c0.2946,-0.23996 0.7289,-0.22268 1.0034,0.05179c0.2744,0.27448 0.2917,0.70877 0.0517,1.00335l-0.0517,0.05731l-0.9722,0.97213c0.3672,0.21774 0.6134,0.61811 0.6134,1.07597zM7.41796,16.0264l0.05176,-0.0567c1.17248,-1.1725 2.88138,-1.7197 4.53028,-1.7197c1.5458,0 3.1448,0.4806 4.3047,1.5068l0.2256,0.2129l0.0517,0.0567c0.2403,0.2945 0.2229,0.7293 -0.0517,1.0039c-0.2746,0.2746 -0.7094,0.292 -1.0039,0.0517l-0.0567,-0.0517l-0.1601,-0.1504c-0.8287,-0.7318 -2.0427,-1.1299 -3.3096,-1.1299c-1.3511,0 -2.64221,0.4528 -3.46973,1.2803l-0.05664,0.0517c-0.29458,0.2403 -0.7293,0.2229 -1.00391,-0.0517c-0.2746,-0.2746 -0.29206,-0.7094 -0.05176,-1.0039z" fill="#002B51"/>
</svg>
