<svg width="24" height="24" viewBox="0 0 24 24" fill="none" xmlns="http://www.w3.org/2000/svg">
<path fill-rule="evenodd" clip-rule="evenodd" d="M21.75,12c0,5.3848 -4.3652,9.75 -9.75,9.75c-5.38478,0 -9.75,-4.3652 -9.75,-9.75c0,-5.38478 4.36522,-9.75 9.75,-9.75c5.3848,0 9.75,4.36522 9.75,9.75zM9.46967,11.0303c0.29289,0.2929 0.76773,0.2929 1.06063,0c0.2929,-0.2929 0.2929,-0.7677 0,-1.06063l-2.8284,-2.82843l-0.05731,-0.05179c-0.29458,-0.23995 -0.72887,-0.22268 -1.00335,0.05179c-0.27447,0.27448 -0.29174,0.70877 -0.05179,1.00335l0.05179,0.05731l0.97214,0.97214c-0.36721,0.21773 -0.61338,0.6181 -0.61338,1.07596c0,0.6904 0.55964,1.25 1.25,1.25c0.45786,0 0.85823,-0.2462 1.07596,-0.6134zM15.75,11.5c0.6904,0 1.25,-0.5596 1.25,-1.25c0,-0.45786 -0.2462,-0.85823 -0.6134,-1.07596l0.9722,-0.97214l0.0517,-0.05731c0.24,-0.29458 0.2227,-0.72887 -0.0517,-1.00335c-0.2745,-0.27447 -0.7088,-0.29174 -1.0034,-0.05179l-0.0573,0.05179l-2.8284,2.82843c-0.2929,0.29293 -0.2929,0.76773 0,1.06063c0.2929,0.2929 0.7677,0.2929 1.0606,0l0.1437,-0.1437c0.2178,0.3672 0.6181,0.6134 1.076,0.6134zM7.46973,17.0303c0.2746,0.2746 0.70932,0.292 1.0039,0.0517l0.05664,-0.0517c0.82752,-0.8275 2.11863,-1.2803 3.46973,-1.2803c1.2669,0 2.4809,0.3981 3.3096,1.1299l0.1601,0.1504l0.0567,0.0517c0.2945,0.2403 0.7293,0.2229 1.0039,-0.0517c0.2746,-0.2746 0.292,-0.7094 0.0517,-1.0039l-0.0517,-0.0567l-0.2256,-0.2129c-1.1599,-1.0262 -2.7589,-1.5068 -4.3047,-1.5068c-1.6489,0 -3.35779,0.5472 -4.53027,1.7197l-0.05176,0.0567c-0.24031,0.2945 -0.22285,0.7293 0.05176,1.0039z" fill="#002B51"/>
</svg>
