<svg width="24" height="24" viewBox="0 0 24 24" fill="none" xmlns="http://www.w3.org/2000/svg">
<path fill-rule="evenodd" clip-rule="evenodd" d="M2.25,12c0,-5.38478 4.36522,-9.75 9.75,-9.75c5.3848,0 9.75,4.36522 9.75,9.75c0,5.3848 -4.3652,9.75 -9.75,9.75c-5.38478,0 -9.75,-4.3652 -9.75,-9.75zM9.46967,11.0303c0.29289,0.2929 0.76773,0.2929 1.06063,0c0.2929,-0.2929 0.2929,-0.7677 0,-1.06063l-2.8284,-2.82843c-0.29289,-0.29289 -0.76776,-0.29289 -1.06066,0c-0.29289,0.2929 -0.29289,0.76777 0,1.06066l0.97214,0.97214c-0.36721,0.21773 -0.61338,0.6181 -0.61338,1.07596c0,0.6904 0.55964,1.25 1.25,1.25c0.45786,0 0.85823,-0.2462 1.07596,-0.6134zM15.75,11.5c0.6904,0 1.25,-0.5596 1.25,-1.25c0,-0.45786 -0.2462,-0.85823 -0.6134,-1.07596l0.9722,-0.97214c0.2929,-0.29289 0.2929,-0.76776 0,-1.06066c-0.2929,-0.29289 -0.7678,-0.29289 -1.0607,0l-2.8284,2.82843c-0.2929,0.29293 -0.2929,0.76773 0,1.06063c0.2929,0.2929 0.7677,0.2929 1.0606,0l0.1437,-0.1437c0.2178,0.3672 0.6181,0.6134 1.076,0.6134zM15.4697,17.0303c0.2929,0.2929 0.7677,0.2929 1.0606,0c0.2929,-0.2929 0.2929,-0.7677 0,-1.0606c-1.1724,-1.1725 -2.8814,-1.7197 -4.5303,-1.7197c-1.6489,0 -3.35785,0.5472 -4.53033,1.7197c-0.29289,0.2929 -0.29289,0.7677 0,1.0606c0.29289,0.2929 0.76777,0.2929 1.06066,0c0.82752,-0.8275 2.11857,-1.2803 3.46967,-1.2803c1.3511,0 2.6421,0.4528 3.4697,1.2803z" fill="#002B51"/>
</svg>
