<svg width="24" height="24" viewBox="0 0 24 24" fill="none" xmlns="http://www.w3.org/2000/svg">
<path fill-rule="evenodd" clip-rule="evenodd" d="M21.75,12c0,5.3848 -4.3652,9.75 -9.75,9.75c-5.38478,0 -9.75,-4.3652 -9.75,-9.75c0,-5.38478 4.36522,-9.75 9.75,-9.75c5.3848,0 9.75,4.36522 9.75,9.75zM12,20.25c4.5563,0 8.25,-3.6937 8.25,-8.25c0,-4.55635 -3.6937,-8.25 -8.25,-8.25c-4.55635,0 -8.25,3.69365 -8.25,8.25c0,4.5563 3.69365,8.25 8.25,8.25zM9.32596,10.8866c-0.21773,0.3672 -0.6181,0.6134 -1.07596,0.6134c-0.69036,0 -1.25,-0.5596 -1.25,-1.25c0,-0.45786 0.24617,-0.85823 0.61338,-1.07596l-0.97214,-0.97214c-0.29289,-0.29289 -0.29289,-0.76777 0,-1.06066c0.29289,-0.29289 0.76777,-0.29289 1.06066,0l2.8284,2.82843c0.2929,0.29293 0.2929,0.76773 0,1.06063c-0.2929,0.2929 -0.76774,0.2929 -1.06063,0zM17,10.25c0,0.6904 -0.5596,1.25 -1.25,1.25c-0.4579,0 -0.8582,-0.2462 -1.076,-0.6134l-0.1437,0.1437c-0.2929,0.2929 -0.7677,0.2929 -1.0606,0c-0.2929,-0.2929 -0.2929,-0.7677 0,-1.06063l2.8284,-2.82843c0.2929,-0.29289 0.7678,-0.29289 1.0607,0c0.2928,0.29289 0.2928,0.76777 0,1.06066l-0.9722,0.97213c0.3672,0.21774 0.6134,0.61811 0.6134,1.07597zM12,15.75c-1.3511,0 -2.64215,0.4528 -3.46967,1.2803c-0.2929,0.2929 -0.76777,0.2929 -1.06066,0c-0.2929,-0.2929 -0.2929,-0.7677 0,-1.0606c1.17248,-1.1725 2.88143,-1.7197 4.53033,-1.7197c1.6489,0 3.3578,0.5472 4.5303,1.7197c0.2929,0.2929 0.2929,0.7677 0,1.0606c-0.2929,0.2929 -0.7677,0.2929 -1.0606,0c-0.8276,-0.8275 -2.1186,-1.2803 -3.4697,-1.2803z" fill="#002B51"/>
</svg>
