<svg width="24" height="24" viewBox="0 0 24 24" fill="none" xmlns="http://www.w3.org/2000/svg">
<path d="M12,2.25c5.3848,0 9.75,4.36522 9.75,9.75c0,5.3848 -4.3652,9.75 -9.75,9.75c-5.38478,0 -9.75,-4.3652 -9.75,-9.75c0,-5.38478 4.36522,-9.75 9.75,-9.75zM9,14.75c-0.41421,0 -0.75,0.3358 -0.75,0.75c0,0.4142 0.33579,0.75 0.75,0.75h6l0.0771,-0.0039c0.378,-0.0386 0.6729,-0.3579 0.6729,-0.7461c0,-0.3882 -0.2949,-0.7075 -0.6729,-0.7461l-0.0771,-0.0039zM8.25,9c-0.69036,0 -1.25,0.55964 -1.25,1.25c0,0.6904 0.55964,1.25 1.25,1.25c0.69036,0 1.25,-0.5596 1.25,-1.25c0,-0.69036 -0.55964,-1.25 -1.25,-1.25zM15.75,9c-0.6904,0 -1.25,0.55964 -1.25,1.25c0,0.6904 0.5596,1.25 1.25,1.25c0.6904,0 1.25,-0.5596 1.25,-1.25c0,-0.69036 -0.5596,-1.25 -1.25,-1.25z" fill="#002B51"/>
</svg>
