<svg width="24" height="24" viewBox="0 0 24 24" fill="none" xmlns="http://www.w3.org/2000/svg">
<path d="M12,2.25c5.3848,0 9.75,4.36522 9.75,9.75c0,5.3848 -4.3652,9.75 -9.75,9.75c-5.38478,0 -9.75,-4.3652 -9.75,-9.75c0,-5.38478 4.36522,-9.75 9.75,-9.75zM16.5303,14.4697c-0.2746,-0.2746 -0.7094,-0.292 -1.0039,-0.0517l-0.0567,0.0517c-0.8275,0.8275 -2.1186,1.2803 -3.4697,1.2803c-1.2669,0 -2.48092,-0.3981 -3.30957,-1.1299l-0.16016,-0.1504l-0.05664,-0.0517c-0.29458,-0.2403 -0.7293,-0.2229 -1.0039,0.0517c-0.27461,0.2746 -0.29207,0.7094 -0.05176,1.0039l0.05176,0.0567l0.22558,0.2129c1.15989,1.0262 2.75889,1.5068 4.30469,1.5068c1.6489,0 3.3578,-0.5472 4.5303,-1.7197l0.0517,-0.0567c0.2403,-0.2945 0.2229,-0.7293 -0.0517,-1.0039zM8.25,9c-0.69036,0 -1.25,0.55964 -1.25,1.25c0,0.6904 0.55964,1.25 1.25,1.25c0.69036,0 1.25,-0.5596 1.25,-1.25c0,-0.69036 -0.55964,-1.25 -1.25,-1.25zM15.75,9c-0.6904,0 -1.25,0.55964 -1.25,1.25c0,0.6904 0.5596,1.25 1.25,1.25c0.6904,0 1.25,-0.5596 1.25,-1.25c0,-0.69036 -0.5596,-1.25 -1.25,-1.25z" fill="#002B51"/>
</svg>
