<svg width="24" height="24" viewBox="0 0 24 24" fill="none" xmlns="http://www.w3.org/2000/svg">
<path d="M12,2.25c5.3848,0 9.75,4.36522 9.75,9.75c0,5.3848 -4.3652,9.75 -9.75,9.75c-5.38478,0 -9.75,-4.3652 -9.75,-9.75c0,-5.38478 4.36522,-9.75 9.75,-9.75zM12,14.25c-1.6489,0 -3.35779,0.5472 -4.53027,1.7197l-0.05176,0.0567c-0.24031,0.2945 -0.22285,0.7293 0.05176,1.0039c0.2746,0.2746 0.70932,0.292 1.0039,0.0517l0.05664,-0.0517c0.82752,-0.8275 2.11863,-1.2803 3.46973,-1.2803c1.2669,0 2.4809,0.3981 3.3096,1.1299l0.1601,0.1504l0.0567,0.0517c0.2945,0.2403 0.7293,0.2229 1.0039,-0.0517c0.2746,-0.2746 0.292,-0.7094 0.0517,-1.0039l-0.0517,-0.0567l-0.2256,-0.2129c-1.1599,-1.0262 -2.7589,-1.5068 -4.3047,-1.5068zM7.64453,7.08984c-0.29457,-0.23995 -0.72845,-0.22271 -1.00293,0.05176c-0.27447,0.27448 -0.29171,0.70836 -0.05176,1.00293l0.05176,0.05762l0.97266,0.97265c-0.36738,0.2177 -0.61426,0.61721 -0.61426,1.0752c0,0.6904 0.55964,1.25 1.25,1.25c0.45812,0 0.85656,-0.2477 1.07422,-0.6152l0.14551,0.1455c0.29289,0.2929 0.76767,0.2929 1.06057,0c0.2929,-0.2929 0.2929,-0.7677 0,-1.06057l-2.82815,-2.82813zM17.3584,7.1416c-0.2745,-0.27447 -0.7084,-0.29171 -1.0029,-0.05176l-0.0576,0.05176l-2.8282,2.82813c-0.2929,0.29287 -0.2929,0.76767 0,1.06057c0.2929,0.2929 0.7677,0.2929 1.0606,0l0.1445,-0.1455c0.2176,0.3677 0.6169,0.6152 1.0752,0.6152c0.6904,0 1.25,-0.5596 1.25,-1.25c0,-0.45829 -0.2475,-0.8576 -0.6152,-1.0752l0.9736,-0.97265l0.0518,-0.05762c0.2399,-0.29457 0.2227,-0.72845 -0.0518,-1.00293z" fill="#002B51"/>
</svg>
