<svg width="24" height="24" viewBox="0 0 24 24" fill="none" xmlns="http://www.w3.org/2000/svg">
<path d="M19,15.25c0.4142,0 0.75,0.3358 0.75,0.75v2.25h2.25l0.0771,0.0039c0.378,0.0386 0.6729,0.3579 0.6729,0.7461c0,0.3882 -0.2949,0.7075 -0.6729,0.7461l-0.0771,0.0039h-2.25v2.25c0,0.4142 -0.3358,0.75 -0.75,0.75c-0.4142,0 -0.75,-0.3358 -0.75,-0.75v-2.25h-2.25c-0.4142,0 -0.75,-0.3358 -0.75,-0.75c0,-0.4142 0.3358,-0.75 0.75,-0.75h2.25v-2.25c0,-0.4142 0.3358,-0.75 0.75,-0.75zM12,2.25c5.3848,0 9.75,4.36523 9.75,9.75c0,0.7938 -0.0973,1.5649 -0.2764,2.3037c-0.3246,-0.4725 -0.7802,-0.8481 -1.3154,-1.0723c0.0601,-0.4017 0.0918,-0.8129 0.0918,-1.2314c0,-4.55635 -3.6937,-8.25 -8.25,-8.25c-4.55635,0 -8.25,3.69365 -8.25,8.25c0,4.5563 3.69365,8.25 8.25,8.25c0.4185,0 0.8297,-0.0317 1.2314,-0.0918c0.2242,0.5352 0.5998,0.9908 1.0723,1.3154c-0.7388,0.1791 -1.5099,0.2764 -2.3037,0.2764c-5.38477,0 -9.75,-4.3652 -9.75,-9.75c0,-5.38477 4.36523,-9.75 9.75,-9.75zM15.5264,14.418c0.2945,-0.2403 0.7293,-0.2229 1.0039,0.0517c0.2746,0.2746 0.292,0.7094 0.0517,1.0039l-0.0517,0.0567c-1.1725,1.1725 -2.8814,1.7197 -4.5303,1.7197c-1.5458,0 -3.1448,-0.4806 -4.30469,-1.5068l-0.22558,-0.2129l-0.05176,-0.0567c-0.24031,-0.2945 -0.22285,-0.7293 0.05176,-1.0039c0.2746,-0.2746 0.70932,-0.292 1.0039,-0.0517l0.05664,0.0517l0.16016,0.1504c0.82865,0.7318 2.04267,1.1299 3.30957,1.1299c1.3511,0 2.6422,-0.4528 3.4697,-1.2803zM8.25,9c0.69035,0 1.25,0.55965 1.25,1.25c0,0.6904 -0.55964,1.25 -1.25,1.25c-0.69035,0 -1.25,-0.5596 -1.25,-1.25c0,-0.69035 0.55965,-1.25 1.25,-1.25zM15.75,9c0.6904,0 1.25,0.55965 1.25,1.25c0,0.6904 -0.5596,1.25 -1.25,1.25c-0.6904,0 -1.25,-0.5596 -1.25,-1.25c0,-0.69035 0.5596,-1.25 1.25,-1.25z" fill="#002B51"/>
</svg>
