<svg width="24" height="24" viewBox="0 0 24 24" fill="none" xmlns="http://www.w3.org/2000/svg">
<path fill-rule="evenodd" clip-rule="evenodd" d="M12 2.25C6.61522 2.25 2.25 6.61522 2.25 12C2.25 17.3848 6.61522 21.75 12 21.75C17.3848 21.75 21.75 17.3848 21.75 12C21.75 6.61522 17.3848 2.25 12 2.25ZM3.75 12C3.75 7.44365 7.44365 3.75 12 3.75C16.5563 3.75 20.25 7.44365 20.25 12C20.25 16.5563 16.5563 20.25 12 20.25C7.44365 20.25 3.75 16.5563 3.75 12ZM8.25 11.5C8.94036 11.5 9.5 10.9404 9.5 10.25C9.5 9.55964 8.94036 9 8.25 9C7.55964 9 7 9.55964 7 10.25C7 10.9404 7.55964 11.5 8.25 11.5ZM17 10.25C17 10.9404 16.4404 11.5 15.75 11.5C15.0596 11.5 14.5 10.9404 14.5 10.25C14.5 9.55964 15.0596 9 15.75 9C16.4404 9 17 9.55964 17 10.25ZM15.4697 17.0303C15.7626 17.3232 16.2374 17.3232 16.5303 17.0303C16.8232 16.7374 16.8232 16.2626 16.5303 15.9697C15.3578 14.7972 13.6489 14.25 12 14.25C10.3511 14.25 8.64215 14.7972 7.46967 15.9697C7.17677 16.2626 7.17677 16.7374 7.46967 17.0303C7.76256 17.3232 8.23743 17.3232 8.53033 17.0303C9.35785 16.2028 10.6489 15.75 12 15.75C13.3511 15.75 14.6421 16.2028 15.4697 17.0303Z" fill="#002B51"/>
</svg>
