<svg width="24" height="24" viewBox="0 0 24 24" fill="none" xmlns="http://www.w3.org/2000/svg">
<path d="M12,2.25c5.3848,0 9.75,4.36522 9.75,9.75c0,5.3848 -4.3652,9.75 -9.75,9.75c-5.38478,0 -9.75,-4.3652 -9.75,-9.75c0,-5.38478 4.36522,-9.75 9.75,-9.75zM8.62305,14.5c-0.31962,0.0002 -0.55764,0.2993 -0.45117,0.6006c1.31021,3.6986 6.34602,3.6986 7.65622,0c0.1065,-0.3013 -0.1315,-0.6004 -0.4511,-0.6006zM8.25,9c-0.69036,0 -1.25,0.55964 -1.25,1.25c0,0.6904 0.55964,1.25 1.25,1.25c0.69036,0 1.25,-0.5596 1.25,-1.25c0,-0.69036 -0.55964,-1.25 -1.25,-1.25zM15.75,9c-0.6904,0 -1.25,0.55964 -1.25,1.25c0,0.6904 0.5596,1.25 1.25,1.25c0.6904,0 1.25,-0.5596 1.25,-1.25c0,-0.69036 -0.5596,-1.25 -1.25,-1.25z" fill="#002B51"/>
</svg>
