<svg width="24" height="24" viewBox="0 0 24 24" fill="none" xmlns="http://www.w3.org/2000/svg">
<path d="M20.25,10.4012l-7.834,5.2226c-0.2205,0.147 -0.4993,0.165 -0.7344,0.0547l-0.0976,-0.0547l-7.834,-5.2226v8.5986c0,0.6904 0.55964,1.25 1.25,1.25h14c0.6904,0 1.25,-0.5596 1.25,-1.25zM4.35156,8.9998l7.64844,5.0986l7.6475,-5.0986l-7.6475,-5.09864zM21.75,18.9998c0,1.5188 -1.2312,2.75 -2.75,2.75h-14c-1.51878,0 -2.75,-1.2312 -2.75,-2.75v-10c0,-0.25077 0.12534,-0.48493 0.33398,-0.62403l9.00002,-6l0.0976,-0.05468c0.2351,-0.11034 0.5139,-0.09232 0.7344,0.05468l9,6c0.2087,0.1391 0.334,0.37326 0.334,0.62403z" fill="#002B51"/>
</svg>
