<svg width="24" height="24" viewBox="0 0 24 24" fill="none" xmlns="http://www.w3.org/2000/svg">
<path fill-rule="evenodd" clip-rule="evenodd" d="M21.7499,7.01023v9.98977c0,1.5188 -1.2312,2.75 -2.75,2.75h-13.99996c-1.51878,0 -2.75,-1.2312 -2.75,-2.75v-9.98974M18.9999,5.75h-13.99996c-0.56329,0 -1.03955,0.37258 -1.19579,0.88475l8.19575,5.46385l8.1958,-5.46385c-0.1562,-0.51217 -0.6325,-0.88475 -1.1958,-0.88475zM3.74994,17c0,0.6904 0.55964,1.25 1.25,1.25h13.99996c0.6904,0 1.25,-0.5596 1.25,-1.25v-8.59861l-7.8339,5.22261c-0.252,0.168 -0.5802,0.168 -0.8321,0l-7.83396,-5.22261zM2.24997,6.98626c0.0074,-1.51246 1.23577,-2.73626 2.74997,-2.73626h13.99996c1.5143,0 2.7426,1.22382 2.75,2.73629" fill="#002B51"/>
</svg>
