<svg width="24" height="24" viewBox="0 0 24 24" fill="none" xmlns="http://www.w3.org/2000/svg">
<path fill-rule="evenodd" clip-rule="evenodd" d="M11.584 2.37596C11.8359 2.20801 12.1641 2.20801 12.416 2.37596L21.416 8.37596C21.6247 8.51506 21.75 8.74924 21.75 9V19C21.75 20.5188 20.5188 21.75 19 21.75H5C3.48122 21.75 2.25 20.5188 2.25 19V9C2.25 8.74924 2.37533 8.51506 2.58397 8.37596L11.584 2.37596ZM3.75 10.4014L11.584 15.624C11.8359 15.792 12.1641 15.792 12.416 15.624L20.25 10.4014V19C20.25 19.6904 19.6904 20.25 19 20.25H5C4.30964 20.25 3.75 19.6904 3.75 19V10.4014ZM19.6479 9L12 14.0986L4.35208 9L12 3.90139L19.6479 9Z" fill="#002B51"/>
</svg>
