<svg width="24" height="24" viewBox="0 0 24 24" fill="none" xmlns="http://www.w3.org/2000/svg">
<path d="M18.9999,4.25c1.5051,0 2.7252,1.20913 2.7471,2.70898c0.0005,0.00915 0.0018,0.01821 0.002,0.02735c0,0.00455 0.0009,0.00911 0.0009,0.01367v10c0,1.5188 -1.2312,2.75 -2.75,2.75h-13.99996c-1.51878,0 -2.75,-1.2312 -2.75,-2.75v-10.02344c0.00018,-0.00588 0.00164,-0.0117 0.00195,-0.01758c0.02194,-1.49986 1.24297,-2.70898 2.74805,-2.70898zM12.416,13.624c-0.252,0.168 -0.5802,0.168 -0.8321,0l-7.83396,-5.22263v8.59863c0,0.6904 0.55964,1.25 1.25,1.25h13.99996c0.6904,0 1.25,-0.5596 1.25,-1.25v-8.59863zM4.99994,5.75c-0.56324,0 -1.03903,0.37266 -1.19531,0.88477l8.19527,5.46383l8.1944,-5.46383c-0.1564,-0.51197 -0.6312,-0.88477 -1.1944,-0.88477z" fill="#002B51"/>
</svg>
