<svg width="24" height="24" viewBox="0 0 24 24" fill="none" xmlns="http://www.w3.org/2000/svg">
<path fill-rule="evenodd" clip-rule="evenodd" d="M11.584,2.37596c0.2519,-0.16795 0.5801,-0.16795 0.832,0l9,6c0.2087,0.1391 0.334,0.37328 0.334,0.62404v10c0,1.5188 -1.2312,2.75 -2.75,2.75h-14c-1.51878,0 -2.75,-1.2312 -2.75,-2.75v-10c0,-0.25076 0.12533,-0.48494 0.33397,-0.62404zM3.75,19c0,0.6904 0.55964,1.25 1.25,1.25h14c0.6904,0 1.25,-0.5596 1.25,-1.25v-8.5986l-7.834,5.2226c-0.2519,0.168 -0.5801,0.168 -0.832,0l-7.834,-5.2226zM12,3.90139l-7.64792,5.09861l7.64792,5.0986l7.6479,-5.0986z" fill="#002B51"/>
</svg>
