<svg width="24" height="24" viewBox="0 0 24 24" fill="none" xmlns="http://www.w3.org/2000/svg">
<path fill-rule="evenodd" clip-rule="evenodd" d="M20.2499,8.40137l-7.8339,5.22263c-0.252,0.168 -0.5802,0.168 -0.8321,0l-7.83396,-5.22263v8.59863c0,0.6904 0.55964,1.25 1.25,1.25h13.99996c0.6904,0 1.25,-0.5596 1.25,-1.25zM3.80414,6.63477l8.19576,5.46383l8.1958,-5.46383c-0.1562,-0.51218 -0.6325,-0.88477 -1.1958,-0.88477h-13.99996c-0.56329,0 -1.03956,0.37259 -1.1958,0.88477zM2.24995,6.99176c0.00444,-1.51499 1.23395,-2.74176 2.74999,-2.74176h13.99996c1.5161,0 2.7456,1.22678 2.75,2.74178M21.7499,7.00515v9.99485c0,1.5188 -1.2312,2.75 -2.75,2.75h-13.99996c-1.51878,0 -2.75,-1.2312 -2.75,-2.75v-9.99483M21.7499,7.00515v-0.00515c0,-0.00274 0,-0.00548 0,-0.00822" fill="#002B51"/>
</svg>
