<svg width="24" height="24" viewBox="0 0 24 24" fill="none" xmlns="http://www.w3.org/2000/svg">
<path fill-rule="evenodd" clip-rule="evenodd" d="M2.24994 7.01026V17C2.24994 18.5188 3.48116 19.75 4.99994 19.75H18.9999C20.5187 19.75 21.7499 18.5188 21.7499 17V7.01023M20.1957 6.63475L11.9999 12.0986L3.80415 6.63475C3.96039 6.12258 4.43665 5.75 4.99994 5.75H18.9999C19.5632 5.75 20.0395 6.12258 20.1957 6.63475ZM3.74994 8.40139L11.5839 13.624C11.8358 13.792 12.164 13.792 12.416 13.624L20.2499 8.40139V17C20.2499 17.6904 19.6903 18.25 18.9999 18.25H4.99994C4.30958 18.25 3.74994 17.6904 3.74994 17V8.40139ZM2.24997 6.98626C2.25737 5.4738 3.48574 4.25 4.99994 4.25H18.9999C20.5142 4.25 21.7425 5.47382 21.7499 6.98629" fill="#002B51"/>
</svg>
