<svg width="24" height="24" viewBox="0 0 24 24" fill="none" xmlns="http://www.w3.org/2000/svg">
<path d="M12,2.49997c5.3848,0 9.75,4.36522 9.75,9.75003c0,5.3847 -4.3652,9.75 -9.75,9.75c-5.38478,0 -9.75,-4.3653 -9.75,-9.75c0,-5.38481 4.36522,-9.75003 9.75,-9.75003zM12.1973,7.76169c-0.6768,0.05453 -1.3263,0.29151 -1.8887,0.68262c-0.56189,0.39081 -1.01829,0.92264 -1.33204,1.54296c-0.2008,0.39703 -0.33904,0.82353 -0.41308,1.26273h-0.26368c-0.4141,0.0001 -0.75,0.3358 -0.75,0.75c0,0.4141 0.3359,0.7498 0.75,0.75h0.26368c0.07404,0.4391 0.21228,0.8656 0.41308,1.2627c0.31375,0.6203 0.77015,1.1521 1.33204,1.5429c0.5624,0.3911 1.2119,0.6281 1.8887,0.6827c0.6769,0.0544 1.3539,-0.0757 1.9677,-0.3741c0.3725,-0.1811 0.5277,-0.6295 0.3467,-1.0019c-0.1811,-0.3725 -0.6295,-0.5277 -1.0019,-0.3467c-0.376,0.1828 -0.7854,0.2601 -1.1914,0.2275c-0.4064,-0.0327 -0.8034,-0.1755 -1.1534,-0.4189c-0.3501,-0.2436 -0.6439,-0.5818 -0.8496,-0.9883c-0.0939,-0.1856 -0.1671,-0.3824 -0.2197,-0.5859h1.6543c0.4141,-0.0001 0.75,-0.3359 0.75,-0.75c0,-0.4142 -0.3359,-0.7499 -0.75,-0.75h-1.6543c0.0526,-0.2035 0.1258,-0.4003 0.2197,-0.586c0.2057,-0.4065 0.4995,-0.74467 0.8496,-0.98825c0.35,-0.24338 0.747,-0.38624 1.1534,-0.41894c0.406,-0.0326 0.8154,0.04473 1.1914,0.22753c0.3724,0.181 0.8208,0.02578 1.0019,-0.34668c0.181,-0.37246 0.0258,-0.82085 -0.3467,-1.00195c-0.6138,-0.29841 -1.2908,-0.42851 -1.9677,-0.37402z" fill="#002B51"/>
</svg>
