<svg width="24" height="24" viewBox="0 0 24 24" fill="none" xmlns="http://www.w3.org/2000/svg">
<path d="M12,2.49997c5.3848,0 9.75,4.36522 9.75,9.75003c0,5.3847 -4.3652,9.75 -9.75,9.75c-5.38478,0 -9.75,-4.3653 -9.75,-9.75c0,-5.38481 4.36522,-9.75003 9.75,-9.75003zM12,3.99997c-4.55635,0 -8.25,3.69365 -8.25,8.25003c0,4.5563 3.69365,8.25 8.25,8.25c4.5563,0 8.25,-3.6937 8.25,-8.25c0,-4.55638 -3.6937,-8.25003 -8.25,-8.25003zM12.1973,7.76169c0.6769,-0.05449 1.3539,0.07561 1.9677,0.37402c0.3725,0.1811 0.5277,0.62949 0.3467,1.00195c-0.1811,0.37246 -0.6295,0.52768 -1.0019,0.34668c-0.376,-0.1828 -0.7854,-0.26013 -1.1914,-0.22753c-0.4064,0.0327 -0.8034,0.17556 -1.1534,0.41894c-0.3501,0.24358 -0.6439,0.58175 -0.8496,0.98825c-0.0939,0.1857 -0.1671,0.3825 -0.2197,0.586h1.6543c0.4141,0.0001 0.75,0.3358 0.75,0.75c0,0.4141 -0.3359,0.7499 -0.75,0.75h-1.6543c0.0526,0.2035 0.1258,0.4003 0.2197,0.5859c0.2057,0.4065 0.4995,0.7447 0.8496,0.9883c0.35,0.2434 0.747,0.3862 1.1534,0.4189c0.406,0.0326 0.8154,-0.0447 1.1914,-0.2275c0.3724,-0.181 0.8208,-0.0258 1.0019,0.3467c0.181,0.3724 0.0258,0.8208 -0.3467,1.0019c-0.6138,0.2984 -1.2908,0.4285 -1.9677,0.3741c-0.6768,-0.0546 -1.3263,-0.2916 -1.8887,-0.6827c-0.56189,-0.3908 -1.01829,-0.9226 -1.33204,-1.5429c-0.2008,-0.3971 -0.33904,-0.8236 -0.41308,-1.2627h-0.26368c-0.4141,-0.0002 -0.75,-0.3359 -0.75,-0.75c0,-0.4142 0.3359,-0.7499 0.75,-0.75h0.26368c0.07404,-0.4392 0.21228,-0.8657 0.41308,-1.26273c0.31375,-0.62032 0.77015,-1.15215 1.33204,-1.54296c0.5624,-0.39111 1.2119,-0.62809 1.8887,-0.68262z" fill="#002B51"/>
</svg>
