<svg width="24" height="24" viewBox="0 0 24 24" fill="none" xmlns="http://www.w3.org/2000/svg">
<path fill-rule="evenodd" clip-rule="evenodd" d="M10.1533,3.58785c1.6131,-0.73764 3.4044,-0.99598 5.1602,-0.74415c1.7558,0.25188 3.4024,1.00368 4.7431,2.16504c0.5215,0.45206 0.5779,1.24102 0.126,1.7627c-0.4519,0.52165 -1.2409,0.57852 -1.7627,0.12695c-0.9784,-0.8475 -2.1806,-1.39629 -3.4619,-1.58008c-1.2812,-0.18369 -2.5886,0.0047 -3.7656,0.54297c-1.177,0.5383 -2.17407,1.40395 -2.87306,2.49317c-0.08297,0.1293 -0.16072,0.26144 -0.23438,0.39551h6.91504c0.6904,0 1.25,0.55965 1.25,1.25c0,0.69034 -0.5596,1.25004 -1.25,1.25004h-7.70801c-0.02799,0.2501 -0.04221,0.5024 -0.04199,0.7558c0.00022,0.2495 0.01543,0.4978 0.04297,0.7442h5.70703c0.6904,0 1.25,0.5596 1.25,1.25c0,0.6903 -0.5596,1.25 -1.25,1.25h-4.91602c0.07555,0.1375 0.15587,0.2727 0.24122,0.4052c0.7009,1.0881 1.6999,1.952 2.8779,2.4883c1.178,0.5362 2.4857,0.7221 3.7666,0.5361c1.281,-0.186 2.4821,-0.7357 3.459,-1.5849c0.521,-0.4529 1.3098,-0.3979 1.7627,0.123c0.4529,0.521 0.398,1.3108 -0.123,1.7637c-1.3387,1.1636 -2.984,1.918 -4.7393,2.1729c-1.7553,0.2548 -3.5468,-0.0006 -5.1611,-0.7354c-1.61447,-0.7349 -2.9838,-1.9189 -3.94437,-3.4102c-0.358,-0.5558 -0.65367,-1.1456 -0.88379,-1.7587h-1.33984c-0.69036,0 -1.25,-0.5597 -1.25,-1.25c0.00001,-0.6904 0.55965,-1.25 1.25,-1.25h0.78125c-0.02005,-0.2463 -0.03103,-0.4939 -0.03125,-0.7422c-0.00021,-0.2536 0.01176,-0.5064 0.03223,-0.7578h-0.78223c-0.69036,0 -1.25,-0.5597 -1.25,-1.25004c0.00001,-0.69035 0.55965,-1.25 1.25,-1.25h1.34082c0.2282,-0.60795 0.52,-1.19335 0.87402,-1.74512c0.95797,-1.4929 2.32533,-2.67929 3.93846,-3.41699z" fill="#002B51"/>
</svg>
