<svg width="24" height="24" viewBox="0 0 24 24" fill="none" xmlns="http://www.w3.org/2000/svg">
<path d="M10.3613,4.04343c1.5259,-0.69778 3.22,-0.94231 4.8809,-0.70411c1.6609,0.23825 3.2181,0.94928 4.4863,2.04786c0.3129,0.27123 0.3473,0.74461 0.0762,1.05761c-0.2711,0.31253 -0.7447,0.34673 -1.0576,0.07618c-1.0509,-0.91027 -2.3416,-1.49986 -3.7178,-1.69727c-1.3762,-0.19737 -2.7806,0.00482 -4.0449,0.58301c-1.26422,0.57821 -2.3352,1.50871 -3.08596,2.67871c-0.23797,0.37091 -0.44074,0.7609 -0.60645,1.16504h7.70801c0.4142,0 0.75,0.33578 0.75,0.75004c-0.0003,0.414 -0.3359,0.75 -0.75,0.75h-8.1416c-0.07227,0.4127 -0.10874,0.8332 -0.1084,1.2558c0.00039,0.4189 0.03767,0.835 0.10938,1.2442h6.14062c0.4142,0 0.75,0.3357 0.75,0.75c-0.0003,0.414 -0.3359,0.75 -0.75,0.75h-5.70703c0.16726,0.4078 0.37152,0.8019 0.6123,1.1757c0.75284,1.1686 1.82565,2.0969 3.09083,2.6729c1.2653,0.5759 2.6701,0.7759 4.0459,0.5762c1.3757,-0.1998 2.6656,-0.7912 3.7148,-1.7032c0.3126,-0.2715 0.786,-0.2383 1.0577,0.0743c0.2713,0.3126 0.2382,0.7859 -0.0743,1.0576c-1.2662,1.1006 -2.8221,1.8145 -4.4824,2.0556c-1.6604,0.2411 -3.3557,-0.0002 -4.8828,-0.6953c-1.52705,-0.6951 -2.82281,-1.8151 -3.73145,-3.2256c-0.40123,-0.6229 -0.71867,-1.2918 -0.94921,-1.9882h-1.69434c-0.41406,0 -0.74975,-0.336 -0.75,-0.75c0,-0.4143 0.33579,-0.75 0.75,-0.75h1.33984c-0.05915,-0.4099 -0.08944,-0.825 -0.08984,-1.2422c-0.00037,-0.4224 0.02999,-0.843 0.08984,-1.2578h-1.33984c-0.41406,0 -0.74975,-0.336 -0.75,-0.75c0,-0.41426 0.33579,-0.75004 0.75,-0.75004h1.69336c0.22903,-0.69198 0.54483,-1.35597 0.94238,-1.97559c0.90615,-1.41212 2.19974,-2.53362 3.72556,-3.23144z" fill="#002B51"/>
</svg>
