<svg width="24" height="24" viewBox="0 0 24 24" fill="none" xmlns="http://www.w3.org/2000/svg">
<path d="M3.46973,3.4697c0.27455,-0.27452 0.70934,-0.29192 1.0039,-0.05176l0.05664,0.05176l16.00003,16l0.0517,0.0566c0.2403,0.2946 0.2228,0.7293 -0.0517,1.0039c-0.2746,0.2746 -0.7094,0.2921 -1.0039,0.0518l-0.0567,-0.0518l-1.0068,-1.0068c-0.9798,0.5817 -2.0674,0.9705 -3.2051,1.1357c-1.6604,0.2412 -3.3557,-0.0002 -4.8828,-0.6953c-1.52698,-0.6951 -2.82284,-1.8151 -3.73145,-3.2255c-0.40123,-0.6231 -0.71968,-1.2918 -0.95019,-1.9883h-1.69336c-0.41407,0 -0.74976,-0.336 -0.75,-0.75c0.00027,-0.414 0.33595,-0.75 0.75,-0.75h1.33984c-0.05906,-0.4096 -0.08945,-0.8253 -0.08984,-1.2422c-0.00034,-0.4223 0.02998,-0.8431 0.08984,-1.2578h-1.33984c-0.41407,0 -0.74976,-0.336 -0.75,-0.75003c0.00027,-0.41399 0.33595,-0.75 0.75,-0.75h1.69336c0.19717,-0.59553 0.45872,-1.17113 0.78125,-1.71484l-3.00488,-3.00489l-0.05176,-0.05664c-0.24016,-0.29458 -0.22279,-0.72935 0.05176,-1.0039zM13.4961,14.5566c-0.1325,0.1181 -0.3046,0.1934 -0.4961,0.1934h-5.70801c0.16726,0.4078 0.37248,0.8019 0.61328,1.1758c0.7528,1.1685 1.82572,2.0968 3.09083,2.6728c1.2653,0.5759 2.6701,0.7759 4.0459,0.5762c0.8139,-0.1182 1.596,-0.3768 2.3174,-0.7549zM6.85938,10.75c-0.07229,0.4127 -0.10969,0.8332 -0.10938,1.2558c0.00039,0.4186 0.03778,0.8353 0.10938,1.2442h5.33012l-2.50005,-2.5zM15,9.24997c0.414,0 0.7497,0.33601 0.75,0.75c-0.0002,0.41403 -0.3359,0.75003 -0.75,0.75003h-1.1895l-1.5,-1.50003zM7.57715,8.63766c-0.10465,0.19984 -0.1999,0.40445 -0.28516,0.61231h0.89746zM10.3613,4.04294c1.5258,-0.6977 3.2201,-0.94228 4.8809,-0.7041c1.5571,0.22334 3.0239,0.86157 4.2461,1.8457l0.2402,0.20215l0.0557,0.05273c0.2605,0.27657 0.2744,0.71142 0.0205,1.00489c-0.2542,0.29305 -0.6862,0.34122 -0.9971,0.12304l-0.0605,-0.04687l-0.2002,-0.16699c-1.0127,-0.81538 -2.2275,-1.34522 -3.5176,-1.53028c-1.3761,-0.19735 -2.7807,0.00489 -4.0449,0.58301c-0.5592,0.25573 -1.0812,0.58005 -1.55374,0.96387l-1.06445,-1.06446c0.60191,-0.50637 1.27253,-0.93223 1.99509,-1.26269z" fill="#002B51"/>
</svg>
