<svg width="24" height="24" viewBox="0 0 24 24" fill="none" xmlns="http://www.w3.org/2000/svg">
<path d="M12,3.25c1.5188,0 2.75,1.23122 2.75,2.75v6.25h0.25c1.5188,0 2.75,1.2312 2.75,2.75v1.5c0,0.4142 0.3358,0.75 0.75,0.75c0.4142,0 0.75,-0.3358 0.75,-0.75v-5.3389c-1.4331,-0.3387 -2.5,-1.62446 -2.5,-3.1611v-1.75c0,-0.55228 0.4477,-1 1,-1v-1.25c0,-0.41421 0.3358,-0.75 0.75,-0.75c0.4142,0 0.75,0.33579 0.75,0.75v1.25h1.5v-1.25c0,-0.41421 0.3358,-0.75 0.75,-0.75c0.4142,0 0.75,0.33579 0.75,0.75v1.25c0.5523,0 1,0.44772 1,1v1.75c0,1.53664 -1.0669,2.8224 -2.5,3.1611v5.3389c0,1.2426 -1.0074,2.25 -2.25,2.25c-1.2426,0 -2.25,-1.0074 -2.25,-2.25v-1.5c0,-0.6904 -0.5596,-1.25 -1.25,-1.25h-0.25v5.5h0.25l0.0771,0.0039c0.378,0.0386 0.6729,0.3579 0.6729,0.7461c0,0.3882 -0.2949,0.7075 -0.6729,0.7461l-0.0771,0.0039h-12c-0.41421,0 -0.75,-0.3358 -0.75,-0.75c0,-0.4142 0.33579,-0.75 0.75,-0.75h0.25v-13.25c0,-1.51878 1.23122,-2.75 2.75,-2.75zM10.1104,11.4023c-0.16026,-0.0844 -0.35346,-0.0641 -0.49126,0.0459l-0.05566,0.0528l-2.39942,2.7002c-0.1045,0.1175 -0.14006,0.2813 -0.09375,0.4316c0.0465,0.1501 0.16797,0.2655 0.32031,0.3037l0.76368,0.1905l-0.49121,1.9638c-0.05008,0.2008 0.04375,0.41 0.22656,0.5069c0.18315,0.0965 0.40929,0.0561 0.54687,-0.0987l2.39938,-2.7002c0.1045,-0.1175 0.1401,-0.2813 0.0938,-0.4316c-0.0465,-0.1501 -0.168,-0.2654 -0.3203,-0.3037l-0.76467,-0.1914l0.49217,-1.9629c0.0501,-0.2007 -0.0438,-0.41 -0.2265,-0.5069zM6,4.75c-0.69036,0 -1.25,0.55964 -1.25,1.25v2.25h8.5v-2.25c0,-0.69036 -0.5596,-1.25 -1.25,-1.25z" fill="#002B51"/>
</svg>
