<svg width="24" height="24" viewBox="0 0 24 24" fill="none" xmlns="http://www.w3.org/2000/svg">
<path d="M12,3.25c1.5188,0 2.75,1.23122 2.75,2.75v6.25h0.25c1.5188,0 2.75,1.2312 2.75,2.75v1.5c0,0.4142 0.3358,0.75 0.75,0.75c0.4142,0 0.75,-0.3358 0.75,-0.75v-5.3389c-1.4331,-0.3387 -2.5,-1.62446 -2.5,-3.1611v-1.75c0,-0.55228 0.4477,-1 1,-1v-1.25c0,-0.41421 0.3358,-0.75 0.75,-0.75c0.4142,0 0.75,0.33579 0.75,0.75v1.25h1.5v-1.25c0,-0.41421 0.3358,-0.75 0.75,-0.75c0.4142,0 0.75,0.33579 0.75,0.75v1.25c0.5523,0 1,0.44772 1,1v1.75c0,1.53664 -1.0669,2.8224 -2.5,3.1611v5.3389c0,1.2426 -1.0074,2.25 -2.25,2.25c-1.2426,0 -2.25,-1.0074 -2.25,-2.25v-1.5c0,-0.6904 -0.5596,-1.25 -1.25,-1.25h-0.25v5.5h0.25l0.0771,0.0039c0.378,0.0386 0.6729,0.3579 0.6729,0.7461c0,0.3882 -0.2949,0.7075 -0.6729,0.7461l-0.0771,0.0039h-12c-0.41421,0 -0.75,-0.3358 -0.75,-0.75c0,-0.4142 0.33579,-0.75 0.75,-0.75h0.25v-13.25c0,-1.51878 1.23122,-2.75 2.75,-2.75zM4.75,19.25h8.5v-9.5h-8.5zM9.61914,11.4482c0.1378,-0.11 0.331,-0.1303 0.49126,-0.0459c0.1827,0.0969 0.2766,0.3062 0.2265,0.5069l-0.49217,1.9629l0.76467,0.1914c0.1523,0.0383 0.2738,0.1536 0.3203,0.3037c0.0463,0.1503 0.0107,0.3141 -0.0938,0.4316l-2.39938,2.7002c-0.13758,0.1548 -0.36372,0.1952 -0.54687,0.0987c-0.18281,-0.0969 -0.27664,-0.3061 -0.22656,-0.5069l0.49121,-1.9638l-0.76368,-0.1905c-0.15234,-0.0382 -0.27381,-0.1536 -0.32031,-0.3037c-0.04631,-0.1503 -0.01075,-0.3141 0.09375,-0.4316l2.39942,-2.7002zM18.25,8c0,0.9665 0.7835,1.75 1.75,1.75c0.9665,0 1.75,-0.7835 1.75,-1.75v-1.25h-3.5zM6,4.75c-0.69036,0 -1.25,0.55964 -1.25,1.25v2.25h8.5v-2.25c0,-0.69036 -0.5596,-1.25 -1.25,-1.25z" fill="#002B51"/>
</svg>
