<svg width="24" height="24" viewBox="0 0 24 24" fill="none" xmlns="http://www.w3.org/2000/svg">
<path d="M12,3.25c1.5188,0 2.75,1.23122 2.75,2.75v6.25h0.25c1.5188,0 2.75,1.2312 2.75,2.75v1.5c0,0.4142 0.3358,0.75 0.75,0.75c0.4142,0 0.75,-0.3358 0.75,-0.75v-5.3389c-1.4331,-0.3387 -2.5,-1.62446 -2.5,-3.1611v-1.75c0,-0.55228 0.4477,-1 1,-1v-1.25c0,-0.41421 0.3358,-0.75 0.75,-0.75c0.4142,0 0.75,0.33579 0.75,0.75v1.25h1.5v-1.25c0,-0.41421 0.3358,-0.75 0.75,-0.75c0.4142,0 0.75,0.33579 0.75,0.75v1.25c0.5523,0 1,0.44772 1,1v1.75c0,1.53664 -1.0669,2.8224 -2.5,3.1611v5.3389c0,1.2426 -1.0074,2.25 -2.25,2.25c-1.2426,0 -2.25,-1.0074 -2.25,-2.25v-1.5c0,-0.6904 -0.5596,-1.25 -1.25,-1.25h-0.25v5.5h0.25c0.4142,0 0.75,0.3358 0.75,0.75c0,0.4142 -0.3358,0.75 -0.75,0.75h-12c-0.41421,0 -0.75,-0.3358 -0.75,-0.75c0,-0.4142 0.33579,-0.75 0.75,-0.75h0.25v-13.25c0,-1.51878 1.23122,-2.75 2.75,-2.75zM4.75,19.25h8.5v-9.5h-8.5zM9.56348,11.502c0.13763,-0.1549 0.36367,-0.1954 0.54692,-0.0987c0.1826,0.0969 0.2767,0.3062 0.2265,0.5069l-0.49217,1.9628l0.76467,0.1915c0.1524,0.0383 0.2739,0.1535 0.3203,0.3037c0.0461,0.1501 0.0106,0.3142 -0.0938,0.4316l-2.39938,2.7002c-0.13758,0.1544 -0.36391,0.195 -0.54687,0.0986c-0.18275,-0.0966 -0.27626,-0.3062 -0.22656,-0.5068l0.49121,-1.9639l-0.76368,-0.1904c-0.15221,-0.0382 -0.27367,-0.1539 -0.32031,-0.3037c-0.0464,-0.1502 -0.01054,-0.314 0.09375,-0.4317zM18.25,8c0,0.9665 0.7835,1.75 1.75,1.75c0.9665,0 1.75,-0.7835 1.75,-1.75v-1.25h-3.5zM6,4.75c-0.69036,0 -1.25,0.55964 -1.25,1.25v2.25h8.5v-2.25c0,-0.69036 -0.5596,-1.25 -1.25,-1.25z" fill="#002B51"/>
</svg>
