<svg width="24" height="24" viewBox="0 0 24 24" fill="none" xmlns="http://www.w3.org/2000/svg">
<path fill-rule="evenodd" clip-rule="evenodd" d="M14.1729,4.49621c-0.378,-0.03862 -0.6729,-0.35794 -0.6729,-0.74609c0.0001,-0.41418 0.3358,-0.75 0.75,-0.75l5.959,0.00097c0.2054,-0.01104 0.4144,0.06192 0.5713,0.21875c0.1568,0.15683 0.2298,0.36589 0.2187,0.57124l0.001,5.95904c0,0.41418 -0.3358,0.74998 -0.75,0.74998c-0.4142,0 -0.7499,-0.3358 -0.75,-0.74998l-0.0008,-4.18868l-6.2189,6.21896c-0.2929,0.2929 -0.7677,0.2929 -1.0606,0c-0.2929,-0.2929 -0.2929,-0.7677 0,-1.0606l6.2198,-6.21968h-4.1895zM5.75,6.00012h5.5c0.4142,0 0.75,0.33578 0.75,0.75c0,0.41421 -0.3358,0.75 -0.75,0.75h-5.5c-0.69036,0 -1.25,0.55964 -1.25,1.25v9.49998c0,0.6904 0.55964,1.25 1.25,1.25h9.5c0.6904,0 1.25,-0.5596 1.25,-1.25v-5.5c0,-0.4142 0.3358,-0.75 0.75,-0.75c0.4142,0 0.75,0.3358 0.75,0.75v5.5c0,1.5188 -1.2312,2.75 -2.75,2.75h-9.5c-1.51878,0 -2.75,-1.2312 -2.75,-2.75v-9.49998c0,-1.51879 1.23122,-2.75 2.75,-2.75z" fill="#002B51"/>
</svg>
