<svg width="24" height="24" viewBox="0 0 24 24" fill="none" xmlns="http://www.w3.org/2000/svg">
<path fill-rule="evenodd" clip-rule="evenodd" d="M13.5 3.74988C13.5001 3.33567 13.8359 2.99994 14.2501 3L20.2125 3.00093C20.4167 2.99077 20.6243 3.06369 20.7803 3.21967C20.9363 3.37565 21.0092 3.58324 20.9991 3.78747L21 9.74988C21.0001 10.1641 20.6643 10.4999 20.2501 10.5C19.8359 10.5001 19.5001 10.1643 19.5 9.75012L19.4993 5.56132L13.2803 11.7803C12.9874 12.0732 12.5126 12.0732 12.2197 11.7803C11.9268 11.4874 11.9268 11.0126 12.2197 10.7197L18.4387 4.50065L14.2499 4.5C13.8357 4.49994 13.4999 4.1641 13.5 3.74988ZM4.5 8.75C4.5 8.05964 5.05964 7.5 5.75 7.5H11.25C11.6642 7.5 12 7.16421 12 6.75C12 6.33579 11.6642 6 11.25 6H5.75C4.23122 6 3 7.23122 3 8.75V18.25C3 19.7688 4.23122 21 5.75 21H15.25C16.7688 21 18 19.7688 18 18.25V12.75C18 12.3358 17.6642 12 17.25 12C16.8358 12 16.5 12.3358 16.5 12.75V18.25C16.5 18.9404 15.9404 19.5 15.25 19.5H5.75C5.05964 19.5 4.5 18.9404 4.5 18.25V8.75Z" fill="#002B51"/>
</svg>
