<svg width="24" height="24" viewBox="0 0 24 24" fill="none" xmlns="http://www.w3.org/2000/svg">
<path d="M11.25,6c0.4142,0 0.75,0.33579 0.75,0.75c0,0.41421 -0.3358,0.75 -0.75,0.75h-5.5c-0.69036,0 -1.25,0.55964 -1.25,1.25v9.5c0,0.6904 0.55964,1.25 1.25,1.25h9.5c0.6904,0 1.25,-0.5596 1.25,-1.25v-5.5c0,-0.4142 0.3358,-0.75 0.75,-0.75c0.4142,0 0.75,0.3358 0.75,0.75v5.5c0,1.5188 -1.2312,2.75 -2.75,2.75h-9.5c-1.51878,0 -2.75,-1.2312 -2.75,-2.75v-9.5c0,-1.51878 1.23122,-2.75 2.75,-2.75zM20.249,3.00098h0.0371c0.0069,0.00033 0.0137,0.0024 0.0205,0.00293l0.0196,0.00097c0.0092,0.00095 0.0182,0.00361 0.0273,0.00489c0.0326,0.00455 0.0648,0.01068 0.0967,0.01953c0.0119,0.0033 0.0235,0.00688 0.0352,0.01074c0.0316,0.01049 0.0624,0.02326 0.0927,0.03808c0.0128,0.00625 0.0248,0.01358 0.0371,0.02051c0.0261,0.01463 0.0517,0.02988 0.0762,0.04785c0.0137,0.01001 0.0261,0.02134 0.0391,0.03223c0.0163,0.01376 0.0344,0.02565 0.0498,0.04102c0.0059,0.0059 0.0099,0.01348 0.0156,0.01953c0.0104,0.01115 0.0195,0.02338 0.0293,0.03515c0.02,0.02418 0.0391,0.04829 0.0557,0.07422c0.0052,0.00825 0.0097,0.01694 0.0146,0.02539c0.019,0.03247 0.0361,0.06522 0.0498,0.09961c0.002,0.00506 0.003,0.01051 0.0049,0.01563c0.014,0.03753 0.0254,0.07534 0.0332,0.11426c0.0016,0.00802 0.0016,0.0163 0.0029,0.02441c0.0062,0.03736 0.0103,0.07453 0.0108,0.1123c0,0.00359 0.0019,0.00715 0.0019,0.01075l0.001,5.99902c0,0.4142 -0.3358,0.7499 -0.75,0.75c-0.4142,0 -0.7499,-0.3358 -0.75,-0.75l-0.001,-4.18945l-6.2187,6.21975c-0.2929,0.2929 -0.7677,0.2929 -1.0606,0c-0.2929,-0.2929 -0.2929,-0.7677 0,-1.0606l6.2198,-6.2197h-4.1895l-0.0771,-0.00391c-0.378,-0.03862 -0.6729,-0.35794 -0.6729,-0.74609c0.0001,-0.41417 0.3358,-0.75 0.75,-0.75z" fill="#002B51"/>
</svg>
