<svg width="24" height="24" viewBox="0 0 24 24" fill="none" xmlns="http://www.w3.org/2000/svg">
<path fill-rule="evenodd" clip-rule="evenodd" d="M13.5,3.74988c0.0001,-0.41421 0.3359,-0.74994 0.7501,-0.74988l5.9624,0.00093c0.2042,-0.01016 0.4118,0.06276 0.5678,0.21874c0.156,0.15598 0.2289,0.36357 0.2188,0.5678l0.0009,5.96241c0.0001,0.41422 -0.3357,0.75002 -0.7499,0.75012c-0.4142,0.0001 -0.75,-0.3357 -0.7501,-0.74988l-0.0007,-4.1888l-6.219,6.21898c-0.2929,0.2929 -0.7677,0.2929 -1.0606,0c-0.2929,-0.2929 -0.2929,-0.7677 0,-1.0606l6.219,-6.21905l-4.1888,-0.00065c-0.4142,-0.00006 -0.75,-0.3359 -0.7499,-0.75012zM4.5,18.25c0,0.6904 0.55964,1.25 1.25,1.25h9.5c0.6904,0 1.25,-0.5596 1.25,-1.25v-5.5c0,-0.4142 0.3358,-0.75 0.75,-0.75c0.4142,0 0.75,0.3358 0.75,0.75v5.5c0,1.5188 -1.2312,2.75 -2.75,2.75h-9.5c-1.51878,0 -2.75,-1.2312 -2.75,-2.75v-9.5c0,-1.51878 1.23122,-2.75 2.75,-2.75h5.5c0.4142,0 0.75,0.33579 0.75,0.75c0,0.41421 -0.3358,0.75 -0.75,0.75h-5.5c-0.69036,0 -1.25,0.55964 -1.25,1.25z" fill="#002B51"/>
</svg>
