<svg width="24" height="24" viewBox="0 0 24 24" fill="none" xmlns="http://www.w3.org/2000/svg">
<path fill-rule="evenodd" clip-rule="evenodd" d="M21.1388,10.6729c0.1819,0.2997 0.3175,0.5519 0.4082,0.7314c0.0452,0.0896 0.0788,0.1619 0.1025,0.2129c0.0051,0.0109 0.0098,0.0209 0.014,0.0299c0.0057,0.012 0.0106,0.0222 0.0143,0.0306l0.0078,0.0176c0.0003,0.0007 0.0006,0.0014 0.0008,0.002c0.0004,0.0015 0.0007,0.0028 0.0012,0.0039l0.001,0.0019l0.0009,0.001l0.0264,0.0723c0.0455,0.1456 0.0455,0.3016 0,0.4472l-0.0264,0.0723l-0.0009,0.001l-0.001,0.0019c-0.0007,0.0016 -0.001,0.0037 -0.002,0.0059l-0.0078,0.0176c-0.0037,0.0084 -0.0086,0.0186 -0.0143,0.0306c-0.0042,0.009 -0.0089,0.019 -0.014,0.0299c-0.0237,0.051 -0.0573,0.1233 -0.1025,0.2129c-0.0907,0.1795 -0.2263,0.4317 -0.4082,0.7314c-0.3632,0.5981 -0.9185,1.3948 -1.6885,2.1934c-1.5438,1.6009 -3.9767,3.2295 -7.4502,3.2295c-3.47351,0 -5.9064,-1.6286 -7.4502,-3.2295c-0.77005,-0.7986 -1.32533,-1.5953 -1.68848,-2.1934c-0.18196,-0.2997 -0.31755,-0.5519 -0.4082,-0.7314c-0.04526,-0.0896 -0.07888,-0.1619 -0.10254,-0.2129c-0.00506,-0.0109 -0.00979,-0.0209 -0.01405,-0.0299c-0.00567,-0.012 -0.01052,-0.0222 -0.01427,-0.0306l-0.00781,-0.0176c-0.00054,-0.0012 -0.00088,-0.0024 -0.00118,-0.0035c-0.00025,-0.0009 -0.00048,-0.0017 -0.00078,-0.0024l-0.00097,-0.0019l-0.00098,-0.001c-0.08085,-0.1887 -0.08085,-0.4031 0,-0.5918l0.00098,-0.001l0.00097,-0.0019c0.0003,-0.0007 0.00053,-0.0015 0.00078,-0.0024c0.0003,-0.0011 0.00064,-0.0023 0.00118,-0.0035l0.00781,-0.0176c0.00375,-0.0084 0.0086,-0.0186 0.01427,-0.0306c0.00426,-0.009 0.00899,-0.019 0.01405,-0.0299c0.02366,-0.051 0.05728,-0.1233 0.10254,-0.2129c0.09065,-0.1795 0.22624,-0.4317 0.4082,-0.7314c0.36315,-0.5981 0.91843,-1.39484 1.68848,-2.19341c1.5438,-1.60092 3.97669,-3.22949 7.4502,-3.22949c3.4735,0 5.9064,1.62857 7.4502,3.22949c0.77,0.79857 1.3253,1.59531 1.6885,2.19341zM12.0001,15c1.6568,0 3,-1.3431 3,-3c0,-1.6569 -1.3432,-3 -3,-3c-1.6569,0 -3.00001,1.3431 -3.00001,3c0,1.6569 1.34311,3 3.00001,3z" fill="#002B51"/>
</svg>
