<svg width="24" height="24" viewBox="0 0 24 24" fill="none" xmlns="http://www.w3.org/2000/svg">
<path fill-rule="evenodd" clip-rule="evenodd" d="M19.4506,8.4794c0.7702,0.79874 1.3251,1.5957 1.6883,2.1939c0.1819,0.2997 0.3168,0.5513 0.4075,0.7307c0.0454,0.0898 0.0797,0.1617 0.1034,0.2128c0.0119,0.0255 0.0211,0.0458 0.0276,0.0606l0.0079,0.0179l0.0025,0.0057l0.0009,0.0021l0.0004,0.0008c0.0001,0.0003 0.0003,0.0007 -0.6891,0.2961l0.6894,-0.2954c0.0808,0.1886 0.0808,0.4022 0,0.5908l-0.6894,-0.2954c0.6894,0.2954 0.6892,0.2958 0.6891,0.2961l-0.0004,0.0008l-0.0009,0.0021l-0.0025,0.0057l-0.0079,0.0179c-0.0032,0.0073 -0.0071,0.0159 -0.0116,0.0259c-0.0047,0.0102 -0.01,0.0218 -0.016,0.0347c-0.0237,0.0511 -0.058,0.123 -0.1034,0.2128c-0.0907,0.1794 -0.2256,0.431 -0.4075,0.7307c-0.3632,0.5982 -0.9181,1.3952 -1.6883,2.1939c-1.5438,1.601 -3.977,3.2294 -7.4506,3.2294c-3.47362,0 -5.9068,-1.6284 -7.4506,-3.2294c-0.77021,-0.7987 -1.32511,-1.5957 -1.68826,-2.1939c-0.18196,-0.2997 -0.31689,-0.5513 -0.40754,-0.7307c-0.04536,-0.0898 -0.07971,-0.1617 -0.10341,-0.2128c-0.01185,-0.0255 -0.02104,-0.0458 -0.02762,-0.0606l-0.00791,-0.0179l-0.00249,-0.0057l-0.00089,-0.0021l-0.00035,-0.0008c-0.00015,-0.0003 -0.00029,-0.0007 0.68907,-0.2961l-0.68936,0.2954c-0.08085,-0.1886 -0.08085,-0.4022 0,-0.5908l0.68936,0.2954c-0.68936,-0.2954 -0.68922,-0.2958 -0.68907,-0.2961l0.00035,-0.0008l0.00089,-0.0021l0.00249,-0.0057l0.00791,-0.0179c0.00658,-0.0148 0.01577,-0.0351 0.02762,-0.0606c0.0237,-0.0511 0.05805,-0.123 0.10341,-0.2128c0.09065,-0.1794 0.22558,-0.431 0.40754,-0.7307c0.36315,-0.5982 0.91805,-1.39516 1.68826,-2.1939c1.5438,-1.60097 3.97698,-3.2294 7.4506,-3.2294c3.4736,0 5.9068,1.62843 7.4506,3.2294zM5.62917,14.4794c1.34906,1.399 3.41587,2.7706 6.37083,2.7706c2.955,0 5.0218,-1.3716 6.3708,-2.7706c0.6762,-0.7013 1.166,-1.4043 1.4859,-1.9311c0.1328,-0.2188 0.2356,-0.406 0.3096,-0.5483c-0.074,-0.1423 -0.1768,-0.3295 -0.3096,-0.5483c-0.3199,-0.5268 -0.8097,-1.2298 -1.4859,-1.9311c-1.349,-1.39903 -3.4158,-2.7706 -6.3708,-2.7706c-2.95496,0 -5.02177,1.37157 -6.37083,2.7706c-0.67622,0.7013 -1.16596,1.4043 -1.48585,1.9311c-0.13284,0.2188 -0.23561,0.406 -0.30964,0.5483c0.07403,0.1423 0.1768,0.3295 0.30964,0.5483c0.31989,0.5268 0.80963,1.2298 1.48585,1.9311zM12,14.25c1.2426,0 2.25,-1.0074 2.25,-2.25c0,-1.2426 -1.0074,-2.25 -2.25,-2.25c-1.2426,0 -2.25,1.0074 -2.25,2.25c0,1.2426 1.0074,2.25 2.25,2.25zM15.75,12c0,2.0711 -1.6789,3.75 -3.75,3.75c-2.07107,0 -3.75,-1.6789 -3.75,-3.75c0,-2.07107 1.67893,-3.75 3.75,-3.75c2.0711,0 3.75,1.67893 3.75,3.75z" fill="#002B51"/>
</svg>
