<svg width="24" height="24" viewBox="0 0 24 24" fill="none" xmlns="http://www.w3.org/2000/svg">
<path fill-rule="evenodd" clip-rule="evenodd" d="M21.1388,10.6729c0.1819,0.2997 0.3175,0.5519 0.4082,0.7314c0.0452,0.0896 0.0788,0.1619 0.1025,0.2129c0.0051,0.0109 0.0098,0.0209 0.014,0.0299c0.0057,0.012 0.0106,0.0222 0.0143,0.0306l0.0078,0.0176c0.0003,0.0007 0.0006,0.0014 0.0008,0.002c0.0004,0.0015 0.0007,0.0028 0.0012,0.0039l0.001,0.0019l0.0009,0.001l0.0264,0.0723c0.0455,0.1456 0.0455,0.3016 0,0.4472l-0.0264,0.0723l-0.0009,0.001l-0.001,0.0019c-0.0007,0.0016 -0.001,0.0037 -0.002,0.0059l-0.0078,0.0176c-0.0037,0.0084 -0.0086,0.0186 -0.0143,0.0306c-0.0042,0.009 -0.0089,0.019 -0.014,0.0299c-0.0237,0.051 -0.0573,0.1233 -0.1025,0.2129c-0.0907,0.1795 -0.2263,0.4317 -0.4082,0.7314c-0.3632,0.5981 -0.9185,1.3948 -1.6885,2.1934c-1.5438,1.6009 -3.9767,3.2295 -7.4502,3.2295c-3.47351,0 -5.9064,-1.6286 -7.4502,-3.2295c-0.77005,-0.7986 -1.32533,-1.5953 -1.68848,-2.1934c-0.18196,-0.2997 -0.31755,-0.5519 -0.4082,-0.7314c-0.04526,-0.0896 -0.07888,-0.1619 -0.10254,-0.2129c-0.00506,-0.0109 -0.00979,-0.0209 -0.01405,-0.0299c-0.00567,-0.012 -0.01052,-0.0222 -0.01427,-0.0306l-0.00781,-0.0176c-0.00054,-0.0012 -0.00088,-0.0024 -0.00118,-0.0035c-0.00025,-0.0009 -0.00048,-0.0017 -0.00078,-0.0024l-0.00097,-0.0019l-0.00098,-0.001c-0.08085,-0.1887 -0.08085,-0.4031 0,-0.5918l0.00098,-0.001l0.00097,-0.0019c0.0003,-0.0007 0.00053,-0.0015 0.00078,-0.0024c0.0003,-0.0011 0.00064,-0.0023 0.00118,-0.0035l0.00781,-0.0176c0.00375,-0.0084 0.0086,-0.0186 0.01427,-0.0306c0.00426,-0.009 0.00899,-0.019 0.01405,-0.0299c0.02366,-0.051 0.05728,-0.1233 0.10254,-0.2129c0.09065,-0.1795 0.22624,-0.4317 0.4082,-0.7314c0.36315,-0.5981 0.91843,-1.39484 1.68848,-2.19341c1.5438,-1.60092 3.97669,-3.22949 7.4502,-3.22949c3.4735,0 5.9064,1.62857 7.4502,3.22949c0.77,0.79857 1.3253,1.59531 1.6885,2.19341zM4.14365,11.4521c-0.13262,0.2185 -0.23461,0.4057 -0.30859,0.5479c0.07398,0.1422 0.17597,0.3294 0.30859,0.5479c0.31988,0.5268 0.80917,1.2304 1.48535,1.9316c1.34906,1.399 3.41614,2.7705 6.3711,2.7705c2.9549,0 5.022,-1.3715 6.3711,-2.7705c0.6762,-0.7012 1.1655,-1.4048 1.4853,-1.9316c0.1325,-0.2183 0.2337,-0.4057 0.3077,-0.5479c-0.074,-0.1422 -0.1752,-0.3296 -0.3077,-0.5479c-0.3198,-0.5268 -0.8091,-1.2304 -1.4853,-1.93159c-1.3491,-1.39903 -3.4162,-2.77051 -6.3711,-2.77051c-2.95496,0 -5.02204,1.37148 -6.3711,2.77051c-0.67618,0.70119 -1.16547,1.40479 -1.48535,1.93159zM9.75009,12c0,1.2426 1.00741,2.25 2.25001,2.25c1.2426,0 2.25,-1.0074 2.25,-2.25c0,-1.2426 -1.0074,-2.25 -2.25,-2.25c-1.2426,0 -2.25001,1.0074 -2.25001,2.25zM8.25009,12c0,-2.07107 1.67894,-3.75 3.75001,-3.75c2.0711,0 3.75,1.67893 3.75,3.75c0,2.0711 -1.6789,3.75 -3.75,3.75c-2.07107,0 -3.75001,-1.6789 -3.75001,-3.75z" fill="#002B51"/>
</svg>
