<svg width="24" height="24" viewBox="0 0 24 24" fill="none" xmlns="http://www.w3.org/2000/svg">
<path d="M12.0001,5.25c3.4735,0 5.9064,1.62857 7.4502,3.22949c0.77,0.79857 1.3253,1.59531 1.6885,2.19341c0.1819,0.2997 0.3175,0.5519 0.4082,0.7314c0.0452,0.0896 0.0788,0.1619 0.1025,0.2129c0.0118,0.0254 0.0218,0.0458 0.0283,0.0605c0.0032,0.0072 0.0059,0.0132 0.0078,0.0176c0.001,0.0022 0.0013,0.0043 0.002,0.0059l0.001,0.0019l0.0009,0.001l0.0264,0.0723c0.0455,0.1456 0.0455,0.3016 0,0.4472l-0.0264,0.0723l-0.0009,0.001l-0.001,0.0019c-0.0007,0.0016 -0.001,0.0037 -0.002,0.0059c-0.0019,0.0044 -0.0046,0.0104 -0.0078,0.0176c-0.0065,0.0147 -0.0165,0.0351 -0.0283,0.0605c-0.0237,0.051 -0.0573,0.1233 -0.1025,0.2129c-0.0907,0.1795 -0.2263,0.4317 -0.4082,0.7314c-0.3632,0.5981 -0.9185,1.3948 -1.6885,2.1934c-1.5438,1.6009 -3.9767,3.2295 -7.4502,3.2295c-3.47351,0 -5.9064,-1.6286 -7.4502,-3.2295c-0.77005,-0.7986 -1.32533,-1.5953 -1.68848,-2.1934c-0.18196,-0.2997 -0.31755,-0.5519 -0.4082,-0.7314c-0.04526,-0.0896 -0.07888,-0.1619 -0.10254,-0.2129c-0.01181,-0.0254 -0.02176,-0.0458 -0.02832,-0.0605c-0.0032,-0.0072 -0.00586,-0.0132 -0.00781,-0.0176c-0.00098,-0.0022 -0.0013,-0.0043 -0.00196,-0.0059l-0.00097,-0.0019l-0.00098,-0.001c-0.08085,-0.1887 -0.08085,-0.4031 0,-0.5918l0.00098,-0.001l0.00097,-0.0019c0.00066,-0.0016 0.00098,-0.0037 0.00196,-0.0059c0.00195,-0.0044 0.00461,-0.0104 0.00781,-0.0176c0.00656,-0.0147 0.01651,-0.0351 0.02832,-0.0605c0.02366,-0.051 0.05728,-0.1233 0.10254,-0.2129c0.09065,-0.1795 0.22624,-0.4317 0.4082,-0.7314c0.36315,-0.5981 0.91843,-1.39484 1.68848,-2.19341c1.5438,-1.60092 3.97669,-3.22949 7.4502,-3.22949zM12.0001,9c-1.6569,0 -3.00001,1.3431 -3.00001,3c0,1.6569 1.34311,3 3.00001,3c1.6568,0 3,-1.3431 3,-3c0,-1.6569 -1.3432,-3 -3,-3z" fill="#002B51"/>
</svg>
