<svg width="24" height="24" viewBox="0 0 24 24" fill="none" xmlns="http://www.w3.org/2000/svg">
<path fill-rule="evenodd" clip-rule="evenodd" d="M12 5.25C8.52638 5.25 6.0932 6.87843 4.5494 8.4794C3.77919 9.27814 3.22429 10.0751 2.86114 10.6733C2.67918 10.973 2.54425 11.2246 2.4536 11.404C2.40824 11.4938 2.37389 11.5657 2.35019 11.6168C2.33834 11.6423 2.32915 11.6626 2.32257 11.6774L2.31466 11.6953L2.31217 11.701L2.31128 11.7031L2.31093 11.7039C2.31078 11.7042 2.31064 11.7046 3 12L2.31064 11.7046C2.22979 11.8932 2.22979 12.1068 2.31064 12.2954L3 12C2.31064 12.2954 2.31078 12.2958 2.31093 12.2961L2.31128 12.2969L2.31217 12.299L2.31466 12.3047L2.32257 12.3226C2.32915 12.3374 2.33834 12.3577 2.35019 12.3832C2.37389 12.4343 2.40824 12.5062 2.4536 12.596C2.54425 12.7754 2.67918 13.027 2.86114 13.3267C3.22429 13.9249 3.77919 14.7219 4.5494 15.5206C6.0932 17.1216 8.52638 18.75 12 18.75C15.4736 18.75 17.9068 17.1216 19.4506 15.5206C20.2208 14.7219 20.7757 13.9249 21.1389 13.3267C21.3208 13.027 21.4557 12.7754 21.5464 12.596C21.5918 12.5062 21.6261 12.4343 21.6498 12.3832C21.6558 12.3703 21.6611 12.3587 21.6658 12.3485C21.6703 12.3385 21.6742 12.3299 21.6774 12.3226L21.6853 12.3047L21.6878 12.299L21.6887 12.2969L21.6891 12.2961C21.6892 12.2958 21.6894 12.2954 21 12L21.6894 12.2954C21.7702 12.1068 21.7702 11.8932 21.6894 11.7046L21 12C21.6894 11.7046 21.6892 11.7042 21.6891 11.7039L21.6887 11.7031L21.6878 11.701L21.6853 11.6953L21.6774 11.6774C21.6709 11.6626 21.6617 11.6423 21.6498 11.6168C21.6261 11.5657 21.5918 11.4938 21.5464 11.404C21.4557 11.2246 21.3208 10.973 21.1389 10.6733C20.7757 10.0751 20.2208 9.27814 19.4506 8.4794C17.9068 6.87843 15.4736 5.25 12 5.25ZM12 15C13.6569 15 15 13.6569 15 12C15 10.3431 13.6569 9 12 9C10.3431 9 9 10.3431 9 12C9 13.6569 10.3431 15 12 15Z" fill="#002B51"/>
</svg>
