<svg width="24" height="24" viewBox="0 0 24 24" fill="none" xmlns="http://www.w3.org/2000/svg">
<path d="M20.3289,11.6649c0.1852,-0.3703 0.6355,-0.5207 1.0059,-0.336c0.3703,0.1852 0.5208,0.6355 0.3359,1.0059c-0.2476,0.4952 -0.9241,1.8432 -2.2763,3.1279l2.2158,3.1016l0.041,0.0644c0.1886,0.3301 0.1002,0.7558 -0.2158,0.9815c-0.3371,0.2405 -0.8052,0.1621 -1.0459,-0.1748l-2.1582,-3.0215c-0.8216,0.5727 -1.814,1.0748 -3.0039,1.4092l0.0127,0.0537l0.5,3l0.0087,0.0761c0.0242,0.3793 -0.243,0.7233 -0.6259,0.7872c-0.3829,0.0635 -0.7467,-0.1754 -0.8467,-0.542l-0.0166,-0.0752l-0.499,-2.9932c-0.5514,0.077 -1.1377,0.1201 -1.7608,0.1201c-0.6233,0 -1.2093,-0.045 -1.7607,-0.1221l-0.49904,2.9952c-0.06808,0.4084 -0.45483,0.6851 -0.86329,0.6172c-0.40836,-0.0682 -0.68507,-0.4549 -0.61718,-0.8633l0.5,-3c0.00304,-0.0183 0.00743,-0.0361 0.01172,-0.0537c-1.18973,-0.3345 -2.18153,-0.8375 -3.00293,-1.4102l-2.15821,3.0225c-0.24069,0.3369 -0.70886,0.4153 -1.0459,0.1748c-0.33679,-0.2408 -0.41527,-0.709 -0.1748,-1.0459l2.21484,-3.1016c-0.99406,-0.9446 -1.62303,-1.9233 -1.98437,-2.5723l-0.29102,-0.5556l-0.03027,-0.0703c-0.13448,-0.3553 0.01908,-0.762 0.36621,-0.9356c0.34711,-0.1733 0.76428,-0.0521 0.96777,0.2686l0.03809,0.0674l0.25684,0.4912c0.79255,1.4289 3.00414,4.5936 8.07224,4.5937c5.7911,0 7.8526,-4.1318 8.3291,-5.0849z" fill="#002B51"/>
</svg>
