<svg width="24" height="24" viewBox="0 0 24 24" fill="none" xmlns="http://www.w3.org/2000/svg">
<path fill-rule="evenodd" clip-rule="evenodd" d="M19.9454,11.329c0.3391,-0.5346 1.0346,-0.7363 1.6132,-0.4472c0.5789,0.2894 0.8349,0.9672 0.6104,1.5595l-0.0508,0.1172c-0.2357,0.4715 -0.8578,1.7122 -2.0681,2.9603l1.9675,2.7546l0.0684,0.1074c0.3145,0.5502 0.1674,1.2604 -0.3594,1.6367c-0.5265,0.376 -1.2456,0.285 -1.6641,-0.1904l-0.08,-0.1006l-1.8773,-2.6282c-0.6685,0.4201 -1.4343,0.7933 -2.3081,1.0782l0.4363,2.6184l0.0147,0.1269c0.0403,0.6322 -0.4047,1.2051 -1.043,1.3115c-0.6384,0.1062 -1.2446,-0.2919 -1.4111,-0.9033l-0.0274,-0.125l-0.4201,-2.5208c-0.4294,0.0429 -0.878,0.0657 -1.3465,0.0657c-0.4684,0 -0.917,-0.0228 -1.3464,-0.0656l-0.4202,2.5207c-0.1134,0.6808 -0.75765,1.1415 -1.43844,1.0283c-0.6808,-0.1134 -1.14152,-0.7577 -1.02832,-1.4384l0.43639,-2.6184c-0.8739,-0.2849 -1.63963,-0.6581 -2.30816,-1.0782l-1.87725,2.6282c-0.40122,0.5617 -1.18239,0.6921 -1.74414,0.291c-0.5617,-0.4012 -0.69212,-1.1824 -0.29102,-1.7441l1.96756,-2.7546c-1.03679,-1.0692 -1.64185,-2.1329 -1.94216,-2.7122l-0.12598,-0.2481l-0.05078,-0.1172c-0.22449,-0.5923 0.03154,-1.2701 0.61035,-1.5595c0.57862,-0.2891 1.2741,-0.0874 1.61329,0.4472l0.06347,0.1123l0.2461,0.4707c0.75393,1.3612 2.8354,4.3379 7.63569,4.3379c5.4777,0 7.4155,-3.8757 7.8798,-4.8045l0.0021,-0.0041z" fill="#002B51"/>
</svg>
