<svg width="24" height="24" viewBox="0 0 24 24" fill="none" xmlns="http://www.w3.org/2000/svg">
<path d="M20.3668,11.5975c0.2034,-0.3208 0.6206,-0.4418 0.9677,-0.2686c0.3473,0.1736 0.5008,0.5802 0.3663,0.9356l-0.0303,0.0703c-0.2476,0.4952 -0.9241,1.8432 -2.2764,3.1279l2.2158,3.1016l0.041,0.0644c0.1886,0.3301 0.1002,0.7558 -0.2158,0.9815c-0.3159,0.2254 -0.747,0.171 -0.998,-0.1143l-0.0479,-0.0605l-2.1582,-3.0215c-0.8215,0.5727 -1.814,1.0748 -3.0039,1.4092l0.0127,0.0537l0.5,3l0.0088,0.0761c0.0242,0.3793 -0.243,0.7233 -0.626,0.7872c-0.3829,0.0635 -0.7467,-0.1754 -0.8467,-0.542l-0.0166,-0.0752l-0.499,-2.9932c-0.5513,0.077 -1.1376,0.1201 -1.7607,0.1201c-0.6233,0 -1.2093,-0.045 -1.7608,-0.122l-0.49899,2.9951c-0.06807,0.4084 -0.45482,0.6851 -0.86328,0.6172c-0.40836,-0.0682 -0.68507,-0.4549 -0.61718,-0.8633l0.5,-3c0.00304,-0.0182 0.00743,-0.0361 0.01171,-0.0537c-1.18972,-0.3345 -2.18152,-0.8375 -3.00293,-1.4102l-2.1582,3.0225c-0.24069,0.3369 -0.70886,0.4153 -1.0459,0.1748c-0.33679,-0.2408 -0.41527,-0.709 -0.1748,-1.0459l2.21484,-3.1016c-0.99406,-0.9446 -1.62303,-1.9233 -1.98437,-2.5723l-0.29102,-0.5556l-0.03027,-0.0703c-0.13448,-0.3553 0.01908,-0.762 0.36621,-0.9356c0.34711,-0.1733 0.76428,-0.0521 0.96777,0.2686l0.03809,0.0674l0.25683,0.4912c0.79256,1.4289 3.00415,4.5936 8.07229,4.5937c5.7911,0 7.8525,-4.1318 8.3291,-5.0849z" fill="#002B51"/>
</svg>
