<svg width="24" height="24" viewBox="0 0 24 24" fill="none" xmlns="http://www.w3.org/2000/svg">
<path fill-rule="evenodd" clip-rule="evenodd" d="M20.3672,11.5976c0.2034,-0.3208 0.6206,-0.4419 0.9678,-0.2685c0.3472,0.1736 0.5008,0.5802 0.3662,0.9355l-0.0303,0.0704c-0.2476,0.4952 -0.9232,1.844 -2.2754,3.1287l2.2149,3.1007l0.041,0.0645c0.1885,0.3301 0.1001,0.7557 -0.2159,0.9814c-0.3159,0.2255 -0.747,0.1711 -0.998,-0.1142l-0.0479,-0.0606l-2.1581,-3.0213c-0.8213,0.5726 -1.8131,1.0768 -3.0027,1.4112l0.0114,0.0515l0.5,3l0.0088,0.0762c0.0242,0.3793 -0.243,0.7233 -0.626,0.7871c-0.3829,0.0637 -0.7466,-0.1753 -0.8466,-0.542l-0.0166,-0.0752l-0.4987,-2.9921c-0.5515,0.0771 -1.1379,0.1191 -1.7611,0.1191c-0.6233,0 -1.2096,-0.042 -1.7611,-0.1191l-0.49867,2.9921c-0.06807,0.4085 -0.45482,0.6851 -0.86328,0.6172c-0.40847,-0.0681 -0.68509,-0.4548 -0.61718,-0.8633l0.5,-3c0.00291,-0.0175 0.00642,-0.0347 0.01048,-0.0517c-1.18922,-0.3344 -2.18069,-0.8385 -3.00187,-1.4109l-2.15803,3.0212c-0.24069,0.337 -0.70886,0.4154 -1.0459,0.1748c-0.33696,-0.2406 -0.41532,-0.7088 -0.1748,-1.0459l2.21474,-3.1006c-0.99441,-0.9447 -1.62286,-1.9241 -1.98427,-2.5732l-0.29102,-0.5556l-0.03027,-0.0704c-0.13463,-0.3553 0.01895,-0.7619 0.36621,-0.9355c0.34719,-0.1734 0.76432,-0.0523 0.96777,0.2685l0.03809,0.0674l0.25683,0.4912c0.79257,1.429 3.00402,4.5938 8.07227,4.5938c5.7866,0 7.8494,-4.1255 8.328,-5.0828l0.0011,-0.0022z" fill="#002B51"/>
</svg>
