<svg width="24" height="24" viewBox="0 0 24 24" fill="none" xmlns="http://www.w3.org/2000/svg">
<path d="M2.44116,10.8816c0.57851,-0.289 1.27402,-0.0872 1.61328,0.4472l0.06348,0.1123l0.24609,0.4707c0.75392,1.3612 2.83561,4.3378 7.63579,4.3379c5.4857,0 7.4211,-3.8872 7.8818,-4.8086c0.3086,-0.6171 1.0594,-0.8677 1.6767,-0.5595c0.6174,0.3086 0.868,1.0593 0.5596,1.6767c-0.2357,0.4714 -0.858,1.7119 -2.0683,2.96l1.9677,2.7549l0.0684,0.1074c0.3145,0.5502 0.1674,1.2604 -0.3594,1.6367c-0.5265,0.3759 -1.2456,0.285 -1.664,-0.1904l-0.0801,-0.1006l-1.878,-2.6289c-0.6685,0.4201 -1.4346,0.7913 -2.3085,1.0762l0.4375,2.621l0.0146,0.127c0.0403,0.6322 -0.4047,1.2051 -1.043,1.3115c-0.6383,0.1061 -1.2446,-0.292 -1.4111,-0.9033l-0.0273,-0.125l-0.4209,-2.5225c-0.4292,0.0429 -0.8776,0.0674 -1.3457,0.0674c-0.4687,0 -0.9171,-0.0254 -1.3467,-0.0683l-0.4199,2.5234c-0.1135,0.6808 -0.75773,1.1415 -1.43852,1.0283c-0.68064,-0.1136 -1.14151,-0.7578 -1.02832,-1.4385l0.43554,-2.6191c-0.87361,-0.2849 -1.6383,-0.6591 -2.30664,-1.0791l-1.87793,2.6299c-0.40121,0.5617 -1.18238,0.6921 -1.74414,0.291c-0.56144,-0.4013 -0.69204,-1.1825 -0.29101,-1.7441l1.96777,-2.7559c-1.0363,-1.0689 -1.64215,-2.1318 -1.94238,-2.7109l-0.12598,-0.2481l-0.05078,-0.1172c-0.22426,-0.5922 0.03172,-1.2702 0.61035,-1.5595z" fill="#002B51"/>
</svg>
