<svg width="24" height="24" viewBox="0 0 24 24" fill="none" xmlns="http://www.w3.org/2000/svg">
<path fill-rule="evenodd" clip-rule="evenodd" d="M2.66457,11.3292c0.37048,-0.1853 0.82099,-0.0351 1.00623,0.3354l0.00134,0.0026c0.4787,0.9575 2.54134,5.0828 8.32786,5.0828c5.7865,0 7.8491,-4.1253 8.3278,-5.0828l0.0014,-0.0026c0.1852,-0.3705 0.6357,-0.5207 1.0062,-0.3354c0.3705,0.1852 0.5206,0.6357 0.3354,1.0062c-0.2476,0.4952 -0.9231,1.8437 -2.2751,3.1283l2.2146,3.1004c0.2407,0.337 0.1627,0.8054 -0.1744,1.0462c-0.337,0.2407 -0.8055,0.1627 -1.0462,-0.1744l-2.1583,-3.0215c-0.8212,0.5724 -1.8127,1.0765 -3.002,1.4109c0.004,0.0168 0.0075,0.034 0.0104,0.0514l0.5,3c0.0681,0.4086 -0.2079,0.795 -0.6165,0.8631c-0.4086,0.0681 -0.795,-0.2079 -0.8631,-0.6165l-0.4988,-2.9924c-0.5515,0.077 -1.138,0.1191 -1.7614,0.1191c-0.6234,0 -1.2099,-0.0421 -1.7615,-0.1191l-0.49872,2.9924c-0.0681,0.4086 -0.45452,0.6846 -0.8631,0.6165c-0.40858,-0.0681 -0.68459,-0.4545 -0.61649,-0.8631l0.5,-3c0.00289,-0.0174 0.00637,-0.0346 0.0104,-0.0514c-1.18931,-0.3344 -2.18084,-0.8385 -3.00207,-1.4109l-2.15824,3.0215c-0.24076,0.3371 -0.70917,0.4151 -1.04623,0.1744c-0.33706,-0.2408 -0.41513,-0.7092 -0.17437,-1.0462l2.21456,-3.1004c-1.352,-1.2846 -2.02749,-2.6331 -2.27508,-3.1283c-0.18524,-0.3705 -0.03507,-0.821 0.33541,-1.0062z" fill="#002B51"/>
</svg>
