<svg width="24" height="24" viewBox="0 0 24 24" fill="none" xmlns="http://www.w3.org/2000/svg">
<path d="M19.9453,11.329c0.3391,-0.5345 1.0347,-0.7361 1.6132,-0.4473c0.5788,0.2894 0.8348,0.9672 0.6104,1.5596l-0.0508,0.1172c-0.2357,0.4714 -0.858,1.7118 -2.0684,2.9599l1.9678,2.7549l0.0684,0.1074c0.3145,0.5502 0.1674,1.2605 -0.3594,1.6367c-0.5265,0.376 -1.2456,0.285 -1.6641,-0.1904l-0.08,-0.1006l-1.878,-2.6289c-0.6685,0.4201 -1.4346,0.7913 -2.3086,1.0762l0.4375,2.6211l0.0147,0.1269c0.0403,0.6322 -0.4047,1.2052 -1.043,1.3116c-0.6383,0.106 -1.2446,-0.2921 -1.4111,-0.9034l-0.0274,-0.125l-0.4209,-2.5224c-0.4292,0.0428 -0.8775,0.0674 -1.3457,0.0674c-0.4686,0 -0.917,-0.0255 -1.3466,-0.0684l-0.42,2.5234c-0.1134,0.6808 -0.75765,1.1416 -1.43844,1.0284c-0.68064,-0.1136 -1.1415,-0.7578 -1.02832,-1.4385l0.43555,-2.6192c-0.87362,-0.2849 -1.6383,-0.659 -2.30664,-1.0791l-1.87793,2.6299c-0.40122,0.5617 -1.18239,0.6921 -1.74414,0.291c-0.56145,-0.4012 -0.69205,-1.1824 -0.29102,-1.7441l1.96777,-2.7559c-1.0363,-1.0689 -1.64215,-2.1318 -1.94238,-2.7109l-0.12598,-0.248l-0.05078,-0.1172c-0.22426,-0.5923 0.03173,-1.2702 0.61036,-1.5596c0.5785,-0.289 1.27402,-0.0871 1.61328,0.4473l0.06347,0.1123l0.2461,0.4707c0.75391,1.3611 2.8356,4.3377 7.6357,4.3379c5.4858,0 7.4212,-3.8873 7.8819,-4.8086z" fill="#002B51"/>
</svg>
