<svg width="24" height="24" viewBox="0 0 24 24" fill="none" xmlns="http://www.w3.org/2000/svg">
<path fill-rule="evenodd" clip-rule="evenodd" d="M4.53033 3.46967C4.23744 3.17678 3.76256 3.17678 3.46967 3.46967C3.17678 3.76256 3.17678 4.23744 3.46967 4.53033L6.0849 7.14556C5.49889 7.56703 4.98822 8.02432 4.5494 8.47939C3.77919 9.27813 3.22429 10.0751 2.86114 10.6733C2.67918 10.973 2.54425 11.2246 2.4536 11.404C2.40824 11.4938 2.37389 11.5657 2.35019 11.6168C2.33834 11.6423 2.32915 11.6626 2.32257 11.6774L2.31466 11.6953L2.31217 11.701L2.31128 11.7031L2.31093 11.7039C2.31078 11.7042 2.31064 11.7046 3 12L2.31064 11.7046C2.22979 11.8932 2.22979 12.1068 2.31064 12.2954L3 12C2.31064 12.2954 2.31078 12.2958 2.31093 12.2961L2.31128 12.2969L2.31217 12.299L2.31466 12.3047L2.32257 12.3226C2.32915 12.3374 2.33834 12.3577 2.35019 12.3832C2.37389 12.4342 2.40824 12.5062 2.4536 12.5959C2.54425 12.7754 2.67918 13.027 2.86114 13.3267C3.22429 13.9248 3.77919 14.7219 4.5494 15.5206C6.0932 17.1216 8.52638 18.75 12 18.75C13.8079 18.75 15.3339 18.3089 16.5995 17.6601L19.4697 20.5303C19.7626 20.8232 20.2374 20.8232 20.5303 20.5303C20.8232 20.2374 20.8232 19.7626 20.5303 19.4697L4.53033 3.46967ZM15.4745 16.5351L14.068 15.1287C13.4752 15.5213 12.7643 15.75 12 15.75C9.92893 15.75 8.25 14.0711 8.25 12C8.25 11.2357 8.47866 10.5248 8.87129 9.93195L7.16165 8.22231C6.57258 8.62229 6.06365 9.07002 5.62917 9.52059C4.95295 10.2219 4.46321 10.9248 4.14332 11.4517C4.01048 11.6705 3.90771 11.8577 3.83368 12C3.90771 12.1423 4.01048 12.3295 4.14332 12.5483C4.46321 13.0751 4.95295 13.7781 5.62917 14.4794C6.97823 15.8784 9.04504 17.25 12 17.25C13.3339 17.25 14.4869 16.9705 15.4745 16.5351ZM9.96927 11.0299C9.82871 11.3237 9.75 11.6526 9.75 12C9.75 13.2426 10.7574 14.25 12 14.25C12.3474 14.25 12.6763 14.1713 12.9701 14.0307L9.96927 11.0299ZM11.3643 8.30365L13.0941 10.0334C13.4598 10.2373 13.7627 10.5402 13.9666 10.9059L15.6963 12.6357C15.7316 12.4291 15.75 12.2167 15.75 12C15.75 9.92892 14.0711 8.24999 12 8.24999C11.7833 8.24999 11.5709 8.26837 11.3643 8.30365ZM18.3708 14.4794C18.238 14.6172 18.0982 14.7547 17.9512 14.8906L19.0125 15.9519C19.1658 15.8087 19.3118 15.6645 19.4506 15.5206C20.2208 14.7219 20.7757 13.9248 21.1389 13.3267C21.3208 13.027 21.4557 12.7754 21.5464 12.5959C21.5918 12.5062 21.6261 12.4342 21.6498 12.3832L21.6658 12.3485L21.6774 12.3226L21.6853 12.3047L21.6878 12.299L21.6887 12.2969L21.6891 12.2961C21.6892 12.2958 21.6894 12.2954 21 12L21.6894 12.2954C21.7702 12.1068 21.7702 11.8932 21.6894 11.7046L21 12C21.6894 11.7046 21.6892 11.7042 21.6891 11.7039L21.6887 11.7031L21.6878 11.701L21.6853 11.6953L21.6774 11.6774C21.6709 11.6626 21.6617 11.6423 21.6498 11.6168C21.6261 11.5657 21.5918 11.4938 21.5464 11.404C21.4557 11.2246 21.3208 10.973 21.1389 10.6733C20.7757 10.0751 20.2208 9.27813 19.4506 8.47939C17.9068 6.87842 15.4736 5.24999 12 5.24999C10.8185 5.24999 9.75736 5.43839 8.81066 5.75002L10.028 6.96739C10.636 6.82861 11.2925 6.74999 12 6.74999C14.955 6.74999 17.0218 8.12156 18.3708 9.52059C19.047 10.2219 19.5368 10.9248 19.8567 11.4517C19.9895 11.6705 20.0923 11.8577 20.1663 12C20.0923 12.1423 19.9895 12.3295 19.8567 12.5483C19.5368 13.0751 19.047 13.7781 18.3708 14.4794Z" fill="#002B51"/>
</svg>
