<svg width="24" height="24" viewBox="0 0 24 24" fill="none" xmlns="http://www.w3.org/2000/svg">
<path d="M3.46979,3.46982c0.27457,-0.27457 0.70933,-0.29196 1.00391,-0.05176l0.05664,0.05176l15.99996,15.99998l0.0518,0.0567c0.2403,0.2945 0.2228,0.7293 -0.0518,1.0039c-0.2746,0.2746 -0.7093,0.292 -1.0039,0.0517l-0.0566,-0.0517l-2.874,-2.8741c-1.2649,0.6491 -2.7885,1.0938 -4.5957,1.0938c-3.47345,-0.0001 -5.90645,-1.6286 -7.45023,-3.2295c-0.77,-0.7985 -1.32534,-1.5953 -1.68847,-2.1934c-0.18195,-0.2996 -0.31756,-0.5519 -0.40821,-0.7314c-0.04524,-0.0896 -0.07888,-0.1619 -0.10254,-0.2129c-0.01179,-0.0254 -0.02176,-0.0458 -0.02832,-0.0605c-0.00319,-0.0072 -0.00587,-0.0132 -0.00781,-0.0176c-0.00095,-0.0022 -0.0013,-0.0044 -0.00195,-0.0059l-0.00098,-0.0019l-0.00098,-0.001c-0.08082,-0.1886 -0.08081,-0.4032 0,-0.5918l0.00098,-0.001l0.00098,-0.0019c0.00065,-0.0015 0.001,-0.0037 0.00195,-0.0059c0.00194,-0.0044 0.00462,-0.0104 0.00781,-0.0176c0.00656,-0.0147 0.01653,-0.0351 0.02832,-0.0605c0.02366,-0.051 0.05731,-0.1233 0.10254,-0.2129c0.09065,-0.1795 0.22627,-0.4318 0.40821,-0.7315c0.36313,-0.598 0.91847,-1.39478 1.68847,-2.19332c0.43877,-0.455 0.94923,-0.91258 1.53516,-1.33398l-2.61524,-2.61524l-0.05175,-0.05664c-0.2402,-0.29458 -0.22281,-0.72934 0.05175,-1.0039zM12.0001,5.25009c3.4734,0 5.9064,1.62859 7.4502,3.22949c0.77,0.79854 1.3253,1.59532 1.6884,2.19332c0.182,0.2997 0.3176,0.552 0.4082,0.7315c0.0453,0.0896 0.0789,0.1619 0.1026,0.2129c0.0118,0.0254 0.0217,0.0458 0.0283,0.0605c0.0032,0.0072 0.0059,0.0131 0.0078,0.0176c0.001,0.0022 0.0013,0.0043 0.002,0.0059l0.0009,0.0019l0.001,0.001l0.0264,0.0723c0.0455,0.1456 0.0455,0.3016 0,0.4472l-0.0264,0.0723l-0.001,0.001l-0.0009,0.0019c-0.0007,0.0015 -0.001,0.0037 -0.002,0.0059c-0.0019,0.0044 -0.0046,0.0104 -0.0078,0.0176c-0.0066,0.0147 -0.0165,0.0351 -0.0283,0.0605c-0.0237,0.051 -0.0573,0.1233 -0.1026,0.2129c-0.0906,0.1795 -0.2262,0.4318 -0.4082,0.7314c-0.3631,0.5981 -0.9184,1.3949 -1.6884,2.1934c-0.1388,0.1439 -0.2862,0.2865 -0.4395,0.4297l-4.0127,-4.0127c-0.0329,-1.6076 -1.3288,-2.90424 -2.9365,-2.93653l-3.25099,-3.25098c0.94668,-0.3117 2.00789,-0.49998 3.18949,-0.5zM9.41804,10.4786c-0.26402,0.4462 -0.41797,0.9654 -0.41797,1.5215c0,1.6568 1.34323,2.9999 3.00003,3c0.5559,0 1.0736,-0.1558 1.5195,-0.4199z" fill="#002B51"/>
</svg>
