<svg width="24" height="24" viewBox="0 0 24 24" fill="none" xmlns="http://www.w3.org/2000/svg">
<path fill-rule="evenodd" clip-rule="evenodd" d="M4.53033 3.4697C4.23744 3.17681 3.76256 3.17681 3.46967 3.4697C3.17678 3.76259 3.17678 4.23747 3.46967 4.53036L6.0849 7.14559C5.49889 7.56706 4.98822 8.02435 4.5494 8.47942C3.77919 9.27816 3.22429 10.0752 2.86114 10.6733C2.67918 10.973 2.54425 11.2246 2.4536 11.4041C2.40824 11.4939 2.37389 11.5658 2.35019 11.6168C2.33834 11.6423 2.32915 11.6627 2.32257 11.6774L2.31466 11.6953L2.31217 11.701L2.31128 11.7031L2.31093 11.7039C2.31078 11.7043 2.31064 11.7046 3 12L2.31064 11.7046C2.22979 11.8932 2.22979 12.1068 2.31064 12.2955L3 12C2.31064 12.2955 2.31078 12.2958 2.31093 12.2961L2.31128 12.297L2.31217 12.299L2.31466 12.3047L2.32257 12.3226C2.32915 12.3374 2.33834 12.3577 2.35019 12.3832C2.37389 12.4343 2.40824 12.5062 2.4536 12.596C2.54425 12.7754 2.67918 13.0271 2.86114 13.3268C3.22429 13.9249 3.77919 14.7219 4.5494 15.5206C6.0932 17.1216 8.52638 18.75 12 18.75C13.8079 18.75 15.3339 18.3089 16.5995 17.6601L19.4697 20.5304C19.7626 20.8233 20.2374 20.8233 20.5303 20.5304C20.8232 20.2375 20.8232 19.7626 20.5303 19.4697L4.53033 3.4697ZM13.524 14.5847L9.41536 10.4761C9.15145 10.9227 9 11.4437 9 12C9 13.6569 10.3431 15 12 15C12.5564 15 13.0773 14.8486 13.524 14.5847ZM12.0612 9.00063C13.6695 9.03284 14.9672 10.3306 14.9994 11.9388L19.0125 15.9519C19.1658 15.8087 19.3118 15.6646 19.4506 15.5206C20.2208 14.7219 20.7757 13.9249 21.1389 13.3268C21.3208 13.0271 21.4557 12.7754 21.5464 12.596C21.5918 12.5062 21.6261 12.4343 21.6498 12.3832L21.6658 12.3485L21.6774 12.3226L21.6853 12.3047L21.6878 12.299L21.6887 12.297L21.6891 12.2961C21.6892 12.2958 21.6894 12.2955 21 12L21.6894 12.2955C21.7702 12.1068 21.7702 11.8932 21.6894 11.7046L21 12C21.6894 11.7046 21.6892 11.7043 21.6891 11.7039L21.6887 11.7031L21.6878 11.701L21.6853 11.6953L21.6774 11.6774C21.6709 11.6627 21.6617 11.6423 21.6498 11.6168C21.6261 11.5658 21.5918 11.4939 21.5464 11.4041C21.4557 11.2246 21.3208 10.973 21.1389 10.6733C20.7757 10.0752 20.2208 9.27816 19.4506 8.47942C17.9068 6.87845 15.4736 5.25002 12 5.25002C10.8185 5.25002 9.75736 5.43842 8.81066 5.75005L12.0612 9.00063Z" fill="#002B51"/>
</svg>
