<svg width="24" height="24" viewBox="0 0 24 24" fill="none" xmlns="http://www.w3.org/2000/svg">
<path fill-rule="evenodd" clip-rule="evenodd" d="M4.53039,3.46987l16.00001,16.00003l0.0517,0.0566c0.2404,0.2946 0.2229,0.7293 -0.0517,1.0039c-0.2746,0.2746 -0.7093,0.2921 -1.0039,0.0518l-0.0567,-0.0518l-2.8704,-2.8704c-1.2654,0.6488 -2.7914,1.09 -4.5993,1.09c-3.47351,0 -5.9064,-1.6285 -7.4502,-3.2295c-0.77005,-0.7985 -1.32533,-1.5952 -1.68848,-2.1933c-0.18196,-0.2997 -0.31755,-0.552 -0.4082,-0.7315c-0.04526,-0.0896 -0.07888,-0.1619 -0.10254,-0.2129l-0.01405,-0.0299c-0.00567,-0.012 -0.01052,-0.0222 -0.01427,-0.0306l-0.00781,-0.0176c-0.00054,-0.0012 -0.00088,-0.0024 -0.00118,-0.0035l-0.00078,-0.0024l-0.00097,-0.0019l-0.00098,-0.001c-0.08085,-0.1886 -0.08085,-0.4031 0,-0.5918l0.00098,-0.001l0.00097,-0.0019l0.00078,-0.0024c0.0003,-0.001 0.00064,-0.0022 0.00118,-0.0035l0.00781,-0.0175c0.00375,-0.0084 0.0086,-0.0187 0.01427,-0.0307l0.01405,-0.0299c0.02366,-0.051 0.05728,-0.1233 0.10254,-0.2129c0.09065,-0.1795 0.22624,-0.4317 0.4082,-0.7314c0.36315,-0.5981 0.91843,-1.39482 1.68848,-2.19339c0.43878,-0.45502 0.94939,-0.91227 1.5353,-1.33373l-2.61536,-2.61536l-0.05175,-0.05664c-0.24031,-0.29458 -0.22285,-0.7293 0.05175,-1.00391c0.27461,-0.2746 0.70933,-0.29206 1.00391,-0.05175zM13.5241,14.5847l-4.10864,-4.1087c-0.26392,0.4467 -0.41537,0.9677 -0.41537,1.524c0,1.6569 1.34311,3 3.00001,3c0.5564,0 1.0773,-0.1514 1.524,-0.4153zM8.81068,5.75016c0.9467,-0.31169 2.00782,-0.50014 3.18942,-0.50014c3.4735,0 5.9064,1.62857 7.4502,3.22949c0.77,0.79857 1.3253,1.59529 1.6885,2.19339c0.1819,0.2997 0.3175,0.5519 0.4082,0.7314c0.0452,0.0896 0.0788,0.1619 0.1025,0.2129l0.014,0.0299h0.0001c0.0056,0.012 0.0105,0.0223 0.0142,0.0307l0.0078,0.0175l0.0008,0.0021c0.0002,0.0005 0.0003,0.0011 0.0005,0.0016c0.0002,0.0008 0.0004,0.0016 0.0007,0.0022l0.001,0.0019l0.0009,0.001l0.0264,0.0723c0.0455,0.1456 0.0455,0.3017 0,0.4473l-0.0264,0.0722l-0.0009,0.001l-0.001,0.0019l-0.0008,0.0024c-0.0003,0.0011 -0.0006,0.0023 -0.0012,0.0035l-0.0078,0.0176l-0.0054,0.0118l-0.0089,0.0189l-0.014,0.0298c-0.0237,0.051 -0.0573,0.1233 -0.1025,0.2129c-0.0907,0.1795 -0.2263,0.4318 -0.4082,0.7315c-0.3632,0.5981 -0.9185,1.3948 -1.6885,2.1933c-0.1388,0.1439 -0.2848,0.2881 -0.438,0.4313l-4.0128,-4.0128c-0.0321,-1.6084 -1.33,-2.90627 -2.9384,-2.93837z" fill="#002B51"/>
</svg>
