<svg width="24" height="24" viewBox="0 0 24 24" fill="none" xmlns="http://www.w3.org/2000/svg">
<path fill-rule="evenodd" clip-rule="evenodd" d="M20.5303,19.4697c0.2929,0.2929 0.2929,0.7678 0,1.0607c-0.2929,0.2929 -0.7677,0.2929 -1.0606,0l-2.8702,-2.8703c-1.2656,0.6488 -2.7916,1.0899 -4.5995,1.0899c-3.47362,0 -5.9068,-1.6284 -7.4506,-3.2294c-0.77021,-0.7987 -1.32511,-1.5957 -1.68826,-2.1938c-0.18196,-0.2997 -0.31689,-0.5514 -0.40754,-0.7308c-0.04536,-0.0898 -0.07971,-0.1617 -0.10341,-0.2128c-0.01185,-0.0255 -0.02104,-0.0458 -0.02762,-0.0606l-0.00791,-0.0179l-0.00249,-0.0057l-0.00089,-0.002l-0.00035,-0.0009c-0.00015,-0.0003 -0.00029,-0.0006 0.68907,-0.2961l-0.68936,0.2955c-0.08085,-0.1887 -0.08085,-0.4023 0,-0.5909l0.68936,0.2954c-0.68936,-0.2954 -0.68922,-0.2957 -0.68907,-0.2961l0.00035,-0.0008l0.00089,-0.0021l0.00249,-0.0057l0.00791,-0.0179c0.00658,-0.0147 0.01577,-0.0351 0.02762,-0.0606c0.0237,-0.051 0.05805,-0.1229 0.10341,-0.2127c0.09065,-0.1795 0.22558,-0.4311 0.40754,-0.7308c0.36315,-0.5981 0.91805,-1.39514 1.68826,-2.19388c0.43882,-0.45507 0.94949,-0.91236 1.5355,-1.33383l-2.61523,-2.61523c-0.29289,-0.29289 -0.29289,-0.76777 0,-1.06066c0.29289,-0.29289 0.76777,-0.29289 1.06066,0zM15.4745,16.5352l-1.4065,-1.4065c-0.5928,0.3927 -1.3037,0.6213 -2.068,0.6213c-2.07107,0 -3.75,-1.6789 -3.75,-3.75c0,-0.7643 0.22866,-1.4752 0.62129,-2.06802l-1.70964,-1.70964c-0.58907,0.39998 -1.098,0.84771 -1.53248,1.29828c-0.67622,0.70128 -1.16596,1.40428 -1.48585,1.93118c-0.13284,0.2187 -0.23561,0.4059 -0.30964,0.5482c0.07403,0.1423 0.1768,0.3295 0.30964,0.5483c0.31989,0.5269 0.80963,1.2299 1.48585,1.9311c1.34906,1.399 3.41587,2.7706 6.37083,2.7706c1.3339,0 2.4869,-0.2795 3.4745,-0.7148zM9.96927,11.03c-0.14056,0.2937 -0.21927,0.6227 -0.21927,0.97c0,1.2427 1.0074,2.25 2.25,2.25c0.3474,0 0.6763,-0.0787 0.9701,-0.2193zM12,8.25002c2.0711,0 3.75,1.67893 3.75,3.74998c0,0.2167 -0.0184,0.4291 -0.0537,0.6357l-1.7297,-1.7297c-0.2039,-0.3657 -0.5068,-0.6687 -0.8725,-0.8725l-1.7298,-1.72982c0.2066,-0.03528 0.419,-0.05366 0.6357,-0.05366zM19.8567,12.5483c0.1328,-0.2188 0.2356,-0.406 0.3096,-0.5483c-0.074,-0.1423 -0.1768,-0.3295 -0.3096,-0.5482c-0.3199,-0.5269 -0.8097,-1.2299 -1.4859,-1.93118c-1.349,-1.39902 -3.4158,-2.7706 -6.3708,-2.7706c-0.7075,0 -1.364,0.07862 -1.972,0.2174l-1.21734,-1.21737c0.9467,-0.31163 2.00784,-0.50003 3.18934,-0.50003c3.4736,0 5.9068,1.62843 7.4506,3.2294c0.7702,0.79874 1.3251,1.59578 1.6883,2.19388c0.1819,0.2997 0.3168,0.5513 0.4075,0.7308c0.0454,0.0898 0.0797,0.1617 0.1034,0.2127c0.0119,0.0255 0.0211,0.0459 0.0276,0.0606l0.0079,0.0179l0.0025,0.0057l0.0009,0.0021l0.0004,0.0008c0.0001,0.0004 0.0003,0.0007 -0.6891,0.2961l0.6894,-0.2954c0.0808,0.1886 0.0808,0.4022 0,0.5909l-0.6894,-0.2955c0.6894,0.2955 0.6892,0.2958 0.6891,0.2961l-0.0004,0.0009l-0.0009,0.002l-0.0025,0.0057l-0.0079,0.0179l-0.0116,0.0259l-0.016,0.0347c-0.0237,0.0511 -0.058,0.123 -0.1034,0.2128c-0.0907,0.1794 -0.2256,0.4311 -0.4075,0.7308c-0.3632,0.5981 -0.9181,1.3951 -1.6883,2.1938c-0.1388,0.144 -0.2848,0.2881 -0.4381,0.4313l-1.0613,-1.0613c0.147,-0.1359 0.2868,-0.2734 0.4196,-0.4112c0.6762,-0.7012 1.166,-1.4042 1.4859,-1.9311z" fill="#002B51"/>
</svg>
