<svg width="24" height="24" viewBox="0 0 24 24" fill="none" xmlns="http://www.w3.org/2000/svg">
<path d="M3.46979,3.46982c0.27457,-0.27457 0.70933,-0.29196 1.00391,-0.05176l0.05664,0.05176l15.99996,15.99998l0.0518,0.0567c0.2403,0.2945 0.2228,0.7293 -0.0518,1.0039c-0.2746,0.2746 -0.7093,0.292 -1.0039,0.0517l-0.0566,-0.0517l-2.874,-2.8741c-1.2649,0.6491 -2.7885,1.0938 -4.5957,1.0938c-3.47345,-0.0001 -5.90645,-1.6286 -7.45023,-3.2295c-0.77,-0.7985 -1.32534,-1.5953 -1.68847,-2.1934c-0.18195,-0.2996 -0.31756,-0.5519 -0.40821,-0.7314c-0.04524,-0.0896 -0.07888,-0.1619 -0.10254,-0.2129c-0.01179,-0.0254 -0.02176,-0.0458 -0.02832,-0.0605c-0.00319,-0.0072 -0.00587,-0.0132 -0.00781,-0.0176c-0.00095,-0.0022 -0.0013,-0.0044 -0.00195,-0.0059l-0.00098,-0.0019l-0.00098,-0.001c-0.08082,-0.1886 -0.08081,-0.4032 0,-0.5918l0.00098,-0.001l0.00098,-0.0019c0.00065,-0.0015 0.001,-0.0037 0.00195,-0.0059c0.00194,-0.0044 0.00462,-0.0104 0.00781,-0.0176c0.00656,-0.0147 0.01653,-0.0351 0.02832,-0.0605c0.02366,-0.051 0.05731,-0.1233 0.10254,-0.2129c0.09065,-0.1795 0.22627,-0.4318 0.40821,-0.7315c0.36313,-0.598 0.91847,-1.39478 1.68847,-2.19332c0.43877,-0.455 0.94923,-0.91258 1.53516,-1.33398l-2.61524,-2.61524l-0.05175,-0.05664c-0.2402,-0.29458 -0.22281,-0.72934 0.05175,-1.0039zM7.16218,8.22275c-0.58933,0.39979 -1.09868,0.84722 -1.53321,1.29785c-0.67613,0.7012 -1.16549,1.4048 -1.48535,1.9316c-0.13259,0.2184 -0.23462,0.4057 -0.30859,0.5479c0.07397,0.1422 0.176,0.3294 0.30859,0.5478c0.31987,0.5269 0.80922,1.2305 1.48535,1.9317c1.34904,1.399 3.41624,2.7704 6.37113,2.7705c1.3331,0 2.4835,-0.2836 3.4707,-0.7188l-1.4033,-1.4033c-0.5926,0.393 -1.3031,0.6221 -2.0674,0.6221c-2.07102,-0.0001 -3.75003,-1.679 -3.75003,-3.75c0,-0.7643 0.22838,-1.4756 0.62109,-2.06837zM12.0001,5.25009c3.4734,0 5.9064,1.62859 7.4502,3.22949c0.77,0.79854 1.3253,1.59532 1.6884,2.19332c0.182,0.2997 0.3176,0.552 0.4082,0.7315c0.0453,0.0896 0.0789,0.1619 0.1026,0.2129c0.0118,0.0254 0.0217,0.0458 0.0283,0.0605c0.0032,0.0072 0.0059,0.0131 0.0078,0.0176c0.001,0.0022 0.0013,0.0043 0.002,0.0059l0.0009,0.0019l0.001,0.001l0.0264,0.0723c0.0455,0.1456 0.0455,0.3016 0,0.4472l-0.0264,0.0723l-0.001,0.001l-0.0009,0.0019c-0.0007,0.0015 -0.001,0.0037 -0.002,0.0059c-0.0019,0.0044 -0.0046,0.0104 -0.0078,0.0176c-0.0066,0.0147 -0.0165,0.0351 -0.0283,0.0605c-0.0237,0.051 -0.0573,0.1233 -0.1026,0.2129c-0.0906,0.1795 -0.2262,0.4318 -0.4082,0.7314c-0.3631,0.5981 -0.9184,1.3949 -1.6884,2.1934c-0.1388,0.1439 -0.2862,0.2865 -0.4395,0.4297l-1.0615,-1.0615c0.147,-0.136 0.289,-0.2714 0.4219,-0.4092c0.6761,-0.7012 1.1654,-1.4048 1.4853,-1.9317c0.1325,-0.2182 0.2337,-0.4057 0.3076,-0.5478c-0.0739,-0.1422 -0.1751,-0.3297 -0.3076,-0.5479c-0.3199,-0.5268 -0.8092,-1.2304 -1.4853,-1.9316c-1.3491,-1.399 -3.4162,-2.77051 -6.3711,-2.77051c-0.7071,0.00001 -1.363,0.0801 -1.9707,0.21875l-1.21879,-1.21875c0.94668,-0.3117 2.00789,-0.49998 3.18949,-0.5zM9.97175,11.0323c-0.14059,0.2933 -0.22168,0.6207 -0.22168,0.9678c0,1.2426 1.00743,2.2499 2.25003,2.25c0.3469,0 0.6738,-0.0819 0.9668,-0.2227zM12.0001,8.25009c2.071,0 3.75,1.67893 3.75,3.75001c0,0.2164 -0.0195,0.4284 -0.0547,0.6348l-1.7324,-1.7325c-0.2033,-0.3627 -0.5034,-0.6631 -0.8663,-0.8662l-1.7324,-1.7324c0.2066,-0.03529 0.4191,-0.0537 0.6358,-0.05371z" fill="#002B51"/>
</svg>
