<svg width="24" height="24" viewBox="0 0 24 24" fill="none" xmlns="http://www.w3.org/2000/svg">
<path fill-rule="evenodd" clip-rule="evenodd" d="M20.5303,19.4697c0.2929,0.2929 0.2929,0.7678 0,1.0607c-0.2929,0.2929 -0.7677,0.2929 -1.0606,0l-2.8702,-2.8703c-1.2656,0.6488 -2.7916,1.0899 -4.5995,1.0899c-3.47362,0 -5.9068,-1.6284 -7.4506,-3.2294c-0.77021,-0.7987 -1.32511,-1.5957 -1.68826,-2.1938c-0.18196,-0.2997 -0.31689,-0.5514 -0.40754,-0.7308c-0.04536,-0.0898 -0.07971,-0.1617 -0.10341,-0.2128c-0.01185,-0.0255 -0.02104,-0.0458 -0.02762,-0.0606l-0.00791,-0.0179l-0.00249,-0.0057l-0.00089,-0.002l-0.00035,-0.0009c-0.00015,-0.0003 -0.00029,-0.0006 0.68907,-0.2961l-0.68936,0.2955c-0.08085,-0.1887 -0.08085,-0.4023 0,-0.5909l0.68936,0.2954c-0.68936,-0.2954 -0.68922,-0.2957 -0.68907,-0.2961l0.00035,-0.0008l0.00089,-0.0021l0.00249,-0.0057l0.00791,-0.0179c0.00658,-0.0147 0.01577,-0.0351 0.02762,-0.0606c0.0237,-0.051 0.05805,-0.1229 0.10341,-0.2127c0.09065,-0.1795 0.22558,-0.4311 0.40754,-0.7308c0.36315,-0.5981 0.91805,-1.39514 1.68826,-2.19388c0.43882,-0.45507 0.94949,-0.91236 1.5355,-1.33383l-2.61523,-2.61523c-0.29289,-0.29289 -0.29289,-0.76777 0,-1.06066c0.29289,-0.29289 0.76777,-0.29289 1.06066,0zM13.524,14.5847l-4.10864,-4.1086c-0.26391,0.4466 -0.41536,0.9676 -0.41536,1.5239c0,1.6569 1.3431,3 3,3c0.5564,0 1.0773,-0.1514 1.524,-0.4153zM8.81066,5.75005c0.9467,-0.31163 2.00784,-0.50003 3.18934,-0.50003c3.4736,0 5.9068,1.62843 7.4506,3.2294c0.7702,0.79874 1.3251,1.59578 1.6883,2.19388c0.1819,0.2997 0.3168,0.5513 0.4075,0.7308c0.0454,0.0898 0.0797,0.1617 0.1034,0.2127c0.0119,0.0255 0.0211,0.0459 0.0276,0.0606l0.0079,0.0179l0.0025,0.0057l0.0009,0.0021l0.0004,0.0008c0.0001,0.0004 0.0003,0.0007 -0.6891,0.2961l0.6894,-0.2954c0.0808,0.1886 0.0808,0.4022 0,0.5909l-0.6894,-0.2955c0.6894,0.2955 0.6892,0.2958 0.6891,0.2961l-0.0004,0.0009l-0.0009,0.002l-0.0025,0.0057l-0.0079,0.0179l-0.0116,0.0259l-0.016,0.0347c-0.0237,0.0511 -0.058,0.123 -0.1034,0.2128c-0.0907,0.1794 -0.2256,0.4311 -0.4075,0.7308c-0.3632,0.5981 -0.9181,1.3951 -1.6883,2.1938c-0.1388,0.144 -0.2848,0.2881 -0.4381,0.4313l-4.0131,-4.0131c-0.0322,-1.6082 -1.3299,-2.90596 -2.9382,-2.93817z" fill="#002B51"/>
</svg>
