<svg width="24" height="24" viewBox="0 0 24 24" fill="none" xmlns="http://www.w3.org/2000/svg">
<path d="M3.46973,3.46976c0.27457,-0.27457 0.70933,-0.29196 1.00391,-0.05176l0.05664,0.05176l16.00002,16.00004l0.0517,0.0566c0.2403,0.2946 0.2229,0.7293 -0.0517,1.0039c-0.2746,0.2746 -0.7093,0.2921 -1.0039,0.0518l-0.0567,-0.0518l-2.874,-2.874c-1.2649,0.6491 -2.7884,1.0937 -4.5957,1.0937c-3.47344,0 -5.9064,-1.6286 -7.45019,-3.2295c-0.77002,-0.7985 -1.32533,-1.5953 -1.68847,-2.1933c-0.18195,-0.2997 -0.31756,-0.552 -0.40821,-0.7315c-0.04524,-0.0896 -0.07888,-0.1619 -0.10254,-0.2129c-0.0118,-0.0254 -0.02176,-0.0458 -0.02832,-0.0605c-0.00319,-0.0072 -0.00586,-0.0131 -0.00781,-0.0176c-0.00096,-0.0022 -0.0013,-0.0043 -0.00195,-0.0058l-0.00098,-0.002l-0.00098,-0.001c-0.08083,-0.1886 -0.08083,-0.4031 0,-0.5918l0.00098,-0.0009l0.00098,-0.002c0.00065,-0.0015 0.00099,-0.0036 0.00195,-0.0059c0.00195,-0.0044 0.00462,-0.0104 0.00781,-0.0175c0.00656,-0.0147 0.01652,-0.0352 0.02832,-0.0606c0.02366,-0.0509 0.0573,-0.1233 0.10254,-0.2129c0.09065,-0.1794 0.22626,-0.4317 0.40821,-0.7314c0.36314,-0.5981 0.91845,-1.39483 1.68847,-2.19338c0.43878,-0.45501 0.94921,-0.91257 1.53516,-1.33398l-2.61524,-2.61524l-0.05175,-0.05664c-0.2402,-0.29458 -0.22281,-0.72934 0.05175,-1.0039zM7.16212,8.22269c-0.58936,0.3998 -1.09866,0.84721 -1.53321,1.29785c-0.67615,0.70126 -1.16548,1.40476 -1.48535,1.93166c-0.1326,0.2184 -0.23462,0.4056 -0.30859,0.5478c0.07398,0.1422 0.17599,0.3295 0.30859,0.5479c0.31987,0.5268 0.8092,1.2304 1.48535,1.9316c1.34905,1.399 3.4162,2.7705 6.37109,2.7705c1.3329,0 2.4827,-0.2846 3.4697,-0.7197l-1.4023,-1.4023c-0.5926,0.3929 -1.3031,0.622 -2.0674,0.622c-2.07101,0 -3.74999,-1.6789 -3.74999,-3.75c0,-0.7643 0.22837,-1.4755 0.62109,-2.06833zM12,5.25003c3.4735,0 5.9064,1.62858 7.4502,3.22949c0.77,0.79855 1.3253,1.59528 1.6885,2.19338c0.1819,0.2997 0.3175,0.552 0.4082,0.7314c0.0452,0.0896 0.0789,0.162 0.1025,0.2129c0.0118,0.0254 0.0218,0.0459 0.0283,0.0606c0.0032,0.0071 0.0059,0.0131 0.0079,0.0175c0.0009,0.0023 0.0013,0.0044 0.0019,0.0059l0.001,0.002l0.001,0.0009l0.0263,0.0723c0.0455,0.1456 0.0455,0.3017 0,0.4473l-0.0263,0.0722l-0.001,0.001l-0.001,0.002c-0.0006,0.0015 -0.001,0.0036 -0.0019,0.0058c-0.002,0.0045 -0.0047,0.0104 -0.0079,0.0176c-0.0065,0.0147 -0.0165,0.0351 -0.0283,0.0605c-0.0236,0.051 -0.0573,0.1233 -0.1025,0.2129c-0.0907,0.1795 -0.2263,0.4318 -0.4082,0.7315c-0.3632,0.5981 -0.9185,1.3948 -1.6885,2.1933c-0.1388,0.144 -0.2862,0.2866 -0.4395,0.4297l-1.0615,-1.0615c0.147,-0.136 0.289,-0.2713 0.4219,-0.4092c0.6762,-0.7012 1.1655,-1.4048 1.4854,-1.9316c0.1324,-0.2182 0.2336,-0.4057 0.3076,-0.5479c-0.074,-0.1421 -0.1752,-0.3296 -0.3076,-0.5478c-0.3199,-0.5269 -0.8092,-1.2304 -1.4854,-1.93166c-1.3491,-1.39901 -3.4162,-2.77051 -6.3711,-2.77051c-0.7071,0.00001 -1.363,0.0801 -1.9707,0.21875l-1.21875,-1.21875c0.9467,-0.3117 2.00795,-0.49999 3.18945,-0.5zM9.97169,11.0323c-0.1406,0.2933 -0.22168,0.6207 -0.22168,0.9677c0,1.2426 1.00739,2.25 2.24999,2.25c0.347,0 0.6738,-0.0818 0.9668,-0.2226zM12,8.25003c2.0711,0 3.75,1.67893 3.75,3.74997c0,0.2165 -0.0195,0.4284 -0.0547,0.6348l-1.7324,-1.7324c-0.2033,-0.3627 -0.5033,-0.6632 -0.8662,-0.8662l-1.7324,-1.73246c0.2066,-0.03529 0.419,-0.0537 0.6357,-0.05371z" fill="#002B51"/>
</svg>
