<svg width="24" height="24" viewBox="0 0 24 24" fill="none" xmlns="http://www.w3.org/2000/svg">
<path fill-rule="evenodd" clip-rule="evenodd" d="M4.5304,3.46987l16,16.00003l0.0518,0.0566c0.2403,0.2946 0.2228,0.7293 -0.0518,1.0039c-0.2746,0.2746 -0.7093,0.2921 -1.0039,0.0518l-0.0566,-0.0518l-2.8705,-2.8704c-1.2654,0.6488 -2.7914,1.09 -4.5993,1.09c-3.4735,0 -5.90639,-1.6285 -7.45019,-3.2295c-0.77005,-0.7985 -1.32533,-1.5952 -1.68848,-2.1933c-0.18196,-0.2997 -0.31755,-0.552 -0.4082,-0.7315c-0.04526,-0.0896 -0.07888,-0.1619 -0.10254,-0.2129l-0.01405,-0.0299c-0.00567,-0.012 -0.01053,-0.0222 -0.01427,-0.0306l-0.00781,-0.0176c-0.00054,-0.0012 -0.00088,-0.0024 -0.00118,-0.0035l-0.00078,-0.0024l-0.00097,-0.0019l-0.00098,-0.001c-0.08086,-0.1886 -0.08086,-0.4031 0,-0.5918l0.00098,-0.001l0.00097,-0.0019l0.00078,-0.0024c0.0003,-0.001 0.00064,-0.0022 0.00118,-0.0035l0.00781,-0.0175c0.00374,-0.0084 0.0086,-0.0187 0.01427,-0.0307l0.01405,-0.0299c0.02366,-0.051 0.05728,-0.1233 0.10254,-0.2129c0.09065,-0.1795 0.22624,-0.4317 0.4082,-0.7314c0.36315,-0.5981 0.91843,-1.39482 1.68848,-2.19339c0.43878,-0.45502 0.94939,-0.91227 1.5353,-1.33373l-2.61536,-2.61536l-0.05176,-0.05664c-0.24031,-0.29458 -0.22284,-0.7293 0.05176,-1.00391c0.27461,-0.2746 0.70933,-0.29206 1.00391,-0.05175zM15.4747,16.5352l-1.4065,-1.4065c-0.5929,0.3927 -1.3038,0.6213 -2.0681,0.6213c-2.07107,0 -3.75,-1.6789 -3.75,-3.75c0,-0.7643 0.22866,-1.4752 0.6213,-2.06803l-1.70976,-1.70976c-0.58914,0.39998 -1.09813,0.84772 -1.53263,1.29832c-0.67618,0.70127 -1.16548,1.40477 -1.48535,1.93167c-0.13262,0.2184 -0.23462,0.4056 -0.3086,0.5478c0.07398,0.1422 0.17598,0.3294 0.3086,0.5479c0.31987,0.5268 0.80917,1.2304 1.48535,1.9316c1.34906,1.399 3.41614,2.7705 6.37109,2.7705c1.3339,0 2.4869,-0.2795 3.4746,-0.7148zM9.96938,11.03c-0.14056,0.2937 -0.21928,0.6227 -0.21928,0.97c0,1.2427 1.0074,2.25 2.25,2.25c0.3474,0 0.6763,-0.0787 0.9701,-0.2193zM12.0001,8.25002c2.0711,0 3.75,1.67893 3.75,3.74998c0,0.2168 -0.0184,0.4292 -0.0537,0.6359l-1.7295,-1.7295c-0.204,-0.366 -0.5071,-0.6692 -0.8731,-0.8732l-1.7296,-1.72949c0.2067,-0.0353 0.4192,-0.05369 0.6359,-0.05369zM19.8565,12.5479c0.1325,-0.2183 0.2337,-0.4057 0.3077,-0.5479c-0.074,-0.1421 -0.1752,-0.3296 -0.3077,-0.5478c-0.3198,-0.5269 -0.8091,-1.2304 -1.4853,-1.93167c-1.3491,-1.39903 -3.4161,-2.77051 -6.3711,-2.77051c-0.7075,0 -1.3641,0.07862 -1.9721,0.21742l-1.21731,-1.21728c0.9467,-0.31169 2.00781,-0.50014 3.18941,-0.50014c3.4735,0 5.9064,1.62857 7.4502,3.22949c0.77,0.79857 1.3253,1.59529 1.6885,2.19339c0.1819,0.2997 0.3175,0.5519 0.4082,0.7314c0.0452,0.0896 0.0789,0.1619 0.1025,0.2129l0.0141,0.0299v0c0.0056,0.012 0.0105,0.0223 0.0142,0.0307l0.0078,0.0175l0.0008,0.0021c0.0002,0.0005 0.0003,0.0011 0.0005,0.0016c0.0002,0.0008 0.0004,0.0016 0.0007,0.0022l0.001,0.0019l0.001,0.001l0.0263,0.0723c0.0455,0.1456 0.0455,0.3017 0,0.4473l-0.0263,0.0722l-0.001,0.001l-0.001,0.0019l-0.0008,0.0024c-0.0003,0.0011 -0.0006,0.0023 -0.0012,0.0035l-0.0078,0.0176l-0.0054,0.0118l-0.0088,0.0189l-0.0141,0.0298c-0.0236,0.051 -0.0573,0.1233 -0.1025,0.2129c-0.0907,0.1795 -0.2263,0.4318 -0.4082,0.7315c-0.3632,0.5981 -0.9185,1.3948 -1.6885,2.1933c-0.1388,0.1439 -0.2848,0.2881 -0.438,0.4313l-1.0609,-1.0609c0.147,-0.136 0.2869,-0.2736 0.4198,-0.4114c0.6762,-0.7012 1.1655,-1.4048 1.4853,-1.9316z" fill="#002B51"/>
</svg>
