<svg width="24" height="24" viewBox="0 0 24 24" fill="none" xmlns="http://www.w3.org/2000/svg">
<path d="M3.46973,3.46976c0.27456,-0.27457 0.70932,-0.29196 1.0039,-0.05176l0.05664,0.05176l16.00003,16.00004l0.0517,0.0566c0.2403,0.2946 0.2229,0.7293 -0.0517,1.0039c-0.2746,0.2746 -0.7094,0.2921 -1.0039,0.0518l-0.0567,-0.0518l-2.874,-2.874c-1.2649,0.6491 -2.7884,1.0937 -4.5957,1.0937c-3.47345,0 -5.90641,-1.6286 -7.4502,-3.2295c-0.77001,-0.7985 -1.32533,-1.5953 -1.68847,-2.1933c-0.18195,-0.2997 -0.31756,-0.552 -0.40821,-0.7315c-0.04524,-0.0896 -0.07888,-0.1619 -0.10253,-0.2129c-0.0118,-0.0254 -0.02177,-0.0458 -0.02832,-0.0605c-0.0032,-0.0072 -0.00587,-0.0131 -0.00782,-0.0176c-0.00096,-0.0022 -0.0013,-0.0043 -0.00195,-0.0058l-0.00098,-0.002l-0.00097,-0.001c-0.08084,-0.1886 -0.08084,-0.4031 0,-0.5918l0.00097,-0.0009l0.00098,-0.002c0.00066,-0.0015 0.00099,-0.0036 0.00195,-0.0059c0.00195,-0.0044 0.00462,-0.0104 0.00782,-0.0175c0.00655,-0.0147 0.01652,-0.0352 0.02832,-0.0606c0.02365,-0.0509 0.05729,-0.1233 0.10253,-0.2129c0.09065,-0.1794 0.22626,-0.4317 0.40821,-0.7314c0.36314,-0.5981 0.91846,-1.39483 1.68847,-2.19338c0.43878,-0.45501 0.94921,-0.91257 1.53516,-1.33398l-2.61523,-2.61524l-0.05176,-0.05664c-0.2402,-0.29458 -0.22281,-0.72934 0.05176,-1.0039zM12,5.25003c3.4735,0 5.9064,1.62858 7.4502,3.22949c0.77,0.79855 1.3253,1.59528 1.6885,2.19338c0.1819,0.2997 0.3175,0.552 0.4082,0.7314c0.0452,0.0896 0.0789,0.162 0.1025,0.2129c0.0118,0.0254 0.0218,0.0459 0.0283,0.0606c0.0032,0.0071 0.0059,0.0131 0.0078,0.0175c0.001,0.0023 0.0014,0.0044 0.002,0.0059l0.001,0.002l0.001,0.0009l0.0263,0.0723c0.0455,0.1456 0.0455,0.3017 0,0.4473l-0.0263,0.0722l-0.001,0.001l-0.001,0.002c-0.0006,0.0015 -0.001,0.0036 -0.002,0.0058c-0.0019,0.0045 -0.0046,0.0104 -0.0078,0.0176c-0.0065,0.0147 -0.0165,0.0351 -0.0283,0.0605c-0.0236,0.051 -0.0573,0.1233 -0.1025,0.2129c-0.0907,0.1795 -0.2263,0.4318 -0.4082,0.7315c-0.3632,0.5981 -0.9185,1.3948 -1.6885,2.1933c-0.1388,0.144 -0.2862,0.2866 -0.4395,0.4297l-4.0127,-4.0127c-0.0328,-1.6075 -1.3288,-2.9042 -2.9365,-2.93649l-3.25095,-3.25098c0.94669,-0.3117 2.00785,-0.49999 3.18945,-0.5zM9.41797,10.4785c-0.26403,0.4463 -0.41797,0.9654 -0.41797,1.5215c0.00001,1.6568 1.3432,3 3,3c0.556,0 1.0737,-0.1557 1.5195,-0.4199z" fill="#002B51"/>
</svg>
