<svg width="24" height="24" viewBox="0 0 24 24" fill="none" xmlns="http://www.w3.org/2000/svg">
<path fill-rule="evenodd" clip-rule="evenodd" d="M7.46973,3.46967c0.29289,-0.29289 0.76777,-0.29289 1.06066,0l2.00001,2c0.1406,0.14065 0.2197,0.33142 0.2197,0.53033v5.25h2.5v-5.25c0,-0.19891 0.079,-0.38968 0.2196,-0.53033l2,-2c0.2929,-0.29289 0.7678,-0.29289 1.0607,0l2,2c0.1406,0.14065 0.2197,0.33142 0.2197,0.53033v5.25h1.25c0.4142,0 0.75,0.3358 0.75,0.75v4c0,0.4142 -0.3358,0.75 -0.75,0.75h-1.25v3.25c0,0.4142 -0.3358,0.75 -0.75,0.75h-4c-0.4143,0 -0.75,-0.3358 -0.75,-0.75v-3.25h-2.5v3.25c0,0.4142 -0.3358,0.75 -0.75,0.75h-4.00004c-0.41421,0 -0.75,-0.3358 -0.75,-0.75v-3.25h-1.25c-0.41421,0 -0.75,-0.3358 -0.75,-0.75v-4c0,-0.4142 0.33579,-0.75 0.75,-0.75h1.25v-5.25c0,-0.19891 0.07902,-0.38968 0.21967,-0.53033zM14.7501,16.75v2.5h2.5v-2.5zM14.0001,15.25h4h1.25v-2.5h-1.25h-4h-4h-4.00004h-1.25v2.5h1.25h4.00004zM14.7501,11.25h2.5v-4.93934l-1.25,-1.25l-1.25,1.25zM8.00006,5.06066l-1.25,1.25v4.93934h2.5v-4.93934zM9.25006,19.25v-2.5h-2.5v2.5z" fill="#002B51"/>
</svg>
