<svg width="24" height="24" viewBox="0 0 24 24" fill="none" xmlns="http://www.w3.org/2000/svg">
<path d="M15.5264,3.41809c0.2946,-0.24031 0.7293,-0.22285 1.0039,0.05175l2,2l0.0938,0.11426c0.0815,0.1223 0.126,0.26686 0.126,0.41602v5.24998h1.25l0.0771,0.0039c0.378,0.0386 0.6729,0.358 0.6729,0.7461v4c0,0.4142 -0.3358,0.75 -0.75,0.75h-1.25v3.25c0,0.4142 -0.3358,0.75 -0.75,0.75h-4c-0.4143,0 -0.75,-0.3358 -0.75,-0.75v-3.25h-2.5v3.25c0,0.4142 -0.3358,0.75 -0.75,0.75h-4.00004c-0.41421,0 -0.75,-0.3358 -0.75,-0.75v-3.25h-1.25c-0.41421,0 -0.75,-0.3358 -0.75,-0.75v-4l0.00391,-0.0771c0.03862,-0.378 0.35792,-0.6729 0.74609,-0.6729h1.25v-5.24998l0.01465,-0.14746c0.02888,-0.14399 0.0997,-0.27744 0.20508,-0.38282l2,-2l0.05664,-0.05175c0.29458,-0.24031 0.7293,-0.22285 1.0039,0.05175l1.99997,2l0.0938,0.11426c0.0815,0.1223 0.126,0.26686 0.126,0.41602v5.24998h2.5v-5.24998l0.0146,-0.14746c0.0289,-0.14399 0.0997,-0.27744 0.2051,-0.38282l2,-2zM6.75006,19.2501h2.5v-2.5h-2.5zM14.7501,16.7501v2.5h2.5v-2.5zM4.75006,15.2501h14.50004v-2.5h-14.50004zM14.7501,6.31066v4.93944h2.5v-4.93944l-1.25,-1.25zM6.75006,6.31066v4.93944h2.5v-4.93944l-1.25,-1.25z" fill="#002B51"/>
</svg>
