<svg width="24" height="24" viewBox="0 0 24 24" fill="none" xmlns="http://www.w3.org/2000/svg">
<path fill-rule="evenodd" clip-rule="evenodd" d="M7,2.25h7c0.1989,0 0.3896,0.07907 0.5303,0.21973l5,5c0.1406,0.14065 0.2197,0.33136 0.2197,0.53027v2.0949c-0.4914,-0.12645 -1.0086,-0.12654 -1.5,-0.0002v-1.3447h-3.25c-0.9665,0 -1.75,-0.7835 -1.75,-1.75v-3.25h-6.25c-0.69036,0 -1.25,0.55964 -1.25,1.25v11.468c-0.54322,-0.0853 -1.05476,-0.04 -1.5,0.0659v-11.5339c0,-1.51878 1.23122,-2.75 2.75,-2.75zM8,14.5c-0.41421,0 -0.75,-0.3358 -0.75,-0.75c0,-0.4142 0.33579,-0.75 0.75,-0.75h6.7577l-1.5,1.5zM17.1895,7.25l-2.4395,-2.43945v2.18945c0,0.13807 0.1119,0.25 0.25,0.25zM12,10c0.4142,0 0.75,0.3358 0.75,0.75c0,0.4142 -0.3358,0.75 -0.75,0.75h-4c-0.41421,0 -0.75,-0.3358 -0.75,-0.75c0,-0.4142 0.33579,-0.75 0.75,-0.75zM18.5264,12.4181c0.2945,-0.2403 0.7293,-0.2229 1.0039,0.0517l2,2l0.0517,0.0567c0.2403,0.2946 0.2229,0.7293 -0.0517,1.0039l-0.9698,0.9697l0.9698,0.9697l0.0517,0.0567c0.2403,0.2946 0.2229,0.7293 -0.0517,1.0039l-2.5,2.5c-0.2929,0.2929 -0.7677,0.2929 -1.0606,0c-0.2929,-0.2929 -0.2929,-0.7677 0,-1.0606l1.9698,-1.9697l-0.4395,-0.4394l-4.9697,4.9697c-0.1407,0.1406 -0.3314,0.2197 -0.5303,0.2197h-2c-0.4142,0 -0.75,-0.3358 -0.75,-0.75v-2l0.0146,-0.1474c0.0289,-0.144 0.0998,-0.2775 0.2051,-0.3829l7,-7zM19,14.0607l-6.25,6.25v0.9394h0.9395l5.2802,-5.2803l0.9698,-0.9697zM3.31494,19.6931c0.29027,-0.3265 0.64947,-0.6387 1.05274,-0.8291c0.38233,-0.1805 0.87713,-0.2808 1.37011,-0.0762l0.09766,0.045l0.16504,0.0947c0.36294,0.2361 0.57397,0.5739 0.70312,0.8691c0.12232,0.2797 0.19723,0.5873 0.25048,0.806l0.01905,0.0778c0.42557,-0.2052 0.96266,-0.4267 1.52735,-0.4267c0.49466,0 0.90711,0.2421 1.20019,0.4619c0.15053,0.1129 0.29753,0.2429 0.43752,0.374l0.3926,0.3838l0.0517,0.0566c0.2402,0.2946 0.2228,0.7294 -0.0517,1.0039c-0.2746,0.2745 -0.70939,0.292 -1.00395,0.0518l-0.05664,-0.0518l-0.35742,-0.3506c-0.11009,-0.1033 -0.21296,-0.1929 -0.3125,-0.2675c-0.09548,-0.0716 -0.16995,-0.1153 -0.22558,-0.1397c-0.04956,-0.0216 -0.07223,-0.0224 -0.07422,-0.0224c-0.21633,0 -0.45773,0.0837 -0.79395,0.2402l-0.37109,0.1807c-0.19275,0.0963 -0.43932,0.1798 -0.71484,0.1543c-0.30409,-0.0283 -0.53954,-0.1788 -0.7002,-0.3624c-0.14351,-0.164 -0.22447,-0.3506 -0.27441,-0.4873c-0.0519,-0.142 -0.09155,-0.2929 -0.12305,-0.4189l-0.022,-0.0884c-0.05889,-0.2372 -0.10317,-0.4155 -0.17234,-0.5737c-0.0535,-0.1223 -0.09959,-0.178 -0.13379,-0.2051l-0.02929,-0.0185c-0.00193,-0.0002 -0.00588,-0.0004 -0.01172,0c-0.0217,0.0014 -0.06962,0.01 -0.14551,0.0459c-0.15923,0.0751 -0.36255,0.2328 -0.57226,0.4687c-0.20504,0.2307 -0.3857,0.5024 -0.51172,0.7607c-0.13274,0.2723 -0.17383,0.466 -0.17383,0.5538c-0.00009,0.4141 -0.33584,0.75 -0.75,0.75c-0.41416,0 -0.74992,-0.3359 -0.75,-0.75c0,-0.4122 0.1466,-0.8438 0.32617,-1.212c0.18642,-0.3821 0.44345,-0.7669 0.73828,-1.0986z" fill="#002B51"/>
</svg>
