<svg width="24" height="24" viewBox="0 0 24 24" fill="none" xmlns="http://www.w3.org/2000/svg">
<path fill-rule="evenodd" clip-rule="evenodd" d="M4.25,5c0,-1.51878 1.23122,-2.75 2.75,-2.75h6.1716c0.0262,0 0.0523,0.00037 0.0784,0.00112v4.74888c0,0.9665 0.7835,1.75 1.75,1.75h4.7489c0.0007,0.0261 0.0011,0.05224 0.0011,0.07843v10.17157c0,1.5188 -1.2312,2.75 -2.75,2.75h-10c-1.51878,0 -2.75,-1.2312 -2.75,-2.75zM15,7.25c-0.1381,0 -0.25,-0.11193 -0.25,-0.25v-4.25192c0.1299,0.09103 0.2525,0.19371 0.3661,0.30738l3.8284,3.82842c0.1137,0.11367 0.2164,0.23625 0.3074,0.36612z" fill="#002B51"/>
</svg>
