<svg width="24" height="24" viewBox="0 0 24 24" fill="none" xmlns="http://www.w3.org/2000/svg">
<path fill-rule="evenodd" clip-rule="evenodd" d="M6 2.25C5.0335 2.25 4.25 3.0335 4.25 4V20C4.25 20.9665 5.0335 21.75 6 21.75H13.0892C12.8878 21.4325 12.713 21.1005 12.5659 20.7573C12.2719 20.6309 12.0022 20.4588 11.7656 20.25H6C5.86193 20.25 5.75 20.1381 5.75 20V4C5.75 3.86193 5.86193 3.75 6 3.75H13.25V7.5C13.25 8.19036 13.8096 8.75 14.5 8.75H18.25V11.0403C18.7483 10.9866 19.2512 10.9865 19.75 11.0403V8C19.75 7.80109 19.671 7.61032 19.5303 7.46967L14.5303 2.46967C14.3897 2.32902 14.1989 2.25 14 2.25H6ZM10.7915 17.5C10.8872 16.9292 11.1442 16.4131 11.5139 16H8C7.58579 16 7.25 16.3358 7.25 16.75C7.25 17.1642 7.58579 17.5 8 17.5H10.7915ZM13.319 13.9103C13.5543 13.5834 13.8161 13.2791 14.101 13H8C7.58579 13 7.25 13.3358 7.25 13.75C7.25 14.1642 7.58579 14.5 8 14.5H12.9378C13.0546 14.2978 13.1817 14.101 13.319 13.9103ZM17.1893 7.25L14.75 4.81066V7.25H17.1893ZM8 10C7.58579 10 7.25 10.3358 7.25 10.75C7.25 11.1642 7.58579 11.5 8 11.5H12C12.4142 11.5 12.75 11.1642 12.75 10.75C12.75 10.3358 12.4142 10 12 10H8ZM19.9421 14.8895C19.2936 14.6931 18.5999 14.7043 17.958 14.9216C17.3162 15.1388 16.7583 15.5513 16.3624 16.1012C16.1127 16.4481 15.9353 16.8388 15.8377 17.25H19.0527C19.4669 17.25 19.8027 17.5858 19.8027 18C19.8027 18.4142 19.4669 18.75 19.0527 18.75H15.8377C15.9335 19.1539 16.1063 19.538 16.3492 19.8804C16.7413 20.433 17.2962 20.8494 17.9366 21.0711C18.5769 21.2928 19.2705 21.3089 19.9203 21.117C20.5702 20.9251 21.1439 20.5349 21.561 20.0009C21.8161 19.6745 22.2874 19.6166 22.6138 19.8716C22.9402 20.1267 22.9981 20.598 22.7431 20.9244C22.1333 21.7048 21.2949 22.2751 20.3451 22.5556C19.3953 22.836 18.3816 22.8126 17.4457 22.4885C16.5099 22.1644 15.6987 21.556 15.1258 20.7482C14.702 20.1508 14.4242 19.4665 14.3096 18.75H13.75C13.3358 18.75 13 18.4142 13 18C13 17.5858 13.3358 17.25 13.75 17.25H14.3096C14.4259 16.5224 14.7106 15.8283 15.145 15.2248C15.7237 14.4211 16.539 13.8183 17.4771 13.5008C18.4152 13.1832 19.429 13.1669 20.3769 13.4539C21.3247 13.741 22.1591 14.3172 22.7634 15.1018C23.0161 15.43 22.955 15.9009 22.6268 16.1536C22.2986 16.4064 21.8277 16.3452 21.575 16.017C21.1615 15.4802 20.5906 15.086 19.9421 14.8895Z" fill="#002B51"/>
</svg>
