<svg width="24" height="24" viewBox="0 0 24 24" fill="none" xmlns="http://www.w3.org/2000/svg">
<path fill-rule="evenodd" clip-rule="evenodd" d="M13.1716,2.25c0.0262,0 0.0523,0.00037 0.0784,0.00112v4.74888c0,0.9665 0.7835,1.75 1.75,1.75h4.7489c0.0007,0.0261 0.0011,0.05224 0.0011,0.07843v10.17157c0,1.5188 -1.2312,2.75 -2.75,2.75h-10c-1.51878,0 -2.75,-1.2312 -2.75,-2.75v-14c0,-1.51878 1.23122,-2.75 2.75,-2.75zM18.9445,6.88388c0.1137,0.11367 0.2164,0.23625 0.3074,0.36612h-4.2519c-0.1381,0 -0.25,-0.11193 -0.25,-0.25v-4.25192c0.1299,0.09103 0.2525,0.19371 0.3661,0.30738zM8,10c-0.41421,0 -0.75,0.3358 -0.75,0.75c0,0.4142 0.33579,0.75 0.75,0.75h4c0.4142,0 0.75,-0.3358 0.75,-0.75c0,-0.4142 -0.3358,-0.75 -0.75,-0.75zM8,14.5h8c0.4142,0 0.75,-0.3358 0.75,-0.75c0,-0.4142 -0.3358,-0.75 -0.75,-0.75h-8c-0.41421,0 -0.75,0.3358 -0.75,0.75c0,0.4142 0.33579,0.75 0.75,0.75zM8,16c-0.41421,0 -0.75,0.3358 -0.75,0.75c0,0.4142 0.33579,0.75 0.75,0.75h6c0.4142,0 0.75,-0.3358 0.75,-0.75c0,-0.4142 -0.3358,-0.75 -0.75,-0.75z" fill="#002B51"/>
</svg>
