<svg width="24" height="24" viewBox="0 0 24 24" fill="none" xmlns="http://www.w3.org/2000/svg">
<path d="M14,2.25c0.1989,0 0.3896,0.07907 0.5303,0.21973l5,5c0.1406,0.14065 0.2197,0.33136 0.2197,0.53027v11c0,1.5188 -1.2312,2.75 -2.75,2.75h-10c-1.51878,0 -2.75,-1.2312 -2.75,-2.75v-14c0,-1.51878 1.23122,-2.75 2.75,-2.75zM7,3.75c-0.69036,0 -1.25,0.55964 -1.25,1.25v14c0,0.6904 0.55964,1.25 1.25,1.25h10c0.6904,0 1.25,-0.5596 1.25,-1.25v-10.25h-3.25c-0.9665,0 -1.75,-0.7835 -1.75,-1.75v-3.25zM14.75,7c0,0.13807 0.1119,0.25 0.25,0.25h2.1895l-2.4395,-2.43945z" fill="#002B51"/>
</svg>
