<svg width="24" height="24" viewBox="0 0 24 24" fill="none" xmlns="http://www.w3.org/2000/svg">
<path fill-rule="evenodd" clip-rule="evenodd" d="M4.25,4c0,-0.9665 0.7835,-1.75 1.75,-1.75h8c0.1989,0 0.3897,0.07902 0.5303,0.21967l5,5c0.1407,0.14065 0.2197,0.33142 0.2197,0.53033v12c0,0.9665 -0.7835,1.75 -1.75,1.75h-12c-0.9665,0 -1.75,-0.7835 -1.75,-1.75zM6,3.75c-0.13807,0 -0.25,0.11193 -0.25,0.25v16c0,0.1381 0.11193,0.25 0.25,0.25h12c0.1381,0 0.25,-0.1119 0.25,-0.25v-11.25h-3.75c-0.6904,0 -1.25,-0.55964 -1.25,-1.25v-3.75zM14.75,7.25h2.4393l-2.4393,-2.43934z" fill="#002B51"/>
</svg>
