<svg width="24" height="24" viewBox="0 0 24 24" fill="none" xmlns="http://www.w3.org/2000/svg">
<path fill-rule="evenodd" clip-rule="evenodd" d="M13.25,2.25v5.25c0,0.69036 0.5596,1.25 1.25,1.25h5.25v11.25c0,0.9665 -0.7835,1.75 -1.75,1.75h-12c-0.9665,0 -1.75,-0.7835 -1.75,-1.75v-16c0,-0.9665 0.7835,-1.75 1.75,-1.75zM19.2374,7.17678c0.0238,0.0238 0.0469,0.04822 0.0692,0.07322h-4.5566v-4.55657c0.025,0.02228 0.0494,0.04533 0.0732,0.06913zM8,10c-0.41421,0 -0.75,0.3358 -0.75,0.75c0,0.4142 0.33579,0.75 0.75,0.75h4c0.4142,0 0.75,-0.3358 0.75,-0.75c0,-0.4142 -0.3358,-0.75 -0.75,-0.75zM8,14.5h8c0.4142,0 0.75,-0.3358 0.75,-0.75c0,-0.4142 -0.3358,-0.75 -0.75,-0.75h-8c-0.41421,0 -0.75,0.3358 -0.75,0.75c0,0.4142 0.33579,0.75 0.75,0.75zM8,16c-0.41421,0 -0.75,0.3358 -0.75,0.75c0,0.4142 0.33579,0.75 0.75,0.75h6c0.4142,0 0.75,-0.3358 0.75,-0.75c0,-0.4142 -0.3358,-0.75 -0.75,-0.75z" fill="#002B51"/>
</svg>
