<svg width="24" height="24" viewBox="0 0 24 24" fill="none" xmlns="http://www.w3.org/2000/svg">
<path d="M4.36768,18.8643c0.38233,-0.1806 0.87713,-0.2808 1.37011,-0.0762l0.09766,0.0449l0.16504,0.0947c0.36283,0.2361 0.57399,0.574 0.70312,0.8692c0.13757,0.3146 0.21529,0.6649 0.26953,0.8838c0.42557,-0.2053 0.96266,-0.4268 1.52735,-0.4268c0.49466,0 0.90711,0.2421 1.20019,0.4619c0.15047,0.1129 0.29759,0.243 0.43752,0.374l0.3926,0.3838l0.0517,0.0567c0.24,0.2945 0.2228,0.7294 -0.0517,1.0039c-0.2746,0.2742 -0.70947,0.2917 -1.00394,0.0517l-0.05665,-0.0517l-0.35742,-0.3506c-0.11002,-0.1033 -0.21302,-0.193 -0.3125,-0.2676c-0.0954,-0.0715 -0.16996,-0.1153 -0.22558,-0.1396c-0.04946,-0.0216 -0.07215,-0.0224 -0.07422,-0.0225c-0.21633,0 -0.45773,0.0837 -0.79395,0.2402l-0.37109,0.1807c-0.19272,0.0963 -0.43941,0.1799 -0.71484,0.1543c-0.30397,-0.0283 -0.53954,-0.1789 -0.7002,-0.3623c-0.14339,-0.1639 -0.22446,-0.3507 -0.27441,-0.4873c-0.05185,-0.1419 -0.09157,-0.293 -0.12305,-0.419c-0.07053,-0.2821 -0.11692,-0.4849 -0.19434,-0.6621c-0.0534,-0.122 -0.0996,-0.1779 -0.13379,-0.205l-0.02929,-0.0186c-0.00193,-0.0002 -0.00588,-0.0004 -0.01172,0c-0.02171,0.0014 -0.06965,0.0101 -0.14551,0.0459c-0.1592,0.0752 -0.36261,0.2329 -0.57226,0.4688c-0.20496,0.2306 -0.38574,0.5024 -0.51172,0.7607c-0.13262,0.2721 -0.17383,0.4659 -0.17383,0.5537c-0.0003,0.414 -0.33597,0.75 -0.75,0.75c-0.41403,0 -0.7497,-0.336 -0.75,-0.75c0,-0.412 0.14667,-0.8438 0.32617,-1.2119c0.18638,-0.382 0.44353,-0.767 0.73828,-1.0986c0.29023,-0.3266 0.64953,-0.6387 1.05274,-0.8291zM18.5269,12.418c0.2945,-0.2401 0.7293,-0.2228 1.0039,0.0517l2,2l0.0517,0.0567c0.24,0.2945 0.2226,0.7293 -0.0517,1.0039l-0.9698,0.9697l0.9698,0.9697l0.0517,0.0567c0.24,0.2945 0.2226,0.7293 -0.0517,1.0039l-2.5,2.5c-0.2928,0.2928 -0.7677,0.2926 -1.0606,0c-0.2929,-0.2929 -0.2929,-0.7677 0,-1.0606l1.9697,-1.9697l-0.4394,-0.4395l-4.9697,4.9698c-0.1406,0.1405 -0.3316,0.2196 -0.5303,0.2197h-2c-0.4142,0 -0.75,-0.3358 -0.75,-0.75v-2l0.0146,-0.1475c0.0289,-0.1439 0.0998,-0.2774 0.2051,-0.3828l7,-7zM12.7505,20.3105v0.9395h0.9394l6.25,-6.25l-0.9394,-0.9395zM13.2505,2.25391v4.74609l0.0088,0.17871c0.0895,0.88254 0.835,1.57129 1.7412,1.57129h4.7461c0.0007,0.02602 0.0039,0.05202 0.0039,0.07812v1.26958c-0.9471,-0.24376 -1.9893,-0.0203 -2.7588,0.6748l-0.1113,0.1064l-7.00003,7c-0.09227,0.0923 -0.17715,0.1916 -0.25586,0.294c-0.27107,-0.0827 -0.57155,-0.1426 -0.89648,-0.1622l-0.22657,-0.0068c-0.08371,0 -0.16779,0.0021 -0.25,0.0068c-0.28401,-0.3823 -0.672,-0.7752 -1.20605,-1.082l-0.20215,-0.1084l-0.25293,-0.1152c-0.85103,-0.352 -1.67073,-0.33 -2.33984,-0.1709v-11.5342c0,-1.51878 1.23122,-2.75 2.75,-2.75h6.17191c0.0259,0.00004 0.0522,0.00317 0.0781,0.00391zM14.7505,2.75098c0.1293,0.09077 0.253,0.19147 0.3662,0.30468l3.8281,3.82813l0.1826,0.20215c0.0434,0.05296 0.084,0.10829 0.1231,0.16406h-4.25c-0.1207,0 -0.2216,-0.08552 -0.2451,-0.19922l-0.0049,-0.05078z" fill="#002B51"/>
</svg>
