<svg width="24" height="24" viewBox="0 0 24 24" fill="none" xmlns="http://www.w3.org/2000/svg">
<path fill-rule="evenodd" clip-rule="evenodd" d="M13.25,2.25v5.25c0,0.69036 0.5596,1.25 1.25,1.25h5.25v2.2903c-1.005,-0.1083 -2.027,0.0018 -2.9943,0.3292c-1.0009,0.3388 -1.9071,0.8981 -2.6547,1.6305h-6.101c-0.41421,0 -0.75,0.3358 -0.75,0.75c0,0.4142 0.33579,0.75 0.75,0.75h4.9378c-0.1388,0.2405 -0.263,0.4886 -0.3719,0.7427c-0.4043,0.1739 -0.7627,0.434 -1.052,0.7573h-3.5139c-0.41421,0 -0.75,0.3358 -0.75,0.75c0,0.4142 0.33579,0.75 0.75,0.75h2.7915c-0.0273,0.1626 -0.0415,0.3297 -0.0415,0.5c0,1.2364 0.7479,2.298 1.8159,2.7573c0.1471,0.3432 0.3219,0.6752 0.5233,0.9927h-7.0892c-0.9665,0 -1.75,-0.7835 -1.75,-1.75v-16c0,-0.9665 0.7835,-1.75 1.75,-1.75zM19.2374,7.17678c0.0238,0.0238 0.0469,0.04822 0.0692,0.07322h-4.5566v-4.55657c0.025,0.02228 0.0494,0.04533 0.0732,0.06913zM8,10c-0.41421,0 -0.75,0.3358 -0.75,0.75c0,0.4142 0.33579,0.75 0.75,0.75h4c0.4142,0 0.75,-0.3358 0.75,-0.75c0,-0.4142 -0.3358,-0.75 -0.75,-0.75zM19.9421,14.8895c-0.6485,-0.1964 -1.3422,-0.1852 -1.9841,0.0321c-0.6418,0.2172 -1.1997,0.6297 -1.5956,1.1796c-0.2497,0.3469 -0.4271,0.7376 -0.5247,1.1488h3.215c0.4142,0 0.75,0.3358 0.75,0.75c0,0.4142 -0.3358,0.75 -0.75,0.75h-3.215c0.0958,0.4039 0.2686,0.788 0.5115,1.1304c0.3921,0.5526 0.947,0.969 1.5874,1.1907c0.6403,0.2217 1.3339,0.2378 1.9837,0.0459c0.6499,-0.1919 1.2236,-0.5821 1.6407,-1.1161c0.2551,-0.3264 0.7264,-0.3843 1.0528,-0.1293c0.3264,0.2551 0.3843,0.7264 0.1293,1.0528c-0.6098,0.7804 -1.4482,1.3507 -2.398,1.6312c-0.9498,0.2804 -1.9635,0.257 -2.8994,-0.0671c-0.9358,-0.3241 -1.747,-0.9325 -2.3199,-1.7403c-0.4238,-0.5974 -0.7016,-1.2817 -0.8162,-1.9982h-0.5596c-0.4142,0 -0.75,-0.3358 -0.75,-0.75c0,-0.4142 0.3358,-0.75 0.75,-0.75h0.5596c0.1163,-0.7276 0.401,-1.4217 0.8354,-2.0252c0.5787,-0.8037 1.394,-1.4065 2.3321,-1.724c0.9381,-0.3176 1.9519,-0.3339 2.8998,-0.0469c0.9478,0.2871 1.7822,0.8633 2.3865,1.6479c0.2527,0.3282 0.1916,0.7991 -0.1366,1.0518c-0.3282,0.2528 -0.7991,0.1916 -1.0518,-0.1366c-0.4135,-0.5368 -0.9844,-0.931 -1.6329,-1.1275z" fill="#002B51"/>
</svg>
