<svg width="24" height="24" viewBox="0 0 24 24" fill="none" xmlns="http://www.w3.org/2000/svg">
<path d="M17.4775,13.501c0.938,-0.3174 1.9518,-0.3339 2.8995,-0.0469c0.8292,0.2512 1.5719,0.7235 2.1494,1.3633l0.2373,0.2842l0.0429,0.0634c0.2002,0.323 0.1277,0.7513 -0.1796,0.9883c-0.3077,0.2368 -0.7408,0.198 -1.002,-0.0781l-0.0498,-0.0586l-0.1621,-0.1943c-0.395,-0.4377 -0.9034,-0.7608 -1.4707,-0.9327c-0.6485,-0.1963 -1.3426,-0.1849 -1.9844,0.0323c-0.6417,0.2172 -1.1998,0.6299 -1.5957,1.1797c-0.2495,0.3467 -0.4259,0.7374 -0.5234,1.1484h3.2138l0.0762,0.0039c0.3783,0.0382 0.6737,0.3577 0.6738,0.7461c-0.0001,0.3884 -0.2955,0.7079 -0.6738,0.7461l-0.0762,0.0039h-3.2148c0.0959,0.4035 0.2691,0.7877 0.5117,1.1299c0.392,0.5526 0.9467,0.9697 1.5869,1.1914c0.6401,0.2216 1.3337,0.2376 1.9834,0.0459c0.6498,-0.1919 1.2245,-0.5824 1.6416,-1.1162c0.2551,-0.3261 0.7265,-0.3837 1.0528,-0.1289c0.3258,0.2551 0.3836,0.7265 0.1289,1.0527c-0.6097,0.7802 -1.4488,1.3505 -2.3985,1.6309c-0.9496,0.2803 -1.9637,0.2566 -2.8994,-0.0674c-0.9355,-0.3241 -1.7464,-0.9327 -2.3193,-1.7403c-0.4236,-0.5972 -0.7008,-1.2817 -0.8155,-1.998h-0.5605c-0.4141,0 -0.7499,-0.3359 -0.75,-0.75c0.0001,-0.4141 0.3359,-0.75 0.75,-0.75h0.5596c0.1164,-0.7276 0.4015,-1.4219 0.8359,-2.0254c0.5786,-0.8035 1.3942,-1.4062 2.332,-1.7236zM14,2.25c0.1989,0 0.3896,0.07907 0.5303,0.21973l5,5c0.1406,0.14065 0.2197,0.33136 0.2197,0.53027v3.04c-0.4987,-0.0537 -1.0017,-0.0537 -1.5,0v-2.29h-3.25c-0.9665,0 -1.75,-0.7835 -1.75,-1.75v-3.25h-6.25c-0.69036,0 -1.25,0.55964 -1.25,1.25v14c0,0.6904 0.55964,1.25 1.25,1.25h4.7705c0.2362,0.2077 0.5037,0.3809 0.7969,0.5068c0.1472,0.3433 0.3221,0.6754 0.5234,0.9932h-6.0908c-1.51878,0 -2.75,-1.2312 -2.75,-2.75v-14c0,-1.51878 1.23122,-2.75 2.75,-2.75zM14.75,7c0,0.13807 0.1119,0.25 0.25,0.25h2.1895l-2.4395,-2.43945z" fill="#002B51"/>
</svg>
