<svg width="24" height="24" viewBox="0 0 24 24" fill="none" xmlns="http://www.w3.org/2000/svg">
<path fill-rule="evenodd" clip-rule="evenodd" d="M14,2.25c0.1989,0 0.3897,0.07902 0.5303,0.21967l5,5c0.1407,0.14065 0.2197,0.33142 0.2197,0.53033v3.0403c-0.4988,-0.0538 -1.0017,-0.0537 -1.5,0v-2.2903h-3.25c-0.9665,0 -1.75,-0.7835 -1.75,-1.75v-3.25h-6.25c-0.69036,0 -1.25,0.55964 -1.25,1.25v14c0,0.6904 0.55964,1.25 1.25,1.25h4.7656c0.2366,0.2088 0.5063,0.3809 0.8003,0.5073c0.1471,0.3432 0.3219,0.6752 0.5233,0.9927h-6.0892c-1.51878,0 -2.75,-1.2312 -2.75,-2.75v-14c0,-1.51878 1.23122,-2.75 2.75,-2.75zM8,17.5c-0.41421,0 -0.75,-0.3358 -0.75,-0.75c0,-0.4142 0.33579,-0.75 0.75,-0.75h3.5139c-0.3697,0.4131 -0.6267,0.9292 -0.7224,1.5zM12.9378,14.5h-4.9378c-0.41421,0 -0.75,-0.3358 -0.75,-0.75c0,-0.4142 0.33579,-0.75 0.75,-0.75h6.101c-0.2849,0.2791 -0.5467,0.5834 -0.782,0.9103c-0.1373,0.1907 -0.2644,0.3875 -0.3812,0.5897zM17.1893,7.25l-2.4393,-2.43934v2.18934c0,0.13807 0.1119,0.25 0.25,0.25zM12,10c0.4142,0 0.75,0.3358 0.75,0.75c0,0.4142 -0.3358,0.75 -0.75,0.75h-4c-0.41421,0 -0.75,-0.3358 -0.75,-0.75c0,-0.4142 0.33579,-0.75 0.75,-0.75zM19.9421,14.8895c-0.6485,-0.1964 -1.3422,-0.1852 -1.9841,0.0321c-0.6418,0.2172 -1.1997,0.6297 -1.5956,1.1796c-0.2497,0.3469 -0.4271,0.7376 -0.5247,1.1488h3.215c0.4142,0 0.75,0.3358 0.75,0.75c0,0.4142 -0.3358,0.75 -0.75,0.75h-3.215c0.0958,0.4039 0.2686,0.788 0.5115,1.1304c0.3921,0.5526 0.947,0.969 1.5874,1.1907c0.6403,0.2217 1.3339,0.2378 1.9837,0.0459c0.6499,-0.1919 1.2236,-0.5821 1.6407,-1.1161c0.2551,-0.3264 0.7264,-0.3843 1.0528,-0.1293c0.3264,0.2551 0.3843,0.7264 0.1293,1.0528c-0.6098,0.7804 -1.4482,1.3507 -2.398,1.6312c-0.9498,0.2804 -1.9635,0.257 -2.8994,-0.0671c-0.9358,-0.3241 -1.747,-0.9325 -2.3199,-1.7403c-0.4238,-0.5974 -0.7016,-1.2817 -0.8162,-1.9982h-0.5596c-0.4142,0 -0.75,-0.3358 -0.75,-0.75c0,-0.4142 0.3358,-0.75 0.75,-0.75h0.5596c0.1163,-0.7276 0.401,-1.4217 0.8354,-2.0252c0.5787,-0.8037 1.394,-1.4065 2.3321,-1.724c0.9381,-0.3176 1.9519,-0.3339 2.8998,-0.0469c0.9478,0.2871 1.7822,0.8633 2.3865,1.6479c0.2527,0.3282 0.1916,0.7991 -0.1366,1.0518c-0.3282,0.2528 -0.7991,0.1916 -1.0518,-0.1366c-0.4135,-0.5368 -0.9844,-0.931 -1.6329,-1.1275z" fill="#002B51"/>
</svg>
