<svg width="24" height="24" viewBox="0 0 24 24" fill="none" xmlns="http://www.w3.org/2000/svg">
<path fill-rule="evenodd" clip-rule="evenodd" d="M14,2.25c0.1989,0 0.3897,0.07902 0.5303,0.21967l5,5c0.1407,0.14065 0.2197,0.33142 0.2197,0.53033v11c0,1.5188 -1.2312,2.75 -2.75,2.75h-10c-1.51878,0 -2.75,-1.2312 -2.75,-2.75v-14c0,-1.51878 1.23122,-2.75 2.75,-2.75zM5.75,19c0,0.6904 0.55964,1.25 1.25,1.25h10c0.6904,0 1.25,-0.5596 1.25,-1.25v-10.25h-3.25c-0.9665,0 -1.75,-0.7835 -1.75,-1.75v-3.25h-6.25c-0.69036,0 -1.25,0.55964 -1.25,1.25zM17.1893,7.25l-2.4393,-2.43934v2.18934c0,0.13807 0.1119,0.25 0.25,0.25zM9.75,17.5c0,0.4142 -0.33579,0.75 -0.75,0.75c-0.41421,0 -0.75,-0.3358 -0.75,-0.75v-4.5c0,-0.4142 0.33579,-0.75 0.75,-0.75c0.41421,0 0.75,0.3358 0.75,0.75zM12,10.25c0.4142,0 0.75,0.3358 0.75,0.75v6.5c0,0.4142 -0.3358,0.75 -0.75,0.75c-0.4142,0 -0.75,-0.3358 -0.75,-0.75v-6.5c0,-0.4142 0.3358,-0.75 0.75,-0.75zM15.75,17.5c0,0.4142 -0.3358,0.75 -0.75,0.75c-0.4142,0 -0.75,-0.3358 -0.75,-0.75v-3.5c0,-0.4142 0.3358,-0.75 0.75,-0.75c0.4142,0 0.75,0.3358 0.75,0.75z" fill="#002B51"/>
</svg>
