<svg width="24" height="24" viewBox="0 0 24 24" fill="none" xmlns="http://www.w3.org/2000/svg">
<path fill-rule="evenodd" clip-rule="evenodd" d="M6 2.25C5.0335 2.25 4.25 3.0335 4.25 4V20C4.25 20.9665 5.0335 21.75 6 21.75H18C18.9665 21.75 19.75 20.9665 19.75 20V8C19.75 7.80109 19.671 7.61032 19.5303 7.46967L14.5303 2.46967C14.3897 2.32902 14.1989 2.25 14 2.25H6ZM5.75 4C5.75 3.86193 5.86193 3.75 6 3.75H13.25V7.5C13.25 8.19036 13.8096 8.75 14.5 8.75H18.25V20C18.25 20.1381 18.1381 20.25 18 20.25H6C5.86193 20.25 5.75 20.1381 5.75 20V4ZM17.1893 7.25L14.75 4.81066V7.25H17.1893ZM8 10C7.58579 10 7.25 10.3358 7.25 10.75C7.25 11.1642 7.58579 11.5 8 11.5H12C12.4142 11.5 12.75 11.1642 12.75 10.75C12.75 10.3358 12.4142 10 12 10H8ZM8 13C7.58579 13 7.25 13.3358 7.25 13.75C7.25 14.1642 7.58579 14.5 8 14.5H16C16.4142 14.5 16.75 14.1642 16.75 13.75C16.75 13.3358 16.4142 13 16 13H8ZM7.25 16.75C7.25 16.3358 7.58579 16 8 16H14C14.4142 16 14.75 16.3358 14.75 16.75C14.75 17.1642 14.4142 17.5 14 17.5H8C7.58579 17.5 7.25 17.1642 7.25 16.75Z" fill="#002B51"/>
</svg>
