<svg width="24" height="24" viewBox="0 0 24 24" fill="none" xmlns="http://www.w3.org/2000/svg">
<path fill-rule="evenodd" clip-rule="evenodd" d="M7,2.25h6.1719c0.0261,0 0.0521,0.00038 0.0781,0.00112v4.74888l0.0088,0.17871c0.0895,0.88256 0.835,1.57129 1.7412,1.57129h4.7489c0.0007,0.026 0.0011,0.05204 0.0011,0.07812v2.21218c-0.9151,-0.0986 -1.8443,-0.0161 -2.7334,0.2466l-0.2607,0.082c-1.0011,0.3388 -1.9073,0.8984 -2.6549,1.6311h-6.101c-0.41421,0 -0.75,0.3358 -0.75,0.75c0,0.4142 0.33579,0.75 0.75,0.75h4.9379c-0.1388,0.2404 -0.263,0.4884 -0.3719,0.7425c-0.4044,0.1739 -0.7629,0.4341 -1.0523,0.7575h-3.5137c-0.41421,0 -0.75,0.3358 -0.75,0.75c0,0.4142 0.33579,0.75 0.75,0.75h2.7914c-0.0272,0.1625 -0.0414,0.3295 -0.0414,0.4998c0,1.2365 0.7481,2.2983 1.8164,2.7575c0.1471,0.3431 0.322,0.6752 0.5235,0.9927h-6.0899c-1.51878,0 -2.75,-1.2312 -2.75,-2.75v-14c0,-1.51878 1.23122,-2.75 2.75,-2.75zM19.127,7.08594c0.0436,0.05324 0.0851,0.10797 0.1244,0.16406h-4.2514c-0.1207,0 -0.2217,-0.08547 -0.2451,-0.19922l-0.0049,-0.05078v-4.25179c0.1299,0.09105 0.2525,0.19377 0.3662,0.30745l3.8281,3.82813zM12.75,10.75c0,-0.4142 -0.3358,-0.75 -0.75,-0.75h-4c-0.41421,0 -0.75,0.3358 -0.75,0.75c0,0.4142 0.33579,0.75 0.75,0.75h4c0.4142,0 0.75,-0.3358 0.75,-0.75zM17.832,13.3956c0.8355,-0.2119 1.7156,-0.1926 2.545,0.0586l0.3496,0.1211c0.6883,0.2686 1.3048,0.6937 1.7998,1.2422l0.2373,0.2842l0.043,0.0634c0.2003,0.323 0.1277,0.7513 -0.1797,0.9883c-0.3077,0.237 -0.7408,0.1981 -1.002,-0.0781l-0.0498,-0.0586l-0.1621,-0.1943c-0.3386,-0.3753 -0.7606,-0.6659 -1.2314,-0.8496l-0.2393,-0.0831c-0.5674,-0.1718 -1.1697,-0.1849 -1.7412,-0.04l-0.2432,0.0723c-0.5615,0.19 -1.0587,0.5293 -1.4394,0.9795l-0.1563,0.2002c-0.2496,0.3468 -0.427,0.7373 -0.5245,1.1484h3.2149l0.0762,0.0039c0.3784,0.0382 0.6738,0.3576 0.6738,0.7461c0,0.3885 -0.2954,0.7079 -0.6738,0.7461l-0.0762,0.0039h-3.2147c0.0959,0.4037 0.2689,0.7876 0.5116,1.1299l0.1543,0.2012c0.3776,0.4529 0.8724,0.7962 1.4326,0.9902l0.2422,0.0732c0.5706,0.149 1.1726,0.1405 1.7412,-0.0273l0.2403,-0.0811c0.5508,-0.2105 1.0353,-0.568 1.4004,-1.0351l0.0507,-0.0586c0.2632,-0.2742 0.6971,-0.3093 1.003,-0.0703c0.3259,0.2551 0.3838,0.7265 0.1289,1.0527l-0.2393,0.2822c-0.4986,0.5449 -1.1177,0.9658 -1.8076,1.2295l-0.3516,0.1192c-0.831,0.2453 -1.711,0.2578 -2.5449,0.04l-0.3545,-0.1074c-0.8186,-0.2836 -1.5419,-0.7845 -2.0937,-1.4463l-0.2256,-0.294c-0.4238,-0.5973 -0.7017,-1.2815 -0.8164,-1.998h-0.5596c-0.4142,0 -0.75,-0.3358 -0.75,-0.75c0,-0.4142 0.3358,-0.75 0.75,-0.75h0.5596c0.1165,-0.7277 0.4015,-1.4219 0.8359,-2.0254l0.2276,-0.292c0.5564,-0.658 1.2838,-1.1538 2.1045,-1.4316z" fill="#002B51"/>
</svg>
