<svg width="24" height="24" viewBox="0 0 24 24" fill="none" xmlns="http://www.w3.org/2000/svg">
<path d="M4.36768,18.8643c0.38233,-0.1806 0.87713,-0.2808 1.37011,-0.0762l0.09766,0.0449l0.16504,0.0947c0.36287,0.2361 0.57398,0.574 0.70312,0.8692c0.12224,0.2795 0.19677,0.587 0.25,0.8056l0.01953,0.0782c0.42557,-0.2053 0.96266,-0.4268 1.52735,-0.4268c0.49466,0 0.90711,0.2421 1.20019,0.4619c0.15049,0.1129 0.29757,0.243 0.43752,0.374l0.3926,0.3838l0.0517,0.0567c0.2401,0.2946 0.2228,0.7294 -0.0517,1.0039c-0.2746,0.2743 -0.70944,0.2918 -1.00394,0.0517l-0.05665,-0.0517l-0.35742,-0.3506c-0.11005,-0.1033 -0.21299,-0.193 -0.3125,-0.2676c-0.09543,-0.0715 -0.16996,-0.1153 -0.22558,-0.1396c-0.0495,-0.0217 -0.07218,-0.0224 -0.07422,-0.0225c-0.21633,0 -0.45773,0.0837 -0.79395,0.2402l-0.37109,0.1807c-0.19273,0.0963 -0.43938,0.1799 -0.71484,0.1543c-0.30402,-0.0283 -0.53954,-0.1789 -0.7002,-0.3623c-0.14343,-0.1639 -0.22447,-0.3507 -0.27441,-0.4873c-0.05187,-0.142 -0.09156,-0.293 -0.12305,-0.419l-0.02246,-0.0888c-0.05883,-0.237 -0.10279,-0.4152 -0.17188,-0.5733c-0.05344,-0.1221 -0.0996,-0.178 -0.13379,-0.205l-0.02929,-0.0186c-0.00193,-0.0002 -0.00588,-0.0004 -0.01172,0c-0.02171,0.0014 -0.06964,0.0101 -0.14551,0.0459c-0.15921,0.0752 -0.36259,0.2329 -0.57226,0.4688c-0.20499,0.2306 -0.38572,0.5024 -0.51172,0.7607c-0.13266,0.2721 -0.17383,0.4659 -0.17383,0.5537c-0.00022,0.414 -0.33592,0.75 -0.75,0.75c-0.41408,0 -0.74978,-0.336 -0.75,-0.75c0,-0.4121 0.14664,-0.8438 0.32617,-1.2119c0.18639,-0.3821 0.4435,-0.7669 0.73828,-1.0986c0.29025,-0.3266 0.6495,-0.6387 1.05274,-0.8291zM18.5269,12.418c0.2945,-0.24 0.7294,-0.2228 1.0039,0.0517l2,2l0.0517,0.0567c0.2401,0.2944 0.2225,0.7293 -0.0517,1.0039l-0.9698,0.9697l0.9698,0.9697l0.0517,0.0567c0.2401,0.2944 0.2225,0.7293 -0.0517,1.0039l-2.5,2.5c-0.2929,0.2928 -0.7677,0.2927 -1.0606,0c-0.2929,-0.2929 -0.2929,-0.7677 0,-1.0606l1.9697,-1.9697l-0.4394,-0.4395l-4.9697,4.9698c-0.1406,0.1405 -0.3316,0.2196 -0.5303,0.2197h-2c-0.4142,0 -0.75,-0.3358 -0.75,-0.75v-2l0.0146,-0.1475c0.0289,-0.1439 0.0998,-0.2774 0.2051,-0.3828l7,-7zM12.7505,20.3105v0.9395h0.9394l6.25,-6.25l-0.9394,-0.9395zM14.0005,2.25c0.1987,0.00013 0.3897,0.07919 0.5303,0.21973l5,5c0.1405,0.14063 0.2197,0.33147 0.2197,0.53027v2.0977c-0.4915,-0.12663 -1.0085,-0.12922 -1.5,-0.003v-1.3447h-3.25c-0.9665,0 -1.75,-0.7835 -1.75,-1.75v-3.25h-6.25001c-0.69036,0 -1.25,0.55964 -1.25,1.25v11.4697c-0.54316,-0.0853 -1.05478,-0.0414 -1.5,0.0645v-11.5342c0,-1.51878 1.23122,-2.75 2.75,-2.75zM14.7505,7c0,0.13807 0.1119,0.25 0.25,0.25h2.1894l-2.4394,-2.43945z" fill="#002B51"/>
</svg>
