<svg width="24" height="24" viewBox="0 0 24 24" fill="none" xmlns="http://www.w3.org/2000/svg">
<path fill-rule="evenodd" clip-rule="evenodd" d="M7,2.25h6.1719c0.0261,0 0.0521,0.00038 0.0781,0.00112v4.74888l0.0088,0.17871c0.0895,0.88256 0.835,1.57129 1.7412,1.57129h4.7489c0.0007,0.026 0.0011,0.05204 0.0011,0.07812v10.17188c0,1.5188 -1.2312,2.75 -2.75,2.75h-10c-1.51878,0 -2.75,-1.2312 -2.75,-2.75v-14c0,-1.51878 1.23122,-2.75 2.75,-2.75zM19.127,7.08594c0.0436,0.05324 0.0851,0.10797 0.1244,0.16406h-4.2514c-0.1207,0 -0.2217,-0.08547 -0.2451,-0.19922l-0.0049,-0.05078v-4.25179c0.1299,0.09105 0.2525,0.19377 0.3662,0.30745l3.8281,3.82813zM8.25,13v4.5c0,0.4142 0.33579,0.75 0.75,0.75c0.41421,0 0.75,-0.3358 0.75,-0.75v-4.5c0,-0.4142 -0.33579,-0.75 -0.75,-0.75c-0.41421,0 -0.75,0.3358 -0.75,0.75zM12,18.25c0.4142,0 0.75,-0.3358 0.75,-0.75v-6.5c0,-0.4142 -0.3358,-0.75 -0.75,-0.75c-0.4142,0 -0.75,0.3358 -0.75,0.75v6.5c0,0.4142 0.3358,0.75 0.75,0.75zM14.25,14v3.5c0,0.4142 0.3358,0.75 0.75,0.75c0.4142,0 0.75,-0.3358 0.75,-0.75v-3.5c0,-0.4142 -0.3358,-0.75 -0.75,-0.75c-0.4142,0 -0.75,0.3358 -0.75,0.75z" fill="#002B51"/>
</svg>
