<svg width="24" height="24" viewBox="0 0 24 24" fill="none" xmlns="http://www.w3.org/2000/svg">
<path fill-rule="evenodd" clip-rule="evenodd" d="M7,21.75c-1.51878,0 -2.75,-1.2312 -2.75,-2.75v-14c0,-1.51878 1.23122,-2.75 2.75,-2.75h7c0.1989,0 0.3896,0.07907 0.5303,0.21973l5,5c0.1406,0.14065 0.2197,0.33136 0.2197,0.53027v11c0,1.5188 -1.2312,2.75 -2.75,2.75zM17.1895,7.25l-2.4395,-2.43945v2.18945c0,0.13807 0.1119,0.25 0.25,0.25zM17,20.25c0.6904,0 1.25,-0.5596 1.25,-1.25v-10.25h-3.25c-0.9665,0 -1.75,-0.7835 -1.75,-1.75v-3.25h-6.25c-0.69036,0 -1.25,0.55964 -1.25,1.25v14c0,0.6904 0.55964,1.25 1.25,1.25zM12,11.5h-4c-0.41421,0 -0.75,-0.3358 -0.75,-0.75c0,-0.4142 0.33579,-0.75 0.75,-0.75h4c0.4142,0 0.75,0.3358 0.75,0.75c0,0.4142 -0.3358,0.75 -0.75,0.75zM16,14.5h-8c-0.41421,0 -0.75,-0.3358 -0.75,-0.75c0,-0.4142 0.33579,-0.75 0.75,-0.75h8c0.4142,0 0.75,0.3358 0.75,0.75c0,0.4142 -0.3358,0.75 -0.75,0.75zM14,16c0.4142,0 0.75,0.3358 0.75,0.75c0,0.4142 -0.3358,0.75 -0.75,0.75h-6c-0.41421,0 -0.75,-0.3358 -0.75,-0.75c0,-0.4142 0.33579,-0.75 0.75,-0.75z" fill="#002B51"/>
</svg>
