<svg width="24" height="24" viewBox="0 0 24 24" fill="none" xmlns="http://www.w3.org/2000/svg">
<path d="M17.4775,13.501c0.938,-0.3174 1.9518,-0.3339 2.8995,-0.0469c0.8292,0.2512 1.5719,0.7235 2.1494,1.3633l0.2373,0.2842l0.0429,0.0634c0.2002,0.323 0.1277,0.7513 -0.1796,0.9883c-0.3077,0.2368 -0.7408,0.198 -1.002,-0.0781l-0.0498,-0.0586l-0.1621,-0.1943c-0.395,-0.4377 -0.9034,-0.7608 -1.4707,-0.9327c-0.6485,-0.1963 -1.3426,-0.1849 -1.9844,0.0323c-0.6417,0.2172 -1.1998,0.6299 -1.5957,1.1797c-0.2495,0.3467 -0.4259,0.7374 -0.5234,1.1484h3.2138l0.0762,0.0039c0.3783,0.0382 0.6737,0.3577 0.6738,0.7461c-0.0001,0.3884 -0.2955,0.7079 -0.6738,0.7461l-0.0762,0.0039h-3.2148c0.0959,0.4035 0.2691,0.7877 0.5117,1.1299c0.392,0.5526 0.9467,0.9697 1.5869,1.1914c0.6401,0.2216 1.3337,0.2376 1.9834,0.0459c0.6498,-0.1919 1.2245,-0.5824 1.6416,-1.1162c0.2551,-0.3261 0.7265,-0.3837 1.0528,-0.1289c0.3258,0.2551 0.3836,0.7265 0.1289,1.0527c-0.6097,0.7802 -1.4488,1.3505 -2.3985,1.6309c-0.9496,0.2803 -1.9637,0.2566 -2.8994,-0.0674c-0.9355,-0.3241 -1.7464,-0.9327 -2.3193,-1.7403c-0.4236,-0.5972 -0.7008,-1.2817 -0.8155,-1.998h-0.5605c-0.4141,0 -0.7499,-0.3359 -0.75,-0.75c0.0001,-0.4141 0.3359,-0.75 0.75,-0.75h0.5596c0.1164,-0.7276 0.4015,-1.4219 0.8359,-2.0254c0.5786,-0.8035 1.3942,-1.4062 2.332,-1.7236zM13.25,2.25391v4.74609l0.0088,0.17871c0.0895,0.88256 0.835,1.57129 1.7412,1.57129h4.7461c0.0007,0.02602 0.0039,0.05202 0.0039,0.07812v2.21188c-0.9151,-0.0985 -1.8443,-0.0156 -2.7334,0.2471l-0.2607,0.082c-1.0007,0.3388 -1.9059,0.8986 -2.6534,1.6309h-6.1025c-0.41421,0 -0.75,0.3358 -0.75,0.75c0,0.4142 0.33579,0.75 0.75,0.75h4.9395c-0.1395,0.2408 -0.2659,0.4885 -0.375,0.7432c-0.4038,0.1739 -0.7618,0.4338 -1.0508,0.7568h-3.5137c-0.41421,0 -0.75,0.3358 -0.75,0.75c0,0.4142 0.33579,0.75 0.75,0.75h2.793c-0.0273,0.1626 -0.043,0.3296 -0.043,0.5c0.0001,1.2367 0.7488,2.2978 1.8174,2.7568c0.1472,0.3433 0.3221,0.6754 0.5234,0.9932h-6.0908c-1.51878,0 -2.75,-1.2312 -2.75,-2.75v-14c0,-1.51878 1.23122,-2.75 2.75,-2.75h6.1719c0.0261,0 0.0521,0.00316 0.0781,0.00391zM8,10c-0.41421,0 -0.75,0.3358 -0.75,0.75c0,0.4142 0.33579,0.75 0.75,0.75h4c0.4142,0 0.75,-0.3358 0.75,-0.75c0,-0.4142 -0.3358,-0.75 -0.75,-0.75zM14.75,2.75098c0.1294,0.09083 0.2529,0.19138 0.3662,0.30468l3.8281,3.82813l0.1827,0.20215c0.0434,0.05303 0.0838,0.10821 0.123,0.16406h-4.25c-0.1207,0 -0.2217,-0.08547 -0.2451,-0.19922l-0.0049,-0.05078z" fill="#002B51"/>
</svg>
