<svg width="24" height="24" viewBox="0 0 24 24" fill="none" xmlns="http://www.w3.org/2000/svg">
<path d="M13.25,2.25391v4.74609l0.0088,0.17871c0.0895,0.88256 0.835,1.57129 1.7412,1.57129h4.7461c0.0007,0.02602 0.0039,0.05202 0.0039,0.07812v10.17188c0,1.5188 -1.2312,2.75 -2.75,2.75h-10c-1.51878,0 -2.75,-1.2312 -2.75,-2.75v-14c0,-1.51878 1.23122,-2.75 2.75,-2.75h6.1719c0.0261,0 0.0521,0.00316 0.0781,0.00391zM9,12.25c-0.41421,0 -0.75,0.3358 -0.75,0.75v4.5c0,0.4142 0.33579,0.75 0.75,0.75c0.41421,0 0.75,-0.3358 0.75,-0.75v-4.5c0,-0.4142 -0.33579,-0.75 -0.75,-0.75zM12,10.25c-0.4142,0 -0.75,0.3358 -0.75,0.75v6.5c0,0.4142 0.3358,0.75 0.75,0.75c0.4142,0 0.75,-0.3358 0.75,-0.75v-6.5c0,-0.4142 -0.3358,-0.75 -0.75,-0.75zM15,13.25c-0.4142,0 -0.75,0.3358 -0.75,0.75v3.5c0,0.4142 0.3358,0.75 0.75,0.75c0.4142,0 0.75,-0.3358 0.75,-0.75v-3.5c0,-0.4142 -0.3358,-0.75 -0.75,-0.75zM14.75,2.75098c0.1294,0.09083 0.2529,0.19138 0.3662,0.30468l3.8281,3.82813l0.1827,0.20215c0.0434,0.05303 0.0838,0.10821 0.123,0.16406h-4.25c-0.1207,0 -0.2217,-0.08547 -0.2451,-0.19922l-0.0049,-0.05078z" fill="#002B51"/>
</svg>
