<svg width="36" height="24" viewBox="0 0 36 24" fill="none" xmlns="http://www.w3.org/2000/svg">
<g clip-path="url(#clip0_4050_17379)">
<path d="M0,12c0,-6.62742 5.37258,-12 12,-12h12c6.6274,0 12,5.37258 12,12c0,6.6274 -5.3726,12 -12,12h-12c-6.62742,0 -12,-5.3726 -12,-12z" fill="#FF4E4E"/>
<path d="M37.6363,24h-39.27277v-24h39.27277z" fill="white"/>
<path d="M15.8181,24h-6.54548v-8.7273h-10.90909v-6.54543h10.90909v-8.72727h6.54548v8.72727h21.8182v6.54543h-21.8182z" fill="#002F6C"/>
</g>
<defs>
<clipPath id="clip0_4050_17379">
<path d="M0,12c0,-6.62742 5.37258,-12 12,-12h12c6.6274,0 12,5.37258 12,12c0,6.6274 -5.3726,12 -12,12h-12c-6.62742,0 -12,-5.3726 -12,-12z" fill="white"/>
</clipPath>
</defs>
</svg>
