<svg width="24" height="24" viewBox="0 0 24 24" fill="none" xmlns="http://www.w3.org/2000/svg">
<g clip-path="url(#clip0_4050_17383)">
<path d="M0,12c0,-6.62742 5.37258,-12 12,-12c6.6274,0 12,5.37258 12,12c0,6.6274 -5.3726,12 -12,12c-6.62742,0 -12,-5.3726 -12,-12z" fill="#FF4E4E"/>
<path d="M32.875,24h-39.27271v-24h39.27271z" fill="white"/>
<path d="M11.0568,24h-6.54541v-8.7273h-10.9091v-6.54543h10.9091v-8.72727h6.54541v8.72727h21.8182v6.54543h-21.8182z" fill="#002F6C"/>
</g>
<defs>
<clipPath id="clip0_4050_17383">
<path d="M0,12c0,-6.62742 5.37258,-12 12,-12c6.6274,0 12,5.37258 12,12c0,6.6274 -5.3726,12 -12,12c-6.62742,0 -12,-5.3726 -12,-12z" fill="white"/>
</clipPath>
</defs>
</svg>
