<svg width="24" height="24" viewBox="0 0 24 24" fill="none" xmlns="http://www.w3.org/2000/svg">
<g clip-path="url(#clip0_4050_17382)">
<path d="M0,4c0,-2.20914 1.79086,-4 4,-4h16c2.2091,0 4,1.79086 4,4v16c0,2.2091 -1.7909,4 -4,4h-16c-2.20914,0 -4,-1.7909 -4,-4z" fill="#FF4E4E"/>
<path d="M32.875,24h-39.27271v-24h39.27271z" fill="white"/>
<path d="M11.0568,24h-6.54541v-8.7273h-10.9091v-6.54543h10.9091v-8.72727h6.54541v8.72727h21.8182v6.54543h-21.8182z" fill="#002F6C"/>
</g>
<defs>
<clipPath id="clip0_4050_17382">
<path d="M0,4c0,-2.20914 1.79086,-4 4,-4h16c2.2091,0 4,1.79086 4,4v16c0,2.2091 -1.7909,4 -4,4h-16c-2.20914,0 -4,-1.7909 -4,-4z" fill="white"/>
</clipPath>
</defs>
</svg>
