<svg width="36" height="24" viewBox="0 0 36 24" fill="none" xmlns="http://www.w3.org/2000/svg">
<g clip-path="url(#clip0_4050_17377)">
<path d="M0,2c0,-1.10457 0.89543,-2 2,-2h32c1.1046,0 2,0.89543 2,2v20c0,1.1046 -0.8954,2 -2,2h-32c-1.10457,0 -2,-0.8954 -2,-2z" fill="#FF4E4E"/>
<path d="M37.6363,24h-39.27277v-24h39.27277z" fill="white"/>
<path d="M15.8181,24h-6.54548v-8.7273h-10.90909v-6.54543h10.90909v-8.72727h6.54548v8.72727h21.8182v6.54543h-21.8182z" fill="#002F6C"/>
</g>
<defs>
<clipPath id="clip0_4050_17377">
<path d="M0,2c0,-1.10457 0.89543,-2 2,-2h32c1.1046,0 2,0.89543 2,2v20c0,1.1046 -0.8954,2 -2,2h-32c-1.10457,0 -2,-0.8954 -2,-2z" fill="white"/>
</clipPath>
</defs>
</svg>
