<svg width="24" height="24" viewBox="0 0 24 24" fill="none" xmlns="http://www.w3.org/2000/svg">
<path fill-rule="evenodd" clip-rule="evenodd" d="M12.9805,3.13921c0.5529,0.51609 1.0389,1.22252 1.4403,2.02538c0.6622,1.32438 1.1359,2.99444 1.2819,4.72442c0.2551,-0.26748 0.5473,-0.80042 0.5473,-1.88901c0,-0.30335 0.1827,-0.57682 0.463,-0.69291c0.2802,-0.11609 0.6028,-0.05192 0.8173,0.16258c2.2203,2.22023 2.2199,5.05573 2.2197,6.49133v0.039c0,4.4142 -3.3358,7.75 -7.75,7.75c-4.41421,0 -7.75,-3.3358 -7.75,-7.75c0,-3.3335 1.71165,-5.02394 3.24321,-6.42787l0.15658,-0.14335c1.46667,-1.34194 2.60021,-2.37906 2.60021,-4.42878c0,-0.41421 0.3358,-0.75 0.75,-0.75c0.7575,0 1.4317,0.37704 1.9805,0.88921z" fill="#002B51"/>
</svg>
