<svg width="24" height="24" viewBox="0 0 24 24" fill="none" xmlns="http://www.w3.org/2000/svg">
<path d="M11,2.25c0.7575,0 1.4317,0.37748 1.9805,0.88965c0.5528,0.51607 1.039,1.22263 1.4404,2.02539c0.6617,1.32346 1.134,2.99209 1.2803,4.7207c0.2549,-0.26779 0.5488,-0.79845 0.5488,-1.88574c0,-0.30335 0.1826,-0.57727 0.4629,-0.69336c0.2802,-0.11604 0.6029,-0.05139 0.8174,0.16309c2.2405,2.2405 2.2197,5.10757 2.2197,6.53027c0,4.4142 -3.3358,7.75 -7.75,7.75c-4.41421,0 -7.75,-3.3358 -7.75,-7.75c0,-3.3334 1.71163,-5.02383 3.24316,-6.42773c1.54179,-1.41331 2.75684,-2.45018 2.75684,-4.57227l0.0039,-0.07715c0.0386,-0.37797 0.3579,-0.67285 0.7461,-0.67285z" fill="#002B51"/>
</svg>
