<svg width="24" height="24" viewBox="0 0 24 24" fill="none" xmlns="http://www.w3.org/2000/svg">
<path fill-rule="evenodd" clip-rule="evenodd" d="M10.25,3c0,-0.41421 0.3358,-0.75 0.75,-0.75c0.7575,0 1.4317,0.37704 1.9805,0.88921c0.5529,0.51609 1.0389,1.22252 1.4403,2.02538c0.6622,1.32438 1.1359,2.99444 1.2819,4.72442c0.2551,-0.26748 0.5473,-0.80042 0.5473,-1.88901c0,-0.30335 0.1827,-0.57682 0.463,-0.69291c0.2802,-0.11609 0.6028,-0.05192 0.8173,0.16258c2.2203,2.22023 2.2199,5.05573 2.2197,6.49133v0.039c0,4.4142 -3.3358,7.75 -7.75,7.75c-4.41421,0 -7.75,-3.3358 -7.75,-7.75c0,-3.3335 1.71165,-5.02394 3.24321,-6.42787c0.05258,-0.0482 0.10479,-0.09597 0.15658,-0.14335c1.46667,-1.34194 2.60021,-2.37906 2.60021,-4.42878zM15,11v0.75c-0.4142,0 -0.75,-0.3358 -0.75,-0.75c0,-1.88624 -0.4741,-3.7711 -1.1708,-5.16459c-0.3486,-0.69714 -0.7376,-1.24071 -1.1222,-1.59962c-0.0991,-0.09246 -0.194,-0.16934 -0.2846,-0.23258c-0.3362,2.09823 -1.70589,3.3452 -2.93024,4.45988c-0.07917,0.07208 -0.15773,0.14361 -0.23537,0.21478c-1.46844,1.34603 -2.75679,2.65563 -2.75679,5.32213c0,3.5858 2.66421,6.25 6.25,6.25c3.5858,0 6.25,-2.6642 6.25,-6.25c0,-1.1035 -0.0121,-2.6828 -0.7993,-4.15095c-0.2368,0.62635 -0.5946,1.07135 -1.0007,1.37595c-0.3465,0.2599 -0.6934,0.3902 -0.9556,0.4557c-0.1315,0.0329 -0.2441,0.0501 -0.3286,0.0592c-0.0423,0.0045 -0.078,0.007 -0.1059,0.0084c-0.0139,0.0007 -0.026,0.0011 -0.036,0.0014l-0.0135,0.0002l-0.0056,0.0001h-0.0025h-0.0012c-0.0005,0 -0.0011,0 -0.0011,-0.75z" fill="#002B51"/>
</svg>
