<svg width="24" height="24" viewBox="0 0 24 24" fill="none" xmlns="http://www.w3.org/2000/svg">
<path d="M11,2.25c0.7575,0 1.4317,0.37748 1.9805,0.88965c0.5528,0.51607 1.039,1.22263 1.4404,2.02539c0.6617,1.32346 1.134,2.99209 1.2803,4.7207c0.2549,-0.26779 0.5488,-0.79845 0.5488,-1.88574c0,-0.30335 0.1826,-0.57727 0.4629,-0.69336c0.2802,-0.11604 0.6029,-0.05139 0.8174,0.16309c2.2405,2.2405 2.2197,5.10757 2.2197,6.53027c0,4.4142 -3.3358,7.75 -7.75,7.75c-4.41421,0 -7.75,-3.3358 -7.75,-7.75c0,-3.3334 1.71163,-5.02383 3.24316,-6.42773c1.54179,-1.41331 2.75684,-2.45018 2.75684,-4.57227l0.0039,-0.07715c0.0386,-0.37797 0.3579,-0.67285 0.7461,-0.67285zM11.6719,4.00293c-0.358,2.23397 -1.88678,3.50305 -3.16506,4.6748c-1.46845,1.34607 -2.75684,2.65577 -2.75684,5.32227c0,3.5858 2.66421,6.25 6.25,6.25c3.5858,0 6.25,-2.6642 6.25,-6.25c0,-1.1038 -0.0131,-2.683 -0.8008,-4.15137c-0.2368,0.62617 -0.593,1.07137 -0.999,1.37597c-0.3465,0.2599 -0.6939,0.3905 -0.9561,0.4561c-0.1313,0.0328 -0.2437,0.0505 -0.3281,0.0595c-0.0423,0.0046 -0.0785,0.0065 -0.1064,0.0078c-0.0139,0.0007 -0.0262,0.0018 -0.0362,0.002h-0.0224c-0.0006,-0.0011 -0.001,-0.0286 -0.001,-0.75v0.75c-0.4142,0 -0.75,-0.3358 -0.75,-0.75c0,-1.88624 -0.4742,-3.77155 -1.1709,-5.16504c-0.3485,-0.69695 -0.7376,-1.24076 -1.1221,-1.59961c-0.0991,-0.09254 -0.1945,-0.16916 -0.2851,-0.23242z" fill="#002B51"/>
</svg>
