<svg width="24" height="24" viewBox="0 0 24 24" fill="none" xmlns="http://www.w3.org/2000/svg">
<path fill-rule="evenodd" clip-rule="evenodd" d="M11 2.25C10.5858 2.25 10.25 2.58579 10.25 3C10.25 5.04972 9.11646 6.08684 7.64979 7.42878L7.49321 7.57213C5.96165 8.97606 4.25 10.6665 4.25 14C4.25 18.4142 7.58579 21.75 12 21.75C16.4142 21.75 19.75 18.4142 19.75 14L19.75 13.961C19.7502 12.5254 19.7506 9.6899 17.5303 7.46967C17.3158 7.25517 16.9932 7.191 16.713 7.30709C16.4327 7.42318 16.25 7.69665 16.25 8C16.25 9.08859 15.9578 9.62153 15.7027 9.88901C15.5567 8.15903 15.083 6.48897 14.4208 5.16459C14.0194 4.36173 13.5334 3.6553 12.9805 3.13921C12.4317 2.62704 11.7575 2.25 11 2.25Z" fill="#002B51"/>
</svg>
