<svg width="24" height="24" viewBox="0 0 24 24" fill="none" xmlns="http://www.w3.org/2000/svg">
<path d="M12.9999,2.75c0.4143,0 0.75,0.33579 0.75,0.75v3.75h1.25c0.4143,0 0.75,0.33579 0.75,0.75v2.25h1.25c0.4143,0 0.75,0.3358 0.75,0.75v2.4424c0.1382,-0.0581 0.2698,-0.1109 0.3916,-0.1631c0.3242,-0.1389 0.5871,-0.2543 0.7676,-0.335c0.0902,-0.0402 0.1601,-0.0724 0.207,-0.0937c0.0232,-0.0106 0.0411,-0.0181 0.0528,-0.0235c0.0058,-0.0026 0.0099,-0.0055 0.0127,-0.0068c0.0011,-0.0005 0.0023,-0.0007 0.0029,-0.001h0.001c0.2853,-0.1316 0.6225,-0.0717 0.8447,0.1504l0.0098,0.0098c0.0047,0.0048 0.0111,0.0117 0.0185,0.0195c0.0149,0.0155 0.0351,0.0367 0.0596,0.0635c0.0493,0.054 0.1166,0.1312 0.1963,0.2285c0.1588,0.1942 0.3694,0.4737 0.5791,0.8233c0.4148,0.6914 0.8564,1.7014 0.8564,2.8857c0,1.246 -0.6173,2.2853 -1.164,2.9688c-0.0219,0.0273 -0.0456,0.0526 -0.0674,0.0791l0.7187,0.2402l0.0713,0.0283c0.3467,0.156 0.5262,0.5525 0.4034,0.9209c-0.1228,0.3683 -0.5042,0.5782 -0.875,0.4951l-0.0743,-0.0205l-1.7343,-0.5791c-0.6671,-0.2223 -1.3887,-0.2223 -2.0557,0l-0.4707,0.1572c-0.9749,0.3249 -2.029,0.325 -3.0039,0l-0.4697,-0.1572c-0.6671,-0.2223 -1.3887,-0.2223 -2.0557,0l-0.4707,0.1572c-0.97492,0.3249 -2.02902,0.325 -3.00391,0l-0.46973,-0.1572c-0.66701,-0.2223 -1.38863,-0.2223 -2.05566,0l-1.73536,0.5791c-0.39294,0.131 -0.81824,-0.0817 -0.94922,-0.4746c-0.13096,-0.3929 0.0817,-0.8182 0.47461,-0.9492l0.46875,-0.1572c-0.0347,-0.0494 -0.07046,-0.0999 -0.10546,-0.1524c-0.39991,-0.5998 -0.87598,-1.5031 -0.87598,-2.4785c0,-0.9177 0.30535,-1.6713 0.59863,-2.1846c0.14752,-0.2581 0.29558,-0.4624 0.40918,-0.6045c0.05697,-0.0712 0.10607,-0.1275 0.14258,-0.1679c0.01819,-0.0202 0.03326,-0.0366 0.04492,-0.0489l0.02344,-0.0234c0.00017,-0.0002 0.00081,-0.001 0.30566,0.3037l-0.30468,-0.3047c0.22816,-0.2282 0.57655,-0.2847 0.86523,-0.1406h0.00098l0.02539,0.0127c0.01967,0.0095 0.05038,0.0241 0.09082,0.043c0.0813,0.0379 0.20335,0.0933 0.35937,0.1601c0.3024,0.1296 0.73256,0.3009 1.24805,0.4746l-2.3252,-3.9863l-1.84863,1.1104c-0.35512,0.2128 -0.81625,0.0972 -1.0293,-0.2579c-0.21281,-0.3551 -0.09718,-0.8162 0.25782,-1.0293l2.5,-1.49995l0.13476,-0.06348c0.13949,-0.04952 0.29197,-0.05685 0.4375,-0.01953c0.19412,0.04984 0.35992,0.17554 0.46094,0.34863l3.46289,5.93753c0.04635,0.0086 0.09299,0.0162 0.13965,0.0244v-4.584c0,-0.4142 0.33584,-0.7499 0.75,-0.75h1.24996v-2.25c0,-0.41418 0.3359,-0.74994 0.75,-0.75h1.25v-3.75c0,-0.41418 0.3359,-0.74994 0.75,-0.75zM18.7333,14.6582c-0.6635,0.2843 -1.5812,0.6639 -2.5947,1.0439c-1.0121,0.3796 -2.1298,0.7633 -3.1914,1.0528c-1.0488,0.286 -2.0952,0.4951 -2.94726,0.4951c-1.61342,0 -3.19988,-0.4016 -4.36231,-0.7891c-0.57868,-0.1929 -1.06248,-0.3856 -1.40527,-0.5322c-0.02611,0.0412 -0.05438,0.0842 -0.08105,0.1309c-0.20669,0.3617 -0.40137,0.8582 -0.40137,1.4404c0,0.5245 0.27394,1.1214 0.62402,1.6465c0.12695,0.1904 0.25594,0.3564 0.36524,0.4902c0.90594,-0.2494 1.86768,-0.225 2.76269,0.0733l0.47071,0.1572c0.66681,0.2222 1.38785,0.2221 2.0547,0l0.4707,-0.1572c0.9749,-0.325 2.029,-0.3249 3.0039,0l0.4707,0.1572c0.6668,0.2222 1.3879,0.2221 2.0547,0l0.4707,-0.1572c0.787,-0.2624 1.6257,-0.3126 2.4326,-0.1514c0.1443,-0.1408 0.3154,-0.3174 0.4834,-0.5274c0.4532,-0.5665 0.8359,-1.2772 0.8359,-2.0312c0,-0.8156 -0.3084,-1.5557 -0.6435,-2.1143c-0.1101,-0.1833 -0.222,-0.3408 -0.3194,-0.4707c-0.1557,0.0687 -0.3414,0.1522 -0.5537,0.2432zM9.74994,15.7461c0.08338,0.0024 0.16674,0.0039 0.25,0.0039c0.64796,0 1.53916,-0.166 2.55276,-0.4424c1.0007,-0.2729 2.0708,-0.6394 3.0586,-1.0097c0.2188,-0.0821 0.4324,-0.166 0.6406,-0.2471c-0.0011,-0.0168 -0.002,-0.0337 -0.002,-0.0508v-2.25h-6.49996zM11.7499,10.25h2.5v-1.5h-2.5z" fill="#002B51"/>
</svg>
