<svg width="24" height="24" viewBox="0 0 24 24" fill="none" xmlns="http://www.w3.org/2000/svg">
<path d="M16.498,19.71c0.9749,-0.325 2.0291,-0.3249 3.004,0l1.7353,0.5781l0.0713,0.0283c0.3467,0.156 0.5261,0.5525 0.4033,0.9209c-0.1228,0.3683 -0.5041,0.5781 -0.875,0.4951l-0.0742,-0.0205l-1.7344,-0.5791c-0.667,-0.2223 -1.3886,-0.2222 -2.0556,0l-0.4707,0.1572c-0.975,0.3249 -2.0291,0.325 -3.004,0l-0.4697,-0.1572c-0.667,-0.2223 -1.3886,-0.2222 -2.0556,0l-0.4707,0.1572c-0.97496,0.3249 -2.02905,0.325 -3.00395,0l-0.46973,-0.1572c-0.66701,-0.2223 -1.38862,-0.2222 -2.05566,0l-1.73536,0.5791c-0.39295,0.131 -0.81823,-0.0817 -0.94921,-0.4746c-0.13098,-0.393 0.08166,-0.8182 0.47461,-0.9492l1.73535,-0.5781c0.97488,-0.325 2.02902,-0.3249 3.0039,0l0.47071,0.1572c0.66682,0.2222 1.38785,0.2221 2.05464,0l0.4707,-0.1572c0.9749,-0.325 2.0291,-0.3249 3.004,0l0.4707,0.1572c0.6668,0.2222 1.3878,0.2221 2.0546,0zM19.1855,12.8193c0.2853,-0.1316 0.6226,-0.0717 0.8448,0.1504l0.0097,0.0098c0.0048,0.0048 0.0112,0.0118 0.0186,0.0195c0.0148,0.0155 0.0352,0.0368 0.0596,0.0635c0.0493,0.054 0.1167,0.1312 0.1963,0.2285c0.1588,0.1942 0.3694,0.4738 0.5791,0.8233c0.4147,0.6914 0.8564,1.7016 0.8564,2.8857c0,0.6667 -0.1787,1.2734 -0.4268,1.7988l-1.4257,-0.4746c-1.2315,-0.4105 -2.5635,-0.4104 -3.795,0l-0.4697,0.1563c-0.4105,0.1368 -0.8551,0.1368 -1.2656,0l-0.4697,-0.1563c-1.2315,-0.4105 -2.5635,-0.4104 -3.795,0l-0.46969,0.1563c-0.4105,0.1368 -0.85512,0.1368 -1.26562,0l-0.46973,-0.1563c-1.23149,-0.4105 -2.56342,-0.4104 -3.79492,0l-1.57617,0.5244c-0.16244,-0.4145 -0.27633,-0.8729 -0.27637,-1.3486c0,-0.9177 0.30538,-1.6713 0.59863,-2.1846c0.14748,-0.2581 0.2956,-0.4625 0.40918,-0.6045c0.05692,-0.0711 0.10608,-0.1275 0.14258,-0.1679c0.01813,-0.0201 0.03328,-0.0366 0.04492,-0.0489l0.02344,-0.0234v-0.001c0.00189,0.0016 0.02429,0.0235 0.30566,0.3047l-0.30468,-0.3047c0.22818,-0.2281 0.57656,-0.2848 0.86523,-0.1406h0.00098l0.02539,0.0127c0.01969,0.0095 0.05047,0.0241 0.09082,0.043c0.08131,0.0379 0.20344,0.0933 0.35937,0.1601c0.31271,0.134 0.76182,0.3135 1.30078,0.4932c1.08755,0.3625 2.50122,0.7119 3.8877,0.7119c0.6479,0 1.5392,-0.166 2.5527,-0.4424c1.0008,-0.2729 2.0709,-0.6394 3.0586,-1.0097c0.9861,-0.3698 1.8814,-0.7405 2.5303,-1.0186c0.3241,-0.1389 0.5871,-0.2543 0.7676,-0.335c0.0901,-0.0402 0.1601,-0.0724 0.207,-0.0937c0.0231,-0.0105 0.0411,-0.0181 0.0527,-0.0235c0.0058,-0.0026 0.0099,-0.0055 0.0127,-0.0068c0.0011,-0.0005 0.0023,-0.0007 0.003,-0.001zM13,2.75c0.4141,0.00014 0.75,0.33587 0.75,0.75v3.75h1.25c0.4141,0.00014 0.75,0.33587 0.75,0.75v2.25h1.25c0.4141,0.0001 0.75,0.3359 0.75,0.75v1.0049c-2.1429,0.8887 -5.7352,2.2451 -7.75,2.2451c-0.59112,0 -1.18183,-0.0608 -1.75,-0.1543v-3.0957c0,-0.4141 0.33591,-0.7499 0.75,-0.75h1.25v-2.25c0,-0.41413 0.3359,-0.74986 0.75,-0.75h1.25v-3.75c0,-0.41413 0.3359,-0.74986 0.75,-0.75zM3.74902,9.29297c0.13938,-0.04943 0.2921,-0.05678 0.4375,-0.01953c0.19399,0.04988 0.35996,0.17565 0.46094,0.34863l2.47266,4.23923c-0.84352,-0.2103 -1.58708,-0.4713 -2.13672,-0.6875l-1.24902,-2.1406l-1.84864,1.1104c-0.35507,0.2126 -0.81624,0.0971 -1.02929,-0.2579c-0.21274,-0.355 -0.09707,-0.8162 0.25782,-1.0293l2.5,-1.49995zM11.75,10.25h2.5v-1.5h-2.5z" fill="#002B51"/>
</svg>
