<svg width="24" height="24" viewBox="0 0 24 24" fill="none" xmlns="http://www.w3.org/2000/svg">
<path fill-rule="evenodd" clip-rule="evenodd" d="M13.7501,7.25h1.25c0.4142,0 0.75,0.33579 0.75,0.75v2.25h1.25c0.4142,0 0.75,0.3358 0.75,0.75v2.4458c0.1387,-0.0584 0.2697,-0.114 0.392,-0.1664c0.3242,-0.139 0.5863,-0.2546 0.7668,-0.3353c0.0902,-0.0403 0.1601,-0.0719 0.207,-0.0932l0.053,-0.0242l0.013,-0.0059l0.0031,-0.0015l0.0006,-0.0003h0.0001c0.2853,-0.1317 0.6224,-0.0715 0.8446,0.1507l-0.5303,0.5303c0.5303,-0.5303 0.5305,-0.5302 0.5307,-0.53l0.0004,0.0004l0.0009,0.0009l0.0022,0.0022l0.006,0.0062l0.0184,0.0189c0.0149,0.0156 0.035,0.037 0.0597,0.064c0.0493,0.054 0.1169,0.1307 0.1965,0.2281c0.1589,0.1941 0.3686,0.4739 0.5783,0.8234c0.4149,0.6915 0.8569,1.7015 0.8569,2.8859c0,1.246 -0.6176,2.285 -1.1644,2.9685c-0.0219,0.0274 -0.0438,0.0543 -0.0657,0.0809l0.7173,0.2391c0.3929,0.131 0.6053,0.5557 0.4743,0.9487c-0.131,0.3929 -0.5557,0.6053 -0.9487,0.4743l-1.7348,-0.5783c-0.6672,-0.2224 -1.3884,-0.2224 -2.0555,-0.0001l-0.4704,0.1568c-0.9751,0.325 -2.0292,0.325 -3.0042,-0.0001l-0.4699,-0.1566c-0.6672,-0.2224 -1.3884,-0.2224 -2.0555,-0.0001l-0.4704,0.1568c-0.97506,0.325 -2.02918,0.325 -3.00419,-0.0001l-0.46996,-0.1566c-0.66711,-0.2224 -1.38836,-0.2224 -2.05548,-0.0001l-1.73532,0.5784c-0.39296,0.131 -0.8177,-0.0814 -0.94867,-0.4744c-0.13098,-0.3929 0.0814,-0.8177 0.47436,-0.9486l0.4685,-0.1562c-0.03493,-0.0497 -0.07013,-0.101 -0.10537,-0.1538c-0.39991,-0.5999 -0.87598,-1.5031 -0.87598,-2.4785c0,-0.9178 0.3055,-1.6713 0.59881,-2.1847c0.14755,-0.2582 0.29566,-0.4622 0.40927,-0.6042c0.05699,-0.0713 0.10584,-0.1276 0.14235,-0.168c0.01828,-0.0203 0.03352,-0.0366 0.04521,-0.0488l0.01483,-0.0154l0.00532,-0.0055l0.00211,-0.0021l0.00092,-0.0009l0.00042,-0.0004c0.0002,-0.0002 0.0004,-0.0004 0.53076,0.5299l-0.53036,-0.5303c0.22815,-0.2282 0.57665,-0.2849 0.86532,-0.1408h0.00007l0.00016,0.0001l0.00022,0.0001l0.00007,0.0001l0.00435,0.0021l0.02127,0.0104c0.01967,0.0095 0.05019,0.0241 0.09083,0.0431c0.08132,0.0379 0.20296,0.0932 0.35914,0.1602c0.30274,0.1297 0.73328,0.3023 1.24973,0.4762l-2.32597,-3.9874l-1.84887,1.1094c-0.35518,0.2131 -0.81588,0.098 -1.029,-0.2572c-0.21312,-0.3552 -0.09797,-0.8159 0.25721,-1.029l2.5,-1.50013c0.17194,-0.10317 0.37804,-0.1332 0.57227,-0.08336c0.19423,0.04983 0.36042,0.17536 0.46146,0.34857l3.46539,5.94082c0.04544,0.0084 0.09103,0.0167 0.13677,0.0247v-4.5875c0,-0.4142 0.33579,-0.75 0.75,-0.75h1.25005v-2.25c0,-0.41421 0.3357,-0.75 0.75,-0.75h1.25v-3.75c0,-0.41421 0.3357,-0.75 0.75,-0.75c0.4142,0 0.75,0.33579 0.75,0.75zM16.2519,14.0529c-0.0012,-0.0175 -0.0018,-0.0351 -0.0018,-0.0529v-2.25h-1.25h-4h-1.25005v3.9962c0.08336,0.0024 0.1667,0.0037 0.24994,0.0037c0.64791,0 1.53901,-0.1659 2.55271,-0.4423c1.0009,-0.273 2.0711,-0.6395 3.059,-1.0099c0.2184,-0.0819 0.4324,-0.1639 0.6402,-0.2448zM13.0001,8.75h-1.25v1.5h2.5v-1.5zM20.25,17c0,-0.8156 -0.308,-1.5556 -0.6431,-2.1141c-0.1095,-0.1825 -0.219,-0.3407 -0.316,-0.4703c-0.1564,0.069 -0.3442,0.1508 -0.558,0.2425c-0.6635,0.2844 -1.5809,0.664 -2.5946,1.0441c-1.0121,0.3795 -2.1294,0.763 -3.191,1.0525c-1.0488,0.2861 -2.0952,0.4952 -2.94731,0.4952c-1.61343,0 -3.19973,-0.401 -4.36217,-0.7885c-0.57992,-0.1933 -1.06446,-0.3867 -1.40742,-0.5334c-0.02605,0.0411 -0.05261,0.085 -0.07921,0.1315c-0.2067,0.3617 -0.4012,0.8583 -0.4012,1.4405c0,0.5245 0.27394,1.1213 0.62403,1.6464c0.12679,0.1902 0.25421,0.3571 0.36342,0.4909c0.90661,-0.2501 1.86914,-0.2258 2.76489,0.0728l0.46995,0.1567c0.66711,0.2224 1.38836,0.2224 2.05552,0.0001l0.4704,-0.1568c0.975,-0.325 2.0291,-0.325 3.0041,0l0.47,0.1567c0.6671,0.2224 1.3883,0.2224 2.0555,0.0001l0.4704,-0.1568c0.7884,-0.2628 1.6285,-0.3131 2.4367,-0.1509c0.144,-0.1404 0.3121,-0.3187 0.4795,-0.5278c0.4532,-0.5665 0.8356,-1.2774 0.8356,-2.0314zM4.53331,15.5272l-0.00055,0.0005l-0.00086,0.001c0.00061,-0.0007 0.00109,-0.0012 0.00141,-0.0015z" fill="#002B51"/>
</svg>
