<svg width="24" height="24" viewBox="0 0 24 24" fill="none" xmlns="http://www.w3.org/2000/svg">
<path fill-rule="evenodd" clip-rule="evenodd" d="M13.7501 3.5C13.7501 3.08579 13.4143 2.75 13.0001 2.75C12.5858 2.75 12.2501 3.08579 12.2501 3.5V7.25H11.0001C10.5858 7.25 10.2501 7.58579 10.2501 8V10.25H9.00005C8.58584 10.25 8.25005 10.5858 8.25005 11V15.5875C8.20431 15.5795 8.15872 15.5712 8.11328 15.5628L4.64789 9.62198C4.54685 9.44877 4.38066 9.32324 4.18643 9.27341C3.9922 9.22357 3.7861 9.2536 3.61416 9.35677L1.11416 10.8569C0.75898 11.07 0.643823 11.5307 0.856946 11.8859C1.07007 12.2411 1.53077 12.3562 1.88595 12.1431L3.73482 11.0337L6.06079 15.0211C5.54434 14.8472 5.1138 14.6746 4.81106 14.5449C4.65488 14.4779 4.53324 14.4226 4.45192 14.3847C4.41128 14.3657 4.38076 14.3511 4.36109 14.3416L4.33982 14.3312L4.33547 14.3291L4.3354 14.329L4.33518 14.3289L4.33502 14.3288L4.33495 14.3288C4.04628 14.1847 3.69778 14.2414 3.46963 14.4696L3.99999 14.9999C3.46963 14.4696 3.46943 14.4698 3.46923 14.47L3.46881 14.4704L3.46789 14.4713L3.46578 14.4734L3.46046 14.4789L3.44563 14.4943C3.43394 14.5065 3.4187 14.5228 3.40042 14.5431C3.36391 14.5835 3.31506 14.6398 3.25807 14.7111C3.14446 14.8531 2.99635 15.0571 2.8488 15.3153C2.55549 15.8287 2.24999 16.5822 2.24999 17.5C2.24999 18.4754 2.72606 19.3786 3.12597 19.9785C3.16121 20.0313 3.19641 20.0826 3.23134 20.1323L2.76284 20.2885C2.36988 20.4194 2.1575 20.8442 2.28848 21.2371C2.41945 21.6301 2.84419 21.8425 3.23715 21.7115L4.97247 21.1331C5.63959 20.9108 6.36084 20.9108 7.02795 21.1332L7.49791 21.2898C8.47292 21.6149 9.52704 21.6149 10.5021 21.2899L10.9725 21.1331C11.6396 20.9108 12.3608 20.9108 13.028 21.1332L13.4979 21.2898C14.4729 21.6149 15.527 21.6149 16.5021 21.2899L16.9725 21.1331C17.6396 20.9108 18.3608 20.9108 19.028 21.1332L20.7628 21.7115C21.1558 21.8425 21.5805 21.6301 21.7115 21.2372C21.8425 20.8442 21.6301 20.4195 21.2372 20.2885L20.5199 20.0494C20.5418 20.0228 20.5637 19.9959 20.5856 19.9685C21.1324 19.285 21.75 18.246 21.75 17C21.75 15.8156 21.308 14.8056 20.8931 14.1141C20.6834 13.7646 20.4737 13.4848 20.3148 13.2907C20.2352 13.1933 20.1676 13.1166 20.1183 13.0626C20.0936 13.0356 20.0735 13.0142 20.0586 12.9986L20.0402 12.9797L20.0342 12.9735L20.032 12.9713L20.0311 12.9704L20.0307 12.97C20.0305 12.9698 20.0303 12.9697 19.5 13.5L20.0303 12.9697C19.8081 12.7475 19.471 12.6873 19.1857 12.819L19.1856 12.819L19.185 12.8193L19.1819 12.8208L19.1689 12.8267L19.1159 12.8509C19.069 12.8722 18.9991 12.9038 18.9089 12.9441C18.7284 13.0248 18.4663 13.1404 18.1421 13.2794C18.0198 13.3318 17.8888 13.3874 17.7501 13.4458V11C17.7501 10.5858 17.4143 10.25 17.0001 10.25H15.7501V8C15.7501 7.58579 15.4143 7.25 15.0001 7.25H13.7501V3.5ZM16.2519 14.0529C16.2507 14.0354 16.2501 14.0178 16.2501 14V11.75H15.0001H11.0001H9.75005V15.7462C9.83341 15.7486 9.91675 15.7499 9.99999 15.7499C10.6479 15.7499 11.539 15.584 12.5527 15.3076C13.5536 15.0346 14.6238 14.6681 15.6117 14.2977C15.8301 14.2158 16.0441 14.1338 16.2519 14.0529ZM14.2501 8.75V10.25H11.7501V8.75H13.0001H14.2501ZM19.4144 19.0314C19.247 19.2405 19.0789 19.4188 18.9349 19.5592C18.1267 19.397 17.2866 19.4473 16.4982 19.7101L16.0278 19.8669C15.3606 20.0892 14.6394 20.0892 13.9723 19.8668L13.5023 19.7101C12.5273 19.3851 11.4732 19.3851 10.4982 19.7101L10.0278 19.8669C9.36064 20.0892 8.63939 20.0892 7.97228 19.8668L7.50233 19.7101C6.60658 19.4115 5.64405 19.3872 4.73744 19.6373C4.62823 19.5035 4.50081 19.3366 4.37402 19.1464C4.02393 18.6213 3.74999 18.0245 3.74999 17.5C3.74999 16.9178 3.94449 16.4212 4.15119 16.0595C4.17779 16.013 4.20435 15.9691 4.2304 15.928C4.57336 16.0747 5.0579 16.2681 5.63782 16.4614C6.80026 16.8489 8.38656 17.2499 9.99999 17.2499C10.8521 17.2499 11.8985 17.0408 12.9473 16.7547C14.0089 16.4652 15.1262 16.0817 16.1383 15.7022C17.152 15.3221 18.0694 14.9425 18.7329 14.6581C18.9467 14.5664 19.1345 14.4846 19.2909 14.4156C19.3879 14.5452 19.4974 14.7034 19.6069 14.8859C19.942 15.4444 20.25 16.1844 20.25 17C20.25 17.754 19.8676 18.4649 19.4144 19.0314ZM4.5319 15.5287L4.53276 15.5277L4.53331 15.5272C4.53299 15.5275 4.53251 15.528 4.5319 15.5287Z" fill="#002B51"/>
</svg>
