<svg width="24" height="24" viewBox="0 0 24 24" fill="none" xmlns="http://www.w3.org/2000/svg">
<path fill-rule="evenodd" clip-rule="evenodd" d="M8.11298,15.5626c0.04559,0.0085 0.09134,0.0168 0.13722,0.0248v-4.5874c0,-0.4142 0.33579,-0.75 0.75,-0.75h1.25v-2.25c0,-0.41421 0.3358,-0.75 0.75,-0.75h1.25v-3.75c0,-0.41421 0.3358,-0.75 0.75,-0.75c0.4142,0 0.75,0.33579 0.75,0.75v3.75h1.25c0.4142,0 0.75,0.33579 0.75,0.75v2.25h1.25c0.4142,0 0.75,0.3358 0.75,0.75v2.4455c0.1386,-0.0583 0.2694,-0.1139 0.3915,-0.1662c0.3242,-0.139 0.5871,-0.2543 0.7676,-0.335c0.0699,-0.0312 0.1276,-0.0575 0.1718,-0.0777l0.0002,-0.0001l0.0351,-0.0159c0.0129,-0.0059 0.0241,-0.0108 0.0336,-0.015l0.0002,-0.0001l0.0189,-0.0084c0.0058,-0.0026 0.0099,-0.0055 0.0127,-0.0068c0.0012,-0.0005 0.0023,-0.0007 0.0029,-0.001h0.001c0.2853,-0.1316 0.6225,-0.0718 0.8447,0.1504l0.0098,0.0098l0.0092,0.0097l0.0093,0.0098c0.0149,0.0155 0.0351,0.0367 0.0596,0.0635c0.0493,0.054 0.1166,0.1311 0.1963,0.2285c0.1589,0.1942 0.3694,0.4737 0.5791,0.8232c0.4148,0.6915 0.8564,1.7015 0.8564,2.8858c0,1.246 -0.6173,2.2853 -1.164,2.9687c-0.0218,0.0273 -0.0437,0.0542 -0.0655,0.0806l0.7168,0.2388l0.0713,0.0283c0.3467,0.156 0.5262,0.5525 0.4034,0.9209c-0.1228,0.3683 -0.5042,0.5782 -0.875,0.4951l-0.0743,-0.0205l-1.7343,-0.5791c-0.6671,-0.2224 -1.3886,-0.2223 -2.0557,0l-0.4707,0.1572c-0.9141,0.3047 -1.8976,0.3233 -2.8203,0.0567l-0.1836,-0.0567l-0.4697,-0.1572c-0.5839,-0.1946 -1.2095,-0.2183 -1.8037,-0.0723l-0.252,0.0723l-0.4707,0.1572c-0.97492,0.3249 -2.029,0.325 -3.00391,0l-0.46972,-0.1572c-0.66703,-0.2224 -1.38862,-0.2223 -2.05567,0l-1.73535,0.5791c-0.39295,0.131 -0.81823,-0.0817 -0.94922,-0.4746c-0.13097,-0.393 0.08166,-0.8182 0.47461,-0.9492l0.46842,-0.1561c-0.03485,-0.0496 -0.06998,-0.1008 -0.10514,-0.1535c-0.39991,-0.5998 -0.87597,-1.5031 -0.87597,-2.4785c0,-0.9178 0.30535,-1.6713 0.59863,-2.1846c0.14753,-0.2582 0.29557,-0.4625 0.40918,-0.6045c0.05699,-0.0712 0.10606,-0.1275 0.14258,-0.1679c0.0182,-0.0202 0.03325,-0.0366 0.04492,-0.0489l0.02344,-0.0234v-0.001c0.00016,-0.0002 0.00079,0 0.30566,0.3047l-0.30469,-0.3047c0.22818,-0.2282 0.57655,-0.2848 0.86524,-0.1406h0.00097l0.02539,0.0127c0.01969,0.0095 0.05036,0.0241 0.09082,0.043c0.08132,0.0379 0.20334,0.0932 0.35938,0.1601c0.30271,0.1297 0.73313,0.3021 1.24933,0.4759l-2.32642,-3.9876l-1.84863,1.1104c-0.35514,0.2128 -0.81624,0.0972 -1.0293,-0.2579c-0.21287,-0.3551 -0.09726,-0.8162 0.25781,-1.0293l2.5,-1.49995l0.13477,-0.06348c0.13952,-0.04953 0.29193,-0.05688 0.4375,-0.01953c0.19413,0.04984 0.35992,0.17551 0.46093,0.34863zM9.7502,15.7463c0.08336,0.0024 0.1667,0.0037 0.2499,0.0037c0.648,0 1.5391,-0.166 2.5528,-0.4424c1.0007,-0.2729 2.0708,-0.6394 3.0586,-1.0098c0.2185,-0.0819 0.4326,-0.1639 0.6405,-0.2449c-0.0012,-0.0175 -0.0018,-0.0351 -0.0018,-0.0529v-2.25h-6.5zM11.7502,8.75v1.5h2.5v-1.5zM20.2501,17c0,-0.8156 -0.3084,-1.5557 -0.6435,-2.1143c-0.1101,-0.1834 -0.222,-0.3408 -0.3193,-0.4707l-0.1339,0.0593h-0.0001c-0.1249,0.0554 -0.2653,0.1177 -0.4198,0.1839c-0.6635,0.2843 -1.5811,0.6639 -2.5947,1.0439c-1.0121,0.3796 -2.1298,0.7633 -3.1914,1.0528c-1.0488,0.286 -2.0952,0.4951 -2.9473,0.4951c-1.61339,0 -3.19982,-0.4016 -4.36226,-0.7891c-0.5787,-0.1929 -1.06248,-0.3856 -1.40527,-0.5322l-0.01602,0.0251v0c-0.02143,0.0336 -0.04373,0.0685 -0.06504,0.1058c-0.20669,0.3617 -0.40136,0.8582 -0.40136,1.4404c0,0.5245 0.27393,1.1214 0.62402,1.6465c0.12673,0.1901 0.25411,0.3569 0.36328,0.4906c0.90651,-0.2499 1.86901,-0.2256 2.76465,0.0728l0.4707,0.1573c0.66683,0.2222 1.38785,0.2221 2.0547,0l0.4707,-0.1573l0.1836,-0.0566c0.9227,-0.2666 1.9062,-0.248 2.8203,0.0566l0.4707,0.1573l0.252,0.0722c0.594,0.146 1.219,0.1222 1.8027,-0.0722l0.4707,-0.1573l0.1836,-0.0566c0.7345,-0.2122 1.5075,-0.2437 2.2533,-0.0941c0.144,-0.1405 0.3119,-0.3189 0.4791,-0.528c0.4532,-0.5665 0.8359,-1.2772 0.8359,-2.0312z" fill="#002B51"/>
</svg>
