<svg width="24" height="24" viewBox="0 0 24 24" fill="none" xmlns="http://www.w3.org/2000/svg">
<path fill-rule="evenodd" clip-rule="evenodd" d="M13.7501,7.25h1.25c0.4142,0 0.75,0.33579 0.75,0.75v2.25h1.25c0.4142,0 0.75,0.3358 0.75,0.75v1.0085c-2.143,0.8887 -5.7356,2.2414 -7.7501,2.2414c-0.59094,0 -1.18188,-0.0582 -1.74989,-0.1517v-3.0982c0,-0.4142 0.33579,-0.75 0.75,-0.75h1.24999v-2.25c0,-0.41421 0.3358,-0.75 0.75,-0.75h1.25v-3.75c0,-0.41421 0.3358,-0.75 0.75,-0.75c0.4142,0 0.75,0.33579 0.75,0.75zM4.64795,9.62198l2.47433,4.24182c-0.84331,-0.2102 -1.58725,-0.4707 -2.13721,-0.6869l-1.25019,-2.1432l-1.84887,1.1094c-0.35518,0.2131 -0.81588,0.098 -1.029,-0.2572c-0.21312,-0.3552 -0.09797,-0.8159 0.25721,-1.029l2.5,-1.50013c0.17194,-0.10317 0.37804,-0.1332 0.57227,-0.08336c0.19424,0.04983 0.36042,0.17536 0.46146,0.34857zM13.0001,8.75h-1.25v1.5h2.5v-1.5zM20.0302,12.9697l-0.5303,0.5303c0.5303,-0.5303 0.5305,-0.5301 0.5307,-0.53l0.0004,0.0004l0.0009,0.0009l0.0022,0.0023l0.006,0.0061l0.0184,0.019c0.0149,0.0155 0.035,0.0369 0.0597,0.064c0.0493,0.054 0.1169,0.1306 0.1965,0.228c0.1589,0.1942 0.3686,0.4739 0.5783,0.8234c0.4149,0.6915 0.8569,1.7015 0.8569,2.8859c0,0.6669 -0.1769,1.2745 -0.4252,1.8001l-1.4272,-0.4758c-1.2315,-0.4106 -2.5631,-0.4106 -3.7947,-0.0001l-0.4704,0.1568c-0.4105,0.1368 -0.8544,0.1368 -1.2649,0l-0.4699,-0.1567c-1.2316,-0.4106 -2.5632,-0.4106 -3.7948,-0.0001l-0.47038,0.1568c-0.41054,0.1368 -0.85438,0.1368 -1.26491,0l-0.46996,-0.1567c-1.23159,-0.4106 -2.56312,-0.4106 -3.79473,-0.0001l-1.57689,0.5256c-0.16262,-0.4148 -0.27603,-0.8737 -0.27603,-1.3498c0,-0.9178 0.3055,-1.6713 0.59881,-2.1846c0.14754,-0.2583 0.29566,-0.4623 0.40927,-0.6043c0.05699,-0.0712 0.10583,-0.1276 0.14235,-0.168c0.01828,-0.0202 0.03352,-0.0365 0.04521,-0.0488l0.01483,-0.0154l0.00532,-0.0054l0.00211,-0.0022l0.00092,-0.0009l0.00042,-0.0004c0.0002,-0.0002 0.0004,-0.0004 0.53076,0.5299l-0.53036,-0.5303c0.22815,-0.2282 0.57665,-0.2848 0.86532,-0.1408l0.00007,0.0001l0.00016,0.0001l0.00022,0.0001h0.00007l0.00435,0.0022l0.02127,0.0103c0.01967,0.0095 0.05019,0.0241 0.09083,0.0431c0.08131,0.038 0.20296,0.0933 0.35914,0.1602c0.31272,0.134 0.76181,0.3137 1.3011,0.4935c1.08757,0.3625 2.50127,0.7115 3.88783,0.7115c0.6479,0 1.539,-0.1659 2.5527,-0.4423c1.0009,-0.273 2.0711,-0.6395 3.059,-1.0099c0.9863,-0.3699 1.8814,-0.7402 2.5304,-1.0183c0.3242,-0.139 0.5863,-0.2546 0.7668,-0.3352c0.0903,-0.0404 0.1601,-0.0719 0.207,-0.0933l0.053,-0.0241l0.013,-0.006l0.0031,-0.0014l0.0007,-0.0003v-0.0001c0.2853,-0.1316 0.6224,-0.0715 0.8446,0.1507zM7.02792,21.1332c-0.66712,-0.2224 -1.38836,-0.2224 -2.05549,-0.0001l-1.73532,0.5784c-0.39296,0.131 -0.81769,-0.0814 -0.94867,-0.4743c-0.13098,-0.393 0.08141,-0.8177 0.47437,-0.9487l1.73532,-0.5784c0.97502,-0.325 2.02915,-0.325 3.00416,0.0001l0.46996,0.1566c0.66711,0.2224 1.38835,0.2224 2.05545,0.0001l0.4704,-0.1568c0.9751,-0.325 2.0292,-0.325 3.0042,0.0001l0.4699,0.1566c0.6672,0.2224 1.3884,0.2224 2.0555,0.0001l0.4704,-0.1568c0.9751,-0.325 2.0292,-0.325 3.0042,0.0001l1.7348,0.5783c0.393,0.131 0.6054,0.5557 0.4744,0.9487c-0.131,0.3929 -0.5558,0.6053 -0.9487,0.4743l-1.7349,-0.5783c-0.6671,-0.2224 -1.3883,-0.2224 -2.0555,-0.0001l-0.4704,0.1568c-0.975,0.325 -2.0291,0.325 -3.0041,-0.0001l-0.47,-0.1566c-0.6671,-0.2224 -1.3883,-0.2224 -2.0555,-0.0001l-0.4704,0.1568c-0.97499,0.325 -2.02912,0.325 -3.00413,-0.0001z" fill="#002B51"/>
</svg>
