<svg width="24" height="24" viewBox="0 0 24 24" fill="none" xmlns="http://www.w3.org/2000/svg">
<path d="M4.49807,19.71c0.97488,-0.325 2.02902,-0.3249 3.0039,0l0.47071,0.1572c0.66682,0.2222 1.38785,0.2221 2.05472,0l0.4707,-0.1572l0.1836,-0.0567c0.9227,-0.2666 1.9062,-0.248 2.8203,0.0567l0.4707,0.1572l0.2519,0.0723c0.594,0.1459 1.2191,0.1221 1.8028,-0.0723l0.4707,-0.1572l0.1836,-0.0567c0.9227,-0.2666 1.9062,-0.248 2.8203,0.0567l1.7353,0.5781l0.0713,0.0283c0.3467,0.156 0.5261,0.5525 0.4033,0.9209c-0.1227,0.3683 -0.5041,0.5781 -0.875,0.4951l-0.0742,-0.0205l-1.7344,-0.5791c-0.667,-0.2223 -1.3886,-0.2222 -2.0556,0l-0.4707,0.1572c-0.9141,0.3047 -1.8976,0.3233 -2.8203,0.0567l-0.1836,-0.0567l-0.4698,-0.1572c-0.5838,-0.1946 -1.2095,-0.2183 -1.8037,-0.0723l-0.2519,0.0723l-0.4707,0.1572c-0.97494,0.3249 -2.02903,0.325 -3.00393,0l-0.46973,-0.1572c-0.66701,-0.2223 -1.38862,-0.2222 -2.05566,0l-1.73535,0.5791c-0.39296,0.131 -0.81824,-0.0817 -0.94922,-0.4746c-0.13098,-0.393 0.08166,-0.8182 0.47461,-0.9492zM19.1856,12.8193c0.2853,-0.1316 0.6225,-0.0718 0.8447,0.1504l0.0098,0.0098c0.0047,0.0048 0.0112,0.0119 0.0185,0.0195c0.0148,0.0155 0.0352,0.0368 0.0596,0.0635c0.0493,0.054 0.1167,0.1313 0.1963,0.2285c0.1588,0.1942 0.3695,0.4739 0.5791,0.8233c0.4147,0.6914 0.8564,1.7017 0.8564,2.8857c-0.0001,0.6666 -0.1787,1.2734 -0.4267,1.7988l-1.4258,-0.4746c-1.1546,-0.3848 -2.397,-0.4089 -3.5625,-0.0722l-0.2324,0.0722l-0.4698,0.1563c-0.359,0.1196 -0.7439,0.1346 -1.1093,0.0449l-0.1563,-0.0449l-0.4697,-0.1563c-1.1546,-0.3848 -2.397,-0.4089 -3.5625,-0.0722l-0.2324,0.0722l-0.46977,0.1563c-0.35905,0.1196 -0.74393,0.1346 -1.10937,0.0449l-0.15625,-0.0449l-0.46973,-0.1563c-1.15454,-0.3848 -2.39697,-0.4089 -3.5625,-0.0722l-0.23242,0.0722l-1.57617,0.5244c-0.16242,-0.4145 -0.2763,-0.8729 -0.27637,-1.3486c0,-0.9176 0.3054,-1.6713 0.59863,-2.1846c0.14746,-0.258 0.2956,-0.4624 0.40918,-0.6045c0.0569,-0.0711 0.10608,-0.1275 0.14258,-0.1679c0.01812,-0.0201 0.03328,-0.0366 0.04492,-0.0489l0.02344,-0.0234v-0.001c0.00256,0.0023 0.02878,0.028 0.30566,0.3047l-0.30468,-0.3047c0.22818,-0.2282 0.57654,-0.2848 0.86523,-0.1406h0.00098l0.02539,0.0127c0.01969,0.0095 0.05053,0.0242 0.09082,0.043c0.08131,0.0379 0.20349,0.0933 0.35937,0.1601c0.3127,0.134 0.76186,0.3135 1.30079,0.4932c1.08753,0.3625 2.50124,0.7119 3.88767,0.7119c0.6479,0 1.5392,-0.166 2.5528,-0.4424c1.0007,-0.2729 2.0708,-0.6394 3.0585,-1.0097c0.9861,-0.3698 1.8814,-0.7405 2.5303,-1.0186c0.3242,-0.1389 0.5871,-0.2543 0.7676,-0.335c0.0901,-0.0402 0.1601,-0.0724 0.207,-0.0937c0.0232,-0.0105 0.0411,-0.0181 0.0528,-0.0235c0.0057,-0.0026 0.0098,-0.0055 0.0127,-0.0068c0.0011,-0.0005 0.0022,-0.0007 0.0029,-0.001zM13,2.75c0.4142,0 0.75,0.33579 0.75,0.75v3.75h1.25c0.4142,0 0.75,0.33579 0.75,0.75v2.25h1.25c0.4142,0 0.75,0.3358 0.75,0.75v1.0049c-2.1429,0.8887 -5.7351,2.2451 -7.75,2.2451c-0.59109,0 -1.18181,-0.0608 -1.74998,-0.1543v-3.0957c0,-0.4142 0.33579,-0.75 0.75,-0.75h1.24998v-2.25c0,-0.41421 0.3358,-0.75 0.75,-0.75h1.25v-3.75c0,-0.41421 0.3358,-0.75 0.75,-0.75zM3.74904,9.29297c0.13952,-0.04953 0.29194,-0.05688 0.4375,-0.01953c0.19414,0.04984 0.35992,0.17551 0.46094,0.34863l2.47266,4.23923c-0.84352,-0.2103 -1.58708,-0.4713 -2.13672,-0.6875l-1.24902,-2.1406l-1.84864,1.1104c-0.35513,0.2128 -0.81623,0.0972 -1.02929,-0.2579c-0.21287,-0.3551 -0.09726,-0.8162 0.25781,-1.0293l2.5,-1.49995zM11.75,10.25h2.5v-1.5h-2.5z" fill="#002B51"/>
</svg>
