<svg width="24" height="24" viewBox="0 0 24 24" fill="none" xmlns="http://www.w3.org/2000/svg">
<path d="M8.94629,3.69263c1.20571,0.01351 2.31451,0.39247 3.31741,0.76855c2.0661,0.77483 3.7515,1.53147 5.9179,0.51563c0.2323,-0.10893 0.5042,-0.09173 0.7207,0.0459c0.2165,0.13764 0.3477,0.3763 0.3477,0.63281v9.18848c0,0.2994 -0.1782,0.5699 -0.4531,0.6885c-2.8302,1.2203 -5.1439,0.0996 -7.0606,-0.6192c-0.9912,-0.3717 -1.87867,-0.6478 -2.79099,-0.6377c-0.80609,0.0091 -1.68458,0.2443 -2.69531,0.9493v4.7753l-0.00391,0.0772c-0.03872,0.3779 -0.358,0.6728 -0.74609,0.6728c-0.38809,0 -0.70737,-0.2949 -0.74609,-0.6728l-0.00391,-0.0772v-14.34468l0.00488,-0.08887c0.02444,-0.20538 0.13364,-0.39298 0.30274,-0.5166l0.25586,-0.18066c1.27433,-0.86587 2.4732,-1.18966 3.63281,-1.17676z" fill="#002B51"/>
</svg>
