<svg width="24" height="24" viewBox="0 0 24 24" fill="none" xmlns="http://www.w3.org/2000/svg">
<path d="M8.94629,3.69226c1.20571,0.01351 2.31451,0.39248 3.31741,0.76856c2.0661,0.77482 3.7515,1.53146 5.9179,0.51562c0.2323,-0.10883 0.5043,-0.0916 0.7207,0.0459c0.2164,0.13758 0.3476,0.37644 0.3477,0.63281v9.18845c0,0.2994 -0.1783,0.5699 -0.4531,0.6885c-2.8302,1.2203 -5.1439,0.0996 -7.0606,-0.6191c-0.9912,-0.3717 -1.87871,-0.6478 -2.79099,-0.6377c-0.80604,0.009 -1.68465,0.2443 -2.69531,0.9492v4.7754c0,0.4142 -0.33579,0.75 -0.75,0.75c-0.41421,0 -0.75,-0.3358 -0.75,-0.75v-14.34475c0.00012,-0.23915 0.11454,-0.46431 0.30762,-0.60547c1.37022,-1.00167 2.65179,-1.37118 3.88867,-1.35742z" fill="#002B51"/>
</svg>
