<svg width="24" height="24" viewBox="0 0 24 24" fill="none" xmlns="http://www.w3.org/2000/svg">
<path fill-rule="evenodd" clip-rule="evenodd" d="M8.94629,3.69263c1.20571,0.01351 2.31451,0.39247 3.31741,0.76855c0.1251,0.04694 0.2489,0.09381 0.3714,0.14022h0.0001c1.9006,0.71978 3.5112,1.32972 5.5464,0.37541c0.2323,-0.10893 0.5042,-0.09173 0.7207,0.0459c0.2165,0.13764 0.3477,0.3763 0.3477,0.63281v9.18848c0,0.2994 -0.1782,0.5699 -0.4531,0.6885c-2.5781,1.1116 -4.7275,0.2807 -6.5387,-0.4194c-0.1772,-0.0685 -0.3511,-0.1357 -0.5219,-0.1998c-0.9912,-0.3717 -1.87867,-0.6478 -2.79099,-0.6377c-0.80597,0.009 -1.68476,0.2436 -2.69531,0.9483v4.7761l-0.00391,0.0772c-0.03862,0.3779 -0.35792,0.6728 -0.74609,0.6728c-0.38817,0 -0.70747,-0.2949 -0.74609,-0.6728l-0.00391,-0.0772v-5.156v-0.344v-8.84448l0.00488,-0.08887c0.02444,-0.20538 0.13364,-0.39298 0.30274,-0.5166l0.25586,-0.18066c1.27433,-0.86587 2.4732,-1.18966 3.63281,-1.17676z" fill="#002B51"/>
</svg>
