<svg width="24" height="24" viewBox="0 0 24 24" fill="none" xmlns="http://www.w3.org/2000/svg">
<path d="M8.94629,3.69226c1.20571,0.01351 2.31451,0.39248 3.31741,0.76856c2.0661,0.77482 3.7515,1.53146 5.9179,0.51562c0.2323,-0.10883 0.5043,-0.0916 0.7207,0.0459c0.2164,0.13758 0.3476,0.37644 0.3477,0.63281v9.18845c0,0.2994 -0.1783,0.5699 -0.4531,0.6885c-2.8302,1.2203 -5.1439,0.0996 -7.0606,-0.6191c-0.9912,-0.3717 -1.87871,-0.6478 -2.79099,-0.6377c-0.80604,0.009 -1.68465,0.2443 -2.69531,0.9492v4.7754c0,0.4142 -0.33579,0.75 -0.75,0.75c-0.41421,0 -0.75,-0.3358 -0.75,-0.75v-14.34475c0.00012,-0.23915 0.11454,-0.46431 0.30762,-0.60547c1.37022,-1.00167 2.65179,-1.37118 3.88867,-1.35742zM8.92871,5.19226c-0.80634,-0.00889 -1.6792,0.19891 -2.67871,0.85547v7.42287c0.92232,-0.4813 1.81051,-0.6857 2.67969,-0.6953c1.21241,-0.0133 2.32551,0.3552 3.33401,0.7334c1.936,0.726 3.5292,1.468 5.4863,0.8183v-7.59372c-2.3545,0.65901 -4.3288,-0.23536 -6.0137,-0.86719c-0.9968,-0.37382 -1.8886,-0.6636 -2.80759,-0.67383z" fill="#002B51"/>
</svg>
