<svg width="24" height="24" viewBox="0 0 24 24" fill="none" xmlns="http://www.w3.org/2000/svg">
<path fill-rule="evenodd" clip-rule="evenodd" d="M6.25 13.4707V6.04748C7.24965 5.39086 8.12271 5.18393 8.92915 5.1929C9.84823 5.20313 10.7397 5.49219 11.7367 5.86606C11.8755 5.91812 12.0163 5.97197 12.1591 6.02659L12.1591 6.02659C13.7494 6.63484 15.5896 7.33864 17.75 6.73397V14.3283C15.9652 14.9207 14.4828 14.3548 12.7672 13.6999C12.6016 13.6367 12.4338 13.5727 12.2633 13.5088C11.2547 13.1305 10.1418 12.7622 8.9292 12.7756C8.06 12.7852 7.17234 12.9894 6.25 13.4707ZM18.1816 4.97633C16.1455 5.9311 14.5344 5.32106 12.6328 4.60099C12.5109 4.55484 12.3878 4.50824 12.2633 4.46157C11.2603 4.08544 10.1518 3.70642 8.94585 3.693C7.70888 3.67923 6.42769 4.0481 5.05736 5.04993C4.86419 5.19116 4.75 5.41609 4.75 5.65538V14.5V14.8441V20C4.75 20.4142 5.08579 20.75 5.5 20.75C5.91421 20.75 6.25 20.4142 6.25 20L6.25 15.2239C7.26078 14.519 8.13967 14.2844 8.9458 14.2755C9.8582 14.2654 10.7453 14.5415 11.7367 14.9133C11.9077 14.9774 12.0818 15.0447 12.2593 15.1133C14.0703 15.8134 16.2193 16.6442 18.797 15.5328C19.0719 15.4142 19.25 15.1435 19.25 14.8441V5.65538C19.25 5.3988 19.1188 5.16003 18.9023 5.0224C18.6858 4.88478 18.4139 4.8674 18.1816 4.97633Z" fill="#002B51"/>
</svg>
