<svg width="24" height="24" viewBox="0 0 24 24" fill="none" xmlns="http://www.w3.org/2000/svg">
<path fill-rule="evenodd" clip-rule="evenodd" d="M8.9292,12.7756c1.2126,-0.0134 2.3255,0.3549 3.3341,0.7332c0.1705,0.0639 0.3383,0.1279 0.5039,0.1911c1.7156,0.6549 3.198,1.2208 4.9828,0.6284v-7.59433c-2.1604,0.60467 -4.0006,-0.09913 -5.5909,-0.70738v0c-0.1428,-0.05462 -0.2836,-0.10847 -0.4224,-0.16053c-0.997,-0.37387 -1.88847,-0.66293 -2.80755,-0.67316c-0.80644,-0.00897 -1.6795,0.19796 -2.67915,0.85458v7.42322c0.92234,-0.4813 1.81,-0.6855 2.6792,-0.6951zM18.9023,5.0224c0.2165,0.13763 0.3477,0.3764 0.3477,0.63298v9.18872c0,0.2994 -0.1781,0.5701 -0.453,0.6887c-2.5777,1.1114 -4.7267,0.2806 -6.5377,-0.4195c-0.1775,-0.0686 -0.3516,-0.1359 -0.5226,-0.2c-0.9914,-0.3718 -1.8785,-0.6479 -2.7909,-0.6378c-0.80613,0.0089 -1.68502,0.2435 -2.6958,0.9484v4.7761c0,0.4142 -0.33579,0.75 -0.75,0.75c-0.41421,0 -0.75,-0.3358 -0.75,-0.75v-5.1559v-0.3441v-8.84462c0,-0.23929 0.11419,-0.46422 0.30736,-0.60545c1.37033,-1.00183 2.65152,-1.3707 3.88849,-1.35693c1.20595,0.01342 2.31445,0.39244 3.31745,0.76857c0.1245,0.04667 0.2476,0.09327 0.3695,0.13942c1.9016,0.72007 3.5127,1.33011 5.5488,0.37534c0.2323,-0.10893 0.5042,-0.09155 0.7207,0.04607z" fill="#002B51"/>
</svg>
