<svg width="24" height="24" viewBox="0 0 24 24" fill="none" xmlns="http://www.w3.org/2000/svg">
<path fill-rule="evenodd" clip-rule="evenodd" d="M14.3164,2.69141c0.156,-0.34669 0.5525,-0.52613 0.9209,-0.40332c0.3683,0.12278 0.5782,0.50413 0.4951,0.875l-0.0205,0.07422l-0.5,1.5c-0.131,0.39296 -0.5562,0.6056 -0.9492,0.47461c-0.393,-0.13098 -0.6056,-0.55626 -0.4746,-0.94922l0.5,-1.5zM20.082,4.97362l-0.0517,0.05664l-2,2c-0.2929,0.2929 -0.7677,0.2929 -1.0606,0c-0.2929,-0.29289 -0.2929,-0.76765 0,-1.06054l2,-2l0.0567,-0.05176c0.2946,-0.24031 0.7293,-0.22285 1.0039,0.05176c0.2746,0.2746 0.292,0.70932 0.0517,1.0039zM10.8955,5.05666c0.6873,-0.56057 1.7011,-0.5205 2.3418,0.12012l5.5859,5.58592c0.6833,0.6834 0.6833,1.7912 0,2.4746l-2.293,2.293c-0.0721,0.0721 -0.1579,0.1284 -0.2519,0.166l-0.0967,0.0313l-3.7314,0.9326c-0.022,0.0055 -0.043,0.0143 -0.0625,0.0254l-0.0528,0.041l-4.09762,4.0967c-0.6834,0.6833 -1.79121,0.6833 -2.47461,0l-2.58594,-2.586c-0.68331,-0.6834 -0.68331,-1.7912 0,-2.4746l4.09668,-4.0976c0.03193,-0.032 0.0554,-0.0715 0.06641,-0.1153l0.93262,-3.73142l0.03125,-0.09668c0.03759,-0.09404 0.0939,-0.17984 0.16601,-0.25195l2.293,-2.29297zM8.7949,11.9131c-0.07692,0.3077 -0.23572,0.5892 -0.45996,0.8135l-4.09766,4.0967c-0.09753,0.0976 -0.09753,0.2559 0,0.3535l2.58594,2.5859c0.09761,0.0975 0.2559,0.0975 0.35351,0l4.09667,-4.0976l0.0869,-0.0801c0.2083,-0.1819 0.4572,-0.3126 0.7266,-0.3799l2.4453,-0.6123l-5.12597,-5.12598zM12.1767,6.23733c-0.0976,-0.09753 -0.2559,-0.09753 -0.3535,0l-1.7627,1.76269l5.9395,5.93948l1.7627,-1.7627c0.0975,-0.0976 0.0975,-0.2559 0,-0.3535zM10.0264,12.918c0.2946,-0.2403 0.7293,-0.2228 1.0039,0.0518c0.2746,0.2746 0.292,0.7093 0.0517,1.0039l-0.0517,0.0566l-1,1c-0.29291,0.2929 -0.76769,0.2929 -1.06057,0c-0.29287,-0.2929 -0.29285,-0.7676 0,-1.0605l1,-1zM21.3086,9.68362l-0.0713,0.02832l-1.5,0.49996c-0.3929,0.131 -0.8182,-0.0816 -0.9492,-0.47457c-0.131,-0.39296 0.0816,-0.81823 0.4746,-0.94922l1.5,-0.5l0.0742,-0.02051c0.3709,-0.08305 0.7522,0.12678 0.875,0.49512c0.1228,0.36843 -0.0566,0.76489 -0.4033,0.9209z" fill="#002B51"/>
</svg>
