<svg width="24" height="24" viewBox="0 0 24 24" fill="none" xmlns="http://www.w3.org/2000/svg">
<path d="M15.0775,2.82391c0.3778,0.03878 0.6729,0.35805 0.6729,0.7461c0,0.38805 -0.2951,0.70731 -0.6729,0.74609l-0.0771,0.00391h-0.25v4.15234c0,0.21608 0.0564,0.42827 0.1631,0.61621l4.0429,7.12404l0.0908,0.1728c0.8664,1.7999 -0.4397,3.934 -2.4814,3.9346h-9.13087c-2.10775,-0.0003 -3.43118,-2.2743 -2.39062,-4.1074l4.04297,-7.12404l0.07031,-0.14453c0.06088,-0.14927 0.09272,-0.30946 0.09277,-0.47168v-4.15234h-0.25c-0.41421,0 -0.75,-0.33579 -0.75,-0.75c0,-0.41422 0.33579,-0.75 0.75,-0.75h6.00004zM7.45642,14.9997l-1.1084,1.9531c-0.47289,0.8332 0.12901,1.8669 1.08691,1.8672h9.13087c0.8978,-0.0005 1.4831,-0.909 1.1631,-1.709l-0.0762,-0.1582l-1.1084,-1.9531zM10.7504,8.47235c-0.0001,0.41612 -0.0946,0.82616 -0.2754,1.19922l-0.083,0.1582l-2.08402,3.66993h7.38472l-2.0839,-3.66993c-0.2349,-0.41375 -0.3584,-0.88165 -0.3584,-1.35742v-4.15234h-2.5z" fill="#002B51"/>
</svg>
