<svg width="24" height="24" viewBox="0 0 24 24" fill="none" xmlns="http://www.w3.org/2000/svg">
<path d="M10.7631,5.177c0.6834,-0.68325 1.7912,-0.68329 2.4746,0l5.5859,5.5859c0.683,0.6834 0.6832,1.7913 0,2.4746l-2.293,2.293c-0.096,0.0961 -0.2168,0.1643 -0.3486,0.1973l-3.7314,0.9326c-0.0438,0.011 -0.0833,0.0345 -0.1153,0.0664l-4.09763,4.0967c-0.6833,0.6832 -1.79118,0.683 -2.47461,0l-2.58594,-2.586c-0.68331,-0.6833 -0.68331,-1.7912 0,-2.4746l4.09668,-4.0966c0.0319,-0.032 0.05538,-0.0725 0.06641,-0.1163l0.93262,-3.7314l0.03125,-0.09668c0.03759,-0.09404 0.0939,-0.17984 0.16601,-0.25195zM8.79529,11.9133c-0.07693,0.3076 -0.23578,0.5893 -0.45996,0.8135l-4.09766,4.0967c-0.09753,0.0976 -0.09753,0.2559 0,0.3535l2.58594,2.5859c0.09763,0.0973 0.256,0.0975 0.35351,0l4.09668,-4.0966c0.2243,-0.2243 0.5058,-0.3841 0.8135,-0.461l2.4453,-0.6123l-5.12598,-5.12596zM9.97009,12.97c0.29291,-0.2928 0.76771,-0.2929 1.06051,0c0.2926,0.2929 0.2928,0.7677 0,1.0605l-1,1c-0.29276,0.2928 -0.7676,0.2926 -1.06051,0c-0.29287,-0.2929 -0.29285,-0.7676 0,-1.0605zM12.1771,6.23755c-0.0976,-0.09751 -0.2559,-0.09747 -0.3535,0l-1.7627,1.76269l5.9395,5.93946l1.7627,-1.7627c0.0973,-0.0975 0.0972,-0.2559 0,-0.3535zM20.7631,8.28833c0.3929,-0.13082 0.8182,0.08173 0.9492,0.47461c0.1307,0.39279 -0.0819,0.81818 -0.4746,0.94922l-1.5,0.50004c-0.3929,0.1309 -0.8181,-0.0819 -0.9492,-0.47465c-0.131,-0.39296 0.0816,-0.81823 0.4746,-0.94922zM18.9701,3.96997c0.2929,-0.29286 0.7677,-0.29288 1.0605,0c0.2926,0.29291 0.2928,0.76775 0,1.06055l-2,2c-0.2928,0.29279 -0.7676,0.29259 -1.0605,0c-0.2929,-0.2929 -0.2929,-0.76766 0,-1.06055zM14.2885,2.76294c0.1309,-0.39296 0.5562,-0.6056 0.9492,-0.47461c0.3927,0.13113 0.6055,0.55639 0.4746,0.94922l-0.5,1.5c-0.131,0.39275 -0.5564,0.60532 -0.9492,0.47461c-0.393,-0.13097 -0.6055,-0.5563 -0.4746,-0.94922z" fill="#002B51"/>
</svg>
