<svg width="24" height="24" viewBox="0 0 24 24" fill="none" xmlns="http://www.w3.org/2000/svg">
<path d="M10.8957,5.05647c0.6873,-0.56041 1.7011,-0.52043 2.3418,0.12012l5.5859,5.58591c0.6833,0.6834 0.6831,1.7912 0,2.4746l-2.293,2.293c-0.072,0.0721 -0.158,0.1284 -0.2519,0.166l-0.0967,0.0313l-3.7315,0.9326c-0.0219,0.0055 -0.043,0.0143 -0.0625,0.0254l-0.0527,0.041l-4.09764,4.0967c-0.6834,0.6833 -1.79121,0.6833 -2.47461,0l-2.58594,-2.586c-0.6833,-0.6834 -0.68331,-1.7912 0,-2.4746l4.09668,-4.0976c0.03184,-0.0319 0.05541,-0.0715 0.06641,-0.1153l0.93261,-3.73141l0.03125,-0.09668c0.03759,-0.09396 0.09396,-0.17989 0.16602,-0.25195l2.29292,-2.29297zM8.79507,11.9129c-0.0769,0.3076 -0.2358,0.5893 -0.45996,0.8135l-4.09765,4.0967c-0.09753,0.0976 -0.09752,0.2559 0,0.3535l2.58593,2.5859c0.09762,0.0976 0.25591,0.0976 0.35352,0l4.09669,-4.0976l0.0869,-0.0801c0.2083,-0.1818 0.4573,-0.3126 0.7266,-0.3799l2.4453,-0.6123l-5.126,-5.12597zM10.0265,12.9178c0.2946,-0.2401 0.7294,-0.2227 1.0039,0.0518c0.2746,0.2745 0.2919,0.7093 0.0518,1.0039l-0.0518,0.0566l-1,1c-0.29286,0.2929 -0.76764,0.2929 -1.06052,0c-0.29283,-0.2929 -0.29284,-0.7677 0,-1.0605l1,-1zM12.1769,6.23714c-0.0975,-0.09746 -0.2559,-0.09736 -0.3535,0l-1.7627,1.76269l5.9395,5.93947l1.7626,-1.7627c0.0974,-0.0976 0.0975,-0.256 0,-0.3535zM20.8371,8.26741c0.3707,-0.08295 0.7522,0.12691 0.875,0.49512c0.1228,0.36837 -0.0568,0.76484 -0.4034,0.9209l-0.0712,0.02832l-1.5,0.49995c-0.393,0.131 -0.8183,-0.0816 -0.9493,-0.47456c-0.1309,-0.39292 0.0817,-0.81825 0.4746,-0.94922l1.5,-0.5zM19.0265,3.9178c0.2946,-0.24018 0.7294,-0.22279 1.0039,0.05176c0.2746,0.27456 0.292,0.70933 0.0518,1.00391l-0.0518,0.05664l-2,2c-0.2929,0.29289 -0.7676,0.29289 -1.0605,0c-0.2929,-0.2929 -0.2929,-0.76766 0,-1.06055l2,-2zM14.3166,2.69124c0.156,-0.34658 0.5525,-0.52611 0.9209,-0.40332c0.3682,0.12278 0.578,0.5042 0.4951,0.875l-0.0205,0.07422l-0.5,1.5c-0.131,0.39293 -0.5563,0.60555 -0.9493,0.47461c-0.3929,-0.13099 -0.6055,-0.55626 -0.4746,-0.94922l0.5,-1.5z" fill="#002B51"/>
</svg>
