<svg width="24" height="24" viewBox="0 0 24 24" fill="none" xmlns="http://www.w3.org/2000/svg">
<path fill-rule="evenodd" clip-rule="evenodd" d="M13.25,4.32001h-2.5v4.15234c-0.0001,0.47577 -0.1235,0.94367 -0.3584,1.35742l-2.08369,3.67023h7.38419l-2.0837,-3.67023c-0.2349,-0.41375 -0.3583,-0.88165 -0.3584,-1.35742zM14.75,8.47235c0.0001,0.21608 0.0565,0.42827 0.1631,0.61621l4.043,7.12404c1.0405,1.8331 -0.2829,4.1071 -2.3907,4.1074h-9.13083c-2.10775,-0.0003 -3.43119,-2.2743 -2.39063,-4.1074l4.04297,-7.12404c0.10662,-0.18794 0.16301,-0.40013 0.16309,-0.61621v-4.15234h-0.25c-0.41422,0 -0.75,-0.33579 -0.75,-0.75c0,-0.41422 0.33578,-0.75 0.75,-0.75h6c0.4142,0 0.75,0.33578 0.75,0.75c0,0.41421 -0.3358,0.75 -0.75,0.75h-0.25z" fill="#002B51"/>
</svg>
