<svg width="24" height="24" viewBox="0 0 24 24" fill="none" xmlns="http://www.w3.org/2000/svg">
<path fill-rule="evenodd" clip-rule="evenodd" d="M10.75,8.47235c-0.0001,0.41617 -0.0945,0.82612 -0.2754,1.19922l-0.083,0.1582l-2.08369,3.67023h7.38419l-2.0837,-3.67023c-0.2349,-0.41375 -0.3583,-0.88165 -0.3584,-1.35742v-4.15234h-2.5zM7.45632,15l-1.10867,1.9528c-0.47289,0.8332 0.12902,1.8669 1.08692,1.8672h9.13083c0.8981,-0.0003 1.4833,-0.9089 1.1631,-1.709l-0.0762,-0.1582l-1.1086,-1.9528zM18.9561,16.2126l0.0908,0.1728c0.8665,1.8 -0.4395,3.9343 -2.4815,3.9346h-9.13083c-2.10775,-0.0003 -3.43119,-2.2743 -2.39063,-4.1074l4.04297,-7.12404l0.07031,-0.14453c0.06092,-0.14931 0.09272,-0.30941 0.09278,-0.47168v-4.15234h-0.25c-0.41422,0 -0.75,-0.33579 -0.75,-0.75c0,-0.41422 0.33578,-0.75 0.75,-0.75h6l0.0771,0.0039c0.378,0.03863 0.6729,0.35793 0.6729,0.7461c0,0.38816 -0.2949,0.70747 -0.6729,0.74609l-0.0771,0.00391h-0.25v4.15234c0.0001,0.21608 0.0565,0.42827 0.1631,0.61621z" fill="#002B51"/>
</svg>
