<svg width="24" height="24" viewBox="0 0 24 24" fill="none" xmlns="http://www.w3.org/2000/svg">
<path fill-rule="evenodd" clip-rule="evenodd" d="M14.3165,2.69141c0.156,-0.34669 0.5524,-0.52613 0.9209,-0.40332c0.3683,0.12278 0.5781,0.50413 0.4951,0.875l-0.0205,0.07422l-0.5,1.5c-0.131,0.39296 -0.5563,0.6056 -0.9492,0.47461c-0.393,-0.13098 -0.6056,-0.55626 -0.4746,-0.94922l0.5,-1.5zM20.0821,4.97362l-0.0518,0.05664l-2,2c-0.2929,0.2929 -0.7676,0.2929 -1.0605,0c-0.2929,-0.29289 -0.2929,-0.76765 0,-1.06054l2,-2l0.0566,-0.05176c0.2946,-0.24031 0.7293,-0.22285 1.0039,0.05176c0.2746,0.2746 0.2921,0.70932 0.0518,1.0039zM10.8955,5.05666c0.6874,-0.56057 1.7011,-0.52051 2.3418,0.12012l5.586,5.58592c0.6833,0.6834 0.6833,1.7912 0,2.4746l-2.293,2.293c-0.0721,0.0721 -0.1579,0.1284 -0.2519,0.166l-0.0967,0.0313l-3.7315,0.9326c-0.022,0.0055 -0.0429,0.0143 -0.0625,0.0254l-0.0527,0.041l-4.09766,4.0967c-0.6834,0.6833 -1.79121,0.6833 -2.47461,0l-2.58594,-2.586c-0.68331,-0.6834 -0.68331,-1.7912 0,-2.4746l4.09668,-4.0976c0.03193,-0.032 0.0554,-0.0715 0.06641,-0.1153l0.93262,-3.73142l0.03125,-0.09668c0.03759,-0.09404 0.0939,-0.17984 0.16601,-0.25195l2.29294,-2.29297zM12.1768,6.23733c-0.0976,-0.09753 -0.2559,-0.09753 -0.3535,0l-1.7627,1.76269l5.9394,5.93948l1.7627,-1.7627c0.0976,-0.0976 0.0976,-0.2559 0,-0.3535zM11.0303,12.9698c-0.2746,-0.2746 -0.7093,-0.2921 -1.0039,-0.0518l-0.05661,0.0518l-1,1c-0.29285,0.2929 -0.29287,0.7676 0,1.0605c0.29289,0.2929 0.76766,0.2929 1.06051,0l1,-1l0.0518,-0.0566c0.2403,-0.2946 0.2228,-0.7293 -0.0518,-1.0039zM21.3087,9.68362l-0.0713,0.02832l-1.5,0.49996c-0.393,0.131 -0.8183,-0.0816 -0.9492,-0.47457c-0.131,-0.39296 0.0816,-0.81823 0.4746,-0.94922l1.5,-0.5l0.0742,-0.02051c0.3709,-0.08305 0.7522,0.12678 0.875,0.49512c0.1228,0.36843 -0.0566,0.76489 -0.4033,0.9209z" fill="#002B51"/>
</svg>
