<svg width="24" height="24" viewBox="0 0 24 24" fill="none" xmlns="http://www.w3.org/2000/svg">
<path d="M15.0001,2.82001c0.4142,0.00005 0.75,0.33582 0.75,0.75c0,0.41418 -0.3358,0.74994 -0.75,0.75h-0.25v4.15234c0.0001,0.21608 0.0565,0.42827 0.1631,0.61621l4.043,7.12404c1.0405,1.8331 -0.283,4.107 -2.3906,4.1074h-9.13091c-2.10775,-0.0003 -3.43118,-2.2743 -2.39062,-4.1074l4.04297,-7.12404c0.1066,-0.18793 0.16301,-0.40015 0.16308,-0.61621v-4.15234h-0.25c-0.41421,0 -0.75,-0.33579 -0.75,-0.75c0,-0.41422 0.33579,-0.75 0.75,-0.75zM7.45618,14.9997l-1.1084,1.9531c-0.47289,0.8332 0.12901,1.8669 1.08691,1.8672h9.13091c0.9578,-0.0004 1.5597,-1.0341 1.0869,-1.8672l-1.1084,-1.9531zM10.7501,8.47235c-0.0001,0.47575 -0.1235,0.94368 -0.3584,1.35742l-2.08396,3.66993h7.38476l-2.084,-3.66993c-0.2348,-0.41375 -0.3583,-0.88165 -0.3584,-1.35742v-4.15234h-2.5z" fill="#002B51"/>
</svg>
