<svg width="24" height="24" viewBox="0 0 24 24" fill="none" xmlns="http://www.w3.org/2000/svg">
<path d="M10.7631,5.17697c0.6834,-0.68323 1.7912,-0.68329 2.4746,0l5.5859,5.58593c0.683,0.6834 0.6831,1.7913 0,2.4746l-2.293,2.293c-0.096,0.096 -0.2168,0.1643 -0.3486,0.1973l-3.7314,0.9326c-0.0438,0.011 -0.0833,0.0345 -0.1153,0.0664l-4.09763,4.0967c-0.6833,0.6832 -1.79119,0.683 -2.47461,0l-2.58594,-2.586c-0.68331,-0.6834 -0.68331,-1.7912 0,-2.4746l4.09668,-4.0967c0.03189,-0.0319 0.05539,-0.0724 0.06641,-0.1162l0.93262,-3.73143l0.03125,-0.09668c0.03759,-0.09404 0.0939,-0.17984 0.16601,-0.25195zM11.0306,12.9699c-0.2745,-0.2745 -0.7093,-0.2919 -1.0039,-0.0517l-0.05661,0.0517l-1,1c-0.29285,0.2929 -0.29287,0.7677 0,1.0606c0.29291,0.2926 0.76775,0.2928 1.06051,0l1,-1l0.0518,-0.0567c0.2402,-0.2944 0.2226,-0.7293 -0.0518,-1.0039zM12.1771,6.23752c-0.0976,-0.0975 -0.2559,-0.09745 -0.3535,0l-1.7627,1.76269l5.9395,5.93949l1.7627,-1.7627c0.0973,-0.0976 0.0972,-0.2559 0,-0.3535zM20.7631,8.2883c0.3928,-0.13081 0.8182,0.08174 0.9492,0.47461c0.1307,0.39279 -0.0819,0.81817 -0.4746,0.94922l-1.5,0.49997c-0.3929,0.131 -0.8182,-0.0818 -0.9492,-0.47458c-0.131,-0.39296 0.0816,-0.81823 0.4746,-0.94922zM18.9701,3.96994c0.2929,-0.29284 0.7677,-0.29287 1.0605,0c0.2926,0.2929 0.2928,0.76775 0,1.06055l-2,2c-0.2928,0.29279 -0.7676,0.2926 -1.0605,0c-0.2929,-0.2929 -0.2929,-0.76766 0,-1.06055zM14.2885,2.76291c0.1309,-0.39296 0.5562,-0.6056 0.9492,-0.47461c0.3927,0.13113 0.6055,0.55639 0.4746,0.94922l-0.5,1.5c-0.131,0.39277 -0.5564,0.60532 -0.9492,0.47461c-0.393,-0.13098 -0.6056,-0.55629 -0.4746,-0.94922z" fill="#002B51"/>
</svg>
