<svg width="24" height="24" viewBox="0 0 24 24" fill="none" xmlns="http://www.w3.org/2000/svg">
<path fill-rule="evenodd" clip-rule="evenodd" d="M5,4.75c-0.69036,0 -1.25,0.55964 -1.25,1.25v11.25c0,0.6904 0.55964,1.25 1.25,1.25h14c0.6904,0 1.25,-0.5596 1.25,-1.25v-8.25c0,-0.69036 -0.5596,-1.25 -1.25,-1.25h-6.1716c-0.7293,0 -1.4288,-0.28973 -1.9445,-0.80546l-1.82844,-1.82842c-0.23442,-0.23442 -0.55237,-0.36612 -0.88389,-0.36612zM2.25,6c0,-1.51878 1.23122,-2.75 2.75,-2.75h3.17157c0.72935,0 1.42882,0.28973 1.94453,0.80546l1.8284,1.82842c0.2345,0.23442 0.5524,0.36612 0.8839,0.36612h6.1716c1.5188,0 2.75,1.23122 2.75,2.75v8.25c0,1.5188 -1.2312,2.75 -2.75,2.75h-14c-1.51878,0 -2.75,-1.2312 -2.75,-2.75z" fill="#002B51"/>
</svg>
