<svg width="24" height="24" viewBox="0 0 24 24" fill="none" xmlns="http://www.w3.org/2000/svg">
<path d="M7.17188,2.25c0.72923,0.00008 1.42868,0.29001 1.94433,0.80566l0.82813,0.82813l0.09176,0.08301c0.2224,0.18225 0.502,0.28313 0.792,0.2832h4.1719c1.5188,0 2.75,1.23122 2.75,2.75v1.25h1.25c1.5188,0 2.75,1.23122 2.75,2.75v7c0,1.5188 -1.2312,2.75 -2.75,2.75h-10c-1.51878,0 -2.75,-1.2312 -2.75,-2.75v-1.25h-1.25c-1.51878,0 -2.75,-1.2312 -2.75,-2.75v-9c0,-1.51878 1.23122,-2.75 2.75,-2.75zM17.75,14c0,1.5188 -1.2312,2.75 -2.75,2.75h-7.25v1.25c0,0.6904 0.55964,1.25 1.25,1.25h10c0.6904,0 1.25,-0.5596 1.25,-1.25v-7c0,-0.6904 -0.5596,-1.25 -1.25,-1.25h-1.25z" fill="#002B51"/>
</svg>
