<svg width="24" height="24" viewBox="0 0 24 24" fill="none" xmlns="http://www.w3.org/2000/svg">
<path fill-rule="evenodd" clip-rule="evenodd" d="M2.25,5c0,-1.51878 1.23122,-2.75 2.75,-2.75h2.17157c0.72935,0 1.42882,0.28973 1.94455,0.80546l0.82842,0.82842c0.23446,0.23442 0.55236,0.36612 0.88386,0.36612h4.1716c1.5188,0 2.75,1.23122 2.75,2.75v1.25h1.25c1.5188,0 2.75,1.23122 2.75,2.75v7c0,1.5188 -1.2312,2.75 -2.75,2.75h-10c-1.51878,0 -2.75,-1.2312 -2.75,-2.75v-1.25h-1.25c-1.51878,0 -2.75,-1.2312 -2.75,-2.75zM7.75,16.75v1.25c0,0.6904 0.55964,1.25 1.25,1.25h10c0.6904,0 1.25,-0.5596 1.25,-1.25v-7c0,-0.6904 -0.5596,-1.25 -1.25,-1.25h-1.25v4.25c0,1.5188 -1.2312,2.75 -2.75,2.75z" fill="#002B51"/>
</svg>
