<svg width="24" height="24" viewBox="0 0 24 24" fill="none" xmlns="http://www.w3.org/2000/svg">
<path fill-rule="evenodd" clip-rule="evenodd" d="M2.25,17.25v-11.25c0,-1.51878 1.23122,-2.75 2.75,-2.75h3.17188c0.72923,0.00008 1.42868,0.29001 1.94432,0.80566l1.8281,1.82813l0.0918,0.08301c0.2224,0.18225 0.502,0.28313 0.792,0.2832h6.1719c1.5188,0 2.75,1.23122 2.75,2.75v8.25c0,1.5188 -1.2312,2.75 -2.75,2.75c0,-0.52 -0.0722,-1.0232 -0.207,-1.5h0.207c0.6904,0 1.25,-0.5596 1.25,-1.25v-8.25c0,-0.69036 -0.5596,-1.25 -1.25,-1.25h-6.1719c-0.638,-0.00007 -1.2529,-0.2222 -1.7422,-0.62305l-0.2021,-0.18261l-1.82814,-1.82813c-0.23435,-0.23435 -0.55237,-0.36613 -0.88378,-0.36621h-3.17188c-0.69036,0 -1.25,0.55964 -1.25,1.25v11.25c0,0.6904 0.55964,1.25 1.25,1.25h0.20705c-0.13487,0.4768 -0.20705,0.98 -0.20705,1.5c-1.51878,0 -2.75,-1.2312 -2.75,-2.75zM13.75,12.5c0,-0.9664 -0.7836,-1.7499 -1.75,-1.75c-0.9664,0 -1.75,0.7836 -1.75,1.75c0.0001,0.9664 0.7836,1.75 1.75,1.75c0.9664,-0.0001 1.7499,-0.7836 1.75,-1.75zM15.25,12.5c-0.0001,1.7948 -1.4552,3.2499 -3.25,3.25c-1.7948,0 -3.24994,-1.4552 -3.25,-3.25c0,-1.7949 1.4551,-3.25 3.25,-3.25c1.7948,0.00006 3.25,1.4552 3.25,3.25zM15.25,20.75v-0.75c0,-0.9665 -0.7835,-1.75 -1.75,-1.75h-3c-0.96648,0 -1.74998,0.7835 -1.75,1.75v0.75c0,0.4142 -0.33579,0.75 -0.75,0.75c-0.41421,0 -0.75,-0.3358 -0.75,-0.75v-0.75c0.00002,-1.7949 1.45509,-3.25 3.25,-3.25h3c1.7949,0 3.25,1.4551 3.25,3.25v0.75c0,0.4142 -0.3358,0.75 -0.75,0.75c-0.4142,0 -0.75,-0.3358 -0.75,-0.75z" fill="#002B51"/>
</svg>
