<svg width="24" height="24" viewBox="0 0 24 24" fill="none" xmlns="http://www.w3.org/2000/svg">
<path d="M8.17188,3.25c0.72923,0.00008 1.42868,0.29001 1.94432,0.80566l1.8281,1.82813l0.0918,0.08301c0.2224,0.18225 0.502,0.28313 0.792,0.2832h6.1719c1.5188,0 2.75,1.23122 2.75,2.75v8.25c0,1.5188 -1.2312,2.75 -2.75,2.75h-14c-1.51878,0 -2.75,-1.2312 -2.75,-2.75v-11.25c0,-1.51878 1.23122,-2.75 2.75,-2.75zM5,4.75c-0.69036,0 -1.25,0.55964 -1.25,1.25v11.25c0,0.6904 0.55964,1.25 1.25,1.25h14c0.6904,0 1.25,-0.5596 1.25,-1.25v-8.25c0,-0.69036 -0.5596,-1.25 -1.25,-1.25h-6.1719c-0.638,-0.00007 -1.2529,-0.2222 -1.7422,-0.62305l-0.2021,-0.18261l-1.82814,-1.82813c-0.23435,-0.23435 -0.55237,-0.36613 -0.88378,-0.36621z" fill="#002B51"/>
</svg>
