<svg width="24" height="24" viewBox="0 0 24 24" fill="none" xmlns="http://www.w3.org/2000/svg">
<path fill-rule="evenodd" clip-rule="evenodd" d="M5,4.75c-0.69036,0 -1.25,0.55964 -1.25,1.25v11.25c0,0.6904 0.55964,1.25 1.25,1.25h0.20704c-0.13487,0.4768 -0.20704,0.98 -0.20704,1.5c-1.51878,0 -2.75,-1.2312 -2.75,-2.75v-11.25c0,-1.51878 1.23122,-2.75 2.75,-2.75h3.17157c0.72935,0 1.42882,0.28973 1.94453,0.80546l1.8284,1.82842c0.2345,0.23442 0.5524,0.36612 0.8839,0.36612h6.1716c1.5188,0 2.75,1.23122 2.75,2.75v8.25c0,1.5188 -1.2312,2.75 -2.75,2.75c0,-0.52 -0.0722,-1.0232 -0.207,-1.5h0.207c0.6904,0 1.25,-0.5596 1.25,-1.25v-8.25c0,-0.69036 -0.5596,-1.25 -1.25,-1.25h-6.1716c-0.7293,0 -1.4288,-0.28973 -1.9445,-0.80546l-1.82844,-1.82842c-0.23442,-0.23442 -0.55237,-0.36612 -0.88389,-0.36612zM11.9999,10.75c-0.9664,0 -1.7499,0.7835 -1.7499,1.7499c0,0.9664 0.7835,1.7499 1.7499,1.7499c0.9664,0 1.7499,-0.7835 1.7499,-1.7499c0,-0.9664 -0.7835,-1.7499 -1.7499,-1.7499zM8.75,12.4999c0,-1.7949 1.455,-3.2499 3.2499,-3.2499c1.7949,0 3.2499,1.455 3.2499,3.2499c0,1.7949 -1.455,3.2499 -3.2499,3.2499c-1.7949,0 -3.2499,-1.455 -3.2499,-3.2499zM13.5,18.25h-3c-0.96651,0 -1.75,0.7835 -1.75,1.75v0.75c0,0.4142 -0.33579,0.75 -0.75,0.75c-0.41421,0 -0.75,-0.3358 -0.75,-0.75v-0.75c0,-1.7949 1.45506,-3.25 3.25,-3.25h3c1.7949,0 3.25,1.4551 3.25,3.25v0.75c0,0.4142 -0.3358,0.75 -0.75,0.75c-0.4142,0 -0.75,-0.3358 -0.75,-0.75v-0.75c0,-0.9665 -0.7835,-1.75 -1.75,-1.75z" fill="#002B51"/>
</svg>
