<svg width="24" height="24" viewBox="0 0 24 24" fill="none" xmlns="http://www.w3.org/2000/svg">
<path fill-rule="evenodd" clip-rule="evenodd" d="M18.75,2v17.25h4.25c0.4142,0 0.75,0.3358 0.75,0.75c0,0.4142 -0.3358,0.75 -0.75,0.75h-4.5c-0.6904,0 -1.25,-0.5596 -1.25,-1.25v-17.5c0,-0.41421 0.3358,-0.75 0.75,-0.75c0.4142,0 0.75,0.33579 0.75,0.75zM0.75,18.4185v-1.9185c0,-1.7949 1.45507,-3.25 3.25,-3.25h2.75v-6.75c0,-0.69036 0.55964,-1.25 1.25,-1.25h3.7129c0.389,0.00002 0.7525,0.18086 0.9873,0.4834l0.0928,0.13672l3.2871,5.63478l0.0732,0.1484c0.0635,0.152 0.0966,0.3156 0.0967,0.4815v0.8652v0.5v3.6279c0.318,0.5509 0.5,1.1903 0.5,1.8721c0,2.0711 -1.6789,3.75 -3.75,3.75c-1.439,0 -2.6887,-0.8105 -3.31748,-2h-4.03604c-0.32646,1.1543 -1.3877,2 -2.64648,2c-1.51878,0 -2.75,-1.2312 -2.75,-2.75c0,-0.5887 0.18499,-1.1342 0.5,-1.5815zM8.25,13.25h6.5v-0.25v-0.7979l-3.1807,-5.4521h-3.3193zM1.75,20c0,0.6904 0.55964,1.25 1.25,1.25c0.69036,0 1.25,-0.5596 1.25,-1.25c0,-0.6904 -0.55964,-1.25 -1.25,-1.25c-0.69036,0 -1.25,0.5596 -1.25,1.25zM15.25,19c0,-1.2426 -1.0074,-2.25 -2.25,-2.25c-1.2426,0 -2.25,1.0074 -2.25,2.25c0,1.2426 1.0074,2.25 2.25,2.25c1.2426,0 2.25,-1.0074 2.25,-2.25z" fill="#002B51"/>
</svg>
