<svg width="24" height="24" viewBox="0 0 24 24" fill="none" xmlns="http://www.w3.org/2000/svg">
<path d="M11.7129,5.25c0.389,0.00002 0.7525,0.18086 0.9873,0.4834l0.0928,0.13672l3.2871,5.63478l0.0732,0.1484c0.0635,0.152 0.0966,0.3156 0.0967,0.4815v4.9951c0.3175,0.5506 0.5,1.1889 0.5,1.8701c0,2.0711 -1.6789,3.75 -3.75,3.75c-1.4388,0 -2.6876,-0.8108 -3.31641,-2h-4.04004c-0.32671,1.1539 -1.38505,2 -2.64355,2c-1.51878,0 -2.75,-1.2312 -2.75,-2.75c0,-0.5877 0.18596,-1.1312 0.5,-1.5781v-1.9219c0,-1.7949 1.45507,-3.25 3.25,-3.25h2.75v-6.75c0,-0.69036 0.55964,-1.25 1.25,-1.25zM3,18.75c-0.69036,0 -1.25,0.5596 -1.25,1.25c0,0.6904 0.55964,1.25 1.25,1.25c0.69036,0 1.25,-0.5596 1.25,-1.25c0,-0.6904 -0.55964,-1.25 -1.25,-1.25zM13,16.75c-1.2426,0 -2.25,1.0074 -2.25,2.25c0,1.2426 1.0074,2.25 2.25,2.25c1.2426,0 2.25,-1.0074 2.25,-2.25c0,-1.2426 -1.0074,-2.25 -2.25,-2.25zM18,1.25c0.4142,0 0.75,0.33579 0.75,0.75v17.25h4.25c0.4142,0 0.75,0.3358 0.75,0.75c0,0.4142 -0.3358,0.75 -0.75,0.75h-4.5c-0.6904,0 -1.25,-0.5596 -1.25,-1.25v-17.5c0,-0.41421 0.3358,-0.75 0.75,-0.75zM4,14.75c-0.9665,0 -1.75,0.7835 -1.75,1.75v0.8564c0.23864,-0.0675 0.48971,-0.1064 0.75,-0.1064c1.2585,0 2.31684,0.8461 2.64355,2h3.61524c-0.00544,-0.0826 -0.00879,-0.166 -0.00879,-0.25c0,-2.0711 1.6789,-3.75 3.75,-3.75c0.6321,0 1.2276,0.1564 1.75,0.4326v-0.9326zM8.25,13.25h6.5v-1.0479l-3.1807,-5.4521h-3.3193z" fill="#002B51"/>
</svg>
