<svg width="24" height="24" viewBox="0 0 24 24" fill="none" xmlns="http://www.w3.org/2000/svg">
<path fill-rule="evenodd" clip-rule="evenodd" d="M18,1.25c0.4142,0 0.75,0.33579 0.75,0.75v17.25h4.25c0.4142,0 0.75,0.3358 0.75,0.75c0,0.4142 -0.3358,0.75 -0.75,0.75h-4.5c-0.6904,0 -1.25,-0.5596 -1.25,-1.25v-17.5c0,-0.41421 0.3358,-0.75 0.75,-0.75zM6.75,6.5c0,-0.69036 0.55964,-1.25 1.25,-1.25h3.7128c0.4446,0 0.8557,0.23614 1.0797,0.62016l3.2872,5.63514c0.1115,0.1912 0.1703,0.4086 0.1703,0.6299v1.8648v3.1279c0.318,0.5509 0.5,1.1903 0.5,1.8721c0,2.0711 -1.6789,3.75 -3.75,3.75c-1.439,0 -2.6887,-0.8105 -3.31748,-2h-4.03604c-0.32646,1.1543 -1.3877,2 -2.64648,2c-1.51878,0 -2.75,-1.2312 -2.75,-2.75c0,-0.5887 0.18499,-1.1342 0.5,-1.5815v-1.9185c0,-1.7949 1.45507,-3.25 3.25,-3.25h2.75zM9.2582,19.25c-0.00544,-0.0826 -0.0082,-0.166 -0.0082,-0.25c0,-2.0711 1.6789,-3.75 3.75,-3.75c0.632,0 1.2276,0.1564 1.75,0.4325v-0.9325h-7.25h-3.5c-0.9665,0 -1.75,0.7835 -1.75,1.75v0.8535c0.23842,-0.0674 0.48999,-0.1035 0.75,-0.1035c1.25878,0 2.32002,0.8457 2.64648,2zM8.25,13.25h6.5v-1.0472l-3.1808,-5.4528h-3.3192zM3,18.75c-0.69036,0 -1.25,0.5596 -1.25,1.25c0,0.6904 0.55964,1.25 1.25,1.25c0.69036,0 1.25,-0.5596 1.25,-1.25c0,-0.6904 -0.55964,-1.25 -1.25,-1.25zM13,21.25c1.2426,0 2.25,-1.0074 2.25,-2.25c0,-1.2426 -1.0074,-2.25 -2.25,-2.25c-1.2426,0 -2.25,1.0074 -2.25,2.25c0,1.2426 1.0074,2.25 2.25,2.25z" fill="#002B51"/>
</svg>
