<svg width="36" height="24" viewBox="0 0 36 24" fill="none" xmlns="http://www.w3.org/2000/svg">
<g clip-path="url(#clip0_4050_17425)">
<path d="M0,2c0,-1.10457 0.89543,-2 2,-2h32c1.1046,0 2,0.89543 2,2v20c0,1.1046 -0.8954,2 -2,2h-32c-1.10457,0 -2,-0.8954 -2,-2z" fill="#FF4E4E"/>
<path d="M36,24h-36v-24h36z" fill="#CE1126"/>
<path d="M24,24h-24v-24h24z" fill="white"/>
<path d="M12,24h-12v-24h12z" fill="#002654"/>
</g>
<defs>
<clipPath id="clip0_4050_17425">
<path d="M0,2c0,-1.10457 0.89543,-2 2,-2h32c1.1046,0 2,0.89543 2,2v20c0,1.1046 -0.8954,2 -2,2h-32c-1.10457,0 -2,-0.8954 -2,-2z" fill="white"/>
</clipPath>
</defs>
</svg>
