<svg width="24" height="24" viewBox="0 0 24 24" fill="none" xmlns="http://www.w3.org/2000/svg">
<path fill-rule="evenodd" clip-rule="evenodd" d="M4,20.75c-0.41421,0 -0.75,-0.3358 -0.75,-0.75c0,-0.4142 0.33579,-0.75 0.75,-0.75h0.25v-9.75v-3.5c0,-1.51878 1.23122,-2.75 2.75,-2.75h6c1.5188,0 2.75,1.23122 2.75,2.75v3.5v1.8535c1.1543,0.3265 2,1.3877 2,2.6465v1.5c0,0.4142 0.3358,0.75 0.75,0.75c0.4142,0 0.75,-0.3358 0.75,-0.75v-7.17188c-0.0001,-0.29002 -0.101,-0.56961 -0.2832,-0.79199l-0.083,-0.09179l-0.6943,-0.69434h-0.6895c-0.4142,0 -0.75,-0.33579 -0.75,-0.75c0,-0.41421 0.3358,-0.75 0.75,-0.75h1c0.1989,0 0.3896,0.07907 0.5303,0.21973l0.914,0.91406l0.1827,0.20215c0.4008,0.48926 0.6229,1.10415 0.623,1.74218v7.17188c0,1.2426 -1.0074,2.25 -2.25,2.25c-1.2426,0 -2.25,-1.0074 -2.25,-2.25v-1.5c0,-0.409 -0.1964,-0.772 -0.5,-1.0001v6.2501h0.25l0.0771,0.0039c0.378,0.0386 0.6729,0.3579 0.6729,0.7461c0,0.3882 -0.2949,0.7075 -0.6729,0.7461l-0.0771,0.0039h-1h-10zM13,4.75h-6c-0.69036,0 -1.25,0.55964 -1.25,1.25v2.75h8.5v-2.75c0,-0.69036 -0.5596,-1.25 -1.25,-1.25z" fill="#002B51"/>
</svg>
