<svg width="24" height="24" viewBox="0 0 24 24" fill="none" xmlns="http://www.w3.org/2000/svg">
<path d="M12,3.24994c1.5187,0 2.7499,1.23127 2.75,2.75v6.24996h0.25c1.5187,0 2.7499,1.2313 2.75,2.75v1.5c0,0.4143 0.3358,0.75 0.75,0.75c0.4142,0 0.75,-0.3357 0.75,-0.75v-3.8378c-1.4332,-0.3387 -2.5,-1.6254 -2.5,-3.16216c0,-1.26859 0.7271,-2.36703 1.7871,-2.90234l-2.0674,-2.06738l-0.0517,-0.05664c-0.2403,-0.29458 -0.2229,-0.72933 0.0517,-1.00391c0.2746,-0.27453 0.7094,-0.292 1.0039,-0.05176l0.0567,0.05176l2.707,2.70703l0.1162,0.12793c0.2553,0.31139 0.3964,0.7032 0.3965,1.10938v9.08589c0,1.2427 -1.0074,2.25 -2.25,2.25c-1.2426,0 -2.25,-1.0073 -2.25,-2.25v-1.5c-0.0001,-0.6903 -0.5597,-1.25 -1.25,-1.25h-0.25v5.5h0.25l0.0771,0.0039c0.378,0.0387 0.6728,0.358 0.6729,0.7461c0,0.3882 -0.2949,0.7075 -0.6729,0.7461l-0.0771,0.0039h-12c-0.41421,0 -0.75,-0.3357 -0.75,-0.75c0.00006,-0.4141 0.33583,-0.75 0.75,-0.75h0.25v-13.24996c0.00006,-1.51873 1.23126,-2.75 2.75,-2.75zM19.25,7.91986c-0.5909,0.28097 -1,0.88225 -1,1.58008c0,0.69766 0.4093,1.29806 1,1.57906zM6,4.74994c-0.69032,0 -1.24994,0.5597 -1.25,1.25v2.75h8.5v-2.75c-0.0001,-0.6903 -0.5597,-1.25 -1.25,-1.25z" fill="#002B51"/>
</svg>
