<svg width="36" height="24" viewBox="0 0 36 24" fill="none" xmlns="http://www.w3.org/2000/svg">
<g clip-path="url(#clip0_4050_17473)">
<path d="M0,2c0,-1.10457 0.89543,-2 2,-2h32c1.1046,0 2,0.89543 2,2v20c0,1.1046 -0.8954,2 -2,2h-32c-1.10457,0 -2,-0.8954 -2,-2z" fill="#FF4E4E"/>
<path d="M36,24h-36v-24h36z" fill="black"/>
<path d="M36,24h-36v-16h36z" fill="#DD0000"/>
<path d="M36,24h-36v-8h36z" fill="#FFCE00"/>
</g>
<defs>
<clipPath id="clip0_4050_17473">
<path d="M0,2c0,-1.10457 0.89543,-2 2,-2h32c1.1046,0 2,0.89543 2,2v20c0,1.1046 -0.8954,2 -2,2h-32c-1.10457,0 -2,-0.8954 -2,-2z" fill="white"/>
</clipPath>
</defs>
</svg>
