<svg width="24" height="24" viewBox="0 0 24 24" fill="none" xmlns="http://www.w3.org/2000/svg">
<g clip-path="url(#clip0_4050_17479)">
<path d="M0,12c0,-6.62742 5.37258,-12 12,-12c6.6274,0 12,5.37258 12,12c0,6.6274 -5.3726,12 -12,12c-6.62742,0 -12,-5.3726 -12,-12z" fill="#FF4E4E"/>
<path d="M24,24h-24v-24h24z" fill="black"/>
<path d="M24,24h-24v-16h24z" fill="#DD0000"/>
<path d="M24,24h-24v-8h24z" fill="#FFCE00"/>
</g>
<defs>
<clipPath id="clip0_4050_17479">
<path d="M0,12c0,-6.62742 5.37258,-12 12,-12c6.6274,0 12,5.37258 12,12c0,6.6274 -5.3726,12 -12,12c-6.62742,0 -12,-5.3726 -12,-12z" fill="white"/>
</clipPath>
</defs>
</svg>
