<svg width="24" height="24" viewBox="0 0 24 24" fill="none" xmlns="http://www.w3.org/2000/svg">
<path fill-rule="evenodd" clip-rule="evenodd" d="M15.8571 3.5C14.8087 3.5 13.669 3.99413 12.7981 4.79928C12.5018 5.07324 12.2302 5.38913 12 5.74241C11.7698 5.38913 11.4982 5.07324 11.2019 4.79928C10.331 3.99413 9.19134 3.5 8.14286 3.5C6.59475 3.5 5.25 4.68332 5.25 6.25C5.25 6.70565 5.36375 7.12888 5.56317 7.5H4.75C3.7835 7.5 3 8.2835 3 9.25V10.25C3 11.2165 3.7835 12 4.75 12L4.75 17.5C4.75 19.0188 5.98122 20.25 7.5 20.25H9.25H10H10.75H13.25H14H14.75H16.5C18.0188 20.25 19.25 19.0188 19.25 17.5V12C20.2165 12 21 11.2165 21 10.25V9.25C21 8.2835 20.2165 7.5 19.25 7.5H18.4368C18.6362 7.12888 18.75 6.70565 18.75 6.25C18.75 4.68332 17.4052 3.5 15.8571 3.5ZM14.75 10.5H18.5H19.25C19.3881 10.5 19.5 10.3881 19.5 10.25V9.25C19.5 9.11193 19.3881 9 19.25 9H15.8571H14.75V10.5ZM9.25 10.5V9H8.14286H4.75C4.61193 9 4.5 9.11193 4.5 9.25V10.25C4.5 10.3881 4.61193 10.5 4.75 10.5H5.5H9.25ZM10.1836 5.90072C10.6417 6.32419 10.9972 6.86741 11.1572 7.5H10.75H10H9.25H8.14286C7.32403 7.5 6.75 6.89246 6.75 6.25C6.75 5.60754 7.32403 5 8.14286 5C8.75123 5 9.54018 5.30587 10.1836 5.90072ZM12.8428 7.5H13.25H14H14.75H15.8571C16.676 7.5 17.25 6.89246 17.25 6.25C17.25 5.60754 16.676 5 15.8571 5C15.2488 5 14.4598 5.30587 13.8164 5.90072C13.3583 6.32419 13.0028 6.86741 12.8428 7.5ZM10.75 10.5V9H11.25H12H12.75H13.25V10.5V11.25V12V18.75H10.75V12V11.25V10.5Z" fill="#002B51"/>
</svg>
