<svg width="24" height="24" viewBox="0 0 24 24" fill="none" xmlns="http://www.w3.org/2000/svg">
<path fill-rule="evenodd" clip-rule="evenodd" d="M12.7981,4.79928c0.8709,-0.80515 2.0106,-1.29928 3.059,-1.29928c1.5481,0 2.8929,1.18332 2.8929,2.75c0,0.45565 -0.1138,0.87888 -0.3132,1.25h0.3132c1.2426,0 2.25,1.00736 2.25,2.25c0,1.0708 -0.748,1.9669 -1.75,2.1942v5.5558c0,1.5188 -1.2312,2.75 -2.75,2.75h-1.75h-0.75h-0.75h-2.5h-0.75h-0.75h-1.75c-1.51878,0 -2.75,-1.2312 -2.75,-2.75v-5.5558c-1.00199,-0.2273 -1.75,-1.1234 -1.75,-2.1942c0,-1.24264 1.00736,-2.25 2.25,-2.25h0.31317c-0.19942,-0.37112 -0.31317,-0.79435 -0.31317,-1.25c0,-1.56668 1.34475,-2.75 2.89286,-2.75c1.04848,0 2.18814,0.49413 3.05904,1.29928c0.2963,0.27396 0.5679,0.58985 0.7981,0.94313c0.2302,-0.35328 0.5018,-0.66917 0.7981,-0.94313zM9.25,18.75v-6.75h-3v5.5c0,0.6904 0.55964,1.25 1.25,1.25zM9.25,10.5v-1.5h-1.10714h-2.89286c-0.41421,0 -0.75,0.33579 -0.75,0.75c0,0.4142 0.33579,0.75 0.75,0.75h0.25zM9.25,7.5h0.75h0.75h0.4072c-0.16,-0.63259 -0.5155,-1.17581 -0.9736,-1.59928c-0.64342,-0.59485 -1.43237,-0.90072 -2.04074,-0.90072c-0.81883,0 -1.39286,0.60754 -1.39286,1.25c0,0.64246 0.57403,1.25 1.39286,1.25zM12.8428,7.5h0.4072h0.75h0.75h1.1071c0.8189,0 1.3929,-0.60754 1.3929,-1.25c0,-0.64246 -0.574,-1.25 -1.3929,-1.25c-0.6083,0 -1.3973,0.30587 -2.0407,0.90072c-0.4581,0.42347 -0.8136,0.96669 -0.9736,1.59928zM14.75,9v1.5h3.75h0.25c0.4142,0 0.75,-0.3358 0.75,-0.75c0,-0.41421 -0.3358,-0.75 -0.75,-0.75h-2.8929zM14.75,12v6.75h1.75c0.6904,0 1.25,-0.5596 1.25,-1.25v-5.5zM10.75,18.75h2.5v-6.75v-0.75v-0.75v-1.5h-0.5h-0.75h-0.75h-0.5v1.5v0.75v0.75z" fill="#002B51"/>
</svg>
