<svg width="24" height="24" viewBox="0 0 24 24" fill="none" xmlns="http://www.w3.org/2000/svg">
<path fill-rule="evenodd" clip-rule="evenodd" d="M17.25,6.25c0,-0.64239 -0.5739,-1.24986 -1.3926,-1.25c-0.6083,0 -1.3976,0.30565 -2.041,0.90039c-0.458,0.42342 -0.8125,0.96712 -0.9726,1.59961h0.4062h1.5h1.1074c0.8187,-0.00014 1.3926,-0.60761 1.3926,-1.25zM14.75,9v1.5h4c0.4142,0 0.75,-0.3358 0.75,-0.75c0,-0.41421 -0.3358,-0.75 -0.75,-0.75h-2.8926zM14.75,12v6.75h1.75c0.6904,0 1.25,-0.5596 1.25,-1.25v-5.5zM14.75,20.25h-1.5h-2.5h-1.5h-1.75c-1.51878,0 -2.75,-1.2312 -2.75,-2.75v-5.5558c-1.00199,-0.2273 -1.75,-1.1234 -1.75,-2.1942c0,-1.24264 1.00736,-2.25 2.25,-2.25h0.31317c-0.19942,-0.37112 -0.31317,-0.79435 -0.31317,-1.25c0,-1.56659 1.34459,-2.74986 2.89258,-2.75c1.04845,0 2.18862,0.49372 3.05952,1.29883c0.2963,0.27387 0.5678,0.58971 0.7979,0.94294c0.2301,-0.35323 0.5016,-0.66907 0.7979,-0.94294c0.8709,-0.80511 2.0111,-1.29883 3.0595,-1.29883c1.548,0.00014 2.8926,1.18341 2.8926,2.75c0,0.45565 -0.1138,0.87888 -0.3132,1.25h0.3132c1.2426,0 2.25,1.00736 2.25,2.25c0,1.0708 -0.748,1.9669 -1.75,2.1942v5.5558c0,1.5188 -1.2312,2.75 -2.75,2.75zM9.25,18.75v-6.75h-3v5.5c0,0.6904 0.55964,1.25 1.25,1.25zM9.25,10.5v-1.5h-1.10742h-2.89258c-0.41421,0 -0.75,0.33579 -0.75,0.75c0,0.4142 0.33579,0.75 0.75,0.75zM9.25,7.5h1.5h0.4062c-0.1601,-0.63249 -0.5146,-1.17619 -0.9726,-1.59961c-0.64341,-0.59474 -1.4327,-0.90039 -2.04102,-0.90039c-0.81868,0.00014 -1.39258,0.60761 -1.39258,1.25c0,0.64239 0.5739,1.24986 1.39258,1.25zM10.75,18.75h2.5v-6.75v-1.5v-1.5h-0.5h-1.5h-0.5v1.5v1.5z" fill="#002B51"/>
</svg>
