<svg width="24" height="24" viewBox="0 0 24 24" fill="none" xmlns="http://www.w3.org/2000/svg">
<path d="M15.8574,3.5c1.548,0.00014 2.8926,1.18341 2.8926,2.75c0,0.45621 -0.1165,0.87856 -0.3164,1.25h0.8164l0.1787,0.00879c0.8826,0.08951 1.5713,0.83504 1.5713,1.74121v1c0,0.9665 -0.7835,1.75 -1.75,1.75v5.5c0,1.5188 -1.2312,2.75 -2.75,2.75h-9c-1.51878,0 -2.75,-1.2312 -2.75,-2.75v-5.5c-0.9665,0 -1.75,-0.7835 -1.75,-1.75v-1c0,-0.9665 0.7835,-1.75 1.75,-1.75h0.81641c-0.19987,-0.37144 -0.31641,-0.79379 -0.31641,-1.25c0,-1.56659 1.34459,-2.74986 2.89258,-2.75c1.04845,0 2.18862,0.49372 3.05952,1.29883c0.2966,0.27413 0.5677,0.59071 0.7979,0.94433c0.2302,-0.35362 0.5013,-0.6702 0.7979,-0.94433c0.8709,-0.80511 2.0111,-1.29883 3.0595,-1.29883zM10.75,18.75h2.5v-9.75h-2.5zM4.75,9c-0.13807,0 -0.25,0.11193 -0.25,0.25v1c0,0.1381 0.11193,0.25 0.25,0.25h4.5v-1.5zM14.75,10.5h4.5c0.1381,0 0.25,-0.1119 0.25,-0.25v-1c0,-0.12069 -0.0855,-0.22167 -0.1992,-0.24512l-0.0508,-0.00488h-4.5zM8.14258,5c-0.81868,0.00014 -1.39258,0.60761 -1.39258,1.25c0,0.64239 0.5739,1.24986 1.39258,1.25h3.01362c-0.1601,-0.63249 -0.5146,-1.17619 -0.9726,-1.59961c-0.64341,-0.59474 -1.4327,-0.90039 -2.04102,-0.90039zM15.8574,5c-0.6083,0 -1.3976,0.30565 -2.041,0.90039c-0.458,0.42342 -0.8125,0.96712 -0.9726,1.59961h3.0136c0.8187,-0.00014 1.3926,-0.60761 1.3926,-1.25c0,-0.64239 -0.5739,-1.24986 -1.3926,-1.25z" fill="#002B51"/>
</svg>
