<svg width="24" height="24" viewBox="0 0 24 24" fill="none" xmlns="http://www.w3.org/2000/svg">
<path d="M18.7952,3.25c1.0272,0.00017 1.8179,0.87527 1.7461,1.87207l-0.0264,0.2002l-0.8066,4.30175l0.0293,0.08789c-0.0165,0.00549 -0.0331,0.01179 -0.0498,0.01758l-1.6445,8.77731c-0.2439,1.3006 -1.38,2.2431 -2.7032,2.2432h-6.67965c-1.24071,0 -2.31697,-0.8285 -2.64746,-2.0039l-0.05566,-0.2393l-2.47168,-13.18453c-0.20183,-1.07692 0.62403,-2.07227 1.71972,-2.07227zM9.00029,9.75c-0.81307,0 -1.42047,0.265 -1.95898,0.624c-0.27728,0.1849 -0.53245,0.392 -0.79883,0.6114c-0.04779,0.0393 -0.09787,0.0783 -0.14746,0.1191l1.33691,7.126l0.0254,0.1084c0.15019,0.5343 0.63913,0.9111 1.20312,0.9111h6.67965c0.6014,-0.0001 1.1177,-0.4285 1.2286,-1.0195l1.4501,-7.7364c-0.2478,0.1238 -0.5058,0.2528 -0.7636,0.3731c-0.9559,0.4461 -2.0819,0.8827 -3.2549,0.8828c-1.2591,0 -2.1902,-0.6421 -2.916,-1.126c-0.7741,-0.516 -1.34337,-0.8739 -2.08401,-0.874zM5.20537,4.75c-0.15646,0 -0.27479,0.14213 -0.24609,0.2959l0.82226,4.38672c0.13487,-0.10306 0.27776,-0.20666 0.42774,-0.30664c0.7114,-0.47423 1.60431,-0.87598 2.79101,-0.87598c1.25911,0.0001 2.19031,0.64215 2.91601,1.12598c0.7741,0.51605 1.3433,0.87402 2.084,0.87402c0.8268,-0.0001 1.7013,-0.31341 2.6201,-0.74219c0.4612,-0.21521 0.889,-0.43638 1.3389,-0.65722c0.1332,-0.06541 0.2688,-0.1277 0.4033,-0.19043l0.6787,-3.61426l0.0039,-0.05664c-0.0053,-0.13024 -0.1131,-0.23911 -0.25,-0.23926z" fill="#002B51"/>
</svg>
