<svg width="24" height="24" viewBox="0 0 24 24" fill="none" xmlns="http://www.w3.org/2000/svg">
<path d="M18.7941,3.25c1.0949,0.00006 1.9226,0.99466 1.7207,2.07227l-0.8067,4.30175l0.0293,0.08789c-0.0165,0.00551 -0.033,0.01177 -0.0498,0.01758l-1.6445,8.77731c-0.2439,1.3007 -1.3799,2.2432 -2.7031,2.2432h-6.67972c-1.32332,0 -2.45922,-0.9425 -2.70313,-2.2432l-2.47168,-13.18453c-0.20196,-1.07766 0.62576,-2.07227 1.72071,-2.07227zM5.20618,4.75c-0.15721,0 -0.27564,0.14286 -0.24707,0.2959l0.81543,4.35254c0.7949,-0.65445 1.73131,-1.39844 3.22558,-1.39844c1.99998,0.00007 3.00008,2 4.99998,2c1.5424,-0.00004 3.0854,-0.89076 4.3985,-1.52832l0.6425,-3.42578c0.0286,-0.153 -0.0899,-0.29584 -0.247,-0.2959z" fill="#002B51"/>
</svg>
