<svg width="24" height="24" viewBox="0 0 24 24" fill="none" xmlns="http://www.w3.org/2000/svg">
<path d="M18.7943,3.25c1.0265,0.00017 1.8188,0.8747 1.747,1.87207l-0.0263,0.2002l-0.8067,4.30175l0.0293,0.08789c-0.0164,0.00549 -0.0331,0.01179 -0.0498,0.01758l-1.6445,8.77731c-0.2439,1.3006 -1.3799,2.2431 -2.7031,2.2432h-6.67972c-1.24071,0 -2.31697,-0.8285 -2.64746,-2.0039l-0.05567,-0.2393l-2.47168,-13.18453c-0.20196,-1.07766 0.62576,-2.07227 1.72071,-2.07227zM5.20638,4.75c-0.15722,0 -0.27564,0.14286 -0.24707,0.2959l0.81542,4.35254c0.79489,-0.65442 1.73139,-1.39844 3.22559,-1.39844c1.99978,0.0002 3.00008,2 4.99998,2c1.5424,-0.00012 3.0854,-0.89078 4.3985,-1.52832l0.6425,-3.42578l0.0039,-0.05664c-0.0055,-0.12979 -0.1135,-0.2391 -0.2509,-0.23926z" fill="#002B51"/>
</svg>
