<svg width="24" height="24" viewBox="0 0 24 24" fill="none" xmlns="http://www.w3.org/2000/svg">
<path fill-rule="evenodd" clip-rule="evenodd" d="M3.48484,5.3225c-0.20207,-1.0777 0.62574,-2.0725 1.72074,-2.0725h0.03002h0.02998h0.02994h0.0299h0.02986h0.02982h0.02978h0.02974h0.0297h0.02966h0.02962h0.02959h0.02954h0.0295h0.02947h0.02942h0.02939h0.02935h0.02931h0.02927h0.02924h0.0292h0.02916h0.02912h0.02909h0.02904h0.02902h0.02897h0.02894h0.0289h0.02887h0.02883h0.02879h0.02876h0.02872h0.02869h0.02865h0.02862h0.02858h0.02855h0.02851h0.02848h0.02844h0.02841h0.02837h0.02834h0.02831h0.02828h0.02824h0.02821h0.02817h0.02814h0.02811h0.02808h0.02804h0.02801h0.02798h0.02795h0.02792h0.02788h0.02786h0.02782h0.02779h0.02776h0.02773h0.0277h0.02766h0.02764h0.02761h0.02758h0.02755h0.02751h0.02749h0.02746h0.02743h0.0274h0.02738h0.02734h0.02731h0.02729h0.02726h0.02723h0.0272h0.02718h0.02714h0.02712h0.0271h0.02706h0.02704h0.02701h0.02699h0.02695h0.02694h0.0269h0.02688h0.02686h0.02683h0.0268h0.02678h0.02675h0.02673h0.0267h0.02668h0.02665h0.02663h0.02661h0.02658h0.02655h0.02654h0.02651h0.02648h0.02647h0.02644h0.02641h0.0264h0.02637h0.02635h0.02633h0.0263h0.02629h0.02626h0.02624h0.02621h0.0262h0.02618h0.02615h0.02613h0.02612h0.02609h0.02607h0.02605h0.02603h0.02602h0.02599h0.02597h0.02595h0.02594h0.02591h0.0259h0.02588h0.02586h0.02584h0.02582h0.0258h0.02579h0.02577h0.02575h0.02573h0.02571h0.0257h0.02568h0.02567h0.02565h0.02563h0.02561h0.0256h0.02559h0.02556h0.02555h0.02554h0.02552h0.02551h0.02549h0.02547h0.02546h0.02545h0.02543h0.02541h0.02541h0.02539h0.02537h0.02536h0.02535h0.02534h0.02532h0.02528h0.0253h0.0253h0.0253h0.0252h0.0253h0.0252h0.0252h0.0252h0.0252h0.0252h0.0252h0.0252h0.0251h0.0252h0.0251h0.0251h0.0251h0.0251h0.0251h0.0251h0.0251h0.0251h0.025h0.0251h0.025h0.025h0.025h0.025h0.0251h0.0249h0.025h0.025h0.025h0.0249h0.025h0.0249h0.025h0.0249h0.0249h0.025h0.0249h0.0249h0.0249h0.0249h0.0249h0.0249h0.0248h0.0249h0.0249h0.0248h0.0249h0.0249h0.0248h0.0249h0.0248h0.0248h0.0249h0.0248h0.0248h0.0248h0.0249h0.0248h0.0248h0.0248h0.0248h0.0248h0.0248h0.0248h0.0248h0.0248h0.0248h0.0248h0.0248h0.0248h0.0248h0.0248h0.0248h0.0248h0.0248h0.0247h0.0248h0.0248h0.0248h0.0248h0.0248h0.0248h0.0248h0.0248h0.0248h0.0248h0.0248h0.0248h0.0248h0.0248h0.0248h0.0248h0.0248h0.0248h0.0248h0.0248h0.0249h0.0248h0.0248h0.0249h0.0248h0.0248h0.0249h0.0248h0.0249h0.0248h0.0249h0.0249h0.0248h0.0249h0.0249h0.0249h0.0249h0.0249h0.0249h0.0249h0.0249h0.025h0.0249h0.0249h0.025h0.0249h0.025h0.025h0.025h0.0249h0.025h0.025h0.025h0.0251h0.025h0.025h0.0251h0.025h0.0251h0.0251h0.025h0.0251h0.0251h0.0252h0.0251h0.0251h0.0252h0.0251h0.0252h0.0252h0.0251h0.0252h0.0253h0.0252h0.0252h0.0253h0.0252h0.0253h0.0253h0.0253h0.0253h0.0253h0.0253h0.0254h0.0253h0.0254h0.0254h0.0254h0.0254h0.0255h0.0254h0.0255h0.0254h0.0255h0.0255h0.0255h0.0256h0.0255h0.0256h0.0256h0.0256h0.0256h0.0256h0.0257h0.0256h0.0257h0.0257h0.0257h0.0258h0.0257h0.0258h0.0258h0.0258h0.0258h0.0258h0.0259h0.0259h0.0259h0.0259h0.0259h0.026h0.0259h0.026h0.0261h0.026h0.026h0.0261h0.0261h0.0261h0.0261h0.0262h0.0262h0.0262h0.0262h0.0262h0.0263h0.0263h0.0263h0.0263h0.0264h0.0263h0.0264h0.0264h0.0265h0.0264h0.0265h0.0265h0.0266h0.0265h0.0266h0.0266h0.0266h0.0267h0.0267h0.0267h0.0267h0.0268h0.0267h0.0268h0.0269h0.0268h0.0269h0.0269h0.0269h0.027h0.027h0.027h0.027h0.0271h0.0271h0.0271h0.0272h0.0271h0.0272h0.0273h0.0272h0.0273h0.0273h0.0274h0.0273h0.0274h0.0275h0.0274h0.0275h0.0275h0.0276h0.0276h0.0276h0.0276h0.0277h0.0277h0.0277h0.0278h0.0278h0.0278h0.0278h0.0279h0.0279h0.028h0.028h0.028h0.028h0.0281h0.0281h0.0281h0.0282h0.0282h0.0283h0.0282h0.0284h0.0283h0.0284h0.0284h0.0284h0.0285h0.0285h0.0286h0.0285h0.0287h0.0286h0.0287h0.0287h0.0288h0.0288h0.0288h0.0289h0.0289h0.0289h0.029h0.029h0.029h0.0291h0.0292h0.0291h0.0292h0.0292h0.0293h0.0293h0.0294h0.0294h0.0294h0.0295h0.0295h0.0295h0.0296h0.0296h0.0297h0.0297h0.0297h0.0298h0.0298h0.0299h0.0299h0.0299h0.03h0.03c1.095,0 1.9228,0.9948 1.7207,2.07251l-0.8067,4.3026l0.0288,0.0864c-0.0159,0.00531 -0.0319,0.01076 -0.0481,0.01635l-1.646,8.77894c-0.2439,1.3007 -1.3796,2.2432 -2.7029,2.2432h-6.6803c-1.32335,0 -2.45903,-0.9425 -2.7029,-2.2432zM5.20558,4.75c-0.15728,0 -0.27514,0.14295 -0.24643,0.29607l0.81605,4.35225c0.7948,-0.65435 1.73078,-1.39832 3.22474,-1.39832c1,0 1.74996,0.5 2.49996,1c0.75,0.5 1.5,1 2.5,1c1.3334,0 2.6667,-0.66667 3.8519,-1.25926c0.1862,-0.09309 0.3687,-0.18435 0.547,-0.27091l0.6419,-3.42376c0.0287,-0.15312 -0.0891,-0.29607 -0.2464,-0.29607h-0.03h-0.03h-0.0299h-0.0299h-0.0299h-0.0298h-0.0298h-0.0297h-0.0297h-0.0297h-0.0296h-0.0296h-0.0295h-0.0295h-0.0295h-0.0294h-0.0294h-0.0294h-0.0293h-0.0293h-0.0292h-0.0292h-0.0291h-0.0292h-0.0291h-0.029h-0.029h-0.029h-0.0289h-0.0289h-0.0289h-0.0288h-0.0288h-0.0288h-0.0287h-0.0287h-0.0286h-0.0287h-0.0285h-0.0286h-0.0285h-0.0285h-0.0284h-0.0284h-0.0284h-0.0283h-0.0284h-0.0282h-0.0283h-0.0282h-0.0282h-0.0281h-0.0281h-0.0281h-0.028h-0.028h-0.028h-0.028h-0.0279h-0.0279h-0.0278h-0.0278h-0.0278h-0.0278h-0.0277h-0.0277h-0.0277h-0.0276h-0.0276h-0.0276h-0.0276h-0.0275h-0.0275h-0.0274h-0.0275h-0.0274h-0.0273h-0.0274h-0.0273h-0.0273h-0.0272h-0.0273h-0.0272h-0.0271h-0.0272h-0.0271h-0.0271h-0.0271h-0.027h-0.027h-0.027h-0.027h-0.0269h-0.0269h-0.0269h-0.0268h-0.0269h-0.0268h-0.0267h-0.0268h-0.0267h-0.0267h-0.0267h-0.0267h-0.0266h-0.0266h-0.0266h-0.0265h-0.0266h-0.0265h-0.0265h-0.0264h-0.0265h-0.0264h-0.0264h-0.0263h-0.0264h-0.0263h-0.0263h-0.0263h-0.0263h-0.0262h-0.0262h-0.0262h-0.0262h-0.0262h-0.0261h-0.0261h-0.0261h-0.0261h-0.026h-0.026h-0.0261h-0.026h-0.0259h-0.026h-0.0259h-0.0259h-0.0259h-0.0259h-0.0259h-0.0258h-0.0258h-0.0258h-0.0258h-0.0258h-0.0257h-0.0258h-0.0257h-0.0257h-0.0257h-0.0256h-0.0257h-0.0256h-0.0256h-0.0256h-0.0256h-0.0256h-0.0255h-0.0256h-0.0255h-0.0255h-0.0255h-0.0254h-0.0255h-0.0254h-0.0255h-0.0254h-0.0254h-0.0254h-0.0254h-0.0253h-0.0254h-0.0253h-0.0253h-0.0253h-0.0253h-0.0253h-0.0253h-0.0252h-0.0253h-0.0252h-0.0252h-0.0253h-0.0252h-0.0251h-0.0252h-0.0252h-0.0251h-0.0252h-0.0251h-0.0251h-0.0252h-0.0251h-0.0251h-0.025h-0.0251h-0.0251h-0.025h-0.0251h-0.025h-0.025h-0.0251h-0.025h-0.025h-0.025h-0.0249h-0.025h-0.025h-0.025h-0.0249h-0.025h-0.0249h-0.0249h-0.025h-0.0249h-0.0249h-0.0249h-0.0249h-0.0249h-0.0249h-0.0249h-0.0249h-0.0248h-0.0249h-0.0249h-0.0248h-0.0249h-0.0248h-0.0249h-0.0248h-0.0248h-0.0249h-0.0248h-0.0248h-0.0249h-0.0248h-0.0248h-0.0248h-0.0248h-0.0248h-0.0248h-0.0248h-0.0248h-0.0248h-0.0248h-0.0248h-0.0248h-0.0248h-0.0248h-0.0248h-0.0248h-0.0248h-0.0248h-0.0248h-0.0248h-0.0247h-0.0248h-0.0248h-0.0248h-0.0248h-0.0248h-0.0248h-0.0248h-0.0248h-0.0248h-0.0248h-0.0248h-0.0248h-0.0248h-0.0248h-0.0248h-0.0248h-0.0248h-0.0248h-0.0249h-0.0248h-0.0248h-0.0248h-0.0249h-0.0248h-0.0248h-0.0249h-0.0248h-0.0249h-0.0249h-0.0248h-0.0249h-0.0249h-0.0248h-0.0249h-0.0249h-0.0249h-0.0249h-0.0249h-0.0249h-0.025h-0.0249h-0.0249h-0.025h-0.0249h-0.025h-0.0249h-0.025h-0.025h-0.025h-0.0249h-0.0251h-0.025h-0.025h-0.025h-0.025h-0.0251h-0.025h-0.0251h-0.0251h-0.0251h-0.0251h-0.0251h-0.0251h-0.0251h-0.0251h-0.0252h-0.0251h-0.0252h-0.0252h-0.0252h-0.0252h-0.0252h-0.0252h-0.0252h-0.0253h-0.0252h-0.0253h-0.0253h-0.0253h-0.02528h-0.02532h-0.02534h-0.02535h-0.02536h-0.02537h-0.02539h-0.02541h-0.02541h-0.02543h-0.02545h-0.02546h-0.02547h-0.02549h-0.02551h-0.02552h-0.02554h-0.02555h-0.02556h-0.02559h-0.0256h-0.02561h-0.02563h-0.02565h-0.02567h-0.02568h-0.0257h-0.02571h-0.02573h-0.02575h-0.02577h-0.02579h-0.0258h-0.02582h-0.02584h-0.02586h-0.02588h-0.0259h-0.02591h-0.02594h-0.02595h-0.02597h-0.02599h-0.02602h-0.02603h-0.02605h-0.02607h-0.02609h-0.02612h-0.02613h-0.02615h-0.02618h-0.0262h-0.02621h-0.02624h-0.02626h-0.02629h-0.0263h-0.02633h-0.02635h-0.02637h-0.0264h-0.02641h-0.02644h-0.02647h-0.02648h-0.02651h-0.02654h-0.02655h-0.02658h-0.02661h-0.02663h-0.02665h-0.02668h-0.0267h-0.02673h-0.02675h-0.02678h-0.0268h-0.02683h-0.02686h-0.02688h-0.0269h-0.02694h-0.02695h-0.02699h-0.02701h-0.02704h-0.02706h-0.0271h-0.02712h-0.02714h-0.02718h-0.0272h-0.02723h-0.02726h-0.02729h-0.02731h-0.02734h-0.02738h-0.0274h-0.02743h-0.02746h-0.02749h-0.02751h-0.02755h-0.02758h-0.02761h-0.02764h-0.02766h-0.0277h-0.02773h-0.02776h-0.02779h-0.02782h-0.02786h-0.02788h-0.02792h-0.02795h-0.02798h-0.02801h-0.02804h-0.02808h-0.02811h-0.02814h-0.02817h-0.02821h-0.02824h-0.02828h-0.02831h-0.02834h-0.02837h-0.02841h-0.02844h-0.02848h-0.02851h-0.02855h-0.02858h-0.02862h-0.02865h-0.02869h-0.02872h-0.02876h-0.02879h-0.02883h-0.02887h-0.0289h-0.02894h-0.02897h-0.02902h-0.02904h-0.02909h-0.02912h-0.02916h-0.0292h-0.02924h-0.02927h-0.02931h-0.02935h-0.02939h-0.02942h-0.02947h-0.0295h-0.02954h-0.02959h-0.02962h-0.02966h-0.0297h-0.02974h-0.02978h-0.02982h-0.02986h-0.0299h-0.02994h-0.02998z" fill="#002B51"/>
</svg>
