<svg width="24" height="24" viewBox="0 0 24 24" fill="none" xmlns="http://www.w3.org/2000/svg">
<path fill-rule="evenodd" clip-rule="evenodd" d="M18.7951,3.25c1.0957,0 1.9219,0.99553 1.72,2.07251l-0.8067,4.3026l0.0288,0.0864c-0.016,0.00531 -0.032,0.01076 -0.0481,0.01635l-1.6461,8.77894c-0.2438,1.3007 -1.3795,2.2432 -2.7029,2.2432h-6.68025c-1.32334,0 -2.45902,-0.9425 -2.7029,-2.2432l-2.47205,-13.1843c-0.20194,-1.07697 0.62428,-2.0725 1.72002,-2.0725zM18.364,8.65577l0.6768,-3.6097c0.0288,-0.15385 -0.0892,-0.29607 -0.2457,-0.29607h-13.59018c-0.15653,0 -0.27456,0.14222 -0.24571,0.29607l0.82247,4.38652c0.13484,-0.10303 0.27734,-0.20666 0.42729,-0.30663c0.71143,-0.47429 1.6042,-0.87596 2.79102,-0.87596c1.22881,0 2.14511,0.6115 2.86311,1.09069l0.0529,0.03527c0.7742,0.51613 1.3432,0.87404 2.084,0.87404c0.8269,0 1.7013,-0.31327 2.6203,-0.74214c0.3039,-0.1418 0.5929,-0.28634 0.8834,-0.43163c0.1505,-0.07524 0.3013,-0.15068 0.4548,-0.22604c0.1344,-0.06594 0.2698,-0.13133 0.4055,-0.19442zM6.09548,11.1062l1.33578,7.1242c0.11085,0.5912 0.62707,1.0196 1.22859,1.0196h6.68025c0.6016,0 1.1178,-0.4284 1.2286,-1.0196l1.4503,-7.7348c-0.248,0.1237 -0.5066,0.2512 -0.7643,0.3715c-0.956,0.4462 -2.0816,0.8829 -3.2547,0.8829c-1.2289,0 -2.1451,-0.6115 -2.8632,-1.0907l-0.0528,-0.0353c-0.7742,-0.5161 -1.34323,-0.874 -2.08401,-0.874c-0.81318,0 -1.42041,0.265 -1.95897,0.624c-0.27735,0.1849 -0.53218,0.3918 -0.79862,0.6112l-0.05196,0.0428c-0.03128,0.0258 -0.06295,0.0519 -0.09496,0.0782z" fill="#002B51"/>
</svg>
