<svg width="24" height="24" viewBox="0 0 24 24" fill="none" xmlns="http://www.w3.org/2000/svg">
<path d="M18.795,3.25c1.0957,0.00005 1.9216,0.99538 1.7197,2.07227l-0.8066,4.30175l0.0293,0.08789c-0.0165,0.00551 -0.033,0.01177 -0.0498,0.01758l-1.6445,8.77731c-0.2439,1.3007 -1.3799,2.2432 -2.7032,2.2432h-6.67965c-1.32332,0 -2.45922,-0.9425 -2.70313,-2.2432l-2.47168,-13.18453c-0.20183,-1.07692 0.62404,-2.07227 1.71973,-2.07227zM9.00009,9.75c-0.81315,0 -1.42043,0.265 -1.95898,0.624c-0.27733,0.1849 -0.53241,0.3919 -0.79883,0.6114c-0.04783,0.0393 -0.09783,0.0783 -0.14746,0.1191l1.33691,7.126c0.11093,0.5911 0.62706,1.0195 1.22852,1.0195h6.67965c0.6015,0 1.1176,-0.4284 1.2286,-1.0195l1.4501,-7.7364c-0.2478,0.1238 -0.5058,0.2528 -0.7636,0.3731c-0.956,0.4461 -2.0818,0.8828 -3.2549,0.8828c-1.2592,0 -2.1902,-0.6421 -2.916,-1.126c-0.7742,-0.5161 -1.34327,-0.87397 -2.08401,-0.874zM5.20517,4.75c-0.15646,0 -0.2748,0.14213 -0.24609,0.2959l0.82226,4.38672c0.13491,-0.1031 0.2777,-0.20662 0.42774,-0.30664c0.71142,-0.47428 1.60422,-0.87598 2.79101,-0.87598c1.25921,0.00003 2.19021,0.64212 2.91601,1.12598c0.7742,0.51611 1.3432,0.87402 2.084,0.87402c0.8268,0 1.7012,-0.31337 2.6201,-0.74219c0.4612,-0.21523 0.889,-0.43635 1.3389,-0.65722c0.1332,-0.06541 0.2688,-0.1277 0.4033,-0.19043l0.6787,-3.61426c0.0287,-0.15374 -0.0897,-0.29585 -0.2461,-0.2959z" fill="#002B51"/>
</svg>
