<svg width="24" height="24" viewBox="0 0 24 24" fill="none" xmlns="http://www.w3.org/2000/svg">
<path d="M7.27844,12.7499c0.24922,3.388 2.11903,6.2415 3.25096,7.6875l0.2305,0.2881c0.2469,0.302 0.407,0.6446 0.4648,0.9912c-4.77477,-0.3757 -8.57976,-4.1885 -8.94333,-8.9668zM21.7179,12.7499c-0.3636,4.7785 -4.1682,8.5914 -8.9434,8.9668c0.0579,-0.3467 0.2189,-0.6892 0.4659,-0.9912l0.2304,-0.2881c1.132,-1.446 3.0018,-4.2996 3.251,-7.6875zM15.2159,12.7499c-0.2487,2.894 -1.8673,5.407 -2.9189,6.753l-0.2178,0.2734c-0.0274,0.0335 -0.0527,0.069 -0.0791,0.1035c-0.0264,-0.0345 -0.0516,-0.0699 -0.0791,-0.1035l-0.2178,-0.2734c-1.0516,-1.346 -2.67019,-3.8589 -2.9189,-6.753zM11.2247,2.28314c-0.0578,0.34668 -0.2179,0.68927 -0.4648,0.99121c-1.08685,1.32913 -3.2154,4.34557 -3.48243,7.97555h-4.9961c0.36362,-4.77813 4.16859,-8.59102 8.94333,-8.96676zM12.0792,4.22357c1.0287,1.25799 2.8701,3.92332 3.1367,7.02633h-6.4316c0.26663,-3.10301 2.108,-5.76834 3.1367,-7.02633c0.0276,-0.03374 0.0526,-0.06974 0.0791,-0.10449c0.0266,0.03478 0.0515,0.07073 0.0791,0.10449zM12.7745,2.28314c4.7751,0.37539 8.5797,4.1884 8.9434,8.96676h-4.9951c-0.267,-3.62998 -2.3956,-6.64642 -3.4824,-7.97555c-0.247,-0.302 -0.408,-0.64445 -0.4659,-0.99121z" fill="#002B51"/>
</svg>
