<svg width="24" height="24" viewBox="0 0 24 24" fill="none" xmlns="http://www.w3.org/2000/svg">
<path fill-rule="evenodd" clip-rule="evenodd" d="M10.7602,3.27418c-1.08672,1.32895 -3.21537,4.34548 -3.48243,7.97582h-4.99933c0.36355,-4.77906 4.17242,-8.59507 8.94836,-8.96979c-0.0573,0.34773 -0.2189,0.69109 -0.4666,0.99397zM7.27777,12.75c0.26706,3.6303 2.3957,6.6469 3.48243,7.9758c0.2477,0.3029 0.4093,0.6463 0.4666,0.994c-4.77594,-0.3747 -8.58481,-4.1907 -8.94836,-8.9698zM13.2398,20.7258c1.0868,-1.3289 3.2154,-4.3455 3.4825,-7.9758h4.9993c-0.3635,4.779 -4.1724,8.5951 -8.9483,8.9698c0.0573,-0.3477 0.2189,-0.6911 0.4665,-0.994zM16.7223,11.25c-0.2671,-3.63034 -2.3957,-6.64687 -3.4825,-7.97582c-0.2477,-0.30288 -0.4092,-0.64624 -0.4665,-0.99397c4.7759,0.37472 8.5848,4.19073 8.9483,8.96979zM11.9214,19.7763c-1.0287,-1.258 -2.87227,-3.9231 -3.13889,-7.0263h6.43499c-0.2666,3.1032 -2.1102,5.7683 -3.1389,7.0263c-0.0266,0.0326 -0.0529,0.0657 -0.0786,0.0993c-0.0257,-0.0336 -0.0519,-0.0667 -0.0786,-0.0993zM12,4.12437c0.0257,0.0336 0.052,0.06673 0.0786,0.09937c1.0287,1.25794 2.8723,3.92301 3.1389,7.02626h-6.43498c0.26662,-3.10325 2.11018,-5.76832 3.13888,-7.02626c0.0267,-0.03264 0.0529,-0.06577 0.0786,-0.09937z" fill="#002B51"/>
</svg>
