<svg width="24" height="24" viewBox="0 0 24 24" fill="none" xmlns="http://www.w3.org/2000/svg">
<path fill-rule="evenodd" clip-rule="evenodd" d="M12 2.25C6.61521 2.25 2.24998 6.61522 2.24998 12C2.24998 17.3848 6.61521 21.75 12 21.75C17.3848 21.75 21.75 17.3848 21.75 12C21.75 6.61522 17.3848 2.25 12 2.25ZM3.74998 12C3.74998 11.9164 3.75123 11.833 3.7537 11.75H4.99998C5.96648 11.75 6.74998 12.5335 6.74998 13.5V14.25C6.74998 15.6307 7.86927 16.75 9.24998 16.75C9.80227 16.75 10.25 17.1977 10.25 17.75V20.064C6.53422 19.2615 3.74998 15.9559 3.74998 12ZM4.99998 10.25H3.93596C4.28945 8.61344 5.12848 7.15758 6.29476 6.04071C6.55224 7.57828 7.88928 8.75 9.49998 8.75H9.99998C10.6903 8.75 11.25 9.30964 11.25 10V10.25C11.25 11.6307 12.3693 12.75 13.75 12.75H14C15.2426 12.75 16.25 11.7426 16.25 10.5C16.25 10.0858 16.5858 9.75 17 9.75H19.9394C20.1417 10.4652 20.25 11.22 20.25 12C20.25 12.78 20.1417 13.5348 19.9394 14.25H19C16.3766 14.25 14.25 16.3766 14.25 19V19.9395C13.5347 20.1417 12.78 20.25 12 20.25C11.9164 20.25 11.833 20.2488 11.75 20.2463V17.75C11.75 16.3693 10.6307 15.25 9.24998 15.25C8.6977 15.25 8.24998 14.8023 8.24998 14.25V13.5C8.24998 11.7051 6.79491 10.25 4.99998 10.25ZM19.3504 8.25C17.9849 5.57874 15.206 3.75 12 3.75C10.4454 3.75 8.99127 4.17998 7.74998 4.92749V5.5C7.74998 6.4665 8.53349 7.25 9.49998 7.25H9.99998C11.5188 7.25 12.75 8.48122 12.75 10V10.25C12.75 10.8023 13.1977 11.25 13.75 11.25H14C14.4142 11.25 14.75 10.9142 14.75 10.5C14.75 9.25736 15.7573 8.25 17 8.25H19.3504ZM15.75 19.3504C17.2961 18.56 18.56 17.2962 19.3504 15.75H19C17.2051 15.75 15.75 17.2051 15.75 19V19.3504Z" fill="#002B51"/>
</svg>
