<svg width="24" height="24" viewBox="0 0 24 24" fill="none" xmlns="http://www.w3.org/2000/svg">
<path fill-rule="evenodd" clip-rule="evenodd" d="M11.2268 2.28021C6.45086 2.65493 2.64199 6.47094 2.27844 11.25H7.27777C7.54483 7.61966 9.67348 4.60313 10.7602 3.27418C11.0079 2.9713 11.1695 2.62794 11.2268 2.28021ZM2.27844 12.75C2.64199 17.5291 6.45086 21.3451 11.2268 21.7198C11.1695 21.3721 11.0079 21.0287 10.7602 20.7258C9.67347 19.3969 7.54483 16.3803 7.27777 12.75H2.27844ZM12.7733 21.7198C17.5492 21.3451 21.3581 17.529 21.7216 12.75H16.7223C16.4552 16.3803 14.3266 19.3969 13.2398 20.7258C12.9922 21.0287 12.8306 21.3721 12.7733 21.7198ZM21.7216 11.25C21.3581 6.47094 17.5492 2.65493 12.7733 2.28021C12.8306 2.62794 12.9921 2.9713 13.2398 3.27418C14.3266 4.60313 16.4552 7.61966 16.7223 11.25H21.7216ZM11.9214 19.7763C10.8927 18.5183 9.04913 15.8532 8.78251 12.75H15.2175C14.9509 15.8532 13.1073 18.5183 12.0786 19.7763C12.052 19.8089 12.0257 19.842 12 19.8756C11.9743 19.842 11.9481 19.8089 11.9214 19.7763ZM11.9214 4.22374C10.8927 5.48168 9.04914 8.14675 8.78252 11.25H15.2175C14.9509 8.14675 13.1073 5.48168 12.0786 4.22374C12.052 4.1911 12.0257 4.15797 12 4.12437C11.9743 4.15797 11.9481 4.1911 11.9214 4.22374Z" fill="#002B51"/>
</svg>
