<svg width="24" height="24" viewBox="0 0 24 24" fill="none" xmlns="http://www.w3.org/2000/svg">
<path fill-rule="evenodd" clip-rule="evenodd" d="M12 2.25C6.61522 2.25 2.25 6.61522 2.25 12C2.25 17.3848 6.61522 21.75 12 21.75C17.3848 21.75 21.75 17.3848 21.75 12C21.75 6.61522 17.3848 2.25 12 2.25ZM10.2441 3.93725C6.76871 4.69058 4.1095 7.63387 3.78363 11.25H7.27774C7.45231 8.87628 8.42207 6.77259 9.36086 5.24361C9.66381 4.7502 9.96665 4.31158 10.2441 3.93725ZM7.27774 12.75H3.78363C4.1095 16.3661 6.76871 19.3094 10.2441 20.0627C9.96665 19.6884 9.66381 19.2498 9.36086 18.7564C8.42207 17.2274 7.45231 15.1237 7.27774 12.75ZM12 19.8716C11.9849 19.8535 11.9696 19.8349 11.954 19.816C11.5961 19.3813 11.1174 18.7505 10.6391 17.9715C9.7818 16.5752 8.95436 14.7497 8.7825 12.75H15.2175C15.0456 14.7497 14.2182 16.5752 13.3609 17.9715C12.8826 18.7505 12.4039 19.3813 12.046 19.816C12.0304 19.8349 12.0151 19.8535 12 19.8716ZM8.7825 11.25C8.95436 9.25034 9.7818 7.4248 10.6391 6.02847C11.1174 5.24947 11.5961 4.61867 11.954 4.184C11.9696 4.16509 11.9849 4.14655 12 4.12839C12.0151 4.14655 12.0304 4.16509 12.046 4.184C12.4039 4.61867 12.8826 5.24947 13.3609 6.02847C14.2182 7.4248 15.0456 9.25034 15.2175 11.25H8.7825ZM14.6391 5.24361C14.3362 4.7502 14.0333 4.31158 13.7559 3.93725C17.2313 4.69057 19.8905 7.63387 20.2164 11.25H16.7223C16.5477 8.87628 15.5779 6.77259 14.6391 5.24361ZM14.6391 18.7564C14.3362 19.2498 14.0333 19.6884 13.7559 20.0628C17.2313 19.3094 19.8905 16.3661 20.2164 12.75H16.7223C16.5477 15.1237 15.5779 17.2274 14.6391 18.7564Z" fill="#002B51"/>
</svg>
