<svg width="24" height="24" viewBox="0 0 24 24" fill="none" xmlns="http://www.w3.org/2000/svg">
<path fill-rule="evenodd" clip-rule="evenodd" d="M20.2164,12.75h-3.4941c-0.1747,2.3738 -1.1448,4.4779 -2.0836,6.0068c-0.3029,0.4932 -0.6055,0.9317 -0.8828,1.3059c3.4754,-0.7533 6.1346,-3.6966 6.4605,-7.3127zM13.7559,3.93725c0.2773,0.37424 0.5799,0.81273 0.8828,1.30591c0.9388,1.52899 1.9089,3.63304 2.0836,6.00684h3.4941c-0.3259,-3.61612 -2.9851,-6.55941 -6.4605,-7.31275zM12,4.12813c-0.0151,0.01811 -0.0304,0.0366 -0.0459,0.05546c-0.3579,0.43467 -0.8371,1.06573 -1.3154,1.84473c-0.85735,1.39633 -1.68443,3.22202 -1.85621,5.22168h6.43501c-0.1718,-1.99966 -0.9988,-3.82535 -1.8562,-5.22168c-0.4783,-0.779 -0.9575,-1.41006 -1.3154,-1.84473c-0.0155,-0.01886 -0.0308,-0.03735 -0.0459,-0.05546zM7.27775,11.25c0.17464,-2.3738 1.14479,-4.47785 2.08358,-6.00684c0.30283,-0.49318 0.60546,-0.93167 0.88277,-1.3059c-3.4754,0.75333 -6.1346,3.69662 -6.46047,7.31274zM3.78363,12.75c0.32587,3.6161 2.98507,6.5594 6.46047,7.3127c-0.2773,-0.3742 -0.57994,-0.8127 -0.88277,-1.3059c-0.93879,-1.5289 -1.90894,-3.633 -2.08358,-6.0068zM12.0459,19.8164c0.3579,-0.4347 0.8371,-1.0657 1.3154,-1.8447c0.8574,-1.3963 1.6844,-3.222 1.8562,-5.2217h-6.43501c0.17178,1.9997 0.99886,3.8254 1.85621,5.2217c0.4783,0.779 0.9575,1.41 1.3154,1.8447c0.0155,0.0189 0.0308,0.0374 0.0459,0.0555c0.0151,-0.0181 0.0304,-0.0366 0.0459,-0.0555zM2.25,12c0,-5.38478 4.36522,-9.75 9.75,-9.75c5.3848,0 9.75,4.36522 9.75,9.75c0,5.3848 -4.3652,9.75 -9.75,9.75c-5.38478,0 -9.75,-4.3652 -9.75,-9.75z" fill="#002B51"/>
</svg>
