<svg width="24" height="24" viewBox="0 0 24 24" fill="none" xmlns="http://www.w3.org/2000/svg">
<path fill-rule="evenodd" clip-rule="evenodd" d="M17,9.75c-0.4142,0 -0.75,0.3358 -0.75,0.75c0,1.2426 -1.0074,2.25 -2.25,2.25h-0.25c-1.3807,0 -2.5,-1.1193 -2.5,-2.5v-0.25c0,-0.69036 -0.5597,-1.25 -1.25002,-1.25h-0.5c-1.6107,0 -2.94774,-1.17172 -3.20522,-2.70929c-1.16628,1.11687 -2.00531,2.57273 -2.3588,4.20929h1.06402c1.79493,0 3.25,1.4551 3.25,3.25v0.75c0,0.5523 0.44772,1 1,1c1.38072,0 2.50002,1.1193 2.50002,2.5v2.4963c0.083,0.0025 0.1664,0.0037 0.25,0.0037c0.7893,0 1.5526,-0.1108 2.2754,-0.3178c0.2701,-2.9987 2.6581,-5.3867 5.6568,-5.6568c0.207,-0.7227 0.3178,-1.4861 0.3178,-2.2754c0,-0.78 -0.1083,-1.5348 -0.3106,-2.25zM12,3.75c-1.5546,0 -3.00873,0.42998 -4.25002,1.17749v0.57251c0,0.9665 0.78351,1.75 1.75,1.75h0.5c1.51882,0 2.75002,1.23122 2.75002,2.75v0.25c0,0.5523 0.4477,1 1,1h0.25c0.4142,0 0.75,-0.3358 0.75,-0.75c0,-1.24264 1.0073,-2.25 2.25,-2.25h2.3504c-1.3655,-2.67126 -4.1444,-4.5 -7.3504,-4.5zM9.24998,16.75c-1.38071,0 -2.5,-1.1193 -2.5,-2.5v-0.75c0,-0.9665 -0.7835,-1.75 -1.75,-1.75h-1.24628c-0.00247,0.083 -0.00372,0.1664 -0.00372,0.25c0,3.9559 2.78424,7.2615 6.50002,8.064v-2.314c0,-0.5523 -0.44773,-1 -1.00002,-1zM15.912,19.2653c1.4188,-0.7655 2.5878,-1.9345 3.3533,-3.3532c-1.631,0.4378 -2.9154,1.7222 -3.3533,3.3532zM2.24998,12c0,-5.38478 4.36523,-9.75 9.75002,-9.75c5.3848,0 9.75,4.36522 9.75,9.75c0,5.3848 -4.3652,9.75 -9.75,9.75c-5.38479,0 -9.75002,-4.3652 -9.75002,-9.75z" fill="#002B51"/>
</svg>
