<svg width="24" height="24" viewBox="0 0 24 24" fill="none" xmlns="http://www.w3.org/2000/svg">
<path fill-rule="evenodd" clip-rule="evenodd" d="M21.75,12c0,5.3848 -4.3652,9.75 -9.75,9.75c-5.38478,0 -9.75,-4.3652 -9.75,-9.75c0,-5.38478 4.36522,-9.75 9.75,-9.75c5.3848,0 9.75,4.36522 9.75,9.75zM10.2441,3.93725c-3.47539,0.75333 -6.1346,3.69662 -6.46047,7.31275h3.49411c0.17457,-2.37372 1.14433,-4.47741 2.08312,-6.00639c0.30295,-0.49341 0.60579,-0.93203 0.88324,-1.30636zM7.27774,12.75h-3.49411c0.32587,3.6161 2.98508,6.5594 6.46047,7.3127c-0.27745,-0.3743 -0.58029,-0.8129 -0.88324,-1.3063c-0.93879,-1.529 -1.90855,-3.6327 -2.08312,-6.0064zM12.046,19.816c0.3579,-0.4347 0.8366,-1.0655 1.3149,-1.8445c0.8573,-1.3963 1.6847,-3.2218 1.8566,-5.2215h-6.435c0.17186,1.9997 0.9993,3.8252 1.8566,5.2215c0.4783,0.779 0.957,1.4098 1.3149,1.8445c0.0156,0.0189 0.0309,0.0375 0.046,0.0556c0.0151,-0.0181 0.0304,-0.0367 0.046,-0.0556zM15.2175,11.25c-0.1719,-1.99966 -0.9993,-3.8252 -1.8566,-5.22153c-0.4783,-0.779 -0.957,-1.4098 -1.3149,-1.84447c-0.0156,-0.01891 -0.0309,-0.03745 -0.046,-0.05561c-0.0151,0.01816 -0.0304,0.0367 -0.046,0.05561c-0.3579,0.43467 -0.8366,1.06547 -1.3149,1.84447c-0.8573,1.39633 -1.68474,3.22187 -1.8566,5.22153zM16.7223,11.25h3.4941c-0.3259,-3.61613 -2.9851,-6.55943 -6.4605,-7.31275c0.2774,0.37433 0.5803,0.81295 0.8832,1.30636c0.9388,1.52898 1.9086,3.63267 2.0832,6.00639zM14.6391,18.7564c-0.3029,0.4934 -0.6058,0.932 -0.8832,1.3064c3.4754,-0.7534 6.1346,-3.6967 6.4605,-7.3128h-3.4941c-0.1746,2.3737 -1.1444,4.4774 -2.0832,6.0064z" fill="#002B51"/>
</svg>
