<svg width="24" height="24" viewBox="0 0 24 24" fill="none" xmlns="http://www.w3.org/2000/svg">
<path fill-rule="evenodd" clip-rule="evenodd" d="M2.25,12c0,-5.38478 4.36522,-9.75 9.75,-9.75c5.3848,0 9.75,4.36522 9.75,9.75c0,5.3848 -4.3652,9.75 -9.75,9.75c-5.38478,0 -9.75,-4.3652 -9.75,-9.75zM3.93598,10.25h1.06402c1.79493,0 3.25,1.4551 3.25,3.25v0.75c0,0.5523 0.44772,1 1,1c1.3807,0 2.5,1.1193 2.5,2.5v2.4963c0.083,0.0025 0.1664,0.0037 0.25,0.0037c0.78,0 1.5348,-0.1083 2.25,-0.3105v-0.9395c0,-2.6234 2.1266,-4.75 4.75,-4.75h0.9395c0.2022,-0.7152 0.3105,-1.47 0.3105,-2.25c0,-0.78 -0.1082,-1.5348 -0.3105,-2.25h-2.9395c-0.4142,0 -0.75,0.3358 -0.75,0.75c0,1.2426 -1.0074,2.25 -2.25,2.25h-0.25c-1.3807,0 -2.5,-1.1193 -2.5,-2.5v-0.25c0,-0.69036 -0.5596,-1.25 -1.25,-1.25h-0.5c-1.61071,0 -2.94774,-1.17172 -3.20522,-2.70929c-1.16629,1.11687 -2.00532,2.57273 -2.3588,4.20929z" fill="#002B51"/>
</svg>
