<svg width="24" height="24" viewBox="0 0 24 24" fill="none" xmlns="http://www.w3.org/2000/svg">
<path d="M12,2.25c5.3848,0 9.75,4.36522 9.75,9.75c0,5.3848 -4.3652,9.75 -9.75,9.75c-5.38478,0 -9.75,-4.3652 -9.75,-9.75c0,-5.38478 4.36522,-9.75 9.75,-9.75zM6.29492,6.04199c-1.16587,1.11668 -2.00295,2.57192 -2.35644,4.20801h1.06152c1.79493,0 3.25,1.4551 3.25,3.25v0.75c0,0.5523 0.44772,1 1,1c1.3807,0 2.5,1.1193 2.5,2.5v2.4932c0.0831,0.0024 0.1663,0.0068 0.25,0.0068c0.7899,0 1.5531,-0.114 2.2764,-0.3213c0.2715,-2.9958 2.6565,-5.3808 5.6523,-5.6523c0.2073,-0.7233 0.3213,-1.4865 0.3213,-2.2764c0,-0.7803 -0.111,-1.5345 -0.3135,-2.25h-2.9365c-0.4142,0 -0.75,0.3358 -0.75,0.75c0,1.2426 -1.0074,2.25 -2.25,2.25h-0.25c-1.3807,0 -2.5,-1.1193 -2.5,-2.5v-0.25c0,-0.69036 -0.5596,-1.25 -1.25,-1.25h-0.5c-1.61026,0 -2.94707,-1.17107 -3.20508,-2.70801z" fill="#002B51"/>
</svg>
