<svg width="24" height="24" viewBox="0 0 24 24" fill="none" xmlns="http://www.w3.org/2000/svg">
<path fill-rule="evenodd" clip-rule="evenodd" d="M11.7032,19.5029c-1.0517,-1.3459 -2.67202,-3.8588 -2.92068,-6.7529h6.43498c-0.2486,2.8941 -1.8689,5.407 -2.9206,6.7529l-0.2178,0.2735c-0.0268,0.0328 -0.0532,0.0661 -0.0791,0.1c-0.0258,-0.0339 -0.0522,-0.0672 -0.0791,-0.1zM2.27844,12.75h4.99933c0.2492,3.388 2.1196,6.2414 3.25153,7.6875l0.2305,0.2881c0.2477,0.3029 0.4095,0.6464 0.4669,0.9942c-4.77586,-0.3748 -8.58471,-4.1908 -8.94826,-8.9698zM11.2267,2.28021c-0.0574,0.3478 -0.2192,0.69132 -0.4669,0.9942c-1.08684,1.32913 -3.21501,4.34555 -3.48203,7.97559h-4.99933c0.36355,-4.77905 4.1724,-8.59505 8.94826,-8.96979zM13.2403,20.7256l0.2304,-0.2881c1.132,-1.4461 3.0024,-4.2995 3.2516,-7.6875h4.9993c-0.3635,4.779 -4.1724,8.595 -8.9483,8.9698c0.0574,-0.3478 0.2193,-0.6913 0.467,-0.9942zM16.7223,11.25c-0.267,-3.63004 -2.3952,-6.64646 -3.482,-7.97559c-0.2477,-0.30288 -0.4096,-0.6464 -0.467,-0.9942c4.7759,0.37474 8.5848,4.19074 8.9483,8.96979zM11.9209,4.22363c0.0269,-0.03284 0.0533,-0.06617 0.0791,-0.09998c0.0259,0.03381 0.0523,0.06714 0.0791,0.09998c1.0287,1.25802 2.8719,3.92322 3.1384,7.02637h-6.43499c0.26656,-3.10315 2.10969,-5.76835 3.13839,-7.02637z" fill="#002B51"/>
</svg>
