<svg width="24" height="24" viewBox="0 0 24 24" fill="none" xmlns="http://www.w3.org/2000/svg">
<path d="M12,2.25c5.3848,0 9.75,4.36522 9.75,9.75c0,5.3848 -4.3652,9.75 -9.75,9.75c-5.38477,0 -9.75,-4.3652 -9.75,-9.75c0,-5.38478 4.36523,-9.75 9.75,-9.75zM3.78614,12.75c0.32594,3.6159 2.98288,6.5571 6.45796,7.3105c-0.27698,-0.3739 -0.58031,-0.8111 -0.88277,-1.3037c-0.93876,-1.5289 -1.90637,-3.6331 -2.08105,-6.0068zM16.7197,12.75c-0.1746,2.3737 -1.1423,4.4779 -2.081,6.0068c-0.3026,0.4928 -0.6067,0.9297 -0.8838,1.3037c3.4756,-0.7531 6.133,-3.6943 6.459,-7.3105zM8.78418,12.75c0.17182,1.9996 0.99719,3.8254 1.85452,5.2217c0.4783,0.779 0.9575,1.41 1.3154,1.8447c0.0152,0.0185 0.0311,0.0359 0.0459,0.0537c0.0148,-0.0178 0.0307,-0.0352 0.0459,-0.0537c0.3579,-0.4347 0.8371,-1.0657 1.3154,-1.8447c0.8573,-1.3963 1.6827,-3.2221 1.8545,-5.2217zM11.9541,4.18359c-0.3579,0.43467 -0.8371,1.06573 -1.3154,1.84473c-0.85733,1.39629 -1.6827,3.22207 -1.85452,5.22168h6.43162c-0.1718,-1.99961 -0.9972,-3.82539 -1.8545,-5.22168c-0.4783,-0.779 -0.9575,-1.41006 -1.3154,-1.84473c-0.0154,-0.0187 -0.031,-0.03672 -0.0459,-0.05468c-0.0149,0.01796 -0.0305,0.03598 -0.0459,0.05468zM13.7549,3.93848c0.2772,0.37417 0.581,0.81164 0.8838,1.30468c0.9387,1.52895 1.9064,3.63312 2.081,6.00684h3.4942c-0.326,-3.61626 -2.9833,-6.55846 -6.459,-7.31152zM10.2441,3.93848c-3.47518,0.75339 -6.13201,3.69558 -6.45796,7.31152h3.49414c0.17468,-2.37372 1.14229,-4.47789 2.08105,-6.00684c0.30263,-0.49284 0.60567,-0.93061 0.88277,-1.30468z" fill="#002B51"/>
</svg>
