<svg width="24" height="24" viewBox="0 0 24 24" fill="none" xmlns="http://www.w3.org/2000/svg">
<path d="M19.1728,11.0642c0.2945,-0.2401 0.7293,-0.2227 1.0039,0.0518c0.2745,0.2745 0.2918,0.7093 0.0517,1.0039l-0.0517,0.0567l-8,7.9999c-0.2929,0.2929 -0.7677,0.2929 -1.0606,0c-0.2929,-0.2928 -0.2929,-0.7676 0,-1.0605l8,-8zM18.1737,4.06425c0.2946,-0.23981 0.7285,-0.22267 1.003,0.05175c0.2744,0.27443 0.2915,0.70836 0.0517,1.00293l-0.0517,0.05762l-14.00004,14.00005c-0.29289,0.2928 -0.76765,0.2928 -1.06054,0c-0.2929,-0.2929 -0.2929,-0.7677 0,-1.0606l13.99998,-14z" fill="#002B51"/>
</svg>
