<svg width="24" height="24" viewBox="0 0 24 24" fill="none" xmlns="http://www.w3.org/2000/svg">
<path fill-rule="evenodd" clip-rule="evenodd" d="M19.1767,4.11615c0.2745,0.27452 0.2918,0.70877 0.0518,1.00335l-0.0518,0.05732l-13.99992,13.99988c-0.29289,0.2929 -0.76776,0.2929 -1.06066,0c-0.29289,-0.2929 -0.29289,-0.7678 0,-1.0607l13.99988,-13.99985l0.0573,-0.05179c0.2946,-0.24006 0.7289,-0.22272 1.0034,0.05179zM20.1766,11.1162c0.2746,0.2745 0.2919,0.7088 0.0518,1.0034l-0.0518,0.0573l-7.9998,7.9998c-0.2929,0.2929 -0.7678,0.2929 -1.0607,0c-0.2929,-0.2929 -0.2929,-0.7678 0,-1.0607l7.9999,-7.9998l0.0573,-0.0518c0.2946,-0.2401 0.7288,-0.2227 1.0033,0.0518z" fill="#002B51"/>
</svg>
