<svg width="24" height="24" viewBox="0 0 24 24" fill="none" xmlns="http://www.w3.org/2000/svg">
<path d="M11.4058,4.97204c0.4475,-0.16142 0.9451,-0.13416 1.376,0.08105l7.7646,3.88184c0.7187,0.35945 1.0365,1.08997 0.9541,1.77827v3.7872c-0.0001,0.4139 -0.336,0.7497 -0.75,0.75c-0.4141,0 -0.7499,-0.3359 -0.75,-0.75v-2.1622l-1.75,0.875v2.5557l-0.001,0.0195l-0.0068,0.1416l-0.001,0.0186l-0.0019,0.0186c-0.1139,1.1246 -1.0584,1.944 -2.1221,2.4511c-0.9677,0.4612 -2.1993,0.7527 -3.5371,0.8184l-0.5801,0.0137c-1.5602,-0.0001 -3.01103,-0.305 -4.11717,-0.8321c-1.06378,-0.5071 -2.00822,-1.3264 -2.12207,-2.4511l-0.00195,-0.0186l-0.00098,-0.0186l-0.00684,-0.1416l-0.00097,-0.0195v-2.5547l-2.29785,-1.1484c-1.28918,-0.645 -1.28903,-2.48572 0,-3.13087l7.76463,-3.88184zM12.7818,15.9476c-0.4924,0.2459 -1.0722,0.2461 -1.5645,0l-3.96678,-1.9834v1.7676l0.0039,0.0898c0.03642,0.3283 0.36956,0.8109 1.27442,1.2422c0.86769,0.4135 2.08996,0.6865 3.47166,0.6866l0.5108,-0.0127c1.1713,-0.058 2.2018,-0.3121 2.9609,-0.6739c0.9046,-0.4313 1.237,-0.9139 1.2734,-1.2422l0.0049,-0.0898v-1.7686z" fill="#002B51"/>
</svg>
