<svg width="24" height="24" viewBox="0 0 24 24" fill="none" xmlns="http://www.w3.org/2000/svg">
<path d="M11.4058,4.97197c0.4475,-0.16141 0.9452,-0.13414 1.376,0.08105l7.7646,3.88184c0.7187,0.35944 1.0365,1.09004 0.9541,1.77834v3.7871c0,0.414 -0.336,0.7497 -0.75,0.75c-0.4141,0 -0.7499,-0.3359 -0.75,-0.75v-2.1621l-1.75,0.875v2.5556l-0.0009,0.0196l-0.0069,0.1416l-0.0009,0.0185l-0.002,0.0186c-0.1138,1.1247 -1.0583,1.944 -2.1221,2.4512c-0.9676,0.4612 -2.1993,0.7527 -3.5371,0.8183l-0.5801,0.0137c-1.5601,-0.0001 -3.011,-0.305 -4.11714,-0.832c-1.06381,-0.5072 -2.00827,-1.3264 -2.12207,-2.4512l-0.00195,-0.0186l-0.00098,-0.0185l-0.00683,-0.1416l-0.00098,-0.0196v-2.5546l-2.29785,-1.1485c-1.28916,-0.645 -1.28905,-2.48571 0,-3.13084l7.7646,-3.88184zM12.7818,15.9476c-0.4924,0.2458 -1.0721,0.246 -1.5645,0l-3.96675,-1.9834v1.7675l0.00391,0.0899c0.03635,0.3282 0.36945,0.8108 1.27441,1.2422c0.86769,0.4134 2.08993,0.6864 3.47163,0.6865l0.5108,-0.0127c1.1713,-0.0579 2.2019,-0.312 2.9609,-0.6738c0.9046,-0.4314 1.2371,-0.914 1.2735,-1.2422l0.0048,-0.0899v-1.7685zM11.9429,6.37529l-0.0547,0.01953l-7.7646,3.88188c-0.18347,0.0923 -0.1836,0.355 0,0.4472l7.7646,3.8819c0.0701,0.0348 0.1526,0.0347 0.2227,0l7.7646,-3.8819c0.0651,-0.0326 0.106,-0.0873 0.125,-0.1474v-0.0762h0.0137c0.0001,-0.0889 -0.0466,-0.1775 -0.1387,-0.2236l-7.7646,-3.88188c-0.0525,-0.02608 -0.112,-0.03257 -0.168,-0.01953z" fill="#002B51"/>
</svg>
