<svg width="36" height="24" viewBox="0 0 36 24" fill="none" xmlns="http://www.w3.org/2000/svg">
<g clip-path="url(#clip0_4050_17531)">
<path d="M0,12c0,-6.62742 5.37258,-12 12,-12h12c6.6274,0 12,5.37258 12,12c0,6.6274 -5.3726,12 -12,12h-12c-6.62742,0 -12,-5.3726 -12,-12z" fill="#FF4E4E"/>
<path d="M36,24h-36v-24h36z" fill="#005DB5"/>
<path d="M36,21.3333h-36v-2.6666h36zM36,16h-36v-2.6667h5.33333v-5.3333h-5.33333v-2.66667h5.33333v-5.33333h2.66667v5.33333h5.3333v2.66667h22.6667v2.6667h-22.6667v-2.6667h-5.3333v5.3333h28zM36,5.33333h-22.6667v-2.66666h22.6667z" fill="white"/>
</g>
<defs>
<clipPath id="clip0_4050_17531">
<path d="M0,12c0,-6.62742 5.37258,-12 12,-12h12c6.6274,0 12,5.37258 12,12c0,6.6274 -5.3726,12 -12,12h-12c-6.62742,0 -12,-5.3726 -12,-12z" fill="white"/>
</clipPath>
</defs>
</svg>
