<svg width="24" height="24" viewBox="0 0 24 24" fill="none" xmlns="http://www.w3.org/2000/svg">
<path d="M10,14.75c0.6904,0 1.25,0.5596 1.25,1.25v3.5c0,0.6904 -0.5596,1.25 -1.25,1.25h-5.5c-0.69036,0 -1.25,-0.5596 -1.25,-1.25v-3.5c0,-0.6904 0.55964,-1.25 1.25,-1.25zM19.5,10.75c0.6904,0 1.25,0.5596 1.25,1.25v7.5c0,0.6904 -0.5596,1.25 -1.25,1.25h-5.5c-0.6904,0 -1.25,-0.5596 -1.25,-1.25v-7.5c0,-0.6904 0.5596,-1.25 1.25,-1.25zM4.75,19.25h5v-3h-5zM14.25,19.25h5v-7h-5zM10,3.25c0.6904,0 1.25,0.55964 1.25,1.25v7.5c0,0.6904 -0.5596,1.25 -1.25,1.25h-5.5c-0.69036,0 -1.25,-0.5596 -1.25,-1.25v-7.5c0,-0.69036 0.55964,-1.25 1.25,-1.25zM4.75,11.75h5v-7h-5zM19.5,3.25c0.6904,0 1.25,0.55964 1.25,1.25v3.5c0,0.69036 -0.5596,1.25 -1.25,1.25h-5.5c-0.6904,0 -1.25,-0.55964 -1.25,-1.25v-3.5c0,-0.69036 0.5596,-1.25 1.25,-1.25zM14.25,7.75h5v-3h-5z" fill="#002B51"/>
</svg>
