<svg width="24" height="24" viewBox="0 0 24 24" fill="none" xmlns="http://www.w3.org/2000/svg">
<path fill-rule="evenodd" clip-rule="evenodd" d="M4 3.25C3.58579 3.25 3.25 3.58579 3.25 4V12.5C3.25 12.9142 3.58579 13.25 4 13.25H10.5C10.9142 13.25 11.25 12.9142 11.25 12.5V4C11.25 3.58579 10.9142 3.25 10.5 3.25H4ZM4.75 11.75V4.75H9.75V11.75H4.75ZM4 14.75C3.58579 14.75 3.25 15.0858 3.25 15.5V20C3.25 20.4142 3.58579 20.75 4 20.75H10.5C10.9142 20.75 11.25 20.4142 11.25 20V15.5C11.25 15.0858 10.9142 14.75 10.5 14.75H4ZM4.75 19.25V16.25H9.75V19.25H4.75ZM12.75 4C12.75 3.58579 13.0858 3.25 13.5 3.25H20C20.4142 3.25 20.75 3.58579 20.75 4V8.5C20.75 8.91421 20.4142 9.25 20 9.25H13.5C13.0858 9.25 12.75 8.91421 12.75 8.5V4ZM14.25 4.75V7.75H19.25V4.75H14.25ZM13.5 10.75C13.0858 10.75 12.75 11.0858 12.75 11.5V20C12.75 20.4142 13.0858 20.75 13.5 20.75H20C20.4142 20.75 20.75 20.4142 20.75 20V11.5C20.75 11.0858 20.4142 10.75 20 10.75H13.5ZM14.25 19.25V12.25H19.25V19.25H14.25Z" fill="#002B51"/>
</svg>
