<svg width="24" height="24" viewBox="0 0 24 24" fill="none" xmlns="http://www.w3.org/2000/svg">
<path fill-rule="evenodd" clip-rule="evenodd" d="M10.5,3.25c0.4142,0 0.75,0.33579 0.75,0.75v6.5c0,0.4142 -0.3358,0.75 -0.75,0.75h-6.5c-0.41421,0 -0.75,-0.3358 -0.75,-0.75v-6.5c0,-0.41421 0.33579,-0.75 0.75,-0.75zM9.75,9.75v-5h-5v5zM10.5,12.75c0.4142,0 0.75,0.3358 0.75,0.75v6.5c0,0.4142 -0.3358,0.75 -0.75,0.75h-6.5c-0.41421,0 -0.75,-0.3358 -0.75,-0.75v-6.5c0,-0.4142 0.33579,-0.75 0.75,-0.75zM9.75,19.25v-5h-5v5zM12.75,4c0,-0.41421 0.3358,-0.75 0.75,-0.75h6.5c0.4142,0 0.75,0.33579 0.75,0.75v6.5c0,0.4142 -0.3358,0.75 -0.75,0.75h-6.5c-0.4142,0 -0.75,-0.3358 -0.75,-0.75zM14.25,4.75v5h5v-5zM20,12.75c0.4142,0 0.75,0.3358 0.75,0.75v6.5c0,0.4142 -0.3358,0.75 -0.75,0.75h-6.5c-0.4142,0 -0.75,-0.3358 -0.75,-0.75v-6.5c0,-0.4142 0.3358,-0.75 0.75,-0.75zM19.25,19.25v-5h-5v5z" fill="#002B51"/>
</svg>
