<svg width="24" height="24" viewBox="0 0 24 24" fill="none" xmlns="http://www.w3.org/2000/svg">
<path fill-rule="evenodd" clip-rule="evenodd" d="M9.75,4.75h-5v5h5zM4.5,11.25c-0.69036,0 -1.25,-0.5596 -1.25,-1.25v-5.5c0,-0.69036 0.55964,-1.25 1.25,-1.25h5.5c0.6904,0 1.25,0.55964 1.25,1.25v5.5c0,0.6904 -0.5596,1.25 -1.25,1.25zM9.75,14.25h-5v5h5zM4.5,20.75c-0.69036,0 -1.25,-0.5596 -1.25,-1.25v-5.5c0,-0.6904 0.55964,-1.25 1.25,-1.25h5.5c0.6904,0 1.25,0.5596 1.25,1.25v5.5c0,0.6904 -0.5596,1.25 -1.25,1.25zM14.25,9.75h5v-5h-5zM20.75,10c0,0.6904 -0.5596,1.25 -1.25,1.25h-5.5c-0.6904,0 -1.25,-0.5596 -1.25,-1.25v-5.5c0,-0.69036 0.5596,-1.25 1.25,-1.25h5.5c0.6904,0 1.25,0.55964 1.25,1.25zM19.25,14.25h-5v5h5zM14,20.75c-0.6904,0 -1.25,-0.5596 -1.25,-1.25v-5.5c0,-0.6904 0.5596,-1.25 1.25,-1.25h5.5c0.6904,0 1.25,0.5596 1.25,1.25v5.5c0,0.6904 -0.5596,1.25 -1.25,1.25z" fill="#002B51"/>
</svg>
