<svg width="24" height="24" viewBox="0 0 24 24" fill="none" xmlns="http://www.w3.org/2000/svg">
<path fill-rule="evenodd" clip-rule="evenodd" d="M10,3.25c0.6904,0 1.25,0.55964 1.25,1.25v7.5c0,0.6904 -0.5596,1.25 -1.25,1.25h-5.5c-0.69036,0 -1.25,-0.5596 -1.25,-1.25v-7.5c0,-0.69036 0.55964,-1.25 1.25,-1.25zM9.75,11.75v-7h-5v7zM10,14.75c0.6904,0 1.25,0.5596 1.25,1.25v3.5c0,0.6904 -0.5596,1.25 -1.25,1.25h-5.5c-0.69036,0 -1.25,-0.5596 -1.25,-1.25v-3.5c0,-0.6904 0.55964,-1.25 1.25,-1.25zM9.75,19.25v-3h-5v3zM12.75,4.5c0,-0.69036 0.5596,-1.25 1.25,-1.25h5.5c0.6904,0 1.25,0.55964 1.25,1.25v3.5c0,0.69036 -0.5596,1.25 -1.25,1.25h-5.5c-0.6904,0 -1.25,-0.55964 -1.25,-1.25zM14.25,4.75v3h5v-3zM19.5,10.75c0.6904,0 1.25,0.5596 1.25,1.25v7.5c0,0.6904 -0.5596,1.25 -1.25,1.25h-5.5c-0.6904,0 -1.25,-0.5596 -1.25,-1.25v-7.5c0,-0.6904 0.5596,-1.25 1.25,-1.25zM19.25,19.25v-7h-5v7z" fill="#002B51"/>
</svg>
