<svg width="24" height="24" viewBox="0 0 24 24" fill="none" xmlns="http://www.w3.org/2000/svg">
<path fill-rule="evenodd" clip-rule="evenodd" d="M10,3.25c0.6904,0 1.25,0.55964 1.25,1.25v5.5c0,0.6904 -0.5596,1.25 -1.25,1.25h-5.5c-0.69036,0 -1.25,-0.5596 -1.25,-1.25v-5.5c0,-0.69036 0.55964,-1.25 1.25,-1.25zM9.75,9.75v-5h-5v5zM10,12.75c0.6904,0 1.25,0.5596 1.25,1.25v5.5c0,0.6904 -0.5596,1.25 -1.25,1.25h-5.5c-0.69036,0 -1.25,-0.5596 -1.25,-1.25v-5.5c0,-0.6904 0.55964,-1.25 1.25,-1.25zM9.75,19.25v-5h-5v5zM12.75,4.5c0,-0.69036 0.5596,-1.25 1.25,-1.25h5.5c0.6904,0 1.25,0.55964 1.25,1.25v5.5c0,0.6904 -0.5596,1.25 -1.25,1.25h-5.5c-0.6904,0 -1.25,-0.5596 -1.25,-1.25zM14.25,4.75v5h5v-5zM19.5,12.75c0.6904,0 1.25,0.5596 1.25,1.25v5.5c0,0.6904 -0.5596,1.25 -1.25,1.25h-5.5c-0.6904,0 -1.25,-0.5596 -1.25,-1.25v-5.5c0,-0.6904 0.5596,-1.25 1.25,-1.25zM19.25,19.25v-5h-5v5z" fill="#002B51"/>
</svg>
