<svg width="24" height="24" viewBox="0 0 24 24" fill="none" xmlns="http://www.w3.org/2000/svg">
<path fill-rule="evenodd" clip-rule="evenodd" d="M4 3.25C3.58579 3.25 3.25 3.58579 3.25 4V10.5C3.25 10.9142 3.58579 11.25 4 11.25H10.5C10.9142 11.25 11.25 10.9142 11.25 10.5V4C11.25 3.58579 10.9142 3.25 10.5 3.25H4ZM4.75 9.75V4.75H9.75V9.75H4.75ZM4 12.75C3.58579 12.75 3.25 13.0858 3.25 13.5V20C3.25 20.4142 3.58579 20.75 4 20.75H10.5C10.9142 20.75 11.25 20.4142 11.25 20V13.5C11.25 13.0858 10.9142 12.75 10.5 12.75H4ZM4.75 19.25V14.25H9.75V19.25H4.75ZM12.75 4C12.75 3.58579 13.0858 3.25 13.5 3.25H20C20.4142 3.25 20.75 3.58579 20.75 4V10.5C20.75 10.9142 20.4142 11.25 20 11.25H13.5C13.0858 11.25 12.75 10.9142 12.75 10.5V4ZM14.25 4.75V9.75H19.25V4.75H14.25ZM13.5 12.75C13.0858 12.75 12.75 13.0858 12.75 13.5V20C12.75 20.4142 13.0858 20.75 13.5 20.75H20C20.4142 20.75 20.75 20.4142 20.75 20V13.5C20.75 13.0858 20.4142 12.75 20 12.75H13.5ZM14.25 19.25V14.25H19.25V19.25H14.25Z" fill="#002B51"/>
</svg>
