<svg width="24" height="24" viewBox="0 0 24 24" fill="none" xmlns="http://www.w3.org/2000/svg">
<path fill-rule="evenodd" clip-rule="evenodd" d="M11.25,12c0,0.6904 -0.5596,1.25 -1.25,1.25h-5.5c-0.69036,0 -1.25,-0.5596 -1.25,-1.25v-7.5c0,-0.69036 0.55964,-1.25 1.25,-1.25h5.5c0.6904,0 1.25,0.55964 1.25,1.25zM11.25,19.5c0,0.6904 -0.5596,1.25 -1.25,1.25h-5.5c-0.69036,0 -1.25,-0.5596 -1.25,-1.25v-3.5c0,-0.6904 0.55964,-1.25 1.25,-1.25h5.5c0.6904,0 1.25,0.5596 1.25,1.25zM14,9.25c-0.6904,0 -1.25,-0.55964 -1.25,-1.25v-3.5c0,-0.69036 0.5596,-1.25 1.25,-1.25h5.5c0.6904,0 1.25,0.55964 1.25,1.25v3.5c0,0.69036 -0.5596,1.25 -1.25,1.25zM20.75,19.5c0,0.6904 -0.5596,1.25 -1.25,1.25h-5.5c-0.6904,0 -1.25,-0.5596 -1.25,-1.25v-7.5c0,-0.6904 0.5596,-1.25 1.25,-1.25h5.5c0.6904,0 1.25,0.5596 1.25,1.25z" fill="#002B51"/>
</svg>
