<svg width="24" height="24" viewBox="0 0 24 24" fill="none" xmlns="http://www.w3.org/2000/svg">
<path fill-rule="evenodd" clip-rule="evenodd" d="M3.25,4c0,-0.41421 0.33579,-0.75 0.75,-0.75h6.5c0.4142,0 0.75,0.33579 0.75,0.75v8.5c0,0.4142 -0.3358,0.75 -0.75,0.75h-6.5c-0.41421,0 -0.75,-0.3358 -0.75,-0.75zM3.25,15.5c0,-0.4142 0.33579,-0.75 0.75,-0.75h6.5c0.4142,0 0.75,0.3358 0.75,0.75v4.5c0,0.4142 -0.3358,0.75 -0.75,0.75h-6.5c-0.41421,0 -0.75,-0.3358 -0.75,-0.75zM20,3.25c0.4142,0 0.75,0.33579 0.75,0.75v4.5c0,0.41421 -0.3358,0.75 -0.75,0.75h-6.5c-0.4142,0 -0.75,-0.33579 -0.75,-0.75v-4.5c0,-0.41421 0.3358,-0.75 0.75,-0.75zM12.75,11.5c0,-0.4142 0.3358,-0.75 0.75,-0.75h6.5c0.4142,0 0.75,0.3358 0.75,0.75v8.5c0,0.4142 -0.3358,0.75 -0.75,0.75h-6.5c-0.4142,0 -0.75,-0.3358 -0.75,-0.75z" fill="#002B51"/>
</svg>
