<svg width="24" height="24" viewBox="0 0 24 24" fill="none" xmlns="http://www.w3.org/2000/svg">
<path d="M12.9939,2.75c1.038,0.00013 1.9094,0.70411 2.1689,1.66016c-0.3253,0.12961 -0.6126,0.33364 -0.8427,0.58984h0.9238c0,-0.2044 -0.03,-0.40162 -0.0811,-0.58984c0.2572,-0.10237 0.5375,-0.16007 0.8311,-0.16016c1.203,0.00015 2.1821,0.94473 2.2432,2.13281c-0.5495,0.19662 -1.0002,0.6004 -1.2579,1.11719h1.2647v-1c0,-0.03938 -0.0048,-0.07831 -0.0068,-0.11719c0.2365,-0.0846 0.4912,-0.13273 0.7568,-0.13281c1.2424,0.00015 2.25,1.00733 2.25,2.25v6c0,3.7279 -3.0222,6.7499 -6.75,6.75h-1.9541c-2.73493,-0.0002 -5.31335,-1.2791 -6.96778,-3.457v-0.001l-2.69629,-3.5518l-0.00097,0.001c-0.78936,-1.0395 -0.60734,-2.521 0.41211,-3.3369h0.00097c1.00583,-0.8041 2.46642,-0.6738 3.31445,0.2949l1.14161,1.3047v0.665c0,-0.232 0.28628,-0.337 0.4375,-0.165l-0.4375,-0.5v-6.5039c0,-1.24241 1.00767,-2.24963 2.25,-2.25c0.357,0.00004 0.6943,0.08538 0.9941,0.2334c-0.155,0.30546 -0.2441,0.65057 -0.2441,1.0166v1c0,-0.41406 -0.3357,-0.74995 -0.75,-0.75c-0.4139,0.00037 -0.75,0.33601 -0.75,0.75v7.1689c0,1.1556 -1.43226,1.6908 -2.19141,0.8233l-1.5791,-1.8047c-0.31977,-0.3652 -0.87017,-0.4143 -1.24902,-0.1113c-0.35957,0.288 -0.44299,0.7963 -0.20704,1.1816l0.05176,0.0752v0.001l2.69629,3.5508c1.37072,1.8046 3.50812,2.865 5.77442,2.8652h1.9541c2.8994,-0.0001 5.25,-2.3506 5.25,-5.25v-6c0,-0.41406 -0.3357,-0.74995 -0.75,-0.75c-0.3835,0.00034 -0.6997,0.28852 -0.7441,0.66016v3.08984c0,0.4142 -0.3358,0.75 -0.75,0.75c-0.4141,-0.0001 -0.75,-0.3359 -0.75,-0.75v-2.91113c-0.0035,-0.02915 -0.0059,-0.05879 -0.0059,-0.08887h0.0059v-0.13672c-0.0028,0.04525 -0.0059,0.09078 -0.0059,0.13672v-2c0,-0.41406 -0.3357,-0.74995 -0.75,-0.75c-0.3835,0.00034 -0.6997,0.28852 -0.7441,0.66016v5.08984c0,0.4142 -0.3358,0.75 -0.75,0.75c-0.4141,-0.0001 -0.75,-0.3359 -0.75,-0.75v-4.91113c-0.0035,-0.02915 -0.0059,-0.05879 -0.0059,-0.08887h0.0059v-0.15137c-0.0034,0.05003 -0.0059,0.10049 -0.0059,0.15137v-1.5c0,-0.41406 -0.3357,-0.74995 -0.75,-0.75c-0.4139,0.00037 -0.75,0.33601 -0.75,0.75h0.0059v6.5l-0.004,0.0771c-0.0386,0.378 -0.3579,0.6729 -0.746,0.6729c-0.4141,-0.0001 -0.75,-0.3359 -0.75,-0.75v-5.41113c-0.0035,-0.02915 -0.0059,-0.05879 -0.0059,-0.08887h0.0059v-1h1.2578c-0.2197,-0.43998 -0.5782,-0.79863 -1.0196,-1.0166c0.3714,-0.73129 1.1296,-1.23314 2.0059,-1.2334z" fill="#002B51"/>
</svg>
