<svg width="24" height="24" viewBox="0 0 24 24" fill="none" xmlns="http://www.w3.org/2000/svg">
<path d="M18.9864,2.75c1.2424,0.00015 2.25,1.00733 2.25,2.25v7c0,0.0841 -0.0076,0.1626 -0.0156,0.2334c-0.0035,-0.0347 -0.0059,-0.0684 -0.0098,-0.0996l-0.7441,0.0937l0.7412,0.1133c0.005,-0.0331 0.0084,-0.0693 0.0127,-0.1074c0.0081,0.0812 0.0156,0.1711 0.0156,0.2666v2c0,3.7279 -3.0222,6.7499 -6.75,6.75h-1.9541c-2.73529,-0.0001 -5.31424,-1.2787 -6.96876,-3.457v-0.001l-2.69629,-3.5518l-0.00098,0.001c-0.78957,-1.0396 -0.60669,-2.521 0.41309,-3.3369c1.00592,-0.8045 2.46732,-0.6741 3.31543,0.2949l1.1416,1.3047v0.665c0,-0.2321 0.28634,-0.3374 0.4375,-0.165l-0.4375,-0.5v-0.0039c0,-0.1793 0.0197,-0.3526 0.05371,-0.5186c0.01712,0.0778 0.03684,0.1543 0.06152,0.2286l0.71192,-0.2364l-0.71973,-0.2109c-0.02089,0.0713 -0.03847,0.1444 -0.05371,0.2187c-0.03404,-0.1546 -0.05371,-0.3155 -0.05371,-0.4814v-2c0,-1.24258 1.00744,-2.24991 2.25,-2.25c0.57661,0.00007 1.10181,0.21838 1.50001,0.5752c-0.4596,0.41195 -0.75,1.00902 -0.75,1.6748c0,-0.38834 -0.2954,-0.70785 -0.6738,-0.74609l-0.07621,-0.00391c-0.41413,0.00009 -0.75,0.33584 -0.75,0.75v2c0,0.0817 0.0138,0.1614 0.03906,0.2373c0.04807,0.1448 0.05072,0.3009 0.00781,0.4473c-0.03083,0.1052 -0.04687,0.2104 -0.04687,0.3154v0.6689c0,1.1556 -1.43224,1.6907 -2.19141,0.8233l-1.5791,-1.8047c-0.31973,-0.3653 -0.87011,-0.4143 -1.24902,-0.1113c-0.35989,0.288 -0.44323,0.7961 -0.20703,1.1816l0.05175,0.0752v0.001l2.69629,3.5508c1.37082,1.8048 3.50793,2.8651 5.77443,2.8652h1.9541c2.8994,-0.0001 5.25,-2.3506 5.25,-5.25v-2c0,-0.0486 -0.0044,-0.1049 -0.0137,-0.1787c-0.0086,-0.0686 -0.0075,-0.1387 0.0029,-0.207c0.0082,-0.0538 0.0108,-0.0887 0.0108,-0.1143v-7c0,-0.38834 -0.2954,-0.70785 -0.6738,-0.74609l-0.0762,-0.00391c-0.4141,0.00009 -0.75,0.33584 -0.75,0.75v4.5c0,-0.97937 -0.6266,-1.80999 -1.5,-2.11914v-2.38086c0,-1.24258 1.0074,-2.24991 2.25,-2.25zM12.2501,11.5l-0.0039,0.0771c-0.0387,0.378 -0.358,0.6729 -0.7461,0.6729c-0.4143,0 -0.75,-0.3358 -0.75,-0.75v-1.86133c-0.0085,-0.04498 -0.0137,-0.09124 -0.0137,-0.13867h1.5137zM15.9864,7.25c0.2632,0.00003 0.5152,0.04777 0.75,0.13086v2.11914c0,-0.38834 -0.2954,-0.70785 -0.6738,-0.74609l-0.0762,-0.00391c-0.3657,0.00008 -0.6701,0.26196 -0.7363,0.6084v2.1416c0,0.4142 -0.3359,0.75 -0.75,0.75c-0.4143,0 -0.75,-0.3358 -0.75,-0.75v-1.86133c-0.0085,-0.04498 -0.0137,-0.09124 -0.0137,-0.13867h0.0137v-0.24609c-0.0089,0.08081 -0.0137,0.1629 -0.0137,0.24609c0,-0.38834 -0.2954,-0.70785 -0.6738,-0.74609l-0.0762,-0.00391c-0.4141,0.00009 -0.75,0.33584 -0.75,0.75c0,-0.66585 -0.2903,-1.26287 -0.75,-1.6748c0.3982,-0.35686 0.9232,-0.57516 1.5,-0.5752c0.5766,0.00007 1.1018,0.21838 1.5,0.5752c-0.3409,0.30555 -0.5881,0.71308 -0.6934,1.1748h1.3867c-0.1052,-0.46174 -0.3524,-0.86927 -0.6933,-1.1748c0.3982,-0.35686 0.9232,-0.57516 1.5,-0.5752zM18.2501,9.5v2l-0.0039,0.0771c-0.0387,0.378 -0.358,0.6729 -0.7461,0.6729c-0.3882,0 -0.7075,-0.2949 -0.7461,-0.6729l-0.0039,-0.0771v-1.86133c-0.0085,-0.04498 -0.0137,-0.09124 -0.0137,-0.13867z" fill="#002B51"/>
</svg>
