<svg width="24" height="24" viewBox="0 0 24 24" fill="none" xmlns="http://www.w3.org/2000/svg">
<path fill-rule="evenodd" clip-rule="evenodd" d="M5.4748,12.1875c-0.31974,-0.3654 -0.87107,-0.4144 -1.25,-0.1113c-0.38354,0.3072 -0.4526,0.8649 -0.15528,1.2568v0.001l2.69629,3.5508h0.00098c1.37085,1.8048 3.50781,2.8652 5.77441,2.8652h1.9541c2.8993,-0.0003 5.25,-2.3507 5.25,-5.25v-5c0,-0.41394 -0.3359,-0.74975 -0.75,-0.75c-0.3856,0 -0.7038,0.29167 -0.7451,0.66602l-0.004,0.08398h0.0038v2l-0.0039,0.0771c-0.0386,0.378 -0.3579,0.6729 -0.7461,0.6729c-0.3882,0 -0.7075,-0.2949 -0.7461,-0.6729l-0.0039,-0.0771v-1.91562c-0.0031,-0.02771 -0.0047,-0.05586 -0.0047,-0.08438c0,-0.41394 -0.3359,-0.74975 -0.75,-0.75c-0.3856,0 -0.7033,0.29108 -0.7453,0.6655v2.0845c0,0.4142 -0.3358,0.75 -0.75,0.75c-0.4142,0 -0.75,-0.3358 -0.75,-0.75v-1.91562c-0.0031,-0.0277 -0.0047,-0.05585 -0.0047,-0.08438c0,-0.41394 -0.3359,-0.74975 -0.75,-0.75c-0.3856,0 -0.7033,0.29108 -0.7453,0.6655v2.0845l-0.0039,0.0771c-0.0386,0.378 -0.3579,0.6729 -0.7461,0.6729c-0.4142,0 -0.75,-0.3358 -0.75,-0.75v-1.91562c-0.0031,-0.0277 -0.0047,-0.05585 -0.0047,-0.08438v-4.5c0,-0.41393 -0.3359,-0.74974 -0.74999,-0.75c-0.41422,0 -0.75,0.33579 -0.75,0.75v7c0,0.0359 0.0028,0.0753 0.00976,0.1191c0.01175,0.0739 0.01246,0.1496 0.00195,0.2237c-0.00813,0.0573 -0.01171,0.1092 -0.01171,0.1572v0.6689c0,1.1555 -1.4322,1.6905 -2.19141,0.8233zM14.4943,7.82617c0.3983,-0.35734 0.9238,-0.57617 1.501,-0.57617c0.5759,0.00012 1.1001,0.21815 1.4981,0.57422c0.3981,-0.35716 0.9247,-0.57422 1.5019,-0.57422c1.2423,0.00026 2.25,1.0074 2.25,2.25v5c0,3.7278 -3.0223,6.7497 -6.75,6.75h-1.9541c-2.73527,0 -5.31419,-1.2788 -6.96875,-3.457v-0.001l-2.69629,-3.5518l-0.00097,0.001c-0.78966,-1.0396 -0.6068,-2.521 0.41308,-3.3369l0.19336,-0.1397c0.99257,-0.6452 2.32693,-0.4741 3.12207,0.4346l1.14161,1.3047v-0.0039c0,-0.0912 0.0059,-0.1789 0.01464,-0.2627c-0.00826,-0.076 -0.01464,-0.1551 -0.01464,-0.2373v-7c0,-1.24264 1.00735,-2.25 2.25,-2.25c1.24229,0.00026 2.24999,1.0074 2.24999,2.25v2.38086c0.2348,-0.08306 0.4868,-0.13086 0.75,-0.13086c0.5767,0.00012 1.1009,0.21929 1.499,0.57617z" fill="#002B51"/>
</svg>
