<svg width="24" height="24" viewBox="0 0 24 24" fill="none" xmlns="http://www.w3.org/2000/svg">
<path fill-rule="evenodd" clip-rule="evenodd" d="M15.25,9.3682v2.1318c0,0.4142 -0.3358,0.75 -0.75,0.75c-0.4142,0 -0.75,-0.3358 -0.75,-0.75v-1.86835c-0.0076,-0.04275 -0.0115,-0.08674 -0.0115,-0.13165c0,-0.41406 -0.3357,-0.74995 -0.75,-0.75c-0.3691,0.00021 -0.6762,0.26696 -0.7385,0.6182v2.1318l-0.0039,0.0771c-0.0386,0.378 -0.3579,0.6729 -0.7461,0.6729c-0.4142,0 -0.75,-0.3358 -0.75,-0.75v-1.86835c-0.0076,-0.04275 -0.0115,-0.08674 -0.0115,-0.13165v-4.5c0,-0.41406 -0.3357,-0.74995 -0.75003,-0.75c-0.41401,0.00024 -0.75,0.33593 -0.75,0.75v7c0,0.0359 0.00378,0.0753 0.01074,0.1191c0.01175,0.0739 0.01246,0.1496 0.00195,0.2237c-0.00813,0.0573 -0.01269,0.1092 -0.01269,0.1572v0.6689c0,1.1556 -1.43226,1.6909 -2.19141,0.8233l-1.5791,-1.8047c-0.31975,-0.3653 -0.87011,-0.4144 -1.24902,-0.1113c-0.38372,0.3072 -0.45274,0.8648 -0.15528,1.2568v0.001l2.69629,3.5508h0.00098c1.37077,1.8047 3.50707,2.8651 5.77347,2.8652h1.9541c2.8994,-0.0001 5.25,-2.3506 5.25,-5.25v-2c0,-0.0486 -0.0045,-0.1049 -0.0137,-0.1787c-0.0086,-0.0686 -0.0075,-0.1387 0.0029,-0.207c0.0082,-0.0538 0.0108,-0.0887 0.0108,-0.1143v-7c0,-0.41406 -0.3357,-0.74995 -0.75,-0.75c-0.414,0.00024 -0.75,0.33593 -0.75,0.75v2.5h0.0115v4c0,0.4142 -0.3358,0.75 -0.75,0.75c-0.4142,0 -0.75,-0.3358 -0.75,-0.75v-1.86835c-0.0076,-0.04275 -0.0115,-0.08674 -0.0115,-0.13165c0,-0.41406 -0.3357,-0.74995 -0.75,-0.75c-0.3691,0.00021 -0.6762,0.26696 -0.7385,0.6182zM21.2385,12.5v2c0,3.7279 -3.0222,6.7499 -6.75,6.75h-1.9541c-2.7351,-0.0001 -5.31333,-1.279 -6.96781,-3.457v-0.001l-2.69628,-3.5518l-0.00098,0.001c-0.78966,-1.0396 -0.6068,-2.521 0.41308,-3.3369c1.00587,-0.8043 2.4664,-0.6739 3.31446,0.2949l1.1416,1.3047v-0.0039c0,-0.0894 0.00621,-0.1755 0.01465,-0.2578c-0.00858,-0.0775 -0.01465,-0.1583 -0.01465,-0.2422v-7c0,-1.2425 1.00756,-2.24976 2.25,-2.25h0.00098c1.24215,0.00039 2.24905,1.00748 2.24905,2.25v2.38086c0.2348,-0.08316 0.4867,-0.13081 0.75,-0.13086h0.0009c0.5767,0.00018 1.1009,0.21927 1.4991,0.57617c0.3982,-0.35718 0.923,-0.57606 1.5,-0.57617h0.0009c0.2629,0.00008 0.5146,0.04697 0.7491,0.12988v-2.37988c0,-1.2425 1.0075,-2.24976 2.25,-2.25h0.0009c1.2422,0.00039 2.2491,1.00748 2.2491,2.25v7c0,0.0856 -0.0064,0.1655 -0.0147,0.2373c0.0079,0.0802 0.0147,0.1687 0.0147,0.2627z" fill="#002B51"/>
</svg>
