<svg width="24" height="24" viewBox="0 0 24 24" fill="none" xmlns="http://www.w3.org/2000/svg">
<path fill-rule="evenodd" clip-rule="evenodd" d="M7.05781,13.9922l-1.57911,-1.8047c-0.29977,-0.3426 -0.80284,-0.4071 -1.17675,-0.1641l-0.07325,0.0528c-0.35965,0.288 -0.44305,0.7962 -0.20703,1.1816l0.05176,0.0752v0.001l2.69629,3.5508h0.00098c1.37085,1.8048 3.5079,2.8652 5.7744,2.8652h1.9541l0.2695,-0.0068c2.774,-0.1406 4.9805,-2.4343 4.9805,-5.2432v-5c0,-0.41406 -0.3367,-0.74995 -0.751,-0.75c-0.385,0.00027 -0.7024,0.29134 -0.7441,0.66504l-0.0041,0.086v1.99896l-0.0039,0.0771c-0.0386,0.378 -0.3579,0.6729 -0.7461,0.6729c-0.3882,0 -0.7075,-0.2949 -0.7461,-0.6729l-0.0039,-0.0771v-1.96531c-0.0005,-0.0115 -0.0008,-0.02307 -0.0008,-0.03469c0,-0.41406 -0.3367,-0.74995 -0.751,-0.75c-0.385,0.00027 -0.7024,0.29134 -0.7441,0.66504l-0.0041,0.086v1.99896c0,0.4142 -0.3358,0.75 -0.75,0.75c-0.4142,0 -0.75,-0.3358 -0.75,-0.75v-1.96531c-0.0005,-0.0115 -0.0008,-0.02307 -0.0008,-0.03469c0,-0.41406 -0.3367,-0.74995 -0.751,-0.75c-0.3879,0.00028 -0.7065,0.29508 -0.7451,0.67285l-0.0031,0.06159v2.01556l-0.0039,0.0771c-0.0386,0.378 -0.3579,0.6729 -0.7461,0.6729c-0.3882,0 -0.7075,-0.2949 -0.7461,-0.6729l-0.0039,-0.0771v-1.96532c-0.0005,-0.01149 -0.0008,-0.02306 -0.0008,-0.03468v-4.5c0,-0.41406 -0.3367,-0.74995 -0.75097,-0.75c-0.41396,0.00029 -0.74902,0.33597 -0.74902,0.75v7c0,0.0359 0.0028,0.0753 0.00977,0.1191c0.01175,0.0739 0.01246,0.1496 0.00195,0.2237c-0.00813,0.0573 -0.01172,0.1092 -0.01172,0.1572v0.6689c0,1.1196 -1.34498,1.6569 -2.11914,0.9004zM13.2287,7.26172c0.4855,0.04932 0.9241,0.25432 1.2686,0.5625c0.3981,-0.35712 0.9248,-0.57422 1.5019,-0.57422l0.2295,0.01172c0.4855,0.04932 0.9241,0.25432 1.2686,0.5625c0.3981,-0.35712 0.9248,-0.57422 1.5019,-0.57422l0.2295,0.01172c1.1345,0.11525 2.0205,1.07322 2.0205,2.23828v5c0,3.6115 -2.8368,6.5605 -6.4033,6.7412l-0.3467,0.0088h-1.9541c-2.73524,0 -5.31418,-1.2788 -6.96874,-3.457v-0.001l-2.69629,-3.5518l-0.00098,0.001c-0.78965,-1.0396 -0.6068,-2.521 0.41309,-3.3369l0.19336,-0.1397c0.99255,-0.6452 2.32695,-0.4741 3.12207,0.4346l1.1416,1.3047v-0.0039c0,-0.0912 0.00591,-0.1789 0.01465,-0.2627c-0.00826,-0.076 -0.01465,-0.1551 -0.01465,-0.2373v-7c0,-1.24264 1.00736,-2.25 2.25,-2.25l0.22949,0.01172c1.1345,0.11525 2.0205,1.07322 2.0205,2.23828v2.37988c0.2347,-0.08296 0.487,-0.12988 0.75,-0.12988z" fill="#002B51"/>
</svg>
