<svg width="24" height="24" viewBox="0 0 24 24" fill="none" xmlns="http://www.w3.org/2000/svg">
<path fill-rule="evenodd" clip-rule="evenodd" d="M15.25,4v3.37803c0.2346,-0.08291 0.487,-0.12803 0.75,-0.12803c0.5763,0 1.1019,0.21664 1.5,0.57292c0.3981,-0.35628 0.9237,-0.57292 1.5,-0.57292c1.2426,0 2.25,1.00736 2.25,2.25v2.9959v0v0.0002v0.0008v0.0031v2c0,3.7279 -3.0221,6.75 -6.75,6.75h-1.9541c-2.73539,0 -5.31343,-1.2792 -6.96795,-3.4576l-2.69782,-3.5519l0.59169,-0.4494l-0.59169,0.4494c-0.78982,-1.0399 -0.6065,-2.5199 0.41318,-3.3356l0.46852,0.5856l-0.46852,-0.5856c1.00588,-0.8047 2.467,-0.6749 3.31526,0.2945l1.14143,1.3045v-0.0009l-0.00001,-0.003v-3c0,-1.24264 1.00736,-2.25 2.25,-2.25c0.26301,0 0.51541,0.04512 0.75001,0.12803v-3.37803c0,-1.24264 1.0074,-2.25 2.25,-2.25c1.2426,0 2.25,1.00736 2.25,2.25zM12.25,4v5.5v2c0,0.4142 -0.3358,0.75 -0.75,0.75c-0.4142,0 -0.75,-0.3358 -0.75,-0.75v-1.99829v-0.00171c0,-0.41421 -0.3358,-0.75 -0.75001,-0.75c-0.41421,0 -0.75,0.33579 -0.75,0.75v3l0.00001,0.0015v0.0015v0.6663c0,1.1542 -1.43067,1.6917 -2.19072,0.8231l-1.57957,-1.8052c-0.31967,-0.3653 -0.87029,-0.4143 -1.24936,-0.111c-0.38426,0.3074 -0.45335,0.8651 -0.1557,1.257l2.69782,3.5519c1.37088,1.805 3.50693,2.8649 5.77343,2.8649h1.9541c2.8995,0 5.25,-2.3505 5.25,-5.25v-2v-0.0001v-0.0002v-0.0007v-0.0031v-2.9959c0,-0.41421 -0.3358,-0.75 -0.75,-0.75c-0.4142,0 -0.75,0.33579 -0.75,0.75v2c0,0.4142 -0.3358,0.75 -0.75,0.75c-0.4142,0 -0.75,-0.3358 -0.75,-0.75v-1.99829c0,-0.00057 0,-0.00114 0,-0.00171c0,-0.41421 -0.3358,-0.75 -0.75,-0.75c-0.4137,0 -0.7491,0.33486 -0.75,0.74829v2.00171c0,0.4142 -0.3358,0.75 -0.75,0.75c-0.4142,0 -0.75,-0.3358 -0.75,-0.75v-1.99829v-0.00171v-5.5c0,-0.41421 -0.3358,-0.75 -0.75,-0.75c-0.4142,0 -0.75,0.33579 -0.75,0.75z" fill="#002B51"/>
</svg>
