<svg width="24" height="24" viewBox="0 0 24 24" fill="none" xmlns="http://www.w3.org/2000/svg">
<path d="M13.2297,1.76172c1.1342,0.11548 2.0195,1.07339 2.0195,2.23828v3.38086c0.2348,-0.08312 0.4867,-0.13085 0.75,-0.13086l0.2305,0.01172c0.4853,0.04942 0.9232,0.25529 1.2675,0.56348c0.3982,-0.3575 0.9245,-0.57518 1.502,-0.5752l0.2305,0.01172c1.1342,0.11548 2.0195,1.07339 2.0195,2.23828v5c0,3.6113 -2.8361,6.5602 -6.4024,6.7412l-0.3476,0.0088h-1.9541c-2.73533,0 -5.31422,-1.2787 -6.96876,-3.457v-0.001l-2.69629,-3.5518l-0.00098,0.001c-0.78963,-1.0396 -0.60676,-2.521 0.41309,-3.3369l0.19433,-0.1397c0.99246,-0.6448 2.32606,-0.4738 3.1211,0.4346l1.1416,1.3047v-3.0039c0,-1.24262 1.00739,-2.24996 2.25,-2.25l0.23051,0.01172c0.1806,0.01839 0.3541,0.06058 0.5195,0.11914v-3.38086c0,-1.24262 1.0074,-2.24996 2.25,-2.25zM12.9992,3.25c-0.4142,0.00004 -0.75,0.33581 -0.75,0.75v5.5h0.001v2l-0.0039,0.0771c-0.0387,0.378 -0.358,0.6728 -0.7461,0.6729c-0.3882,0 -0.7075,-0.2949 -0.7461,-0.6729l-0.0039,-0.0771v-1.98145l-0.001,-0.01855l-0.0039,-0.07617c-0.0357,-0.35325 -0.3165,-0.63421 -0.6699,-0.66992l-0.07621,-0.00391c-0.41418,0.00004 -0.75,0.33581 -0.75,0.75v3.6689c0,1.1195 -1.34396,1.6565 -2.11817,0.9004l-0.07324,-0.0771l-1.5791,-1.8047c-0.29986,-0.3427 -0.80282,-0.4074 -1.17676,-0.1641l-0.07226,0.0528c-0.35996,0.288 -0.44328,0.7961 -0.20703,1.1816l0.05175,0.0752v0.001l2.69629,3.5508h0.00098c1.37084,1.8048 3.50695,2.8652 5.77345,2.8652h1.9541l0.2705,-0.0068c2.7737,-0.1409 4.9795,-2.4345 4.9795,-5.2432v-5c0,-0.38834 -0.2954,-0.70785 -0.6738,-0.74609l-0.0762,-0.00391c-0.3856,0.00003 -0.7038,0.29168 -0.7451,0.66602l-0.0039,0.08398v2l-0.0039,0.0771c-0.0387,0.378 -0.358,0.6728 -0.7461,0.6729c-0.3882,0 -0.7075,-0.2949 -0.7461,-0.6729l-0.0039,-0.0771v-1.99023c-0.0001,-0.00326 -0.001,-0.00651 -0.001,-0.00977c0,-0.38834 -0.2954,-0.70785 -0.6738,-0.74609l-0.0762,-0.00391c-0.3881,0.00004 -0.7075,0.2949 -0.7461,0.67285l-0.0029,0.05762v2.01953c0,0.4142 -0.3359,0.7499 -0.75,0.75c-0.4142,0 -0.75,-0.3358 -0.75,-0.75v-1.98145c-0.0002,-0.00617 -0.001,-0.01234 -0.001,-0.01855v-5.5c0,-0.38834 -0.2954,-0.70785 -0.6738,-0.74609z" fill="#002B51"/>
</svg>
