<svg width="24" height="24" viewBox="0 0 24 24" fill="none" xmlns="http://www.w3.org/2000/svg">
<path d="M18.9942,7.25c1.2423,0.00024 2.25,1.00738 2.25,2.25v5c0,3.7278 -3.0223,6.7498 -6.75,6.75h-1.9541c-2.73523,0 -5.31422,-1.2788 -6.96875,-3.457v-0.001l-2.69629,-3.5518l-0.00098,0.001c-0.78957,-1.0396 -0.6067,-2.521 0.41309,-3.3369c1.00597,-0.8045 2.46736,-0.6742 3.31543,0.2949l1.1416,1.3047v0.665c0,-0.2321 0.28638,-0.3376 0.4375,-0.165l-0.4375,-0.5v-3.0039c0,-1.24259 1.00743,-2.24992 2.25,-2.25c0.2632,0.00005 0.5152,0.04773 0.75,0.13086v2.11914l-0.0039,-0.07617c-0.0382,-0.3782 -0.3577,-0.67361 -0.7461,-0.67383c-0.41415,0.00008 -0.75,0.33583 -0.75,0.75v3.6689c0,1.1555 -1.4322,1.6905 -2.1914,0.8233l-1.57911,-1.8047c-0.31971,-0.3653 -0.87109,-0.4152 -1.25,-0.1123v0.001c-0.38341,0.3072 -0.45249,0.8649 -0.15527,1.2568v0.001l2.69629,3.5508h0.00098c1.37082,1.8048 3.50791,2.8652 5.77441,2.8652h1.9541c2.8993,-0.0002 5.25,-2.3507 5.25,-5.25v-5c0,-0.41394 -0.3359,-0.74976 -0.75,-0.75c-0.3855,0.00007 -0.7038,0.29172 -0.7451,0.66602l0.0019,-0.03125l-0.0136,-0.00098c-0.0316,-0.61964 -0.3116,-1.17173 -0.7452,-1.55957c0.3982,-0.35714 0.9249,-0.57418 1.502,-0.57422zM12.2501,11.5l-0.0039,0.0771c-0.0387,0.378 -0.358,0.6729 -0.7461,0.6729c-0.4143,0 -0.75,-0.3358 -0.75,-0.75v-1.91309c-0.0004,-0.00327 -0.0017,-0.00647 -0.002,-0.00976l-0.0039,-0.07715h1.5059zM12.9942,1.75c1.2423,0.00024 2.25,1.00738 2.25,2.25v3.38086c-0.7201,0.25482 -1.2716,0.86428 -1.4434,1.61914h1.4434v-1.61914c0.2347,-0.08305 0.4868,-0.13084 0.75,-0.13086c0.5759,0.00011 1.1001,0.21819 1.498,0.57422c-0.4056,0.36394 -0.678,0.87343 -0.7363,1.44629l-0.0029,0.03808l-0.0078,0.15332l0.749,0.03809h0.75c0,-0.02619 -0.004,-0.05216 -0.0049,-0.07812l0.0088,0.00097c0.0002,-0.00216 0.0007,-0.00468 0.001,-0.00683l-0.0039,0.08398h0.0049v2l-0.0039,0.0771c-0.0387,0.378 -0.358,0.6729 -0.7461,0.6729c-0.3882,0 -0.7075,-0.2949 -0.7461,-0.6729l-0.0039,-0.0771v-1.94141c-0.0015,-0.01942 -0.0059,-0.03879 -0.0059,-0.05859c0,-0.41394 -0.3359,-0.74976 -0.75,-0.75c-0.3837,0.00007 -0.6997,0.28837 -0.7441,0.66016v2.08984c0,0.4142 -0.3358,0.75 -0.75,0.75c-0.4143,0 -0.75,-0.3358 -0.75,-0.75v-1.91309c-0.0033,-0.02854 -0.0059,-0.05748 -0.0059,-0.08691h0.0059v-0.13672c-0.0028,0.04525 -0.0059,0.09077 -0.0059,0.13672v-5.5c0,-0.41394 -0.3359,-0.74976 -0.75,-0.75c-0.4141,0.00008 -0.75,0.33583 -0.75,0.75v5.5c0,-0.97927 -0.6268,-1.80992 -1.5,-2.11914v-3.38086c0,-1.24259 1.0074,-2.24992 2.25,-2.25zM18.2374,9.38379c0.0006,0.01269 0.0015,0.02534 0.0019,0.03809l-0.7373,-0.0752z" fill="#002B51"/>
</svg>
