<svg width="24" height="24" viewBox="0 0 24 24" fill="none" xmlns="http://www.w3.org/2000/svg">
<path fill-rule="evenodd" clip-rule="evenodd" d="M12.25,6v0.00121v5.49879c0,0.4142 -0.3358,0.75 -0.75,0.75c-0.4142,0 -0.75,-0.3358 -0.75,-0.75v-5.5v-0.00121c-0.0007,-0.41366 -0.3362,-0.74879 -0.75,-0.74879c-0.41422,0 -0.75,0.33579 -0.75,0.75v6.5v0.5v0.1693c0,1.1542 -1.43067,1.6917 -2.19072,0.8231l-1.57957,-1.8052c-0.31967,-0.3653 -0.87029,-0.4143 -1.24936,-0.111c-0.38426,0.3074 -0.45335,0.8651 -0.1557,1.257l2.69782,3.5519c1.37088,1.805 3.50693,2.8649 5.77343,2.8649h1.9541c2.8995,0 5.25,-2.3505 5.25,-5.25v-0.5v-1.5v-4c0,-0.41421 -0.3358,-0.75 -0.75,-0.75c-0.4142,0 -0.75,0.33579 -0.75,0.75c0,0.0004 0,0.00081 0,0.00121v2.99879c0,0.4142 -0.3358,0.75 -0.75,0.75c-0.4142,0 -0.75,-0.3358 -0.75,-0.75v-3v-1v-1c0,-0.41421 -0.3358,-0.75 -0.75,-0.75c-0.4142,0 -0.75,0.33579 -0.75,0.75v0.00121v4.99879c0,0.4142 -0.3358,0.75 -0.75,0.75c-0.4142,0 -0.75,-0.3358 -0.75,-0.75v-5v-1.5c0,-0.41421 -0.3358,-0.75 -0.75,-0.75c-0.4142,0 -0.75,0.33579 -0.75,0.75zM18.2468,6.37916c0.2355,-0.08363 0.489,-0.12916 0.7532,-0.12916c1.2426,0 2.25,1.00736 2.25,2.25v4v1.5v0.5c0,3.7279 -3.0221,6.75 -6.75,6.75h-1.9541c-2.73539,0 -5.31343,-1.2792 -6.96795,-3.4576l-2.69782,-3.5519l0.59169,-0.4494l-0.59169,0.4494c-0.78982,-1.0399 -0.6065,-2.5199 0.41318,-3.3356c1.00588,-0.8047 2.467,-0.6749 3.31526,0.2945l1.14143,1.3045v-0.0039v-6.5c0,-1.24264 1.00736,-2.25 2.25,-2.25c0.3567,0 0.6939,0.08299 0.9936,0.23071c0.3718,-0.73039 1.1307,-1.23071 2.0064,-1.23071c1.0376,0 1.9112,0.70235 2.1712,1.65757c0.2565,-0.10168 0.5361,-0.15757 0.8288,-0.15757c1.2021,0 2.184,0.9427 2.2468,2.12916z" fill="#002B51"/>
</svg>
