<svg width="24" height="24" viewBox="0 0 24 24" fill="none" xmlns="http://www.w3.org/2000/svg">
<path d="M9.9939,2.75c1.2424,0.00015 2.25,1.00733 2.25,2.25v2.38086c-0.0941,0.03333 -0.1846,0.07417 -0.2725,0.11914h0.2725v-0.11914c0.2347,-0.08309 0.4869,-0.13078 0.75,-0.13086c0.5767,0.00007 1.1018,0.21925 1.5,0.57617c-0.3405,0.30549 -0.588,0.71258 -0.6934,1.17383h1.3877c-0.1053,-0.46141 -0.3535,-0.86832 -0.6943,-1.17383c0.3981,-0.35706 0.9232,-0.576 1.5,-0.57617c0.576,0.00007 1.1,0.21911 1.498,0.5752c-0.4051,0.36389 -0.6781,0.87287 -0.7363,1.44531l-0.0029,0.03808l-0.0078,0.15332l0.749,0.03809h0.75c0,-0.02619 -0.004,-0.05215 -0.0049,-0.07812l0.0088,0.00097c0.0002,-0.00213 0.0007,-0.0047 0.001,-0.00683l-0.0039,0.08398h0.0049v2l-0.004,0.0771c-0.0386,0.378 -0.3579,0.6729 -0.746,0.6729c-0.3881,-0.0001 -0.7075,-0.295 -0.7461,-0.6729l-0.0039,-0.0771v-1.94434c-0.0014,-0.01846 -0.0059,-0.03686 -0.0059,-0.05566c0,-0.41406 -0.3357,-0.74995 -0.75,-0.75c-0.3835,0.00034 -0.6997,0.28852 -0.7441,0.66016v2.08984c0,0.4142 -0.3358,0.75 -0.75,0.75c-0.4141,-0.0001 -0.75,-0.3359 -0.75,-0.75v-1.91113c-0.0035,-0.02915 -0.0059,-0.05879 -0.0059,-0.08887h0.0059v-0.10547c-0.0017,0.035 -0.0059,0.07007 -0.0059,0.10547c0,-0.41406 -0.3357,-0.74995 -0.75,-0.75c-0.3835,0.00034 -0.6997,0.28852 -0.7441,0.66016v2.08984l-0.004,0.0771c-0.0386,0.378 -0.3579,0.6729 -0.746,0.6729c-0.4141,-0.0001 -0.75,-0.3359 -0.75,-0.75v-1.91113c-0.0035,-0.02915 -0.0059,-0.05879 -0.0059,-0.08887h0.0059v-0.13672c-0.0028,0.04525 -0.0059,0.09078 -0.0059,0.13672v-4.5c0,-0.41406 -0.3357,-0.74995 -0.75,-0.75c-0.4139,0.00037 -0.75,0.33601 -0.75,0.75v7c0,0.0359 0.00378,0.0753 0.01074,0.1191c0.01175,0.0739 0.01246,0.1496 0.00195,0.2237c-0.00813,0.0573 -0.01269,0.1092 -0.01269,0.1572v0.6689c0,1.1556 -1.43226,1.6908 -2.19141,0.8233l-1.5791,-1.8047c-0.31977,-0.3652 -0.87017,-0.4143 -1.24902,-0.1113c-0.35957,0.288 -0.44299,0.7963 -0.20704,1.1816l0.05176,0.0752v0.001l2.69629,3.5508c1.37072,1.8046 3.50812,2.865 5.77442,2.8652h1.9541c2.8994,-0.0001 5.25,-2.3506 5.25,-5.25v-5c0,-0.41406 -0.3357,-0.74995 -0.75,-0.75c-0.3853,0.00034 -0.7039,0.29186 -0.7451,0.66602l0.0019,-0.03125l-0.0136,-0.00098c-0.0316,-0.61951 -0.3118,-1.17077 -0.7452,-1.55859c0.3981,-0.35743 0.9247,-0.57503 1.502,-0.5752c1.2424,0.00015 2.25,1.00733 2.25,2.25v5c0,3.7279 -3.0222,6.7499 -6.75,6.75h-1.9541c-2.73493,-0.0002 -5.31335,-1.2791 -6.96778,-3.457v-0.001l-2.69629,-3.5518l-0.00097,0.001c-0.78936,-1.0395 -0.60734,-2.521 0.41211,-3.3369h0.00097c1.00583,-0.8041 2.46642,-0.6738 3.31445,0.2949l1.14161,1.3047v0.665c0,-0.232 0.28628,-0.337 0.4375,-0.165l-0.4375,-0.5v-0.0039c0,-0.0894 0.00621,-0.1755 0.01464,-0.2578c0.00426,0.0384 0.00882,0.0766 0.01465,0.1133l0.74024,-0.1182l-0.74219,-0.1055c-0.00509,0.0359 -0.00885,0.0729 -0.0127,0.1104c-0.00857,-0.0775 -0.01464,-0.1583 -0.01464,-0.2422v-7c0,-1.24241 1.00767,-2.24963 2.25,-2.25zM18.2371,9.38379c0.0006,0.01269 0.0015,0.02534 0.0019,0.03809l-0.7373,-0.0752z" fill="#002B51"/>
</svg>
