<svg width="24" height="24" viewBox="0 0 24 24" fill="none" xmlns="http://www.w3.org/2000/svg">
<path fill-rule="evenodd" clip-rule="evenodd" d="M10.9855,3.9834c0.3715,-0.7314 1.1294,-1.2334 2.0059,-1.2334c1.038,0.00015 1.9085,0.70414 2.168,1.66016c0.2574,-0.10258 0.538,-0.16016 0.832,-0.16016c1.203,0.00017 2.1821,0.94473 2.2432,2.13281c0.2367,-0.0846 0.491,-0.13281 0.7568,-0.13281c1.2424,0.00018 2.25,1.00735 2.25,2.25v6c0,3.7278 -3.0223,6.7498 -6.75,6.75h-1.9541c-2.73531,0 -5.3142,-1.2788 -6.96875,-3.457v-0.001l-2.69629,-3.5518l-0.00098,0.001c-0.78966,-1.0396 -0.6068,-2.521 0.41309,-3.3369c1.00597,-0.8045 2.46734,-0.6742 3.31543,0.2949l1.1416,1.3047v-6.5039c0,-1.24264 1.00736,-2.25 2.25,-2.25c0.3572,0.00005 0.6941,0.08518 0.9941,0.2334zM9.9914,5.25c-0.41421,0 -0.75,0.33579 -0.75,0.75v7.1689c0,1.1555 -1.43222,1.6906 -2.19141,0.8233l-1.5791,-1.8047c-0.31969,-0.3654 -0.87009,-0.4142 -1.24902,-0.1113c-0.38389,0.3071 -0.45362,0.8647 -0.15625,1.2568v0.001l2.69629,3.5508h0.00097c1.37086,1.8048 3.50782,2.8652 5.77442,2.8652h1.9541c2.8994,-0.0002 5.25,-2.3506 5.25,-5.25v-6c0,-0.41398 -0.3358,-0.74982 -0.75,-0.75c-0.3754,0 -0.6865,0.27588 -0.7414,0.63597v3.11403c0,0.4142 -0.3358,0.75 -0.75,0.75c-0.4142,0 -0.75,-0.3358 -0.75,-0.75v-2.88597c-0.0019,-0.0122 -0.0034,-0.0245 -0.0047,-0.03688l-0.0039,-0.07715v-2c0,-0.41398 -0.3358,-0.74982 -0.75,-0.75c-0.3754,0 -0.6865,0.27588 -0.7414,0.63597v5.11403c0,0.4142 -0.3358,0.75 -0.75,0.75c-0.4142,0 -0.75,-0.3358 -0.75,-0.75v-4.88605c-0.0057,-0.03716 -0.0086,-0.07521 -0.0086,-0.11395v-1.5c0,-0.41398 -0.3358,-0.74982 -0.75,-0.75c-0.4142,0 -0.75,0.33579 -0.75,0.75h0.0086v6.5l-0.0039,0.0771c-0.0386,0.378 -0.3579,0.6729 -0.7461,0.6729c-0.4142,0 -0.75,-0.3358 -0.75,-0.75v-5.38597c-0.0019,-0.0122 -0.0034,-0.0245 -0.0047,-0.03688l-0.0039,-0.07715l-0.0039,-0.07617c-0.0382,-0.37824 -0.3576,-0.67366 -0.7461,-0.67383z" fill="#002B51"/>
</svg>
