<svg width="24" height="24" viewBox="0 0 24 24" fill="none" xmlns="http://www.w3.org/2000/svg">
<path fill-rule="evenodd" clip-rule="evenodd" d="M15.25,9.4072v2.0928c0,0.4142 -0.3358,0.75 -0.75,0.75c-0.4142,0 -0.75,-0.3358 -0.75,-0.75v-1.90734c-0.0037,-0.03037 -0.0057,-0.06129 -0.0057,-0.09266c0,-0.41406 -0.3357,-0.74995 -0.75,-0.75c-0.388,0.00011 -0.7074,0.29494 -0.7461,0.67285l-0.0039,0.07715h0.0057v2l-0.0039,0.0771c-0.0386,0.378 -0.3579,0.6729 -0.7461,0.6729c-0.4142,0 -0.75,-0.3358 -0.75,-0.75v-1.90734c-0.0037,-0.03037 -0.0057,-0.06129 -0.0057,-0.09266c0,-0.41406 -0.3357,-0.74995 -0.74996,-0.75c-0.41411,0.00012 -0.75,0.33586 -0.75,0.75v2c0,0.0817 0.0138,0.1614 0.03907,0.2373c0.04808,0.1448 0.05072,0.3008 0.00781,0.4473c-0.03084,0.1052 -0.04688,0.2104 -0.04688,0.3154v0.6689c0,1.1556 -1.43225,1.6908 -2.1914,0.8233l-1.57911,-1.8047c-0.31974,-0.3654 -0.87008,-0.4144 -1.24902,-0.1113c-0.35986,0.288 -0.44321,0.7962 -0.20703,1.1816l0.05176,0.0752v0.001l2.69629,3.5508c1.37081,1.8048 3.50797,2.8651 5.77437,2.8652h1.9541c2.8995,-0.0001 5.25,-2.3506 5.25,-5.25v-2c0,-0.0486 -0.0044,-0.1049 -0.0136,-0.1787c-0.0086,-0.0686 -0.0075,-0.1387 0.0029,-0.207c0.0082,-0.0538 0.0107,-0.0887 0.0107,-0.1143v-7c0,-0.41406 -0.3357,-0.74995 -0.75,-0.75c-0.4141,0.00012 -0.75,0.33586 -0.75,0.75v4.5h0.0057v2l-0.0039,0.0771c-0.0386,0.378 -0.3579,0.6729 -0.7461,0.6729c-0.3882,0 -0.7075,-0.2949 -0.7461,-0.6729l-0.0039,-0.0771v-1.90734c-0.0037,-0.03037 -0.0057,-0.06129 -0.0057,-0.09266c0,-0.41406 -0.3357,-0.74995 -0.75,-0.75c-0.3827,0.00011 -0.6986,0.28684 -0.7443,0.6572zM21.2443,12.5v2c0,3.7279 -3.0222,6.7499 -6.75,6.75h-1.9541c-2.73506,-0.0001 -5.31321,-1.279 -6.96773,-3.457v-0.001l-2.69629,-3.5518l-0.00098,0.001c-0.78962,-1.0396 -0.60766,-2.521 0.41211,-3.3369h0.00098c1.0059,-0.8042 2.46645,-0.674 3.31445,0.2949l1.1416,1.3047v-0.0039c0,-0.1793 0.01971,-0.3526 0.05371,-0.5186c-0.03403,-0.1546 -0.05371,-0.3155 -0.05371,-0.4814v-2c0,-1.24257 1.00746,-2.24988 2.25,-2.25c0.57686,0.00007 1.10176,0.21911 1.49996,0.57617c0.3983,-0.35716 0.923,-0.57612 1.5,-0.57617c0.5769,0.00007 1.1018,0.21911 1.5,0.57617c0.3983,-0.35716 0.923,-0.57612 1.5,-0.57617c0.2632,0.00003 0.5153,0.04778 0.75,0.13086v-2.38086c0,-1.24257 1.0075,-2.24988 2.25,-2.25c1.2424,0.00015 2.25,1.00733 2.25,2.25v7c0,0.0841 -0.0076,0.1626 -0.0156,0.2334c0.0081,0.0812 0.0156,0.171 0.0156,0.2666z" fill="#002B51"/>
</svg>
