<svg width="24" height="24" viewBox="0 0 24 24" fill="none" xmlns="http://www.w3.org/2000/svg">
<path fill-rule="evenodd" clip-rule="evenodd" d="M12.25,5v2.37803c0.2346,-0.08291 0.4871,-0.12803 0.75,-0.12803c0.5763,0 1.102,0.21664 1.5,0.57292c0.3981,-0.35628 0.9238,-0.57292 1.5,-0.57292c0.263,0 0.5154,0.04512 0.75,0.12803v-2.37803c0,-1.24264 1.0074,-2.25 2.25,-2.25c1.2427,0 2.25,1.00736 2.25,2.25v7c0,0.0786 -0.004,0.1565 -0.012,0.2334c0.008,0.088 0.012,0.1769 0.012,0.2666v2c0,3.7279 -3.0221,6.75 -6.75,6.75h-1.954c-2.73546,0 -5.3135,-1.2792 -6.96801,-3.4576l-2.69783,-3.5519l0.59169,-0.4494l-0.59169,0.4494c-0.78982,-1.0399 -0.60649,-2.5199 0.41318,-3.3356c1.00588,-0.8047 2.467,-0.6749 3.31526,0.2945l1.14143,1.3045v-0.0039c0,-0.0873 0.00433,-0.1737 0.01281,-0.2591c-0.00848,-0.0793 -0.01281,-0.1597 -0.01281,-0.2409v-7c0,-1.24264 1.00736,-2.25 2.24997,-2.25c1.2427,0 2.25,1.00736 2.25,2.25zM19,4.25c-0.4142,0 -0.75,0.33579 -0.75,0.75v4.5c0,0.00099 0,0.00197 0,0.00296v1.99704c0,0.4142 -0.3358,0.75 -0.75,0.75c-0.4142,0 -0.75,-0.3358 -0.75,-0.75v-2.00296c-0.0016,-0.41285 -0.3367,-0.74704 -0.75,-0.74704c-0.4142,0 -0.75,0.33579 -0.75,0.75v0.00296v1.99704c0,0.4142 -0.3358,0.75 -0.75,0.75c-0.4142,0 -0.75,-0.3358 -0.75,-0.75v-2.00296c-0.0016,-0.41285 -0.3367,-0.74704 -0.75,-0.74704c-0.4142,0 -0.75,0.33579 -0.75,0.75v0.00296v1.99704c0,0.4142 -0.3358,0.75 -0.75,0.75c-0.4142,0 -0.75,-0.3358 -0.75,-0.75v-4v-2.5c0,-0.41421 -0.3358,-0.75 -0.75,-0.75c-0.41418,0 -0.74997,0.33579 -0.74997,0.75v7c0,0.0411 0.00324,0.0809 0.00933,0.1193c0.0117,0.0738 0.01231,0.149 0.00179,0.223c-0.00732,0.0514 -0.01112,0.1041 -0.01112,0.1577v0.6693c0,1.1542 -1.43067,1.6917 -2.19072,0.8231l-1.57957,-1.8052c-0.31967,-0.3653 -0.87029,-0.4143 -1.24936,-0.111c-0.38426,0.3074 -0.45335,0.8651 -0.1557,1.257l2.69782,3.5519c1.37088,1.805 3.507,2.8649 5.7735,2.8649h1.954c2.8995,0 5.25,-2.3505 5.25,-5.25v-2c0,-0.0616 -0.0038,-0.1216 -0.0111,-0.1799c-0.0086,-0.0684 -0.0077,-0.1377 0.0026,-0.2059c0.0056,-0.0368 0.0085,-0.0749 0.0085,-0.1142v-7c0,-0.41421 -0.3358,-0.75 -0.75,-0.75z" fill="#002B51"/>
</svg>
