<svg width="24" height="24" viewBox="0 0 24 24" fill="none" xmlns="http://www.w3.org/2000/svg">
<path fill-rule="evenodd" clip-rule="evenodd" d="M9.24434,9.5v3.6689c0,1.1556 -1.43225,1.6908 -2.1914,0.8233l-1.57911,-1.8047c-0.31974,-0.3654 -0.87008,-0.4144 -1.24902,-0.1113c-0.35986,0.288 -0.44321,0.7962 -0.20703,1.1816l0.05176,0.0752v0.001l2.69629,3.5508c1.37081,1.8048 3.50797,2.8651 5.77437,2.8652h1.9541c2.8995,-0.0001 5.25,-2.3506 5.25,-5.25v-5c0,-0.41406 -0.3357,-0.74995 -0.75,-0.75c-0.3855,0.00011 -0.7038,0.29171 -0.7451,0.66602l-0.004,0.08398h0.0048v2l-0.0039,0.0771c-0.0386,0.378 -0.3579,0.6729 -0.7461,0.6729c-0.3882,0 -0.7075,-0.2949 -0.7461,-0.6729l-0.0039,-0.0771v-1.90743c-0.0037,-0.03034 -0.0057,-0.06124 -0.0057,-0.09257c0,-0.41406 -0.3357,-0.74995 -0.75,-0.75c-0.3827,0.00011 -0.6986,0.28684 -0.7443,0.6572v2.0928c0,0.4142 -0.3358,0.75 -0.75,0.75c-0.4142,0 -0.75,-0.3358 -0.75,-0.75v-1.90734c-0.0037,-0.03037 -0.0057,-0.06129 -0.0057,-0.09266v-5.5c0,-0.41406 -0.3357,-0.74995 -0.75,-0.75c-0.4141,0.00012 -0.75,0.33586 -0.75,0.75v5.5h0.0057v2l-0.0039,0.0771c-0.0386,0.378 -0.3579,0.6729 -0.7461,0.6729c-0.4142,0 -0.75,-0.3358 -0.75,-0.75v-1.90734c-0.0037,-0.03037 -0.0057,-0.06129 -0.0057,-0.09266c0,-0.41406 -0.3357,-0.74995 -0.74996,-0.75c-0.41411,0.00012 -0.75,0.33586 -0.75,0.75zM17.4924,7.8252c0.3982,-0.35753 0.9245,-0.57515 1.5019,-0.5752c1.2424,0.00015 2.25,1.00733 2.25,2.25v5c0,3.7279 -3.0222,6.7499 -6.75,6.75h-1.9541c-2.73506,-0.0001 -5.31321,-1.279 -6.96773,-3.457v-0.001l-2.69629,-3.5518l-0.00098,0.001c-0.78962,-1.0396 -0.60766,-2.521 0.41211,-3.3369h0.00098c1.0059,-0.8042 2.46645,-0.674 3.31445,0.2949l1.1416,1.3047v-3.0039c0,-1.24257 1.00746,-2.24988 2.25,-2.25c0.26316,0.00003 0.51526,0.04778 0.74996,0.13086v-3.38086c0,-1.24257 1.0075,-2.24988 2.25,-2.25c1.2424,0.00015 2.25,1.00733 2.25,2.25v3.38086c0.2349,-0.08314 0.4867,-0.13084 0.75,-0.13086c0.5762,0.00007 1.1,0.21897 1.4981,0.5752z" fill="#002B51"/>
</svg>
