<svg width="24" height="24" viewBox="0 0 24 24" fill="none" xmlns="http://www.w3.org/2000/svg">
<path fill-rule="evenodd" clip-rule="evenodd" d="M10.2287,3.76172c0.2725,0.02768 0.5297,0.10558 0.7647,0.22168c0.3714,-0.73134 1.1294,-1.2334 2.0058,-1.2334l0.2295,0.01172c0.9354,0.09503 1.6984,0.76384 1.9385,1.64844c0.2574,-0.10252 0.5381,-0.16016 0.832,-0.16016l0.2295,0.01172c1.0961,0.11136 1.9566,1.00961 2.0137,2.12109c0.2366,-0.08454 0.4911,-0.13281 0.7568,-0.13281l0.2295,0.01172c1.1345,0.11525 2.0205,1.07322 2.0205,2.23828v6c0,3.6115 -2.8368,6.5605 -6.4033,6.7412l-0.3467,0.0088h-1.9541c-2.73524,0 -5.31418,-1.2788 -6.96874,-3.457v-0.001l-2.69629,-3.5518l-0.00098,0.001c-0.78965,-1.0396 -0.6068,-2.521 0.41309,-3.3369l0.19336,-0.1397c0.99255,-0.6452 2.32695,-0.4741 3.12207,0.4346l1.1416,1.3047v-6.5039c0,-1.24264 1.00736,-2.25 2.25,-2.25zM9.99823,5.25c-0.41396,0.00029 -0.74902,0.33597 -0.74902,0.75v7.1689c0,1.1196 -1.34498,1.6569 -2.11914,0.9004l-0.07226,-0.0771l-1.57911,-1.8047c-0.29977,-0.3426 -0.80284,-0.4071 -1.17675,-0.1641l-0.07325,0.0528c-0.35965,0.288 -0.44305,0.7962 -0.20703,1.1816l0.05176,0.0752v0.001l2.69629,3.5508h0.00098c1.37085,1.8048 3.5079,2.8652 5.7744,2.8652h1.9541l0.2695,-0.0068c2.774,-0.1406 4.9805,-2.4343 4.9805,-5.2432v-6c0,-0.41406 -0.3367,-0.74995 -0.751,-0.75c-0.3879,0.00028 -0.7065,0.29508 -0.7451,0.67285l-0.0031,0.06159v3.01556c0,0.4142 -0.3358,0.75 -0.75,0.75c-0.4142,0 -0.75,-0.3358 -0.75,-0.75v-2.98444l-0.0008,-0.01556v-2c0,-0.41406 -0.3367,-0.74995 -0.751,-0.75c-0.3879,0.00028 -0.7065,0.29508 -0.7451,0.67285l-0.0031,0.06159v5.01556c0,0.4142 -0.3358,0.75 -0.75,0.75c-0.4142,0 -0.75,-0.3358 -0.75,-0.75v-4.96532c-0.0005,-0.01149 -0.0008,-0.02306 -0.0008,-0.03468v-1.5c0,-0.41406 -0.3367,-0.74995 -0.751,-0.75c-0.4139,0.00029 -0.749,0.33597 -0.749,0.75h0.0008v6.5l-0.0039,0.0771c-0.0386,0.378 -0.3579,0.6729 -0.7461,0.6729c-0.3882,0 -0.7075,-0.2949 -0.7461,-0.6729l-0.0039,-0.0771v-5.48444l-0.0008,-0.01556l-0.0039,-0.07617c-0.0382,-0.37833 -0.3585,-0.67378 -0.74707,-0.67383z" fill="#002B51"/>
</svg>
