<svg width="24" height="24" viewBox="0 0 24 24" fill="none" xmlns="http://www.w3.org/2000/svg">
<path fill-rule="evenodd" clip-rule="evenodd" d="M21.25,5v7c0,0.0786 -0.004,0.1565 -0.012,0.2334c0.008,0.088 0.012,0.1769 0.012,0.2666v2c0,3.7279 -3.0221,6.75 -6.75,6.75h-1.954c-2.73546,0 -5.3135,-1.2792 -6.96801,-3.4576l-2.69783,-3.5519l0.59169,-0.4494l-0.59169,0.4494c-0.78982,-1.0399 -0.60649,-2.5199 0.41318,-3.3356c1.00588,-0.8047 2.467,-0.6749 3.31526,0.2945l1.14143,1.3045v-0.0039c0,-0.1772 0.01787,-0.3506 0.05178,-0.5186c-0.03397,-0.1556 -0.05179,-0.3167 -0.05179,-0.4814v-2c0,-1.24264 1.00736,-2.25 2.24998,-2.25c0.5763,0 1.102,0.21664 1.5,0.57292c0.3981,-0.35628 0.9238,-0.57292 1.5,-0.57292c0.5763,0 1.102,0.21664 1.5,0.57292c0.3981,-0.35628 0.9238,-0.57292 1.5,-0.57292c0.263,0 0.5154,0.04512 0.75,0.12803v-2.37803c0,-1.24264 1.0074,-2.25 2.25,-2.25c1.2427,0 2.25,1.00736 2.25,2.25zM18.25,10.5c0,0.001 0,0.0021 0,0.0031v0.9969c0,0.4142 -0.3358,0.75 -0.75,0.75c-0.4142,0 -0.75,-0.3358 -0.75,-0.75v-0.9985c0,-0.0005 0,-0.001 0,-0.0015v-1c0,-0.41421 -0.3358,-0.75 -0.75,-0.75c-0.4136,0 -0.7491,0.33486 -0.75,0.74829v2.00171c0,0.4142 -0.3358,0.75 -0.75,0.75c-0.4142,0 -0.75,-0.3358 -0.75,-0.75v-1.99829v-0.00171c0,-0.41421 -0.3358,-0.75 -0.75,-0.75c-0.4142,0 -0.75,0.33579 -0.75,0.75v2c0,0.4142 -0.3358,0.75 -0.75,0.75c-0.4142,0 -0.75,-0.3358 -0.75,-0.75v-1.99829v-0.00171c0,-0.41421 -0.3358,-0.75 -0.75,-0.75c-0.41419,0 -0.74998,0.33579 -0.74998,0.75v2c0,0.0838 0.01348,0.163 0.0378,0.2364c0.04801,0.1448 0.05071,0.3008 0.00775,0.4472c-0.02968,0.1011 -0.04554,0.207 -0.04554,0.3164v0.6693c0,1.1542 -1.43067,1.6917 -2.19072,0.8231l-1.57957,-1.8052c-0.31967,-0.3653 -0.87029,-0.4143 -1.24936,-0.111c-0.38426,0.3074 -0.45335,0.8651 -0.1557,1.257l2.69782,3.5519c1.37088,1.805 3.507,2.8649 5.7735,2.8649h1.954c2.8995,0 5.25,-2.3505 5.25,-5.25v-2c0,-0.0616 -0.0038,-0.1216 -0.0111,-0.1799c-0.0086,-0.0684 -0.0077,-0.1377 0.0026,-0.2059c0.0056,-0.0368 0.0085,-0.0749 0.0085,-0.1142v-7c0,-0.41421 -0.3358,-0.75 -0.75,-0.75c-0.4142,0 -0.75,0.33579 -0.75,0.75z" fill="#002B51"/>
</svg>
