<svg width="24" height="24" viewBox="0 0 24 24" fill="none" xmlns="http://www.w3.org/2000/svg">
<path d="M13.2297,2.76172c0.9351,0.09521 1.6974,0.76406 1.9375,1.64844c0.2574,-0.10261 0.5379,-0.16015 0.832,-0.16016l0.2305,0.01172c1.0958,0.11158 1.9555,1.0098 2.0127,2.12109c0.2367,-0.08463 0.491,-0.1328 0.7568,-0.13281l0.2305,0.01172c1.1342,0.11548 2.0195,1.07339 2.0195,2.23828v6c0,3.6113 -2.8361,6.5602 -6.4024,6.7412l-0.3476,0.0088h-1.9541c-2.73533,0 -5.31422,-1.2787 -6.96876,-3.457v-0.001l-2.69629,-3.5518l-0.00098,0.001c-0.78963,-1.0396 -0.60676,-2.521 0.41309,-3.3369l0.19433,-0.1397c0.99246,-0.6448 2.32606,-0.4738 3.1211,0.4346l1.1416,1.3047v-6.5039c0,-1.24262 1.00739,-2.24996 2.25,-2.25l0.23051,0.01172c0.2721,0.0277 0.529,0.10577 0.7636,0.22168c0.3715,-0.73142 1.1294,-1.23337 2.0059,-1.2334zM12.9992,4.25c-0.4142,0.00004 -0.75,0.33581 -0.75,0.75h0.001v6.5l-0.0039,0.0771c-0.0387,0.378 -0.358,0.6728 -0.7461,0.6729c-0.3882,0 -0.7075,-0.2949 -0.7461,-0.6729l-0.0039,-0.0771v-5.48145l-0.001,-0.01855l-0.0039,-0.07617c-0.0357,-0.35325 -0.3165,-0.63421 -0.6699,-0.66992l-0.07621,-0.00391c-0.41418,0.00004 -0.75,0.33581 -0.75,0.75v7.1689c0,1.1195 -1.34396,1.6565 -2.11817,0.9004l-0.07324,-0.0771l-1.5791,-1.8047c-0.29986,-0.3427 -0.80282,-0.4074 -1.17676,-0.1641l-0.07226,0.0528c-0.35996,0.288 -0.44328,0.7961 -0.20703,1.1816l0.05175,0.0752v0.001l2.69629,3.5508h0.00098c1.37084,1.8048 3.50695,2.8652 5.77345,2.8652h1.9541l0.2705,-0.0068c2.7737,-0.1409 4.9795,-2.4345 4.9795,-5.2432v-6c0,-0.38834 -0.2954,-0.70785 -0.6738,-0.74609l-0.0762,-0.00391c-0.3881,0.00004 -0.7075,0.2949 -0.7461,0.67285l-0.0029,0.05762v3.01953c0,0.4142 -0.3359,0.7499 -0.75,0.75c-0.4142,0 -0.75,-0.3358 -0.75,-0.75v-2.98145l-0.001,-0.01855v-2c0,-0.38834 -0.2954,-0.70785 -0.6738,-0.74609l-0.0762,-0.00391c-0.3881,0.00004 -0.7075,0.2949 -0.7461,0.67285l-0.0029,0.05762v5.01953c0,0.4142 -0.3359,0.7499 -0.75,0.75c-0.4142,0 -0.75,-0.3358 -0.75,-0.75v-4.98145c-0.0002,-0.00617 -0.001,-0.01234 -0.001,-0.01855v-1.5c0,-0.38834 -0.2954,-0.70785 -0.6738,-0.74609z" fill="#002B51"/>
</svg>
