<svg width="24" height="24" viewBox="0 0 24 24" fill="none" xmlns="http://www.w3.org/2000/svg">
<path d="M18.9942,2.75c1.2423,0.00024 2.25,1.00739 2.25,2.25v7c0,0.0841 -0.0076,0.1626 -0.0156,0.2334c-0.0035,-0.0347 -0.0059,-0.0684 -0.0098,-0.0996l-0.7441,0.0937l0.7412,0.1133c0.005,-0.0331 0.0084,-0.0693 0.0127,-0.1074c0.0081,0.0812 0.0156,0.1711 0.0156,0.2666v2c0,3.7278 -3.0223,6.7498 -6.75,6.75h-1.9541c-2.73525,0 -5.31424,-1.2788 -6.96877,-3.457v-0.001l-2.69629,-3.5518l-0.00097,0.001c-0.78958,-1.0396 -0.6067,-2.521 0.41308,-3.3369c1.00597,-0.8045 2.46737,-0.6742 3.31543,0.2949l1.14161,1.3047v0.665c0,-0.2321 0.28637,-0.3376 0.4375,-0.165l-0.4375,-0.5v-0.0039c0,-0.0912 0.00591,-0.1789 0.01464,-0.2627c0.00437,0.0401 0.0076,0.0799 0.01368,0.1182l0.74121,-0.1182l-0.74317,-0.1055c-0.00487,0.0344 -0.00798,0.0697 -0.01172,0.1055c-0.00826,-0.076 -0.01464,-0.1551 -0.01464,-0.2373v-7c0,-1.24259 1.00742,-2.24992 2.25,-2.25c1.24231,0.00024 2.25001,1.00739 2.25001,2.25v2.38086c-0.0944,0.0334 -0.1853,0.07403 -0.2735,0.11914h0.2735v-0.11914c0.2347,-0.08305 0.4868,-0.13084 0.75,-0.13086c0.5766,0.00011 1.1008,0.21934 1.499,0.57617c-0.3404,0.30546 -0.5872,0.71258 -0.6924,1.17383h1.3867c-0.1055,-0.4614 -0.3534,-0.86832 -0.6943,-1.17383c0.3983,-0.35732 0.9238,-0.57613 1.501,-0.57617c0.2632,0.00005 0.5152,0.04773 0.75,0.13086v2.11914l-0.0039,-0.07617c-0.0382,-0.3782 -0.3577,-0.67361 -0.7461,-0.67383c-0.3837,0.00007 -0.6997,0.28837 -0.7442,0.66016v2.08984c0,0.4142 -0.3358,0.75 -0.75,0.75c-0.4142,0 -0.75,-0.3358 -0.75,-0.75v-1.91309c-0.0003,-0.00327 -0.0016,-0.00647 -0.0019,-0.00976l-0.0039,-0.07715h0.0058v-0.10547c-0.0016,0.035 -0.0058,0.07006 -0.0058,0.10547l-0.0039,-0.07617c-0.0382,-0.3782 -0.3577,-0.67361 -0.7461,-0.67383c-0.3837,0.00007 -0.6997,0.28837 -0.7442,0.66016v2.08984l-0.0039,0.0771c-0.0386,0.378 -0.3579,0.6729 -0.7461,0.6729c-0.4142,0 -0.75,-0.3358 -0.75,-0.75v-1.91309c-0.0003,-0.00327 -0.0016,-0.00647 -0.0019,-0.00976l-0.0039,-0.07715h0.0058v-0.13672c-0.0027,0.04525 -0.0058,0.09077 -0.0058,0.13672v-4.5c0,-0.41395 -0.3359,-0.74977 -0.75001,-0.75c-0.41415,0.00008 -0.75,0.33583 -0.75,0.75v7c0,0.0359 0.0028,0.0753 0.00976,0.1191c0.01175,0.0739 0.01246,0.1496 0.00195,0.2237c-0.00812,0.0573 -0.01171,0.1092 -0.01171,0.1572v0.6689c0,1.1555 -1.43221,1.6905 -2.19141,0.8233l-1.5791,-1.8047c-0.31972,-0.3653 -0.87109,-0.4152 -1.25,-0.1123v0.001c-0.38342,0.3072 -0.45249,0.8649 -0.15528,1.2568v0.001l2.69629,3.5508h0.00098c1.37083,1.8048 3.50793,2.8652 5.77443,2.8652h1.9541c2.8993,-0.0002 5.25,-2.3507 5.25,-5.25v-2c0,-0.0486 -0.0044,-0.1049 -0.0137,-0.1787c-0.0086,-0.0686 -0.0075,-0.1387 0.0029,-0.207c0.0082,-0.0538 0.0108,-0.0887 0.0108,-0.1143v-7c0,-0.41395 -0.3359,-0.74977 -0.75,-0.75c-0.4142,0.00008 -0.75,0.33583 -0.75,0.75v2.5h0.0058v4c0,0.4142 -0.3358,0.75 -0.75,0.75c-0.4142,0 -0.75,-0.3358 -0.75,-0.75v-1.91309c-0.0003,-0.00327 -0.0016,-0.00647 -0.0019,-0.00976l-0.0039,-0.07715h0.0058v-2h0.2676c-0.0881,-0.0451 -0.1791,-0.08574 -0.2734,-0.11914v-2.38086c0,-1.24259 1.0074,-2.24992 2.25,-2.25z" fill="#002B51"/>
</svg>
