<svg width="24" height="24" viewBox="0 0 24 24" fill="none" xmlns="http://www.w3.org/2000/svg">
<path d="M11.0861,4.10432c1.1138,-0.99693 2.8588,-0.83945 3.7715,0.37012l1.7002,2.2539l0.1846,0.2295c0.1921,0.22316 0.4066,0.42749 0.6386,0.60937l2.2842,1.79004l0.1152,0.09668c0.5643,0.49712 0.8905,1.21507 0.8907,1.97167l-0.0137,0.2686c-0.1257,1.2366 -1.109,2.22 -2.3457,2.3457l-0.2686,0.0136h-0.5136c-0.0054,0.0004 -0.0111,0.002 -0.0166,0.002h-0.5674l2.6435,2.6445l0.1543,0.1709c0.6724,0.8248 0.6725,2.0152 0,2.8399l-0.1543,0.1709c-0.8236,0.8233 -2.127,0.8747 -3.0107,0.1543l-0.1709,-0.1543l-1.9814,-1.9815c-1.4187,-1.4182 -3.6922,-1.4634 -5.16411,-0.1338l-0.13965,0.1338l-1.98145,1.9815c-0.82362,0.8234 -2.12707,0.8746 -3.01074,0.1543l-0.1709,-0.1543c-0.878,-0.8787 -0.8783,-2.3032 0,-3.1817l1.74805,-1.75c0.06253,-0.583 0.2075,-1.1416 0.42383,-1.6631l-0.41406,-0.3925v0.0009c-0.80625,-0.7635 -0.98748,-1.9685 -0.46485,-2.9277l0.11426,-0.18847l0.07617,-0.11329v-0.00097l0.07813,-0.11035c0.40933,-0.53726 1.0489,-0.85536 1.72949,-0.85547l0.18945,0.00781c0.8354,0.07237 1.53126,0.61902 1.82715,1.36714c0.74903,-0.33262 1.57833,-0.5184 2.45023,-0.51851h0.9336c-0.0704,-0.09443 -0.1465,-0.18552 -0.2305,-0.26953l-1.4395,-1.43945c-1.00505,-1.00576 -1.0052,-2.63598 0,-3.6416zM16.422,9.44905c-0.5522,0 -1,0.44771 -1,0.99995c0.0001,0.5523 0.4478,1 1,1c0.5521,-0.0002 1,-0.4478 1,-1c0,-0.55207 -0.4479,-0.99969 -1,-0.99995z" fill="#002B51"/>
</svg>
