<svg width="24" height="24" viewBox="0 0 24 24" fill="none" xmlns="http://www.w3.org/2000/svg">
<path fill-rule="evenodd" clip-rule="evenodd" d="M18.0437,14.0538h-0.4996c-0.0101,0.0012 -0.0204,0.0019 -0.0309,0.0019h-0.568l2.6443,2.6443c0.8787,0.8787 0.8787,2.3033 0,3.182c-0.8786,0.8786 -2.3033,0.8786 -3.1819,0l-1.9817,-1.9817c-1.4644,-1.4644 -3.8388,-1.4644 -5.30326,0l-1.9816,1.9817c-0.87868,0.8786 -2.3033,0.8786 -3.18198,0c-0.87868,-0.8787 -0.87868,-2.3033 0,-3.182l1.74693,-1.747c0.06232,-0.5841 0.20783,-1.1434 0.4245,-1.6659l-0.41381,-0.3917c-0.86027,-0.8143 -1.00834,-2.1302 -0.35056,-3.11532l0.07646,-0.11451c0.40322,-0.6039 1.08139,-0.96654 1.80754,-0.96655c0.91759,-0.00001 1.70192,0.56842 2.02089,1.37218c0.74819,-0.33149 1.57609,-0.51553 2.44639,-0.51553h0.9364c-0.071,-0.09478 -0.149,-0.18494 -0.2337,-0.26965l-1.4392,-1.43922c-1.00583,-1.00581 -1.00583,-2.63656 0,-3.64237c1.1064,-1.10641 2.9356,-0.97876 3.8776,0.27059l1.7,2.25458c0.2368,0.31398 0.5134,0.59581 0.8229,0.83837l2.2833,1.7895c0.6356,0.49814 1.0069,1.26083 1.0069,2.06843c0,1.4513 -1.1766,2.6279 -2.6279,2.6279zM16.4216,9.44902c-0.5523,0 -1,0.44772 -1,0.99998c0,0.5523 0.4477,1 1,1c0.5523,0 1,-0.4477 1,-1c0,-0.55226 -0.4477,-0.99998 -1,-0.99998z" fill="#002B51"/>
</svg>
