<svg width="24" height="24" viewBox="0 0 24 24" fill="none" xmlns="http://www.w3.org/2000/svg">
<path fill-rule="evenodd" clip-rule="evenodd" d="M11.6879 4.91154C12.3647 4.23472 13.4838 4.31281 14.06 5.07707L15.76 7.33166C16.049 7.71494 16.3866 8.05896 16.7645 8.35506L19.0478 10.1446C19.4416 10.4531 19.6716 10.9256 19.6716 11.4259C19.6716 12.325 18.9427 13.0538 18.0436 13.0538L17.5132 13.0538C17.4954 13.0538 17.4777 13.0544 17.4601 13.0557H16.3416C16.0383 13.0557 15.7648 13.2384 15.6487 13.5187C15.5326 13.7989 15.5968 14.1215 15.8113 14.336L18.8824 17.4071C19.3705 17.8952 19.3705 18.6867 18.8824 19.1749C18.3942 19.663 17.6028 19.663 17.1146 19.1749L15.133 17.1932C13.278 15.3383 10.2705 15.3383 8.41548 17.1932L6.43387 19.1749C5.94572 19.663 5.15426 19.663 4.6661 19.1749L4.13577 19.7052L4.6661 19.1749C4.17795 18.6867 4.17795 17.8952 4.6661 17.4071L6.47622 15.597C6.60018 15.473 6.6768 15.3095 6.69277 15.135C6.74461 14.5684 6.88999 14.0296 7.11322 13.5335C7.24417 13.2425 7.17662 12.9005 6.94485 12.6811L6.40407 12.1692C5.89768 11.6898 5.81052 10.9153 6.19772 10.3354L6.27418 10.2209L5.65043 9.8044L6.27418 10.2209C6.49188 9.89482 6.85802 9.69903 7.25006 9.69903C7.80185 9.69903 8.26636 10.0806 8.39073 10.5952C8.44447 10.8175 8.59674 11.0032 8.80428 11.0994C9.01181 11.1956 9.25191 11.1919 9.45633 11.0892C10.1356 10.7481 10.9029 10.5557 11.7174 10.5557H13.1027C13.3637 10.5557 13.6058 10.4201 13.7422 10.1976C13.8785 9.97515 13.8895 9.69781 13.771 9.4653C13.6058 9.14083 13.3894 8.84118 13.1271 8.57893L11.6879 7.1397C11.0726 6.52441 11.0726 5.52683 11.6879 4.91154ZM21.1716 11.4259C21.1716 13.1182 19.8275 14.4967 18.1487 14.5521L19.943 16.3464C21.017 17.4204 21.017 19.1616 19.943 20.2355C18.8691 21.3095 17.1279 21.3095 16.0539 20.2355L14.0723 18.2539C12.8031 16.9847 10.7453 16.9847 9.47614 18.2539L7.49453 20.2355C6.42059 21.3095 4.67939 21.3095 3.60544 20.2355C2.5315 19.1616 2.5315 17.4204 3.60544 16.3464L5.23026 14.7216C5.29074 14.272 5.39689 13.8366 5.54393 13.4204L5.37289 13.2585C4.33569 12.2767 4.15716 10.6902 4.95023 9.50245L5.47698 9.85415L4.95023 9.50245L5.02669 9.38793C5.52267 8.6451 6.35686 8.19904 7.25005 8.19903C8.19947 8.19902 9.03236 8.69352 9.50664 9.43862C10.129 9.21536 10.7945 9.08371 11.4866 9.05968L10.6273 8.20036C9.42619 6.99929 9.42619 5.05196 10.6273 3.85088C11.9485 2.52969 14.1328 2.68212 15.2577 4.17401L16.9577 6.42859C17.1683 6.70792 17.4144 6.95865 17.6897 7.17444L19.9731 8.96394C20.7296 9.55686 21.1716 10.4647 21.1716 11.4259ZM16.4216 11.449C16.9739 11.449 17.4216 11.0013 17.4216 10.449C17.4216 9.89675 16.9739 9.44904 16.4216 9.44904C15.8693 9.44904 15.4216 9.89675 15.4216 10.449C15.4216 11.0013 15.8693 11.449 16.4216 11.449Z" fill="#002B51"/>
</svg>
