<svg width="24" height="24" viewBox="0 0 24 24" fill="none" xmlns="http://www.w3.org/2000/svg">
<path d="M10.9811,4.2048c1.1063,-1.10616 2.9349,-0.97841 3.877,0.27051l1.7002,2.25488c0.2365,0.31361 0.5133,0.59561 0.8223,0.83789h0.0009l2.2832,1.78907v0.00097c0.6353,0.49818 1.0069,1.26108 1.0069,2.06838l-0.0137,0.2685c-0.1258,1.2366 -1.109,2.2201 -2.3457,2.3457l-0.2686,0.0137h-0.5097c-0.0068,0.0006 -0.0137,0.0019 -0.0205,0.002h-0.5674l2.6435,2.6445c0.8232,0.8238 0.875,2.1272 0.1543,3.0107l-0.1543,0.1709c-0.8236,0.8233 -2.1271,0.8746 -3.0107,0.1543l-0.1709,-0.1543l-1.9824,-1.9824c-1.4645,-1.4639 -3.8385,-1.4633 -5.30276,0.001l-1.98144,1.9814c-0.82362,0.8233 -2.12714,0.8745 -3.01075,0.1543l-0.17089,-0.1543c-0.87859,-0.8786 -0.87829,-2.3029 0,-3.1816l1.74804,-1.75c0.06247,-0.5828 0.20773,-1.1409 0.42383,-1.6621l-0.41504,-0.3926c-0.86005,-0.8142 -1.00777,-2.1302 -0.35058,-3.11522l0.07714,-0.11524c0.40335,-0.60368 1.08185,-0.96581 1.80762,-0.96582l0.19043,0.00781c0.83502,0.07272 1.53046,0.61914 1.82617,1.36717c0.74923,-0.33274 1.57803,-0.51852 2.45023,-0.51853h0.9345c-0.0314,-0.04224 -0.0634,-0.08474 -0.0976,-0.125l-0.1338,-0.14454l-1.4395,-1.43945c-1.00572,-1.00576 -1.00562,-2.63675 0,-3.64258zM16.4216,9.44894c-0.5522,0.00005 -0.9999,0.44784 -1,0.99996c0,0.5522 0.4478,1 1,1c0.5522,0 0.9999,-0.4477 1,-1c-0.0001,-0.55213 -0.4478,-0.99994 -1,-0.99996z" fill="#002B51"/>
</svg>
