<svg width="24" height="24" viewBox="0 0 24 24" fill="none" xmlns="http://www.w3.org/2000/svg">
<path fill-rule="evenodd" clip-rule="evenodd" d="M11.6879,7.1397l1.4392,1.43923c0.2623,0.26225 0.4787,0.5619 0.6439,0.88637c0.1185,0.23251 0.1075,0.50985 -0.0288,0.7323c-0.1364,0.2225 -0.3785,0.3581 -0.6395,0.3581h-1.3853c-0.8145,0 -1.5818,0.1924 -2.26107,0.5335c-0.20442,0.1027 -0.44452,0.1064 -0.65205,0.0102c-0.20754,-0.0962 -0.35981,-0.2819 -0.41355,-0.5042c-0.12437,-0.5146 -0.58888,-0.89617 -1.14067,-0.89617c-0.39204,0 -0.75818,0.19579 -0.97588,0.52187l-0.62375,-0.4165l0.62375,0.4165l-0.07646,0.1145c-0.3872,0.5799 -0.30004,1.3544 0.20635,1.8338l0.54078,0.5119c0.23177,0.2194 0.29932,0.5614 0.16837,0.8524c-0.22323,0.4961 -0.36861,1.0349 -0.42045,1.6015c-0.01597,0.1745 -0.09259,0.338 -0.21655,0.462l-1.81012,1.8101c-0.48815,0.4881 -0.48815,1.2796 0,1.7678l-0.53033,0.5303l0.53033,-0.5303c0.48816,0.4881 1.27962,0.4881 1.76777,0l1.98161,-1.9817c1.85502,-1.8549 4.86252,-1.8549 6.71752,0l1.9816,1.9817c0.4882,0.4881 1.2796,0.4881 1.7678,0c0.4881,-0.4882 0.4881,-1.2797 0,-1.7678l-3.0711,-3.0711c-0.2145,-0.2145 -0.2787,-0.5371 -0.1626,-0.8173c0.1161,-0.2803 0.3896,-0.463 0.6929,-0.463h1.1185c0.0176,-0.0013 0.0353,-0.0019 0.0531,-0.0019h0.5304c0.8991,0 1.628,-0.7288 1.628,-1.6279c0,-0.5003 -0.23,-0.9728 -0.6238,-1.2813l-2.2833,-1.78954c-0.3779,-0.2961 -0.7155,-0.64012 -1.0045,-1.0234l-1.7,-2.25459c-0.5762,-0.76426 -1.6953,-0.84235 -2.3721,-0.16553c-0.6153,0.61529 -0.6153,1.61287 0,2.22816zM21.1716,11.4259c0,1.6923 -1.3441,3.0708 -3.0229,3.1262l1.7943,1.7943c1.074,1.074 1.074,2.8152 0,3.8891c-1.0739,1.074 -2.8151,1.074 -3.8891,0l-1.9816,-1.9816c-1.2692,-1.2692 -3.327,-1.2692 -4.59616,0l-1.98161,1.9816c-1.07394,1.074 -2.81514,1.074 -3.88909,0c-1.07394,-1.0739 -1.07394,-2.8151 0,-3.8891l1.62482,-1.6248c0.06048,-0.4496 0.16663,-0.885 0.31367,-1.3012l-0.17104,-0.1619c-1.0372,-0.9818 -1.21573,-2.5683 -0.42266,-3.75605l0.52675,0.3517l-0.52675,-0.3517l0.07646,-0.11452c0.49598,-0.74283 1.33017,-1.18889 2.22336,-1.1889c0.94942,-0.00001 1.78231,0.49449 2.25659,1.23959c0.62236,-0.22326 1.28786,-0.35491 1.97996,-0.37894l-0.8593,-0.85932c-1.20111,-1.20107 -1.20111,-3.1484 0,-4.34948c1.3212,-1.32119 3.5055,-1.16876 4.6304,0.32313l1.7,2.25458c0.2106,0.27933 0.4567,0.53006 0.732,0.74585l2.2834,1.7895c0.7565,0.59292 1.1985,1.50076 1.1985,2.46196zM15.4216,10.449c0,-0.55225 0.4477,-0.99996 1,-0.99996c0.5523,0 1,0.44771 1,0.99996c0,0.5523 -0.4477,1 -1,1c-0.5523,0 -1,-0.4477 -1,-1z" fill="#002B51"/>
</svg>
