<svg width="24" height="24" viewBox="0 0 24 24" fill="none" xmlns="http://www.w3.org/2000/svg">
<path d="M10.7532,3.73123c1.3301,-1.19052 3.414,-1.00238 4.5039,0.44239l1.7002,2.2539l0.164,0.20411c0.1709,0.19842 0.3612,0.38031 0.5674,0.54199l2.2842,1.79004h0.001l0.1377,0.11523c0.6715,0.59184 1.0593,1.44651 1.0595,2.34671l-0.0049,0.1601c-0.0818,1.6186 -1.3935,2.9108 -3.0195,2.9639l1.7959,1.7969l0.1885,0.208c0.8224,1.0081 0.8221,2.4635 0,3.4717l-0.1885,0.2089c-1.0068,1.0065 -2.6006,1.0696 -3.6807,0.1885l-0.208,-0.1885l-1.9814,-1.9814c-1.2296,-1.2292 -3.1999,-1.2679 -4.47559,-0.1152l-0.1211,0.1152l-1.98144,1.9814c-1.00668,1.0065 -2.59964,1.069 -3.67969,0.1885l-0.20899,-0.1885c-1.07302,-1.0737 -1.07405,-2.8148 -0.00097,-3.8886l1.62597,-1.628c0.06063,-0.4487 0.16666,-0.8836 0.31348,-1.2988l-0.17187,-0.1621v-0.001c-0.97113,-0.9204 -1.18909,-2.3714 -0.55957,-3.52732l0.13769,-0.22754l0.07617,-0.11328v-0.00098l0.09668,-0.13574c0.50349,-0.66089 1.28968,-1.05262 2.12696,-1.05273l0.23339,0.00976c0.85181,0.07381 1.58657,0.54759 2.02051,1.23047c0.62337,-0.22407 1.29067,-0.35398 1.98437,-0.37793l-0.8613,-0.86133c-1.20031,-1.20102 -1.20041,-3.14778 0,-4.34863zM14.0588,5.07694c-0.5403,-0.71585 -1.5567,-0.82936 -2.2392,-0.28321l-0.1319,0.11817c-0.6148,0.61517 -0.6146,1.61236 0,2.22754l1.4395,1.43945c0.2637,0.26382 0.4779,0.56477 0.6416,0.88574c0.1184,0.23239 0.1078,0.51 -0.0283,0.73247c-0.1363,0.2224 -0.3788,0.3582 -0.6397,0.3584h-1.3838c-0.7129,0 -1.3902,0.1479 -2.00388,0.414l-0.25879,0.1211c-0.20442,0.1028 -0.44476,0.106 -0.65235,0.0098c-0.20732,-0.0963 -0.36037,-0.2817 -0.41406,-0.5039c-0.11688,-0.4841 -0.53135,-0.84991 -1.03613,-0.89359l-0.10156,-0.0039c-0.39157,0.00011 -0.75883,0.19489 -0.97657,0.52049l0.00098,0.001l-0.07617,0.1143h-0.00098c-0.3627,0.5433 -0.30847,1.2581 0.11621,1.7402l0.09082,0.0937l0.54102,0.5127c0.23146,0.2194 0.2987,0.5617 0.16797,0.8526c-0.19513,0.4338 -0.33082,0.9001 -0.39649,1.3886l-0.02441,0.211c-0.01606,0.1743 -0.09208,0.3381 -0.21582,0.4619l-1.81055,1.8115c-0.48754,0.4878 -0.48791,1.2784 -0.00097,1.7666h0.00097c0.45759,0.4575 1.18095,0.4862 1.67188,0.086l0.0957,-0.086l1.98145,-1.9805l0.17675,-0.1689c1.86448,-1.6845 4.74398,-1.6277 6.54098,0.1689l1.9815,1.9815l0.0947,0.085c0.4581,0.3736 1.1188,0.3736 1.5772,0l0.0957,-0.086c0.457,-0.4578 0.4852,-1.1812 0.0849,-1.6719l-0.0849,-0.0947l-3.0704,-3.0713c-0.214,-0.2144 -0.2789,-0.5374 -0.163,-0.8174c0.1161,-0.2799 0.3902,-0.4627 0.6933,-0.4628h1.1328c0.0125,-0.0007 0.0255,-0.002 0.0381,-0.002h0.5303l0.166,-0.0088c0.8208,-0.0833 1.4617,-0.7764 1.4619,-1.6191l-0.0107,-0.1866c-0.0424,-0.3681 -0.2094,-0.7114 -0.4727,-0.9716l-0.1396,-0.1231l-2.2842,-1.79002c-0.3776,-0.29604 -0.7162,-0.64054 -1.0049,-1.02344v-0.00097l-1.6992,-2.25293zM16.4221,9.44901c0.5521,0.00026 1,0.44788 1,0.99999c0,0.5521 -0.4479,0.9997 -1,1c-0.5523,0 -1,-0.4477 -1,-1c0,-0.55228 0.4477,-0.99999 1,-0.99999z" fill="#002B51"/>
</svg>
