<svg width="24" height="24" viewBox="0 0 24 24" fill="none" xmlns="http://www.w3.org/2000/svg">
<path d="M11.0871,4.10431c1.1141,-0.99694 2.859,-0.83911 3.7715,0.3711l1.7002,2.2539l0.1845,0.2295c0.1922,0.22311 0.4056,0.42744 0.6377,0.60937l2.2832,1.78906l0.1162,0.09668c0.5646,0.49715 0.8906,1.21468 0.8907,1.97168c0,1.3605 -1.0335,2.4795 -2.3584,2.6143l-0.2696,0.0136h-0.5097c-0.0067,0.0006 -0.0137,0.002 -0.0205,0.002h-0.5674l2.6435,2.6445l0.1553,0.1709c0.6725,0.8247 0.6724,2.0151 0,2.8399l-0.1553,0.1709c-0.8238,0.8237 -2.127,0.8753 -3.0107,0.1543l-0.1709,-0.1543l-1.9815,-1.9815c-1.4186,-1.4186 -3.691,-1.4626 -5.16304,-0.1328l-0.14063,0.1328l-1.98144,1.9815c-0.8238,0.8238 -2.127,0.8751 -3.01074,0.1543l-0.1709,-0.1543c-0.87862,-0.8787 -0.87866,-2.303 0,-3.1817l1.74707,-1.749c0.06242,-0.5832 0.2085,-1.1414 0.4248,-1.6631l-0.41406,-0.3926c-0.86026,-0.8143 -1.00836,-2.1301 -0.35058,-3.1152l0.07617,-0.11426l0.0791,-0.11035c0.40941,-0.53744 1.04776,-0.85644 1.72851,-0.85645l0.18946,0.00781c0.83542,0.07216 1.53359,0.61781 1.83008,1.36625c0.7486,-0.33192 1.5764,-0.51756 2.4473,-0.51761h0.9345c-0.0315,-0.04204 -0.0634,-0.08388 -0.0976,-0.12403l-0.1338,-0.14551l-1.4395,-1.43945c-1.00544,-1.00572 -1.00538,-2.63584 0,-3.6416zM16.4211,9.44904c-0.5521,0.00026 -1,0.44788 -1,0.99996c0,0.5522 0.4479,0.9998 1,1c0.5522,0 1,-0.4477 1,-1c0,-0.55224 -0.4478,-0.99996 -1,-0.99996z" fill="#002B51"/>
</svg>
