<svg width="24" height="24" viewBox="0 0 24 24" fill="none" xmlns="http://www.w3.org/2000/svg">
<path d="M10.6277,3.8504c1.3211,-1.32056 3.505,-1.16798 4.6298,0.32325l1.7002,2.25488c0.2106,0.27919 0.4566,0.52961 0.7315,0.74512h0.001l2.2832,1.78906v0.00097c0.7563,0.59293 1.1981,1.50112 1.1982,2.46192l-0.0039,0.1611c-0.0822,1.6183 -1.3946,2.9109 -3.0205,2.9639l1.7959,1.7959c1.0063,1.0067 1.0691,2.5996 0.1885,3.6797l-0.1885,0.209c-1.0068,1.0065 -2.5997,1.0692 -3.6797,0.1884l-0.209,-0.1884l-1.9824,-1.9825c-1.2691,-1.2683 -3.3266,-1.2677 -4.59571,0.001l-1.98144,1.9815c-1.0068,1.0065 -2.59967,1.0691 -3.67969,0.1884l-0.20899,-0.1884c-1.07387,-1.074 -1.07356,-2.8149 0,-3.8887l1.625,-1.627c0.06053,-0.4485 0.16687,-0.8829 0.31348,-1.2978l-0.17187,-0.1631c-1.03699,-0.9817 -1.21522,-2.5683 -0.42286,-3.75585l0.00098,-0.00098l0.07617,-0.11523c0.49632,-0.74253 1.33133,-1.1875 2.22364,-1.1875l0.23437,0.00976c0.85158,0.07411 1.58574,0.5484 2.01953,1.23145c0.62339,-0.22412 1.29059,-0.35498 1.98439,-0.37891l-0.8613,-0.86133c-1.20105,-1.20108 -1.20109,-3.14856 0,-4.34961zM14.0603,5.07599c-0.5763,-0.7636 -1.6954,-0.84125 -2.3721,-0.16504c-0.6153,0.61526 -0.6152,1.61322 0,2.22852l1.4395,1.43945l0.1884,0.2041c0.1792,0.21087 0.3302,0.44053 0.4532,0.68164c0.1183,0.23228 0.1076,0.51003 -0.0284,0.73244c-0.1363,0.2224 -0.3787,0.3583 -0.6396,0.3584h-1.3838c-0.8147,0 -1.5826,0.1933 -2.26269,0.5351c-0.20444,0.1028 -0.44474,0.107 -0.65235,0.0108c-0.20764,-0.0963 -0.36044,-0.2824 -0.41406,-0.5049c-0.11666,-0.4839 -0.531,-0.84885 -1.03613,-0.89258l-0.10156,-0.00488c-0.39221,0 -0.75808,0.19621 -0.97559,0.52146h-0.00098l-0.07715,0.1133l0.00098,0.001c-0.38707,0.5799 -0.29996,1.3548 0.20606,1.834l0.54199,0.5127c0.23171,0.2192 0.29865,0.5615 0.16797,0.8525c-0.22305,0.4959 -0.36802,1.0342 -0.41992,1.5996c-0.01599,0.1743 -0.09314,0.338 -0.2168,0.4619l-1.81055,1.8115c-0.48803,0.4883 -0.48793,1.2796 0,1.7676l0.09473,0.086c0.49094,0.4002 1.2153,0.3714 1.67285,-0.086l1.98144,-1.9814c1.85466,-1.8543 4.86176,-1.8553 6.71676,-0.001l1.9825,1.9824l0.0947,0.086c0.4909,0.4002 1.2153,0.3714 1.6728,-0.086l0.086,-0.0947c0.4,-0.4908 0.3714,-1.2152 -0.086,-1.6729l-3.0703,-3.0712c-0.2143,-0.2145 -0.2791,-0.5373 -0.1631,-0.8174c0.1162,-0.28 0.3902,-0.4629 0.6934,-0.4629h1.1328c0.0126,-0.0007 0.0254,-0.002 0.0381,-0.002h0.5303c0.8988,-0.0001 1.6278,-0.7289 1.6279,-1.6279l-0.0107,-0.1865c-0.0496,-0.4297 -0.2691,-0.826 -0.6133,-1.0957l-2.2832,-1.78811v-0.00098c-0.3778,-0.29615 -0.7152,-0.64046 -1.0039,-1.02344zM16.4216,9.44904c0.5523,0.00001 1,0.44772 1,0.99996c0,0.5523 -0.4477,1 -1,1c-0.5523,0 -1,-0.4477 -1,-1c0,-0.55225 0.4477,-0.99996 1,-0.99996z" fill="#002B51"/>
</svg>
