<svg width="24" height="24" viewBox="0 0 24 24" fill="none" xmlns="http://www.w3.org/2000/svg">
<path fill-rule="evenodd" clip-rule="evenodd" d="M5.36084 9.27498C5.93707 6.1319 8.69035 3.75 12 3.75C15.3096 3.75 18.0628 6.13189 18.6391 9.27496C17.3793 9.33026 16.2821 10.252 16.0541 11.5453L15.5331 14.4997C15.3444 15.5699 15.802 16.6046 16.6256 17.2033C15.9138 17.9861 15.006 18.5875 13.9797 18.93C13.5991 18.2273 12.8553 17.75 12 17.75C10.7573 17.75 9.74995 18.7574 9.74995 20C9.74995 21.2426 10.7573 22.25 12 22.25C13.0953 22.25 14.0078 21.4673 14.2088 20.4307C15.7903 19.9613 17.1607 19.0008 18.143 17.7258C19.4935 17.7758 20.7082 16.8233 20.9496 15.4547L21.4705 12.5003C21.6717 11.3594 21.1383 10.2589 20.2101 9.68391C19.8003 5.51065 16.2809 2.25 12 2.25C7.71916 2.25 4.19988 5.51039 3.78986 9.68342C2.86119 10.2583 2.32746 11.3591 2.52869 12.5003L3.04963 15.4547C3.31337 16.9504 4.73968 17.9491 6.23539 17.6854C7.7311 17.4217 8.72981 15.9954 8.46608 14.4997L7.94513 11.5452C7.71713 10.2522 6.62027 9.3306 5.36084 9.27498ZM11.25 20C11.25 19.5858 11.5857 19.25 12 19.25C12.4142 19.25 12.75 19.5858 12.75 20C12.75 20.4142 12.4142 20.75 12 20.75C11.5857 20.75 11.25 20.4142 11.25 20Z" fill="#002B51"/>
</svg>
