<svg width="24" height="24" viewBox="0 0 24 24" fill="none" xmlns="http://www.w3.org/2000/svg">
<path fill-rule="evenodd" clip-rule="evenodd" d="M5.3609 9.27498C5.93713 6.1319 8.69041 3.75 12 3.75C15.3096 3.75 18.0629 6.13189 18.6391 9.27496C17.3794 9.33026 16.2822 10.252 16.0541 11.5453L15.5332 14.4997C15.3445 15.5699 15.8021 16.6046 16.6257 17.2033C15.9139 17.9861 15.0061 18.5875 13.9798 18.93C13.5992 18.2273 12.8553 17.75 12 17.75C10.7574 17.75 9.75002 18.7574 9.75002 20C9.75002 21.2426 10.7574 22.25 12 22.25C13.0953 22.25 14.0079 21.4673 14.2088 20.4307C15.7904 19.9613 17.1607 19.0008 18.143 17.7258C19.4936 17.7758 20.7083 16.8233 20.9496 15.4547L21.4706 12.5003C21.6717 11.3594 21.1384 10.2589 20.2102 9.68391C19.8004 5.51065 16.281 2.25 12 2.25C7.71922 2.25 4.19994 5.51039 3.78992 9.68342C2.86125 10.2583 2.32752 11.3591 2.52875 12.5003L3.04969 15.4547C3.31343 16.9504 4.73974 17.9491 6.23545 17.6854C7.73116 17.4217 8.72987 15.9954 8.46614 14.4997L7.94519 11.5452C7.71719 10.2522 6.62033 9.3306 5.3609 9.27498ZM5.01991 10.7918C4.34004 10.9116 3.88608 11.56 4.00596 12.2398L4.52691 15.1943C4.64679 15.8741 5.29511 16.3281 5.97498 16.2082C6.65484 16.0883 7.1088 15.44 6.98893 14.7601L6.46798 11.8057C6.3481 11.1258 5.69978 10.6719 5.01991 10.7918ZM18.9794 10.7918C18.2995 10.6719 17.6512 11.1259 17.5313 11.8057L17.0104 14.7601C16.8905 15.44 17.3445 16.0883 18.0243 16.2082C18.7042 16.3281 19.3525 15.8741 19.4724 15.1943L19.9934 12.2398C20.1132 11.56 19.6593 10.9117 18.9794 10.7918ZM11.25 20C11.25 19.5858 11.5858 19.25 12 19.25C12.4142 19.25 12.75 19.5858 12.75 20C12.75 20.4142 12.4142 20.75 12 20.75C11.5858 20.75 11.25 20.4142 11.25 20Z" fill="#002B51"/>
</svg>
