<svg width="24" height="24" viewBox="0 0 24 24" fill="none" xmlns="http://www.w3.org/2000/svg">
<path d="M12.0003,2.25c4.2814,0.00009 7.7999,3.26161 8.209,7.43555c0.9281,0.57495 1.4627,1.67365 1.2617,2.81445l-0.5214,2.9551c-0.2418,1.3702 -1.459,2.3203 -2.8116,2.2676c-0.9818,1.2745 -2.3487,2.2348 -3.9296,2.7041c-0.1995,1.0383 -1.1115,1.8231 -2.2081,1.8232c-1.2426,0 -2.24996,-1.0074 -2.24996,-2.25c0,-1.2426 1.00736,-2.25 2.24996,-2.25c0.8539,0.0001 1.5964,0.4759 1.9776,1.1768c1.0274,-0.3427 1.9343,-0.9445 2.6465,-1.7286c-0.8214,-0.599 -1.2792,-1.6295 -1.0909,-2.6982l0.5206,-2.9551c0.2278,-1.2913 1.3226,-2.21093 2.58,-2.26853c-0.5755,-3.14342 -3.324,-5.52629 -6.6338,-5.52637c-3.30995,0 -6.06113,2.38273 -6.63668,5.52637c1.25825,0.05677 2.3541,0.97653 2.58203,2.26853l0.52051,2.9551c0.26354,1.4956 -0.73489,2.9218 -2.23047,3.1855c-1.49558,0.2638 -2.92163,-0.7349 -3.18554,-2.2304l-0.52149,-2.9551c-0.20099,-1.1407 0.33278,-2.2405 1.26074,-2.81543c0.40946,-4.1736 3.92974,-7.43457 8.2109,-7.43457zM12.0003,19.25c-0.4142,0 -0.75,0.3358 -0.75,0.75c0,0.4142 0.3358,0.75 0.75,0.75c0.4142,-0.0001 0.75,-0.3358 0.75,-0.75c0,-0.4142 -0.3358,-0.7499 -0.75,-0.75zM6.46812,11.8057c-0.11991,-0.6799 -0.7684,-1.1336 -1.44825,-1.0137c-0.67974,0.12 -1.13353,0.7684 -1.01367,1.4482l0.52051,2.9541c0.11988,0.6798 0.76843,1.1335 1.44824,1.0137c0.67987,-0.1199 1.13355,-0.7684 1.01367,-1.4482zM18.9798,10.792c-0.6798,-0.1199 -1.3283,0.3338 -1.4482,1.0137l-0.5215,2.9541c-0.1199,0.6798 0.3348,1.3283 1.0147,1.4482c0.6797,0.1198 1.3283,-0.3339 1.4482,-1.0137l0.5205,-2.9541c0.1199,-0.6797 -0.334,-1.3282 -1.0137,-1.4482z" fill="#002B51"/>
</svg>
