<svg width="24" height="24" viewBox="0 0 24 24" fill="none" xmlns="http://www.w3.org/2000/svg">
<path fill-rule="evenodd" clip-rule="evenodd" d="M21.4705,12.5003l-0.5209,2.9544c-0.2416,1.3699 -1.4582,2.3228 -2.8103,2.2709c-0.9816,1.2739 -2.3498,2.2333 -3.93,2.7025c-0.1999,1.0379 -1.1131,1.8219 -2.2093,1.8219c-1.2427,0 -2.25005,-1.0074 -2.25005,-2.25c0,-1.2426 1.00735,-2.25 2.25005,-2.25c0.8548,0 1.5983,0.4767 1.9791,1.1788c1.0262,-0.3423 1.9336,-0.9436 2.6453,-1.7264c-0.8228,-0.5988 -1.2799,-1.633 -1.0913,-2.7027l0.521,-2.9544c0.2278,-1.2923 1.3235,-2.21361 2.582,-2.27021c-0.5759,-3.14306 -3.3266,-5.52509 -6.6361,-5.52509c-3.30963,0 -6.06119,2.382 -6.6372,5.52506c1.25861,0.05649 2.35445,0.97784 2.58233,2.27014l0.52095,2.9545c0.26373,1.4957 -0.73498,2.922 -2.23069,3.1857c-1.49571,0.2637 -2.92202,-0.735 -3.18576,-2.2307l-0.52094,-2.9544c-0.20123,-1.1412 0.3325,-2.242 1.26117,-2.81688c0.41002,-4.17303 3.9293,-7.43342 8.21014,-7.43342c4.2809,0 7.8003,3.26065 8.2101,7.43391c0.9282,0.57499 1.4616,1.67549 1.2604,2.81639zM11.25,20c0,0.4142 0.3357,0.75 0.75,0.75c0.4142,0 0.75,-0.3358 0.75,-0.75c0,-0.4142 -0.3358,-0.75 -0.75,-0.75c-0.4143,0 -0.75,0.3358 -0.75,0.75z" fill="#002B51"/>
</svg>
