<svg width="24" height="24" viewBox="0 0 24 24" fill="none" xmlns="http://www.w3.org/2000/svg">
<path fill-rule="evenodd" clip-rule="evenodd" d="M7.94513,11.5452l0.52095,2.9545c0.26373,1.4957 -0.73498,2.922 -2.23069,3.1857c-1.49571,0.2637 -2.92202,-0.735 -3.18576,-2.2307l-0.52094,-2.9544c-0.20123,-1.1412 0.3325,-2.242 1.26117,-2.81688c0.41002,-4.17303 3.9293,-7.43342 8.21014,-7.43342c4.2809,0 7.8003,3.26065 8.2101,7.43391c0.9282,0.57499 1.4616,1.67549 1.2604,2.81639l-0.5209,2.9544c-0.2414,1.3686 -1.4561,2.3211 -2.8066,2.2711c-0.9823,1.275 -2.3527,2.2355 -3.9342,2.7049c-0.201,1.0366 -1.1135,1.8193 -2.2088,1.8193c-1.2427,0 -2.25005,-1.0074 -2.25005,-2.25c0,-1.2426 1.00735,-2.25 2.25005,-2.25c0.8553,0 1.5991,0.4773 1.9797,1.18c1.0263,-0.3425 1.9341,-0.9439 2.6459,-1.7267c-0.8236,-0.5987 -1.2812,-1.6334 -1.0925,-2.7036l0.521,-2.9544c0.228,-1.2933 1.3252,-2.21504 2.585,-2.27034c-0.5763,-3.14307 -3.3295,-5.52496 -6.6391,-5.52496c-3.30965,0 -6.06293,2.3819 -6.63916,5.52498c1.25943,0.05562 2.35629,0.97722 2.58429,2.27022zM12,20.75c0.4142,0 0.75,-0.3358 0.75,-0.75c0,-0.4142 -0.3358,-0.75 -0.75,-0.75c-0.4143,0 -0.75,0.3358 -0.75,0.75c0,0.4142 0.3357,0.75 0.75,0.75z" fill="#002B51"/>
</svg>
