<svg width="24" height="24" viewBox="0 0 24 24" fill="none" xmlns="http://www.w3.org/2000/svg">
<path fill-rule="evenodd" clip-rule="evenodd" d="M7.94519,11.5452l0.52095,2.9545c0.26373,1.4957 -0.73498,2.922 -2.23069,3.1857c-1.49571,0.2637 -2.92202,-0.735 -3.18576,-2.2307l-0.52094,-2.9544c-0.20123,-1.1412 0.3325,-2.242 1.26117,-2.81688c0.41002,-4.17303 3.9293,-7.43342 8.21008,-7.43342c4.281,0 7.8004,3.26065 8.2102,7.43391c0.9282,0.57499 1.4615,1.67549 1.2604,2.81639l-0.521,2.9544c-0.2413,1.3686 -1.456,2.3211 -2.8066,2.2711c-0.9823,1.275 -2.3526,2.2355 -3.9342,2.7049c-0.2009,1.0366 -1.1135,1.8193 -2.2088,1.8193c-1.2426,0 -2.24998,-1.0074 -2.24998,-2.25c0,-1.2426 1.00738,-2.25 2.24998,-2.25c0.8553,0 1.5992,0.4773 1.9798,1.18c1.0263,-0.3425 1.9341,-0.9439 2.6459,-1.7267c-0.8236,-0.5987 -1.2812,-1.6334 -1.0925,-2.7036l0.5209,-2.9544c0.2281,-1.2933 1.3253,-2.21504 2.585,-2.27034c-0.5762,-3.14307 -3.3295,-5.52496 -6.6391,-5.52496c-3.30959,0 -6.06287,2.3819 -6.6391,5.52498c1.25943,0.05562 2.35629,0.97722 2.58429,2.27022zM5.01991,10.7918c-0.67987,0.1198 -1.13383,0.7682 -1.01395,1.448l0.52095,2.9545c0.11988,0.6798 0.7682,1.1338 1.44807,1.0139c0.67986,-0.1199 1.13382,-0.7682 1.01395,-1.4481l-0.52095,-2.9544c-0.11988,-0.6799 -0.7682,-1.1338 -1.44807,-1.0139zM18.9794,10.7918c-0.6799,-0.1199 -1.3282,0.3341 -1.4481,1.0139l-0.5209,2.9544c-0.1199,0.6799 0.3341,1.3282 1.0139,1.4481c0.6799,0.1199 1.3282,-0.3341 1.4481,-1.0139l0.521,-2.9545c0.1198,-0.6798 -0.3341,-1.3281 -1.014,-1.448zM12,20.75c0.4142,0 0.75,-0.3358 0.75,-0.75c0,-0.4142 -0.3358,-0.75 -0.75,-0.75c-0.4142,0 -0.75,0.3358 -0.75,0.75c0,0.4142 0.3358,0.75 0.75,0.75z" fill="#002B51"/>
</svg>
