<svg width="24" height="24" viewBox="0 0 24 24" fill="none" xmlns="http://www.w3.org/2000/svg">
<path fill-rule="evenodd" clip-rule="evenodd" d="M3.80789,4.78481c1.10919,-1.18714 2.59419,-1.78484 4.081,-1.78484c1.43861,0 2.58971,0.43347 3.37911,0.86553c0.2934,0.16056 0.5385,0.32177 0.732,0.46228c0.1935,-0.14051 0.4386,-0.30172 0.732,-0.46228c0.7894,-0.43206 1.9405,-0.86553 3.3791,-0.86553c1.4868,0 2.9718,0.5977 4.081,1.78484c1.1126,1.1908 1.8079,2.93031 1.8079,5.15266c0,3.31613 -2.3511,6.08723 -4.6073,7.95733c-1.1481,0.9516 -2.3192,1.71 -3.257,2.2328c-0.4688,0.2613 -0.8865,0.4678 -1.2207,0.6115c-0.1663,0.0715 -0.3203,0.1311 -0.4547,0.1743c-0.1092,0.035 -0.2849,0.0866 -0.4603,0.0866c-0.1754,0 -0.3511,-0.0516 -0.4603,-0.0866c-0.1344,-0.0432 -0.2884,-0.1028 -0.4547,-0.1743c-0.3342,-0.1437 -0.7519,-0.3502 -1.22066,-0.6115c-0.9378,-0.5228 -2.10893,-1.2812 -3.25701,-2.2328c-2.25618,-1.8701 -4.60733,-4.6412 -4.60733,-7.95733c0,-2.22235 0.69528,-3.96187 1.80789,-5.15266zM11.1708,8.16456c-0.1271,-0.25409 -0.3868,-0.41459 -0.6709,-0.41459c-0.284,0 -0.54374,0.1605 -0.67078,0.41459l-1.29271,2.58544h-1.78647c-0.41421,0 -0.75,0.3358 -0.75,0.75c0,0.4142 0.33579,0.75 0.75,0.75h2.25c0.28408,0 0.54378,-0.1605 0.67082,-0.4146l0.82914,-1.6584l2.3292,4.6584c0.1271,0.2541 0.3868,0.4146 0.6708,0.4146c0.2841,0 0.5438,-0.1605 0.6709,-0.4146l1.2927,-2.5854h1.7864c0.4143,0 0.75,-0.3358 0.75,-0.75c0,-0.4142 -0.3357,-0.75 -0.75,-0.75h-2.25c-0.284,0 -0.5437,0.1605 -0.6708,0.4146l-0.8292,1.6583z" fill="#002B51"/>
</svg>
