<svg width="24" height="24" viewBox="0 0 24 24" fill="none" xmlns="http://www.w3.org/2000/svg">
<path fill-rule="evenodd" clip-rule="evenodd" d="M11.9999 4.32769C11.8065 4.1872 11.5615 4.02605 11.2682 3.86553C10.4787 3.43347 9.32763 3 7.88901 3C6.4022 3 4.9172 3.5977 3.80801 4.78484C2.6954 5.97564 2.00012 7.71515 2.00012 9.9375C2.00012 13.2536 4.35127 16.0247 6.60745 17.8948C7.75553 18.8464 8.92666 19.6049 9.86446 20.1276C10.3332 20.3889 10.751 20.5954 11.0851 20.7391C11.2514 20.8106 11.4054 20.8702 11.5399 20.9134C11.649 20.9484 11.8246 21 11.9999 21V19.4857L11.9986 19.4853C11.9241 19.4613 11.8169 19.421 11.6776 19.3611C11.4005 19.2419 11.0294 19.0597 10.5948 18.8174C9.72596 18.3331 8.63276 17.6253 7.56469 16.74C5.38857 14.9362 3.50012 12.5511 3.50012 9.9375C3.50012 8.03485 4.08957 6.68061 4.90404 5.80891C5.72193 4.93355 6.80637 4.5 7.88901 4.5C9.01981 4.5 9.92427 4.83997 10.548 5.18135C10.8598 5.35197 11.0985 5.52143 11.2559 5.64505C11.3344 5.70673 11.3922 5.75657 11.4282 5.78882C11.4461 5.80493 11.4586 5.8166 11.4655 5.82311L11.4712 5.82862L11.4713 5.82868L11.4714 5.82883C11.6119 5.96842 11.8018 6.04683 11.9999 6.04688V4.32769Z" fill="#002B51"/>
</svg>
