<svg width="24" height="24" viewBox="0 0 24 24" fill="none" xmlns="http://www.w3.org/2000/svg">
<path fill-rule="evenodd" clip-rule="evenodd" d="M14.1357,20.1279c-0.4687,0.2613 -0.8866,0.4677 -1.2207,0.6114c-0.1662,0.0715 -0.3206,0.1306 -0.455,0.1738c-0.1092,0.035 -0.2847,0.0869 -0.46,0.0869c-0.1753,0 -0.3508,-0.0519 -0.46,-0.0869c-0.1344,-0.0432 -0.2888,-0.1023 -0.455,-0.1738c-0.3341,-0.1437 -0.752,-0.3501 -1.22074,-0.6114c-0.9378,-0.5227 -2.10876,-1.2818 -3.25684,-2.2334c-2.25616,-1.8701 -4.60742,-4.6409 -4.60742,-7.957c0,-2.22216 0.69517,-3.96156 1.80762,-5.15234c1.10914,-1.18708 2.59432,-1.7851 4.08105,-1.78516c1.43832,0 2.58943,0.43326 3.37893,0.86523c0.2932,0.16048 0.5389,0.32146 0.7324,0.46192c0.1935,-0.14046 0.4392,-0.30144 0.7324,-0.46192c0.7895,-0.43197 1.9406,-0.86523 3.3789,-0.86523c1.4868,0.00006 2.9719,0.59808 4.0811,1.78516c1.1124,1.19078 1.8076,2.93017 1.8076,5.15234c0,3.3161 -2.3513,6.0869 -4.6074,7.957c-1.1481,0.9516 -2.3191,1.7107 -3.2569,2.2334z" fill="#002B51"/>
</svg>
