<svg width="24" height="24" viewBox="0 0 24 24" fill="none" xmlns="http://www.w3.org/2000/svg">
<path d="M9.29977,3.25c0.32168,0 0.60795,0.20505 0.71093,0.50977l4.6885,13.89453l1.9902,-5.8945l0.0469,-0.1094c0.1281,-0.2434 0.3826,-0.4004 0.6641,-0.4004h3.5996l0.0771,0.0039c0.378,0.0386 0.6729,0.3579 0.6729,0.7461c0,0.3882 -0.2949,0.7075 -0.6729,0.7461l-0.0771,0.0039h-3.0616l-2.5283,7.4902c-0.103,0.3046 -0.3884,0.5097 -0.7099,0.5098c-0.3217,0 -0.608,-0.205 -0.711,-0.5098l-4.68943,-13.89547l-1.98925,5.89547c-0.10301,0.3047 -0.38929,0.5098 -0.71094,0.5098h-3.59961c-0.41421,0 -0.75,-0.3358 -0.75,-0.75c0,-0.4142 0.33579,-0.75 0.75,-0.75h3.06152l2.52832,-7.49023l0.04688,-0.10938c0.12811,-0.24324 0.38176,-0.40032 0.66308,-0.40039z" fill="#002B51"/>
</svg>
