<svg width="24" height="24" viewBox="0 0 24 24" fill="none" xmlns="http://www.w3.org/2000/svg">
<path fill-rule="evenodd" clip-rule="evenodd" d="M7.56463,16.74c1.06807,0.8853 2.16127,1.5931 3.03007,2.0774c0.4346,0.2423 0.8058,0.4245 1.0829,0.5437c0.1393,0.0599 0.2465,0.1002 0.3209,0.1242l0.0016,0.0005l0.0015,-0.0005c0.0745,-0.024 0.1816,-0.0643 0.3209,-0.1242c0.2772,-0.1192 0.6483,-0.3014 1.0829,-0.5437c0.8688,-0.4843 1.962,-1.1921 3.0301,-2.0774c2.1761,-1.8038 4.0646,-4.1889 4.0646,-6.8025c0,-1.90265 -0.5895,-3.25689 -1.4039,-4.12859c-0.8179,-0.87536 -1.9024,-1.30891 -2.985,-1.30891c-1.1308,0 -2.0353,0.33997 -2.659,0.68135c-0.3118,0.17062 -0.5505,0.34008 -0.7079,0.4637c-0.0786,0.06168 -0.1363,0.11152 -0.1723,0.14377c-0.018,0.01611 -0.0304,0.02778 -0.0373,0.03429l-0.0057,0.00552l-0.0001,0.00005l-0.0001,0.00015c-0.1405,0.13963 -0.3306,0.21805 -0.5287,0.21805c-0.1982,0 -0.3883,-0.07842 -0.5287,-0.21805l-0.0002,-0.00015l-0.0001,-0.00006l-0.0057,-0.00551c-0.0068,-0.00651 -0.0193,-0.01818 -0.0373,-0.03429c-0.036,-0.03225 -0.0937,-0.08209 -0.1723,-0.14377c-0.1574,-0.12362 -0.3961,-0.29308 -0.7078,-0.4637c-0.62379,-0.34138 -1.52825,-0.68135 -2.65905,-0.68135c-1.08264,0 -2.16708,0.43355 -2.98497,1.30891c-0.81447,0.8717 -1.40392,2.22594 -1.40392,4.12859c0,2.6136 1.88845,4.9987 4.06457,6.8025zM11.2681,3.86553c0.2934,0.16056 0.5384,0.32177 0.732,0.46228c0.1935,-0.14051 0.4385,-0.30172 0.7319,-0.46228c0.7895,-0.43206 1.9406,-0.86553 3.3792,-0.86553c1.4868,0 2.9718,0.5977 4.081,1.78484c1.1126,1.1908 1.8079,2.93031 1.8079,5.15266c0,3.3161 -2.3512,6.0872 -4.6074,7.9573c-1.148,0.9516 -2.3192,1.7101 -3.257,2.2328c-0.4687,0.2613 -0.8865,0.4678 -1.2206,0.6115c-0.1663,0.0715 -0.3203,0.1311 -0.4548,0.1743c-0.1091,0.0351 -0.2849,0.0866 -0.4602,0.0866c-0.1754,0 -0.3512,-0.0515 -0.4603,-0.0866c-0.1344,-0.0432 -0.2885,-0.1028 -0.4548,-0.1743c-0.3341,-0.1437 -0.7519,-0.3502 -1.2206,-0.6115c-0.9378,-0.5227 -2.10893,-1.2812 -3.25701,-2.2328c-2.25618,-1.8701 -4.60733,-4.6412 -4.60733,-7.9573c0,-2.22235 0.69528,-3.96186 1.80789,-5.15266c1.10919,-1.18714 2.59419,-1.78484 4.081,-1.78484c1.43861,0 2.58975,0.43347 3.37915,0.86553zM13.5,12.8229l0.8292,-1.6583c0.127,-0.2541 0.3867,-0.4146 0.6708,-0.4146h2.25c0.4142,0 0.75,0.3358 0.75,0.75c0,0.4142 -0.3358,0.75 -0.75,0.75h-1.7865l-1.2927,2.5854c-0.127,0.2541 -0.3867,0.4146 -0.6708,0.4146c-0.2841,0 -0.5438,-0.1605 -0.6708,-0.4146l-2.3292,-4.6583l-0.82918,1.6583c-0.12704,0.2541 -0.38674,0.4146 -0.67082,0.4146h-2.25c-0.41421,0 -0.75,-0.3358 -0.75,-0.75c0,-0.4142 0.33579,-0.75 0.75,-0.75h1.78647l1.29271,-2.58541c0.12704,-0.25409 0.38672,-0.41459 0.67082,-0.41459c0.2841,0 0.5438,0.1605 0.6708,0.41459z" fill="#002B51"/>
</svg>
