<svg width="24" height="24" viewBox="0 0 24 24" fill="none" xmlns="http://www.w3.org/2000/svg">
<path fill-rule="evenodd" clip-rule="evenodd" d="M11.9999,6.04688c-0.1495,-0.00004 -0.2943,-0.04499 -0.4168,-0.12696l-0.1113,-0.09082h-0.001v-0.00098l-0.001,-0.00097h-0.0009v-0.00098l-0.003,-0.00293c-0.0043,-0.00415 -0.0113,-0.01036 -0.0205,-0.0185c-0.0052,-0.00462 -0.011,-0.00985 -0.0175,-0.01568c-0.036,-0.03221 -0.0936,-0.08201 -0.1719,-0.14355c-0.1574,-0.12361 -0.3963,-0.29326 -0.708,-0.46387c-0.62378,-0.34138 -1.52841,-0.68164 -2.65921,-0.68164c-1.08242,0.00006 -2.16657,0.43353 -2.98437,1.30859c-0.81447,0.87171 -1.4043,2.22626 -1.4043,4.12891c0,2.6136 1.88834,4.999 4.06446,6.8027c1.06805,0.8853 2.16145,1.5929 3.03022,2.0772c0.4346,0.2422 0.8059,0.4248 1.0831,0.5439c0.1389,0.0598 0.2459,0.1001 0.3203,0.1241h0.0017v1.5146c-0.1752,0 -0.3506,-0.0519 -0.4597,-0.0869c-0.1344,-0.0432 -0.2888,-0.1023 -0.4551,-0.1738c-0.3341,-0.1437 -0.752,-0.3501 -1.22072,-0.6114c-0.9378,-0.5227 -2.10876,-1.2818 -3.25684,-2.2334c-2.25615,-1.8701 -4.60742,-4.6409 -4.60742,-7.957c0,-2.22216 0.69517,-3.96156 1.80762,-5.15234c1.10914,-1.18708 2.59432,-1.7851 4.08105,-1.78516c1.43832,0 2.58951,0.43326 3.37891,0.86523c0.2931,0.16043 0.5388,0.32136 0.7322,0.46179z" fill="#002B51"/>
</svg>
