<svg width="24" height="24" viewBox="0 0 24 24" fill="none" xmlns="http://www.w3.org/2000/svg">
<path d="M16.1113,2.99997c1.4868,0.00006 2.9719,0.59808 4.0811,1.78516c1.1124,1.19078 1.8076,2.93017 1.8076,5.15234c0,3.31603 -2.3513,6.08693 -4.6074,7.95703c-1.1481,0.9516 -2.3191,1.7106 -3.2569,2.2334c-0.4687,0.2613 -0.8866,0.4677 -1.2207,0.6113c-0.1662,0.0715 -0.3206,0.1307 -0.455,0.1739c-0.1092,0.035 -0.2847,0.0869 -0.46,0.0869c-0.1753,0 -0.3508,-0.0519 -0.46,-0.0869c-0.1344,-0.0432 -0.2888,-0.1024 -0.455,-0.1739c-0.3341,-0.1436 -0.752,-0.35 -1.22074,-0.6113c-0.9378,-0.5228 -2.10876,-1.2818 -3.25684,-2.2334c-2.25616,-1.8701 -4.60742,-4.641 -4.60742,-7.95703c0,-2.22216 0.69517,-3.96156 1.80762,-5.15234c1.10914,-1.18708 2.59432,-1.7851 4.08105,-1.78516c1.16271,0 2.13673,0.28537 2.88473,0.62207c-0.97229,1.28381 -1.52339,3.10394 -1.5234,5.37793c0.00003,0.19888 0.0791,0.38964 0.21973,0.53027l2.67187,2.67186l-0.8535,2.5606c-0.1309,0.3928 0.0818,0.8171 0.4746,0.9482c0.3929,0.1309 0.8182,-0.0808 0.9492,-0.4736l1,-3c0.0898,-0.2695 0.0192,-0.5667 -0.1816,-0.7676l-2.7744,-2.77442c0.0542,-2.2204 0.7016,-3.71582 1.5976,-4.60742c0.1156,-0.07294 0.2421,-0.1478 0.3789,-0.22266c0.7895,-0.43197 1.9406,-0.86523 3.3789,-0.86523z" fill="#002B51"/>
</svg>
