<svg width="24" height="24" viewBox="0 0 24 24" fill="none" xmlns="http://www.w3.org/2000/svg">
<path fill-rule="evenodd" clip-rule="evenodd" d="M9.24994,8.99987c0,0.19892 0.07902,0.38968 0.21967,0.53034l2.67219,2.67219l-0.8534,2.5603c-0.131,0.3929 0.0814,0.8177 0.4744,0.9487c0.3929,0.1309 0.8177,-0.0814 0.9487,-0.4744l1,-3c0.0898,-0.2695 0.0196,-0.5666 -0.1812,-0.7675l-2.7766,-2.77655c0.0544,-2.21318 0.6987,-3.70706 1.5912,-4.59918c0.1177,-0.07468 0.2469,-0.15155 0.3871,-0.22827c0.7894,-0.43206 1.9405,-0.86553 3.3791,-0.86553c1.4868,0 2.9718,0.5977 4.081,1.78484c1.1126,1.1908 1.8079,2.93031 1.8079,5.15266c0,3.31613 -2.3511,6.08723 -4.6073,7.95733c-1.1481,0.9516 -2.3192,1.71 -3.257,2.2328c-0.4688,0.2613 -0.8865,0.4678 -1.2207,0.6115c-0.1663,0.0715 -0.3203,0.1311 -0.4547,0.1743c-0.1092,0.035 -0.2849,0.0866 -0.4603,0.0866c-0.1754,0 -0.3511,-0.0516 -0.4603,-0.0866c-0.1344,-0.0432 -0.2884,-0.1028 -0.4547,-0.1743c-0.3342,-0.1437 -0.7519,-0.3502 -1.22066,-0.6115c-0.9378,-0.5228 -2.10893,-1.2812 -3.25701,-2.2328c-2.25618,-1.8701 -4.60733,-4.6412 -4.60733,-7.95733c0,-2.22235 0.69528,-3.96187 1.80789,-5.15266c1.10919,-1.18714 2.59419,-1.78484 4.081,-1.78484c1.1616,0 2.13571,0.28261 2.88341,0.61889c-0.97301,1.28386 -1.52235,3.10615 -1.52236,5.38101z" fill="#002B51"/>
</svg>
