<svg width="24" height="24" viewBox="0 0 24 24" fill="none" xmlns="http://www.w3.org/2000/svg">
<path d="M16.1114,3c1.4867,0.00006 2.9719,0.59808 4.081,1.78516c1.1125,1.19078 1.8076,2.93017 1.8076,5.15234c0,3.3161 -2.3512,6.0869 -4.6074,7.957c-1.1481,0.9516 -2.319,1.7107 -3.2568,2.2334c-0.4687,0.2613 -0.8866,0.4677 -1.2207,0.6114c-0.1663,0.0715 -0.3207,0.1306 -0.4551,0.1738c-0.1091,0.035 -0.2847,0.0869 -0.46,0.0869c-0.1752,0 -0.3508,-0.0519 -0.4599,-0.0869c-0.1344,-0.0432 -0.2888,-0.1023 -0.4551,-0.1738c-0.3341,-0.1437 -0.752,-0.3501 -1.2207,-0.6114c-0.93779,-0.5227 -2.10876,-1.2818 -3.25683,-2.2334c-2.25616,-1.8701 -4.60742,-4.6409 -4.60742,-7.957c0,-2.22216 0.69517,-3.96156 1.80761,-5.15234c1.10914,-1.18708 2.59432,-1.7851 4.08106,-1.78516c1.43832,0 2.58948,0.43326 3.37888,0.86523c0.2932,0.16048 0.539,0.32146 0.7324,0.46192c0.1935,-0.14046 0.4392,-0.30144 0.7325,-0.46192c0.7894,-0.43197 1.9406,-0.86523 3.3789,-0.86523zM16.1114,4.5c-1.1308,0 -2.0355,0.34026 -2.6592,0.68164c-0.3117,0.17061 -0.5506,0.34026 -0.708,0.46387c-0.0784,0.06154 -0.136,0.11134 -0.1719,0.14355c-0.018,0.01611 -0.0312,0.02768 -0.0381,0.03418c-0.0014,0.00136 -0.003,0.00206 -0.0039,0.00293c-0.1407,0.14095 -0.3311,0.22071 -0.5303,0.22071c-0.1496,0 -0.2944,-0.04495 -0.4169,-0.12696l-0.1114,-0.09082h-0.001v-0.00098l-0.0009,-0.00097h-0.001v-0.00098c-0.0008,-0.00079 -0.0018,-0.00181 -0.0029,-0.00293c-0.0069,-0.0065 -0.0202,-0.01807 -0.0381,-0.03418c-0.036,-0.03221 -0.0935,-0.08201 -0.1719,-0.14355c-0.1574,-0.12361 -0.3963,-0.29326 -0.708,-0.46387c-0.62376,-0.34138 -1.52839,-0.68164 -2.65918,-0.68164c-1.08242,0.00006 -2.16658,0.43353 -2.98438,1.30859c-0.81447,0.87171 -1.40429,2.22626 -1.40429,4.12891c0,2.6136 1.88833,4.999 4.06445,6.8027c1.06805,0.8853 2.16145,1.5929 3.0303,2.0772c0.4345,0.2422 0.8059,0.4248 1.083,0.5439c0.1389,0.0598 0.2459,0.1001 0.3203,0.1241h0.0039c0.0744,-0.024 0.1813,-0.0643 0.3203,-0.1241c0.2771,-0.1191 0.6485,-0.3017 1.083,-0.5439c0.8688,-0.4843 1.9622,-1.1919 3.0303,-2.0772c2.1761,-1.8037 4.0644,-4.1891 4.0644,-6.8027c0,-1.90265 -0.5898,-3.2572 -1.4043,-4.12891c-0.8177,-0.87505 -1.9019,-1.30853 -2.9843,-1.30859zM12.5313,5.82715h-0.001l-0.001,0.00097v0.00098h-0.0009c0.0003,-0.00031 0.0008,-0.00183 0.0019,-0.00293z" fill="#002B51"/>
</svg>
