<svg width="24" height="24" viewBox="0 0 24 24" fill="none" xmlns="http://www.w3.org/2000/svg">
<path fill-rule="evenodd" clip-rule="evenodd" d="M10.7723 3.61886C10.0246 3.28258 9.05049 2.99997 7.88889 2.99997C6.40208 2.99997 4.91708 3.59767 3.80789 4.78481C2.69528 5.9756 2 7.71512 2 9.93747C2 13.2536 4.35115 16.0247 6.60733 17.8948C7.75541 18.8464 8.92654 19.6048 9.86434 20.1276C10.3331 20.3889 10.7508 20.5954 11.085 20.7391C11.2513 20.8106 11.4053 20.8702 11.5397 20.9134C11.6489 20.9484 11.8246 21 12 21C12.1754 21 12.3511 20.9484 12.4603 20.9134C12.5947 20.8702 12.7487 20.8106 12.915 20.7391C13.2492 20.5954 13.6669 20.3889 14.1357 20.1276C15.0735 19.6048 16.2446 18.8464 17.3927 17.8948C19.6489 16.0247 22 13.2536 22 9.93747C22 7.71512 21.3047 5.97561 20.1921 4.78481C19.0829 3.59767 17.5979 2.99997 16.1111 2.99997C14.6725 2.99997 13.5214 3.43344 12.732 3.8655C12.5918 3.94222 12.4626 4.01909 12.3449 4.09377C11.4524 4.98589 10.8081 6.47977 10.7537 8.69295L13.5303 11.4695C13.7311 11.6704 13.8013 11.9675 13.7115 12.237L12.7115 15.237C12.5805 15.63 12.1557 15.8423 11.7628 15.7114C11.3698 15.5804 11.1574 15.1556 11.2884 14.7627L12.1418 12.2024L9.46961 9.53021C9.32896 9.38955 9.24994 9.19879 9.24994 8.99987C9.24995 6.72501 9.79929 4.90272 10.7723 3.61886Z" fill="#002B51"/>
</svg>
