<svg width="24" height="24" viewBox="0 0 24 24" fill="none" xmlns="http://www.w3.org/2000/svg">
<path fill-rule="evenodd" clip-rule="evenodd" d="M3.50006 9.9375C3.50006 8.03485 4.08951 6.68061 4.90398 5.80891C5.72187 4.93355 6.80631 4.5 7.88895 4.5C9.01975 4.5 9.92421 4.83997 10.548 5.18135C10.8597 5.35197 11.0984 5.52143 11.2558 5.64505C11.3344 5.70673 11.3921 5.75657 11.4281 5.78882C11.4461 5.80493 11.4586 5.8166 11.4654 5.82311L11.4711 5.82862L11.4712 5.82868L11.4714 5.82883C11.6118 5.96846 11.8019 6.04688 12.0001 6.04688C12.1982 6.04688 12.3883 5.96846 12.5288 5.82883L12.5289 5.82868L12.529 5.82863L12.5347 5.82311C12.5416 5.8166 12.554 5.80493 12.572 5.78882C12.608 5.75657 12.6657 5.70673 12.7443 5.64505C12.9017 5.52143 13.1404 5.35197 13.4522 5.18135C14.0759 4.83997 14.9804 4.5 16.1112 4.5C17.1938 4.5 18.2783 4.93355 19.0962 5.80891C19.9106 6.68061 20.5001 8.03485 20.5001 9.9375C20.5001 12.5511 18.6116 14.9362 16.4355 16.74C15.3674 17.6253 14.2742 18.3331 13.4054 18.8174C12.9708 19.0597 12.5997 19.2419 12.3225 19.3611C12.1832 19.421 12.0761 19.4613 12.0016 19.4853L12.0001 19.4858L11.9985 19.4853C11.9241 19.4613 11.8169 19.421 11.6776 19.3611C11.4005 19.2419 11.0293 19.0597 10.5947 18.8174C9.7259 18.3331 8.6327 17.6253 7.56463 16.74C5.38851 14.9362 3.50006 12.5511 3.50006 9.9375ZM7.88895 3C6.40214 3 4.91714 3.5977 3.80795 4.78484C2.69534 5.97564 2.00006 7.71515 2.00006 9.9375C2.00006 13.2536 4.35121 16.0247 6.60739 17.8948C7.75547 18.8464 8.9266 19.6049 9.8644 20.1276C10.3331 20.3889 10.7509 20.5954 11.085 20.7391C11.2513 20.8106 11.4054 20.8702 11.5398 20.9134C11.6489 20.9485 11.8247 21 12.0001 21C12.1754 21 12.3512 20.9485 12.4603 20.9134C12.5948 20.8702 12.7488 20.8106 12.9151 20.7391C13.2492 20.5954 13.667 20.3889 14.1357 20.1276C15.0735 19.6049 16.2447 18.8464 17.3927 17.8948C19.6489 16.0247 22.0001 13.2536 22.0001 9.9375C22.0001 7.71515 21.3048 5.97564 20.1922 4.78484C19.083 3.5977 17.598 3 16.1112 3C14.6726 3 13.5215 3.43347 12.732 3.86553C12.4386 4.02609 12.1936 4.1873 12.0001 4.32781C11.8065 4.1873 11.5615 4.02609 11.2681 3.86553C10.4787 3.43347 9.32756 3 7.88895 3ZM11.1708 8.16459C11.0438 7.9105 10.7841 7.75 10.5 7.75C10.2159 7.75 9.95622 7.9105 9.82918 8.16459L8.53647 10.75H6.75C6.33579 10.75 6 11.0858 6 11.5C6 11.9142 6.33579 12.25 6.75 12.25H9C9.28408 12.25 9.54378 12.0895 9.67082 11.8354L10.5 10.1771L12.8292 14.8354C12.9562 15.0895 13.2159 15.25 13.5 15.25C13.7841 15.25 14.0438 15.0895 14.1708 14.8354L15.4635 12.25H17.25C17.6642 12.25 18 11.9142 18 11.5C18 11.0858 17.6642 10.75 17.25 10.75H15C14.7159 10.75 14.4562 10.9105 14.3292 11.1646L13.5 12.8229L11.1708 8.16459Z" fill="#002B51"/>
</svg>
