<svg width="24" height="24" viewBox="0 0 24 24" fill="none" xmlns="http://www.w3.org/2000/svg">
<path d="M7.88879,3c1.43832,0 2.58951,0.43326 3.37891,0.86523c0.1465,0.08018 0.2811,0.16048 0.4033,0.23829l0.3291,0.22363v16.67285l-0.1308,-0.0088c-0.1283,-0.0162 -0.2474,-0.0519 -0.3291,-0.0781c-0.1344,-0.0432 -0.2888,-0.1023 -0.4551,-0.1738c-0.3341,-0.1437 -0.752,-0.3501 -1.22072,-0.6114c-0.9378,-0.5227 -2.10876,-1.2818 -3.25684,-2.2334c-2.25615,-1.8701 -4.60742,-4.6409 -4.60742,-7.957c0,-2.22216 0.69517,-3.96156 1.80762,-5.15234c1.10914,-1.18708 2.59432,-1.7851 4.08105,-1.78516z" fill="#002B51"/>
</svg>
