<svg width="24" height="24" viewBox="0 0 24 24" fill="none" xmlns="http://www.w3.org/2000/svg">
<path fill-rule="evenodd" clip-rule="evenodd" d="M22,9.93747c0,3.31603 -2.3513,6.08693 -4.6074,7.95703c-1.1481,0.9516 -2.3191,1.7106 -3.2569,2.2334c-0.4687,0.2613 -0.8866,0.4677 -1.2207,0.6113c-0.1662,0.0715 -0.3206,0.1307 -0.455,0.1739c-0.1092,0.035 -0.2847,0.0869 -0.46,0.0869c-0.1753,0 -0.3508,-0.0519 -0.46,-0.0869c-0.1344,-0.0432 -0.2888,-0.1024 -0.455,-0.1739c-0.3341,-0.1436 -0.752,-0.35 -1.22074,-0.6113c-0.9378,-0.5228 -2.10876,-1.2818 -3.25684,-2.2334c-2.25616,-1.8701 -4.60742,-4.641 -4.60742,-7.95703c0,-2.22216 0.69517,-3.96156 1.80762,-5.15234c1.10914,-1.18708 2.59432,-1.7851 4.08105,-1.78516c1.43832,0 2.58943,0.43326 3.37893,0.86523c0.2932,0.16048 0.5389,0.32146 0.7324,0.46192c0.1935,-0.14046 0.4392,-0.30144 0.7324,-0.46192c0.7895,-0.43197 1.9406,-0.86523 3.3789,-0.86523c1.4868,0.00006 2.9719,0.59808 4.0811,1.78516c1.1124,1.19078 1.8076,2.93017 1.8076,5.15234zM11.1708,8.16501c-0.127,-0.25409 -0.3868,-0.41504 -0.6709,-0.41504c-0.2486,0 -0.4785,0.12312 -0.61715,0.32422l-0.05371,0.09082l-1.29297,2.58499h-1.78613c-0.41421,0 -0.75,0.3358 -0.75,0.75c0,0.4142 0.33579,0.75 0.75,0.75h2.25c0.28408,0 0.54385,-0.161 0.6709,-0.4151l0.82906,-1.6582l2.3291,4.6582c0.1271,0.2541 0.3869,0.4151 0.6709,0.4151c0.2841,0 0.5439,-0.161 0.6709,-0.4151l1.293,-2.5849h1.7861c0.4143,0 0.75,-0.3358 0.75,-0.75c0,-0.4142 -0.3357,-0.75 -0.75,-0.75h-2.25c-0.2486,0 -0.4785,0.1231 -0.6171,0.3242l-0.0538,0.0908l-0.8291,1.6582z" fill="#002B51"/>
</svg>
