<svg width="24" height="24" viewBox="0 0 24 24" fill="none" xmlns="http://www.w3.org/2000/svg">
<path fill-rule="evenodd" clip-rule="evenodd" d="M9.3,2.74997c0.53632,0 1.0129,0.34212 1.1844,0.85028l4.2156,12.49075l1.5156,-4.4908c0.1715,-0.5081 0.6481,-0.8502 1.1844,-0.8502h3.6c0.6904,0 1.25,0.5596 1.25,1.25c0,0.6903 -0.5596,1.25 -1.25,1.25h-2.7026l-2.413,7.1497c-0.1715,0.5081 -0.6481,0.8503 -1.1844,0.8503c-0.5363,0 -1.0129,-0.3422 -1.1844,-0.8503l-4.2156,-12.49078l-1.51563,4.49078c-0.17151,0.5081 -0.64805,0.8503 -1.18437,0.8503h-3.6c-0.69036,0 -1.25,-0.5597 -1.25,-1.25c0,-0.6904 0.55964,-1.25 1.25,-1.25h2.7026l2.41303,-7.14975c0.17151,-0.50816 0.64805,-0.85028 1.18437,-0.85028z" fill="#002B51"/>
</svg>
