<svg width="24" height="24" viewBox="0 0 24 24" fill="none" xmlns="http://www.w3.org/2000/svg">
<path d="M9.2998,3.24997c0.32168,0 0.60795,0.20505 0.7109,0.50977l4.6885,13.89456l1.9903,-5.8946l0.0468,-0.1093c0.1281,-0.2434 0.3826,-0.4004 0.6641,-0.4004h3.5996l0.0771,0.0039c0.378,0.0386 0.6729,0.3579 0.6729,0.7461c0,0.3881 -0.2949,0.7074 -0.6729,0.7461l-0.0771,0.0039h-3.0615l-2.5283,7.4902c-0.1031,0.3046 -0.3885,0.5097 -0.71,0.5098c-0.3217,0 -0.6079,-0.2051 -0.7109,-0.5098l-4.6895,-13.8955l-1.98925,5.8955c-0.10301,0.3047 -0.38929,0.5098 -0.71094,0.5098h-3.59961c-0.41421,0 -0.75,-0.3358 -0.75,-0.75c0,-0.4142 0.33579,-0.75 0.75,-0.75h3.06152l2.52832,-7.49026l0.04688,-0.10938c0.12811,-0.24324 0.38177,-0.40032 0.66308,-0.40039z" fill="#002B51"/>
</svg>
