<svg width="24" height="24" viewBox="0 0 24 24" fill="none" xmlns="http://www.w3.org/2000/svg">
<path fill-rule="evenodd" clip-rule="evenodd" d="M11.9999,6.04688c-0.1981,-0.00005 -0.388,-0.07846 -0.5285,-0.21805l-0.0001,-0.00015l-0.0001,-0.00006l-0.0057,-0.00551c-0.0069,-0.00651 -0.0194,-0.01818 -0.0373,-0.03429c-0.036,-0.03225 -0.0938,-0.08209 -0.1723,-0.14377c-0.1574,-0.12362 -0.3961,-0.29308 -0.7079,-0.4637c-0.62373,-0.34138 -1.52819,-0.68135 -2.65899,-0.68135c-1.08264,0 -2.16708,0.43355 -2.98497,1.30891c-0.81447,0.8717 -1.40392,2.22594 -1.40392,4.12859c0,2.6136 1.88845,4.9987 4.06457,6.8025c1.06807,0.8853 2.16127,1.5931 3.03011,2.0774c0.4346,0.2423 0.8057,0.4245 1.0828,0.5437c0.1393,0.0599 0.2465,0.1002 0.321,0.1242l0.0013,0.0004v1.5143c-0.1753,0 -0.3509,-0.0516 -0.46,-0.0866c-0.1345,-0.0432 -0.2885,-0.1028 -0.4548,-0.1743c-0.3341,-0.1437 -0.7519,-0.3502 -1.22064,-0.6115c-0.9378,-0.5227 -2.10893,-1.2812 -3.25701,-2.2328c-2.25618,-1.8701 -4.60733,-4.6412 -4.60733,-7.9573c0,-2.22235 0.69528,-3.96186 1.80789,-5.15266c1.10919,-1.18714 2.59419,-1.78484 4.081,-1.78484c1.43862,0 2.58969,0.43347 3.37919,0.86553c0.2933,0.16052 0.5383,0.32167 0.7317,0.46216z" fill="#002B51"/>
</svg>
