<svg width="24" height="24" viewBox="0 0 24 24" fill="none" xmlns="http://www.w3.org/2000/svg">
<path fill-rule="evenodd" clip-rule="evenodd" d="M9.24994,8.99998c0.00003,0.19887 0.0791,0.38964 0.21973,0.53027l2.67183,2.67185l-0.8535,2.5606c-0.1309,0.3928 0.0819,0.8171 0.4746,0.9482c0.393,0.131 0.8182,-0.0807 0.9493,-0.4736l1,-3c0.0898,-0.2695 0.0191,-0.5667 -0.1817,-0.7676l-2.7744,-2.77441c0.0541,-2.21529 0.6974,-3.71023 1.5902,-4.60256c0.1177,-0.07444 0.2467,-0.15104 0.3864,-0.22753c0.7895,-0.43197 1.9406,-0.86523 3.3789,-0.86523c1.4868,0.00006 2.9719,0.59808 4.0811,1.78516c1.1124,1.19078 1.8076,2.93017 1.8076,5.15234c0,3.31603 -2.3513,6.08693 -4.6074,7.95703c-1.1481,0.9516 -2.3191,1.7106 -3.2569,2.2334c-0.4687,0.2613 -0.8866,0.4677 -1.2207,0.6113c-0.1662,0.0715 -0.3206,0.1307 -0.455,0.1739c-0.1092,0.035 -0.2847,0.0869 -0.46,0.0869c-0.1753,0 -0.3508,-0.0519 -0.46,-0.0869c-0.1344,-0.0432 -0.2888,-0.1024 -0.455,-0.1739c-0.3341,-0.1436 -0.752,-0.35 -1.22074,-0.6113c-0.9378,-0.5228 -2.10876,-1.2818 -3.25684,-2.2334c-2.25616,-1.8701 -4.60742,-4.641 -4.60742,-7.95703c0,-2.22216 0.69517,-3.96156 1.80762,-5.15234c1.10914,-1.18708 2.59432,-1.7851 4.08105,-1.78516c1.16162,0 2.13593,0.2826 2.88363,0.61888c-0.973,1.28389 -1.52235,3.10625 -1.52236,5.38113z" fill="#002B51"/>
</svg>
