<svg width="24" height="24" viewBox="0 0 24 24" fill="none" xmlns="http://www.w3.org/2000/svg">
<path fill-rule="evenodd" clip-rule="evenodd" d="M9.3,3.24997c0.32179,0 0.60772,0.20527 0.7106,0.51017l4.6894,13.89446l1.9894,-5.8945c0.1029,-0.3049 0.3888,-0.5101 0.7106,-0.5101h3.6c0.4142,0 0.75,0.3358 0.75,0.75c0,0.4142 -0.3358,0.75 -0.75,0.75h-3.0616l-2.5278,7.4898c-0.1029,0.3049 -0.3888,0.5102 -0.7106,0.5102c-0.3218,0 -0.6077,-0.2053 -0.7106,-0.5102l-4.6894,-13.89446l-1.98938,5.89446c-0.1029,0.3049 -0.38883,0.5102 -0.71062,0.5102h-3.6c-0.41421,0 -0.75,-0.3358 -0.75,-0.75c0,-0.4142 0.33579,-0.75 0.75,-0.75h3.06156l2.52782,-7.48986c0.1029,-0.3049 0.38883,-0.51017 0.71062,-0.51017z" fill="#002B51"/>
</svg>
