<svg width="24" height="24" viewBox="0 0 24 24" fill="none" xmlns="http://www.w3.org/2000/svg">
<path d="M9.2998,2.74997c0.53632,0 1.0131,0.34243 1.1846,0.85059l4.2158,12.49024l1.5156,-4.4902l0.0352,-0.0938c0.1956,-0.4563 0.6466,-0.7568 1.1494,-0.7568h3.5996l0.1279,0.0068c0.6303,0.0641 1.1221,0.596 1.1221,1.2432c0,0.6471 -0.4918,1.179 -1.1221,1.2431l-0.1279,0.0069h-2.7031l-2.4121,7.1494c-0.1715,0.5081 -0.6484,0.8505 -1.1846,0.8506c-0.5027,0 -0.9527,-0.3007 -1.1484,-0.7569l-0.0362,-0.0937l-4.2158,-12.49123l-1.51562,4.49123c-0.1715,0.5081 -0.64826,0.8506 -1.18457,0.8506h-3.59961c-0.69036,0 -1.25,-0.5597 -1.25,-1.25c0,-0.6904 0.55964,-1.25 1.25,-1.25h2.70312l2.41211,-7.14944l0.03614,-0.09375c0.19564,-0.45616 0.64577,-0.75676 1.14843,-0.75684z" fill="#002B51"/>
</svg>
