<svg width="24" height="24" viewBox="0 0 24 24" fill="none" xmlns="http://www.w3.org/2000/svg">
<path d="M16.1114,2.99997c1.4867,0.00006 2.9719,0.59808 4.081,1.78516c1.1125,1.19078 1.8077,2.93017 1.8077,5.15234c0,3.31603 -2.3513,6.08693 -4.6075,7.95703c-1.148,0.9516 -2.319,1.7106 -3.2568,2.2334c-0.4687,0.2613 -0.8866,0.4677 -1.2207,0.6113c-0.1663,0.0715 -0.3207,0.1307 -0.4551,0.1739c-0.1091,0.035 -0.2847,0.0869 -0.4599,0.0869c-0.1753,0 -0.3508,-0.0519 -0.46,-0.0869c-0.1344,-0.0432 -0.2888,-0.1024 -0.4551,-0.1739c-0.3341,-0.1436 -0.752,-0.35 -1.22068,-0.6113c-0.9378,-0.5228 -2.10876,-1.2818 -3.25684,-2.2334c-2.25616,-1.8701 -4.60742,-4.641 -4.60742,-7.95703c0,-2.22216 0.69517,-3.96156 1.80762,-5.15234c1.10914,-1.18708 2.59432,-1.7851 4.08105,-1.78516c1.43832,0 2.58947,0.43326 3.37887,0.86523c0.2933,0.16048 0.539,0.32146 0.7325,0.46192c0.1934,-0.14046 0.4392,-0.30144 0.7324,-0.46192c0.7894,-0.43197 1.9406,-0.86523 3.3789,-0.86523zM10.5001,7.74997c-0.2487,0 -0.4785,0.12313 -0.61723,0.32422l-0.05371,0.09082l-1.29297,2.58499h-1.78613c-0.41421,0 -0.75,0.3358 -0.75,0.75c0,0.4142 0.33579,0.75 0.75,0.75h2.25c0.28406,-0.0001 0.54386,-0.161 0.6709,-0.4151l0.82914,-1.6582l2.3291,4.6582c0.127,0.2541 0.3868,0.4151 0.6709,0.4151c0.284,-0.0001 0.5438,-0.161 0.6709,-0.4151l1.2929,-2.5849h1.7862c0.4141,-0.0001 0.75,-0.3358 0.75,-0.75c0,-0.4142 -0.3359,-0.75 -0.75,-0.75h-2.25c-0.2487,0 -0.4785,0.1231 -0.6172,0.3242l-0.0537,0.0908l-0.8291,1.6582l-2.3291,-4.65819c-0.1271,-0.25407 -0.3869,-0.41502 -0.6709,-0.41504z" fill="#002B51"/>
</svg>
