<svg width="24" height="24" viewBox="0 0 24 24" fill="none" xmlns="http://www.w3.org/2000/svg">
<path fill-rule="evenodd" clip-rule="evenodd" d="M3.50006 9.9375C3.50006 8.03485 4.08951 6.68061 4.90398 5.80891C5.72187 4.93355 6.80631 4.5 7.88895 4.5C9.01975 4.5 9.92421 4.83997 10.548 5.18135C10.7106 5.27036 10.8533 5.35905 10.975 5.44109C10.2816 6.49339 9.67148 7.80737 9.30424 8.71989C9.19202 8.99875 9.25713 9.31768 9.46969 9.53023L12.1419 12.2024L11.2885 14.7627C11.1575 15.1557 11.3699 15.5804 11.7628 15.7114C12.1558 15.8424 12.5805 15.63 12.7115 15.237L13.7115 12.237C13.8014 11.9675 13.7312 11.6704 13.5303 11.4695L10.8857 8.82496C11.3226 7.81385 11.9432 6.59632 12.554 5.80517C12.5592 5.80038 12.5652 5.79492 12.572 5.78882C12.608 5.75657 12.6657 5.70673 12.7443 5.64505C12.9017 5.52143 13.1404 5.35197 13.4522 5.18135C14.0759 4.83997 14.9804 4.5 16.1112 4.5C17.1938 4.5 18.2783 4.93355 19.0962 5.80891C19.9106 6.68061 20.5001 8.03485 20.5001 9.9375C20.5001 12.5511 18.6116 14.9362 16.4355 16.74C15.3674 17.6253 14.2742 18.3331 13.4054 18.8174C12.9708 19.0597 12.5997 19.2419 12.3225 19.3611C12.1832 19.421 12.0761 19.4613 12.0016 19.4853L12.0001 19.4858L11.9985 19.4853C11.9241 19.4613 11.8169 19.421 11.6776 19.3611C11.4005 19.2419 11.0293 19.0597 10.5947 18.8174C9.7259 18.3331 8.6327 17.6253 7.56463 16.74C5.38851 14.9362 3.50006 12.5511 3.50006 9.9375ZM7.88895 3C6.40214 3 4.91714 3.5977 3.80795 4.78484C2.69534 5.97564 2.00006 7.71515 2.00006 9.9375C2.00006 13.2536 4.35121 16.0247 6.60739 17.8948C7.75547 18.8464 8.9266 19.6049 9.8644 20.1276C10.3331 20.3889 10.7509 20.5954 11.085 20.7391C11.2513 20.8106 11.4054 20.8702 11.5398 20.9134C11.6489 20.9485 11.8247 21 12.0001 21C12.1754 21 12.3512 20.9485 12.4603 20.9134C12.5948 20.8702 12.7488 20.8106 12.9151 20.7391C13.2492 20.5954 13.667 20.3889 14.1357 20.1276C15.0735 19.6049 16.2447 18.8464 17.3927 17.8948C19.6489 16.0247 22.0001 13.2536 22.0001 9.9375C22.0001 7.71515 21.3048 5.97564 20.1922 4.78484C19.083 3.5977 17.598 3 16.1112 3C14.6726 3 13.5215 3.43347 12.732 3.86553C12.4386 4.02609 12.1936 4.1873 12.0001 4.32781C11.8065 4.1873 11.5615 4.02609 11.2681 3.86553C10.4787 3.43347 9.32756 3 7.88895 3Z" fill="#002B51"/>
</svg>
