<svg width="24" height="24" viewBox="0 0 24 24" fill="none" xmlns="http://www.w3.org/2000/svg">
<path fill-rule="evenodd" clip-rule="evenodd" d="M19.75,20c0,0.4142 -0.3358,0.75 -0.75,0.75h-14c-0.41421,0 -0.75,-0.3358 -0.75,-0.75c0,-0.4142 0.33579,-0.75 0.75,-0.75h14c0.4142,0 0.75,0.3358 0.75,0.75zM8.96967,15.0303c-0.29289,-0.2929 -0.29289,-0.7677 0,-1.0606c0.29289,-0.2929 0.76777,-0.2929 1.06063,0l1.2197,1.2196v-6.37864l-1.2197,1.21964c-0.29286,0.2929 -0.76774,0.2929 -1.06063,0c-0.29289,-0.29286 -0.29289,-0.76774 0,-1.06063l2.50003,-2.5c0.1406,-0.14065 0.3314,-0.21967 0.5303,-0.21967c0.1989,0 0.3897,0.07902 0.5303,0.21967l2.5,2.5c0.2929,0.29289 0.2929,0.76777 0,1.06063c-0.2929,0.2929 -0.7677,0.2929 -1.0606,0l-1.2197,-1.21964v6.37864l1.2197,-1.2196c0.2929,-0.2929 0.7677,-0.2929 1.0606,0c0.2929,0.2929 0.2929,0.7677 0,1.0606l-2.5,2.5c-0.2929,0.2929 -0.7677,0.2929 -1.0606,0zM5,4.75c-0.41421,0 -0.75,-0.33578 -0.75,-0.75c0,-0.41421 0.33579,-0.75 0.75,-0.75h14c0.4142,0 0.75,0.33579 0.75,0.75c0,0.41421 -0.3358,0.75 -0.75,0.75z" fill="#002B51"/>
</svg>
