<svg width="24" height="24" viewBox="0 0 24 24" fill="none" xmlns="http://www.w3.org/2000/svg">
<path d="M19,19.25c0.4142,0 0.75,0.3358 0.75,0.75c0,0.4142 -0.3358,0.75 -0.75,0.75h-14c-0.41421,0 -0.75,-0.3358 -0.75,-0.75c0,-0.4142 0.33579,-0.75 0.75,-0.75zM12,6.25c0.1989,0 0.3896,0.07907 0.5303,0.21973l2.5,2.5c0.2929,0.29289 0.2929,0.76765 0,1.06057c-0.2929,0.2929 -0.7677,0.2929 -1.0606,0l-1.2197,-1.21975v6.37895l1.2197,-1.2198l0.0567,-0.0517c0.2945,-0.2403 0.7293,-0.2229 1.0039,0.0517c0.2746,0.2746 0.292,0.7094 0.0517,1.0039l-0.0517,0.0567l-2.5,2.5c-0.2746,0.2746 -0.7094,0.292 -1.0039,0.0517l-0.0567,-0.0517l-2.49997,-2.5c-0.2929,-0.2929 -0.2929,-0.7677 0,-1.0606c0.29289,-0.2929 0.76765,-0.2929 1.06057,0l1.2197,1.2198v-6.37895l-1.2197,1.21975l-0.05667,0.0517c-0.29458,0.2403 -0.7293,0.2229 -1.0039,-0.0517c-0.27461,-0.27463 -0.29207,-0.70935 -0.05176,-1.00393l0.05176,-0.05664l2.49997,-2.5c0.1407,-0.14066 0.3314,-0.21973 0.5303,-0.21973zM19,3.25c0.4142,0 0.75,0.33579 0.75,0.75c0,0.41421 -0.3358,0.75 -0.75,0.75h-14c-0.41421,0 -0.75,-0.33579 -0.75,-0.75c0,-0.41421 0.33579,-0.75 0.75,-0.75z" fill="#002B51"/>
</svg>
