<svg width="24" height="24" viewBox="0 0 24 24" fill="none" xmlns="http://www.w3.org/2000/svg">
<path d="M10.7773,1.60713c0.825,-0.40971 1.8057,-0.38036 2.6084,0.08789l7,4.08301c0.8447,0.49279 1.3642,1.39709 1.3643,2.375v7.70317c-0.0001,0.9779 -0.5196,1.8822 -1.3643,2.375l-7,4.083c-0.8562,0.4994 -1.9152,0.4994 -2.7714,0l-7.00004,-4.083c-0.84469,-0.4928 -1.36415,-1.3971 -1.36426,-2.375v-7.70317c0.00012,-0.97791 0.51957,-1.88221 1.36426,-2.375l7.00004,-4.08301zM12,14.2497c-0.6212,0 -1.1248,0.5038 -1.125,1.125c0,0.6213 0.5037,1.125 1.125,1.125c0.6213,0 1.125,-0.5037 1.125,-1.125c-0.0002,-0.6212 -0.5038,-1.125 -1.125,-1.125zM12,7.49971c-0.4141,0 -0.7498,0.33592 -0.75,0.75v3.99999c0,0.4142 0.3358,0.75 0.75,0.75c0.4142,0 0.75,-0.3358 0.75,-0.75v-3.99999c-0.0002,-0.41408 -0.3359,-0.75 -0.75,-0.75z" fill="#002B51"/>
</svg>
