<svg width="24" height="24" viewBox="0 0 24 24" fill="none" xmlns="http://www.w3.org/2000/svg">
<path fill-rule="evenodd" clip-rule="evenodd" d="M21.75,15.8562c-0.0001,0.9779 -0.5196,1.8822 -1.3643,2.375l-7,4.083c-0.8562,0.4995 -1.9152,0.4995 -2.7714,0l-7.00004,-4.083c-0.8447,-0.4928 -1.36415,-1.3971 -1.36426,-2.375v-7.70313c0.00011,-0.97793 0.51956,-1.88221 1.36426,-2.375l7.00004,-4.08301l0.163,-0.08789c0.825,-0.40972 1.8057,-0.38037 2.6084,0.08789l7,4.08301c0.8447,0.49279 1.3642,1.39707 1.3643,2.375zM12,13c0.4142,0 0.75,-0.3358 0.75,-0.75v-4c0,-0.41421 -0.3358,-0.75 -0.75,-0.75c-0.4142,0 -0.75,0.33579 -0.75,0.75v4c0,0.4142 0.3358,0.75 0.75,0.75zM12,14.25c-0.6213,0 -1.125,0.5037 -1.125,1.125c0,0.6213 0.5037,1.125 1.125,1.125c0.6213,0 1.125,-0.5037 1.125,-1.125c0,-0.6213 -0.5037,-1.125 -1.125,-1.125z" fill="#002B51"/>
</svg>
