<svg width="24" height="24" viewBox="0 0 24 24" fill="none" xmlns="http://www.w3.org/2000/svg">
<path d="M10.7773,1.60249c0.825,-0.40971 1.8057,-0.38035 2.6084,0.08789l7,4.08301c0.8447,0.49279 1.3642,1.39709 1.3643,2.375v7.70311c-0.0001,0.9779 -0.5196,1.8822 -1.3643,2.375l-7,4.083c-0.8562,0.4995 -1.9152,0.4995 -2.7714,0l-7.00004,-4.083c-0.84468,-0.4928 -1.36415,-1.3971 -1.36426,-2.375v-7.70311c0.00012,-0.97791 0.51957,-1.88221 1.36426,-2.375l7.00004,-4.08301zM12.6299,2.98531c-0.3404,-0.19852 -0.7514,-0.22301 -1.1094,-0.07422l-0.1504,0.07422l-6.99998,4.08398c-0.38382,0.22398 -0.62,0.63471 -0.62012,1.0791v7.70311c0.00011,0.4444 0.2363,0.8551 0.62012,1.0791l6.99998,4.084c0.3892,0.227 0.8706,0.227 1.2598,0l7,-4.084c0.3838,-0.224 0.62,-0.6347 0.6201,-1.0791v-7.70311c-0.0001,-0.44439 -0.2363,-0.85512 -0.6201,-1.0791zM12,14.25c0.6213,0 1.125,0.5036 1.125,1.125c0,0.6213 -0.5037,1.125 -1.125,1.125c-0.6213,0 -1.125,-0.5037 -1.125,-1.125c0,-0.6214 0.5037,-1.125 1.125,-1.125zM12,7.49995c0.4142,0 0.75,0.3358 0.75,0.75v4.00005c0,0.4142 -0.3358,0.75 -0.75,0.75c-0.4142,0 -0.75,-0.3358 -0.75,-0.75v-4.00005c0,-0.4142 0.3358,-0.75 0.75,-0.75z" fill="#002B51"/>
</svg>
