<svg width="24" height="24" viewBox="0 0 24 24" fill="none" xmlns="http://www.w3.org/2000/svg">
<path d="M10.6143,1.6908c0.8562,-0.49948 1.9152,-0.49948 2.7714,0l7,4.083c0.8446,0.49282 1.3642,1.39714 1.3643,2.375v7.7031c-0.0002,0.9778 -0.5197,1.8823 -1.3643,2.375l-7,4.083c-0.8561,0.4994 -1.9153,0.4994 -2.7714,0l-7.00004,-4.083c-0.84459,-0.4927 -1.36402,-1.3972 -1.36426,-2.375v-7.7031c0.00011,-0.97786 0.51966,-1.88218 1.36426,-2.375zM12.6299,2.98572c-0.3892,-0.22695 -0.8706,-0.22695 -1.2598,0l-6.99998,4.08398c-0.38374,0.22401 -0.62001,0.63476 -0.62012,1.0791v7.7031c0.00024,0.4443 0.23639,0.8552 0.62012,1.0791l6.99998,4.084c0.3891,0.2268 0.8707,0.2268 1.2598,0l7,-4.084c0.3837,-0.2239 0.6199,-0.6348 0.6201,-1.0791v-7.7031c-0.0001,-0.44433 -0.2364,-0.85509 -0.6201,-1.0791z" fill="#002B51"/>
</svg>
