<svg width="24" height="24" viewBox="0 0 24 24" fill="none" xmlns="http://www.w3.org/2000/svg">
<path d="M10.6143,1.6954c0.8562,-0.49944 1.9152,-0.49944 2.7714,0l7,4.08301c0.8446,0.4928 1.3642,1.39719 1.3643,2.375v7.70309c-0.0003,0.9778 -0.5197,1.8823 -1.3643,2.375l-7,4.083c-0.8561,0.4994 -1.9153,0.4994 -2.7714,0l-7.00004,-4.083c-0.84454,-0.4927 -1.36399,-1.3972 -1.36426,-2.375v-7.70309c0.00014,-0.97781 0.51971,-1.8822 1.36426,-2.375zM12,14.2501c-0.6213,0 -1.1249,0.5037 -1.125,1.125c0.0001,0.6212 0.5037,1.125 1.125,1.125c0.6213,0 1.1249,-0.5038 1.125,-1.125c-0.0001,-0.6213 -0.5037,-1.125 -1.125,-1.125zM12,7.50009c-0.4142,0 -0.7499,0.33583 -0.75,0.75v4.00001c0.0001,0.4141 0.3359,0.75 0.75,0.75c0.4141,0 0.7499,-0.3359 0.75,-0.75v-4.00001c-0.0001,-0.41417 -0.3358,-0.75 -0.75,-0.75z" fill="#002B51"/>
</svg>
