<svg width="24" height="24" viewBox="0 0 24 24" fill="none" xmlns="http://www.w3.org/2000/svg">
<path fill-rule="evenodd" clip-rule="evenodd" d="M12.6299,2.98537c-0.3404,-0.19852 -0.7513,-0.22301 -1.1094,-0.07421l-0.1504,0.07421l-6.99998,4.08399c-0.38383,0.22398 -0.62001,0.6347 -0.62011,1.0791v7.70314c0.0001,0.4444 0.23628,0.8551 0.62011,1.0791l6.99998,4.084c0.3892,0.2269 0.8706,0.2269 1.2598,0l7,-4.084c0.3838,-0.224 0.62,-0.6347 0.6201,-1.0791v-7.70314c-0.0001,-0.4444 -0.2363,-0.85512 -0.6201,-1.0791zM13.3857,22.3096c-0.8562,0.4995 -1.9152,0.4995 -2.7714,0l-7.00003,-4.083c-0.8447,-0.4928 -1.36416,-1.3971 -1.36426,-2.375v-7.70314c0.0001,-0.97792 0.51956,-1.88221 1.36426,-2.375l7.00003,-4.08301l0.1631,-0.08789c0.8249,-0.40972 1.8056,-0.38037 2.6083,0.08789l7,4.08301c0.8447,0.49279 1.3642,1.39708 1.3643,2.375v7.70314c-0.0001,0.9779 -0.5196,1.8822 -1.3643,2.375zM11.25,12.25v-4c0,-0.41421 0.3358,-0.75 0.75,-0.75c0.4142,0 0.75,0.33579 0.75,0.75v4c0,0.4142 -0.3358,0.75 -0.75,0.75c-0.4142,0 -0.75,-0.3358 -0.75,-0.75zM13.125,15.375c0,0.6213 -0.5037,1.125 -1.125,1.125c-0.6213,0 -1.125,-0.5037 -1.125,-1.125c0,-0.6213 0.5037,-1.125 1.125,-1.125c0.6213,0 1.125,0.5037 1.125,1.125z" fill="#002B51"/>
</svg>
