<svg width="24" height="24" viewBox="0 0 24 24" fill="none" xmlns="http://www.w3.org/2000/svg">
<path fill-rule="evenodd" clip-rule="evenodd" d="M12.6298,2.98569c-0.3892,-0.22704 -0.8704,-0.22704 -1.2596,0l-7.00004,4.08333c-0.38402,0.22401 -0.62016,0.63514 -0.62016,1.07972v7.70256c0,0.4445 0.23614,0.8557 0.62016,1.0797l7.00004,4.0833c0.3892,0.2271 0.8704,0.2271 1.2596,0l7,-4.0833c0.3841,-0.224 0.6202,-0.6352 0.6202,-1.0797v-7.70256c0,-0.44458 -0.2361,-0.85571 -0.6202,-1.07972zM10.6144,1.69002c0.8562,-0.49948 1.915,-0.49948 2.7712,0l7,4.08333c0.8449,0.49283 1.3644,1.39731 1.3644,2.37539v7.70256c0,0.978 -0.5195,1.8825 -1.3644,2.3754l-7,4.0833c-0.8562,0.4995 -1.915,0.4995 -2.7712,0l-7.00005,-4.0833c-0.84484,-0.4929 -1.36435,-1.3974 -1.36435,-2.3754v-7.70256c0,-0.97808 0.5195,-1.88256 1.36435,-2.37539z" fill="#002B51"/>
</svg>
