<svg width="24" height="24" viewBox="0 0 24 24" fill="none" xmlns="http://www.w3.org/2000/svg">
<path d="M10.7773,1.60253c0.825,-0.40972 1.8057,-0.38036 2.6084,0.08789l7,4.08301c0.8447,0.49278 1.3642,1.39708 1.3643,2.375v7.70317c-0.0001,0.9779 -0.5196,1.8822 -1.3643,2.3749l-7,4.0831c-0.8562,0.4994 -1.9152,0.4994 -2.7714,0l-7.00004,-4.0831c-0.84469,-0.4927 -1.36415,-1.397 -1.36426,-2.3749v-7.70317c0.00012,-0.97792 0.51957,-1.88222 1.36426,-2.375l7.00004,-4.08301zM12.6299,2.98534c-0.3404,-0.19852 -0.7514,-0.22301 -1.1094,-0.07422l-0.1504,0.07422l-6.99998,4.08398c-0.38383,0.22398 -0.62,0.63471 -0.62012,1.07911v7.70317c0.00011,0.4443 0.23629,0.8551 0.62012,1.0791l6.99998,4.0839c0.3892,0.227 0.8706,0.227 1.2598,0l7,-4.0839c0.3838,-0.224 0.62,-0.6348 0.6201,-1.0791v-7.70317c-0.0001,-0.4444 -0.2363,-0.85513 -0.6201,-1.07911z" fill="#002B51"/>
</svg>
