<svg width="24" height="24" viewBox="0 0 24 24" fill="none" xmlns="http://www.w3.org/2000/svg">
<path d="M20.25,8.14843c-0.0001,-0.4444 -0.2363,-0.85512 -0.6201,-1.0791l-7,-4.08399c-0.3404,-0.19852 -0.7513,-0.22301 -1.1094,-0.07421l-0.1504,0.07421l-6.99998,4.08399c-0.38383,0.22398 -0.62001,0.6347 -0.62012,1.0791v7.70317c0.00011,0.4444 0.23629,0.8551 0.62012,1.0791l6.99998,4.0839c0.3892,0.227 0.8706,0.227 1.2598,0l7,-4.0839c0.3838,-0.224 0.62,-0.6347 0.6201,-1.0791zM21.75,15.8516c-0.0001,0.9779 -0.5196,1.8822 -1.3643,2.375l-7,4.083c-0.8562,0.4994 -1.9152,0.4994 -2.7714,0l-7.00004,-4.083c-0.84469,-0.4928 -1.36415,-1.3971 -1.36426,-2.375v-7.70317c0.00011,-0.97793 0.51956,-1.88221 1.36426,-2.375l7.00004,-4.08301l0.163,-0.08789c0.825,-0.40972 1.8057,-0.38037 2.6084,0.08789l7,4.08301c0.8447,0.49279 1.3642,1.39707 1.3643,2.375z" fill="#002B51"/>
</svg>
