<svg width="24" height="24" viewBox="0 0 24 24" fill="none" xmlns="http://www.w3.org/2000/svg">
<path d="M10.6143,1.69092c0.8562,-0.49948 1.9152,-0.49948 2.7714,0l7,4.08301c0.8446,0.49281 1.3642,1.39715 1.3643,2.375v7.70317c-0.0003,0.9777 -0.5197,1.8822 -1.3643,2.375l-7,4.083c-0.8561,0.4993 -1.9153,0.4993 -2.7714,0l-7.00004,-4.083c-0.84456,-0.4928 -1.36399,-1.3973 -1.36426,-2.375v-7.70317c0.00011,-0.97785 0.51968,-1.88219 1.36426,-2.375zM12.6299,2.98584c-0.3892,-0.22695 -0.8706,-0.22695 -1.2598,0l-6.99998,4.08398c-0.38372,0.22401 -0.62001,0.63478 -0.62012,1.07911v7.70317c0.00027,0.4442 0.23642,0.8551 0.62012,1.0791l6.99998,4.0839c0.3891,0.2268 0.8707,0.2268 1.2598,0l7,-4.0839c0.3837,-0.224 0.6198,-0.6349 0.6201,-1.0791v-7.70317c-0.0001,-0.44433 -0.2364,-0.8551 -0.6201,-1.07911zM12,14.2505c0.6213,0 1.125,0.5037 1.125,1.125c-0.0003,0.6211 -0.5038,1.125 -1.125,1.125c-0.6212,0 -1.1247,-0.5039 -1.125,-1.125c0,-0.6213 0.5037,-1.125 1.125,-1.125zM12,7.50049c0.4142,0 0.75,0.33578 0.75,0.75v4.00001c-0.0003,0.414 -0.3359,0.75 -0.75,0.75c-0.4141,0 -0.7497,-0.336 -0.75,-0.75v-4.00001c0,-0.41422 0.3358,-0.75 0.75,-0.75z" fill="#002B51"/>
</svg>
