<svg width="24" height="24" viewBox="0 0 24 24" fill="none" xmlns="http://www.w3.org/2000/svg">
<path d="M20.0768,18.7538c0.3781,0.0385 0.6738,0.3579 0.6739,0.7461c0,0.3882 -0.2958,0.7076 -0.6739,0.7461l-0.0761,0.0039h-6.501c-0.4142,0 -0.75,-0.3358 -0.75,-0.75c0.0001,-0.4142 0.3358,-0.75 0.75,-0.75h6.501zM14.7653,3.76647c1.075,-0.6703 2.4859,-0.52178 3.3975,0.38965l2.1269,2.12695c0.9724,0.97241 1.0763,2.51352 0.2442,3.6084l-4.8203,6.34373l-0.3213,0.4229c-0.3987,0.5243 -0.9705,0.8855 -1.6084,1.0234l-0.2774,0.0459l-1.7148,0.1895c-0.2283,0.0254 -0.441,0.1286 -0.6035,0.291c-0.4788,0.4788 -1.1815,0.5972 -1.77152,0.3564l-0.82617,0.8272c-0.20555,0.2055 -0.47592,0.3322 -0.7627,0.3603l-0.12402,0.0069l-3.50293,-0.0069c-1.10967,-0.0022 -1.66599,-1.3416 -0.88476,-2.1299l2.56542,-2.5908c-0.24161,-0.5903 -0.12276,-1.2942 0.35645,-1.7734c0.12174,-0.1219 0.20969,-0.2718 0.25684,-0.4356l0.03418,-0.1679l0.18945,-1.7149c0.08316,-0.7485 0.47074,-1.43005 1.07031,-1.88572l0.42188,-0.32129l6.34377,-4.82032zM8.60125,10.327c-0.2182,0.2029 -0.35833,0.4785 -0.3916,0.7774l-0.19043,1.7148l-0.03223,0.2109c-0.09637,0.4866 -0.33553,0.9361 -0.68847,1.2891c-0.05087,0.0513 -0.05088,0.1343 0,0.1855l2.64258,2.6426c0.05139,0.0512 0.1352,0.0513 0.1865,0c0.4034,-0.4033 0.9321,-0.6576 1.499,-0.7207l1.7149,-0.1904l0.126,-0.0205c0.2498,-0.054 0.4773,-0.1839 0.6513,-0.3711z" fill="#002B51"/>
</svg>
