<svg width="24" height="24" viewBox="0 0 24 24" fill="none" xmlns="http://www.w3.org/2000/svg">
<path fill-rule="evenodd" clip-rule="evenodd" d="M10.1273,17.1472c0.4034,-0.4034 0.9321,-0.6572 1.4991,-0.7203l1.7153,-0.1905l0.1257,-0.0208c0.2498,-0.0539 0.4771,-0.1835 0.6511,-0.3708l-5.51732,-5.5173c-0.21821,0.2028 -0.35826,0.478 -0.39153,0.7768l-0.19059,1.7153l-0.03246,0.2106c-0.09637,0.4866 -0.33483,0.9355 -0.68777,1.2885c-0.05137,0.0514 -0.05137,0.1351 0,0.1865l0.43845,0.4384l0.00014,0.0002l1.76638,1.7664l0.43701,0.437c0.05138,0.0513 0.13509,0.0513 0.18649,0zM6.49505,12.8217l0.03384,-0.1678l0.18989,-1.7146c0.08317,-0.7485 0.47007,-1.4302 1.06964,-1.88588l0.42192,-0.3211l6.34396,-4.82061l0.2106,-0.14571c1.075,-0.67041 2.4865,-0.52141 3.3981,0.39016l2.1268,2.12684c0.9725,0.97241 1.0766,2.51385 0.2445,3.60873l-4.8206,6.34397l-0.3211,0.4219c-0.3987,0.5246 -0.9702,0.8861 -1.6083,1.024l-0.2776,0.0456l-1.7146,0.1899c-0.2285,0.0254 -0.4415,0.1282 -0.6042,0.2907c-0.4787,0.4788 -1.1811,0.5978 -1.77112,0.3571l-0.82655,0.8266c-0.20555,0.2055 -0.47558,0.3324 -0.76235,0.3605l-0.12361,0.0062l-3.50308,-0.0062c-1.10988,-0.002 -1.66657,-1.3413 -0.88526,-2.1296l2.56627,-2.5904c-0.24216,-0.5905 -0.1235,-1.2944 0.35597,-1.7739c0.12192,-0.122 0.20976,-0.2724 0.25688,-0.4364zM20.7505,19.5c0,0.3883 -0.2957,0.7077 -0.6739,0.7461l-0.0761,0.0039h-6.501c-0.4142,0 -0.75,-0.3358 -0.75,-0.75c0,-0.4142 0.3358,-0.75 0.75,-0.75h6.501l0.0761,0.0039c0.3782,0.0384 0.6739,0.3578 0.6739,0.7461z" fill="#002B51"/>
</svg>
