<svg width="24" height="24" viewBox="0 0 24 24" fill="none" xmlns="http://www.w3.org/2000/svg">
<path fill-rule="evenodd" clip-rule="evenodd" d="M14.5543,3.91101c1.0949,-0.8321 2.6361,-0.7275 3.6085,0.24491l2.1273,2.12728c0.9724,0.97241 1.077,2.51365 0.2449,3.60852l-4.8215,6.34408l-0.3207,0.422c-0.4557,0.5995 -1.1373,0.986 -1.8857,1.0692l-1.7149,0.1905c-0.2286,0.0254 -0.4418,0.1279 -0.6045,0.2905c-0.4788,0.4788 -1.1811,0.5978 -1.771,0.357l-0.82674,0.8268c-0.23493,0.2349 -0.55373,0.3666 -0.88598,0.3661l-3.50268,-0.0059c-1.10993,-0.0018 -1.66706,-1.3416 -0.88573,-2.1299l2.56666,-2.5897c-0.24244,-0.5906 -0.12386,-1.2945 0.35576,-1.7741c0.16267,-0.1627 0.26513,-0.3759 0.29053,-0.6045l0.19054,-1.7148c0.08316,-0.7485 0.46963,-1.43013 1.0692,-1.88581l0.42197,-0.32069zM4.80216,18.253l2.80054,0.0047l0.66369,-0.6637l-1.41183,-1.4118zM10.1271,17.1474c0.4035,-0.4036 0.9323,-0.6577 1.4995,-0.7207l1.7148,-0.1906c0.2989,-0.0332 0.5744,-0.1728 0.7774,-0.3911l-5.51778,-5.5177c-0.21827,0.2029 -0.35792,0.4784 -0.39114,0.7773l-0.19053,1.7148c-0.06302,0.5672 -0.31719,1.096 -0.7207,1.4995c-0.05137,0.0514 -0.05137,0.1347 0,0.1861l0.439,0.439l1.76618,1.7661l0.43722,0.4373c0.05137,0.0513 0.13465,0.0513 0.18605,0zM17.1021,5.21658c-0.442,-0.44201 -1.1425,-0.48955 -1.6402,-0.11132l-5.65997,4.30158l5.23727,5.23726l4.3016,-5.66c0.3782,-0.49767 0.3306,-1.19823 -0.1114,-1.64024zM20,18.75c0.4142,0 0.75,0.3358 0.75,0.75c0,0.4142 -0.3358,0.75 -0.75,0.75h-6.5005c-0.4142,0 -0.75,-0.3358 -0.75,-0.75c0,-0.4142 0.3358,-0.75 0.75,-0.75z" fill="#002B51"/>
</svg>
