<svg width="24" height="24" viewBox="0 0 24 24" fill="none" xmlns="http://www.w3.org/2000/svg">
<path d="M20.0764,18.7535c0.378,0.0384 0.6736,0.3579 0.6738,0.7461c0,0.3883 -0.2956,0.7077 -0.6738,0.7461l-0.0762,0.0039h-6.501c-0.4141,-0.0002 -0.75,-0.3359 -0.75,-0.75c0.0003,-0.4139 0.3361,-0.7499 0.75,-0.75h6.501zM14.5539,3.91168c1.0948,-0.83209 2.637,-0.72821 3.6094,0.24414l2.1269,2.12696c0.9724,0.97241 1.0763,2.51451 0.2442,3.60937l-4.8203,6.34375l-0.3213,0.4219c-0.4557,0.5995 -1.1374,0.9861 -1.8858,1.0693l-1.7148,0.1904c-0.2285,0.0254 -0.4419,0.1276 -0.6045,0.2901c-0.4787,0.4787 -1.1805,0.5971 -1.77052,0.3564l-0.82715,0.8272c-0.23486,0.2348 -0.55361,0.3676 -0.88575,0.3672l-3.50293,-0.0069c-1.10973,-0.0019 -1.66659,-1.3405 -0.88574,-2.1289l2.56641,-2.5918c-0.24156,-0.5903 -0.12273,-1.2933 0.35644,-1.7724c0.16254,-0.1627 0.26464,-0.376 0.29004,-0.6045l0.19043,-1.7149c0.08323,-0.7483 0.46987,-1.4301 1.06934,-1.88572l0.42187,-0.32129zM4.80292,18.2525l2.80078,0.0049l0.66308,-0.6631l-1.4121,-1.4121zM8.60077,10.3277c-0.21793,0.2028 -0.35731,0.4778 -0.39063,0.7764l-0.1914,1.7158c-0.0631,0.5669 -0.31645,1.0956 -0.71973,1.499c-0.05136,0.0514 -0.05137,0.1352 0,0.1865l2.6416,2.6416c0.05137,0.0514 0.13519,0.0514 0.18649,0c0.4034,-0.4032 0.9322,-0.6566 1.4991,-0.7197l1.7158,-0.1914c0.2985,-0.0333 0.5736,-0.1727 0.7763,-0.3906zM17.1027,5.21637c-0.4419,-0.44188 -1.143,-0.48935 -1.6406,-0.11133l-5.66016,4.30176l5.23726,5.2373l4.3018,-5.66015c0.378,-0.49764 0.3306,-1.19869 -0.1113,-1.64063z" fill="#002B51"/>
</svg>
