<svg width="24" height="24" viewBox="0 0 24 24" fill="none" xmlns="http://www.w3.org/2000/svg">
<path d="M20.0769,18.7538c0.378,0.0385 0.6737,0.3579 0.6738,0.7461c0,0.3882 -0.2957,0.7076 -0.6738,0.7461l-0.0762,0.0039h-6.501c-0.4142,0 -0.75,-0.3358 -0.75,-0.75c0.0001,-0.4142 0.3359,-0.75 0.75,-0.75h6.501zM14.7654,3.76647c1.0749,-0.6703 2.4859,-0.52178 3.3974,0.38965l2.127,2.12695c0.9724,0.97241 1.0762,2.51352 0.2441,3.6084l-4.8203,6.34373l-0.3213,0.4229c-0.3987,0.5243 -0.9705,0.8855 -1.6084,1.0234l-0.2773,0.0459l-1.7149,0.1895c-0.2283,0.0254 -0.441,0.1286 -0.6035,0.291c-0.4788,0.4788 -1.1814,0.5972 -1.77147,0.3564l-0.82617,0.8272c-0.20555,0.2055 -0.47593,0.3322 -0.7627,0.3603l-0.12402,0.0069l-3.50293,-0.0069c-1.10967,-0.0022 -1.666,-1.3416 -0.88477,-2.1299l2.56543,-2.5908c-0.24162,-0.5903 -0.12276,-1.2942 0.35645,-1.7734c0.12173,-0.1219 0.20969,-0.2718 0.25683,-0.4356l0.03418,-0.1679l0.18945,-1.7149c0.08317,-0.7485 0.47075,-1.43005 1.07032,-1.88572l0.42187,-0.32129l6.34373,-4.82032zM4.80247,18.2528l2.80078,0.0039l0.66309,-0.6631l-0.6875,-0.6875l-0.72559,-0.7246zM8.6013,10.327c-0.21821,0.2029 -0.35833,0.4785 -0.3916,0.7774l-0.19043,1.7148l-0.03223,0.2109c-0.09637,0.4866 -0.33554,0.9361 -0.68848,1.2891c-0.05087,0.0513 -0.05087,0.1343 0,0.1855l2.64258,2.6426c0.05139,0.0512 0.13526,0.0513 0.18656,0c0.4034,-0.4033 0.932,-0.6576 1.499,-0.7207l1.7148,-0.1904l0.126,-0.0205c0.2498,-0.054 0.4773,-0.1839 0.6514,-0.3711zM17.1023,5.21666c-0.442,-0.44189 -1.143,-0.48952 -1.6407,-0.11133l-5.65913,4.30176l5.23633,5.23731l4.3027,-5.66016c0.378,-0.49765 0.3296,-1.19871 -0.1123,-1.64062z" fill="#002B51"/>
</svg>
