<svg width="24" height="24" viewBox="0 0 24 24" fill="none" xmlns="http://www.w3.org/2000/svg">
<path fill-rule="evenodd" clip-rule="evenodd" d="M10.1273,17.1472c0.4034,-0.4034 0.9321,-0.6572 1.4991,-0.7203l1.7153,-0.1905l0.1257,-0.0208c0.2498,-0.0539 0.4771,-0.1835 0.6512,-0.3708l-5.5174,-5.5173c-0.2182,0.2028 -0.35826,0.478 -0.39153,0.7768l-0.19059,1.7153l-0.03245,0.2106c-0.09638,0.4866 -0.33483,0.9355 -0.68777,1.2885c-0.05138,0.0514 -0.05138,0.1351 0,0.1865l0.43845,0.4384l0.00013,0.0002l1.76639,1.7664l0.43701,0.437c0.05137,0.0513 0.13506,0.0513 0.18646,0zM6.49507,12.8217l0.03384,-0.1678l0.1899,-1.7146c0.08316,-0.7485 0.47006,-1.4302 1.06963,-1.88588l0.42192,-0.3211l6.34394,-4.82061l0.2106,-0.14571c1.075,-0.67041 2.4866,-0.52141 3.3981,0.39016l2.1269,2.12684c0.9724,0.97241 1.0765,2.51385 0.2444,3.60873l-4.8206,6.34397l-0.3211,0.4219c-0.3987,0.5246 -0.9702,0.8861 -1.6082,1.024l-0.2776,0.0456l-1.7146,0.1899c-0.2286,0.0254 -0.4416,0.1282 -0.6043,0.2907c-0.4787,0.4788 -1.1811,0.5978 -1.7711,0.3571l-0.82655,0.8266c-0.20555,0.2055 -0.47557,0.3324 -0.76235,0.3605l-0.12361,0.0062l-3.50307,-0.0062c-1.10988,-0.002 -1.66657,-1.3413 -0.88527,-2.1296l2.56627,-2.5904c-0.24216,-0.5905 -0.1235,-1.2944 0.35598,-1.7739c0.12191,-0.122 0.20975,-0.2724 0.25687,-0.4364zM7.60348,18.257l0.66291,-0.663l-1.41214,-1.4121l-2.05158,2.0709zM17.1024,5.21682c-0.442,-0.44201 -1.1431,-0.4901 -1.6407,-0.11187l-5.65966,4.30203l5.23706,5.23702l4.302,-5.65963c0.3782,-0.49767 0.3301,-1.19871 -0.1119,-1.64071zM20.7505,19.5c0,0.3883 -0.2956,0.7077 -0.6738,0.7461l-0.0762,0.0039h-6.501c-0.4142,0 -0.75,-0.3358 -0.75,-0.75c0,-0.4142 0.3358,-0.75 0.75,-0.75h6.501l0.0762,0.0039c0.3782,0.0384 0.6738,0.3578 0.6738,0.7461z" fill="#002B51"/>
</svg>
