<svg width="24" height="24" viewBox="0 0 24 24" fill="none" xmlns="http://www.w3.org/2000/svg">
<path d="M20.0763,18.7534c0.378,0.0384 0.6736,0.358 0.6738,0.7461c0,0.3884 -0.2956,0.7077 -0.6738,0.7461l-0.0762,0.0039h-6.501c-0.414,-0.0001 -0.75,-0.3359 -0.75,-0.75c0.0003,-0.4139 0.3361,-0.7498 0.75,-0.75h6.501zM14.5538,3.91165c1.0949,-0.83209 2.637,-0.72821 3.6094,0.24414l2.127,2.12696c0.9723,0.97241 1.0762,2.51451 0.2441,3.60937l-4.8203,6.34378l-0.3213,0.4218c-0.4556,0.5995 -1.1374,0.9862 -1.8857,1.0694l-1.7149,0.1904c-0.2285,0.0254 -0.4419,0.1275 -0.6045,0.2901c-0.4787,0.4787 -1.1805,0.5971 -1.77049,0.3564l-0.82714,0.8271c-0.23486,0.2349 -0.55361,0.3677 -0.88575,0.3672l-3.50293,-0.0068c-1.10973,-0.0019 -1.66659,-1.3405 -0.88574,-2.1289l2.56641,-2.5918c-0.24156,-0.5903 -0.12273,-1.2933 0.35644,-1.7725c0.16254,-0.1626 0.26464,-0.3759 0.29004,-0.6045l0.19043,-1.7148c0.08322,-0.7483 0.46987,-1.43013 1.06934,-1.88575l0.42187,-0.32129zM8.60071,10.3277c-0.21793,0.2028 -0.35731,0.4778 -0.39063,0.7763l-0.1914,1.7159c-0.0631,0.5668 -0.31645,1.0956 -0.71973,1.499c-0.05136,0.0513 -0.05137,0.1351 0,0.1865l2.6416,2.6416c0.05137,0.0514 0.13515,0.0514 0.18655,0c0.4033,-0.4033 0.9321,-0.6566 1.499,-0.7197l1.7158,-0.1914c0.2986,-0.0333 0.5736,-0.1727 0.7764,-0.3907z" fill="#002B51"/>
</svg>
