<svg width="24" height="24" viewBox="0 0 24 24" fill="none" xmlns="http://www.w3.org/2000/svg">
<path fill-rule="evenodd" clip-rule="evenodd" d="M14.5543,3.91101c1.0949,-0.8321 2.6361,-0.7275 3.6085,0.24491l2.1273,2.12728c0.9724,0.97241 1.077,2.51365 0.2449,3.60852l-4.8215,6.34408l-0.3207,0.422c-0.4556,0.5995 -1.1373,0.986 -1.8857,1.0692l-1.7149,0.1905c-0.2286,0.0254 -0.4418,0.1279 -0.6044,0.2905c-0.4788,0.4788 -1.1812,0.5978 -1.77108,0.357l-0.82673,0.8268c-0.23494,0.2349 -0.55374,0.3666 -0.88598,0.3661l-3.50269,-0.0059c-1.10993,-0.0018 -1.66705,-1.3416 -0.88573,-2.1299l2.56667,-2.5897c-0.24245,-0.5906 -0.12386,-1.2945 0.35575,-1.7741c0.16267,-0.1627 0.26513,-0.3759 0.29053,-0.6045l0.19054,-1.7148c0.08316,-0.7485 0.46963,-1.43013 1.0692,-1.88581l0.42197,-0.32069zM10.1271,17.1474c0.4035,-0.4036 0.9323,-0.6577 1.4995,-0.7207l1.7148,-0.1906c0.299,-0.0332 0.5744,-0.1728 0.7774,-0.3911l-5.51776,-5.5177c-0.21827,0.2029 -0.35792,0.4784 -0.39113,0.7773l-0.19054,1.7148c-0.06302,0.5672 -0.31718,1.096 -0.7207,1.4995c-0.05137,0.0514 -0.05137,0.1347 0,0.1861l0.439,0.439l1.76618,1.7661l0.43722,0.4373c0.05137,0.0513 0.13463,0.0513 0.18603,0zM20,18.75c0.4142,0 0.75,0.3358 0.75,0.75c0,0.4142 -0.3358,0.75 -0.75,0.75h-6.5005c-0.4142,0 -0.75,-0.3358 -0.75,-0.75c0,-0.4142 0.3358,-0.75 0.75,-0.75z" fill="#002B51"/>
</svg>
