<svg width="24" height="24" viewBox="0 0 24 24" fill="none" xmlns="http://www.w3.org/2000/svg">
<path d="M8.65143,3.91602c1.59887,-0.66227 3.35837,-0.83566 5.05567,-0.49805c1.6973,0.33762 3.2568,1.17082 4.4805,2.39453c1.2237,1.22371 2.0569,2.78314 2.3945,4.4805c0.3376,1.6973 0.1642,3.4568 -0.4981,5.0556c-0.6622,1.5988 -1.7837,2.9654 -3.2226,3.9268c-1.4389,0.9615 -3.1308,1.4746 -4.8613,1.4746c-0.4143,0 -0.75,-0.3358 -0.75,-0.75c0,-0.4142 0.3357,-0.75 0.75,-0.75c1.4339,0 2.836,-0.425 4.0283,-1.2217c1.1921,-0.7966 2.1212,-1.9292 2.6699,-3.2539c0.5487,-1.3246 0.6918,-2.7822 0.4121,-4.1885c-0.2797,-1.40632 -0.9695,-2.69892 -1.9834,-3.71285c-1.0139,-1.01393 -2.3065,-1.70366 -3.7129,-1.9834c-1.4062,-0.27967 -2.8638,-0.13657 -4.18845,0.41211c-1.32468,0.5487 -2.45728,1.47777 -3.25391,2.66992c-0.79664,1.19225 -1.22168,2.59442 -1.22168,4.02832v1.1895l1.71973,-1.7198l0.05664,-0.0517c0.29458,-0.2403 0.7293,-0.2229 1.0039,0.0517c0.27461,0.2746 0.29207,0.7094 0.05176,1.0039l-0.05176,0.0567l-3,3c-0.29289,0.2929 -0.76765,0.2929 -1.06054,0l-3,-3c-0.29289,-0.2929 -0.29289,-0.7677 0,-1.0606c0.29289,-0.2929 0.76765,-0.2929 1.06054,0l1.71973,1.7198v-1.1895c0,-1.7306 0.51315,-3.4224 1.47461,-4.86133c0.96144,-1.43887 2.32797,-2.56039 3.92676,-3.22265zM12.0001,7.25c0.4142,0 0.75,0.33579 0.75,0.75v3.6895l1.7802,1.7802l0.0518,0.0567c0.2403,0.2945 0.2228,0.7293 -0.0518,1.0039c-0.2746,0.2746 -0.7093,0.292 -1.0039,0.0517l-0.0566,-0.0517l-2,-2c-0.1407,-0.1407 -0.2197,-0.3314 -0.2197,-0.5303v-4c0,-0.41421 0.3357,-0.75 0.75,-0.75z" fill="#002B51"/>
</svg>
