<svg width="24" height="24" viewBox="0 0 24 24" fill="none" xmlns="http://www.w3.org/2000/svg">
<path fill-rule="evenodd" clip-rule="evenodd" d="M4.7247 7.13877C3.76336 8.57752 3.25019 10.269 3.25006 11.9994V12L3.25006 13.1893L1.53039 11.4697C1.2375 11.1768 0.762624 11.1768 0.469731 11.4697C0.176838 11.7626 0.176838 12.2374 0.469731 12.5303L3.46973 15.5303C3.76262 15.8232 4.2375 15.8232 4.53039 15.5303L7.53039 12.5303C7.82328 12.2374 7.82328 11.7626 7.53039 11.4697C7.2375 11.1768 6.76262 11.1768 6.46973 11.4697L4.75006 13.1893V12C4.75006 10.5661 5.17527 9.16438 5.97191 7.97212C6.76855 6.77986 7.90084 5.85061 9.22561 5.30188C10.5504 4.75314 12.0081 4.60957 13.4145 4.88931C14.8208 5.16905 16.1127 5.85955 17.1266 6.87348C18.1405 7.88741 18.831 9.17924 19.1108 10.5856C19.3905 11.992 19.2469 13.4497 18.6982 14.7745C18.1495 16.0992 17.2202 17.2315 16.0279 18.0282C14.8357 18.8248 13.434 19.25 12.0001 19.25C11.5858 19.25 11.2501 19.5858 11.2501 20C11.2501 20.4142 11.5858 20.75 12.0001 20.75C13.7306 20.75 15.4224 20.2368 16.8613 19.2754C18.3002 18.3139 19.4217 16.9473 20.084 15.3485C20.7463 13.7496 20.9196 11.9903 20.5819 10.293C20.2443 8.59563 19.411 7.03653 18.1872 5.81282C16.9635 4.58911 15.4044 3.75575 13.7071 3.41813C12.0098 3.08051 10.2504 3.25379 8.65158 3.91606C7.05273 4.57833 5.68616 5.69984 4.7247 7.13877ZM12.7501 8C12.7501 7.58579 12.4143 7.25 12.0001 7.25C11.5858 7.25 11.2501 7.58579 11.2501 8V12C11.2501 12.1989 11.3291 12.3897 11.4697 12.5303L13.4697 14.5303C13.7626 14.8232 14.2375 14.8232 14.5304 14.5303C14.8233 14.2374 14.8233 13.7626 14.5304 13.4697L12.7501 11.6893V8Z" fill="#002B51"/>
</svg>
