<svg width="25" height="24" viewBox="0 0 25 24" fill="none" xmlns="http://www.w3.org/2000/svg">
<path fill-rule="evenodd" clip-rule="evenodd" d="M5.30891 6.86098C4.29579 8.37721 3.75352 10.159 3.75002 11.9823L2.88388 11.1161C2.39573 10.628 1.60427 10.628 1.11612 11.1161C0.627961 11.6043 0.627961 12.3957 1.11612 12.8839L4.11612 15.8839C4.60427 16.372 5.39573 16.372 5.88388 15.8839L8.88388 12.8839C9.37204 12.3957 9.37204 11.6043 8.88388 11.1161C8.39573 10.628 7.60427 10.628 7.11612 11.1161L6.25002 11.9822C6.25353 10.6534 6.64918 9.355 7.38758 8.24991C8.12928 7.13987 9.18349 6.27471 10.4169 5.76382C11.6503 5.25293 13.0075 5.11925 14.3169 5.3797C15.6262 5.64015 16.829 6.28303 17.773 7.22703C18.717 8.17104 19.3599 9.37377 19.6203 10.6831C19.8808 11.9925 19.7471 13.3497 19.2362 14.5831C18.7253 15.8165 17.8601 16.8707 16.7501 17.6124C15.6401 18.3541 14.335 18.75 13 18.75C12.3096 18.75 11.75 19.3097 11.75 20C11.75 20.6904 12.3096 21.25 13 21.25C14.8295 21.25 16.6179 20.7075 18.139 19.6911C19.6602 18.6747 20.8458 17.23 21.5459 15.5398C22.246 13.8496 22.4292 11.9897 22.0723 10.1954C21.7154 8.40109 20.8344 6.7529 19.5407 5.45927C18.2471 4.16563 16.5989 3.28465 14.8046 2.92774C13.0103 2.57083 11.1504 2.75401 9.46018 3.45412C7.76996 4.15423 6.32531 5.33983 5.30891 6.86098ZM14.25 8C14.25 7.30964 13.6904 6.75 13 6.75C12.3096 6.75 11.75 7.30964 11.75 8V12C11.75 12.3315 11.8817 12.6495 12.1161 12.8839L14.1161 14.8839C14.6043 15.372 15.3957 15.372 15.8839 14.8839C16.372 14.3957 16.372 13.6043 15.8839 13.1161L14.25 11.4822V8Z" fill="#002B51"/>
</svg>
