<svg width="24" height="24" viewBox="0 0 24 24" fill="none" xmlns="http://www.w3.org/2000/svg">
<path fill-rule="evenodd" clip-rule="evenodd" d="M8.65157,3.91606c1.59883,-0.66227 3.35823,-0.83555 5.05553,-0.49793c1.6973,0.33762 3.2564,1.17098 4.4801,2.39469c1.2237,1.22371 2.0571,2.78281 2.3947,4.48018c0.3376,1.6973 0.1644,3.4566 -0.4979,5.0555c-0.6623,1.5988 -1.7838,2.9654 -3.2227,3.9269c-1.4389,0.9614 -3.1307,1.4746 -4.8612,1.4746c-0.4143,0 -0.75,-0.3358 -0.75,-0.75c0,-0.4142 0.3357,-0.75 0.75,-0.75c1.4339,0 2.8356,-0.4252 4.0278,-1.2218c1.1923,-0.7967 2.1215,-1.929 2.6703,-3.2537c0.5487,-1.3248 0.6923,-2.7825 0.4125,-4.1889c-0.2797,-1.40636 -0.9702,-2.69819 -1.9841,-3.71212c-1.014,-1.01393 -2.3058,-1.70443 -3.7121,-1.98417c-1.4064,-0.27974 -2.8641,-0.13617 -4.1889,0.41257c-1.32477,0.54873 -2.45706,1.47798 -3.2537,2.67024c-0.79664,1.19226 -1.22185,2.59398 -1.22185,4.02788v1.1893l1.71967,-1.7196c0.2929,-0.2929 0.76777,-0.2929 1.06066,0c0.2929,0.2929 0.2929,0.7677 0,1.0606l-3,3c-0.29289,0.2929 -0.76776,0.2929 -1.06066,0l-3,-3c-0.29289,-0.2929 -0.29289,-0.7677 0,-1.0606c0.29289,-0.2929 0.76777,-0.2929 1.06066,0l1.71967,1.7196v-1.1893v-0.0006c0.00013,-1.7304 0.5133,-3.42188 1.47464,-4.86063c0.96147,-1.43893 2.32803,-2.56044 3.92688,-3.22271zM12.7501,11.6893l1.7803,1.7804c0.2929,0.2929 0.2929,0.7677 0,1.0606c-0.2929,0.2929 -0.7678,0.2929 -1.0607,0l-2,-2c-0.1406,-0.1406 -0.2196,-0.3314 -0.2196,-0.5303v-4c0,-0.41421 0.3357,-0.75 0.75,-0.75c0.4142,0 0.75,0.33579 0.75,0.75z" fill="#002B51"/>
</svg>
