<svg width="25" height="24" viewBox="0 0 25 24" fill="none" xmlns="http://www.w3.org/2000/svg">
<path fill-rule="evenodd" clip-rule="evenodd" d="M9.46018,3.45412c1.69022,-0.70011 3.55012,-0.88329 5.34442,-0.52638c1.7943,0.35691 3.4425,1.23789 4.7361,2.53153c1.2937,1.29363 2.1747,2.94182 2.5316,4.73613c0.3569,1.7943 0.1737,3.6542 -0.5264,5.3444c-0.7001,1.6902 -1.8857,3.1349 -3.4069,4.1513c-1.5211,1.0164 -3.3095,1.5589 -5.139,1.5589c-0.6904,0 -1.25,-0.5596 -1.25,-1.25c0,-0.6903 0.5596,-1.25 1.25,-1.25c1.335,0 2.6401,-0.3959 3.7501,-1.1376c1.11,-0.7417 1.9752,-1.7959 2.4861,-3.0293c0.5109,-1.2334 0.6446,-2.5906 0.3841,-3.9c-0.2604,-1.30933 -0.9033,-2.51206 -1.8473,-3.45607c-0.944,-0.944 -2.1468,-1.58688 -3.4561,-1.84733c-1.3094,-0.26045 -2.6666,-0.12677 -3.9,0.38412c-1.23341,0.51089 -2.28762,1.37605 -3.02932,2.48609c-0.7384,1.10509 -1.13405,2.40349 -1.13756,3.73229l0.8661,-0.8661c0.48815,-0.4881 1.27961,-0.4881 1.76776,0c0.48816,0.4882 0.48816,1.2796 0,1.7678l-3,3c-0.48815,0.4881 -1.27961,0.4881 -1.76776,0l-3,-3c-0.48816,-0.4882 -0.48816,-1.2796 0,-1.7678c0.48815,-0.4881 1.27961,-0.4881 1.76776,0l0.86614,0.8662c0.0035,-1.8233 0.54577,-3.60509 1.55889,-5.12132c1.0164,-1.52115 2.46105,-2.70675 4.15127,-3.40686zM14.25,11.4822l1.6339,1.6339c0.4881,0.4882 0.4881,1.2796 0,1.7678c-0.4882,0.4881 -1.2796,0.4881 -1.7678,0l-2,-2c-0.2344,-0.2344 -0.3661,-0.5524 -0.3661,-0.8839v-4c0,-0.69036 0.5596,-1.25 1.25,-1.25c0.6904,0 1.25,0.55964 1.25,1.25z" fill="#002B51"/>
</svg>
