<svg width="24" height="24" viewBox="0 0 24 24" fill="none" xmlns="http://www.w3.org/2000/svg">
<path fill-rule="evenodd" clip-rule="evenodd" d="M3.25591,11.6758c0.05994,-1.617 0.56742,-3.18819 1.46875,-4.53712c0.96144,-1.43887 2.32797,-2.56039 3.92676,-3.22266c1.49878,-0.62081 3.13878,-0.81227 4.73628,-0.55566l0.3194,0.05762c1.6973,0.33762 3.2567,1.17082 4.4804,2.39453c1.1473,1.14726 1.951,2.58967 2.3252,4.16406l0.0694,0.31643c0.3376,1.6973 0.1642,3.4568 -0.4981,5.0556c-0.6622,1.5988 -1.7837,2.9654 -3.2226,3.9268c-1.349,0.9013 -2.9201,1.4088 -4.5371,1.4687l-0.3242,0.0059c-0.4143,0 -0.75,-0.3358 -0.75,-0.75c0,-0.3882 0.2948,-0.7075 0.6728,-0.7461l0.0772,-0.0039c1.4339,0 2.836,-0.425 4.0283,-1.2217c1.1921,-0.7966 2.1212,-1.9292 2.6699,-3.2539c0.5487,-1.3246 0.6918,-2.7822 0.4121,-4.1885l-0.0566,-0.2626c-0.3101,-1.3045 -0.9762,-2.49968 -1.9268,-3.45025c-1.0139,-1.01393 -2.3065,-1.70365 -3.7129,-1.98339l-0.2637,-0.04786c-1.3238,-0.21276 -2.6827,-0.05448 -3.92476,0.45997c-1.32469,0.5487 -2.45728,1.47777 -3.25391,2.66992c-0.74683,1.11771 -1.16715,2.41991 -1.2168,3.75981l-0.00488,0.2685v1.1895l1.71973,-1.7198l0.05664,-0.0517c0.29458,-0.2403 0.7293,-0.2229 1.0039,0.0517c0.27461,0.2746 0.29207,0.7094 0.05176,1.0039l-0.05176,0.0567l-3,3c-0.29289,0.2929 -0.76765,0.2929 -1.06054,0l-3,-3c-0.29289,-0.2929 -0.29289,-0.7677 0,-1.0606c0.29289,-0.2929 0.76765,-0.2929 1.06054,0l1.71973,1.7198v-1.1895c0,-0.0092 0.00017,-0.0185 0.0005,-0.0276zM12.7501,8v3.6895l1.7802,1.7802l0.0518,0.0567c0.2403,0.2946 0.2228,0.7293 -0.0518,1.0039c-0.2746,0.2746 -0.7093,0.292 -1.0039,0.0517l-0.0566,-0.0517l-2,-2c-0.1407,-0.1407 -0.2197,-0.3314 -0.2197,-0.5303v-4c0,-0.41421 0.3357,-0.75 0.75,-0.75c0.4142,0 0.75,0.33579 0.75,0.75z" fill="#002B51"/>
</svg>
