<svg width="25" height="24" viewBox="0 0 25 24" fill="none" xmlns="http://www.w3.org/2000/svg">
<path d="M8.70987,3.45411c1.58463,-0.65639 3.31873,-0.85839 5.00783,-0.58691l0.3369,0.06054c1.7943,0.35693 3.4427,1.23764 4.7363,2.53125c1.2127,1.21269 2.0624,2.73724 2.458,4.40137l0.0733,0.33494c0.3569,1.7943 0.1737,3.6545 -0.5264,5.3447c-0.7001,1.6902 -1.8861,3.135 -3.4072,4.1514c-1.4259,0.9527 -3.0867,1.4894 -4.7959,1.5528l-0.3428,0.0058c-0.6903,0 -1.25,-0.5596 -1.25,-1.25c0,-0.6471 0.4918,-1.1791 1.1221,-1.2432l0.1279,-0.0068c1.335,0 2.64,-0.396 3.75,-1.1377c1.11,-0.7417 1.9754,-1.7959 2.4863,-3.0293c0.5108,-1.2332 0.6442,-2.5902 0.3838,-3.8994l-0.0527,-0.2451c-0.2887,-1.21436 -0.909,-2.32701 -1.794,-3.21193c-0.944,-0.944 -2.1476,-1.58623 -3.457,-1.84668l-0.2451,-0.04394c-1.2326,-0.19817 -2.4979,-0.05125 -3.6543,0.42773c-1.2334,0.51089 -2.2876,1.3763 -3.0293,2.48633c-0.69532,1.04063 -1.08659,2.25259 -1.13281,3.49999l-0.00488,0.2315l0.86621,-0.8653l0.09472,-0.0859c0.49097,-0.4005 1.21519,-0.3717 1.67285,0.0859c0.45767,0.4577 0.48643,1.1819 0.08594,1.6729l-0.08594,0.0947l-3,3c-0.48815,0.4882 -1.27942,0.4882 -1.76757,0l-3,-3c-0.48815,-0.4882 -0.48815,-1.2794 0,-1.7676c0.48816,-0.4881 1.27942,-0.4881 1.76757,0l0.86622,0.8672l0.00585,-0.3262c0.06337,-1.7092 0.60007,-3.36994 1.55274,-4.79586c1.01637,-1.5211 2.46123,-2.70711 4.15137,-3.40723zM12.2499,6.75001c0.6904,0 1.25,0.55964 1.25,1.25v3.48239l1.6338,1.6338l0.0859,0.0947c0.4005,0.491 0.3718,1.2152 -0.0859,1.6729c-0.4577,0.4577 -1.1819,0.4864 -1.6729,0.0859l-0.0947,-0.0859l-2,-2c-0.2344,-0.2344 -0.3662,-0.5523 -0.3662,-0.8838v-3.99999c0,-0.69036 0.5596,-1.25 1.25,-1.25z" fill="#002B51"/>
</svg>
