<svg width="24" height="24" viewBox="0 0 24 24" fill="none" xmlns="http://www.w3.org/2000/svg">
<path d="M10.8955,3.05664c0.6873,-0.56057 1.7011,-0.52051 2.3418,0.12011l1.5127,1.5127v-0.18945l0.0039,-0.07715c0.0386,-0.37797 0.3579,-0.67285 0.7461,-0.67285h3l0.0761,0.0039c0.3784,0.03821 0.6739,0.35762 0.6739,0.7461v4.68945l2.7802,2.78025l0.0518,0.0567c0.2402,0.2945 0.2228,0.7293 -0.0518,1.0039c-0.2745,0.2745 -0.7093,0.2919 -1.0039,0.0517l-0.0566,-0.0517l-0.2197,-0.2198v7.1895c-0.0001,0.9664 -0.7836,1.75 -1.75,1.75h-3.5c-0.9664,0 -1.7499,-0.7836 -1.75,-1.75v-5c0,-0.1381 -0.112,-0.25 -0.25,-0.25h-3c-0.1381,0 -0.25,0.1119 -0.25,0.25v5c-0.0001,0.9664 -0.78359,1.75 -1.75003,1.75h-3.5c-0.96639,-0.0001 -1.74991,-0.7836 -1.75,-1.75v-7.1895l-0.21973,0.2198c-0.29287,0.2928 -0.76767,0.2928 -1.06055,0c-0.29287,-0.2929 -0.29281,-0.7677 0,-1.0606l8.79301,-8.79295zM12.1767,4.2373c-0.0854,-0.08534 -0.2174,-0.09623 -0.3144,-0.03223l-0.0391,0.03223l-7.07323,7.0732v8.6895c0.00008,0.138 0.11203,0.2499 0.25,0.25h3.5c0.13801,0 0.24991,-0.112 0.25,-0.25v-5c-0.00001,-0.9665 0.7835,-1.75 1.75003,-1.75h3c0.9664,0 1.7499,0.7835 1.75,1.75v5c0.0001,0.138 0.112,0.25 0.25,0.25h3.5c0.138,0 0.2499,-0.112 0.25,-0.25v-8.6895l-1.2803,-1.2802c-0.1406,-0.14065 -0.2197,-0.33144 -0.2197,-0.5303v-4.25h-1.5v1.25c-0.0001,0.30328 -0.1827,0.57729 -0.4629,0.69336c-0.2453,0.10154 -0.5232,0.06458 -0.7324,-0.08985l-0.085,-0.07324z" fill="#002B51"/>
</svg>
