<svg width="24" height="24" viewBox="0 0 24 24" fill="none" xmlns="http://www.w3.org/2000/svg">
<path d="M19.2499,11.4139c-0.0001,-0.0497 -0.0148,-0.0979 -0.042,-0.1387l-0.0313,-0.0381l-7,-6.99998c-0.0976,-0.09753 -0.2559,-0.09753 -0.3535,0l-6.99998,6.99998c-0.04685,0.0469 -0.0732,0.1105 -0.07324,0.1768v8.5859l0.00488,0.0508c0.02343,0.1137 0.12447,0.1992 0.24512,0.1992h3.5c0.13807,0 0.25,-0.1119 0.25,-0.25v-5c0,-0.9665 0.7835,-1.75 1.75002,-1.75h3c0.9664,0 1.75,0.7835 1.75,1.75v5c0,0.1381 0.1119,0.25 0.25,0.25h3.5c0.138,0 0.25,-0.1119 0.25,-0.25zM20.7499,19.9998c0,0.9665 -0.7835,1.75 -1.75,1.75h-3.5c-0.9665,0 -1.75,-0.7835 -1.75,-1.75v-5c0,-0.138 -0.112,-0.25 -0.25,-0.25h-3c-0.1381,0 -0.25,0.1119 -0.25,0.25v5c0,0.9665 -0.78352,1.75 -1.75002,1.75h-3.5c-0.90613,0 -1.65171,-0.6887 -1.74121,-1.5713l-0.00879,-0.1787v-8.5859c0.00004,-0.4641 0.18454,-0.9092 0.51269,-1.2373l7.00003,-7.00003l0.1328,-0.12011c0.6873,-0.56058 1.7011,-0.52051 2.3418,0.12011l7,7.00003l0.1162,0.1279c0.2553,0.3114 0.3964,0.7032 0.3965,1.1094z" fill="#002B51"/>
</svg>
