<svg width="24" height="24" viewBox="0 0 24 24" fill="none" xmlns="http://www.w3.org/2000/svg">
<path fill-rule="evenodd" clip-rule="evenodd" d="M5.74995,10.3107v9.6893c0,0.1381 0.11193,0.25 0.25,0.25h2.75v-5.25c0,-0.9665 0.78351,-1.75 1.75005,-1.75h3c0.9665,0 1.75,0.7835 1.75,1.75v5.25h2.75c0.138,0 0.25,-0.1119 0.25,-0.25v-9.6893l-6.0733,-6.07326c-0.0976,-0.09763 -0.2559,-0.09763 -0.3535,0zM20.4696,12.5303l-0.7196,-0.7196v8.1893c0,0.0849 -0.0061,0.1684 -0.0178,0.25h1.2678c0.4142,0 0.75,0.3358 0.75,0.75c0,0.4142 -0.3358,0.75 -0.75,0.75h-18.00002c-0.41422,0 -0.75,-0.3358 -0.75,-0.75c0,-0.4142 0.33578,-0.75 0.75,-0.75h1.2677c-0.01168,-0.0816 -0.01773,-0.1651 -0.01773,-0.25v-8.1893l-0.71967,0.7196c-0.29289,0.2929 -0.76776,0.2929 -1.06066,0c-0.29289,-0.2929 -0.29289,-0.7677 0,-1.0606l1.99956,-1.99958l0.00089,-0.0009l6.29243,-6.29244c0.6834,-0.68342 1.7915,-0.68342 2.4749,0l8.2929,8.29292c0.2929,0.2929 0.2929,0.7677 0,1.0606c-0.2929,0.2929 -0.7678,0.2929 -1.0607,0zM13.5,14.75h-3c-0.1381,0 -0.25,0.1119 -0.25,0.25v5.25h3.5v-5.25c0,-0.1381 -0.112,-0.25 -0.25,-0.25z" fill="#002B51"/>
</svg>
