<svg width="24" height="24" viewBox="0 0 24 24" fill="none" xmlns="http://www.w3.org/2000/svg">
<path fill-rule="evenodd" clip-rule="evenodd" d="M20.75 20V12.8107L20.9697 13.0303C21.2626 13.3232 21.7374 13.3232 22.0303 13.0303C22.3232 12.7374 22.3232 12.2626 22.0303 11.9697L20.5303 10.4697L20.5303 10.4697L19.2499 9.18933V4.5C19.2499 4.08578 18.9142 3.75 18.4999 3.75H15.4999C15.0857 3.75 14.7499 4.08578 14.7499 4.5V4.68931L13.2374 3.17679C12.554 2.49336 11.446 2.49336 10.7626 3.17678L3.46967 10.4697L1.96967 11.9697C1.67678 12.2626 1.67678 12.7374 1.96967 13.0303C2.26256 13.3232 2.73744 13.3232 3.03033 13.0303L3.25002 12.8106L3.25011 20C3.25012 20.9665 4.03362 21.75 5.00011 21.75H8.00004C8.96655 21.75 9.75006 20.9665 9.75004 20L9.74996 15C9.74995 14.8619 9.86188 14.75 9.99996 14.75H14C14.138 14.75 14.25 14.8619 14.25 15L14.25 20C14.2501 20.9665 15.0336 21.75 16 21.75H19C19.9665 21.75 20.75 20.9665 20.75 20Z" fill="#002B51"/>
</svg>
