<svg width="24" height="24" viewBox="0 0 24 24" fill="none" xmlns="http://www.w3.org/2000/svg">
<path d="M10.8955,3.05658c0.6873,-0.56058 1.7011,-0.52051 2.3418,0.12012l8.2929,8.293l0.0518,0.0566c0.2402,0.2946 0.2228,0.7293 -0.0518,1.0039c-0.2746,0.2745 -0.7093,0.292 -1.0039,0.0518l-0.0566,-0.0518l-0.7197,-0.7197v8.1894c-0.0001,0.085 -0.0079,0.1683 -0.0196,0.25h1.2696c0.4142,0 0.75,0.3358 0.75,0.75c-0.0001,0.4142 -0.3359,0.75 -0.75,0.75h-18.00005c-0.41415,0 -0.74993,-0.3358 -0.75,-0.75c0,-0.4142 0.33581,-0.7499 0.75,-0.75h1.26954c-0.01171,-0.0817 -0.01953,-0.165 -0.01954,-0.25v-8.1894l-0.71972,0.7197c-0.29288,0.2928 -0.76768,0.2928 -1.06055,0c-0.29286,-0.2929 -0.29281,-0.7676 0,-1.0605l8.29292,-8.293zM12.1767,4.23724c-0.0976,-0.09753 -0.2559,-0.09753 -0.3535,0l-6.07325,6.07326v9.6894c0.00009,0.138 0.11199,0.25 0.25,0.25h2.75v-5.25c0,-0.9665 0.78352,-1.75 1.75005,-1.75h3c0.9665,0 1.75,0.7835 1.75,1.75v5.25h2.75c0.138,0 0.2499,-0.112 0.25,-0.25v-9.6894zM10.5,14.7499c-0.1381,0 -0.25,0.112 -0.25,0.25v5.25h3.5v-5.25c0,-0.138 -0.112,-0.25 -0.25,-0.25z" fill="#002B51"/>
</svg>
