<svg width="24" height="24" viewBox="0 0 24 24" fill="none" xmlns="http://www.w3.org/2000/svg">
<path fill-rule="evenodd" clip-rule="evenodd" d="M15.9999,21.7498c-0.9665,0 -1.75,-0.7835 -1.75,-1.75v-5c0,-0.138 -0.112,-0.25 -0.25,-0.25h-4.00002c-0.13807,0 -0.25,0.1119 -0.25,0.25v5c0,0.9665 -0.7835,1.75 -1.75,1.75h-3c-0.90613,0 -1.65171,-0.6887 -1.74121,-1.5713l-0.00879,-0.1787v-8.5859c0.00004,-0.4641 0.18454,-0.9092 0.51269,-1.2373l7.00003,-7.00003l0.1328,-0.12011c0.6873,-0.56058 1.7011,-0.52051 2.3418,0.12011l7,7.00003l0.1162,0.1279c0.2553,0.3114 0.3964,0.7032 0.3965,1.1094v8.5859c0,0.9665 -0.7835,1.75 -1.75,1.75z" fill="#002B51"/>
</svg>
