<svg width="24" height="24" viewBox="0 0 24 24" fill="none" xmlns="http://www.w3.org/2000/svg">
<path fill-rule="evenodd" clip-rule="evenodd" d="M10.4999,14.75c-0.138,0 -0.25,0.1119 -0.25,0.25v5.25h3.5v-5.25c0,-0.1381 -0.1119,-0.25 -0.25,-0.25zM21,20.25c0.4142,0 0.75,0.3358 0.75,0.75c0,0.4142 -0.3358,0.75 -0.75,0.75h-18.00003c-0.41421,0 -0.75,-0.3358 -0.75,-0.75c0,-0.4142 0.33579,-0.75 0.75,-0.75h1.2677c-0.01168,-0.0817 -0.01772,-0.1651 -0.01772,-0.25v-8.1895l-0.71973,0.7197c-0.29289,0.2929 -0.76765,0.2929 -1.06055,0c-0.29289,-0.2929 -0.29289,-0.7676 0,-1.0605l8.29293,-8.29297l0.1329,-0.12012c0.6873,-0.56057 1.701,-0.52051 2.3418,0.12012l8.2929,8.29297l0.0518,0.0566c0.2403,0.2946 0.2228,0.7293 -0.0518,1.0039c-0.2746,0.2746 -0.7093,0.2921 -1.0039,0.0518l-0.0566,-0.0518l-0.7198,-0.7197v8.1895c0,0.0849 -0.006,0.1683 -0.0177,0.25zM18.2499,20v-9.6895l-6.0732,-6.07323c-0.0976,-0.09753 -0.2559,-0.09753 -0.3535,0l-6.07325,6.07323v9.6895c0,0.138 0.11192,0.25 0.25,0.25h2.75v-5.25c0,-0.9665 0.7835,-1.75 1.74995,-1.75h3c0.9665,0 1.75,0.7835 1.75,1.75v5.25h2.75c0.1381,0 0.25,-0.112 0.25,-0.25z" fill="#002B51"/>
</svg>
