<svg width="24" height="24" viewBox="0 0 24 24" fill="none" xmlns="http://www.w3.org/2000/svg">
<path fill-rule="evenodd" clip-rule="evenodd" d="M13.2373 3.17663C12.5539 2.49321 11.4459 2.49321 10.7624 3.17663L3.76244 10.1766C3.43425 10.5048 3.24987 10.9499 3.24988 11.4141L3.24998 19.9999C3.24999 20.9664 4.03349 21.7498 4.99998 21.7498H7.99992C8.96643 21.7498 9.74993 20.9663 9.74992 19.9998L9.74983 14.9999C9.74983 14.8618 9.86176 14.7498 9.99983 14.7498H13.9998C14.1379 14.7498 14.2498 14.8618 14.2498 14.9998L14.2499 19.9999C14.2499 20.9664 15.0334 21.7498 15.9999 21.7498H18.9999C19.9664 21.7498 20.7499 20.9663 20.7499 19.9998V11.4141C20.7499 10.9499 20.5655 10.5048 20.2373 10.1766L13.2373 3.17663Z" fill="#002B51"/>
</svg>
