<svg width="24" height="24" viewBox="0 0 24 24" fill="none" xmlns="http://www.w3.org/2000/svg">
<path fill-rule="evenodd" clip-rule="evenodd" d="M12.1767,4.23729c-0.0977,-0.09764 -0.256,-0.09764 -0.3536,0l-6.99999,7.00001c-0.04689,0.0469 -0.07323,0.1105 -0.07322,0.1768l0.0001,8.5858c0,0.138 0.11193,0.2499 0.25,0.2499h3.49993c0.13808,0 0.25001,-0.1119 0.25,-0.25l-0.00008,-4.9999c-0.00002,-0.9665 0.78349,-1.7501 1.74996,-1.7501h3c0.9665,0 1.75,0.7835 1.75,1.75l0.0001,5.0001c0,0.138 0.112,0.2499 0.25,0.2499h3.5c0.1381,0 0.25,-0.1119 0.25,-0.25v-8.5857c0,-0.0663 -0.0264,-0.1299 -0.0732,-0.1768zM10.7624,3.17663c0.6835,-0.68342 1.7915,-0.68342 2.4749,0l7,6.99997c0.3282,0.3282 0.5126,0.7733 0.5126,1.2375v8.5857c0,0.9665 -0.7835,1.75 -1.75,1.75h-3.5c-0.9665,0 -1.75,-0.7834 -1.75,-1.7499l-0.0001,-5.0001c0,-0.138 -0.1119,-0.25 -0.25,-0.25h-3c-0.138,0 -0.25,0.112 -0.25,0.2501l0.0001,4.9999c0,0.9665 -0.78347,1.75 -1.74998,1.75h-3.49993c-0.96649,0 -1.74999,-0.7834 -1.75,-1.7499l-0.0001,-8.5858c-0.00001,-0.4642 0.18436,-0.9093 0.51256,-1.2375z" fill="#002B51"/>
</svg>
