<svg width="24" height="24" viewBox="0 0 24 24" fill="none" xmlns="http://www.w3.org/2000/svg">
<path d="M13.75,20v-5c0,-0.1381 -0.112,-0.25 -0.25,-0.25h-3c-0.1381,0 -0.25,0.1119 -0.25,0.25v5c0,0.9665 -0.78351,1.75 -1.75001,1.75h-3.5c-0.96644,-0.0001 -1.74999,-0.7836 -1.75,-1.75v-7.1895l-0.21973,0.2197c-0.29289,0.2929 -0.76765,0.2929 -1.06054,0c-0.2929,-0.2929 -0.2929,-0.7676 0,-1.0605l8.79298,-8.79298l0.1328,-0.12011c0.6873,-0.56057 1.7011,-0.52051 2.3418,0.12011l1.5127,1.5127v-0.18945l0.0039,-0.07715c0.0386,-0.37797 0.3579,-0.67285 0.7461,-0.67285h3l0.0762,0.0039c0.3784,0.0382 0.6738,0.35762 0.6738,0.7461v4.68945l2.7803,2.78028l0.0517,0.0566c0.2403,0.2946 0.2229,0.7293 -0.0517,1.0039c-0.2746,0.2746 -0.7094,0.2921 -1.0039,0.0518l-0.0567,-0.0518l-0.2197,-0.2197v7.1895c0,0.9665 -0.7835,1.75 -1.75,1.75h-3.5c-0.9665,-0.0001 -1.75,-0.7836 -1.75,-1.75zM15.25,20c0,0.138 0.1119,0.2499 0.25,0.25h3.5c0.1381,0 0.25,-0.112 0.25,-0.25v-8.6895l-1.2803,-1.2803c-0.1406,-0.14061 -0.2197,-0.33132 -0.2197,-0.53023v-4.25h-1.5v1.25c0,0.30334 -0.1826,0.57727 -0.4629,0.69335c-0.2453,0.10159 -0.5231,0.06464 -0.7324,-0.08984l-0.085,-0.07324l-2.793,-2.79297c-0.0854,-0.08534 -0.2174,-0.09623 -0.3144,-0.03223l-0.0391,0.03223l-7.07321,7.07323v8.6895c0,0.138 0.11198,0.2499 0.25,0.25h3.5c0.13807,0 0.25,-0.112 0.25,-0.25v-5c0,-0.9665 0.7835,-1.75 1.75001,-1.75h3c0.9665,0 1.75,0.7835 1.75,1.75z" fill="#002B51"/>
</svg>
