<svg width="24" height="24" viewBox="0 0 24 24" fill="none" xmlns="http://www.w3.org/2000/svg">
<path d="M10.8954,3.05661c0.6873,-0.56057 1.7011,-0.52051 2.3418,0.12011l1.5127,1.5127v-0.18945l0.0039,-0.07715c0.0386,-0.37797 0.3579,-0.67285 0.7461,-0.67285h3l0.0762,0.0039c0.3784,0.03821 0.6738,0.35762 0.6738,0.7461v4.68945l2.7803,2.78028l0.0517,0.0566c0.2403,0.2946 0.2229,0.7294 -0.0517,1.0039c-0.2746,0.2745 -0.7094,0.292 -1.0039,0.0518l-0.0567,-0.0518l-0.2197,-0.2197v7.1895c-0.0001,0.9664 -0.7835,1.75 -1.75,1.75h-3c-0.9664,-0.0001 -1.7499,-0.7836 -1.75,-1.75v-5c0,-0.1381 -0.1119,-0.25 -0.25,-0.25h-4c-0.13807,0 -0.25,0.1119 -0.25,0.25v5c-0.00008,0.9664 -0.78355,1.75 -1.75,1.75h-3c-0.96638,-0.0001 -1.7499,-0.7837 -1.75,-1.75v-7.1895l-0.21972,0.2197c-0.29288,0.2928 -0.76768,0.2928 -1.06055,0c-0.29287,-0.2928 -0.29281,-0.7676 0,-1.0605l8.79297,-8.79298z" fill="#002B51"/>
</svg>
