<svg width="24" height="24" viewBox="0 0 24 24" fill="none" xmlns="http://www.w3.org/2000/svg">
<path fill-rule="evenodd" clip-rule="evenodd" d="M19,21.75h-3c-0.9664,0 -1.7499,-0.7835 -1.75,-1.75v-5c0,-0.1381 -0.112,-0.25 -0.25,-0.25h-4.00004c-0.13808,0 -0.25001,0.1119 -0.25,0.25l0.00008,5c0.00002,0.9665 -0.78349,1.75 -1.75,1.75h-2.99993c-0.96649,0 -1.74999,-0.7835 -1.75,-1.75l-0.00009,-7.1894l-0.21969,0.2197c-0.29289,0.2929 -0.76777,0.2929 -1.06066,0c-0.29289,-0.2929 -0.29289,-0.7677 0,-1.0606l1.5,-1.5l7.29293,-7.29292c0.6834,-0.68342 1.7914,-0.68342 2.4748,0.00001l1.5125,1.51252v-0.18931c0,-0.41422 0.3358,-0.75 0.75,-0.75h3c0.4143,0 0.75,0.33578 0.75,0.75v4.68933l1.2804,1.28037v0l1.5,1.5c0.2929,0.2929 0.2929,0.7677 0,1.0606c-0.2929,0.2929 -0.7677,0.2929 -1.0606,0l-0.2197,-0.2196v7.1893c0,0.9665 -0.7835,1.75 -1.75,1.75z" fill="#002B51"/>
</svg>
