<svg width="24" height="24" viewBox="0 0 24 24" fill="none" xmlns="http://www.w3.org/2000/svg">
<path d="M10.8955,3.05661c0.6873,-0.56057 1.7011,-0.52051 2.3418,0.12012l8.293,8.29297l0.0517,0.0566c0.2403,0.2946 0.2228,0.7294 -0.0517,1.0039c-0.2746,0.2746 -0.7094,0.292 -1.0039,0.0518l-0.0567,-0.0518l-0.7197,-0.7197v8.1895c0,0.0849 -0.0078,0.1682 -0.0195,0.25h1.2695c0.4142,0 0.75,0.3358 0.75,0.75c-0.0001,0.4141 -0.3358,0.75 -0.75,0.75h-18c-0.41416,0 -0.74993,-0.3359 -0.75,-0.75c0,-0.4142 0.3358,-0.75 0.75,-0.75h1.26953c-0.01171,-0.0818 -0.01952,-0.1651 -0.01953,-0.25v-8.1895l-0.71973,0.7197c-0.29287,0.2928 -0.76767,0.2928 -1.06054,0c-0.29287,-0.2928 -0.29282,-0.7676 0,-1.0605l8.29297,-8.29297zM11,14c-0.6904,0 -1.25,0.5596 -1.25,1.25v5h4.5v-5c0,-0.6472 -0.4918,-1.1801 -1.1221,-1.2442l-0.1279,-0.0058z" fill="#002B51"/>
</svg>
