<svg width="24" height="24" viewBox="0 0 24 24" fill="none" xmlns="http://www.w3.org/2000/svg">
<path fill-rule="evenodd" clip-rule="evenodd" d="M20.2373,10.1766c0.3282,0.3282 0.5126,0.7733 0.5126,1.2375v8.5857c0,0.9665 -0.7835,1.75 -1.75,1.75h-3c-0.9665,0 -1.75,-0.7834 -1.75,-1.7499l-0.0001,-5.0001c0,-0.138 -0.1119,-0.25 -0.25,-0.25h-3.99997c-0.13807,0 -0.25,0.112 -0.25,0.2501l0.00009,4.9999c0.00001,0.9665 -0.78349,1.75 -1.75,1.75h-2.99994c-0.96649,0 -1.74999,-0.7834 -1.75,-1.7499l-0.0001,-8.5858c-0.00001,-0.4642 0.18437,-0.9093 0.51256,-1.2375l6.99996,-6.99997c0.6835,-0.68342 1.7915,-0.68342 2.4749,0z" fill="#002B51"/>
</svg>
