<svg width="24" height="24" viewBox="0 0 24 24" fill="none" xmlns="http://www.w3.org/2000/svg">
<path fill-rule="evenodd" clip-rule="evenodd" d="M12.1768,4.23744c-0.0976,-0.09763 -0.2559,-0.09763 -0.3535,0l-7.07324,7.07326l0.00011,8.6893c0,0.1381 0.11193,0.25 0.25,0.25h3.49993c0.13808,0 0.25001,-0.1119 0.25,-0.25l-0.00008,-5c-0.00002,-0.9665 0.78349,-1.75 1.74998,-1.75h3c0.9665,0 1.75,0.7835 1.75,1.75l0.0001,5c0,0.1381 0.1119,0.25 0.25,0.25h3.5c0.138,0 0.25,-0.1119 0.25,-0.25v-8.6893l-1.2804,-1.2804c-0.1407,-0.14062 -0.2197,-0.33139 -0.2197,-0.5303v-4.25h-1.5v1.25c0,0.30334 -0.1827,0.57682 -0.463,0.69291c-0.2802,0.11608 -0.6028,0.05191 -0.8173,-0.16259zM20.7501,12.8107v7.1893c0,0.9665 -0.7835,1.75 -1.75,1.75h-3.5c-0.9665,0 -1.75,-0.7835 -1.75,-1.75l-0.0001,-5c0,-0.1381 -0.1119,-0.25 -0.25,-0.25h-3c-0.1381,0 -0.25,0.1119 -0.25,0.25l0.0001,5c0,0.9665 -0.78348,1.75 -1.75,1.75h-3.49993c-0.96649,0 -1.74999,-0.7835 -1.75,-1.75l-0.00009,-7.1894l-0.21969,0.2197c-0.29289,0.2929 -0.76777,0.2929 -1.06066,0c-0.29289,-0.2929 -0.29289,-0.7677 0,-1.0606l1.5,-1.5l7.29287,-7.29292c0.6834,-0.68342 1.7915,-0.68342 2.4749,0.00001l1.5125,1.51252v-0.18931c0,-0.41422 0.3358,-0.75 0.75,-0.75h3c0.4142,0 0.75,0.33578 0.75,0.75v4.68933l1.2804,1.28037v0l1.5,1.5c0.2929,0.2929 0.2929,0.7677 0,1.0606c-0.2929,0.2929 -0.7678,0.2929 -1.0607,0z" fill="#002B51"/>
</svg>
