<svg width="24" height="24" viewBox="0 0 24 24" fill="none" xmlns="http://www.w3.org/2000/svg">
<path fill-rule="evenodd" clip-rule="evenodd" d="M5.74994,10.3106v9.6894c0,0.138 0.11193,0.25 0.25,0.25h2.75v-5.25c0,-0.9665 0.7835,-1.75 1.74996,-1.75h3c0.9665,0 1.75,0.7835 1.75,1.75v5.25h2.75c0.1381,0 0.25,-0.112 0.25,-0.25v-9.6894l-6.0732,-6.07319c-0.0976,-0.09763 -0.2559,-0.09763 -0.3535,0zM20.4696,12.5303l-0.7197,-0.7197v8.1894c0,0.0849 -0.006,0.1683 -0.0177,0.25h1.2678c0.4142,0 0.75,0.3358 0.75,0.75c0,0.4142 -0.3358,0.75 -0.75,0.75h-18.00004c-0.41421,0 -0.75,-0.3358 -0.75,-0.75c0,-0.4142 0.33579,-0.75 0.75,-0.75h1.26771c-0.01169,-0.0817 -0.01773,-0.1651 -0.01773,-0.25v-8.1894l-0.71967,0.7197c-0.29289,0.2929 -0.76777,0.2929 -1.06066,0c-0.29289,-0.2929 -0.29289,-0.7678 0,-1.0607l1.99955,-1.99951l0.0009,-0.0009l6.29244,-6.29244c0.6834,-0.68342 1.7915,-0.68342 2.4749,0l8.2929,8.29285c0.2929,0.2929 0.2929,0.7678 0,1.0607c-0.2929,0.2929 -0.7678,0.2929 -1.0607,0zM13.4999,14.75h-3c-0.138,0 -0.25,0.1119 -0.25,0.25v5.25h3.5v-5.25c0,-0.1381 -0.1119,-0.25 -0.25,-0.25z" fill="#002B51"/>
</svg>
