<svg width="24" height="24" viewBox="0 0 24 24" fill="none" xmlns="http://www.w3.org/2000/svg">
<path fill-rule="evenodd" clip-rule="evenodd" d="M13.0085,14h-2.0171c-0.6864,0.0046 -1.24142,0.5625 -1.24142,1.25v5h4.50002v-5c0,-0.6875 -0.5551,-1.2454 -1.2415,-1.25zM19.75,20c0,0.0849 -0.0061,0.1683 -0.0178,0.25h1.2678c0.4142,0 0.75,0.3358 0.75,0.75c0,0.4142 -0.3358,0.75 -0.75,0.75h-18c-0.41421,0 -0.75,-0.3358 -0.75,-0.75c0,-0.4142 0.33579,-0.75 0.75,-0.75h1.2677c-0.01168,-0.0817 -0.01772,-0.1651 -0.01772,-0.25v-8.1895l-0.71973,0.7197c-0.29289,0.2929 -0.76765,0.2929 -1.06055,0c-0.29289,-0.2929 -0.29289,-0.7676 0,-1.0605l8.293,-8.29297l0.1328,-0.12012c0.6873,-0.56057 1.7011,-0.52051 2.3418,0.12012l8.2929,8.29297l0.0518,0.0566c0.2403,0.2946 0.2229,0.7293 -0.0518,1.0039c-0.2746,0.2746 -0.7093,0.2921 -1.0039,0.0518l-0.0566,-0.0518l-0.7197,-0.7197z" fill="#002B51"/>
</svg>
