<svg width="24" height="24" viewBox="0 0 24 24" fill="none" xmlns="http://www.w3.org/2000/svg">
<path d="M10.8954,3.05646c0.6873,-0.56058 1.7011,-0.52051 2.3418,0.12011l7,7.00003l0.1162,0.1279c0.2552,0.3114 0.3964,0.7032 0.3965,1.1094v8.5859c-0.0001,0.9664 -0.7836,1.75 -1.75,1.75h-3c-0.9664,0 -1.7499,-0.7836 -1.75,-1.75v-5c0,-0.138 -0.112,-0.25 -0.25,-0.25h-4.00002c-0.13807,0 -0.25,0.1119 -0.25,0.25v5c-0.00008,0.9664 -0.78355,1.75 -1.75,1.75h-3c-0.90608,0 -1.65165,-0.6888 -1.74121,-1.5713l-0.00879,-0.1787v-8.5859c0.00004,-0.4641 0.18458,-0.9092 0.51269,-1.2373l7.00003,-7.00003z" fill="#002B51"/>
</svg>
