<svg width="24" height="24" viewBox="0 0 24 24" fill="none" xmlns="http://www.w3.org/2000/svg">
<path fill-rule="evenodd" clip-rule="evenodd" d="M13.9999,14.75h-3.99996c-0.13807,0 -0.25,0.1119 -0.25,0.25v5c0,0.9665 -0.7835,1.75 -1.75,1.75h-3c-0.96644,-0.0001 -1.74998,-0.7836 -1.75,-1.75v-7.1895l-0.21972,0.2197c-0.2929,0.2929 -0.76766,0.2929 -1.06055,0c-0.29289,-0.2929 -0.29289,-0.7676 0,-1.0605l8.79293,-8.79298l0.1329,-0.12011c0.6873,-0.56057 1.7011,-0.52051 2.3417,0.12011l1.5127,1.5127v-0.18945l0.0039,-0.07715c0.0387,-0.37797 0.358,-0.67285 0.7461,-0.67285h3l0.0762,0.0039c0.3784,0.0382 0.6738,0.35762 0.6738,0.7461v4.68945l2.7803,2.78028l0.0518,0.0566c0.2403,0.2946 0.2228,0.7293 -0.0518,1.0039c-0.2746,0.2746 -0.7093,0.2921 -1.0039,0.0518l-0.0566,-0.0518l-0.2198,-0.2197v7.1895c0,0.9665 -0.7835,1.75 -1.75,1.75h-3c-0.9664,-0.0001 -1.7499,-0.7836 -1.75,-1.75v-5c0,-0.1381 -0.1119,-0.25 -0.25,-0.25z" fill="#002B51"/>
</svg>
