<svg width="24" height="24" viewBox="0 0 24 24" fill="none" xmlns="http://www.w3.org/2000/svg">
<path fill-rule="evenodd" clip-rule="evenodd" d="M19.75,20c0,0.0849 -0.006,0.1684 -0.0177,0.25h1.2677c0.4142,0 0.75,0.3358 0.75,0.75c0,0.4142 -0.3358,0.75 -0.75,0.75h-17.99998c-0.41421,0 -0.75,-0.3358 -0.75,-0.75c0,-0.4142 0.33579,-0.75 0.75,-0.75h1.26771c-0.01169,-0.0816 -0.01773,-0.1651 -0.01773,-0.25v-8.1893l-0.71967,0.7196c-0.29289,0.2929 -0.76777,0.2929 -1.06066,0c-0.29289,-0.2929 -0.29289,-0.7677 0,-1.0606l1.99955,-1.99958l0.0009,-0.0009l6.29248,-6.29244c0.6834,-0.68342 1.7914,-0.68342 2.4748,0l8.2929,8.29292c0.2929,0.2929 0.2929,0.7677 0,1.0606c-0.2929,0.2929 -0.7677,0.2929 -1.0606,0l-0.7197,-0.7196zM14.25,20.25v-5c0,-0.6875 -0.555,-1.2454 -1.2415,-1.25h-2.017c-0.6865,0.0046 -1.2415,0.5625 -1.2415,1.25v5z" fill="#002B51"/>
</svg>
