<svg width="36" height="24" viewBox="0 0 36 24" fill="none" xmlns="http://www.w3.org/2000/svg">
<g clip-path="url(#clip0_4050_17578)">
<path d="M0,4c0,-2.20914 1.79086,-4 4,-4h28c2.2091,0 4,1.79086 4,4v16c0,2.2091 -1.7909,4 -4,4h-28c-2.20914,0 -4,-1.7909 -4,-4z" fill="#FF4E4E"/>
<path d="M0,-0.96002h36v25.92002h-36z" fill="#0051A2"/>
<path d="M15.84,24.96h-5.76v-10.08h-10.08v-5.76002h10.08v-10.08h5.76v10.08h20.16v5.76002h-20.16z" fill="white"/>
<path d="M14.4,24.96h-2.88v-11.52h-11.52v-2.88h11.52v-11.52002h2.88v11.52002h21.6v2.88h-21.6z" fill="#DC1E35"/>
</g>
<defs>
<clipPath id="clip0_4050_17578">
<path d="M0,4c0,-2.20914 1.79086,-4 4,-4h28c2.2091,0 4,1.79086 4,4v16c0,2.2091 -1.7909,4 -4,4h-28c-2.20914,0 -4,-1.7909 -4,-4z" fill="white"/>
</clipPath>
</defs>
</svg>
