<svg width="24" height="24" viewBox="0 0 24 24" fill="none" xmlns="http://www.w3.org/2000/svg">
<g clip-path="url(#clip0_4050_17583)">
<path d="M0,12c0,-6.62742 5.37258,-12 12,-12c6.6274,0 12,5.37258 12,12c0,6.6274 -5.3726,12 -12,12c-6.62742,0 -12,-5.3726 -12,-12z" fill="#FF4E4E"/>
<path d="M-4.66675,0h33.33335v24h-33.33335z" fill="#0051A2"/>
<path d="M9.99992,24h-5.33334v-9.3333h-9.33333v-5.33337h9.33333v-9.33333h5.33334v9.33333h18.66668v5.33337h-18.66668z" fill="white"/>
<path d="M8.66658,24h-2.66666v-10.6667h-10.66667v-2.6666h10.66667v-10.6667h2.66666v10.6667h20.00002v2.6666h-20.00002z" fill="#DC1E35"/>
</g>
<defs>
<clipPath id="clip0_4050_17583">
<path d="M0,12c0,-6.62742 5.37258,-12 12,-12c6.6274,0 12,5.37258 12,12c0,6.6274 -5.3726,12 -12,12c-6.62742,0 -12,-5.3726 -12,-12z" fill="white"/>
</clipPath>
</defs>
</svg>
