<svg width="24" height="24" viewBox="0 0 24 24" fill="none" xmlns="http://www.w3.org/2000/svg">
<path fill-rule="evenodd" clip-rule="evenodd" d="M19.25,6c0,-0.69036 -0.5596,-1.25 -1.25,-1.25h-12c-0.69036,0 -1.25,0.55964 -1.25,1.25v8.1892l3.24219,-3.2429c1.10704,-1.10706 2.91371,-1.0671 3.97171,0.0869l1.8856,2.0568l0.2062,-0.2062l0.2089,-0.1885c1.0801,-0.8808 2.6729,-0.8182 3.6797,0.1885l1.3057,1.3057zM20.75,16.0128v1.9872c0,1.5188 -1.2312,2.75 -2.75,2.75h-12c-1.51878,0 -2.75,-1.2312 -2.75,-2.75v-12c0,-1.51878 1.23122,-2.75 2.75,-2.75h12c1.5188,0 2.75,1.23122 2.75,2.75v9.9863c0.0002,0.0088 0.0002,0.0177 0,0.0265zM13,8.5c0,-0.82843 0.6716,-1.5 1.5,-1.5c0.8284,0 1.5,0.67157 1.5,1.5c0,0.82843 -0.6716,1.5 -1.5,1.5c-0.8284,0 -1.5,-0.67157 -1.5,-1.5z" fill="#002B51"/>
</svg>
