<svg width="24" height="24" viewBox="0 0 24 24" fill="none" xmlns="http://www.w3.org/2000/svg">
<path fill-rule="evenodd" clip-rule="evenodd" d="M6,4.75c-0.69036,0 -1.25,0.55964 -1.25,1.25v8.1892l3.24219,-3.2429c1.10704,-1.10706 2.91371,-1.0671 3.97171,0.0869l1.8856,2.0568l0.2062,-0.2062l0.2089,-0.1885c1.0801,-0.8808 2.6729,-0.8182 3.6797,0.1885l1.3057,1.3057v-8.1895c0,-0.69036 -0.5596,-1.25 -1.25,-1.25zM14.864,14.1965l1.1887,1.2967l0.0489,0.0595c0.2271,0.3047 0.1914,0.7377 -0.0948,1c-0.2862,0.2624 -0.721,0.2607 -1.0048,0.0078l-0.0547,-0.0537l-4.0889,-4.4599c-0.4809,-0.5246 -1.30147,-0.5423 -1.80469,-0.0391l-4.30371,4.3028v1.6894c0,0.6904 0.55964,1.25 1.25,1.25h12c0.6904,0 1.25,-0.5596 1.25,-1.25v-1.6895l-2.3662,-2.3662c-0.4576,-0.4574 -1.182,-0.4862 -1.6729,-0.0859l-0.0947,0.0859zM20.75,16.0128v1.9872c0,1.5188 -1.2312,2.75 -2.75,2.75h-12c-1.51878,0 -2.75,-1.2312 -2.75,-2.75v-12c0,-1.51878 1.23122,-2.75 2.75,-2.75h12c1.5188,0 2.75,1.23122 2.75,2.75v9.9863c0.0002,0.0088 0.0002,0.0177 0,0.0265zM16,8.5c0,0.82843 -0.6716,1.5 -1.5,1.5c-0.8284,0 -1.5,-0.67157 -1.5,-1.5c0,-0.82843 0.6716,-1.5 1.5,-1.5c0.8284,0 1.5,0.67157 1.5,1.5z" fill="#002B51"/>
</svg>
