<svg width="24" height="24" viewBox="0 0 24 24" fill="none" xmlns="http://www.w3.org/2000/svg">
<path fill-rule="evenodd" clip-rule="evenodd" d="M5 3.25C4.0335 3.25 3.25 4.0335 3.25 5V16V19C3.25 19.9665 4.0335 20.75 5 20.75H19C19.9665 20.75 20.75 19.9665 20.75 19V16V5C20.75 4.0335 19.9665 3.25 19 3.25H5ZM19.25 14.1893V5C19.25 4.86193 19.1381 4.75 19 4.75H5C4.86193 4.75 4.75 4.86193 4.75 5V14.1893L7.99263 10.9467C9.09972 9.83962 10.9064 9.87888 11.9643 11.033L13.8496 13.0897L14.0555 12.8839C15.1294 11.8099 16.8706 11.8099 17.9445 12.8839L19.25 14.1893ZM14.8642 14.1965L15.1161 13.9445C15.6043 13.4564 16.3957 13.4564 16.8839 13.9445L19.25 16.3107V19C19.25 19.1381 19.1381 19.25 19 19.25H5C4.86193 19.25 4.75 19.1381 4.75 19V16.3107L9.05329 12.0074C9.55652 11.5041 10.3777 11.522 10.8586 12.0466L14.9471 16.5068C15.227 16.8121 15.7015 16.8328 16.0068 16.5529C16.3121 16.273 16.3328 15.7985 16.0529 15.4932L14.8642 14.1965ZM14.5 7C13.6716 7 13 7.67157 13 8.5C13 9.32843 13.6716 10 14.5 10C15.3284 10 16 9.32843 16 8.5C16 7.67157 15.3284 7 14.5 7Z" fill="#002B51"/>
</svg>
