<svg width="24" height="24" viewBox="0 0 24 24" fill="none" xmlns="http://www.w3.org/2000/svg">
<path fill-rule="evenodd" clip-rule="evenodd" d="M19,3.25c0.9665,0 1.75,0.7835 1.75,1.75v11v3c0,0.9665 -0.7835,1.75 -1.75,1.75h-14c-0.9665,0 -1.75,-0.7835 -1.75,-1.75v-3v-11c0,-0.9665 0.7835,-1.75 1.75,-1.75zM19.25,14.1893v-9.1893c0,-0.13807 -0.1119,-0.25 -0.25,-0.25h-14c-0.13807,0 -0.25,0.11193 -0.25,0.25v9.1893l3.24263,-3.2426c1.10709,-1.10708 2.91377,-1.06782 3.97167,0.0863l1.8853,2.0567l0.2059,-0.2058c1.0739,-1.074 2.8151,-1.074 3.889,0zM16.0529,15.4932c0.2799,0.3053 0.2592,0.7798 -0.0461,1.0597c-0.3053,0.2799 -0.7798,0.2592 -1.0597,-0.0461l-4.0885,-4.4602c-0.4809,-0.5246 -1.30208,-0.5425 -1.80531,-0.0392l-4.30329,4.3033v2.6893c0,0.1381 0.11193,0.25 0.25,0.25h14c0.1381,0 0.25,-0.1119 0.25,-0.25v-2.6893l-2.3661,-2.3662c-0.4882,-0.4881 -1.2796,-0.4881 -1.7678,0l-0.2519,0.252zM16,8.5c0,0.82843 -0.6716,1.5 -1.5,1.5c-0.8284,0 -1.5,-0.67157 -1.5,-1.5c0,-0.82843 0.6716,-1.5 1.5,-1.5c0.8284,0 1.5,0.67157 1.5,1.5z" fill="#002B51"/>
</svg>
