<svg width="24" height="24" viewBox="0 0 24 24" fill="none" xmlns="http://www.w3.org/2000/svg">
<path d="M18,3.25c1.5188,0 2.75,1.23122 2.75,2.75v12c0,1.5188 -1.2312,2.75 -2.75,2.75h-12c-1.51878,0 -2.75,-1.2312 -2.75,-2.75v-12c0,-1.51878 1.23122,-2.75 2.75,-2.75zM10.8584,12.0469c-0.4809,-0.5246 -1.30147,-0.5423 -1.80469,-0.0391l-4.30371,4.3027v1.6895c0,0.6904 0.55964,1.25 1.25,1.25h12c0.6904,0 1.25,-0.5596 1.25,-1.25v-1.6895l-2.3662,-2.3662c-0.4576,-0.4574 -1.182,-0.4862 -1.6729,-0.0859l-0.0947,0.0859l-0.2529,0.252l1.1894,1.2969l0.0489,0.0595c0.2271,0.3047 0.1914,0.7377 -0.0948,1c-0.2862,0.2624 -0.721,0.2607 -1.0048,0.0078l-0.0547,-0.0537zM6,4.75c-0.69036,0 -1.25,0.55964 -1.25,1.25v8.1885l3.24219,-3.2422c1.10704,-1.10706 2.91371,-1.0671 3.97171,0.0869l1.8847,2.0566l0.2071,-0.206l0.2089,-0.1885c1.0801,-0.8808 2.6729,-0.8182 3.6797,0.1885l1.3057,1.3057v-8.1895c0,-0.69036 -0.5596,-1.25 -1.25,-1.25zM14.5,7c0.8284,0 1.5,0.67157 1.5,1.5c0,0.82843 -0.6716,1.5 -1.5,1.5c-0.8284,0 -1.5,-0.67157 -1.5,-1.5c0,-0.82843 0.6716,-1.5 1.5,-1.5z" fill="#002B51"/>
</svg>
