<svg width="24" height="24" viewBox="0 0 24 24" fill="none" xmlns="http://www.w3.org/2000/svg">
<path fill-rule="evenodd" clip-rule="evenodd" d="M3.25,5c0,-0.9665 0.7835,-1.75 1.75,-1.75h14c0.9665,0 1.75,0.7835 1.75,1.75v11v3c0,0.9665 -0.7835,1.75 -1.75,1.75h-14c-0.9665,0 -1.75,-0.7835 -1.75,-1.75v-3zM19.25,5c0,-0.13807 -0.1119,-0.25 -0.25,-0.25h-14c-0.13807,0 -0.25,0.11193 -0.25,0.25v9.1893l3.24263,-3.2426c1.10709,-1.10708 2.91377,-1.06782 3.97167,0.0863l1.8853,2.0567l0.2059,-0.2058c1.0739,-1.074 2.8151,-1.074 3.889,0l1.3055,1.3054zM13,8.5c0,-0.82843 0.6716,-1.5 1.5,-1.5c0.8284,0 1.5,0.67157 1.5,1.5c0,0.82843 -0.6716,1.5 -1.5,1.5c-0.8284,0 -1.5,-0.67157 -1.5,-1.5z" fill="#002B51"/>
</svg>
