<svg width="24" height="24" viewBox="0 0 24 24" fill="none" xmlns="http://www.w3.org/2000/svg">
<path fill-rule="evenodd" clip-rule="evenodd" d="M3.25,6c0,-1.51878 1.23122,-2.75 2.75,-2.75h12c1.5188,0 2.75,1.23122 2.75,2.75v10v2c0,1.5188 -1.2312,2.75 -2.75,2.75h-12c-1.51878,0 -2.75,-1.2312 -2.75,-2.75v-2zM19.25,6c0,-0.69036 -0.5596,-1.25 -1.25,-1.25h-12c-0.69036,0 -1.25,0.55964 -1.25,1.25v8.1893l3.24263,-3.2426c1.10709,-1.10708 2.91377,-1.06782 3.97167,0.0863l1.8853,2.0567l0.2059,-0.2058c1.0739,-1.074 2.8151,-1.074 3.889,0l1.3055,1.3054zM13,8.5c0,-0.82843 0.6716,-1.5 1.5,-1.5c0.8284,0 1.5,0.67157 1.5,1.5c0,0.82843 -0.6716,1.5 -1.5,1.5c-0.8284,0 -1.5,-0.67157 -1.5,-1.5z" fill="#002B51"/>
</svg>
