<svg width="24" height="24" viewBox="0 0 24 24" fill="none" xmlns="http://www.w3.org/2000/svg">
<path fill-rule="evenodd" clip-rule="evenodd" d="M2.25 12C2.25 6.61522 6.61522 2.25 12 2.25C17.3848 2.25 21.75 6.61522 21.75 12C21.75 17.3848 17.3848 21.75 12 21.75C6.61522 21.75 2.25 17.3848 2.25 12ZM13.125 8.625C13.125 9.24632 12.6213 9.75 12 9.75C11.3787 9.75 10.875 9.24632 10.875 8.625C10.875 8.00368 11.3787 7.5 12 7.5C12.6213 7.5 13.125 8.00368 13.125 8.625ZM12 11C12.4142 11 12.75 11.3358 12.75 11.75V15.75C12.75 16.1642 12.4142 16.5 12 16.5C11.5858 16.5 11.25 16.1642 11.25 15.75V11.75C11.25 11.3358 11.5858 11 12 11Z" fill="#002B51"/>
</svg>
