<svg width="24" height="24" viewBox="0 0 24 24" fill="none" xmlns="http://www.w3.org/2000/svg">
<path d="M12,2.25c5.3848,0 9.75,4.36522 9.75,9.75c0,5.3848 -4.3652,9.75 -9.75,9.75c-5.38478,0 -9.75,-4.3652 -9.75,-9.75c0,-5.38478 4.36522,-9.75 9.75,-9.75zM12,11c-0.4142,0 -0.75,0.3358 -0.75,0.75v4c0,0.4142 0.3358,0.75 0.75,0.75c0.4142,0 0.75,-0.3358 0.75,-0.75v-4c0,-0.4142 -0.3358,-0.75 -0.75,-0.75zM12,7.5c-0.6213,0 -1.125,0.50368 -1.125,1.125c0,0.62132 0.5037,1.125 1.125,1.125c0.6213,0 1.125,-0.50368 1.125,-1.125c0,-0.62132 -0.5037,-1.125 -1.125,-1.125z" fill="#002B51"/>
</svg>
