<svg width="36" height="24" viewBox="0 0 36 24" fill="none" xmlns="http://www.w3.org/2000/svg">
<g clip-path="url(#clip0_4050_17626)">
<path d="M0,4c0,-2.20914 1.79086,-4 4,-4h28c2.2091,0 4,1.79086 4,4v16c0,2.2091 -1.7909,4 -4,4h-28c-2.20914,0 -4,-1.7909 -4,-4z" fill="#FF4E4E"/>
<path d="M0,0.00018h36v23.99982h-36z" fill="white"/>
<path d="M0,2.25018h36v3.74998h-36z" fill="#0038B8"/>
<path d="M0,17.9999h36v3.75h-36z" fill="#0038B8"/>
<path d="M17.9998,17.2396l-1.5124,-2.6196h-3.025l1.5125,-2.6196l-1.5125,-2.61961h3.025l1.5124,-2.61962l1.5125,2.61962h3.025l-1.5125,2.61961l1.5125,2.6196h-3.025zM17.4478,14.62l0.552,0.9559l0.5521,-0.9559h-1.1038zM19.9924,13.7882h1.1038l-0.5521,-0.9559l-0.552,0.9559zM16.9674,13.7882h2.0646l1.0321,-1.7878l-1.0321,-1.7877h-2.0646l-1.0321,1.7877zM14.9029,13.7882h1.1038l-0.5521,-0.9559l-0.552,0.9559zM19.9924,10.2123l0.552,0.9559l0.5521,-0.9559h-1.1038zM14.9029,10.2123l0.552,0.9559l0.5521,-0.9559h-1.1038zM17.4475,9.38048h1.1038l-0.5521,-0.95588l-0.552,0.95588z" fill="#0038B8"/>
</g>
<defs>
<clipPath id="clip0_4050_17626">
<path d="M0,4c0,-2.20914 1.79086,-4 4,-4h28c2.2091,0 4,1.79086 4,4v16c0,2.2091 -1.7909,4 -4,4h-28c-2.20914,0 -4,-1.7909 -4,-4z" fill="white"/>
</clipPath>
</defs>
</svg>
