<svg width="24" height="24" viewBox="0 0 24 24" fill="none" xmlns="http://www.w3.org/2000/svg">
<g clip-path="url(#clip0_4050_17630)">
<path d="M0,4c0,-2.20914 1.79086,-4 4,-4h16c2.2091,0 4,1.79086 4,4v16c0,2.2091 -1.7909,4 -4,4h-16c-2.20914,0 -4,-1.7909 -4,-4z" fill="#FF4E4E"/>
<path d="M-4.5,0h33v24h-33z" fill="white"/>
<path d="M-4.5,2.25049h33v3.75h-33z" fill="#0038B8"/>
<path d="M-4.5,18h33v3.75h-33z" fill="#0038B8"/>
<path d="M12,17.1967l-1.5,-2.598h-3l1.5,-2.598l-1.5,-2.59801h3l1.5,-2.598l1.5,2.598h3l-1.5,2.59801l1.5,2.598h-3zM11.4525,14.5987l0.5475,0.948l0.5475,-0.948h-1.0947zM13.9761,13.7737h1.0947l-0.5475,-0.948l-0.5475,0.948zM10.9761,13.7737h2.0475l1.0236,-1.773l-1.0236,-1.773h-2.0475l-1.0236,1.773zM8.9286,13.7737h1.0947l-0.5475,-0.948l-0.5475,0.948zM13.9761,10.2274l0.5475,0.948l0.5475,-0.948h-1.0947zM8.9286,10.2274l0.5475,0.948l0.5475,-0.948h-1.0947zM11.4522,9.40239h1.0947l-0.5475,-0.948l-0.5475,0.948z" fill="#0038B8"/>
</g>
<defs>
<clipPath id="clip0_4050_17630">
<path d="M0,4c0,-2.20914 1.79086,-4 4,-4h16c2.2091,0 4,1.79086 4,4v16c0,2.2091 -1.7909,4 -4,4h-16c-2.20914,0 -4,-1.7909 -4,-4z" fill="white"/>
</clipPath>
</defs>
</svg>
