<svg width="24" height="24" viewBox="0 0 24 24" fill="none" xmlns="http://www.w3.org/2000/svg">
<path fill-rule="evenodd" clip-rule="evenodd" d="M17.25,4.5c0,-0.41421 -0.3358,-0.75 -0.75,-0.75h-9c-0.41421,0 -0.75,0.33579 -0.75,0.75c0,0.41421 0.33579,0.75 0.75,0.75h1.5h6h1.5c0.4142,0 0.75,-0.33579 0.75,-0.75zM7.5,2.25h9c1.2426,0 2.25,1.00736 2.25,2.25c0,0.9343 -0.5695,1.7356 -1.3802,2.07573l1.8304,2.44087l0.126,0.1836c0.276,0.43778 0.4238,0.9463 0.4238,1.4668v8.333c0,1.5188 -1.2312,2.75 -2.75,2.75h-10c-1.51878,0 -2.75,-1.2312 -2.75,-2.75v-8.333c0,-0.595 0.19282,-1.17439 0.5498,-1.6504l1.83044,-2.44087c-0.81077,-0.34013 -1.38024,-1.14143 -1.38024,-2.07573c0,-1.24264 1.00736,-2.25 2.25,-2.25z" fill="#002B51"/>
</svg>
