<svg width="24" height="24" viewBox="0 0 24 24" fill="none" xmlns="http://www.w3.org/2000/svg">
<path d="M16.5,2.25c1.2426,0 2.25,1.00736 2.25,2.25c0,0.93443 -0.5699,1.73515 -1.3809,2.0752l1.8311,2.4414l0.126,0.1836c0.276,0.43778 0.4238,0.9463 0.4238,1.4668v8.333c0,1.5188 -1.2312,2.75 -2.75,2.75h-10c-1.51878,0 -2.75,-1.2312 -2.75,-2.75v-8.333c0,-0.595 0.19282,-1.17439 0.5498,-1.6504l1.83008,-2.4414c-0.81051,-0.34025 -1.37988,-1.14109 -1.37988,-2.0752c0,-1.24264 1.00736,-2.25 2.25,-2.25zM9,6.75c-0.34413,0 -0.67085,0.14156 -0.90527,0.3877l-0.09473,0.1123l-2,2.66699c-0.16218,0.21631 -0.25,0.47961 -0.25,0.75001v8.333c0,0.6904 0.55964,1.25 1.25,1.25h10c0.6904,0 1.25,-0.5596 1.25,-1.25v-8.333c0,-0.2366 -0.067,-0.468 -0.1924,-0.667l-0.0576,-0.08301l-2,-2.66699c-0.2065,-0.27534 -0.5159,-0.45139 -0.8535,-0.49121l-0.1465,-0.00879zM7.5,3.75c-0.41421,0 -0.75,0.33579 -0.75,0.75c0,0.41421 0.33579,0.75 0.75,0.75h9c0.4142,0 0.75,-0.33579 0.75,-0.75c0,-0.41421 -0.3358,-0.75 -0.75,-0.75z" fill="#002B51"/>
</svg>
