<svg width="24" height="24" viewBox="0 0 24 24" fill="none" xmlns="http://www.w3.org/2000/svg">
<path fill-rule="evenodd" clip-rule="evenodd" d="M16.5,2.25c1.2426,0 2.25,1.00736 2.25,2.25c0,0.93444 -0.5696,1.73583 -1.3806,2.07588l1.8306,2.44079c0.357,0.47601 0.55,1.05493 0.55,1.65003v8.3333c0,1.5188 -1.2312,2.75 -2.75,2.75h-10c-1.51878,0 -2.75,-1.2312 -2.75,-2.75v-8.3333c0,-0.5951 0.19299,-1.17402 0.55,-1.65003l1.83059,-2.44079c-0.81096,-0.34005 -1.38059,-1.14144 -1.38059,-2.07588c0,-1.24264 1.00736,-2.25 2.25,-2.25zM15,6.75h-6c-0.39345,0 -0.76393,0.18524 -1,0.5l-2,2.66667c-0.16228,0.21633 -0.25,0.47953 -0.25,0.75003v8.3333c0,0.6904 0.55964,1.25 1.25,1.25h10c0.6904,0 1.25,-0.5596 1.25,-1.25v-8.3333c0,-0.2705 -0.0877,-0.5337 -0.25,-0.75003l-2,-2.66667c-0.2361,-0.31476 -0.6066,-0.5 -1,-0.5zM15,5.25h1.5c0.4142,0 0.75,-0.33579 0.75,-0.75c0,-0.41421 -0.3358,-0.75 -0.75,-0.75h-9c-0.41421,0 -0.75,0.33579 -0.75,0.75c0,0.41421 0.33579,0.75 0.75,0.75h1.5z" fill="#002B51"/>
</svg>
