<svg width="24" height="24" viewBox="0 0 24 24" fill="none" xmlns="http://www.w3.org/2000/svg">
<path fill-rule="evenodd" clip-rule="evenodd" d="M7.5,3.75c-0.41421,0 -0.75,0.33579 -0.75,0.75c0,0.41421 0.33579,0.75 0.75,0.75h1.5h6h1.5c0.4142,0 0.75,-0.33579 0.75,-0.75c0,-0.41421 -0.3358,-0.75 -0.75,-0.75zM6.63024,6.57573c-0.81077,-0.34013 -1.38024,-1.14143 -1.38024,-2.07573c0,-1.24264 1.00736,-2.25 2.25,-2.25h9c1.2426,0 2.25,1.00736 2.25,2.25c0,0.9343 -0.5695,1.7356 -1.3802,2.07573l1.8304,2.44087l0.126,0.1836c0.276,0.43778 0.4238,0.9463 0.4238,1.4668v8.333c0,1.5188 -1.2312,2.75 -2.75,2.75h-10c-1.51878,0 -2.75,-1.2312 -2.75,-2.75v-8.333c0,-0.595 0.19282,-1.17439 0.5498,-1.6504zM9,6.75c-0.34413,0 -0.67085,0.14156 -0.90527,0.3877l-0.09473,0.1123l-2,2.66699c-0.16218,0.21631 -0.25,0.47961 -0.25,0.75001v8.333c0,0.6904 0.55964,1.25 1.25,1.25h10c0.6904,0 1.25,-0.5596 1.25,-1.25v-8.333c0,-0.2366 -0.067,-0.468 -0.1924,-0.667l-0.0576,-0.08301l-2,-2.66699c-0.2065,-0.27534 -0.5159,-0.45139 -0.8535,-0.49121l-0.1465,-0.00879z" fill="#002B51"/>
</svg>
