<svg width="24" height="24" viewBox="0 0 24 24" fill="none" xmlns="http://www.w3.org/2000/svg">
<path fill-rule="evenodd" clip-rule="evenodd" d="M7.5 2.25C6.25736 2.25 5.25 3.25736 5.25 4.5C5.25 5.43444 5.81963 6.23583 6.63059 6.57588L4.8 9.01667C4.44299 9.49268 4.25 10.0716 4.25 10.6667V19C4.25 20.5188 5.48122 21.75 7 21.75H17C18.5188 21.75 19.75 20.5188 19.75 19V10.6667C19.75 10.0716 19.557 9.49268 19.2 9.01667L17.3694 6.57588C18.1804 6.23583 18.75 5.43444 18.75 4.5C18.75 3.25736 17.7426 2.25 16.5 2.25H7.5ZM15 6.75H9C8.60655 6.75 8.23607 6.93524 8 7.25L6 9.91667C5.83772 10.133 5.75 10.3962 5.75 10.6667V19C5.75 19.6904 6.30964 20.25 7 20.25H17C17.6904 20.25 18.25 19.6904 18.25 19V10.6667C18.25 10.3962 18.1623 10.133 18 9.91667L16 7.25C15.7639 6.93524 15.3934 6.75 15 6.75ZM15 5.25H16.5C16.9142 5.25 17.25 4.91421 17.25 4.5C17.25 4.08579 16.9142 3.75 16.5 3.75H7.5C7.08579 3.75 6.75 4.08579 6.75 4.5C6.75 4.91421 7.08579 5.25 7.5 5.25H9H15Z" fill="#002B51"/>
</svg>
