<svg width="24" height="24" viewBox="0 0 24 24" fill="none" xmlns="http://www.w3.org/2000/svg">
<path d="M16.5,2.25c1.2426,0 2.25,1.00736 2.25,2.25c0,0.93443 -0.5699,1.73515 -1.3809,2.0752l1.8311,2.4414l0.126,0.1836c0.276,0.43778 0.4238,0.9463 0.4238,1.4668v8.333c0,1.5188 -1.2312,2.75 -2.75,2.75h-10c-1.51878,0 -2.75,-1.2312 -2.75,-2.75v-8.333c0,-0.595 0.19282,-1.17439 0.5498,-1.6504l1.83008,-2.4414c-0.81051,-0.34025 -1.37988,-1.14109 -1.37988,-2.0752c0,-1.24264 1.00736,-2.25 2.25,-2.25zM7.5,3.75c-0.41421,0 -0.75,0.33579 -0.75,0.75c0,0.41421 0.33579,0.75 0.75,0.75h9c0.4142,0 0.75,-0.33579 0.75,-0.75c0,-0.41421 -0.3358,-0.75 -0.75,-0.75z" fill="#002B51"/>
</svg>
