<svg width="24" height="24" viewBox="0 0 24 24" fill="none" xmlns="http://www.w3.org/2000/svg">
<path fill-rule="evenodd" clip-rule="evenodd" d="M5.25 4.5C5.25 3.25736 6.25736 2.25 7.5 2.25H16.5C17.7426 2.25 18.75 3.25736 18.75 4.5C18.75 5.43444 18.1804 6.23583 17.3694 6.57588L19.2 9.01667C19.557 9.49268 19.75 10.0716 19.75 10.6667V19C19.75 20.5188 18.5188 21.75 17 21.75H7C5.48122 21.75 4.25 20.5188 4.25 19V10.6667C4.25 10.0716 4.44299 9.49268 4.8 9.01667L6.63059 6.57588C5.81963 6.23583 5.25 5.43444 5.25 4.5ZM16.5 5.25H15H9H7.5C7.08579 5.25 6.75 4.91421 6.75 4.5C6.75 4.08579 7.08579 3.75 7.5 3.75H16.5C16.9142 3.75 17.25 4.08579 17.25 4.5C17.25 4.91421 16.9142 5.25 16.5 5.25Z" fill="#002B51"/>
</svg>
