<svg width="24" height="24" viewBox="0 0 24 24" fill="none" xmlns="http://www.w3.org/2000/svg">
<path fill-rule="evenodd" clip-rule="evenodd" d="M16.5002,2.25c1.2427,0 2.25,1.00736 2.25,2.25c0,0.93444 -0.5696,1.73583 -1.3805,2.07588l1.8305,2.44079c0.3571,0.47601 0.55,1.05493 0.55,1.65003v8.3333c0,1.5188 -1.2312,2.75 -2.75,2.75h-9.99996c-1.51878,0 -2.75,-1.2312 -2.75,-2.75v-8.3333c0,-0.5951 0.19299,-1.17402 0.55,-1.65003l1.8306,-2.44079c-0.81096,-0.34005 -1.3806,-1.14144 -1.3806,-2.07588c0,-1.24264 1.00736,-2.25 2.25,-2.25zM15.0002,5.25h1.5c0.4143,0 0.75,-0.33579 0.75,-0.75c0,-0.41421 -0.3357,-0.75 -0.75,-0.75h-8.99996c-0.41421,0 -0.75,0.33579 -0.75,0.75c0,0.41421 0.33579,0.75 0.75,0.75h1.5zM14.2307,12.4746c0.2528,0.3282 0.7237,0.3894 1.0519,0.1366c0.3281,-0.2527 0.3893,-0.7236 0.1366,-1.0518c-0.5089,-0.6607 -1.2115,-1.1459 -2.0097,-1.3877c-0.7982,-0.24171 -1.652,-0.22793 -2.4419,0.0395c-0.79,0.2673 -1.47663,0.775 -1.96389,1.4518c-0.3422,0.4754 -0.57405,1.0175 -0.68277,1.587h-0.18935c-0.41421,0 -0.75,0.3358 -0.75,0.75c0,0.4142 0.33579,0.75 0.75,0.75h0.18936c0.10695,0.5603 0.3331,1.0942 0.66653,1.5643c0.48251,0.6802 1.16562,1.1926 1.95362,1.4655c0.7881,0.2729 1.6418,0.2926 2.4416,0.0565c0.7999,-0.2362 1.5059,-0.7165 2.0194,-1.3737c0.255,-0.3264 0.1971,-0.7977 -0.1293,-1.0527c-0.3264,-0.255 -0.7978,-0.1972 -1.0528,0.1293c-0.3209,0.4107 -0.7621,0.7109 -1.262,0.8585c-0.5,0.1476 -1.0335,0.1352 -1.526,-0.0353c-0.4926,-0.1706 -0.9195,-0.4908 -1.2211,-0.916c-0.1518,-0.214 -0.26797,-0.4491 -0.34574,-0.6964h2.47694c0.4143,0 0.75,-0.3358 0.75,-0.75c0,-0.4142 -0.3357,-0.75 -0.75,-0.75h-2.47695c0.07952,-0.2528 0.19925,-0.4929 0.35595,-0.7106c0.3045,-0.423 0.7337,-0.7403 1.2274,-0.9074c0.4937,-0.1671 1.0273,-0.1758 1.5262,-0.0247c0.4988,0.1511 0.938,0.4544 1.256,0.8673z" fill="#002B51"/>
</svg>
