<svg width="24" height="24" viewBox="0 0 24 24" fill="none" xmlns="http://www.w3.org/2000/svg">
<path fill-rule="evenodd" clip-rule="evenodd" d="M5.25,4.5c0,-1.24264 1.00736,-2.25 2.25,-2.25h9c1.2426,0 2.25,1.00736 2.25,2.25c0,0.93444 -0.5696,1.73583 -1.3806,2.07588l1.8306,2.44079c0.357,0.47601 0.55,1.05493 0.55,1.65003v8.3333c0,1.5188 -1.2312,2.75 -2.75,2.75h-10c-1.51878,0 -2.75,-1.2312 -2.75,-2.75v-8.3333c0,-0.5951 0.19299,-1.17402 0.55,-1.65003l1.83059,-2.44079c-0.81096,-0.34005 -1.38059,-1.14144 -1.38059,-2.07588zM8,7.25l-2,2.66667c-0.16228,0.21633 -0.25,0.47953 -0.25,0.75003v8.3333c0,0.6904 0.55964,1.25 1.25,1.25h10c0.6904,0 1.25,-0.5596 1.25,-1.25v-8.3333c0,-0.2705 -0.0877,-0.5337 -0.25,-0.75003l-2,-2.66667c-0.2361,-0.31476 -0.6066,-0.5 -1,-0.5h-6c-0.39345,0 -0.76393,0.18524 -1,0.5zM17.25,4.5c0,-0.41421 -0.3358,-0.75 -0.75,-0.75h-9c-0.41421,0 -0.75,0.33579 -0.75,0.75c0,0.41421 0.33579,0.75 0.75,0.75h1.5h6h1.5c0.4142,0 0.75,-0.33579 0.75,-0.75zM12.9747,11.6073c-0.4989,-0.1511 -1.0325,-0.1424 -1.5262,0.0247c-0.4937,0.1671 -0.9229,0.4844 -1.2274,0.9074c-0.1567,0.2177 -0.27643,0.4578 -0.35595,0.7106h2.47695c0.4143,0 0.75,0.3358 0.75,0.75c0,0.4142 -0.3357,0.75 -0.75,0.75h-2.47694c0.07777,0.2473 0.19394,0.4824 0.34574,0.6964c0.3016,0.4252 0.7285,0.7454 1.2211,0.916c0.4925,0.1705 1.026,0.1829 1.526,0.0353c0.4999,-0.1476 0.9411,-0.4478 1.262,-0.8585c0.255,-0.3265 0.7264,-0.3843 1.0528,-0.1293c0.3264,0.255 0.3843,0.7263 0.1293,1.0527c-0.5135,0.6572 -1.2195,1.1375 -2.0194,1.3737c-0.7998,0.2361 -1.6535,0.2164 -2.4416,-0.0565c-0.788,-0.2729 -1.47111,-0.7853 -1.95362,-1.4655c-0.33343,-0.4701 -0.55958,-1.004 -0.66653,-1.5643h-0.18936c-0.41421,0 -0.75,-0.3358 -0.75,-0.75c0,-0.4142 0.33579,-0.75 0.75,-0.75h0.18935c0.10872,-0.5695 0.34057,-1.1116 0.68277,-1.587c0.48726,-0.6768 1.17389,-1.1845 1.96389,-1.4518c0.7899,-0.26743 1.6437,-0.28121 2.4419,-0.0395c0.7982,0.2418 1.5008,0.727 2.0097,1.3877c0.2527,0.3282 0.1915,0.7991 -0.1366,1.0518c-0.3282,0.2528 -0.7991,0.1916 -1.0519,-0.1366c-0.318,-0.4129 -0.7572,-0.7162 -1.256,-0.8673z" fill="#002B51"/>
</svg>
