<svg width="24" height="24" viewBox="0 0 24 24" fill="none" xmlns="http://www.w3.org/2000/svg">
<path fill-rule="evenodd" clip-rule="evenodd" d="M17.25,4.5c0,-0.41421 -0.3358,-0.75 -0.75,-0.75h-9c-0.41421,0 -0.75,0.33579 -0.75,0.75c0,0.41421 0.33579,0.75 0.75,0.75h1.5h6h1.5c0.4142,0 0.75,-0.33579 0.75,-0.75zM7.5,2.25h9c1.2426,0 2.25,1.00736 2.25,2.25c0,0.9343 -0.5695,1.7356 -1.3802,2.07573l1.8304,2.44087l0.126,0.1836c0.276,0.43778 0.4238,0.9463 0.4238,1.4668v8.333c0,1.5188 -1.2312,2.75 -2.75,2.75h-10c-1.51878,0 -2.75,-1.2312 -2.75,-2.75v-8.333c0,-0.595 0.19282,-1.17439 0.5498,-1.6504l1.83044,-2.44087c-0.81077,-0.34013 -1.38024,-1.14143 -1.38024,-2.07573c0,-1.24264 1.00736,-2.25 2.25,-2.25zM8,7.25l-2,2.66699c-0.16218,0.21631 -0.25,0.47961 -0.25,0.75001v8.333c0,0.6904 0.55964,1.25 1.25,1.25h10c0.6904,0 1.25,-0.5596 1.25,-1.25v-8.333c0,-0.2366 -0.067,-0.468 -0.1924,-0.667l-0.0576,-0.08301l-2,-2.66699c-0.2065,-0.27534 -0.5159,-0.45139 -0.8535,-0.49121l-0.1465,-0.00879h-6c-0.34413,0 -0.67085,0.14156 -0.90527,0.3877zM11.2666,10.1228c0.7035,-0.17844 1.4442,-0.16263 2.1426,0.0488l0.2949,0.1016c0.6762,0.2638 1.2696,0.7079 1.7149,1.2861c0.2527,0.3282 0.1914,0.7991 -0.1368,1.0518c-0.3281,0.2525 -0.7991,0.1914 -1.0517,-0.1367c-0.2782,-0.3612 -0.6489,-0.6388 -1.0713,-0.8037l-0.1846,-0.0635c-0.4364,-0.1322 -0.8992,-0.1418 -1.3389,-0.0303l-0.1875,0.0547c-0.4319,0.1462 -0.8145,0.4075 -1.1074,0.7539l-0.1201,0.1533c-0.1567,0.2178 -0.27647,0.458 -0.35601,0.711h2.47781l0.0762,0.0039c0.3782,0.0383 0.6738,0.3577 0.6738,0.7461c0,0.3883 -0.2956,0.7077 -0.6738,0.7461l-0.0762,0.0039h-2.47729c0.07778,0.2472 0.19399,0.4823 0.34569,0.6962l0.1192,0.1543c0.2904,0.3484 0.6707,0.6125 1.1015,0.7618l0.1866,0.0566c0.439,0.1147 0.9023,0.1077 1.3398,-0.0215c0.4998,-0.1476 0.9409,-0.4477 1.2617,-0.8584c0.255,-0.3264 0.7264,-0.3838 1.0528,-0.1289c0.3264,0.255 0.3849,0.7263 0.1299,1.0527c-0.4494,0.5752 -1.0466,1.0144 -1.7247,1.2735l-0.2949,0.0996c-0.6999,0.2067 -1.4412,0.2176 -2.1435,0.0342l-0.2979,-0.0899c-0.6895,-0.2387 -1.29891,-0.6613 -1.76366,-1.2187l-0.19043,-0.2471c-0.33344,-0.47 -0.55951,-1.0041 -0.66642,-1.5644h-0.1893c-0.41421,0 -0.75,-0.3358 -0.75,-0.75c0,-0.4142 0.33579,-0.75 0.75,-0.75h0.18977c0.10866,-0.5695 0.34036,-1.1116 0.68255,-1.587l0.19141,-0.246c0.46865,-0.5543 1.08128,-0.9721 1.77248,-1.2061z" fill="#002B51"/>
</svg>
