<svg width="24" height="24" viewBox="0 0 24 24" fill="none" xmlns="http://www.w3.org/2000/svg">
<path d="M16.5002,2.25c1.2427,0 2.25,1.00736 2.25,2.25c0,0.93443 -0.5699,1.73515 -1.3808,2.0752l1.831,2.4414l0.126,0.1836c0.276,0.43778 0.4238,0.9463 0.4238,1.4668v8.333c0,1.5188 -1.2312,2.75 -2.75,2.75h-9.99996c-1.51878,0 -2.75,-1.2312 -2.75,-2.75v-8.333c0,-0.595 0.19282,-1.17439 0.54981,-1.6504l1.83008,-2.4414c-0.81051,-0.34025 -1.37989,-1.14109 -1.37989,-2.0752c0,-1.24264 1.00736,-2.25 2.25,-2.25zM13.4094,10.1719c-0.6981,-0.21138 -1.4393,-0.22715 -2.1426,-0.0489l-0.2988,0.0879c-0.691,0.234 -1.30387,0.652 -1.77244,1.2061l-0.19141,0.2461c-0.34203,0.4751 -0.57099,1.0176 -0.67969,1.5869h-0.19238c-0.41421,0 -0.74999,0.3358 -0.75,0.75c0,0.4142 0.33579,0.75 0.75,0.75h0.19238c0.10695,0.5601 0.32982,1.0946 0.66309,1.5645l0.19043,0.247c0.46467,0.5573 1.07432,0.98 1.76372,1.2188l0.2978,0.0898c0.7021,0.1833 1.4438,0.1724 2.1436,-0.0342l0.2949,-0.0996c0.6779,-0.2591 1.2754,-0.6985 1.7246,-1.2734c0.2547,-0.3263 0.1962,-0.7977 -0.1299,-1.0527c-0.3263,-0.2548 -0.7977,-0.1973 -1.0527,0.1289c-0.3208,0.4104 -0.7622,0.7107 -1.2617,0.8584c-0.4373,0.129 -0.9011,0.136 -1.3399,0.0214l-0.1865,-0.0566c-0.4307,-0.1492 -0.8112,-0.4135 -1.1016,-0.7617l-0.1191,-0.1543c-0.1517,-0.2138 -0.26698,-0.4492 -0.34474,-0.6963h2.47654l0.0762,-0.0039c0.378,-0.0386 0.6738,-0.3579 0.6738,-0.7461c0,-0.3882 -0.2958,-0.7075 -0.6738,-0.7461l-0.0762,-0.0039h-2.47654c0.07952,-0.2527 0.19784,-0.4934 0.35444,-0.7109l0.1202,-0.1534c0.2928,-0.3462 0.6756,-0.6076 1.1074,-0.7539l0.1875,-0.0547c0.4394,-0.1113 0.9027,-0.1017 1.3389,0.0303l0.1845,0.0635c0.4222,0.1649 0.7932,0.4427 1.0713,0.8037c0.2527,0.3278 0.7237,0.389 1.0518,0.1367c0.3278,-0.2527 0.3891,-0.7237 0.1367,-1.0517c-0.4452,-0.578 -1.0389,-1.0223 -1.7149,-1.2862zM7.50024,3.75c-0.41421,0 -0.75,0.33579 -0.75,0.75c0,0.41421 0.33579,0.75 0.75,0.75h8.99996c0.4143,0 0.75,-0.33579 0.75,-0.75c0,-0.41421 -0.3357,-0.75 -0.75,-0.75z" fill="#002B51"/>
</svg>
