<svg width="24" height="24" viewBox="0 0 24 24" fill="none" xmlns="http://www.w3.org/2000/svg">
<path d="M16.5,2.25c1.2426,0 2.25,1.00736 2.25,2.25c0,0.93443 -0.5699,1.73515 -1.3809,2.0752l1.8311,2.4414l0.126,0.1836c0.276,0.43778 0.4238,0.9463 0.4238,1.4668v8.333c0,1.5188 -1.2312,2.75 -2.75,2.75h-10c-1.51878,0 -2.75,-1.2312 -2.75,-2.75v-8.333c0,-0.595 0.19282,-1.17439 0.5498,-1.6504l1.83008,-2.4414c-0.81051,-0.34025 -1.37988,-1.14109 -1.37988,-2.0752c0,-1.24264 1.00736,-2.25 2.25,-2.25zM9,6.75c-0.34413,0 -0.67085,0.14156 -0.90527,0.3877l-0.09473,0.1123l-2,2.66699c-0.16218,0.21631 -0.25,0.47961 -0.25,0.75001v8.333c0,0.6904 0.55964,1.25 1.25,1.25h10c0.6904,0 1.25,-0.5596 1.25,-1.25v-8.333c0,-0.2366 -0.067,-0.468 -0.1924,-0.667l-0.0576,-0.08301l-2,-2.66699c-0.2065,-0.27534 -0.5159,-0.45139 -0.8535,-0.49121l-0.1465,-0.00879zM10.9678,10.2109c0.7896,-0.26714 1.6435,-0.28058 2.4414,-0.039c0.798,0.2417 1.5009,0.727 2.0097,1.3877c0.2526,0.3281 0.1913,0.799 -0.1367,1.0517c-0.3281,0.2524 -0.7991,0.1912 -1.0517,-0.1367c-0.318,-0.4128 -0.7572,-0.7161 -1.2559,-0.8672c-0.4987,-0.151 -1.0328,-0.1426 -1.5264,0.0244c-0.4935,0.1672 -0.923,0.4844 -1.2275,0.9073c-0.1566,0.2176 -0.27508,0.4581 -0.35449,0.7109h2.47659l0.0761,0.0039c0.3782,0.0385 0.6739,0.3578 0.6739,0.7461c0,0.3883 -0.2957,0.7076 -0.6739,0.7461l-0.0761,0.0039h-2.47659c0.07776,0.2471 0.19309,0.4825 0.34469,0.6963c0.3015,0.4249 0.7285,0.7454 1.2207,0.916c0.4925,0.1705 1.0266,0.1827 1.5264,0.0352c0.4997,-0.1477 0.9409,-0.4479 1.2617,-0.8584c0.255,-0.3263 0.7264,-0.3837 1.0528,-0.1289c0.3262,0.255 0.3847,0.7263 0.1298,1.0527l-0.2021,0.2373c-0.4899,0.5353 -1.1177,0.9291 -1.8174,1.1357c-0.7996,0.2361 -1.6536,0.217 -2.4414,-0.0556c-0.7879,-0.2729 -1.47163,-0.7858 -1.9541,-1.4658c-0.33327,-0.4699 -0.55613,-1.0044 -0.66308,-1.5645h-0.19238c-0.41422,0 -0.75,-0.3358 -0.75,-0.75c0,-0.4142 0.33579,-0.75 0.75,-0.75h0.19238c0.10884,-0.5692 0.3377,-1.1118 0.67969,-1.5869c0.4872,-0.6767 1.17409,-1.1848 1.96389,-1.4522zM7.5,3.75c-0.41421,0 -0.75,0.33579 -0.75,0.75c0,0.41421 0.33579,0.75 0.75,0.75h9c0.4142,0 0.75,-0.33579 0.75,-0.75c0,-0.41421 -0.3358,-0.75 -0.75,-0.75z" fill="#002B51"/>
</svg>
