<svg width="24" height="24" viewBox="0 0 24 24" fill="none" xmlns="http://www.w3.org/2000/svg">
<path fill-rule="evenodd" clip-rule="evenodd" d="M7.50024 2.25C6.2576 2.25 5.25024 3.25736 5.25024 4.5C5.25024 5.43444 5.81988 6.23583 6.63084 6.57588L4.80024 9.01667C4.44323 9.49268 4.25024 10.0716 4.25024 10.6667V19C4.25024 20.5188 5.48146 21.75 7.00024 21.75H17.0002C18.519 21.75 19.7502 20.5188 19.7502 19V10.6667C19.7502 10.0716 19.5573 9.49268 19.2002 9.01667L17.3697 6.57588C18.1806 6.23583 18.7502 5.43444 18.7502 4.5C18.7502 3.25736 17.7429 2.25 16.5002 2.25H7.50024ZM15.0002 5.25H16.5002C16.9145 5.25 17.2502 4.91421 17.2502 4.5C17.2502 4.08579 16.9145 3.75 16.5002 3.75H7.50024C7.08603 3.75 6.75024 4.08579 6.75024 4.5C6.75024 4.91421 7.08603 5.25 7.50024 5.25H9.00024H15.0002ZM12.9747 11.6073C12.4758 11.4562 11.9422 11.4649 11.4485 11.632C10.9548 11.7991 10.5256 12.1164 10.2211 12.5394C10.0644 12.7571 9.94467 12.9972 9.86515 13.25H12.3421C12.7564 13.25 13.0921 13.5858 13.0921 14C13.0921 14.4142 12.7564 14.75 12.3421 14.75H9.86516C9.94293 14.9973 10.0591 15.2324 10.2109 15.4464C10.5125 15.8716 10.9394 16.1918 11.432 16.3624C11.9245 16.5329 12.458 16.5453 12.958 16.3977C13.4579 16.2501 13.8991 15.9499 14.22 15.5392C14.475 15.2127 14.9464 15.1549 15.2728 15.4099C15.5992 15.6649 15.6571 16.1362 15.4021 16.4626C14.8886 17.1198 14.1826 17.6001 13.3827 17.8363C12.5829 18.0724 11.7292 18.0527 10.9411 17.7798C10.1531 17.5069 9.46999 16.9945 8.98748 16.3143C8.65405 15.8442 8.4279 15.3103 8.32095 14.75H8.13159C7.71738 14.75 7.38159 14.4142 7.38159 14C7.38159 13.5858 7.71738 13.25 8.13159 13.25H8.32094C8.42966 12.6805 8.66151 12.1384 9.00371 11.663C9.49097 10.9862 10.1776 10.4785 10.9676 10.2112C11.7575 9.94377 12.6113 9.92999 13.4095 10.1717C14.2077 10.4135 14.9103 10.8987 15.4192 11.5594C15.6719 11.8876 15.6107 12.3585 15.2826 12.6112C14.9544 12.864 14.4835 12.8028 14.2307 12.4746C13.9127 12.0617 13.4735 11.7584 12.9747 11.6073Z" fill="#002B51"/>
</svg>
