<svg width="24" height="24" viewBox="0 0 24 24" fill="none" xmlns="http://www.w3.org/2000/svg">
<path d="M16.5002,2.25c1.2427,0 2.25,1.00736 2.25,2.25c0,0.93443 -0.5699,1.73515 -1.3808,2.0752l1.831,2.4414l0.126,0.1836c0.276,0.43778 0.4238,0.9463 0.4238,1.4668v8.333c0,1.5188 -1.2312,2.75 -2.75,2.75h-9.99996c-1.51878,0 -2.75,-1.2312 -2.75,-2.75v-8.333c0,-0.595 0.19282,-1.17439 0.54981,-1.6504l1.83008,-2.4414c-0.81051,-0.34025 -1.37989,-1.14109 -1.37989,-2.0752c0,-1.24264 1.00736,-2.25 2.25,-2.25zM13.4094,10.1719c-0.7978,-0.24155 -1.6518,-0.22807 -2.4414,0.039c-0.7897,0.2674 -1.47665,0.7755 -1.96385,1.4522c-0.34198,0.4751 -0.57084,1.0177 -0.67969,1.5869h-0.19238c-0.41421,0 -0.74999,0.3358 -0.75,0.75c0,0.4142 0.33579,0.75 0.75,0.75h0.19238c0.10695,0.5601 0.32982,1.0946 0.66309,1.5645c0.48246,0.68 1.16625,1.1929 1.95415,1.4658c0.7877,0.2726 1.6419,0.2916 2.4414,0.0556c0.6995,-0.2066 1.3275,-0.6005 1.8173,-1.1357l0.2022,-0.2373c0.2547,-0.3263 0.1962,-0.7977 -0.1299,-1.0527c-0.3263,-0.2548 -0.7977,-0.1973 -1.0527,0.1289c-0.3208,0.4104 -0.7622,0.7107 -1.2617,0.8584c-0.4997,0.1474 -1.0341,0.1352 -1.5264,-0.0352c-0.4922,-0.1706 -0.9193,-0.4911 -1.2207,-0.916c-0.1517,-0.2138 -0.26698,-0.4492 -0.34474,-0.6963h2.47654l0.0762,-0.0039c0.378,-0.0386 0.6738,-0.3579 0.6738,-0.7461c0,-0.3882 -0.2958,-0.7075 -0.6738,-0.7461l-0.0762,-0.0039h-2.47654c0.0794,-0.2528 0.19784,-0.4934 0.35444,-0.7109c0.3045,-0.4228 0.7341,-0.7401 1.2276,-0.9073c0.4935,-0.1669 1.0277,-0.1753 1.5264,-0.0244c0.4985,0.1511 0.9379,0.4545 1.2558,0.8672c0.2527,0.3278 0.7237,0.389 1.0518,0.1367c0.3278,-0.2527 0.3891,-0.7237 0.1367,-1.0517c-0.5088,-0.6606 -1.2118,-1.146 -2.0098,-1.3877zM7.50024,3.75c-0.41421,0 -0.75,0.33579 -0.75,0.75c0,0.41421 0.33579,0.75 0.75,0.75h8.99996c0.4143,0 0.75,-0.33579 0.75,-0.75c0,-0.41421 -0.3357,-0.75 -0.75,-0.75z" fill="#002B51"/>
</svg>
