<svg width="24" height="24" viewBox="0 0 24 24" fill="none" xmlns="http://www.w3.org/2000/svg">
<path d="M16.5,2.25c1.2426,0 2.25,1.00736 2.25,2.25c0,0.93443 -0.5699,1.73515 -1.3809,2.0752l1.8311,2.4414l0.126,0.1836c0.276,0.43778 0.4238,0.9463 0.4238,1.4668v8.333c0,1.5188 -1.2312,2.75 -2.75,2.75h-10c-1.51878,0 -2.75,-1.2312 -2.75,-2.75v-8.333c0,-0.595 0.19282,-1.17439 0.5498,-1.6504l1.83008,-2.4414c-0.81051,-0.34025 -1.37988,-1.14109 -1.37988,-2.0752c0,-1.24264 1.00736,-2.25 2.25,-2.25zM9,6.75c-0.34413,0 -0.67085,0.14156 -0.90527,0.3877l-0.09473,0.1123l-2,2.66699c-0.16218,0.21631 -0.25,0.47961 -0.25,0.75001v8.333c0,0.6904 0.55964,1.25 1.25,1.25h10c0.6904,0 1.25,-0.5596 1.25,-1.25v-8.333c0,-0.2366 -0.067,-0.468 -0.1924,-0.667l-0.0576,-0.08301l-2,-2.66699c-0.2065,-0.27534 -0.5159,-0.45139 -0.8535,-0.49121l-0.1465,-0.00879zM11.2666,10.123c0.7033,-0.17832 1.4444,-0.1625 2.1426,0.0489l0.2949,0.1015c0.6761,0.2639 1.2696,0.7081 1.7148,1.2862c0.2526,0.3281 0.1913,0.799 -0.1367,1.0517c-0.3281,0.2524 -0.7991,0.1912 -1.0517,-0.1367c-0.2782,-0.3611 -0.649,-0.6388 -1.0713,-0.8037l-0.1846,-0.0635c-0.4362,-0.1321 -0.8994,-0.1416 -1.3389,-0.0303l-0.1875,0.0547c-0.4318,0.1463 -0.8146,0.4077 -1.1074,0.7539l-0.1201,0.1534c-0.1566,0.2175 -0.27497,0.4581 -0.35449,0.7109h2.47659l0.0761,0.0039c0.3782,0.0385 0.6739,0.3578 0.6739,0.7461c0,0.3883 -0.2957,0.7076 -0.6739,0.7461l-0.0761,0.0039h-2.47659c0.07776,0.2471 0.19309,0.4825 0.34469,0.6963l0.1192,0.1543c0.2903,0.3482 0.6708,0.6124 1.1015,0.7617l0.1866,0.0566c0.4388,0.1146 0.9025,0.1077 1.3398,-0.0214c0.4997,-0.1477 0.9409,-0.4479 1.2617,-0.8584c0.255,-0.3263 0.7264,-0.3837 1.0528,-0.1289c0.3262,0.255 0.3847,0.7263 0.1298,1.0527c-0.4492,0.575 -1.0466,1.0143 -1.7246,1.2734l-0.2949,0.0996c-0.6998,0.2066 -1.4413,0.2176 -2.1435,0.0342l-0.2979,-0.0898c-0.6894,-0.2388 -1.29898,-0.6615 -1.76367,-1.2188l-0.19043,-0.247c-0.33327,-0.4699 -0.55613,-1.0044 -0.66308,-1.5645h-0.19238c-0.41422,0 -0.75,-0.3358 -0.75,-0.75c0,-0.4142 0.33579,-0.75 0.75,-0.75h0.19238c0.1087,-0.5693 0.33765,-1.1118 0.67969,-1.5869l0.1914,-0.2461c0.46858,-0.5541 1.08139,-0.9721 1.77249,-1.2061zM7.5,3.75c-0.41421,0 -0.75,0.33579 -0.75,0.75c0,0.41421 0.33579,0.75 0.75,0.75h9c0.4142,0 0.75,-0.33579 0.75,-0.75c0,-0.41421 -0.3358,-0.75 -0.75,-0.75z" fill="#002B51"/>
</svg>
