<svg width="24" height="24" viewBox="0 0 24 24" fill="none" xmlns="http://www.w3.org/2000/svg">
<path fill-rule="evenodd" clip-rule="evenodd" d="M7.50024,3.75c-0.41421,0 -0.75,0.33579 -0.75,0.75c0,0.41421 0.33579,0.75 0.75,0.75h1.5h5.99996h1.5c0.4143,0 0.75,-0.33579 0.75,-0.75c0,-0.41421 -0.3357,-0.75 -0.75,-0.75zM6.63048,6.57573c-0.81077,-0.34013 -1.38024,-1.14143 -1.38024,-2.07573c0,-1.24264 1.00736,-2.25 2.25,-2.25h8.99996c1.2427,0 2.25,1.00736 2.25,2.25c0,0.9343 -0.5694,1.7356 -1.3802,2.07573l1.8304,2.44087l0.126,0.1836c0.276,0.43778 0.4238,0.9463 0.4238,1.4668v8.333c0,1.5188 -1.2312,2.75 -2.75,2.75h-9.99996c-1.51878,0 -2.75,-1.2312 -2.75,-2.75v-8.333c0,-0.595 0.19282,-1.17439 0.54981,-1.6504zM10.9678,10.2107c-0.6912,0.234 -1.30383,0.6518 -1.77248,1.2061l-0.19141,0.246c-0.34219,0.4754 -0.57389,1.0175 -0.68255,1.587h-0.18977c-0.41421,0 -0.75,0.3358 -0.75,0.75c0,0.4142 0.33579,0.75 0.75,0.75h0.1893c0.10691,0.5603 0.33298,1.0944 0.66642,1.5644l0.19043,0.2471c0.46475,0.5574 1.07416,0.98 1.76366,1.2187l0.2979,0.0899c0.7023,0.1834 1.4436,0.1725 2.1435,-0.0342l0.2949,-0.0996c0.6781,-0.2591 1.2753,-0.6983 1.7247,-1.2735c0.255,-0.3264 0.1965,-0.7977 -0.1299,-1.0527c-0.3264,-0.2549 -0.7978,-0.1975 -1.0528,0.1289c-0.3208,0.4107 -0.7619,0.7108 -1.2617,0.8584c-0.4375,0.1292 -0.9008,0.1362 -1.3398,0.0215l-0.1866,-0.0566c-0.4308,-0.1493 -0.8111,-0.4134 -1.1015,-0.7618l-0.1192,-0.1543c-0.1517,-0.2139 -0.26791,-0.449 -0.34569,-0.6962h2.47729l0.0762,-0.0039c0.3782,-0.0384 0.6738,-0.3578 0.6738,-0.7461c0,-0.3884 -0.2956,-0.7078 -0.6738,-0.7461l-0.0762,-0.0039h-2.47781c0.07954,-0.253 0.19931,-0.4932 0.35601,-0.711l0.1201,-0.1533c0.2929,-0.3464 0.6755,-0.6077 1.1074,-0.7539l0.1875,-0.0547c0.4397,-0.1115 0.9025,-0.1019 1.3389,0.0303l0.1846,0.0635c0.4224,0.1649 0.7931,0.4425 1.0713,0.8037c0.2526,0.3281 0.7236,0.3892 1.0517,0.1367c0.3282,-0.2527 0.3895,-0.7236 0.1368,-1.0518c-0.4453,-0.5782 -1.0387,-1.0223 -1.7149,-1.2861l-0.2949,-0.1016c-0.6984,-0.21143 -1.4391,-0.22724 -2.1426,-0.0488z" fill="#002B51"/>
</svg>
