<svg width="24" height="24" viewBox="0 0 24 24" fill="none" xmlns="http://www.w3.org/2000/svg">
<path d="M9.5,2.25c0.6904,0 1.25,0.55964 1.25,1.25v1.25h0.3057c0.7374,0 1.4644,0.17219 2.124,0.50195l4.9443,2.47168c1.6091,0.80455 2.6258,2.44907 2.626,4.24807v6.0283c0,1.5188 -1.2312,2.75 -2.75,2.75h-11c-1.51878,0 -2.75,-1.2312 -2.75,-2.75v-10.5c0,-1.2585 0.84614,-2.31684 2,-2.64355v-1.35645c0,-0.69036 0.55964,-1.25 1.25,-1.25zM7,6.25c-0.69036,0 -1.25,0.55964 -1.25,1.25v10.5c0,0.6904 0.55964,1.25 1.25,1.25h11c0.6904,0 1.25,-0.5596 1.25,-1.25v-6.0283c-0.0002,-1.2309 -0.696,-2.35581 -1.7969,-2.90627l-4.9443,-2.47266c-0.4512,-0.22549 -0.9488,-0.34277 -1.4531,-0.34277zM11.3291,8.66504c0.1736,-0.34726 0.5802,-0.50084 0.9355,-0.36621l0.0704,0.03027l4,2l0.0673,0.0381c0.3209,0.2034 0.4419,0.6206 0.2686,0.9678c-0.1736,0.3472 -0.5802,0.5008 -0.9355,0.3662l-0.0704,-0.0303l-4,-2l-0.0673,-0.03809c-0.3209,-0.20345 -0.4419,-0.62058 -0.2686,-0.96777zM7.75,4.75h1.5v-1h-1.5z" fill="#002B51"/>
</svg>
