<svg width="24" height="24" viewBox="0 0 24 24" fill="none" xmlns="http://www.w3.org/2000/svg">
<path fill-rule="evenodd" clip-rule="evenodd" d="M7.75,3.75v1h1.5v-1zM7.5,2.25h2c0.6904,0 1.25,0.55964 1.25,1.25v1.25h0.3057c0.7374,0 1.4644,0.17219 2.124,0.50195l4.9443,2.47168c1.6091,0.80455 2.6258,2.44907 2.626,4.24807v6.0283c0,1.5188 -1.2312,2.75 -2.75,2.75h-11c-1.51878,0 -2.75,-1.2312 -2.75,-2.75v-10.5c0,-1.25878 0.84575,-2.32002 2,-2.64648v-1.35352c0,-0.69036 0.55964,-1.25 1.25,-1.25zM11.5977,9.63281l0.0673,0.03809l4,2l0.0704,0.0303c0.3553,0.1346 0.7619,-0.019 0.9355,-0.3662c0.1733,-0.3472 0.0523,-0.7644 -0.2686,-0.9678l-0.0673,-0.0381l-4,-2l-0.0704,-0.03027c-0.3553,-0.13463 -0.7619,0.01895 -0.9355,0.36621c-0.1733,0.34719 -0.0523,0.76432 0.2686,0.96777z" fill="#002B51"/>
</svg>
