<svg width="24" height="24" viewBox="0 0 24 24" fill="none" xmlns="http://www.w3.org/2000/svg">
<path fill-rule="evenodd" clip-rule="evenodd" d="M20.6162,8.05545c1.0738,1.07391 1.0738,2.81475 0,3.88865l-3.1719,3.1719c-1.0739,1.0737 -2.8147,1.0737 -3.8886,0l-0.2325,-0.2324l-0.8232,0.8232c-0.1875,0.1875 -0.4418,0.293 -0.707,0.293h-1.293v2c0,0.5523 -0.4477,1 -1,1h-1.5v1.5c0,0.5523 -0.44772,1 -1,1h-3.5c-0.55228,0 -1,-0.4477 -1,-1v-2.793c0.00002,-0.2652 0.10545,-0.5195 0.29297,-0.707l6.32324,-6.3233l-0.23242,-0.2324c-1.07374,-1.07388 -1.07374,-2.81474 0,-3.88865l3.17191,-3.17187l0.2089,-0.18848c1.0801,-0.88084 2.6729,-0.81817 3.6797,0.18848zM12.918,7.97342l0.0517,0.05664l3,3.00004l0.0567,0.0517c0.2945,0.2403 0.7293,0.2229 1.0039,-0.0517c0.2746,-0.2746 0.292,-0.7094 0.0517,-1.0039l-0.0517,-0.05669l-3,-3l-0.0567,-0.05176c-0.2945,-0.24031 -0.7293,-0.22284 -1.0039,0.05176c-0.2746,0.27461 -0.292,0.70933 -0.0517,1.00391z" fill="#002B51"/>
</svg>
