<svg width="24" height="24" viewBox="0 0 24 24" fill="none" xmlns="http://www.w3.org/2000/svg">
<path d="M12.0557,3.38342c1.0739,-1.07353 2.8148,-1.07353 3.8887,0l4.6718,4.67188c1.0737,1.07385 1.0736,2.8148 0,3.8887l-3.1718,3.1718c-1.0739,1.0738 -2.8148,1.0738 -3.8887,0l-0.0557,-0.0556l-0.8232,0.8232c-0.2344,0.2344 -0.5523,0.3662 -0.8838,0.3662h-1.043v1.75c0,0.6904 -0.5596,1.25 -1.24997,1.25h-1.25v1.25c0,0.6904 -0.55964,1.25 -1.25,1.25h-3.5c-0.69036,0 -1.25,-0.5596 -1.25,-1.25v-2.7929c0.0001,-0.3314 0.13188,-0.6495 0.36621,-0.8838l6.32324,-6.3233l-0.05566,-0.0556c-1.07358,-1.07395 -1.07369,-2.81485 0,-3.8887zM3.75003,17.8102v2.4394h3v-1.25c0.00017,-0.6902 0.55975,-1.25 1.25,-1.25h1.25v-1.75c0.00017,-0.6902 0.55975,-1.25 1.24997,-1.25h1.1895l0.75,-0.75l-2.4395,-2.4394zM14.8838,4.44397c-0.4881,-0.48774 -1.2795,-0.48774 -1.7676,0l-3.17183,3.17187c-0.4879,0.48807 -0.4878,1.27945 0,1.76758l4.67183,4.67188c0.4882,0.488 1.2795,0.488 1.7676,0l3.1719,-3.1719c0.4878,-0.4881 0.4879,-1.27949 0,-1.76756zM12.9698,6.96936c0.2928,-0.29268 0.7677,-0.29268 1.0605,0l3,3l0.0518,0.05664c0.2402,0.2945 0.2227,0.7293 -0.0518,1.0039c-0.2746,0.2746 -0.7093,0.2921 -1.0039,0.0518l-0.0566,-0.0518l-3,-2.99999c-0.2928,-0.29291 -0.2929,-0.76771 0,-1.06055z" fill="#002B51"/>
</svg>
