<svg width="24" height="24" viewBox="0 0 24 24" fill="none" xmlns="http://www.w3.org/2000/svg">
<path fill-rule="evenodd" clip-rule="evenodd" d="M14.8839,4.44452c-0.4881,-0.48816 -1.2796,-0.48816 -1.7678,0l-3.17153,3.17157c-0.48815,0.48815 -0.48815,1.27961 0,1.76777l0.93933,0.93934l2.7929,2.7929c0.0003,0.0003 0.0006,0.0005 0.0008,0.0008l0.9385,0.9385c0.4882,0.4882 1.2797,0.4882 1.7678,0l3.1716,-3.1715c0.4881,-0.4882 0.4881,-1.27966 0,-1.76781zM12.6768,15.8839c-0.2344,0.2344 -0.5524,0.3661 -0.8839,0.3661h-1.0429v1.75c0,0.6903 -0.5596,1.25 -1.24997,1.25h-1.25v1.25c0,0.6903 -0.55964,1.25 -1.25,1.25h-3.5c-0.69036,0 -1.25,-0.5597 -1.25,-1.25v-2.7929c0,-0.3315 0.1317,-0.6495 0.36612,-0.8839l6.32322,-6.3232l-0.05546,-0.0555c-1.07394,-1.07393 -1.07394,-2.81513 0,-3.88907l3.17159,-3.17157c1.0739,-1.07395 2.8151,-1.07395 3.8891,0l4.6715,4.67157c1.074,1.07394 1.074,2.81517 0,3.88907l-3.1715,3.1716c-1.074,1.0739 -2.8152,1.0739 -3.8891,0l-0.0555,-0.0555zM12.4394,14l-2.4394,-2.4394l-6.24997,6.25v2.4394h3v-1.25c0,-0.6904 0.55964,-1.25 1.25,-1.25h1.25v-1.75c0,-0.6904 0.55964,-1.25 1.24997,-1.25h1.1894zM12.9697,6.96964c0.2929,-0.29289 0.7678,-0.29289 1.0607,0l3,3c0.2929,0.29286 0.2929,0.76776 0,1.06066c-0.2929,0.2929 -0.7678,0.2929 -1.0607,0l-3,-3c-0.2929,-0.29289 -0.2929,-0.76776 0,-1.06066z" fill="#002B51"/>
</svg>
