<svg width="24" height="24" viewBox="0 0 24 24" fill="none" xmlns="http://www.w3.org/2000/svg">
<path d="M12.2647,3.19556c1.0801,-0.88084 2.6729,-0.81817 3.6797,0.18847l4.6719,4.67188c1.0736,1.07392 1.0737,2.81479 0,3.88869l-3.1719,3.1719c-1.0739,1.0735 -2.8148,1.0735 -3.8887,0l-0.0556,-0.0557l-0.8233,0.8232c-0.2344,0.2343 -0.5523,0.3662 -0.8838,0.3662h-1.0429v1.75c-0.0002,0.6903 -0.5598,1.25 -1.25004,1.25h-1.25v1.25c-0.00016,0.6903 -0.55974,1.25 -1.25,1.25h-3.5c-0.69025,0 -1.24984,-0.5597 -1.25,-1.25v-2.7929c0.00002,-0.3314 0.1319,-0.6494 0.36621,-0.8838l6.32324,-6.3233l-0.05566,-0.0556c-1.07369,-1.07387 -1.07359,-2.81477 0,-3.88869l3.17185,-3.17188zM3.75006,17.8108v2.4394h3v-1.25c0,-0.6903 0.55965,-1.25 1.25,-1.25h1.25v-1.75c0,-0.6903 0.55964,-1.25 1.25004,-1.25h1.1894l0.75,-0.75l-2.4394,-2.4394zM14.8839,4.44458c-0.4882,-0.48795 -1.2795,-0.48795 -1.7676,0l-3.1719,3.17188c-0.48781,0.48813 -0.48791,1.27951 0,1.76758l4.6719,4.67186c0.4881,0.4878 1.2795,0.4878 1.7676,0l3.1718,-3.1719c0.4879,-0.488 0.4878,-1.27941 0,-1.76754zM12.9698,6.96997c0.2746,-0.2746 0.7093,-0.29206 1.0039,-0.05176l0.0566,0.05176l3,3l0.0518,0.05663c0.2401,0.2946 0.2228,0.7294 -0.0518,1.0039c-0.2745,0.2744 -0.7093,0.2919 -1.0039,0.0518l-0.0566,-0.0518l-3,-2.99998l-0.0518,-0.05664c-0.2402,-0.29453 -0.2227,-0.7293 0.0518,-1.00391z" fill="#002B51"/>
</svg>
