<svg width="24" height="24" viewBox="0 0 24 24" fill="none" xmlns="http://www.w3.org/2000/svg">
<path fill-rule="evenodd" clip-rule="evenodd" d="M12.2647,3.1951c1.0801,-0.88084 2.6729,-0.81817 3.6797,0.18848l4.6719,4.67187c1.0737,1.07391 1.0737,2.81475 0,3.88865l-3.1719,3.1719c-1.0739,1.0737 -2.8148,1.0737 -3.8887,0l-0.0556,-0.0557l-0.8233,0.8233c-0.2344,0.2344 -0.5523,0.3662 -0.8838,0.3662h-1.0429v1.75c0,0.6903 -0.5597,1.25 -1.25004,1.25h-1.25v1.25c0,0.6903 -0.55964,1.25 -1.25,1.25h-3.5c-0.69035,0 -1.25,-0.5597 -1.25,-1.25v-2.793c0.00002,-0.3315 0.13181,-0.6494 0.36621,-0.8838l6.32324,-6.3232l-0.05566,-0.0557c-1.07374,-1.07388 -1.07374,-2.81474 0,-3.88865l3.17185,-3.17187zM10.0001,11.5603l-6.25004,6.25v2.4395h3v-1.25c0,-0.6904 0.55965,-1.25 1.25,-1.25h1.25v-1.75c0,-0.6904 0.55964,-1.25 1.25004,-1.25h1.1894l0.75,-0.75zM13.6768,13.116l0.9395,0.9395c0.4881,0.4879 1.2794,0.4879 1.7676,0l3.1718,-3.1719c0.488,-0.4881 0.488,-1.27948 0,-1.7676l-4.6718,-4.67188c-0.4882,-0.48795 -1.2795,-0.48795 -1.7676,0l-3.1719,3.17188c-0.48796,0.48812 -0.48796,1.27946 0,1.76758l0.9395,0.93942zM12.9698,6.96951c0.2746,-0.2746 0.7093,-0.29206 1.0039,-0.05175l0.0566,0.05175l3,3l0.0518,0.05669c0.2403,0.2945 0.2228,0.7293 -0.0518,1.0039c-0.2746,0.2746 -0.7093,0.292 -1.0039,0.0517l-0.0566,-0.0517l-3,-3.00004l-0.0518,-0.05664c-0.2403,-0.29458 -0.2228,-0.7293 0.0518,-1.00391z" fill="#002B51"/>
</svg>
