<svg width="24" height="24" viewBox="0 0 24 24" fill="none" xmlns="http://www.w3.org/2000/svg">
<path fill-rule="evenodd" clip-rule="evenodd" d="M15.9445 3.38386C14.8706 2.30991 13.1294 2.30991 12.0555 3.38386L8.88388 6.55543C7.80994 7.62937 7.80994 9.37057 8.88388 10.4445L9.11612 10.6767L2.79289 17C2.60536 17.1875 2.5 17.4419 2.5 17.7071V20.5C2.5 21.0523 2.94772 21.5 3.5 21.5H7C7.55228 21.5 8 21.0523 8 20.5V19H9.5C10.0523 19 10.5 18.5523 10.5 18V16H11.7929C12.0581 16 12.3125 15.8946 12.5 15.7071L13.3232 14.8839L13.5555 15.1161C14.6294 16.19 16.3706 16.19 17.4445 15.1161L20.6161 11.9445C21.6901 10.8706 21.6901 9.12937 20.6161 8.05543L15.9445 3.38386ZM12.9697 6.96964C13.2626 6.67675 13.7374 6.67675 14.0303 6.96964L17.0303 9.96964C17.3232 10.2625 17.3232 10.7374 17.0303 11.0303C16.7374 11.3232 16.2626 11.3232 15.9697 11.0303L12.9697 8.0303C12.6768 7.73741 12.6768 7.26253 12.9697 6.96964Z" fill="#002B51"/>
</svg>
