<svg width="24" height="24" viewBox="0 0 24 24" fill="none" xmlns="http://www.w3.org/2000/svg">
<path fill-rule="evenodd" clip-rule="evenodd" d="M20.6161,8.05543c1.074,1.07394 1.074,2.81517 0,3.88907l-3.1716,3.1716c-1.0739,1.0739 -2.8151,1.0739 -3.889,0l-0.2323,-0.2322l-0.8232,0.8232c-0.1875,0.1875 -0.4419,0.2929 -0.7071,0.2929h-1.2929v2c0,0.5523 -0.4477,1 -1,1h-1.5v1.5c0,0.5523 -0.44772,1 -1,1h-3.5c-0.55228,0 -1,-0.4477 -1,-1v-2.7929c0,-0.2652 0.10536,-0.5196 0.29289,-0.7071l6.32323,-6.3233l-0.23224,-0.2322c-1.07394,-1.07393 -1.07394,-2.81513 0,-3.88907l3.17162,-3.17157c1.0739,-1.07395 2.8151,-1.07395 3.889,0zM12.9697,8.0303l3,3c0.2929,0.2929 0.7677,0.2929 1.0606,0c0.2929,-0.2929 0.2929,-0.7678 0,-1.06066l-3,-3c-0.2929,-0.29289 -0.7677,-0.29289 -1.0606,0c-0.2929,0.29289 -0.2929,0.76777 0,1.06066z" fill="#002B51"/>
</svg>
