<svg width="24" height="24" viewBox="0 0 24 24" fill="none" xmlns="http://www.w3.org/2000/svg">
<path d="M12.2646,3.19559c1.0801,-0.88084 2.6729,-0.81817 3.6797,0.18848l4.6719,4.67187c1.0736,1.07392 1.0737,2.81486 0,3.88866l-3.1719,3.1719c-1.0738,1.0735 -2.8148,1.0735 -3.8886,0l-0.2325,-0.2324l-0.8232,0.8232c-0.1875,0.1874 -0.4419,0.293 -0.707,0.293h-1.293v2c-0.0002,0.5521 -0.4478,1 -1,1h-1.5v1.5c-0.00016,0.5521 -0.44782,1 -1,1h-3.5c-0.55218,0 -0.99984,-0.4479 -1,-1v-2.793c0.00002,-0.2651 0.10554,-0.5195 0.29297,-0.707l6.32324,-6.3233l-0.23242,-0.2324c-1.07369,-1.07384 -1.07359,-2.81474 0,-3.88866l3.17191,-3.17187zM13.9736,6.91825c-0.2945,-0.24031 -0.7293,-0.22285 -1.0039,0.05175c-0.2744,0.27462 -0.292,0.70938 -0.0517,1.00391l0.0517,0.05664l3,3.00005l0.0567,0.0517c0.2945,0.2399 0.7294,0.2226 1.0039,-0.0517c0.2744,-0.2745 0.2917,-0.7094 0.0517,-1.004l-0.0517,-0.0566l-3,-3z" fill="#002B51"/>
</svg>
