<svg width="24" height="24" viewBox="0 0 24 24" fill="none" xmlns="http://www.w3.org/2000/svg">
<path d="M12.0557,3.38345c1.0738,-1.07353 2.8148,-1.07353 3.8886,0l4.6719,4.67188c1.0737,1.07385 1.0736,2.81477 0,3.88867l-3.1719,3.1719c-1.0739,1.0737 -2.8147,1.0737 -3.8886,0l-0.2325,-0.2324l-0.8232,0.8232c-0.1875,0.1875 -0.4418,0.2929 -0.707,0.293h-1.293v2c0,0.5522 -0.4477,1 -1,1h-1.5v1.5c0,0.5522 -0.44772,1 -1,1h-3.5c-0.55228,0 -1,-0.4478 -1,-1v-2.793c0.0001,-0.2651 0.10552,-0.5196 0.29297,-0.707l6.32324,-6.3233l-0.23242,-0.2324c-1.07358,-1.07392 -1.07369,-2.81482 0,-3.88867zM13.9736,6.91763c-0.2945,-0.24006 -0.7293,-0.22262 -1.0039,0.05176c-0.2745,0.27452 -0.2918,0.70933 -0.0517,1.00391l0.0517,0.05664l3,2.99996l0.0567,0.0518c0.2945,0.24 0.7294,0.2227 1.0039,-0.0518c0.2743,-0.2745 0.2917,-0.7093 0.0517,-1.0039l-0.0517,-0.05661l-3,-3z" fill="#002B51"/>
</svg>
