<svg width="24" height="24" viewBox="0 0 24 24" fill="none" xmlns="http://www.w3.org/2000/svg">
<path fill-rule="evenodd" clip-rule="evenodd" d="M3.5 4.75C3.08579 4.75 2.75 5.08579 2.75 5.5C2.75 5.91421 3.08579 6.25 3.5 6.25H8.8132C8.91664 6.25 9.0094 6.31371 9.04654 6.41026L13.5534 18.1282C13.8134 18.804 14.4627 19.25 15.1868 19.25H20.5C20.9142 19.25 21.25 18.9142 21.25 18.5C21.25 18.0858 20.9142 17.75 20.5 17.75H15.1868C15.0834 17.75 14.9906 17.6863 14.9535 17.5897L10.4466 5.87179C10.1866 5.19595 9.5373 4.75 8.8132 4.75H3.5ZM15 4.75C14.5858 4.75 14.25 5.08579 14.25 5.5C14.25 5.91421 14.5858 6.25 15 6.25H20.5C20.9142 6.25 21.25 5.91421 21.25 5.5C21.25 5.08579 20.9142 4.75 20.5 4.75H15Z" fill="#002B51"/>
</svg>
