<svg width="24" height="24" viewBox="0 0 24 24" fill="none" xmlns="http://www.w3.org/2000/svg">
<path d="M7.75,16.25h-1.25c-0.69036,0 -1.25,0.5596 -1.25,1.25c0,0.6904 0.55964,1.25 1.25,1.25c0.69036,0 1.25,-0.5596 1.25,-1.25zM18.75,17.5c0,-0.6904 -0.5596,-1.25 -1.25,-1.25h-1.25v1.25c0,0.6904 0.5596,1.25 1.25,1.25c0.6904,0 1.25,-0.5596 1.25,-1.25zM10.25,13.75h3.5v-3.5h-3.5zM7.75,6.5c0,-0.69036 -0.55964,-1.25 -1.25,-1.25c-0.69036,0 -1.25,0.55964 -1.25,1.25c0,0.69036 0.55964,1.25 1.25,1.25h1.25zM18.75,6.5c0,-0.69036 -0.5596,-1.25 -1.25,-1.25c-0.6904,0 -1.25,0.55964 -1.25,1.25v1.25h1.25c0.6904,0 1.25,-0.55964 1.25,-1.25zM21.25,6.5c0,2.07107 -1.6789,3.75 -3.75,3.75h-1.25v3.5h1.25c2.0711,0 3.75,1.6789 3.75,3.75c0,2.0711 -1.6789,3.75 -3.75,3.75c-2.0711,0 -3.75,-1.6789 -3.75,-3.75v-1.25h-3.5v1.25c0,2.0711 -1.67893,3.75 -3.75,3.75c-2.07107,0 -3.75,-1.6789 -3.75,-3.75c0,-2.0711 1.67893,-3.75 3.75,-3.75h1.25v-3.5h-1.25c-2.07107,0 -3.75,-1.67893 -3.75,-3.75c0,-2.07107 1.67893,-3.75 3.75,-3.75c2.07107,0 3.75,1.67893 3.75,3.75v1.25h3.5v-1.25c0,-2.07107 1.6789,-3.75 3.75,-3.75c2.0711,0 3.75,1.67893 3.75,3.75z" fill="#002B51"/>
</svg>
