<svg width="24" height="24" viewBox="0 0 24 24" fill="none" xmlns="http://www.w3.org/2000/svg">
<path d="M8.12598,4.25c1.3447,0 2.55142,0.82796 3.03422,2.08301l4.0136,10.43649l0.0489,0.1035c0.1321,0.2307 0.3797,0.377 0.6513,0.377h4.626c0.6904,0 1.25,0.5596 1.25,1.25c0,0.6904 -0.5596,1.25 -1.25,1.25h-4.626c-1.2608,0 -2.3994,-0.7282 -2.9345,-1.8535l-0.0997,-0.2295l-4.01363,-10.43653c-0.11149,-0.28946 -0.38999,-0.48047 -0.70019,-0.48047h-4.62598c-0.69036,0 -1.25,-0.55964 -1.25,-1.25c0,-0.69036 0.55964,-1.25 1.25,-1.25zM20.5,4.25c0.6904,0 1.25,0.55964 1.25,1.25c0,0.69036 -0.5596,1.25 -1.25,1.25h-5.5c-0.6904,0 -1.25,-0.55964 -1.25,-1.25c0,-0.69036 0.5596,-1.25 1.25,-1.25z" fill="#002B51"/>
</svg>
