<svg width="24" height="24" viewBox="0 0 24 24" fill="none" xmlns="http://www.w3.org/2000/svg">
<path fill-rule="evenodd" clip-rule="evenodd" d="M8.8132,4.75c0.7241,0 1.3734,0.44595 1.6334,1.12179l4.5069,11.71791c0.0371,0.0966 0.1299,0.1603 0.2333,0.1603h5.3132c0.4142,0 0.75,0.3358 0.75,0.75c0,0.4142 -0.3358,0.75 -0.75,0.75h-5.3132c-0.7241,0 -1.3734,-0.446 -1.6334,-1.1218l-4.50686,-11.71794c-0.03714,-0.09655 -0.1299,-0.16026 -0.23334,-0.16026h-5.3132c-0.41421,0 -0.75,-0.33579 -0.75,-0.75c0,-0.41421 0.33579,-0.75 0.75,-0.75zM20.5,4.75c0.4142,0 0.75,0.33579 0.75,0.75c0,0.41421 -0.3358,0.75 -0.75,0.75h-5.5c-0.4142,0 -0.75,-0.33579 -0.75,-0.75c0,-0.41421 0.3358,-0.75 0.75,-0.75z" fill="#002B51"/>
</svg>
