<svg width="24" height="24" viewBox="0 0 24 24" fill="none" xmlns="http://www.w3.org/2000/svg">
<path fill-rule="evenodd" clip-rule="evenodd" d="M14.707,16.9482c0.1857,0.4828 0.6498,0.8018 1.167,0.8018h4.626c0.4142,0 0.75,0.3358 0.75,0.75c0,0.4142 -0.3358,0.75 -0.75,0.75h-4.626c-1.1378,0 -2.1589,-0.7007 -2.5674,-1.7627l-4.01363,-10.43554c-0.18567,-0.48274 -0.64978,-0.80176 -1.16699,-0.80176h-4.62598c-0.41421,0 -0.75,-0.33579 -0.75,-0.75c0,-0.41421 0.33579,-0.75 0.75,-0.75h4.62598c1.13786,0 2.15892,0.70067 2.56742,1.7627zM20.5,6.25h-5.5c-0.4142,0 -0.75,-0.33579 -0.75,-0.75c0,-0.41421 0.3358,-0.75 0.75,-0.75h5.5c0.4142,0 0.75,0.33579 0.75,0.75c0,0.41421 -0.3358,0.75 -0.75,0.75z" fill="#002B51"/>
</svg>
