<svg width="24" height="24" viewBox="0 0 24 24" fill="none" xmlns="http://www.w3.org/2000/svg">
<path d="M17.5,3.25c1.7949,0 3.25,1.45507 3.25,3.25c0,1.79493 -1.4551,3.25 -3.25,3.25h-1.75v4.5h1.75c1.7949,0 3.25,1.4551 3.25,3.25c0,1.7949 -1.4551,3.25 -3.25,3.25c-1.7949,0 -3.25,-1.4551 -3.25,-3.25v-1.75h-4.5v1.75c0,1.7949 -1.45507,3.25 -3.25,3.25c-1.79493,0 -3.25,-1.4551 -3.25,-3.25c0,-1.7949 1.45507,-3.25 3.25,-3.25h1.75v-4.5h-1.75c-1.79493,0 -3.25,-1.45507 -3.25,-3.25c0,-1.79493 1.45507,-3.25 3.25,-3.25c1.79493,0 3.25,1.45507 3.25,3.25v1.75h4.5v-1.75c0,-1.79493 1.4551,-3.25 3.25,-3.25zM6.5,15.75c-0.9665,0 -1.75,0.7835 -1.75,1.75c0,0.9665 0.7835,1.75 1.75,1.75c0.9665,0 1.75,-0.7835 1.75,-1.75v-1.75zM15.75,17.5c0,0.9665 0.7835,1.75 1.75,1.75c0.9665,0 1.75,-0.7835 1.75,-1.75c0,-0.9665 -0.7835,-1.75 -1.75,-1.75h-1.75zM9.75,14.25h4.5v-4.5h-4.5zM6.5,4.75c-0.9665,0 -1.75,0.7835 -1.75,1.75c0,0.9665 0.7835,1.75 1.75,1.75h1.75v-1.75c0,-0.9665 -0.7835,-1.75 -1.75,-1.75zM17.5,4.75c-0.9665,0 -1.75,0.7835 -1.75,1.75v1.75h1.75c0.9665,0 1.75,-0.7835 1.75,-1.75c0,-0.9665 -0.7835,-1.75 -1.75,-1.75z" fill="#002B51"/>
</svg>
