<svg width="24" height="24" viewBox="0 0 24 24" fill="none" xmlns="http://www.w3.org/2000/svg">
<path fill-rule="evenodd" clip-rule="evenodd" d="M3.5 4.25C2.80964 4.25 2.25 4.80964 2.25 5.5C2.25 6.19036 2.80964 6.75 3.5 6.75H8.6415L13.0868 18.3077C13.421 19.1766 14.2558 19.75 15.1868 19.75H20.5C21.1904 19.75 21.75 19.1904 21.75 18.5C21.75 17.8096 21.1904 17.25 20.5 17.25H15.3585L10.9132 5.6923C10.579 4.82337 9.74419 4.25 8.8132 4.25H3.5ZM15 4.25C14.3096 4.25 13.75 4.80964 13.75 5.5C13.75 6.19036 14.3096 6.75 15 6.75H20.5C21.1904 6.75 21.75 6.19036 21.75 5.5C21.75 4.80964 21.1904 4.25 20.5 4.25H15Z" fill="#002B51"/>
</svg>
