<svg width="24" height="24" viewBox="0 0 24 24" fill="none" xmlns="http://www.w3.org/2000/svg">
<path fill-rule="evenodd" clip-rule="evenodd" d="M8.1264,4.25c1.34476,0 2.5506,0.82819 3.0334,2.08332l4.0138,10.43588c0.1114,0.2897 0.3897,0.4808 0.7,0.4808h4.6264c0.6904,0 1.25,0.5596 1.25,1.25c0,0.6904 -0.5596,1.25 -1.25,1.25h-4.6264c-1.3448,0 -2.5506,-0.8282 -3.0334,-2.0833l-4.01379,-10.43593c-0.1114,-0.28965 -0.38968,-0.48077 -0.70001,-0.48077h-4.6264c-0.69036,0 -1.25,-0.55964 -1.25,-1.25c0,-0.69036 0.55964,-1.25 1.25,-1.25zM20.5,4.25c0.6904,0 1.25,0.55964 1.25,1.25c0,0.69036 -0.5596,1.25 -1.25,1.25h-5.5c-0.6904,0 -1.25,-0.55964 -1.25,-1.25c0,-0.69036 0.5596,-1.25 1.25,-1.25z" fill="#002B51"/>
</svg>
