<svg width="24" height="24" viewBox="0 0 24 24" fill="none" xmlns="http://www.w3.org/2000/svg">
<path fill-rule="evenodd" clip-rule="evenodd" d="M8.1264,4.75c1.13787,0 2.1582,0.70078 2.5667,1.76281l4.0138,10.43589c0.1857,0.4828 0.6495,0.8013 1.1667,0.8013h4.6264c0.4142,0 0.75,0.3358 0.75,0.75c0,0.4142 -0.3358,0.75 -0.75,0.75h-4.6264c-1.1379,0 -2.1582,-0.7008 -2.5667,-1.7628l-4.01382,-10.43592c-0.18567,-0.48274 -0.64946,-0.80128 -1.16668,-0.80128h-4.6264c-0.41421,0 -0.75,-0.33579 -0.75,-0.75c0,-0.41421 0.33579,-0.75 0.75,-0.75zM20.5,4.75c0.4142,0 0.75,0.33579 0.75,0.75c0,0.41421 -0.3358,0.75 -0.75,0.75h-5.5c-0.4142,0 -0.75,-0.33579 -0.75,-0.75c0,-0.41421 0.3358,-0.75 0.75,-0.75z" fill="#002B51"/>
</svg>
