<svg width="36" height="24" viewBox="0 0 36 24" fill="none" xmlns="http://www.w3.org/2000/svg">
<g clip-path="url(#clip0_4050_17323)">
<path d="M0,12c0,-6.62742 5.37258,-12 12,-12h12c6.6274,0 12,5.37258 12,12c0,6.6274 -5.3726,12 -12,12h-12c-6.62742,0 -12,-5.3726 -12,-12z" fill="#FF4E4E"/>
<rect x="-3.32324" width="45.8571" height="24" fill="white"/>
<path d="M-3.32324,0h45.85714l-19.2857,10.2857v3.4286l19.2857,10.2857h-45.85714z" fill="#C8102E"/>
<path fill-rule="evenodd" clip-rule="evenodd" d="M6.96247,10.2857v-10.2857h3.42853v10.2857h12.8572v3.4286h-12.8572v10.2857h-3.42853v-10.2857h-10.28571v-3.4286z" fill="white"/>
</g>
<defs>
<clipPath id="clip0_4050_17323">
<path d="M0,12c0,-6.62742 5.37258,-12 12,-12h12c6.6274,0 12,5.37258 12,12c0,6.6274 -5.3726,12 -12,12h-12c-6.62742,0 -12,-5.3726 -12,-12z" fill="white"/>
</clipPath>
</defs>
</svg>
