<svg width="24" height="24" viewBox="0 0 24 24" fill="none" xmlns="http://www.w3.org/2000/svg">
<g clip-path="url(#clip0_4050_17325)">
<path d="M0,2c0,-1.10457 0.89543,-2 2,-2h20c1.1046,0 2,0.89543 2,2v20c0,1.1046 -0.8954,2 -2,2h-20c-1.10457,0 -2,-0.8954 -2,-2z" fill="#FF4E4E"/>
<rect x="-6.20703" width="45.8571" height="24" fill="white"/>
<path d="M-6.20703,0h36.85713l-19.2857,10.2857v3.4286l19.2857,10.2857h-36.85713z" fill="#C8102E"/>
<path fill-rule="evenodd" clip-rule="evenodd" d="M4.07868,10.2857v-10.2857h3.42857v10.2857h12.85715v3.4286h-12.85715v10.2857h-3.42857v-10.2857h-10.28571v-3.4286z" fill="white"/>
</g>
<defs>
<clipPath id="clip0_4050_17325">
<path d="M0,2c0,-1.10457 0.89543,-2 2,-2h20c1.1046,0 2,0.89543 2,2v20c0,1.1046 -0.8954,2 -2,2h-20c-1.10457,0 -2,-0.8954 -2,-2z" fill="white"/>
</clipPath>
</defs>
</svg>
