<svg width="24" height="24" viewBox="0 0 24 24" fill="none" xmlns="http://www.w3.org/2000/svg">
<path fill-rule="evenodd" clip-rule="evenodd" d="M19.2009,5.03209c0.2086,0.9815 -0.1144,1.86165 -0.4319,2.444c-0.1476,0.2705 -0.3035,0.49511 -0.4301,0.6602c0.1163,0.36518 0.2084,0.72668 0.2778,1.08348c0.6736,-0.55858 1.479,-0.73362 2.0774,-0.77965c0.3382,-0.026 0.6353,-0.01317 0.8486,0.00621c0.1074,0.00976 0.1956,0.02153 0.259,0.03108c0.0314,0.00474 0.057,0.00908 0.076,0.01243c0.0058,0.00102 0.0111,0.00216 0.0159,0.00315l0.0082,0.00168c0.0016,0.00029 0.003,0.00035 0.0044,0.00041c0.0011,0.00005 0.0022,0.00009 0.0032,0.00028l0.0035,0.00069l0.0007,0.00069h0.0013l0.1078,0.03039c0.2442,0.0882 0.4286,0.29808 0.4806,0.55795v0.00138l0.0007,0.00069l0.0007,0.00345c0.0002,0.00098 0.0002,0.00208 0.0002,0.00325c0.0001,0.00135 0.0002,0.00282 0.0005,0.00435l0.0016,0.00826l0.0022,0.01048l0.001,0.00543c0.0033,0.019 0.0077,0.04452 0.0124,0.07596c0.0096,0.06335 0.0213,0.15159 0.0311,0.25895c0.0194,0.21335 0.0322,0.51045 0.0062,0.84862c-0.0509,0.6614 -0.2593,1.5755 -0.9688,2.285c-0.7095,0.7096 -1.6237,0.918 -2.285,0.9688c-0.3382,0.026 -0.6353,0.0132 -0.8487,-0.0062c-0.032,-0.0029 -0.0623,-0.006 -0.0908,-0.0091c-0.1241,0.3772 -0.2734,0.7398 -0.4448,1.0858c0.5301,-0.0066 1.1314,0.091 1.7033,0.4211c0.869,0.5018 1.3069,1.3308 1.5272,1.9564c0.1126,0.32 0.1771,0.6103 0.2136,0.8214c0.0184,0.1062 0.0299,0.1945 0.037,0.2581c0.0036,0.0316 0.006,0.0574 0.0077,0.0766c0.0005,0.0058 0.0008,0.0112 0.0011,0.016v0.0002l0.0005,0.0084l0.0004,0.0027l0.0003,0.0016c0.0003,0.0012 0.0005,0.0022 0.0006,0.0032l0.0002,0.0036l-0.0005,0.0008l0.0004,0.0013c0.017,0.2645 -0.1067,0.515 -0.3198,0.6634l-0.0962,0.0572l-0.0014,0.0004l-0.0005,0.0008l-0.0031,0.0016c-0.0009,0.0004 -0.002,0.0007 -0.0031,0.0011v0l-0.0017,0.0005l-0.0024,0.001l-0.0075,0.0038l-0.0071,0.0035l-0.0075,0.0036c-0.0175,0.0082 -0.041,0.019 -0.0701,0.0317c-0.0587,0.0256 -0.1409,0.0598 -0.2421,0.097c-0.2011,0.074 -0.4847,0.1633 -0.8181,0.2257c-0.652,0.122 -1.5889,0.1573 -2.4579,-0.3444c-0.778,-0.4492 -1.2105,-1.1608 -1.4506,-1.7538c-0.5593,0.4726 -1.1712,0.85 -1.8077,1.1147c0.1113,0.1329 0.2113,0.2707 0.3003,0.4083c0.4144,0.6408 0.6603,1.3745 0.7793,1.9316l0.0439,0.2275l0.0088,0.0762c0.0242,0.3793 -0.243,0.7233 -0.626,0.7871c-0.3829,0.0637 -0.7467,-0.1753 -0.8466,-0.542l-0.0166,-0.0752l-0.0323,-0.1699c-0.0899,-0.417 -0.2775,-0.9682 -0.5703,-1.4209c-0.3333,-0.5154 -0.7132,-0.7794 -1.1501,-0.7822h-0.0071h-0.0061c-0.4374,0.0024 -0.8175,0.2665 -1.1511,0.7822c-0.2928,0.4527 -0.4804,1.0039 -0.5703,1.4209l-0.0323,0.1699c-0.0681,0.4085 -0.45479,0.6851 -0.86325,0.6172c-0.40848,-0.0681 -0.68509,-0.4548 -0.61719,-0.8633l0.04394,-0.2275c0.11894,-0.5571 0.36489,-1.2908 0.7793,-1.9316c0.08898,-0.1376 0.18895,-0.2754 0.30034,-0.4084c-0.63653,-0.2646 -1.24843,-0.642 -1.80773,-1.1147c-0.24013,0.5931 -0.67259,1.3047 -1.45062,1.7539c-0.86899,0.5017 -1.8059,0.4664 -2.45786,0.3444c-0.33342,-0.0625 -0.61707,-0.1517 -0.81814,-0.2257c-0.10118,-0.0372 -0.18336,-0.0714 -0.24209,-0.097c-0.02914,-0.0127 -0.05266,-0.0235 -0.07015,-0.0317c-0.00533,-0.0025 -0.01025,-0.005 -0.01456,-0.0072l-0.00754,-0.0037c-0.0014,-0.0007 -0.00279,-0.0011 -0.00408,-0.0015c-0.00113,-0.0004 -0.00218,-0.0007 -0.00307,-0.0011l-0.00316,-0.0016l-0.00049,-0.0009l-0.00133,-0.0003c-0.23757,-0.1175 -0.39257,-0.3499 -0.41455,-0.6087l-0.00147,-0.1119l0.00036,-0.0013l-0.00049,-0.0008l0.00023,-0.0036c0.00007,-0.001 0.00031,-0.002 0.00056,-0.0032c0.0003,-0.0013 0.00062,-0.0027 0.00074,-0.0043l0.00051,-0.0084v0c0.00026,-0.0048 0.00056,-0.0103 0.00107,-0.0162c0.00169,-0.0192 0.0041,-0.045 0.00766,-0.0766c0.00717,-0.0636 0.01864,-0.1519 0.037,-0.2581c0.0365,-0.2111 0.101,-0.5014 0.21365,-0.8214c0.2203,-0.6256 0.65821,-1.4546 1.5272,-1.9564c0.57191,-0.3301 1.17323,-0.4278 1.70338,-0.4211c-0.1714,-0.346 -0.32074,-0.7086 -0.44478,-1.0858c-0.0285,0.0031 -0.05887,0.0062 -0.09094,0.0091c-0.21336,0.0194 -0.51045,0.0322 -0.84867,0.0062c-0.66133,-0.0508 -1.57544,-0.2592 -2.28497,-0.9688c-0.70954,-0.7095 -0.91795,-1.6236 -0.96882,-2.285c-0.026,-0.33817 -0.01317,-0.63526 0.00621,-0.84862c0.00976,-0.10736 0.02153,-0.19559 0.03108,-0.25895c0.00473,-0.03144 0.00908,-0.05695 0.01243,-0.07596c0.00102,-0.0058 0.00215,-0.0112 0.00315,-0.01592l0.00168,-0.00825c0.00029,-0.00153 0.00035,-0.00299 0.00041,-0.00434c0.00004,-0.00118 0.00009,-0.00227 0.00028,-0.00325l0.00069,-0.00346l0.00069,-0.00069v-0.00138l0.03038,-0.10772c0.08821,-0.24425 0.29809,-0.42864 0.55796,-0.48061h0.00138l0.00069,-0.00069l0.00345,-0.00069c0.00098,-0.00019 0.00207,-0.00024 0.00325,-0.00029h0.00001c0.00135,-0.00006 0.00281,-0.00012 0.00434,-0.0004l0.00824,-0.00169c0.00473,-0.00099 0.01013,-0.00213 0.01592,-0.00315c0.01901,-0.00335 0.04452,-0.00769 0.07596,-0.01243c0.06336,-0.00955 0.1516,-0.02131 0.25895,-0.03107c0.21336,-0.01939 0.51046,-0.03222 0.84867,-0.00622c0.59845,0.04604 1.40389,0.22108 2.07741,0.77971c0.06949,-0.35678 0.16155,-0.71825 0.27778,-1.08341c-0.12662,-0.1651 -0.28256,-0.38974 -0.43009,-0.6603c-0.31753,-0.58235 -0.6406,-1.4625 -0.43197,-2.444c0.20862,-0.98151 0.86175,-1.65416 1.38868,-2.05701c0.26949,-0.20601 0.52565,-0.35706 0.71514,-0.457c0.09535,-0.05029 0.17576,-0.08848 0.2341,-0.11498c0.02895,-0.01315 0.05271,-0.0234 0.07047,-0.03094c0.00542,-0.0023 0.01057,-0.00429 0.01508,-0.00603c0.00291,-0.00113 0.00555,-0.00215 0.00783,-0.00308c0.00143,-0.00059 0.00269,-0.00134 0.00386,-0.00203c0.00101,-0.0006 0.00196,-0.00116 0.00288,-0.00153l0.00327,-0.0013l0.00096,0.0002l0.00116,-0.00075l0.10689,-0.03319c0.25289,-0.05905 0.52183,0.01654 0.70696,0.20618l0.00075,0.00116l0.00095,0.0002l0.00246,0.00252c0.0007,0.00072 0.00133,0.00161 0.00201,0.00257c0.00079,0.0011 0.00163,0.0023 0.00271,0.00342c0.0017,0.00178 0.0037,0.00379 0.0059,0.006c0.00341,0.00343 0.0073,0.00734 0.01132,0.01164c0.01316,0.01411 0.03069,0.03315 0.05179,0.05693c0.04251,0.04794 0.10044,0.11553 0.1671,0.20025c0.13246,0.16838 0.30503,0.41056 0.46742,0.70837c0.31753,0.58235 0.6406,1.4625 0.43197,2.444c-0.20862,0.9815 -0.86175,1.65416 -1.38868,2.05701c-0.2529,0.19332 -0.49404,0.33824 -0.67938,0.43795c-1.66567,4.95762 1.9747,8.78042 4.85956,8.78722h0.0077h0.0079c2.8848,-0.007 6.5251,-3.8297 4.8595,-8.78717c-0.1854,-0.09971 -0.4266,-0.24466 -0.6796,-0.43803c-0.5269,-0.40285 -1.18,-1.0755 -1.3886,-2.05701c-0.2087,-0.9815 0.1144,-1.86165 0.4319,-2.444c0.1624,-0.29781 0.335,-0.53999 0.4675,-0.70836c0.0666,-0.08472 0.1245,-0.15232 0.167,-0.20025c0.0211,-0.02379 0.0387,-0.04282 0.0518,-0.05694c0.0041,-0.0043 0.0079,-0.00821 0.0114,-0.01163v-0.00001l0.0059,-0.006c0.001,-0.00112 0.0019,-0.00231 0.0027,-0.00342c0.0006,-0.00096 0.0013,-0.00185 0.002,-0.00257l0.0024,-0.00252l0.001,-0.0002l0.0007,-0.00116l0.0842,-0.0738c0.207,-0.1568 0.4834,-0.19714 0.7297,-0.09919l0.0012,0.00075l0.0009,-0.0002l0.0033,0.0013c0.0009,0.00038 0.0018,0.00093 0.0029,0.00153c0.0011,0.00069 0.0024,0.00144 0.0038,0.00203l0.0079,0.00308c0.0045,0.00174 0.0096,0.00373 0.015,0.00603c0.0178,0.00754 0.0416,0.01779 0.0705,0.03094c0.0583,0.0265 0.1387,0.06469 0.2341,0.11498c0.1895,0.09994 0.4456,0.25099 0.7151,0.457c0.527,0.40286 1.1801,1.07551 1.3887,2.05701z" fill="#002B51"/>
</svg>
