<svg width="24" height="24" viewBox="0 0 24 24" fill="none" xmlns="http://www.w3.org/2000/svg">
<path d="M16.0272,2.45691c0.207,-0.15681 0.4842,-0.19756 0.7305,-0.09961l0.001,0.00098h0.0009c0.0008,0.0003 0.002,0.00059 0.003,0.00097c0.0019,0.0008 0.0042,0.0028 0.0068,0.00391c0.0058,0.00238 0.0145,0.005 0.0234,0.00879c0.0178,0.00753 0.0415,0.01816 0.0704,0.03125c0.0582,0.02647 0.1382,0.06507 0.2334,0.11523c0.1895,0.09995 0.4463,0.25102 0.7158,0.45703c0.5269,0.40288 1.1801,1.07533 1.3886,2.05664c0.2087,0.98151 -0.115,1.86199 -0.4326,2.44434c-0.1474,0.27028 -0.3051,0.4932 -0.4316,0.6582c0.1167,0.36645 0.2096,0.72891 0.2793,1.08692c0.6737,-0.55936 1.4793,-0.73519 2.0781,-0.78125c0.3381,-0.02598 0.6353,-0.01352 0.8486,0.00586c0.1073,0.00975 0.1955,0.02171 0.2588,0.03125c0.0315,0.00473 0.0572,0.00934 0.0762,0.01269c0.0092,0.00164 0.0174,0.00372 0.0234,0.00489c0.0028,0.00051 0.0058,-0.00033 0.0079,0c0.0011,0.00021 0.003,0.0008 0.0039,0.00097l0.0009,0.00098h0.001l0.1074,0.03027c0.2442,0.08817 0.4284,0.29792 0.4805,0.55762v0.00195h0.001c0.0002,0.00089 0.0007,0.0028 0.001,0.00391c0.0004,0.00209 0.0004,0.00497 0.0009,0.00781l0.0166,0.09961c0.0096,0.06327 0.0215,0.15163 0.0313,0.25879c0.0194,0.21326 0.0318,0.5106 0.0058,0.84859c-0.0508,0.6614 -0.2592,1.5757 -0.9687,2.2852c-0.7095,0.7095 -1.6238,0.9179 -2.2852,0.9687c-0.338,0.026 -0.6353,0.0136 -0.8486,-0.0058c-0.0332,-0.003 -0.0644,-0.0084 -0.0937,-0.0117c-0.1244,0.3785 -0.2723,0.7427 -0.4444,1.0898c0.5309,-0.007 1.1332,0.0892 1.7061,0.4199c0.8689,0.5017 1.307,1.3305 1.5273,1.9561c0.1127,0.3199 0.1774,0.6102 0.2139,0.8213c0.0183,0.1062 0.0299,0.1951 0.0371,0.2588c0.0035,0.0313 0.0052,0.057 0.0068,0.0761c0.0009,0.0096 0.0015,0.0182 0.002,0.0245c0.0002,0.0029 0.0008,0.0056 0.001,0.0078l0.0009,0.0029l-0.0009,0.001l0.0009,0.0019c0.017,0.2644 -0.1073,0.5148 -0.3203,0.6631l-0.0957,0.0576l-0.0019,0.001c-0.0008,0.0004 -0.0029,0.0005 -0.0039,0.001c-0.0019,0.0009 -0.0043,0.0017 -0.0069,0.0029c-0.0056,0.0027 -0.0137,0.0067 -0.0224,0.0108c-0.0175,0.0081 -0.0405,0.0196 -0.0694,0.0322c-0.0587,0.0256 -0.1411,0.0595 -0.2422,0.0967c-0.201,0.0739 -0.4849,0.1631 -0.8183,0.2255c-0.652,0.1221 -1.589,0.157 -2.458,-0.3447c-0.7793,-0.45 -1.2114,-1.1632 -1.4512,-1.7568c-0.56,0.4734 -1.1721,0.8504 -1.8096,1.1152c0.1124,0.1339 0.2132,0.2726 0.3028,0.4112c0.4144,0.6408 0.6603,1.3745 0.7793,1.9316l0.0439,0.2275l0.0088,0.0762c0.0242,0.3793 -0.243,0.7233 -0.626,0.7871c-0.4084,0.0678 -0.7952,-0.2087 -0.8633,-0.6172c-0.0712,-0.4273 -0.2679,-1.0734 -0.6025,-1.5908c-0.3351,-0.5181 -0.7173,-0.7822 -1.1572,-0.7822c-0.4399,0 -0.8221,0.2641 -1.1572,0.7822c-0.3346,0.5174 -0.5313,1.1635 -0.6026,1.5908c-0.0681,0.4085 -0.45481,0.6851 -0.86327,0.6172c-0.4084,-0.0681 -0.68508,-0.4549 -0.61719,-0.8633c0.09546,-0.5727 0.34961,-1.4267 0.82325,-2.1591c0.0896,-0.1386 0.19039,-0.2773 0.30273,-0.4112c-0.63762,-0.265 -1.25043,-0.6416 -1.81055,-1.1152c-0.23989,0.5936 -0.67101,1.3069 -1.45019,1.7568c-0.869,0.5017 -1.80604,0.4668 -2.45801,0.3447c-0.3333,-0.0624 -0.61734,-0.1516 -0.81836,-0.2255c-0.10071,-0.0371 -0.1826,-0.0712 -0.24121,-0.0967c-0.02908,-0.0127 -0.05283,-0.0241 -0.07031,-0.0322c-0.00878,-0.0041 -0.01681,-0.0081 -0.02246,-0.0108c-0.00258,-0.0012 -0.00495,-0.002 -0.00684,-0.0029l-0.00293,-0.001l-0.00098,-0.001h-0.00097c-0.23757,-0.1174 -0.39306,-0.3506 -0.41504,-0.6093l-0.00098,-0.1114v-0.0058c0.00015,-0.0022 0.00076,-0.0049 0.00098,-0.0078c0.00047,-0.0063 0.00112,-0.0149 0.00195,-0.0245c0.00168,-0.0191 0.00428,-0.0447 0.00781,-0.0761c0.00718,-0.0637 0.01778,-0.1526 0.03614,-0.2588c0.0365,-0.2111 0.10123,-0.5014 0.21386,-0.8213c0.22029,-0.6256 0.65848,-1.4543 1.52735,-1.9561c0.57248,-0.3305 1.17453,-0.4267 1.70508,-0.4199c-0.17203,-0.347 -0.31998,-0.7113 -0.44434,-1.0898c-0.02911,0.0032 -0.05992,0.0087 -0.09277,0.0117c-0.21332,0.0194 -0.5105,0.0318 -0.84864,0.0058c-0.66133,-0.0508 -1.57562,-0.2592 -2.28515,-0.9687c-0.70944,-0.7095 -0.91788,-1.6239 -0.96875,-2.2852c-0.02596,-0.33798 -0.01352,-0.63533 0.00586,-0.84859c0.00975,-0.10717 0.02171,-0.19551 0.03125,-0.25879c0.00468,-0.03108 0.00936,-0.05629 0.01269,-0.0752c0.00167,-0.00944 0.00372,-0.01826 0.00489,-0.02441c0.00053,-0.00282 -0.00039,-0.00573 0,-0.00781c0.00021,-0.00111 0.0008,-0.00302 0.00097,-0.00391h0.00098v-0.00195l0.03027,-0.10742c0.08817,-0.24414 0.2979,-0.42841 0.55762,-0.48047h0.00195v-0.00098c0.00089,-0.00017 0.0028,-0.00076 0.00391,-0.00097c0.00208,-0.00039 0.00499,0.00053 0.00781,0c0.00615,-0.00117 0.01497,-0.00322 0.02441,-0.00489c0.01891,-0.00333 0.04412,-0.00801 0.0752,-0.01269c0.06328,-0.00954 0.15162,-0.0215 0.25879,-0.03125c0.21326,-0.01938 0.51061,-0.03182 0.84863,-0.00586c0.59873,0.04605 1.4044,0.22198 2.07813,0.78125c0.06964,-0.35791 0.16164,-0.72058 0.27832,-1.08692c-0.12648,-0.16497 -0.28341,-0.3882 -0.43067,-0.6582c-0.31752,-0.58235 -0.64123,-1.46284 -0.43261,-2.44434c0.20857,-0.98124 0.86181,-1.65375 1.38867,-2.05664c0.26949,-0.20601 0.52633,-0.35708 0.71582,-0.45703c0.09511,-0.05015 0.17511,-0.08875 0.2334,-0.11523c0.02894,-0.01315 0.05352,-0.02371 0.07129,-0.03125c0.00871,-0.00368 0.01675,-0.00645 0.02246,-0.00879c0.00269,-0.00111 0.00485,-0.0031 0.00683,-0.00391l0.00293,-0.00097h0.00098l0.00195,-0.00098l0.10645,-0.0332c0.25285,-0.059 0.52193,0.01742 0.70703,0.20703l0.00098,0.00097h0.00097c0.00064,0.00066 0.00124,0.00219 0.00195,0.00293c0.00143,0.00155 0.00294,0.00382 0.00489,0.00586c0.00432,0.00452 0.01104,0.01058 0.01758,0.01758c0.01312,0.01408 0.03081,0.03303 0.05175,0.05664c0.04251,0.04793 0.1004,0.11555 0.167,0.2002c0.13237,0.16827 0.30449,0.41046 0.46679,0.70801c0.31751,0.58231 0.64117,1.4629 0.43262,2.44433c-0.20863,0.9815 -0.86174,1.65477 -1.38867,2.05762c-0.25007,0.19115 -0.49032,0.33205 -0.67481,0.43164c-1.67267,4.96519 1.97496,8.79279 4.86233,8.79299c2.8874,-0.0001 6.5343,-3.8275 4.8613,-8.79299c-0.1844,-0.09958 -0.4241,-0.24175 -0.6738,-0.43262c-0.5269,-0.4029 -1.1801,-1.07546 -1.3887,-2.05664c-0.2085,-0.98142 0.1151,-1.86202 0.4326,-2.44433c0.1623,-0.29753 0.3344,-0.53972 0.4668,-0.70801c0.0667,-0.08472 0.1255,-0.15226 0.168,-0.2002c0.021,-0.02368 0.0386,-0.04257 0.0517,-0.05664c0.0065,-0.00691 0.0123,-0.01308 0.0166,-0.01758c0.0019,-0.00198 0.0036,-0.00432 0.0049,-0.00586c0.0008,-0.00081 0.0023,-0.00228 0.003,-0.00293h0.0009v-0.00097z" fill="#002B51"/>
</svg>
