<svg width="24" height="24" viewBox="0 0 24 24" fill="none" xmlns="http://www.w3.org/2000/svg">
<path d="M16.0273,2.45709c0.207,-0.1568 0.4842,-0.19755 0.7305,-0.09961l0.001,0.00098h0.0009c0.0008,0.00031 0.002,0.0006 0.003,0.00098c0.0019,0.00079 0.0041,0.0028 0.0068,0.0039c0.0058,0.00239 0.0145,0.00501 0.0234,0.00879c0.0178,0.00753 0.0415,0.01817 0.0703,0.03125c0.0583,0.02648 0.1383,0.06508 0.2334,0.11524c0.1895,0.09994 0.4464,0.25102 0.7159,0.45703c0.5268,0.40288 1.18,1.07533 1.3886,2.05664c0.2087,0.9815 -0.1151,1.86199 -0.4326,2.44434c-0.1474,0.27027 -0.3051,0.49319 -0.4316,0.6582c0.1167,0.36644 0.2096,0.7289 0.2793,1.08691c0.6737,-0.55935 1.4793,-0.73519 2.0781,-0.78125c0.3381,-0.02598 0.6353,-0.01352 0.8486,0.00586c0.1073,0.00976 0.1955,0.02171 0.2588,0.03125c0.0314,0.00474 0.0572,0.00935 0.0762,0.0127c0.0092,0.00163 0.0174,0.00372 0.0234,0.00488c0.0027,0.00051 0.0058,-0.00033 0.0078,0c0.0011,0.00022 0.0031,0.0008 0.0039,0.00098l0.001,0.00097h0.001l0.1074,0.03028c0.2442,0.08816 0.4284,0.29791 0.4805,0.55761v0.00196h0.001c0.0001,0.00088 0.0007,0.0028 0.0009,0.0039c0.0004,0.0021 0.0005,0.00498 0.001,0.00782l0.0166,0.09961c0.0096,0.06327 0.0215,0.15162 0.0313,0.25878c0.0193,0.21327 0.0318,0.5106 0.0058,0.84861c-0.0508,0.6614 -0.2592,1.5757 -0.9687,2.2852c-0.7095,0.7095 -1.6238,0.9179 -2.2852,0.9687c-0.338,0.026 -0.6353,0.0136 -0.8486,-0.0058c-0.0332,-0.003 -0.0644,-0.0085 -0.0938,-0.0117c-0.1244,0.3785 -0.2722,0.7427 -0.4443,1.0898c0.5308,-0.007 1.1331,0.0891 1.7061,0.4199c0.8689,0.5017 1.307,1.3305 1.5273,1.9561c0.1126,0.3199 0.1774,0.6102 0.2139,0.8213c0.0183,0.1062 0.0299,0.1951 0.0371,0.2588c0.0035,0.0313 0.0051,0.057 0.0068,0.0761c0.0009,0.0096 0.0015,0.0182 0.002,0.0244c0.0002,0.0029 0.0008,0.0057 0.0009,0.0079l0.001,0.0029l-0.001,0.001l0.001,0.0019c0.0169,0.2644 -0.1073,0.5147 -0.3203,0.6631l-0.0957,0.0576h-0.0019v0.001c-0.0009,0.0004 -0.0029,0.0005 -0.004,0.001c-0.0019,0.0008 -0.0043,0.0017 -0.0068,0.0029c-0.0056,0.0027 -0.0137,0.0067 -0.0224,0.0107c-0.0175,0.0082 -0.0405,0.0197 -0.0694,0.0323c-0.0587,0.0256 -0.1411,0.0595 -0.2422,0.0966c-0.201,0.074 -0.4849,0.1632 -0.8183,0.2256c-0.652,0.1221 -1.589,0.157 -2.458,-0.3447c-0.7793,-0.45 -1.2114,-1.1632 -1.4512,-1.7568c-0.56,0.4734 -1.1722,0.8503 -1.8096,1.1152c0.1124,0.1339 0.2131,0.2726 0.3028,0.4111c0.4143,0.6408 0.6603,1.3746 0.7793,1.9317l0.0439,0.2275l0.0088,0.0762c0.0242,0.3793 -0.243,0.7233 -0.626,0.7871c-0.3829,0.0636 -0.7467,-0.1753 -0.8467,-0.542l-0.0166,-0.0752l-0.0322,-0.1699c-0.09,-0.417 -0.2776,-0.9682 -0.5703,-1.4209c-0.3351,-0.5181 -0.7173,-0.7822 -1.1572,-0.7822c-0.4399,0 -0.8221,0.2641 -1.1573,0.7822c-0.2927,0.4527 -0.4803,1.0039 -0.5703,1.4209l-0.0322,0.1699c-0.0681,0.4085 -0.45482,0.6851 -0.86329,0.6172c-0.4084,-0.0681 -0.68508,-0.4549 -0.61718,-0.8633l0.04394,-0.2275c0.11894,-0.5571 0.3649,-1.2908 0.7793,-1.9317c0.08961,-0.1385 0.19039,-0.2772 0.30273,-0.4111c-0.63761,-0.265 -1.25043,-0.6416 -1.81054,-1.1152c-0.23989,0.5936 -0.67102,1.3069 -1.4502,1.7568c-0.86899,0.5017 -1.80604,0.4668 -2.45801,0.3447c-0.3333,-0.0624 -0.61734,-0.1516 -0.81836,-0.2256c-0.10071,-0.037 -0.18259,-0.0711 -0.24121,-0.0966c-0.02908,-0.0127 -0.05283,-0.0241 -0.07031,-0.0323c-0.00878,-0.0041 -0.0168,-0.008 -0.02246,-0.0107c-0.00257,-0.0012 -0.00494,-0.002 -0.00684,-0.0029l-0.00293,-0.001l-0.00097,-0.001h-0.00098c-0.23756,-0.1174 -0.39305,-0.3506 -0.41504,-0.6094l-0.00097,-0.1113v-0.0058c0.00015,-0.0022 0.00075,-0.005 0.00097,-0.0079c0.00047,-0.0062 0.00112,-0.0148 0.00196,-0.0244c0.00167,-0.0191 0.00427,-0.0447 0.00781,-0.0761c0.00717,-0.0637 0.01777,-0.1526 0.03613,-0.2588c0.0365,-0.2111 0.10123,-0.5014 0.21387,-0.8213c0.22029,-0.6256 0.65847,-1.4544 1.52734,-1.9561c0.57249,-0.3305 1.17454,-0.4268 1.70508,-0.4199c-0.17203,-0.347 -0.31997,-0.7113 -0.44434,-1.0898c-0.0291,0.0032 -0.05991,0.0087 -0.09277,0.0117c-0.21331,0.0194 -0.5105,0.0318 -0.84863,0.0058c-0.66134,-0.0508 -1.57563,-0.2592 -2.28516,-0.9687c-0.70944,-0.7095 -0.91788,-1.6239 -0.96875,-2.2852c-0.02595,-0.338 -0.01352,-0.63535 0.00586,-0.84861c0.00975,-0.10716 0.02172,-0.19551 0.03125,-0.25878c0.00469,-0.03108 0.00937,-0.0563 0.0127,-0.0752c0.00166,-0.00944 0.00371,-0.01826 0.00488,-0.02441c0.00053,-0.00282 -0.00038,-0.00573 0,-0.00782c0.00021,-0.0011 0.0008,-0.00302 0.00098,-0.0039h0.00097v-0.00196l0.03028,-0.10742c0.08817,-0.24414 0.2979,-0.42841 0.55761,-0.48047h0.00196v-0.00097c0.00088,-0.00018 0.0028,-0.00076 0.0039,-0.00098c0.00209,-0.00038 0.005,0.00053 0.00781,0c0.00604,-0.00115 0.01421,-0.00324 0.02344,-0.00488c0.01896,-0.00334 0.04485,-0.00797 0.07617,-0.0127c0.06328,-0.00953 0.15162,-0.0215 0.25879,-0.03125c0.21326,-0.01937 0.51061,-0.03181 0.84864,-0.00586c0.59873,0.04606 1.4044,0.22199 2.07812,0.78125c0.06964,-0.3579 0.16164,-0.72058 0.27832,-1.08691c-0.12647,-0.16497 -0.2834,-0.3882 -0.43066,-0.6582c-0.31753,-0.58235 -0.64124,-1.46284 -0.43262,-2.44434c0.20857,-0.98124 0.86181,-1.65375 1.38867,-2.05664c0.26949,-0.20601 0.52633,-0.35709 0.71582,-0.45703c0.09511,-0.05016 0.17511,-0.08875 0.2334,-0.11524c0.02895,-0.01315 0.05353,-0.02371 0.07129,-0.03125c0.00872,-0.00368 0.01675,-0.00645 0.02246,-0.00879c0.0027,-0.0011 0.00485,-0.0031 0.00684,-0.0039l0.00293,-0.00098h0.00097l0.00196,-0.00098l0.10644,-0.0332c0.25285,-0.05899 0.52194,0.01743 0.70703,0.20703l0.00098,0.00098h0.00098c0.00063,0.00065 0.00124,0.00219 0.00195,0.00293c0.00142,0.00154 0.00293,0.00382 0.00488,0.00586c0.00433,0.00452 0.01105,0.01058 0.01758,0.01758c0.01313,0.01408 0.03081,0.03302 0.05176,0.05664c0.0425,0.04793 0.1004,0.11555 0.16699,0.20019c0.13238,0.16828 0.3045,0.41047 0.4668,0.70801c0.3175,0.58231 0.64116,1.46291 0.43261,2.44434c-0.20862,0.9815 -0.86173,1.65476 -1.38867,2.05761c-0.25006,0.19116 -0.49032,0.33206 -0.6748,0.43164c-1.67268,4.96521 1.97495,8.79281 4.86234,8.79301c2.8874,-0.0001 6.5343,-3.8276 4.8613,-8.79301c-0.1844,-0.09957 -0.4242,-0.24175 -0.6738,-0.43261c-0.5269,-0.4029 -1.1802,-1.07546 -1.3887,-2.05664c-0.2086,-0.98143 0.1151,-1.86203 0.4326,-2.44434c0.1623,-0.29752 0.3344,-0.53972 0.4668,-0.70801c0.0667,-0.08472 0.1255,-0.15226 0.168,-0.20019c0.021,-0.02368 0.0386,-0.04258 0.0517,-0.05664c0.0065,-0.00692 0.0123,-0.01309 0.0166,-0.01758c0.0019,-0.00199 0.0035,-0.00432 0.0049,-0.00586c0.0008,-0.00081 0.0023,-0.00228 0.0029,-0.00293h0.001v-0.00098zM6.5566,16.1817c-0.48075,-0.0899 -1.00166,-0.0793 -1.43164,0.1689c-0.42992,0.2483 -0.69984,0.694 -0.8623,1.1553c-0.03084,0.0876 -0.05563,0.173 -0.07715,0.253c0.07993,0.0213 0.16659,0.0424 0.25781,0.0595c0.48075,0.09 1.00166,0.0793 1.43164,-0.1689c0.42998,-0.2483 0.69983,-0.694 0.86231,-1.1553c0.03086,-0.0877 0.05659,-0.1729 0.07812,-0.2529c-0.08019,-0.0214 -0.16722,-0.0425 -0.25879,-0.0596zM18.875,16.3506c-0.43,-0.2482 -0.951,-0.2588 -1.4317,-0.1689c-0.0915,0.0171 -0.1786,0.0382 -0.2588,0.0596c0.0216,0.08 0.0473,0.1652 0.0782,0.2529c0.1624,0.4613 0.4324,0.907 0.8623,1.1553c0.4299,0.2482 0.9509,0.2589 1.4316,0.1689c0.0913,-0.0171 0.1778,-0.0382 0.2578,-0.0595c-0.0215,-0.08 -0.0463,-0.1654 -0.0771,-0.253c-0.1625,-0.4613 -0.4324,-0.907 -0.8623,-1.1553zM2.93551,10.1915c0.03754,0.4876 0.18319,0.9878 0.53418,1.3388c0.35105,0.3511 0.85126,0.4967 1.33887,0.5342c0.09265,0.0071 0.18182,0.0087 0.26464,0.0088c-0.0001,-0.0828 -0.00166,-0.172 -0.00879,-0.2646c-0.03755,-0.4877 -0.18313,-0.9879 -0.53417,-1.3389c-0.35108,-0.351 -0.85128,-0.49665 -1.33887,-0.53419c-0.09271,-0.00713 -0.18179,-0.00869 -0.26465,-0.00879c0.00009,0.08288 0.00166,0.17198 0.00879,0.26468zM20.8086,9.93561c-0.4877,0.03755 -0.9879,0.18309 -1.3389,0.53419c-0.3511,0.351 -0.4966,0.8512 -0.5342,1.3389c-0.0071,0.0926 -0.0087,0.1818 -0.0088,0.2646c0.0828,-0.0001 0.1721,-0.0017 0.2647,-0.0088c0.4876,-0.0375 0.9878,-0.1831 1.3388,-0.5342c0.3511,-0.351 0.4967,-0.8512 0.5342,-1.3388c0.0071,-0.0927 0.0097,-0.1818 0.0098,-0.26468c-0.083,0.00009 -0.1727,0.00164 -0.2656,0.00879zM7.09859,4.16705c-0.38841,0.29699 -0.72869,0.69131 -0.83203,1.17676c-0.10322,0.48561 0.04718,0.98466 0.28125,1.41407c0.04447,0.08154 0.09172,0.15707 0.13672,0.22656c0.06936,-0.04516 0.14303,-0.09498 0.2168,-0.15137c0.38846,-0.29702 0.72874,-0.69123 0.83203,-1.17676c0.10323,-0.48564 -0.04714,-0.98464 -0.28125,-1.41406c-0.04458,-0.08176 -0.0916,-0.15791 -0.13672,-0.22754c-0.06948,0.04523 -0.14288,0.09584 -0.2168,0.15234zM16.5478,4.24225c-0.2341,0.42942 -0.3845,0.92842 -0.2812,1.41406c0.1033,0.48553 0.4435,0.87973 0.832,1.17676c0.0737,0.05639 0.1474,0.10621 0.2168,0.15137c0.045,-0.06952 0.0922,-0.14498 0.1367,-0.22656c0.2341,-0.42943 0.3845,-0.92842 0.2813,-1.41407c-0.1034,-0.48544 -0.4437,-0.87977 -0.8321,-1.17676c-0.0739,-0.0565 -0.1473,-0.10711 -0.2168,-0.15234c-0.0451,0.06966 -0.0921,0.14574 -0.1367,0.22754z" fill="#002B51"/>
</svg>
