<svg width="24" height="24" viewBox="0 0 24 24" fill="none" xmlns="http://www.w3.org/2000/svg">
<path d="M16.0272,2.45691c0.207,-0.15681 0.4843,-0.19756 0.7305,-0.09961l0.001,0.00098h0.001c0.0007,0.0003 0.0019,0.00059 0.0029,0.00097c0.002,0.0008 0.0042,0.0028 0.0068,0.00391c0.0058,0.00238 0.0145,0.005 0.0235,0.00879c0.0177,0.00753 0.0415,0.01816 0.0703,0.03125c0.0582,0.02647 0.1382,0.06507 0.2334,0.11523c0.1895,0.09995 0.4463,0.25102 0.7158,0.45703c0.5269,0.40288 1.1801,1.07533 1.3887,2.05664c0.2086,0.98151 -0.1151,1.86199 -0.4327,2.44434c-0.1474,0.27028 -0.3051,0.4932 -0.4316,0.6582c0.1167,0.36645 0.2096,0.72891 0.2793,1.08692c0.6738,-0.55936 1.4794,-0.73519 2.0781,-0.78125c0.3382,-0.02598 0.6354,-0.01352 0.8487,0.00586c0.1072,0.00975 0.1954,0.02171 0.2588,0.03125c0.0314,0.00473 0.0571,0.00934 0.0761,0.01269c0.0092,0.00164 0.0174,0.00372 0.0235,0.00489c0.0027,0.00051 0.0057,-0.00033 0.0078,0c0.0011,0.00021 0.003,0.0008 0.0039,0.00097l0.001,0.00098h0.0009l0.1075,0.03027c0.2441,0.08817 0.4283,0.29792 0.4804,0.55762v0.00195h0.001c0.0002,0.00089 0.0008,0.0028 0.001,0.00391c0.0004,0.00209 0.0004,0.00497 0.001,0.00781l0.0166,0.09961c0.0095,0.06327 0.0215,0.15163 0.0312,0.25879c0.0194,0.21326 0.0318,0.5106 0.0059,0.84859c-0.0509,0.6614 -0.2593,1.5757 -0.9688,2.2852c-0.7095,0.7095 -1.6238,0.9179 -2.2851,0.9687c-0.3381,0.026 -0.6354,0.0136 -0.8487,-0.0058c-0.0332,-0.003 -0.0643,-0.0084 -0.0937,-0.0117c-0.1244,0.3785 -0.2723,0.7427 -0.4444,1.0898c0.5309,-0.007 1.1332,0.0892 1.7061,0.4199c0.8689,0.5017 1.307,1.3305 1.5273,1.9561c0.1127,0.3199 0.1774,0.6102 0.2139,0.8213c0.0184,0.1062 0.0299,0.1951 0.0371,0.2588c0.0035,0.0313 0.0052,0.057 0.0068,0.0761c0.0009,0.0096 0.0015,0.0182 0.002,0.0245c0.0002,0.0029 0.0008,0.0056 0.001,0.0078l0.001,0.0029l-0.001,0.001l0.001,0.0019c0.0169,0.2644 -0.1074,0.5148 -0.3204,0.6631l-0.0957,0.0576l-0.0019,0.001c-0.0008,0.0004 -0.0029,0.0005 -0.0039,0.001c-0.0019,0.0009 -0.0043,0.0017 -0.0069,0.0029c-0.0056,0.0027 -0.0137,0.0067 -0.0224,0.0108c-0.0174,0.0081 -0.0405,0.0196 -0.0694,0.0322c-0.0586,0.0256 -0.1411,0.0595 -0.2421,0.0967c-0.2011,0.0739 -0.485,0.1631 -0.8184,0.2255c-0.652,0.1221 -1.589,0.157 -2.458,-0.3447c-0.7793,-0.45 -1.2113,-1.1632 -1.4512,-1.7568c-0.56,0.4734 -1.1721,0.8504 -1.8095,1.1152c0.1123,0.1339 0.2131,0.2726 0.3027,0.4112c0.4144,0.6408 0.6603,1.3745 0.7793,1.9316l0.0439,0.2275l0.0088,0.0762c0.0242,0.3793 -0.243,0.7233 -0.626,0.7871c-0.4084,0.0679 -0.7952,-0.2087 -0.8632,-0.6172c-0.0713,-0.4273 -0.268,-1.0734 -0.6026,-1.5908c-0.3351,-0.5181 -0.7173,-0.7822 -1.1572,-0.7822c-0.4399,0 -0.8221,0.2641 -1.1572,0.7822c-0.3346,0.5174 -0.5313,1.1635 -0.6026,1.5908c-0.0681,0.4085 -0.45479,0.6851 -0.86325,0.6172c-0.40841,-0.0681 -0.68509,-0.4548 -0.61719,-0.8633c0.09546,-0.5727 0.3496,-1.4267 0.82324,-2.1591c0.08961,-0.1386 0.19039,-0.2773 0.30274,-0.4112c-0.63762,-0.265 -1.25044,-0.6416 -1.81055,-1.1152c-0.23989,0.5936 -0.67102,1.3069 -1.4502,1.7568c-0.86899,0.5017 -1.80604,0.4668 -2.458,0.3447c-0.33331,-0.0624 -0.61735,-0.1516 -0.81836,-0.2255c-0.10072,-0.0371 -0.1826,-0.0712 -0.24121,-0.0967c-0.02908,-0.0127 -0.05284,-0.0241 -0.07032,-0.0322c-0.00878,-0.0041 -0.0168,-0.0081 -0.02246,-0.0108c-0.00257,-0.0012 -0.00494,-0.002 -0.00683,-0.0029l-0.00293,-0.001l-0.00098,-0.001h-0.00098c-0.23756,-0.1174 -0.39305,-0.3506 -0.41504,-0.6093l-0.00097,-0.1114v-0.0058c0.00015,-0.0022 0.00075,-0.0049 0.00097,-0.0078c0.00047,-0.0063 0.00112,-0.0149 0.00196,-0.0245c0.00167,-0.0191 0.00427,-0.0447 0.00781,-0.0761c0.00718,-0.0637 0.01777,-0.1526 0.03613,-0.2588c0.0365,-0.2111 0.10123,-0.5014 0.21387,-0.8213c0.22029,-0.6256 0.65847,-1.4543 1.52734,-1.9561c0.57249,-0.3305 1.17454,-0.4267 1.70508,-0.4199c-0.17203,-0.347 -0.31997,-0.7113 -0.44433,-1.0898c-0.02911,0.0032 -0.05992,0.0087 -0.09278,0.0117c-0.21331,0.0194 -0.5105,0.0318 -0.84863,0.0058c-0.66134,-0.0508 -1.57562,-0.2592 -2.28516,-0.9687c-0.70943,-0.7095 -0.91788,-1.6239 -0.96875,-2.2852c-0.02595,-0.33798 -0.01351,-0.63533 0.00586,-0.84859c0.00975,-0.10717 0.02172,-0.19551 0.03125,-0.25879c0.00469,-0.03108 0.00937,-0.05629 0.0127,-0.0752c0.00166,-0.00944 0.00371,-0.01826 0.00488,-0.02441c0.00053,-0.00282 -0.00038,-0.00573 0,-0.00781c0.00022,-0.00111 0.0008,-0.00302 0.00098,-0.00391h0.00097v-0.00195l0.03028,-0.10742c0.08817,-0.24415 0.2979,-0.42841 0.55761,-0.48047h0.00196v-0.00098c0.00088,-0.00017 0.0028,-0.00076 0.0039,-0.00097c0.00209,-0.00038 0.005,0.00053 0.00782,0c0.00604,-0.00115 0.0142,-0.00324 0.02343,-0.00489c0.01896,-0.00334 0.04485,-0.00797 0.07618,-0.01269c0.06327,-0.00954 0.15161,-0.0215 0.25878,-0.03125c0.21326,-0.01938 0.51061,-0.03182 0.84864,-0.00586c0.59873,0.04605 1.4044,0.22198 2.07812,0.78125c0.06964,-0.35791 0.16164,-0.72058 0.27832,-1.08692c-0.12647,-0.16497 -0.2834,-0.3882 -0.43066,-0.6582c-0.31752,-0.58235 -0.64124,-1.46284 -0.43262,-2.44434c0.20857,-0.98124 0.86181,-1.65375 1.38867,-2.05664c0.26949,-0.20601 0.52633,-0.35708 0.71582,-0.45703c0.09511,-0.05015 0.17511,-0.08875 0.2334,-0.11523c0.02895,-0.01315 0.05353,-0.02371 0.07129,-0.03125c0.00872,-0.00368 0.01675,-0.00645 0.02246,-0.00879c0.0027,-0.00111 0.00485,-0.0031 0.00684,-0.00391l0.00293,-0.00097h0.00097l0.00196,-0.00098l0.10644,-0.0332c0.25285,-0.059 0.52194,0.01742 0.70703,0.20703l0.00098,0.00097h0.00098c0.00063,0.00066 0.00124,0.0022 0.00195,0.00293c0.00142,0.00155 0.00293,0.00382 0.00488,0.00586c0.00433,0.00452 0.01105,0.01058 0.01758,0.01758c0.01313,0.01408 0.03082,0.03303 0.05176,0.05664c0.0425,0.04793 0.1004,0.11556 0.16699,0.2002c0.13238,0.16827 0.3045,0.41046 0.4668,0.70801c0.3175,0.58231 0.64116,1.4629 0.43262,2.44433c-0.20863,0.9815 -0.86174,1.65477 -1.38868,2.05762c-0.25006,0.19115 -0.49032,0.33205 -0.6748,0.43164c-1.67268,4.96519 1.97495,8.79279 4.86231,8.79299c2.8874,-0.0001 6.5343,-3.8275 4.8613,-8.79299c-0.1844,-0.09958 -0.4241,-0.24175 -0.6738,-0.43262c-0.5269,-0.4029 -1.1801,-1.07546 -1.3887,-2.05664c-0.2085,-0.98142 0.1151,-1.86202 0.4326,-2.44433c0.1623,-0.29753 0.3345,-0.53972 0.4668,-0.70801c0.0667,-0.08472 0.1255,-0.15226 0.168,-0.2002c0.021,-0.02367 0.0386,-0.04257 0.0518,-0.05664c0.0064,-0.00691 0.0123,-0.01308 0.0166,-0.01758c0.0019,-0.00198 0.0035,-0.00432 0.0048,-0.00586c0.0008,-0.00081 0.0023,-0.00228 0.003,-0.00293h0.001v-0.00097zM6.55653,16.1815c-0.48074,-0.0899 -1.00166,-0.0793 -1.43164,0.169c-0.42992,0.2482 -0.69984,0.694 -0.8623,1.1552c-0.03083,0.0876 -0.05563,0.1731 -0.07715,0.253c0.07993,0.0213 0.16659,0.0425 0.25781,0.0595c0.48075,0.09 1.00166,0.0793 1.43164,-0.1689c0.42998,-0.2483 0.69983,-0.694 0.86231,-1.1553c0.03086,-0.0877 0.05659,-0.1729 0.07812,-0.2529c-0.08019,-0.0214 -0.16722,-0.0424 -0.25879,-0.0596zM18.8749,16.3505c-0.43,-0.2482 -0.9509,-0.2589 -1.4316,-0.169c-0.0915,0.0172 -0.1787,0.0382 -0.2588,0.0596c0.0215,0.08 0.0472,0.1652 0.0781,0.2529c0.1624,0.4613 0.4324,0.907 0.8623,1.1553c0.43,0.2482 0.9509,0.2589 1.4316,0.1689c0.0913,-0.0171 0.1779,-0.0382 0.2578,-0.0595c-0.0215,-0.08 -0.0463,-0.1654 -0.0771,-0.253c-0.1625,-0.4613 -0.4323,-0.907 -0.8623,-1.1552zM2.93544,10.1913c0.03754,0.4876 0.18319,0.9878 0.53418,1.3389c0.35105,0.351 0.85126,0.4966 1.33887,0.5341c0.09265,0.0072 0.18182,0.0087 0.26465,0.0088c-0.00011,-0.0828 -0.00167,-0.172 -0.00879,-0.2646c-0.03756,-0.4876 -0.18314,-0.9878 -0.53418,-1.3389c-0.35107,-0.351 -0.85128,-0.49664 -1.33887,-0.53418c-0.09271,-0.00712 -0.18179,-0.00869 -0.26465,-0.00878c0.0001,0.08286 0.00166,0.17196 0.00879,0.26466zM20.8085,9.93542c-0.4876,0.03756 -0.9878,0.18318 -1.3389,0.53418c-0.351,0.3511 -0.4966,0.8513 -0.5342,1.3389c-0.0071,0.0926 -0.0086,0.1818 -0.0087,0.2646c0.0827,-0.0001 0.172,-0.0016 0.2646,-0.0088c0.4876,-0.0375 0.9878,-0.1831 1.3389,-0.5341c0.351,-0.3511 0.4966,-0.8513 0.5341,-1.3389c0.0072,-0.0927 0.0097,-0.1818 0.0098,-0.26466c-0.083,0.00008 -0.1727,0.00164 -0.2656,0.00878zM7.09853,4.16687c-0.38842,0.29699 -0.7287,0.69131 -0.83204,1.17676c-0.10322,0.48561 0.04718,0.98466 0.28125,1.41406c0.04447,0.08155 0.09172,0.15707 0.13672,0.22656c0.06936,-0.04516 0.14303,-0.09497 0.2168,-0.15136c0.38846,-0.29703 0.72874,-0.69123 0.83203,-1.17676c0.10323,-0.48565 -0.04714,-0.98464 -0.28125,-1.41406c-0.04458,-0.08176 -0.0916,-0.15791 -0.13672,-0.22754c-0.06948,0.04523 -0.14288,0.09583 -0.21679,0.15234zM16.5477,4.24207c-0.2341,0.42942 -0.3844,0.92841 -0.2812,1.41406c0.1033,0.48553 0.4436,0.87973 0.832,1.17676c0.0738,0.05638 0.1475,0.1062 0.2168,0.15136c0.045,-0.06951 0.0923,-0.14497 0.1367,-0.22656c0.2341,-0.42942 0.3845,-0.92841 0.2813,-1.41406c-0.1033,-0.48545 -0.4436,-0.87977 -0.832,-1.17676c-0.074,-0.05651 -0.1474,-0.10711 -0.2168,-0.15234c-0.0452,0.06966 -0.0922,0.14574 -0.1368,0.22754z" fill="#002B51"/>
</svg>
