<svg width="24" height="24" viewBox="0 0 24 24" fill="none" xmlns="http://www.w3.org/2000/svg">
<path fill-rule="evenodd" clip-rule="evenodd" d="M16.7574,2.35772l-0.2772,0.6969l-0.5367,-0.5239c0.2115,-0.21666 0.5326,-0.2849 0.8139,-0.173zM22.5033,9.08569l0.0001,0.00056l0.0003,0.00125l0.0005,0.00299l0.0016,0.00795l0.0043,0.02359c0.0033,0.01907 0.0076,0.04478 0.0124,0.07651c0.0096,0.06336 0.0211,0.15125 0.0309,0.25861c0.0194,0.21341 0.0324,0.51067 0.0063,0.84905c-0.0508,0.6614 -0.2592,1.5753 -0.9687,2.2848c-0.7095,0.7096 -1.6235,0.9179 -2.2848,0.9688c-0.3384,0.026 -0.6357,0.013 -0.8491,-0.0064c-0.032,-0.0029 -0.0622,-0.006 -0.0906,-0.0091c-0.1241,0.3773 -0.2735,0.74 -0.4449,1.086c0.5301,-0.0067 1.1314,0.0909 1.7034,0.4211c0.869,0.5018 1.3068,1.3306 1.5271,1.9562c0.1127,0.3202 0.1771,0.6107 0.2136,0.8219c0.0183,0.1062 0.0299,0.1941 0.0371,0.2577c0.0036,0.0319 0.0061,0.0579 0.0078,0.0772l0.0019,0.0239l0.0006,0.008l0.0002,0.0031l0.0001,0.0012l0.0001,0.0006c0,0.0003 0,0.0005 -0.7484,0.0488l0.7484,-0.0483c0.0195,0.3022 -0.1446,0.5864 -0.416,0.7206l-0.3324,-0.6723c0.3324,0.6723 0.3321,0.6724 0.3319,0.6725l-0.0005,0.0003l-0.0012,0.0006l-0.0027,0.0013l-0.0073,0.0035l-0.0217,0.0103c-0.0175,0.0082 -0.0412,0.019 -0.0706,0.0318c-0.0588,0.0256 -0.1407,0.0595 -0.2418,0.0967c-0.2012,0.074 -0.4849,0.1635 -0.8186,0.226c-0.6519,0.122 -1.5886,0.1573 -2.4576,-0.3444c-0.7781,-0.4493 -1.2105,-1.1608 -1.4506,-1.7539c-0.5592,0.4726 -1.1711,0.85 -1.8075,1.1147c0.1114,0.133 0.2114,0.2707 0.3004,0.4083c0.4736,0.7325 0.727,1.5863 0.8225,2.159c0.0681,0.4086 -0.2079,0.795 -0.6165,0.8631c-0.4086,0.0681 -0.795,-0.2079 -0.8631,-0.6165c-0.0712,-0.4273 -0.2678,-1.0735 -0.6025,-1.5911c-0.3334,-0.5155 -0.7136,-0.7794 -1.1507,-0.7822h-0.007h-0.0061c-0.4375,0.0024 -0.818,0.2663 -1.1516,0.7822c-0.3347,0.5176 -0.5313,1.1638 -0.6025,1.5911c-0.0681,0.4086 -0.45453,0.6846 -0.86311,0.6165c-0.40858,-0.0681 -0.68459,-0.4545 -0.6165,-0.8631c0.09546,-0.5727 0.34886,-1.4265 0.82251,-2.159c0.08899,-0.1376 0.18897,-0.2753 0.30039,-0.4083c-0.63645,-0.2647 -1.24828,-0.6421 -1.80752,-1.1147c-0.24009,0.5931 -0.67247,1.3046 -1.45058,1.7539c-0.869,0.5017 -1.80568,0.4664 -2.45765,0.3444c-0.33364,-0.0625 -0.61739,-0.152 -0.81852,-0.226c-0.10117,-0.0372 -0.18308,-0.0711 -0.24181,-0.0967c-0.02941,-0.0128 -0.05313,-0.0236 -0.07067,-0.0318l-0.02169,-0.0103l-0.00728,-0.0035l-0.00274,-0.0013l-0.00114,-0.0006l-0.00051,-0.0003c-0.00024,-0.0001 -0.00047,-0.0002 0.33195,-0.6725l-0.33242,0.6723c-0.27141,-0.1342 -0.43551,-0.4184 -0.41603,-0.7206l0.74845,0.0483c-0.74845,-0.0483 -0.74843,-0.0485 -0.74841,-0.0488l0.00003,-0.0006l0.00009,-0.0012l0.00021,-0.0031l0.00059,-0.008l0.00195,-0.024c0.00169,-0.0192 0.00419,-0.0452 0.00778,-0.0771c0.00718,-0.0636 0.01878,-0.1515 0.03714,-0.2578c0.0365,-0.2111 0.10085,-0.5016 0.21359,-0.8218c0.2203,-0.6256 0.65809,-1.4544 1.52709,-1.9562c0.57196,-0.3302 1.17324,-0.4278 1.70337,-0.4211c-0.17143,-0.346 -0.32078,-0.7087 -0.44483,-1.086c-0.0284,0.0031 -0.05866,0.0062 -0.09065,0.0091c-0.21342,0.0194 -0.51067,0.0324 -0.84911,0.0064c-0.66133,-0.0509 -1.57523,-0.2592 -2.28477,-0.9688c-0.70953,-0.7095 -0.91789,-1.6234 -0.96876,-2.2847c-0.02603,-0.33848 -0.013,-0.63573 0.0064,-0.84915c0.00976,-0.10736 0.02129,-0.19525 0.03084,-0.25861c0.00478,-0.03172 0.00908,-0.05743 0.01245,-0.0765l0.00429,-0.0236l0.00153,-0.00795l0.00058,-0.00299l0.00025,-0.00124l0.00011,-0.00057c0.00005,-0.00026 0.0001,-0.00051 0.73554,0.14657l-0.73544,-0.14708c0.05938,-0.2969 0.29145,-0.52897 0.58835,-0.58835l0.14709,0.73543c-0.14709,-0.73543 -0.14683,-0.73548 -0.14657,-0.73553l0.00056,-0.00012l0.00124,-0.00024l0.00299,-0.00059l0.00795,-0.00152l0.0236,-0.0043c0.01907,-0.00336 0.04478,-0.00766 0.07651,-0.01244c0.06335,-0.00955 0.15125,-0.02109 0.2586,-0.03085c0.21342,-0.0194 0.51067,-0.03242 0.84911,-0.00639c0.59845,0.04603 1.40372,0.22103 2.07722,0.77966c0.0695,-0.35686 0.16159,-0.71841 0.27785,-1.08365c-0.12666,-0.16512 -0.28271,-0.38969 -0.43025,-0.66028c-0.31753,-0.58235 -0.64053,-1.46229 -0.4319,-2.44379c0.20862,-0.98151 0.8616,-1.654 1.38854,-2.05685c0.26965,-0.20616 0.52605,-0.35713 0.7156,-0.45709c0.09535,-0.05029 0.17535,-0.08848 0.23368,-0.11498c0.02921,-0.01327 0.05312,-0.02367 0.07095,-0.03123l0.02213,-0.00925l0.00749,-0.00305l0.00283,-0.00114l0.00118,-0.00047l0.00053,-0.00021c0.00025,-0.0001 0.00049,-0.0002 0.27768,0.6967l-0.27719,-0.6969c0.28134,-0.1119 0.60236,-0.04366 0.81387,0.17299l-0.53668,0.52391c0.53668,-0.52391 0.53686,-0.52372 0.53704,-0.52353l0.0004,0.00041l0.00089,0.00091l0.00212,0.00219l0.0056,0.00584l0.01646,0.01745c0.01321,0.01416 0.03082,0.03338 0.05211,0.05738c0.04251,0.04794 0.10005,0.11537 0.16671,0.20009c0.13251,0.16842 0.30533,0.41062 0.46782,0.70863c0.31752,0.58235 0.64052,1.4623 0.4319,2.4438c-0.20862,0.9815 -0.86161,1.65399 -1.38854,2.05684c-0.25294,0.19338 -0.49421,0.3382 -0.67959,0.43791c-1.66621,4.95793 1.97462,8.78063 4.85963,8.78743h0.0077h0.0077c2.885,-0.0068 6.5258,-3.8295 4.8596,-8.78745c-0.1854,-0.09971 -0.4267,-0.24453 -0.6796,-0.43791c-0.5269,-0.40286 -1.1799,-1.07535 -1.3885,-2.05685c-0.2087,-0.9815 0.1143,-1.86145 0.4319,-2.44379c0.1624,-0.29802 0.3353,-0.54022 0.4678,-0.70864c0.0666,-0.08472 0.1242,-0.15215 0.1667,-0.20009c0.0213,-0.024 0.0389,-0.04322 0.0521,-0.05738l0.0165,-0.01745l0.0056,-0.00584l0.0021,-0.00219l0.0009,-0.00091l0.0004,-0.00041c0.0001,-0.00019 0.0003,-0.00037 0.537,0.52353c0.2772,-0.6969 0.2774,-0.6968 0.2777,-0.6967l0.0005,0.00021l0.0012,0.00047l0.0028,0.00114l0.0075,0.00305l0.0221,0.00925c0.0179,0.00757 0.0418,0.01796 0.071,0.03123c0.0583,0.0265 0.1383,0.06469 0.2337,0.11498c0.1895,0.09996 0.4459,0.25093 0.7156,0.45709c0.5269,0.40285 1.1799,1.07534 1.3885,2.05685c0.2086,0.9815 -0.1144,1.86144 -0.4319,2.44379c-0.1475,0.27058 -0.3036,0.49515 -0.4302,0.66027c0.1162,0.36525 0.2083,0.72682 0.2778,1.0837c0.6735,-0.55864 1.4788,-0.73364 2.0773,-0.77967c0.3384,-0.02604 0.6357,-0.01301 0.8491,0.00639c0.1073,0.00976 0.1952,0.0213 0.2586,0.03084c0.0317,0.00478 0.0574,0.00909 0.0765,0.01245l0.0236,0.0043l0.0079,0.00152l0.003,0.00058l0.0013,0.00025l0.0005,0.00011c0.0003,0.00005 0.0005,0.0001 -0.1465,0.73554c0.7354,-0.14709 0.7354,-0.14683 0.7355,-0.14657zM21.7678,9.23226l0.147,-0.73544c0.2969,0.05938 0.529,0.29146 0.5884,0.58835zM17.452,6.75791c0.2341,-0.42946 0.3848,-0.92814 0.2816,-1.41385c-0.1032,-0.48572 -0.4438,-0.87998 -0.8324,-1.17708c-0.0742,-0.05672 -0.1474,-0.10776 -0.2171,-0.15313c-0.0452,0.0698 -0.0914,0.14622 -0.1361,0.22821c-0.2341,0.42947 -0.3849,0.92814 -0.2816,1.41386c0.1032,0.48572 0.4437,0.87998 0.8323,1.17707c0.0742,0.05673 0.1475,0.10777 0.2172,0.15313c0.0452,-0.06979 0.0913,-0.14621 0.1361,-0.22821zM4.4433,17.8186c0.48081,0.09 1.00165,0.0792 1.43169,-0.1691c0.43004,-0.2483 0.69978,-0.694 0.86225,-1.1553c0.03102,-0.0881 0.05694,-0.1735 0.07854,-0.2539c-0.08037,-0.0214 -0.1673,-0.0417 -0.2591,-0.0589c-0.4808,-0.09 -1.00165,-0.0792 -1.43169,0.1691c-0.43004,0.2483 -0.69978,0.6939 -0.86225,1.1553c-0.03102,0.0881 -0.05693,0.1735 -0.07853,0.2539c0.08036,0.0214 0.16729,0.0417 0.25909,0.0589zM19.5567,17.8186c0.0918,-0.0172 0.1787,-0.0375 0.2591,-0.0589c-0.0216,-0.0804 -0.0475,-0.1658 -0.0786,-0.2539c-0.1624,-0.4613 -0.4322,-0.907 -0.8622,-1.1553c-0.4301,-0.2483 -0.9509,-0.2591 -1.4317,-0.1691c-0.0918,0.0172 -0.1787,0.0375 -0.2591,0.0589c0.0216,0.0804 0.0475,0.1658 0.0785,0.2539c0.1625,0.4614 0.4322,0.907 0.8623,1.1553c0.43,0.2483 0.9509,0.2591 1.4317,0.1691zM5.06416,11.8089c-0.03751,-0.4878 -0.18271,-0.9881 -0.53384,-1.3392c-0.35112,-0.3511 -0.85144,-0.49632 -1.33915,-0.53384c-0.09312,-0.00716 -0.18233,-0.01009 -0.26551,-0.01016c0.00007,0.0832 0.003,0.1724 0.01016,0.2655c0.03752,0.4877 0.18272,0.988 0.53384,1.3392c0.35113,0.3511 0.85144,0.4963 1.33916,0.5338c0.09312,0.0072 0.18233,0.0101 0.26551,0.0102c-0.00008,-0.0832 -0.003,-0.1724 -0.01017,-0.2655zM18.9358,11.8089c-0.0071,0.0931 -0.0101,0.1823 -0.0101,0.2655c0.0831,-0.0001 0.1724,-0.003 0.2655,-0.0102c0.4877,-0.0375 0.988,-0.1827 1.3391,-0.5338c0.3512,-0.3512 0.4963,-0.8515 0.5339,-1.3392c0.0071,-0.0931 0.0101,-0.1823 0.0101,-0.26551c-0.0832,0.00008 -0.1724,0.003 -0.2655,0.01017c-0.4877,0.03751 -0.988,0.18274 -1.3391,0.53384c-0.3512,0.3511 -0.4964,0.8514 -0.5339,1.3392zM6.548,6.75794c0.0447,0.082 0.09084,0.15841 0.13608,0.22821c0.06972,-0.04536 0.14295,-0.0964 0.21714,-0.15313c0.3886,-0.29709 0.72912,-0.69135 0.83236,-1.17707c0.10324,-0.48572 -0.04748,-0.98439 -0.28164,-1.41386c-0.04471,-0.082 -0.09084,-0.15841 -0.13608,-0.22821c-0.06972,0.04536 -0.14295,0.09641 -0.21714,0.15313c-0.3886,0.29709 -0.72912,0.69136 -0.83236,1.17707c-0.10325,0.48572 0.04747,0.9844 0.28164,1.41386z" fill="#002B51"/>
</svg>
