<svg width="24" height="24" viewBox="0 0 24 24" fill="none" xmlns="http://www.w3.org/2000/svg">
<path fill-rule="evenodd" clip-rule="evenodd" d="M11.745,2.29469c0.1919,-0.06937 0.4051,-0.05807 0.5898,0.03418l10,5c0.2541,0.12704 0.4151,0.38682 0.4151,0.6709c0,0.28408 -0.161,0.54385 -0.4151,0.6709l-10,5.00003c-0.2109,0.1053 -0.459,0.1053 -0.6699,0l-9.99999,-5.00003c-0.25409,-0.12705 -0.41504,-0.38682 -0.41504,-0.6709c0,-0.28408 0.16095,-0.54386 0.41504,-0.6709l9.99999,-5zM3.67663,7.99977l8.32327,4.16113l8.3232,-4.16113l-8.3232,-4.16211zM21.7352,15.2986c0.3554,-0.1346 0.7619,0.019 0.9356,0.3662c0.1733,0.3472 0.0523,0.7643 -0.2686,0.9678l-0.0674,0.0381l-10,5c-0.2109,0.1053 -0.459,0.1053 -0.6699,0l-9.99999,-5l-0.06738,-0.0381c-0.32085,-0.2035 -0.44191,-0.6206 -0.26856,-0.9678c0.17363,-0.3472 0.58016,-0.5008 0.93555,-0.3662l0.07031,0.0303l9.66507,4.832l9.665,-4.832zM22.4024,12.6326l-0.0674,0.0381l-10,5c-0.2109,0.1053 -0.459,0.1053 -0.6699,0l-10.00003,-5l-0.06738,-0.0381c-0.32084,-0.2035 -0.4419,-0.6206 -0.26855,-0.9678c0.17362,-0.3472 0.58016,-0.5008 0.93554,-0.3662l0.07032,0.0303l9.665,4.832l9.6651,-4.832l0.0703,-0.0303c0.3554,-0.1346 0.7619,0.019 0.9355,0.3662c0.1734,0.3472 0.0523,0.7643 -0.2685,0.9678z" fill="#002B51"/>
</svg>
