<svg width="24" height="24" viewBox="0 0 24 24" fill="none" xmlns="http://www.w3.org/2000/svg">
<path d="M1.32893,15.665c0.17363,-0.3472 0.58017,-0.5008 0.93555,-0.3662l0.07031,0.0303l9.66501,4.832l9.6651,-4.832c0.3704,-0.1849 0.8207,-0.0344 1.0058,0.3359c0.185,0.3704 0.0344,0.8207 -0.3359,1.0059l-10,5c-0.2109,0.1053 -0.459,0.1053 -0.6699,0l-10.00003,-5l-0.06738,-0.0381c-0.32084,-0.2034 -0.4419,-0.6206 -0.26856,-0.9678zM1.32893,11.665c0.17361,-0.3472 0.5802,-0.5007 0.93555,-0.3662l0.07031,0.0303l9.66501,4.832l9.6651,-4.832c0.3704,-0.1849 0.8206,-0.0344 1.0058,0.3359c0.185,0.3704 0.0344,0.8207 -0.3359,1.0059l-10,5c-0.2109,0.1052 -0.459,0.1053 -0.6699,0l-10.00003,-5l-0.06738,-0.0381c-0.32073,-0.2035 -0.44184,-0.6206 -0.26856,-0.9678zM11.7449,2.29492c0.1919,-0.06937 0.4051,-0.05807 0.5899,0.03418l10,5c0.2541,0.12705 0.415,0.38682 0.415,0.6709c0,0.28408 -0.1609,0.54385 -0.415,0.6709l-10,5c-0.2109,0.1053 -0.459,0.1053 -0.6699,0l-10.00003,-5c-0.25409,-0.12705 -0.41504,-0.38682 -0.41504,-0.6709c0,-0.28408 0.16095,-0.54385 0.41504,-0.6709l10.00003,-5zM3.67659,8l8.32321,4.1611l8.3233,-4.1611l-8.3233,-4.16211z" fill="#002B51"/>
</svg>
