<svg width="24" height="24" viewBox="0 0 24 24" fill="none" xmlns="http://www.w3.org/2000/svg">
<path d="M0.32898,14.665c0.17363,-0.3472 0.58016,-0.5008 0.93555,-0.3662l0.07031,0.0303l9.66506,4.832l9.665,-4.832c0.3704,-0.1849 0.8207,-0.0344 1.0059,0.3359c0.1849,0.3704 0.0344,0.8207 -0.336,1.0059l-10,5c-0.2109,0.1053 -0.459,0.1053 -0.6699,0l-9.99998,-5l-0.06738,-0.0381c-0.32084,-0.2034 -0.4419,-0.6206 -0.26855,-0.9678zM0.32898,10.665c0.1736,-0.3472 0.5802,-0.5007 0.93555,-0.3662l0.07031,0.0303l9.66506,4.832l9.665,-4.832c0.3704,-0.1849 0.8207,-0.0344 1.0059,0.3359c0.1849,0.3704 0.0344,0.8207 -0.336,1.0059l-10,5c-0.2109,0.1052 -0.459,0.1053 -0.6699,0l-9.99998,-5l-0.06738,-0.0381c-0.32073,-0.2035 -0.44184,-0.6206 -0.26855,-0.9678zM10.745,1.29492c0.1919,-0.06937 0.4051,-0.05807 0.5898,0.03418l10,5c0.2541,0.12705 0.4151,0.38682 0.4151,0.6709c0,0.28408 -0.161,0.54385 -0.4151,0.6709l-10,5c-0.2109,0.1053 -0.459,0.1053 -0.6699,0l-9.99998,-5c-0.25409,-0.12705 -0.41504,-0.38682 -0.41504,-0.6709c0,-0.28408 0.16095,-0.54385 0.41504,-0.6709l9.99998,-5z" fill="#002B51"/>
</svg>
