<svg width="24" height="24" viewBox="0 0 24 24" fill="none" xmlns="http://www.w3.org/2000/svg">
<path fill-rule="evenodd" clip-rule="evenodd" d="M11.6646,2.32915c0.2111,-0.10557 0.4596,-0.10557 0.6708,0l10,5c0.2541,0.12704 0.4146,0.38674 0.4146,0.67082c0,0.28408 -0.1605,0.54378 -0.4146,0.67082l-10,5.00001c-0.2112,0.1056 -0.4597,0.1056 -0.6708,0l-10.00003,-5.00001c-0.25409,-0.12704 -0.41459,-0.38674 -0.41459,-0.67082c0,-0.28408 0.1605,-0.54378 0.41459,-0.67082zM3.67703,7.99997l8.32297,4.16143l8.3229,-4.16143l-8.3229,-4.16147zM1.32916,15.6646c0.18524,-0.3705 0.63575,-0.5207 1.00623,-0.3354l9.66461,4.8323l9.6646,-4.8323c0.3705,-0.1853 0.821,-0.0351 1.0062,0.3354c0.1852,0.3705 0.0351,0.821 -0.3354,1.0062l-10,5c-0.2112,0.1056 -0.4597,0.1056 -0.6708,0l-10.00003,-5c-0.37048,-0.1852 -0.52065,-0.6357 -0.33541,-1.0062zM12.0001,16.1615l9.6646,-4.8323c0.3705,-0.1853 0.821,-0.0351 1.0063,0.3354c0.1852,0.3705 0.035,0.821 -0.3354,1.0062l-10,5c-0.2112,0.1056 -0.4597,0.1056 -0.6709,0l-9.99996,-5c-0.37049,-0.1852 -0.52066,-0.6357 -0.33541,-1.0062c0.18524,-0.3705 0.63574,-0.5207 1.00623,-0.3354z" fill="#002B51"/>
</svg>
