<svg width="24" height="24" viewBox="0 0 24 24" fill="none" xmlns="http://www.w3.org/2000/svg">
<path d="M20.7353,14.2986c0.3554,-0.1346 0.7619,0.019 0.9355,0.3662c0.1734,0.3472 0.0523,0.7644 -0.2685,0.9678l-0.0674,0.0381l-10,5c-0.2109,0.1053 -0.459,0.1053 -0.6699,0l-10.00003,-5l-0.06738,-0.0381c-0.32084,-0.2034 -0.4419,-0.6206 -0.26855,-0.9678c0.17363,-0.3472 0.58017,-0.5008 0.93555,-0.3662l0.07031,0.0303l9.66501,4.832l9.6651,-4.832zM20.7353,10.2986c0.3553,-0.1346 0.7619,0.019 0.9355,0.3662c0.1734,0.3472 0.0523,0.7644 -0.2685,0.9678l-0.0674,0.0381l-10,5c-0.2109,0.1052 -0.459,0.1053 -0.6699,0l-10.00003,-5l-0.06738,-0.0381c-0.32073,-0.2035 -0.44184,-0.6206 -0.26855,-0.9678c0.1736,-0.3472 0.5802,-0.5007 0.93555,-0.3662l0.07031,0.0303l9.66501,4.832l9.6651,-4.832zM10.745,1.29472c0.1919,-0.06937 0.4051,-0.05807 0.5899,0.03418l10,5c0.2541,0.12704 0.415,0.38682 0.415,0.6709c0,0.28408 -0.1609,0.54385 -0.415,0.6709l-10,5c-0.2109,0.1053 -0.459,0.1053 -0.6699,0l-10.00003,-5c-0.25409,-0.12705 -0.41504,-0.38682 -0.41504,-0.6709c0,-0.28408 0.16095,-0.54386 0.41504,-0.6709l10.00003,-5z" fill="#002B51"/>
</svg>
