<svg width="24" height="24" viewBox="0 0 24 24" fill="none" xmlns="http://www.w3.org/2000/svg">
<path d="M13.347,3.19269c2.3032,-0.28084 4.5603,-0.2187 6.1416,-0.02344l0.6348,0.09082l0.1152,0.0293c0.2597,0.08708 0.4549,0.31151 0.501,0.58789c0.2713,1.62853 0.1307,4.11411 -0.5156,6.50584c-0.6434,2.3806 -1.8315,4.8299 -3.7881,6.2276c-3.4889,2.4919 -7.87253,2.6454 -10.1836,2.2109l-0.17578,-0.0381c-0.22113,0.8044 -0.32617,1.5641 -0.32617,2.2168c-0.00009,0.414 -0.33602,0.7498 -0.75,0.75c-0.41416,0 -0.74991,-0.3359 -0.75,-0.75c0,-1.0142 0.20818,-2.233 0.65918,-3.4941c0.6763,-2.2193 2.22729,-4.7176 4.90234,-6.2266c0.47213,-0.2991 0.97753,-0.5708 1.51763,-0.8096c0.1652,-0.2042 0.2214,-0.48685 0.1171,-0.74801c-0.1538,-0.38436 -0.5901,-0.57145 -0.9746,-0.41797c-3.53747,1.41498 -5.66657,4.22498 -6.70114,6.90238c-0.51284,-1.1597 -0.74545,-2.4793 -0.70801,-3.7901c0.06748,-2.359 1.01094,-4.82391 2.94922,-6.48533l0.37012,-0.29883c1.89799,-1.44067 4.51501,-2.14068 6.96481,-2.43945z" fill="#002B51"/>
</svg>
