<svg width="24" height="24" viewBox="0 0 24 24" fill="none" xmlns="http://www.w3.org/2000/svg">
<path d="M13.3471,3.19257c2.3032,-0.28085 4.5602,-0.21871 6.1416,-0.02344l0.6347,0.09082l0.1153,0.0293c0.2597,0.0871 0.4549,0.3114 0.501,0.58789c0.2713,1.62858 0.1307,4.11404 -0.5157,6.50586c-0.6434,2.3806 -1.8314,4.8299 -3.7881,6.2275c-3.5795,2.5567 -8.10072,2.6499 -10.35933,2.1739c-0.22096,0.804 -0.32617,1.5633 -0.32617,2.2158c-0.00009,0.414 -0.33603,0.7498 -0.75,0.75c-0.41416,0 -0.74991,-0.3359 -0.75,-0.75c0,-0.922 0.17179,-2.0132 0.54199,-3.1514c-1.21965,-1.4406 -1.78626,-3.4454 -1.72949,-5.4326c0.06742,-2.3591 1.01087,-4.82387 2.94922,-6.48535c1.91814,-1.64412 4.72148,-2.41957 7.33498,-2.73828zM19.3275,4.66034c-1.456,-0.18195 -3.6023,-0.24634 -5.7988,0.02148c-2.5115,0.30629 -4.95917,1.03186 -6.541,2.3877c-1.56131,1.33844 -2.36817,3.37398 -2.42578,5.38968c-0.03974,1.3921 0.28038,2.7107 0.89746,3.7451c1.1484,-2.3526 3.16521,-4.6614 6.26272,-5.9004c0.3845,-0.1535 0.8208,0.0335 0.9746,0.418c0.1535,0.3843 -0.0337,0.8207 -0.418,0.9746c-2.91769,1.1671 -4.74254,3.44 -5.69823,5.6543c2.00647,0.3656 5.92213,0.2254 8.98343,-1.961c1.5434,-1.1024 2.6053,-3.1541 3.2119,-5.39841c0.5302,-1.9619 0.6785,-3.94773 0.5517,-5.33105z" fill="#002B51"/>
</svg>
