<svg width="24" height="24" viewBox="0 0 24 24" fill="none" xmlns="http://www.w3.org/2000/svg">
<path fill-rule="evenodd" clip-rule="evenodd" d="M20.7399,3.87673c0.2714,1.6286 0.1307,4.11439 -0.5158,6.50647c-0.6434,2.3806 -1.8314,4.8295 -3.7881,6.2271c-3.5804,2.5574 -8.10318,2.6527 -10.36124,2.1763c-0.2205,0.8031 -0.32476,1.5616 -0.32476,2.2134c0,0.4142 -0.33578,0.75 -0.75,0.75c-0.41421,0 -0.75,-0.3358 -0.75,-0.75c0,-0.9211 0.17219,-2.0107 0.54161,-3.1477c-1.22069,-1.4408 -1.78555,-3.4482 -1.72873,-5.4363c0.06743,-2.3591 1.01069,-4.82395 2.94909,-6.48543c1.91815,-1.64412 4.72133,-2.41882 7.33473,-2.73754c2.6325,-0.32104 5.2047,-0.19481 6.7767,0.06719c0.3161,0.05268 0.5638,0.3004 0.6165,0.61651zM6.57776,17.3571c2.00615,0.3658 5.92444,0.2197 8.98644,-1.9674c1.5434,-1.1024 2.6053,-3.1535 3.2119,-5.39789c0.5302,-1.9619 0.6789,-3.94792 0.5522,-5.33131c-1.4562,-0.18204 -3.603,-0.24643 -5.8,0.0215c-2.5115,0.30629 -4.95831,1.0316 -6.54014,2.38746c-1.56152,1.33844 -2.36828,3.37364 -2.42589,5.38944c-0.0398,1.3925 0.27805,2.7132 0.89477,3.7484c1.14806,-2.3538 3.16547,-4.6641 6.26446,-5.9036c0.3845,-0.1539 0.821,0.0332 0.9749,0.4178c0.1538,0.3846 -0.0333,0.821 -0.4179,0.9749c-2.92052,1.1682 -4.74577,3.4444 -5.70074,5.6607z" fill="#002B51"/>
</svg>
