<svg width="24" height="24" viewBox="0 0 24 24" fill="none" xmlns="http://www.w3.org/2000/svg">
<path d="M13.347,3.19269c2.3032,-0.28085 4.5603,-0.2187 6.1416,-0.02344l0.6348,0.09082l0.1152,0.0293c0.2598,0.08711 0.4549,0.31141 0.501,0.58789c0.2713,1.62858 0.1308,4.11404 -0.5156,6.50584c-0.6434,2.3806 -1.8314,4.8299 -3.7881,6.2276c-3.4889,2.4919 -7.87254,2.6454 -10.18361,2.2109l-0.17578,-0.0381c-0.22114,0.8044 -0.32618,1.5641 -0.32618,2.2168c-0.00009,0.414 -0.33602,0.7498 -0.75,0.75c-0.41415,0 -0.74991,-0.3359 -0.75,-0.75c0,-0.922 0.17179,-2.0132 0.542,-3.1514c-1.21965,-1.4406 -1.78626,-3.4453 -1.7295,-5.4326c0.06743,-2.3591 1.01087,-4.82385 2.94922,-6.48533l0.37012,-0.29883c1.898,-1.44074 4.51493,-2.14067 6.96483,-2.43945zM19.3275,4.66047c-1.456,-0.18195 -3.6024,-0.24635 -5.7988,0.02148c-2.3547,0.28716 -4.65302,0.94255 -6.23442,2.14062l-0.30664,0.24707c-1.56132,1.33845 -2.36818,3.37396 -2.42578,5.38966c-0.03974,1.3921 0.28037,2.7107 0.89746,3.7451c1.1484,-2.3526 3.16521,-4.6614 6.26268,-5.9004c0.3845,-0.1535 0.8208,0.0336 0.9746,0.418c0.1535,0.3844 -0.0337,0.8207 -0.4179,0.9746c-2.91776,1.1671 -4.7426,3.44 -5.69829,5.6543c2.00646,0.3657 5.92209,0.2255 8.98339,-1.9609c1.5434,-1.1025 2.6054,-3.1541 3.2119,-5.39848c0.5302,-1.96191 0.6785,-3.94773 0.5518,-5.33105z" fill="#002B51"/>
</svg>
