<svg width="24" height="24" viewBox="0 0 24 24" fill="none" xmlns="http://www.w3.org/2000/svg">
<path fill-rule="evenodd" clip-rule="evenodd" d="M20.7398,3.87673c0.2714,1.6286 0.1308,4.11439 -0.5157,6.50647c-0.6434,2.3806 -1.8314,4.8295 -3.7881,6.2271c-3.5804,2.5574 -8.10321,2.6527 -10.36127,2.1763c-0.2205,0.8031 -0.32476,1.5616 -0.32476,2.2134c0,0.4142 -0.33578,0.75 -0.75,0.75c-0.41421,0 -0.75,-0.3358 -0.75,-0.75c0,-0.9954 0.20112,-2.1878 0.63496,-3.4239c0.66379,-2.2339 2.21878,-4.7651 4.91604,-6.2908c0.47803,-0.3036 0.99033,-0.5793 1.53813,-0.8209c0.1603,-0.2037 0.2104,-0.48501 0.1073,-0.74294c-0.1539,-0.38459 -0.5904,-0.57165 -0.9749,-0.41782c-3.53754,1.41496 -5.66574,4.22516 -6.70024,6.90266c-0.51301,-1.1598 -0.74588,-2.4792 -0.70841,-3.7903c0.06743,-2.3591 1.01069,-4.82395 2.94909,-6.48543c1.91815,-1.64412 4.72136,-2.41882 7.33476,-2.73754c2.6325,-0.32104 5.2046,-0.19481 6.7766,0.06719c0.3161,0.05268 0.5638,0.3004 0.6165,0.61651z" fill="#002B51"/>
</svg>
