<svg width="24" height="24" viewBox="0 0 24 24" fill="none" xmlns="http://www.w3.org/2000/svg">
<path d="M13.347,3.19269c2.3033,-0.28085 4.5603,-0.2187 6.1416,-0.02344l0.6348,0.09082l0.1152,0.0293c0.2597,0.08709 0.4549,0.31146 0.501,0.58789c0.2713,1.62856 0.1307,4.11407 -0.5156,6.50584c-0.6434,2.3806 -1.8314,4.8299 -3.7881,6.2276c-3.4889,2.4919 -7.87253,2.6454 -10.1836,2.2109l-0.17578,-0.0381c-0.22113,0.8044 -0.32617,1.5641 -0.32617,2.2168c-0.00009,0.414 -0.33602,0.7498 -0.75,0.75c-0.41416,0 -0.74991,-0.3359 -0.75,-0.75c0,-1.0119 0.20741,-2.2274 0.65625,-3.4853c0.67533,-2.2229 2.22826,-4.7276 4.91016,-6.2383c0.47074,-0.2979 0.97444,-0.5687 1.51274,-0.8067c0.1652,-0.2041 0.2214,-0.48679 0.1171,-0.74801c-0.1537,-0.38445 -0.5901,-0.5715 -0.9746,-0.41797c-3.53752,1.41498 -5.66659,4.22488 -6.70114,6.90238c-0.51287,-1.1597 -0.74545,-2.4792 -0.70801,-3.7901c0.06745,-2.3591 1.0109,-4.82388 2.94922,-6.48533l0.37012,-0.29883c1.89799,-1.44071 4.51501,-2.14068 6.96481,-2.43945z" fill="#002B51"/>
</svg>
