<svg width="24" height="24" viewBox="0 0 24 24" fill="none" xmlns="http://www.w3.org/2000/svg">
<path d="M13.347,3.19257c2.3033,-0.28086 4.5603,-0.21871 6.1416,-0.02344l0.6348,0.09082l0.1152,0.0293c0.2598,0.0871 0.4549,0.31139 0.501,0.58789c0.2713,1.62858 0.1308,4.11403 -0.5156,6.50586c-0.6434,2.3806 -1.8314,4.8299 -3.7881,6.2275c-3.5795,2.5567 -8.10076,2.6499 -10.35936,2.1739c-0.22097,0.804 -0.32617,1.5633 -0.32617,2.2158c-0.00009,0.414 -0.33603,0.7498 -0.75,0.75c-0.41416,0 -0.74991,-0.3359 -0.75,-0.75c0,-1.0142 0.20818,-2.2331 0.65918,-3.4942c0.67627,-2.2192 2.22728,-4.7175 4.90234,-6.2265c0.47211,-0.2991 0.97751,-0.5708 1.51761,-0.8096c0.1652,-0.2042 0.2214,-0.48683 0.1172,-0.74804c-0.1538,-0.38444 -0.5902,-0.5715 -0.9747,-0.41797c-3.53751,1.41501 -5.66657,4.22491 -6.70113,6.90231c-0.5129,-1.1597 -0.74545,-2.4791 -0.708,-3.79c0.06742,-2.3591 1.01086,-4.82387 2.94921,-6.48535c1.91815,-1.64413 4.72152,-2.41956 7.33492,-2.73828z" fill="#002B51"/>
</svg>
