<svg width="24" height="24" viewBox="0 0 24 24" fill="none" xmlns="http://www.w3.org/2000/svg">
<path d="M6.80469,12.75c0.329,2.299 2.14626,4.1164 4.44531,4.4453v4.5225c-0.6577,-0.0501 -1.29644,-0.1678 -1.91113,-0.3418c-0.85777,0.849 -2.03655,1.374 -3.33887,1.374c-2.62335,0 -4.75,-2.1266 -4.75,-4.75c0,-1.302 0.52361,-2.4819 1.37207,-3.3398c-0.17383,-0.6143 -0.2908,-1.2529 -0.34082,-1.9102zM21.7178,12.75c-0.05,0.6571 -0.1681,1.2951 -0.3418,1.9092c0.8494,0.858 1.374,2.038 1.374,3.3408c0,2.6234 -2.1266,4.75 -4.75,4.75c-1.3028,0 -2.4828,-0.5246 -3.3408,-1.374c-0.6141,0.1737 -1.2521,0.2918 -1.9092,0.3418v-4.5225c2.299,-0.329 4.1163,-2.1463 4.4453,-4.4453zM3.24316,16.2812c-0.3123,0.4984 -0.49316,1.0872 -0.49316,1.7188c0,1.7949 1.45507,3.25 3.25,3.25c0.63151,0 1.21884,-0.1827 1.7168,-0.4951c-1.94337,-0.952 -3.52193,-2.5302 -4.47364,-4.4737zM20.7549,16.2812c-0.9518,1.9438 -2.5299,3.5219 -4.4737,4.4737c0.4984,0.3128 1.0867,0.4951 1.7188,0.4951c1.7949,0 3.25,-1.4551 3.25,-3.25c0,-0.6321 -0.1823,-1.2204 -0.4951,-1.7188zM6,1.25c1.30155,0 2.48013,0.52402 3.33789,1.37207c0.61488,-0.17411 1.25421,-0.29075 1.91211,-0.34082v4.52246c-2.29917,0.32891 -4.11636,2.14714 -4.44531,4.44629h-4.52344c0.05007,-0.6579 0.16671,-1.29723 0.34082,-1.91211c-0.84805,-0.85776 -1.37207,-2.03634 -1.37207,-3.33789c0,-2.62335 2.12665,-4.75 4.75,-4.75zM18,1.25c2.6234,0 4.75,2.12665 4.75,4.75c0,1.30232 -0.525,2.4811 -1.374,3.33887c0.174,0.61469 0.2917,1.25343 0.3418,1.91113h-4.5225c-0.3289,-2.29912 -2.1462,-4.11734 -4.4453,-4.44629v-4.52246c0.6573,0.05002 1.2959,0.16699 1.9102,0.34082c0.8579,-0.84846 2.0378,-1.37207 3.3398,-1.37207zM6,2.75c-1.79493,0 -3.25,1.45507 -3.25,3.25c0,0.6311 0.18121,1.2189 0.49316,1.7168c0.95186,-1.94312 2.53052,-3.52178 4.47364,-4.47364c-0.4979,-0.31195 -1.0857,-0.49316 -1.7168,-0.49316zM18,2.75c-0.6316,0 -1.2204,0.18086 -1.7188,0.49316c1.9435,0.95171 3.5217,2.53027 4.4737,4.47364c0.3124,-0.49796 0.4951,-1.08529 0.4951,-1.7168c0,-1.79493 -1.4551,-3.25 -3.25,-3.25z" fill="#002B51"/>
</svg>
