<svg width="24" height="24" viewBox="0 0 24 24" fill="none" xmlns="http://www.w3.org/2000/svg">
<path fill-rule="evenodd" clip-rule="evenodd" d="M7.71579,3.23927c-0.49795,-0.31012 -1.08592,-0.48927 -1.71573,-0.48927c-1.79492,0 -3.25,1.45507 -3.25,3.25c0,0.62981 0.17915,1.21778 0.48927,1.71573c0.95238,-1.94382 2.53264,-3.52408 4.47646,-4.47646zM2.61852,9.33582c-0.84618,-0.85771 -1.36846,-2.03577 -1.36846,-3.33582c0,-2.62335 2.12665,-4.75 4.75,-4.75c1.30005,0 2.47811,0.52228 3.33582,1.36846c0.84682,-0.24001 1.74052,-0.36846 2.66422,-0.36846c0.9237,0 1.8173,0.12845 2.6641,0.36845c0.8578,-0.84617 2.0358,-1.36845 3.3359,-1.36845c2.6233,0 4.75,2.12665 4.75,4.75c0,1.30005 -0.5223,2.47811 -1.3685,3.33581c0.24,0.84679 0.3685,1.74049 0.3685,2.66419c0,0.9237 -0.1285,1.8174 -0.3685,2.6642c0.8462,0.8577 1.3685,2.0358 1.3685,3.3358c0,2.6234 -2.1267,4.75 -4.75,4.75c-1.3001,0 -2.4781,-0.5223 -3.3359,-1.3685c-0.8468,0.2401 -1.7404,0.3685 -2.6641,0.3685c-0.9237,0 -1.8174,-0.1284 -2.66422,-0.3685c-0.85771,0.8462 -2.03577,1.3685 -3.33582,1.3685c-2.62335,0 -4.75,-2.1266 -4.75,-4.75c0,-1.3 0.52228,-2.4781 1.36846,-3.3358c-0.24001,-0.8468 -0.36846,-1.7405 -0.36846,-2.6642c0,-0.9237 0.12845,-1.8174 0.36846,-2.66418zM3.23933,16.2843c-0.31012,0.4979 -0.48927,1.0859 -0.48927,1.7157c0,1.7949 1.45508,3.25 3.25,3.25c0.62981,0 1.21779,-0.1791 1.71573,-0.4893c-1.94381,-0.9523 -3.52408,-2.5326 -4.47646,-4.4764zM16.2843,20.7607c0.498,0.3102 1.0859,0.4893 1.7158,0.4893c1.7949,0 3.25,-1.4551 3.25,-3.25c0,-0.6298 -0.1792,-1.2178 -0.4893,-1.7157c-0.9524,1.9438 -2.5327,3.5241 -4.4765,4.4764zM20.7608,7.71573c0.3101,-0.49795 0.4893,-1.08592 0.4893,-1.71573c0,-1.79493 -1.4551,-3.25 -3.25,-3.25c-0.6299,0 -1.2178,0.17915 -1.7158,0.48927c1.9438,0.95238 3.5241,2.53264 4.4765,4.47646zM17.7016,11.25h2.5148c-0.3566,-3.95785 -3.5085,-7.10971 -7.4663,-7.46637v2.51484c2.5758,0.33553 4.616,2.37574 4.9515,4.95153zM12.7501,17.7015v2.5149c3.9578,-0.3567 7.1097,-3.5085 7.4663,-7.4664h-2.5148c-0.3355,2.5758 -2.3757,4.616 -4.9515,4.9515zM6.29853,12.75h-2.51484c0.35666,3.9579 3.50852,7.1097 7.46641,7.4664v-2.5149c-2.57583,-0.3355 -4.61604,-2.3757 -4.95157,-4.9515zM11.2501,3.78363c-3.95789,0.35666 -7.10975,3.50852 -7.46641,7.46637h2.51484c0.33553,-2.57579 2.37574,-4.616 4.95157,-4.95153zM12.0001,16.25c2.3472,0 4.25,-1.9028 4.25,-4.25c0,-2.34721 -1.9028,-4.25 -4.25,-4.25c-2.34725,0 -4.25004,1.90279 -4.25004,4.25c0,2.3472 1.90279,4.25 4.25004,4.25z" fill="#002B51"/>
</svg>
