<svg width="24" height="24" viewBox="0 0 24 24" fill="none" xmlns="http://www.w3.org/2000/svg">
<path fill-rule="evenodd" clip-rule="evenodd" d="M3.23927,7.71573c0.95238,-1.94382 2.53264,-3.52408 4.47646,-4.47646c-0.49795,-0.31012 -1.08592,-0.48927 -1.71573,-0.48927c-1.79493,0 -3.25,1.45507 -3.25,3.25c0,0.62981 0.17915,1.21778 0.48927,1.71573zM2.61845,9.33582c-0.84617,-0.85771 -1.36845,-2.03577 -1.36845,-3.33582c0,-2.62335 2.12665,-4.75 4.75,-4.75c1.30005,0 2.47811,0.52228 3.33582,1.36845c0.61545,-0.17443 1.25568,-0.28994 1.91418,-0.34003v4.52472c-2.29927,0.32889 -4.11796,2.14758 -4.44683,4.44686h-4.52475c0.05009,-0.6585 0.1656,-1.29873 0.34003,-1.91418zM21.7216,11.25h-4.5248c-0.3288,-2.29928 -2.1475,-4.11798 -4.4468,-4.44686v-4.52472c0.6585,0.05009 1.2987,0.1656 1.9142,0.34003c0.8577,-0.84617 2.0358,-1.36845 3.3358,-1.36845c2.6234,0 4.75,2.12665 4.75,4.75c0,1.30005 -0.5223,2.47811 -1.3685,3.33582c0.1745,0.61545 0.29,1.25568 0.3401,1.91418zM20.7607,7.71573c0.3101,-0.49794 0.4893,-1.08592 0.4893,-1.71573c0,-1.79493 -1.4551,-3.25 -3.25,-3.25c-0.6298,0 -1.2178,0.17915 -1.7157,0.48927c1.9438,0.95238 3.524,2.53265 4.4764,4.47646zM14.6642,21.3815c-0.6155,0.1745 -1.2557,0.29 -1.9142,0.3401v-4.5248c2.2993,-0.3289 4.1179,-2.1475 4.4468,-4.4468h4.5248c-0.0501,0.6585 -0.1656,1.2987 -0.3401,1.9142c0.8462,0.8577 1.3685,2.0358 1.3685,3.3358c0,2.6234 -2.1266,4.75 -4.75,4.75c-1.3,0 -2.4781,-0.5223 -3.3358,-1.3685zM16.2843,20.7607c0.4979,0.3101 1.0859,0.4893 1.7157,0.4893c1.7949,0 3.25,-1.4551 3.25,-3.25c0,-0.6298 -0.1792,-1.2178 -0.4893,-1.7157c-0.9524,1.9438 -2.5326,3.524 -4.4764,4.4764zM3.23927,16.2843c-0.31012,0.4979 -0.48927,1.0859 -0.48927,1.7157c0,1.7949 1.45507,3.25 3.25,3.25c0.62981,0 1.21779,-0.1792 1.71573,-0.4893c-1.94381,-0.9524 -3.52408,-2.5326 -4.47646,-4.4764zM2.27842,12.75h4.52476c0.32889,2.2993 2.14756,4.1179 4.44682,4.4468v4.5248c-0.6585,-0.0501 -1.29873,-0.1656 -1.91418,-0.3401c-0.85771,0.8462 -2.03577,1.3685 -3.33582,1.3685c-2.62335,0 -4.75,-2.1266 -4.75,-4.75c0,-1.3 0.52228,-2.4781 1.36845,-3.3358c-0.17443,-0.6155 -0.28994,-1.2557 -0.34003,-1.9142z" fill="#002B51"/>
</svg>
