<svg width="24" height="24" viewBox="0 0 24 24" fill="none" xmlns="http://www.w3.org/2000/svg">
<path d="M18.0001,1.25c2.6233,0 4.75,2.12665 4.75,4.75c0,1.30108 -0.5245,2.47837 -1.3721,3.33594c0.2402,0.84706 0.3721,1.74006 0.3721,2.66406c0,0.9232 -0.1314,1.8157 -0.3711,2.6621c0.8477,0.8578 1.3711,2.0366 1.3711,3.3379c0,2.6234 -2.1267,4.75 -4.75,4.75c-1.3013,0 -2.4802,-0.5234 -3.3379,-1.3711c-0.8465,0.2398 -1.7389,0.3711 -2.6621,0.3711c-0.924,0 -1.8171,-0.1319 -2.6641,-0.3721c-0.85757,0.8476 -2.03486,1.3721 -3.33594,1.3721c-2.62335,0 -4.75,-2.1266 -4.75,-4.75c0,-1.301 0.5228,-2.4801 1.37012,-3.3379c-0.23974,-0.8464 -0.37012,-1.7389 -0.37012,-2.6621c0,-0.9239 0.13098,-1.8171 0.37109,-2.66406c-0.84719,-0.85763 -1.37109,-2.03514 -1.37109,-3.33594c0,-2.62335 2.12665,-4.75 4.75,-4.75c1.3008,0 2.47831,0.5239 3.33594,1.37109c0.847,-0.24011 1.7402,-0.37109 2.6641,-0.37109c0.9231,0 1.8157,0.13038 2.6621,0.37012c0.8578,-0.84732 2.0369,-1.37012 3.3379,-1.37012zM3.24127,16.2842c-0.31115,0.4977 -0.49121,1.0854 -0.49121,1.7158c0,1.7949 1.45508,3.25 3.25,3.25c0.62996,0 1.21572,-0.1821 1.71289,-0.4932c-1.94183,-0.9524 -3.51989,-2.5304 -4.47168,-4.4726zM20.7579,16.2852c-0.9522,1.9423 -2.5303,3.5204 -4.4727,4.4726c0.4975,0.3112 1.0845,0.4922 1.7149,0.4922c1.7949,0 3.25,-1.4551 3.25,-3.25c0,-0.6303 -0.181,-1.2173 -0.4922,-1.7148zM3.78619,12.75c0.35676,3.9577 3.5062,7.1071 7.46391,7.4639v-2.5147c-2.57564,-0.3356 -4.61465,-2.3736 -4.95023,-4.9492zM17.7003,12.75c-0.3356,2.5756 -2.3746,4.6136 -4.9502,4.9492v2.5147c3.9576,-0.3568 7.1071,-3.5062 7.4638,-7.4639zM12.0001,7.75c-2.34725,0 -4.25004,1.90279 -4.25004,4.25c0,2.3472 1.90279,4.25 4.25004,4.25c2.3472,0 4.25,-1.9028 4.25,-4.25c0,-2.34721 -1.9028,-4.25 -4.25,-4.25zM11.2501,3.78516c-3.95775,0.35671 -7.10715,3.50714 -7.46391,7.46484h2.51368c0.33559,-2.57566 2.37454,-4.61461 4.95023,-4.9502zM12.7501,6.2998c2.5756,0.33559 4.6146,2.37454 4.9502,4.9502h2.5136c-0.3567,-3.9577 -3.5061,-7.10813 -7.4638,-7.46484zM6.00006,2.75c-1.79492,0 -3.25,1.45507 -3.25,3.25c0,0.62984 0.18041,1.21661 0.49121,1.71387c0.95213,-1.94203 2.53063,-3.52053 4.47266,-4.47266c-0.49726,-0.3108 -1.08403,-0.49121 -1.71387,-0.49121zM18.0001,2.75c-0.6304,0 -1.2182,0.18006 -1.7159,0.49121c1.9423,0.95179 3.5202,2.52984 4.4727,4.47168c0.311,-0.49718 0.4932,-1.08293 0.4932,-1.71289c0,-1.79493 -1.4551,-3.25 -3.25,-3.25z" fill="#002B51"/>
</svg>
