<svg width="24" height="24" viewBox="0 0 24 24" fill="none" xmlns="http://www.w3.org/2000/svg">
<path d="M11.6659,2.3282c0.2451,-0.12194 0.5416,-0.10114 0.7696,0.06152l3.5,2.5c0.2652,0.18946 0.3776,0.52845 0.2783,0.83887c-0.0729,0.22743 -0.2476,0.39984 -0.4639,0.47656v3.58984c0.2909,0.10316 0.5,0.37881 0.5,0.70511c0,0.4142 -0.3358,0.75 -0.75,0.75h-0.1748l0.1592,1.6787l0.3808,4l0.3174,3.3213h0.8174c0.4142,0 0.75,0.3358 0.75,0.75c0,0.4142 -0.3358,0.75 -0.75,0.75h-9.99999c-0.41417,-0.0001 -0.75,-0.3359 -0.75,-0.75c0,-0.4142 0.33583,-0.75 0.75,-0.75h0.81836l0.07812,-0.8213l0.42871,-4.5l0.34961,-3.6787h-0.1748c-0.41417,-0.0001 -0.75,-0.3359 -0.75,-0.75c0,-0.3263 0.20912,-0.60192 0.5,-0.70511v-3.58984c-0.21621,-0.07674 -0.39099,-0.24915 -0.46387,-0.47656c-0.09934,-0.31039 0.01314,-0.64941 0.27832,-0.83887l3.50004,-2.5zM9.34561,20.0313l-0.02051,0.2188h5.3496l-0.2099,-2.1953zM9.77237,15.5469l-0.26856,2.8165l4.81349,-1.8584l-0.2354,-2.4786zM9.9296,13.9014l4.0059,-1.414l-0.1182,-1.2373h-3.6348zM5.46964,9.4698c0.29287,-0.29288 0.76764,-0.29283 1.06054,0c0.2929,0.29289 0.2929,0.7677 0,1.0605l-1,1c-0.2929,0.2929 -0.76767,0.2929 -1.06054,0c-0.29282,-0.2928 -0.29282,-0.7676 0,-1.0605zM17.4696,9.4698c0.2929,-0.29288 0.7677,-0.29283 1.0606,0l1,1c0.2929,0.2929 0.2929,0.7677 0,1.0605c-0.2929,0.2929 -0.7677,0.2929 -1.0606,0l-1,-1c-0.2928,-0.2928 -0.2928,-0.76763 0,-1.0605zM9.74991,9.75007h1.49999v-3.5h-1.49999zM12.7499,9.75007h1.5v-3.5h-1.5zM4.49991,7.25007c0.41421,0 0.75,0.33579 0.75,0.75c0,0.41421 -0.33579,0.75 -0.75,0.75h-1.5c-0.41416,-0.00007 -0.75,-0.33583 -0.75,-0.75c0,-0.41417 0.33584,-0.74993 0.75,-0.75zM20.9999,7.25007c0.4142,0 0.75,0.33579 0.75,0.75c0,0.41421 -0.3358,0.75 -0.75,0.75h-1.5c-0.4141,-0.00007 -0.75,-0.33583 -0.75,-0.75c0,-0.41417 0.3359,-0.74993 0.75,-0.75zM4.46964,4.4698c0.27458,-0.27458 0.70932,-0.29201 1.0039,-0.05176l0.05664,0.05176l1,1l0.05176,0.05664c0.24031,0.29458 0.22285,0.7293 -0.05176,1.0039c-0.27461,0.27455 -0.70934,0.29205 -1.0039,0.05176l-0.05664,-0.05176l-1,-1l-0.05176,-0.05664c-0.24024,-0.29455 -0.22277,-0.72931 0.05176,-1.0039zM18.5263,4.41804c0.2945,-0.24029 0.7293,-0.22279 1.0039,0.05176c0.2746,0.2746 0.292,0.70932 0.0517,1.0039l-0.0517,0.05664l-1,1l-0.0567,0.05176c-0.2945,0.24025 -0.7293,0.22282 -1.0039,-0.05176c-0.2745,-0.27458 -0.292,-0.70934 -0.0517,-1.0039l0.0517,-0.05664l1,-1zM10.8398,4.75007h2.3203l-1.1602,-0.8291z" fill="#002B51"/>
</svg>
