<svg width="24" height="24" viewBox="0 0 24 24" fill="none" xmlns="http://www.w3.org/2000/svg">
<path fill-rule="evenodd" clip-rule="evenodd" d="M12,1.24933c0.4142,0 0.75,0.33579 0.75,0.75v1c0,0.41421 -0.3358,0.75 -0.75,0.75c-0.4142,0 -0.75,-0.33579 -0.75,-0.75v-1c0,-0.41421 0.3358,-0.75 0.75,-0.75zM18.8936,6.16548c-0.2929,0.29289 -0.7677,0.29289 -1.0606,0c-0.2929,-0.29289 -0.2929,-0.76776 -0.0001,-1.06066l0.7071,-0.70711c0.2929,-0.29289 0.7678,-0.2929 1.0607,0c0.2929,0.29289 0.2929,0.76776 0,1.06066zM21.25,11.2492c0.4142,0 0.75,0.3358 0.75,0.75c0,0.4142 -0.3358,0.75 -0.75,0.75h-1c-0.4142,0 -0.75,-0.3358 -0.75,-0.75c0,-0.4142 0.3358,-0.75 0.75,-0.75zM6.16713,5.10567c0.29289,0.2929 0.29289,0.76777 0,1.06066c-0.2929,0.2929 -0.76777,0.2929 -1.06066,0l-0.70711,-0.70711c-0.2929,-0.29289 -0.2929,-0.76776 0,-1.06066c0.29289,-0.29289 0.76776,-0.29289 1.06066,0zM2,11.9992c0,-0.4142 0.33579,-0.75 0.75,-0.75h1c0.41421,0 0.75,0.3358 0.75,0.75c0,0.4142 -0.33579,0.75 -0.75,0.75h-1c-0.41421,0 -0.75,-0.3358 -0.75,-0.75zM8.9514,15.2748c0.45453,0.3248 0.7986,0.8624 0.7986,1.4994v1.2259c0,0.138 0.11193,0.25 0.25,0.25h1.2927c-0.0277,-0.0782 -0.0427,-0.1624 -0.0427,-0.25v-2.6894l-1.78033,-1.7803c-0.29289,-0.2929 -0.29289,-0.7678 0,-1.0607c0.29289,-0.2929 0.76773,-0.2929 1.06063,0l1.4697,1.4697l1.4697,-1.4697c0.2929,-0.2929 0.7677,-0.2929 1.0606,0c0.2929,0.2929 0.2929,0.7678 0,1.0607l-1.7803,1.7803v2.6894c0,0.0876 -0.015,0.1718 -0.0427,0.25h1.2927c0.1381,0 0.25,-0.112 0.25,-0.25v-1.2259c0,-0.637 0.3441,-1.1746 0.7986,-1.4994c1.3342,-0.9534 2.2014,-2.5128 2.2014,-4.2747c0,-2.89953 -2.3505,-5.25004 -5.25,-5.25004c-2.89949,0 -5.25,2.35051 -5.25,5.25004c0,1.7619 0.86721,3.3213 2.2014,4.2747zM18.75,11.0001c0,2.2666 -1.118,4.2722 -2.8293,5.4951c-0.1263,0.0903 -0.1707,0.202 -0.1707,0.279v1.2259c0,0.9665 -0.7835,1.75 -1.75,1.75h-4c-0.9665,0 -1.75,-0.7835 -1.75,-1.75v-1.2259c0,-0.077 -0.04439,-0.1887 -0.17073,-0.279c-1.71129,-1.2229 -2.82927,-3.2285 -2.82927,-5.4951c0,-3.72796 3.02208,-6.75004 6.75,-6.75004c3.7279,0 6.75,3.02208 6.75,6.75004zM14,20.2501c0.4142,0 0.75,0.3357 0.75,0.75c0,0.4142 -0.3358,0.75 -0.75,0.75h-4c-0.41421,0 -0.75,-0.3358 -0.75,-0.75c0,-0.4143 0.33579,-0.75 0.75,-0.75z" fill="#002B51"/>
</svg>
