<svg width="24" height="24" viewBox="0 0 24 24" fill="none" xmlns="http://www.w3.org/2000/svg">
<path fill-rule="evenodd" clip-rule="evenodd" d="M11.6659,2.32822c0.2451,-0.12196 0.5415,-0.10119 0.7695,0.06152l3.5,2.5c0.2653,0.18946 0.3777,0.52845 0.2783,0.83887c-0.0728,0.22745 -0.2476,0.39983 -0.4638,0.47656v3.58984c0.2909,0.10316 0.5,0.37879 0.5,0.70509c0,0.4142 -0.3358,0.75 -0.75,0.75h-0.1748l0.1592,1.6787l0.3808,4l0.3174,3.3213h0.8174c0.4142,0 0.75,0.3358 0.75,0.75c0,0.4142 -0.3358,0.75 -0.75,0.75h-10.00002c-0.41422,0 -0.75,-0.3358 -0.75,-0.75c0,-0.4142 0.33578,-0.75 0.75,-0.75h0.81836l0.07812,-0.8213l0.42871,-4.5l0.34961,-3.6787h-0.1748c-0.41422,0 -0.75,-0.3358 -0.75,-0.75c0,-0.3263 0.20907,-0.60193 0.5,-0.70509v-3.58984c-0.21626,-0.07673 -0.39098,-0.24911 -0.46387,-0.47656c-0.09937,-0.31042 0.01308,-0.64941 0.27832,-0.83887l3.49997,-2.5zM9.34558,20.0313l-0.02051,0.2188h5.34963l-0.21,-2.1953zM9.77234,15.547l-0.26856,2.8164l4.81352,-1.8584l-0.2354,-2.4785zM9.92957,13.9015l4.00583,-1.4141l-0.1181,-1.2373h-3.6348zM12.7499,9.75009h1.5v-3.5h-1.5zM9.74988,9.75009h1.50002v-3.5h-1.50002zM10.8397,4.75009h2.3203l-1.1601,-0.8291zM5.46962,9.46982c0.2929,-0.2929 0.76766,-0.2929 1.06055,0c0.29289,0.29289 0.29289,0.76768 0,1.06058l-1,1c-0.29289,0.2929 -0.76765,0.2929 -1.06055,0c-0.29289,-0.2929 -0.29289,-0.7677 0,-1.0606zM4.4999,7.25009c0.41421,0 0.75,0.33579 0.75,0.75c0,0.41421 -0.33579,0.75 -0.75,0.75h-1.5c-0.41422,0 -0.75,-0.33579 -0.75,-0.75c0,-0.41421 0.33578,-0.75 0.75,-0.75zM4.46962,4.46982c0.27461,-0.27461 0.70933,-0.29207 1.00391,-0.05176l0.05664,0.05176l1,1l0.05176,0.05664c0.24031,0.29458 0.22284,0.7293 -0.05176,1.0039c-0.2746,0.27461 -0.70933,0.29207 -1.00391,0.05176l-0.05664,-0.05176l-1,-1l-0.05176,-0.05664c-0.2403,-0.29458 -0.22284,-0.7293 0.05176,-1.0039zM17.4696,9.46982c0.2929,-0.2929 0.7677,-0.2929 1.0606,0l1,0.99998c0.2929,0.2929 0.2929,0.7677 0,1.0606c-0.2929,0.2929 -0.7677,0.2929 -1.0606,0l-1,-1c-0.2929,-0.2929 -0.2929,-0.76769 0,-1.06058zM18.7499,8.00009c0,-0.41421 0.3358,-0.75 0.75,-0.75h1.5c0.4142,0 0.75,0.33579 0.75,0.75c0,0.41421 -0.3358,0.75 -0.75,0.75h-1.5c-0.4142,0 -0.75,-0.33579 -0.75,-0.75zM18.5263,4.41806c0.2945,-0.24031 0.7293,-0.22285 1.0039,0.05176c0.2746,0.2746 0.292,0.70932 0.0517,1.0039l-0.0517,0.05664l-1,1l-0.0567,0.05176c-0.2946,0.24031 -0.7293,0.22285 -1.0039,-0.05176c-0.2746,-0.2746 -0.292,-0.70932 -0.0517,-1.0039l0.0517,-0.05664l1,-1z" fill="#002B51"/>
</svg>
