<svg width="24" height="24" viewBox="0 0 24 24" fill="none" xmlns="http://www.w3.org/2000/svg">
<path fill-rule="evenodd" clip-rule="evenodd" d="M11.6659,2.32822c0.2451,-0.12196 0.5415,-0.10119 0.7695,0.06152l3.5,2.5c0.2652,0.18946 0.3777,0.52845 0.2783,0.83887c-0.0729,0.22745 -0.2476,0.39983 -0.4638,0.47656v3.58984c0.2909,0.10316 0.5,0.37879 0.5,0.70509c0,0.4142 -0.3358,0.75 -0.75,0.75h-0.1748l0.1591,1.6787l0.3809,4l0.3174,3.3213h0.8174c0.4142,0 0.75,0.3358 0.75,0.75c0,0.4142 -0.3358,0.75 -0.75,0.75h-10.00004c-0.41421,0 -0.75,-0.3358 -0.75,-0.75c0,-0.4142 0.33579,-0.75 0.75,-0.75h0.81836l0.07812,-0.8213l0.42872,-4.5l0.3496,-3.6787h-0.1748c-0.41421,0 -0.75,-0.3358 -0.75,-0.75c0,-0.3263 0.20907,-0.60193 0.5,-0.70509v-3.58984c-0.21626,-0.07673 -0.39098,-0.24911 -0.46387,-0.47656c-0.09937,-0.31042 0.01308,-0.64941 0.27832,-0.83887l3.49999,-2.5zM9.34556,20.0313l-0.0205,0.2188h5.34964l-0.21,-2.1953zM9.92955,13.9015l4.00585,-1.4141l-0.1182,-1.2373h-3.6347zM12.7499,9.75009h1.5v-3.5h-1.5zM9.74986,9.75009h1.50004v-3.5h-1.50004zM5.4696,9.46982c0.2929,-0.2929 0.76766,-0.2929 1.06055,0c0.29289,0.29289 0.29289,0.76768 0,1.06058l-1,1c-0.29289,0.2929 -0.76765,0.2929 -1.06055,0c-0.29289,-0.2929 -0.29289,-0.7677 0,-1.0606zM4.49988,7.25009c0.41421,0 0.75,0.33579 0.75,0.75c0,0.41421 -0.33579,0.75 -0.75,0.75h-1.5c-0.41422,0 -0.75,-0.33579 -0.75,-0.75c0,-0.41421 0.33578,-0.75 0.75,-0.75zM4.4696,4.46982c0.27461,-0.27461 0.70933,-0.29207 1.00391,-0.05176l0.05664,0.05176l1,1l0.05176,0.05664c0.24031,0.29458 0.22285,0.7293 -0.05176,1.0039c-0.2746,0.27461 -0.70932,0.29207 -1.0039,0.05176l-0.05665,-0.05176l-1,-1l-0.05175,-0.05664c-0.24031,-0.29458 -0.22285,-0.7293 0.05175,-1.0039zM17.4696,9.46982c0.2929,-0.2929 0.7677,-0.2929 1.0606,0l1,0.99998c0.2928,0.2929 0.2928,0.7677 0,1.0606c-0.2929,0.2929 -0.7677,0.2929 -1.0606,0l-1,-1c-0.2929,-0.2929 -0.2929,-0.76769 0,-1.06058zM18.7499,8.00009c0,-0.41421 0.3358,-0.75 0.75,-0.75h1.5c0.4142,0 0.75,0.33579 0.75,0.75c0,0.41421 -0.3358,0.75 -0.75,0.75h-1.5c-0.4142,0 -0.75,-0.33579 -0.75,-0.75zM18.5262,4.41806c0.2946,-0.24031 0.7293,-0.22285 1.004,0.05176c0.2746,0.2746 0.292,0.70932 0.0517,1.0039l-0.0517,0.05664l-1,1l-0.0567,0.05176c-0.2946,0.24031 -0.7293,0.22285 -1.0039,-0.05176c-0.2746,-0.2746 -0.2921,-0.70932 -0.0518,-1.0039l0.0518,-0.05664l1,-1z" fill="#002B51"/>
</svg>
