<svg width="24" height="24" viewBox="0 0 24 24" fill="none" xmlns="http://www.w3.org/2000/svg">
<path fill-rule="evenodd" clip-rule="evenodd" d="M11.5639,2.3897c0.2608,-0.18627 0.6111,-0.18627 0.8719,0l3.5,2.5c0.2653,0.1895 0.3778,0.5287 0.2783,0.83918c-0.073,0.22768 -0.2477,0.40167 -0.4642,0.47828v3.58552c0.2913,0.10296 0.5,0.38072 0.5,0.70732c0,0.4142 -0.3358,0.75 -0.75,0.75h-0.1752l0.1599,1.6789l0.3809,4l0.3163,3.3211h0.8181c0.4142,0 0.75,0.3358 0.75,0.75c0,0.4142 -0.3358,0.75 -0.75,0.75h-1.5h-7.00004h-1.5c-0.41421,0 -0.75,-0.3358 -0.75,-0.75c0,-0.4142 0.33579,-0.75 0.75,-0.75h0.81804l0.0782,-0.8211l0.42857,-4.5l0.35037,-3.6789h-0.17518c-0.41421,0 -0.75,-0.3358 -0.75,-0.75c0,-0.3266 0.2087,-0.60436 0.5,-0.70732v-3.58552c-0.21656,-0.07661 -0.39126,-0.2506 -0.46422,-0.47828c-0.0995,-0.31048 0.01299,-0.64968 0.27829,-0.83918zM9.74986,9.75h1.50004v-3.5h-1.50004zM12.7499,9.75h1.5v-3.5h-1.5zM13.8179,11.25h-1.818h-1.8181l-0.25253,2.6518l4.00653,-1.414zM14.4661,18.056l-5.12072,1.9767l-0.0207,0.2173h5.35032zM4.46955,4.46967c0.29289,-0.29289 0.76776,-0.29289 1.06066,0l1,1c0.29289,0.29289 0.29289,0.76777 0,1.06066c-0.2929,0.29289 -0.76777,0.29289 -1.06066,0l-1,-1c-0.2929,-0.29289 -0.2929,-0.76777 0,-1.06066zM2.24988,8c0,-0.41421 0.33578,-0.75 0.75,-0.75h1.5c0.41421,0 0.75,0.33579 0.75,0.75c0,0.41421 -0.33579,0.75 -0.75,0.75h-1.5c-0.41422,0 -0.75,-0.33579 -0.75,-0.75zM6.53021,9.46967c0.29289,0.29289 0.29289,0.76773 0,1.06063l-1,1c-0.2929,0.2929 -0.76777,0.2929 -1.06066,0c-0.2929,-0.2929 -0.2929,-0.7677 0,-1.0606l1,-1.00003c0.29289,-0.29289 0.76776,-0.29289 1.06066,0zM18.4695,4.46967c0.2929,-0.29289 0.7678,-0.29289 1.0607,0c0.2929,0.29289 0.2929,0.76777 0,1.06066l-1,1c-0.2929,0.29289 -0.7678,0.29289 -1.0607,0c-0.2928,-0.29289 -0.2928,-0.76777 0,-1.06066zM20.9999,7.25c0.4142,0 0.75,0.33579 0.75,0.75c0,0.41421 -0.3358,0.75 -0.75,0.75h-1.5c-0.4142,0 -0.75,-0.33579 -0.75,-0.75c0,-0.41421 0.3358,-0.75 0.75,-0.75zM17.4695,10.5303c-0.2928,-0.2929 -0.2928,-0.76774 0,-1.06063c0.2929,-0.29289 0.7678,-0.29289 1.0607,0l1,1.00003c0.2929,0.2929 0.2929,0.7677 0,1.0606c-0.2929,0.2929 -0.7678,0.2929 -1.0607,0z" fill="#002B51"/>
</svg>
