<svg width="24" height="24" viewBox="0 0 24 24" fill="none" xmlns="http://www.w3.org/2000/svg">
<path d="M14,20.2503c0.4142,0 0.75,0.3358 0.75,0.75c-0.0001,0.4141 -0.3359,0.75 -0.75,0.75h-4c-0.41413,0 -0.74987,-0.3359 -0.75,-0.75c0,-0.4142 0.33579,-0.75 0.75,-0.75zM12,4.25031c3.7279,0 6.75,3.02207 6.75,6.74999c-0.0001,2.2665 -1.1185,4.2706 -2.8291,5.4932c-0.1261,0.0902 -0.1709,0.2023 -0.1709,0.2793v1.2275c-0.0001,0.9664 -0.7836,1.75 -1.75,1.75h-4c-0.96642,0 -1.74987,-0.7836 -1.75,-1.75v-1.2275c0,-0.077 -0.04476,-0.1891 -0.1709,-0.2793c-1.71058,-1.2226 -2.82902,-3.2267 -2.8291,-5.4932c0,-3.72792 3.02208,-6.74999 6.75,-6.74999zM12,5.75031c-2.8995,0 -5.25,2.3505 -5.25,5.24999c0.00008,1.761 0.86727,3.319 2.20117,4.2725c0.45447,0.3248 0.79883,0.8632 0.79883,1.5v1.2275c0.00013,0.138 0.11201,0.25 0.25,0.25h1.2959c-0.0279,-0.0785 -0.0459,-0.162 -0.0459,-0.25v-2.6894l-1.78027,-1.7803c-0.29286,-0.2929 -0.29277,-0.7677 0,-1.0606c0.29289,-0.2929 0.76767,-0.2929 1.06057,0l1.4697,1.4698l1.4697,-1.4698c0.2929,-0.2929 0.7677,-0.2929 1.0606,0c0.2927,0.2929 0.2928,0.7677 0,1.0606l-1.7803,1.7803v2.6894c0,0.088 -0.018,0.1715 -0.0459,0.25h1.2959c0.138,0 0.2499,-0.112 0.25,-0.25v-1.2275c0,-0.6368 0.3444,-1.1752 0.7988,-1.5c1.3339,-0.9535 2.2011,-2.5115 2.2012,-4.2725c0,-2.89949 -2.3505,-5.24999 -5.25,-5.24999zM3.75,11.2493c0.41421,0 0.75,0.3358 0.75,0.75c-0.00007,0.4142 -0.33583,0.75 -0.75,0.75h-1c-0.41417,0 -0.74993,-0.3358 -0.75,-0.75c0,-0.4142 0.33579,-0.75 0.75,-0.75zM21.25,11.2493c0.4142,0 0.75,0.3358 0.75,0.75c-0.0001,0.4142 -0.3358,0.75 -0.75,0.75h-1c-0.4142,0 -0.7499,-0.3358 -0.75,-0.75c0,-0.4142 0.3358,-0.75 0.75,-0.75zM4.39941,4.39874c0.27461,-0.2746 0.70933,-0.29206 1.00391,-0.05176l0.05664,0.05176l0.70703,0.70703l0.05176,0.05664c0.24032,0.29459 0.22285,0.7293 -0.05176,1.00391c-0.27461,0.27455 -0.70934,0.29207 -1.0039,0.05176l-0.05664,-0.05176l-0.70704,-0.70703l-0.05175,-0.05664c-0.24029,-0.29456 -0.22279,-0.7293 0.05175,-1.00391zM18.5967,4.34601c0.2945,-0.24034 0.7293,-0.22283 1.0039,0.05176c0.2746,0.27461 0.2921,0.70932 0.0517,1.0039l-0.0517,0.05664l-0.707,0.70703c-0.2929,0.2929 -0.7677,0.2929 -1.0606,0c-0.2928,-0.29289 -0.2929,-0.76766 0,-1.06054l0.707,-0.70703zM12,1.24933c0.4142,0 0.75,0.33579 0.75,0.75v1c0,0.41421 -0.3358,0.75 -0.75,0.75c-0.4142,0 -0.75,-0.33579 -0.75,-0.75v-1c0,-0.41421 0.3358,-0.75 0.75,-0.75z" fill="#002B51"/>
</svg>
