<svg width="24" height="24" viewBox="0 0 24 24" fill="none" xmlns="http://www.w3.org/2000/svg">
<path d="M14,20.2503c0.4142,0 0.75,0.3358 0.75,0.75c-0.0001,0.4141 -0.3359,0.75 -0.75,0.75h-4c-0.41413,0 -0.74987,-0.3359 -0.75,-0.75c0,-0.4142 0.33579,-0.75 0.75,-0.75zM12,4.25031c3.7279,0 6.75,3.02207 6.75,6.74999c-0.0001,2.1249 -0.9832,4.0191 -2.5156,5.2549l-0.3135,0.2383c-0.1261,0.0902 -0.1709,0.2023 -0.1709,0.2793v1.2275c-0.0001,0.9664 -0.7836,1.75 -1.75,1.75h-4c-0.96642,0 -1.74987,-0.7836 -1.75,-1.75v-1.2275c0,-0.0577 -0.02531,-0.1351 -0.09082,-0.208l-0.08008,-0.0713c-1.71058,-1.2226 -2.82902,-3.2267 -2.8291,-5.4932c0,-3.72792 3.02208,-6.74999 6.75,-6.74999zM14.5303,12.47c-0.2746,-0.2746 -0.7094,-0.292 -1.0039,-0.0517l-0.0567,0.0517l-1.4697,1.4698l-1.4697,-1.4698l-0.0567,-0.0517c-0.2945,-0.2403 -0.72927,-0.2229 -1.00387,0.0517c-0.27449,0.2746 -0.29203,0.7094 -0.05176,1.0039l0.05176,0.0567l1.78027,1.7803v2.9394h1.5v-2.9394l1.7803,-1.7803l0.0517,-0.0567c0.2403,-0.2945 0.2228,-0.7293 -0.0517,-1.0039zM3.75,11.2493c0.41421,0 0.75,0.3358 0.75,0.75c-0.00007,0.4142 -0.33583,0.75 -0.75,0.75h-1c-0.41417,0 -0.74993,-0.3358 -0.75,-0.75c0,-0.4142 0.33579,-0.75 0.75,-0.75zM21.25,11.2493c0.4142,0 0.75,0.3358 0.75,0.75c-0.0001,0.4142 -0.3358,0.75 -0.75,0.75h-1c-0.4142,0 -0.7499,-0.3358 -0.75,-0.75c0,-0.4142 0.3358,-0.75 0.75,-0.75zM4.39941,4.39874c0.27461,-0.2746 0.70933,-0.29206 1.00391,-0.05176l0.05664,0.05176l0.70703,0.70703l0.05176,0.05664c0.24032,0.29459 0.22285,0.7293 -0.05176,1.00391c-0.27461,0.27455 -0.70934,0.29207 -1.0039,0.05176l-0.05664,-0.05176l-0.70704,-0.70703l-0.05175,-0.05664c-0.24029,-0.29456 -0.22279,-0.7293 0.05175,-1.00391zM18.5967,4.34601c0.2945,-0.24034 0.7293,-0.22283 1.0039,0.05176c0.2746,0.27461 0.2921,0.70932 0.0517,1.0039l-0.0517,0.05664l-0.707,0.70703c-0.2929,0.2929 -0.7677,0.2929 -1.0606,0c-0.2928,-0.29289 -0.2929,-0.76766 0,-1.06054l0.707,-0.70703zM12,1.24933c0.4142,0 0.75,0.33579 0.75,0.75v1c0,0.41421 -0.3358,0.75 -0.75,0.75c-0.4142,0 -0.75,-0.33579 -0.75,-0.75v-1c0,-0.41421 0.3358,-0.75 0.75,-0.75z" fill="#002B51"/>
</svg>
