<svg width="24" height="24" viewBox="0 0 24 24" fill="none" xmlns="http://www.w3.org/2000/svg">
<path d="M14,20.2503c0.4142,0 0.75,0.3358 0.75,0.75c-0.0001,0.4141 -0.3359,0.75 -0.75,0.75h-4c-0.41413,0 -0.74987,-0.3359 -0.75,-0.75c0,-0.4142 0.33579,-0.75 0.75,-0.75zM12,4.25031c3.7279,0 6.75,3.02207 6.75,6.74999c-0.0001,2.125 -0.9827,4.0206 -2.5156,5.2568l-0.3135,0.2383c-0.1262,0.0903 -0.1709,0.2023 -0.1709,0.2793v1.2256c-0.0001,0.9664 -0.7836,1.75 -1.75,1.75h-4c-0.96642,0 -1.74987,-0.7836 -1.75,-1.75v-1.2256c0,-0.077 -0.04465,-0.189 -0.1709,-0.2793c-1.71116,-1.2229 -2.82902,-3.2286 -2.8291,-5.4951c0,-3.72792 3.02208,-6.74999 6.75,-6.74999zM12,5.75031c-2.89949,0 -5.25,2.3505 -5.25,5.24999c0.00008,1.7617 0.86722,3.321 2.20117,4.2744c0.45447,0.3248 0.79883,0.8631 0.79883,1.5v1.2256c0.00013,0.138 0.11201,0.25 0.25,0.25h1.2959c-0.0279,-0.0785 -0.0459,-0.162 -0.0459,-0.25v-2.6894l-1.78027,-1.7803l-0.05176,-0.0567c-0.24027,-0.2945 -0.22273,-0.7293 0.05176,-1.0039c0.2746,-0.2746 0.70937,-0.292 1.00387,-0.0517l0.0567,0.0517l1.4697,1.4698l1.4697,-1.4698l0.0567,-0.0517c0.2945,-0.2403 0.7293,-0.2229 1.0039,0.0517c0.2745,0.2746 0.292,0.7094 0.0517,1.0039l-0.0517,0.0567l-1.7803,1.7803v2.6894c0,0.088 -0.018,0.1715 -0.0459,0.25h1.2959c0.138,0 0.2499,-0.112 0.25,-0.25v-1.2256c0,-0.6369 0.3444,-1.1752 0.7988,-1.5l0.2442,-0.1855c1.1946,-0.9634 1.9569,-2.4372 1.957,-4.0889c0,-2.89949 -2.3505,-5.24999 -5.25,-5.24999zM3.75,11.2493c0.41421,0 0.75,0.3358 0.75,0.75c-0.00007,0.4142 -0.33583,0.75 -0.75,0.75h-1c-0.41417,0 -0.74993,-0.3358 -0.75,-0.75c0,-0.4142 0.33579,-0.75 0.75,-0.75zM21.25,11.2493c0.4142,0 0.75,0.3358 0.75,0.75c-0.0001,0.4142 -0.3358,0.75 -0.75,0.75h-1c-0.4142,0 -0.7499,-0.3358 -0.75,-0.75c0,-0.4142 0.3358,-0.75 0.75,-0.75zM4.39941,4.39874c0.27461,-0.2746 0.70933,-0.29206 1.00391,-0.05176l0.05664,0.05176l0.70703,0.70703l0.05176,0.05664c0.24032,0.29459 0.22285,0.7293 -0.05176,1.00391c-0.27461,0.27455 -0.70934,0.29207 -1.0039,0.05176l-0.05664,-0.05176l-0.70704,-0.70703l-0.05175,-0.05664c-0.24029,-0.29456 -0.22279,-0.7293 0.05175,-1.00391zM18.5967,4.34601c0.2945,-0.24034 0.7293,-0.22283 1.0039,0.05176c0.2746,0.27461 0.2921,0.70932 0.0517,1.0039l-0.0517,0.05664l-0.707,0.70703c-0.2929,0.2929 -0.7677,0.2929 -1.0606,0c-0.2928,-0.29289 -0.2929,-0.76766 0,-1.06054l0.707,-0.70703zM12,1.24933c0.4142,0 0.75,0.33579 0.75,0.75v1c0,0.41421 -0.3358,0.75 -0.75,0.75c-0.4142,0 -0.75,-0.33579 -0.75,-0.75v-1c0,-0.41421 0.3358,-0.75 0.75,-0.75z" fill="#002B51"/>
</svg>
