<svg width="24" height="24" viewBox="0 0 24 24" fill="none" xmlns="http://www.w3.org/2000/svg">
<path d="M5.71136,9.53077c0.49097,-0.40046 1.2152,-0.37172 1.67285,0.08594c0.45722,0.45769 0.48629,1.18209 0.08594,1.67289l-0.08594,0.0947l-1,1c-1.44482,1.4448 -1.44483,3.7876 0,5.2324c1.44488,1.4444 3.78769,1.4447 5.23239,0l1,-1c0.4882,-0.4881 1.2795,-0.4881 1.7676,0c0.4877,0.4882 0.488,1.2796 0,1.7676l-1,1c-2.421,2.421 -6.34638,2.4207 -8.76756,0c-2.42115,-2.4212 -2.42114,-6.3464 0,-8.7676l1,-0.99999zM10.6166,4.61671c2.4212,-2.42116 6.3465,-2.42116 8.7676,0c2.4207,2.42118 2.421,6.34659 0,8.76759l-1,1c-0.488,0.488 -1.2794,0.4877 -1.7676,0c-0.4881,-0.4882 -0.4881,-1.2794 0,-1.7676l1,-1c1.4447,-1.4447 1.4444,-3.78754 0,-5.23242c-1.4448,-1.44484 -3.7875,-1.44484 -5.2324,0l-1,1c-0.488,0.48801 -1.2794,0.48771 -1.76756,0c-0.48816,-0.48815 -0.48816,-1.27942 0,-1.76757z" fill="#002B51"/>
</svg>
