<svg width="24" height="24" viewBox="0 0 24 24" fill="none" xmlns="http://www.w3.org/2000/svg">
<path fill-rule="evenodd" clip-rule="evenodd" d="M12,21.75c-3.17564,0 -5.75,-2.5744 -5.75,-5.75v-1.5c0,-0.4142 0.33579,-0.75 0.75,-0.75c0.41421,0 0.75,0.3358 0.75,0.75v1.5c0,2.3472 1.90279,4.25 4.25,4.25c2.3472,0 4.25,-1.9028 4.25,-4.25v-1.5c0,-0.4142 0.3358,-0.75 0.75,-0.75c0.4142,0 0.75,0.3358 0.75,0.75v1.5c0,3.1756 -2.5744,5.75 -5.75,5.75zM12,16.75c-0.4142,0 -0.75,-0.3358 -0.75,-0.75v-8c0,-0.41421 0.3358,-0.75 0.75,-0.75c0.4142,0 0.75,0.33579 0.75,0.75v8c0,0.4142 -0.3358,0.75 -0.75,0.75zM6.25,8c0,-3.17564 2.57436,-5.75 5.75,-5.75c3.1756,0 5.75,2.57436 5.75,5.75v1.5c0,0.41421 -0.3358,0.75 -0.75,0.75c-0.4142,0 -0.75,-0.33579 -0.75,-0.75v-1.5c0,-2.34721 -1.9028,-4.25 -4.25,-4.25c-2.34721,0 -4.25,1.90279 -4.25,4.25v1.5c0,0.41421 -0.33579,0.75 -0.75,0.75c-0.41421,0 -0.75,-0.33579 -0.75,-0.75z" fill="#002B51"/>
</svg>
