<svg width="24" height="24" viewBox="0 0 24 24" fill="none" xmlns="http://www.w3.org/2000/svg">
<path fill-rule="evenodd" clip-rule="evenodd" d="M11.3839,7.38392c-0.4881,0.48816 -1.2796,0.48816 -1.76775,0c-0.48815,-0.48815 -0.48815,-1.27961 0,-1.76776l1.00005,-1c2.4211,-2.42116 6.3466,-2.42115 8.7677,0c2.4212,2.42115 2.4212,6.34664 0,8.76774l-1,1c-0.4881,0.4882 -1.2796,0.4882 -1.7677,0c-0.4882,-0.4881 -0.4882,-1.2796 0,-1.7677l1,-1c1.4448,-1.4449 1.4448,-3.78743 0,-5.23228c-1.4449,-1.44484 -3.7874,-1.44484 -5.2323,0zM15.8839,8.11612c0.4882,0.48815 0.4882,1.27961 0,1.76776l-5.99998,6.00002c-0.48815,0.4881 -1.27961,0.4881 -1.76776,0c-0.48816,-0.4882 -0.48816,-1.2796 0,-1.7678l6.00004,-5.99998c0.4881,-0.48816 1.2796,-0.48816 1.7677,0zM7.38392,9.61612c0.48816,0.48818 0.48816,1.27958 0,1.76778l-1,1c-1.44484,1.4448 -1.44484,3.7874 0,5.2322c1.44485,1.4449 3.78738,1.4449 5.23228,0l1,-1c0.4881,-0.4881 1.2796,-0.4881 1.7677,0c0.4882,0.4882 0.4882,1.2796 0,1.7678l-1,1c-2.4211,2.4211 -6.34659,2.4211 -8.76774,0c-2.42115,-2.4212 -2.42116,-6.3466 0,-8.7678l1,-0.99998c0.48815,-0.48816 1.27961,-0.48816 1.76776,0z" fill="#002B51"/>
</svg>
