<svg width="24" height="24" viewBox="0 0 24 24" fill="none" xmlns="http://www.w3.org/2000/svg">
<path fill-rule="evenodd" clip-rule="evenodd" d="M5.75,14.5c0,-0.6904 0.55964,-1.25 1.25,-1.25c0.69036,0 1.25,0.5596 1.25,1.25v1.5c0,2.0711 1.67893,3.75 3.75,3.75c2.0711,0 3.75,-1.6789 3.75,-3.75v-1.5c0,-0.6904 0.5596,-1.25 1.25,-1.25c0.6904,0 1.25,0.5596 1.25,1.25v1.5c0,3.4518 -2.7982,6.25 -6.25,6.25c-3.45178,0 -6.25,-2.7982 -6.25,-6.25zM8.25,9.5c0,0.6904 -0.55964,1.25 -1.25,1.25c-0.69036,0 -1.25,-0.5596 -1.25,-1.25v-1.5c0,-3.45178 2.79822,-6.25 6.25,-6.25c3.4518,0 6.25,2.79822 6.25,6.25v1.5c0,0.6904 -0.5596,1.25 -1.25,1.25c-0.6904,0 -1.25,-0.5596 -1.25,-1.25v-1.5c0,-2.07107 -1.6789,-3.75 -3.75,-3.75c-2.07107,0 -3.75,1.67893 -3.75,3.75z" fill="#002B51"/>
</svg>
