<svg width="24" height="24" viewBox="0 0 24 24" fill="none" xmlns="http://www.w3.org/2000/svg">
<path d="M5.61621,9.61627c0.48816,-0.48815 1.27942,-0.48815 1.76758,0c0.48812,0.48813 0.48814,1.27943 0,1.76763l-1,1c-1.44483,1.4448 -1.44484,3.7875 0,5.2324c1.44484,1.4448 3.78761,1.4448 5.23241,0l1,-1c0.4882,-0.4882 1.2794,-0.4882 1.7676,0c0.4881,0.4881 0.4881,1.2794 0,1.7676l-1,1c-2.4212,2.4211 -6.34644,2.4211 -8.76759,0c-2.42115,-2.4212 -2.42114,-6.3465 0,-8.7676zM14.1162,8.11627c0.4882,-0.48815 1.2794,-0.48815 1.7676,0c0.4881,0.48816 0.4881,1.27944 0,1.76758l-6.00001,6.00005c-0.48814,0.4881 -1.27943,0.4881 -1.76758,0c-0.48815,-0.4882 -0.48814,-1.2795 0,-1.7676zM10.6162,4.61627c2.4212,-2.42114 6.3464,-2.42115 8.7676,0c2.4211,2.42115 2.4211,6.34643 0,8.76763l-1,1c-0.4882,0.4881 -1.2794,0.4881 -1.7676,0c-0.4881,-0.4882 -0.4881,-1.2795 0,-1.7676l1,-1c1.4448,-1.4449 1.4448,-3.78761 0,-5.23245c-1.4448,-1.44484 -3.7876,-1.44483 -5.2324,0l-1,1c-0.4882,0.48815 -1.2794,0.48814 -1.76759,0c-0.48815,-0.48816 -0.48815,-1.27942 0,-1.76758z" fill="#002B51"/>
</svg>
