<svg width="24" height="24" viewBox="0 0 24 24" fill="none" xmlns="http://www.w3.org/2000/svg">
<path fill-rule="evenodd" clip-rule="evenodd" d="M8 6.25C4.82436 6.25 2.25 8.82436 2.25 12C2.25 15.1756 4.82436 17.75 8 17.75H9.5C9.91421 17.75 10.25 17.4142 10.25 17C10.25 16.5858 9.91421 16.25 9.5 16.25H8C5.65279 16.25 3.75 14.3472 3.75 12C3.75 9.65279 5.65279 7.75 8 7.75H9.5C9.91421 7.75 10.25 7.41421 10.25 7C10.25 6.58579 9.91421 6.25 9.5 6.25H8ZM14.5 6.25C14.0858 6.25 13.75 6.58579 13.75 7C13.75 7.41421 14.0858 7.75 14.5 7.75H16C18.3472 7.75 20.25 9.65279 20.25 12C20.25 14.3472 18.3472 16.25 16 16.25H14.5C14.0858 16.25 13.75 16.5858 13.75 17C13.75 17.4142 14.0858 17.75 14.5 17.75H16C19.1756 17.75 21.75 15.1756 21.75 12C21.75 8.82436 19.1756 6.25 16 6.25H14.5Z" fill="#002B51"/>
</svg>
