<svg width="24" height="24" viewBox="0 0 24 24" fill="none" xmlns="http://www.w3.org/2000/svg">
<path fill-rule="evenodd" clip-rule="evenodd" d="M5.75 16C5.75 19.4518 8.54822 22.25 12 22.25C15.4518 22.25 18.25 19.4518 18.25 16V14.5C18.25 13.8096 17.6904 13.25 17 13.25C16.3096 13.25 15.75 13.8096 15.75 14.5V16C15.75 18.0711 14.0711 19.75 12 19.75C9.92893 19.75 8.25 18.0711 8.25 16V14.5C8.25 13.8096 7.69036 13.25 7 13.25C6.30964 13.25 5.75 13.8096 5.75 14.5V16ZM5.75 9.5C5.75 10.1904 6.30964 10.75 7 10.75C7.69036 10.75 8.25 10.1904 8.25 9.5V8C8.25 5.92893 9.92893 4.25 12 4.25C14.0711 4.25 15.75 5.92893 15.75 8V9.5C15.75 10.1904 16.3096 10.75 17 10.75C17.6904 10.75 18.25 10.1904 18.25 9.5V8C18.25 4.54822 15.4518 1.75 12 1.75C8.54822 1.75 5.75 4.54822 5.75 8V9.5Z" fill="#002B51"/>
</svg>
