<svg width="24" height="24" viewBox="0 0 24 24" fill="none" xmlns="http://www.w3.org/2000/svg">
<path d="M17,19.25c0.4142,0 0.75,0.3358 0.75,0.75v2c0,0.4142 -0.3358,0.75 -0.75,0.75c-0.4142,0 -0.75,-0.3358 -0.75,-0.75v-2c0,-0.4142 0.3358,-0.75 0.75,-0.75zM5.96973,9.9707c0.29289,-0.29289 0.76765,-0.29289 1.06054,0c0.29241,0.2929 0.29273,0.7678 0,1.0605l-1,1c-1.63961,1.6402 -1.63994,4.2996 0,5.9395c1.63998,1.6395 4.29943,1.6395 5.93943,0l1,-1c0.2929,-0.2929 0.7677,-0.2929 1.0606,0c0.2924,0.2929 0.2927,0.7678 0,1.0605l-1,1c-2.2258,2.2253 -5.83481,2.2253 -8.06057,0c-2.22573,-2.2257 -2.2254,-5.8346 0,-8.0605zM22,16.25c0.4142,0 0.75,0.3358 0.75,0.75c0,0.4142 -0.3358,0.75 -0.75,0.75h-2c-0.4142,0 -0.75,-0.3358 -0.75,-0.75c0,-0.4142 0.3358,-0.75 0.75,-0.75zM10.9697,4.9707c2.2259,-2.22589 5.8347,-2.22589 8.0606,0c2.2254,2.22593 2.2257,5.8348 0,8.0605l-1,1c-0.2928,0.2923 -0.7678,0.2923 -1.0606,0c-0.2927,-0.2927 -0.2924,-0.7676 0,-1.0605l1,-1c1.64,-1.6399 1.6397,-4.29931 0,-5.93945c-1.6401,-1.6401 -4.2993,-1.6401 -5.9394,0l-1,1c-0.2928,0.29227 -0.7678,0.29227 -1.06057,0c-0.29274,-0.29274 -0.29243,-0.76762 0,-1.06055zM4,6.25c0.41421,0 0.75,0.33579 0.75,0.75c0,0.41421 -0.33579,0.75 -0.75,0.75h-2c-0.41421,0 -0.75,-0.33579 -0.75,-0.75c0,-0.41421 0.33579,-0.75 0.75,-0.75zM7,1.25c0.41421,0 0.75,0.33579 0.75,0.75v2c0,0.41421 -0.33579,0.75 -0.75,0.75c-0.41421,0 -0.75,-0.33579 -0.75,-0.75v-2c0,-0.41421 0.33579,-0.75 0.75,-0.75z" fill="#002B51"/>
</svg>
