<svg width="24" height="24" viewBox="0 0 24 24" fill="none" xmlns="http://www.w3.org/2000/svg">
<g clip-path="url(#clip0_3273_25005)">
<path fill-rule="evenodd" clip-rule="evenodd" d="M8.25,4c0,0.69036 -0.55964,1.25 -1.25,1.25c-0.69036,0 -1.25,-0.55964 -1.25,-1.25v-2c0,-0.69036 0.55964,-1.25 1.25,-1.25c0.69036,0 1.25,0.55964 1.25,1.25zM11.3839,7.38392c-0.4881,0.48816 -1.2796,0.48816 -1.76775,0c-0.48815,-0.48815 -0.48815,-1.27961 0,-1.76776l1.00005,-1c2.4211,-2.42116 6.3466,-2.42115 8.7677,0c2.4212,2.42115 2.4212,6.34664 0,8.76774l-1,1c-0.4881,0.4882 -1.2796,0.4882 -1.7677,0c-0.4882,-0.4881 -0.4882,-1.2796 0,-1.7677l1,-1c1.4448,-1.4449 1.4448,-3.78743 0,-5.23228c-1.4449,-1.44484 -3.7874,-1.44484 -5.2323,0zM6.38392,12.3839c-1.44484,1.4448 -1.44484,3.7874 0,5.2322c1.44485,1.4449 3.78738,1.4449 5.23228,0l1,-1c0.4881,-0.4881 1.2796,-0.4881 1.7677,0c0.4882,0.4882 0.4882,1.2796 0,1.7678l-1,1c-2.4211,2.4211 -6.34659,2.4211 -8.76774,0c-2.42115,-2.4212 -2.42116,-6.3466 0,-8.7678l1,-0.99998c0.48815,-0.48816 1.27961,-0.48816 1.76776,0c0.48816,0.48818 0.48816,1.27958 0,1.76778zM17,18.75c0.6904,0 1.25,0.5596 1.25,1.25v2c0,0.6904 -0.5596,1.25 -1.25,1.25c-0.6904,0 -1.25,-0.5596 -1.25,-1.25v-2c0,-0.6904 0.5596,-1.25 1.25,-1.25zM22,15.75c0.6904,0 1.25,0.5596 1.25,1.25c0,0.6904 -0.5596,1.25 -1.25,1.25h-2c-0.6904,0 -1.25,-0.5596 -1.25,-1.25c0,-0.6904 0.5596,-1.25 1.25,-1.25zM0.75,7c0,-0.69036 0.55964,-1.25 1.25,-1.25h2c0.69036,0 1.25,0.55964 1.25,1.25c0,0.69036 -0.55964,1.25 -1.25,1.25h-2c-0.69036,0 -1.25,-0.55964 -1.25,-1.25z" fill="#002B51"/>
</g>
<defs>
<clipPath id="clip0_3273_25005">
<rect width="24" height="24" fill="white"/>
</clipPath>
</defs>
</svg>
