<svg width="24" height="24" viewBox="0 0 24 24" fill="none" xmlns="http://www.w3.org/2000/svg">
<path fill-rule="evenodd" clip-rule="evenodd" d="M8 5.75C4.54822 5.75 1.75 8.54822 1.75 12C1.75 15.4518 4.54822 18.25 8 18.25H9.5C10.1904 18.25 10.75 17.6904 10.75 17C10.75 16.3096 10.1904 15.75 9.5 15.75H8C5.92893 15.75 4.25 14.0711 4.25 12C4.25 9.92893 5.92893 8.25 8 8.25H9.5C10.1904 8.25 10.75 7.69036 10.75 7C10.75 6.30964 10.1904 5.75 9.5 5.75H8ZM14.5 5.75C13.8096 5.75 13.25 6.30964 13.25 7C13.25 7.69036 13.8096 8.25 14.5 8.25H16C18.0711 8.25 19.75 9.92893 19.75 12C19.75 14.0711 18.0711 15.75 16 15.75H14.5C13.8096 15.75 13.25 16.3096 13.25 17C13.25 17.6904 13.8096 18.25 14.5 18.25H16C19.4518 18.25 22.25 15.4518 22.25 12C22.25 8.54822 19.4518 5.75 16 5.75H14.5Z" fill="#002B51"/>
</svg>
