<svg width="24" height="24" viewBox="0 0 24 24" fill="none" xmlns="http://www.w3.org/2000/svg">
<path fill-rule="evenodd" clip-rule="evenodd" d="M19.0302,13.0303l-1,1c-0.2929,0.2929 -0.7677,0.2929 -1.0606,0c-0.2928,-0.2929 -0.2928,-0.7677 0,-1.0606l1,-1c1.6402,-1.6401 1.6402,-4.29934 0,-5.93944c-1.6401,-1.64011 -4.2993,-1.64011 -5.9394,0l-1,1c-0.2929,0.29289 -0.7677,0.29289 -1.06055,0c-0.2929,-0.2929 -0.2929,-0.76766 0,-1.06055l0.99995,-1c2.2259,-2.22589 5.8347,-2.22589 8.0606,0c2.2259,2.22589 2.2259,5.83469 0,8.06059zM7.0302,11.0302l-1,1c-1.64011,1.6401 -1.64011,4.2994 0,5.9395c1.6401,1.6401 4.2993,1.6401 5.9394,0l1,-1c0.2929,-0.2929 0.7677,-0.2929 1.0606,0c0.2929,0.2929 0.2929,0.7676 0,1.0605l-1,1c-2.2259,2.2259 -5.83466,2.2259 -8.06055,0c-2.22589,-2.2259 -2.22589,-5.8346 0,-8.0605l1,-1.00003c0.29289,-0.29289 0.76765,-0.29289 1.06055,0c0.29289,0.29293 0.29289,0.76763 0,1.06053z" fill="#002B51"/>
</svg>
