<svg width="24" height="24" viewBox="0 0 24 24" fill="none" xmlns="http://www.w3.org/2000/svg">
<path fill-rule="evenodd" clip-rule="evenodd" d="M19.3837,13.3837l-1,1c-0.4881,0.4882 -1.2794,0.4882 -1.7675,0c-0.4882,-0.4881 -0.4882,-1.2794 0,-1.7675l1,-1c1.4448,-1.4449 1.4448,-3.78762 0,-5.23246c-1.4449,-1.44485 -3.7876,-1.44485 -5.2325,0l-1,1c-0.4881,0.48815 -1.2794,0.48815 -1.76755,0c-0.48815,-0.48816 -0.48815,-1.27943 0,-1.76758l1.00005,-1c2.4211,-2.42116 6.3464,-2.42115 8.7675,0c2.4212,2.42115 2.4212,6.34644 0,8.76754zM7.46967,11.289l-0.08593,0.0947l-1,1c-1.44485,1.4448 -1.44485,3.7876 0,5.2324c1.44484,1.4449 3.78756,1.4449 5.23246,0l1,-1c0.4881,-0.4881 1.2794,-0.4881 1.7675,0c0.4882,0.4882 0.4882,1.2794 0,1.7676l-1,1c-2.4211,2.4211 -6.34639,2.4211 -8.76754,0c-2.42115,-2.4212 -2.42116,-6.3464 0,-8.7676l1,-0.99998l0.09472,-0.08594c0.49097,-0.40048 1.21519,-0.37172 1.67286,0.08594c0.45766,0.45768 0.48642,1.18188 0.08593,1.67288z" fill="#002B51"/>
</svg>
