<svg width="24" height="24" viewBox="0 0 24 24" fill="none" xmlns="http://www.w3.org/2000/svg">
<path fill-rule="evenodd" clip-rule="evenodd" d="M7,1.25c0.41421,0 0.75,0.33579 0.75,0.75v2c0,0.41421 -0.33579,0.75 -0.75,0.75c-0.41421,0 -0.75,-0.33579 -0.75,-0.75v-2c0,-0.41421 0.33579,-0.75 0.75,-0.75zM19.0302,13.0303l-1,1c-0.2929,0.2929 -0.7676,0.2929 -1.0605,0c-0.2929,-0.2929 -0.2929,-0.7677 0,-1.0606l1,-1c1.6401,-1.6401 1.6401,-4.29934 0,-5.93944c-1.6401,-1.64011 -4.2994,-1.64011 -5.9395,0l-1,1c-0.2929,0.29289 -0.7676,0.29289 -1.06053,0c-0.29289,-0.2929 -0.29289,-0.76766 0,-1.06055l1.00003,-1c2.2259,-2.22589 5.8346,-2.22589 8.0605,0c2.2259,2.22589 2.2259,5.83469 0,8.06059zM7.03022,11.0302l-1,1c-1.6401,1.6401 -1.6401,4.2994 0,5.9395c1.6401,1.6401 4.29938,1.6401 5.93948,0l1,-1c0.2929,-0.2929 0.7676,-0.2929 1.0605,0c0.2929,0.2929 0.2929,0.7676 0,1.0605l-1,1c-2.2259,2.2259 -5.83464,2.2259 -8.06053,0c-2.22589,-2.2259 -2.22589,-5.8346 0,-8.0605l1,-1.00003c0.2929,-0.29289 0.76766,-0.29289 1.06055,0c0.29289,0.29293 0.29289,0.76763 0,1.06053zM16.25,22v-2c0,-0.4142 0.3358,-0.75 0.75,-0.75c0.4142,0 0.75,0.3358 0.75,0.75v2c0,0.4142 -0.3358,0.75 -0.75,0.75c-0.4142,0 -0.75,-0.3358 -0.75,-0.75zM22,17.75h-2c-0.4142,0 -0.75,-0.3358 -0.75,-0.75c0,-0.4142 0.3358,-0.75 0.75,-0.75h2c0.4142,0 0.75,0.3358 0.75,0.75c0,0.4142 -0.3358,0.75 -0.75,0.75zM4,6.25c0.41421,0 0.75,0.33579 0.75,0.75c0,0.41421 -0.33579,0.75 -0.75,0.75h-2c-0.41421,0 -0.75,-0.33579 -0.75,-0.75c0,-0.41421 0.33579,-0.75 0.75,-0.75z" fill="#002B51"/>
</svg>
