<svg width="24" height="24" viewBox="0 0 24 24" fill="none" xmlns="http://www.w3.org/2000/svg">
<path fill-rule="evenodd" clip-rule="evenodd" d="M7.75 2C7.75 1.58579 7.41421 1.25 7 1.25C6.58579 1.25 6.25 1.58579 6.25 2V4C6.25 4.41421 6.58579 4.75 7 4.75C7.41421 4.75 7.75 4.41421 7.75 4V2ZM12.0303 6.03037C13.6704 4.39027 16.3296 4.39027 17.9697 6.03037C19.6098 7.67047 19.6098 10.3296 17.9697 11.9697L16.9697 12.9697C16.6768 13.2626 16.6768 13.7375 16.9697 14.0304C17.2626 14.3233 17.7374 14.3233 18.0303 14.0304L19.0303 13.0304C21.2562 10.8045 21.2562 7.1956 19.0303 4.96971C16.8044 2.74382 13.1956 2.74382 10.9697 4.96971L9.96967 5.96971C9.67678 6.2626 9.67678 6.73748 9.96967 7.03037C10.2626 7.32326 10.7374 7.32326 11.0303 7.03037L12.0303 6.03037ZM7.03033 11.0303C7.32323 10.7374 7.32323 10.2626 7.03033 9.96967C6.73744 9.67678 6.26257 9.67678 5.96967 9.96967L4.96967 10.9697C2.74378 13.1956 2.74378 16.8044 4.96967 19.0303C7.19556 21.2562 10.8044 21.2562 13.0303 19.0303L14.0303 18.0303C14.3232 17.7374 14.3232 17.2626 14.0303 16.9697C13.7374 16.6768 13.2626 16.6768 12.9697 16.9697L11.9697 17.9697C10.3296 19.6098 7.67044 19.6098 6.03033 17.9697C4.39023 16.3296 4.39023 13.6704 6.03033 12.0303L7.03033 11.0303ZM17 19.25C17.4142 19.25 17.75 19.5858 17.75 20V22C17.75 22.4142 17.4142 22.75 17 22.75C16.5858 22.75 16.25 22.4142 16.25 22V20C16.25 19.5858 16.5858 19.25 17 19.25ZM20 16.25C19.5858 16.25 19.25 16.5858 19.25 17C19.25 17.4142 19.5858 17.75 20 17.75H22C22.4142 17.75 22.75 17.4142 22.75 17C22.75 16.5858 22.4142 16.25 22 16.25H20ZM1.25 7C1.25 6.58579 1.58579 6.25 2 6.25H4C4.41421 6.25 4.75 6.58579 4.75 7C4.75 7.41421 4.41421 7.75 4 7.75H2C1.58579 7.75 1.25 7.41421 1.25 7Z" fill="#002B51"/>
</svg>
