<svg width="24" height="24" viewBox="0 0 24 24" fill="none" xmlns="http://www.w3.org/2000/svg">
<path fill-rule="evenodd" clip-rule="evenodd" d="M11.0303,7.03037c-0.2929,0.29289 -0.7677,0.29289 -1.06062,0c-0.2929,-0.29289 -0.2929,-0.76777 0,-1.06066l1.00002,-1c2.2259,-2.22589 5.8347,-2.22589 8.0606,0c2.2259,2.22589 2.2259,5.83479 0,8.06069l-1,1c-0.2929,0.2929 -0.7677,0.2929 -1.0606,0c-0.2929,-0.2929 -0.2929,-0.7678 0,-1.0607l1,-1c1.6401,-1.6401 1.6401,-4.29923 0,-5.93933c-1.6401,-1.6401 -4.2993,-1.6401 -5.9394,0zM15.5303,8.46967c0.2929,0.29289 0.2929,0.76777 0,1.06066l-5.99996,5.99997c-0.29289,0.2929 -0.76777,0.2929 -1.06066,0c-0.29289,-0.2929 -0.29289,-0.7677 0,-1.0606l6.00002,-6.00003c0.2929,-0.29289 0.7677,-0.29289 1.0606,0zM7.03034,9.96967c0.29289,0.29293 0.29289,0.76773 0,1.06063l-1,1c-1.6401,1.6401 -1.6401,4.2993 0,5.9394c1.6401,1.6401 4.29926,1.6401 5.93936,0l1,-1c0.2929,-0.2929 0.7677,-0.2929 1.0606,0c0.2929,0.2929 0.2929,0.7677 0,1.0606l-1,1c-2.2258,2.2259 -5.83473,2.2259 -8.06062,0c-2.22589,-2.2259 -2.22589,-5.8347 0,-8.0606l1,-1.00003c0.29289,-0.29289 0.76777,-0.29289 1.06066,0z" fill="#002B51"/>
</svg>
