<svg width="24" height="24" viewBox="0 0 24 24" fill="none" xmlns="http://www.w3.org/2000/svg">
<path d="M5.96973,9.96973c0.29289,-0.2929 0.76765,-0.2929 1.06054,0c0.2929,0.29287 0.2929,0.76767 0,1.06057l-1,1c-1.64008,1.6401 -1.6401,4.2993 0,5.9394c1.6401,1.6401 4.29933,1.6401 5.93943,0l1,-1c0.2929,-0.2929 0.7677,-0.2929 1.0606,0c0.2929,0.2929 0.2929,0.7677 0,1.0606l-1,1c-2.2259,2.2258 -5.83469,2.2259 -8.06057,0c-2.22589,-2.2259 -2.22588,-5.8347 0,-8.0606zM14.4697,8.46973c0.2929,-0.2929 0.7677,-0.2929 1.0606,0c0.2929,0.29289 0.2929,0.76765 0,1.06054l-6.00003,6.00003c-0.29289,0.2929 -0.76766,0.2929 -1.06054,0c-0.29289,-0.2929 -0.29288,-0.7677 0,-1.0606zM10.9697,4.96973c2.2259,-2.22588 5.8347,-2.22587 8.0606,0c2.2259,2.22588 2.2259,5.83467 0,8.06057l-1,1c-0.2929,0.2929 -0.7677,0.2929 -1.0606,0c-0.2928,-0.2929 -0.2929,-0.7677 0,-1.0606l1,-1c1.6401,-1.6401 1.6401,-4.29933 0,-5.93943c-1.6401,-1.64008 -4.2993,-1.64009 -5.9394,0l-1,1c-0.2929,0.2929 -0.7677,0.2929 -1.06057,0c-0.29288,-0.29289 -0.29289,-0.76766 0,-1.06054z" fill="#002B51"/>
</svg>
