<svg width="24" height="24" viewBox="0 0 24 24" fill="none" xmlns="http://www.w3.org/2000/svg">
<path fill-rule="evenodd" clip-rule="evenodd" d="M7,1.25c0.41421,0 0.75,0.33579 0.75,0.75v2c0,0.41421 -0.33579,0.75 -0.75,0.75c-0.41421,0 -0.75,-0.33579 -0.75,-0.75v-2c0,-0.41421 0.33579,-0.75 0.75,-0.75zM19.0303,13.0303l-1,1c-0.2929,0.2929 -0.7677,0.2929 -1.0606,0c-0.2929,-0.2929 -0.2929,-0.7676 0,-1.0605l1,-1c1.6401,-1.6401 1.6401,-4.29938 0,-5.93949c-1.6401,-1.6401 -4.2993,-1.6401 -5.9394,0l-1,1c-0.2929,0.2929 -0.7677,0.2929 -1.06057,0c-0.2929,-0.29289 -0.2929,-0.76765 0,-1.06054l0.99997,-1c2.2259,-2.22589 5.8347,-2.22589 8.0606,0c2.2259,2.22589 2.2259,5.83463 0,8.06053zM7.03028,11.0303l-1,1c-1.64011,1.6401 -1.64011,4.2993 0,5.9394c1.6401,1.6401 4.29932,1.6401 5.93942,0l1,-1c0.2929,-0.2929 0.7677,-0.2929 1.0606,0c0.2929,0.2929 0.2929,0.7677 0,1.0606l-1,1c-2.2259,2.2259 -5.83468,2.2259 -8.06057,0c-2.22589,-2.2259 -2.22589,-5.8347 0,-8.0606l1,-0.99997c0.29289,-0.2929 0.76765,-0.2929 1.06055,0c0.29289,0.29287 0.29289,0.76767 0,1.06057zM16.25,22v-2c0,-0.4142 0.3358,-0.75 0.75,-0.75c0.4142,0 0.75,0.3358 0.75,0.75v2c0,0.4142 -0.3358,0.75 -0.75,0.75c-0.4142,0 -0.75,-0.3358 -0.75,-0.75zM22,17.75h-2c-0.4142,0 -0.75,-0.3358 -0.75,-0.75c0,-0.4142 0.3358,-0.75 0.75,-0.75h2c0.4142,0 0.75,0.3358 0.75,0.75c0,0.4142 -0.3358,0.75 -0.75,0.75zM4,6.25c0.41421,0 0.75,0.33579 0.75,0.75c0,0.41421 -0.33579,0.75 -0.75,0.75h-2c-0.41421,0 -0.75,-0.33579 -0.75,-0.75c0,-0.41421 0.33579,-0.75 0.75,-0.75z" fill="#002B51"/>
</svg>
