<svg width="24" height="24" viewBox="0 0 24 24" fill="none" xmlns="http://www.w3.org/2000/svg">
<path fill-rule="evenodd" clip-rule="evenodd" d="M7,0.75c0.69036,0 1.25,0.55964 1.25,1.25v2c0,0.69036 -0.55964,1.25 -1.25,1.25c-0.69036,0 -1.25,-0.55964 -1.25,-1.25v-2c0,-0.69036 0.55964,-1.25 1.25,-1.25zM19.3838,13.3838l-1,1c-0.4881,0.4882 -1.2794,0.4882 -1.7676,0c-0.4881,-0.4881 -0.4881,-1.2794 0,-1.7675l1,-1c1.4449,-1.4449 1.4449,-3.78763 0,-5.23247c-1.4448,-1.44484 -3.7875,-1.44484 -5.2324,0l-1,1c-0.4881,0.48816 -1.2794,0.48816 -1.76755,0c-0.48816,-0.48816 -0.48816,-1.27942 0,-1.76758l0.99995,-1c2.4212,-2.42115 6.3465,-2.42115 8.7676,0c2.4212,2.42115 2.4212,6.34645 0,8.76755zM7.38383,11.3838l-1,1c-1.44484,1.4448 -1.44484,3.7876 0,5.2324c1.44484,1.4449 3.78757,1.4449 5.23247,0l1,-1c0.4881,-0.4881 1.2794,-0.4881 1.7675,0c0.4882,0.4882 0.4882,1.2794 0,1.7676l-1,1c-2.4211,2.4211 -6.3464,2.4211 -8.76755,0c-2.42115,-2.4212 -2.42115,-6.3464 0,-8.7676l1,-0.99999c0.48816,-0.48815 1.27942,-0.48815 1.76758,0c0.48816,0.48819 0.48816,1.27939 0,1.76759zM15.75,22v-2c0,-0.6904 0.5596,-1.25 1.25,-1.25c0.6904,0 1.25,0.5596 1.25,1.25v2c0,0.6904 -0.5596,1.25 -1.25,1.25c-0.6904,0 -1.25,-0.5596 -1.25,-1.25zM22,18.25h-2c-0.6904,0 -1.25,-0.5596 -1.25,-1.25c0,-0.6904 0.5596,-1.25 1.25,-1.25h2c0.6904,0 1.25,0.5596 1.25,1.25c0,0.6904 -0.5596,1.25 -1.25,1.25zM4,5.75c0.69036,0 1.25,0.55964 1.25,1.25c0,0.69036 -0.55964,1.25 -1.25,1.25h-2c-0.69036,0 -1.25,-0.55964 -1.25,-1.25c0,-0.69036 0.55964,-1.25 1.25,-1.25z" fill="#002B51"/>
</svg>
