<svg width="24" height="24" viewBox="0 0 24 24" fill="none" xmlns="http://www.w3.org/2000/svg">
<path fill-rule="evenodd" clip-rule="evenodd" d="M7.75,4c0,0.41421 -0.33579,0.75 -0.75,0.75c-0.41421,0 -0.75,-0.33579 -0.75,-0.75v-2c0,-0.41421 0.33579,-0.75 0.75,-0.75c0.41421,0 0.75,0.33579 0.75,0.75zM11.0303,7.03037c-0.2929,0.29289 -0.7677,0.29289 -1.06063,0c-0.29289,-0.29289 -0.29289,-0.76777 0,-1.06066l1.00003,-1c2.2259,-2.22589 5.8347,-2.22589 8.0606,0c2.2259,2.22589 2.2259,5.83479 0,8.06069l-1,1c-0.2929,0.2929 -0.7677,0.2929 -1.0606,0c-0.2929,-0.2929 -0.2929,-0.7678 0,-1.0607l1,-1c1.6401,-1.6401 1.6401,-4.29923 0,-5.93933c-1.6401,-1.6401 -4.2993,-1.6401 -5.9394,0zM6.03033,12.0303c-1.6401,1.6401 -1.6401,4.2993 0,5.9394c1.64011,1.6401 4.29927,1.6401 5.93937,0l1,-1c0.2929,-0.2929 0.7677,-0.2929 1.0606,0c0.2929,0.2929 0.2929,0.7677 0,1.0606l-1,1c-2.2259,2.2259 -5.83474,2.2259 -8.06063,0c-2.22589,-2.2259 -2.22589,-5.8347 0,-8.0606l1,-1.00003c0.2929,-0.29289 0.76777,-0.29289 1.06066,0c0.2929,0.29293 0.2929,0.76773 0,1.06063zM17,19.25c0.4142,0 0.75,0.3358 0.75,0.75v2c0,0.4142 -0.3358,0.75 -0.75,0.75c-0.4142,0 -0.75,-0.3358 -0.75,-0.75v-2c0,-0.4142 0.3358,-0.75 0.75,-0.75zM22,16.25c0.4142,0 0.75,0.3358 0.75,0.75c0,0.4142 -0.3358,0.75 -0.75,0.75h-2c-0.4142,0 -0.75,-0.3358 -0.75,-0.75c0,-0.4142 0.3358,-0.75 0.75,-0.75zM1.25,7c0,-0.41421 0.33579,-0.75 0.75,-0.75h2c0.41421,0 0.75,0.33579 0.75,0.75c0,0.41421 -0.33579,0.75 -0.75,0.75h-2c-0.41421,0 -0.75,-0.33579 -0.75,-0.75z" fill="#002B51"/>
</svg>
