<svg width="24" height="24" viewBox="0 0 24 24" fill="none" xmlns="http://www.w3.org/2000/svg">
<path d="M5.97017,9.9702c0.2929,-0.2929 0.76766,-0.2929 1.06055,0c0.29243,0.2929 0.29274,0.7678 0,1.0605l-1,1c-1.64008,1.6401 -1.6401,4.2994 0,5.9395c1.64014,1.6396 4.29948,1.6399 5.93948,0l1,-1c0.2929,-0.2929 0.7676,-0.2929 1.0605,0c0.2924,0.2929 0.2928,0.7678 0,1.0605l-1,1c-2.2257,2.2258 -5.83461,2.2255 -8.06053,0c-2.22588,-2.2258 -2.22587,-5.8346 0,-8.0605zM14.4702,8.4702c0.2929,-0.2929 0.7676,-0.2929 1.0605,0c0.2924,0.29293 0.2928,0.76781 0,1.06055l-5.99998,5.99995c-0.29274,0.2928 -0.76762,0.2925 -1.06055,0c-0.29288,-0.2928 -0.29287,-0.7676 0,-1.0605zM10.9702,4.9702c2.2259,-2.22589 5.8346,-2.22589 8.0605,0c2.2255,2.22592 2.2258,5.8348 0,8.0605l-1,1c-0.2927,0.2928 -0.7676,0.2925 -1.0605,0c-0.2929,-0.2928 -0.2929,-0.7676 0,-1.0605l1,-1c1.6399,-1.64 1.6396,-4.29932 0,-5.93946c-1.6401,-1.6401 -4.2994,-1.6401 -5.9395,0l-1,1c-0.2927,0.29275 -0.7676,0.29245 -1.06053,0c-0.29289,-0.29289 -0.29289,-0.76765 0,-1.06054z" fill="#002B51"/>
</svg>
