<svg width="24" height="24" viewBox="0 0 24 24" fill="none" xmlns="http://www.w3.org/2000/svg">
<path d="M17,18.75c0.6904,0 1.25,0.5596 1.25,1.25v2c0,0.6904 -0.5596,1.25 -1.25,1.25c-0.6904,0 -1.25,-0.5596 -1.25,-1.25v-2c0,-0.6904 0.5596,-1.25 1.25,-1.25zM5.71094,9.53027c0.49079,-0.40031 1.21517,-0.37124 1.67285,0.08594c0.4572,0.45769 0.48624,1.18209 0.08594,1.67289l-0.08594,0.0947l-1,1c-1.44466,1.4447 -1.44435,3.7875 0,5.2324c1.44487,1.4444 3.78771,1.4447 5.23241,0l1,-1c0.488,-0.488 1.2794,-0.4877 1.7676,0c0.4877,0.4882 0.488,1.2796 0,1.7676l-1,1c-2.421,2.421 -6.34641,2.4207 -8.76759,0c-2.42066,-2.4212 -2.42097,-6.3466 0,-8.7676l1,-0.99999zM22,15.75c0.6904,0 1.25,0.5596 1.25,1.25c0,0.6904 -0.5596,1.25 -1.25,1.25h-2c-0.6904,0 -1.25,-0.5596 -1.25,-1.25c0,-0.6904 0.5596,-1.25 1.25,-1.25zM10.6162,4.61621c2.421,-2.42099 6.3464,-2.42066 8.7676,0c2.4207,2.42119 2.421,6.34659 0,8.76759l-1,1c-0.488,0.488 -1.2794,0.4877 -1.7676,0c-0.4877,-0.4882 -0.488,-1.2796 0,-1.7676l1,-1c1.4447,-1.4447 1.4444,-3.78753 0,-5.23241c-1.4449,-1.44435 -3.7877,-1.44468 -5.2324,0l-1,1c-0.488,0.488 -1.2794,0.48771 -1.76759,0c-0.48767,-0.4882 -0.48799,-1.27959 0,-1.76758zM4,5.75c0.69036,0 1.25,0.55964 1.25,1.25c0,0.69036 -0.55964,1.25 -1.25,1.25h-2c-0.69036,0 -1.25,-0.55964 -1.25,-1.25c0,-0.69036 0.55964,-1.25 1.25,-1.25zM7,0.75c0.69036,0 1.25,0.55964 1.25,1.25v2c0,0.69036 -0.55964,1.25 -1.25,1.25c-0.69036,0 -1.25,-0.55964 -1.25,-1.25v-2c0,-0.69036 0.55964,-1.25 1.25,-1.25z" fill="#002B51"/>
</svg>
