<svg width="24" height="24" viewBox="0 0 24 24" fill="none" xmlns="http://www.w3.org/2000/svg">
<path fill-rule="evenodd" clip-rule="evenodd" d="M12.0303 6.03037C13.6704 4.39027 16.3296 4.39027 17.9697 6.03037C19.6098 7.67047 19.6098 10.3296 17.9697 11.9697L16.9697 12.9697C16.6768 13.2626 16.6768 13.7375 16.9697 14.0304C17.2626 14.3233 17.7374 14.3233 18.0303 14.0304L19.0303 13.0304C21.2562 10.8045 21.2562 7.1956 19.0303 4.96971C16.8044 2.74382 13.1956 2.74382 10.9697 4.96971L9.96968 5.96971C9.67678 6.2626 9.67678 6.73748 9.96968 7.03037C10.2626 7.32326 10.7374 7.32326 11.0303 7.03037L12.0303 6.03037ZM7.03034 11.0303C7.32323 10.7374 7.32323 10.2626 7.03034 9.96967C6.73745 9.67678 6.26257 9.67678 5.96968 9.96967L4.96968 10.9697C2.74379 13.1956 2.74379 16.8044 4.96968 19.0303C7.19557 21.2562 10.8045 21.2562 13.0303 19.0303L14.0303 18.0303C14.3232 17.7374 14.3232 17.2626 14.0303 16.9697C13.7374 16.6768 13.2626 16.6768 12.9697 16.9697L11.9697 17.9697C10.3296 19.6098 7.67044 19.6098 6.03034 17.9697C4.39024 16.3296 4.39024 13.6704 6.03034 12.0303L7.03034 11.0303Z" fill="#002B51"/>
</svg>
