<svg width="24" height="24" viewBox="0 0 24 24" fill="none" xmlns="http://www.w3.org/2000/svg">
<path fill-rule="evenodd" clip-rule="evenodd" d="M12.3839 6.38392C13.8288 4.93908 16.1713 4.93908 17.6162 6.38392C19.061 7.82877 19.061 10.1713 17.6162 11.6162L16.6162 12.6162C16.128 13.1043 16.128 13.8958 16.6162 14.3839C17.1043 14.8721 17.8958 14.8721 18.3839 14.3839L19.3839 13.3839C21.8051 10.9628 21.8051 7.03731 19.3839 4.61616C16.9628 2.19501 13.0373 2.195 10.6162 4.61616L9.61615 5.61616C9.128 6.10431 9.128 6.89577 9.61615 7.38392C10.1043 7.87208 10.8958 7.87208 11.3839 7.38392L12.3839 6.38392ZM7.38392 11.3839C7.87208 10.8957 7.87208 10.1043 7.38392 9.61612C6.89577 9.12796 6.10431 9.12796 5.61616 9.61612L4.61616 10.6161C2.195 13.0373 2.19501 16.9627 4.61616 19.3839C7.03731 21.805 10.9628 21.805 13.3839 19.3839L14.3839 18.3839C14.8721 17.8957 14.8721 17.1043 14.3839 16.6161C13.8958 16.128 13.1043 16.128 12.6162 16.6161L11.6162 17.6161C10.1713 19.061 7.82877 19.061 6.38392 17.6161C4.93908 16.1713 4.93908 13.8287 6.38392 12.3839L7.38392 11.3839Z" fill="#002B51"/>
</svg>
