<svg width="24" height="24" viewBox="0 0 24 24" fill="none" xmlns="http://www.w3.org/2000/svg">
<path fill-rule="evenodd" clip-rule="evenodd" d="M8.38388 5.38388C8.87204 4.89573 8.87204 4.10427 8.38388 3.61612C7.89573 3.12796 7.10427 3.12796 6.61612 3.61612L5 5.23223L4.38388 4.61612C3.89573 4.12796 3.10427 4.12796 2.61612 4.61612C2.12796 5.10427 2.12796 5.89573 2.61612 6.38388L4.11612 7.88388C4.60427 8.37204 5.39573 8.37204 5.88388 7.88388L8.38388 5.38388ZM8.38388 11.3839C8.87204 10.8957 8.87204 10.1043 8.38388 9.61612C7.89573 9.12796 7.10427 9.12796 6.61612 9.61612L5 11.2322L4.38388 10.6161C3.89573 10.128 3.10427 10.128 2.61612 10.6161C2.12796 11.1043 2.12796 11.8957 2.61612 12.3839L4.11612 13.8839C4.60427 14.372 5.39573 14.372 5.88388 13.8839L8.38388 11.3839ZM8.38388 15.6161C8.87204 16.1043 8.87204 16.8957 8.38388 17.3839L5.88388 19.8839C5.39573 20.372 4.60427 20.372 4.11612 19.8839L2.61612 18.3839C2.12796 17.8957 2.12796 17.1043 2.61612 16.6161C3.10427 16.128 3.89573 16.128 4.38388 16.6161L5 17.2322L6.61612 15.6161C7.10427 15.128 7.89573 15.128 8.38388 15.6161ZM12 4.75C11.3096 4.75 10.75 5.30964 10.75 6C10.75 6.69036 11.3096 7.25 12 7.25H20C20.6904 7.25 21.25 6.69036 21.25 6C21.25 5.30964 20.6904 4.75 20 4.75H12ZM10.75 12C10.75 11.3096 11.3096 10.75 12 10.75H20C20.6904 10.75 21.25 11.3096 21.25 12C21.25 12.6904 20.6904 13.25 20 13.25H12C11.3096 13.25 10.75 12.6904 10.75 12ZM12 16.75C11.3096 16.75 10.75 17.3096 10.75 18C10.75 18.6904 11.3096 19.25 12 19.25H20C20.6904 19.25 21.25 18.6904 21.25 18C21.25 17.3096 20.6904 16.75 20 16.75H12Z" fill="#002B51"/>
</svg>
