<svg width="24" height="24" viewBox="0 0 24 24" fill="none" xmlns="http://www.w3.org/2000/svg">
<path fill-rule="evenodd" clip-rule="evenodd" d="M5.53033,7.53033c-0.29289,0.29289 -0.76777,0.29289 -1.06066,0l-1.5,-1.5c-0.29289,-0.29289 -0.29289,-0.76777 0,-1.06066c0.29289,-0.29289 0.76777,-0.29289 1.06066,0l0.96967,0.96967l1.96967,-1.96967c0.29289,-0.29289 0.76777,-0.29289 1.06066,0c0.29289,0.29289 0.29289,0.76777 0,1.06066zM5.53033,13.5303c-0.29289,0.2929 -0.76777,0.2929 -1.06066,0l-1.5,-1.5c-0.29289,-0.2929 -0.29289,-0.7677 0,-1.0606c0.29289,-0.2929 0.76777,-0.2929 1.06066,0l0.96967,0.9696l1.96967,-1.96963c0.29289,-0.29289 0.76777,-0.29289 1.06066,0c0.29289,0.29293 0.29289,0.76773 0,1.06063zM8.03033,15.9697c0.29289,0.2929 0.29289,0.7677 0,1.0606l-2.5,2.5c-0.29289,0.2929 -0.76777,0.2929 -1.06066,0l-1.5,-1.5c-0.29289,-0.2929 -0.29289,-0.7677 0,-1.0606c0.29289,-0.2929 0.76777,-0.2929 1.06066,0l0.96967,0.9696l1.96967,-1.9696c0.29289,-0.2929 0.76777,-0.2929 1.06066,0zM20,5.25c0.4142,0 0.75,0.33579 0.75,0.75c0,0.41421 -0.3358,0.75 -0.75,0.75h-9c-0.4142,0 -0.75,-0.33579 -0.75,-0.75c0,-0.41421 0.3358,-0.75 0.75,-0.75zM10.25,12c0,-0.4142 0.3358,-0.75 0.75,-0.75h9c0.4142,0 0.75,0.3358 0.75,0.75c0,0.4142 -0.3358,0.75 -0.75,0.75h-9c-0.4142,0 -0.75,-0.3358 -0.75,-0.75zM20,17.25c0.4142,0 0.75,0.3358 0.75,0.75c0,0.4142 -0.3358,0.75 -0.75,0.75h-9c-0.4142,0 -0.75,-0.3358 -0.75,-0.75c0,-0.4142 0.3358,-0.75 0.75,-0.75z" fill="#002B51"/>
</svg>
