<svg width="24" height="24" viewBox="0 0 24 24" fill="none" xmlns="http://www.w3.org/2000/svg">
<path fill-rule="evenodd" clip-rule="evenodd" d="M8.46973,5.28906l-0.08594,0.09473l-2.5,2.5c-0.48816,0.48815 -1.27942,0.48815 -1.76758,0l-1.5,-1.5l-0.08594,-0.09473c-0.40048,-0.49097 -0.37172,-1.21519 0.08594,-1.67285c0.45766,-0.45766 1.18188,-0.48642 1.67285,-0.08594l0.09473,0.08594l0.61621,0.61621l1.61621,-1.61621l0.09473,-0.08594c0.49097,-0.40048 1.21519,-0.37172 1.67285,0.08594c0.45766,0.45766 0.48642,1.18188 0.08594,1.67285zM8.46973,11.2891l-0.08594,0.0947l-2.5,2.5c-0.48816,0.4881 -1.27942,0.4881 -1.76758,0l-1.5,-1.5l-0.08594,-0.0947c-0.40048,-0.491 -0.37172,-1.2152 0.08594,-1.6729c0.45766,-0.4577 1.18188,-0.4864 1.67285,-0.0859l0.09473,0.0859l0.61621,0.6162l1.61621,-1.61619l0.09473,-0.08594c0.49097,-0.40048 1.21519,-0.37172 1.67285,0.08594c0.45766,0.45769 0.48642,1.18189 0.08594,1.67289zM6.71094,15.5303c0.49097,-0.4005 1.21519,-0.3718 1.67285,0.0859c0.45766,0.4577 0.48642,1.1819 0.08594,1.6729l-0.08594,0.0947l-2.5,2.5c-0.48816,0.4881 -1.27942,0.4881 -1.76758,0l-1.5,-1.5l-0.08594,-0.0947c-0.40048,-0.491 -0.37172,-1.2152 0.08594,-1.6729c0.45766,-0.4577 1.18188,-0.4864 1.67285,-0.0859l0.09473,0.0859l0.61621,0.6162l1.61621,-1.6162zM20,7.25h-8c-0.6904,0 -1.25,-0.55964 -1.25,-1.25c0,-0.69036 0.5596,-1.25 1.25,-1.25h8c0.6904,0 1.25,0.55964 1.25,1.25c0,0.69036 -0.5596,1.25 -1.25,1.25zM20,10.75c0.6904,0 1.25,0.5596 1.25,1.25c0,0.6904 -0.5596,1.25 -1.25,1.25h-8c-0.6904,0 -1.25,-0.5596 -1.25,-1.25c0,-0.6904 0.5596,-1.25 1.25,-1.25zM20,19.25h-8c-0.6904,0 -1.25,-0.5596 -1.25,-1.25c0,-0.6904 0.5596,-1.25 1.25,-1.25h8c0.6904,0 1.25,0.5596 1.25,1.25c0,0.6904 -0.5596,1.25 -1.25,1.25z" fill="#002B51"/>
</svg>
