<svg width="24" height="24" viewBox="0 0 24 24" fill="none" xmlns="http://www.w3.org/2000/svg">
<path fill-rule="evenodd" clip-rule="evenodd" d="M3.99995,4.75c-0.0663,0 -0.12989,0.02634 -0.17677,0.07322c-0.04689,0.04689 -0.07323,0.11048 -0.07323,0.17678v4c0,0.0663 0.02634,0.12989 0.07323,0.17678c0.04688,0.04688 0.11047,0.07322 0.17677,0.07322h4c0.06631,0 0.1299,-0.02634 0.17678,-0.07322c0.04689,-0.04689 0.07322,-0.11048 0.07322,-0.17678v-4c0,-0.0663 -0.02633,-0.12989 -0.07322,-0.17678c-0.04688,-0.04688 -0.11047,-0.07322 -0.17678,-0.07322zM2.76252,3.76256c0.32819,-0.32819 0.77331,-0.51256 1.23743,-0.51256h4c0.46413,0 0.90925,0.18438 1.23744,0.51256c0.32819,0.32819 0.51256,0.77331 0.51256,1.23744v4c0,0.46413 -0.18437,0.90925 -0.51256,1.2374c-0.32819,0.3282 -0.77331,0.5126 -1.23744,0.5126h-4c-0.46412,0 -0.90924,-0.1844 -1.23743,-0.5126c-0.32819,-0.32815 -0.51257,-0.77327 -0.51257,-1.2374v-4c0,-0.46413 0.18438,-0.90925 0.51257,-1.23744zM21,4.25c0.4142,0 0.75,0.33579 0.75,0.75c0,0.41421 -0.3358,0.75 -0.75,0.75h-8c-0.4143,0 -0.75,-0.33579 -0.75,-0.75c0,-0.41421 0.3357,-0.75 0.75,-0.75zM18,8.25c0.4142,0 0.75,0.33579 0.75,0.75c0,0.41421 -0.3358,0.75 -0.75,0.75h-5c-0.4143,0 -0.75,-0.33579 -0.75,-0.75c0,-0.41421 0.3357,-0.75 0.75,-0.75zM12.25,15c0,-0.4142 0.3357,-0.75 0.75,-0.75h8c0.4142,0 0.75,0.3358 0.75,0.75c0,0.4142 -0.3358,0.75 -0.75,0.75h-8c-0.4143,0 -0.75,-0.3358 -0.75,-0.75zM18,18.25c0.4142,0 0.75,0.3358 0.75,0.75c0,0.4142 -0.3358,0.75 -0.75,0.75h-5c-0.4143,0 -0.75,-0.3358 -0.75,-0.75c0,-0.4142 0.3357,-0.75 0.75,-0.75zM3.74995,15v4c0,0.0663 0.02634,0.1299 0.07323,0.1768c0.04688,0.0469 0.11047,0.0732 0.17677,0.0732h4c0.06631,0 0.1299,-0.0263 0.17678,-0.0732c0.04688,-0.0469 0.07322,-0.1105 0.07322,-0.1768v-4c0,-0.0663 -0.02633,-0.1299 -0.07322,-0.1768c-0.04688,-0.0469 -0.11047,-0.0732 -0.17678,-0.0732h-4c-0.0663,0 -0.12989,0.0263 -0.17677,0.0732c-0.04689,0.0469 -0.07323,0.1105 -0.07323,0.1768zM7.99995,13.25c0.46413,0 0.90925,0.1844 1.23744,0.5126c0.32819,0.3282 0.51256,0.7733 0.51256,1.2374v4c0,0.4641 -0.18437,0.9092 -0.51256,1.2374c-0.32819,0.3282 -0.77331,0.5126 -1.23744,0.5126h-4c-0.46412,0 -0.90924,-0.1844 -1.23743,-0.5126c-0.32819,-0.3282 -0.51257,-0.7733 -0.51257,-1.2374v-4c0,-0.4641 0.18438,-0.9092 0.51257,-1.2374c0.32819,-0.3282 0.77331,-0.5126 1.23743,-0.5126z" fill="#002B51"/>
</svg>
