<svg width="24" height="24" viewBox="0 0 24 24" fill="none" xmlns="http://www.w3.org/2000/svg">
<path fill-rule="evenodd" clip-rule="evenodd" d="M4,4c1.10457,0 2,0.89543 2,2v0.00977c0,1.10457 -0.89543,2 -2,2c-1.10457,0 -2,-0.89543 -2,-2v-0.00977c0,-1.10457 0.89543,-2 2,-2zM20,7.25h-10.5c-0.69036,0 -1.25,-0.55964 -1.25,-1.25c0,-0.69036 0.55964,-1.25 1.25,-1.25h10.5c0.6904,0 1.25,0.55964 1.25,1.25c0,0.69036 -0.5596,1.25 -1.25,1.25zM20,13.25h-10.5c-0.69036,0 -1.25,-0.5596 -1.25,-1.25c0,-0.6904 0.55964,-1.25 1.25,-1.25h10.5c0.6904,0 1.25,0.5596 1.25,1.25c0,0.6904 -0.5596,1.25 -1.25,1.25zM20,16.75c0.6904,0 1.25,0.5596 1.25,1.25c0,0.6904 -0.5596,1.25 -1.25,1.25h-10.5c-0.69036,0 -1.25,-0.5596 -1.25,-1.25c0,-0.6904 0.55964,-1.25 1.25,-1.25zM2,12.0098v-0.0098c0,-1.1046 0.89543,-2 2,-2c1.10457,0 2,0.8954 2,2v0.0098c0,1.1045 -0.89543,2 -2,2c-1.10457,0 -2,-0.8955 -2,-2zM4,16c1.10457,0 2,0.8954 2,2v0.0098c0,1.1045 -0.89543,2 -2,2c-1.10457,0 -2,-0.8955 -2,-2v-0.0098c0,-1.1046 0.89543,-2 2,-2z" fill="#002B51"/>
</svg>
