<svg width="24" height="24" viewBox="0 0 24 24" fill="none" xmlns="http://www.w3.org/2000/svg">
<path d="M7.02648,15.9181c0.29459,-0.2403 0.72931,-0.2229 1.00391,0.0517c0.2746,0.2746 0.29207,0.7094 0.05176,1.004l-0.05176,0.0566l-2.5,2.5c-0.29289,0.2929 -0.76765,0.2929 -1.06055,0l-1.5,-1.5l-0.05175,-0.0566c-0.24031,-0.2946 -0.22285,-0.7294 0.05175,-1.004c0.27461,-0.2746 0.70933,-0.292 1.00391,-0.0517l0.05664,0.0517l0.96973,0.9698l1.96972,-1.9698zM20.0001,17.2501c0.4142,0 0.75,0.3358 0.75,0.75c0,0.4142 -0.3358,0.75 -0.75,0.75h-9c-0.4142,0 -0.75,-0.3358 -0.75,-0.75c0,-0.4142 0.3358,-0.75 0.75,-0.75zM7.02648,9.91809c0.29459,-0.24031 0.72931,-0.22285 1.00391,0.05175c0.2746,0.27456 0.29207,0.70936 0.05176,1.00386l-0.05176,0.0567l-2.5,2.5c-0.29289,0.2929 -0.76765,0.2929 -1.06055,0l-1.5,-1.5l-0.05175,-0.0566c-0.24031,-0.2946 -0.22285,-0.7294 0.05175,-1.004c0.27461,-0.2746 0.70933,-0.292 1.00391,-0.0517l0.05664,0.0517l0.96973,0.9698l1.96972,-1.96976zM20.0001,11.2501c0.4142,0 0.75,0.3358 0.75,0.75c0,0.4142 -0.3358,0.75 -0.75,0.75h-9c-0.4142,0 -0.75,-0.3358 -0.75,-0.75c0,-0.4142 0.3358,-0.75 0.75,-0.75zM7.02648,3.91809c0.29459,-0.24031 0.72931,-0.22285 1.00391,0.05175c0.2746,0.27461 0.29207,0.70933 0.05176,1.00391l-0.05176,0.05664l-2.5,2.5c-0.29289,0.29289 -0.76765,0.29289 -1.06055,0l-1.5,-1.5l-0.05175,-0.05664c-0.24031,-0.29458 -0.22285,-0.7293 0.05175,-1.00391c0.27461,-0.2746 0.70933,-0.29206 1.00391,-0.05175l0.05664,0.05175l0.96973,0.96973l1.96972,-1.96973zM20.0001,5.25012c0.4142,0 0.75,0.33578 0.75,0.75c0,0.41421 -0.3358,0.75 -0.75,0.75h-9c-0.4142,0 -0.75,-0.33579 -0.75,-0.75c0,-0.41422 0.3358,-0.75 0.75,-0.75z" fill="#002B51"/>
</svg>
