<svg width="24" height="24" viewBox="0 0 24 24" fill="none" xmlns="http://www.w3.org/2000/svg">
<path fill-rule="evenodd" clip-rule="evenodd" d="M6,6.01c0,1.10457 -0.89543,2 -2,2c-1.10457,0 -2,-0.89543 -2,-2v-0.01c0,-1.10457 0.89543,-2 2,-2c1.10457,0 2,0.89543 2,2zM20,4.75c0.6904,0 1.25,0.55964 1.25,1.25c0,0.69036 -0.5596,1.25 -1.25,1.25h-10.5c-0.69036,0 -1.25,-0.55964 -1.25,-1.25c0,-0.69036 0.55964,-1.25 1.25,-1.25zM20,10.75c0.6904,0 1.25,0.5596 1.25,1.25c0,0.6904 -0.5596,1.25 -1.25,1.25h-10.5c-0.69036,0 -1.25,-0.5596 -1.25,-1.25c0,-0.6904 0.55964,-1.25 1.25,-1.25zM8.25,18c0,-0.6904 0.55964,-1.25 1.25,-1.25h10.5c0.6904,0 1.25,0.5596 1.25,1.25c0,0.6904 -0.5596,1.25 -1.25,1.25h-10.5c-0.69036,0 -1.25,-0.5596 -1.25,-1.25zM4,10c1.10457,0 2,0.8954 2,2v0.01c0,1.1046 -0.89543,2 -2,2c-1.10457,0 -2,-0.8954 -2,-2v-0.01c0,-1.1046 0.89543,-2 2,-2zM6,18.01c0,1.1046 -0.89543,2 -2,2c-1.10457,0 -2,-0.8954 -2,-2v-0.01c0,-1.1046 0.89543,-2 2,-2c1.10457,0 2,0.8954 2,2z" fill="#002B51"/>
</svg>
