<svg width="24" height="24" viewBox="0 0 24 24" fill="none" xmlns="http://www.w3.org/2000/svg">
<path fill-rule="evenodd" clip-rule="evenodd" d="M6 6C6 4.89543 5.10457 4 4 4C2.89543 4 2 4.89543 2 6V6.01C2 7.11457 2.89543 8.01 4 8.01C5.10457 8.01 6 7.11457 6 6.01V6ZM9.5 4.75C8.80964 4.75 8.25 5.30964 8.25 6C8.25 6.69036 8.80964 7.25 9.5 7.25H20C20.6904 7.25 21.25 6.69036 21.25 6C21.25 5.30964 20.6904 4.75 20 4.75H9.5ZM9.5 10.75C8.80964 10.75 8.25 11.3096 8.25 12C8.25 12.6904 8.80964 13.25 9.5 13.25H20C20.6904 13.25 21.25 12.6904 21.25 12C21.25 11.3096 20.6904 10.75 20 10.75H9.5ZM8.25 18C8.25 17.3096 8.80964 16.75 9.5 16.75H20C20.6904 16.75 21.25 17.3096 21.25 18C21.25 18.6904 20.6904 19.25 20 19.25H9.5C8.80964 19.25 8.25 18.6904 8.25 18ZM4 10C5.10457 10 6 10.8954 6 12V12.01C6 13.1146 5.10457 14.01 4 14.01C2.89543 14.01 2 13.1146 2 12.01V12C2 10.8954 2.89543 10 4 10ZM6 18C6 16.8954 5.10457 16 4 16C2.89543 16 2 16.8954 2 18V18.01C2 19.1146 2.89543 20.01 4 20.01C5.10457 20.01 6 19.1146 6 18.01V18Z" fill="#002B51"/>
</svg>
