<svg width="24" height="24" viewBox="0 0 24 24" fill="none" xmlns="http://www.w3.org/2000/svg">
<path fill-rule="evenodd" clip-rule="evenodd" d="M5,6.01c0,0.55228 -0.44772,1 -1,1c-0.55228,0 -1,-0.44772 -1,-1v-0.01c0,-0.55228 0.44772,-1 1,-1c0.55228,0 1,0.44772 1,1zM20,5.25c0.4142,0 0.75,0.33579 0.75,0.75c0,0.41421 -0.3358,0.75 -0.75,0.75h-11.5c-0.41421,0 -0.75,-0.33579 -0.75,-0.75c0,-0.41421 0.33579,-0.75 0.75,-0.75zM20,11.25c0.4142,0 0.75,0.3358 0.75,0.75c0,0.4142 -0.3358,0.75 -0.75,0.75h-11.5c-0.41421,0 -0.75,-0.3358 -0.75,-0.75c0,-0.4142 0.33579,-0.75 0.75,-0.75zM7.75,18c0,-0.4142 0.33579,-0.75 0.75,-0.75h11.5c0.4142,0 0.75,0.3358 0.75,0.75c0,0.4142 -0.3358,0.75 -0.75,0.75h-11.5c-0.41421,0 -0.75,-0.3358 -0.75,-0.75zM4,11c0.55228,0 1,0.4477 1,1v0.01c0,0.5523 -0.44772,1 -1,1c-0.55228,0 -1,-0.4477 -1,-1v-0.01c0,-0.5523 0.44772,-1 1,-1zM5,18.01c0,0.5523 -0.44772,1 -1,1c-0.55228,0 -1,-0.4477 -1,-1v-0.01c0,-0.5523 0.44772,-1 1,-1c0.55228,0 1,0.4477 1,1z" fill="#002B51"/>
</svg>
