<svg width="24" height="24" viewBox="0 0 24 24" fill="none" xmlns="http://www.w3.org/2000/svg">
<path d="M8,13.25c0.46413,0 0.90912,0.1845 1.2373,0.5127c0.32819,0.3282 0.5127,0.7732 0.5127,1.2373v4c0,0.4641 -0.18451,0.9091 -0.5127,1.2373c-0.32819,0.3282 -0.77317,0.5127 -1.2373,0.5127h-4c-0.46413,0 -0.90911,-0.1845 -1.2373,-0.5127c-0.32819,-0.3282 -0.5127,-0.7732 -0.5127,-1.2373v-4c0,-0.4641 0.18451,-0.9091 0.5127,-1.2373c0.32818,-0.3282 0.77317,-0.5127 1.2373,-0.5127zM18,17.75c0.6904,0 1.25,0.5596 1.25,1.25c0,0.6904 -0.5596,1.25 -1.25,1.25h-5c-0.6904,0 -1.25,-0.5596 -1.25,-1.25c0,-0.6904 0.5596,-1.25 1.25,-1.25zM21,13.75c0.6904,0 1.25,0.5596 1.25,1.25c0,0.6904 -0.5596,1.25 -1.25,1.25h-8c-0.6904,0 -1.25,-0.5596 -1.25,-1.25c0,-0.6904 0.5596,-1.25 1.25,-1.25zM8,3.25c0.46413,0 0.90912,0.18451 1.2373,0.5127c0.32819,0.32818 0.5127,0.77317 0.5127,1.2373v4c0,0.46413 -0.18451,0.90912 -0.5127,1.2373c-0.32818,0.3282 -0.77317,0.5127 -1.2373,0.5127h-4c-0.46413,0 -0.90912,-0.1845 -1.2373,-0.5127c-0.32819,-0.32818 -0.5127,-0.77317 -0.5127,-1.2373v-4c0,-0.46413 0.18451,-0.90912 0.5127,-1.2373c0.32818,-0.32819 0.77317,-0.5127 1.2373,-0.5127zM18,7.75c0.6904,0 1.25,0.55964 1.25,1.25c0,0.69036 -0.5596,1.25 -1.25,1.25h-5c-0.6904,0 -1.25,-0.55964 -1.25,-1.25c0,-0.69036 0.5596,-1.25 1.25,-1.25zM21,3.75c0.6904,0 1.25,0.55964 1.25,1.25c0,0.69036 -0.5596,1.25 -1.25,1.25h-8c-0.6904,0 -1.25,-0.55964 -1.25,-1.25c0,-0.69036 0.5596,-1.25 1.25,-1.25z" fill="#002B51"/>
</svg>
