<svg width="24" height="24" viewBox="0 0 24 24" fill="none" xmlns="http://www.w3.org/2000/svg">
<path d="M7.99994,13.25c0.46413,0 0.90912,0.1845 1.2373,0.5127c0.32819,0.3282 0.5127,0.7732 0.5127,1.2373v4c0,0.4641 -0.18451,0.9091 -0.5127,1.2373c-0.32819,0.3282 -0.77317,0.5127 -1.2373,0.5127h-4c-0.46413,0 -0.90912,-0.1845 -1.23731,-0.5127c-0.28718,-0.2872 -0.46414,-0.6638 -0.5039,-1.0644l-0.00879,-0.1729v-4c0,-0.4641 0.18451,-0.9091 0.51269,-1.2373c0.32819,-0.3282 0.77318,-0.5127 1.23731,-0.5127zM17.9999,18.25c0.4143,0 0.75,0.3358 0.75,0.75c0,0.4142 -0.3357,0.75 -0.75,0.75h-5c-0.4142,0 -0.75,-0.3358 -0.75,-0.75c0,-0.4142 0.3358,-0.75 0.75,-0.75zM3.99994,14.75c-0.0663,0 -0.12987,0.0264 -0.17676,0.0732c-0.04688,0.0469 -0.07324,0.1105 -0.07324,0.1768v4l0.00488,0.0488c0.00959,0.0481 0.03316,0.0928 0.06836,0.128c0.04688,0.0468 0.11045,0.0732 0.17676,0.0732h4c0.0663,0 0.12987,-0.0264 0.17676,-0.0732c0.04688,-0.0469 0.07324,-0.1105 0.07324,-0.1768v-4c0,-0.0663 -0.02636,-0.1299 -0.07324,-0.1768c-0.04689,-0.0468 -0.11046,-0.0732 -0.17676,-0.0732zM20.9999,14.25c0.4143,0 0.75,0.3358 0.75,0.75c0,0.4142 -0.3357,0.75 -0.75,0.75h-8c-0.4142,0 -0.75,-0.3358 -0.75,-0.75c0,-0.4142 0.3358,-0.75 0.75,-0.75zM7.99994,3.25c0.46413,0 0.90912,0.18451 1.2373,0.5127c0.32819,0.32818 0.5127,0.77317 0.5127,1.2373v4c0,0.46413 -0.18451,0.90912 -0.5127,1.2373c-0.32818,0.3282 -0.77317,0.5127 -1.2373,0.5127h-4c-0.46413,0 -0.90912,-0.1845 -1.23731,-0.5127c-0.28718,-0.28718 -0.46414,-0.6638 -0.5039,-1.06445l-0.00879,-0.17285v-4c0,-0.46413 0.18451,-0.90912 0.51269,-1.2373c0.32819,-0.32819 0.77318,-0.5127 1.23731,-0.5127zM17.9999,8.25c0.4143,0 0.75,0.33579 0.75,0.75c0,0.41421 -0.3357,0.75 -0.75,0.75h-5c-0.4142,0 -0.75,-0.33579 -0.75,-0.75c0,-0.41421 0.3358,-0.75 0.75,-0.75zM3.99994,4.75c-0.0663,0 -0.12987,0.02636 -0.17676,0.07324c-0.04688,0.04689 -0.07324,0.11046 -0.07324,0.17676v4l0.00488,0.04883c0.00959,0.04811 0.03316,0.09273 0.06836,0.12793c0.04689,0.04688 0.11046,0.07324 0.17676,0.07324h4c0.0663,0 0.12987,-0.02636 0.17676,-0.07324c0.04688,-0.04689 0.07324,-0.11046 0.07324,-0.17676v-4c0,-0.0663 -0.02636,-0.12987 -0.07324,-0.17676c-0.04689,-0.04688 -0.11046,-0.07324 -0.17676,-0.07324zM20.9999,4.25c0.4143,0 0.75,0.33579 0.75,0.75c0,0.41421 -0.3357,0.75 -0.75,0.75h-8c-0.4142,0 -0.75,-0.33579 -0.75,-0.75c0,-0.41421 0.3358,-0.75 0.75,-0.75z" fill="#002B51"/>
</svg>
