<svg width="24" height="24" viewBox="0 0 24 24" fill="none" xmlns="http://www.w3.org/2000/svg">
<path fill-rule="evenodd" clip-rule="evenodd" d="M5.88388,7.88388c-0.48815,0.48816 -1.27961,0.48816 -1.76776,0l-1.5,-1.5c-0.48816,-0.48815 -0.48816,-1.27961 0,-1.76776c0.48815,-0.48816 1.27961,-0.48816 1.76776,0l0.61612,0.61611l1.61612,-1.61611c0.48815,-0.48816 1.27961,-0.48816 1.76776,0c0.48816,0.48815 0.48816,1.27961 0,1.76776zM5.88388,13.8839c-0.48815,0.4881 -1.27961,0.4881 -1.76776,0l-1.5,-1.5c-0.48816,-0.4882 -0.48816,-1.2796 0,-1.7678c0.48815,-0.4881 1.27961,-0.4881 1.76776,0l0.61612,0.6161l1.61612,-1.61608c0.48815,-0.48816 1.27961,-0.48816 1.76776,0c0.48816,0.48818 0.48816,1.27958 0,1.76778zM8.38388,15.6161c0.48816,0.4882 0.48816,1.2796 0,1.7678l-2.5,2.5c-0.48815,0.4881 -1.27961,0.4881 -1.76776,0l-1.5,-1.5c-0.48816,-0.4882 -0.48816,-1.2796 0,-1.7678c0.48815,-0.4881 1.27961,-0.4881 1.76776,0l0.61612,0.6161l1.61612,-1.6161c0.48815,-0.4881 1.27961,-0.4881 1.76776,0zM20,4.75c0.6904,0 1.25,0.55964 1.25,1.25c0,0.69036 -0.5596,1.25 -1.25,1.25h-8c-0.6904,0 -1.25,-0.55964 -1.25,-1.25c0,-0.69036 0.5596,-1.25 1.25,-1.25zM10.75,12c0,-0.6904 0.5596,-1.25 1.25,-1.25h8c0.6904,0 1.25,0.5596 1.25,1.25c0,0.6904 -0.5596,1.25 -1.25,1.25h-8c-0.6904,0 -1.25,-0.5596 -1.25,-1.25zM20,16.75c0.6904,0 1.25,0.5596 1.25,1.25c0,0.6904 -0.5596,1.25 -1.25,1.25h-8c-0.6904,0 -1.25,-0.5596 -1.25,-1.25c0,-0.6904 0.5596,-1.25 1.25,-1.25z" fill="#002B51"/>
</svg>
