<svg width="24" height="24" viewBox="0 0 24 24" fill="none" xmlns="http://www.w3.org/2000/svg">
<path d="M12,1.25c0.4142,0 0.75,0.33579 0.75,0.75v2.28613c3.6814,0.35354 6.6093,3.28244 6.9629,6.96387h2.2871c0.4142,0 0.75,0.3358 0.75,0.75c0,0.4142 -0.3358,0.75 -0.75,0.75h-2.2871c-0.3536,3.6814 -3.2815,6.6093 -6.9629,6.9629v2.2871c0,0.4142 -0.3358,0.75 -0.75,0.75c-0.4142,0 -0.75,-0.3358 -0.75,-0.75v-2.2871c-3.6814,-0.3536 -6.60932,-3.2815 -6.96289,-6.9629h-2.28711c-0.41421,0 -0.75,-0.3358 -0.75,-0.75c0,-0.4142 0.33579,-0.75 0.75,-0.75h2.28711c0.35358,-3.68143 3.28145,-6.61033 6.96289,-6.96387v-2.28613c0,-0.41421 0.3358,-0.75 0.75,-0.75zM12,5.75c-3.45178,0 -6.25,2.79822 -6.25,6.25c0,3.4518 2.79822,6.25 6.25,6.25c3.4518,0 6.25,-2.7982 6.25,-6.25c0,-3.45178 -2.7982,-6.25 -6.25,-6.25z" fill="#002B51"/>
</svg>
