<svg width="24" height="24" viewBox="0 0 24 24" fill="none" xmlns="http://www.w3.org/2000/svg">
<path fill-rule="evenodd" clip-rule="evenodd" d="M12.75 2C12.75 1.58579 12.4142 1.25 12 1.25C11.5858 1.25 11.25 1.58579 11.25 2V4.28582C7.5685 4.63935 4.63935 7.5685 4.28582 11.25H2C1.58579 11.25 1.25 11.5858 1.25 12C1.25 12.4142 1.58579 12.75 2 12.75H4.28582C4.63935 16.4315 7.5685 19.3607 11.25 19.7142V22C11.25 22.4142 11.5858 22.75 12 22.75C12.4142 22.75 12.75 22.4142 12.75 22V19.7142C16.4315 19.3607 19.3606 16.4315 19.7142 12.75H20H22C22.4142 12.75 22.75 12.4142 22.75 12C22.75 11.5858 22.4142 11.25 22 11.25H20H19.7142C19.3606 7.5685 16.4315 4.63935 12.75 4.28582V2Z" fill="#002B51"/>
</svg>
