<svg width="24" height="24" viewBox="0 0 24 24" fill="none" xmlns="http://www.w3.org/2000/svg">
<path fill-rule="evenodd" clip-rule="evenodd" d="M12,17.75c3.1756,0 5.75,-2.5744 5.75,-5.75c0,-3.17564 -2.5744,-5.75 -5.75,-5.75c-3.17564,0 -5.75,2.57436 -5.75,5.75c0,3.1756 2.57436,5.75 5.75,5.75zM2,13.25c-0.69036,0 -1.25,-0.5596 -1.25,-1.25c0,-0.6904 0.55964,-1.25 1.25,-1.25h1.84408c0.54042,-3.55555 3.35037,-6.3655 6.90592,-6.90592v-1.84408c0,-0.69036 0.5596,-1.25 1.25,-1.25c0.6904,0 1.25,0.55964 1.25,1.25v1.84408c3.5555,0.54042 6.3655,3.35037 6.9059,6.90592h1.8441c0.6904,0 1.25,0.5596 1.25,1.25c0,0.6904 -0.5596,1.25 -1.25,1.25h-1.8441c-0.5404,3.5555 -3.3504,6.3655 -6.9059,6.9059v1.8441c0,0.6904 -0.5596,1.25 -1.25,1.25c-0.6904,0 -1.25,-0.5596 -1.25,-1.25v-1.8441c-3.55555,-0.5404 -6.3655,-3.3504 -6.90592,-6.9059z" fill="#002B51"/>
</svg>
