<svg width="24" height="24" viewBox="0 0 24 24" fill="none" xmlns="http://www.w3.org/2000/svg">
<path fill-rule="evenodd" clip-rule="evenodd" d="M12,1.25c0.4142,0 0.75,0.33579 0.75,0.75v2.28582c3.6815,0.35353 6.6106,3.28268 6.9642,6.96418h0.2858h2c0.4142,0 0.75,0.3358 0.75,0.75c0,0.4142 -0.3358,0.75 -0.75,0.75h-2h-0.2858c-0.3536,3.6815 -3.2827,6.6107 -6.9642,6.9642v2.2858c0,0.4142 -0.3358,0.75 -0.75,0.75c-0.4142,0 -0.75,-0.3358 -0.75,-0.75v-2.2858c-3.6815,-0.3535 -6.61065,-3.2827 -6.96418,-6.9642h-2.28582c-0.41421,0 -0.75,-0.3358 -0.75,-0.75c0,-0.4142 0.33579,-0.75 0.75,-0.75h2.28582c0.35353,-3.6815 3.28268,-6.61065 6.96418,-6.96418v-2.28582c0,-0.41421 0.3358,-0.75 0.75,-0.75zM18.25,12c0,-3.45178 -2.7982,-6.25 -6.25,-6.25c-3.45178,0 -6.25,2.79822 -6.25,6.25c0,3.4518 2.79822,6.25 6.25,6.25c3.4518,0 6.25,-2.7982 6.25,-6.25zM12,14.25c1.2426,0 2.25,-1.0074 2.25,-2.25c0,-1.2426 -1.0074,-2.25 -2.25,-2.25c-1.2426,0 -2.25,1.0074 -2.25,2.25c0,1.2426 1.0074,2.25 2.25,2.25zM15.75,12c0,2.0711 -1.6789,3.75 -3.75,3.75c-2.07107,0 -3.75,-1.6789 -3.75,-3.75c0,-2.07107 1.67893,-3.75 3.75,-3.75c2.0711,0 3.75,1.67893 3.75,3.75z" fill="#002B51"/>
</svg>
