<svg width="24" height="24" viewBox="0 0 24 24" fill="none" xmlns="http://www.w3.org/2000/svg">
<path d="M12,0.75c0.6904,0 1.25,0.55964 1.25,1.25v1.84375c3.5556,0.5404 6.3658,3.35066 6.9062,6.90625h1.8438c0.6904,0 1.25,0.5596 1.25,1.25c0,0.6904 -0.5596,1.25 -1.25,1.25h-1.8438c-0.5403,3.5555 -3.3507,6.3648 -6.9062,6.9053v1.8447c0,0.6904 -0.5596,1.25 -1.25,1.25c-0.6904,0 -1.25,-0.5596 -1.25,-1.25v-1.8447c-3.55552,-0.5405 -6.36585,-3.3498 -6.90625,-6.9053h-1.84375c-0.69036,0 -1.25,-0.5596 -1.25,-1.25c0,-0.6904 0.55964,-1.25 1.25,-1.25h1.84375c0.5404,-3.55559 3.35066,-6.36585 6.90625,-6.90625v-1.84375c0,-0.69036 0.5596,-1.25 1.25,-1.25zM12,6.25c-3.17564,0 -5.75,2.57436 -5.75,5.75c0,3.1756 2.57436,5.75 5.75,5.75c3.1756,0 5.75,-2.5744 5.75,-5.75c0,-3.17564 -2.5744,-5.75 -5.75,-5.75z" fill="#002B51"/>
</svg>
