<svg width="24" height="24" viewBox="0 0 24 24" fill="none" xmlns="http://www.w3.org/2000/svg">
<path fill-rule="evenodd" clip-rule="evenodd" d="M12,18.25c3.4518,0 6.25,-2.7982 6.25,-6.25c0,-3.45178 -2.7982,-6.25 -6.25,-6.25c-3.45178,0 -6.25,2.79822 -6.25,6.25c0,3.4518 2.79822,6.25 6.25,6.25zM2,12.75c-0.41421,0 -0.75,-0.3358 -0.75,-0.75c0,-0.4142 0.33579,-0.75 0.75,-0.75h2.28582c0.35353,-3.6815 3.28268,-6.61065 6.96418,-6.96418v-2.28582c0,-0.41421 0.3358,-0.75 0.75,-0.75c0.4142,0 0.75,0.33579 0.75,0.75v2.28582c3.6815,0.35353 6.6107,3.28268 6.9642,6.96418h2.2858c0.4142,0 0.75,0.3358 0.75,0.75c0,0.4142 -0.3358,0.75 -0.75,0.75h-2.2858c-0.3535,3.6815 -3.2827,6.6107 -6.9642,6.9642v2.2858c0,0.4142 -0.3358,0.75 -0.75,0.75c-0.4142,0 -0.75,-0.3358 -0.75,-0.75v-2.2858c-3.6815,-0.3535 -6.61065,-3.2827 -6.96418,-6.9642z" fill="#002B51"/>
</svg>
