<svg width="24" height="24" viewBox="0 0 24 24" fill="none" xmlns="http://www.w3.org/2000/svg">
<path fill-rule="evenodd" clip-rule="evenodd" d="M7.25,7c0,-2.62335 2.12665,-4.75 4.75,-4.75c2.6234,0 4.75,2.12665 4.75,4.75v2.25h0.25c1.5188,0 2.75,1.2312 2.75,2.75v7c0,1.5188 -1.2312,2.75 -2.75,2.75h-10c-1.51878,0 -2.75,-1.2312 -2.75,-2.75v-7c0,-1.5188 1.23122,-2.75 2.75,-2.75h0.25zM12,3.75c-1.7949,0 -3.25,1.45507 -3.25,3.25v2.25h6.5v-2.25c0,-1.79493 -1.4551,-3.25 -3.25,-3.25zM5.75,12v7c0,0.6904 0.55964,1.25 1.25,1.25h10c0.6904,0 1.25,-0.5596 1.25,-1.25v-7c0,-0.6904 -0.5596,-1.25 -1.25,-1.25h-0.25h-0.75h-8h-0.75h-0.25c-0.69036,0 -1.25,0.5596 -1.25,1.25zM14,14.5c0,0.7403 -0.4022,1.3866 -1,1.7324v1.7676c0,0.5523 -0.4477,1 -1,1c-0.5523,0 -1,-0.4477 -1,-1v-1.7676c-0.5978,-0.3458 -1,-0.9921 -1,-1.7324c0,-1.1046 0.8954,-2 2,-2c1.1046,0 2,0.8954 2,2z" fill="#002B51"/>
</svg>
