<svg width="24" height="24" viewBox="0 0 24 24" fill="none" xmlns="http://www.w3.org/2000/svg">
<path d="M12,2.25c2.6234,0 4.75,2.12665 4.75,4.75v2.25h0.25c1.5188,0 2.75,1.2312 2.75,2.75v7c0,1.5188 -1.2312,2.75 -2.75,2.75h-10c-1.51878,0 -2.75,-1.2312 -2.75,-2.75v-7c0,-1.5188 1.23122,-2.75 2.75,-2.75h0.25v-2.25c0,-2.62335 2.12665,-4.75 4.75,-4.75zM7,10.75c-0.69036,0 -1.25,0.5596 -1.25,1.25v7c0,0.6904 0.55964,1.25 1.25,1.25h10c0.6904,0 1.25,-0.5596 1.25,-1.25v-7c0,-0.6904 -0.5596,-1.25 -1.25,-1.25zM12,3.75c-1.7949,0 -3.25,1.45507 -3.25,3.25v2.25h6.5v-2.25c0,-1.79493 -1.4551,-3.25 -3.25,-3.25z" fill="#002B51"/>
</svg>
