<svg width="24" height="24" viewBox="0 0 24 24" fill="none" xmlns="http://www.w3.org/2000/svg">
<path fill-rule="evenodd" clip-rule="evenodd" d="M13.6324 2.5393C12.6664 2.18581 11.6118 2.15543 10.6271 2.45273C9.64239 2.75003 8.78079 3.35895 8.17184 4.18794C7.5637 5.01582 7.24035 6.0185 7.25022 7.04562L7.25006 9.25H7C5.48122 9.25 4.25 10.4812 4.25 12V19C4.25 20.5188 5.48122 21.75 7 21.75H17C18.5188 21.75 19.75 20.5188 19.75 19V12C19.75 10.4812 18.5188 9.25 17 9.25H8.75006L8.75022 7.04194H8.75026L8.75018 7.03403C8.74281 6.33029 8.96408 5.64316 9.38073 5.07596C9.79738 4.50876 10.3869 4.09213 11.0606 3.88871C11.7344 3.68529 12.456 3.70608 13.1169 3.94794C13.7778 4.18981 14.3424 4.63968 14.7257 5.22992C14.9513 5.57731 15.4158 5.67604 15.7632 5.45045C16.1105 5.22485 16.2093 4.76035 15.9837 4.41297C15.4235 3.5503 14.5983 2.8928 13.6324 2.5393ZM8.00006 10.75C8.00002 10.75 7.99998 10.75 7.99994 10.75H7C6.30964 10.75 5.75 11.3096 5.75 12V19C5.75 19.6904 6.30964 20.25 7 20.25H17C17.6904 20.25 18.25 19.6904 18.25 19V12C18.25 11.3096 17.6904 10.75 17 10.75H8.00006Z" fill="#002B51"/>
</svg>
