<svg width="24" height="24" viewBox="0 0 24 24" fill="none" xmlns="http://www.w3.org/2000/svg">
<path fill-rule="evenodd" clip-rule="evenodd" d="M15.25,7c0,-1.79493 -1.4551,-3.25 -3.25,-3.25c-1.7949,0 -3.25,1.45507 -3.25,3.25v2.25h6.5zM12,2.25c2.6234,0 4.75,2.12665 4.75,4.75v2.25h0.25c1.5188,0 2.75,1.2312 2.75,2.75v7c0,1.5188 -1.2312,2.75 -2.75,2.75h-10c-1.51878,0 -2.75,-1.2312 -2.75,-2.75v-7c0,-1.5188 1.23122,-2.75 2.75,-2.75h0.25v-2.25c0,-2.62335 2.12665,-4.75 4.75,-4.75z" fill="#002B51"/>
</svg>
