<svg width="24" height="24" viewBox="0 0 24 24" fill="none" xmlns="http://www.w3.org/2000/svg">
<path fill-rule="evenodd" clip-rule="evenodd" d="M7.25 7C7.25 4.37665 9.37665 2.25 12 2.25C14.6234 2.25 16.75 4.37665 16.75 7V9.25H17C18.5188 9.25 19.75 10.4812 19.75 12V19C19.75 20.5188 18.5188 21.75 17 21.75H7C5.48122 21.75 4.25 20.5188 4.25 19V12C4.25 10.4812 5.48122 9.25 7 9.25H7.25V7ZM15.25 7V9.25H8.75V7C8.75 5.20507 10.2051 3.75 12 3.75C13.7949 3.75 15.25 5.20507 15.25 7ZM10 14.5C10 13.3954 10.8954 12.5 12 12.5C13.1046 12.5 14 13.3954 14 14.5C14 15.2403 13.5978 15.8866 13 16.2324V18C13 18.5523 12.5523 19 12 19C11.4477 19 11 18.5523 11 18V16.2324C10.4022 15.8866 10 15.2403 10 14.5Z" fill="#002B51"/>
</svg>
