<svg width="24" height="24" viewBox="0 0 24 24" fill="none" xmlns="http://www.w3.org/2000/svg">
<path fill-rule="evenodd" clip-rule="evenodd" d="M15.9837,4.41297c0.2256,0.34738 0.1268,0.81188 -0.2205,1.03748c-0.3474,0.22559 -0.8119,0.12686 -1.0375,-0.22053c-0.3833,-0.59024 -0.9479,-1.04011 -1.6088,-1.28198c-0.6609,-0.24186 -1.3825,-0.26265 -2.0563,-0.05923c-0.6737,0.20342 -1.26322,0.62005 -1.67987,1.18725c-0.41665,0.5672 -0.63792,1.25433 -0.63055,1.95807l0.00008,0.00791h-0.00004l-0.00016,2.20806h8.24994c1.5188,0 2.75,1.2312 2.75,2.75v7c0,1.5188 -1.2312,2.75 -2.75,2.75h-10c-1.51878,0 -2.75,-1.2312 -2.75,-2.75v-7c0,-1.5188 1.23122,-2.75 2.75,-2.75h0.25006l0.00016,-2.20438c-0.00987,-1.02712 0.31348,-2.0298 0.92162,-2.85768c0.60895,-0.82899 1.47055,-1.43791 2.45526,-1.73521c0.9847,-0.2973 2.0393,-0.26692 3.0053,0.08657c0.9659,0.3535 1.7911,1.011 2.3513,1.87367z" fill="#002B51"/>
</svg>
