<svg width="24" height="24" viewBox="0 0 24 24" fill="none" xmlns="http://www.w3.org/2000/svg">
<path fill-rule="evenodd" clip-rule="evenodd" d="M8.75,9.24988h8.25c1.5188,0 2.75,1.23122 2.75,2.75002v7c0,1.5188 -1.2312,2.75 -2.75,2.75h-10c-1.51878,0 -2.75,-1.2312 -2.75,-2.75v-7c0,-1.5188 1.23122,-2.75002 2.75,-2.75002h0.25v-2.20801c-0.00907,-1.02585 0.31445,-2.02758 0.92188,-2.85449c0.60888,-0.82876 1.47058,-1.43708 2.45512,-1.73437c0.9847,-0.2973 2.0398,-0.26756 3.0058,0.08593c0.9056,0.33148 1.6874,0.93041 2.2432,1.71485l0.1074,0.15918l0.0391,0.0664c0.1736,0.33807 0.0658,0.75925 -0.2598,0.97071c-0.3257,0.21136 -0.7541,0.13813 -0.9922,-0.15821l-0.0449,-0.0625l-0.1524,-0.21386c-0.3738,-0.48475 -0.8778,-0.85573 -1.456,-1.06739c-0.6609,-0.24186 -1.3829,-0.26298 -2.0567,-0.05957c-0.6737,0.20343 -1.26301,0.62032 -1.67964,1.1875c-0.41661,0.56719 -0.63823,1.2543 -0.63086,1.95801z" fill="#002B51"/>
</svg>
