<svg width="24" height="24" viewBox="0 0 24 24" fill="none" xmlns="http://www.w3.org/2000/svg">
<path fill-rule="evenodd" clip-rule="evenodd" d="M16.75,7v2.25h0.25c1.5188,0 2.75,1.2312 2.75,2.75v7c0,1.5188 -1.2312,2.75 -2.75,2.75h-10c-1.51878,0 -2.75,-1.2312 -2.75,-2.75v-7c0,-1.5188 1.23122,-2.75 2.75,-2.75h0.25v-2.25c0,-2.62335 2.12665,-4.75 4.75,-4.75c2.6234,0 4.75,2.12665 4.75,4.75zM15.25,9.25v-2.25c0,-1.79493 -1.4551,-3.25 -3.25,-3.25c-1.7949,0 -3.25,1.45507 -3.25,3.25v2.25zM7.25,10.75h-0.25c-0.69036,0 -1.25,0.5596 -1.25,1.25v7c0,0.6904 0.55964,1.25 1.25,1.25h10c0.6904,0 1.25,-0.5596 1.25,-1.25v-7c0,-0.6904 -0.5596,-1.25 -1.25,-1.25h-0.25h-0.75h-8zM10.25,15.5c0,-0.9665 0.7835,-1.75 1.75,-1.75c0.9665,0 1.75,0.7835 1.75,1.75c0,0.9665 -0.7835,1.75 -1.75,1.75c-0.9665,0 -1.75,-0.7835 -1.75,-1.75z" fill="#002B51"/>
</svg>
