<svg width="24" height="24" viewBox="0 0 24 24" fill="none" xmlns="http://www.w3.org/2000/svg">
<path fill-rule="evenodd" clip-rule="evenodd" d="M8.9462,3.50075c-0.10721,-0.4001 0.13023,-0.81135 0.53033,-0.91856c1.44377,-0.38685 2.95707,-0.43659 4.42307,-0.14537c1.4661,0.29121 2.8455,0.91557 4.0318,1.82485c1.1863,0.90927 2.1476,2.07911 2.8097,3.41912c0.6622,1.34 1.0073,2.81431 1.0089,4.30901c0.0016,1.4946 -0.3405,2.9696 -0.9998,4.311c-0.6594,1.3414 -1.6182,2.5133 -2.8026,3.425c-1.1844,0.9118 -2.5625,1.539 -4.0279,1.8333c-1.4654,0.2943 -2.9789,0.2477 -4.42343,-0.1361c-0.40032,-0.1064 -0.63862,-0.5171 -0.53225,-0.9174c0.10636,-0.4004 0.51712,-0.6387 0.91744,-0.5323c1.22234,0.3248 2.50294,0.3642 3.74284,0.1152c1.24,-0.249 2.4061,-0.7798 3.4083,-1.5513c1.0021,-0.7715 1.8135,-1.763 2.3714,-2.898c0.5579,-1.1351 0.8473,-2.3832 0.846,-3.6479c-0.0013,-1.2647 -0.2934,-2.51217 -0.8537,-3.64603c-0.5602,-1.13385 -1.3737,-2.12371 -2.3774,-2.8931c-1.0038,-0.76938 -2.171,-1.29769 -3.4115,-1.5441c-1.2405,-0.24641 -2.521,-0.20432 -3.74264,0.12301c-0.4001,0.10721 -0.81135,-0.13023 -0.91856,-0.53033zM3,12.75c-0.41421,0 -0.75,-0.3358 -0.75,-0.75c0,-0.4142 0.33579,-0.75 0.75,-0.75h8.1893l-2.71963,-2.7197c-0.29289,-0.29289 -0.29289,-0.76777 0,-1.06066c0.29289,-0.29289 0.76777,-0.29289 1.06066,0l3.99997,3.99996c0.2929,0.2929 0.2929,0.7678 0,1.0607l-3.99997,4c-0.29289,0.2929 -0.76777,0.2929 -1.06066,0c-0.29289,-0.2929 -0.29289,-0.7678 0,-1.0607l2.71963,-2.7196z" fill="#002B51"/>
</svg>
