<svg width="24" height="24" viewBox="0 0 24 24" fill="none" xmlns="http://www.w3.org/2000/svg">
<path fill-rule="evenodd" clip-rule="evenodd" d="M8.46324,3.63019c-0.17868,-0.66683 0.21705,-1.35225 0.88388,-1.53093c1.51778,-0.40669 3.10878,-0.45898 4.64998,-0.15283c1.5412,0.30614 2.9914,0.96253 4.2385,1.91843c1.2471,0.95591 2.2577,2.18574 2.9538,3.59446c0.6961,1.40873 1.059,2.95868 1.0606,4.52998c0.0017,1.5713 -0.358,3.1219 -1.0511,4.5321c-0.6931,1.4102 -1.7012,2.6421 -2.9463,3.6007c-1.2451,0.9585 -2.6939,1.6179 -4.2345,1.9273c-1.5405,0.3093 -3.1316,0.2604 -4.65024,-0.1431c-0.6672,-0.1773 -1.06437,-0.8619 -0.88709,-1.5291c0.17729,-0.6672 0.86188,-1.0644 1.52913,-0.8871c1.1482,0.3051 2.3512,0.3421 3.516,0.1082c1.1648,-0.2339 2.2602,-0.7325 3.2017,-1.4572c0.9414,-0.7248 1.7036,-1.6562 2.2277,-2.7225c0.524,-1.0662 0.796,-2.2386 0.7947,-3.4267c-0.0012,-1.1881 -0.2756,-2.35996 -0.8019,-3.4251c-0.5263,-1.06513 -1.2905,-1.995 -2.2334,-2.71776c-0.9429,-0.72275 -2.0394,-1.21905 -3.2047,-1.45052c-1.1653,-0.23148 -2.3682,-0.19194 -3.51583,0.11555c-0.66683,0.17868 -1.35226,-0.21705 -1.53093,-0.88388zM3,13.25c-0.69036,0 -1.25,-0.5597 -1.25,-1.25c0,-0.6904 0.55964,-1.25 1.25,-1.25h6.98223l-1.86611,-1.86613c-0.48816,-0.48816 -0.48816,-1.27961 0,-1.76777c0.48815,-0.48815 1.27961,-0.48815 1.76776,0l4.00002,4c0.4881,0.4882 0.4881,1.2796 0,1.7678l-4.00002,4c-0.48815,0.4881 -1.27961,0.4881 -1.76776,0c-0.48816,-0.4882 -0.48816,-1.2796 0,-1.7678l1.86611,-1.8661z" fill="#002B51"/>
</svg>
