<svg width="24" height="24" viewBox="0 0 24 24" fill="none" xmlns="http://www.w3.org/2000/svg">
<path d="M9.47656,2.58226c1.44364,-0.3868 2.95694,-0.43665 4.42284,-0.14551c1.466,0.29121 2.846,0.91592 4.0322,1.8252c1.1862,0.90923 2.1475,2.07904 2.8096,3.41894l0.1201,0.25293c0.5836,1.27161 0.8872,2.65538 0.8887,4.05668l-0.0039,0.2793c-0.0361,1.3053 -0.3338,2.5903 -0.876,3.7783l-0.1201,0.2529c-0.6181,1.2575 -1.4994,2.3661 -2.583,3.251l-0.2197,0.1738c-1.1843,0.9117 -2.5621,1.5397 -4.0274,1.834c-1.3739,0.2759 -2.7903,0.252 -4.15232,-0.0684l-0.27149,-0.0683l-0.07324,-0.0235c-0.35536,-0.1343 -0.5585,-0.5184 -0.45898,-0.8935c0.09974,-0.3754 0.46732,-0.609 0.84277,-0.5488l0.0752,0.0166l0.46096,0.1084c1.0806,0.2216 2.1965,0.2246 3.2812,0.0068c1.2399,-0.249 2.4061,-0.7803 3.4082,-1.5518l0.3672,-0.2998c0.8341,-0.722 1.5168,-1.6047 2.0049,-2.5976l0.1963,-0.4317c0.3677,-0.8711 0.5834,-1.799 0.6367,-2.7431l0.0127,-0.4737c-0.0012,-1.1066 -0.2249,-2.2001 -0.6562,-3.21578l-0.1973,-0.42969c-0.5603,-1.13385 -1.3742,-2.12417 -2.3779,-2.89355c-1.0038,-0.76929 -2.1708,-1.29755 -3.4112,-1.54395c-1.2405,-0.24641 -2.5215,-0.20428 -3.74314,0.12305c-0.39988,0.10686 -0.81072,-0.13046 -0.91797,-0.53027c-0.10721,-0.4001 0.13017,-0.81174 0.53027,-0.91895zM8.46973,7.46996c0.2746,-0.2746 0.70932,-0.29207 1.0039,-0.05176l0.05664,0.05176l4.00003,4.00004l0.0517,0.0566c0.2403,0.2946 0.2229,0.7293 -0.0517,1.0039l-4.00003,4c-0.29289,0.2929 -0.76765,0.2929 -1.06054,0c-0.2929,-0.2929 -0.2929,-0.7677 0,-1.0605l2.71977,-2.7198h-8.1895c-0.41421,0 -0.75,-0.3358 -0.75,-0.75c0,-0.4142 0.33579,-0.75 0.75,-0.75h8.1895l-2.71977,-2.7197l-0.05176,-0.05664c-0.24031,-0.29458 -0.22285,-0.7293 0.05176,-1.0039z" fill="#002B51"/>
</svg>
