<svg width="24" height="24" viewBox="0 0 24 24" fill="none" xmlns="http://www.w3.org/2000/svg">
<path d="M9.47656,2.58203c1.44364,-0.3868 2.95694,-0.43665 4.42284,-0.14551c1.466,0.29121 2.846,0.91592 4.0322,1.8252c1.1862,0.90923 2.1475,2.07904 2.8096,3.41894c0.6621,1.34001 1.0072,2.81494 1.0088,4.30954c0.0015,1.4945 -0.3407,2.9693 -1,4.3106c-0.6593,1.3414 -1.6184,2.513 -2.8027,3.4248c-1.1843,0.9117 -2.5621,1.5397 -4.0274,1.834c-1.4654,0.2943 -2.9793,0.2471 -4.42381,-0.1367c-0.40011,-0.1065 -0.63839,-0.5169 -0.53222,-0.917c0.09974,-0.3754 0.46732,-0.609 0.84277,-0.5489l0.0752,0.0166l0.46096,0.1084c1.0806,0.2216 2.1965,0.2246 3.2812,0.0069c1.2399,-0.249 2.4061,-0.7804 3.4082,-1.5518c1.0021,-0.7714 1.8142,-1.7625 2.3721,-2.8975c0.5579,-1.135 0.847,-2.3837 0.8457,-3.6484c-0.0013,-1.2645 -0.2934,-2.51179 -0.8535,-3.6455c-0.5603,-1.13385 -1.3742,-2.12417 -2.3779,-2.89355c-1.0038,-0.76929 -2.1708,-1.29755 -3.4112,-1.54395c-1.2405,-0.24641 -2.5215,-0.20428 -3.74314,0.12305c-0.39988,0.10686 -0.81072,-0.13046 -0.91797,-0.53027c-0.10721,-0.4001 0.13017,-0.81174 0.53027,-0.91895zM8.46973,7.46973c0.29289,-0.29289 0.76765,-0.29289 1.06054,0l4.00003,3.99997c0.2929,0.2929 0.2929,0.7677 0,1.0606l-4.00003,4c-0.29289,0.2929 -0.76765,0.2929 -1.06054,0c-0.2929,-0.2929 -0.2929,-0.7677 0,-1.0606l2.71977,-2.7197h-8.1895c-0.41421,0 -0.75,-0.3358 -0.75,-0.75c0,-0.4142 0.33579,-0.75 0.75,-0.75h8.1895l-2.71977,-2.71973l-0.05176,-0.05664c-0.24031,-0.29458 -0.22285,-0.7293 0.05176,-1.0039z" fill="#002B51"/>
</svg>
