<svg width="24" height="24" viewBox="0 0 24 24" fill="none" xmlns="http://www.w3.org/2000/svg">
<path d="M9.34668,2.09955c1.51772,-0.40668 3.10922,-0.45946 4.65042,-0.15332l0.2881,0.06153c1.4337,0.32788 2.781,0.9613 3.9502,1.85742l0.2314,0.18164c1.1411,0.92786 2.0701,2.0915 2.7227,3.41211l0.1269,0.26562c0.6135,1.33685 0.9321,2.79145 0.9336,4.26465c0.0015,1.4732 -0.3141,2.9285 -0.9248,4.2666l-0.126,0.2656c-0.6498,1.3221 -1.5766,2.4877 -2.7158,3.418l-0.2305,0.1826c-1.1673,0.8987 -2.5141,1.5344 -3.9472,1.8652l-0.2871,0.0625c-1.4444,0.2901 -2.9335,0.2645 -4.36528,-0.0722l-0.28516,-0.0713l-0.12207,-0.0391c-0.59278,-0.2237 -0.93183,-0.8647 -0.76562,-1.4902c0.16627,-0.6255 0.77868,-1.0132 1.4043,-0.9131l0.12503,0.0264l0.4326,0.1015c1.0153,0.2084 2.0638,0.2115 3.083,0.0069l0.4336,-0.1006c1.0029,-0.262 1.9447,-0.7233 2.7685,-1.3574l0.3448,-0.2813c0.7835,-0.6782 1.4243,-1.5077 1.8828,-2.4404l0.1845,-0.4053c0.4031,-0.9548 0.6114,-1.9821 0.6104,-3.0215c-0.0011,-1.0396 -0.211,-2.06728 -0.6162,-3.02145l-0.1856,-0.4043c-0.5263,-1.06502 -1.2905,-1.99507 -2.2334,-2.71777c-0.825,-0.63239 -1.768,-1.09066 -2.7714,-1.35059l-0.4336,-0.09961c-1.1652,-0.23142 -2.3682,-0.19222 -3.51566,0.11524l-0.32324,-1.20703zM8.11621,7.11616c0.45766,-0.45767 1.18188,-0.48643 1.67285,-0.08594l0.09473,0.08594l4.00001,4.00004c0.4881,0.4881 0.4881,1.2794 0,1.7675l-4.00001,4c-0.48815,0.4882 -1.27943,0.4882 -1.76758,0c-0.48815,-0.4881 -0.48815,-1.2794 0,-1.7675l1.86621,-1.8663h-6.98242c-0.69035,0 -1.24999,-0.5596 -1.25,-1.25c0,-0.6903 0.55964,-1.25 1.25,-1.25h6.98242l-1.86621,-1.86617l-0.08594,-0.09472c-0.40048,-0.49097 -0.37171,-1.21519 0.08594,-1.67285zM9.99414,4.51362c-0.66683,0.17866 -1.35257,-0.21696 -1.53125,-0.88379c-0.17838,-0.66655 0.21738,-1.35142 0.88379,-1.53028z" fill="#002B51"/>
</svg>
