<svg width="24" height="24" viewBox="0 0 24 24" fill="none" xmlns="http://www.w3.org/2000/svg">
<path d="M9.98145,1.9502c1.54045,-0.30936 3.13185,-0.25989 4.65035,0.14355c0.6672,0.17728 1.065,0.86209 0.8877,1.5293c-0.1662,0.62546 -0.7786,1.01316 -1.4043,0.91308l-0.125,-0.02636l-0.4326,-0.10157c-1.0154,-0.20832 -2.0638,-0.21143 -3.083,-0.00683c-1.1648,0.23391 -2.26072,0.73327 -3.20214,1.45801c-0.94123,0.72463 -1.70351,1.65565 -2.22754,2.72167c-0.52403,1.06615 -0.79612,2.23875 -0.79492,3.42675c0.00124,1.1881 0.27545,2.3607 0.80176,3.4258c0.5263,1.065 1.29053,1.9951 2.2334,2.7178c0.94291,0.7227 2.03981,1.2187 3.20504,1.4502c1.1652,0.2314 2.3682,0.1922 3.5157,-0.1153c0.6668,-0.1787 1.3525,0.217 1.5312,0.8838c0.1784,0.6666 -0.2174,1.3514 -0.8838,1.5303c-1.5178,0.4067 -3.1092,0.4595 -4.6504,0.1533c-1.54117,-0.3061 -2.99114,-0.963 -4.23825,-1.9189c-1.24701,-0.9559 -2.25804,-2.1852 -2.9541,-3.5938c-0.69608,-1.4087 -1.0589,-2.9589 -1.06055,-4.5303c-0.00165,-1.5712 0.35768,-3.12203 1.05078,-4.53218c0.69309,-1.4101 1.70129,-2.6421 2.94629,-3.60059c1.24501,-0.95844 2.69395,-1.61833 4.23438,-1.92773zM16.1162,7.11621c0.4882,-0.48815 1.2794,-0.48815 1.7676,0l4,3.99999l0.0859,0.0947c0.4005,0.491 0.3717,1.2152 -0.0859,1.6729l-4,4l-0.0947,0.0859c-0.491,0.4005 -1.2152,0.3717 -1.6729,-0.0859c-0.4577,-0.4577 -0.4864,-1.1819 -0.0859,-1.6729l0.0859,-0.0947l1.8662,-1.8662h-4.9824c-0.6904,0 -1.25,-0.5597 -1.25,-1.25c0,-0.6904 0.5596,-1.25 1.25,-1.25h4.9824l-1.8662,-1.86621c-0.4881,-0.48816 -0.4881,-1.27942 0,-1.76758z" fill="#002B51"/>
</svg>
