<svg width="24" height="24" viewBox="0 0 24 24" fill="none" xmlns="http://www.w3.org/2000/svg">
<path fill-rule="evenodd" clip-rule="evenodd" d="M14.5039,2.57726l0.0732,0.02343c0.3554,0.13431 0.5586,0.51845 0.459,0.89356c-0.0997,0.37538 -0.4673,0.60897 -0.8427,0.54883l-0.0752,-0.0166l-0.461,-0.1084c-0.9262,-0.18993 -1.8783,-0.21858 -2.8144,-0.08594l-0.4668,0.0791c-1.085,0.21788 -2.11389,0.6516 -3.02541,1.27344l-0.38282,0.27832c-0.87691,0.67507 -1.60764,1.51874 -2.15039,2.47949l-0.22168,0.41797c-0.55788,1.13502 -0.84702,2.38374 -0.8457,3.64844l0.01367,0.4727c0.06439,1.1015 0.34966,2.1806 0.83985,3.1728l0.22168,0.4189c0.54475,0.9596 1.27796,1.8015 2.15625,2.4747l0.38378,0.2773c0.91275,0.6198 1.94205,1.051 3.02737,1.2666l0.4668,0.0791c1.0928,0.1526 2.2074,0.0843 3.2763,-0.2021c0.3999,-0.1069 0.8108,0.1304 0.918,0.5302c0.1072,0.4001 -0.1302,0.8118 -0.5303,0.919c-1.3534,0.3626 -2.768,0.4283 -4.1474,0.1953l-0.2754,-0.0498c-1.37453,-0.273 -2.67318,-0.8392 -3.80763,-1.6582l-0.22461,-0.167c-1.11204,-0.8524 -2.02614,-1.934 -2.68164,-3.1699l-0.12793,-0.2491c-0.66213,-1.34 -1.00722,-2.8149 -1.00879,-4.3095l0.00391,-0.2793c0.03867,-1.3986 0.37795,-2.77365 0.99609,-4.03127l0.12695,-0.25c0.65294,-1.23722 1.56553,-2.32011 2.67578,-3.17481l0.22364,-0.16797c1.13266,-0.8213 2.42987,-1.39009 3.80373,-1.66601l0.2754,-0.05078c1.2872,-0.22028 2.6057,-0.17988 3.8769,0.11914zM16.4697,8.53038c-0.2929,-0.29289 -0.2929,-0.76765 0,-1.06055c0.2929,-0.29289 0.7677,-0.29289 1.0606,0l4,3.99997l0.0517,0.0567c0.2403,0.2946 0.2229,0.7293 -0.0517,1.0039l-4,4l-0.0567,0.0517c-0.2946,0.2403 -0.7293,0.2229 -1.0039,-0.0517c-0.2746,-0.2746 -0.2921,-0.7093 -0.0517,-1.0039l0.0517,-0.0567l2.7197,-2.7197h-6.1894c-0.4142,0 -0.75,-0.3358 -0.75,-0.75c0,-0.4142 0.3358,-0.75 0.75,-0.75h6.1894z" fill="#002B51"/>
</svg>
