<svg width="24" height="24" viewBox="0 0 24 24" fill="none" xmlns="http://www.w3.org/2000/svg">
<path d="M10.2715,1.89659c1.3531,-0.23149 2.7389,-0.18831 4.0752,0.12598l0.2851,0.07129l0.1221,0.03906c0.5928,0.2237 0.9318,0.8647 0.7656,1.49023c-0.1662,0.62547 -0.7786,1.01317 -1.4043,0.91309l-0.125,-0.02637l-0.4326,-0.10156c-0.8706,-0.17863 -1.7655,-0.20582 -2.6455,-0.08105l-0.4375,0.07421c-1.01909,0.20466 -1.98557,0.61225 -2.84178,1.19629l-0.36035,0.26172c-0.82359,0.63407 -1.51072,1.4258 -2.02051,2.32813l-0.20703,0.39355c-0.52403,1.06614 -0.79612,2.23884 -0.79492,3.42674l0.01367,0.4453c0.06059,1.0347 0.32763,2.0486 0.78808,2.9805l0.20899,0.3926c0.51172,0.9013 1.1994,1.6928 2.02441,2.3252l0.36035,0.2597c0.8576,0.5825 1.82494,0.9879 2.84469,1.1905l0.4385,0.0742c1.0265,0.1433 2.0731,0.0796 3.0772,-0.1895c0.6668,-0.1786 1.3525,0.217 1.5312,0.8838c0.1784,0.6666 -0.2174,1.3515 -0.8838,1.5303c-1.4228,0.3812 -2.9102,0.451 -4.3603,0.2061l-0.2901,-0.0528c-1.44481,-0.287 -2.80938,-0.8823 -4.00192,-1.7431l-0.23633,-0.1758c-1.16918,-0.8962 -2.13116,-2.0326 -2.82031,-3.3321l-0.13379,-0.2617c-0.65263,-1.3208 -1.01194,-2.766 -1.05566,-4.2363l-0.00488,-0.294c-0.00165,-1.5712 0.35767,-3.12202 1.05078,-4.53218l0.13379,-0.26269c0.68637,-1.30061 1.64539,-2.43938 2.8125,-3.33789l0.23632,-0.17578c1.19068,-0.86334 2.55387,-1.46189 3.99805,-1.75196zM16.1162,7.11632c0.4882,-0.48816 1.2794,-0.48816 1.7676,0l4,3.99998l0.0859,0.0947c0.4005,0.491 0.3718,1.2152 -0.0859,1.6729l-4,4l-0.0947,0.0859c-0.491,0.4005 -1.2152,0.3717 -1.6729,-0.0859c-0.4576,-0.4577 -0.4864,-1.1819 -0.0859,-1.6729l0.0859,-0.0947l1.8662,-1.8662h-4.9824c-0.6903,0 -1.25,-0.5596 -1.25,-1.25c0,-0.6903 0.5596,-1.25 1.25,-1.25h4.9824l-1.8662,-1.8662c-0.4881,-0.48816 -0.4881,-1.27943 0,-1.76758z" fill="#002B51"/>
</svg>
