<svg width="24" height="24" viewBox="0 0 24 24" fill="none" xmlns="http://www.w3.org/2000/svg">
<path fill-rule="evenodd" clip-rule="evenodd" d="M7.27245,5.85893c-0.94142,0.72473 -1.70362,1.6562 -2.22769,2.72243c-0.52408,1.06624 -0.796,2.23864 -0.79476,3.42674c0.00125,1.1881 0.27562,2.36 0.80193,3.4251c0.52631,1.0651 1.29045,1.995 2.23339,2.7178c0.94294,0.7227 2.03942,1.219 3.20468,1.4505c1.1653,0.2315 2.3683,0.1919 3.5158,-0.1156c0.6669,-0.1787 1.3523,0.2171 1.531,0.8839c0.1787,0.6668 -0.2171,1.3523 -0.8839,1.5309c-1.5178,0.4067 -3.1087,0.459 -4.6499,0.1529c-1.54125,-0.3062 -2.99144,-0.9626 -4.23855,-1.9185c-1.24711,-0.9559 -2.25775,-2.1857 -2.95383,-3.5944c-0.69608,-1.4087 -1.05897,-2.9587 -1.06061,-4.53c-0.00165,-1.5713 0.35799,-3.12194 1.05112,-4.53212c0.69313,-1.41018 1.70119,-2.64213 2.9463,-3.60064c1.24511,-0.95851 2.69391,-1.61794 4.23447,-1.92731c1.5406,-0.30937 3.1316,-0.26041 4.6503,0.1431c0.6672,0.17728 1.0643,0.86187 0.887,1.52907c-0.1772,0.66721 -0.8618,1.06437 -1.529,0.88709c-1.1483,-0.30509 -2.3513,-0.34211 -3.5161,-0.10819c-1.16479,0.23391 -2.26023,0.7325 -3.20165,1.45723zM16.1161,16.8839c-0.4882,-0.4882 -0.4882,-1.2796 0,-1.7678l1.8661,-1.8661h-4.9822c-0.6904,0 -1.25,-0.5597 -1.25,-1.25c0,-0.6904 0.5596,-1.25 1.25,-1.25h4.9822l-1.8661,-1.86613c-0.4882,-0.48816 -0.4882,-1.27961 0,-1.76777c0.4882,-0.48815 1.2796,-0.48815 1.7678,0l4,4c0.4881,0.4882 0.4881,1.2796 0,1.7678l-4,4c-0.4882,0.4881 -1.2796,0.4881 -1.7678,0z" fill="#002B51"/>
</svg>
