<svg width="24" height="24" viewBox="0 0 24 24" fill="none" xmlns="http://www.w3.org/2000/svg">
<path fill-rule="evenodd" clip-rule="evenodd" d="M6.96744,5.4627c-1.00215,0.77149 -1.81352,1.76305 -2.37141,2.89808c-0.55789,1.13502 -0.84735,2.38312 -0.84603,3.64782c0.00133,1.2647 0.29341,2.5122 0.85367,3.6461c0.56026,1.1338 1.3737,2.1237 2.37748,2.8931c1.00377,0.7694 2.17099,1.2977 3.41145,1.5441c1.2405,0.2464 2.521,0.2043 3.7427,-0.123c0.4001,-0.1072 0.8113,0.1302 0.9185,0.5303c0.1072,0.4001 -0.1302,0.8113 -0.5303,0.9185c-1.4438,0.3869 -2.9571,0.4366 -4.4231,0.1454c-1.46605,-0.2912 -2.8455,-0.9156 -4.03177,-1.8248c-1.18628,-0.9093 -2.14762,-2.0791 -2.80975,-3.4191c-0.66213,-1.3401 -1.00731,-2.8144 -1.00887,-4.309c-0.00157,-1.4947 0.34052,-2.9697 0.99984,-4.31109c0.65932,-1.3414 1.61821,-2.51325 2.80258,-3.425c1.18437,-0.91176 2.56251,-1.53901 4.02787,-1.8333c1.4655,-0.29428 2.9789,-0.24771 4.4235,0.13612c0.4003,0.10637 0.6386,0.51712 0.5322,0.91744c-0.1064,0.40033 -0.5171,0.63863 -0.9174,0.53226c-1.2223,-0.32478 -2.503,-0.36418 -3.7429,-0.11518c-1.23998,0.24901 -2.4061,0.77976 -3.40826,1.55125zM16.4697,16.5303c-0.2929,-0.2929 -0.2929,-0.7678 0,-1.0607l2.7196,-2.7196h-6.1893c-0.4142,0 -0.75,-0.3358 -0.75,-0.75c0,-0.4142 0.3358,-0.75 0.75,-0.75h6.1893l-2.7196,-2.7197c-0.2929,-0.29289 -0.2929,-0.76777 0,-1.06066c0.2928,-0.29289 0.7677,-0.29289 1.0606,0l4,3.99996c0.2929,0.2929 0.2929,0.7678 0,1.0607l-4,4c-0.2929,0.2929 -0.7678,0.2929 -1.0606,0z" fill="#002B51"/>
</svg>
