<svg width="24" height="24" viewBox="0 0 24 24" fill="none" xmlns="http://www.w3.org/2000/svg">
<path d="M10.75,3.25c4.1421,0 7.5,3.35787 7.5,7.5c0,1.8009 -0.6364,3.4522 -1.6943,4.7451l3.9746,3.9746l0.0517,0.0567c0.2403,0.2945 0.2229,0.7293 -0.0517,1.0039c-0.2746,0.2746 -0.7094,0.292 -1.0039,0.0517l-0.0567,-0.0517l-3.9746,-3.9746c-1.2929,1.0579 -2.9442,1.6943 -4.7451,1.6943c-4.14213,0 -7.5,-3.3579 -7.5,-7.5c0,-4.14213 3.35787,-7.5 7.5,-7.5zM10.75,7c-0.4142,0 -0.75,0.33579 -0.75,0.75v2.25h-2.25c-0.41419,0 -0.74997,0.3358 -0.75,0.75c0,0.4142 0.33579,0.75 0.75,0.75h2.25v2.25c0,0.4142 0.3358,0.75 0.75,0.75c0.4142,0 0.75,-0.3358 0.75,-0.75v-2.25h2.25l0.0771,-0.0039c0.378,-0.0386 0.6729,-0.3579 0.6729,-0.7461c0,-0.3882 -0.2949,-0.7075 -0.6729,-0.7461l-0.0771,-0.0039h-2.25v-2.25c0,-0.41421 -0.3358,-0.75 -0.75,-0.75z" fill="#002B51"/>
</svg>
