<svg width="24" height="24" viewBox="0 0 24 24" fill="none" xmlns="http://www.w3.org/2000/svg">
<path fill-rule="evenodd" clip-rule="evenodd" d="M20.5303,19.4697l0.0517,0.0567c0.2403,0.2945 0.2229,0.7293 -0.0517,1.0039c-0.2746,0.2746 -0.7094,0.292 -1.0039,0.0517l-0.0567,-0.0517l-3.9731,-3.9731c-1.2929,1.058 -2.9456,1.6928 -4.7466,1.6928c-4.14214,0 -7.5,-3.3579 -7.5,-7.5c0,-4.14214 3.35786,-7.5 7.5,-7.5c4.1421,0 7.5,3.35786 7.5,7.5c0,1.801 -0.6348,3.4537 -1.6928,4.7466z" fill="#002B51"/>
<path fill-rule="evenodd" clip-rule="evenodd" d="M7.75,11.5c-0.41421,0 -0.75,-0.3358 -0.75,-0.75c0.00002,-0.4142 0.3358,-0.75 0.75,-0.75h2.25v-2.25c0,-0.41421 0.3358,-0.75 0.75,-0.75c0.4142,0 0.75,0.33579 0.75,0.75v2.25h2.25l0.0771,0.0039c0.378,0.0387 0.6729,0.358 0.6729,0.7461c0,0.3882 -0.2949,0.7075 -0.6729,0.7461l-0.0771,0.0039h-2.25v2.25c0,0.4142 -0.3358,0.75 -0.75,0.75c-0.4142,0 -0.75,-0.3358 -0.75,-0.75v-2.25z" fill="white"/>
</svg>
