<svg width="24" height="24" viewBox="0 0 24 24" fill="none" xmlns="http://www.w3.org/2000/svg">
<path fill-rule="evenodd" clip-rule="evenodd" d="M18.25,10.75c0,1.801 -0.6348,3.4536 -1.6928,4.7465l3.9731,3.9732c0.2929,0.2929 0.2929,0.7677 0,1.0606c-0.2929,0.2929 -0.7677,0.2929 -1.0606,0l-3.9732,-3.9731c-1.2929,1.058 -2.9455,1.6928 -4.7465,1.6928c-4.14214,0 -7.5,-3.3579 -7.5,-7.5c0,-4.14214 3.35786,-7.5 7.5,-7.5c4.1421,0 7.5,3.35786 7.5,7.5z" fill="#002B51"/>
<path fill-rule="evenodd" clip-rule="evenodd" d="M13.75,11.5l-6,0.0001c-0.41421,0 -0.75,-0.3358 -0.75,-0.75c0,-0.4142 0.33578,-0.75 0.75,-0.75l6,-0.0001c0.4142,0 0.75,0.3358 0.75,0.75c0,0.4142 -0.3358,0.75 -0.75,0.75z" fill="white"/>
</svg>
