<svg width="24" height="24" viewBox="0 0 24 24" fill="none" xmlns="http://www.w3.org/2000/svg">
<path d="M10.75,2.75c4.4183,0 8,3.58172 8,8c0,1.758 -0.5691,3.382 -1.5303,4.7021l3.6641,3.6641l0.0859,0.0947c0.4005,0.491 0.3718,1.2152 -0.0859,1.6729c-0.4577,0.4577 -1.1819,0.4864 -1.6729,0.0859l-0.0947,-0.0859l-3.6641,-3.6641c-1.3201,0.9612 -2.9441,1.5303 -4.7021,1.5303c-4.41828,0 -8,-3.5817 -8,-8c0,-4.41828 3.58172,-8 8,-8zM10.75,5.25c-3.03757,0 -5.5,2.46243 -5.5,5.5c0,3.0376 2.46243,5.5 5.5,5.5c3.0376,0 5.5,-2.4624 5.5,-5.5c0,-3.03757 -2.4624,-5.5 -5.5,-5.5z" fill="#002B51"/>
</svg>
