<svg width="24" height="24" viewBox="0 0 24 24" fill="none" xmlns="http://www.w3.org/2000/svg">
<path fill-rule="evenodd" clip-rule="evenodd" d="M16.75,10.75c0,-3.31371 -2.6863,-6 -6,-6c-3.31371,0 -6,2.68629 -6,6c0,3.3137 2.68629,6 6,6c3.3137,0 6,-2.6863 6,-6zM18.25,10.75c0,1.801 -0.6348,3.4537 -1.6928,4.7466l3.9731,3.9731l0.0517,0.0567c0.2403,0.2945 0.2229,0.7293 -0.0517,1.0039c-0.2746,0.2746 -0.7094,0.292 -1.0039,0.0517l-0.0567,-0.0517l-3.9731,-3.9731c-1.2929,1.058 -2.9456,1.6928 -4.7466,1.6928c-4.14214,0 -7.5,-3.3579 -7.5,-7.5c0,-4.14214 3.35786,-7.5 7.5,-7.5c4.1421,0 7.5,3.35786 7.5,7.5zM14.5,10.75c0,0.3882 -0.2949,0.7075 -0.6728,0.7461l-0.0772,0.0039h-5.99999c-0.41421,0 -0.75,-0.3358 -0.75,-0.75c0.00002,-0.4142 0.3358,-0.75 0.75,-0.75h5.99999l0.0772,0.0039c0.3779,0.0386 0.6728,0.358 0.6728,0.7461z" fill="#002B51"/>
</svg>
