<svg width="24" height="24" viewBox="0 0 24 24" fill="none" xmlns="http://www.w3.org/2000/svg">
<path fill-rule="evenodd" clip-rule="evenodd" d="M10.75 3.25C6.60786 3.25 3.25 6.60786 3.25 10.75C3.25 14.8921 6.60786 18.25 10.75 18.25C12.551 18.25 14.2036 17.6152 15.4965 16.5572L19.4697 20.5303C19.7626 20.8232 20.2374 20.8232 20.5303 20.5303C20.8232 20.2374 20.8232 19.7626 20.5303 19.4697L16.5572 15.4965C17.6152 14.2036 18.25 12.551 18.25 10.75C18.25 6.60786 14.8921 3.25 10.75 3.25Z" fill="#002B51"/>
<path fill-rule="evenodd" clip-rule="evenodd" d="M13.75 11.5L7.75 11.5001C7.33579 11.5001 7 11.1643 7 10.7501C7 10.3359 7.33578 10.0001 7.75 10.0001L13.75 10C14.1642 10 14.5 10.3358 14.5 10.75C14.5 11.1642 14.1642 11.5 13.75 11.5Z" fill="white"/>
</svg>
