<svg width="24" height="24" viewBox="0 0 24 24" fill="none" xmlns="http://www.w3.org/2000/svg">
<path fill-rule="evenodd" clip-rule="evenodd" d="M10.75 3.25C6.60786 3.25 3.25 6.60786 3.25 10.75C3.25 14.8921 6.60786 18.25 10.75 18.25C12.551 18.25 14.2036 17.6152 15.4965 16.5572L19.4697 20.5303C19.7626 20.8232 20.2374 20.8232 20.5303 20.5303C20.8232 20.2374 20.8232 19.7626 20.5303 19.4697L16.5572 15.4965C17.6152 14.2036 18.25 12.551 18.25 10.75C18.25 6.60786 14.8921 3.25 10.75 3.25ZM4.75 10.75C4.75 7.43629 7.43629 4.75 10.75 4.75C14.0637 4.75 16.75 7.43629 16.75 10.75C16.75 14.0637 14.0637 16.75 10.75 16.75C7.43629 16.75 4.75 14.0637 4.75 10.75Z" fill="#002B51"/>
</svg>
