<svg width="24" height="24" viewBox="0 0 24 24" fill="none" xmlns="http://www.w3.org/2000/svg">
<path fill-rule="evenodd" clip-rule="evenodd" d="M3.25 10.75C3.25 6.60786 6.60786 3.25 10.75 3.25C14.8921 3.25 18.25 6.60786 18.25 10.75C18.25 12.551 17.6152 14.2036 16.5572 15.4965L20.5303 19.4697C20.8232 19.7626 20.8232 20.2374 20.5303 20.5303C20.2374 20.8232 19.7626 20.8232 19.4697 20.5303L15.4965 16.5572C14.2036 17.6152 12.551 18.25 10.75 18.25C6.60786 18.25 3.25 14.8921 3.25 10.75ZM10.75 6.99999C11.1642 6.99999 11.5 7.33578 11.5 7.74999V10L13.75 10C14.1642 10 14.5 10.3358 14.5 10.75C14.5 11.1642 14.1642 11.5 13.75 11.5L11.5 11.5V13.75C11.5 14.1642 11.1642 14.5 10.75 14.5C10.3358 14.5 10 14.1642 10 13.75V11.5L7.75001 11.5001C7.33579 11.5001 7.00001 11.1643 7 10.7501C7 10.3358 7.33579 10.0001 7.75 10.0001L10 10V7.74999C10 7.33578 10.3358 6.99999 10.75 6.99999Z" fill="#002B51"/>
</svg>
