<svg width="24" height="24" viewBox="0 0 24 24" fill="none" xmlns="http://www.w3.org/2000/svg">
<path d="M8.63379,2.05273c0.20639,-0.08161 0.44044,-0.06863 0.63769,0.04004l5.79692,3.19434l5.0566,-2.78516l0.1582,-0.07422c0.7985,-0.30844 1.6953,0.27726 1.6953,1.16895v13.28222c0,0.4555 -0.2485,0.8749 -0.6474,1.0947l-5.9004,3.251c-0.2254,0.1242 -0.4983,0.1242 -0.7237,0l-5.79782,-3.1943l-5.05566,2.7861c-0.83309,0.4591 -1.85352,-0.1435 -1.85352,-1.0947v-13.28225c0,-0.4554 0.2477,-0.87485 0.64648,-1.09472l5.90137,-3.25196zM3.5,6.58691v12.71099l4.65918,-2.5665v-12.71187zM9.65918,16.7305l4.65922,2.5674v-12.71196l-4.65922,-2.56641zM15.8184,6.58691v12.71099l4.6601,-2.5674v-12.71195z" fill="#002B51"/>
</svg>
