<svg width="24" height="24" viewBox="0 0 24 24" fill="none" xmlns="http://www.w3.org/2000/svg">
<path fill-rule="evenodd" clip-rule="evenodd" d="M8.54746,2.09312c0.22533,-0.12416 0.49858,-0.12416 0.72391,0l5.79743,3.1945l5.0562,-2.78603c0.8331,-0.45904 1.8532,0.14362 1.8532,1.0948v13.28251c0,0.4555 -0.2477,0.875 -0.6467,1.0948l-5.9007,3.2514c-0.2253,0.1241 -0.4986,0.1241 -0.7239,0l-5.79748,-3.1945l-5.05616,2.786c-0.83309,0.4591 -1.85326,-0.1436 -1.85326,-1.0948v-13.28248c0,-0.45552 0.24779,-0.87497 0.64675,-1.0948zM9.65942,16.7312l4.65938,2.5674v-12.7116l-4.65938,-2.56742zM3.5,6.587v12.7116l4.65942,-2.5674v-12.71162zM15.8188,6.587v12.7116l4.6594,-2.5674v-12.71162z" fill="#002B51"/>
</svg>
