<svg width="24" height="24" viewBox="0 0 24 24" fill="none" xmlns="http://www.w3.org/2000/svg">
<path d="M3.5,6.5869v12.7109l4.65918,-2.5664v-12.71188zM9.65918,16.7305l4.65922,2.5673v-12.71188l-4.65922,-2.5664zM15.8184,6.5869v12.7109l4.6601,-2.5673v-12.71196zM21.9785,16.8789c0,0.3985 -0.1902,0.7691 -0.5049,1.0029l-0.1425,0.0918l-5.9004,3.251c-0.2254,0.1242 -0.4983,0.1242 -0.7237,0l-5.79782,-3.1943l-5.05566,2.7861c-0.83309,0.459 -1.85352,-0.1435 -1.85352,-1.0947v-13.28226c0,-0.4554 0.2477,-0.87485 0.64648,-1.09473l5.90137,-3.25195l0.08594,-0.04004c0.20639,-0.08161 0.44044,-0.06863 0.63769,0.04004l5.79692,3.19434l5.0566,-2.78516l0.1582,-0.07422c0.7985,-0.30844 1.6953,0.27726 1.6953,1.16895z" fill="#002B51"/>
</svg>
