<svg width="24" height="24" viewBox="0 0 24 24" fill="none" xmlns="http://www.w3.org/2000/svg">
<path fill-rule="evenodd" clip-rule="evenodd" d="M8.54746 2.09315C8.77279 1.96899 9.04603 1.96899 9.27136 2.09315L15.0688 5.28765L20.125 2.50162C20.9581 2.04258 21.9782 2.64524 21.9782 3.59642V16.8789C21.9782 17.3344 21.7304 17.7539 21.3315 17.9737L15.4308 21.2251C15.2054 21.3493 14.9322 21.3493 14.7069 21.2251L8.90941 18.0306L3.85325 20.8166C3.02017 21.2757 2 20.673 2 19.7218V6.43935C2 5.98383 2.24779 5.56438 2.64675 5.34455L8.54746 2.09315ZM9.65941 16.7312L14.3188 19.2987V6.58703L9.65941 4.01962V16.7312ZM8.15941 4.01962V16.7312L3.5 19.2987V6.58703L8.15941 4.01962ZM15.8188 6.58703V19.2987L20.4782 16.7312V4.01962L15.8188 6.58703Z" fill="#002B51"/>
</svg>
