<svg width="24" height="24" viewBox="0 0 24 24" fill="none" xmlns="http://www.w3.org/2000/svg">
<path fill-rule="evenodd" clip-rule="evenodd" d="M20.7499,4.99988v3c0,0.41421 -0.3358,0.75 -0.75,0.75c-0.4142,0 -0.75,-0.33579 -0.75,-0.75v-3c0,-0.13807 -0.1119,-0.25 -0.25,-0.25h-3c-0.4142,0 -0.75,-0.33579 -0.75,-0.75c0,-0.41422 0.3358,-0.75 0.75,-0.75h3c0.9665,0 1.75,0.7835 1.75,1.75zM4.74991,15.9999v3c0,0.138 0.11193,0.25 0.25,0.25h3c0.41421,0 0.75,0.3358 0.75,0.75c0,0.4142 -0.33579,0.75 -0.75,0.75h-3c-0.9665,0 -1.75,-0.7835 -1.75,-1.75v-3c0,-0.4142 0.33578,-0.75 0.75,-0.75c0.41421,0 0.75,0.3358 0.75,0.75zM19.2499,18.9999v-3c0,-0.4142 0.3358,-0.75 0.75,-0.75c0.4143,0 0.75,0.3358 0.75,0.75v3c0,0.9665 -0.7835,1.75 -1.75,1.75h-3c-0.4142,0 -0.75,-0.3358 -0.75,-0.75c0,-0.4142 0.3358,-0.75 0.75,-0.75h3c0.1381,0 0.25,-0.112 0.25,-0.25zM4.99994,3.24988h3c0.41422,0 0.75,0.33578 0.75,0.75c0,0.41421 -0.33578,0.75 -0.75,0.75h-3c-0.13807,0 -0.25,0.11193 -0.25,0.25v3c0,0.41421 -0.33578,0.75 -0.75,0.75c-0.41421,0 -0.75,-0.33579 -0.75,-0.75v-3c0,-0.9665 0.7835,-1.75 1.75,-1.75z" fill="#002B51"/>
</svg>
