<svg width="24" height="24" viewBox="0 0 24 24" fill="none" xmlns="http://www.w3.org/2000/svg">
<path d="M3.99991,15.2499c0.41419,0 0.74997,0.3358 0.75,0.75v3c0,0.138 0.11197,0.2499 0.25,0.25h3c0.41419,0 0.74997,0.3358 0.75,0.75c0,0.4142 -0.33579,0.75 -0.75,0.75h-3c-0.96646,-0.0001 -1.75,-0.7836 -1.75,-1.75v-3c0.00003,-0.4142 0.33585,-0.75 0.75,-0.75zM19.9999,15.2499c0.4142,0 0.75,0.3358 0.75,0.75v3c0,0.9665 -0.7835,1.75 -1.75,1.75h-3c-0.4141,-0.0001 -0.75,-0.3358 -0.75,-0.75c0,-0.4142 0.3359,-0.75 0.75,-0.75h3c0.1381,0 0.25,-0.112 0.25,-0.25v-3c0,-0.4142 0.3359,-0.75 0.75,-0.75zM7.99991,3.24988c0.41419,0 0.74997,0.33581 0.75,0.75c0,0.41421 -0.33579,0.75 -0.75,0.75h-3c-0.138,0.00006 -0.24997,0.112 -0.25,0.25v3c0,0.41421 -0.33579,0.75 -0.75,0.75c-0.41416,-0.00007 -0.75,-0.33583 -0.75,-0.75v-3c0.00003,-0.96643 0.78358,-1.74994 1.75,-1.75zM18.9999,3.24988c0.9665,0 1.75,0.78353 1.75,1.75v3c0,0.41421 -0.3358,0.75 -0.75,0.75c-0.4142,-0.00005 -0.75,-0.33582 -0.75,-0.75v-3c0,-0.13805 -0.1119,-0.25 -0.25,-0.25h-3c-0.4142,-0.00005 -0.75,-0.33582 -0.75,-0.75c0,-0.41416 0.3359,-0.74995 0.75,-0.75z" fill="#002B51"/>
</svg>
