<svg width="24" height="24" viewBox="0 0 24 24" fill="none" xmlns="http://www.w3.org/2000/svg">
<path d="M7,15.25c0.9665,0 1.75,0.7835 1.75,1.75v3c0,0.9665 -0.7835,1.75 -1.75,1.75h-3c-0.9665,0 -1.75,-0.7835 -1.75,-1.75v-3c0,-0.9665 0.7835,-1.75 1.75,-1.75zM19,3.25c0.9665,0 1.75,0.7835 1.75,1.75v14c0,0.9665 -0.7835,1.75 -1.75,1.75h-7c-0.4142,0 -0.75,-0.3358 -0.75,-0.75c0,-0.4142 0.3358,-0.75 0.75,-0.75h7c0.1381,0 0.25,-0.1119 0.25,-0.25v-14c0,-0.13807 -0.1119,-0.25 -0.25,-0.25h-14c-0.13807,0 -0.25,0.11193 -0.25,0.25v7c0,0.4142 -0.33579,0.75 -0.75,0.75c-0.41421,0 -0.75,-0.3358 -0.75,-0.75v-7c0,-0.9665 0.7835,-1.75 1.75,-1.75zM4,16.75c-0.13807,0 -0.25,0.1119 -0.25,0.25v3c0,0.1381 0.11193,0.25 0.25,0.25h3c0.13807,0 0.25,-0.1119 0.25,-0.25v-3c0,-0.1381 -0.11193,-0.25 -0.25,-0.25zM16.0771,7.25391c0.378,0.03862 0.6729,0.35792 0.6729,0.74609v4c0,0.4142 -0.3358,0.75 -0.75,0.75c-0.4142,0 -0.75,-0.3358 -0.75,-0.75v-2.18945l-3.7197,3.71975c-0.2929,0.2929 -0.7677,0.2929 -1.0606,0c-0.2929,-0.2929 -0.2929,-0.7677 0,-1.0606l3.7198,-3.7197h-2.1895c-0.4142,0 -0.75,-0.33579 -0.75,-0.75c0,-0.41421 0.3358,-0.75 0.75,-0.75h4z" fill="#002B51"/>
</svg>
