<svg width="24" height="24" viewBox="0 0 24 24" fill="none" xmlns="http://www.w3.org/2000/svg">
<path fill-rule="evenodd" clip-rule="evenodd" d="M21.25,4.99994v3c0,0.69035 -0.5596,1.25 -1.25,1.25c-0.6904,0 -1.25,-0.55965 -1.25,-1.25v-2.75h-2.75c-0.6904,0 -1.25,-0.55965 -1.25,-1.25c0,-0.69036 0.5596,-1.25 1.25,-1.25h3c1.2426,0 2.25,1.00736 2.25,2.25zM5,21.2499c-1.24264,0 -2.25,-1.0073 -2.25,-2.25v-3c0,-0.6903 0.55964,-1.25 1.25,-1.25c0.69036,0 1.25,0.5597 1.25,1.25v2.75h2.75c0.69036,0 1.25,0.5597 1.25,1.25c0,0.6904 -0.55964,1.25 -1.25,1.25zM21.25,18.9999c0,1.2427 -1.0073,2.25 -2.25,2.25h-3c-0.6903,0 -1.25,-0.5596 -1.25,-1.25c0,-0.6903 0.5597,-1.25 1.25,-1.25h2.75v-2.75c0,-0.6903 0.5597,-1.25 1.25,-1.25c0.6904,0 1.25,0.5597 1.25,1.25zM5.00003,2.74994h3c0.69036,0 1.25,0.55964 1.25,1.25c0,0.69035 -0.55964,1.25 -1.25,1.25h-2.75v2.75c0,0.69035 -0.55964,1.25 -1.25,1.25c-0.69035,0 -1.25,-0.55965 -1.25,-1.25v-3c0,-1.24264 1.00736,-2.25 2.25,-2.25z" fill="#002B51"/>
</svg>
