<svg width="24" height="24" viewBox="0 0 24 24" fill="none" xmlns="http://www.w3.org/2000/svg">
<path fill-rule="evenodd" clip-rule="evenodd" d="M3.23365,4.98834l1.61918,-2.05988l4.65912,8.38644c-1.33412,0.6414 -2.38256,1.7825 -2.90265,3.1806l-3.61393,-6.46614c-0.54131,-0.96872 -0.44732,-2.16844 0.23828,-3.04102zM19.1477,2.92846l1.6192,2.05988l0.121,0.16797c0.535,0.79727 0.6152,1.8176 0.211,2.68848l-0.0938,0.18457l-3.6139,6.46614c-0.5201,-1.3981 -1.5685,-2.5392 -2.9027,-3.1806zM6.19122,2.25006h11.61808l-3.3334,6h-4.95134zM16.5002,16.5001c0,2.4852 -2.0147,4.5 -4.5,4.5c-2.48523,0 -4.49995,-2.0148 -4.49995,-4.5c0,-2.4853 2.01472,-4.5 4.49995,-4.5c2.4853,0 4.5,2.0147 4.5,4.5z" fill="#002B51"/>
</svg>
