<svg width="24" height="24" viewBox="0 0 24 24" fill="none" xmlns="http://www.w3.org/2000/svg">
<path fill-rule="evenodd" clip-rule="evenodd" d="M18.2503,2.25006l0.0859,0.00488c0.1976,0.02278 0.3796,0.12398 0.5039,0.28223l1.9268,2.45117l0.1211,0.16797c0.535,0.79727 0.6151,1.8176 0.2109,2.68848l-0.0937,0.18457l-3.9464,7.06094c0.1248,0.4486 0.1915,0.9214 0.1915,1.4098c0,2.8995 -2.3505,5.25 -5.25,5.25c-2.89951,0 -5.25002,-2.3505 -5.25002,-5.25c0,-0.4884 0.06669,-0.9612 0.19145,-1.4098l-3.94633,-7.06094c-0.54131,-0.96872 -0.44732,-2.16844 0.23828,-3.04102l1.92676,-2.45117l0.05664,-0.06445c0.14003,-0.14161 0.33171,-0.22266 0.5332,-0.22266zM19.7747,7.12799c0.1306,-0.34692 0.1001,-0.7353 -0.083,-1.05762l-0.1045,-0.15527l-1.2295,-1.56543l-4.1125,7.40323c0.8078,0.3826 1.5023,0.9654 2.0195,1.6843l3.4309,-6.13929zM9.52463,8.25006l1.69837,3.05714c0.2536,-0.0376 0.5132,-0.0571 0.7773,-0.0571c0.2641,0 0.5236,0.0195 0.7773,0.0571l1.6983,-3.05714zM15.3092,6.75006l1.6667,-3h-9.95121l1.66663,3zM4.41337,5.9151c-0.31165,0.39664 -0.35447,0.94248 -0.1084,1.38281l3.43087,6.13929c0.51721,-0.7189 1.2117,-1.3016 2.01945,-1.6843l-4.11341,-7.40323zM15.7503,16.5001c0,-2.0711 -1.679,-3.75 -3.75,-3.75c-2.07109,0 -3.75002,1.6789 -3.75002,3.75c0,2.071 1.67893,3.75 3.75002,3.75c2.071,0 3.75,-1.679 3.75,-3.75z" fill="#002B51"/>
</svg>
