<svg width="24" height="24" viewBox="0 0 24 24" fill="none" xmlns="http://www.w3.org/2000/svg">
<path fill-rule="evenodd" clip-rule="evenodd" d="M5.1603,2.53669c0.14219,-0.18096 0.3596,-0.28663 0.58974,-0.28663h12.49996c0.2302,0 0.4476,0.10567 0.5898,0.28663l1.9266,2.45208c0.6856,0.87261 0.7796,2.07179 0.2382,3.04052l-3.9459,7.06121c0.1247,0.4486 0.1913,0.9213 0.1913,1.4096c0,2.8995 -2.3505,5.25 -5.25,5.25c-2.89945,0 -5.24996,-2.3505 -5.24996,-5.25c0,-0.4883 0.06666,-0.961 0.19138,-1.4096l-3.94597,-7.06121c-0.54135,-0.96873 -0.4474,-2.16791 0.23822,-3.04052zM19.5869,5.91551l-1.2293,-1.56465l-4.1123,7.40214c0.8075,0.3827 1.5019,0.9653 2.0191,1.684l3.4308,-6.13944c0.2461,-0.44033 0.2034,-0.98541 -0.1083,-1.38205zM9.52468,8.25006l1.69842,3.05714c0.2535,-0.0377 0.5129,-0.0571 0.7769,-0.0571c0.264,0 0.5235,0.0194 0.777,0.0571l1.6984,-3.05714zM15.3087,6.75006l1.6667,-3h-9.95072l1.66667,3zM4.41315,5.91551c-0.31165,0.39664 -0.35435,0.94172 -0.10828,1.38205l3.43086,6.13944c0.51716,-0.7187 1.21151,-1.3013 2.0191,-1.684l-4.11231,-7.40214zM12,12.7501c-2.07102,0 -3.74996,1.6789 -3.74996,3.75c0,2.071 1.67894,3.75 3.74996,3.75c2.0711,0 3.75,-1.679 3.75,-3.75c0,-2.0711 -1.6789,-3.75 -3.75,-3.75z" fill="#002B51"/>
</svg>
