<svg width="24" height="24" viewBox="0 0 24 24" fill="none" xmlns="http://www.w3.org/2000/svg">
<path d="M12.0002,12.0001c2.4851,0.0002 4.5,2.0148 4.5,4.5c0,2.4851 -2.0149,4.4997 -4.5,4.5c-2.48523,0 -4.49995,-2.0148 -4.49995,-4.5c0,-2.4853 2.01472,-4.5 4.49995,-4.5zM9.51099,11.3145c-1.33417,0.6415 -2.38235,1.7833 -2.90234,3.1817l-3.61328,-6.46684c-0.54131,-0.96872 -0.44732,-2.16844 0.23828,-3.04102l1.61914,-2.06054zM20.7669,4.98834l0.121,0.16797c0.5347,0.79709 0.6149,1.81783 0.211,2.68848l-0.0938,0.18457l-3.6152,6.46584c-0.5202,-1.398 -1.5682,-2.5394 -2.9023,-3.1807l4.6591,-8.3867zM14.4758,8.25006h-4.95114l-3.333,-6h11.61714z" fill="#002B51"/>
</svg>
