<svg width="24" height="24" viewBox="0 0 24 24" fill="none" xmlns="http://www.w3.org/2000/svg">
<path d="M11.9998,12.0001c2.4852,0 4.5,2.0147 4.5,4.5c0,2.4852 -2.0148,4.5 -4.5,4.5c-2.4852,-0.0002 -4.50004,-2.0148 -4.50004,-4.5c0,-2.4852 2.01484,-4.4999 4.50004,-4.5zM9.51147,11.3145c-1.33417,0.6415 -2.38235,1.7833 -2.90234,3.1817l-3.61328,-6.46684c-0.54131,-0.96872 -0.44732,-2.16844 0.23828,-3.04102l1.61914,-2.06054zM20.7673,4.98834c0.6853,0.87246 0.7794,2.07248 0.2383,3.04102l-3.6152,6.46584c-0.5202,-1.398 -1.5683,-2.5394 -2.9024,-3.1807l4.6592,-8.3867zM14.4763,8.25006h-4.95115l-3.33301,-6h11.61716z" fill="#002B51"/>
</svg>
