<svg width="24" height="24" viewBox="0 0 24 24" fill="none" xmlns="http://www.w3.org/2000/svg">
<path d="M18.3362,2.25494c0.1975,0.02289 0.3797,0.1241 0.504,0.28223l1.9267,2.45117l0.1211,0.16797c0.5348,0.79718 0.615,1.81772 0.2109,2.68848l-0.0937,0.18457l-3.9482,7.06254c0.1245,0.4482 0.1933,0.9202 0.1933,1.4082c0,2.8993 -2.3507,5.2497 -5.25,5.25c-2.89948,0 -5.24999,-2.3505 -5.24999,-5.25c0,-0.4882 0.06673,-0.9607 0.19141,-1.4092l-3.94629,-7.06154c-0.54131,-0.96872 -0.44732,-2.16844 0.23828,-3.04102l1.92676,-2.45117l0.05664,-0.06445c0.14001,-0.14146 0.33182,-0.22266 0.5332,-0.22266h12.49999zM12.0003,12.7501c-2.07106,0 -3.74999,1.6789 -3.74999,3.75c0,2.071 1.67893,3.75 3.74999,3.75c2.0709,-0.0003 3.75,-1.6791 3.75,-3.75c0,-2.0709 -1.6791,-3.7498 -3.75,-3.75zM14.2445,11.753c0.8079,0.3827 1.5012,0.9665 2.0185,1.6855l3.4326,-6.14059l0.0791,-0.16992c0.1305,-0.34681 0.1,-0.73539 -0.083,-1.05762l-0.1045,-0.15527l-1.2295,-1.56543zM4.4134,5.9151c-0.31165,0.39664 -0.35447,0.94248 -0.1084,1.38281l3.43066,6.13969c0.51728,-0.719 1.21163,-1.3019 2.01953,-1.6846l-4.11328,-7.40333zM9.52473,8.25006l1.69827,3.05764c0.2535,-0.0376 0.5133,-0.0576 0.7773,-0.0576c0.2638,0 0.523,0.02 0.7764,0.0576l1.6992,-3.05764zM8.69074,6.75006h6.61816l1.667,-3h-9.95117z" fill="#002B51"/>
</svg>
