<svg width="24" height="24" viewBox="0 0 24 24" fill="none" xmlns="http://www.w3.org/2000/svg">
<path fill-rule="evenodd" clip-rule="evenodd" d="M3.23364,4.98877l1.6187,-2.06016l4.6591,8.38639c-1.33404,0.6414 -2.38241,1.7826 -2.90245,3.1807l-3.61357,-6.46641c-0.54135,-0.96873 -0.4474,-2.16791 0.23822,-3.04052zM19.1477,2.9286l1.6187,2.06017c0.6856,0.87261 0.7796,2.07179 0.2382,3.04052l-3.6136,6.46641c-0.52,-1.3981 -1.5684,-2.5393 -2.9024,-3.1807zM6.1913,2.25006h11.6174l-3.3333,6h-4.95076zM16.5,16.5001c0,2.4852 -2.0147,4.5 -4.5,4.5c-2.48528,0 -4.5,-2.0148 -4.5,-4.5c0,-2.4853 2.01472,-4.5 4.5,-4.5c2.4853,0 4.5,2.0147 4.5,4.5z" fill="#002B51"/>
</svg>
