<svg width="24" height="24" viewBox="0 0 24 24" fill="none" xmlns="http://www.w3.org/2000/svg">
<path fill-rule="evenodd" clip-rule="evenodd" d="M3.23364 4.98877L4.85234 2.92861L9.51144 11.315C8.1774 11.9564 7.12903 13.0976 6.60899 14.4957L2.99542 8.02929C2.45407 7.06056 2.54802 5.86138 3.23364 4.98877ZM14.4886 11.315C15.8226 11.9564 16.871 13.0976 17.391 14.4957L21.0046 8.02929C21.546 7.06056 21.452 5.86138 20.7664 4.98877L19.1477 2.9286L14.4886 11.315ZM9.52464 8.25006H14.4754L17.8087 2.25006H6.1913L9.52464 8.25006ZM12 12.0001C9.51472 12.0001 7.5 14.0148 7.5 16.5001C7.5 18.9853 9.51472 21.0001 12 21.0001C14.4853 21.0001 16.5 18.9853 16.5 16.5001C16.5 14.0148 14.4853 12.0001 12 12.0001Z" fill="#002B51"/>
</svg>
