<svg width="24" height="24" viewBox="0 0 24 24" fill="none" xmlns="http://www.w3.org/2000/svg">
<path fill-rule="evenodd" clip-rule="evenodd" d="M10.25,7.99994c0,1.24264 -1.00736,2.24996 -2.25,2.24996h-3c-0.69036,0 -1.25,-0.55961 -1.25,-1.24996c0,-0.69036 0.55964,-1.25 1.25,-1.25h2.75v-2.75c0,-0.69036 0.55964,-1.25 1.25,-1.25c0.69036,0 1.25,0.55964 1.25,1.25zM10.25,15.9999v3c0,0.6904 -0.55964,1.25 -1.25,1.25c-0.69036,0 -1.25,-0.5596 -1.25,-1.25v-2.75h-2.75c-0.69036,0 -1.25,-0.5596 -1.25,-1.25c0,-0.6903 0.55964,-1.25 1.25,-1.25h3c1.24264,0 2.25,1.0074 2.25,2.25zM16.0001,13.7499h3c0.6904,0 1.25,0.5597 1.25,1.25c0,0.6904 -0.5596,1.25 -1.25,1.25h-2.75v2.75c0,0.6904 -0.5596,1.25 -1.25,1.25c-0.6903,0 -1.25,-0.5596 -1.25,-1.25v-3c0,-1.2426 1.0074,-2.25 2.25,-2.25zM16,10.2499c-1.2426,0 -2.25,-1.00732 -2.25,-2.24996v-3c0,-0.69036 0.5596,-1.25 1.25,-1.25c0.6904,0 1.25,0.55964 1.25,1.25v2.75h2.75c0.6904,0 1.25,0.55964 1.25,1.25c0,0.69035 -0.5596,1.24996 -1.25,1.24996z" fill="#002B51"/>
</svg>
