<svg width="24" height="24" viewBox="0 0 24 24" fill="none" xmlns="http://www.w3.org/2000/svg">
<path d="M7,14.75c1.24264,0 2.25,1.0074 2.25,2.25v3c0,1.2426 -1.00736,2.25 -2.25,2.25h-3c-1.24264,0 -2.25,-1.0074 -2.25,-2.25v-3c0,-1.2426 1.00736,-2.25 2.25,-2.25zM19,2.75c1.2426,0 2.25,1.00736 2.25,2.25v14c0,1.2426 -1.0074,2.25 -2.25,2.25h-7c-0.6904,0 -1.25,-0.5596 -1.25,-1.25c0,-0.6904 0.5596,-1.25 1.25,-1.25h6.75v-13.5h-13.5v6.75c0,0.6904 -0.55964,1.25 -1.25,1.25c-0.69036,0 -1.25,-0.5596 -1.25,-1.25v-7c0,-1.24264 1.00736,-2.25 2.25,-2.25zM15.1162,7.11621c0.4882,-0.48815 1.2794,-0.48815 1.7676,0c0.4881,0.48816 0.4881,1.27942 0,1.76758l-2.8662,2.86621h0.9824c0.6904,0 1.25,0.5596 1.25,1.25c0,0.6904 -0.5596,1.25 -1.25,1.25h-4l-0.1279,-0.0068c-0.6303,-0.0641 -1.1221,-0.596 -1.1221,-1.2432v-4c0,-0.69036 0.5596,-1.25 1.25,-1.25c0.6904,0 1.25,0.55964 1.25,1.25v0.98242z" fill="#002B51"/>
</svg>
