<svg width="24" height="24" viewBox="0 0 24 24" fill="none" xmlns="http://www.w3.org/2000/svg">
<path fill-rule="evenodd" clip-rule="evenodd" d="M19.25,5c0,-0.13807 -0.1119,-0.25 -0.25,-0.25h-14c-0.13807,0 -0.25,0.11193 -0.25,0.25v7c0,0.4142 -0.33579,0.75 -0.75,0.75c-0.41421,0 -0.75,-0.3358 -0.75,-0.75v-7c0,-0.9665 0.7835,-1.75 1.75,-1.75h14c0.9665,0 1.75,0.7835 1.75,1.75v14c0,0.9665 -0.7835,1.75 -1.75,1.75h-7c-0.4142,0 -0.75,-0.3358 -0.75,-0.75c0,-0.4142 0.3358,-0.75 0.75,-0.75h7c0.1381,0 0.25,-0.1119 0.25,-0.25zM7.25,17c0,-0.1381 -0.11193,-0.25 -0.25,-0.25h-3c-0.13807,0 -0.25,0.1119 -0.25,0.25v3c0,0.1381 0.11193,0.25 0.25,0.25h3c0.13807,0 0.25,-0.1119 0.25,-0.25zM8.75,20c0,0.9665 -0.7835,1.75 -1.75,1.75h-3c-0.9665,0 -1.75,-0.7835 -1.75,-1.75v-3c0,-0.9665 0.7835,-1.75 1.75,-1.75h3c0.9665,0 1.75,0.7835 1.75,1.75zM11.75,9v2.1895l3.7197,-3.71977c0.2929,-0.2929 0.7677,-0.2929 1.0606,0c0.2929,0.29289 0.2929,0.76765 0,1.06054l-3.7198,3.71973h2.1895c0.4142,0 0.75,0.3358 0.75,0.75c0,0.4142 -0.3358,0.75 -0.75,0.75h-4l-0.0771,-0.0039c-0.378,-0.0386 -0.6729,-0.3579 -0.6729,-0.7461v-4c0,-0.41421 0.3358,-0.75 0.75,-0.75c0.4142,0 0.75,0.33579 0.75,0.75z" fill="#002B51"/>
</svg>
