<svg width="24" height="24" viewBox="0 0 24 24" fill="none" xmlns="http://www.w3.org/2000/svg">
<path d="M7.99997,14.2499c0.9665,0 1.75,0.7835 1.75,1.75v3c0,0.4143 -0.33579,0.75 -0.75,0.75c-0.41421,0 -0.75,-0.3357 -0.75,-0.75v-3c0,-0.138 -0.11193,-0.25 -0.25,-0.25h-3c-0.41421,0 -0.75,-0.3357 -0.75,-0.75c0,-0.4142 0.33579,-0.75 0.75,-0.75zM19,14.2499c0.4142,0 0.75,0.3358 0.75,0.75c0,0.4143 -0.3358,0.75 -0.75,0.75h-3c-0.138,0.0001 -0.25,0.112 -0.25,0.25v3c0,0.4143 -0.3358,0.75 -0.75,0.75c-0.4142,0 -0.75,-0.3358 -0.75,-0.75v-3c0,-0.9664 0.7835,-1.7499 1.75,-1.75zM8.99997,4.24994c0.41421,0 0.75,0.33579 0.75,0.75v3c0,0.9665 -0.7835,1.75 -1.75,1.75h-3c-0.41421,0 -0.75,-0.33579 -0.75,-0.75c0,-0.41421 0.33579,-0.75 0.75,-0.75h3c0.13807,0 0.25,-0.11193 0.25,-0.25v-3c0,-0.41421 0.33579,-0.75 0.75,-0.75zM15,4.24994c0.4142,0 0.75,0.33579 0.75,0.75v3c0,0.13807 0.1119,0.25 0.25,0.25h3c0.4142,0 0.75,0.33579 0.75,0.75c0,0.41421 -0.3358,0.75 -0.75,0.75h-3c-0.9665,0 -1.75,-0.7835 -1.75,-1.75v-3c0,-0.41421 0.3358,-0.75 0.75,-0.75z" fill="#002B51"/>
</svg>
