<svg width="24" height="24" viewBox="0 0 24 24" fill="none" xmlns="http://www.w3.org/2000/svg">
<path fill-rule="evenodd" clip-rule="evenodd" d="M12.517,2.55992c0.6703,-0.18014 1.4008,-0.1632 2.1026,0.09223c0.4078,0.14845 0.3924,0.68199 0.0531,0.9527c-0.3097,0.24713 -0.5964,0.5261 -0.8545,0.8343c2.8803,0.6087 5.2379,2.63427 6.3093,5.31324c0.0406,-0.0015 0.0815,-0.00227 0.1225,-0.00227c1.7949,0 3.25,1.45508 3.25,3.24998c0,1.7949 -1.4551,3.25 -3.25,3.25c-0.041,0 -0.0819,-0.0007 -0.1226,-0.0023c-1.2897,3.2244 -4.4425,5.5022 -8.1274,5.5022c-3.68487,0 -6.83773,-2.2778 -8.12741,-5.5022c-0.04067,0.0016 -0.08154,0.0023 -0.12259,0.0023c-1.79493,0 -3.25,-1.4551 -3.25,-3.25c0,-1.7949 1.45507,-3.24998 3.25,-3.24998c0.04102,0 0.08185,0.00077 0.1225,0.00227c0.92218,-2.30578 2.79715,-4.12752 5.13812,-4.97843c-0.00699,-0.0904 -0.01056,-0.18177 -0.01056,-0.27396c0,-1.933 1.56704,-3.5 3.50004,-3.5c0.434,0 0.602,0.50665 0.3757,0.87707c-0.1336,0.21879 -0.2536,0.4468 -0.3588,0.68285zM22,13.0001c0,-0.8532 -0.6106,-1.5638 -1.4187,-1.7187c0.1107,0.5557 0.1687,1.1304 0.1687,1.7186c0,0.5883 -0.0581,1.163 -0.1688,1.7188c0.8082,-0.1548 1.4188,-0.8654 1.4188,-1.7187zM3.41876,14.7188c-0.1107,-0.5558 -0.16876,-1.1305 -0.16876,-1.7188c0,-0.5882 0.05804,-1.1629 0.16871,-1.7186c-0.80809,0.1549 -1.41871,0.8655 -1.41871,1.7187c0,0.8533 0.61065,1.5639 1.41876,1.7187zM11.9998,20.25c2.7614,0 5,-2.2386 5,-5c0,-0.5419 0.2332,-1.0677 0.6118,-1.4553c0.7043,-0.721 1.1383,-1.7072 1.1383,-2.7947c0,-2.20914 -1.7909,-4 -4,-4c-0.39,0 -0.767,0.05581 -1.1234,0.15989c-1.0197,0.2978 -2.2336,0.2978 -3.2533,0c-0.3564,-0.10408 -0.73333,-0.15989 -1.12332,-0.15989c-2.20914,0 -4,1.79086 -4,4c0,1.0874 0.43393,2.0735 1.13808,2.7945c0.37864,0.3877 0.61186,0.9136 0.61186,1.4555c0,2.7614 2.23857,5 4.99998,5zM8,12c0,-0.8284 0.67157,-1.5 1.5,-1.5c0.8284,0 1.5,0.6716 1.5,1.5c0,0.8284 -0.6716,1.5 -1.5,1.5c-0.82843,0 -1.5,-0.6716 -1.5,-1.5zM16,12c0,0.8284 -0.6716,1.5 -1.5,1.5c-0.8284,0 -1.5,-0.6716 -1.5,-1.5c0,-0.8284 0.6716,-1.5 1.5,-1.5c0.8284,0 1.5,0.6716 1.5,1.5zM12,17c0.4978,0 1.0234,-0.1792 1.5315,-0.5857c0.3234,-0.2587 0.7954,-0.2063 1.0542,0.1172c0.2587,0.3234 0.2063,0.7954 -0.1172,1.0542c-0.7419,0.5935 -1.5913,0.9143 -2.4685,0.9143c-0.8772,0 -1.7266,-0.3208 -2.46852,-0.9143c-0.32345,-0.2588 -0.37589,-0.7308 -0.11713,-1.0542c0.25876,-0.3235 0.73075,-0.3759 1.05415,-0.1172c0.5081,0.4065 1.0337,0.5857 1.5315,0.5857z" fill="#002B51"/>
</svg>
