<svg width="24" height="24" viewBox="0 0 24 24" fill="none" xmlns="http://www.w3.org/2000/svg">
<path d="M12.5,1c0.4344,0 0.6023,0.50717 0.376,0.87793c-0.1336,0.21858 -0.2532,0.44681 -0.3584,0.68262c0.6701,-0.18001 1.4,-0.16348 2.1015,0.09179c0.4083,0.1486 0.3934,0.68314 0.0538,0.95411c-0.3096,0.24691 -0.5966,0.52514 -0.8545,0.833c2.8797,0.60868 5.235,2.63423 6.3066,5.3125c0.0415,-0.00156 0.0832,-0.00195 0.125,-0.00195c1.7949,0 3.2499,1.4551 3.25,3.25c0,1.7949 -1.4551,3.25 -3.25,3.25c-0.0419,0 -0.0835,-0.0014 -0.125,-0.0029c-1.2897,3.2243 -4.4402,5.5029 -8.125,5.5029c-3.68494,0 -6.83635,-2.2785 -8.12598,-5.5029c-0.04116,0.0015 -0.08248,0.0029 -0.12402,0.0029c-1.79493,0 -3.25,-1.4551 -3.25,-3.25c0.00007,-1.7949 1.45512,-3.25 3.25,-3.25c0.04152,0 0.08288,0.00041 0.12402,0.00195c0.92246,-2.30572 2.7965,-4.12789 5.1377,-4.97851c-0.00698,-0.09026 -0.01172,-0.18139 -0.01172,-0.27344c0,-1.93298 1.567,-3.49997 3.5,-3.5zM14.75,7c-0.3899,0 -0.7668,0.05598 -1.123,0.16016c-1.02,0.29828 -2.234,0.29824 -3.254,0c-0.3561,-0.10417 -0.7331,-0.16015 -1.123,-0.16016c-2.20914,0 -4,1.79086 -4,4c0,1.0874 0.43443,2.0732 1.13867,2.7939c0.37884,0.3879 0.61133,0.9139 0.61133,1.4561c0,2.7614 2.23858,5 5,5c2.7613,-0.0001 5,-2.2386 5,-5c0,-0.5423 0.2313,-1.0683 0.6104,-1.4561c0.7046,-0.7206 1.1396,-1.7063 1.1396,-2.7939c0,-2.2091 -1.7909,-3.99993 -4,-4zM9.41406,16.5312c0.24255,-0.3031 0.67294,-0.3682 0.99214,-0.1621l0.0626,0.045l0.1914,0.1425c0.4476,0.3064 0.9044,0.4434 1.3398,0.4434c0.4978,0 1.0232,-0.1795 1.5312,-0.5859c0.3235,-0.2588 0.796,-0.2063 1.0547,0.1171c0.2588,0.3235 0.2063,0.796 -0.1171,1.0547c-0.742,0.5936 -1.5916,0.9141 -2.4688,0.9141c-0.7677,0 -1.5139,-0.2459 -2.18555,-0.7051l-0.2832,-0.209l-0.05762,-0.0507c-0.27134,-0.2663 -0.30216,-0.7007 -0.05957,-1.004zM3.41895,11.2822c-0.80809,0.1548 -1.41889,0.8646 -1.41895,1.7178c0,0.8532 0.61084,1.563 1.41895,1.7178c-0.11058,-0.5555 -0.16895,-1.1298 -0.16895,-1.7178c0,-0.588 0.05837,-1.1623 0.16895,-1.7178zM20.5801,11.2822c0.1106,0.5556 0.1699,1.1298 0.1699,1.7178c0,0.588 -0.0593,1.1622 -0.1699,1.7178c0.8086,-0.1545 1.4199,-0.8642 1.4199,-1.7178c-0.0001,-0.8535 -0.6114,-1.5633 -1.4199,-1.7178zM9.5,10.5c0.8284,0 1.5,0.6716 1.5,1.5c0,0.8284 -0.6716,1.5 -1.5,1.5c-0.82843,0 -1.5,-0.6716 -1.5,-1.5c0,-0.8284 0.67157,-1.5 1.5,-1.5zM14.5,10.5c0.8284,0 1.5,0.6716 1.5,1.5c0,0.8284 -0.6716,1.5 -1.5,1.5c-0.8284,0 -1.5,-0.6716 -1.5,-1.5c0,-0.8284 0.6716,-1.5 1.5,-1.5z" fill="#002B51"/>
</svg>
