<svg width="24" height="24" viewBox="0 0 24 24" fill="none" xmlns="http://www.w3.org/2000/svg">
<path fill-rule="evenodd" clip-rule="evenodd" d="M12.8758 1.87707C13.1021 1.50665 12.9341 1 12.5001 1C10.5671 1 9.00006 2.567 9.00006 4.5C9.00006 4.59219 9.00363 4.68356 9.01062 4.77396C6.66965 5.62487 4.79468 7.44661 3.8725 9.75239C3.83185 9.75089 3.79102 9.75012 3.75 9.75012C1.95507 9.75012 0.5 11.2052 0.5 13.0001C0.5 14.795 1.95507 16.2501 3.75 16.2501C3.79105 16.2501 3.83192 16.2494 3.87259 16.2478C5.16227 19.4722 8.31513 21.75 12 21.75C15.6849 21.75 18.8377 19.4722 20.1274 16.2478C20.1681 16.2494 20.209 16.2501 20.25 16.2501C22.0449 16.2501 23.5 14.795 23.5 13.0001C23.5 11.2052 22.0449 9.75012 20.25 9.75012C20.209 9.75012 20.1681 9.75089 20.1275 9.75239C19.0561 7.07342 16.6985 5.04785 13.8182 4.43915C14.0763 4.13095 14.363 3.85198 14.6727 3.60485C15.012 3.33414 15.0274 2.8006 14.6196 2.65215C13.9178 2.39672 13.1873 2.37978 12.517 2.55992C12.6222 2.32387 12.7422 2.09586 12.8758 1.87707ZM20.5812 14.7188C20.6919 14.163 20.75 13.5883 20.75 13C20.75 12.4118 20.692 11.8371 20.5813 11.2814C21.3894 11.4363 22 12.1469 22 13.0001C22 13.8534 21.3894 14.564 20.5812 14.7188ZM2 13.0001C2 12.1469 2.61062 11.4363 3.41871 11.2814C3.30804 11.8371 3.25 12.4118 3.25 13C3.25 13.5883 3.30806 14.163 3.41876 14.7188C2.61065 14.564 2 13.8534 2 13.0001ZM6.99982 15.25C6.99982 14.7081 6.7666 14.1822 6.38796 13.7945C5.68381 13.0735 5.24988 12.0874 5.24988 11C5.24988 8.79086 7.04074 7 9.24988 7C9.63987 7 10.0168 7.05581 10.3732 7.15989C11.3929 7.45769 12.6068 7.45769 13.6265 7.15989C13.9829 7.05581 14.3599 7 14.7499 7C16.959 7 18.7499 8.79086 18.7499 11C18.7499 12.0875 18.3159 13.0737 17.6116 13.7947C17.233 14.1823 16.9998 14.7081 16.9998 15.25C16.9998 18.0114 14.7612 20.25 11.9998 20.25C9.23839 20.25 6.99982 18.0114 6.99982 15.25ZM9.5 13.5C10.3284 13.5 11 12.8284 11 12C11 11.1716 10.3284 10.5 9.5 10.5C8.67157 10.5 8 11.1716 8 12C8 12.8284 8.67157 13.5 9.5 13.5ZM16 12C16 12.8284 15.3284 13.5 14.5 13.5C13.6716 13.5 13 12.8284 13 12C13 11.1716 13.6716 10.5 14.5 10.5C15.3284 10.5 16 11.1716 16 12ZM10.4685 16.4143C10.1451 16.1556 9.67311 16.208 9.41435 16.5315C9.15559 16.8549 9.20803 17.3269 9.53148 17.5857C10.2734 18.1792 11.1228 18.5 12 18.5C12.8772 18.5 13.7266 18.1792 14.4685 17.5857C14.792 17.3269 14.8444 16.8549 14.5857 16.5315C14.3269 16.208 13.8549 16.1556 13.5315 16.4143C13.0234 16.8208 12.4978 17 12 17C11.5022 17 10.9766 16.8208 10.4685 16.4143Z" fill="#002B51"/>
</svg>
