<svg width="24" height="24" viewBox="0 0 24 24" fill="none" xmlns="http://www.w3.org/2000/svg">
<path d="M10.25,8c0,-1.53048 0.3943,-2.96981 1.0859,-4.22168c-4.24572,0.33825 -7.5859,3.88893 -7.5859,8.22168l0.01074,0.4248c0.2211,4.3589 3.82539,7.8252 8.23926,7.8252c2.7895,0 5.255,-1.3848 6.749,-3.5068c-4.7164,-0.1329 -8.499,-3.9947 -8.499,-8.7432zM11.75,8c0,4.0041 3.2459,7.25 7.25,7.25c0.4975,0 0.9331,0.2568 1.1797,0.6318c0.2393,0.3642 0.3097,0.8651 0.0625,1.3203l-0.0537,0.0909c-1.7357,2.6804 -4.7541,4.457 -8.1885,4.457c-5.21643,0 -9.47606,-4.0965 -9.7373,-9.248l-0.0127,-0.502c0,-5.38478 4.36522,-9.75 9.75,-9.75c0.4813,0 0.8453,0.29183 1.0117,0.64648c0.1619,0.34512 0.1556,0.77935 -0.081,1.14063c-0.7459,1.13899 -1.1807,2.4988 -1.1807,3.96289z" fill="#002B51"/>
</svg>
