<svg width="24" height="24" viewBox="0 0 24 24" fill="none" xmlns="http://www.w3.org/2000/svg">
<path fill-rule="evenodd" clip-rule="evenodd" d="M11.3352,3.7764c-4.24549,0.33853 -7.5852,3.89105 -7.5852,8.2236c0,4.5563 3.69365,8.25 8.25,8.25c2.7885,0 5.2545,-1.3829 6.7488,-3.5035c-4.7163,-0.133 -8.4988,-3.998 -8.4988,-8.74649c0,-1.53058 0.3936,-2.97094 1.0852,-4.22361zM2.25,12c0,-5.38478 4.36522,-9.75 9.75,-9.75c0.4781,0 0.8432,0.28768 1.0109,0.64311c0.1634,0.34603 0.1555,0.77977 -0.0807,1.14035c-0.7462,1.13937 -1.1802,2.50114 -1.1802,3.96655c0,4.00409 3.2459,7.24999 7.25,7.24999c0.4988,0 0.9341,0.2584 1.18,0.6336c0.2545,0.3882 0.3185,0.9324 0.0085,1.4109c-1.7359,2.6797 -4.7546,4.4555 -8.1885,4.4555c-5.38478,0 -9.75,-4.3652 -9.75,-9.75z" fill="#002B51"/>
</svg>
