<svg width="24" height="24" viewBox="0 0 24 24" fill="none" xmlns="http://www.w3.org/2000/svg">
<path fill-rule="evenodd" clip-rule="evenodd" d="M10.25,5.5c0,0.9665 0.7835,1.75 1.75,1.75c0.9665,0 1.75,-0.7835 1.75,-1.75c0,-0.9665 -0.7835,-1.75 -1.75,-1.75c-0.9665,0 -1.75,0.7835 -1.75,1.75zM15.163,6.25c-0.1794,0.75966 -0.6254,1.41632 -1.2339,1.86578c1.945,0.76884 3.3209,2.66582 3.3209,4.88422v2.8623c0,0.9812 -0.5541,1.8785 -1.4316,2.3174l-0.8184,0.4087v-0.8384v-0.8385v-0.4115c0,-1.6569 -1.3431,-3 -3,-3c-1.6569,0 -3,1.3431 -3,3v0.4115v0.8385v0.8384l-0.81836,-0.4087c-0.8775,-0.4389 -1.43164,-1.3362 -1.43164,-2.3174v-2.8623c0,-2.2184 1.37589,-4.11538 3.3209,-4.88422c-0.60846,-0.44946 -1.05449,-1.10612 -1.23393,-1.86578h-3.33697c-0.41421,0 -0.75,-0.33579 -0.75,-0.75c0,-0.41421 0.33579,-0.75 0.75,-0.75h3.33697c0.33858,-1.43335 1.62623,-2.5 3.16303,-2.5c1.5368,0 2.8245,1.06665 3.163,2.5h3.337c0.4142,0 0.75,0.33579 0.75,0.75c0,0.41421 -0.3358,0.75 -0.75,0.75zM12,15c0.3377,0 0.6493,0.1116 0.9,0.2999c0.3643,0.2737 0.6,0.7094 0.6,1.2001v2v1v0.75c0,0.8284 -0.6716,1.5 -1.5,1.5c-0.8284,0 -1.5,-0.6716 -1.5,-1.5v-0.75v-1v-2c0,-0.4907 0.2357,-0.9264 0.6,-1.2001c0.2507,-0.1883 0.5623,-0.2999 0.9,-0.2999z" fill="#002B51"/>
</svg>
