<svg width="24" height="24" viewBox="0 0 24 24" fill="none" xmlns="http://www.w3.org/2000/svg">
<path fill-rule="evenodd" clip-rule="evenodd" d="M15.163,4.75h3.337c0.4142,0 0.75,0.33579 0.75,0.75c0,0.41421 -0.3358,0.75 -0.75,0.75h-3.337c-0.1794,0.75966 -0.6254,1.41632 -1.2339,1.86578c1.945,0.76884 3.3209,2.66582 3.3209,4.88422v2.8624c0,0.9813 -0.5544,1.8783 -1.4321,2.3172l-0.8179,0.4089v-0.8385v-0.8385v-0.4115c0,-1.6569 -1.3431,-3 -3,-3c-1.6569,0 -3,1.3431 -3,3v0.4115v0.8385v0.8385l-0.81795,-0.4089c-0.87765,-0.4389 -1.43205,-1.3359 -1.43205,-2.3172v-2.8624c0,-2.2184 1.37589,-4.11538 3.3209,-4.88422c-0.60846,-0.44946 -1.05449,-1.10612 -1.23393,-1.86578h-3.33697c-0.41421,0 -0.75,-0.33579 -0.75,-0.75c0,-0.41421 0.33579,-0.75 0.75,-0.75h3.33697c0.33858,-1.43335 1.62623,-2.5 3.16303,-2.5c1.5368,0 2.8245,1.06665 3.163,2.5zM12,7.25c0.9665,0 1.75,-0.7835 1.75,-1.75c0,-0.9665 -0.7835,-1.75 -1.75,-1.75c-0.9665,0 -1.75,0.7835 -1.75,1.75c0,0.9665 0.7835,1.75 1.75,1.75zM12,15c0.3377,0 0.6493,0.1116 0.9,0.2999c0.3643,0.2737 0.6,0.7094 0.6,1.2001v2v1v0.75c0,0.8284 -0.6716,1.5 -1.5,1.5c-0.8284,0 -1.5,-0.6716 -1.5,-1.5v-0.75v-1v-2c0,-0.4907 0.2357,-0.9264 0.6,-1.2001c0.2507,-0.1883 0.5623,-0.2999 0.9,-0.2999z" fill="#002B51"/>
</svg>
