<svg width="24" height="24" viewBox="0 0 24 24" fill="none" xmlns="http://www.w3.org/2000/svg">
<path fill-rule="evenodd" clip-rule="evenodd" d="M10.25,5.5c0,0.9665 0.7835,1.75 1.75,1.75c0.9665,0 1.75,-0.7835 1.75,-1.75c0,-0.9665 -0.7835,-1.75 -1.75,-1.75c-0.9665,0 -1.75,0.7835 -1.75,1.75zM15.163,6.25c-0.1794,0.75966 -0.6254,1.41632 -1.2339,1.86578c1.945,0.76884 3.3209,2.66582 3.3209,4.88422v2.8623c0,0.9812 -0.5541,1.8785 -1.4316,2.3174l-1.5684,0.7832v0.5371c0,1.2426 -1.0074,2.25 -2.25,2.25c-1.2426,0 -2.25,-1.0074 -2.25,-2.25v-0.5371l-1.56836,-0.7832c-0.8775,-0.4389 -1.43164,-1.3362 -1.43164,-2.3174v-2.8623c0,-2.2184 1.37589,-4.11538 3.3209,-4.88422c-0.60846,-0.44946 -1.05449,-1.10612 -1.23393,-1.86578h-3.33697c-0.41421,0 -0.75,-0.33579 -0.75,-0.75c0,-0.41421 0.33579,-0.75 0.75,-0.75h3.33697c0.33858,-1.43335 1.62623,-2.5 3.16303,-2.5c1.5368,0 2.8245,1.06665 3.163,2.5h3.337c0.4142,0 0.75,0.33579 0.75,0.75c0,0.41421 -0.3358,0.75 -0.75,0.75zM11.25,15.75v3.75c0,0.4142 0.3358,0.75 0.75,0.75c0.4142,0 0.75,-0.3358 0.75,-0.75v-3.75c0,-0.4142 -0.3358,-0.75 -0.75,-0.75c-0.4142,0 -0.75,0.3358 -0.75,0.75zM15.75,15.8623v-2.8623c0,-2.0711 -1.6789,-3.75 -3.75,-3.75c-2.07107,0 -3.75,1.6789 -3.75,3.75v2.8623c0,0.413 0.23322,0.7908 0.60254,0.9756l0.89746,0.4482v-1.5361c0,-1.2426 1.0074,-2.25 2.25,-2.25c1.2426,0 2.25,1.0074 2.25,2.25v1.5361l0.8975,-0.4482c0.3693,-0.1848 0.6025,-0.5626 0.6025,-0.9756z" fill="#002B51"/>
</svg>
