<svg width="24" height="24" viewBox="0 0 24 24" fill="none" xmlns="http://www.w3.org/2000/svg">
<path fill-rule="evenodd" clip-rule="evenodd" d="M12 2.25C10.4632 2.25 9.17555 3.31665 8.83697 4.75H5.5C5.08579 4.75 4.75 5.08579 4.75 5.5C4.75 5.91421 5.08579 6.25 5.5 6.25H8.83697C9.01641 7.00966 9.46244 7.66632 10.0709 8.11578C8.12589 8.88462 6.75 10.7816 6.75 13V15.8624C6.75 16.8437 7.3044 17.7407 8.18205 18.1796L9.75 18.9635V19.5C9.75 20.7426 10.7574 21.75 12 21.75C13.2426 21.75 14.25 20.7426 14.25 19.5V18.9635L15.8179 18.1796C16.6956 17.7407 17.25 16.8437 17.25 15.8624V13C17.25 10.7816 15.8741 8.88462 13.9291 8.11578C14.5376 7.66632 14.9836 7.00966 15.163 6.25H18.5C18.9142 6.25 19.25 5.91421 19.25 5.5C19.25 5.08579 18.9142 4.75 18.5 4.75H15.163C14.8245 3.31665 13.5368 2.25 12 2.25ZM10.25 5.5C10.25 4.5335 11.0335 3.75 12 3.75C12.9665 3.75 13.75 4.5335 13.75 5.5C13.75 6.4665 12.9665 7.25 12 7.25C11.0335 7.25 10.25 6.4665 10.25 5.5ZM8.25 13C8.25 10.9289 9.92893 9.25 12 9.25C14.0711 9.25 15.75 10.9289 15.75 13V15.8624C15.75 16.2755 15.5166 16.6532 15.1471 16.8379L14.25 17.2865V15.75C14.25 14.5074 13.2426 13.5 12 13.5C10.7574 13.5 9.75 14.5074 9.75 15.75V17.2865L8.85287 16.8379C8.48339 16.6532 8.25 16.2755 8.25 15.8624V13ZM11.25 15.75C11.25 15.3358 11.5858 15 12 15C12.4142 15 12.75 15.3358 12.75 15.75V18.5V19.5C12.75 19.9142 12.4142 20.25 12 20.25C11.5858 20.25 11.25 19.9142 11.25 19.5V18.5V15.75Z" fill="#002B51"/>
</svg>
