<svg width="24" height="24" viewBox="0 0 24 24" fill="none" xmlns="http://www.w3.org/2000/svg">
<path fill-rule="evenodd" clip-rule="evenodd" d="M15.163,4.75h3.337c0.4142,0 0.75,0.33579 0.75,0.75c0,0.41421 -0.3358,0.75 -0.75,0.75h-3.337c-0.1794,0.75966 -0.6254,1.41632 -1.2339,1.86578c1.945,0.76884 3.3209,2.66582 3.3209,4.88422v2.8624c0,0.9813 -0.5544,1.8783 -1.4321,2.3172l-1.5679,0.7839v0.5365c0,1.2426 -1.0074,2.25 -2.25,2.25c-1.2426,0 -2.25,-1.0074 -2.25,-2.25v-0.5365l-1.56795,-0.7839c-0.87765,-0.4389 -1.43205,-1.3359 -1.43205,-2.3172v-2.8624c0,-2.2184 1.37589,-4.11538 3.3209,-4.88422c-0.60846,-0.44946 -1.05449,-1.10612 -1.23393,-1.86578h-3.33697c-0.41421,0 -0.75,-0.33579 -0.75,-0.75c0,-0.41421 0.33579,-0.75 0.75,-0.75h3.33697c0.33858,-1.43335 1.62623,-2.5 3.16303,-2.5c1.5368,0 2.8245,1.06665 3.163,2.5zM12,7.25c0.9665,0 1.75,-0.7835 1.75,-1.75c0,-0.9665 -0.7835,-1.75 -1.75,-1.75c-0.9665,0 -1.75,0.7835 -1.75,1.75c0,0.9665 0.7835,1.75 1.75,1.75zM8.25,15.8624c0,0.4131 0.23339,0.7908 0.60287,0.9755l0.89713,0.4486v-1.5365c0,-1.2426 1.0074,-2.25 2.25,-2.25c1.2426,0 2.25,1.0074 2.25,2.25v1.5365l0.8971,-0.4486c0.3695,-0.1847 0.6029,-0.5624 0.6029,-0.9755v-2.8624c0,-2.0711 -1.6789,-3.75 -3.75,-3.75c-2.07107,0 -3.75,1.6789 -3.75,3.75zM11.25,18.5v1c0,0.4142 0.3358,0.75 0.75,0.75c0.4142,0 0.75,-0.3358 0.75,-0.75v-1v-2.75c0,-0.4142 -0.3358,-0.75 -0.75,-0.75c-0.4142,0 -0.75,0.3358 -0.75,0.75z" fill="#002B51"/>
</svg>
