<svg width="24" height="24" viewBox="0 0 24 24" fill="none" xmlns="http://www.w3.org/2000/svg">
<path fill-rule="evenodd" clip-rule="evenodd" d="M12 2.25C10.4632 2.25 9.17555 3.31665 8.83697 4.75H5.5C5.08579 4.75 4.75 5.08579 4.75 5.5C4.75 5.91421 5.08579 6.25 5.5 6.25H8.83697C9.01641 7.00966 9.46244 7.66632 10.0709 8.11578C8.12589 8.88462 6.75 10.7816 6.75 13V15.8624C6.75 16.8437 7.3044 17.7407 8.18205 18.1796L9 18.5885V17.75V16.9115V16.5C9 14.8431 10.3431 13.5 12 13.5C13.6569 13.5 15 14.8431 15 16.5V16.9115V17.75V18.5885L15.8179 18.1796C16.6956 17.7407 17.25 16.8437 17.25 15.8624V13C17.25 10.7816 15.8741 8.88462 13.9291 8.11578C14.5376 7.66632 14.9836 7.00966 15.163 6.25H18.5C18.9142 6.25 19.25 5.91421 19.25 5.5C19.25 5.08579 18.9142 4.75 18.5 4.75H15.163C14.8245 3.31665 13.5368 2.25 12 2.25ZM10.25 5.5C10.25 4.5335 11.0335 3.75 12 3.75C12.9665 3.75 13.75 4.5335 13.75 5.5C13.75 6.4665 12.9665 7.25 12 7.25C11.0335 7.25 10.25 6.4665 10.25 5.5ZM11.1 15.2999C10.7357 15.5736 10.5 16.0093 10.5 16.5V18.5V19.5V20.25C10.5 21.0784 11.1716 21.75 12 21.75C12.8284 21.75 13.5 21.0784 13.5 20.25V19.5V18.5V16.5C13.5 16.0093 13.2643 15.5736 12.9 15.2999C12.6493 15.1116 12.3377 15 12 15C11.6623 15 11.3507 15.1116 11.1 15.2999Z" fill="#002B51"/>
</svg>
