<svg width="24" height="24" viewBox="0 0 24 24" fill="none" xmlns="http://www.w3.org/2000/svg">
<path d="M12,2.25c1.5367,0 2.8235,1.06675 3.1621,2.5h3.3379c0.4142,0 0.75,0.33579 0.75,0.75c0,0.41421 -0.3358,0.75 -0.75,0.75h-3.3379c-0.1797,0.7607 -0.6285,1.41479 -1.2383,1.86426c1.9477,0.76754 3.3262,2.66544 3.3262,4.88574v2.8623c0,0.9812 -0.5541,1.8785 -1.4316,2.3174l-1.5684,0.7832v0.5371c0,1.2426 -1.0074,2.25 -2.25,2.25c-1.2426,0 -2.25,-1.0074 -2.25,-2.25v-0.5371l-1.56836,-0.7832c-0.8775,-0.4389 -1.43164,-1.3362 -1.43164,-2.3174v-2.8623c0,-2.22 1.37797,-4.11799 3.3252,-4.88574c-0.60943,-0.44946 -1.05763,-1.10382 -1.23731,-1.86426h-3.33789c-0.41421,0 -0.75,-0.33579 -0.75,-0.75c0,-0.41421 0.33579,-0.75 0.75,-0.75h3.33789c0.33866,-1.43325 1.62541,-2.5 3.16211,-2.5zM12,15c-0.4142,0 -0.75,0.3358 -0.75,0.75v3.75c0,0.4142 0.3358,0.75 0.75,0.75c0.4142,0 0.75,-0.3358 0.75,-0.75v-3.75c0,-0.4142 -0.3358,-0.75 -0.75,-0.75zM12,9.25c-2.07107,0 -3.75,1.6789 -3.75,3.75v2.8623c0,0.413 0.23322,0.7908 0.60254,0.9756l0.89746,0.4482v-1.5361c0,-1.2426 1.0074,-2.25 2.25,-2.25c1.2426,0 2.25,1.0074 2.25,2.25v1.5361l0.8975,-0.4482c0.3693,-0.1848 0.6025,-0.5626 0.6025,-0.9756v-2.8623c0,-2.0711 -1.6789,-3.75 -3.75,-3.75zM12,3.75c-0.9665,0 -1.75,0.7835 -1.75,1.75c0,0.9665 0.7835,1.75 1.75,1.75c0.9665,0 1.75,-0.7835 1.75,-1.75c0,-0.9665 -0.7835,-1.75 -1.75,-1.75z" fill="#002B51"/>
</svg>
