<svg width="24" height="24" viewBox="0 0 24 24" fill="none" xmlns="http://www.w3.org/2000/svg">
<path d="M12,15c0.5804,0 1.0826,0.3302 1.332,0.8125c0.005,0.0096 0.0089,0.0196 0.0137,0.0293c0.0179,0.0364 0.0349,0.0733 0.0498,0.1113c0.0066,0.0168 0.0125,0.0338 0.0186,0.0508c0.0137,0.039 0.0256,0.0787 0.0361,0.1191c0.0029,0.0111 0.0061,0.0221 0.0088,0.0332c0.0098,0.042 0.0172,0.0847 0.0234,0.128c0.0023,0.0159 0.0051,0.0318 0.0069,0.0478c0.0061,0.0552 0.0107,0.1112 0.0107,0.168v3.75c0,0.8284 -0.6716,1.5 -1.5,1.5c-0.8284,0 -1.5,-0.6716 -1.5,-1.5v-3.75c0,-0.0568 0.0036,-0.1128 0.0098,-0.168c0.0018,-0.016 0.0045,-0.0319 0.0068,-0.0478c0.0062,-0.0433 0.0136,-0.086 0.0234,-0.128c0.0026,-0.0108 0.006,-0.0214 0.0088,-0.0322c0.0116,-0.0448 0.0255,-0.0887 0.041,-0.1318c0.0041,-0.0114 0.0074,-0.023 0.0118,-0.0342c0.0156,-0.0404 0.0337,-0.0795 0.0527,-0.1182c0.0032,-0.0064 0.0055,-0.0131 0.0088,-0.0195l0.0176,-0.0351c0.2539,-0.4678 0.7496,-0.7852 1.3193,-0.7852zM12,2.25c1.5367,0 2.8235,1.06675 3.1621,2.5h3.3379c0.4142,0 0.75,0.33579 0.75,0.75c0,0.41421 -0.3358,0.75 -0.75,0.75h-3.3379c-0.1797,0.7607 -0.6285,1.41479 -1.2383,1.86426c1.9477,0.76754 3.3262,2.66544 3.3262,4.88574v2.8623c0,0.9812 -0.5541,1.8785 -1.4316,2.3174l-0.8184,0.4082v-2.0879c0,-1.6569 -1.3431,-3 -3,-3c-1.6569,0 -3,1.3431 -3,3v2.0879l-0.81836,-0.4082c-0.8775,-0.4389 -1.43164,-1.3362 -1.43164,-2.3174v-2.8623c0,-2.22 1.37797,-4.11799 3.3252,-4.88574c-0.60943,-0.44946 -1.05763,-1.10382 -1.23731,-1.86426h-3.33789c-0.41421,0 -0.75,-0.33579 -0.75,-0.75c0,-0.41421 0.33579,-0.75 0.75,-0.75h3.33789c0.33866,-1.43325 1.62541,-2.5 3.16211,-2.5zM12,3.75c-0.9665,0 -1.75,0.7835 -1.75,1.75c0,0.9665 0.7835,1.75 1.75,1.75c0.9665,0 1.75,-0.7835 1.75,-1.75c0,-0.9665 -0.7835,-1.75 -1.75,-1.75z" fill="#002B51"/>
</svg>
