<svg width="24" height="24" viewBox="0 0 24 24" fill="none" xmlns="http://www.w3.org/2000/svg">
<path fill-rule="evenodd" clip-rule="evenodd" d="M14.9527,4.14012c0.1388,-0.08626 0.3078,-0.18848 0.4877,-0.2913c0.2288,-0.13073 0.4877,-0.26957 0.7316,-0.37793c0.2058,-0.0915 0.526,-0.22089 0.828,-0.22089c0.302,0 0.6222,0.12939 0.828,0.22089c0.2439,0.10836 0.5028,0.2472 0.7316,0.37793c0.2312,0.13213 0.4443,0.26327 0.5987,0.36081c0.0775,0.04897 0.141,0.08992 0.1855,0.1189l0.0521,0.03409l0.0143,0.00945l0.004,0.00266l0.0012,0.0008l0.0004,0.00026l0.0001,0.0001c0.0001,0.00004 0.0001,0.00007 -0.4159,0.62411l0.416,-0.62404c0.3447,0.22977 0.4378,0.69542 0.208,1.04007c-0.2297,0.3446 -0.6953,0.43775 -1.0399,0.20808v-0.00002l-0.0001,-0.00005l-0.0003,-0.00022l-0.0025,-0.00162l-0.011,-0.00728l-0.0449,-0.02939c-0.0395,-0.02571 -0.0971,-0.06288 -0.168,-0.10766c-0.1424,-0.08996 -0.3356,-0.20882 -0.5419,-0.32669c-0.2087,-0.11927 -0.4185,-0.23043 -0.5966,-0.30957c-0.1183,-0.05261 -0.1883,-0.07507 -0.2188,-0.08463c-0.0305,0.00956 -0.1005,0.03202 -0.2188,0.08463c-0.1781,0.07914 -0.3879,0.1903 -0.5966,0.30957c-0.2063,0.11787 -0.3995,0.23673 -0.5419,0.32669c-0.0709,0.04478 -0.1285,0.08195 -0.168,0.10766l-0.0449,0.02939l-0.011,0.00728l-0.0024,0.00162l-0.0004,0.00022v0.00005l-0.0001,0.00002v0.00001l-0.1747,0.11645c-0.0603,0.82401 -0.4278,1.5627 -0.9885,2.10202c0.6356,0.37917 1.1342,0.91133 1.5083,1.50991c0.7173,1.1477 0.989,2.5448 0.989,3.6475v0.0117v0.0118v0.0118v0.0118v0.0118v0.0119v0.0119v0.0119v0.012v0.012v0.012v0.012v0.0121v0.0121v0.0121v0.0121v0.0122v0.0122v0.0122v0.0122v0.0123v0.0123v0.0123v0.0123v0.0124v0.0124v0.0124v0.0124v0.0125v0.0124v0.0125v0.0125v0.0126v0.0126v0.0125v0.0127v0.0126v0.0126v0.0127v0.0127v0.0127v0.0127v0.0128v0.0128v0.0128v0.0128v0.0128v0.0129v0.0128v0.0129v0.0129v0.0129v0.013v0.0129v0.013v0.013v0.013v0.0131v0.013v0.0131v0.0131v0.0131v0.0131v0.0131v0.0132v0.0131v0.0132v0.0132v0.0132v0.0132v0.0132v0.0133v0.0133v0.0132v0.0133v0.0133v0.0134v0.0133v0.0133v0.0134v0.0134v0.0133v0.0134v0.0134v0.0135v0.0134v0.0134v0.0135v0.0134v0.0135v0.0135v0.0135v0.0135v0.0135v0.0135v0.0136v0.0135v0.0136v0.0135v0.0136v0.0136v0.0136v0.0136v0.0136v0.0136v0.0136v0.0136v0.0136v0.0137v0.0136v0.0137v0.0136v0.0137v0.0137v0.0136v0.0137v0.0005v0.0132v0.0137v0.0137v0.0137v0.0137v0.0137v0.0137v0.0138v0.0137v0.0137v0.0137v0.0138v0.0137v0.0137v0.0138v0.0137v0.0138v0.0137v0.0138v0.0137v0.0138v0.0137v0.0138v0.0137v0.0138v0.0137v0.0138v0.0137v0.0138v0.0137v0.0138v0.0137v0.0138v0.0137v0.0138v0.0137v0.0138v0.0137v0.0137v0.0138v0.0137v0.0137v0.0138v0.0137v0.0137v0.0137v0.0137v0.0137v0.0137v0.0137v0.0137v0.0137v0.0137v0.0137v0.0091h2.25c0.4142,0 0.75,0.3358 0.75,0.75c0,0.4142 -0.3358,0.75 -0.75,0.75h-2.25v0.0106v0.0116v0.0116v0.0115v0.0115v0.0115v0.0115v0.0114v0.0114v0.0113v0.0114v0.0113v0.0112v0.0113v0.0112v0.0111v0.0112v0.0111v0.0111v0.011v0.011v0.011v0.0109v0.0109v0.0109v0.0108v0.0108v0.0108v0.0107v0.0107v0.0107v0.0106v0.0106v0.0106v0.0105v0.0105v0.0104v0.0104v0.0104v0.0103v0.0103v0.0103v0.0102v0.0102v0.0102v0.0095v0.0006v0.0101v0.01v0.01v0.0099v0.01v0.0098v0.0099v0.0098v0.0097v0.0098v0.0096v0.0097v0.0096v0.0095v0.0095v0.0095v0.0094v0.0094v0.0094v0.0093v0.0092v0.0093v0.0091v0.0092v0.0091v0.009v0.009v0.009v0.0089v0.0089v0.0088v0.0088v0.0087v0.0087v0.0087v0.0086v0.0085v0.0085v0.0085v0.0084v0.0084v0.0083v0.0083v0.0082v0.0082v0.0082v0.0081v0.008v0.008v0.0079v0.0079v0.0079v0.0078v0.0077v0.0077v0.0077v0.0076v0.0075v0.0076v0.0074v0.0074v0.0074v0.0073v0.0072v0.0072v0.0072v0.0071v0.007v0.007v0.0069v0.0069v0.0068v0.0068v0.0068v0.0066v0.0067v0.0065v0.0065v0.0065v0.0064v0.0064v0.0062v0.0063v0.0062v0.0061v0.0061v0.006v0.006v0.0059v0.0058v0.0058v0.0058v0.0056v0.0057v0.0055v0.0055v0.0055v0.0054v0.0053v0.0053v0.0052v0.0052v0.0051v0.005v0.005v0.0049v0.0049v0.0048v0.0048v0.0046v0.0047v0.0045v0.0045v0.0045v0.0043v0.0044v0.0042v0.0042v0.0041v0.0041v0.004v0.004v0.0038v0.0039v0.0037v0.0037v0.0036v0.0036v0.0035v0.0034v0.0034v0.0033v0.0033v0.0031v0.0032v0.003v0.003v0.0029v0.0028v0.0028v0.0027v0.0027v0.0026v0.0025v0.0024v0.0024v0.0023v0.0023v0.0021v0.0021v0.0021v0.0019v0.0019v0.0019v0.0017v0.0017v0.0017v0.0015v0.0015v0.0014v0.0013v0.0013v0.0012v0.0011v0.0011v0.001v0.0009v0.0008v0.0008v0.0007v0.0006v0.0006v0.0005v0.0004v0.0003v0.0003v0.0002v0.0001h-0.75h0.75c0,0.4142 -0.3358,0.75 -0.75,0.75c-0.4142,0 -0.75,-0.3358 -0.75,-0.75h0.75h-0.75v-0.0001v-0.0002v-0.0003v-0.0003v-0.0004v-0.0005v-0.0006v-0.0006v-0.0007v-0.0008v-0.0008v-0.0009v-0.001v-0.0011v-0.0011v-0.0012v-0.0013v-0.0013v-0.0014v-0.0015v-0.0015v-0.0017v-0.0017v-0.0017v-0.0019v-0.0019v-0.0019v-0.0021v-0.0021v-0.0021v-0.0023v-0.0023v-0.0024v-0.0024v-0.0025v-0.0026v-0.0027v-0.0027v-0.0028v-0.0028v-0.0029v-0.003v-0.003v-0.0032v-0.0031v-0.0033v-0.0033v-0.0034v-0.0034v-0.0035v-0.0036v-0.0036v-0.0037v-0.0037v-0.0039v-0.0038v-0.004v-0.004v-0.0041v-0.0041v-0.0042v-0.0042v-0.0044v-0.0043v-0.0045v-0.0045v-0.0045v-0.0047v-0.0046v-0.0048v-0.0048v-0.0049v-0.0049v-0.005v-0.005v-0.0051v-0.0052v-0.0052v-0.0053v-0.0053v-0.0054v-0.0055v-0.0055v-0.0055v-0.0057v-0.0056v-0.0058v-0.0058v-0.0058v-0.0059v-0.006v-0.006v-0.0061v-0.0061v-0.0062v-0.0063v-0.0062v-0.0064v-0.0064v-0.0065v-0.0065v-0.0065v-0.0067v-0.0066v-0.0068v-0.0068v-0.0068v-0.0069v-0.0069v-0.007v-0.007v-0.0071v-0.0072v-0.0072v-0.0072v-0.0073v-0.0074v-0.0074v-0.0074v-0.0076v-0.0075v-0.0076v-0.0077v-0.0077v-0.0077v-0.0078v-0.0079v-0.0079v-0.0079v-0.008v-0.008v-0.0081v-0.0082v-0.0082v-0.0082v-0.0083v-0.0083v-0.0084v-0.0084v-0.0085v-0.0085v-0.0085v-0.0086v-0.0087v-0.0087v-0.0087v-0.0088v-0.0088v-0.0089v-0.0089v-0.009v-0.009v-0.009v-0.0091v-0.0092v-0.0091v-0.0093v-0.0092v-0.0093v-0.0094v-0.0094v-0.0094v-0.0095v-0.0095v-0.0095v-0.0096v-0.0097v-0.0096v-0.0098v-0.0097v-0.0098v-0.0099v-0.0098v-0.01v-0.0099v-0.01v-0.01v-0.0101v-0.0006v-0.0095v-0.0102v-0.0102v-0.0102v-0.0103v-0.0103v-0.0103v-0.0104v-0.0104v-0.0104v-0.0105v-0.0105v-0.0106v-0.0106v-0.0106v-0.0107v-0.0107v-0.0107v-0.0108v-0.0108v-0.0108v-0.0109v-0.0109v-0.0109v-0.011v-0.011v-0.011v-0.0111v-0.0111v-0.0112v-0.0111v-0.0112v-0.0113v-0.0112v-0.0113v-0.0114v-0.0113v-0.0114v-0.0114v-0.0115v-0.0115v-0.0115v-0.0115v-0.0116v-0.0116v-0.0116v-0.0117v-0.0117v-0.0117v-0.0117v-0.0118v-0.0118v-0.0118v-0.0119v-0.0119v-0.0119v-0.0119v-0.012v-0.012v-0.012v-0.012v-0.0121v-0.0121v-0.0121v-0.0122v-0.0122v-0.0122v-0.0122v-0.0122v-0.0123v-0.0123v-0.0123v-0.0124v-0.0124v-0.0123v-0.0125v-0.0124v-0.0125v-0.0124v-0.0126v-0.0125v-0.0125v-0.0126v-0.0126v-0.0126v-0.0127v-0.0126v-0.0127v-0.0127v-0.0127v-0.0128v-0.0127v-0.0128v-0.0128v-0.0128v-0.0129v-0.0128v-0.0129v-0.0129v-0.0129v-0.013v-0.0129v-0.013v-0.013v-0.013v-0.013v-0.013v-0.0131v-0.0131v-0.013v-0.0132v-0.0131v-0.0131v-0.0132v-0.0131v-0.0132v-0.0132v-0.0132v-0.0133v-0.0132v-0.0133v-0.0132v-0.0133v-0.0133v-0.0133v-0.0133v-0.0134v-0.0133v-0.0134v-0.0134v-0.0134v-0.0134v-0.0134v-0.0134v-0.0134v-0.0135v-0.0134v-0.0135v-0.0135v-0.0135v-0.0135v-0.0135v-0.0135v-0.0135v-0.0136v-0.0135v-0.0136v-0.0135v-0.0136v-0.0136v-0.0136v-0.0136v-0.0136v-0.0136v-0.0136v-0.0136v-0.0137v-0.0136v-0.0137v-0.0136v-0.0137v-0.0136v-0.0137v-0.0137v-0.0137v-0.0137v-0.0137v-0.0137v-0.0137v-0.0137v-0.0137v-0.0137v-0.0137v-0.0137v-0.0138v-0.0137v-0.0137v-0.0138v-0.0137v-0.0137v-0.0138v-0.0137v-0.0138v-0.0137v-0.0138v-0.0137v-0.0138v-0.0137v-0.0138v-0.0137v-0.0138v-0.0137v-0.0138v-0.0137v-0.0138v-0.0137v-0.0138v-0.0137v-0.0138v-0.0137v-0.0138v-0.0137v-0.0138v-0.0137v-0.0137v-0.0138v-0.0137v-0.0137v-0.0137v-0.0138v-0.0137v-0.0137v-0.0137v-0.0137v-0.0137v-0.0137v-0.0132c0,-1.7949 -1.4551,-3.25 -3.25,-3.25c-1.7949,0 -3.25,1.4551 -3.25,3.25v0.0132v0.0137v0.0137v0.0137v0.0137v0.0137v0.0137v0.0138v0.0137v0.0137v0.0137v0.0138v0.0137v0.0137v0.0138v0.0137v0.0138v0.0137v0.0138v0.0137v0.0138v0.0137v0.0138v0.0137v0.0138v0.0137v0.0138v0.0137v0.0138v0.0137v0.0138v0.0137v0.0138v0.0137v0.0138v0.0137v0.0138v0.0137v0.0137v0.0138v0.0137v0.0137v0.0138v0.0137v0.0137v0.0137v0.0137v0.0137v0.0137v0.0137v0.0137v0.0137v0.0137v0.0137v0.0137v0.0136v0.0137v0.0136v0.0137v0.0136v0.0137v0.0136v0.0136v0.0136v0.0136v0.0136v0.0136v0.0136v0.0136v0.0135v0.0136v0.0135v0.0136v0.0135v0.0135v0.0135v0.0135v0.0135v0.0135v0.0135v0.0134v0.0135v0.0134v0.0134v0.0134v0.0134v0.0134v0.0134v0.0134v0.0133v0.0134v0.0133v0.0133v0.0133v0.0133v0.0132v0.0133v0.0132v0.0133v0.0132v0.0132v0.0132v0.0131v0.0132v0.0131v0.0131v0.0132v0.013v0.0131v0.0131v0.013v0.013v0.013v0.013v0.013v0.0129v0.013v0.0129v0.0129v0.0129v0.0128v0.0129v0.0128v0.0128v0.0128v0.0127v0.0128v0.0127v0.0127v0.0127v0.0126v0.0127v0.0126v0.0126v0.0126v0.0125v0.0125v0.0126v0.0124v0.0125v0.0124v0.0125v0.0123v0.0124v0.0124v0.0123v0.0123v0.0123v0.0122v0.0122v0.0122v0.0122v0.0122v0.0121v0.0121v0.0121v0.012v0.012v0.012v0.012v0.0119v0.0119v0.0119v0.0119v0.0118v0.0118v0.0118v0.0117v0.0117v0.0117v0.0117v0.0116v0.0116v0.0116v0.0115v0.0115v0.0115v0.0115v0.0114v0.0114v0.0113v0.0114v0.0113v0.0112v0.0113v0.0112v0.0111v0.0112v0.0111v0.0111v0.011v0.011v0.011v0.0109v0.0109v0.0109v0.0108v0.0108v0.0108v0.0107v0.0107v0.0107v0.0106v0.0106v0.0106v0.0105v0.0105v0.0104v0.0104v0.0104v0.0103v0.0103v0.0103v0.0102v0.0102v0.0102v0.0095v0.0006v0.0101v0.01v0.01v0.0099v0.01v0.0098v0.0099v0.0098v0.0097v0.0098v0.0096v0.0097v0.0096v0.0095v0.0095v0.0095v0.0094v0.0094v0.0094v0.0093v0.0092v0.0093v0.0091v0.0092v0.0091v0.009v0.009v0.009v0.0089v0.0089v0.0088v0.0088v0.0087v0.0087v0.0087v0.0086v0.0085v0.0085v0.0085v0.0084v0.0084v0.0083v0.0083v0.0082v0.0082v0.0082v0.0081v0.008v0.008v0.0079v0.0079v0.0079v0.0078v0.0077v0.0077v0.0077v0.0076v0.0075v0.0076v0.0074v0.0074v0.0074v0.0073v0.0072v0.0072v0.0072v0.0071v0.007v0.007v0.0069v0.0069v0.0068v0.0068v0.0068v0.0066v0.0067v0.0065v0.0065v0.0065v0.0064v0.0064v0.0062v0.0063v0.0062v0.0061v0.0061v0.006v0.006v0.0059v0.0058v0.0058v0.0058v0.0056v0.0057v0.0055v0.0055v0.0055v0.0054v0.0053v0.0053v0.0052v0.0052v0.0051v0.005v0.005v0.0049v0.0049v0.0048v0.0048v0.0046v0.0047v0.0045v0.0045v0.0045v0.0043v0.0044v0.0042v0.0042v0.0041v0.0041v0.004v0.004v0.0038v0.0039v0.0037v0.0037v0.0036v0.0036v0.0035v0.0034v0.0034v0.0033v0.0033v0.0031v0.0032v0.003v0.003v0.0029v0.0028v0.0028v0.0027v0.0027v0.0026v0.0025v0.0024v0.0024v0.0023v0.0023v0.0021v0.0021v0.0021v0.0019v0.0019v0.0019v0.0017v0.0017v0.0017v0.0015v0.0015v0.0014v0.0013v0.0013v0.0012v0.0011v0.0011v0.001v0.0009v0.0008v0.0008v0.0007v0.0006v0.0006v0.0005v0.0004v0.0003v0.0003v0.0002v0.0001h-0.75h0.75c0,0.4142 -0.33579,0.75 -0.75,0.75c-0.41421,0 -0.75,-0.3358 -0.75,-0.75h0.75h-0.75v-0.0001v-0.0002v-0.0003v-0.0003v-0.0004v-0.0005v-0.0006v-0.0006v-0.0007v-0.0008v-0.0008v-0.0009v-0.001v-0.0011v-0.0011v-0.0012v-0.0013v-0.0013v-0.0014v-0.0015v-0.0015v-0.0017v-0.0017v-0.0017v-0.0019v-0.0019v-0.0019v-0.0021v-0.0021v-0.0021v-0.0023v-0.0023v-0.0024v-0.0024v-0.0025v-0.0026v-0.0027v-0.0027v-0.0028v-0.0028v-0.0029v-0.003v-0.003v-0.0032v-0.0031v-0.0033v-0.0033v-0.0034v-0.0034v-0.0035v-0.0036v-0.0036v-0.0037v-0.0037v-0.0039v-0.0038v-0.004v-0.004v-0.0041v-0.0041v-0.0042v-0.0042v-0.0044v-0.0043v-0.0045v-0.0045v-0.0045v-0.0047v-0.0046v-0.0048v-0.0048v-0.0049v-0.0049v-0.005v-0.005v-0.0051v-0.0052v-0.0052v-0.0053v-0.0053v-0.0054v-0.0055v-0.0055v-0.0055v-0.0057v-0.0056v-0.0058v-0.0058v-0.0058v-0.0059v-0.006v-0.006v-0.0061v-0.0061v-0.0062v-0.0063v-0.0062v-0.0064v-0.0064v-0.0065v-0.0065v-0.0065v-0.0067v-0.0066v-0.0068v-0.0068v-0.0068v-0.0069v-0.0069v-0.007v-0.007v-0.0071v-0.0072v-0.0072v-0.0072v-0.0073v-0.0074v-0.0074v-0.0074v-0.0076v-0.0075v-0.0076v-0.0077v-0.0077v-0.0077v-0.0078v-0.0079v-0.0079v-0.0079v-0.008v-0.008v-0.0081v-0.0082v-0.0082v-0.0082v-0.0083v-0.0083v-0.0084v-0.0084v-0.0085v-0.0085v-0.0085v-0.0086v-0.0087v-0.0087v-0.0087v-0.0088v-0.0088v-0.0089v-0.0089v-0.009v-0.009v-0.009v-0.0091v-0.0092v-0.0091v-0.0093v-0.0092v-0.0093v-0.0094v-0.0094v-0.0094v-0.0095v-0.0095v-0.0095v-0.0096v-0.0097v-0.0096v-0.0098v-0.0097v-0.0098v-0.0099v-0.0098v-0.01v-0.0099v-0.01v-0.01v-0.0101v-0.0006v-0.0095v-0.0102v-0.0102v-0.0102v-0.0103v-0.0103v-0.0103v-0.0104v-0.0104v-0.0104v-0.0105v-0.0105v-0.0106v-0.0106v-0.0106v-0.0107v-0.0107v-0.0107v-0.0108v-0.0108v-0.0108v-0.0109v-0.0109v-0.0109v-0.011v-0.011v-0.011v-0.0111v-0.0111v-0.0112v-0.0111v-0.0112v-0.0113v-0.0112v-0.0113v-0.0114v-0.0113v-0.0114v-0.0114v-0.0115v-0.0115v-0.0115v-0.0115v-0.0116v-0.0116v-0.0106h-2.25c-0.41421,0 -0.75,-0.3358 -0.75,-0.75c0,-0.4142 0.33579,-0.75 0.75,-0.75h2.25v-0.0091v-0.0137v-0.0137v-0.0137v-0.0137v-0.0137v-0.0137v-0.0137v-0.0137v-0.0137v-0.0137v-0.0137v-0.0138v-0.0137v-0.0137v-0.0138v-0.0137v-0.0137v-0.0138v-0.0137v-0.0138v-0.0137v-0.0138v-0.0137v-0.0138v-0.0137v-0.0138v-0.0137v-0.0138v-0.0137v-0.0138v-0.0137v-0.0138v-0.0137v-0.0138v-0.0137v-0.0138v-0.0137v-0.0138v-0.0137v-0.0138v-0.0137v-0.0137v-0.0138v-0.0137v-0.0137v-0.0137v-0.0138v-0.0137v-0.0137v-0.0137v-0.0137v-0.0137v-0.0137v-0.0132v-0.0005v-0.0137v-0.0136v-0.0137v-0.0137v-0.0136v-0.0137v-0.0136v-0.0137v-0.0136v-0.0136v-0.0136v-0.0136v-0.0136v-0.0136v-0.0136v-0.0136v-0.0136v-0.0135v-0.0136v-0.0135v-0.0136v-0.0135v-0.0135v-0.0135v-0.0135v-0.0135v-0.0135v-0.0134v-0.0135v-0.0134v-0.0134v-0.0135v-0.0134v-0.0134v-0.0133v-0.0134v-0.0134v-0.0133v-0.0133v-0.0134v-0.0133v-0.0133v-0.0132v-0.0133v-0.0133v-0.0132v-0.0132v-0.0132v-0.0132v-0.0132v-0.0131v-0.0132v-0.0131v-0.0131v-0.0131v-0.0131v-0.0131v-0.013v-0.0131v-0.013v-0.013v-0.013v-0.0129v-0.013v-0.0129v-0.0129v-0.0129v-0.0128v-0.0129v-0.0128v-0.0128v-0.0128v-0.0128v-0.0128v-0.0127v-0.0127v-0.0127v-0.0127v-0.0126v-0.0126v-0.0127v-0.0125v-0.0126v-0.0126v-0.0125v-0.0125v-0.0124v-0.0125v-0.0124v-0.0124v-0.0124v-0.0124v-0.0123v-0.0123v-0.0123v-0.0123v-0.0122v-0.0122v-0.0122v-0.0122v-0.0121v-0.0121v-0.0121v-0.0121v-0.012v-0.012v-0.012v-0.012v-0.0119v-0.0119v-0.0119v-0.0118v-0.0118v-0.0118v-0.0118v-0.0117c0,-1.1027 0.27171,-2.4998 0.989,-3.6475c0.37411,-0.59858 0.87272,-1.13074 1.50826,-1.50992c-0.56068,-0.53931 -0.9282,-1.278 -0.98849,-2.10202l-0.17467,-0.11644l-0.00002,-0.00001l-0.00003,-0.00002l-0.00007,-0.00005l-0.00033,-0.00022l-0.00245,-0.00162l-0.01101,-0.00728l-0.04487,-0.02939c-0.03948,-0.02571 -0.09709,-0.06288 -0.168,-0.10766c-0.14242,-0.08996 -0.33565,-0.20882 -0.54192,-0.32669c-0.20873,-0.11927 -0.4185,-0.23043 -0.59656,-0.30957c-0.11837,-0.05261 -0.18833,-0.07507 -0.21884,-0.08463c-0.0305,0.00956 -0.10046,0.03202 -0.21883,0.08463c-0.17806,0.07914 -0.38783,0.1903 -0.59656,0.30957c-0.20627,0.11787 -0.3995,0.23673 -0.54192,0.32669c-0.07091,0.04478 -0.12852,0.08195 -0.168,0.10766l-0.04487,0.02939l-0.01102,0.00728l-0.00244,0.00162l-0.00033,0.00022l-0.00008,0.00005c-0.34464,0.2297 -0.81024,0.13656 -1.03998,-0.20806c-0.22977,-0.34465 -0.13664,-0.8103 0.20801,-1.04007l0.41591,0.62388c-0.41591,-0.62388 -0.41586,-0.62391 -0.4158,-0.62395l0.00014,-0.0001l0.0004,-0.00026l0.0012,-0.0008l0.00401,-0.00266l0.01429,-0.00945l0.05205,-0.03409c0.0445,-0.02898 0.10799,-0.06993 0.18552,-0.1189c0.15445,-0.09754 0.36747,-0.22868 0.5987,-0.36081c0.22877,-0.13073 0.48775,-0.26957 0.73156,-0.37793c0.20587,-0.0915 0.52608,-0.22089 0.82804,-0.22089c0.30197,0 0.62218,0.12939 0.82804,0.22089c0.24382,0.10836 0.5028,0.2472 0.73157,0.37793c0.17994,0.10282 0.34885,0.20504 0.48771,0.29129c0.51473,-1.11575 1.64328,-1.89011 2.95268,-1.89011c1.3094,0 2.438,0.77436 2.9527,1.89012zM12,7.25c0.9665,0 1.75,-0.7835 1.75,-1.75c0,-0.9665 -0.7835,-1.75 -1.75,-1.75c-0.9665,0 -1.75,0.7835 -1.75,1.75c0,0.9665 0.7835,1.75 1.75,1.75zM12,8.75c-1.1986,0 -1.9767,0.5779 -2.489,1.3975c-0.09456,0.1513 -0.17953,0.3105 -0.25534,0.475c0.77504,-0.5495 1.72194,-0.8725 2.74434,-0.8725c1.0224,0 1.9693,0.323 2.7443,0.8725c-0.0758,-0.1645 -0.1607,-0.3237 -0.2553,-0.475c-0.5123,-0.8196 -1.2904,-1.3975 -2.489,-1.3975zM9.75,14.5c0,-1.2426 1.0074,-2.25 2.25,-2.25c1.2426,0 2.25,1.0074 2.25,2.25v5c0,1.2426 -1.0074,2.25 -2.25,2.25c-1.2426,0 -2.25,-1.0074 -2.25,-2.25zM12,13.75c-0.4142,0 -0.75,0.3358 -0.75,0.75v5c0,0.4142 0.3358,0.75 0.75,0.75c0.4142,0 0.75,-0.3358 0.75,-0.75v-5c0,-0.4142 -0.3358,-0.75 -0.75,-0.75z" fill="#002B51"/>
</svg>
