<svg width="24" height="24" viewBox="0 0 24 24" fill="none" xmlns="http://www.w3.org/2000/svg">
<path fill-rule="evenodd" clip-rule="evenodd" d="M12 2.25C10.6905 2.25 9.562 3.02436 9.04728 4.14011C8.90841 4.05386 8.7395 3.95164 8.55956 3.84882C8.33079 3.71809 8.07181 3.57925 7.828 3.47089C7.62213 3.37939 7.30192 3.25 6.99996 3.25C6.69799 3.25 6.37778 3.37939 6.17192 3.47089C5.9281 3.57925 5.66913 3.71809 5.44035 3.84882C5.20912 3.98095 4.9961 4.11209 4.84165 4.20963C4.76412 4.2586 4.70063 4.29955 4.65613 4.32853L4.60408 4.36262L4.58979 4.37207L4.58578 4.37473L4.58458 4.37553L4.58419 4.37579L4.58404 4.37589C4.58399 4.37593 4.58393 4.37596 4.99985 4.99984L4.58393 4.37596C4.23929 4.60573 4.14616 5.07138 4.37592 5.41603C4.60567 5.76065 5.07127 5.85379 5.41591 5.62409L5.41598 5.62404L5.41631 5.62382L5.41876 5.6222L5.42977 5.61492L5.47464 5.58553C5.51412 5.55982 5.57173 5.52265 5.64264 5.47787C5.78507 5.38791 5.9783 5.26905 6.18456 5.15118C6.39329 5.03191 6.60306 4.92075 6.78112 4.84161C6.89949 4.789 6.96945 4.76654 6.99996 4.75698C7.03047 4.76654 7.10042 4.789 7.21879 4.84161C7.39685 4.92075 7.60663 5.03191 7.81535 5.15118C8.02162 5.26905 8.21485 5.38791 8.35728 5.47787C8.42819 5.52265 8.48579 5.55982 8.52527 5.58553L8.57015 5.61492L8.58116 5.6222L8.5836 5.62382L8.58393 5.62404L8.58401 5.62409L8.58404 5.62411L8.58405 5.62412L8.75872 5.74056C8.81901 6.56458 9.18653 7.30327 9.74722 7.84258C9.11168 8.22176 8.61307 8.75392 8.23896 9.3525C7.52167 10.5002 7.24995 11.8973 7.24995 13V13.0117V13.0235V13.0353V13.0471V13.0589V13.0708V13.0827V13.0946V13.1066V13.1186V13.1306V13.1426V13.1547V13.1668V13.1789V13.191V13.2032V13.2154V13.2276V13.2398V13.2521V13.2644V13.2767V13.289V13.3014V13.3138V13.3262V13.3386V13.3511V13.3635V13.376V13.3885V13.4011V13.4137V13.4262V13.4389V13.4515V13.4641V13.4768V13.4895V13.5022V13.5149V13.5277V13.5405V13.5533V13.5661V13.5789V13.5918V13.6046V13.6175V13.6304V13.6433V13.6563V13.6692V13.6822V13.6952V13.7082V13.7213V13.7343V13.7474V13.7605V13.7736V13.7867V13.7998V13.813V13.8261V13.8393V13.8525V13.8657V13.8789V13.8921V13.9054V13.9187V13.9319V13.9452V13.9585V13.9719V13.9852V13.9985V14.0119V14.0253V14.0386V14.052V14.0654V14.0789V14.0923V14.1057V14.1192V14.1326V14.1461V14.1596V14.1731V14.1866V14.2001V14.2136V14.2272V14.2407V14.2543V14.2678V14.2814V14.295V14.3086V14.3222V14.3358V14.3494V14.363V14.3766V14.3902V14.4039V14.4175V14.4312V14.4448V14.4585V14.4722V14.4858V14.4995L7.24995 14.5L7.24995 14.5132V14.5269V14.5406V14.5543V14.568V14.5817V14.5954V14.6092V14.6229V14.6366V14.6503V14.6641V14.6778V14.6915V14.7053V14.719V14.7328V14.7465V14.7603V14.774V14.7878V14.8015V14.8153V14.829V14.8428V14.8565V14.8703V14.884V14.8978V14.9115V14.9253V14.939V14.9528V14.9665V14.9803V14.994V15.0078V15.0215V15.0352V15.049V15.0627V15.0764V15.0902V15.1039V15.1176V15.1313V15.145V15.1587V15.1724V15.1861V15.1998V15.2135V15.2272V15.2409V15.25H4.99995C4.58574 15.25 4.24995 15.5858 4.24995 16C4.24995 16.4142 4.58574 16.75 4.99995 16.75H7.24995V16.7606V16.7722V16.7838V16.7953V16.8068V16.8183V16.8298V16.8412V16.8526V16.8639V16.8753V16.8866V16.8978V16.9091V16.9203V16.9314V16.9426V16.9537V16.9648V16.9758V16.9868V16.9978V17.0087V17.0196V17.0305V17.0413V17.0521V17.0629V17.0736V17.0843V17.095V17.1056V17.1162V17.1268V17.1373V17.1478V17.1582V17.1686V17.179V17.1893V17.1996V17.2099V17.2201V17.2303V17.2405L7.24995 17.25L7.24995 17.2506V17.2607V17.2707V17.2807V17.2906V17.3006V17.3104V17.3203V17.3301V17.3398V17.3496V17.3592V17.3689V17.3785V17.388V17.3975V17.407V17.4164V17.4258V17.4352V17.4445V17.4537V17.463V17.4721V17.4813V17.4904V17.4994V17.5084V17.5174V17.5263V17.5352V17.544V17.5528V17.5615V17.5702V17.5789V17.5875V17.596V17.6045V17.613V17.6214V17.6298V17.6381V17.6464V17.6546V17.6628V17.671V17.6791V17.6871V17.6951V17.703V17.7109V17.7188V17.7266V17.7343V17.742V17.7497V17.7573V17.7648V17.7724V17.7798V17.7872V17.7946V17.8019V17.8091V17.8163V17.8235V17.8306V17.8376V17.8446V17.8515V17.8584V17.8652V17.872V17.8788V17.8854V17.8921V17.8986V17.9051V17.9116V17.918V17.9244V17.9306V17.9369V17.9431V17.9492V17.9553V17.9613V17.9673V17.9732V17.979V17.9848V17.9906V17.9962V18.0019V18.0074V18.0129V18.0184V18.0238V18.0291V18.0344V18.0396V18.0448V18.0499V18.0549V18.0599V18.0648V18.0697V18.0745V18.0793V18.0839V18.0886V18.0931V18.0976V18.1021V18.1064V18.1108V18.115V18.1192V18.1233V18.1274V18.1314V18.1354V18.1392V18.1431V18.1468V18.1505V18.1541V18.1577V18.1612V18.1646V18.168V18.1713V18.1746V18.1777V18.1809V18.1839V18.1869V18.1898V18.1926V18.1954V18.1981V18.2008V18.2034V18.2059V18.2083V18.2107V18.213V18.2153V18.2174V18.2195V18.2216V18.2235V18.2254V18.2273V18.229V18.2307V18.2324V18.2339V18.2354V18.2368V18.2381V18.2394V18.2406V18.2417V18.2428V18.2438V18.2447V18.2455V18.2463V18.247V18.2476V18.2482V18.2487V18.2491V18.2494V18.2497V18.2499V18.25L7.99995 18.25H7.24995C7.24995 18.6642 7.58574 19 7.99995 19C8.41417 19 8.74995 18.6642 8.74995 18.25H7.99995L8.74995 18.25V18.2499V18.2497V18.2494V18.2491V18.2487V18.2482V18.2476V18.247V18.2463V18.2455V18.2447V18.2438V18.2428V18.2417V18.2406V18.2394V18.2381V18.2368V18.2354V18.2339V18.2324V18.2307V18.229V18.2273V18.2254V18.2235V18.2216V18.2195V18.2174V18.2153V18.213V18.2107V18.2083V18.2059V18.2034V18.2008V18.1981V18.1954V18.1926V18.1898V18.1869V18.1839V18.1809V18.1777V18.1746V18.1713V18.168V18.1646V18.1612V18.1577V18.1541V18.1505V18.1468V18.1431V18.1392V18.1354V18.1314V18.1274V18.1233V18.1192V18.115V18.1108V18.1064V18.1021V18.0976V18.0931V18.0886V18.0839V18.0793V18.0745V18.0697V18.0648V18.0599V18.0549V18.0499V18.0448V18.0396V18.0344V18.0291V18.0238V18.0184V18.0129V18.0074V18.0019V17.9962V17.9906V17.9848V17.979V17.9732V17.9673V17.9613V17.9553V17.9492V17.9431V17.9369V17.9306V17.9244V17.918V17.9116V17.9051V17.8986V17.8921V17.8854V17.8788V17.872V17.8652V17.8584V17.8515V17.8446V17.8376V17.8306V17.8235V17.8163V17.8091V17.8019V17.7946V17.7872V17.7798V17.7724V17.7648V17.7573V17.7497V17.742V17.7343V17.7266V17.7188V17.7109V17.703V17.6951V17.6871V17.6791V17.671V17.6628V17.6546V17.6464V17.6381V17.6298V17.6214V17.613V17.6045V17.596V17.5875V17.5789V17.5702V17.5615V17.5528V17.544V17.5352V17.5263V17.5174V17.5084V17.4994V17.4904V17.4813V17.4721V17.463V17.4537V17.4445V17.4352V17.4258V17.4164V17.407V17.3975V17.388V17.3785V17.3689V17.3592V17.3496V17.3398V17.3301V17.3203V17.3104V17.3006V17.2906V17.2807V17.2707V17.2607V17.2506V17.25V17.2405V17.2303V17.2201V17.2099V17.1996V17.1893V17.179V17.1686V17.1582V17.1478V17.1373V17.1268V17.1162V17.1056V17.095V17.0843V17.0736V17.0629V17.0521V17.0413V17.0305V17.0196V17.0087V16.9978V16.9868V16.9758V16.9648V16.9537V16.9426V16.9314V16.9203V16.9091V16.8978V16.8866V16.8753V16.8639V16.8526V16.8412V16.8298V16.8183V16.8068V16.7953V16.7838V16.7722V16.7606V16.749V16.7373V16.7256V16.7139V16.7022V16.6904V16.6786V16.6668V16.6549V16.643V16.6311V16.6192V16.6072V16.5952V16.5832V16.5712V16.5591V16.547V16.5349V16.5227V16.5105V16.4983V16.4861V16.4739V16.4616V16.4493V16.437V16.4246V16.4122V16.3999V16.3874V16.375V16.3625V16.3501V16.3375V16.325V16.3125V16.2999V16.2873V16.2747V16.262V16.2494V16.2367V16.224V16.2113V16.1985V16.1858V16.173V16.1602V16.1474V16.1345V16.1217V16.1088V16.0959V16.083V16.07V16.0571V16.0441V16.0311V16.0181V16.0051V15.9921V15.979V15.9659V15.9529V15.9397V15.9266V15.9135V15.9003V15.8872V15.874V15.8608V15.8476V15.8343V15.8211V15.8078V15.7946V15.7813V15.768V15.7547V15.7414V15.728V15.7147V15.7013V15.6879V15.6745V15.6611V15.6477V15.6343V15.6209V15.6074V15.594V15.5805V15.567V15.5535V15.54V15.5265V15.513V15.4995V15.4859V15.4724V15.4588V15.4453V15.4317V15.4181V15.4045V15.3909V15.3773V15.3637V15.3501V15.3365V15.3228V15.3092V15.2955V15.2819V15.2682V15.2546V15.2409V15.2272V15.2135V15.1998V15.1861V15.1724V15.1587V15.145V15.1313V15.1176V15.1039V15.0902V15.0764V15.0627V15.049V15.0352V15.0215V15.0078V14.994V14.9803V14.9665V14.9528V14.939V14.9253V14.9115V14.8978V14.884V14.8703V14.8565V14.8428V14.829V14.8153V14.8015V14.7878V14.774V14.7603V14.7465V14.7328V14.719V14.7053V14.6915V14.6778V14.6641V14.6503V14.6366V14.6229V14.6092V14.5954V14.5817V14.568V14.5543V14.5406V14.5269V14.5132V14.5C8.74995 12.7051 10.205 11.25 12 11.25C13.7949 11.25 15.25 12.7051 15.25 14.5V14.5132V14.5269V14.5406V14.5543V14.568V14.5817V14.5954V14.6092V14.6229V14.6366V14.6503V14.6641V14.6778V14.6915V14.7053V14.719V14.7328V14.7465V14.7603V14.774V14.7878V14.8015V14.8153V14.829V14.8428V14.8565V14.8703V14.884V14.8978V14.9115V14.9253V14.939V14.9528V14.9665V14.9803V14.994V15.0078V15.0215V15.0352V15.049V15.0627V15.0764V15.0902V15.1039V15.1176V15.1313V15.145V15.1587V15.1724V15.1861V15.1998V15.2135V15.2272V15.2409V15.2546V15.2682V15.2819V15.2955V15.3092V15.3228V15.3365V15.3501V15.3637V15.3773V15.3909V15.4045V15.4181V15.4317V15.4453V15.4588V15.4724V15.4859V15.4995V15.513V15.5265V15.54V15.5535V15.567V15.5805V15.594V15.6074V15.6209V15.6343V15.6477V15.6611V15.6745V15.6879V15.7013V15.7147V15.728V15.7414V15.7547V15.768V15.7813V15.7946V15.8078V15.8211V15.8343V15.8476V15.8608V15.874V15.8872V15.9003V15.9135V15.9266V15.9397V15.9529V15.9659V15.979V15.9921V16.0051V16.0181V16.0311V16.0441V16.0571V16.07V16.083V16.0959V16.1088V16.1217V16.1345V16.1474V16.1602V16.173V16.1858V16.1985V16.2113V16.224V16.2367V16.2494V16.262V16.2747V16.2873V16.2999V16.3125V16.325V16.3375V16.3501V16.3625V16.375V16.3874V16.3999V16.4122V16.4246V16.437V16.4493V16.4616V16.4739V16.4861V16.4983V16.5105V16.5227V16.5349V16.547V16.5591V16.5712V16.5832V16.5952V16.6072V16.6192V16.6311V16.643V16.6549V16.6668V16.6786V16.6904V16.7022V16.7139V16.7256V16.7373V16.749V16.7606V16.7722V16.7838V16.7953V16.8068V16.8183V16.8298V16.8412V16.8526V16.8639V16.8753V16.8866V16.8978V16.9091V16.9203V16.9314V16.9426V16.9537V16.9648V16.9758V16.9868V16.9978V17.0087V17.0196V17.0305V17.0413V17.0521V17.0629V17.0736V17.0843V17.095V17.1056V17.1162V17.1268V17.1373V17.1478V17.1582V17.1686V17.179V17.1893V17.1996V17.2099V17.2201V17.2303V17.2405V17.25V17.2506V17.2607V17.2707V17.2807V17.2906V17.3006V17.3104V17.3203V17.3301V17.3398V17.3496V17.3592V17.3689V17.3785V17.388V17.3975V17.407V17.4164V17.4258V17.4352V17.4445V17.4537V17.463V17.4721V17.4813V17.4904V17.4994V17.5084V17.5174V17.5263V17.5352V17.544V17.5528V17.5615V17.5702V17.5789V17.5875V17.596V17.6045V17.613V17.6214V17.6298V17.6381V17.6464V17.6546V17.6628V17.671V17.6791V17.6871V17.6951V17.703V17.7109V17.7188V17.7266V17.7343V17.742V17.7497V17.7573V17.7648V17.7724V17.7798V17.7872V17.7946V17.8019V17.8091V17.8163V17.8235V17.8306V17.8376V17.8446V17.8515V17.8584V17.8652V17.872V17.8788V17.8854V17.8921V17.8986V17.9051V17.9116V17.918V17.9244V17.9306V17.9369V17.9431V17.9492V17.9553V17.9613V17.9673V17.9732V17.979V17.9848V17.9906V17.9962V18.0019V18.0074V18.0129V18.0184V18.0238V18.0291V18.0344V18.0396V18.0448V18.0499V18.0549V18.0599V18.0648V18.0697V18.0745V18.0793V18.0839V18.0886V18.0931V18.0976V18.1021V18.1064V18.1108V18.115V18.1192V18.1233V18.1274V18.1314V18.1354V18.1392V18.1431V18.1468V18.1505V18.1541V18.1577V18.1612V18.1646V18.168V18.1713V18.1746V18.1777V18.1809V18.1839V18.1869V18.1898V18.1926V18.1954V18.1981V18.2008V18.2034V18.2059V18.2083V18.2107V18.213V18.2153V18.2174V18.2195V18.2216V18.2235V18.2254V18.2273V18.229V18.2307V18.2324V18.2339V18.2354V18.2368V18.2381V18.2394V18.2406V18.2417V18.2428V18.2438V18.2447V18.2455V18.2463V18.247V18.2476V18.2482V18.2487V18.2491V18.2494V18.2497V18.2499V18.25L16 18.25H15.25C15.25 18.6642 15.5857 19 16 19C16.4142 19 16.75 18.6642 16.75 18.25H16L16.75 18.25V18.2499V18.2497V18.2494V18.2491V18.2487V18.2482V18.2476V18.247V18.2463V18.2455V18.2447V18.2438V18.2428V18.2417V18.2406V18.2394V18.2381V18.2368V18.2354V18.2339V18.2324V18.2307V18.229V18.2273V18.2254V18.2235V18.2216V18.2195V18.2174V18.2153V18.213V18.2107V18.2083V18.2059V18.2034V18.2008V18.1981V18.1954V18.1926V18.1898V18.1869V18.1839V18.1809V18.1777V18.1746V18.1713V18.168V18.1646V18.1612V18.1577V18.1541V18.1505V18.1468V18.1431V18.1392V18.1354V18.1314V18.1274V18.1233V18.1192V18.115V18.1108V18.1064V18.1021V18.0976V18.0931V18.0886V18.0839V18.0793V18.0745V18.0697V18.0648V18.0599V18.0549V18.0499V18.0448V18.0396V18.0344V18.0291V18.0238V18.0184V18.0129V18.0074V18.0019V17.9962V17.9906V17.9848V17.979V17.9732V17.9673V17.9613V17.9553V17.9492V17.9431V17.9369V17.9306V17.9244V17.918V17.9116V17.9051V17.8986V17.8921V17.8854V17.8788V17.872V17.8652V17.8584V17.8515V17.8446V17.8376V17.8306V17.8235V17.8163V17.8091V17.8019V17.7946V17.7872V17.7798V17.7724V17.7648V17.7573V17.7497V17.742V17.7343V17.7266V17.7188V17.7109V17.703V17.6951V17.6871V17.6791V17.671V17.6628V17.6546V17.6464V17.6381V17.6298V17.6214V17.613V17.6045V17.596V17.5875V17.5789V17.5702V17.5615V17.5528V17.544V17.5352V17.5263V17.5174V17.5084V17.4994V17.4904V17.4813V17.4721V17.463V17.4537V17.4445V17.4352V17.4258V17.4164V17.407V17.3975V17.388V17.3785V17.3689V17.3592V17.3496V17.3398V17.3301V17.3203V17.3104V17.3006V17.2906V17.2807V17.2707V17.2607V17.2506V17.25V17.2405V17.2303V17.2201V17.2099V17.1996V17.1893V17.179V17.1686V17.1582V17.1478V17.1373V17.1268V17.1162V17.1056V17.095V17.0843V17.0736V17.0629V17.0521V17.0413V17.0305V17.0196V17.0087V16.9978V16.9868V16.9758V16.9648V16.9537V16.9426V16.9314V16.9203V16.9091V16.8978V16.8866V16.8753V16.8639V16.8526V16.8412V16.8298V16.8183V16.8068V16.7953V16.7838V16.7722V16.7606V16.75H19C19.4142 16.75 19.75 16.4142 19.75 16C19.75 15.5858 19.4142 15.25 19 15.25H16.75V15.2409V15.2272V15.2135V15.1998V15.1861V15.1724V15.1587V15.145V15.1313V15.1176V15.1039V15.0902V15.0764V15.0627V15.049V15.0352V15.0215V15.0078V14.994V14.9803V14.9665V14.9528V14.939V14.9253V14.9115V14.8978V14.884V14.8703V14.8565V14.8428V14.829V14.8153V14.8015V14.7878V14.774V14.7603V14.7465V14.7328V14.719V14.7053V14.6915V14.6778V14.6641V14.6503V14.6366V14.6229V14.6092V14.5954V14.5817V14.568V14.5543V14.5406V14.5269V14.5132V14.5V14.4995V14.4858V14.4722V14.4585V14.4448V14.4312V14.4175V14.4039V14.3902V14.3766V14.363V14.3494V14.3358V14.3222V14.3086V14.295V14.2814V14.2678V14.2543V14.2407V14.2272V14.2136V14.2001V14.1866V14.1731V14.1596V14.1461V14.1326V14.1192V14.1057V14.0923V14.0789V14.0654V14.052V14.0386V14.0253V14.0119V13.9985V13.9852V13.9719V13.9585V13.9452V13.9319V13.9187V13.9054V13.8921V13.8789V13.8657V13.8525V13.8393V13.8261V13.813V13.7998V13.7867V13.7736V13.7605V13.7474V13.7343V13.7213V13.7082V13.6952V13.6822V13.6692V13.6563V13.6433V13.6304V13.6175V13.6046V13.5918V13.5789V13.5661V13.5533V13.5405V13.5277V13.5149V13.5022V13.4895V13.4768V13.4641V13.4515V13.4389V13.4262V13.4137V13.4011V13.3885V13.376V13.3635V13.3511V13.3386V13.3262V13.3138V13.3014V13.289V13.2767V13.2644V13.2521V13.2398V13.2276V13.2154V13.2032V13.191V13.1789V13.1668V13.1547V13.1426V13.1306V13.1186V13.1066V13.0946V13.0827V13.0708V13.0589V13.0471V13.0353V13.0235V13.0117V13C16.75 11.8973 16.4782 10.5002 15.761 9.3525C15.3868 8.75392 14.8882 8.22176 14.2527 7.84259C14.8134 7.30327 15.1809 6.56458 15.2412 5.74057L15.4159 5.62412L15.4159 5.62411L15.4159 5.62409L15.416 5.62404L15.4163 5.62382L15.4188 5.6222L15.4298 5.61492L15.4746 5.58553C15.5141 5.55982 15.5717 5.52265 15.6426 5.47787C15.7851 5.38791 15.9783 5.26905 16.1846 5.15118C16.3933 5.03191 16.6031 4.92075 16.7811 4.84161C16.8995 4.789 16.9694 4.76654 17 4.75698C17.0305 4.76654 17.1004 4.789 17.2188 4.84161C17.3969 4.92075 17.6066 5.03191 17.8154 5.15118C18.0216 5.26905 18.2149 5.38791 18.3573 5.47787C18.4282 5.52265 18.4858 5.55982 18.5253 5.58553L18.5701 5.61492L18.5812 5.6222L18.5836 5.62382L18.5839 5.62404L18.584 5.62409L18.584 5.62411C18.9287 5.85378 19.3943 5.76063 19.624 5.41603C19.8538 5.07138 19.7606 4.60573 19.416 4.37596L19 5C19.416 4.37596 19.4159 4.37593 19.4159 4.37589L19.4157 4.37579L19.4153 4.37553L19.4141 4.37473L19.4101 4.37207L19.3958 4.36262L19.3438 4.32853C19.2993 4.29955 19.2358 4.2586 19.1583 4.20963C19.0038 4.11209 18.7908 3.98095 18.5596 3.84882C18.3308 3.71809 18.0718 3.57925 17.828 3.47089C17.6221 3.37939 17.3019 3.25 17 3.25C16.698 3.25 16.3778 3.37939 16.1719 3.47089C15.9281 3.57925 15.6691 3.71809 15.4404 3.84882C15.2604 3.95164 15.0915 4.05386 14.9526 4.14012C14.4379 3.02436 13.3094 2.25 12 2.25ZM12 7.25C12.9665 7.25 13.75 6.4665 13.75 5.5C13.75 4.5335 12.9665 3.75 12 3.75C11.0335 3.75 10.25 4.5335 10.25 5.5C10.25 6.4665 11.0335 7.25 12 7.25ZM12 12.25C10.7573 12.25 9.74995 13.2574 9.74995 14.5V19.5C9.74995 20.7426 10.7573 21.75 12 21.75C13.2426 21.75 14.25 20.7426 14.25 19.5V14.5C14.25 13.2574 13.2426 12.25 12 12.25ZM11.25 14.5C11.25 14.0858 11.5857 13.75 12 13.75C12.4142 13.75 12.75 14.0858 12.75 14.5V19.5C12.75 19.9142 12.4142 20.25 12 20.25C11.5857 20.25 11.25 19.9142 11.25 19.5V14.5Z" fill="#002B51"/>
</svg>
