<svg width="24" height="24" viewBox="0 0 24 24" fill="none" xmlns="http://www.w3.org/2000/svg">
<path fill-rule="evenodd" clip-rule="evenodd" d="M10.2499,5.5c0,0.9665 0.7835,1.75 1.75,1.75c0.9665,0 1.75,-0.7835 1.75,-1.75c0,-0.9665 -0.7835,-1.75 -1.75,-1.75c-0.9665,0 -1.75,0.7835 -1.75,1.75zM15.7607,9.35254c0.7173,1.14766 0.9892,2.54476 0.9892,3.64746v1.5v0.75h2.25c0.4143,0 0.75,0.3358 0.75,0.75c0,0.4142 -0.3357,0.75 -0.75,0.75h-2.25v0.5v1c0,0.4142 -0.3357,0.75 -0.75,0.75c-0.4142,0 -0.75,-0.3358 -0.75,-0.75v-1v-2.75c0,-1.7949 -1.455,-3.25 -3.25,-3.25c-1.7949,0 -3.24996,1.4551 -3.24996,3.25v2.75v1c0,0.4142 -0.33579,0.75 -0.75,0.75c-0.41421,0 -0.75,-0.3358 -0.75,-0.75v-1v-0.5h-2.25c-0.41421,0 -0.75,-0.3358 -0.75,-0.75c0,-0.4142 0.33579,-0.75 0.75,-0.75h2.25v-0.75v-1.5c0,-1.1027 0.27197,-2.4998 0.98926,-3.64746c0.3741,-0.59854 0.87264,-1.13069 1.50808,-1.50988c-0.56073,-0.53933 -0.92828,-1.27806 -0.98857,-2.10212l-0.17771,-0.11847l-0.01074,-0.00684l-0.04492,-0.02929l-0.02212,-0.01443l-0.00003,-0.00002v0c-0.03771,-0.02462 -0.08721,-0.05693 -0.14582,-0.09395c-0.1424,-0.08993 -0.3358,-0.20835 -0.542,-0.32617c-0.20872,-0.11928 -0.41861,-0.23043 -0.59668,-0.30957c-0.11842,-0.05264 -0.18826,-0.07542 -0.21875,-0.08496c-0.03048,0.00954 -0.10032,0.03232 -0.21875,0.08496c-0.17806,0.07914 -0.38795,0.19029 -0.59667,0.30957c-0.2062,0.11782 -0.3996,0.23624 -0.542,0.32617c-0.05861,0.03702 -0.10811,0.06933 -0.14582,0.09395l-0.00003,0.00002l-0.02212,0.01443l-0.04492,0.02929l-0.01074,0.00684l-0.00293,0.00195c-0.34465,0.22977 -0.81027,0.13664 -1.04004,-0.208c-0.22976,-0.34465 -0.13664,-0.81028 0.20801,-1.04004h0.00098l0.00097,-0.00098l0.00143,-0.00108l0.00248,-0.00185l0.01465,-0.00977l0.01336,-0.00885l0.00003,-0.00003l0.00007,-0.00004c0.01053,-0.00701 0.02338,-0.01555 0.03829,-0.02526c0.04448,-0.02895 0.1082,-0.0693 0.18555,-0.11816c0.15445,-0.09755 0.3674,-0.22919 0.59863,-0.36133c0.22875,-0.13071 0.48767,-0.26958 0.73145,-0.37793c0.20587,-0.09149 0.52616,-0.2207 0.82812,-0.2207c0.30197,0 0.62226,0.12921 0.82813,0.2207c0.24378,0.10835 0.5027,0.24722 0.73144,0.37793c0.17994,0.10282 0.3488,0.20534 0.48764,0.29174c0.51467,-1.1159 1.64325,-1.89037 2.95275,-1.89037c1.3095,0 2.4382,0.77448 2.9528,1.89037c0.1389,-0.08639 0.3077,-0.18892 0.4877,-0.29174c0.2287,-0.13071 0.4876,-0.26958 0.7314,-0.37793c0.2059,-0.09149 0.5262,-0.2207 0.8281,-0.2207c0.302,0 0.6223,0.12921 0.8282,0.2207c0.2437,0.10835 0.5027,0.24722 0.7314,0.37793c0.2312,0.13214 0.4442,0.26378 0.5986,0.36133c0.0774,0.04886 0.1411,0.08921 0.1856,0.11816c0.015,0.00975 0.0278,0.01831 0.0384,0.02532v0.00001l0.0134,0.00885l0.0146,0.00977l0.0025,0.00185l0.0014,0.00108l0.001,0.00098h0.001l0.0615,0.0459c0.2934,0.24173 0.3619,0.67103 0.1465,0.99414c-0.2154,0.32302 -0.6377,0.42471 -0.9737,0.24707l-0.0664,-0.03907l-0.0029,-0.00195l-0.0107,-0.00684l-0.045,-0.02929l-0.022,-0.01441c-0.0378,-0.02462 -0.0873,-0.05695 -0.1459,-0.09399c-0.1424,-0.08993 -0.3358,-0.20835 -0.542,-0.32617c-0.2088,-0.11928 -0.4186,-0.23043 -0.5967,-0.30957c-0.1184,-0.05264 -0.1883,-0.07542 -0.2188,-0.08496c-0.0304,0.00954 -0.1003,0.03232 -0.2187,0.08496c-0.1781,0.07914 -0.388,0.19029 -0.5967,0.30957c-0.2062,0.11782 -0.3996,0.23624 -0.542,0.32617c-0.0586,0.03704 -0.1082,0.06937 -0.1459,0.09399l-0.022,0.01441l-0.045,0.02929l-0.0107,0.00684l-0.1777,0.11848c-0.0603,0.82406 -0.4279,1.56279 -0.9886,2.10211c0.6354,0.37919 1.134,0.91134 1.5081,1.50988zM11.2499,14.5v5c0,0.4142 0.3358,0.75 0.75,0.75c0.4143,0 0.75,-0.3358 0.75,-0.75v-5c0,-0.4142 -0.3357,-0.75 -0.75,-0.75c-0.4142,0 -0.75,0.3358 -0.75,0.75zM9.74994,19.5v-5c0,-1.2426 1.00736,-2.25 2.24996,-2.25c1.2427,0 2.25,1.0074 2.25,2.25v5c0,1.2426 -1.0073,2.25 -2.25,2.25c-1.2426,0 -2.24996,-1.0074 -2.24996,-2.25z" fill="#002B51"/>
</svg>
