<svg width="24" height="24" viewBox="0 0 24 24" fill="none" xmlns="http://www.w3.org/2000/svg">
<path fill-rule="evenodd" clip-rule="evenodd" d="M10.25,5.5c0,0.9665 0.7835,1.75 1.75,1.75c0.9665,0 1.75,-0.7835 1.75,-1.75c0,-0.9665 -0.7835,-1.75 -1.75,-1.75c-0.9665,0 -1.75,0.7835 -1.75,1.75zM15.7607,9.35254c0.7173,1.14766 0.9893,2.54476 0.9893,3.64746v1.5v0.75h2.25c0.4142,0 0.75,0.3358 0.75,0.75c0,0.4142 -0.3358,0.75 -0.75,0.75h-2.25v0.5v1c0,0.4142 -0.3358,0.75 -0.75,0.75c-0.4142,0 -0.75,-0.3358 -0.75,-0.75v-1v-2.75c0,-1.7949 -1.4551,-3.25 -3.25,-3.25c-1.7949,0 -3.25,1.4551 -3.25,3.25v2.75v1c0,0.4142 -0.33578,0.75 -0.75,0.75c-0.41421,0 -0.75,-0.3358 -0.75,-0.75v-1v-0.5h-2.25c-0.41421,0 -0.75,-0.3358 -0.75,-0.75c0,-0.4142 0.33579,-0.75 0.75,-0.75h2.25v-0.75v-1.5c0,-1.1027 0.27197,-2.4998 0.98926,-3.64746c0.3741,-0.59854 0.87264,-1.13069 1.50808,-1.50988c-0.56073,-0.53933 -0.92828,-1.27806 -0.98857,-2.10212l-0.17771,-0.11847l-0.01074,-0.00684l-0.04492,-0.02929l-0.02212,-0.01443l-0.00003,-0.00002v0c-0.03771,-0.02462 -0.08721,-0.05693 -0.14582,-0.09395c-0.1424,-0.08993 -0.3358,-0.20835 -0.54199,-0.32617c-0.20873,-0.11928 -0.41862,-0.23043 -0.59668,-0.30957c-0.11843,-0.05264 -0.18827,-0.07542 -0.21875,-0.08496c-0.03049,0.00954 -0.10033,0.03232 -0.21875,0.08496c-0.17807,0.07914 -0.38796,0.19029 -0.59668,0.30957c-0.2062,0.11782 -0.3996,0.23624 -0.542,0.32617c-0.05861,0.03702 -0.10811,0.06933 -0.14582,0.09395l-0.00003,0.00002l-0.02211,0.01443l-0.04493,0.02929l-0.01074,0.00684l-0.00293,0.00195c-0.34465,0.22977 -0.81027,0.13664 -1.04004,-0.208c-0.22976,-0.34465 -0.13664,-0.81028 0.20801,-1.04004h0.00098l0.00097,-0.00098l0.00143,-0.00108l0.00248,-0.00185l0.01465,-0.00977l0.01336,-0.00885l0.00003,-0.00003l0.00007,-0.00004c0.01054,-0.00701 0.02338,-0.01555 0.0383,-0.02526c0.04447,-0.02895 0.10819,-0.0693 0.18554,-0.11816c0.15445,-0.09755 0.3674,-0.22919 0.59864,-0.36133c0.22874,-0.13071 0.48766,-0.26958 0.73144,-0.37793c0.20587,-0.09149 0.52616,-0.2207 0.82813,-0.2207c0.30196,0 0.62225,0.12921 0.82812,0.2207c0.24378,0.10835 0.5027,0.24722 0.73145,0.37793c0.17993,0.10282 0.34879,0.20534 0.48763,0.29174c0.51467,-1.1159 1.64329,-1.89037 2.95279,-1.89037c1.3095,0 2.4381,0.77448 2.9528,1.89037c0.1388,-0.08639 0.3077,-0.18892 0.4876,-0.29174c0.2288,-0.13071 0.4877,-0.26958 0.7315,-0.37793c0.2058,-0.09149 0.5261,-0.2207 0.8281,-0.2207c0.302,0 0.6223,0.12921 0.8281,0.2207c0.2438,0.10835 0.5027,0.24722 0.7315,0.37793c0.2312,0.13214 0.4442,0.26378 0.5986,0.36133c0.0774,0.04886 0.1411,0.08921 0.1856,0.11816c0.0149,0.00975 0.0278,0.01831 0.0384,0.02532v0.00001l0.0133,0.00885l0.0147,0.00977l0.0024,0.00185l0.0015,0.00108l0.0009,0.00098h0.001l0.0615,0.0459c0.2934,0.24173 0.3619,0.67103 0.1465,0.99414c-0.2153,0.32302 -0.6377,0.42471 -0.9736,0.24707l-0.0664,-0.03907l-0.0029,-0.00195l-0.0108,-0.00684l-0.0449,-0.02929l-0.0221,-0.01441c-0.0377,-0.02462 -0.0872,-0.05695 -0.1459,-0.09399c-0.1424,-0.08993 -0.3358,-0.20835 -0.542,-0.32617c-0.2087,-0.11928 -0.4186,-0.23043 -0.5966,-0.30957c-0.1185,-0.05264 -0.1883,-0.07542 -0.2188,-0.08496c-0.0305,0.00954 -0.1003,0.03232 -0.2187,0.08496c-0.1781,0.07914 -0.388,0.19029 -0.5967,0.30957c-0.2062,0.11782 -0.3996,0.23624 -0.542,0.32617c-0.0587,0.03704 -0.1082,0.06937 -0.1459,0.09399l-0.0221,0.01441l-0.0449,0.02929l-0.0107,0.00684l-0.1778,0.11848c-0.0603,0.82406 -0.4278,1.56279 -0.9885,2.10211c0.6354,0.37919 1.1339,0.91134 1.508,1.50988zM12,8.75c-1.1986,0 -1.977,0.57786 -2.48926,1.3975c-0.09461,0.1513 -0.17961,0.3106 -0.25543,0.4753c0.77509,-0.5497 1.72219,-0.8728 2.74469,-0.8728c1.0225,0 1.9696,0.3231 2.7447,0.8728c-0.0758,-0.1647 -0.1608,-0.324 -0.2554,-0.4753c-0.5123,-0.81964 -1.2907,-1.3975 -2.4893,-1.3975zM12.75,14.5c0,-0.4142 -0.3358,-0.75 -0.75,-0.75c-0.4142,0 -0.75,0.3358 -0.75,0.75v5c0,0.4142 0.3358,0.75 0.75,0.75c0.4142,0 0.75,-0.3358 0.75,-0.75zM14.25,19.5c0,1.2426 -1.0074,2.25 -2.25,2.25c-1.2426,0 -2.25,-1.0074 -2.25,-2.25v-5c0,-1.2426 1.0074,-2.25 2.25,-2.25c1.2426,0 2.25,1.0074 2.25,2.25z" fill="#002B51"/>
</svg>
