<svg width="24" height="24" viewBox="0 0 24 24" fill="none" xmlns="http://www.w3.org/2000/svg">
<path d="M11.9999,12.25c1.2427,0 2.25,1.0074 2.25,2.25v5c0,1.2426 -1.0073,2.25 -2.25,2.25c-1.2426,0 -2.24999,-1.0074 -2.24999,-2.25v-5c0,-1.2426 1.00739,-2.25 2.24999,-2.25zM11.9999,13.75c-0.4142,0 -0.75,0.3358 -0.75,0.75v5c0,0.4142 0.3358,0.75 0.75,0.75c0.4142,0 0.75,-0.3358 0.75,-0.75v-5c0,-0.4142 -0.3358,-0.75 -0.75,-0.75zM11.9999,2.25c1.3095,0 2.4375,0.77477 2.9522,1.89062c0.1389,-0.08646 0.3081,-0.18902 0.4882,-0.29199c0.2288,-0.13069 0.4877,-0.26959 0.7315,-0.37793c0.2058,-0.09149 0.5262,-0.22068 0.8281,-0.2207c0.3019,0 0.6223,0.12921 0.8281,0.2207c0.2438,0.10834 0.5027,0.24723 0.7315,0.37793c0.2312,0.13212 0.4442,0.26379 0.5986,0.36133c0.0773,0.04884 0.1411,0.08921 0.1856,0.11816c0.0219,0.01432 0.0395,0.02614 0.0517,0.03418c0.0061,0.00401 0.0113,0.00753 0.0147,0.00977c0.0016,0.0011 0.0029,0.00227 0.0039,0.00293l0.0009,0.00098h0.001l0.0615,0.0459c0.2934,0.24173 0.3619,0.67103 0.1465,0.99414c-0.2153,0.32299 -0.6377,0.4247 -0.9736,0.24707l-0.0664,-0.03907l-0.0029,-0.00195c-0.0023,-0.00152 -0.0061,-0.00372 -0.0108,-0.00684c-0.0099,-0.00655 -0.0253,-0.01655 -0.0449,-0.02929c-0.0395,-0.02571 -0.0971,-0.06364 -0.168,-0.1084c-0.1424,-0.08993 -0.3358,-0.20836 -0.542,-0.32617c-0.2087,-0.11926 -0.4186,-0.23044 -0.5966,-0.30957c-0.1184,-0.05261 -0.1883,-0.07542 -0.2188,-0.08496c-0.0305,0.00956 -0.1004,0.03237 -0.2187,0.08496c-0.1781,0.07913 -0.388,0.19031 -0.5967,0.30957c-0.2062,0.11781 -0.3996,0.23625 -0.542,0.32617c-0.0709,0.04477 -0.1285,0.08269 -0.168,0.1084c-0.0196,0.01275 -0.035,0.02274 -0.0449,0.02929c-0.0047,0.00313 -0.0085,0.00532 -0.0107,0.00684l-0.1788,0.11816c-0.0602,0.82465 -0.4298,1.56113 -0.9912,2.10059c0.6372,0.37932 1.137,0.91208 1.5118,1.51172c0.7172,1.14766 0.9892,2.54476 0.9892,3.64746v2.25h2.25c0.4142,0 0.75,0.3358 0.75,0.75c0,0.4142 -0.3358,0.75 -0.75,0.75h-2.25v1.5c0,0.4142 -0.3358,0.75 -0.75,0.75c-0.4142,0 -0.75,-0.3358 -0.75,-0.75v-3.75c0,-1.7949 -1.4551,-3.25 -3.25,-3.25c-1.7949,0 -3.24999,1.4551 -3.24999,3.25v3.75c0,0.4142 -0.33579,0.75 -0.75,0.75c-0.41418,0 -0.75,-0.3358 -0.75,-0.75v-1.5h-2.25c-0.41418,0 -0.75,-0.3358 -0.75,-0.75c0,-0.4142 0.33582,-0.75 0.75,-0.75h2.25v-2.25c0,-1.1027 0.27199,-2.4998 0.98926,-3.64746c0.37463,-0.59939 0.874,-1.13243 1.51074,-1.51172c-0.56104,-0.53943 -0.93098,-1.27619 -0.99121,-2.10059l-0.17773,-0.11816c-0.0023,-0.00152 -0.00602,-0.00372 -0.01075,-0.00684c-0.00995,-0.00655 -0.02535,-0.01655 -0.04492,-0.02929c-0.03948,-0.02571 -0.09709,-0.06364 -0.16797,-0.1084c-0.14239,-0.08993 -0.33583,-0.20836 -0.54199,-0.32617c-0.20871,-0.11926 -0.41864,-0.23044 -0.59668,-0.30957c-0.11838,-0.05261 -0.18827,-0.07542 -0.21875,-0.08496c-0.03052,0.00956 -0.10042,0.03237 -0.21875,0.08496c-0.17805,0.07913 -0.38798,0.19031 -0.59668,0.30957c-0.20617,0.11781 -0.39961,0.23625 -0.54199,0.32617c-0.07089,0.04477 -0.1285,0.08269 -0.16797,0.1084c-0.01958,0.01275 -0.03498,0.02274 -0.04492,0.02929c-0.00474,0.00313 -0.00846,0.00532 -0.01074,0.00684l-0.00293,0.00195c-0.34464,0.22972 -0.81029,0.13662 -1.04004,-0.208c-0.22972,-0.34463 -0.13658,-0.81027 0.20801,-1.04004h0.00097l0.00098,-0.00098c0.00097,-0.00064 0.00224,-0.00182 0.0039,-0.00293c0.00338,-0.00224 0.00856,-0.00575 0.01465,-0.00977c0.0122,-0.00804 0.02976,-0.01985 0.05176,-0.03418c0.04447,-0.02895 0.10822,-0.06932 0.18555,-0.11816c0.15443,-0.09754 0.36742,-0.22921 0.59863,-0.36133c0.22873,-0.13069 0.48769,-0.26959 0.73145,-0.37793c0.20584,-0.09149 0.52618,-0.22068 0.82812,-0.2207c0.30193,0 0.62226,0.12921 0.82813,0.2207c0.24375,0.10834 0.50271,0.24723 0.73144,0.37793c0.17986,0.10278 0.3485,0.20563 0.48731,0.29199c0.51458,-1.11606 1.64351,-1.89059 2.95311,-1.89062zM11.9999,3.75c-0.9665,0.00004 -1.75,0.78353 -1.75,1.75c0,0.96647 0.7835,1.74996 1.75,1.75c0.9665,0 1.75,-0.7835 1.75,-1.75c0,-0.9665 -0.7835,-1.75 -1.75,-1.75z" fill="#002B51"/>
</svg>
