<svg width="24" height="24" viewBox="0 0 24 24" fill="none" xmlns="http://www.w3.org/2000/svg">
<path fill-rule="evenodd" clip-rule="evenodd" d="M6.99985,10.25c1.79492,0 3.24995,-1.45507 3.24995,-3.25c0,-1.79493 -1.45503,-3.25 -3.24995,-3.25c-1.79493,0 -3.25,1.45507 -3.25,3.25c0,1.79493 1.45507,3.25 3.25,3.25zM11.7498,7c0,0.557 -0.0958,1.09161 -0.272,1.58822l3.6556,1.99398c0.6879,-0.81473 1.7168,-1.33216 2.8665,-1.33216c2.0711,0 3.75,1.67896 3.75,3.74996c0,2.0711 -1.6789,3.75 -3.75,3.75c-1.1978,0 -2.2645,-0.5616 -2.951,-1.4359l-3.4264,1.7132c0.0831,0.3102 0.1274,0.6363 0.1274,0.9727c0,2.0711 -1.6789,3.75 -3.74995,3.75c-2.07107,0 -3.75,-1.6789 -3.75,-3.75c0,-2.071 1.67893,-3.75 3.75,-3.75c1.19786,0 2.26455,0.5617 2.95105,1.436l3.4264,-1.7131c-0.0831,-0.3103 -0.1275,-0.6364 -0.1275,-0.9729c0,-0.3833 0.0576,-0.7531 0.1644,-1.1014l-3.6557,-1.99405c-0.86878,1.12265 -2.22935,1.84545 -3.75875,1.84545c-2.62336,0 -4.75,-2.12665 -4.75,-4.75c0,-2.62335 2.12664,-4.75 4.75,-4.75c2.62335,0 4.74995,2.12665 4.74995,4.75zM17.9999,15.25c1.2427,0 2.25,-1.0073 2.25,-2.25c0,-1.2426 -1.0073,-2.25 -2.25,-2.25c-1.2426,0 -2.25,1.0074 -2.25,2.25c0,1.2427 1.0074,2.25 2.25,2.25zM7.99995,15.75c-1.24265,0 -2.25,1.0074 -2.25,2.25c0,1.2427 1.00735,2.25 2.25,2.25c1.24264,0 2.24995,-1.0073 2.24995,-2.25c0,-1.2426 -1.00731,-2.25 -2.24995,-2.25z" fill="#002B51"/>
</svg>
