<svg width="24" height="24" viewBox="0 0 24 24" fill="none" xmlns="http://www.w3.org/2000/svg">
<path fill-rule="evenodd" clip-rule="evenodd" d="M3.74988 6.99997C3.74988 5.20504 5.20495 3.74997 6.99988 3.74997C8.7948 3.74997 10.2499 5.20504 10.2499 6.99997C10.2499 8.79489 8.7948 10.25 6.99988 10.25C5.20495 10.25 3.74988 8.79489 3.74988 6.99997ZM6.99988 2.24997C4.37653 2.24997 2.24988 4.37662 2.24988 6.99997C2.24988 9.62332 4.37653 11.75 6.99988 11.75C8.52928 11.75 9.88985 11.0272 10.7586 9.90452L14.4143 11.8985C14.3075 12.2468 14.25 12.6167 14.25 13C14.25 13.3365 14.2943 13.6626 14.3774 13.9728L10.9511 15.686C10.2645 14.8116 9.19784 14.25 7.99998 14.25C5.92891 14.25 4.24998 15.9289 4.24998 18C4.24998 20.0711 5.92891 21.75 7.99998 21.75C10.071 21.75 11.75 20.0711 11.75 18C11.75 17.6636 11.7057 17.3375 11.6226 17.0272L15.0489 15.3141C15.7355 16.1884 16.8021 16.75 18 16.75C20.071 16.75 21.75 15.0711 21.75 13C21.75 10.9289 20.071 9.25001 18 9.25001C16.8502 9.25001 15.8213 9.76744 15.1334 10.5821L11.4779 8.58819C11.654 8.09158 11.7499 7.55697 11.7499 6.99997C11.7499 4.37662 9.62323 2.24997 6.99988 2.24997ZM15.75 13C15.75 11.7574 16.7573 10.75 18 10.75C19.2426 10.75 20.25 11.7574 20.25 13C20.25 14.2426 19.2426 15.25 18 15.25C16.7573 15.25 15.75 14.2426 15.75 13ZM7.99998 15.75C6.75733 15.75 5.74998 16.7574 5.74998 18C5.74998 19.2426 6.75733 20.25 7.99998 20.25C9.24262 20.25 10.25 19.2426 10.25 18C10.25 16.7574 9.24262 15.75 7.99998 15.75Z" fill="#002B51"/>
</svg>
