<svg width="24" height="24" viewBox="0 0 24 24" fill="none" xmlns="http://www.w3.org/2000/svg">
<path fill-rule="evenodd" clip-rule="evenodd" d="M6.99988 11.75C8.52929 11.75 9.88987 11.0272 10.7587 9.90449L14.4144 11.8985C14.3075 12.2468 14.25 12.6167 14.25 13C14.25 13.3365 14.2943 13.6626 14.3774 13.9728L10.951 15.6859C10.2645 14.8116 9.19782 14.25 7.99998 14.25C5.92891 14.25 4.24998 15.9289 4.24998 18C4.24998 20.0711 5.92891 21.75 7.99998 21.75C10.071 21.75 11.75 20.0711 11.75 18C11.75 17.6635 11.7057 17.3374 11.6226 17.0272L15.0489 15.3141C15.7354 16.1884 16.8021 16.75 18 16.75C20.071 16.75 21.75 15.0711 21.75 13C21.75 10.9289 20.071 9.25001 18 9.25001C16.8502 9.25001 15.8213 9.76743 15.1335 10.5821L11.4779 8.58816C11.654 8.09156 11.7499 7.55696 11.7499 6.99997C11.7499 4.37662 9.62323 2.24997 6.99988 2.24997C4.37653 2.24997 2.24988 4.37662 2.24988 6.99997C2.24988 9.62332 4.37653 11.75 6.99988 11.75Z" fill="#002B51"/>
</svg>
