<svg width="24" height="24" viewBox="0 0 24 24" fill="none" xmlns="http://www.w3.org/2000/svg">
<path d="M6.99988,2.25c2.62335,0 4.75002,2.12665 4.75002,4.75c0,0.55706 -0.0973,1.09123 -0.2735,1.58789l3.6573,1.99411c0.6878,-0.81454 1.7166,-1.33197 2.8662,-1.332c2.071,0 3.75,1.6789 3.75,3.75c0,2.0711 -1.679,3.75 -3.75,3.75c-1.1978,0 -2.2637,-0.5622 -2.9502,-1.4365l-3.4287,1.7138c0.0831,0.3104 0.1289,0.6362 0.1289,0.9727c0,2.0711 -1.679,3.75 -3.75002,3.75c-2.07103,-0.0001 -3.75,-1.679 -3.75,-3.75c0.00002,-2.071 1.67899,-3.7499 3.75,-3.75c1.1973,0 2.26262,0.5619 2.94922,1.4355l3.4287,-1.7138c-0.0829,-0.31 -0.1279,-0.6356 -0.1279,-0.9717c0,-0.3837 0.0579,-0.7539 0.165,-1.1025l-3.6572,-1.99516c-0.86876,1.12316 -2.22801,1.84766 -3.75782,1.84766c-2.62335,0 -4.75,-2.12665 -4.75,-4.75c0,-2.62335 2.12665,-4.75 4.75,-4.75zM7.99988,15.75c-1.24259,0.0001 -2.24998,1.0074 -2.25,2.25c0,1.2426 1.0074,2.2499 2.25,2.25c1.24264,0 2.25002,-1.0074 2.25002,-2.25c0,-1.2426 -1.00739,-2.25 -2.25002,-2.25zM17.9999,10.75c-1.2426,0.0001 -2.25,1.0074 -2.25,2.25c0,1.2426 1.0074,2.2499 2.25,2.25c1.2426,0 2.25,-1.0074 2.25,-2.25c0,-1.2426 -1.0074,-2.25 -2.25,-2.25zM6.99988,3.75c-1.79493,0 -3.25,1.45507 -3.25,3.25c0,1.79493 1.45507,3.25 3.25,3.25c1.79492,0 3.25002,-1.45507 3.25002,-3.25c0,-1.79493 -1.4551,-3.25 -3.25002,-3.25z" fill="#002B51"/>
</svg>
