<svg width="24" height="24" viewBox="0 0 24 24" fill="none" xmlns="http://www.w3.org/2000/svg">
<path fill-rule="evenodd" clip-rule="evenodd" d="M6.99988,10.25c1.79492,0 3.25002,-1.45511 3.25002,-3.25003c0,-1.79493 -1.4551,-3.25 -3.25002,-3.25c-1.79493,0 -3.25,1.45507 -3.25,3.25c0,1.79492 1.45507,3.25003 3.25,3.25003zM11.7499,6.99997c0,0.557 -0.0959,1.09161 -0.272,1.58822l3.6555,1.99391c0.6879,-0.81466 1.7168,-1.33209 2.8666,-1.33209c2.071,0 3.75,1.67889 3.75,3.74999c0,2.0711 -1.679,3.75 -3.75,3.75c-1.1979,0 -2.2645,-0.5616 -2.9511,-1.4359l-3.4263,1.7131c0.0831,0.3103 0.1274,0.6364 0.1274,0.9728c0,2.0711 -1.679,3.75 -3.75002,3.75c-2.07107,0 -3.75,-1.6789 -3.75,-3.75c0,-2.0711 1.67893,-3.75 3.75,-3.75c1.19786,0 2.26452,0.5616 2.95112,1.436l3.4263,-1.7132c-0.0831,-0.3102 -0.1274,-0.6363 -0.1274,-0.9728c0,-0.3833 0.0575,-0.7532 0.1643,-1.1015l-3.6557,-1.99398c-0.86875,1.12268 -2.22932,1.84548 -3.75872,1.84548c-2.62335,0 -4.75,-2.12668 -4.75,-4.75003c0,-2.62335 2.12665,-4.75 4.75,-4.75c2.62335,0 4.75002,2.12665 4.75002,4.75zM18,15.25c1.2426,0 2.25,-1.0074 2.25,-2.25c0,-1.2426 -1.0074,-2.25 -2.25,-2.25c-1.2427,0 -2.25,1.0074 -2.25,2.25c0,1.2426 1.0073,2.25 2.25,2.25zM7.99998,15.75c-1.24265,0 -2.25,1.0074 -2.25,2.25c0,1.2426 1.00735,2.25 2.25,2.25c1.24264,0 2.25002,-1.0074 2.25002,-2.25c0,-1.2426 -1.00738,-2.25 -2.25002,-2.25z" fill="#002B51"/>
</svg>
