<svg width="24" height="24" viewBox="0 0 24 24" fill="none" xmlns="http://www.w3.org/2000/svg">
<path fill-rule="evenodd" clip-rule="evenodd" d="M3.74988,7c0,1.79493 1.45507,3.25 3.25,3.25c1.79492,0 3.25002,-1.45507 3.25002,-3.25c0,-1.79493 -1.4551,-3.25 -3.25002,-3.25c-1.79493,0 -3.25,1.45507 -3.25,3.25zM15.1336,10.582c0.6879,-0.81461 1.7167,-1.33196 2.8664,-1.33196c2.071,0 3.75,1.67896 3.75,3.74996c0,2.0711 -1.679,3.75 -3.75,3.75c-1.1979,0 -2.2645,-0.5616 -2.9511,-1.4359l-3.4264,1.7131c0.0832,0.3102 0.1275,0.6364 0.1275,0.9728c0,2.0711 -1.679,3.75 -3.75002,3.75c-2.07107,0 -3.75,-1.6789 -3.75,-3.75c0,-2.071 1.67893,-3.75 3.75,-3.75c1.19786,0 2.26452,0.5617 2.95112,1.436l3.4263,-1.7132c-0.0831,-0.3102 -0.1274,-0.6363 -0.1274,-0.9728c0,-0.3834 0.0575,-0.7534 0.1645,-1.1018l-3.6556,-1.99396c-0.8688,1.12286 -2.22948,1.84576 -3.75902,1.84576c-2.62335,0 -4.75,-2.12665 -4.75,-4.75c0,-2.62335 2.12665,-4.75 4.75,-4.75c2.62335,0 4.75002,2.12665 4.75002,4.75c0,0.55692 -0.0959,1.09145 -0.272,1.588zM15.75,13c0,1.2427 1.0073,2.25 2.25,2.25c1.2426,0 2.25,-1.0073 2.25,-2.25c0,-1.2426 -1.0074,-2.25 -2.25,-2.25c-1.2427,0 -2.25,1.0074 -2.25,2.25zM10.25,18c0,-1.2426 -1.00738,-2.25 -2.25002,-2.25c-1.24264,0 -2.25,1.0074 -2.25,2.25c0,1.2427 1.00736,2.25 2.25,2.25c1.24264,0 2.25002,-1.0073 2.25002,-2.25z" fill="#002B51"/>
</svg>
