<svg width="24" height="24" viewBox="0 0 24 24" fill="none" xmlns="http://www.w3.org/2000/svg">
<path fill-rule="evenodd" clip-rule="evenodd" d="M2.24988,7c0,-2.62335 2.12665,-4.75 4.75,-4.75c2.62335,0 4.75002,2.12665 4.75002,4.75c0,0.55699 -0.0959,1.09159 -0.272,1.58819l3.6556,1.99391c0.6878,-0.81464 1.7167,-1.33206 2.8665,-1.33206c2.071,0 3.75,1.67896 3.75,3.74996c0,2.0711 -1.679,3.75 -3.75,3.75c-1.1979,0 -2.2646,-0.5616 -2.9511,-1.4359l-3.4263,1.7131c0.0831,0.3103 0.1274,0.6364 0.1274,0.9728c0,2.0711 -1.679,3.75 -3.75002,3.75c-2.07107,0 -3.75,-1.6789 -3.75,-3.75c0,-2.071 1.67893,-3.75 3.75,-3.75c1.19784,0 2.26452,0.5617 2.95102,1.4359l3.4264,-1.7131c-0.0831,-0.3102 -0.1274,-0.6363 -0.1274,-0.9728c0,-0.3833 0.0575,-0.7532 0.1644,-1.1015l-3.6557,-1.99398c-0.86883,1.12268 -2.22941,1.84548 -3.75882,1.84548c-2.62335,0 -4.75,-2.12665 -4.75,-4.75z" fill="#002B51"/>
</svg>
