<svg width="24" height="24" viewBox="0 0 24 24" fill="none" xmlns="http://www.w3.org/2000/svg">
<path d="M6.99985,2.25c2.62335,0 4.74995,2.12665 4.74995,4.75c0,0.55706 -0.0972,1.09123 -0.2734,1.58789l3.6572,1.99411c0.6879,-0.81454 1.7166,-1.33197 2.8662,-1.332c2.0711,0 3.75,1.6789 3.75,3.75c0,2.0711 -1.6789,3.75 -3.75,3.75c-1.1978,0 -2.2636,-0.5622 -2.9501,-1.4365l-3.4288,1.7138c0.0832,0.3104 0.1289,0.6362 0.1289,0.9727c0,2.0711 -1.6789,3.75 -3.74995,3.75c-2.07103,-0.0001 -3.75,-1.679 -3.75,-3.75c0.00002,-2.071 1.67899,-3.7499 3.75,-3.75c1.1973,0 2.26265,0.5619 2.94925,1.4355l3.4287,-1.7138c-0.083,-0.31 -0.128,-0.6356 -0.128,-0.9717c0.0001,-0.3837 0.058,-0.7539 0.1651,-1.1025l-3.6572,-1.99516c-0.86879,1.12316 -2.22804,1.84766 -3.75785,1.84766c-2.62336,0 -4.75,-2.12665 -4.75,-4.75c0,-2.62335 2.12664,-4.75 4.75,-4.75zM7.99985,15.75c-1.24259,0.0001 -2.24998,1.0074 -2.25,2.25c0,1.2426 1.0074,2.2499 2.25,2.25c1.24264,0 2.24995,-1.0074 2.24995,-2.25c0,-1.2426 -1.00732,-2.25 -2.24995,-2.25zM17.9998,10.75c-1.2425,0.0001 -2.2499,1.0074 -2.25,2.25c0,1.2426 1.0075,2.2499 2.25,2.25c1.2427,0 2.25,-1.0074 2.25,-2.25c0,-1.2426 -1.0073,-2.25 -2.25,-2.25zM6.99985,3.75c-1.79493,0 -3.25,1.45507 -3.25,3.25c0,1.79493 1.45507,3.25 3.25,3.25c1.79492,0 3.24995,-1.45507 3.24995,-3.25c0,-1.79493 -1.45503,-3.25 -3.24995,-3.25z" fill="#002B51"/>
</svg>
