<svg width="36" height="24" viewBox="0 0 36 24" fill="none" xmlns="http://www.w3.org/2000/svg">
<g clip-path="url(#clip0_4050_17810)">
<path d="M0,4c0,-2.20914 1.79086,-4 4,-4h28c2.2091,0 4,1.79086 4,4v16c0,2.2091 -1.7909,4 -4,4h-28c-2.20914,0 -4,-1.7909 -4,-4z" fill="#FF4E4E"/>
<path d="M36,25.0909h-36v-26.18178h36z" fill="#CB0028"/>
<path d="M16.3636,25.0909h-6.54542v-9.8181h-9.81818v-6.5455h9.81818v-9.81818h6.54542v9.81818h19.6364v6.5455h-19.6364z" fill="white"/>
<path d="M14.7273,25.0909h-3.2728v-11.4545h-11.4545v-3.2727h11.4545v-11.45458h3.2728v11.45458h21.2727v3.2727h-21.2727z" fill="#00205B"/>
</g>
<defs>
<clipPath id="clip0_4050_17810">
<path d="M0,4c0,-2.20914 1.79086,-4 4,-4h28c2.2091,0 4,1.79086 4,4v16c0,2.2091 -1.7909,4 -4,4h-28c-2.20914,0 -4,-1.7909 -4,-4z" fill="white"/>
</clipPath>
</defs>
</svg>
