<svg width="24" height="24" viewBox="0 0 24 24" fill="none" xmlns="http://www.w3.org/2000/svg">
<path fill-rule="evenodd" clip-rule="evenodd" d="M3.25,5c0,-0.9665 0.7835,-1.75 1.75,-1.75h14c0.9665,0 1.75,0.7835 1.75,1.75v8c0,0.1989 -0.079,0.3897 -0.2197,0.5303l-7,7c-0.1406,0.1407 -0.3314,0.2197 -0.5303,0.2197h-8c-0.9665,0 -1.75,-0.7835 -1.75,-1.75zM5,4.75c-0.13807,0 -0.25,0.11193 -0.25,0.25v14c0,0.1381 0.11193,0.25 0.25,0.25h7.25v-5.25c0,-0.9665 0.7835,-1.75 1.75,-1.75h5.25v-7.25c0,-0.13807 -0.1119,-0.25 -0.25,-0.25zM18.1893,13.75h-4.1893c-0.1381,0 -0.25,0.1119 -0.25,0.25v4.1893z" fill="#002B51"/>
</svg>
