<svg width="24" height="24" viewBox="0 0 24 24" fill="none" xmlns="http://www.w3.org/2000/svg">
<path fill-rule="evenodd" clip-rule="evenodd" d="M5.5 2.25C4.25736 2.25 3.25 3.25736 3.25 4.5V19.5C3.25 20.7426 4.25736 21.75 5.5 21.75H8H18.5C19.7426 21.75 20.75 20.7426 20.75 19.5V4.5C20.75 3.25736 19.7426 2.25 18.5 2.25H8H5.5ZM7.25 3.75H5.5C5.08579 3.75 4.75 4.08579 4.75 4.5V19.5C4.75 19.9142 5.08579 20.25 5.5 20.25H7.25V3.75ZM8.75 20.25V3.75H18.5C18.9142 3.75 19.25 4.08579 19.25 4.5V19.5C19.25 19.9142 18.9142 20.25 18.5 20.25H8.75Z" fill="#002B51"/>
</svg>
