<svg width="24" height="24" viewBox="0 0 24 24" fill="none" xmlns="http://www.w3.org/2000/svg">
<path fill-rule="evenodd" clip-rule="evenodd" d="M8,2.25h10.5c1.2426,0 2.25,1.00736 2.25,2.25v15c0,1.2426 -1.0074,2.25 -2.25,2.25h-10.5h-2.5c-1.24264,0 -2.25,-1.0074 -2.25,-2.25v-15c0,-1.24264 1.00736,-2.25 2.25,-2.25zM7.25,3.75h-1.75c-0.41421,0 -0.75,0.33579 -0.75,0.75v15c0,0.4142 0.33579,0.75 0.75,0.75h1.75zM18.5,20.25c0.4142,0 0.75,-0.3358 0.75,-0.75v-15c0,-0.41421 -0.3358,-0.75 -0.75,-0.75h-9.75v16.5z" fill="#002B51"/>
</svg>
