<svg width="24" height="24" viewBox="0 0 24 24" fill="none" xmlns="http://www.w3.org/2000/svg">
<path fill-rule="evenodd" clip-rule="evenodd" d="M8,2.25h10c1.5188,0 2.75,1.23122 2.75,2.75v14c0,1.5188 -1.2312,2.75 -2.75,2.75h-10h-2c-1.51878,0 -2.75,-1.2312 -2.75,-2.75v-14c0,-1.51878 1.23122,-2.75 2.75,-2.75zM7.25,3.75h-1.25c-0.69036,0 -1.25,0.55964 -1.25,1.25v14c0,0.6904 0.55964,1.25 1.25,1.25h1.25zM18,20.25c0.6904,0 1.25,-0.5596 1.25,-1.25v-14c0,-0.69036 -0.5596,-1.25 -1.25,-1.25h-9.25v16.5z" fill="#002B51"/>
</svg>
