<svg width="24" height="24" viewBox="0 0 24 24" fill="none" xmlns="http://www.w3.org/2000/svg">
<path fill-rule="evenodd" clip-rule="evenodd" d="M13.75 3C13.75 2.74007 13.6154 2.49867 13.3943 2.36201C13.1732 2.22536 12.8971 2.21293 12.6646 2.32918L4.66459 6.32918C4.4105 6.45622 4.25 6.71592 4.25 7V20.25H3C2.58579 20.25 2.25 20.5858 2.25 21C2.25 21.4142 2.58579 21.75 3 21.75H5H13H19H21C21.4142 21.75 21.75 21.4142 21.75 21C21.75 20.5858 21.4142 20.25 21 20.25H19.75V11C19.75 10.7492 19.6247 10.5151 19.416 10.376L13.75 6.59861V3ZM18.25 11.4014V20.25H13.75V8.40139L18.25 11.4014ZM7.5 8.25C7.08579 8.25 6.75 8.58579 6.75 9C6.75 9.41421 7.08579 9.75 7.5 9.75H10.5C10.9142 9.75 11.25 9.41421 11.25 9C11.25 8.58579 10.9142 8.25 10.5 8.25H7.5ZM7.5 11.25C7.08579 11.25 6.75 11.5858 6.75 12C6.75 12.4142 7.08579 12.75 7.5 12.75H10.5C10.9142 12.75 11.25 12.4142 11.25 12C11.25 11.5858 10.9142 11.25 10.5 11.25H7.5ZM6.75 18C6.75 17.5858 7.08579 17.25 7.5 17.25H10.5C10.9142 17.25 11.25 17.5858 11.25 18C11.25 18.4142 10.9142 18.75 10.5 18.75H7.5C7.08579 18.75 6.75 18.4142 6.75 18ZM7.5 14.25C7.08579 14.25 6.75 14.5858 6.75 15C6.75 15.4142 7.08579 15.75 7.5 15.75H10.5C10.9142 15.75 11.25 15.4142 11.25 15C11.25 14.5858 10.9142 14.25 10.5 14.25H7.5Z" fill="#2F3736"/>
</svg>
