<svg width="24" height="24" viewBox="0 0 24 24" fill="none" xmlns="http://www.w3.org/2000/svg">
<path fill-rule="evenodd" clip-rule="evenodd" d="M13.3943,2.36201c0.2211,0.13666 0.3557,0.37806 0.3557,0.63799v3.59861l5.666,3.77739c0.2087,0.1391 0.334,0.3732 0.334,0.624v9.25h1.25c0.4142,0 0.75,0.3358 0.75,0.75c0,0.4142 -0.3358,0.75 -0.75,0.75h-2h-6h-8h-2c-0.41421,0 -0.75,-0.3358 -0.75,-0.75c0,-0.4142 0.33579,-0.75 0.75,-0.75h1.25v-13.25c0,-0.28408 0.1605,-0.54378 0.41459,-0.67082l8.00001,-4c0.2325,-0.11625 0.5086,-0.10382 0.7297,0.03283zM12.25,20.25v-13.25v-2.78647l-6.5,3.25v12.78647zM18.25,20.25v-8.8486l-4.5,-3.00001v11.84861zM6.75,9c0,-0.41421 0.33579,-0.75 0.75,-0.75h3c0.4142,0 0.75,0.33579 0.75,0.75c0,0.41421 -0.3358,0.75 -0.75,0.75h-3c-0.41421,0 -0.75,-0.33579 -0.75,-0.75zM10.5,11.25c0.4142,0 0.75,0.3358 0.75,0.75c0,0.4142 -0.3358,0.75 -0.75,0.75h-3c-0.41421,0 -0.75,-0.3358 -0.75,-0.75c0,-0.4142 0.33579,-0.75 0.75,-0.75zM6.75,18c0,-0.4142 0.33579,-0.75 0.75,-0.75h3c0.4142,0 0.75,0.3358 0.75,0.75c0,0.4142 -0.3358,0.75 -0.75,0.75h-3c-0.41421,0 -0.75,-0.3358 -0.75,-0.75zM10.5,14.25c0.4142,0 0.75,0.3358 0.75,0.75c0,0.4142 -0.3358,0.75 -0.75,0.75h-3c-0.41421,0 -0.75,-0.3358 -0.75,-0.75c0,-0.4142 0.33579,-0.75 0.75,-0.75z" fill="#2F3736"/>
</svg>
