<svg width="24" height="24" viewBox="0 0 24 24" fill="none" xmlns="http://www.w3.org/2000/svg">
<path d="M12.7539,2.29197c0.2116,-0.07357 0.4472,-0.04923 0.6406,0.07032c0.221,0.13668 0.3555,0.37788 0.3555,0.63769v3.59864l5.666,3.77738c0.2087,0.1391 0.334,0.3732 0.334,0.624v9.25h1.25c0.4142,0 0.75,0.3358 0.75,0.75c0,0.4142 -0.3358,0.75 -0.75,0.75h-18c-0.41421,0 -0.75,-0.3358 -0.75,-0.75c0,-0.4142 0.33579,-0.75 0.75,-0.75h1.25v-13.25002l0.00781,-0.10547c0.03429,-0.24161 0.18501,-0.45432 0.40723,-0.56543l7.99996,-4zM13.75,20.25h4.5v-8.8487l-4.5,-2.99995zM7.5,17.25c-0.41421,0 -0.75,0.3358 -0.75,0.75c0,0.4142 0.33579,0.75 0.75,0.75h3c0.4142,0 0.75,-0.3358 0.75,-0.75c0,-0.4142 -0.3358,-0.75 -0.75,-0.75zM7.5,14.25c-0.41421,0 -0.75,0.3358 -0.75,0.75c0,0.4142 0.33579,0.75 0.75,0.75h3c0.4142,0 0.75,-0.3358 0.75,-0.75c0,-0.4142 -0.3358,-0.75 -0.75,-0.75zM7.5,11.25c-0.41421,0 -0.75,0.3358 -0.75,0.75c0,0.4142 0.33579,0.75 0.75,0.75h3c0.4142,0 0.75,-0.3358 0.75,-0.75c0,-0.4142 -0.3358,-0.75 -0.75,-0.75zM7.5,8.24998c-0.41421,0 -0.75,0.33579 -0.75,0.75c0,0.41422 0.33579,0.75 0.75,0.75h3c0.4142,0 0.75,-0.33578 0.75,-0.75c0,-0.41421 -0.3358,-0.75 -0.75,-0.75z" fill="#002B51"/>
</svg>
