<svg width="24" height="24" viewBox="0 0 24 24" fill="none" xmlns="http://www.w3.org/2000/svg">
<path fill-rule="evenodd" clip-rule="evenodd" d="M7.5 2.75C5.70507 2.75 4.25 4.20507 4.25 6V7C4.25 8.79493 5.70507 10.25 7.5 10.25H16.5C18.2108 10.25 19.6129 8.92811 19.7405 7.25H21C21.1381 7.25 21.25 7.36193 21.25 7.5V12.5C21.25 12.6381 21.1381 12.75 21 12.75H13C12.0335 12.75 11.25 13.5335 11.25 14.5V14.75H11C10.0335 14.75 9.25 15.5335 9.25 16.5V20.5C9.25 21.4665 10.0335 22.25 11 22.25H13C13.9665 22.25 14.75 21.4665 14.75 20.5V16.5C14.75 15.5335 13.9665 14.75 13 14.75H12.75V14.5C12.75 14.3619 12.8619 14.25 13 14.25H21C21.9665 14.25 22.75 13.4665 22.75 12.5V7.5C22.75 6.5335 21.9665 5.75 21 5.75H19.7405C19.6129 4.07189 18.2108 2.75 16.5 2.75H7.5ZM5.75 6C5.75 5.0335 6.5335 4.25 7.5 4.25H16.5C17.4665 4.25 18.25 5.0335 18.25 6V7C18.25 7.9665 17.4665 8.75 16.5 8.75H7.5C6.5335 8.75 5.75 7.9665 5.75 7V6ZM10.75 16.5C10.75 16.3619 10.8619 16.25 11 16.25H12H13C13.1381 16.25 13.25 16.3619 13.25 16.5V20.5C13.25 20.6381 13.1381 20.75 13 20.75H11C10.8619 20.75 10.75 20.6381 10.75 20.5V16.5Z" fill="#002B51"/>
</svg>
