<svg width="24" height="24" viewBox="0 0 24 24" fill="none" xmlns="http://www.w3.org/2000/svg">
<path fill-rule="evenodd" clip-rule="evenodd" d="M4.25,6c0,-1.79493 1.45507,-3.25 3.25,-3.25h9c1.7108,0 3.1129,1.32189 3.2405,3h1.2595c0.9665,0 1.75,0.7835 1.75,1.75v5c0,0.9665 -0.7835,1.75 -1.75,1.75h-8c-0.1381,0 -0.25,0.1119 -0.25,0.25v0.25h0.25c0.9665,0 1.75,0.7835 1.75,1.75v4c0,0.9665 -0.7835,1.75 -1.75,1.75h-2c-0.9665,0 -1.75,-0.7835 -1.75,-1.75v-4c0,-0.9665 0.7835,-1.75 1.75,-1.75h0.25v-0.25c0,-0.9665 0.7835,-1.75 1.75,-1.75h8c0.1381,0 0.25,-0.1119 0.25,-0.25v-5c0,-0.13807 -0.1119,-0.25 -0.25,-0.25h-1.2595c-0.1276,1.67811 -1.5297,3 -3.2405,3h-9c-1.79493,0 -3.25,-1.45507 -3.25,-3.25zM10.75,20.5c0,0.1381 0.1119,0.25 0.25,0.25h2c0.1381,0 0.25,-0.1119 0.25,-0.25v-4c0,-0.1381 -0.1119,-0.25 -0.25,-0.25h-1h-1c-0.1381,0 -0.25,0.1119 -0.25,0.25z" fill="#002B51"/>
</svg>
