<svg width="24" height="24" viewBox="0 0 24 24" fill="none" xmlns="http://www.w3.org/2000/svg">
<path d="M18.1484,16.6404c0.4416,-0.5333 1.2616,-0.5334 1.7032,0l0.0888,0.1221l0.3721,0.6152c0.1297,0.224 0.2609,0.4618 0.3779,0.6963c0.1168,0.2341 0.225,0.4762 0.3057,0.7051c0.0767,0.2176 0.1464,0.4741 0.1465,0.7207c0,1.1834 -0.9591,2.1425 -2.1426,2.1425c-1.1835,0 -2.1426,-0.9591 -2.1426,-2.1425c0.0001,-0.2466 0.0698,-0.5031 0.1465,-0.7207c0.0807,-0.2289 0.1889,-0.471 0.3057,-0.7051c0.234,-0.4691 0.5229,-0.951 0.75,-1.3115zM10.0557,3.88354c1.0738,-1.07355 2.8148,-1.07355 3.8886,0l5.6719,5.67188c1.0736,1.07388 1.0736,2.81478 0,3.88868l-6.4648,6.4648c-1.4644,1.4642 -3.83836,1.4642 -5.30277,0l-4.25781,-4.2578c-1.46404,-1.4644 -1.46409,-3.8383 0,-5.3027l4.09863,-4.09864l-1.71972,-1.71973c-0.29281,-0.2929 -0.29287,-0.76768 0,-1.06055c0.29287,-0.2927 0.7677,-0.29275 1.06054,0l1.71973,1.71973zM19,17.6902c-0.1812,0.2971 -0.378,0.6353 -0.5391,0.958c-0.1034,0.2073 -0.1883,0.3975 -0.2451,0.5586c-0.0605,0.1719 -0.0731,0.2647 -0.0732,0.293c0,0.4733 0.384,0.8574 0.8574,0.8574c0.4734,0 0.8574,-0.3841 0.8574,-0.8574c-0.0001,-0.0283 -0.0127,-0.1211 -0.0732,-0.293c-0.0568,-0.1611 -0.1417,-0.3513 -0.2451,-0.5586c-0.1611,-0.3227 -0.3579,-0.6609 -0.5391,-0.958zM12.8838,4.94409c-0.4881,-0.48777 -1.2795,-0.48777 -1.7676,0l-1.30565,1.30567l2.22065,2.2207c0.2936,-0.14038 0.6217,-0.2207 0.9688,-0.2207c1.2425,0.00001 2.2499,1.00748 2.25,2.25004c0,1.2426 -1.0074,2.2499 -2.25,2.25c-1.2426,0 -2.25,-1.0074 -2.25,-2.25c0,-0.3472 0.0803,-0.67521 0.2207,-0.96879l-2.2207,-2.22071l-4.09863,4.0986c-0.87831,0.8786 -0.87825,2.3031 0,3.1817l4.25781,4.2578c0.87861,0.8783 2.30302,0.8783 3.18162,0l6.4649,-6.4649c0.4878,-0.4881 0.4878,-1.2795 0,-1.7675zM13,9.74976c-0.4141,0 -0.7499,0.33594 -0.75,0.75004c0,0.4142 0.3358,0.75 0.75,0.75c0.4142,-0.0001 0.75,-0.3358 0.75,-0.75c-0.0001,-0.4141 -0.3359,-0.75003 -0.75,-0.75004z" fill="#002B51"/>
</svg>
