<svg width="24" height="24" viewBox="0 0 24 24" fill="none" xmlns="http://www.w3.org/2000/svg">
<path fill-rule="evenodd" clip-rule="evenodd" d="M19.6162,9.55567c1.0737,1.07393 1.0737,2.81483 0,3.88863l-6.4648,6.4649c-1.4644,1.4641 -3.83837,1.4641 -5.30277,0l-4.25781,-4.2578c-1.46418,-1.4644 -1.46414,-3.8383 0,-5.3028l4.09861,-4.09857l-1.71978,-1.71978c-0.2929,-0.2929 -0.2929,-0.76766 0,-1.06055c0.29289,-0.29289 0.76765,-0.29289 1.06054,0l1.71979,1.71978l1.30572,-1.30568c1.0739,-1.07374 2.8147,-1.07375 3.8886,0zM8.74998,7.31058l-4.09861,4.09862c-0.87836,0.8786 -0.87839,2.303 0,3.1816l4.25781,4.2578c0.87861,0.8784 2.30302,0.8784 3.18162,0l6.4649,-6.4648c0.4879,-0.4881 0.4879,-1.2795 0,-1.7676l-5.6719,-5.67186c-0.4881,-0.48795 -1.2795,-0.48795 -1.7676,0l-1.30568,1.30569l2.21928,2.21927c0.2938,-0.14059 0.6228,-0.21933 0.9702,-0.21933c1.2426,0 2.25,1.00736 2.25,2.25003c0,1.2426 -1.0074,2.25 -2.25,2.25c-1.2427,0 -2.25,-1.0074 -2.25,-2.25c0,-0.3474 0.0787,-0.67639 0.2193,-0.97013zM13.75,10.5c0,-0.4142 -0.3358,-0.75003 -0.75,-0.75003c-0.4142,0 -0.75,0.33583 -0.75,0.75003c0,0.4142 0.3358,0.75 0.75,0.75c0.4142,0 0.75,-0.3358 0.75,-0.75zM19.539,18.6484c-0.161,-0.3228 -0.3578,-0.6608 -0.539,-0.958c-0.1812,0.2972 -0.3781,0.6352 -0.5391,0.958c-0.1035,0.2074 -0.1883,0.3974 -0.2451,0.5586c-0.0608,0.1724 -0.0733,0.265 -0.0733,0.293c0,0.4734 0.3841,0.8574 0.8575,0.8574c0.4734,0 0.8574,-0.384 0.8574,-0.8574c0,-0.028 -0.0125,-0.1206 -0.0732,-0.293c-0.0569,-0.1612 -0.1417,-0.3512 -0.2452,-0.5586zM16.8574,19.5c0,-0.2467 0.0697,-0.503 0.1465,-0.7207c0.0807,-0.229 0.1888,-0.4709 0.3056,-0.7051c0.2341,-0.4692 0.523,-0.9509 0.75,-1.3115l0.0889,-0.1221c0.4416,-0.5335 1.2615,-0.5335 1.7031,0l0.0889,0.1221l0.3721,0.6152c0.1297,0.2241 0.2609,0.4617 0.3779,0.6963c0.1168,0.2342 0.225,0.4761 0.3057,0.7051c0.0767,0.2177 0.1464,0.474 0.1464,0.7207c0,1.1834 -0.9591,2.1426 -2.1425,2.1426c-1.1835,0 -2.1426,-0.9592 -2.1426,-2.1426z" fill="#002B51"/>
</svg>
