<svg width="24" height="24" viewBox="0 0 24 24" fill="none" xmlns="http://www.w3.org/2000/svg">
<path d="M16.5,2.75c1.7108,0 3.1116,1.32193 3.2393,3h1.2607c0.9665,0 1.75,0.7835 1.75,1.75v5c0,0.9665 -0.7835,1.75 -1.75,1.75h-8c-0.138,0 -0.25,0.1119 -0.25,0.25v0.25h0.25c0.9665,0 1.75,0.7835 1.75,1.75v4c0,0.9665 -0.7835,1.75 -1.75,1.75h-2c-0.9665,0 -1.74997,-0.7835 -1.74997,-1.75v-4c0,-0.9665 0.78347,-1.75 1.74997,-1.75h0.25v-0.25c0,-0.9665 0.7835,-1.75 1.75,-1.75h8c0.1381,0 0.25,-0.1119 0.25,-0.25v-5c0,-0.13807 -0.1119,-0.25 -0.25,-0.25h-1.2607c-0.1277,1.67807 -1.5285,3 -3.2393,3h-8.99997c-1.79493,0 -3.25,-1.45507 -3.25,-3.25v-1c0,-1.79493 1.45507,-3.25 3.25,-3.25zM11,16.25c-0.138,0 -0.25,0.1119 -0.25,0.25v4c0,0.1381 0.112,0.25 0.25,0.25h2c0.1381,0 0.25,-0.1119 0.25,-0.25v-4c0,-0.1381 -0.1119,-0.25 -0.25,-0.25zM7.50003,4.25c-0.9665,0 -1.75,0.7835 -1.75,1.75v1c0,0.9665 0.7835,1.75 1.75,1.75h8.99997c0.9665,0 1.75,-0.7835 1.75,-1.75v-1c0,-0.9665 -0.7835,-1.75 -1.75,-1.75z" fill="#002B51"/>
</svg>
