<svg width="24" height="24" viewBox="0 0 24 24" fill="none" xmlns="http://www.w3.org/2000/svg">
<path fill-rule="evenodd" clip-rule="evenodd" d="M19.6162,9.55548c1.0736,1.07392 1.0737,2.81482 0,3.88872l-6.4649,6.4648c-1.4644,1.4641 -3.83832,1.4641 -5.30272,0l-4.25781,-4.2578c-1.46418,-1.4644 -1.46414,-3.8383 0,-5.3027l4.09861,-4.09866l-1.71979,-1.71978l-0.05176,-0.05664c-0.2403,-0.29458 -0.22284,-0.7293 0.05176,-1.00391c0.27461,-0.2746 0.70933,-0.29206 1.00391,-0.05176l0.05664,0.05176l1.71978,1.71979l1.30568,-1.30569l0.209,-0.18848c1.0801,-0.88084 2.6729,-0.81817 3.6797,0.18848zM8.74992,7.31039l-4.09861,4.09861c-0.87835,0.8786 -0.87839,2.303 0,3.1816l4.25782,4.2579c0.87861,0.8783 2.30307,0.8783 3.18167,0l6.4648,-6.4649c0.4879,-0.4881 0.4879,-1.2794 0,-1.7676l-5.6719,-5.67184c-0.4881,-0.48796 -1.2794,-0.48796 -1.7675,0l-1.30573,1.30568l2.21923,2.21928c0.2938,-0.1406 0.6228,-0.21933 0.9702,-0.21933c1.2427,0 2.25,1.00736 2.25,2.25001c0,1.2426 -1.0073,2.25 -2.25,2.25c-1.2426,0 -2.25,-1.0074 -2.25,-2.25c0,-0.3474 0.0787,-0.67638 0.2193,-0.97012zM13.7499,10.4998c0,-0.4142 -0.3358,-0.75001 -0.75,-0.75001c-0.4142,0 -0.75,0.33581 -0.75,0.75001c0,0.4142 0.3358,0.75 0.75,0.75c0.4142,0 0.75,-0.3358 0.75,-0.75zM19.539,18.6482c-0.1611,-0.3228 -0.3579,-0.6608 -0.5391,-0.958c-0.1812,0.2972 -0.378,0.6352 -0.539,0.958c-0.1035,0.2075 -0.1884,0.3974 -0.2452,0.5586c-0.0607,0.1724 -0.0732,0.265 -0.0732,0.293c0,0.4734 0.384,0.8574 0.8574,0.8574c0.4734,0 0.8574,-0.384 0.8574,-0.8574c0,-0.028 -0.0125,-0.1206 -0.0732,-0.293c-0.0568,-0.1612 -0.1416,-0.3511 -0.2451,-0.5586zM16.8573,19.4998c0,-0.2467 0.0698,-0.503 0.1465,-0.7207c0.0807,-0.2289 0.1888,-0.4709 0.3057,-0.7051c0.2341,-0.4692 0.5229,-0.9509 0.75,-1.3115l0.0889,-0.1221c0.4416,-0.5335 1.2615,-0.5335 1.7031,0l0.0888,0.1221l0.3721,0.6152c0.1298,0.2241 0.2609,0.4618 0.3779,0.6963c0.1169,0.2342 0.225,0.4762 0.3057,0.7051c0.0768,0.2177 0.1465,0.474 0.1465,0.7207c0,1.1835 -0.9591,2.1426 -2.1426,2.1426c-1.1834,0 -2.1426,-0.9591 -2.1426,-2.1426z" fill="#002B51"/>
</svg>
