<svg width="24" height="24" viewBox="0 0 24 24" fill="none" xmlns="http://www.w3.org/2000/svg">
<path d="M5.25,15v-4c0,-0.4142 0.33579,-0.75 0.75,-0.75c0.41421,0 0.75,0.3358 0.75,0.75v4c0,2.8995 2.35051,5.25 5.25,5.25c2.8995,0 5.25,-2.3505 5.25,-5.25v-8c0,-1.79493 -1.4551,-3.25 -3.25,-3.25c-1.7949,0 -3.25,1.45507 -3.25,3.25v8c0,0.6904 0.5596,1.25 1.25,1.25c0.6904,0 1.25,-0.5596 1.25,-1.25v-7.5c0,-0.41421 0.3358,-0.75 0.75,-0.75c0.4142,0 0.75,0.33579 0.75,0.75v7.5c0,1.5188 -1.2312,2.75 -2.75,2.75c-1.5188,0 -2.75,-1.2312 -2.75,-2.75v-8c0,-2.62335 2.1266,-4.75 4.75,-4.75c2.6234,0 4.75,2.12665 4.75,4.75v8c0,3.7279 -3.0221,6.75 -6.75,6.75c-3.72792,0 -6.75,-3.0221 -6.75,-6.75z" fill="#002B51"/>
</svg>
