<svg width="24" height="24" viewBox="0 0 24 24" fill="none" xmlns="http://www.w3.org/2000/svg">
<path d="M10.97,3.96928c1.9498,-1.94934 5.1109,-1.94953 7.0606,0c1.9496,1.94962 1.9493,5.11077 0,7.06052l-5.5,5.5c-1.1214,1.1213 -2.93928,1.1213 -4.0606,0c-1.12122,-1.1213 -1.12128,-2.9392 0,-4.0605l5.5,-5.50002c0.2929,-0.29249 0.7678,-0.29269 1.0606,0c0.2927,0.29277 0.2925,0.76762 0,1.06055l-5.50005,5.49997c-0.5355,0.5355 -0.53544,1.4039 0,1.9395l0.10449,0.0937c0.53866,0.4393 1.33286,0.4083 1.83496,-0.0937l5.5,-5.50002c1.3636,-1.36399 1.3638,-3.57562 0,-4.93945c-1.3638,-1.36375 -3.5755,-1.36356 -4.9394,0l-5.50005,5.49997c-2.19236,2.1924 -2.19231,5.7471 0,7.9395c2.19239,2.1924 5.74705,2.1924 7.93945,0l6,-6c0.2929,-0.2925 0.7678,-0.2927 1.0606,0c0.2927,0.2927 0.2925,0.7676 0,1.0605l-6,6c-2.7782,2.7782 -7.28242,2.7782 -10.0606,0c-2.77809,-2.7782 -2.77814,-7.2824 0,-10.06052z" fill="#002B51"/>
</svg>
