<svg width="24" height="24" viewBox="0 0 24 24" fill="none" xmlns="http://www.w3.org/2000/svg">
<path d="M4.50586,3.43652c0.23448,-0.20557 0.57146,-0.24517 0.84668,-0.09863l14.99996,8.00001c0.0013,0.0007 0.0027,0.0013 0.0039,0.0019c0.0693,0.0375 0.1313,0.0867 0.1856,0.1436c0.0889,0.0934 0.1519,0.2073 0.1836,0.3311c0.0003,0.0013 0.0016,0.0025 0.0019,0.0039c0.0035,0.0138 0.0042,0.0281 0.0069,0.042c0.0049,0.0255 0.0105,0.051 0.0127,0.0771v0.124c-0.0022,0.0261 -0.0079,0.0516 -0.0127,0.0772c-0.0027,0.0142 -0.0033,0.0288 -0.0069,0.0429c-0.0002,0.0011 -0.0016,0.0019 -0.0019,0.003c-0.0259,0.1015 -0.0736,0.1957 -0.1387,0.2783c-0.0633,0.0803 -0.1408,0.1477 -0.2305,0.1963c-0.0014,0.0007 -0.0024,0.0022 -0.0039,0.0029l-14.99996,8c-0.27522,0.1466 -0.6122,0.107 -0.84668,-0.0986c-0.23456,-0.2057 -0.31755,-0.5351 -0.20801,-0.8272l2.62012,-6.9912c0.02696,0.003 0.05429,0.0049 0.08203,0.0049h6c0.4142,0 0.75,-0.3358 0.75,-0.75c0,-0.4142 -0.3358,-0.75 -0.75,-0.75h-6c-0.0277,0 -0.05511,0.001 -0.08203,0.0039l-2.62012,-6.99023c-0.10954,-0.29211 -0.02655,-0.62145 0.20801,-0.82715z" fill="#002B51"/>
</svg>
