<svg width="24" height="24" viewBox="0 0 24 24" fill="none" xmlns="http://www.w3.org/2000/svg">
<path d="M10.6165,3.61579c2.145,-2.1446 5.6227,-2.1448 7.7676,0c2.1449,2.14488 2.1446,5.62253 0,7.76761l-5.5,5.5c-1.2753,1.2753 -3.31818,1.3155 -4.64161,0.1201l-0.12598,-0.1201c-1.31649,-1.3166 -1.31655,-3.4511 0,-4.7676l5.49999,-5.50001c0.4882,-0.48776 1.2796,-0.48795 1.7676,0c0.488,0.48803 0.4878,1.27939 0,1.76757l-5.50001,5.50004c-0.34023,0.3402 -0.34018,0.8921 0,1.2324c0.34031,0.3403 0.89211,0.3402 1.23241,0l5.5,-5.50001l0.1065,-0.11133c1.061,-1.17478 1.0256,-2.98903 -0.1065,-4.1211c-1.1686,-1.16848 -3.0637,-1.16829 -4.2324,0l-5.50001,5.50004c-1.9971,1.9971 -1.99705,5.2353 0,7.2324c1.99713,1.9971 5.23531,1.9971 7.23241,0l6,-6c0.4882,-0.4878 1.2796,-0.488 1.7676,0c0.488,0.488 0.4878,1.2794 0,1.7676l-6,6c-2.9734,2.9734 -7.79415,2.9734 -10.76759,0c-2.97336,-2.9735 -2.97341,-7.7942 0,-10.76761z" fill="#002B51"/>
</svg>
