<svg width="24" height="24" viewBox="0 0 24 24" fill="none" xmlns="http://www.w3.org/2000/svg">
<path d="M4.5057,3.43642c0.23448,-0.20557 0.57147,-0.24516 0.84668,-0.09863l15.00002,8.00001c0.2444,0.1303 0.3974,0.3851 0.3974,0.6621c0,0.277 -0.153,0.5318 -0.3974,0.6621l-15.00002,8c-0.27521,0.1465 -0.6122,0.1069 -0.84668,-0.0986c-0.23453,-0.2057 -0.31754,-0.5351 -0.208,-0.8272l2.90039,-7.7363l-2.90039,-7.73633c-0.10953,-0.29211 -0.02654,-0.62146 0.208,-0.82715zM8.51938,11.2499h4.48042c0.4143,0 0.75,0.3358 0.75,0.75c0,0.4142 -0.3357,0.75 -0.75,0.75h-4.48042l-2.12012,5.6533l12.00584,-6.4033l-12.00584,-6.40332z" fill="#002B51"/>
</svg>
