<svg width="24" height="24" viewBox="0 0 24 24" fill="none" xmlns="http://www.w3.org/2000/svg">
<path fill-rule="evenodd" clip-rule="evenodd" d="M4.50561,3.43606c0.23461,-0.20569 0.57206,-0.24464 0.84736,-0.09781l14.99373,7.99665c0.0171,0.0089 0.0339,0.0185 0.0502,0.0287c0.0771,0.048 0.1432,0.1086 0.1967,0.1779c0.0918,0.1189 0.1464,0.2635 0.1552,0.4147c0.0014,0.0229 0.0017,0.0459 0.0009,0.0689c-0.0024,0.0704 -0.0146,0.1396 -0.036,0.2056c-0.0271,0.0838 -0.0681,0.1606 -0.1201,0.2279c-0.0665,0.0859 -0.1508,0.1564 -0.2469,0.2065l-14.99373,7.9967c-0.2753,0.1468 -0.61275,0.1079 -0.84736,-0.0978c-0.23462,-0.2057 -0.31738,-0.5352 -0.20782,-0.8273l2.6216,-6.991c0.02648,0.0028 0.05338,0.0043 0.08061,0.0043h6c0.4142,0 0.75,-0.3358 0.75,-0.75c0,-0.4142 -0.3358,-0.75 -0.75,-0.75h-6c-0.02724,0 -0.05413,0.0015 -0.08061,0.0043l-2.6216,-6.99095c-0.10956,-0.29214 -0.0268,-0.6216 0.20782,-0.82729z" fill="#002B51"/>
</svg>
