<svg width="24" height="24" viewBox="0 0 24 24" fill="none" xmlns="http://www.w3.org/2000/svg">
<path fill-rule="evenodd" clip-rule="evenodd" d="M4.50574,3.43643c0.23448,-0.20558 0.57146,-0.24518 0.84668,-0.09863l14.99998,8l0.0017,0.0011c0.0356,0.0191 0.0696,0.041 0.1015,0.0655l0.0042,0.0027c0.1837,0.1424 0.2902,0.3623 0.2901,0.5928c0.0001,0.2305 -0.1064,0.4504 -0.2901,0.5928l-0.0042,0.0027c-0.0319,0.0245 -0.0659,0.0464 -0.1015,0.0655l-0.0017,0.0011l-14.99998,8c-0.27522,0.1466 -0.6122,0.107 -0.84668,-0.0986c-0.23456,-0.2057 -0.31755,-0.535 -0.20801,-0.8272l2.62145,-6.9905c0.02655,0.0028 0.05352,0.0043 0.08082,0.0043h6c0.4142,0 0.75,-0.3358 0.75,-0.75c0,-0.4142 -0.3358,-0.75 -0.75,-0.75h-6c-0.02728,0 -0.05422,0.0015 -0.08075,0.0043l-2.62152,-6.99072c-0.10954,-0.29212 -0.02655,-0.62146 0.20801,-0.82715z" fill="#002B51"/>
</svg>
