<svg width="24" height="24" viewBox="0 0 24 24" fill="none" xmlns="http://www.w3.org/2000/svg">
<path fill-rule="evenodd" clip-rule="evenodd" d="M10.9696,3.96969c1.9498,-1.94974 5.1109,-1.94974 7.0607,0.00001c1.9497,1.94974 1.9497,5.11091 0,7.0607l-5.5,5.5c-1.1213,1.1213 -2.93934,1.1213 -4.06067,0c-1.12131,-1.1214 -1.12132,-2.9394 0,-4.0607l5.49997,-5.50003c0.2929,-0.2929 0.7678,-0.2929 1.0607,0c0.2929,0.29289 0.2929,0.76776 0,1.06066l-5.50001,5.50007c-0.53553,0.5355 -0.53553,1.4038 0,1.9393c0.53551,0.5355 1.40381,0.5355 1.93931,0l5.5,-5.5c1.364,-1.36396 1.364,-3.57538 0,-4.93934c-1.3639,-1.36396 -3.5753,-1.36397 -4.9393,-0.00001l-5.50002,5.50005c-2.19239,2.1923 -2.19239,5.7469 0,7.9393c2.19238,2.1924 5.74692,2.1924 7.93932,0l6,-6c0.2929,-0.2929 0.7678,-0.2929 1.0607,0c0.2929,0.2929 0.2929,0.7677 0,1.0606l-6,6.0001c-2.7782,2.7781 -7.28251,2.7781 -10.06069,0c-2.77817,-2.7782 -2.77816,-7.2825 0.00001,-10.0607z" fill="#002B51"/>
</svg>
