<svg width="24" height="24" viewBox="0 0 24 24" fill="none" xmlns="http://www.w3.org/2000/svg">
<path fill-rule="evenodd" clip-rule="evenodd" d="M10.6161,3.61614c2.145,-2.14501 5.6227,-2.14501 7.7677,0c2.1451,2.14501 2.1451,5.62276 0.0001,7.76776l-5.5,5.5c-1.3166,1.3166 -3.45124,1.3166 -4.76782,0c-1.31658,-1.3166 -1.31659,-3.4512 -0.00001,-4.7677l5.50003,-5.50008c0.4881,-0.48816 1.2796,-0.48816 1.7677,-0.00001c0.4882,0.48816 0.4882,1.27961 0.0001,1.76777l-5.50006,5.50002c-0.34027,0.3403 -0.34027,0.892 0.00001,1.2322c0.34025,0.3403 0.89195,0.3403 1.23225,0l5.5,-5.49996c1.1687,-1.16869 1.1687,-3.06353 0,-4.23223c-1.1687,-1.1687 -3.0636,-1.1687 -4.2323,0l-5.49996,5.49999c-1.99713,1.9971 -1.99714,5.2351 -0.00001,7.2322c1.99712,1.9972 5.23507,1.9972 7.23227,0l6,-6c0.4881,-0.4881 1.2796,-0.4881 1.7678,0c0.4881,0.4882 0.4881,1.2796 0,1.7678l-6.0001,6c-2.9734,2.9734 -7.7943,2.9734 -10.76774,0c-2.97344,-2.9734 -2.97343,-7.7943 0.00001,-10.76776z" fill="#002B51"/>
</svg>
