<svg width="24" height="24" viewBox="0 0 24 24" fill="none" xmlns="http://www.w3.org/2000/svg">
<path d="M4.2977,19.7362l2.90039,-7.7363l-2.90039,-7.73632c-0.10954,-0.29212 -0.02655,-0.62146 0.20801,-0.82715c0.23448,-0.20558 0.57146,-0.24518 0.84668,-0.09863l15.00001,8c0.2444,0.1303 0.3974,0.3851 0.3974,0.6621c0,0.277 -0.153,0.5318 -0.3974,0.6621l-15.00001,8c-0.27522,0.1466 -0.6122,0.107 -0.84668,-0.0986c-0.23456,-0.2057 -0.31755,-0.535 -0.20801,-0.8272zM6.39926,18.4032l12.00584,-6.4033l-12.00584,-6.40331l2.12012,5.65331h4.48052c0.4142,0 0.75,0.3358 0.75,0.75c0,0.4142 -0.3358,0.75 -0.75,0.75h-4.48052z" fill="#002B51"/>
</svg>
