<svg width="24" height="24" viewBox="0 0 24 24" fill="none" xmlns="http://www.w3.org/2000/svg">
<path d="M10.6161,3.61614c2.145,-2.14501 5.6225,-2.145 7.7675,0c2.145,2.145 2.1451,5.62256 0,7.76756l-5.5,5.5c-1.2753,1.2753 -3.31813,1.3155 -4.64156,0.1201l-0.12598,-0.1201c-1.31656,-1.3166 -1.31657,-3.451 0,-4.7676l5.50004,-5.49996c0.4881,-0.48816 1.2794,-0.48816 1.7675,0c0.4882,0.48815 0.4882,1.27942 0,1.76757l-5.49996,5.49999c-0.34026,0.3403 -0.34026,0.8922 0,1.2324c0.34026,0.3403 0.89216,0.3403 1.23246,0l5.5,-5.49996l0.1064,-0.11133c1.0615,-1.17477 1.0258,-2.9889 -0.1064,-4.1211c-1.1687,-1.16868 -3.0638,-1.16869 -4.2325,0l-5.49996,5.49999c-1.99712,1.9971 -1.99712,5.2353 0,7.2324c1.99713,1.9972 5.23526,1.9972 7.23246,0l6,-6c0.4881,-0.4881 1.2794,-0.4881 1.7675,0c0.4882,0.4882 0.4882,1.2795 0,1.7676l-6,6c-2.9734,2.9735 -7.7941,2.9735 -10.76754,0c-2.97343,-2.9734 -2.97343,-7.7941 0,-10.76756z" fill="#002B51"/>
</svg>
