<svg width="24" height="24" viewBox="0 0 24 24" fill="none" xmlns="http://www.w3.org/2000/svg">
<path d="M10.9696,3.96969c1.9498,-1.94974 5.1108,-1.94974 7.0606,0c1.9497,1.94975 1.9497,5.1108 0,7.06051l-5.5,5.5c-1.1213,1.1213 -2.93924,1.1214 -4.06055,0c-1.12131,-1.1213 -1.12132,-2.9392 0,-4.0605l5.49995,-5.50001c0.2929,-0.29289 0.7677,-0.29289 1.0606,0c0.2929,0.29289 0.2929,0.76765 0,1.06055l-5.50001,5.49996c-0.53552,0.5356 -0.53552,1.404 0,1.9395l0.1045,0.0937c0.53861,0.4393 1.33291,0.4083 1.83491,-0.0937l5.5,-5.50001c1.364,-1.36396 1.364,-3.57549 0,-4.93945c-1.3639,-1.36395 -3.5754,-1.36396 -4.9394,0l-5.50001,5.49996c-2.19238,2.1924 -2.19238,5.7471 0,7.9395c2.19239,2.1924 5.74711,2.1924 7.93941,0l6,-6c0.2929,-0.2929 0.7677,-0.2929 1.0606,0c0.2929,0.2929 0.2929,0.7676 0,1.0605l-6,6c-2.7782,2.7782 -7.28238,2.7782 -10.06055,0c-2.77818,-2.7781 -2.77818,-7.2823 0,-10.06051z" fill="#002B51"/>
</svg>
