<svg width="24" height="24" viewBox="0 0 24 24" fill="none" xmlns="http://www.w3.org/2000/svg">
<path fill-rule="evenodd" clip-rule="evenodd" d="M4.29776,19.7367l2.90124,-7.7367l-2.90124,-7.73665c-0.10956,-0.29214 -0.0268,-0.6216 0.20782,-0.82729c0.23461,-0.20569 0.57206,-0.24464 0.84736,-0.09781l14.99996,7.99995c0.2444,0.1304 0.3971,0.3848 0.3971,0.6618c0,0.277 -0.1527,0.5314 -0.3971,0.6618l-14.99996,8c-0.2753,0.1468 -0.61275,0.1079 -0.84736,-0.0978c-0.23462,-0.2057 -0.31738,-0.5352 -0.20782,-0.8273zM13,11.25c0.4142,0 0.75,0.3358 0.75,0.75c0,0.4142 -0.3358,0.75 -0.75,0.75h-4.48025l-2.12006,5.6535l12.00661,-6.4035l-12.00661,-6.40349l2.12006,5.65349z" fill="#002B51"/>
</svg>
