<svg width="24" height="24" viewBox="0 0 24 24" fill="none" xmlns="http://www.w3.org/2000/svg">
<path d="M4.50574,3.43642c0.23448,-0.20555 0.57147,-0.24517 0.84668,-0.09864l14.99998,8.00002l0.0039,0.0019c0.0161,0.0088 0.0306,0.0205 0.0459,0.0303l0.0576,0.0371c0.0314,0.0244 0.0603,0.0516 0.087,0.0801c0.0065,0.007 0.0122,0.0152 0.0185,0.0225c0.0195,0.0225 0.0381,0.0458 0.0547,0.0703c0.0058,0.0085 0.0112,0.0176 0.0166,0.0263c0.0154,0.025 0.0297,0.0507 0.042,0.0772c0.0049,0.0105 0.0093,0.0215 0.0137,0.0322c0.0109,0.0267 0.0195,0.0543 0.0273,0.082c0.002,0.007 0.0061,0.0135 0.0078,0.0206c0.001,0.004 0.001,0.0086 0.002,0.0126c0.0054,0.0238 0.0085,0.0481 0.0117,0.0723c0.0016,0.0124 0.0039,0.0248 0.0049,0.0371c0.0015,0.0197 0.001,0.0397 0.001,0.0596c0,0.0196 0.0005,0.0392 -0.001,0.0586c-0.001,0.0124 -0.0033,0.0247 -0.0049,0.0371c-0.0031,0.0243 -0.0063,0.0485 -0.0117,0.0723c-0.001,0.0044 -0.0009,0.0092 -0.002,0.0136c-0.0017,0.0068 -0.0059,0.0129 -0.0078,0.0196c-0.0078,0.0278 -0.0164,0.0553 -0.0273,0.082c-0.0045,0.0108 -0.0088,0.0217 -0.0137,0.0322c-0.0124,0.0266 -0.0266,0.0522 -0.042,0.0772c-0.0055,0.0088 -0.0108,0.0177 -0.0166,0.0263c-0.0167,0.0249 -0.035,0.0485 -0.0547,0.0713c-0.0062,0.0072 -0.0121,0.0146 -0.0185,0.0215c-0.0269,0.0288 -0.0553,0.0565 -0.087,0.0811l-0.0576,0.0361c-0.0154,0.0099 -0.0298,0.0215 -0.0459,0.0303l-0.0039,0.0029l-14.99998,8c-0.27513,0.1465 -0.61221,0.1068 -0.84668,-0.0986c-0.23453,-0.2057 -0.3175,-0.5351 -0.20801,-0.8272l2.62012,-6.9912c0.02691,0.0029 0.05434,0.0049 0.08203,0.0049h6.00002c0.4141,-0.0001 0.7499,-0.3359 0.75,-0.75c0,-0.4142 -0.3359,-0.7499 -0.75,-0.75h-6.00002c-0.02766,0 -0.05514,0.001 -0.08203,0.0039l-2.62012,-6.99023c-0.10954,-0.29212 -0.02655,-0.62146 0.20801,-0.82715z" fill="#002B51"/>
</svg>
