<svg width="24" height="24" viewBox="0 0 24 24" fill="none" xmlns="http://www.w3.org/2000/svg">
<path d="M10.9694,3.97009c1.9498,-1.94974 5.1108,-1.94973 7.0606,0c1.9497,1.94975 1.9497,5.11081 0,7.06051l-5.5,5.5c-1.1214,1.121 -2.93936,1.1212 -4.06058,0c-1.1212,-1.1212 -1.12099,-2.9392 0,-4.0605l5.49998,-5.50001c0.2929,-0.29289 0.7677,-0.29289 1.0606,0c0.2928,0.2929 0.2928,0.76767 0,1.06055l-5.50003,5.49996c-0.5352,0.5356 -0.53542,1.4041 0,1.9395c0.53543,0.5354 1.40393,0.5352 1.93943,0l5.5,-5.50001c1.364,-1.36395 1.3639,-3.57549 0,-4.93945c-1.3639,-1.36395 -3.5755,-1.36396 -4.9394,0l-5.50003,5.49996c-2.19207,2.1925 -2.19228,5.7472 0,7.9395c2.19228,2.1922 5.74703,2.192 7.93943,0l6,-6c0.2929,-0.2929 0.7677,-0.2929 1.0606,0c0.2928,0.2929 0.2928,0.7677 0,1.0605l-6,6c-2.7782,2.7779 -7.28251,2.7781 -10.06058,0c-2.77806,-2.778 -2.77785,-7.2823 0,-10.06051z" fill="#002B51"/>
</svg>
