<svg width="24" height="24" viewBox="0 0 24 24" fill="none" xmlns="http://www.w3.org/2000/svg">
<path fill-rule="evenodd" clip-rule="evenodd" d="M4.50558 20.564C4.74019 20.7697 5.07764 20.8086 5.35294 20.6618L20.3529 12.6618C20.5973 12.5314 20.75 12.277 20.75 12C20.75 11.723 20.5973 11.4686 20.3529 11.3382L5.35294 3.33825C5.07764 3.19142 4.74019 3.23037 4.50558 3.43606C4.27096 3.64175 4.1882 3.97121 4.29776 4.26335L7.199 12L4.29776 19.7367C4.1882 20.0288 4.27096 20.3583 4.50558 20.564ZM8.51975 11.25L6.39969 5.59651L18.4063 12L6.39969 18.4035L8.51975 12.75H13C13.4142 12.75 13.75 12.4142 13.75 12C13.75 11.5858 13.4142 11.25 13 11.25H8.51975Z" fill="#002B51"/>
</svg>
