<svg width="24" height="24" viewBox="0 0 24 24" fill="none" xmlns="http://www.w3.org/2000/svg">
<path d="M10.616,3.61664c2.145,-2.14501 5.6225,-2.145 7.7675,0c2.145,2.14501 2.145,5.62259 0,7.76756l-5.5,5.5c-1.3165,1.3162 -3.45105,1.3164 -4.76753,0c-1.31646,-1.3165 -1.31626,-3.451 0,-4.7676l5.50003,-5.49996c0.4881,-0.48816 1.2794,-0.48816 1.7675,0c0.4881,0.48816 0.4882,1.27945 0,1.76758l-5.49996,5.49998c-0.33993,0.3403 -0.34015,0.8923 0,1.2324c0.34016,0.3401 0.89216,0.34 1.23246,0l5.5,-5.49996c1.1686,-1.16867 1.1686,-3.06372 0,-4.23242c-1.1687,-1.16869 -3.0638,-1.1687 -4.2325,0l-5.49996,5.49998c-1.9968,1.9972 -1.99701,5.2354 0,7.2324c1.99703,1.997 5.23526,1.9968 7.23246,0l6,-6c0.4881,-0.4881 1.2794,-0.4881 1.7675,0c0.4881,0.4882 0.4882,1.2795 0,1.7676l-6,6c-2.9734,2.9731 -7.7942,2.9733 -10.76753,0c-2.97333,-2.9733 -2.97312,-7.7941 0,-10.76756z" fill="#002B51"/>
</svg>
