<svg width="24" height="24" viewBox="0 0 24 24" fill="none" xmlns="http://www.w3.org/2000/svg">
<path fill-rule="evenodd" clip-rule="evenodd" d="M2.25,12c0,-5.38478 4.36522,-9.75 9.75,-9.75c5.3848,0 9.75,4.36522 9.75,9.75c0,5.3848 -4.3652,9.75 -9.75,9.75c-5.38478,0 -9.75,-4.3652 -9.75,-9.75zM10.7461,15.0771l0.0039,-0.0771v-6c0,-0.41421 -0.3358,-0.75 -0.75,-0.75c-0.41421,0 -0.75,0.33579 -0.75,0.75v6l0.00391,0.0771c0.03862,0.378 0.35792,0.6729 0.74609,0.6729c0.3882,0 0.7075,-0.2949 0.7461,-0.6729zM14.75,9c0,-0.41421 -0.3358,-0.75 -0.75,-0.75c-0.4142,0 -0.75,0.33579 -0.75,0.75v6l0.0039,0.0771c0.0386,0.378 0.3579,0.6729 0.7461,0.6729c0.3882,0 0.7075,-0.2949 0.7461,-0.6729l0.0039,-0.0771z" fill="#002B51"/>
</svg>
