<svg width="24" height="24" viewBox="0 0 24 24" fill="none" xmlns="http://www.w3.org/2000/svg">
<path fill-rule="evenodd" clip-rule="evenodd" d="M20.25,12c0,-4.55635 -3.6937,-8.25 -8.25,-8.25c-4.55635,0 -8.25,3.69365 -8.25,8.25c0,4.5563 3.69365,8.25 8.25,8.25c4.5563,0 8.25,-3.6937 8.25,-8.25zM21.75,12c0,5.3848 -4.3652,9.75 -9.75,9.75c-5.38478,0 -9.75,-4.3652 -9.75,-9.75c0,-5.38478 4.36522,-9.75 9.75,-9.75c5.3848,0 9.75,4.36522 9.75,9.75zM10.75,15l-0.0039,0.0771c-0.0386,0.378 -0.3579,0.6729 -0.7461,0.6729c-0.38817,0 -0.70747,-0.2949 -0.74609,-0.6729l-0.00391,-0.0771v-6c0,-0.41421 0.33579,-0.75 0.75,-0.75c0.4142,0 0.75,0.33579 0.75,0.75zM14,15.75c-0.3882,0 -0.7075,-0.2949 -0.7461,-0.6729l-0.0039,-0.0771v-6c0,-0.41421 0.3358,-0.75 0.75,-0.75c0.4142,0 0.75,0.33579 0.75,0.75v6l-0.0039,0.0771c-0.0386,0.378 -0.3579,0.6729 -0.7461,0.6729z" fill="#002B51"/>
</svg>
