<svg width="24" height="24" viewBox="0 0 24 24" fill="none" xmlns="http://www.w3.org/2000/svg">
<path d="M14.7646,4.19562c1.0801,-0.88084 2.6729,-0.81817 3.6797,0.18848l1.1719,1.17187l0.1885,0.20899c0.8807,1.08007 0.8181,2.67294 -0.1885,3.67968l-11.08593,11.08596c-0.14063,0.1405 -0.33143,0.2197 -0.53027,0.2197h-4c-0.41411,0 -0.74984,-0.3359 -0.75,-0.75v-4c0,-0.1988 0.07917,-0.3896 0.21973,-0.5303l11.08597,-11.0859zM4.75,16.3109v2.9394h2.93945l8.75005,-8.75l-2.9395,-2.93945zM17.3838,5.44464c-0.4881,-0.48795 -1.2795,-0.48795 -1.7676,0l-1.0557,1.05567l2.9395,2.93945l1.0557,-1.05566c0.4574,-0.45757 0.4861,-1.18195 0.0859,-1.67286l-0.0859,-0.09472z" fill="#002B51"/>
</svg>
