<svg width="24" height="24" viewBox="0 0 24 24" fill="none" xmlns="http://www.w3.org/2000/svg">
<path fill-rule="evenodd" clip-rule="evenodd" d="M14.5607,6.5l2.9393,2.93934l1.0555,-1.05545c0.4881,-0.48816 0.4881,-1.27961 0,-1.76777l-1.1716,-1.17157c-0.4882,-0.48816 -1.2796,-0.48816 -1.7678,0zM12.9685,5.97082c0.0004,-0.00039 0.0008,-0.00077 0.0012,-0.00115c0.0004,-0.00038 0.0007,-0.00076 0.0011,-0.00114l1.5847,-1.58464c1.0739,-1.07395 2.8151,-1.07394 3.889,0l1.1716,1.17157c1.074,1.07394 1.074,2.81514 0,3.88909l-1.5858,1.58575l-9.49997,9.5c-0.14065,0.1407 -0.33142,0.2197 -0.53033,0.2197h-4c-0.41421,0 -0.75,-0.3358 -0.75,-0.75v-4c0,-0.1989 0.07902,-0.3897 0.21967,-0.5303zM13.5,7.56066l-8.75,8.75004v2.9393h2.93934l8.74996,-8.75z" fill="#002B51"/>
</svg>
