<svg width="24" height="24" viewBox="0 0 24 24" fill="none" xmlns="http://www.w3.org/2000/svg">
<path fill-rule="evenodd" clip-rule="evenodd" d="M17.3839 5.44455C16.8957 4.95639 16.1043 4.95639 15.6161 5.44455L14.5607 6.5L17.5 9.43934L18.5555 8.38389C19.0436 7.89573 19.0436 7.10428 18.5555 6.61612L17.3839 5.44455ZM12.9685 5.97082L3.46967 15.4697C3.32902 15.6103 3.25 15.8011 3.25 16V20C3.25 20.4142 3.58579 20.75 4 20.75H8C8.19891 20.75 8.38968 20.671 8.53033 20.5303L18.0303 11.0303L19.6161 9.44455C20.6901 8.3706 20.6901 6.6294 19.6161 5.55546L18.4445 4.38389C17.3706 3.30995 15.6294 3.30994 14.5555 4.38389L12.9708 5.96853C12.9704 5.96891 12.9701 5.96929 12.9697 5.96967C12.9693 5.97005 12.9689 5.97043 12.9685 5.97082Z" fill="#002B51"/>
</svg>
