<svg width="24" height="24" viewBox="0 0 24 24" fill="none" xmlns="http://www.w3.org/2000/svg">
<path fill-rule="evenodd" clip-rule="evenodd" d="M14.7646,4.19513c1.0801,-0.88084 2.6729,-0.81817 3.6797,0.18848l1.1719,1.17187l0.1885,0.20899c0.8808,1.08007 0.8182,2.67289 -0.1885,3.67968l-1.5859,1.58595l-9.50003,9.5c-0.14065,0.1406 -0.33136,0.2197 -0.53027,0.2197h-4c-0.41421,0 -0.75,-0.3358 -0.75,-0.75v-4c0,-0.1989 0.07907,-0.3896 0.21973,-0.5303l9.49867,-9.49868c0.0005,-0.00042 0.0009,-0.00085 0.0013,-0.00128c0.0005,-0.00042 0.0009,-0.00085 0.0013,-0.00127l1.5847,-1.58466zM18.5557,8.38361c0.4574,-0.45763 0.4862,-1.18194 0.0859,-1.67285l-0.0859,-0.09473l-1.1719,-1.17188c-0.4881,-0.48795 -1.2795,-0.48795 -1.7676,0l-1.0557,1.05567l2.9395,2.93945z" fill="#002B51"/>
</svg>
