<svg width="24" height="24" viewBox="0 0 24 24" fill="none" xmlns="http://www.w3.org/2000/svg">
<path d="M14.5557,4.38348c1.0738,-1.07353 2.8148,-1.07353 3.8886,0l1.1719,1.17188c1.0737,1.07385 1.0736,2.81475 0,3.88867l-11.08593,11.08597c-0.14065,0.1406 -0.33136,0.2197 -0.53027,0.2197h-4c-0.41421,0 -0.75,-0.3358 -0.75,-0.75v-4c0.00008,-0.1988 0.07915,-0.3897 0.21973,-0.5303zM4.75,19.2497h2.43945l-2.43945,-2.4395zM7.56055,17.4997l0.93945,0.9394l7.9395,-7.9394l-0.9395,-0.93946zM5.56055,15.4997l0.93945,0.9394l7.9395,-7.93941l-0.9395,-0.93945zM17.3838,5.44403c-0.4881,-0.48774 -1.2795,-0.48774 -1.7676,0l-1.0557,1.05566l2.9395,2.93946l1.0557,-1.05567c0.4878,-0.48813 0.4879,-1.27951 0,-1.76757z" fill="#002B51"/>
</svg>
