<svg width="24" height="24" viewBox="0 0 24 24" fill="none" xmlns="http://www.w3.org/2000/svg">
<path fill-rule="evenodd" clip-rule="evenodd" d="M7.64581,3.24994c1.12449,0 2.13569,0.68461 2.55329,1.72867l0.8646,2.16134c0.5012,1.25322 0.0189,2.68499 -1.13849,3.37945l-0.42724,0.2563c0.89603,1.5455 2.18073,2.8302 3.72613,3.7261l0.2563,-0.4272c0.6945,-1.1574 2.1262,-1.6397 3.3795,-1.1384l2.1613,0.8645c1.0441,0.4176 1.7287,1.4288 1.7287,2.5533v2.6459c0,0.7294 -0.2898,1.4289 -0.8055,1.9446c-0.5157,0.5157 -1.2152,0.8054 -1.9445,0.8054c-0.0152,0 -0.0304,-0.0004 -0.0455,-0.0013c-4.0836,-0.2482 -7.9352,-1.9823 -10.82802,-4.8752c-2.89286,-2.8928 -4.62696,-6.7444 -4.87512,-10.82797c-0.00092,-0.01514 -0.00138,-0.03032 -0.00138,-0.04549c0,-0.72935 0.28973,-1.42882 0.80545,-1.94454c0.51573,-0.51573 1.2152,-0.80546 1.94455,-0.80546z" fill="#002B51"/>
</svg>
