<svg width="24" height="24" viewBox="0 0 24 24" fill="none" xmlns="http://www.w3.org/2000/svg">
<path fill-rule="evenodd" clip-rule="evenodd" d="M4.99988 3.49994C4.33684 3.49994 3.70095 3.76333 3.23211 4.23217C2.76327 4.70101 2.49988 5.3369 2.49988 5.99994C2.49988 6.01006 2.50018 6.02017 2.5008 6.03027C2.74526 10.0529 4.45347 13.847 7.30315 16.6967C10.1528 19.5463 13.9469 21.2546 17.9695 21.499C17.9796 21.4996 17.9898 21.4999 17.9999 21.4999C18.6629 21.4999 19.2988 21.2365 19.7676 20.7677C20.2365 20.2989 20.4999 19.663 20.4999 18.9999V16.354C20.4999 15.3317 19.8775 14.4125 18.9284 14.0328L16.767 13.1683C15.6277 12.7126 14.3261 13.151 13.6948 14.2032L13.3132 14.8392C11.5623 13.8782 10.1216 12.4375 9.16064 10.6866L9.79659 10.305C10.8488 9.6737 11.2873 8.37209 10.8315 7.2328L9.967 5.07146C9.58735 4.12232 8.66807 3.49994 7.64581 3.49994H4.99988Z" fill="#002B51"/>
</svg>
