<svg width="24" height="24" viewBox="0 0 24 24" fill="none" xmlns="http://www.w3.org/2000/svg">
<path d="M17.0001,2.25c1.5187,0.00007 2.75,1.23126 2.75,2.75v14c0,1.5187 -1.2313,2.7499 -2.75,2.75h-9.99998c-1.51878,0 -2.75,-1.2312 -2.75,-2.75v-1.25h-1.25c-0.41421,0 -0.75,-0.3358 -0.75,-0.75c0,-0.4142 0.33579,-0.75 0.75,-0.75h1.25v-3.5h-1.25c-0.41421,0 -0.75,-0.3358 -0.75,-0.75c0,-0.4142 0.33579,-0.75 0.75,-0.75h1.25v-3.5h-1.25c-0.41421,0 -0.75,-0.33579 -0.75,-0.75c0,-0.41421 0.33579,-0.75 0.75,-0.75h1.25v-1.25c0,-1.51878 1.23122,-2.75 2.75,-2.75zM7.00012,3.75c-0.69035,0 -1.25,0.55964 -1.25,1.25v1.25h0.25c0.41422,0 0.75,0.33579 0.75,0.75c0,0.41421 -0.33578,0.75 -0.75,0.75h-0.25v3.5h0.25c0.41422,0 0.75,0.3358 0.75,0.75c0,0.4142 -0.33578,0.75 -0.75,0.75h-0.25v3.5h0.25c0.41422,0 0.75,0.3358 0.75,0.75c0,0.4142 -0.33578,0.75 -0.75,0.75h-0.25v1.25c0,0.6904 0.55965,1.25 1.25,1.25h9.99998c0.6903,-0.0001 1.25,-0.5597 1.25,-1.25v-14c0,-0.69032 -0.5597,-1.24993 -1.25,-1.25zM10.6857,8.66699c0.3407,0 0.6478,0.20717 0.7744,0.52344l0.3594,0.90137c0.1515,0.3796 0.0058,0.8131 -0.3448,1.0234l-0.4326,0.2598c0.4463,0.9047 1.1783,1.6378 2.083,2.084l0.2598,-0.4336c0.2104,-0.3507 0.6447,-0.4966 1.0244,-0.3447l0.9004,0.3603c0.3162,0.1266 0.5234,0.4328 0.5234,0.7735v1.1025c-0.0001,0.2209 -0.0879,0.4327 -0.2441,0.5889c-0.1563,0.1561 -0.3679,0.2441 -0.5889,0.2441c-1.6252,-0.0988 -3.1582,-0.7891 -4.3095,-1.9404c-1.15126,-1.1513 -1.84164,-2.6845 -1.94048,-4.3096c0.00009,-0.22082 0.08804,-0.43268 0.24414,-0.58887c0.15621,-0.1562 0.36797,-0.24405 0.58887,-0.24414z" fill="#002B51"/>
</svg>
