<svg width="24" height="24" viewBox="0 0 24 24" fill="none" xmlns="http://www.w3.org/2000/svg">
<path fill-rule="evenodd" clip-rule="evenodd" d="M4.25,5c0,-1.51878 1.23122,-2.75 2.75,-2.75h10c1.5188,0 2.75,1.23122 2.75,2.75v14c0,1.5188 -1.2312,2.75 -2.75,2.75h-10c-1.51878,0 -2.75,-1.2312 -2.75,-2.75v-1.25h-1.24988c-0.41421,0 -0.75,-0.3358 -0.75,-0.75c0,-0.4142 0.33579,-0.75 0.75,-0.75h1.24988v-3.5h-1.24988c-0.41421,0 -0.75,-0.3358 -0.75,-0.75c0,-0.4142 0.33579,-0.75 0.75,-0.75h1.24988v-3.5h-1.24988c-0.41421,0 -0.75,-0.33579 -0.75,-0.75c0,-0.41421 0.33579,-0.75 0.75,-0.75h1.24988zM7,20.25h10c0.6904,0 1.25,-0.5596 1.25,-1.25v-14c0,-0.69036 -0.5596,-1.25 -1.25,-1.25h-10c-0.69036,0 -1.25,0.55964 -1.25,1.25v1.25h0.25012c0.41422,0 0.75,0.33579 0.75,0.75c0,0.41421 -0.33578,0.75 -0.75,0.75h-0.25012v3.5h0.25012c0.41422,0 0.75,0.3358 0.75,0.75c0,0.4142 -0.33578,0.75 -0.75,0.75h-0.25012v3.5h0.25012c0.41422,0 0.75,0.3358 0.75,0.75c0,0.4142 -0.33578,0.75 -0.75,0.75h-0.25012v1.25c0,0.6904 0.55964,1.25 1.25,1.25zM11.4597,9.19055l0.3602,0.90055c0.1519,0.3798 0.0057,0.8136 -0.345,1.0241l-0.4331,0.2598c0.4462,0.9048 1.1785,1.6371 2.0833,2.0834l0.2599,-0.4331c0.2104,-0.3508 0.6443,-0.4969 1.0241,-0.345l0.9005,0.3602c0.3164,0.1266 0.5239,0.433 0.5239,0.7737v1.1025c0,0.221 -0.0878,0.433 -0.2441,0.5893c-0.1563,0.1562 -0.3683,0.244 -0.5893,0.244c-1.6253,-0.0987 -3.1582,-0.7889 -4.3096,-1.9403c-1.15142,-1.1514 -1.84161,-2.6844 -1.94038,-4.30966c0,-0.22101 0.0878,-0.43297 0.24408,-0.58926c0.15628,-0.15628 0.36824,-0.24407 0.58926,-0.24407h1.10244c0.3408,0 0.6472,0.20746 0.7738,0.52384z" fill="#002B51"/>
</svg>
