<svg width="24" height="24" viewBox="0 0 24 24" fill="none" xmlns="http://www.w3.org/2000/svg">
<path fill-rule="evenodd" clip-rule="evenodd" d="M4.25 5C4.25 3.48122 5.48122 2.25 7 2.25H17C18.5188 2.25 19.75 3.48122 19.75 5V19C19.75 20.5188 18.5188 21.75 17 21.75H7C5.48122 21.75 4.25 20.5188 4.25 19V17.75H3.00012C2.58591 17.75 2.25012 17.4142 2.25012 17C2.25012 16.5858 2.58591 16.25 3.00012 16.25H4.25V12.75H3.00012C2.58591 12.75 2.25012 12.4142 2.25012 12C2.25012 11.5858 2.58591 11.25 3.00012 11.25H4.25V7.75H3.00012C2.58591 7.75 2.25012 7.41421 2.25012 7C2.25012 6.58579 2.58591 6.25 3.00012 6.25H4.25V5ZM5.75 19V17.75H6.00012C6.41434 17.75 6.75012 17.4142 6.75012 17C6.75012 16.5858 6.41434 16.25 6.00012 16.25H5.75V12.75H6.00012C6.41434 12.75 6.75012 12.4142 6.75012 12C6.75012 11.5858 6.41434 11.25 6.00012 11.25H5.75V7.75H6.00012C6.41434 7.75 6.75012 7.41421 6.75012 7C6.75012 6.58579 6.41434 6.25 6.00012 6.25H5.75V5C5.75 4.30964 6.30964 3.75 7 3.75H17C17.6904 3.75 18.25 4.30964 18.25 5V19C18.25 19.6904 17.6904 20.25 17 20.25H7C6.30964 20.25 5.75 19.6904 5.75 19ZM10.6859 8.66671H9.58346C9.36244 8.66671 9.15048 8.7545 8.9942 8.91078C8.83792 9.06707 8.75012 9.27903 8.75012 9.50004C8.84889 11.1253 9.53908 12.6583 10.6905 13.8097C11.8419 14.9611 13.3748 15.6513 15.0001 15.75C15.2211 15.75 15.4331 15.6622 15.5894 15.506C15.7457 15.3497 15.8335 15.1377 15.8335 14.9167V13.8142C15.8335 13.4735 15.626 13.1671 15.3096 13.0405L14.4091 12.6803C14.0293 12.5284 13.5954 12.6745 13.385 13.0253L13.1251 13.4584C12.2203 13.0121 11.488 12.2798 11.0418 11.375L11.4749 11.1152C11.8256 10.9047 11.9718 10.4709 11.8199 10.0911L11.4597 9.19055C11.3331 8.87417 11.0267 8.66671 10.6859 8.66671Z" fill="#002B51"/>
</svg>
