<svg width="24" height="24" viewBox="0 0 24 24" fill="none" xmlns="http://www.w3.org/2000/svg">
<path fill-rule="evenodd" clip-rule="evenodd" d="M7.64581,3.49994c1.02226,0 1.94154,0.62238 2.32119,1.57152l0.8645,2.16134c0.4558,1.13929 0.0173,2.4409 -1.03491,3.0722l-0.63595,0.3816c0.96096,1.7509 2.40166,3.1916 4.15256,4.1526l0.3816,-0.636c0.6313,-1.0522 1.9329,-1.4906 3.0722,-1.0349l2.1614,0.8645c0.9491,0.3797 1.5715,1.2989 1.5715,2.3212v2.6459c0,0.6631 -0.2634,1.299 -0.7323,1.7678c-0.4688,0.4688 -1.1047,0.7322 -1.7677,0.7322c-0.0101,0 -0.0203,-0.0003 -0.0304,-0.0009c-4.0226,-0.2444 -7.8167,-1.9527 -10.66635,-4.8023c-2.84968,-2.8497 -4.55789,-6.6438 -4.80235,-10.66643c-0.00062,-0.0101 -0.00092,-0.02021 -0.00092,-0.03033c0,-0.66304 0.26339,-1.29893 0.73223,-1.76777c0.46884,-0.46884 1.10473,-0.73223 1.76777,-0.73223z" fill="#002B51"/>
</svg>
