<svg width="24" height="24" viewBox="0 0 24 24" fill="none" xmlns="http://www.w3.org/2000/svg">
<path d="M17.0001,2.25c1.5188,0.00007 2.75,1.23126 2.75,2.75v14c0,1.5187 -1.2313,2.7499 -2.75,2.75h-9.99998c-1.51878,0 -2.75,-1.2312 -2.75,-2.75v-1.25h-1.25c-0.41421,0 -0.75,-0.3358 -0.75,-0.75c0,-0.4142 0.33579,-0.75 0.75,-0.75h1.25v-3.5h-1.25c-0.41421,0 -0.75,-0.3358 -0.75,-0.75c0,-0.4142 0.33579,-0.75 0.75,-0.75h1.25v-3.5h-1.25c-0.41421,0 -0.75,-0.33579 -0.75,-0.75c0,-0.41421 0.33579,-0.75 0.75,-0.75h1.25v-1.25c0,-1.51878 1.23122,-2.75 2.75,-2.75zM9.58313,8.66699c-0.22086,0.00009 -0.43267,0.08798 -0.58887,0.24414c-0.15609,0.15619 -0.24405,0.36806 -0.24414,0.58887c0.09885,1.6251 0.78923,3.1583 1.94048,4.3096c1.1513,1.1512 2.6843,1.8416 4.3095,1.9404c0.2209,0 0.4327,-0.088 0.5889,-0.2441c0.1561,-0.1562 0.244,-0.3681 0.2441,-0.5889v-1.1025c0,-0.3406 -0.2073,-0.6469 -0.5234,-0.7735l-0.9004,-0.3603c-0.3797,-0.1519 -0.8139,-0.0059 -1.0244,0.3447l-0.2598,0.4336c-0.9047,-0.4462 -1.6367,-1.1793 -2.083,-2.084l0.4326,-0.2598c0.3505,-0.2103 0.4963,-0.6438 0.3448,-1.0234l-0.3594,-0.90137c-0.1266,-0.31622 -0.4338,-0.52339 -0.7744,-0.52344z" fill="#002B51"/>
</svg>
