<svg width="24" height="24" viewBox="0 0 24 24" fill="none" xmlns="http://www.w3.org/2000/svg">
<path d="M7.64539,3.24994c1.12443,0 2.13605,0.68454 2.55371,1.72851l0.8643,2.16114c0.5012,1.25311 0.0195,2.68537 -1.13774,3.37991l-0.42676,0.2549c0.8959,1.5455 2.1802,2.8294 3.7256,3.7255l0.2558,-0.4257l0.1387,-0.209c0.7341,-1.0047 2.0664,-1.3987 3.2412,-0.9287l2.1612,0.8642c1.0439,0.4177 1.7285,1.4293 1.7285,2.5537v2.6455c0,0.7294 -0.29,1.4287 -0.8057,1.9444c-0.5157,0.5157 -1.215,0.8056 -1.9443,0.8056l-0.0459,-0.0009c-4.0835,-0.2483 -7.9344,-1.9832 -10.82717,-4.876c-2.80242,-2.8024 -4.51756,-6.5041 -4.84766,-10.44533l-0.02832,-0.38183c-0.00092,-0.01515 -0.00097,-0.03073 -0.00097,-0.0459c0,-0.72935 0.28994,-1.42861 0.80566,-1.94434c0.51573,-0.51572 1.21499,-0.80566 1.94434,-0.80566z" fill="#002B51"/>
</svg>
