<svg width="24" height="24" viewBox="0 0 24 24" fill="none" xmlns="http://www.w3.org/2000/svg">
<path fill-rule="evenodd" clip-rule="evenodd" d="M4.25,5c0,-1.51878 1.23122,-2.75 2.75,-2.75h10c1.5188,0 2.75,1.23122 2.75,2.75v14c0,1.5188 -1.2312,2.75 -2.75,2.75h-10c-1.51878,0 -2.75,-1.2312 -2.75,-2.75v-1.25h-1.24988c-0.41421,0 -0.75,-0.3358 -0.75,-0.75c0,-0.4142 0.33579,-0.75 0.75,-0.75h1.24988v-3.5h-1.24988c-0.41421,0 -0.75,-0.3358 -0.75,-0.75c0,-0.4142 0.33579,-0.75 0.75,-0.75h1.24988v-3.5h-1.24988c-0.41421,0 -0.75,-0.33579 -0.75,-0.75c0,-0.41421 0.33579,-0.75 0.75,-0.75h1.24988zM8.99408,8.91078c-0.15628,0.15629 -0.24408,0.36825 -0.24408,0.58926c0.09877,1.62526 0.78896,3.15826 1.9403,4.30966c1.1514,1.1514 2.6844,1.8416 4.3097,1.9403c0.221,0 0.433,-0.0878 0.5893,-0.244c0.1562,-0.1563 0.244,-0.3683 0.244,-0.5893v-1.1025c0,-0.3407 -0.2074,-0.6471 -0.5238,-0.7737l-0.9006,-0.3602c-0.3797,-0.1519 -0.8136,-0.0058 -1.024,0.345l-0.2599,0.4331c-0.9048,-0.4463 -1.6371,-1.1786 -2.0833,-2.0834l0.4331,-0.2598c0.3507,-0.2105 0.4969,-0.6443 0.345,-1.0241l-0.3603,-0.90055c-0.1265,-0.31638 -0.4329,-0.52384 -0.7737,-0.52384h-1.10247c-0.22101,0 -0.43297,0.08779 -0.58925,0.24407z" fill="#002B51"/>
</svg>
