<svg width="24" height="24" viewBox="0 0 24 24" fill="none" xmlns="http://www.w3.org/2000/svg">
<path d="M19.2499,16.3544c0,-0.5111 -0.3116,-0.9713 -0.7862,-1.1611l-2.1611,-0.8643c-0.5338,-0.2135 -1.1389,-0.0345 -1.4726,0.4219l-0.0635,0.0957l-0.6231,1.0391c-0.2008,0.3347 -0.6255,0.4597 -0.9756,0.2871c-2.3194,-1.144 -4.19681,-3.0214 -5.34077,-5.3408c-0.17265,-0.3501 -0.0476,-0.7748 0.28711,-0.97562l1.03906,-0.62304c0.52606,-0.31564 0.74538,-0.96651 0.51758,-1.53614l-0.86426,-2.16113c-0.18983,-0.47457 -0.65,-0.78613 -1.16113,-0.78613h-2.64551c-0.33152,0 -0.64937,0.13179 -0.88379,0.36621c-0.22981,0.22981 -0.36115,0.5398 -0.36621,0.86426c0.23169,3.70825 1.80983,7.20439 4.4375,9.83199c2.62742,2.6275 6.12322,4.2046 9.83102,4.4366c0.3248,-0.0049 0.6352,-0.1352 0.8653,-0.3653c0.2344,-0.2344 0.3662,-0.5522 0.3662,-0.8838zM20.7499,18.9999c0,0.7294 -0.29,1.4287 -0.8057,1.9444c-0.5157,0.5157 -1.215,0.8056 -1.9443,0.8056l-0.0459,-0.0009c-4.0835,-0.2483 -7.9344,-1.9832 -10.82717,-4.876c-2.80242,-2.8024 -4.51756,-6.5041 -4.84766,-10.44533l-0.02832,-0.38183c-0.00092,-0.01515 -0.00097,-0.03073 -0.00097,-0.0459c0,-0.72935 0.28994,-1.42861 0.80566,-1.94434c0.51573,-0.51572 1.21499,-0.80566 1.94434,-0.80566h2.64551c1.12443,0 2.13605,0.68454 2.55371,1.72851l0.8643,2.16114c0.5012,1.25311 0.0195,2.68537 -1.13774,3.37991l-0.42676,0.2549c0.8959,1.5455 2.1802,2.8294 3.7256,3.7255l0.2558,-0.4257l0.1387,-0.209c0.7341,-1.0047 2.0664,-1.3987 3.2412,-0.9287l2.1612,0.8642c1.0439,0.4177 1.7285,1.4293 1.7285,2.5537z" fill="#002B51"/>
</svg>
