<svg width="24" height="24" viewBox="0 0 24 24" fill="none" xmlns="http://www.w3.org/2000/svg">
<path fill-rule="evenodd" clip-rule="evenodd" d="M16.8612,3.72461c1.4389,0.96144 2.5604,2.32798 3.2227,3.92681c0.6623,1.59882 0.8356,3.35818 0.498,5.05548c-0.3376,1.6973 -1.1709,3.2564 -2.3946,4.4801v0l-4.243,4.243l-0.0002,0.0003c-0.5157,0.5151 -1.2147,0.8045 -1.9436,0.8045c-0.7289,0 -1.4279,-0.2894 -1.9436,-0.8045l-0.0002,-0.0002l-4.24396,-4.243l-0.00008,-0.0001c-1.22366,-1.2237 -2.05698,-2.7828 -2.39456,-4.4801c-0.33758,-1.6973 -0.16428,-3.45666 0.498,-5.05548c0.66228,-1.59883 1.78379,-2.96537 3.22271,-3.92681c1.43892,-0.96144 3.13059,-1.47461 4.86119,-1.47461c1.7306,0 3.4223,0.51317 4.8612,1.47461zM9,11c0,0.7956 0.31607,1.5587 0.87868,2.1213c0.56262,0.5626 1.32572,0.8787 2.12132,0.8787c0.7956,0 1.5587,-0.3161 2.1213,-0.8787c0.5626,-0.5626 0.8787,-1.3257 0.8787,-2.1213c0,-0.7956 -0.3161,-1.55871 -0.8787,-2.12132c-0.5626,-0.56261 -1.3257,-0.87868 -2.1213,-0.87868c-0.7956,0 -1.5587,0.31607 -2.12132,0.87868c-0.56261,0.56261 -0.87868,1.32572 -0.87868,2.12132z" fill="#002B51"/>
</svg>
