<svg width="24" height="24" viewBox="0 0 24 24" fill="none" xmlns="http://www.w3.org/2000/svg">
<path d="M17.708,13.6113c0.203,0.0702 0.3995,0.1431 0.5879,0.2207c0.8226,0.3388 1.5384,0.7613 2.0596,1.2686c0.5232,0.5096 0.8944,1.152 0.8945,1.8994c-0.0001,0.7474 -0.3713,1.3898 -0.8945,1.8994c-0.5212,0.5073 -1.237,0.9298 -2.0596,1.2686c-1.6491,0.679 -3.8754,1.082 -6.2959,1.082c-2.42045,0 -4.64682,-0.403 -6.2959,-1.082c-0.82261,-0.3388 -1.5384,-0.7613 -2.05957,-1.2686c-0.52327,-0.5096 -0.89442,-1.152 -0.89453,-1.8994c0.00011,-0.7474 0.37126,-1.3898 0.89453,-1.8994c0.52117,-0.5073 1.23696,-0.9298 2.05957,-1.2686c0.18818,-0.0775 0.38428,-0.1506 0.58692,-0.2207c0.04458,0.0659 0.08681,0.1322 0.13086,0.1953c0.26386,0.3782 0.53942,0.7384 0.81347,1.0762c-0.34335,0.1024 -0.6646,0.2143 -0.95996,0.336c-0.71507,0.2944 -1.24496,0.6261 -1.58398,0.956c-0.33636,0.3275 -0.44131,0.6066 -0.44141,0.8252c0.00011,0.2186 0.10506,0.4977 0.44141,0.8252c0.33902,0.3299 0.86892,0.6616 1.58398,0.956c1.42729,0.5877 3.45085,0.9688 5.72461,0.9688c2.2738,0 4.2973,-0.3811 5.7246,-0.9688c0.7151,-0.2944 1.245,-0.6261 1.584,-0.956c0.3363,-0.3275 0.4413,-0.6066 0.4414,-0.8252c-0.0001,-0.2186 -0.1051,-0.4977 -0.4414,-0.8252c-0.339,-0.3299 -0.8689,-0.6616 -1.584,-0.956c-0.2953,-0.1217 -0.6166,-0.2336 -0.96,-0.336c0.2741,-0.3377 0.5487,-0.698 0.8125,-1.0762c0.0441,-0.0631 0.0863,-0.1294 0.1309,-0.1953zM12,2.75c2.4791,0.00018 5.4158,2.01691 5.416,5.33789c0,1.59546 -0.8021,3.16821 -1.6836,4.43161c-0.6714,0.9624 -1.4324,1.8061 -2.0459,2.4278l-0.5556,0.5429c-0.6397,0.6034 -1.6232,0.6035 -2.2627,0c-0.6527,-0.6159 -1.70579,-1.6882 -2.60062,-2.9707c-0.88144,-1.2634 -1.68457,-2.83621 -1.68457,-4.43161c0.0002,-3.32098 2.93793,-5.33771 5.41699,-5.33789zM12,4.25c-1.8283,0.00018 -3.91679,1.5125 -3.91699,3.83789c0,1.12954 0.58858,2.38861 1.41504,3.57321c0.81265,1.1647 1.78415,2.1578 2.39945,2.7383c0.0345,0.0326 0.0712,0.0439 0.1025,0.044c0.0312,-0.0001 0.0671,-0.0115 0.1016,-0.044l0.5205,-0.5088c0.5709,-0.5788 1.2703,-1.3558 1.8799,-2.2295c0.8265,-1.1846 1.414,-2.44363 1.414,-3.57321c-0.0002,-2.32539 -2.0877,-3.83771 -3.916,-3.83789zM12,5.58301c1.3344,0.00017 2.4158,1.08256 2.416,2.41699c-0.0002,1.33443 -1.0816,2.4158 -2.416,2.416c-1.3344,-0.0002 -2.41682,-1.08157 -2.41699,-2.416c0.00017,-1.33443 1.08259,-2.41682 2.41699,-2.41699zM12,7.08301c-0.506,0.00017 -0.9168,0.41099 -0.917,0.91699c0.0002,0.506 0.411,0.91584 0.917,0.91602c0.506,-0.00018 0.9158,-0.41002 0.916,-0.91602c-0.0002,-0.506 -0.41,-0.91682 -0.916,-0.91699z" fill="#002B51"/>
</svg>
