<svg width="24" height="24" viewBox="0 0 24 24" fill="none" xmlns="http://www.w3.org/2000/svg">
<path fill-rule="evenodd" clip-rule="evenodd" d="M5.75 9.88235C5.75 6.14486 9.0946 3.75 12 3.75C14.9054 3.75 18.25 6.14486 18.25 9.88235C18.25 11.7997 17.2012 13.8872 15.8459 15.7577C14.5072 17.6055 12.9532 19.1284 12.1146 19.8974C12.0772 19.9317 12.0368 19.9445 12 19.9445C11.9632 19.9445 11.9228 19.9317 11.8854 19.8974C11.0468 19.1284 9.49284 17.6055 8.15407 15.7577C6.7988 13.8872 5.75 11.7997 5.75 9.88235ZM12 2.25C8.44387 2.25 4.25 5.14926 4.25 9.88235C4.25 12.2869 5.53374 14.6977 6.93938 16.6378C8.3615 18.6007 9.99678 20.2007 10.8716 21.0029C11.5137 21.5917 12.4863 21.5917 13.1284 21.0029C14.0032 20.2007 15.6385 18.6007 17.0606 16.6378C18.4663 14.6977 19.75 12.2869 19.75 9.88235C19.75 5.14926 15.5561 2.25 12 2.25ZM10.25 9.75C10.25 8.7835 11.0335 8 12 8C12.9665 8 13.75 8.7835 13.75 9.75C13.75 10.7165 12.9665 11.5 12 11.5C11.0335 11.5 10.25 10.7165 10.25 9.75ZM12 6.5C10.2051 6.5 8.75 7.95507 8.75 9.75C8.75 11.5449 10.2051 13 12 13C13.7949 13 15.25 11.5449 15.25 9.75C15.25 7.95507 13.7949 6.5 12 6.5Z" fill="#002B51"/>
</svg>
