<svg width="24" height="24" viewBox="0 0 24 24" fill="none" xmlns="http://www.w3.org/2000/svg">
<path fill-rule="evenodd" clip-rule="evenodd" d="M19.75,9.88235c0,2.40455 -1.2837,4.81535 -2.6894,6.75545c-1.4221,1.9629 -3.0574,3.5629 -3.9322,4.3651c-0.6421,0.5888 -1.6147,0.5888 -2.2568,0c-0.87482,-0.8022 -2.5101,-2.4022 -3.93222,-4.3651c-1.40564,-1.9401 -2.68938,-4.3509 -2.68938,-6.75545c0,-4.73309 4.19387,-7.63235 7.75,-7.63235c3.5561,0 7.75,2.89926 7.75,7.63235zM12,7.25c-1.3807,0 -2.5,1.11929 -2.5,2.5c0,1.3807 1.1193,2.5 2.5,2.5c1.3807,0 2.5,-1.1193 2.5,-2.5c0,-1.38071 -1.1193,-2.5 -2.5,-2.5z" fill="#002B51"/>
</svg>
