<svg width="24" height="24" viewBox="0 0 24 24" fill="none" xmlns="http://www.w3.org/2000/svg">
<path fill-rule="evenodd" clip-rule="evenodd" d="M7.97216 4.97182C9.16441 4.1752 10.5661 3.75 12 3.75C13.4339 3.75 14.8356 4.1752 16.0278 4.97182C17.2201 5.76844 18.1493 6.90072 18.6981 8.22546C19.2468 9.5502 19.3904 11.0079 19.1107 12.4143C18.831 13.8206 18.1406 15.1124 17.1267 16.1264L12.8839 20.3691C12.6496 20.6033 12.3318 20.7348 12.0005 20.7348C11.6692 20.7348 11.3515 20.6033 11.1171 20.3691L6.87335 16.1264L6.87327 16.1263C5.85942 15.1124 5.16899 13.8206 4.88928 12.4143C4.60957 11.0079 4.75317 9.5502 5.30191 8.22546C5.85066 6.90072 6.77991 5.76844 7.97216 4.97182ZM12 2.25C10.2694 2.25 8.57773 2.76317 7.13881 3.72461C5.69989 4.68605 4.57838 6.05259 3.9161 7.65142C3.25382 9.25024 3.08052 11.0096 3.4181 12.7069C3.75568 14.4042 4.589 15.9633 5.81266 17.187L5.81274 17.1871L10.0567 21.4301L10.0569 21.4303C10.5726 21.9454 11.2716 22.2348 12.0005 22.2348C12.7294 22.2348 13.4284 21.9454 13.9441 21.4303L13.9443 21.43L18.1873 17.187L18.1873 17.187C19.411 15.9633 20.2443 14.4042 20.5819 12.7069C20.9195 11.0096 20.7462 9.25024 20.0839 7.65142C19.4216 6.05259 18.3001 4.68605 16.8612 3.72461C15.4223 2.76317 13.7306 2.25 12 2.25ZM12 7.25C11.0054 7.25 10.0516 7.64509 9.34835 8.34835C8.64509 9.05161 8.25 10.0054 8.25 11C8.25 11.9946 8.64509 12.9484 9.34835 13.6517C10.0516 14.3549 11.0054 14.75 12 14.75C12.9946 14.75 13.9484 14.3549 14.6517 13.6517C15.3549 12.9484 15.75 11.9946 15.75 11C15.75 10.0054 15.3549 9.05161 14.6517 8.34835C13.9484 7.64509 12.9946 7.25 12 7.25ZM10.409 9.40901C10.831 8.98705 11.4033 8.75 12 8.75C12.5967 8.75 13.169 8.98705 13.591 9.40901C14.0129 9.83097 14.25 10.4033 14.25 11C14.25 11.5967 14.0129 12.169 13.591 12.591C13.169 13.0129 12.5967 13.25 12 13.25C11.4033 13.25 10.831 13.0129 10.409 12.591C9.98705 12.169 9.75 11.5967 9.75 11C9.75 10.4033 9.98705 9.83097 10.409 9.40901Z" fill="#002B51"/>
</svg>
