<svg width="24" height="24" viewBox="0 0 24 24" fill="none" xmlns="http://www.w3.org/2000/svg">
<path fill-rule="evenodd" clip-rule="evenodd" d="M5.30191,8.22546c-0.54874,1.32474 -0.69234,2.78244 -0.41263,4.18884c0.27971,1.4063 0.97014,2.6981 1.98399,3.712l0.00008,0.0001l4.24375,4.2427c0.2344,0.2342 0.5521,0.3657 0.8834,0.3657c0.3313,0 0.6491,-0.1315 0.8834,-0.3657l4.2428,-4.2427c1.0139,-1.014 1.7043,-2.3058 1.984,-3.7121c0.2797,-1.4064 0.1361,-2.8641 -0.4126,-4.18884c-0.5488,-1.32474 -1.478,-2.45702 -2.6703,-3.25364c-1.1922,-0.79662 -2.5939,-1.22182 -4.0278,-1.22182c-1.4339,0 -2.83559,0.4252 -4.02784,1.22182c-1.19225,0.79662 -2.1215,1.9289 -2.67025,3.25364zM16.8612,3.72461c1.4389,0.96144 2.5604,2.32798 3.2227,3.92681c0.6623,1.59882 0.8356,3.35818 0.498,5.05548c-0.3376,1.6973 -1.1709,3.2564 -2.3946,4.4801v0l-4.243,4.243l-0.0002,0.0003c-0.5157,0.5151 -1.2147,0.8045 -1.9436,0.8045c-0.7289,0 -1.4279,-0.2894 -1.9436,-0.8045l-0.0002,-0.0002l-4.24396,-4.243l-0.00008,-0.0001c-1.22366,-1.2237 -2.05698,-2.7828 -2.39456,-4.4801c-0.33758,-1.6973 -0.16428,-3.45666 0.498,-5.05548c0.66228,-1.59883 1.78379,-2.96537 3.22271,-3.92681c1.43892,-0.96144 3.13059,-1.47461 4.86119,-1.47461c1.7306,0 3.4223,0.51317 4.8612,1.47461zM14.6517,8.34835c0.7032,0.70326 1.0983,1.65705 1.0983,2.65165c0,0.9946 -0.3951,1.9484 -1.0983,2.6517c-0.7033,0.7032 -1.6571,1.0983 -2.6517,1.0983c-0.9946,0 -1.9484,-0.3951 -2.65165,-1.0983c-0.70326,-0.7033 -1.09835,-1.6571 -1.09835,-2.6517c0,-0.9946 0.39509,-1.94839 1.09835,-2.65165c0.70325,-0.70326 1.65705,-1.09835 2.65165,-1.09835c0.9946,0 1.9484,0.39509 2.6517,1.09835zM9.75,11c0,0.5967 0.23705,1.169 0.659,1.591c0.422,0.4219 0.9943,0.659 1.591,0.659c0.5967,0 1.169,-0.2371 1.591,-0.659c0.4219,-0.422 0.659,-0.9943 0.659,-1.591c0,-0.5967 -0.2371,-1.16903 -0.659,-1.59099c-0.422,-0.42196 -0.9943,-0.65901 -1.591,-0.65901c-0.5967,0 -1.169,0.23705 -1.591,0.65901c-0.42195,0.42196 -0.659,0.99429 -0.659,1.59099z" fill="#002B51"/>
</svg>
