<svg width="24" height="24" viewBox="0 0 24 24" fill="none" xmlns="http://www.w3.org/2000/svg">
<path d="M18.5742,13.9521c0.7057,0.317 1.3198,0.6992 1.7813,1.1485c0.5234,0.5096 0.8945,1.1518 0.8945,1.8994c0,0.7476 -0.3711,1.3897 -0.8945,1.8994c-0.5212,0.5074 -1.2369,0.9298 -2.0596,1.2686c-1.6491,0.679 -3.8754,1.082 -6.2959,1.082c-2.42051,0 -4.64681,-0.403 -6.2959,-1.082c-0.82272,-0.3388 -1.53837,-0.7612 -2.05957,-1.2686c-0.5234,-0.5097 -0.89453,-1.1518 -0.89453,-1.8994c0.00004,-0.7476 0.37113,-1.3898 0.89453,-1.8994c0.46131,-0.4491 1.07491,-0.8316 1.78027,-1.1485c0.21064,0.2706 0.4384,0.5292 0.68262,0.7735h0.00098l0.40137,0.4014c-0.07971,0.0302 -0.15803,0.0603 -0.23438,0.0918c-0.7152,0.2944 -1.24495,0.6261 -1.58398,0.956c-0.33659,0.3277 -0.44137,0.6065 -0.44141,0.8252c0,0.2187 0.10481,0.4975 0.44141,0.8252c0.33902,0.33 0.86877,0.6615 1.58398,0.956c1.42729,0.5877 3.45079,0.9688 5.72461,0.9688c2.2738,0 4.2973,-0.3811 5.7246,-0.9688c0.7152,-0.2945 1.245,-0.626 1.584,-0.956c0.3366,-0.3277 0.4414,-0.6065 0.4414,-0.8252c0,-0.2187 -0.1048,-0.4975 -0.4414,-0.8252c-0.339,-0.3299 -0.8688,-0.6616 -1.584,-0.956c-0.0763,-0.0315 -0.1547,-0.0616 -0.2344,-0.0918l0.4024,-0.4014l0.2148,-0.2217c0.1644,-0.177 0.3191,-0.362 0.4668,-0.5518zM12,2.75c1.203,0.00006 2.3796,0.35702 3.3799,1.02539c1.0001,0.66833 1.7798,1.61822 2.2402,2.72949c0.4604,1.11137 0.5812,2.33481 0.3467,3.51462c-0.22,1.1063 -0.7433,2.1287 -1.5088,2.9532l-0.1562,0.1621l-2.8282,2.8291h-0.0009c-0.3905,0.3899 -0.9199,0.6092 -1.4717,0.6093c-0.4833,0 -0.9497,-0.1681 -1.3203,-0.4716l-0.1524,-0.1377l-2.83006,-2.8291c-0.8506,-0.8508 -1.42937,-1.9353 -1.66406,-3.1153c-0.23459,-1.17989 -0.11469,-2.40318 0.3457,-3.51462c0.46046,-1.1114 1.24093,-2.06113 2.24121,-2.72949c1.00021,-0.66818 2.17601,-1.02533 3.37891,-1.02539zM12,4.25c-0.9063,0.00006 -1.7923,0.26903 -2.5459,0.77246c-0.75366,0.50357 -1.34156,1.21925 -1.68848,2.05664c-0.3469,0.83748 -0.43757,1.75937 -0.26074,2.64844c0.17685,0.88906 0.61396,1.70576 1.25489,2.34666h-0.00098l2.83011,2.8281l0.0879,0.0733c0.095,0.0633 0.2082,0.0976 0.3242,0.0976c0.1544,-0.0001 0.3029,-0.0617 0.4121,-0.1709l2.8281,-2.8281l0.2305,-0.248c0.5154,-0.598 0.8696,-1.3206 1.0244,-2.09866c0.1768,-0.88901 0.0851,-1.81101 -0.2617,-2.64844c-0.3469,-0.8372 -0.9341,-1.5531 -1.6875,-2.05664c-0.7537,-0.50355 -1.6405,-0.7724 -2.5469,-0.77246zM12,6.08301c0.7293,0 1.4286,0.29004 1.9443,0.80566c0.5157,0.51565 0.8056,1.21511 0.8057,1.94434c0,0.72927 -0.29,1.42859 -0.8057,1.94429c-0.5157,0.5158 -1.215,0.8057 -1.9443,0.8057c-0.7293,0 -1.4286,-0.2899 -1.9443,-0.8057c-0.51566,-0.5157 -0.8057,-1.21502 -0.8057,-1.94429c0.00009,-0.72923 0.29002,-1.42869 0.8057,-1.94434c0.5157,-0.51562 1.215,-0.80566 1.9443,-0.80566zM12,7.58301c-0.3314,0 -0.6494,0.13189 -0.8838,0.36621c-0.2343,0.23434 -0.3661,0.55238 -0.3662,0.88379c0,0.33144 0.1319,0.64938 0.3662,0.88379c0.2344,0.23442 0.5523,0.3662 0.8838,0.3662c0.3315,0 0.6494,-0.13178 0.8838,-0.3662c0.2343,-0.23441 0.3662,-0.55235 0.3662,-0.88379c-0.0001,-0.33141 -0.1319,-0.64945 -0.3662,-0.88379c-0.2344,-0.23432 -0.5524,-0.36621 -0.8838,-0.36621z" fill="#002B51"/>
</svg>
