<svg width="24" height="24" viewBox="0 0 24 24" fill="none" xmlns="http://www.w3.org/2000/svg">
<path fill-rule="evenodd" clip-rule="evenodd" d="M13.4902,20.666l-0.3623,0.3369c-0.6019,0.5517 -1.4936,0.5863 -2.1318,0.1035l-0.124,-0.1035c-0.87485,-0.8022 -2.51052,-2.4024 -3.93265,-4.3652c-1.40553,-1.94 -2.68929,-4.3505 -2.68945,-6.75489c0,-4.73309 4.19387,-7.63281 7.75,-7.63281c3.5561,0 7.75,2.89972 7.75,7.63281c-0.0002,2.40439 -1.2839,4.81489 -2.6895,6.75489c-1.2444,1.7176 -2.6518,3.1578 -3.5703,4.0283zM12,7.25c-1.3807,0 -2.5,1.11929 -2.5,2.5c0,1.3807 1.1193,2.5 2.5,2.5c1.3807,0 2.5,-1.1193 2.5,-2.5c0,-1.38071 -1.1193,-2.5 -2.5,-2.5z" fill="#002B51"/>
</svg>
