<svg width="24" height="24" viewBox="0 0 24 24" fill="none" xmlns="http://www.w3.org/2000/svg">
<path fill-rule="evenodd" clip-rule="evenodd" d="M20.0841,7.65137c0.6623,1.59882 0.8356,3.35833 0.498,5.05563c-0.3165,1.5913 -1.0687,3.0613 -2.1699,4.2471l-0.2246,0.2334l-4.2431,4.2422v0.001c-0.5156,0.515 -1.2147,0.8035 -1.9434,0.8037c-0.7289,0 -1.4287,-0.2886 -1.9443,-0.8037v-0.001l-4.24418,-4.2422c-1.22363,-1.2237 -2.05693,-2.7832 -2.39453,-4.4805c-0.33759,-1.6973 -0.16424,-3.45681 0.49804,-5.05563c0.66227,-1.59879 1.78379,-2.96532 3.22266,-3.92676c1.43892,-0.96144 3.13081,-1.47461 4.86131,-1.47461c1.7306,0 3.4224,0.51317 4.8613,1.47461c1.4389,0.96144 2.5604,2.32797 3.2227,3.92676zM9.00012,11c0,0.7956 0.31607,1.5587 0.87868,2.1213c0.5626,0.5626 1.3257,0.8787 2.1213,0.8787c0.7957,0 1.5587,-0.3161 2.1213,-0.8787c0.5626,-0.5626 0.8787,-1.3257 0.8787,-2.1213c0,-0.7956 -0.3161,-1.55871 -0.8787,-2.12132c-0.5626,-0.56261 -1.3256,-0.87868 -2.1213,-0.87868c-0.7956,0 -1.5587,0.31607 -2.1213,0.87868c-0.56261,0.56261 -0.87868,1.32572 -0.87868,2.12132z" fill="#002B51"/>
</svg>
