<svg width="24" height="24" viewBox="0 0 24 24" fill="none" xmlns="http://www.w3.org/2000/svg">
<path fill-rule="evenodd" clip-rule="evenodd" d="M12 2.25C8.44387 2.25 4.25 5.14926 4.25 9.88235C4.25 12.2869 5.53374 14.6977 6.93938 16.6378C8.3615 18.6007 9.99678 20.2007 10.8716 21.0029C11.5137 21.5917 12.4863 21.5917 13.1284 21.0029C14.0032 20.2007 15.6385 18.6007 17.0606 16.6378C18.4663 14.6977 19.75 12.2869 19.75 9.88235C19.75 5.14926 15.5561 2.25 12 2.25ZM14.5 9.75C14.5 11.1307 13.3807 12.25 12 12.25C10.6193 12.25 9.5 11.1307 9.5 9.75C9.5 8.36929 10.6193 7.25 12 7.25C13.3807 7.25 14.5 8.36929 14.5 9.75Z" fill="#002B51"/>
</svg>
