<svg width="24" height="24" viewBox="0 0 24 24" fill="none" xmlns="http://www.w3.org/2000/svg">
<path d="M12,2.25c1.7306,0 3.4224,0.51317 4.8613,1.47461c1.4389,0.96144 2.5604,2.32797 3.2227,3.92676c0.6623,1.59882 0.8356,3.35833 0.498,5.05563c-0.3376,1.6973 -1.1709,3.2568 -2.3945,4.4805l-4.2432,4.2422v0.001c-0.5155,0.515 -1.2147,0.8035 -1.9433,0.8037c-0.7289,0 -1.4287,-0.2886 -1.9444,-0.8037v-0.001l-4.2441,-4.2422c-1.22363,-1.2237 -2.05693,-2.7832 -2.39453,-4.4805c-0.33759,-1.6973 -0.16423,-3.45681 0.49805,-5.05563c0.66226,-1.59879 1.78378,-2.96532 3.22265,-3.92676c1.43892,-0.96144 3.13073,-1.47461 4.86133,-1.47461zM12,3.75c-1.4339,0 -2.83607,0.42506 -4.02832,1.22168c-1.19212,0.79661 -2.12122,1.92926 -2.66992,3.25391c-0.54868,1.32465 -0.69178,2.78221 -0.41211,4.18851c0.27968,1.4061 0.9697,2.698 1.9834,3.7119l4.24415,4.2431l0.0918,0.083c0.2223,0.182 0.5022,0.2823 0.792,0.2823c0.3311,-0.0002 0.6485,-0.1313 0.8828,-0.3653l4.2432,-4.2431c1.0137,-1.0139 1.7037,-2.3057 1.9834,-3.7119c0.2796,-1.4063 0.1365,-2.86385 -0.4122,-4.18851c-0.5487,-1.32465 -1.4778,-2.4573 -2.6699,-3.25391c-1.1922,-0.79662 -2.5944,-1.22168 -4.0283,-1.22168zM12,7.25c0.9946,0 1.9481,0.39537 2.6514,1.09863c0.7032,0.70326 1.0986,1.65677 1.0986,2.65137c0,0.9946 -0.3954,1.9481 -1.0986,2.6514c-0.7033,0.7032 -1.6568,1.0986 -2.6514,1.0986c-0.9946,0 -1.9481,-0.3954 -2.65137,-1.0986c-0.70326,-0.7033 -1.09863,-1.6568 -1.09863,-2.6514c0,-0.9946 0.39537,-1.94811 1.09863,-2.65137c0.70327,-0.70326 1.65677,-1.09863 2.65137,-1.09863zM12,8.75c-0.5967,0 -1.1689,0.23722 -1.5908,0.65918c-0.42198,0.42196 -0.6592,0.99412 -0.6592,1.59082c0,0.5967 0.23722,1.1689 0.6592,1.5908c0.4219,0.422 0.9941,0.6592 1.5908,0.6592c0.5967,0 1.1689,-0.2372 1.5908,-0.6592c0.422,-0.4219 0.6592,-0.9941 0.6592,-1.5908c0,-0.5967 -0.2372,-1.16886 -0.6592,-1.59082c-0.4219,-0.42196 -0.9941,-0.65918 -1.5908,-0.65918z" fill="#002B51"/>
</svg>
