<svg width="24" height="24" viewBox="0 0 24 24" fill="none" xmlns="http://www.w3.org/2000/svg">
<path fill-rule="evenodd" clip-rule="evenodd" d="M12,4.25c-0.9065,0 -1.7926,0.2688 -2.54634,0.77241c-0.75372,0.50362 -1.34117,1.21942 -1.68808,2.0569c-0.34691,0.83748 -0.43769,1.75903 -0.26086,2.6481c0.17682,0.88899 0.61329,1.70569 1.25422,2.34669l0.00007,0.0001l2.82909,2.8283c0.1093,0.1093 0.2576,0.1707 0.4122,0.1707c0.1546,0 0.3029,-0.0614 0.4123,-0.1707l2.8284,-2.8283v-0.0001c0.641,-0.641 1.0775,-1.4576 1.2543,-2.34669c0.1768,-0.88907 0.086,-1.81062 -0.2609,-2.6481c-0.3469,-0.83748 -0.9343,-1.55328 -1.6881,-2.0569c-0.7537,-0.50361 -1.6398,-0.77241 -2.5463,-0.77241zM8.62032,3.7752c1.00039,-0.66843 2.17648,-1.0252 3.37968,-1.0252c1.2032,0 2.3793,0.35677 3.3797,1.0252c1.0004,0.66844 1.7801,1.6185 2.2405,2.73007c0.4605,1.11157 0.581,2.33471 0.3463,3.51473c-0.2347,1.1801 -0.8141,2.264 -1.6648,3.1148v0l-2.8287,2.8287l-0.0003,0.0002c-0.3906,0.3903 -0.9202,0.6095 -1.4724,0.6095c-0.5521,0 -1.0817,-0.2192 -1.4724,-0.6095l-0.0002,-0.0002l-2.8293,-2.8286l-0.00007,-0.0001c-0.85074,-0.8508 -1.43009,-1.9347 -1.66479,-3.1148c-0.23471,-1.18003 -0.11422,-2.40316 0.34623,-3.51473c0.46044,-1.11157 1.24015,-2.06163 2.24055,-2.73007zM10.0555,6.88879c0.5157,-0.51573 1.2152,-0.80546 1.9445,-0.80546c0.7293,0 1.4288,0.28973 1.9445,0.80546c0.5158,0.51572 0.8055,1.2152 0.8055,1.94454c0,0.72935 -0.2897,1.42887 -0.8055,1.94457c-0.5157,0.5157 -1.2152,0.8054 -1.9445,0.8054c-0.7293,0 -1.4288,-0.2897 -1.9445,-0.8054c-0.51577,-0.5157 -0.8055,-1.21522 -0.8055,-1.94457c0,-0.72934 0.28973,-1.42882 0.8055,-1.94454zM12,7.58333c-0.3315,0 -0.6495,0.1317 -0.8839,0.36612c-0.2344,0.23442 -0.3661,0.55236 -0.3661,0.88388c0,0.33152 0.1317,0.64947 0.3661,0.88389c0.2344,0.23442 0.5524,0.36608 0.8839,0.36608c0.3315,0 0.6495,-0.13166 0.8839,-0.36608c0.2344,-0.23442 0.3661,-0.55237 0.3661,-0.88389c0,-0.33152 -0.1317,-0.64946 -0.3661,-0.88388c-0.2344,-0.23442 -0.5524,-0.36612 -0.8839,-0.36612zM3.6448,15.1004c0.46119,-0.449 1.07425,-0.8314 1.7793,-1.1483c0.21077,0.2708 0.43881,0.5292 0.68319,0.7736l0.00031,0.0003l0.40066,0.4006c-0.07936,0.0301 -0.15708,0.0608 -0.23311,0.0921c-0.71541,0.2946 -1.24499,0.6264 -1.58401,0.9564c-0.33665,0.3278 -0.44114,0.6063 -0.44114,0.825c0,0.2187 0.10449,0.4972 0.44114,0.825c0.33902,0.33 0.8686,0.6618 1.58401,0.9564c1.42731,0.5877 3.45094,0.9686 5.72485,0.9686c2.2739,0 4.2975,-0.3809 5.7248,-0.9686c0.7155,-0.2946 1.245,-0.6264 1.5841,-0.9564c0.3366,-0.3278 0.4411,-0.6063 0.4411,-0.825c0,-0.2187 -0.1045,-0.4972 -0.4411,-0.825c-0.3391,-0.33 -0.8686,-0.6618 -1.5841,-0.9564c-0.076,-0.0313 -0.1537,-0.062 -0.233,-0.0921l0.4009,-0.4008v-0.0001c0.2444,-0.2444 0.4724,-0.5028 0.6832,-0.7736c0.7051,0.3169 1.3181,0.6993 1.7793,1.1483c0.5236,0.5097 0.8948,1.1519 0.8948,1.8997c0,0.7478 -0.3712,1.39 -0.8948,1.8998c-0.5212,0.5074 -1.2365,0.9298 -2.0592,1.2686c-1.6491,0.679 -3.8755,1.0816 -6.296,1.0816c-2.42051,0 -4.64688,-0.4026 -6.29597,-1.0816c-0.82278,-0.3388 -1.538,-0.7612 -2.05923,-1.2686c-0.52359,-0.5098 -0.8948,-1.152 -0.8948,-1.8998c0,-0.7478 0.37121,-1.39 0.8948,-1.8997z" fill="#002B51"/>
</svg>
