<svg width="24" height="24" viewBox="0 0 24 24" fill="none" xmlns="http://www.w3.org/2000/svg">
<path fill-rule="evenodd" clip-rule="evenodd" d="M12,4.25c-1.8285,0 -3.91667,1.51251 -3.91667,3.83824c0,1.12958 0.58807,2.38786 1.41458,3.57256c0.81289,1.1651 1.78479,2.1583 2.40009,2.7389c0.0347,0.0327 0.0707,0.0436 0.102,0.0436c0.0313,0 0.0673,-0.0109 0.102,-0.0436c0.6153,-0.5806 1.5872,-1.5738 2.4001,-2.7389c0.8265,-1.1847 1.4146,-2.44298 1.4146,-3.57256c0,-2.32573 -2.0882,-3.83824 -3.9167,-3.83824zM6.58333,8.08824c0,-3.32133 2.93746,-5.33824 5.41667,-5.33824c2.4792,0 5.4167,2.01691 5.4167,5.33824c0,1.59546 -0.8029,3.16736 -1.6844,4.43086c-0.8951,1.2829 -1.9482,2.3557 -2.6009,2.9716c-0.6396,0.6035 -1.6232,0.6035 -2.2628,0c-0.6527,-0.6159 -1.70577,-1.6887 -2.60088,-2.9716c-0.88148,-1.2635 -1.68439,-2.8354 -1.68439,-4.43086zM6.42244,13.8065c0.26368,0.3779 0.53784,0.7379 0.81168,1.0756c-0.34312,0.1023 -0.66379,0.215 -0.95897,0.3365c-0.71541,0.2946 -1.24499,0.6264 -1.58401,0.9564c-0.33665,0.3278 -0.44114,0.6063 -0.44114,0.825c0,0.2187 0.10449,0.4972 0.44114,0.8249c0.33902,0.3301 0.8686,0.6619 1.58401,0.9564c1.42731,0.5878 3.45094,0.9687 5.72485,0.9687c2.2739,0 4.2975,-0.3809 5.7248,-0.9687c0.7155,-0.2945 1.245,-0.6263 1.5841,-0.9564c0.3366,-0.3277 0.4411,-0.6062 0.4411,-0.8249c0,-0.2187 -0.1045,-0.4972 -0.4411,-0.825c-0.3391,-0.33 -0.8686,-0.6618 -1.5841,-0.9564c-0.2951,-0.1215 -0.6158,-0.2342 -0.9589,-0.3365c0.2738,-0.3377 0.548,-0.6977 0.8117,-1.0756c0.0445,-0.0638 0.0893,-0.129 0.1343,-0.1955c0.2018,0.0698 0.3967,0.1434 0.5841,0.2206c0.8227,0.3388 1.538,0.7612 2.0592,1.2686c0.5236,0.5098 0.8948,1.152 0.8948,1.8998c0,0.7478 -0.3712,1.39 -0.8948,1.8997c-0.5212,0.5075 -1.2365,0.9299 -2.0592,1.2687c-1.6491,0.679 -3.8755,1.0816 -6.296,1.0816c-2.42051,0 -4.64688,-0.4026 -6.29597,-1.0816c-0.82278,-0.3388 -1.538,-0.7612 -2.05923,-1.2687c-0.52359,-0.5097 -0.8948,-1.1519 -0.8948,-1.8997c0,-0.7478 0.37121,-1.39 0.8948,-1.8998c0.52123,-0.5074 1.23645,-0.9298 2.05923,-1.2686c0.18741,-0.0772 0.38227,-0.1508 0.58403,-0.2206c0.04505,0.0665 0.08989,0.1317 0.13438,0.1955zM12,8.91667c0.5063,0 0.9167,-0.41041 0.9167,-0.91667c0,-0.50626 -0.4104,-0.91667 -0.9167,-0.91667c-0.5063,0 -0.9167,0.41041 -0.9167,0.91667c0,0.50626 0.4104,0.91667 0.9167,0.91667zM14.4167,8c0,1.33469 -1.082,2.4167 -2.4167,2.4167c-1.3347,0 -2.41667,-1.08201 -2.41667,-2.4167c0,-1.33469 1.08197,-2.41667 2.41667,-2.41667c1.3347,0 2.4167,1.08198 2.4167,2.41667z" fill="#002B51"/>
</svg>
