<svg width="24" height="24" viewBox="0 0 24 24" fill="none" xmlns="http://www.w3.org/2000/svg">
<path fill-rule="evenodd" clip-rule="evenodd" d="M6.58333,8.08824c0,-3.32133 2.93746,-5.33824 5.41667,-5.33824c2.4792,0 5.4167,2.01691 5.4167,5.33824c0,1.59546 -0.8029,3.16736 -1.6844,4.43086c-0.8951,1.2829 -1.9482,2.3557 -2.6009,2.9716c-0.6396,0.6035 -1.6232,0.6035 -2.2628,0c-0.6527,-0.6159 -1.70577,-1.6887 -2.60088,-2.9716c-0.88148,-1.2635 -1.68439,-2.8354 -1.68439,-4.43086zM12,9.66667c0.9205,0 1.6667,-0.7462 1.6667,-1.66667c0,-0.92047 -0.7462,-1.66667 -1.6667,-1.66667c-0.9205,0 -1.6667,0.7462 -1.6667,1.66667c0,0.92047 0.7462,1.66667 1.6667,1.66667zM5.70403,13.8316c0.1874,-0.0772 0.38226,-0.1508 0.58401,-0.2206c0.04506,0.0665 0.0899,0.1317 0.1344,0.1955c0.26368,0.3779 0.53783,0.7379 0.81166,1.0755c-0.34311,0.1023 -0.66378,0.215 -0.95895,0.3366c-0.71541,0.2946 -1.24499,0.6263 -1.58401,0.9564c-0.33665,0.3277 -0.44114,0.6062 -0.44114,0.8249c0,0.2188 0.10449,0.4973 0.44114,0.825c0.33902,0.3301 0.8686,0.6618 1.58401,0.9564c1.42731,0.5877 3.45094,0.9686 5.72485,0.9686c2.2739,0 4.2975,-0.3809 5.7248,-0.9686c0.7155,-0.2946 1.245,-0.6263 1.5841,-0.9564c0.3366,-0.3277 0.4411,-0.6062 0.4411,-0.825c0,-0.2187 -0.1045,-0.4972 -0.4411,-0.8249c-0.3391,-0.3301 -0.8686,-0.6618 -1.5841,-0.9564c-0.2951,-0.1216 -0.6158,-0.2343 -0.9589,-0.3366c0.2738,-0.3376 0.548,-0.6976 0.8117,-1.0755c0.0445,-0.0638 0.0893,-0.129 0.1344,-0.1955c0.2017,0.0698 0.3966,0.1434 0.584,0.2206c0.8227,0.3388 1.538,0.7612 2.0592,1.2686c0.5236,0.5097 0.8948,1.152 0.8948,1.8997c0,0.7478 -0.3712,1.3901 -0.8948,1.8998c-0.5212,0.5074 -1.2365,0.9298 -2.0592,1.2686c-1.6491,0.6791 -3.8755,1.0816 -6.296,1.0816c-2.42051,0 -4.64688,-0.4025 -6.29597,-1.0816c-0.82278,-0.3388 -1.538,-0.7612 -2.05923,-1.2686c-0.52359,-0.5097 -0.8948,-1.152 -0.8948,-1.8998c0,-0.7477 0.37121,-1.39 0.8948,-1.8997c0.52123,-0.5074 1.23645,-0.9298 2.05923,-1.2686z" fill="#002B51"/>
</svg>
