<svg width="24" height="24" viewBox="0 0 24 24" fill="none" xmlns="http://www.w3.org/2000/svg">
<path d="M12,2.25c3.5561,0 7.75,2.89972 7.75,7.63281c-0.0002,2.40439 -1.2839,4.81489 -2.6895,6.75489c-1.2444,1.7176 -2.6518,3.1578 -3.5703,4.0283l-0.3623,0.3369c-0.6019,0.5517 -1.4936,0.5863 -2.1318,0.1035l-0.124,-0.1035c-0.87485,-0.8022 -2.51052,-2.4024 -3.93265,-4.3652c-1.40553,-1.94 -2.68929,-4.3505 -2.68945,-6.75489c0,-4.73309 4.19387,-7.63281 7.75,-7.63281zM12,3.75c-2.9054,0 -6.25,2.39532 -6.25,6.13281c0.00017,1.91729 1.04914,4.00459 2.4043,5.87499c1.33874,1.8477 2.8929,3.3707 3.7314,4.1397l0.0577,0.0361c0.0192,0.0074 0.0383,0.0107 0.0566,0.0107c0.0367,0 0.0769,-0.0127 0.1143,-0.0468l0.3466,-0.3233c0.8775,-0.8319 2.2135,-2.1998 3.3848,-3.8164c1.3552,-1.8704 2.4041,-3.9577 2.4043,-5.87499c0,-3.73749 -3.3446,-6.13281 -6.25,-6.13281zM12,6.5c1.7949,0 3.25,1.45507 3.25,3.25c0,1.7949 -1.4551,3.25 -3.25,3.25c-1.7949,0 -3.25,-1.4551 -3.25,-3.25c0,-1.79493 1.4551,-3.25 3.25,-3.25zM12,8c-0.9665,0 -1.75,0.7835 -1.75,1.75c0,0.9665 0.7835,1.75 1.75,1.75c0.9665,0 1.75,-0.7835 1.75,-1.75c0,-0.9665 -0.7835,-1.75 -1.75,-1.75z" fill="#002B51"/>
</svg>
