<svg width="24" height="24" viewBox="0 0 24 24" fill="none" xmlns="http://www.w3.org/2000/svg">
<path d="M18.5742,13.9521c0.7057,0.317 1.3198,0.6992 1.7813,1.1485c0.5234,0.5096 0.8945,1.1518 0.8945,1.8994c0,0.7476 -0.3711,1.3897 -0.8945,1.8994c-0.5212,0.5074 -1.2369,0.9298 -2.0596,1.2686c-1.6491,0.679 -3.8754,1.082 -6.2959,1.082c-2.42051,0 -4.64681,-0.403 -6.2959,-1.082c-0.82272,-0.3388 -1.53837,-0.7612 -2.05957,-1.2686c-0.5234,-0.5097 -0.89453,-1.1518 -0.89453,-1.8994c0.00004,-0.7476 0.37113,-1.3898 0.89453,-1.8994c0.46131,-0.4491 1.07491,-0.8316 1.78027,-1.1485c0.21062,0.2706 0.43843,0.5293 0.68262,0.7735h0.00098l0.40137,0.4014c-0.07971,0.0302 -0.15803,0.0603 -0.23438,0.0918c-0.7152,0.2944 -1.24495,0.6261 -1.58398,0.956c-0.33659,0.3277 -0.44137,0.6065 -0.44141,0.8252c0,0.2187 0.10481,0.4975 0.44141,0.8252c0.33902,0.33 0.86877,0.6615 1.58398,0.956c1.42729,0.5877 3.45079,0.9688 5.72461,0.9688c2.2738,0 4.2973,-0.3811 5.7246,-0.9688c0.7152,-0.2945 1.245,-0.626 1.584,-0.956c0.3366,-0.3277 0.4414,-0.6065 0.4414,-0.8252c0,-0.2187 -0.1048,-0.4975 -0.4414,-0.8252c-0.339,-0.3299 -0.8688,-0.6616 -1.584,-0.956c-0.0763,-0.0315 -0.1547,-0.0616 -0.2344,-0.0918l0.4024,-0.4014l0.2148,-0.2217c0.1644,-0.177 0.3191,-0.362 0.4668,-0.5518zM11.999,2.75c1.2031,0 2.3796,0.35708 3.3799,1.02539c1.0002,0.66831 1.7798,1.6182 2.2402,2.72949c0.4604,1.11142 0.5813,2.33475 0.3467,3.51462c-0.22,1.1064 -0.7432,2.1287 -1.5088,2.9532l-0.1562,0.1621l-2.8281,2.8291h-0.001c-0.3905,0.3898 -0.9199,0.6093 -1.4717,0.6093c-0.4832,-0.0001 -0.9497,-0.1681 -1.3203,-0.4716l-0.1524,-0.1377l-2.83003,-2.8291c-0.85051,-0.8508 -1.4294,-1.9354 -1.66407,-3.1153c-0.23456,-1.17981 -0.11462,-2.40324 0.34571,-3.51462c0.46041,-1.11135 1.24103,-2.06112 2.24121,-2.72949c1.00014,-0.6682 2.17608,-1.02524 3.37888,-1.02539zM12,6.83301c-0.5303,0 -1.039,0.21104 -1.4141,0.58594c-0.375,0.37499 -0.5858,0.88374 -0.5859,1.41406c0,0.53041 0.2109,1.03899 0.5859,1.41409c0.3751,0.375 0.8837,0.5859 1.4141,0.5859c0.5303,-0.0001 1.039,-0.2109 1.4141,-0.5859c0.3749,-0.37507 0.5859,-0.88379 0.5859,-1.41409c-0.0001,-0.53032 -0.2109,-1.03907 -0.5859,-1.41406c-0.375,-0.37499 -0.8838,-0.58588 -1.4141,-0.58594z" fill="#002B51"/>
</svg>
