<svg width="24" height="24" viewBox="0 0 24 24" fill="none" xmlns="http://www.w3.org/2000/svg">
<path d="M12,2.25c1.7306,0 3.4224,0.51317 4.8613,1.47461c1.4389,0.96144 2.5604,2.32797 3.2227,3.92676c0.6623,1.59882 0.8356,3.35833 0.498,5.05563c-0.3376,1.6973 -1.1709,3.2568 -2.3945,4.4805l-4.2432,4.2422v0.001c-0.5155,0.515 -1.2147,0.8035 -1.9433,0.8037c-0.7289,0 -1.4287,-0.2886 -1.9444,-0.8037v-0.001l-4.2441,-4.2422c-1.22363,-1.2237 -2.05693,-2.7832 -2.39453,-4.4805c-0.33759,-1.6973 -0.16423,-3.45681 0.49805,-5.05563c0.66226,-1.59879 1.78378,-2.96532 3.22265,-3.92676c1.43892,-0.96144 3.13073,-1.47461 4.86133,-1.47461zM12,8c-0.7956,0 -1.5585,0.3163 -2.12109,0.87891c-0.56261,0.56261 -0.87891,1.32549 -0.87891,2.12109c0,0.7956 0.3163,1.5585 0.87891,2.1211c0.56259,0.5626 1.32549,0.8789 2.12109,0.8789c0.7956,0 1.5585,-0.3163 2.1211,-0.8789c0.5626,-0.5626 0.8789,-1.3255 0.8789,-2.1211c0,-0.7956 -0.3163,-1.55848 -0.8789,-2.12109c-0.5626,-0.56261 -1.3255,-0.87891 -2.1211,-0.87891z" fill="#002B51"/>
</svg>
