<svg width="24" height="24" viewBox="0 0 24 24" fill="none" xmlns="http://www.w3.org/2000/svg">
<path d="M17.708,13.6113c0.203,0.0702 0.3995,0.1431 0.5879,0.2207c0.8226,0.3388 1.5384,0.7613 2.0596,1.2686c0.5232,0.5096 0.8944,1.152 0.8945,1.8994c-0.0001,0.7474 -0.3713,1.3898 -0.8945,1.8994c-0.5212,0.5073 -1.237,0.9298 -2.0596,1.2686c-1.6491,0.679 -3.8754,1.082 -6.2959,1.082c-2.42045,0 -4.64682,-0.403 -6.2959,-1.082c-0.82261,-0.3388 -1.5384,-0.7613 -2.05957,-1.2686c-0.52327,-0.5096 -0.89442,-1.152 -0.89453,-1.8994c0.00011,-0.7474 0.37126,-1.3898 0.89453,-1.8994c0.52117,-0.5073 1.23696,-0.9298 2.05957,-1.2686c0.18818,-0.0775 0.38428,-0.1506 0.58692,-0.2207c0.04458,0.0659 0.08681,0.1322 0.13086,0.1953c0.26386,0.3782 0.53942,0.7384 0.81347,1.0762c-0.34335,0.1024 -0.6646,0.2143 -0.95996,0.336c-0.71507,0.2944 -1.24496,0.6261 -1.58398,0.956c-0.33636,0.3275 -0.44131,0.6066 -0.44141,0.8252c0.00011,0.2186 0.10506,0.4977 0.44141,0.8252c0.33902,0.3299 0.86892,0.6616 1.58398,0.956c1.42729,0.5877 3.45085,0.9688 5.72461,0.9688c2.2738,0 4.2973,-0.3811 5.7246,-0.9688c0.7151,-0.2944 1.245,-0.6261 1.584,-0.956c0.3363,-0.3275 0.4413,-0.6066 0.4414,-0.8252c-0.0001,-0.2186 -0.1051,-0.4977 -0.4414,-0.8252c-0.339,-0.3299 -0.8689,-0.6616 -1.584,-0.956c-0.2956,-0.1218 -0.6172,-0.2336 -0.9609,-0.336c0.2741,-0.3379 0.5495,-0.6979 0.8134,-1.0762c0.0441,-0.0631 0.0863,-0.1294 0.1309,-0.1953zM12,2.75c2.4791,0.00018 5.4158,2.01691 5.416,5.33789c0,1.59546 -0.8021,3.16821 -1.6836,4.43161c-0.895,1.2828 -1.9488,2.3549 -2.6015,2.9707c-0.6397,0.6034 -1.6232,0.6035 -2.2627,0c-0.6527,-0.6159 -1.70579,-1.6882 -2.60062,-2.9707c-0.88144,-1.2634 -1.68457,-2.83621 -1.68457,-4.43161c0.0002,-3.32098 2.93793,-5.33771 5.41699,-5.33789zM12,6.33301c-0.9205,0 -1.667,0.74652 -1.667,1.66699c0,0.92046 0.7465,1.66699 1.667,1.66699c0.9203,-0.00017 1.666,-0.74663 1.666,-1.66699c0,-0.92037 -0.7457,-1.66682 -1.666,-1.66699z" fill="#002B51"/>
</svg>
