<svg width="24" height="24" viewBox="0 0 24 24" fill="none" xmlns="http://www.w3.org/2000/svg">
<path fill-rule="evenodd" clip-rule="evenodd" d="M8.15407,15.7577c1.33877,1.8478 2.89273,3.3707 3.73133,4.1397c0.0374,0.0343 0.0778,0.0471 0.1146,0.0471c0.0368,0 0.0772,-0.0128 0.1146,-0.0471c0.8386,-0.769 2.3926,-2.2919 3.7313,-4.1397c1.3553,-1.8705 2.4041,-3.958 2.4041,-5.87535c0,-3.73749 -3.3446,-6.13235 -6.25,-6.13235c-2.9054,0 -6.25,2.39486 -6.25,6.13235c0,1.91735 1.0488,4.00485 2.40407,5.87535zM19.75,9.88235c0,2.40455 -1.2837,4.81535 -2.6894,6.75545c-1.4221,1.9629 -3.0574,3.5629 -3.9322,4.3651c-0.6421,0.5888 -1.6147,0.5888 -2.2568,0c-0.87482,-0.8022 -2.5101,-2.4022 -3.93222,-4.3651c-1.40564,-1.9401 -2.68938,-4.3509 -2.68938,-6.75545c0,-4.73309 4.19387,-7.63235 7.75,-7.63235c3.5561,0 7.75,2.89926 7.75,7.63235zM12,11.5c0.9665,0 1.75,-0.7835 1.75,-1.75c0,-0.9665 -0.7835,-1.75 -1.75,-1.75c-0.9665,0 -1.75,0.7835 -1.75,1.75c0,0.9665 0.7835,1.75 1.75,1.75zM15.25,9.75c0,1.7949 -1.4551,3.25 -3.25,3.25c-1.7949,0 -3.25,-1.4551 -3.25,-3.25c0,-1.79493 1.4551,-3.25 3.25,-3.25c1.7949,0 3.25,1.45507 3.25,3.25z" fill="#002B51"/>
</svg>
