<svg width="24" height="24" viewBox="0 0 24 24" fill="none" xmlns="http://www.w3.org/2000/svg">
<path fill-rule="evenodd" clip-rule="evenodd" d="M14.4184,3.25c0.2809,-0.59124 0.8835,-1 1.5816,-1h2c0.6981,0 1.3007,0.40876 1.5816,1h1.4184c0.4142,0 0.75,0.33579 0.75,0.75c0,0.41421 -0.3358,0.75 -0.75,0.75h-1.25v5.5h1.25c0.4142,0 0.75,0.3358 0.75,0.75c0,0.4142 -0.3358,0.75 -0.75,0.75h-1.4184c-0.2809,0.5912 -0.8835,1 -1.5816,1h-2c-0.6981,0 -1.3007,-0.4088 -1.5816,-1h-0.4184c-1.2426,0 -2.25,1.0074 -2.25,2.25v0.4184c0.5912,0.2809 1,0.8835 1,1.5816v2c0,0.6981 -0.4088,1.3007 -1,1.5816v1.4184c0,0.4142 -0.3358,0.75 -0.75,0.75c-0.4142,0 -0.75,-0.3358 -0.75,-0.75v-1.25h-5.5v1.25c0,0.4142 -0.33579,0.75 -0.75,0.75c-0.41421,0 -0.75,-0.3358 -0.75,-0.75v-1.4184c-0.59124,-0.2809 -1,-0.8835 -1,-1.5816v-2c0,-0.6981 0.40876,-1.3007 1,-1.5816v-0.4184c0,-5.93706 4.81294,-10.75 10.75,-10.75zM14.25,4.75h-0.25c-5.10863,0 -9.25,4.14137 -9.25,9.25v0.25h5.5v-0.25c0,-2.0711 1.6789,-3.75 3.75,-3.75h0.25zM16,3.75c-0.1381,0 -0.25,0.11193 -0.25,0.25v7c0,0.1381 0.1119,0.25 0.25,0.25h2c0.1381,0 0.25,-0.1119 0.25,-0.25v-7c0,-0.13807 -0.1119,-0.25 -0.25,-0.25zM4,15.75c-0.13807,0 -0.25,0.1119 -0.25,0.25v2c0,0.1381 0.11193,0.25 0.25,0.25h7c0.1381,0 0.25,-0.1119 0.25,-0.25v-2c0,-0.1381 -0.1119,-0.25 -0.25,-0.25z" fill="#002B51"/>
</svg>
