<svg width="24" height="24" viewBox="0 0 24 24" fill="none" xmlns="http://www.w3.org/2000/svg">
<path fill-rule="evenodd" clip-rule="evenodd" d="M18,2.25c0.6981,0 1.3007,0.40877 1.5816,1.00001h1.4184c0.4142,0 0.75,0.33579 0.75,0.75c0,0.41421 -0.3358,0.75 -0.75,0.75h-1.25v5.49999h1.25c0.4142,0 0.75,0.3358 0.75,0.75c0,0.4142 -0.3358,0.75 -0.75,0.75h-1.4184c-0.2809,0.5912 -0.8835,1 -1.5816,1h-2c-0.6981,0 -1.3007,-0.4088 -1.5816,-1h-0.4184c-1.2426,0 -2.25,1.0074 -2.25,2.25v0.4184c0.5912,0.2809 1,0.8835 1,1.5816v2c0,0.6981 -0.4088,1.3007 -1,1.5816v1.4184c0,0.4142 -0.3358,0.75 -0.75,0.75c-0.4142,0 -0.75,-0.3358 -0.75,-0.75v-1.25h-5.50001v1.25c0,0.4142 -0.33578,0.75 -0.75,0.75c-0.41421,0 -0.75,-0.3358 -0.75,-0.75v-1.4184c-0.59123,-0.2809 -0.99999,-0.8835 -0.99999,-1.5816v-2c0,-0.6981 0.40876,-1.3007 0.99999,-1.5816v-0.4184c0,-5.93705 4.81294,-10.74999 10.75001,-10.74999h0.4184c0.2809,-0.59124 0.8835,-1.00001 1.5816,-1.00001zM15.75,11c0,0.1381 0.1119,0.25 0.25,0.25h2c0.1381,0 0.25,-0.1119 0.25,-0.25v-7c0,-0.13807 -0.1119,-0.25 -0.25,-0.25h-2c-0.1381,0 -0.25,0.11193 -0.25,0.25zM3.75,18c0,0.1381 0.11193,0.25 0.25,0.25h7c0.1381,0 0.25,-0.1119 0.25,-0.25v-2c0,-0.1381 -0.1119,-0.25 -0.25,-0.25h-7c-0.13807,0 -0.25,0.1119 -0.25,0.25z" fill="#002B51"/>
</svg>
