<svg width="24" height="24" viewBox="0 0 24 24" fill="none" xmlns="http://www.w3.org/2000/svg">
<path d="M12.6006,6.97211c1.6618,-2.09538 4.848,-3.23176 9.4824,-2.7168c0.3057,0.03408 0.5597,0.25112 0.6406,0.54785c0.8149,2.98862 0.008,6.36794 -1.8379,8.55564c-0.9312,1.1037 -2.1505,1.9312 -3.5888,2.2207c-1.2565,0.2529 -2.6224,0.082 -4.0313,-0.5918c-0.9254,1.6483 -1.5156,3.6117 -1.5156,6.0127c-0.0002,0.4141 -0.3359,0.75 -0.75,0.75c-0.4141,0 -0.7498,-0.3359 -0.75,-0.75c0,-0.5702 0.0303,-1.1197 0.0879,-1.6494c-0.019,-0.0359 -0.0356,-0.0735 -0.0488,-0.1133c-0.37322,-1.1195 -1.06424,-2.2683 -1.89652,-3.3086l-0.04297,-0.0517c-1.27749,0.5093 -2.41202,0.6567 -3.4082,0.4609c-1.12867,-0.2219 -1.98529,-0.8635 -2.60743,-1.7051c-1.20777,-1.6344 -1.58392,-4.0852 -1.58398,-6.13277c0,-0.37308 0.27431,-0.6892 0.64355,-0.74219c1.82813,-0.26116 4.39928,-0.15176 6.23145,0.90527c0.94068,0.54282 1.71822,1.35669 2.04883,2.51369c0.29179,1.0216 0.20852,2.2208 -0.28613,3.6035l0.17285,0.207c0.46935,0.5863 0.90665,1.217 1.28225,1.8721c0.3214,-1.0582 0.7605,-2.024 1.2871,-2.9082c-1.1456,-2.3495 -1.1057,-4.99185 0.4707,-6.97949zM6.875,9.96234c-1.23785,-0.71404 -3.05615,-0.91222 -4.61035,-0.79199c0.07749,1.73855 0.46413,3.47235 1.27637,4.57125c0.44027,0.5956 0.99031,0.9866 1.68945,1.1241c0.66296,0.1303 1.53885,0.045 2.68848,-0.4346c0.47685,-1.256 0.50359,-2.1758 0.31347,-2.8418c-0.20058,-0.702 -0.67343,-1.2323 -1.35742,-1.62696zM21.3926,5.69476c-4.0474,-0.3422 -6.4535,0.74175 -7.6172,2.20899c-1.1705,1.47594 -1.2525,3.55385 -0.2129,5.55175c1.2903,0.7063 2.4479,0.8527 3.4385,0.6533c1.0455,-0.2105 1.9822,-0.8209 2.7383,-1.7168c1.4289,-1.6936 2.127,-4.31206 1.6533,-6.69724z" fill="#002B51"/>
</svg>
