<svg width="24" height="24" viewBox="0 0 24 24" fill="none" xmlns="http://www.w3.org/2000/svg">
<path d="M12.6006,6.97221c1.61,-2.02997 4.6506,-3.1604 9.0527,-2.76074l0.4297,0.04395l0.1123,0.02051c0.2544,0.06853 0.4575,0.26779 0.5283,0.52734c0.8149,2.98859 0.008,6.36803 -1.8379,8.55563c-0.9312,1.1037 -2.1505,1.9312 -3.5888,2.2207c-1.2566,0.2529 -2.6224,0.0821 -4.0313,-0.5918c-0.9254,1.6483 -1.5156,3.6118 -1.5156,6.0127c-0.0003,0.414 -0.336,0.75 -0.75,0.75c-0.414,0 -0.7497,-0.336 -0.75,-0.75c0,-0.5701 0.0303,-1.1197 0.0879,-1.6494c-0.0191,-0.036 -0.0355,-0.0743 -0.0488,-0.1142c-0.37329,-1.1197 -1.06415,-2.2683 -1.89652,-3.3086l-0.04297,-0.0508c-1.2775,0.5094 -2.41201,0.6557 -3.4082,0.4599c-1.12876,-0.2219 -1.98529,-0.8633 -2.60743,-1.705c-1.20771,-1.6345 -1.58397,-4.0853 -1.58398,-6.13284l0.0127,-0.13672c0.05762,-0.31112 0.30782,-0.55914 0.63086,-0.60547l0.35157,-0.04492c1.79537,-0.19926 4.16227,-0.04066 5.87988,0.95019c0.94066,0.54277 1.71814,1.35676 2.04883,2.51366c0.29187,1.0216 0.20835,2.221 -0.28613,3.6035l0.17285,0.2071c0.46935,0.5862 0.90665,1.217 1.28225,1.872c0.3214,-1.0579 0.7606,-2.0233 1.2871,-2.9072c-1.1456,-2.3495 -1.1056,-4.99182 0.4707,-6.97949zM6.875,9.96147c-1.23783,-0.71395 -3.05623,-0.91221 -4.61035,-0.79199c0.07743,1.73862 0.46419,3.47222 1.27637,4.57132c0.44029,0.5957 0.99024,0.9865 1.68945,1.124c0.663,0.1303 1.53873,0.0451 2.68848,-0.4346c0.47683,-1.256 0.5037,-2.1758 0.31347,-2.8418c-0.20066,-0.7019 -0.67344,-1.2323 -1.35742,-1.62693zM21.3926,5.69487c-4.0474,-0.3422 -6.4535,0.74175 -7.6172,2.20899c-1.1705,1.47593 -1.2524,3.55394 -0.2129,5.55174c1.2903,0.7063 2.4479,0.8527 3.4385,0.6533c1.0455,-0.2105 1.9823,-0.8209 2.7383,-1.7168c1.4289,-1.6935 2.1269,-4.31209 1.6533,-6.69723z" fill="#002B51"/>
</svg>
