<svg width="24" height="24" viewBox="0 0 24 24" fill="none" xmlns="http://www.w3.org/2000/svg">
<path d="M12.6006,6.97221c1.61,-2.02995 4.6506,-3.1604 9.0527,-2.76074l0.4297,0.04395l0.1123,0.0205c0.2543,0.06854 0.4575,0.2678 0.5283,0.52735c0.8148,2.98855 0.008,6.36803 -1.8379,8.55563c-0.9312,1.1036 -2.1506,1.9312 -3.5888,2.2207c-1.2566,0.2529 -2.6223,0.0821 -4.0313,-0.5918c-0.9318,1.6612 -1.5155,3.6276 -1.5156,6.0118c0,0.4142 -0.3358,0.75 -0.75,0.75c-0.4142,0 -0.75,-0.3358 -0.75,-0.75c0,-0.5717 0.0313,-1.1217 0.0889,-1.6514c-0.0071,-0.0134 -0.0162,-0.0261 -0.0225,-0.04l-0.0283,-0.0713l-0.0908,-0.2579c-0.39612,-1.0572 -1.06367,-2.1273 -1.84964,-3.1005c-1.27665,0.5086 -2.41062,0.6546 -3.40625,0.4589c-1.12869,-0.2219 -1.9853,-0.8634 -2.60743,-1.705c-1.20765,-1.6345 -1.58394,-4.0853 -1.58398,-6.13284l0.0127,-0.13672c0.05762,-0.3111 0.30785,-0.55913 0.63086,-0.60547l0.35157,-0.04492c1.79537,-0.19927 4.16227,-0.04066 5.87988,0.95019c0.94061,0.54276 1.71814,1.35676 2.04883,2.51366c0.18401,0.6442 0.21871,1.3595 0.0957,2.1465c-1.05115,-1.1354 -2.21204,-2.0828 -3.22363,-2.6338l-0.21094,-0.1103l-0.07031,-0.0303c-0.35525,-0.1345 -0.76185,0.0192 -0.93555,0.3662c-0.06088,0.122 -0.08385,0.2529 -0.07617,0.3799c0.00387,0.0014 0.00786,0.0024 0.01172,0.0039l0.07031,0.0303l0.21094,0.1103c1.06358,0.5793 2.2943,1.5949 3.38672,2.8086c0.70494,0.7833 1.37248,1.6732 1.91118,2.6133c1.1829,-3.8955 3.9554,-6.4857 6.6503,-8.42091c-0.0104,-0.13067 -0.0522,-0.26054 -0.1337,-0.375c-0.2407,-0.33695 -0.7089,-0.41528 -1.0459,-0.17481c-1.6835,1.20251 -3.4042,2.65792 -4.753,4.52632c-0.4902,-1.9124 -0.2006,-3.88101 1.0391,-5.44429z" fill="#002B51"/>
</svg>
