<svg width="24" height="24" viewBox="0 0 24 24" fill="none" xmlns="http://www.w3.org/2000/svg">
<path fill-rule="evenodd" clip-rule="evenodd" d="M22.7236,4.80269c0.8151,2.98872 0.0081,6.36811 -1.8379,8.55591c-0.9313,1.1038 -2.1508,1.9309 -3.5893,2.2204c-1.2568,0.253 -2.6229,0.0838 -4.0321,-0.5903c-0.9316,1.661 -1.5143,3.6276 -1.5143,6.0114c0,0.4142 -0.3358,0.75 -0.75,0.75c-0.4142,0 -0.75,-0.3358 -0.75,-0.75c0,-0.5706 0.0301,-1.1197 0.0874,-1.6484c-0.0191,-0.0362 -0.0355,-0.0744 -0.0489,-0.1145c-0.37971,-1.1392 -1.08729,-2.3067 -1.93648,-3.3588c-1.27835,0.51 -2.414,0.6549 -3.41075,0.459c-1.12879,-0.2219 -1.98475,-0.8625 -2.6069,-1.7042c-1.20814,-1.6345 -1.58437,-4.0854 -1.58437,-6.13328c0,-0.37324 0.27445,-0.68968 0.64393,-0.74246c1.82813,-0.26116 4.39869,-0.15168 6.23086,0.90535c0.94091,0.54283 1.71883,1.35659 2.04948,2.51389c0.18391,0.6437 0.21922,1.3581 0.09646,2.1444c-1.12479,-1.2149 -2.37688,-2.2127 -3.43532,-2.7419c-0.37048,-0.1853 -0.82099,-0.0351 -1.00623,0.3354c-0.06082,0.1216 -0.08549,0.2519 -0.07806,0.3786c0.02845,0.0101 0.05659,0.0221 0.08429,0.036c1.10946,0.5547 2.4317,1.6242 3.59706,2.9191c0.70415,0.7823 1.37203,1.6702 1.91043,2.609c1.1839,-3.8955 3.9592,-6.4848 6.6546,-8.41985c-0.0108,-0.13021 -0.0557,-0.25928 -0.1372,-0.37332c-0.2408,-0.33706 -0.7092,-0.41513 -1.0462,-0.17437c-1.6837,1.2026 -3.4039,2.65864 -4.7527,4.52734c-0.4908,-1.9129 -0.2016,-3.88205 1.0385,-5.44566c1.6618,-2.09539 4.8485,-3.23179 9.4829,-2.71683c0.3058,0.03398 0.5598,0.25126 0.6408,0.54808z" fill="#002B51"/>
</svg>
