<svg width="24" height="24" viewBox="0 0 24 24" fill="none" xmlns="http://www.w3.org/2000/svg">
<path fill-rule="evenodd" clip-rule="evenodd" d="M13.1409,12.4778c1.2934,-1.66 2.8738,-2.98136 4.4232,-4.08806c0.337,-0.24076 0.8054,-0.16269 1.0462,0.17437c0.2408,0.33706 0.1627,0.80547 -0.1744,1.04623c-1.5887,1.13486 -3.142,2.45416 -4.351,4.10526c1.0816,0.4804 2.0607,0.5649 2.9156,0.3929c1.0458,-0.2105 1.9826,-0.821 2.7388,-1.7172c1.4291,-1.6937 2.1278,-4.31191 1.6539,-6.69721c-4.0479,-0.34244 -6.4543,0.74206 -7.6181,2.20944c-0.98,1.23575 -1.199,2.89447 -0.6342,4.57427zM12.1299,13.9529c-1.1462,-2.3499 -1.1067,-4.99346 0.47,-6.98146c1.6618,-2.09539 4.8485,-3.23179 9.4829,-2.71683c0.3058,0.03398 0.5598,0.25126 0.6408,0.54808c0.8151,2.98872 0.0081,6.36811 -1.8379,8.55591c-0.9313,1.1038 -2.1508,1.9309 -3.5893,2.2204c-1.2568,0.253 -2.6229,0.0838 -4.0321,-0.5903c-0.9316,1.6609 -1.5143,3.6275 -1.5143,6.0113c0,0.4143 -0.3358,0.75 -0.75,0.75c-0.4142,0 -0.75,-0.3357 -0.75,-0.75c0,-0.5705 0.0301,-1.1196 0.0874,-1.6484c-0.0191,-0.0362 -0.0355,-0.0744 -0.0489,-0.1145c-0.37971,-1.1391 -1.08729,-2.3067 -1.93647,-3.3587c-1.27835,0.5099 -2.41401,0.6549 -3.41076,0.459c-1.12879,-0.2219 -1.98475,-0.8625 -2.6069,-1.7042c-1.20814,-1.6345 -1.58437,-4.0854 -1.58437,-6.1333c0,-0.37324 0.27445,-0.68968 0.64393,-0.74246c1.82813,-0.26117 4.39869,-0.15169 6.23086,0.90534c0.94091,0.54284 1.71883,1.35662 2.04948,2.51392c0.29171,1.021 0.20956,2.2199 -0.28428,3.6015c0.53363,0.6447 1.03271,1.3464 1.45291,2.079c0.3223,-1.0605 0.7626,-2.0242 1.287,-2.9043zM8.20991,13.4933c0.18491,-0.7927 0.16147,-1.4166 0.02207,-1.9045c-0.2006,-0.7021 -0.67268,-1.2321 -1.35677,-1.62674c-1.23781,-0.71413 -3.05611,-0.91193 -4.61037,-0.79172c0.07749,1.73866 0.46351,3.47226 1.27579,4.57126c0.44035,0.5958 0.99064,0.9865 1.68997,1.1239c0.53191,0.1046 1.20167,0.0727 2.03943,-0.1917c-0.92119,-0.9236 -1.86311,-1.6319 -2.60544,-2.003c-0.37048,-0.1853 -0.52065,-0.6358 -0.33541,-1.0063c0.18524,-0.3705 0.63575,-0.5206 1.00623,-0.3354c0.88529,0.4427 1.90606,1.2131 2.8745,2.1642z" fill="#002B51"/>
</svg>
