<svg width="24" height="24" viewBox="0 0 24 24" fill="none" xmlns="http://www.w3.org/2000/svg">
<path d="M12.6006,6.97128c1.6101,-2.02973 4.6509,-3.16038 9.0527,-2.76074l0.4297,0.04394l0.1123,0.02051c0.2543,0.06844 0.4574,0.26789 0.5283,0.52734c0.8151,2.98854 0.0079,6.36787 -1.8379,8.55567c-0.9312,1.1037 -2.1506,1.9311 -3.5888,2.2207c-1.2566,0.2529 -2.6224,0.083 -4.0313,-0.5908c-0.9318,1.6611 -1.5155,3.6275 -1.5156,6.0117c0,0.4142 -0.3358,0.75 -0.75,0.75c-0.4142,0 -0.75,-0.3358 -0.75,-0.75c0,-0.5717 0.0313,-1.1217 0.0889,-1.6514c-0.0071,-0.0134 -0.0162,-0.0261 -0.0225,-0.04l-0.0283,-0.0713l-0.0908,-0.2578c-0.39612,-1.0572 -1.06367,-2.1274 -1.84964,-3.1006c-1.27668,0.5087 -2.41059,0.6547 -3.40625,0.459c-1.12875,-0.2219 -1.98529,-0.8634 -2.60743,-1.7051c-1.2077,-1.6345 -1.58397,-4.0852 -1.58398,-6.1328l0.0127,-0.13672c0.05763,-0.3111 0.30782,-0.55914 0.63086,-0.60547l0.35157,-0.04492c1.79537,-0.19926 4.16227,-0.04066 5.87988,0.9502c0.94066,0.54276 1.71813,1.35671 2.04883,2.51371c0.18387,0.6435 0.21923,1.3584 0.09668,2.1445c-1.05099,-1.1351 -2.21323,-2.081 -3.22461,-2.6318l-0.21094,-0.1104l-0.07031,-0.0303c-0.35525,-0.1345 -0.76186,0.0192 -0.93555,0.3662c-0.06091,0.122 -0.08385,0.253 -0.07617,0.3799c0.00387,0.0014 0.00786,0.0025 0.01172,0.0039l0.07031,0.0303l0.21094,0.1104c1.06358,0.5793 2.2943,1.5948 3.38672,2.8085c0.70494,0.7833 1.37248,1.6733 1.91118,2.6133c1.1829,-3.8955 3.9554,-6.4856 6.6503,-8.42087c-0.0104,-0.13085 -0.052,-0.26135 -0.1337,-0.37598c-0.2408,-0.33664 -0.709,-0.41507 -1.0459,-0.1748c-1.6837,1.20262 -3.404,2.65965 -4.753,4.52835c-0.4906,-1.9128 -0.201,-3.88273 1.0391,-5.44632z" fill="#002B51"/>
</svg>
