<svg width="24" height="24" viewBox="0 0 24 24" fill="none" xmlns="http://www.w3.org/2000/svg">
<path d="M12.6006,6.97211c1.6618,-2.09538 4.848,-3.23176 9.4824,-2.7168c0.3057,0.03408 0.5597,0.25112 0.6406,0.54785c0.8149,2.98862 0.008,6.36794 -1.8379,8.55564c-0.9312,1.1037 -2.1505,1.9312 -3.5888,2.2207c-1.2565,0.2529 -2.6224,0.082 -4.0313,-0.5918c-0.9319,1.6613 -1.5156,3.6283 -1.5156,6.0127c-0.0002,0.4141 -0.3359,0.75 -0.75,0.75c-0.4141,0 -0.7498,-0.3359 -0.75,-0.75c0,-0.5718 0.0313,-1.1224 0.0889,-1.6523c-0.007,-0.0132 -0.0163,-0.0253 -0.0225,-0.0391l-0.0283,-0.0713l-0.0908,-0.2578c-0.39606,-1.0572 -1.06275,-2.1283 -1.84867,-3.1015c-1.277,0.5089 -2.41135,0.6556 -3.40722,0.4599c-1.12867,-0.2219 -1.98529,-0.8635 -2.60743,-1.7051c-1.20777,-1.6344 -1.58392,-4.0852 -1.58398,-6.13277c0,-0.37308 0.27431,-0.6892 0.64355,-0.74219c1.82813,-0.26116 4.39928,-0.15176 6.23145,0.90527c0.94068,0.54282 1.71822,1.35669 2.04883,2.51369c0.29164,1.0211 0.20884,2.2197 -0.28516,3.6015c0.53442,0.6458 1.03453,1.3481 1.45513,2.0821c0.3224,-1.0617 0.7621,-2.0264 1.2871,-2.9072c-1.1466,-2.3501 -1.1071,-4.9933 0.4697,-6.98149z" fill="#002B51"/>
</svg>
