<svg width="24" height="24" viewBox="0 0 24 24" fill="none" xmlns="http://www.w3.org/2000/svg">
<path d="M12.5996,6.97217c1.6618,-2.09528 4.8484,-3.23157 9.4824,-2.7168c0.3058,0.03398 0.5597,0.25104 0.6407,0.54785c0.8149,2.98865 0.008,6.36798 -1.8379,8.55568c-0.9313,1.1034 -2.1508,1.9312 -3.5889,2.2207c-1.2561,0.2526 -2.6218,0.0825 -4.0303,-0.5908c-0.9317,1.6611 -1.5156,3.6276 -1.5156,6.0117c-0.0002,0.414 -0.3359,0.75 -0.75,0.75c-0.4141,0 -0.7498,-0.336 -0.75,-0.75c0,-0.5719 0.0313,-1.1225 0.0889,-1.6524c-0.007,-0.0133 -0.0162,-0.0261 -0.0225,-0.04l-0.0283,-0.0713l-0.0908,-0.2578c-0.39613,-1.0572 -1.06367,-2.1273 -1.84964,-3.1006c-1.27664,0.5087 -2.41062,0.6547 -3.40625,0.459c-1.12873,-0.2219 -1.9853,-0.8634 -2.60743,-1.7051c-1.20764,-1.6345 -1.58396,-4.0853 -1.58398,-6.13279c0.00026,-0.37286 0.27446,-0.68924 0.64355,-0.74219c1.82805,-0.26113 4.39932,-0.15161 6.23145,0.90528c0.94062,0.54274 1.71812,1.3568 2.04883,2.5137c0.18405,0.6442 0.21875,1.3593 0.0957,2.1465c-1.05114,-1.1354 -2.21206,-2.0829 -3.22363,-2.6338l-0.21094,-0.1104l-0.07031,-0.0303c-0.35522,-0.1344 -0.76184,0.0193 -0.93555,0.3663c-0.06094,0.122 -0.08392,0.2528 -0.07617,0.3798c0.00386,0.0014 0.00786,0.0025 0.01172,0.0039l0.07031,0.0303l0.21094,0.1104c1.06357,0.5793 2.29431,1.5948 3.38672,2.8086c0.70492,0.7832 1.37248,1.6732 1.91118,2.6132c1.1828,-3.8952 3.9555,-6.4847 6.6503,-8.41988c-0.0103,-0.13102 -0.052,-0.26123 -0.1337,-0.37598c-0.2408,-0.33691 -0.7089,-0.4153 -1.0459,-0.1748c-1.6837,1.20262 -3.4041,2.65866 -4.753,4.52736c-0.4905,-1.9127 -0.2016,-3.88179 1.0381,-5.44533z" fill="#002B51"/>
</svg>
