<svg width="24" height="24" viewBox="0 0 24 24" fill="none" xmlns="http://www.w3.org/2000/svg">
<path fill-rule="evenodd" clip-rule="evenodd" d="M12.1299,13.9529c-1.1462,-2.3499 -1.1067,-4.99346 0.47,-6.98146c1.6618,-2.09539 4.8485,-3.23179 9.4829,-2.71683c0.3058,0.03398 0.5598,0.25126 0.6408,0.54808c0.8151,2.98872 0.0081,6.36811 -1.8379,8.55591c-0.9313,1.1038 -2.1508,1.9309 -3.5893,2.2204c-1.2568,0.253 -2.6229,0.0838 -4.0321,-0.5903c-0.9316,1.6609 -1.5143,3.6275 -1.5143,6.0113c0,0.4143 -0.3358,0.75 -0.75,0.75c-0.4142,0 -0.75,-0.3357 -0.75,-0.75c0,-0.5705 0.0301,-1.1196 0.0874,-1.6484c-0.0191,-0.0362 -0.0355,-0.0744 -0.0489,-0.1145c-0.37971,-1.1391 -1.08729,-2.3067 -1.93647,-3.3587c-1.27835,0.5099 -2.41401,0.6549 -3.41076,0.459c-1.12879,-0.2219 -1.98475,-0.8625 -2.6069,-1.7042c-1.20814,-1.6345 -1.58437,-4.0854 -1.58437,-6.1333c0,-0.37324 0.27445,-0.68968 0.64393,-0.74246c1.82813,-0.26117 4.39869,-0.15169 6.23086,0.90534c0.94091,0.54284 1.71883,1.35662 2.04948,2.51392c0.29171,1.021 0.20956,2.2199 -0.28428,3.6015c0.53363,0.6447 1.03271,1.3464 1.45291,2.079c0.3223,-1.0605 0.7626,-2.0242 1.287,-2.9043z" fill="#002B51"/>
</svg>
