<svg width="24" height="24" viewBox="0 0 24 24" fill="none" xmlns="http://www.w3.org/2000/svg">
<path d="M12.6006,6.97211c1.6618,-2.09538 4.848,-3.23176 9.4824,-2.7168c0.3057,0.03408 0.5597,0.25112 0.6406,0.54785c0.8149,2.98862 0.008,6.36794 -1.8379,8.55564c-0.9312,1.1037 -2.1505,1.9312 -3.5888,2.2207c-1.2565,0.2529 -2.6224,0.082 -4.0313,-0.5918c-0.9319,1.6613 -1.5156,3.6283 -1.5156,6.0127c-0.0002,0.4141 -0.3359,0.75 -0.75,0.75c-0.4141,0 -0.7498,-0.3359 -0.75,-0.75c0,-0.5718 0.0313,-1.1224 0.0889,-1.6523c-0.007,-0.0132 -0.0163,-0.0253 -0.0225,-0.0391l-0.0283,-0.0713l-0.0908,-0.2578c-0.39606,-1.0572 -1.06275,-2.1283 -1.84867,-3.1015c-1.277,0.5089 -2.41135,0.6556 -3.40722,0.4599c-1.12867,-0.2219 -1.98529,-0.8635 -2.60743,-1.7051c-1.20777,-1.6344 -1.58392,-4.0852 -1.58398,-6.13277c0,-0.37308 0.27431,-0.6892 0.64355,-0.74219c1.82813,-0.26116 4.39928,-0.15176 6.23145,0.90527c0.94068,0.54282 1.71822,1.35669 2.04883,2.51369c0.29164,1.0211 0.20884,2.2197 -0.28516,3.6015c0.53442,0.6458 1.03453,1.3481 1.45513,2.0821c0.3224,-1.0617 0.7621,-2.0264 1.2871,-2.9072c-1.1466,-2.3501 -1.1071,-4.9933 0.4697,-6.98149zM6.875,9.96234c-1.23785,-0.71404 -3.05615,-0.91222 -4.61035,-0.79199c0.07749,1.73855 0.46413,3.47235 1.27637,4.57125c0.44027,0.5956 0.99031,0.9866 1.68945,1.1241c0.53068,0.1043 1.19656,0.0663 2.03125,-0.1973c-0.78056,-0.7816 -1.57444,-1.4096 -2.25,-1.8076l-0.34668,-0.1895l-0.06738,-0.0381c-0.32073,-0.2033 -0.44164,-0.6206 -0.26856,-0.9677c0.17363,-0.3473 0.58016,-0.5009 0.93555,-0.3662l0.07031,0.0302l0.21094,0.1104c0.83393,0.4542 1.769,1.1779 2.66113,2.0537c0.18535,-0.7928 0.1647,-1.4163 0.02539,-1.9043c-0.20058,-0.702 -0.67343,-1.2323 -1.35742,-1.62696zM21.3926,5.69476c-4.0474,-0.3422 -6.4535,0.74175 -7.6172,2.20899c-0.9796,1.23515 -1.1944,2.89075 -0.6299,4.56935c1.2927,-1.6576 2.8712,-2.97747 4.419,-4.08302c0.337,-0.24052 0.8052,-0.16217 1.0459,0.1748c0.2403,0.33702 0.162,0.80526 -0.1749,1.0459c-1.5881,1.13442 -3.1409,2.45312 -4.3496,4.10352c1.0814,0.4804 2.0603,0.5666 2.9151,0.3945c1.0455,-0.2105 1.9822,-0.8209 2.7383,-1.7168c1.4289,-1.6936 2.127,-4.31206 1.6533,-6.69724z" fill="#002B51"/>
</svg>
