<svg width="24" height="24" viewBox="0 0 24 24" fill="none" xmlns="http://www.w3.org/2000/svg">
<path fill-rule="evenodd" clip-rule="evenodd" d="M19.7393,12.3913c1.4291,-1.6937 2.1278,-4.31191 1.6539,-6.69721c-4.0479,-0.34244 -6.4543,0.74206 -7.6181,2.20944c-1.17,1.47528 -1.2553,3.55347 -0.2172,5.55047c1.292,0.7083 2.4509,0.8541 3.4426,0.6545c1.0458,-0.2105 1.9826,-0.821 2.7388,-1.7172zM22.7236,4.80269c0.8151,2.98872 0.0081,6.36811 -1.8379,8.55591c-0.9313,1.1038 -2.1508,1.9309 -3.5893,2.2204c-1.2569,0.253 -2.6232,0.0837 -4.0324,-0.5905c-0.9251,1.648 -1.514,3.611 -1.514,6.0115c0,0.4143 -0.3358,0.75 -0.75,0.75c-0.4142,0 -0.75,-0.3357 -0.75,-0.75c0,-0.5697 0.0301,-1.1187 0.0876,-1.648c-0.0192,-0.0363 -0.0357,-0.0747 -0.0491,-0.1149c-0.37926,-1.1377 -1.08603,-2.3051 -1.93648,-3.3587c-1.27834,0.5099 -2.414,0.6549 -3.41075,0.459c-1.12879,-0.2219 -1.98475,-0.8625 -2.6069,-1.7042c-1.20814,-1.6345 -1.58437,-4.0854 -1.58437,-6.1333c0,-0.37324 0.27445,-0.68968 0.64393,-0.74246c1.82813,-0.26117 4.39869,-0.15169 6.23086,0.90534c0.94091,0.54284 1.71883,1.35662 2.04948,2.51392c0.29171,1.021 0.20956,2.2199 -0.28428,3.6015c0.53335,0.6443 1.03281,1.3464 1.45341,2.0799c0.3213,-1.0571 0.7606,-2.0215 1.2867,-2.9049c-1.1464,-2.35 -1.107,-4.99368 0.4698,-6.98176c1.6618,-2.09539 4.8485,-3.23179 9.4829,-2.71683c0.3058,0.03398 0.5598,0.25126 0.6408,0.54808zM6.87521,9.96206c-1.23781,-0.71413 -3.05611,-0.91193 -4.61037,-0.79172c0.07749,1.73866 0.46351,3.47226 1.27579,4.57126c0.44035,0.5958 0.99064,0.9865 1.68997,1.1239c0.66245,0.1303 1.53872,0.0488 2.68704,-0.4298c0.47877,-1.2588 0.50488,-2.18 0.31434,-2.8469c-0.2006,-0.7021 -0.67268,-1.2321 -1.35677,-1.62674z" fill="#002B51"/>
</svg>
