<svg width="24" height="24" viewBox="0 0 24 24" fill="none" xmlns="http://www.w3.org/2000/svg">
<path d="M12.6006,6.97221c1.61,-2.02997 4.6506,-3.1604 9.0527,-2.76074l0.4297,0.04395l0.1123,0.02051c0.2544,0.06853 0.4575,0.26779 0.5283,0.52734c0.8149,2.98859 0.008,6.36803 -1.8379,8.55563c-0.9312,1.1037 -2.1505,1.9312 -3.5888,2.2207c-1.2566,0.2529 -2.6224,0.0821 -4.0313,-0.5918c-0.9318,1.6612 -1.5155,3.6276 -1.5156,6.0118c0,0.4142 -0.3358,0.75 -0.75,0.75c-0.4142,0 -0.75,-0.3358 -0.75,-0.75c0,-0.5717 0.0313,-1.1217 0.0889,-1.6514c-0.0071,-0.0134 -0.0162,-0.0261 -0.0225,-0.04l-0.0283,-0.0713l-0.0908,-0.2578c-0.39612,-1.0573 -1.06367,-2.1274 -1.84964,-3.1006c-1.27668,0.5087 -2.41059,0.6546 -3.40625,0.4589c-1.12876,-0.2219 -1.98529,-0.8633 -2.60743,-1.705c-1.20771,-1.6345 -1.58397,-4.0853 -1.58398,-6.13284l0.0127,-0.13672c0.05762,-0.31112 0.30782,-0.55914 0.63086,-0.60547l0.35157,-0.04492c1.79537,-0.19926 4.16227,-0.04066 5.87988,0.95019c0.94066,0.54277 1.71814,1.35676 2.04883,2.51366c0.29173,1.0211 0.20868,2.2199 -0.28516,3.6016c0.5346,0.6459 1.03443,1.3488 1.45513,2.083c0.3223,-1.0617 0.7621,-2.0264 1.2871,-2.9072c-1.1466,-2.3501 -1.1071,-4.99327 0.4697,-6.98149zM6.875,9.96147c-1.23783,-0.71395 -3.05623,-0.91221 -4.61035,-0.79199c0.07743,1.73862 0.46419,3.47222 1.27637,4.57132c0.44029,0.5957 0.99024,0.9865 1.68945,1.124c0.53069,0.1043 1.19654,0.0673 2.03125,-0.1963c-0.78066,-0.7818 -1.57437,-1.4106 -2.25,-1.8086l-0.34668,-0.1894l-0.06738,-0.0381c-0.32072,-0.2035 -0.44188,-0.6207 -0.26856,-0.9678c0.17369,-0.347 0.58029,-0.5007 0.93555,-0.3662l0.07031,0.0303l0.21094,0.1103c0.834,0.4543 1.76891,1.1788 2.66113,2.0547c0.18543,-0.7931 0.16481,-1.4172 0.02539,-1.9053c-0.20066,-0.7019 -0.67344,-1.2323 -1.35742,-1.62693zM21.3926,5.69487c-4.0474,-0.3422 -6.4535,0.74175 -7.6172,2.20899c-0.9793,1.23488 -1.1949,2.89014 -0.6309,4.56834c1.2928,-1.6576 2.8721,-2.97742 4.42,-4.08299c0.3369,-0.24025 0.8051,-0.16183 1.0459,0.1748c0.2404,0.33697 0.1619,0.80516 -0.1749,1.0459c-1.588,1.13439 -3.1409,2.45329 -4.3496,4.10349c1.0815,0.4806 2.0602,0.5676 2.9151,0.3955c1.0455,-0.2105 1.9823,-0.8209 2.7383,-1.7168c1.4289,-1.6935 2.1269,-4.31209 1.6533,-6.69723z" fill="#002B51"/>
</svg>
