<svg width="24" height="24" viewBox="0 0 24 24" fill="none" xmlns="http://www.w3.org/2000/svg">
<path fill-rule="evenodd" clip-rule="evenodd" d="M20.25,12c0,-4.55635 -3.6937,-8.25 -8.25,-8.25c-4.55635,0 -8.25,3.69365 -8.25,8.25c0,4.5563 3.69365,8.25 8.25,8.25c4.5563,0 8.25,-3.6937 8.25,-8.25zM21.75,12c0,5.3848 -4.3652,9.75 -9.75,9.75c-5.38478,0 -9.75,-4.3652 -9.75,-9.75c0,-5.38478 4.36522,-9.75 9.75,-9.75c5.3848,0 9.75,4.36522 9.75,9.75zM9,8.89453c0.00017,-0.91653 0.94219,-1.50006 1.7461,-1.14746l0.1592,0.08301l5.0459,3.10542c0.793,0.4882 0.793,1.6408 0,2.129l-5.0459,3.1054c-0.8328,0.5125 -1.90512,-0.0867 -1.9053,-1.0644z" fill="#002B51"/>
</svg>
