<svg width="24" height="24" viewBox="0 0 24 24" fill="none" xmlns="http://www.w3.org/2000/svg">
<path fill-rule="evenodd" clip-rule="evenodd" d="M12,3.75c-4.55635,0 -8.25,3.69365 -8.25,8.25c0,4.5563 3.69365,8.25 8.25,8.25c4.5563,0 8.25,-3.6937 8.25,-8.25c0,-4.55635 -3.6937,-8.25 -8.25,-8.25zM2.25,12c0,-5.38478 4.36522,-9.75 9.75,-9.75c5.3848,0 9.75,4.36522 9.75,9.75c0,5.3848 -4.3652,9.75 -9.75,9.75c-5.38478,0 -9.75,-4.3652 -9.75,-9.75zM9,8.89478c0,-0.9779 1.0723,-1.57709 1.9051,-1.06457l5.046,3.10519c0.7932,0.4881 0.7932,1.6411 0,2.1292l-5.046,3.1052c-0.8328,0.5125 -1.9051,-0.0867 -1.9051,-1.0646z" fill="#002B51"/>
</svg>
