<svg width="24" height="24" viewBox="0 0 24 24" fill="none" xmlns="http://www.w3.org/2000/svg">
<path fill-rule="evenodd" clip-rule="evenodd" d="M15.8534,14.0302c-0.1425,0.1424 -0.3365,0.2222 -0.538,0.2203c-0.2013,-0.0021 -0.3935,-0.0855 -0.533,-0.2307l-4.3235,-4.50019c-0.2367,-0.24654 -0.273,-0.61597 -0.1049,-0.90045l0.0842,-0.11601l0.6712,-0.75959c1.2832,-1.45106 3.4121,-1.68116 4.9608,-0.64772l3.126,-3.12605c0.2929,-0.29289 0.7678,-0.29289 1.0607,0c0.2929,0.2929 0.2929,0.76777 0,1.06066l-3.1233,3.12329c1.0604,1.55683 0.9002,3.69596 -0.4806,5.07676zM7.57542,10.9945l1.02475,-1.02476l0.11532,-0.0946c0.12361,-0.08209 0.26993,-0.1261 0.42054,-0.12499c0.20072,0.00148 0.39252,0.08324 0.5324,0.22718l4.36897,4.50017l0.0919,0.114c0.1837,0.2823 0.1582,0.6622 -0.0787,0.9184l-0.924,0.9985c-1.3099,1.416 -3.42585,1.6191 -4.96768,0.5856l-2.62817,2.6281c-0.29281,0.2929 -0.76775,0.2927 -1.06066,0c-0.29289,-0.2928 -0.29289,-0.7677 0,-1.0606l2.6261,-2.6261c-1.05094,-1.5469 -0.8919,-3.6698 0.47923,-5.0409zM14.25,19v-2c0,-0.4142 0.3358,-0.75 0.75,-0.75c0.4142,0 0.75,0.3358 0.75,0.75v2c0,0.4142 -0.3358,0.75 -0.75,0.75c-0.4142,0 -0.75,-0.3358 -0.75,-0.75zM19.75,15c0,0.4142 -0.3358,0.75 -0.75,0.75h-2c-0.4142,0 -0.75,-0.3358 -0.75,-0.75c0,-0.4142 0.3358,-0.75 0.75,-0.75h2c0.4142,0 0.75,0.3358 0.75,0.75zM9.75,5.00001v2c0,0.41421 -0.33579,0.75 -0.75,0.75c-0.41421,0 -0.75,-0.33579 -0.75,-0.75v-2c0,-0.41422 0.33579,-0.75 0.75,-0.75c0.41421,0 0.75,0.33578 0.75,0.75zM4.25,9.00001c0,-0.41422 0.33579,-0.75 0.75,-0.75h2c0.41421,0 0.75,0.33578 0.75,0.75c0,0.41421 -0.33579,0.75 -0.75,0.75h-2c-0.41421,0 -0.75,-0.33579 -0.75,-0.75z" fill="#002B51"/>
</svg>
