<svg width="24" height="24" viewBox="0 0 24 24" fill="none" xmlns="http://www.w3.org/2000/svg">
<path d="M11.4786,7.80448c-0.2401,-0.29452 -0.2226,-0.7288 0.0518,-1.00334l1.5827,-1.58271c1.3709,-1.37095 3.4934,-1.53036 5.0402,-0.47992l0.9281,-0.92808c0.2928,-0.29246 0.7678,-0.29252 1.0606,0c0.2928,0.29278 0.2926,0.76774 0,1.06066l-0.9281,0.92808c1.0509,1.54687 0.8919,3.66977 -0.4792,5.04093l-1.5827,1.5827l-0.0573,0.0518c-0.2946,0.2398 -0.7289,0.2226 -1.0034,-0.0518l-4.5609,-4.561zM17.6741,9.77941c0.9666,-0.96664 0.9666,-2.53437 0,-3.50101c-0.9667,-0.96638 -2.5338,-0.96586 -3.5004,0.00069l-1.0523,1.05238l3.5003,3.50033zM3.75082,20.1367c-0.2929,-0.2929 -0.29289,-0.7677 0,-1.0606l1.02337,-1.0234c-1.05093,-1.5468 -0.8918,-3.6697 0.47923,-5.0409l1.58339,-1.5834l0.05663,-0.0511c0.29458,-0.2403 0.72942,-0.2235 1.00403,0.0511l0.71332,0.7133l1.42801,-1.428c0.2928,-0.2928 0.7678,-0.2926 1.0607,0c0.2926,0.2929 0.2928,0.7679 0,1.0607l-1.42804,1.428l1.01304,1.013l1.428,-1.428c0.2929,-0.2929 0.7678,-0.2929 1.0607,0c0.2924,0.2929 0.2927,0.7679 0,1.0606l-1.4281,1.4281l0.7134,0.7133c0.2925,0.2928 0.2925,0.7678 0,1.0606l-1.5834,1.5834c-1.37094,1.3708 -3.49351,1.5302 -5.04025,0.48l-1.02337,1.0233c-0.29271,0.2927 -0.76772,0.2924 -1.06066,0zM6.31477,17.5728c0.96663,0.966 2.53316,0.9663 3.49963,0l1.0531,-1.0531l-3.50036,-3.5003l-1.05306,1.0531c-0.96649,0.9666 -0.9659,2.5337 0.00069,3.5003z" fill="#002B51"/>
</svg>
