<svg width="24" height="24" viewBox="0 0 24 24" fill="none" xmlns="http://www.w3.org/2000/svg">
<path fill-rule="evenodd" clip-rule="evenodd" d="M12.75,16.5146v4.4854c0,0.4142 -0.3358,0.75 -0.75,0.75c-0.4142,0 -0.75,-0.3358 -0.75,-0.75v-4.4854h-0.25c-2.62335,0 -4.75,-2.1266 -4.75,-4.75v-4.47065l0.00391,-0.07618c0.03825,-0.37835 0.35765,-0.67382 0.74609,-0.67382h1.97754v-3.54395c0,-0.41421 0.33579,-0.75 0.75,-0.75c0.41406,0.00014 0.74996,0.33588 0.74996,0.75v3.54395h3.045v-3.54395c0,-0.41412 0.3359,-0.74986 0.75,-0.75c0.4142,0 0.75,0.33579 0.75,0.75v3.54395h1.9775c0.4142,0 0.7499,0.33586 0.75,0.75v4.47065c0,2.6234 -2.1266,4.75 -4.75,4.75z" fill="#002B51"/>
</svg>
