<svg width="24" height="24" viewBox="0 0 24 24" fill="none" xmlns="http://www.w3.org/2000/svg">
<path fill-rule="evenodd" clip-rule="evenodd" d="M17.1337,8.15366c1.0604,1.55683 0.9001,3.69604 -0.4807,5.07684l-1.591,1.591c-0.0669,0.067 -0.1434,0.1186 -0.225,0.155l-1.393,1.393c-1.3711,1.3711 -3.49467,1.5312 -5.04154,0.4804l-2.87209,2.8721c-0.29289,0.2929 -0.76776,0.2929 -1.06066,0c-0.29289,-0.2929 -0.2929,-0.7678 0,-1.0607l2.87209,-2.8721c-1.05088,-1.5469 -0.89075,-3.6704 0.48037,-5.0415l1.58299,-1.58302l0.00051,-0.00051l1.59053,-1.59048c1.3808,-1.38083 3.52,-1.54106 5.0768,-0.48069l3.1232,-3.12321c0.2929,-0.29289 0.7678,-0.29289 1.0607,0c0.2929,0.2929 0.2929,0.76777 0,1.06066zM14.5317,13.2305l1.0606,-1.0606c0.9764,-0.9763 0.9764,-2.55924 0,-3.53555c-0.9763,-0.97631 -2.5592,-0.97631 -3.5355,0l-1.0606,1.06066l0.7136,0.71359l2.0732,2.0733zM8.88283,15.3088c0.96664,0.9667 2.53387,0.9667 3.50047,0l1.0527,-1.0526l-0.7136,-0.7137l-2.0733,-2.0732l-0.71361,-0.7136l-1.05266,1.0526c-0.96663,0.9667 -0.96663,2.5339 0,3.5005zM15,16.25c0.4142,0 0.75,0.3358 0.75,0.75v2c0,0.4142 -0.3358,0.75 -0.75,0.75c-0.4142,0 -0.75,-0.3358 -0.75,-0.75v-2c0,-0.4142 0.3358,-0.75 0.75,-0.75zM17,15.75c-0.4142,0 -0.75,-0.3358 -0.75,-0.75c0,-0.4142 0.3358,-0.75 0.75,-0.75h2c0.4142,0 0.75,0.3358 0.75,0.75c0,0.4142 -0.3358,0.75 -0.75,0.75zM9,7.75001c-0.41421,0 -0.75,-0.33579 -0.75,-0.75v-2c0,-0.41421 0.33579,-0.75 0.75,-0.75c0.41421,0 0.75,0.33579 0.75,0.75v2c0,0.41421 -0.33579,0.75 -0.75,0.75zM7,8.25001c0.41421,0 0.75,0.33578 0.75,0.75c0,0.41421 -0.33579,0.75 -0.75,0.75h-2c-0.41421,0 -0.75,-0.33579 -0.75,-0.75c0,-0.41422 0.33579,-0.75 0.75,-0.75z" fill="#002B51"/>
</svg>
