<svg width="24" height="24" viewBox="0 0 24 24" fill="none" xmlns="http://www.w3.org/2000/svg">
<path fill-rule="evenodd" clip-rule="evenodd" d="M6.25,7.31056l-2.78016,-2.78016l-0.05175,-0.05664c-0.24031,-0.29458 -0.22285,-0.7293 0.05175,-1.0039c0.27461,-0.27461 0.70933,-0.29207 1.00391,-0.05176l0.05664,0.05176l16.00001,16.00004l0.0517,0.0566c0.2404,0.2946 0.2229,0.7293 -0.0517,1.0039c-0.2746,0.2746 -0.7093,0.2921 -1.0039,0.0518l-0.0567,-0.0518l-4.4604,-4.4605c-0.6103,0.2854 -1.2912,0.4447 -2.0094,0.4447h-0.25v4.4854c0,0.4142 -0.3358,0.75 -0.75,0.75c-0.4142,0 -0.75,-0.3358 -0.75,-0.75v-4.4854h-0.25c-2.62336,0 -4.75,-2.1266 -4.75,-4.75zM7.75,8.81056v2.95404c0,1.795 1.45507,3.25 3.25,3.25h2c0.2918,0 0.5745,-0.0384 0.8435,-0.1105zM16.25,8.04395h-5.1455l-2.12697,-2.12695v-2.917c0,-0.41421 0.33579,-0.75 0.75,-0.75c0.41407,0.00014 0.74997,0.33588 0.74997,0.75v3.54395h3.045v-3.54395c0,-0.41412 0.3359,-0.74986 0.75,-0.75c0.4142,0 0.75,0.33579 0.75,0.75v3.54395h1.9775c0.4142,0 0.7499,0.33586 0.75,0.75v4.47065c0,0.8428 -0.2195,1.6343 -0.6044,2.3205l-1.1232,-1.1232c0.1469,-0.3705 0.2276,-0.7745 0.2276,-1.1973z" fill="#002B51"/>
</svg>
