<svg width="24" height="24" viewBox="0 0 24 24" fill="none" xmlns="http://www.w3.org/2000/svg">
<path fill-rule="evenodd" clip-rule="evenodd" d="M9.72727,2.25c0.41423,0 0.75003,0.33579 0.75003,0.75v3.54412h3.0454v-3.54412c0,-0.41421 0.3358,-0.75 0.75,-0.75c0.4142,0 0.75,0.33579 0.75,0.75v3.54412h1.9773c0.4142,0 0.75,0.33578 0.75,0.75v4.47058c0,2.6234 -2.1266,4.75 -4.75,4.75h-0.25v4.4853c0,0.4142 -0.3358,0.75 -0.75,0.75c-0.4142,0 -0.75,-0.3358 -0.75,-0.75v-4.4853h-0.25c-2.62335,0 -4.75,-2.1266 -4.75,-4.75v-4.47058c0,-0.41422 0.33579,-0.75 0.75,-0.75h1.97727v-3.54412c0,-0.41421 0.33579,-0.75 0.75,-0.75zM7.75,8.04412v3.72058c0,1.7949 1.45507,3.25 3.25,3.25h1h1c1.7949,0 3.25,-1.4551 3.25,-3.25v-3.72058h-1.9773h-4.54543z" fill="#002B51"/>
</svg>
