<svg width="24" height="24" viewBox="0 0 24 24" fill="none" xmlns="http://www.w3.org/2000/svg">
<path fill-rule="evenodd" clip-rule="evenodd" d="M20.2569,3.96979c0.2929,0.2929 0.2929,0.76777 0,1.06066l-3.1232,3.12321c1.0604,1.55683 0.9001,3.69604 -0.4807,5.07684l-0.7999,0.8c-0.1425,0.1424 -0.3363,0.2216 -0.5379,0.2196c-0.2015,-0.002 -0.3937,-0.0851 -0.5333,-0.2304l-4.3228,-4.50001c-0.2706,-0.28166 -0.2797,-0.72382 -0.021,-1.0164l0.6717,-0.75956c1.2832,-1.45109 3.412,-1.68175 4.9608,-0.64825l3.1256,-3.12569c0.2929,-0.29289 0.7678,-0.29289 1.0607,0zM14.0381,14.4776c0.2776,0.2859 0.2831,0.7391 0.0125,1.0317l-0.9237,0.9987c-1.3101,1.4165 -3.42759,1.6212 -4.96959,0.5871l-2.62695,2.627c-0.29289,0.2929 -0.76777,0.2929 -1.06066,0c-0.2929,-0.2929 -0.2929,-0.7678 -0.00001,-1.0607l2.62538,-2.6254c-1.05088,-1.5469 -0.89075,-3.6704 0.48037,-5.0415l1.02473,-1.02476c0.14201,-0.14201 0.33503,-0.22113 0.53585,-0.21965c0.20082,0.00148 0.39266,0.08343 0.53256,0.22751zM15,16.25c0.4142,0 0.75,0.3358 0.75,0.75v2c0,0.4142 -0.3358,0.75 -0.75,0.75c-0.4142,0 -0.75,-0.3358 -0.75,-0.75v-2c0,-0.4142 0.3358,-0.75 0.75,-0.75zM17,15.75c-0.4142,0 -0.75,-0.3358 -0.75,-0.75c0,-0.4142 0.3358,-0.75 0.75,-0.75h2c0.4142,0 0.75,0.3358 0.75,0.75c0,0.4142 -0.3358,0.75 -0.75,0.75zM9,7.75001c-0.41421,0 -0.75,-0.33579 -0.75,-0.75v-2c0,-0.41422 0.33579,-0.75 0.75,-0.75c0.41421,0 0.75,0.33578 0.75,0.75v2c0,0.41421 -0.33579,0.75 -0.75,0.75zM7,8.25001c0.41421,0 0.75,0.33578 0.75,0.75c0,0.41421 -0.33579,0.75 -0.75,0.75h-2c-0.41421,0 -0.75,-0.33579 -0.75,-0.75c0,-0.41422 0.33579,-0.75 0.75,-0.75z" fill="#002B51"/>
</svg>
