<svg width="24" height="24" viewBox="0 0 24 24" fill="none" xmlns="http://www.w3.org/2000/svg">
<path fill-rule="evenodd" clip-rule="evenodd" d="M4.81122,20.1364c-0.29281,0.2928 -0.76775,0.2927 -1.06066,0c-0.29289,-0.2929 -0.29289,-0.7677 0,-1.0606l1.02337,-1.0234c-1.05093,-1.5468 -0.8918,-3.6697 0.47923,-5.0409l1.5834,-1.5834l0.05662,-0.0511c0.29458,-0.2404 0.72942,-0.2235 1.00404,0.0511l0.71332,0.7133l1.42806,-1.428c0.2928,-0.2928 0.7677,-0.2926 1.0606,0c0.2929,0.2929 0.2929,0.7678 0,1.0607l-1.428,1.428l1.013,1.013l1.428,-1.428c0.2929,-0.2929 0.7678,-0.2929 1.0607,0c0.2928,0.2929 0.2929,0.7678 0,1.0606l-1.428,1.4281l0.7133,0.7133c0.2928,0.2928 0.2926,0.7677 0,1.0606l-1.5834,1.5834c-1.371,1.3709 -3.49343,1.5304 -5.04021,0.48zM13.1133,5.21829c1.3709,-1.37097 3.4934,-1.53039 5.0402,-0.47993l0.9281,-0.92807c0.2928,-0.29247 0.7678,-0.29253 1.0606,0c0.2928,0.29277 0.2926,0.76774 0,1.06066l-0.9281,0.92807c1.0509,1.54687 0.8919,3.66977 -0.4792,5.04088l-1.5827,1.5827l-0.0573,0.0518c-0.2946,0.24 -0.7289,0.2227 -1.0034,-0.0518l-4.5609,-4.56095l-0.0518,-0.05731c-0.2402,-0.29458 -0.2228,-0.72881 0.0518,-1.00335z" fill="#002B51"/>
</svg>
