<svg width="24" height="24" viewBox="0 0 24 24" fill="none" xmlns="http://www.w3.org/2000/svg">
<path fill-rule="evenodd" clip-rule="evenodd" d="M9.67118,13.2026l1.01262,1.0126l1.4283,-1.4282c0.2929,-0.2929 0.7677,-0.2929 1.0606,0c0.2929,0.2928 0.2929,0.7677 0,1.0606l-1.4283,1.4283l0.7137,0.7136c0.2928,0.2929 0.2928,0.7678 0,1.0607l-1.583,1.583c-1.37116,1.3711 -3.49471,1.5312 -5.04157,0.4803l-1.02262,1.0227c-0.2929,0.2929 -0.76777,0.2929 -1.06067,0c-0.29289,-0.2929 -0.29289,-0.7678 0,-1.0607l1.02263,-1.0226c-1.05088,-1.5469 -0.89075,-3.6704 0.48037,-5.0415l1.58299,-1.583c0.2929,-0.2929 0.76777,-0.2929 1.06066,0l0.71363,0.7136l1.42828,-1.4283c0.2929,-0.2929 0.7678,-0.2929 1.0607,0c0.2929,0.2929 0.2929,0.7678 0,1.0607zM6.3139,17.5725c0.96664,0.9666 2.53387,0.9666 3.5005,0l1.0527,-1.0526l-0.7137,-0.7137l-2.07321,-2.0732l-0.71363,-0.7136l-1.05266,1.0526c-0.96663,0.9666 -0.96663,2.5339 0,3.5005zM14.8475,11.1787l-2.0732,-2.07328l-1.244,-1.24395c-0.2929,-0.2929 -0.2929,-0.76777 0,-1.06067l1.583,-1.58299c1.3711,-1.37112 3.4947,-1.53125 5.0415,-0.48037l0.9266,-0.92655c0.2929,-0.2929 0.7678,-0.2929 1.0607,0c0.2929,0.29289 0.2929,0.76776 0,1.06066l-0.9266,0.92655c1.0509,1.54686 0.8908,3.67041 -0.4804,5.0415l-1.583,1.583c-0.2929,0.2929 -0.7677,0.2929 -1.0606,0zM17.6745,6.27847c-0.9667,-0.96663 -2.5339,-0.96663 -3.5005,0l-1.0527,1.05266l0.7136,0.71363l2.0733,2.07324l0.7136,0.7136l1.0527,-1.05263c0.9666,-0.96663 0.9666,-2.53386 0,-3.5005z" fill="#002B51"/>
</svg>
