<svg width="24" height="24" viewBox="0 0 24 24" fill="none" xmlns="http://www.w3.org/2000/svg">
<path fill-rule="evenodd" clip-rule="evenodd" d="M9.67124,13.2026l1.01256,1.0126l1.4283,-1.4282c0.2929,-0.2929 0.7678,-0.2929 1.0607,0c0.2929,0.2928 0.2929,0.7677 0,1.0606l-1.4283,1.4283l0.7136,0.7136c0.2929,0.2929 0.2929,0.7678 0,1.0607l-1.583,1.583c-1.3711,1.3711 -3.49465,1.5312 -5.04151,0.4803l-1.02262,1.0227c-0.2929,0.2929 -0.76777,0.2929 -1.06066,0c-0.2929,-0.2929 -0.2929,-0.7678 0,-1.0607l1.02262,-1.0226c-1.05088,-1.5469 -0.89075,-3.6704 0.48037,-5.0415l1.58299,-1.583c0.2929,-0.2929 0.76777,-0.2929 1.06066,0l0.71363,0.7136l1.42832,-1.4283c0.2929,-0.2929 0.7677,-0.2929 1.0606,0c0.2929,0.2929 0.2929,0.7678 0,1.0607zM17.1522,12.4226c-0.2929,0.2929 -0.7678,0.2929 -1.0607,0l-1.2439,-1.2439l-2.0733,-2.07328l-1.2439,-1.24395c-0.2929,-0.2929 -0.2929,-0.76777 0,-1.06067l1.583,-1.58299c1.3711,-1.37112 3.4946,-1.53125 5.0415,-0.48037l0.9266,-0.92655c0.2929,-0.2929 0.7677,-0.2929 1.0606,0c0.2929,0.29289 0.2929,0.76776 0,1.06066l-0.9265,0.92655c1.0508,1.54686 0.8907,3.67041 -0.4804,5.0415z" fill="#002B51"/>
</svg>
