<svg width="24" height="24" viewBox="0 0 24 24" fill="none" xmlns="http://www.w3.org/2000/svg">
<path fill-rule="evenodd" clip-rule="evenodd" d="M13.4441,16.369c-1.371,1.371 -3.49339,1.5304 -5.04021,0.4799l-2.87332,2.8734c-0.29281,0.2927 -0.76775,0.2926 -1.06066,0c-0.29288,-0.2929 -0.29286,-0.7678 0,-1.0607l2.87332,-2.8733c-1.0509,-1.5469 -0.89191,-3.6698 0.47923,-5.0409l1.5827,-1.58272l1.59094,-1.59099c1.3809,-1.38083 3.52,-1.54097 5.0769,-0.48061l3.1232,-3.12329c0.2929,-0.29289 0.7678,-0.29289 1.0607,0c0.2929,0.2929 0.2929,0.76777 0,1.06066l-3.1233,3.12329c1.0604,1.55683 0.9002,3.69596 -0.4806,5.07676l-1.591,1.591c-0.0671,0.0672 -0.1438,0.1189 -0.2256,0.1552zM14.5317,13.2305l1.0606,-1.0606c0.9764,-0.9763 0.9764,-2.55924 0,-3.53555c-0.9763,-0.97631 -2.5592,-0.97631 -3.5355,0l-1.0606,1.06066zM8.88312,11.808c-0.96664,0.9667 -0.96664,2.5344 0,3.501c0.96665,0.9664 2.53378,0.9659 3.50028,-0.0006l1.0524,-1.0524l-3.50031,-3.5003zM14.25,19v-2c0,-0.4142 0.3358,-0.75 0.75,-0.75c0.4142,0 0.75,0.3358 0.75,0.75v2c0,0.4142 -0.3358,0.75 -0.75,0.75c-0.4142,0 -0.75,-0.3358 -0.75,-0.75zM19.75,15c0,0.4142 -0.3358,0.75 -0.75,0.75h-2c-0.4142,0 -0.75,-0.3358 -0.75,-0.75c0,-0.4142 0.3358,-0.75 0.75,-0.75h2c0.4142,0 0.75,0.3358 0.75,0.75zM9.75,5.00001v2c0,0.41421 -0.33579,0.75 -0.75,0.75c-0.41422,0 -0.75,-0.33579 -0.75,-0.75v-2c0,-0.41422 0.33578,-0.75 0.75,-0.75c0.41421,0 0.75,0.33578 0.75,0.75zM4.25,9.00001c0,-0.41422 0.33578,-0.75 0.75,-0.75h2c0.41421,0 0.75,0.33578 0.75,0.75c0,0.41421 -0.33579,0.75 -0.75,0.75h-2c-0.41422,0 -0.75,-0.33579 -0.75,-0.75z" fill="#002B51"/>
</svg>
