<svg width="24" height="24" viewBox="0 0 24 24" fill="none" xmlns="http://www.w3.org/2000/svg">
<path fill-rule="evenodd" clip-rule="evenodd" d="M9.72725,2.25c0.41425,0 0.75005,0.33579 0.75005,0.75v3.54412h3.0454v-3.54412c0,-0.41421 0.3358,-0.75 0.75,-0.75c0.4142,0 0.75,0.33579 0.75,0.75v3.54412h1.9773c0.4142,0 0.75,0.33578 0.75,0.75v4.47058c0,0.8427 -0.2195,1.6342 -0.6043,2.3203l-1.1233,-1.1232c0.1469,-0.3705 0.2276,-0.7744 0.2276,-1.1971v-3.72058h-1.9773h-3.168l-2.12745,-2.12747v-2.91665c0,-0.41421 0.33579,-0.75 0.75,-0.75zM13,16.5147h-0.25v4.4853c0,0.4142 -0.3358,0.75 -0.75,0.75c-0.4142,0 -0.75,-0.3358 -0.75,-0.75v-4.4853h-0.25c-2.62337,0 -4.75002,-2.1266 -4.75002,-4.75v-4.45403l-2.78033,-2.78033c-0.29289,-0.29289 -0.29289,-0.76776 0,-1.06066c0.2929,-0.29289 0.76777,-0.29289 1.06066,0l15.99999,16.00002c0.2929,0.2929 0.2929,0.7677 0,1.0606c-0.2929,0.2929 -0.7678,0.2929 -1.0606,0l-4.4604,-4.4603c-0.6102,0.2853 -1.2912,0.4447 -2.0093,0.4447zM13.8435,14.9042l-6.09352,-6.09353v2.95403c0,1.7949 1.45508,3.25 3.25002,3.25h1h1c0.2917,0 0.5745,-0.0384 0.8435,-0.1105z" fill="#002B51"/>
</svg>
