<svg width="24" height="24" viewBox="0 0 24 24" fill="none" xmlns="http://www.w3.org/2000/svg">
<path d="M3.46977,3.46973c0.27456,-0.27456 0.70933,-0.29195 1.0039,-0.05176l0.05664,0.05176l15.99999,15.99997l0.0518,0.0567c0.2403,0.2945 0.2228,0.7293 -0.0518,1.0039c-0.2746,0.2746 -0.7093,0.292 -1.0039,0.0517l-0.0566,-0.0517l-4.4629,-4.4629c-0.6099,0.2852 -1.2891,0.4472 -2.0069,0.4472h-0.25v4.4854c0,0.4142 -0.3357,0.75 -0.75,0.75c-0.4142,0 -0.75,-0.3358 -0.75,-0.75v-4.4854h-0.25c-2.62331,0 -4.74996,-2.1266 -4.74996,-4.75v-4.45405l-2.78027,-2.78028l-0.05176,-0.05664c-0.24019,-0.29458 -0.2228,-0.72934 0.05176,-1.0039zM7.75004,11.7646c0,1.795 1.45508,3.25 3.24996,3.25h2c0.2917,0 0.574,-0.039 0.8428,-0.1113l-6.09276,-6.09275zM14.2725,2.25c0.4142,0 0.75,0.33579 0.75,0.75v3.54395h1.9775c0.4142,0 0.7499,0.33586 0.75,0.75v4.47065c0,0.8426 -0.2206,1.6333 -0.6054,2.3194l-1.1241,-1.124c0.1467,-0.3703 0.2295,-0.7729 0.2295,-1.1954v-3.72065h-5.1455l-2.12692,-2.12696v-2.91699c0,-0.41421 0.33579,-0.75 0.75,-0.75c0.41412,0.00015 0.75002,0.33588 0.75002,0.75v3.54395h3.0449v-3.54395c0,-0.41412 0.3359,-0.74986 0.75,-0.75z" fill="#002B51"/>
</svg>
