<svg width="24" height="24" viewBox="0 0 24 24" fill="none" xmlns="http://www.w3.org/2000/svg">
<path d="M9.13574,9.75006c0.20069,0.00148 0.39235,0.08363 0.53223,0.22754l4.36913,4.5l0.0918,0.1143c0.1836,0.2823 0.1587,0.6618 -0.0781,0.9179l-0.9238,0.9981c-1.3099,1.4159 -3.426,1.6194 -4.96782,0.5859l-2.62891,2.6279c-0.29282,0.2928 -0.76765,0.2927 -1.06054,0c-0.29252,-0.2929 -0.29271,-0.7677 0,-1.0605l2.62597,-2.626c-1.05072,-1.5468 -0.89155,-3.6699 0.4795,-5.041l1.02539,-1.02441l0.11523,-0.09473c0.12348,-0.08193 0.26951,-0.12605 0.41992,-0.125zM15,16.2501c0.4142,0 0.75,0.3357 0.75,0.75v2c-0.0001,0.4141 -0.3358,0.75 -0.75,0.75c-0.4142,0 -0.7499,-0.3359 -0.75,-0.75v-2c0,-0.4143 0.3358,-0.75 0.75,-0.75zM19,14.2501c0.4142,0 0.75,0.3357 0.75,0.75c-0.0001,0.4141 -0.3358,0.75 -0.75,0.75h-2c-0.4142,0 -0.7499,-0.3359 -0.75,-0.75c0,-0.4143 0.3358,-0.75 0.75,-0.75zM19.1963,3.96979c0.2929,-0.29289 0.7676,-0.29289 1.0605,0c0.2929,0.29289 0.2929,0.76765 0,1.06055l-3.123,3.12304c1.0603,1.55679 0.9002,3.69632 -0.4805,5.07712l-0.7998,0.7998c-0.1424,0.1425 -0.3366,0.2217 -0.5381,0.2198c-0.2013,-0.0021 -0.3936,-0.0854 -0.5332,-0.2305l-4.3232,-4.50001c-0.2367,-0.24646 -0.2734,-0.61594 -0.1055,-0.90039l0.085,-0.11621l0.6709,-0.75976c1.2832,-1.45094 3.4122,-1.68087 4.9609,-0.64746zM7,8.25006c0.41421,0 0.75,0.33579 0.75,0.75c-0.00006,0.41416 -0.33582,0.75 -0.75,0.75h-2c-0.41418,0 -0.74994,-0.33584 -0.75,-0.75c0,-0.41421 0.33579,-0.75 0.75,-0.75zM9,4.25006c0.41421,0 0.75,0.33579 0.75,0.75v2c-0.00006,0.41416 -0.33582,0.75 -0.75,0.75c-0.41418,0 -0.74994,-0.33584 -0.75,-0.75v-2c0,-0.41421 0.33579,-0.75 0.75,-0.75z" fill="#002B51"/>
</svg>
