<svg width="24" height="24" viewBox="0 0 24 24" fill="none" xmlns="http://www.w3.org/2000/svg">
<path d="M3.46973,3.46973c0.27456,-0.27456 0.70933,-0.29195 1.0039,-0.05176l0.05664,0.05176l16.00003,15.99997l0.0517,0.0567c0.2403,0.2945 0.2229,0.7293 -0.0517,1.0039c-0.2746,0.2746 -0.7094,0.292 -1.0039,0.0517l-0.0567,-0.0517l-4.4629,-4.4629c-0.6098,0.2852 -1.289,0.4472 -2.0068,0.4472h-0.25v4.4854c0,0.4142 -0.3358,0.75 -0.75,0.75c-0.4142,0 -0.75,-0.3358 -0.75,-0.75v-4.4854h-0.25c-2.62335,0 -4.75,-2.1266 -4.75,-4.75v-4.45405l-2.78027,-2.78028l-0.05176,-0.05664c-0.24019,-0.29458 -0.22281,-0.72934 0.05176,-1.0039zM14.2725,2.25c0.4142,0 0.75,0.33579 0.75,0.75v3.54395h1.9775c0.4142,0 0.7499,0.33586 0.75,0.75v4.47065c0,0.8426 -0.2207,1.6333 -0.6055,2.3194l-8.16696,-8.16701v-2.91699c0,-0.41421 0.33579,-0.75 0.75,-0.75c0.41406,0.00015 0.74996,0.33588 0.74996,0.75v3.54395h3.045v-3.54395c0,-0.41412 0.3359,-0.74986 0.75,-0.75z" fill="#002B51"/>
</svg>
