<svg width="24" height="24" viewBox="0 0 24 24" fill="none" xmlns="http://www.w3.org/2000/svg">
<path fill-rule="evenodd" clip-rule="evenodd" d="M6.31377,14.0722c-0.96649,0.9666 -0.9659,2.5337 0.00069,3.5003c0.96661,0.9663 2.53307,0.9664 3.49963,0l1.05311,-1.0531l-3.50036,-3.5003zM4.81117,20.1364c-0.29281,0.2928 -0.76775,0.2927 -1.06066,0c-0.29289,-0.2929 -0.29289,-0.7677 0,-1.0606l1.02337,-1.0234c-1.05093,-1.5468 -0.8918,-3.6697 0.47923,-5.0409l1.5834,-1.5834l0.05662,-0.0511c0.29458,-0.2404 0.72942,-0.2235 1.00404,0.0511l0.71332,0.7133l1.42801,-1.428c0.2928,-0.2928 0.7678,-0.2926 1.0607,0c0.2929,0.2929 0.2929,0.7678 0,1.0607l-1.42805,1.428l1.01305,1.013l1.428,-1.428c0.2929,-0.2929 0.7678,-0.2929 1.0606,0c0.2928,0.2929 0.2929,0.7678 0,1.0606l-1.428,1.4281l0.7133,0.7133c0.2928,0.2928 0.2927,0.7677 0,1.0606l-1.5834,1.5834c-1.37095,1.3709 -3.49338,1.5304 -5.04016,0.48zM17.6742,9.77926c0.9666,-0.96663 0.9666,-2.53437 0,-3.501c-0.9667,-0.96639 -2.5338,-0.96587 -3.5003,0.00069l-1.0524,1.05237l3.5003,3.50028zM19.0815,3.81029c0.2928,-0.29247 0.7679,-0.29253 1.0607,0c0.2927,0.29277 0.2925,0.76774 0,1.06066l-0.9281,0.92807c1.0509,1.54687 0.8919,3.66977 -0.4792,5.04088l-1.5827,1.5827l-0.0574,0.0518c-0.2945,0.24 -0.7288,0.2227 -1.0033,-0.0518l-4.561,-4.56095l-0.0518,-0.05731c-0.2401,-0.29458 -0.2227,-0.72881 0.0518,-1.00335l1.5827,-1.5827c1.371,-1.37097 3.4934,-1.53039 5.0402,-0.47993z" fill="#002B51"/>
</svg>
