<svg width="24" height="24" viewBox="0 0 24 24" fill="none" xmlns="http://www.w3.org/2000/svg">
<path d="M11.5304,7.8618c-0.2928,-0.29285 -0.2927,-0.76776 0,-1.06066l1.5827,-1.58271c1.371,-1.37095 3.4934,-1.53036 5.0402,-0.47992l0.9281,-0.92808c0.2928,-0.29246 0.7679,-0.29252 1.0607,0c0.2927,0.29278 0.2925,0.76774 0,1.06066l-0.9281,0.92808c1.0509,1.54687 0.8919,3.66977 -0.4792,5.04093l-1.5827,1.5827c-0.293,0.2927 -0.7679,0.2928 -1.0607,0zM3.75086,20.1367c-0.29289,-0.2929 -0.29289,-0.7677 0,-1.0606l1.02337,-1.0234c-1.05093,-1.5468 -0.8918,-3.6697 0.47923,-5.0409l1.5834,-1.5834c0.29291,-0.2926 0.76785,-0.2928 1.06066,0l0.71332,0.7133l1.42806,-1.428c0.2928,-0.2928 0.7677,-0.2926 1.0606,0c0.2926,0.2929 0.2928,0.7679 0,1.0607l-1.428,1.428l1.013,1.013l1.428,-1.428c0.2929,-0.2929 0.7678,-0.2929 1.0607,0c0.2925,0.2929 0.2928,0.7679 0,1.0606l-1.428,1.4281l0.7133,0.7133c0.2925,0.2928 0.2925,0.7678 0,1.0606l-1.5834,1.5834c-1.37089,1.3708 -3.49346,1.5302 -5.04021,0.48l-1.02337,1.0233c-0.2927,0.2927 -0.76772,0.2924 -1.06066,0z" fill="#002B51"/>
</svg>
