<svg width="24" height="24" viewBox="0 0 24 24" fill="none" xmlns="http://www.w3.org/2000/svg">
<path d="M19.1963,3.96985c0.2929,-0.29289 0.7676,-0.29289 1.0605,0c0.2929,0.29289 0.2929,0.76765 0,1.06055l-3.123,3.12304c1.0603,1.55679 0.9002,3.69636 -0.4805,5.07716l-1.5908,1.5908c-0.0658,0.0658 -0.1426,0.1142 -0.2227,0.1504l-1.3955,1.3975c-1.3709,1.3709 -3.4932,1.5298 -5.04,0.4795l-2.87403,2.873c-0.29281,0.2928 -0.76764,0.2926 -1.06054,0c-0.29257,-0.2929 -0.29276,-0.7678 0,-1.0605l2.87304,-2.8731c-1.0507,-1.5468 -0.89156,-3.67 0.4795,-5.041l1.583,-1.58204l1.59083,-1.5918c1.3808,-1.3807 3.5204,-1.54079 5.0771,-0.48046zM15,16.2501c0.4142,0 0.75,0.3358 0.75,0.75v2c-0.0001,0.4142 -0.3358,0.75 -0.75,0.75c-0.4142,0 -0.7499,-0.3358 -0.75,-0.75v-2c0,-0.4142 0.3358,-0.75 0.75,-0.75zM8.88281,11.8077c-0.96652,0.9666 -0.96631,2.5344 0,3.501c0.96666,0.9664 2.53439,0.9666 3.50099,0l1.0517,-1.0527l-3.49995,-3.5zM19,14.2501c0.4142,0 0.75,0.3358 0.75,0.75c-0.0001,0.4142 -0.3358,0.75 -0.75,0.75h-2c-0.4142,0 -0.7499,-0.3358 -0.75,-0.75c0,-0.4142 0.3358,-0.75 0.75,-0.75zM15.5928,8.63391c-0.9763,-0.97626 -2.5598,-0.97617 -3.5362,0l-1.0615,1.06055l3.5361,3.53614l1.0616,-1.0606c0.9762,-0.9763 0.9762,-2.55982 0,-3.53609zM7,8.25012c0.41421,0 0.75,0.33579 0.75,0.75c-0.00006,0.41416 -0.33582,0.75 -0.75,0.75h-2c-0.41418,0 -0.74994,-0.33584 -0.75,-0.75c0,-0.41421 0.33579,-0.75 0.75,-0.75zM9,4.25012c0.41421,0 0.75,0.33579 0.75,0.75v2c-0.00006,0.41416 -0.33582,0.75 -0.75,0.75c-0.41418,0 -0.74994,-0.33584 -0.75,-0.75v-2c0,-0.41421 0.33579,-0.75 0.75,-0.75z" fill="#002B51"/>
</svg>
