<svg width="24" height="24" viewBox="0 0 24 24" fill="none" xmlns="http://www.w3.org/2000/svg">
<path d="M13.75,3.25c1.6492,0 3.1013,0.84084 3.9521,2.11426l0.1622,0.25976l0.0351,0.06836c0.1563,0.34657 0.0275,0.7625 -0.3086,0.95703c-0.336,0.19439 -0.7607,0.09892 -0.9834,-0.20898l-0.042,-0.06445l-0.1113,-0.17871c-0.5838,-0.87375 -1.5772,-1.44727 -2.7041,-1.44727c-1.7949,0 -3.25,1.45507 -3.25,3.25v3.25h3.25c0.4142,0 0.75,0.3358 0.75,0.75c-0.0001,0.4142 -0.3358,0.75 -0.75,0.75h-3.2539c-0.0095,1.3892 -0.0708,3.1155 -0.4941,4.583c-0.1976,0.6848 -0.48587,1.3524 -0.91118,1.917h9.15918c0.4142,0 0.75,0.3358 0.75,0.75c0,0.4142 -0.3358,0.75 -0.75,0.75h-12.25c-0.41421,0 -0.75,-0.3358 -0.75,-0.75c0,-0.4142 0.33579,-0.75 0.75,-0.75l0.27051,-0.0107c0.60654,-0.0515 1.04017,-0.2781 1.37304,-0.6036c0.4002,-0.3913 0.70232,-0.9745 0.917,-1.7187c0.36504,-1.2656 0.42413,-2.8028 0.43457,-4.167h-3.24512c-0.41417,0 -0.74993,-0.3358 -0.75,-0.75c0,-0.4142 0.33579,-0.75 0.75,-0.75h3.25v-3.25c0,-2.62335 2.1266,-4.75 4.75,-4.75z" fill="#002B51"/>
</svg>
