<svg width="24" height="24" viewBox="0 0 24 24" fill="none" xmlns="http://www.w3.org/2000/svg">
<path fill-rule="evenodd" clip-rule="evenodd" d="M18.1182,5.08691l0.1787,0.28711l0.0586,0.11426c0.2599,0.57759 0.0454,1.26974 -0.5147,1.59375c-0.5602,0.32409 -1.2676,0.16499 -1.6387,-0.34863l-0.0693,-0.10742l-0.0937,-0.15137c-0.4948,-0.74065 -1.3362,-1.22461 -2.2891,-1.22461c-1.5188,0 -2.75,1.23122 -2.75,2.75v2.7499h2.75c0.6904,0 1.25,0.5596 1.25,1.25c0,0.6903 -0.5596,1.25 -1.25,1.25h-2.7574c-0.0232,1.3084 -0.1187,2.8646 -0.5102,4.2218c-0.1241,0.4304 -0.286,0.864 -0.49607,1.2783h8.26367c0.6904,0 1.25,0.5596 1.25,1.25c0,0.6904 -0.5596,1.25 -1.25,1.25h-12.25c-0.69036,0 -1.25,-0.5596 -1.25,-1.25c0,-0.6904 0.55964,-1.25 1.25,-1.25l0.22363,-0.0088c0.4977,-0.0412 0.82314,-0.2213 1.07032,-0.4629c0.31543,-0.3084 0.58458,-0.8013 0.78613,-1.5c0.30351,-1.0523 0.38776,-2.3174 0.41106,-3.5284h-2.74114c-0.69036,0 -1.25,-0.5597 -1.25,-1.25c0,-0.6904 0.55964,-1.25 1.25,-1.25h2.75v-2.7499c0,-2.8995 2.3505,-5.25 5.25,-5.25c1.8234,0 3.4283,0.93014 4.3682,2.33691z" fill="#002B51"/>
</svg>
