<svg width="24" height="24" viewBox="0 0 24 24" fill="none" xmlns="http://www.w3.org/2000/svg">
<path fill-rule="evenodd" clip-rule="evenodd" d="M11 8C11 6.48122 12.2312 5.25 13.75 5.25C14.7663 5.25 15.6555 5.80067 16.1329 6.62591C16.4785 7.22348 17.2432 7.42769 17.8408 7.08201C18.4384 6.73633 18.6426 5.97167 18.2969 5.37409C17.391 3.80813 15.6948 2.75 13.75 2.75C10.8505 2.75 8.5 5.1005 8.5 8V10.7499H5.75C5.05964 10.7499 4.5 11.3095 4.5 11.9999C4.5 12.6902 5.05964 13.2499 5.75 13.2499H8.49118C8.46793 14.461 8.38377 15.7262 8.08022 16.7785C7.87867 17.4773 7.6095 17.9697 7.29407 18.2781C7.01165 18.5543 6.62708 18.75 6 18.75C5.30964 18.75 4.75 19.3096 4.75 20C4.75 20.6904 5.30964 21.25 6 21.25H18.25C18.9404 21.25 19.5 20.6904 19.5 20C19.5 19.3096 18.9404 18.75 18.25 18.75H9.98823C10.1981 18.3359 10.3582 17.9016 10.4823 17.4715C10.8738 16.1143 10.9693 14.5582 10.9926 13.2499H13.75C14.4404 13.2499 15 12.6902 15 11.9999C15 11.3095 14.4404 10.7499 13.75 10.7499H11V8Z" fill="#002B51"/>
</svg>
