<svg width="24" height="24" viewBox="0 0 24 24" fill="none" xmlns="http://www.w3.org/2000/svg">
<path fill-rule="evenodd" clip-rule="evenodd" d="M11,10.7499h2.75c0.6904,0 1.25,0.5596 1.25,1.25c0,0.6903 -0.5596,1.25 -1.25,1.25h-2.7574c-0.0233,1.3083 -0.1188,2.8644 -0.5103,4.2216c-0.1241,0.4301 -0.2842,0.8644 -0.49407,1.2785h8.26177c0.6904,0 1.25,0.5596 1.25,1.25c0,0.6904 -0.5596,1.25 -1.25,1.25h-12.25c-0.69036,0 -1.25,-0.5596 -1.25,-1.25c0,-0.6904 0.55964,-1.25 1.25,-1.25c0.62708,0 1.01165,-0.1957 1.29407,-0.4719c0.31543,-0.3084 0.5846,-0.8008 0.78615,-1.4996c0.30355,-1.0523 0.38771,-2.3175 0.41096,-3.5286h-2.74118c-0.69036,0 -1.25,-0.5597 -1.25,-1.25c0,-0.6904 0.55964,-1.25 1.25,-1.25h2.75v-2.7499c0,-2.8995 2.3505,-5.25 5.25,-5.25c1.9448,0 3.641,1.05813 4.5469,2.62409c0.3457,0.59758 0.1415,1.36224 -0.4561,1.70792c-0.5976,0.34568 -1.3623,0.14147 -1.7079,-0.4561c-0.4774,-0.82524 -1.3666,-1.37591 -2.3829,-1.37591c-1.5188,0 -2.75,1.23122 -2.75,2.75z" fill="#002B51"/>
</svg>
