<svg width="24" height="24" viewBox="0 0 24 24" fill="none" xmlns="http://www.w3.org/2000/svg">
<path fill-rule="evenodd" clip-rule="evenodd" d="M10.5 8C10.5 6.20507 11.9551 4.75 13.75 4.75C14.952 4.75 16.0026 5.40216 16.5657 6.37554C16.7731 6.73409 17.2319 6.85661 17.5904 6.6492C17.949 6.4418 18.0715 5.983 17.8641 5.62446C17.0439 4.20663 15.5091 3.25 13.75 3.25C11.1266 3.25 9 5.37665 9 8V11.2499H5.75C5.33579 11.2499 5 11.5857 5 11.9999C5 12.4141 5.33579 12.7499 5.75 12.7499H8.9979C8.98749 14.1141 8.92572 15.6515 8.56063 16.9171C8.34595 17.6614 8.04383 18.2443 7.64363 18.6356C7.26324 19.0076 6.75125 19.25 6 19.25C5.58579 19.25 5.25 19.5858 5.25 20C5.25 20.4142 5.58579 20.75 6 20.75H18.25C18.6642 20.75 19 20.4142 19 20C19 19.5858 18.6642 19.25 18.25 19.25H9.09359C9.51836 18.6857 9.80447 18.0172 10.0019 17.3329C10.4252 15.8653 10.4888 14.139 10.4983 12.7499H13.75C14.1642 12.7499 14.5 12.4141 14.5 11.9999C14.5 11.5857 14.1642 11.2499 13.75 11.2499H10.5V8Z" fill="#002B51"/>
</svg>
