<svg width="24" height="24" viewBox="0 0 24 24" fill="none" xmlns="http://www.w3.org/2000/svg">
<path fill-rule="evenodd" clip-rule="evenodd" d="M10.5,11.2499h3.25c0.4142,0 0.75,0.3358 0.75,0.75c0,0.4142 -0.3358,0.75 -0.75,0.75h-3.2517c-0.0095,1.3891 -0.0731,3.1154 -0.4964,4.583c-0.19743,0.6843 -0.48354,1.3528 -0.90831,1.9171h9.15641c0.4142,0 0.75,0.3358 0.75,0.75c0,0.4142 -0.3358,0.75 -0.75,0.75h-12.25c-0.41421,0 -0.75,-0.3358 -0.75,-0.75c0,-0.4142 0.33579,-0.75 0.75,-0.75c0.75125,0 1.26324,-0.2424 1.64363,-0.6144c0.4002,-0.3913 0.70232,-0.9742 0.917,-1.7185c0.36509,-1.2656 0.42686,-2.803 0.43727,-4.1672h-3.2479c-0.41421,0 -0.75,-0.3358 -0.75,-0.75c0,-0.4142 0.33579,-0.75 0.75,-0.75h3.25v-3.2499c0,-2.62335 2.1266,-4.75 4.75,-4.75c1.7591,0 3.2939,0.95663 4.1141,2.37446c0.2074,0.35854 0.0849,0.81734 -0.2737,1.02474c-0.3585,0.20741 -0.8173,0.08489 -1.0247,-0.27366c-0.5631,-0.97338 -1.6137,-1.62554 -2.8157,-1.62554c-1.7949,0 -3.25,1.45507 -3.25,3.25z" fill="#002B51"/>
</svg>
