<svg width="24" height="24" viewBox="0 0 24 24" fill="none" xmlns="http://www.w3.org/2000/svg">
<path d="M6.19379,5.04492c0.52743,-0.44514 1.31638,-0.37885 1.76172,0.14844c0.4451,0.52735 0.37864,1.31633 -0.14844,1.76172c-1.01784,0.85946 -1.74705,2.01126 -2.08887,3.29882c-0.34175,1.2876 -0.27983,2.6493 0.17774,3.9004c0.45761,1.251 1.28911,2.3315 2.38085,3.0947c1.09173,0.763 2.39171,1.1719 3.72361,1.1719c1.3319,-0.0001 2.632,-0.4089 3.7237,-1.1719c1.0916,-0.7632 1.9233,-1.8438 2.3808,-3.0947c0.4575,-1.251 0.5195,-2.6129 0.1778,-3.9004c-0.3205,-1.20716 -0.9813,-2.29533 -1.9014,-3.13476l-0.1875,-0.16406l-0.0938,-0.08789c-0.4398,-0.4556 -0.4721,-1.17951 -0.0547,-1.67383c0.4178,-0.49438 1.1374,-0.58363 1.6602,-0.22559l0.1016,0.07715l0.2597,0.22754c1.2738,1.16224 2.1892,2.66856 2.6328,4.33984c0.4732,1.7827 0.3865,3.6682 -0.247,5.4004c-0.6336,1.7322 -1.7843,3.2283 -3.2959,4.2852c-1.5117,1.0566 -3.3119,1.6229 -5.1563,1.623c-1.8444,0 -3.6445,-0.5664 -5.15622,-1.623c-1.51175,-1.0568 -2.6623,-2.5529 -3.2959,-4.2852c-0.63358,-1.7324 -0.71936,-3.6175 -0.24609,-5.4004c0.47327,-1.78274 1.48233,-3.37736 2.8916,-4.56738zM12.0004,2.75c0.6902,0.00022 1.25,0.55978 1.25,1.25v8c0,0.6902 -0.5598,1.2498 -1.25,1.25c-0.6903,0 -1.25,-0.5596 -1.25,-1.25v-8c0,-0.69036 0.5597,-1.25 1.25,-1.25z" fill="#002B51"/>
</svg>
