<svg width="24" height="24" viewBox="0 0 24 24" fill="none" xmlns="http://www.w3.org/2000/svg">
<path fill-rule="evenodd" clip-rule="evenodd" d="M12.75,12c0,0.4142 -0.3358,0.75 -0.75,0.75c-0.4142,0 -0.75,-0.3358 -0.75,-0.75v-10c0,-0.41421 0.3358,-0.75 0.75,-0.75c0.4142,0 0.75,0.33579 0.75,0.75zM6.89248,18.4789c1.45528,1.1472 3.25442,1.7711 5.10752,1.7711c1.8531,0 3.6523,-0.6239 5.1075,-1.7711c1.4553,-1.1473 2.482,-2.7511 2.9146,-4.553c0.4326,-1.8019 0.2459,-3.697 -0.5299,-5.37984c-0.6396,-1.3874 -1.6489,-2.56398 -2.9089,-3.40578c-0.3444,-0.23012 -0.437,-0.69587 -0.2069,-1.04028c0.2301,-0.34441 0.6959,-0.43707 1.0403,-0.20695c1.4889,0.99485 2.6818,2.38534 3.4377,4.02502c0.9169,1.98886 1.1375,4.22853 0.6262,6.35803c-0.5112,2.1295 -1.7246,4.0249 -3.4444,5.3807c-1.7199,1.3559 -3.8462,2.0932 -6.0362,2.0932c-2.19002,0 -4.31628,-0.7373 -6.03616,-2.0932c-1.71987,-1.3558 -2.93318,-3.2512 -3.44444,-5.3807c-0.51125,-2.1295 -0.29067,-4.36916 0.62621,-6.35803c0.7559,-1.63967 1.94875,-3.03016 3.43773,-4.02501c0.34441,-0.23012 0.81016,-0.13746 1.04027,0.20695c0.23012,0.34441 0.13747,0.81016 -0.20695,1.04028c-1.2599,0.8418 -2.26924,2.01837 -2.90884,3.40577c-0.77582,1.68284 -0.96246,3.57794 -0.52986,5.37984c0.4326,1.8019 1.45925,3.4057 2.91452,4.553z" fill="#002B51"/>
</svg>
