<svg width="24" height="24" viewBox="0 0 24 24" fill="none" xmlns="http://www.w3.org/2000/svg">
<path d="M16.4268,5.5166c0.2506,-0.29677 0.6823,-0.35058 0.9961,-0.13574l0.0605,0.0459l0.2452,0.21582c1.2031,1.09766 2.0682,2.51914 2.4873,4.09765c0.4469,1.68377 0.3649,3.46447 -0.2334,5.10057c-0.5984,1.6361 -1.6846,3.0488 -3.1123,4.0469c-1.4279,0.9981 -3.128,1.5332 -4.8702,1.5332c-1.7421,0 -3.44224,-0.5351 -4.87007,-1.5332c-1.42772,-0.9981 -2.51395,-2.4108 -3.11231,-4.0469c-0.59838,-1.6361 -0.68037,-3.4168 -0.2334,-5.10057c0.447,-1.68373 1.40141,-3.18956 2.73243,-4.31347c0.31647,-0.26689 0.78951,-0.22651 1.05664,0.08984c0.26688,0.31648 0.22651,0.78951 -0.08985,1.05664c-1.09587,0.92549 -1.88093,2.1654 -2.24902,3.55176c-0.3681,1.3867 -0.30138,2.8538 0.19141,4.2012c0.49277,1.3471 1.38785,2.5101 2.56347,3.332c1.17587,0.822 2.5761,1.2627 4.0107,1.2627c1.4347,0 2.8349,-0.4407 4.0108,-1.2627c1.1756,-0.8219 2.0707,-1.9849 2.5635,-3.332c0.4927,-1.3474 0.5595,-2.8145 0.1914,-4.2012c-0.3452,-1.29995 -1.057,-2.47106 -2.0479,-3.375l-0.2012,-0.17676l-0.0566,-0.05273c-0.264,-0.27323 -0.2834,-0.70725 -0.0332,-1.00391zM12,3.25c0.4143,0 0.75,0.33579 0.75,0.75v8c0,0.4142 -0.3357,0.75 -0.75,0.75c-0.4142,0 -0.75,-0.3358 -0.75,-0.75v-8c0,-0.41421 0.3358,-0.75 0.75,-0.75z" fill="#002B51"/>
</svg>
