<svg width="24" height="24" viewBox="0 0 24 24" fill="none" xmlns="http://www.w3.org/2000/svg">
<path fill-rule="evenodd" clip-rule="evenodd" d="M12.75 2C12.75 1.58579 12.4142 1.25 12 1.25C11.5858 1.25 11.25 1.58579 11.25 2V12C11.25 12.4142 11.5858 12.75 12 12.75C12.4142 12.75 12.75 12.4142 12.75 12V2ZM3.97796 13.9259C3.54536 12.124 3.732 10.2289 4.50782 8.54606C5.14742 7.15866 6.15676 5.98209 7.41666 5.14029C7.76108 4.91017 7.85373 4.44442 7.62361 4.10001C7.3935 3.7556 6.92775 3.66294 6.58334 3.89306C5.09436 4.88791 3.90151 6.2784 3.14561 7.91807C2.22873 9.90694 2.00815 12.1466 2.5194 14.2761C3.03066 16.4056 4.24397 18.301 5.96384 19.6568C7.68372 21.0127 9.80998 21.75 12 21.75C14.19 21.75 16.3163 21.0127 18.0362 19.6568C19.756 18.301 20.9694 16.4056 21.4806 14.2761C21.9919 12.1466 21.7713 9.90693 20.8544 7.91807C20.0985 6.27839 18.9056 4.8879 17.4167 3.89305C17.0723 3.66293 16.6065 3.75559 16.3764 4.1C16.1463 4.44441 16.2389 4.91016 16.5833 5.14028C17.8433 5.98208 18.8526 7.15866 19.4922 8.54606C20.268 10.2289 20.4547 12.124 20.0221 13.9259C19.5895 15.7278 18.5628 17.3316 17.1075 18.4789C15.6523 19.6261 13.8531 20.25 12 20.25C10.1469 20.25 8.34776 19.6261 6.89248 18.4789C5.43721 17.3316 4.41056 15.7278 3.97796 13.9259Z" fill="#002B51"/>
</svg>
