<svg width="24" height="24" viewBox="0 0 24 24" fill="none" xmlns="http://www.w3.org/2000/svg">
<path fill-rule="evenodd" clip-rule="evenodd" d="M12.75,12c0,0.4142 -0.3358,0.75 -0.75,0.75c-0.4142,0 -0.75,-0.3358 -0.75,-0.75v-8c0,-0.41421 0.3358,-0.75 0.75,-0.75c0.4142,0 0.75,0.33579 0.75,0.75zM5.23432,10.1254c-0.3681,1.3866 -0.30123,2.8529 0.19155,4.2003c0.49279,1.3474 1.38768,2.5108 2.56355,3.3328c1.17586,0.822 2.57588,1.2629 4.01058,1.2629c1.4347,0 2.8347,-0.4409 4.0106,-1.2629c1.1759,-0.822 2.0707,-1.9854 2.5635,-3.3328c0.4928,-1.3474 0.5597,-2.8137 0.1916,-4.2003c-0.3681,-1.38669 -1.1534,-2.62676 -2.2496,-3.55237c-0.3164,-0.26723 -0.3564,-0.74042 -0.0891,-1.0569c0.2672,-0.31648 0.7404,-0.3564 1.0569,-0.08916c1.331,1.12394 2.2846,2.62974 2.7316,4.31354c0.4469,1.68379 0.3657,3.46429 -0.2326,5.10039c-0.5984,1.6361 -1.6851,3.0489 -3.1129,4.047c-1.4278,0.9982 -3.1279,1.5335 -4.87,1.5335c-1.7421,0 -3.44216,-0.5353 -4.87,-1.5335c-1.42783,-0.9981 -2.51449,-2.4109 -3.11287,-4.047c-0.59837,-1.6361 -0.67957,-3.4166 -0.2326,-5.10039c0.44698,-1.6838 1.40054,-3.1896 2.7316,-4.31354c0.31648,-0.26724 0.78967,-0.22732 1.05691,0.08916c0.26723,0.31648 0.22731,0.78967 -0.08917,1.0569c-1.09616,0.92561 -1.88145,2.16568 -2.24955,3.55237z" fill="#002B51"/>
</svg>
