<svg width="24" height="24" viewBox="0 0 24 24" fill="none" xmlns="http://www.w3.org/2000/svg">
<path d="M6.19331,5.04492c0.52743,-0.44536 1.31631,-0.37893 1.76172,0.14844c0.44536,0.52743 0.37894,1.31631 -0.14844,1.76172c-1.01786,0.85949 -1.74706,2.01121 -2.08886,3.29882c-0.34175,1.2876 -0.27983,2.6493 0.17773,3.9004c0.45761,1.251 1.28908,2.3315 2.38086,3.0947c1.09178,0.7631 2.39158,1.1719 3.72368,1.1719c1.332,0 2.6318,-0.4088 3.7236,-1.1719c1.0918,-0.7632 1.9232,-1.8437 2.3808,-3.0947c0.4576,-1.2511 0.5195,-2.6128 0.1778,-3.9004c-0.3205,-1.20726 -0.9812,-2.2953 -1.9014,-3.13476l-0.1875,-0.16406l-0.0937,-0.08789c-0.4399,-0.4556 -0.4721,-1.17951 -0.0547,-1.67383c0.4177,-0.49456 1.1372,-0.58368 1.6601,-0.22559l0.1016,0.07715l0.2598,0.22754c1.2738,1.16225 2.1881,2.66848 2.6318,4.33984c0.4733,1.7829 0.3875,3.668 -0.2461,5.4004c-0.6336,1.7323 -1.7841,3.2283 -3.2959,4.2852c-1.5118,1.0567 -3.3117,1.623 -5.1562,1.623c-1.8446,0 -3.64452,-0.5663 -5.1563,-1.623c-1.51178,-1.0569 -2.66231,-2.5529 -3.2959,-4.2852c-0.63357,-1.7324 -0.71936,-3.6175 -0.24609,-5.4004c0.47326,-1.78278 1.48231,-3.37734 2.8916,-4.56738zM12,2.75c0.6903,0 1.25,0.55964 1.25,1.25v8c0,0.6904 -0.5597,1.25 -1.25,1.25c-0.6904,0 -1.25,-0.5596 -1.25,-1.25v-8c0,-0.69036 0.5596,-1.25 1.25,-1.25z" fill="#002B51"/>
</svg>
