<svg width="24" height="24" viewBox="0 0 24 24" fill="none" xmlns="http://www.w3.org/2000/svg">
<path d="M15,2.25c0.9665,0 1.75,0.7835 1.75,1.75v2.25h2.25c1.5188,0 2.75,1.23122 2.75,2.75v6c0,1.5188 -1.2312,2.75 -2.75,2.75h-2.25v2.25c0,0.9665 -0.7835,1.75 -1.75,1.75h-5.99998c-0.9665,0 -1.75,-0.7835 -1.75,-1.75v-2.25h-2.25c-1.51879,0 -2.75,-1.2312 -2.75,-2.75v-6c0,-1.51878 1.23121,-2.75 2.75,-2.75h2.25v-2.25c0,-0.9665 0.7835,-1.75 1.75,-1.75zM8.75002,20c0,0.1381 0.11192,0.25 0.25,0.25h5.99998c0.1381,0 0.25,-0.1119 0.25,-0.25v-5.25h-6.49998zM5.00002,7.75c-0.69036,0 -1.25,0.55964 -1.25,1.25v6c0,0.6904 0.55964,1.25 1.25,1.25h2.25v-1.5h-0.75c-0.41422,0 -0.75,-0.3358 -0.75,-0.75c0,-0.4142 0.33578,-0.75 0.75,-0.75h10.99998c0.4142,0 0.75,0.3358 0.75,0.75c0,0.4142 -0.3358,0.75 -0.75,0.75h-0.75v1.5h2.25c0.6904,0 1.25,-0.5596 1.25,-1.25v-6c0,-0.69036 -0.5596,-1.25 -1.25,-1.25zM18,9.25c0.4142,0 0.75,0.33579 0.75,0.75c0,0.4142 -0.3358,0.75 -0.75,0.75h-2c-0.4142,0 -0.75,-0.3358 -0.75,-0.75c0,-0.41421 0.3358,-0.75 0.75,-0.75zM9.00002,3.75c-0.13808,0 -0.25,0.11193 -0.25,0.25v2.25h6.49998v-2.25c0,-0.13807 -0.1119,-0.25 -0.25,-0.25z" fill="#002B51"/>
</svg>
