<svg width="24" height="24" viewBox="0 0 24 24" fill="none" xmlns="http://www.w3.org/2000/svg">
<path fill-rule="evenodd" clip-rule="evenodd" d="M15,2.25c0.9665,0 1.75,0.7835 1.75,1.75v2.25h2.25c1.5188,0 2.75,1.23122 2.75,2.75v6c0,1.5188 -1.2312,2.75 -2.75,2.75h-2.25v2.25c0,0.9665 -0.7835,1.75 -1.75,1.75h-6c-0.9665,0 -1.75,-0.7835 -1.75,-1.75v-2.25h-2.25c-1.51878,0 -2.75,-1.2312 -2.75,-2.75v-6c0,-1.51878 1.23122,-2.75 2.75,-2.75h2.25v-2.25c0,-0.9665 0.7835,-1.75 1.75,-1.75zM15.25,4c0,-0.13807 -0.1119,-0.25 -0.25,-0.25h-6c-0.13807,0 -0.25,0.11193 -0.25,0.25v2.25h6.5zM9,20.25h6c0.1381,0 0.25,-0.1119 0.25,-0.25v-5.25h-6.5v5.25c0,0.1381 0.11193,0.25 0.25,0.25zM16,10.75h2c0.4142,0 0.75,-0.3358 0.75,-0.75c0,-0.41421 -0.3358,-0.75 -0.75,-0.75h-2c-0.4142,0 -0.75,0.33579 -0.75,0.75c0,0.4142 0.3358,0.75 0.75,0.75z" fill="#002B51"/>
</svg>
