<svg width="24" height="24" viewBox="0 0 24 24" fill="none" xmlns="http://www.w3.org/2000/svg">
<path d="M11.9995,3.25c2.0711,0 3.75,1.67893 3.75,3.75v1.25h2.25c0.3382,0 0.6346,0.2265 0.7236,0.55273l1.9668,7.21097c0.6503,2.3853 -1.1456,4.7363 -3.6181,4.7363h-10.14455c-2.47221,-0.0003 -4.2683,-2.3511 -3.61817,-4.7363l1.9668,-7.21097c0.08895,-0.32614 0.38562,-0.55252 0.72363,-0.55273h2.25v-1.25c0,-2.07091 1.67915,-3.74974 3.74999,-3.75zM11.9995,4.75c-1.2424,0.00026 -2.24999,1.00752 -2.24999,2.25v1.25h4.49999v-1.25c0,-1.24264 -1.0073,-2.25 -2.25,-2.25z" fill="#002B51"/>
</svg>
