<svg width="24" height="24" viewBox="0 0 24 24" fill="none" xmlns="http://www.w3.org/2000/svg">
<path fill-rule="evenodd" clip-rule="evenodd" d="M12 3.25C9.92896 3.25 8.25003 4.92893 8.25003 7V8.25H6.00003C5.66182 8.25 5.36545 8.47637 5.27646 8.80266L3.30992 16.0133C2.65932 18.3988 4.45513 20.75 6.92778 20.75H17.0723C19.5449 20.75 21.3407 18.3988 20.6901 16.0133L18.7236 8.80266C18.6346 8.47637 18.3382 8.25 18 8.25H15.75V7C15.75 4.92893 14.0711 3.25 12 3.25ZM14.25 8.25V7C14.25 5.75736 13.2427 4.75 12 4.75C10.7574 4.75 9.75003 5.75736 9.75003 7V8.25H14.25ZM4.75706 16.408L6.57288 9.75H17.4272L19.243 16.408C19.6334 17.8393 18.5559 19.25 17.0723 19.25H6.92778C5.44419 19.25 4.3667 17.8393 4.75706 16.408Z" fill="#002B51"/>
</svg>
