<svg width="24" height="24" viewBox="0 0 24 24" fill="none" xmlns="http://www.w3.org/2000/svg">
<path fill-rule="evenodd" clip-rule="evenodd" d="M18.1252,8.26074c0.2843,0.04795 0.5208,0.25665 0.5987,0.54199l1.9668,7.21097c0.6502,2.3853 -1.1457,4.7363 -3.6182,4.7363h-10.14454c-2.4725,0 -4.26844,-2.351 -3.61817,-4.7363l1.9668,-7.21097l0.04297,-0.11718c0.12092,-0.26204 0.38465,-0.43555 0.68066,-0.43555h2.25v-1.25c0,-2.07107 1.67893,-3.75 3.74998,-3.75c2.0711,0 3.75,1.67893 3.75,3.75v1.25h2.25zM12.0002,4.75c-1.2426,0 -2.24998,1.00736 -2.24998,2.25v1.25h4.49998v-1.25c0,-1.24264 -1.0073,-2.25 -2.25,-2.25z" fill="#002B51"/>
</svg>
