<svg width="24" height="24" viewBox="0 0 24 24" fill="none" xmlns="http://www.w3.org/2000/svg">
<path d="M12,3.25c2.071,0 3.75,1.67893 3.75,3.75v1.25h2.25l0.125,0.01074c0.2842,0.04795 0.5208,0.25667 0.5986,0.54199l1.9668,7.21097c0.6503,2.3853 -1.1457,4.7363 -3.6182,4.7363h-10.14451c-2.4724,-0.0001 -4.26839,-2.351 -3.61816,-4.7363l1.9668,-7.21097l0.04297,-0.11718c0.1209,-0.26199 0.38471,-0.43549 0.68066,-0.43555h2.25v-1.25c0,-2.07102 1.679,-3.74992 3.75004,-3.75zM8.99996,11.25c-0.41418,0 -0.75,0.3358 -0.75,0.75c0,0.4142 0.33582,0.75 0.75,0.75h6.00004c0.4142,0 0.75,-0.3358 0.75,-0.75c0,-0.4142 -0.3358,-0.75 -0.75,-0.75zM12,4.75c-1.2426,0.00008 -2.25004,1.00741 -2.25004,2.25v1.25h4.50004v-1.25c0,-1.24264 -1.0074,-2.25 -2.25,-2.25z" fill="#002B51"/>
</svg>
