<svg width="24" height="24" viewBox="0 0 24 24" fill="none" xmlns="http://www.w3.org/2000/svg">
<path d="M11.9997,3.25c2.071,0.00002 3.75,1.67895 3.75,3.75v1.25h2.25c0.3381,0.00002 0.6346,0.22652 0.7236,0.55273l1.9668,7.21097c0.6503,2.3853 -1.1457,4.7363 -3.6182,4.7363h-10.1445c-2.47221,-0.0003 -4.2683,-2.3511 -3.61817,-4.7363l1.9668,-7.21097c0.08895,-0.32613 0.38562,-0.55252 0.72363,-0.55273h2.25v-1.25c0,-2.07091 1.67916,-3.74974 3.75004,-3.75zM4.7565,16.4082c-0.39003,1.431 0.68769,2.8415 2.1709,2.8418h10.1445c1.4835,0 2.5611,-1.4106 2.1709,-2.8418l-1.8164,-6.6582h-10.85349zM14.9997,11.25c0.4142,0 0.75,0.3358 0.75,0.75c0,0.4142 -0.3358,0.75 -0.75,0.75h-6.00004c-0.41404,-0.0002 -0.75,-0.3359 -0.75,-0.75c0,-0.4141 0.33596,-0.7498 0.75,-0.75zM11.9997,4.75c-1.2425,0.00026 -2.25004,1.00752 -2.25004,2.25v1.25h4.50004v-1.25c0,-1.24263 -1.0074,-2.24998 -2.25,-2.25z" fill="#002B51"/>
</svg>
