<svg width="24" height="24" viewBox="0 0 24 24" fill="none" xmlns="http://www.w3.org/2000/svg">
<path d="M11.9998,3.25c2.0711,0 3.75,1.67893 3.75,3.75v1.25h2.25l0.125,0.01074c0.2843,0.04795 0.5208,0.25667 0.5987,0.54199l1.9668,7.21097c0.6502,2.3853 -1.1457,4.7363 -3.6182,4.7363h-10.14453c-2.4724,-0.0001 -4.26839,-2.351 -3.61816,-4.7363l1.9668,-7.21097l0.04296,-0.11718c0.12091,-0.26199 0.38472,-0.43549 0.68067,-0.43555h2.25v-1.25c0,-2.07102 1.679,-3.74992 3.74996,-3.75zM11.9998,4.75c-1.2425,0.00008 -2.24996,1.00741 -2.24996,2.25v1.25h4.49996v-1.25c0,-1.24264 -1.0073,-2.25 -2.25,-2.25z" fill="#002B51"/>
</svg>
