<svg width="24" height="24" viewBox="0 0 24 24" fill="none" xmlns="http://www.w3.org/2000/svg">
<path fill-rule="evenodd" clip-rule="evenodd" d="M8.25009,7.00003c0,-2.07107 1.67893,-3.75 3.75001,-3.75c2.0711,0 3.75,1.67893 3.75,3.75v1.25h2.25c0.3382,0 0.6346,0.22637 0.7236,0.55266l1.9665,7.21061c0.6506,2.3856 -1.1452,4.7367 -3.6179,4.7367h-10.14446c-2.47265,0 -4.26846,-2.3511 -3.61786,-4.7367l1.96654,-7.21061c0.08899,-0.32629 0.38536,-0.55266 0.72357,-0.55266h2.25zM12.0001,4.75003c-1.2426,0 -2.25001,1.00736 -2.25001,2.25v1.25h4.50001v-1.25c0,-1.24264 -1.0074,-2.25 -2.25,-2.25zM6.57294,9.75003l-1.81582,6.65797c-0.39035,1.4313 0.68713,2.842 2.17072,2.842h10.14446c1.4836,0 2.5611,-1.4107 2.1708,-2.842l-1.8159,-6.65797zM15,11.25c0.4142,0 0.75,0.3358 0.75,0.75c0,0.4142 -0.3358,0.75 -0.75,0.75h-5.99998c-0.41421,0 -0.75,-0.3358 -0.75,-0.75c0,-0.4142 0.33579,-0.75 0.75,-0.75z" fill="#002B51"/>
</svg>
