<svg width="24" height="24" viewBox="0 0 24 24" fill="none" xmlns="http://www.w3.org/2000/svg">
<path fill-rule="evenodd" clip-rule="evenodd" d="M18.1253,8.26074c0.2843,0.04795 0.5208,0.25665 0.5986,0.54199l1.9668,7.21097c0.6503,2.3853 -1.1457,4.7363 -3.6182,4.7363h-10.14448c-2.4725,0 -4.26844,-2.351 -3.61817,-4.7363l1.9668,-7.21097l0.04297,-0.11718c0.12092,-0.26204 0.38465,-0.43555 0.68066,-0.43555h2.25v-1.25c0,-2.07107 1.67893,-3.75 3.75002,-3.75c2.0711,0 3.75,1.67893 3.75,3.75v1.25h2.25zM12.0003,4.75c-1.2427,0 -2.25002,1.00736 -2.25002,2.25v1.25h4.50002v-1.25c0,-1.24264 -1.0074,-2.25 -2.25,-2.25zM4.75712,16.4082c-0.39016,1.4312 0.6874,2.8418 2.1709,2.8418h10.14448c1.4835,0 2.5611,-1.4106 2.1709,-2.8418l-1.8164,-6.6582h-10.85347zM15,12.75h-5.99998c-0.41421,0 -0.75,-0.3358 -0.75,-0.75c0,-0.4142 0.33579,-0.75 0.75,-0.75h5.99998c0.4142,0 0.75,0.3358 0.75,0.75c0,0.4142 -0.3358,0.75 -0.75,0.75z" fill="#002B51"/>
</svg>
