<svg width="24" height="24" viewBox="0 0 24 24" fill="none" xmlns="http://www.w3.org/2000/svg">
<path fill-rule="evenodd" clip-rule="evenodd" d="M15.75,7v1.25h2.25c0.3382,0 0.6346,0.22637 0.7236,0.55266l1.9665,7.21064c0.6506,2.3855 -1.1452,4.7367 -3.6178,4.7367h-10.14452c-2.47265,0 -4.26846,-2.3512 -3.61786,-4.7367l1.96654,-7.21064c0.08899,-0.32629 0.38536,-0.55266 0.72357,-0.55266h2.25v-1.25c0,-2.07107 1.67893,-3.75 3.74997,-3.75c2.0711,0 3.75,1.67893 3.75,3.75zM14.25,8.25v-1.25c0,-1.24264 -1.0073,-2.25 -2.25,-2.25c-1.2426,0 -2.24997,1.00736 -2.24997,2.25v1.25zM8.99996,11.25c-0.41421,0 -0.75,0.3358 -0.75,0.75c0,0.4142 0.33579,0.75 0.75,0.75h6.00004c0.4142,0 0.75,-0.3358 0.75,-0.75c0,-0.4142 -0.3358,-0.75 -0.75,-0.75z" fill="#002B51"/>
</svg>
