<svg width="24" height="24" viewBox="0 0 24 24" fill="none" xmlns="http://www.w3.org/2000/svg">
<path d="M11.9999,3.25c2.071,0 3.75,1.67893 3.75,3.75v1.25h2.25l0.125,0.01074c0.2843,0.04795 0.5208,0.25667 0.5986,0.54199l1.9668,7.21097c0.6503,2.3853 -1.1457,4.7363 -3.6182,4.7363h-10.1445c-2.4724,-0.0001 -4.26839,-2.351 -3.61816,-4.7363l1.9668,-7.21097l0.04296,-0.11718c0.12091,-0.26199 0.38472,-0.43549 0.68067,-0.43555h2.25v-1.25c0,-2.07102 1.679,-3.74992 3.75003,-3.75zM4.7567,16.4082c-0.39011,1.4312 0.6875,2.8417 2.1709,2.8418h10.1445c1.4835,0 2.5611,-1.4106 2.1709,-2.8418l-1.8164,-6.6582h-10.85349zM11.9999,4.75c-1.2426,0.00008 -2.25003,1.00741 -2.25003,2.25v1.25h4.50003v-1.25c0,-1.24264 -1.0074,-2.25 -2.25,-2.25z" fill="#002B51"/>
</svg>
