<svg width="24" height="24" viewBox="0 0 24 24" fill="none" xmlns="http://www.w3.org/2000/svg">
<path fill-rule="evenodd" clip-rule="evenodd" d="M15.7502,8.25h2.25l0.125,0.01074c0.2843,0.04795 0.5208,0.25665 0.5987,0.54199l1.9668,7.21097c0.6502,2.3853 -1.1457,4.7363 -3.6182,4.7363h-10.14454c-2.4725,0 -4.26844,-2.351 -3.61817,-4.7363l1.9668,-7.21097l0.04297,-0.11718c0.12092,-0.26204 0.38465,-0.43555 0.68066,-0.43555h2.25v-1.25c0,-2.07107 1.67893,-3.75 3.74998,-3.75c2.0711,0 3.75,1.67893 3.75,3.75zM14.2502,8.25v-1.25c0,-1.24264 -1.0073,-2.25 -2.25,-2.25c-1.2426,0 -2.24998,1.00736 -2.24998,2.25v1.25zM15.75,12c0,-0.4142 -0.3358,-0.75 -0.75,-0.75h-6.00004c-0.41421,0 -0.75,0.3358 -0.75,0.75c0,0.4142 0.33579,0.75 0.75,0.75h6.00004c0.4142,0 0.75,-0.3358 0.75,-0.75z" fill="#002B51"/>
</svg>
