<svg width="24" height="24" viewBox="0 0 24 24" fill="none" xmlns="http://www.w3.org/2000/svg">
<path d="M11.9996,3.25c2.0711,0.00002 3.75,1.67895 3.75,3.75v1.25h2.25c0.3382,0.00002 0.6346,0.22652 0.7237,0.55273l1.9668,7.21097c0.6502,2.3853 -1.1457,4.7363 -3.6182,4.7363h-10.14453c-2.47221,-0.0003 -4.2683,-2.3511 -3.61817,-4.7363l1.9668,-7.21097c0.08895,-0.32613 0.38562,-0.55252 0.72363,-0.55273h2.25v-1.25c0,-2.07091 1.67916,-3.74974 3.74997,-3.75zM8.99963,11.25c-0.41404,0.0002 -0.75,0.3359 -0.75,0.75c0,0.4141 0.33596,0.7498 0.75,0.75h5.99997c0.4142,0 0.75,-0.3358 0.75,-0.75c0,-0.4142 -0.3358,-0.75 -0.75,-0.75zM11.9996,4.75c-1.2424,0.00026 -2.24997,1.00752 -2.24997,2.25v1.25h4.49997v-1.25c0,-1.24263 -1.0073,-2.24998 -2.25,-2.25z" fill="#002B51"/>
</svg>
