<svg width="24" height="24" viewBox="0 0 24 24" fill="none" xmlns="http://www.w3.org/2000/svg">
<path d="M11.9995,3.25c2.0711,0 3.75,1.67893 3.75,3.75v1.25h2.25c0.3382,0 0.6346,0.2265 0.7237,0.55273l1.9668,7.21097c0.6502,2.3853 -1.1457,4.7363 -3.6182,4.7363h-10.14452c-2.47221,-0.0003 -4.2683,-2.3511 -3.61817,-4.7363l1.9668,-7.21097c0.08895,-0.32614 0.38562,-0.55252 0.72363,-0.55273h2.25v-1.25c0,-2.07091 1.67915,-3.74974 3.74996,-3.75zM4.75638,16.4082c-0.39003,1.431 0.68769,2.8415 2.1709,2.8418h10.14452c1.4835,0 2.5611,-1.4106 2.1709,-2.8418l-1.8164,-6.6582h-10.85352zM11.9995,4.75c-1.2424,0.00026 -2.24996,1.00752 -2.24996,2.25v1.25h4.49996v-1.25c0,-1.24264 -1.0073,-2.25 -2.25,-2.25z" fill="#002B51"/>
</svg>
