<svg width="24" height="24" viewBox="0 0 24 24" fill="none" xmlns="http://www.w3.org/2000/svg">
<path d="M9.2041,13.0107c1.0087,0.1023 1.7959,0.9536 1.7959,1.9893v4l-0.0107,0.2041c-0.1023,1.0087 -0.9536,1.7959 -1.9893,1.7959h-4l-0.2041,-0.0107c-1.00868,-0.1023 -1.7959,-0.9536 -1.7959,-1.9893v-4c0,-1.1046 0.89543,-2 2,-2h4zM15.167,18.334c0.276,0.0001 0.5,0.2239 0.5,0.5v1.666c0,0.276 -0.224,0.4998 -0.5,0.5h-1.667c-0.2761,0 -0.5,-0.2239 -0.5,-0.5v-1.666c0,-0.2762 0.2239,-0.5 0.5,-0.5zM20.5,18.334c0.276,0.0001 0.5,0.2239 0.5,0.5v1.666c0,0.276 -0.224,0.4998 -0.5,0.5h-1.667c-0.2761,0 -0.5,-0.2239 -0.5,-0.5v-1.666c0,-0.2762 0.2239,-0.5 0.5,-0.5zM5,14.5c-0.27614,0 -0.5,0.2239 -0.5,0.5v4c0,0.2761 0.22386,0.5 0.5,0.5h4c0.27614,0 0.5,-0.2239 0.5,-0.5v-4c0,-0.2761 -0.22386,-0.5 -0.5,-0.5zM17.834,15.667c0.276,0.0002 0.5,0.224 0.5,0.5v1.666c0,0.276 -0.224,0.4998 -0.5,0.5h-1.667c-0.2761,0 -0.5,-0.2239 -0.5,-0.5v-1.666c0,-0.2761 0.2239,-0.5 0.5,-0.5zM7.5,16c0.27614,0 0.5,0.2239 0.5,0.5v1c0,0.2761 -0.22386,0.5 -0.5,0.5h-1c-0.27614,0 -0.5,-0.2239 -0.5,-0.5v-1c0,-0.2761 0.22386,-0.5 0.5,-0.5zM15.167,13c0.276,0.0002 0.5,0.224 0.5,0.5v1.667c-0.0002,0.2759 -0.2241,0.4998 -0.5,0.5h-1.667c-0.276,0 -0.4998,-0.224 -0.5,-0.5v-1.667c0,-0.2761 0.2239,-0.5 0.5,-0.5zM20.5,13c0.276,0.0002 0.5,0.224 0.5,0.5v1.667c-0.0002,0.2759 -0.2241,0.4998 -0.5,0.5h-1.667c-0.276,0 -0.4998,-0.224 -0.5,-0.5v-1.667c0,-0.2761 0.2239,-0.5 0.5,-0.5zM9.2041,3.01074c1.0087,0.10226 1.7959,0.95361 1.7959,1.98926v4l-0.0107,0.2041c-0.1023,1.0087 -0.9536,1.7959 -1.9893,1.7959h-4l-0.2041,-0.0107c-1.00868,-0.1023 -1.7959,-0.9536 -1.7959,-1.9893v-4c0,-1.10457 0.89543,-2 2,-2h4zM19.2041,3.01074c1.0087,0.10226 1.7959,0.95361 1.7959,1.98926v4l-0.0107,0.2041c-0.1023,1.0087 -0.9536,1.7959 -1.9893,1.7959h-4l-0.2041,-0.0107c-1.0087,-0.1023 -1.7959,-0.9536 -1.7959,-1.9893v-4c0,-1.10457 0.8954,-2 2,-2h4zM5,4.5c-0.27614,0 -0.5,0.22386 -0.5,0.5v4c0,0.27614 0.22386,0.5 0.5,0.5h4c0.27614,0 0.5,-0.22386 0.5,-0.5v-4c0,-0.27614 -0.22386,-0.5 -0.5,-0.5zM15,4.5c-0.2761,0 -0.5,0.22386 -0.5,0.5v4c0,0.27614 0.2239,0.5 0.5,0.5h4c0.2761,0 0.5,-0.22386 0.5,-0.5v-4c0,-0.27614 -0.2239,-0.5 -0.5,-0.5zM7.5,6c0.27614,0 0.5,0.22386 0.5,0.5v1c0,0.27614 -0.22386,0.5 -0.5,0.5h-1c-0.27614,0 -0.5,-0.22386 -0.5,-0.5v-1c0,-0.27614 0.22386,-0.5 0.5,-0.5zM17.5,6c0.2761,0 0.5,0.22386 0.5,0.5v1c0,0.27614 -0.2239,0.5 -0.5,0.5h-1c-0.2761,0 -0.5,-0.22386 -0.5,-0.5v-1c0,-0.27614 0.2239,-0.5 0.5,-0.5z" fill="#002B51"/>
</svg>
