<svg width="24" height="24" viewBox="0 0 24 24" fill="none" xmlns="http://www.w3.org/2000/svg">
<path fill-rule="evenodd" clip-rule="evenodd" d="M9,4.5h-4c-0.27614,0 -0.5,0.22386 -0.5,0.5v4c0,0.27614 0.22386,0.5 0.5,0.5h4c0.27614,0 0.5,-0.22386 0.5,-0.5v-4c0,-0.27614 -0.22386,-0.5 -0.5,-0.5zM9,3c1.1046,0 2,0.89543 2,2v4c0,1.1046 -0.8954,2 -2,2h-4c-1.10457,0 -2,-0.8954 -2,-2v-4c0,-1.10457 0.89543,-2 2,-2zM19,4.5h-4c-0.2761,0 -0.5,0.22386 -0.5,0.5v4c0,0.27614 0.2239,0.5 0.5,0.5h4c0.2761,0 0.5,-0.22386 0.5,-0.5v-4c0,-0.27614 -0.2239,-0.5 -0.5,-0.5zM19,3c1.1046,0 2,0.89543 2,2v4c0,1.1046 -0.8954,2 -2,2h-4c-1.1046,0 -2,-0.8954 -2,-2v-4c0,-1.10457 0.8954,-2 2,-2zM4.5,15v4c0,0.2761 0.22386,0.5 0.5,0.5h4c0.27614,0 0.5,-0.2239 0.5,-0.5v-4c0,-0.2761 -0.22386,-0.5 -0.5,-0.5h-4c-0.27614,0 -0.5,0.2239 -0.5,0.5zM3,15c0,-1.1046 0.89543,-2 2,-2h4c1.1046,0 2,0.8954 2,2v4c0,1.1046 -0.8954,2 -2,2h-4c-1.10457,0 -2,-0.8954 -2,-2zM6,16.5c0,-0.2761 0.22386,-0.5 0.5,-0.5h1c0.27614,0 0.5,0.2239 0.5,0.5v1c0,0.2761 -0.22386,0.5 -0.5,0.5h-1c-0.27614,0 -0.5,-0.2239 -0.5,-0.5zM7.5,6c0.27614,0 0.5,0.22386 0.5,0.5v1c0,0.27614 -0.22386,0.5 -0.5,0.5h-1c-0.27614,0 -0.5,-0.22386 -0.5,-0.5v-1c0,-0.27614 0.22386,-0.5 0.5,-0.5zM16,6.5c0,-0.27614 0.2239,-0.5 0.5,-0.5h1c0.2761,0 0.5,0.22386 0.5,0.5v1c0,0.27614 -0.2239,0.5 -0.5,0.5h-1c-0.2761,0 -0.5,-0.22386 -0.5,-0.5zM15.1667,13c0.2761,0 0.5,0.2239 0.5,0.5v1.6666c0,0.2762 -0.2239,0.5 -0.5,0.5h-1.6667c-0.2761,0 -0.5,-0.2238 -0.5,-0.5v-1.6666c0,-0.2761 0.2239,-0.5 0.5,-0.5zM13,18.8335c0,-0.2761 0.2239,-0.5 0.5,-0.5h1.6667c0.2761,0 0.5,0.2239 0.5,0.5v1.6666c0,0.2762 -0.2239,0.5 -0.5,0.5h-1.6667c-0.2761,0 -0.5,-0.2238 -0.5,-0.5zM20.4999,13c0.2762,0 0.5,0.2239 0.5,0.5v1.6666c0,0.2762 -0.2238,0.5 -0.5,0.5h-1.6666c-0.2762,0 -0.5,-0.2238 -0.5,-0.5v-1.6666c0,-0.2761 0.2238,-0.5 0.5,-0.5zM15.6667,16.1665c0,-0.2761 0.2239,-0.5 0.5,-0.5h1.6667c0.2762,0 0.5,0.2239 0.5,0.5v1.6666c0,0.2762 -0.2238,0.5 -0.5,0.5h-1.6667c-0.2761,0 -0.5,-0.2238 -0.5,-0.5zM20.4999,18.3335c0.2762,0 0.5,0.2239 0.5,0.5v1.6666c0,0.2762 -0.2238,0.5 -0.5,0.5h-1.6666c-0.2762,0 -0.5,-0.2238 -0.5,-0.5v-1.6666c0,-0.2761 0.2238,-0.5 0.5,-0.5z" fill="#002B51"/>
</svg>
