<svg width="24" height="24" viewBox="0 0 24 24" fill="none" xmlns="http://www.w3.org/2000/svg">
<path d="M12,2.25c5.3848,0 9.75,4.36522 9.75,9.75c0,5.3848 -4.3652,9.75 -9.75,9.75c-5.38478,0 -9.75,-4.3652 -9.75,-9.75c0,-5.38478 4.36522,-9.75 9.75,-9.75zM12,16c-0.5523,0 -1,0.4477 -1,1c0,0.5523 0.4477,1 1,1c0.5523,0 1,-0.4477 1,-1c0,-0.5523 -0.4477,-1 -1,-1zM13.2734,6.47266c-0.6597,-0.23814 -1.3737,-0.28664 -2.0595,-0.13965c-0.6859,0.14708 -1.31714,0.48398 -1.82132,0.97168c-0.50418,0.48777 -0.86153,1.10741 -1.03125,1.78808c-0.10014,0.40175 0.14425,0.8088 0.5459,0.90923c0.40175,0.1001 0.80877,-0.14431 0.90918,-0.54595c0.10182,-0.40839 0.31669,-0.78057 0.61909,-1.07324c0.3025,-0.29257 0.6814,-0.49475 1.0928,-0.58301c0.4115,-0.08815 0.8396,-0.05884 1.2354,0.08399c0.3958,0.14288 0.7436,0.394 1.0039,0.72461c0.2603,0.33076 0.4229,0.7281 0.4687,1.14648c0.0458,0.41842 -0.0265,0.84142 -0.209,1.22072c-0.1824,0.3791 -0.4678,0.6996 -0.8232,0.9248c-0.3511,0.2223 -0.7837,0.3466 -1.21,0.3496c-0.3861,0.003 -0.7022,0.2976 -0.7402,0.6738l-0.0039,0.0762v1c0,0.4141 0.3359,0.7499 0.75,0.75c0.4141,-0.0001 0.75,-0.3359 0.75,-0.75v-0.3311c0.4425,-0.091 0.8723,-0.2581 1.2559,-0.5009c0.5926,-0.3754 1.0688,-0.9099 1.373,-1.542c0.3042,-0.6321 0.425,-1.3369 0.3486,-2.0342c-0.0763,-0.69742 -0.3473,-1.35979 -0.7812,-1.91114c-0.4338,-0.55102 -1.0133,-0.96983 -1.6729,-1.208z" fill="#002B51"/>
</svg>
