<svg width="24" height="24" viewBox="0 0 24 24" fill="none" xmlns="http://www.w3.org/2000/svg">
<path fill-rule="evenodd" clip-rule="evenodd" d="M22.75,12c0,5.9371 -4.8129,10.75 -10.75,10.75c-5.93706,0 -10.75,-4.8129 -10.75,-10.75c0,-5.93706 4.81294,-10.75 10.75,-10.75c5.9371,0 10.75,4.81294 10.75,10.75zM11.5284,7.79999c0.4116,-0.08824 0.8397,-0.05924 1.2356,0.08369c0.396,0.14294 0.7439,0.39409 1.0042,0.7249c0.2603,0.33081 0.4226,0.72802 0.4684,1.14647c0.0459,0.41845 -0.0266,0.84135 -0.2092,1.22065c-0.1825,0.3793 -0.4678,0.6998 -0.8234,0.9251c-0.3512,0.2224 -0.7829,0.3462 -1.2092,0.3492c-0.4122,0.0029 -0.7448,0.3378 -0.7448,0.75v1c0,0.4142 0.3358,0.75 0.75,0.75c0.4142,0 0.75,-0.3358 0.75,-0.75v-0.3288c0.4429,-0.091 0.8727,-0.26 1.2566,-0.5032c0.5927,-0.3754 1.0682,-0.9096 1.3724,-1.5418c0.3043,-0.6322 0.4251,-1.337 0.3487,-2.03445c-0.0764,-0.69742 -0.3469,-1.35943 -0.7807,-1.91078c-0.4339,-0.55135 -1.0137,-0.96993 -1.6737,-1.20816c-0.6599,-0.23823 -1.3734,-0.28656 -2.0594,-0.1395c-0.686,0.14707 -1.31697,0.48363 -1.82122,0.97144c-0.50426,0.48781 -0.86156,1.10729 -1.03129,1.78804c-0.10021,0.40191 0.14437,0.80896 0.54628,0.90921c0.40191,0.1002 0.80896,-0.14441 0.90916,-0.54632c0.10184,-0.40846 0.31627,-0.78015 0.61877,-1.07283c0.3026,-0.29268 0.6812,-0.49462 1.0928,-0.58286zM12,16c-0.5523,0 -1,0.4477 -1,1c0,0.5523 0.4477,1 1,1c0.5523,0 1,-0.4477 1,-1c0,-0.5523 -0.4477,-1 -1,-1z" fill="#002B51"/>
</svg>
