<svg width="24" height="24" viewBox="0 0 24 24" fill="none" xmlns="http://www.w3.org/2000/svg">
<path d="M12,2.25c5.3848,0 9.75,4.36522 9.75,9.75c0,5.3848 -4.3652,9.75 -9.75,9.75c-5.38478,0 -9.75,-4.3652 -9.75,-9.75c0,-5.38478 4.36522,-9.75 9.75,-9.75zM12,3.75c-4.55635,0 -8.25,3.69365 -8.25,8.25c0,4.5563 3.69365,8.25 8.25,8.25c4.5563,0 8.25,-3.6937 8.25,-8.25c0,-4.55635 -3.6937,-8.25 -8.25,-8.25zM12,16c0.5523,0 1,0.4477 1,1c0,0.5523 -0.4477,1 -1,1c-0.5523,0 -1,-0.4477 -1,-1c0,-0.5523 0.4477,-1 1,-1zM11.2139,6.33301c0.6858,-0.14699 1.3998,-0.09849 2.0595,0.13965c0.6596,0.23817 1.2391,0.65698 1.6729,1.208c0.4339,0.55135 0.7049,1.21372 0.7812,1.91114c0.0764,0.6973 -0.0444,1.4021 -0.3486,2.0342c-0.3042,0.6321 -0.7804,1.1666 -1.373,1.542c-0.3836,0.2428 -0.8134,0.4099 -1.2559,0.5009v0.3311c0,0.4141 -0.3359,0.7499 -0.75,0.75c-0.4141,-0.0001 -0.75,-0.3359 -0.75,-0.75v-1l0.0039,-0.0762c0.038,-0.3762 0.3541,-0.6708 0.7402,-0.6738c0.4263,-0.003 0.8589,-0.1273 1.21,-0.3496c0.3554,-0.2252 0.6408,-0.5457 0.8232,-0.9248c0.1825,-0.3793 0.2548,-0.8023 0.209,-1.22072c-0.0458,-0.41838 -0.2084,-0.81572 -0.4687,-1.14648c-0.2603,-0.33061 -0.6081,-0.58173 -1.0039,-0.72461c-0.3958,-0.14283 -0.8239,-0.17214 -1.2354,-0.08399c-0.4114,0.08826 -0.7903,0.29044 -1.0928,0.58301c-0.3024,0.29267 -0.51727,0.66485 -0.61909,1.07324c-0.10041,0.40164 -0.50743,0.64605 -0.90918,0.54595c-0.40164,-0.10043 -0.64604,-0.50748 -0.5459,-0.90923c0.16972,-0.68067 0.52707,-1.30031 1.03125,-1.78808c0.50418,-0.4877 1.13542,-0.8246 1.82132,-0.97168z" fill="#002B51"/>
</svg>
