<svg width="24" height="24" viewBox="0 0 24 24" fill="none" xmlns="http://www.w3.org/2000/svg">
<path fill-rule="evenodd" clip-rule="evenodd" d="M12,2.75c-5.10863,0 -9.25,4.14137 -9.25,9.25c0,5.1086 4.14137,9.25 9.25,9.25c5.1086,0 9.25,-4.1414 9.25,-9.25c0,-5.10863 -4.1414,-9.25 -9.25,-9.25zM1.25,12c0,-5.93706 4.81294,-10.75 10.75,-10.75c5.9371,0 10.75,4.81294 10.75,10.75c0,5.9371 -4.8129,10.75 -10.75,10.75c-5.93706,0 -10.75,-4.8129 -10.75,-10.75zM12.764,7.88368c-0.3959,-0.14293 -0.824,-0.17193 -1.2356,-0.08369c-0.4116,0.08824 -0.7902,0.29018 -1.0928,0.58286c-0.3025,0.29268 -0.51693,0.66437 -0.61877,1.07283c-0.1002,0.4019 -0.50725,0.64652 -0.90916,0.54632c-0.40191,-0.10025 -0.64649,-0.5073 -0.54628,-0.90921c0.16973,-0.68075 0.52703,-1.30023 1.03129,-1.78804c0.50426,-0.48781 1.13522,-0.82437 1.82122,-0.97144c0.686,-0.14706 1.3995,-0.09873 2.0594,0.1395c0.66,0.23823 1.2398,0.65681 1.6737,1.20816c0.4338,0.55135 0.7043,1.21336 0.7807,1.91078c0.0764,0.69745 -0.0444,1.40225 -0.3487,2.03445c-0.3042,0.6322 -0.7797,1.1664 -1.3724,1.5418c-0.3839,0.2432 -0.8137,0.4122 -1.2566,0.5032v0.3288c0,0.4142 -0.3358,0.75 -0.75,0.75c-0.4142,0 -0.75,-0.3358 -0.75,-0.75v-1c0,-0.4122 0.3326,-0.7471 0.7448,-0.75c0.4263,-0.003 0.858,-0.1268 1.2092,-0.3492c0.3556,-0.2253 0.6409,-0.5458 0.8234,-0.9251c0.1826,-0.3793 0.2551,-0.8022 0.2092,-1.22065c-0.0458,-0.41845 -0.2081,-0.81566 -0.4684,-1.14647c-0.2603,-0.33081 -0.6082,-0.58196 -1.0042,-0.7249zM11,17c0,-0.5523 0.4477,-1 1,-1c0.5523,0 1,0.4477 1,1c0,0.5523 -0.4477,1 -1,1c-0.5523,0 -1,-0.4477 -1,-1z" fill="#002B51"/>
</svg>
