<svg width="24" height="24" viewBox="0 0 24 24" fill="none" xmlns="http://www.w3.org/2000/svg">
<path fill-rule="evenodd" clip-rule="evenodd" d="M21.25,12c0,-5.10863 -4.1414,-9.25 -9.25,-9.25c-5.10863,0 -9.25,4.14137 -9.25,9.25c0,5.1086 4.14137,9.25 9.25,9.25c5.1086,0 9.25,-4.1414 9.25,-9.25zM22.75,12c0,5.9371 -4.8129,10.75 -10.75,10.75c-5.93706,0 -10.75,-4.8129 -10.75,-10.75c0,-5.93706 4.81294,-10.75 10.75,-10.75c5.9371,0 10.75,4.81294 10.75,10.75zM11.2502,14v-1l0.004,-0.0762c0.0379,-0.3763 0.3539,-0.6709 0.7402,-0.6738c0.4263,-0.003 0.8588,-0.1272 1.2099,-0.3496c0.3555,-0.2252 0.6408,-0.5457 0.8233,-0.9248c0.1825,-0.3793 0.2548,-0.8023 0.209,-1.22072c-0.0459,-0.41839 -0.2085,-0.81572 -0.4688,-1.14648c-0.2603,-0.33067 -0.6081,-0.58171 -1.0039,-0.72461c-0.3958,-0.1429 -0.8238,-0.17216 -1.2353,-0.08399c-0.4116,0.08823 -0.7903,0.29039 -1.0928,0.58301c-0.3026,0.29269 -0.51731,0.66479 -0.61915,1.07324c-0.10038,0.40168 -0.5074,0.64605 -0.90918,0.54595c-0.4018,-0.10034 -0.64609,-0.50738 -0.5459,-0.90923c0.16974,-0.68072 0.52701,-1.30029 1.03125,-1.78808c0.50424,-0.48775 1.13538,-0.82463 1.82128,-0.97168c0.6859,-0.14701 1.3998,-0.09856 2.0596,0.13965c0.6596,0.23819 1.2391,0.65692 1.6728,1.208c0.4339,0.55135 0.7049,1.21371 0.7813,1.91114c0.0763,0.6973 -0.0445,1.4021 -0.3486,2.0342c-0.3043,0.6322 -0.7804,1.1666 -1.3731,1.542c-0.3836,0.2429 -0.8133,0.4099 -1.2559,0.5009v0.3311c0,0.4141 -0.3359,0.7499 -0.75,0.75c-0.4142,0 -0.75,-0.3358 -0.75,-0.75zM11,17c0,-0.5523 0.4477,-1 1,-1c0.5523,0 1,0.4477 1,1c0,0.5523 -0.4477,1 -1,1c-0.5523,0 -1,-0.4477 -1,-1z" fill="#002B51"/>
</svg>
