<svg width="24" height="24" viewBox="0 0 24 24" fill="none" xmlns="http://www.w3.org/2000/svg">
<path fill-rule="evenodd" clip-rule="evenodd" d="M7.69481,6.60636c1.36491,-0.56537 2.82779,-0.85636 4.30519,-0.85636c1.4774,0 2.9403,0.29099 4.3052,0.85636c1.3649,0.56536 2.6051,1.39403 3.6498,2.43869c1.0446,1.04465 1.8733,2.28485 2.4386,3.64975c0.5654,1.3649 0.8564,2.8278 0.8564,4.3052c0,0.6904 -0.5596,1.25 -1.25,1.25c-0.6904,0 -1.25,-0.5596 -1.25,-1.25c0,-1.1491 -0.2263,-2.2869 -0.6661,-3.3485c-0.4397,-1.0616 -1.0842,-2.0262 -1.8967,-2.8387c-0.8125,-0.8125 -1.7771,-1.45702 -2.8387,-1.89675c-1.0616,-0.43972 -2.1994,-0.66605 -3.3485,-0.66605c-1.1491,0 -2.28688,0.22633 -3.34848,0.66605c-1.0616,0.43973 -2.02619,1.08425 -2.8387,1.89675c-0.81252,0.8125 -1.45704,1.7771 -1.89677,2.8387c-0.43972,1.0616 -0.66605,2.1994 -0.66605,3.3485c0,0.6904 -0.55964,1.25 -1.25,1.25c-0.69036,0 -1.25,-0.5596 -1.25,-1.25c0,-1.4774 0.29099,-2.9403 0.85635,-4.3052c0.56537,-1.3649 1.39404,-2.6051 2.4387,-3.64975c1.04466,-1.04466 2.28485,-1.87333 3.64976,-2.43869zM9.22554,10.3019c0.87966,-0.36437 1.82236,-0.5519 2.77446,-0.5519c0.9521,0 1.8948,0.18753 2.7745,0.5519c0.8796,0.3643 1.6788,0.8984 2.352,1.5716c0.6732,0.6732 1.2073,1.4724 1.5716,2.352c0.3644,0.8797 0.5519,1.8224 0.5519,2.7745c0,0.6904 -0.5596,1.25 -1.25,1.25c-0.6904,0 -1.25,-0.5596 -1.25,-1.25c0,-0.6238 -0.1229,-1.2414 -0.3616,-1.8177c-0.2387,-0.5763 -0.5886,-1.1 -1.0296,-1.5411c-0.4411,-0.441 -0.9648,-0.7909 -1.5411,-1.0296c-0.5763,-0.2387 -1.1939,-0.3616 -1.8177,-0.3616c-0.6238,0 -1.2414,0.1229 -1.8177,0.3616c-0.57634,0.2387 -1.09998,0.5886 -1.54106,1.0296c-0.44108,0.4411 -0.79096,0.9648 -1.02967,1.5411c-0.23871,0.5763 -0.36157,1.1939 -0.36157,1.8177c0,0.6904 -0.55964,1.25 -1.25,1.25c-0.69036,0 -1.25,-0.5596 -1.25,-1.25c0,-0.9521 0.18753,-1.8948 0.55187,-2.7745c0.36435,-0.8796 0.89838,-1.6788 1.57161,-2.352c0.67322,-0.6732 1.47245,-1.2073 2.35206,-1.5716zM13.2437,13.9974c0.3943,0.1633 0.7526,0.4027 1.0544,0.7045c0.3018,0.3018 0.5412,0.6601 0.7045,1.0544c0.1633,0.3943 0.2474,0.8169 0.2474,1.2437c0,0.6904 -0.5596,1.25 -1.25,1.25c-0.6904,0 -1.25,-0.5596 -1.25,-1.25c0,-0.0985 -0.0194,-0.196 -0.0571,-0.287c-0.0377,-0.091 -0.0929,-0.1737 -0.1626,-0.2433c-0.0696,-0.0697 -0.1523,-0.1249 -0.2433,-0.1626c-0.091,-0.0377 -0.1885,-0.0571 -0.287,-0.0571c-0.0985,0 -0.196,0.0194 -0.287,0.0571c-0.091,0.0377 -0.1737,0.0929 -0.2433,0.1626c-0.0697,0.0696 -0.1249,0.1523 -0.1626,0.2433c-0.0377,0.091 -0.0571,0.1885 -0.0571,0.287c0,0.6904 -0.5596,1.25 -1.25,1.25c-0.69036,0 -1.25,-0.5596 -1.25,-1.25c0,-0.4268 0.08406,-0.8494 0.24739,-1.2437c0.16333,-0.3943 0.40272,-0.7526 0.70451,-1.0544c0.3018,-0.3018 0.6601,-0.5412 1.0544,-0.7045c0.3943,-0.1633 0.8169,-0.2474 1.2437,-0.2474c0.4268,0 0.8494,0.0841 1.2437,0.2474z" fill="#002B51"/>
</svg>
