<svg width="24" height="24" viewBox="0 0 24 24" fill="none" xmlns="http://www.w3.org/2000/svg">
<path fill-rule="evenodd" clip-rule="evenodd" d="M7.88615,7.0683c1.30425,-0.54024 2.70215,-0.8183 4.11385,-0.8183c1.4117,0 2.8096,0.27806 4.1138,0.81829c1.3043,0.54024 2.4894,1.33208 3.4876,2.33031c0.9982,0.9982 1.7901,2.1833 2.3303,3.4876c0.5402,1.3042 0.8183,2.7021 0.8183,4.1138c0,0.4142 -0.3358,0.75 -0.75,0.75c-0.4142,0 -0.75,-0.3358 -0.75,-0.75c0,-1.2147 -0.2393,-2.4176 -0.7041,-3.5398c-0.4649,-1.1223 -1.1462,-2.142 -2.0052,-3.0009c-0.8589,-0.85898 -1.8786,-1.54033 -3.0009,-2.00519c-1.1222,-0.46485 -2.3251,-0.70411 -3.5398,-0.70411c-1.2147,0 -2.41756,0.23926 -3.53982,0.70411c-1.12226,0.46486 -2.14198,1.14621 -3.00092,2.00519c-0.85894,0.8589 -1.54029,1.8786 -2.00515,3.0009c-0.46485,1.1222 -0.70411,2.3251 -0.70411,3.5398c0,0.4142 -0.33579,0.75 -0.75,0.75c-0.41421,0 -0.75,-0.3358 -0.75,-0.75c0,-1.4117 0.27806,-2.8096 0.81829,-4.1138c0.54024,-1.3043 1.33208,-2.4894 2.33031,-3.4876c0.99823,-0.99823 2.1833,-1.79007 3.48755,-2.3303zM9.41689,10.7638c0.81891,-0.3392 1.69671,-0.5138 2.58311,-0.5138c0.8864,0 1.7642,0.1746 2.5831,0.5138c0.819,0.3392 1.5631,0.8364 2.1899,1.4632c0.6268,0.6268 1.124,1.3709 1.4632,2.1899c0.3392,0.8189 0.5138,1.6967 0.5138,2.5831c0,0.4142 -0.3358,0.75 -0.75,0.75c-0.4142,0 -0.75,-0.3358 -0.75,-0.75c0,-0.6894 -0.1358,-1.3721 -0.3996,-2.0091c-0.2639,-0.6369 -0.6506,-1.2157 -1.1381,-1.7032c-0.4875,-0.4875 -1.0663,-0.8742 -1.7032,-1.1381c-0.637,-0.2638 -1.3197,-0.3996 -2.0091,-0.3996c-0.6894,0 -1.3721,0.1358 -2.00909,0.3996c-0.63696,0.2639 -1.21571,0.6506 -1.70322,1.1381c-0.48751,0.4875 -0.87422,1.0663 -1.13806,1.7032c-0.26383,0.637 -0.39963,1.3197 -0.39963,2.0091c0,0.4142 -0.33579,0.75 -0.75,0.75c-0.41421,0 -0.75,-0.3358 -0.75,-0.75c0,-0.8864 0.17459,-1.7642 0.51381,-2.5831c0.33922,-0.819 0.83642,-1.5631 1.46322,-2.1899c0.62679,-0.6268 1.37091,-1.124 2.18986,-1.4632zM13.0524,14.4593c0.3336,0.1382 0.6368,0.3408 0.8921,0.5962c0.2554,0.2553 0.458,0.5585 0.5962,0.8921c0.1382,0.3337 0.2093,0.6913 0.2093,1.0524c0,0.4142 -0.3358,0.75 -0.75,0.75c-0.4142,0 -0.75,-0.3358 -0.75,-0.75c0,-0.1642 -0.0323,-0.3267 -0.0951,-0.4784c-0.0629,-0.1516 -0.1549,-0.2894 -0.271,-0.4055c-0.1161,-0.1161 -0.2539,-0.2081 -0.4055,-0.2709c-0.1517,-0.0629 -0.3142,-0.0952 -0.4784,-0.0952c-0.1642,0 -0.3267,0.0323 -0.4784,0.0952c-0.1516,0.0628 -0.2894,0.1548 -0.4055,0.2709c-0.1161,0.1161 -0.2081,0.2539 -0.2709,0.4055c-0.0629,0.1517 -0.0952,0.3142 -0.0952,0.4784c0,0.4142 -0.3358,0.75 -0.75,0.75c-0.41421,0 -0.75,-0.3358 -0.75,-0.75c0,-0.3611 0.07113,-0.7187 0.20933,-1.0524c0.1382,-0.3336 0.34077,-0.6368 0.59617,-0.8921c0.2553,-0.2554 0.5585,-0.458 0.8921,-0.5962c0.3337,-0.1382 0.6913,-0.2093 1.0524,-0.2093c0.3611,0 0.7187,0.0711 1.0524,0.2093z" fill="#002B51"/>
</svg>
