<svg width="24" height="24" viewBox="0 0 24 24" fill="none" xmlns="http://www.w3.org/2000/svg">
<path fill-rule="evenodd" clip-rule="evenodd" d="M20.75,17c0,-1.0055 -0.1728,-2.0025 -0.5107,-2.9473l-0.1553,-0.4013c-0.3847,-0.9287 -0.9262,-1.7831 -1.5996,-2.5264l-0.2969,-0.3125c-0.7109,-0.7109 -1.5385,-1.29264 -2.4453,-1.72168l-0.3936,-0.1748c-0.9287,-0.38471 -1.916,-0.6059 -2.9179,-0.65528l-0.4307,-0.01074c-1.0055,0 -2.00254,0.1728 -2.94727,0.51074l-0.40136,0.15528c-0.92866,0.38467 -1.78305,0.92614 -2.52637,1.59958l-0.3125,0.2969c-0.71086,0.7109 -1.29264,1.5385 -1.72168,2.4453l-0.1748,0.3936c-0.43973,1.0616 -0.66602,2.1995 -0.66602,3.3486c0,0.6904 -0.55964,1.25 -1.25,1.25c-0.69036,0 -1.25,-0.5596 -1.25,-1.25c0,-1.4774 0.29108,-2.9408 0.85645,-4.3057l0.2246,-0.5058c0.55162,-1.1659 1.29994,-2.22965 2.21387,-3.14358l0.40137,-0.38183c0.95565,-0.86588 2.05411,-1.56204 3.24805,-2.05664l0.5166,-0.19922c1.21463,-0.43448 2.49636,-0.65723 3.78906,-0.65723l0.5527,0.01367c1.2886,0.06339 2.5585,0.34803 3.753,0.84278l0.5058,0.2246c1.1659,0.55163 2.2296,1.29994 3.1436,2.21387l0.3818,0.40137c0.8659,0.95561 1.5621,2.05411 2.0567,3.24801l0.1992,0.5166c0.4345,1.2147 0.6572,2.4964 0.6572,3.7891c0,0.6904 -0.5596,1.25 -1.25,1.25c-0.6904,0 -1.25,-0.5596 -1.25,-1.25zM16.75,17c0,-0.5457 -0.094,-1.0868 -0.2773,-1.5996l-0.084,-0.2178c-0.2089,-0.5043 -0.5034,-0.9684 -0.8692,-1.3721l-0.1611,-0.1689c-0.386,-0.386 -0.8348,-0.7026 -1.3272,-0.9355l-0.2138,-0.0948c-0.5042,-0.2088 -1.0401,-0.3287 -1.584,-0.3554l-0.2334,-0.0059c-0.5457,0 -1.0868,0.094 -1.5996,0.2773l-0.2178,0.084c-0.50429,0.2089 -0.96843,0.5034 -1.37205,0.8692l-0.16895,0.1611c-0.38598,0.386 -0.70262,0.8348 -0.93555,1.3272l-0.09472,0.2138c-0.2386,0.5762 -0.36133,1.1938 -0.36133,1.8174c0,0.6904 -0.55964,1.25 -1.25,1.25c-0.69036,0 -1.25,-0.5596 -1.25,-1.25c0,-0.9521 0.18743,-1.8948 0.55176,-2.7744l0.14453,-0.3262c0.3555,-0.7514 0.8377,-1.4373 1.42676,-2.0264l0.25879,-0.2451c0.61604,-0.5582 1.32404,-1.0073 2.09375,-1.3261l0.333,-0.128c0.78271,-0.2799 1.60841,-0.4238 2.44141,-0.4238l0.3564,0.00879c0.8303,0.04087 1.6484,0.22418 2.418,0.54301l0.3262,0.1445c0.7514,0.3555 1.4373,0.8377 2.0264,1.4267l0.2451,0.2588c0.5582,0.6161 1.0073,1.3241 1.3261,2.0938l0.128,0.333c0.2799,0.7827 0.4238,1.6084 0.4238,2.4414c0,0.6904 -0.5596,1.25 -1.25,1.25c-0.6904,0 -1.25,-0.5596 -1.25,-1.25zM12.6934,16.7129c-0.0189,-0.0455 -0.0421,-0.0891 -0.0694,-0.1299l-0.0937,-0.1133c-0.0348,-0.0348 -0.0726,-0.0665 -0.1133,-0.0937l-0.1299,-0.0694c-0.0454,-0.0188 -0.0926,-0.0324 -0.1406,-0.042l-0.1465,-0.0146c-0.0493,0 -0.0984,0.0051 -0.1465,0.0146l-0.1406,0.042c-0.0455,0.0189 -0.0891,0.0421 -0.1299,0.0694l-0.1133,0.0937c-0.0348,0.0348 -0.0665,0.0726 -0.0937,0.1133l-0.0694,0.1299c-0.0376,0.091 -0.0566,0.1886 -0.0566,0.2871c0,0.6904 -0.5596,1.25 -1.25,1.25c-0.69036,0 -1.25,-0.5596 -1.25,-1.25c0,-0.4268 0.08374,-0.8498 0.24707,-1.2441l0.06543,-0.1455c0.15937,-0.3369 0.37557,-0.6442 0.63965,-0.9083l0.11523,-0.1103c0.27612,-0.2503 0.59342,-0.4518 0.93852,-0.5947l0.1494,-0.0576c0.3509,-0.1256 0.7213,-0.1895 1.0947,-0.1895l0.1602,0.0039c0.372,0.0184 0.739,0.1003 1.0839,0.2432l0.1455,0.0654c0.3369,0.1594 0.6442,0.3756 0.9083,0.6396l0.1103,0.1153c0.2503,0.2761 0.4518,0.5934 0.5947,0.9385l0.0576,0.1494c0.1256,0.3509 0.1895,0.7213 0.1895,1.0947c0,0.6904 -0.5596,1.25 -1.25,1.25c-0.6904,0 -1.25,-0.5596 -1.25,-1.25c0,-0.0493 -0.0051,-0.0984 -0.0146,-0.1465z" fill="#002B51"/>
</svg>
