<svg width="24" height="24" viewBox="0 0 24 24" fill="none" xmlns="http://www.w3.org/2000/svg">
<path d="M12.5283,6.2627c1.2312,0.06058 2.4447,0.33292 3.586,0.80566l0.4834,0.21387c1.1141,0.52711 2.1305,1.24281 3.0039,2.11621l0.3642,0.38281c0.8277,0.91335 1.4931,1.96335 1.9658,3.10445l0.1905,0.4942c0.415,1.1605 0.6279,2.385 0.6279,3.6201c0,0.4142 -0.3358,0.75 -0.75,0.75c-0.4142,0 -0.75,-0.3358 -0.75,-0.75c0,-1.0628 -0.1829,-2.1166 -0.54,-3.1152l-0.1641,-0.4248c-0.4067,-0.9819 -0.9793,-1.8851 -1.6914,-2.6709l-0.3135,-0.3301c-0.7515,-0.75151 -1.6263,-1.36677 -2.5849,-1.82033l-0.4161,-0.18457c-0.9819,-0.40672 -2.0257,-0.64118 -3.0849,-0.69336l-0.4551,-0.01074c-1.0628,0 -2.11663,0.18287 -3.11523,0.54004l-0.42481,0.16406c-0.98183,0.40672 -1.88504,0.97933 -2.6709,1.6914l-0.33008,0.3135c-0.75149,0.7515 -1.36675,1.6263 -1.82031,2.5849l-0.18457,0.4161c-0.46485,1.1222 -0.7041,2.3253 -0.7041,3.54c0,0.4142 -0.33579,0.75 -0.75,0.75c-0.41421,0 -0.75,-0.3358 -0.75,-0.75c0,-1.4117 0.27812,-2.81 0.81836,-4.1143l0.21387,-0.4834c0.52711,-1.1141 1.24281,-2.1305 2.11621,-3.00386l0.38281,-0.36426c0.91336,-0.8277 1.96331,-1.49308 3.10449,-1.96582l0.49414,-0.19043c1.1605,-0.41505 2.38502,-0.62793 3.62012,-0.62793zM12.332,10.2578c0.773,0.0381 1.5345,0.2091 2.251,0.5059l0.3037,0.1347c0.6996,0.331 1.3383,0.7797 1.8867,1.3282l0.2286,0.2412c0.5196,0.5735 0.9375,1.2327 1.2343,1.9492l0.1192,0.3096c0.2607,0.7288 0.3945,1.4977 0.3945,2.2734c0,0.4142 -0.3358,0.75 -0.75,0.75c-0.4142,0 -0.75,-0.3358 -0.75,-0.75c0,-0.6034 -0.1038,-1.2016 -0.3066,-1.7686l-0.0928,-0.2402c-0.2309,-0.5573 -0.5558,-1.0705 -0.96,-1.5166l-0.1787,-0.1865c-0.4266,-0.4266 -0.9226,-0.7768 -1.4668,-1.0342l-0.2363,-0.1045c-0.5573,-0.2308 -1.1498,-0.363 -1.751,-0.3926l-0.2578,-0.0068c-0.6034,0 -1.2016,0.1038 -1.7686,0.3066l-0.24019,0.0928c-0.55731,0.2309 -1.07054,0.5558 -1.5166,0.96l-0.18652,0.1787c-0.42662,0.4266 -0.77674,0.9226 -1.03418,1.4668l-0.1045,0.2363c-0.26374,0.6369 -0.39941,1.3195 -0.39941,2.0088c0,0.4142 -0.33579,0.75 -0.75,0.75c-0.41421,0 -0.75,-0.3358 -0.75,-0.75c0,-0.8864 0.17449,-1.7641 0.51367,-2.583l0.13477,-0.3037c0.33098,-0.6996 0.7797,-1.3383 1.32812,-1.8867l0.24121,-0.2286c0.57349,-0.5196 1.23272,-0.9375 1.94922,-1.2343l0.30957,-0.1192c0.72884,-0.2607 1.49774,-0.3945 2.27344,-0.3945zM12.2695,14.2637c0.2687,0.0264 0.5329,0.0916 0.7832,0.1953l0.2442,0.1162c0.2378,0.1272 0.456,0.289 0.6474,0.4805l0.1817,0.2002c0.1711,0.2085 0.3114,0.4412 0.415,0.6914l0.0908,0.2548c0.0783,0.2583 0.1182,0.5271 0.1182,0.7979c0,0.4142 -0.3358,0.75 -0.75,0.75c-0.4142,0 -0.75,-0.3358 -0.75,-0.75c0,-0.123 -0.0182,-0.245 -0.0537,-0.3623l-0.041,-0.1162c-0.0471,-0.1137 -0.1108,-0.2197 -0.1885,-0.3145l-0.083,-0.0908c-0.087,-0.087 -0.1859,-0.1609 -0.294,-0.2187l-0.1113,-0.0528c-0.1136,-0.047 -0.2335,-0.0768 -0.3555,-0.0888l-0.123,-0.0059c-0.123,0 -0.245,0.0182 -0.3623,0.0537l-0.1162,0.041c-0.1137,0.0471 -0.2197,0.1108 -0.3145,0.1885l-0.0908,0.083c-0.087,0.087 -0.1609,0.1859 -0.2187,0.294l-0.0528,0.1113c-0.0628,0.1516 -0.0947,0.3144 -0.0947,0.4785c0,0.4142 -0.3358,0.75 -0.75,0.75c-0.41421,0 -0.75,-0.3358 -0.75,-0.75c0,-0.3611 0.07078,-0.7191 0.20898,-1.0527l0.11622,-0.2442c0.12721,-0.2378 0.28903,-0.456 0.4805,-0.6474l0.2002,-0.1817c0.2085,-0.1711 0.4412,-0.3114 0.6914,-0.415l0.2548,-0.0908c0.2583,-0.0783 0.5271,-0.1182 0.7979,-0.1182z" fill="#002B51"/>
</svg>
