<svg width="24" height="24" viewBox="0 0 24 24" fill="none" xmlns="http://www.w3.org/2000/svg">
<path d="M20.3965,3.01465c0.1442,0.02878 0.2783,0.09963 0.3838,0.20508c0.1406,0.14063 0.2198,0.33143 0.2198,0.53027c0,4.16195 -1.8852,7.0155 -4.3243,9.4355c1.1848,1.6469 0.8405,4.0037 -0.8769,5.2207l-3.4649,2.4551c-0.2287,0.1621 -0.5292,0.1834 -0.7783,0.0547c-0.2487,-0.1286 -0.4059,-0.385 -0.4062,-0.665l-0.001,-3.5918l-3.80372,-3.8037l-3.59375,0.0049c-0.28037,0.0002 -0.53796,-0.1564 -0.66699,-0.4053c-0.129,-0.249 -0.10825,-0.5494 0.05371,-0.7783l2.45801,-3.47368l0.12891,-0.17187c1.2482,-1.5689 3.5025,-1.85117 5.09273,-0.70508c2.4222,-2.4433 5.2718,-4.32607 9.4327,-4.32617zM5.21783,15.4453c0.92746,-0.9274 2.43094,-0.9274 3.3584,0c0.92739,0.9275 0.92743,2.431 0,3.3584c-0.29114,0.291 -0.70687,0.4623 -1.04688,0.5713c-0.36608,0.1173 -0.77006,0.1997 -1.13183,0.2588c-0.36518,0.0596 -0.70709,0.0978 -0.95606,0.1211c-0.12465,0.0116 -0.22743,0.0202 -0.2998,0.0254c-0.03592,0.0025 -0.06492,0.0036 -0.08496,0.0049c-0.00974,0.0006 -0.01785,0.0016 -0.02344,0.0019c-0.00282,0.0002 -0.00615,0.0009 -0.00781,0.001h-0.08203c-0.18418,-0.0097 -0.35952,-0.0871 -0.49121,-0.2188c-0.13168,-0.1316 -0.20909,-0.3071 -0.21875,-0.4912v-0.082c0.00009,-0.0017 0.00081,-0.005 0.00097,-0.0078c0.00029,-0.0056 0.00039,-0.0138 0.00098,-0.0235c0.00125,-0.02 0.0033,-0.0491 0.00586,-0.0849c0.00517,-0.0724 0.01373,-0.1752 0.02539,-0.2998c0.02329,-0.249 0.06046,-0.5919 0.12012,-0.9571c0.0591,-0.3616 0.14255,-0.765 0.25976,-1.1308c0.10897,-0.34 0.2803,-0.7557 0.57129,-1.0469zM15.5645,14.2295c-0.9461,0.8495 -1.939,1.6595 -2.916,2.4697l0.001,2.0996l2.2822,-1.6162c0.97,-0.6874 1.2055,-1.9813 0.6328,-2.9531zM7.51568,16.5059c-0.34167,-0.3417 -0.89563,-0.3417 -1.2373,0c-0.0007,0.0008 -0.00279,0.003 -0.00586,0.0068c-0.00419,0.0052 -0.01055,0.0131 -0.01758,0.0234c-0.01444,0.0213 -0.03254,0.051 -0.05273,0.0909c-0.04134,0.0817 -0.08428,0.19 -0.12696,0.3232c-0.08578,0.2678 -0.15495,0.5912 -0.20801,0.916c-0.01868,0.1144 -0.03354,0.2274 -0.04785,0.335c0.10781,-0.0144 0.2212,-0.0282 0.33594,-0.0469c0.32469,-0.0531 0.64832,-0.1222 0.91602,-0.208c0.13312,-0.0427 0.24154,-0.0856 0.32324,-0.127c0.03987,-0.0202 0.06958,-0.0383 0.09082,-0.0527c0.01033,-0.007 0.01827,-0.0134 0.02344,-0.0176c0.00378,-0.0031 0.00602,-0.0051 0.00683,-0.0058c0.34165,-0.3417 0.34161,-0.8957 0,-1.2373zM19.4708,4.52734c-4.8788,0.32254 -7.6047,3.67587 -10.8018,7.53026l3.2754,3.2754c3.8403,-3.1852 7.2039,-5.91809 7.5264,-10.80566zM9.77349,8.4375c-0.90102,-0.5327 -2.08034,-0.36965 -2.79492,0.43164l-0.1582,0.2002l-1.61914,2.28906l2.10058,-0.0029l1.06446,-1.2832c0.46107,-0.55317 0.92847,-1.10134 1.40722,-1.6348z" fill="#002B51"/>
</svg>
