<svg width="24" height="24" viewBox="0 0 24 24" fill="none" xmlns="http://www.w3.org/2000/svg">
<path fill-rule="evenodd" clip-rule="evenodd" d="M21.0004,3.75c0,4.16175 -1.8842,7.0162 -4.3232,9.4362c1.1839,1.6468 0.8391,4.0033 -0.878,5.2201l-3.4651,2.4555c-0.2287,0.1621 -0.5291,0.1832 -0.7782,0.0546c-0.249,-0.1287 -0.4058,-0.3855 -0.406,-0.6657l-0.0013,-3.5918l-3.80347,-3.8035l-3.59436,0.0045c-0.28039,0.0002 -0.53804,-0.1557 -0.66706,-0.4047c-0.129,-0.249 -0.10744,-0.5492 0.05456,-0.7782l2.45761,-3.47407l0.12913,-0.17195c1.24803,-1.56868 3.50195,-1.85128 5.09219,-0.70572c2.4222,-2.44321 5.2724,-4.32526 9.4332,-4.32526l0.1465,0.01465c0.1443,0.02879 0.2783,0.09954 0.3838,0.20508c0.1406,0.14063 0.2197,0.33143 0.2197,0.53027zM6.82019,9.06955l-1.61861,2.28845l2.10126,-0.0024l1.06381,-1.2833c0.46168,-0.55391 0.92832,-1.10377 1.40775,-1.63789c-0.90093,-0.53217 -2.081,-0.36619 -2.79538,0.43488zM15.5681,14.2297c-0.7865,0.7062 -1.6065,1.3839 -2.4221,2.058c-0.1661,0.1373 -0.3321,0.2744 -0.4975,0.4116l0.0012,2.0999l2.2822,-1.6165c0.9694,-0.687 1.2077,-1.9814 0.6362,-2.953zM8.66938,12.0576l3.27542,3.2754l0.1386,-0.1149c3.7823,-3.1364 7.0692,-5.86207 7.3877,-10.69076c-4.8211,0.31859 -7.5396,3.59669 -10.68818,7.39336zM6.27862,16.5056l-0.00621,0.0076c-0.00419,0.0051 -0.01024,0.0124 -0.01727,0.0227c-0.01446,0.0213 -0.03222,0.0512 -0.05248,0.0912c-0.04133,0.0817 -0.08437,0.19 -0.12706,0.3232c-0.08578,0.2677 -0.15548,0.5908 -0.20854,0.9156c-0.01701,0.1041 -0.03063,0.2068 -0.04373,0.3055c-0.00131,0.0098 -0.00261,0.0196 -0.00391,0.0294c0.02129,-0.0028 0.04278,-0.0056 0.06446,-0.0085c0.08806,-0.0115 0.17905,-0.0234 0.27114,-0.0384c0.32479,-0.0531 0.64855,-0.1221 0.91633,-0.2079c0.13315,-0.0427 0.24147,-0.0857 0.32317,-0.127c0.04,-0.0203 0.0699,-0.0381 0.09115,-0.0525c0.01034,-0.0071 0.01763,-0.0131 0.02279,-0.0173l0.0076,-0.0062c0.34165,-0.3417 0.3416,-0.8958 0,-1.2374c-0.34167,-0.3417 -0.89577,-0.3417 -1.23744,0zM6.39739,19.6337c-0.36517,0.0596 -0.70673,0.0982 -0.9557,0.1215c-0.12497,0.0117 -0.22796,0.0204 -0.30038,0.0256c-0.02314,0.0016 -0.04323,0.0026 -0.05995,0.0035c-0.00941,0.0004 -0.01776,0.0008 -0.02498,0.0013l-0.02348,0.0014c-0.00159,0.0001 -0.00306,0.0005 -0.00433,0.0008c-0.00098,0.0003 -0.00185,0.0005 -0.00258,0.0006l-0.00207,-0.0007l-0.00069,0.0007c-0.21265,0.0115 -0.42046,-0.0684 -0.57107,-0.2189c-0.13167,-0.1317 -0.20923,-0.3069 -0.2189,-0.491v-0.0801l0.00069,-0.0007l-0.00069,-0.0021c0.00004,-0.0007 0.00028,-0.0016 0.00054,-0.0026c0.00035,-0.0012 0.00075,-0.0027 0.00084,-0.0043c0.00014,-0.0023 0.00017,-0.0052 0.00021,-0.0084c0.00005,-0.0046 0.00012,-0.0099 0.00048,-0.0158l0.00045,-0.0072c0.00121,-0.0194 0.00281,-0.0453 0.00508,-0.077c0.00517,-0.0724 0.01386,-0.1755 0.02555,-0.3004c0.02329,-0.2489 0.06118,-0.5912 0.12084,-0.9564c0.05911,-0.3617 0.14239,-0.7651 0.25964,-1.1311c0.109,-0.3401 0.2799,-0.7563 0.57107,-1.0475c0.92746,-0.9275 2.4313,-0.9275 3.35876,0c0.92739,0.9275 0.92743,2.4313 0,3.3588c-0.29119,0.2911 -0.70742,0.462 -1.04754,0.571c-0.36614,0.1173 -0.76996,0.1999 -1.13179,0.259z" fill="#002B51"/>
</svg>
