<svg width="24" height="24" viewBox="0 0 24 24" fill="none" xmlns="http://www.w3.org/2000/svg">
<path fill-rule="evenodd" clip-rule="evenodd" d="M11.9449 15.334L8.66954 12.0586L8.78916 11.9143C11.9362 8.11946 14.6542 4.84189 19.4749 4.52506C19.1575 9.35314 15.8698 12.0793 12.089 15.2145L11.9449 15.334ZM20.25 3C16.0891 3 13.2391 4.88203 10.817 7.32523C9.17028 6.139 6.81182 6.48412 5.59566 8.20297L3.13776 11.6768C2.97574 11.9058 2.95504 12.206 3.08411 12.4551C3.21317 12.7041 3.47042 12.8603 3.75093 12.86L7.3452 12.8556L11.1483 16.6587L11.15 20.2503C11.1501 20.5307 11.3066 20.7876 11.5557 20.9163C11.8048 21.045 12.1049 21.024 12.3336 20.8619L15.799 18.4062C17.516 17.1894 17.8609 14.8331 16.6772 13.1863C19.116 10.7663 21 7.91173 21 3.75C21 3.55109 20.921 3.36032 20.7803 3.21967C20.6397 3.07902 20.4489 3 20.25 3ZM6.82015 9.06935C7.50692 8.09872 8.80279 7.86062 9.77423 8.43439C9.06881 9.2203 8.39107 10.0403 7.71604 10.857L7.71603 10.857C7.57846 11.0235 7.44101 11.1898 7.30345 11.3556L5.20068 11.3582L6.82015 9.06935ZM15.5681 14.2298C14.7813 14.9364 13.961 15.6143 13.1451 16.2886L13.1445 16.2891C12.9788 16.4261 12.8133 16.5628 12.6484 16.6997L12.6493 18.7997L14.9317 17.1823C15.901 16.4954 16.1394 15.2013 15.5681 14.2298ZM6.27856 16.5055C6.62023 16.1638 7.17419 16.1638 7.51586 16.5055C7.85753 16.8472 7.85753 17.4011 7.51586 17.7428C7.51591 17.7427 7.51516 17.7435 7.51346 17.745C7.51229 17.746 7.51068 17.7474 7.50857 17.7491C7.5034 17.7533 7.49581 17.7591 7.48533 17.7662C7.46399 17.7807 7.43404 17.7986 7.3938 17.819C7.31203 17.8603 7.20422 17.9036 7.07091 17.9463C6.80313 18.0321 6.48013 18.1008 6.15533 18.1539C6.03972 18.1728 5.92617 18.1893 5.81762 18.2037C5.83204 18.0952 5.84857 17.9816 5.86746 17.866C5.92052 17.5412 5.98928 17.2182 6.07507 16.9504C6.11778 16.8171 6.161 16.7093 6.20237 16.6275C6.22272 16.5873 6.24063 16.5574 6.25515 16.536C6.26227 16.5255 6.26804 16.5179 6.27224 16.5128C6.27638 16.5077 6.27856 16.5055 6.27856 16.5055ZM5.02296 19.788C5.02285 19.788 5.02275 19.788 4.98224 19.0391C4.23333 18.9986 4.23334 18.9985 4.23334 18.9984L4.23336 18.9981L4.2334 18.9974L4.23351 18.9954L4.2339 18.9886L4.23532 18.9651C4.23657 18.945 4.23844 18.9163 4.24103 18.8801C4.2462 18.8076 4.25426 18.7047 4.26595 18.5797C4.28924 18.3308 4.32743 17.9894 4.38708 17.6242C4.4462 17.2623 4.52927 16.859 4.64659 16.4928C4.7556 16.1526 4.92658 15.7361 5.2179 15.4448C6.14535 14.5174 7.64906 14.5174 8.57652 15.4448C9.50398 16.3723 9.50398 17.876 8.57652 18.8035C8.2852 19.0948 7.8688 19.2658 7.52857 19.3748C7.16237 19.4921 6.75904 19.5752 6.39717 19.6343C6.032 19.6939 5.69058 19.7321 5.44161 19.7554C5.31662 19.7671 5.21372 19.7751 5.1413 19.7803C5.10506 19.7829 5.07637 19.7848 5.05628 19.786L5.0327 19.7875L5.02598 19.7878L5.02392 19.788L5.02322 19.788L5.02296 19.788ZM4.98224 19.0391L5.02275 19.788C4.81007 19.7995 4.60252 19.7201 4.45191 19.5694C4.3013 19.4188 4.22183 19.2113 4.23333 18.9986L4.98224 19.0391Z" fill="#002B51"/>
</svg>
