<svg width="24" height="24" viewBox="0 0 24 24" fill="none" xmlns="http://www.w3.org/2000/svg">
<path d="M20.25,3c0.1987,0.00008 0.3897,0.07924 0.5303,0.21973c0.1405,0.14063 0.2197,0.33143 0.2197,0.53027c0,4.16195 -1.8851,7.0155 -4.3242,9.4355c1.1847,1.6469 0.8404,4.0037 -0.877,5.2207l-3.4648,2.4551c-0.2288,0.1621 -0.5293,0.1834 -0.7783,0.0547c-0.2488,-0.1286 -0.4059,-0.385 -0.4063,-0.665l-0.001,-3.5918l-3.80367,-3.8037l-3.59375,0.0049c-0.28038,0.0002 -0.53797,-0.1564 -0.667,-0.4053c-0.129,-0.249 -0.10825,-0.5494 0.05372,-0.7783l2.458,-3.47368c1.21635,-1.71902 3.57493,-2.06374 5.2217,-0.87695c2.4222,-2.44328 5.2717,-4.32607 9.4326,-4.32617zM5.21777,15.4453c0.92746,-0.9274 2.43094,-0.9274 3.3584,0c0.92739,0.9275 0.92744,2.431 0,3.3584c-0.29113,0.291 -0.70687,0.4623 -1.04687,0.5713c-0.36608,0.1173 -0.77006,0.1997 -1.13184,0.2588c-0.36518,0.0596 -0.70709,0.0978 -0.95605,0.1211c-0.12466,0.0116 -0.22744,0.0202 -0.29981,0.0254c-0.03592,0.0025 -0.06492,0.0036 -0.08496,0.0049c-0.00974,0.0006 -0.01785,0.0016 -0.02344,0.0019c-0.00281,0.0002 -0.00615,0.0009 -0.00781,0.001h-0.08203c-0.18417,-0.0097 -0.35951,-0.0871 -0.49121,-0.2188c-0.13167,-0.1316 -0.20908,-0.3071 -0.21875,-0.4912v-0.082c0.00009,-0.0017 0.00081,-0.005 0.00098,-0.0078c0.00028,-0.0056 0.00038,-0.0138 0.00097,-0.0235c0.00125,-0.02 0.0033,-0.0491 0.00586,-0.0849c0.00517,-0.0724 0.01374,-0.1752 0.02539,-0.2998c0.02329,-0.249 0.06046,-0.5919 0.12012,-0.9571c0.0591,-0.3616 0.14256,-0.765 0.25976,-1.1308c0.10898,-0.34 0.28031,-0.7557 0.57129,-1.0469zM15.5645,14.2295c-0.9462,0.8495 -1.9391,1.6595 -2.9161,2.4697l0.001,2.0996l2.2822,-1.6162c0.97,-0.6874 1.2056,-1.9813 0.6329,-2.9531zM7.51562,16.5059c-0.34167,-0.3417 -0.89563,-0.3417 -1.2373,0c-0.0007,0.0008 -0.00278,0.003 -0.00586,0.0068c-0.00419,0.0052 -0.01055,0.0131 -0.01758,0.0234c-0.01444,0.0213 -0.03253,0.051 -0.05273,0.0909c-0.04133,0.0817 -0.08428,0.19 -0.12695,0.3232c-0.08579,0.2678 -0.15495,0.5912 -0.20801,0.916c-0.01869,0.1144 -0.03354,0.2274 -0.04785,0.335c0.1078,-0.0144 0.22119,-0.0282 0.33593,-0.0469c0.32469,-0.0531 0.64833,-0.1222 0.91602,-0.208c0.13312,-0.0427 0.24154,-0.0856 0.32324,-0.127c0.03987,-0.0202 0.06958,-0.0383 0.09082,-0.0527c0.01033,-0.007 0.01827,-0.0134 0.02344,-0.0176c0.00379,-0.0031 0.00603,-0.0051 0.00683,-0.0058c0.34165,-0.3417 0.34161,-0.8957 0,-1.2373zM9.77344,8.43652c-0.97142,-0.57394 -2.26624,-0.33771 -2.95313,0.63282l-1.61914,2.28906l2.10059,-0.0029c0.81227,-0.9794 1.62276,-1.97314 2.47168,-2.91898z" fill="#002B51"/>
</svg>
