<svg width="24" height="24" viewBox="0 0 24 24" fill="none" xmlns="http://www.w3.org/2000/svg">
<path fill-rule="evenodd" clip-rule="evenodd" d="M7.71604,10.857c0.67503,-0.8167 1.35277,-1.6367 2.05819,-2.42261c-0.97144,-0.57377 -2.26731,-0.33567 -2.95408,0.63496l-1.61947,2.28885l2.10277,-0.0026c0.13756,-0.1658 0.27501,-0.3321 0.41258,-0.4986zM5.59566,8.20297c1.21616,-1.71885 3.57462,-2.06397 5.22134,-0.87774c2.4221,-2.4432 5.2721,-4.32523 9.433,-4.32523c0.1989,0 0.3897,0.07902 0.5303,0.21967c0.1407,0.14065 0.2197,0.33142 0.2197,0.53033c0,4.16173 -1.884,7.0163 -4.3228,9.4363c1.1837,1.6468 0.8388,4.0031 -0.8782,5.2199l-3.4654,2.4557c-0.2287,0.1621 -0.5288,0.1831 -0.7779,0.0544c-0.2491,-0.1287 -0.4056,-0.3856 -0.4057,-0.666l-0.0017,-3.5916l-3.8031,-3.8031l-3.59427,0.0044c-0.28051,0.0003 -0.53776,-0.1559 -0.66682,-0.4049c-0.12907,-0.2491 -0.10837,-0.5493 0.05365,-0.7783zM12.6484,16.6997l0.0009,2.1l2.2824,-1.6174c0.9693,-0.6869 1.2077,-1.981 0.6364,-2.9525c-0.7868,0.7066 -1.6071,1.3845 -2.423,2.0588l-0.0006,0.0005c-0.1657,0.137 -0.3312,0.2737 -0.4961,0.4106zM6.27224,16.5128c-0.0042,0.0051 -0.00997,0.0127 -0.01709,0.0232c-0.01452,0.0214 -0.03243,0.0513 -0.05278,0.0915c-0.04137,0.0818 -0.08459,0.1896 -0.1273,0.3229c-0.08579,0.2678 -0.15455,0.5908 -0.20761,0.9156c-0.01889,0.1156 -0.03542,0.2292 -0.04984,0.3377c0.10855,-0.0144 0.2221,-0.0309 0.33771,-0.0498c0.3248,-0.0531 0.6478,-0.1218 0.91558,-0.2076c0.13331,-0.0427 0.24112,-0.086 0.32289,-0.1273c0.04024,-0.0204 0.07019,-0.0383 0.09153,-0.0528c0.01048,-0.0071 0.01807,-0.0129 0.02324,-0.0171c0.00211,-0.0017 0.00372,-0.0031 0.00489,-0.0041c0.0017,-0.0015 0.00245,-0.0023 0.0024,-0.0022c0.34167,-0.3417 0.34167,-0.8956 0,-1.2373c-0.34167,-0.3417 -0.89563,-0.3417 -1.2373,0c0,0 -0.00218,0.0022 -0.00632,0.0073zM5.02296,19.788c-0.00011,0 -0.00021,0 -0.04072,-0.7489c-0.74891,-0.0405 -0.7489,-0.0406 -0.7489,-0.0407l0.00002,-0.0003l0.00004,-0.0007l0.00011,-0.002l0.00039,-0.0068l0.00142,-0.0235c0.00125,-0.0201 0.00312,-0.0488 0.00571,-0.085c0.00517,-0.0725 0.01323,-0.1754 0.02492,-0.3004c0.02329,-0.2489 0.06148,-0.5903 0.12113,-0.9555c0.05912,-0.3619 0.14219,-0.7652 0.25951,-1.1314c0.10901,-0.3402 0.27999,-0.7567 0.57131,-1.048c0.92745,-0.9274 2.43116,-0.9274 3.35862,0c0.92746,0.9275 0.92746,2.4312 0,3.3587c-0.29132,0.2913 -0.70772,0.4623 -1.04795,0.5713c-0.3662,0.1173 -0.76953,0.2004 -1.1314,0.2595c-0.36517,0.0596 -0.70659,0.0978 -0.95556,0.1211c-0.12499,0.0117 -0.22789,0.0197 -0.30031,0.0249c-0.03624,0.0026 -0.06493,0.0045 -0.08502,0.0057l-0.02358,0.0015l-0.00672,0.0003l-0.00206,0.0002h-0.0007zM4.98224,19.0391l0.04051,0.7489c-0.21268,0.0115 -0.42023,-0.0679 -0.57084,-0.2186c-0.15061,-0.1506 -0.23008,-0.3581 -0.21858,-0.5708z" fill="#002B51"/>
</svg>
