<svg width="24" height="24" viewBox="0 0 24 24" fill="none" xmlns="http://www.w3.org/2000/svg">
<path fill-rule="evenodd" clip-rule="evenodd" d="M7.25,8.5c0,2.6234 2.12665,4.75 4.75,4.75c2.6234,0 4.75,-2.1266 4.75,-4.75c0,-2.62335 -2.1266,-4.75 -4.75,-4.75c-2.62335,0 -4.75,2.12665 -4.75,4.75zM17.2354,20.8525c0.0594,0.2975 -0.0664,0.6018 -0.3184,0.7705c-0.252,0.1687 -0.5807,0.1692 -0.833,0.001l-4.084,-2.7226l-4.08398,2.7226c-0.25234,0.1682 -0.58099,0.1677 -0.83301,-0.001c-0.25205,-0.1687 -0.37785,-0.473 -0.31836,-0.7705l1.47237,-7.3618c-1.51067,-1.1409 -2.48702,-2.9518 -2.48702,-4.9907c0,-3.45178 2.79822,-6.25 6.25,-6.25c3.4518,0 6.25,2.79822 6.25,6.25c0,2.0389 -0.9763,3.8498 -2.487,4.9907zM14.3904,14.2766c-0.7363,0.305 -1.5437,0.4734 -2.3904,0.4734c-0.8467,0 -1.6541,-0.1684 -2.39055,-0.4735l-1.01961,5.0946l2.99416,-1.9951l0.0976,-0.0547c0.2351,-0.1104 0.5139,-0.0923 0.7344,0.0547l2.9932,1.9951z" fill="#002B51"/>
</svg>
