<svg width="24" height="24" viewBox="0 0 24 24" fill="none" xmlns="http://www.w3.org/2000/svg">
<path fill-rule="evenodd" clip-rule="evenodd" d="M11.9999 2.25C8.27199 2.25 5.24991 5.27208 5.24991 9C5.24991 10.1434 5.53419 11.2203 6.03592 12.1641L2.85207 17.6221C2.70713 17.8706 2.71708 18.1801 2.87767 18.4187C3.03826 18.6574 3.32121 18.7831 3.60598 18.7425L6.53697 18.3237L7.81055 21.2954C7.92215 21.5558 8.17097 21.7311 8.45374 21.7486C8.73652 21.766 9.00499 21.6226 9.14774 21.3779L11.9999 16.4885L14.8521 21.3779C14.9948 21.6226 15.2633 21.766 15.5461 21.7486C15.8288 21.7311 16.0777 21.5558 16.1893 21.2954L17.4628 18.3237L20.3938 18.7425C20.6786 18.7831 20.9616 18.6574 21.1221 18.4187C21.2827 18.1801 21.2927 17.8706 21.1477 17.6221L17.9639 12.1641C18.4656 11.2203 18.7499 10.1434 18.7499 9C18.7499 5.27208 15.7278 2.25 11.9999 2.25ZM17.0163 13.5166C16.0435 14.5963 14.7272 15.3603 13.2394 15.6364L15.3973 19.3356L16.3105 17.2046C16.4441 16.8929 16.7703 16.7096 17.106 16.7575L19.0706 17.0382L17.0163 13.5166ZM10.7604 15.6364C9.27266 15.3603 7.95629 14.5963 6.98353 13.5166L4.92924 17.0382L6.89384 16.7575C7.22956 16.7096 7.55568 16.8929 7.68927 17.2046L8.60255 19.3356L10.7604 15.6364ZM6.74991 9C6.74991 6.10051 9.10041 3.75 11.9999 3.75C14.8994 3.75 17.2499 6.10051 17.2499 9C17.2499 11.8995 14.8994 14.25 11.9999 14.25C9.10041 14.25 6.74991 11.8995 6.74991 9Z" fill="#002B51"/>
</svg>
