<svg width="24" height="24" viewBox="0 0 24 24" fill="none" xmlns="http://www.w3.org/2000/svg">
<path fill-rule="evenodd" clip-rule="evenodd" d="M5.25012,9c0,-3.72792 3.02208,-6.75 6.74998,-6.75c3.7279,0 6.75,3.02208 6.75,6.75c0,1.1434 -0.2843,2.2203 -0.786,3.1641l3.1839,5.458c0.1449,0.2485 0.135,0.558 -0.0256,0.7966c-0.1606,0.2387 -0.4436,0.3644 -0.7283,0.3238l-2.931,-0.4188l-1.2736,2.9717c-0.1116,0.2604 -0.3604,0.4357 -0.6432,0.4532c-0.2828,0.0174 -0.5513,-0.126 -0.694,-0.3707l-2.8522,-4.8894l-2.85214,4.8894c-0.14276,0.2447 -0.41123,0.3881 -0.694,0.3707c-0.28278,-0.0175 -0.53159,-0.1928 -0.6432,-0.4532l-1.27358,-2.9717l-2.93099,0.4188c-0.28477,0.0406 -0.56771,-0.0851 -0.72831,-0.3238c-0.16059,-0.2386 -0.17053,-0.5481 -0.02559,-0.7966l3.18384,-5.458c-0.50173,-0.9438 -0.78601,-2.0207 -0.78601,-3.1641zM6.98375,13.5166l-2.0543,3.5216l1.96461,-0.2807c0.33571,-0.0479 0.66183,0.1354 0.79542,0.4471l0.91329,2.131l2.15783,-3.6992c-1.48773,-0.2761 -2.8041,-1.0401 -3.77685,-2.1198zM13.2397,15.6364l2.1578,3.6992l0.9133,-2.131c0.1336,-0.3117 0.4597,-0.495 0.7954,-0.4471l1.9646,0.2807l-2.0543,-3.5217c-0.9728,1.0798 -2.2891,1.8438 -3.7768,2.1199z" fill="#002B51"/>
</svg>
