<svg width="24" height="24" viewBox="0 0 24 24" fill="none" xmlns="http://www.w3.org/2000/svg">
<path fill-rule="evenodd" clip-rule="evenodd" d="M18.25,8.5c0,2.0389 -0.9763,3.8498 -2.487,4.9907l1.4724,7.3622c0.0595,0.2975 -0.066,0.6015 -0.3181,0.7703c-0.252,0.1688 -0.5809,0.1691 -0.8333,0.0008l-4.084,-2.7226l-4.08397,2.7226c-0.2524,0.1683 -0.58131,0.168 -0.83336,-0.0008c-0.25205,-0.1688 -0.3776,-0.4728 -0.31811,-0.7703l1.47245,-7.3622c-1.51067,-1.1409 -2.48701,-2.9518 -2.48701,-4.9907c0,-3.45178 2.79822,-6.25 6.25,-6.25c3.4518,0 6.25,2.79822 6.25,6.25zM14.3905,14.2766c-0.7364,0.305 -1.5438,0.4734 -2.3905,0.4734c-0.8467,0 -1.6541,-0.1684 -2.39046,-0.4734l-1.019,5.095l2.99346,-1.9956c0.2519,-0.168 0.5801,-0.168 0.832,0l2.9935,1.9956zM12,13.25c2.6234,0 4.75,-2.1266 4.75,-4.75c0,-2.62335 -2.1266,-4.75 -4.75,-4.75c-2.62335,0 -4.75,2.12665 -4.75,4.75c0,2.6234 2.12665,4.75 4.75,4.75z" fill="#002B51"/>
</svg>
