<svg width="24" height="24" viewBox="0 0 24 24" fill="none" xmlns="http://www.w3.org/2000/svg">
<path d="M12.0002,2.25c3.7278,0.00011 6.75,3.02215 6.75,6.75c0,1.1432 -0.2855,2.2194 -0.7871,3.1631l3.1845,5.459c0.1449,0.2484 0.1352,0.5582 -0.0253,0.7968c-0.1606,0.2385 -0.444,0.3639 -0.7286,0.3233l-2.9306,-0.419l-1.2735,2.9727c-0.1116,0.2601 -0.361,0.4356 -0.6435,0.4531c-0.2826,0.0173 -0.5506,-0.1266 -0.6934,-0.3711l-2.8525,-4.8906l-2.85256,4.8906c-0.14269,0.2445 -0.41083,0.3884 -0.69336,0.3711c-0.28262,-0.0174 -0.53186,-0.1929 -0.64355,-0.4531l-1.27441,-2.9727l-2.92969,0.419c-0.28463,0.0406 -0.56788,-0.0848 -0.72852,-0.3233c-0.16059,-0.2386 -0.17033,-0.5484 -0.02539,-0.7968l3.1836,-5.459c-0.50152,-0.9436 -0.78614,-2.02 -0.78614,-3.1631c0,-3.72792 3.02208,-6.75 6.75002,-6.75zM4.92889,17.0381l1.96485,-0.2803l0.125,-0.0078c0.28912,0.0071 0.5539,0.1815 0.6709,0.4541l0.91308,2.1309l2.15818,-3.7002c-1.488,-0.2762 -2.80448,-1.0391 -3.77732,-2.1192zM17.0158,13.5146c-0.9732,1.0806 -2.2896,1.8442 -3.7783,2.1202l2.1592,3.7002l0.914,-2.1309c0.1337,-0.3114 0.4604,-0.4942 0.7959,-0.4463l1.9639,0.2803zM12.0002,3.75c-2.89951,0 -5.25002,2.35051 -5.25002,5.25c0,2.8995 2.35051,5.25 5.25002,5.25c2.8994,-0.0001 5.25,-2.3506 5.25,-5.25c0,-2.89942 -2.3506,-5.24989 -5.25,-5.25z" fill="#002B51"/>
</svg>
