<svg width="24" height="24" viewBox="0 0 24 24" fill="none" xmlns="http://www.w3.org/2000/svg">
<path fill-rule="evenodd" clip-rule="evenodd" d="M6.75002,9c0,2.8995 2.35051,5.25 5.24998,5.25c2.8995,0 5.25,-2.3505 5.25,-5.25c0,-2.89949 -2.3505,-5.25 -5.25,-5.25c-2.89947,0 -5.24998,2.35051 -5.24998,5.25zM21.1475,17.6221c0.1449,0.2484 0.1352,0.5582 -0.0254,0.7968c-0.1606,0.2385 -0.4438,0.364 -0.7285,0.3233l-2.9307,-0.419l-1.2734,2.9727c-0.1117,0.2602 -0.3609,0.4357 -0.6436,0.4531c-0.2826,0.0173 -0.5506,-0.1265 -0.6933,-0.3711l-2.8526,-4.8906l-2.85251,4.8906c-0.14273,0.2446 -0.41076,0.3884 -0.69336,0.3711c-0.28265,-0.0174 -0.53188,-0.1929 -0.64356,-0.4531l-1.27441,-2.9727l-2.92969,0.419c-0.28467,0.0407 -0.56789,-0.0848 -0.72851,-0.3233c-0.1606,-0.2386 -0.17034,-0.5484 -0.0254,-0.7968l3.18364,-5.4577c-0.50183,-0.9438 -0.78618,-2.0209 -0.78618,-3.1644c0,-3.72792 3.02208,-6.75 6.74998,-6.75c3.7279,0 6.75,3.02208 6.75,6.75c0,1.1435 -0.2843,2.2206 -0.7862,3.1644zM17.0165,13.5164c-0.9728,1.0799 -2.2894,1.844 -3.7773,2.1201l2.1573,3.6985l0.9141,-2.1309l0.0586,-0.1103c0.1565,-0.2433 0.4435,-0.378 0.7373,-0.336l1.9638,0.2803zM10.7607,15.6365c-1.48796,-0.2762 -2.8045,-1.0403 -3.77732,-2.1202l-2.05464,3.5218l1.96484,-0.2803l0.125,-0.0078c0.28921,0.007 0.55387,0.1814 0.6709,0.4541l0.91308,2.1309z" fill="#002B51"/>
</svg>
