<svg width="24" height="24" viewBox="0 0 24 24" fill="none" xmlns="http://www.w3.org/2000/svg">
<path d="M12.0001,2.25c3.7279,0 6.75,3.02208 6.75,6.75c0,1.1432 -0.2855,2.2194 -0.7871,3.1631l3.1845,5.459c0.145,0.2484 0.1352,0.5582 -0.0253,0.7968c-0.1607,0.2385 -0.4439,0.364 -0.7286,0.3233l-2.9306,-0.419l-1.2735,2.9727c-0.1116,0.2602 -0.3609,0.4357 -0.6435,0.4531c-0.2826,0.0173 -0.5506,-0.1265 -0.6934,-0.3711l-2.8525,-4.8906l-2.85255,4.8906c-0.14273,0.2446 -0.41076,0.3884 -0.69336,0.3711c-0.28265,-0.0174 -0.53188,-0.1929 -0.64356,-0.4531l-1.27441,-2.9727l-2.92969,0.419c-0.28467,0.0407 -0.56789,-0.0848 -0.72851,-0.3233c-0.1606,-0.2386 -0.17034,-0.5484 -0.02539,-0.7968l3.18359,-5.459c-0.50149,-0.9436 -0.78613,-2.02 -0.78613,-3.1631c0,-3.72792 3.02207,-6.75 6.75001,-6.75zM4.9288,17.0381l1.96484,-0.2803l0.125,-0.0078c0.28921,0.007 0.55387,0.1814 0.6709,0.4541l0.91309,2.1309l2.15817,-3.7002c-1.48821,-0.2763 -2.80446,-1.0398 -3.77732,-2.1202zM17.0157,13.5146c-0.9732,1.0806 -2.2895,1.8443 -3.7783,2.1202l2.1592,3.7002l0.914,-2.1309l0.0586,-0.1103c0.1565,-0.2433 0.4436,-0.378 0.7373,-0.336l1.9639,0.2803z" fill="#002B51"/>
</svg>
