<svg width="24" height="24" viewBox="0 0 24 24" fill="none" xmlns="http://www.w3.org/2000/svg">
<path fill-rule="evenodd" clip-rule="evenodd" d="M18.7499,9c0,1.1434 -0.2843,2.2203 -0.786,3.1641l3.1838,5.458c0.145,0.2485 0.135,0.558 -0.0256,0.7966c-0.1606,0.2387 -0.4435,0.3644 -0.7283,0.3238l-2.931,-0.4188l-1.2736,2.9717c-0.1116,0.2604 -0.3604,0.4357 -0.6432,0.4532c-0.2827,0.0174 -0.5512,-0.126 -0.694,-0.3707l-2.8521,-4.8894l-2.85219,4.8894c-0.14275,0.2447 -0.41122,0.3881 -0.694,0.3707c-0.28277,-0.0175 -0.53159,-0.1928 -0.64319,-0.4532l-1.27358,-2.9717l-2.931,0.4188c-0.28476,0.0406 -0.56771,-0.0851 -0.7283,-0.3238c-0.1606,-0.2386 -0.17054,-0.5481 -0.0256,-0.7966l3.18385,-5.458c-0.50173,-0.9438 -0.78601,-2.0207 -0.78601,-3.1641c0,-3.72792 3.02208,-6.75 6.75002,-6.75c3.7279,0 6.75,3.02208 6.75,6.75zM17.0163,13.5166c-0.9728,1.0797 -2.2892,1.8437 -3.7769,2.1198l2.1578,3.6992l0.9133,-2.131c0.1336,-0.3117 0.4597,-0.495 0.7954,-0.4471l1.9646,0.2807zM10.7603,15.6364c-1.48767,-0.2761 -2.80404,-1.0401 -3.7768,-2.1198l-2.05429,3.5216l1.9646,-0.2807c0.33572,-0.0479 0.66184,0.1354 0.79543,0.4471l0.91328,2.131zM11.9999,14.25c2.8995,0 5.25,-2.3505 5.25,-5.25c0,-2.89949 -2.3505,-5.25 -5.25,-5.25c-2.89952,0 -5.25002,2.35051 -5.25002,5.25c0,2.8995 2.3505,5.25 5.25002,5.25z" fill="#002B51"/>
</svg>
