<svg width="24" height="24" viewBox="0 0 24 24" fill="none" xmlns="http://www.w3.org/2000/svg">
<path fill-rule="evenodd" clip-rule="evenodd" d="M12 2.25C8.54822 2.25 5.75 5.04822 5.75 8.5C5.75 10.5389 6.72634 12.3498 8.23701 13.4907L6.76456 20.8529C6.70507 21.1504 6.83062 21.4544 7.08267 21.6232C7.33472 21.792 7.66363 21.7923 7.91603 21.624L12 18.9014L16.084 21.624C16.3364 21.7923 16.6653 21.792 16.9173 21.6232C17.1694 21.4544 17.2949 21.1504 17.2354 20.8529L15.763 13.4907C17.2737 12.3498 18.25 10.5389 18.25 8.5C18.25 5.04822 15.4518 2.25 12 2.25ZM14.3905 14.2766C13.6541 14.5816 12.8467 14.75 12 14.75C11.1533 14.75 10.3459 14.5816 9.60954 14.2766L8.59054 19.3716L11.584 17.376C11.8359 17.208 12.1641 17.208 12.416 17.376L15.4095 19.3716L14.3905 14.2766ZM7.25 8.5C7.25 5.87665 9.37665 3.75 12 3.75C14.6234 3.75 16.75 5.87665 16.75 8.5C16.75 11.1234 14.6234 13.25 12 13.25C9.37665 13.25 7.25 11.1234 7.25 8.5Z" fill="#002B51"/>
</svg>
