<svg width="24" height="24" viewBox="0 0 24 24" fill="none" xmlns="http://www.w3.org/2000/svg">
<path d="M12.0004,2.25c3.7278,0.00015 6.75,3.02217 6.75,6.75c0,1.143 -0.2867,2.2186 -0.7881,3.1621l3.1855,5.46c0.1449,0.2484 0.1351,0.5582 -0.0254,0.7968c-0.1605,0.2385 -0.4439,0.3638 -0.7285,0.3233l-2.9306,-0.419l-1.2735,2.9727c-0.1116,0.2601 -0.361,0.4356 -0.6435,0.4531c-0.2826,0.0173 -0.5506,-0.1266 -0.6934,-0.3711l-2.8525,-4.8906l-2.85257,4.8906c-0.14269,0.2445 -0.41087,0.3883 -0.69336,0.3711c-0.28261,-0.0174 -0.53186,-0.1929 -0.64356,-0.4531l-1.27441,-2.9727l-2.92969,0.419c-0.28462,0.0406 -0.56788,-0.0848 -0.72851,-0.3233c-0.1606,-0.2386 -0.17034,-0.5484 -0.02539,-0.7968l3.18359,-5.459c-0.50153,-0.9436 -0.78613,-2.02 -0.78613,-3.1631c0,-3.72792 3.02207,-6.75 6.75003,-6.75zM4.92908,17.0381l1.96484,-0.2803l0.125,-0.0078c0.2891,0.0071 0.55391,0.1815 0.6709,0.4541l0.91309,2.1309l2.15819,-3.7002c-1.48803,-0.2762 -2.80448,-1.0392 -3.77734,-2.1192zM17.016,13.5146c-0.9732,1.0806 -2.2896,1.8442 -3.7783,2.1202l2.1592,3.7002l0.914,-2.1309c0.1337,-0.3114 0.4604,-0.4942 0.7959,-0.4463l1.9639,0.2803z" fill="#002B51"/>
</svg>
