<svg width="24" height="24" viewBox="0 0 24 24" fill="none" xmlns="http://www.w3.org/2000/svg">
<path d="M12,2.25c3.4518,0 6.25,2.79822 6.25,6.25c0,2.0389 -0.9767,3.8494 -2.4873,4.9902l1.4727,7.3623c0.0594,0.2975 -0.0664,0.6018 -0.3184,0.7705c-0.252,0.1687 -0.5807,0.1692 -0.833,0.001l-4.084,-2.7226l-4.08398,2.7226c-0.25234,0.1682 -0.58099,0.1677 -0.83301,-0.001c-0.25205,-0.1687 -0.37785,-0.473 -0.31836,-0.7705l1.47168,-7.3623c-1.5103,-1.1408 -2.48633,-2.9516 -2.48633,-4.9902c0,-3.45178 2.79822,-6.25 6.25,-6.25zM14.3896,14.2754c-0.7363,0.305 -1.543,0.4746 -2.3896,0.4746c-0.8469,0 -1.6541,-0.1694 -2.39062,-0.4746l-1.01954,5.0957l2.99416,-1.9951l0.0976,-0.0547c0.2351,-0.1104 0.5139,-0.0923 0.7344,0.0547l2.9932,1.9951z" fill="#002B51"/>
</svg>
