<svg width="24" height="24" viewBox="0 0 24 24" fill="none" xmlns="http://www.w3.org/2000/svg">
<path fill-rule="evenodd" clip-rule="evenodd" d="M17.75,5c0,0.69036 0.5596,1.25 1.25,1.25c0.6904,0 1.25,-0.55964 1.25,-1.25c0,-0.69036 -0.5596,-1.25 -1.25,-1.25c-0.6904,0 -1.25,0.55964 -1.25,1.25zM16.25,5c0,-1.51878 1.2312,-2.75 2.75,-2.75c1.5188,0 2.75,1.23122 2.75,2.75c0,1.51878 -1.2312,2.75 -2.75,2.75c-1.5188,0 -2.75,-1.23122 -2.75,-2.75zM19.25,15.5c0,-1.5188 -1.2312,-2.75 -2.75,-2.75h-8c-2.34721,0 -4.25,-1.9028 -4.25,-4.25c0,-2.34721 1.90279,-4.25 4.25,-4.25h4.5c0.4142,0 0.75,0.33579 0.75,0.75c0,0.41421 -0.3358,0.75 -0.75,0.75h-4.5c-1.51878,0 -2.75,1.23122 -2.75,2.75c0,1.5188 1.23122,2.75 2.75,2.75h8c2.3472,0 4.25,1.9028 4.25,4.25c0,2.3472 -1.9028,4.25 -4.25,4.25h-5.5c-0.4142,0 -0.75,-0.3358 -0.75,-0.75c0,-0.4142 0.3358,-0.75 0.75,-0.75h5.5c1.5188,0 2.75,-1.2312 2.75,-2.75zM6.25,19c0,-0.6904 -0.55964,-1.25 -1.25,-1.25c-0.69036,0 -1.25,0.5596 -1.25,1.25c0,0.6904 0.55964,1.25 1.25,1.25c0.69036,0 1.25,-0.5596 1.25,-1.25zM7.75,19c0,1.5188 -1.23122,2.75 -2.75,2.75c-1.51878,0 -2.75,-1.2312 -2.75,-2.75c0,-1.5188 1.23122,-2.75 2.75,-2.75c1.51878,0 2.75,1.2312 2.75,2.75z" fill="#002B51"/>
</svg>
