<svg width="24" height="24" viewBox="0 0 24 24" fill="none" xmlns="http://www.w3.org/2000/svg">
<path d="M20,7.25c0.9665,0 1.75,0.7835 1.75,1.75v6c0,0.9665 -0.7835,1.75 -1.75,1.75h-16c-0.9665,0 -1.75,-0.7835 -1.75,-1.75v-6c0,-0.9665 0.7835,-1.75 1.75,-1.75zM5.75,11c0,0.4142 0.33579,0.75 0.75,0.75c0.41421,0 0.75,-0.3358 0.75,-0.75v-2.25h-1.5zM9.25,11c0,0.4142 0.33579,0.75 0.75,0.75c0.4142,0 0.75,-0.3358 0.75,-0.75v-2.25h-1.5zM13.25,11c0,0.4142 0.3358,0.75 0.75,0.75c0.4142,0 0.75,-0.3358 0.75,-0.75v-2.25h-1.5zM16.75,11c0,0.4142 0.3358,0.75 0.75,0.75c0.4142,0 0.75,-0.3358 0.75,-0.75v-2.25h-1.5z" fill="#002B51"/>
</svg>
