<svg width="24" height="24" viewBox="0 0 24 24" fill="none" xmlns="http://www.w3.org/2000/svg">
<path fill-rule="evenodd" clip-rule="evenodd" d="M4.25061,20.2498v-16.49998h-1.25c-0.41421,0 -0.75,-0.33578 -0.75,-0.75c0,-0.41421 0.33579,-0.75 0.75,-0.75h2h2c0.41421,0 0.75,0.33579 0.75,0.75c0,0.41422 -0.33579,0.75 -0.75,0.75h-1.25v16.49998h1.25c0.41421,0 0.75,0.3358 0.75,0.75c0,0.4142 -0.33579,0.75 -0.75,0.75h-2h-2c-0.41421,0 -0.75,-0.3358 -0.75,-0.75c0,-0.4142 0.33579,-0.75 0.75,-0.75zM12.0006,21.7498c-0.9665,0 -1.75,-0.7835 -1.75,-1.75v-15.99998c0,-0.9665 0.7835,-1.75 1.75,-1.75h6c0.9665,0 1.75,0.7835 1.75,1.75v15.99998c0,0.9665 -0.7835,1.75 -1.75,1.75zM14.0006,7.24982c0.4143,0 0.75,-0.33579 0.75,-0.75c0,-0.41422 -0.3357,-0.75 -0.75,-0.75h-2.25v1.5zM14.0006,10.7498c0.4143,0 0.75,-0.3358 0.75,-0.74998c0,-0.41422 -0.3357,-0.75 -0.75,-0.75h-2.25v1.49998zM14.0006,14.7498c0.4143,0 0.75,-0.3358 0.75,-0.75c0,-0.4142 -0.3357,-0.75 -0.75,-0.75h-2.25v1.5zM14.0006,18.2498c0.4143,0 0.75,-0.3358 0.75,-0.75c0,-0.4142 -0.3357,-0.75 -0.75,-0.75h-2.25v1.5z" fill="#002B51"/>
</svg>
