<svg width="24" height="24" viewBox="0 0 24 24" fill="none" xmlns="http://www.w3.org/2000/svg">
<path fill-rule="evenodd" clip-rule="evenodd" d="M22.3231,6.26276l0.1202,0.13281c0.5232,0.64152 0.5232,1.56747 0,2.20898l-0.1202,0.13282l-13.5859,13.58593c-0.64068,0.6405 -1.65451,0.6806 -2.3418,0.1201l-0.13281,-0.1201l-4.58594,-4.5859c-0.68335,-0.6834 -0.68322,-1.7912 0,-2.4746l13.58595,-13.58598l0.1328,-0.12012c0.6873,-0.56057 1.7011,-0.52051 2.3418,0.12012zM14.5605,4.49996l-1.0605,1.06055l1.4696,1.46963l0.0567,0.05176c0.2945,0.24031 0.7293,0.22284 1.0039,-0.05176c0.2746,-0.2746 0.292,-0.70933 0.0517,-1.00391l-0.0517,-0.05664zM11.5605,7.49996l-1.0605,1.06055l1.4696,1.46959l0.0567,0.0518c0.2945,0.2403 0.7293,0.2228 1.0039,-0.0518c0.2746,-0.27457 0.292,-0.70929 0.0517,-1.00387l-0.0517,-0.05664zM8.56054,10.5l-1.06054,1.0605l1.46963,1.4696l0.05664,0.0518c0.29458,0.2403 0.7293,0.2228 1.00393,-0.0518c0.2746,-0.2746 0.292,-0.7093 0.0517,-1.0039l-0.0517,-0.0566zM5.56054,13.5l-1.06054,1.0605l1.46963,1.4696l0.05664,0.0518c0.29458,0.2403 0.7293,0.2228 1.0039,-0.0518c0.27461,-0.2746 0.29207,-0.7093 0.05176,-1.0039l-0.05176,-0.0566z" fill="#002B51"/>
</svg>
