<svg width="24" height="24" viewBox="0 0 24 24" fill="none" xmlns="http://www.w3.org/2000/svg">
<path fill-rule="evenodd" clip-rule="evenodd" d="M22.3232,6.26266c0.6834,0.68342 0.6834,1.79147 0,2.47488l-13.5858,13.58556c-0.68342,0.6834 -1.79145,0.6834 -2.47487,0l-4.58578,-4.5858c-0.68342,-0.6834 -0.68342,-1.7915 0.00001,-2.4749l13.58574,-13.58554c0.6835,-0.68341 1.7915,-0.6834 2.4749,0.00001zM14.5607,4.49998l-1.0607,1.06065l1.4696,1.4696c0.2929,0.2929 0.7678,0.2929 1.0607,0c0.2929,-0.29289 0.2929,-0.76776 0,-1.06066zM11.5607,7.49996l-1.0607,1.06065l1.4696,1.46959c0.2929,0.2929 0.7678,0.2929 1.0607,0c0.2929,-0.29286 0.2929,-0.76773 0,-1.06063zM8.56066,10.4999l-1.06067,1.0607l1.46965,1.4696c0.29289,0.2929 0.76777,0.2929 1.06066,0c0.2929,-0.2929 0.2929,-0.7677 0,-1.0606zM5.56064,13.4999l-1.06067,1.0607l1.46967,1.4696c0.29289,0.2929 0.76777,0.2929 1.06066,0c0.29289,-0.2929 0.29289,-0.7677 0,-1.0606z" fill="#002B51"/>
</svg>
