<svg width="24" height="24" viewBox="0 0 24 24" fill="none" xmlns="http://www.w3.org/2000/svg">
<path fill-rule="evenodd" clip-rule="evenodd" d="M20.25,9c0,-0.13807 -0.1119,-0.25 -0.25,-0.25h-1.75v2.25c0,0.4142 -0.3358,0.75 -0.75,0.75c-0.4142,0 -0.75,-0.3358 -0.75,-0.75v-2.25h-2v2.25c0,0.4142 -0.3358,0.75 -0.75,0.75c-0.4142,0 -0.75,-0.3358 -0.75,-0.75v-2.25h-2.5v2.25c0,0.4142 -0.3358,0.75 -0.75,0.75c-0.41421,0 -0.75,-0.3358 -0.75,-0.75v-2.25h-2v2.25c0,0.4142 -0.33579,0.75 -0.75,0.75c-0.41421,0 -0.75,-0.3358 -0.75,-0.75v-2.25h-1.75c-0.13807,0 -0.25,0.11193 -0.25,0.25v6c0,0.1381 0.11193,0.25 0.25,0.25h16c0.1381,0 0.25,-0.1119 0.25,-0.25zM14,7.25h3.5h2.5c0.9665,0 1.75,0.7835 1.75,1.75v6c0,0.9665 -0.7835,1.75 -1.75,1.75h-16c-0.9665,0 -1.75,-0.7835 -1.75,-1.75v-6c0,-0.9665 0.7835,-1.75 1.75,-1.75h2.5h3.5z" fill="#002B51"/>
</svg>
