<svg width="24" height="24" viewBox="0 0 24 24" fill="none" xmlns="http://www.w3.org/2000/svg">
<path d="M7.00062,2.24982c0.41421,0 0.75,0.33579 0.75,0.75c0,0.41421 -0.33578,0.75 -0.75,0.75h-1.25v16.49998h1.25c0.41421,0 0.75,0.3358 0.75,0.75c0,0.4142 -0.33578,0.75 -0.75,0.75h-4c-0.41421,0 -0.75,-0.3358 -0.75,-0.75c0.00001,-0.4142 0.33579,-0.75 0.75,-0.75h1.25v-16.49998h-1.25c-0.41421,0 -0.75,-0.33579 -0.75,-0.75c0.00001,-0.41421 0.33579,-0.75 0.75,-0.75zM18.0006,2.24982c0.9665,0 1.75,0.7835 1.75,1.75v15.99998c0,0.9665 -0.7835,1.75 -1.75,1.75h-6c-0.9665,0 -1.75,-0.7835 -1.75,-1.75v-15.99998c0,-0.96649 0.7835,-1.74999 1.75,-1.75zM12.0006,3.74982c-0.138,0.00001 -0.25,0.11194 -0.25,0.25v1.75h2.25c0.4142,0 0.75,0.33579 0.75,0.75c0,0.41421 -0.3358,0.75 -0.75,0.75h-2.25v2h2.25c0.4142,0 0.75,0.33579 0.75,0.75c0,0.41418 -0.3358,0.74998 -0.75,0.74998h-2.25v2.5h2.25c0.4142,0 0.75,0.3358 0.75,0.75c0,0.4142 -0.3358,0.75 -0.75,0.75h-2.25v2h2.25c0.4142,0 0.75,0.3358 0.75,0.75c0,0.4142 -0.3358,0.75 -0.75,0.75h-2.25v1.75c0,0.1381 0.112,0.25 0.25,0.25h6c0.1381,0 0.25,-0.1119 0.25,-0.25v-15.99998c0,-0.13807 -0.1119,-0.25 -0.25,-0.25z" fill="#002B51"/>
</svg>
