<svg width="24" height="24" viewBox="0 0 24 24" fill="none" xmlns="http://www.w3.org/2000/svg">
<path d="M15.3955,1.55669c0.6873,-0.56055 1.7011,-0.5205 2.3418,0.12012l4.5859,4.58594l0.1201,0.13281c0.5231,0.64152 0.5232,1.56752 0,2.20898l-0.1201,0.13282l-13.58594,13.58594c-0.64062,0.6404 -1.65452,0.6804 -2.3418,0.1201l-0.13281,-0.1201l-4.58594,-4.5859c-0.68335,-0.6834 -0.68322,-1.7912 0,-2.4747l13.58599,-13.58589zM16.6767,2.73736c-0.0854,-0.08534 -0.2174,-0.09621 -0.3144,-0.03223l-0.0391,0.03223l-1.7627,1.76269l1.4697,1.46973l0.0518,0.05664c0.2401,0.29458 0.2228,0.72938 -0.0518,1.0039c-0.2745,0.27446 -0.7093,0.29184 -1.0039,0.05176l-0.0566,-0.05176l-1.4697,-1.46972l-1.9395,1.93945l1.4697,1.46973l0.0518,0.05664c0.2401,0.29458 0.2228,0.72938 -0.0518,1.00388c-0.2745,0.2745 -0.7093,0.2919 -1.0039,0.0518l-0.0566,-0.0518l-1.4697,-1.4697l-1.9395,1.9395l1.4697,1.4697l0.0518,0.0566c0.2401,0.2946 0.2228,0.7294 -0.0518,1.0039c-0.2745,0.2745 -0.70933,0.2919 -1.00388,0.0518l-0.05664,-0.0518l-1.46972,-1.4697l-1.93946,1.9395l1.46973,1.4697l0.05176,0.0566c0.24008,0.2946 0.22276,0.7294 -0.05176,1.0039c-0.27453,0.2745 -0.70936,0.2919 -1.00391,0.0518l-0.05664,-0.0518l-1.46972,-1.4697l-1.7627,1.7627c-0.09744,0.0976 -0.09757,0.2559 0,0.3535l4.58594,4.5859l0.03906,0.0313c0.09698,0.0641 0.22899,0.054 0.31445,-0.0313l13.58599,-13.58589l0.0322,-0.03906c0.0548,-0.08309 0.0547,-0.19227 0,-0.27539l-0.0322,-0.03907z" fill="#002B51"/>
</svg>
