<svg width="24" height="24" viewBox="0 0 24 24" fill="none" xmlns="http://www.w3.org/2000/svg">
<path d="M20,10.25c0.9665,0 1.75,0.7835 1.75,1.75v6c0,0.9665 -0.7835,1.75 -1.75,1.75h-16c-0.96649,0 -1.75,-0.7835 -1.75,-1.75v-6c0.00002,-0.9665 0.78351,-1.75 1.75,-1.75zM5.75,14c0,0.4142 0.33579,0.75 0.75,0.75c0.41421,0 0.75,-0.3358 0.75,-0.75v-2.25h-1.5zM9.25,14c0,0.4142 0.33579,0.75 0.75,0.75c0.4142,0 0.75,-0.3358 0.75,-0.75v-2.25h-1.5zM13.25,14c0,0.4142 0.3358,0.75 0.75,0.75c0.4142,0 0.75,-0.3358 0.75,-0.75v-2.25h-1.5zM16.75,14c0,0.4142 0.3358,0.75 0.75,0.75c0.4142,0 0.75,-0.3358 0.75,-0.75v-2.25h-1.5zM21,2.25c0.4142,0 0.75,0.33579 0.75,0.75v4c0,0.41421 -0.3358,0.75 -0.75,0.75c-0.4142,0 -0.75,-0.33579 -0.75,-0.75v-1.25h-16.5v1.25c0,0.41421 -0.33579,0.75 -0.75,0.75c-0.41421,0 -0.75,-0.33579 -0.75,-0.75v-4c0,-0.41421 0.33579,-0.75 0.75,-0.75c0.41421,0 0.75,0.33579 0.75,0.75v1.25h16.5v-1.25c0,-0.41421 0.3358,-0.75 0.75,-0.75z" fill="#002B51"/>
</svg>
