<svg width="24" height="24" viewBox="0 0 24 24" fill="none" xmlns="http://www.w3.org/2000/svg">
<path fill-rule="evenodd" clip-rule="evenodd" d="M3.75,5.75v1.25c0,0.41421 -0.33579,0.75 -0.75,0.75c-0.41421,0 -0.75,-0.33579 -0.75,-0.75v-4c0,-0.41421 0.33579,-0.75 0.75,-0.75c0.41421,0 0.75,0.33579 0.75,0.75v1.25h16.5v-1.25c0,-0.41421 0.3358,-0.75 0.75,-0.75c0.4142,0 0.75,0.33579 0.75,0.75v4c0,0.41421 -0.3358,0.75 -0.75,0.75c-0.4142,0 -0.75,-0.33579 -0.75,-0.75v-1.25zM6.50001,14.75c0.41421,0 0.75,-0.3358 0.75,-0.75v-2.25h-1.5v2.25c0,0.4142 0.33578,0.75 0.75,0.75zM10,14.75c0.4142,0 0.75,-0.3358 0.75,-0.75v-2.25h-1.49999v2.25c0,0.4142 0.33578,0.75 0.74999,0.75zM14,14.75c0.4142,0 0.75,-0.3358 0.75,-0.75v-2.25h-1.5v2.25c0,0.4142 0.3358,0.75 0.75,0.75zM17.5,14.75c0.4142,0 0.75,-0.3358 0.75,-0.75v-2.25h-1.5v2.25c0,0.4142 0.3358,0.75 0.75,0.75zM21.75,18c0,0.9665 -0.7835,1.75 -1.75,1.75h-15.99999c-0.9665,0 -1.75,-0.7835 -1.75,-1.75v-6c0,-0.9665 0.7835,-1.75 1.75,-1.75h15.99999c0.9665,0 1.75,0.7835 1.75,1.75z" fill="#002B51"/>
</svg>
