<svg width="24" height="24" viewBox="0 0 24 24" fill="none" xmlns="http://www.w3.org/2000/svg">
<path fill-rule="evenodd" clip-rule="evenodd" d="M15.2626,1.67686c0.6834,-0.68341 1.7914,-0.6834 2.4749,0.00001l4.5857,4.58579c0.6835,0.68342 0.6835,1.79147 0,2.47488l-13.58574,13.58556c-0.68342,0.6834 -1.79145,0.6834 -2.47486,0l-4.58579,-4.5858c-0.68342,-0.6834 -0.68342,-1.7915 0.00001,-2.4749l5.28972,-5.28961c0.00105,-0.00106 0.0021,-0.00212 0.00316,-0.00318c0.00106,-0.00106 0.00212,-0.00211 0.00318,-0.00317l2.99095,-2.99089l0.00587,-0.00594l0.00595,-0.00588l2.98635,-2.98634l0.0077,-0.00778l0.0078,-0.00768zM5.56068,13.4999l1.46968,1.4697c0.29289,0.2929 0.29289,0.7678 0,1.0607c-0.2929,0.2929 -0.76777,0.2929 -1.06066,0l-1.46969,-1.4697l-1.76254,1.7625c-0.09763,0.0976 -0.09763,0.2559 0,0.3536l4.58579,4.5857c0.09763,0.0977 0.25592,0.0977 0.35355,0l13.58579,-13.58553c0.0976,-0.09763 0.0976,-0.25592 0,-0.35355l-4.5858,-4.58579c-0.0976,-0.09763 -0.2559,-0.09763 -0.3536,0l-1.7625,1.76247l1.4697,1.46961c0.2929,0.29289 0.2929,0.76777 0,1.06066c-0.2929,0.29289 -0.7678,0.29289 -1.0607,0l-1.4696,-1.46962l-1.9394,1.93933l1.4697,1.46963c0.2929,0.29289 0.2929,0.76777 0,1.06069c-0.2929,0.2929 -0.7678,0.2929 -1.0607,0l-1.4696,-1.46967l-1.9394,1.93937l1.4697,1.4696c0.2929,0.2929 0.2929,0.7678 0,1.0607c-0.29294,0.2929 -0.76781,0.2929 -1.0607,0l-1.46967,-1.4697z" fill="#002B51"/>
</svg>
