<svg width="24" height="24" viewBox="0 0 24 24" fill="none" xmlns="http://www.w3.org/2000/svg">
<path fill-rule="evenodd" clip-rule="evenodd" d="M15.3955,1.5567c0.6873,-0.56057 1.7011,-0.52051 2.3418,0.12012l4.5859,4.58594l0.1201,0.13281c0.5232,0.64152 0.5232,1.56747 0,2.20898l-0.1201,0.13282l-13.58594,13.58593c-0.64067,0.6405 -1.65451,0.6806 -2.3418,0.1201l-0.13281,-0.1201l-4.58594,-4.5859c-0.68335,-0.6834 -0.68322,-1.7912 0,-2.4746l2.28386,-2.2839l0.00911,-0.0093l0.00927,-0.0091l2.98162,-2.9816c0.00301,-0.00311 0.00605,-0.0062 0.00911,-0.00927c0.00307,-0.00307 0.00616,-0.00611 0.00927,-0.00911l2.98163,-2.98163l0.0091,-0.00926l0.00926,-0.0091l2.98166,-2.98162l0.0091,-0.00928l0.0093,-0.00912l2.2837,-2.28369zM5.56058,13.5l1.46965,1.4696l0.05176,0.0567c0.24031,0.2946 0.22284,0.7293 -0.05176,1.0039c-0.2746,0.2746 -0.70932,0.292 -1.0039,0.0517l-0.05665,-0.0517l-1.46964,-1.4697l-1.76278,1.7628c-0.09744,0.0977 -0.09757,0.256 0,0.3535l4.58594,4.586l0.03906,0.0312c0.09699,0.0642 0.22893,0.0541 0.31445,-0.0312l13.58599,-13.58598l0.0322,-0.03906c0.0548,-0.08315 0.0548,-0.19224 0,-0.27539l-0.0322,-0.03907l-4.586,-4.58593c-0.0854,-0.08535 -0.2174,-0.09624 -0.3144,-0.03223l-0.0391,0.03223l-1.7626,1.76261l1.4696,1.46965l0.0518,0.05664c0.2403,0.29458 0.2228,0.7293 -0.0518,1.00391c-0.2746,0.2746 -0.7093,0.29206 -1.0039,0.05175l-0.0566,-0.05175l-1.4697,-1.46965l-1.9394,1.93945l1.4696,1.46965l0.0518,0.05664c0.2403,0.29458 0.2228,0.7293 -0.0518,1.00393c-0.2746,0.2746 -0.7093,0.292 -1.0039,0.0517l-0.0566,-0.0517l-1.4697,-1.46967l-1.93942,1.93947l1.46962,1.4696l0.0518,0.0567c0.2403,0.2946 0.2228,0.7293 -0.0518,1.0039c-0.27457,0.2746 -0.70929,0.292 -1.00387,0.0517l-0.05665,-0.0517l-1.46964,-1.4697z" fill="#002B51"/>
</svg>
