<svg width="24" height="24" viewBox="0 0 24 24" fill="none" xmlns="http://www.w3.org/2000/svg">
<path d="M15.3954,1.55669c0.6873,-0.56055 1.7011,-0.5205 2.3418,0.12012l4.5859,4.58594l0.1202,0.13281c0.523,0.64152 0.5231,1.56752 0,2.20898l-0.1202,0.13282l-13.5859,13.58594c-0.64062,0.6404 -1.65452,0.6804 -2.3418,0.1201l-0.13281,-0.1201l-4.58594,-4.5859c-0.68335,-0.6834 -0.68322,-1.7912 0,-2.4747l13.58595,-13.58589zM4.49989,14.5606l1.46973,1.4697l0.05664,0.0518c0.29453,0.2399 0.72943,0.2226 1.00391,-0.0518c0.27442,-0.2744 0.29168,-0.7093 0.05176,-1.0039l-0.05176,-0.0566l-1.46973,-1.4697zM7.49989,11.5606l1.46973,1.4697l0.05664,0.0518c0.29453,0.2399 0.72943,0.2226 1.00394,-0.0518c0.2744,-0.2744 0.2917,-0.7093 0.0517,-1.0039l-0.0517,-0.0566l-1.46976,-1.4697zM10.4999,8.5606l1.4697,1.4697l0.0567,0.0518c0.2945,0.2399 0.7294,0.2226 1.0039,-0.0518c0.2744,-0.27445 0.2917,-0.70932 0.0517,-1.00388l-0.0517,-0.05664l-1.4698,-1.46973zM13.4999,5.5606l1.4697,1.46972l0.0567,0.05176c0.2945,0.23992 0.7294,0.22261 1.0039,-0.05176c0.2744,-0.27447 0.2917,-0.70934 0.0517,-1.0039l-0.0517,-0.05664l-1.4698,-1.46973z" fill="#002B51"/>
</svg>
