<svg width="24" height="24" viewBox="0 0 24 24" fill="none" xmlns="http://www.w3.org/2000/svg">
<path fill-rule="evenodd" clip-rule="evenodd" d="M3.75,4.25h16.5v-1.25c0,-0.41421 0.3358,-0.75 0.75,-0.75c0.4142,0 0.75,0.33579 0.75,0.75v2v2c0,0.41421 -0.3358,0.75 -0.75,0.75c-0.4142,0 -0.75,-0.33579 -0.75,-0.75v-1.25h-16.5v1.25c0,0.41421 -0.33579,0.75 -0.75,0.75c-0.41421,0 -0.75,-0.33579 -0.75,-0.75v-2v-2c0,-0.41421 0.33579,-0.75 0.75,-0.75c0.41421,0 0.75,0.33579 0.75,0.75zM6.50001,10.25h3.49999h4h3.5h2.5c0.9665,0 1.75,0.7835 1.75,1.75v6c0,0.9665 -0.7835,1.75 -1.75,1.75h-15.99999c-0.9665,0 -1.75,-0.7835 -1.75,-1.75v-6c0,-0.9665 0.7835,-1.75 1.75,-1.75zM13.25,14v-2.25h-2.5v2.25c0,0.4142 -0.3358,0.75 -0.75,0.75c-0.41421,0 -0.74999,-0.3358 -0.74999,-0.75v-2.25h-2v2.25c0,0.4142 -0.33579,0.75 -0.75,0.75c-0.41422,0 -0.75,-0.3358 -0.75,-0.75v-2.25h-1.75c-0.13807,0 -0.25,0.112 -0.25,0.25v6c0,0.1381 0.11193,0.25 0.25,0.25h15.99999c0.1381,0 0.25,-0.1119 0.25,-0.25v-6c0,-0.138 -0.1119,-0.25 -0.25,-0.25h-1.75v2.25c0,0.4142 -0.3358,0.75 -0.75,0.75c-0.4142,0 -0.75,-0.3358 -0.75,-0.75v-2.25h-2v2.25c0,0.4142 -0.3358,0.75 -0.75,0.75c-0.4142,0 -0.75,-0.3358 -0.75,-0.75z" fill="#002B51"/>
</svg>
