<svg width="24" height="24" viewBox="0 0 24 24" fill="none" xmlns="http://www.w3.org/2000/svg">
<path fill-rule="evenodd" clip-rule="evenodd" d="M5.75061,20.2498h1.25c0.41421,0 0.75,0.3358 0.75,0.75c0,0.4142 -0.33579,0.75 -0.75,0.75h-4c-0.41421,0 -0.75,-0.3358 -0.75,-0.75c0,-0.4142 0.33579,-0.75 0.75,-0.75h1.25v-16.49998h-1.25c-0.41421,0 -0.75,-0.33578 -0.75,-0.75c0,-0.41421 0.33579,-0.75 0.75,-0.75h4c0.41421,0 0.75,0.33579 0.75,0.75c0,0.41422 -0.33579,0.75 -0.75,0.75h-1.25zM14.7506,17.4998c0,-0.4142 -0.3357,-0.75 -0.75,-0.75h-2.25v1.5h2.25c0.4143,0 0.75,-0.3358 0.75,-0.75zM14.7506,13.9998c0,-0.4142 -0.3357,-0.75 -0.75,-0.75h-2.25v1.5h2.25c0.4143,0 0.75,-0.3358 0.75,-0.75zM14.7506,9.99982c0,-0.41422 -0.3357,-0.75 -0.75,-0.75h-2.25v1.49998h2.25c0.4143,0 0.75,-0.3358 0.75,-0.74998zM14.7506,6.49982c0,-0.41422 -0.3357,-0.75 -0.75,-0.75h-2.25v1.5h2.25c0.4143,0 0.75,-0.33579 0.75,-0.75zM18.0006,2.24982c0.9665,0 1.75,0.7835 1.75,1.75v15.99998c0,0.9665 -0.7835,1.75 -1.75,1.75h-6c-0.9665,0 -1.75,-0.7835 -1.75,-1.75v-15.99998c0,-0.9665 0.7835,-1.75 1.75,-1.75z" fill="#002B51"/>
</svg>
