<svg width="24" height="24" viewBox="0 0 24 24" fill="none" xmlns="http://www.w3.org/2000/svg">
<path d="M6.5,3.50012c2.20914,0 4,1.79086 4,4c0,0.4661 -0.081,0.91314 -0.2275,1.3291l1.7265,1.29488l7.1016,-5.32417l0.1269,-0.08496c0.6511,-0.39235 1.5056,-0.23614 1.9717,0.38476c0.466,0.62132 0.3774,1.48667 -0.1816,2.00195l-0.1182,0.09864l-10.6269,7.97068c0.1465,0.416 0.2275,0.8631 0.2275,1.3291c-0.0001,2.2091 -1.7909,4 -4,4c-2.2091,0 -3.99993,-1.7909 -4,-4c0,-2.2091 1.79086,-4 4,-4c0.63851,0 1.24186,0.15 1.77734,0.416l1.22168,-0.917l-1.22168,-0.916c-0.53555,0.2662 -1.13871,0.417 -1.77734,0.417c-2.2091,0 -3.99993,-1.79089 -4,-3.99998c0,-2.20914 1.79086,-4 4,-4zM13.7998,13.3497c0.4971,-0.6624 1.437,-0.7957 2.0996,-0.2988l5.001,3.7481l0.1182,0.0996c0.5586,0.5153 0.6475,1.3808 0.1816,2.0019c-0.4971,0.6625 -1.4379,0.7968 -2.1006,0.2998l-5,-3.75l-0.1172,-0.0986c-0.5591,-0.5152 -0.6485,-1.3806 -0.1826,-2.002zM6.5,15.5001c-0.55228,0 -1,0.4477 -1,1c0.00007,0.5523 0.44776,1 1,1c0.55224,0 0.99993,-0.4477 1,-1c0,-0.5523 -0.44772,-1 -1,-1zM6.5,6.50012c-0.55228,0 -1,0.44772 -1,1c0.00007,0.55223 0.44776,1 1,1c0.55224,0 0.99993,-0.44777 1,-1c0,-0.55228 -0.44772,-1 -1,-1z" fill="#002B51"/>
</svg>
