<svg width="24" height="24" viewBox="0 0 24 24" fill="none" xmlns="http://www.w3.org/2000/svg">
<path d="M6.5,4.25012c1.79493,0 3.25,1.45508 3.25,3.25c-0.00002,0.56994 -0.14852,1.10462 -0.40625,1.57031l2.65525,1.99117l7.5508,-5.66109l0.0635,-0.04297c0.3256,-0.19644 0.7542,-0.11838 0.9873,0.19239c0.2328,0.31069 0.1877,0.74341 -0.0918,1.00097l-0.0586,0.04981l-11.10645,8.32719c0.25819,0.466 0.40625,1.0017 0.40625,1.5722c-0.00007,1.7949 -1.45512,3.25 -3.25,3.25c-1.79488,0 -3.24993,-1.4551 -3.25,-3.25c0,-1.7949 1.45507,-3.25 3.25,-3.25c0.67886,0 1.30878,0.2085 1.83008,0.5645l2.41892,-1.8155l-2.41892,-1.8134c-0.52128,0.3559 -1.15127,0.5644 -1.83008,0.5644c-1.79488,0 -3.24993,-1.45511 -3.25,-3.24998c0,-1.79492 1.45507,-3.25 3.25,-3.25zM13.4004,13.0509c0.2485,-0.3313 0.7184,-0.3997 1.0498,-0.1514l6,4.501l0.0586,0.0488c0.2793,0.2575 0.3242,0.6894 0.0918,1c-0.2485,0.3314 -0.7194,0.399 -1.0508,0.1504l-6,-4.5c-0.331,-0.2485 -0.3975,-0.7175 -0.1494,-1.0488zM6.5,14.7501c-0.9665,0 -1.75,0.7835 -1.75,1.75c0.00007,0.9665 0.78354,1.75 1.75,1.75c0.96646,0 1.74993,-0.7835 1.75,-1.75c0,-0.9665 -0.7835,-1.75 -1.75,-1.75zM6.5,5.75012c-0.9665,0 -1.75,0.7835 -1.75,1.75c0.00007,0.96644 0.78354,1.75 1.75,1.75c0.96646,0 1.74993,-0.78356 1.75,-1.75c0,-0.9665 -0.7835,-1.75 -1.75,-1.75z" fill="#002B51"/>
</svg>
