<svg width="24" height="24" viewBox="0 0 24 24" fill="none" xmlns="http://www.w3.org/2000/svg">
<path fill-rule="evenodd" clip-rule="evenodd" d="M16,5.75c-0.4142,0 -0.75,-0.33579 -0.75,-0.75c0,-0.41421 0.3358,-0.75 0.75,-0.75h1c1.5188,0 2.75,1.23122 2.75,2.75v5c0,0.4142 -0.3358,0.75 -0.75,0.75c-1.2983,0 -2.6252,0.5451 -3.627,1.4355c-1.0004,0.8894 -1.623,2.0722 -1.623,3.3145c0,0.4142 -0.3358,0.75 -0.75,0.75h-4.33697c-0.33858,1.4334 -1.62624,2.5 -3.16303,2.5c-1.79493,0 -3.25,-1.4551 -3.25,-3.25c0,-1.7949 1.45507,-3.25 3.25,-3.25c1.53679,0 2.82445,1.0666 3.16303,2.5h3.64267c0.2081,-1.4514 1.0026,-2.7356 2.0713,-3.6855c1.064,-0.9458 2.437,-1.5969 3.873,-1.7686v-4.2959c0,-0.69036 -0.5596,-1.25 -1.25,-1.25zM21.75,17.5c0,1.7949 -1.4551,3.25 -3.25,3.25c-1.7949,0 -3.25,-1.4551 -3.25,-3.25c0,-1.7949 1.4551,-3.25 3.25,-3.25c1.7949,0 3.25,1.4551 3.25,3.25z" fill="#002B51"/>
</svg>
