<svg width="24" height="24" viewBox="0 0 24 24" fill="none" xmlns="http://www.w3.org/2000/svg">
<path fill-rule="evenodd" clip-rule="evenodd" d="M17,4.25c1.5188,0 2.75,1.23122 2.75,2.75v5c0,0.4142 -0.3358,0.75 -0.75,0.75c-1.2983,0 -2.625,0.5451 -3.6267,1.4356c-1.0005,0.8893 -1.6233,2.0721 -1.6233,3.3144c0,0.4142 -0.3358,0.75 -0.75,0.75h-4.33697c-0.33858,1.4334 -1.62624,2.5 -3.16303,2.5c-1.79493,0 -3.25,-1.4551 -3.25,-3.25c0,-1.7949 1.45507,-3.25 3.25,-3.25c1.53679,0 2.82445,1.0666 3.16303,2.5h3.64047c0.2081,-1.4515 1.0045,-2.7356 2.0732,-3.6856c1.0641,-0.9458 2.4372,-1.5976 3.8733,-1.7693v-4.2951c0,-0.69036 -0.5596,-1.25 -1.25,-1.25h-1c-0.4142,0 -0.75,-0.33579 -0.75,-0.75c0,-0.41421 0.3358,-0.75 0.75,-0.75zM7.25,17.5c0,-0.9665 -0.7835,-1.75 -1.75,-1.75c-0.9665,0 -1.75,0.7835 -1.75,1.75c0,0.9665 0.7835,1.75 1.75,1.75c0.9665,0 1.75,-0.7835 1.75,-1.75zM15.25,17.5c0,-1.7949 1.4551,-3.25 3.25,-3.25c1.7949,0 3.25,1.4551 3.25,3.25c0,1.7949 -1.4551,3.25 -3.25,3.25c-1.7949,0 -3.25,-1.4551 -3.25,-3.25zM18.5,15.75c-0.9665,0 -1.75,0.7835 -1.75,1.75c0,0.9665 0.7835,1.75 1.75,1.75c0.9665,0 1.75,-0.7835 1.75,-1.75c0,-0.9665 -0.7835,-1.75 -1.75,-1.75z" fill="#002B51"/>
</svg>
