<svg width="24" height="24" viewBox="0 0 24 24" fill="none" xmlns="http://www.w3.org/2000/svg">
<path d="M17,4.25c1.5188,0 2.75,1.23122 2.75,2.75v5c0,0.4142 -0.3358,0.75 -0.75,0.75c-1.2983,0 -2.6252,0.5451 -3.627,1.4355c-1.0004,0.8894 -1.623,2.0722 -1.623,3.3145c0,0.4142 -0.3358,0.75 -0.75,0.75h-4.33789c-0.33866,1.4332 -1.62539,2.5 -3.16211,2.5c-1.79493,0 -3.25,-1.4551 -3.25,-3.25c0,-1.7949 1.45507,-3.25 3.25,-3.25c1.53672,0 2.82345,1.0668 3.16211,2.5h3.64359c0.2081,-1.4514 1.0026,-2.7356 2.0713,-3.6855c1.064,-0.9458 2.437,-1.5969 3.873,-1.7686v-4.2959c0,-0.69036 -0.5596,-1.25 -1.25,-1.25h-1c-0.4142,0 -0.75,-0.33579 -0.75,-0.75c0,-0.41421 0.3358,-0.75 0.75,-0.75zM18.5,14.25c1.7949,0 3.25,1.4551 3.25,3.25c0,1.7949 -1.4551,3.25 -3.25,3.25c-1.7949,0 -3.25,-1.4551 -3.25,-3.25c0,-1.7949 1.4551,-3.25 3.25,-3.25zM5.5,15.75c-0.9665,0 -1.75,0.7835 -1.75,1.75c0,0.9665 0.7835,1.75 1.75,1.75c0.9665,0 1.75,-0.7835 1.75,-1.75c0,-0.9665 -0.7835,-1.75 -1.75,-1.75zM18.5,15.75c-0.9665,0 -1.75,0.7835 -1.75,1.75c0,0.9665 0.7835,1.75 1.75,1.75c0.9665,0 1.75,-0.7835 1.75,-1.75c0,-0.9665 -0.7835,-1.75 -1.75,-1.75z" fill="#002B51"/>
</svg>
