<svg width="24" height="24" viewBox="0 0 24 24" fill="none" xmlns="http://www.w3.org/2000/svg">
<path fill-rule="evenodd" clip-rule="evenodd" d="M16 4.25C15.5858 4.25 15.25 4.58579 15.25 5C15.25 5.41421 15.5858 5.75 16 5.75H17C17.6904 5.75 18.25 6.30964 18.25 7V11.2951C16.8139 11.4668 15.4408 12.1186 14.3767 13.0644C13.308 14.0144 12.5116 15.2985 12.3035 16.75H8.66303C8.32445 15.3166 7.03679 14.25 5.5 14.25C3.70507 14.25 2.25 15.7051 2.25 17.5C2.25 19.2949 3.70507 20.75 5.5 20.75C7.03679 20.75 8.32445 19.6834 8.66303 18.25H13C13.4142 18.25 13.75 17.9142 13.75 17.5C13.75 16.2577 14.3728 15.0749 15.3733 14.1856C16.375 13.2951 17.7017 12.75 19 12.75C19.4142 12.75 19.75 12.4142 19.75 12V7C19.75 5.48122 18.5188 4.25 17 4.25H16ZM7.25 17.5C7.25 16.5335 6.4665 15.75 5.5 15.75C4.5335 15.75 3.75 16.5335 3.75 17.5C3.75 18.4665 4.5335 19.25 5.5 19.25C6.4665 19.25 7.25 18.4665 7.25 17.5ZM15.25 17.5C15.25 15.7051 16.7051 14.25 18.5 14.25C20.2949 14.25 21.75 15.7051 21.75 17.5C21.75 19.2949 20.2949 20.75 18.5 20.75C16.7051 20.75 15.25 19.2949 15.25 17.5ZM18.5 15.75C17.5335 15.75 16.75 16.5335 16.75 17.5C16.75 18.4665 17.5335 19.25 18.5 19.25C19.4665 19.25 20.25 18.4665 20.25 17.5C20.25 16.5335 19.4665 15.75 18.5 15.75Z" fill="#002B51"/>
</svg>
