<svg width="24" height="24" viewBox="0 0 24 24" fill="none" xmlns="http://www.w3.org/2000/svg">
<path d="M3.75,15.5c1.51878,0 2.75,1.2312 2.75,2.75c0,0.4142 -0.33579,0.75 -0.75,0.75c-0.41421,0 -0.75,-0.3358 -0.75,-0.75c0,-0.6904 -0.55964,-1.25 -1.25,-1.25c-0.41421,0 -0.75,-0.3358 -0.75,-0.75c0,-0.4142 0.33579,-0.75 0.75,-0.75zM3.75,12.5c3.17564,0 5.75,2.5744 5.75,5.75c0,0.4142 -0.33579,0.75 -0.75,0.75c-0.41421,0 -0.75,-0.3358 -0.75,-0.75c0,-2.3472 -1.90279,-4.25 -4.25,-4.25c-0.41421,0 -0.75,-0.3358 -0.75,-0.75c0,-0.4142 0.33579,-0.75 0.75,-0.75zM3.75,9.5c4.83249,0 8.75,3.9175 8.75,8.75c0,0.4142 -0.3358,0.75 -0.75,0.75c-0.4142,0 -0.75,-0.3358 -0.75,-0.75c0,-4.0041 -3.24594,-7.25 -7.25,-7.25c-0.41421,0 -0.75,-0.3358 -0.75,-0.75c0,-0.41421 0.33579,-0.75 0.75,-0.75zM18.25,5c1.5188,0 2.75,1.23122 2.75,2.75v8.5c0,1.5188 -1.2312,2.75 -2.75,2.75h-3.7803c-0.4053,0 -0.7197,-0.3446 -0.7197,-0.75c0,-5.5228 -4.47715,-10 -10,-10c-0.07239,0 -0.1448,0.0011 -0.2168,0.00293c-0.28821,0.00721 -0.5332,-0.21851 -0.5332,-0.50684c0.0001,-1.52051 1.2331,-2.74609 2.75,-2.74609z" fill="#002B51"/>
</svg>
