<svg width="24" height="24" viewBox="0 0 24 24" fill="none" xmlns="http://www.w3.org/2000/svg">
<path fill-rule="evenodd" clip-rule="evenodd" d="M5.45 5C4.0968 5 3 6.0972 3 7.45019V7.45028V7.45038V7.45048V7.45058V7.45068V7.45078V7.45088V7.45097V7.45107V7.45117V7.45127V7.45137V7.45147V7.45157V7.45166V7.45176V7.45186V7.45196V7.45206V7.45216V7.45225V7.45235V7.45245V7.45255V7.45265V7.45275V7.45284V7.45294V7.45304V7.45314V7.45324V7.45334V7.45343V7.45353V7.45363V7.45373V7.45383V7.45393V7.45402V7.45412V7.45422V7.45432V7.45442V7.45452V7.45461V7.45471V7.45481V7.45491V7.45501V7.45511V7.4552V7.4553V7.4554V7.4555V7.4556V7.4557V7.45579V7.45589V7.45599V7.45609V7.45619V7.45628V7.45638V7.45648V7.45658V7.45668V7.45678V7.45687V7.45697V7.45707V7.45717V7.45727V7.45737V7.45746V7.45756V7.45766V7.45776V7.45786V7.45795V7.45805V7.45815V7.45825V7.45835V7.45844V7.45854V7.45864V7.45874V7.45884V7.45894V7.45903V7.45913V7.45923V7.45933V7.45943V7.45952V7.45962V7.45972V7.45982V7.45992V7.46001V7.46011V7.46021V7.46031V7.46041V7.4605V7.4606V7.4607V7.4608V7.4609V7.46099V7.46109V7.46119V7.46129V7.46139V7.46148V7.46158V7.46168V7.46178V7.46188V7.46197V7.46207V7.46217V7.46227V7.46237V7.46246V7.46256V7.46266V7.46276V7.46286V7.46295V7.46305V7.46315V7.46325V7.46334V7.46344V7.46354V7.46364V7.46374V7.46383V7.46393V7.46403V7.46413V7.46423V7.46432V7.46442V7.46452V7.46462V7.46471V7.46481V7.46491V7.46501V7.46511V7.4652V7.4653V7.4654V7.4655V7.46559V7.46569V7.46579V7.46589V7.46599V7.46608V7.46618V7.46628V7.46638V7.46647V7.46657V7.46667V7.46677V7.46687V7.46696V7.46706V7.46716V7.46726V7.46735V7.46745V7.46755V7.46765V7.46774V7.46784V7.46794V7.46804V7.46814V7.46823V7.46833V7.46843V7.46853V7.46862V7.46872V7.46882V7.46892V7.46901V7.46911V7.46921V7.46931V7.4694V7.4695V7.4696V7.4697V7.46979V7.46989V7.46999V7.47009V7.47018V7.47028V7.47038V7.47048V7.47057V7.47067V7.47077V7.47087V7.47096V7.47106V7.47116V7.47126V7.47135V7.47145V7.47155V7.47165V7.47175V7.47184V7.47194V7.47204V7.47214V7.47223V7.47233V7.47243V7.47252V7.47262V7.47272V7.47282V7.47291V7.47301V7.47311V7.47321V7.4733V7.4734V7.4735V7.4736V7.47369V7.47379V7.47389V7.47399V7.47408V7.47418V7.47428V7.47438V7.47447V7.47457V7.47467V7.47476V7.47486V7.47496V7.47506V7.47515V7.47525V7.47535V7.47545V7.47554V7.47564V7.47574V7.47583V7.47593V7.47603V7.47613V7.47622V7.47632V7.47642V7.47652V7.47661V7.47671V7.47681V7.4769V7.477V7.4771V7.4772V7.47729V7.47739V7.47749V7.47758V7.47768V7.47778V7.47788V7.47797V7.47807V7.47817V7.47827V7.47836V7.47846V7.47856V7.47865V7.47875V7.47885V7.47895V7.47904V7.47914V7.47924V7.47933V7.47943V7.47953V7.47962V7.47972V7.47982V7.47992V7.48001V7.48011V7.48021V7.4803V7.4804V7.4805V7.4806V7.48069V7.48079V7.48089V7.48098V7.48108V7.48118V7.48127V7.48137V7.48147V7.48157V7.48166V7.48176V7.48186V7.48195V7.48205V7.48215V7.48224V7.48234V7.48244V7.48253V7.48263V7.48273V7.48283V7.48292V7.48302V7.48312V7.48321V7.48331V7.48341V7.4835V7.4836V7.4837V7.48379V7.48389V7.48399V7.48409V7.48418V7.48428V7.48438V7.48447V7.48457V7.48467V7.48476V7.48486V7.48496V7.48505V7.48515V7.48525V7.48534V7.48544V7.48554V7.48563V7.48573V7.48583V7.48592V7.48602V7.48612V7.48622V7.48631V7.48641V7.48651V7.4866V7.4867V7.4868V7.48689V7.48699V7.48709V7.48718V7.48728V7.48738V7.48747V7.48757V7.48767V7.48776V7.48786V7.48796V7.48805V7.48815V7.48825V7.48834V7.48844V7.48854V7.48863V7.48873V7.48883V7.48892V7.48902V7.48912V7.48921V7.48931V7.48941V7.4895V7.4896V7.4897V7.48979V7.48989V7.48998V7.49008V7.49018V7.49027V7.49037V7.49047V7.49056V7.49066V7.49076V7.49085V7.49095V7.49105V7.49114V7.49124V7.49134V7.49143V7.49153V7.49163V7.49172V7.49182V7.49191V7.49201V7.49211V7.4922V7.4923V7.4924V7.49249V7.49259V7.49269V7.49278V7.49288V7.49298V7.49307V7.49317V7.49326V7.49336V7.49346V7.49355V7.49365V7.49375V7.49384V7.49394V7.49404V7.49413V7.49423V7.49432V7.49442V7.49452V7.49461V7.49471V7.49481V7.4949V7.495V7.4951V7.49519V7.49529V7.49538V7.49548V7.49558V7.49567V7.49577V7.49587V7.49596V7.49606V7.49615V7.49625V7.49635V7.49644V7.49654V7.49664V7.49673V7.49683V7.49692V7.49702V7.49712V7.49721V7.49731V7.49741V7.4975V7.4976V7.49769V7.49779V7.49789V7.49798V7.49808V7.49817V7.49827V7.49837V7.49846V7.49856V7.49865V7.49875V7.49885V7.49894V7.49904V7.49914V7.49923V7.49933V7.49942V7.49952V7.49962V7.49971V7.49981V7.4999V7.5C3 7.91421 3.33579 8.25 3.75 8.25C4.16421 8.25 4.5 7.91421 4.5 7.5V7.4999V7.49981V7.49971V7.49962V7.49952V7.49942V7.49933V7.49923V7.49914V7.49904V7.49894V7.49885V7.49875V7.49865V7.49856V7.49846V7.49837V7.49827V7.49817V7.49808V7.49798V7.49789V7.49779V7.49769V7.4976V7.4975V7.49741V7.49731V7.49721V7.49712V7.49702V7.49692V7.49683V7.49673V7.49664V7.49654V7.49644V7.49635V7.49625V7.49615V7.49606V7.49596V7.49587V7.49577V7.49567V7.49558V7.49548V7.49538V7.49529V7.49519V7.4951V7.495V7.4949V7.49481V7.49471V7.49461V7.49452V7.49442V7.49432V7.49423V7.49413V7.49404V7.49394V7.49384V7.49375V7.49365V7.49355V7.49346V7.49336V7.49326V7.49317V7.49307V7.49298V7.49288V7.49278V7.49269V7.49259V7.49249V7.4924V7.4923V7.4922V7.49211V7.49201V7.49191V7.49182V7.49172V7.49163V7.49153V7.49143V7.49134V7.49124V7.49114V7.49105V7.49095V7.49085V7.49076V7.49066V7.49056V7.49047V7.49037V7.49027V7.49018V7.49008V7.48998V7.48989V7.48979V7.4897V7.4896V7.4895V7.48941V7.48931V7.48921V7.48912V7.48902V7.48892V7.48883V7.48873V7.48863V7.48854V7.48844V7.48834V7.48825V7.48815V7.48805V7.48796V7.48786V7.48776V7.48767V7.48757V7.48747V7.48738V7.48728V7.48718V7.48709V7.48699V7.48689V7.4868V7.4867V7.4866V7.48651V7.48641V7.48631V7.48622V7.48612V7.48602V7.48592V7.48583V7.48573V7.48563V7.48554V7.48544V7.48534V7.48525V7.48515V7.48505V7.48496V7.48486V7.48476V7.48467V7.48457V7.48447V7.48438V7.48428V7.48418V7.48409V7.48399V7.48389V7.48379V7.4837V7.4836V7.4835V7.48341V7.48331V7.48321V7.48312V7.48302V7.48292V7.48283V7.48273V7.48263V7.48253V7.48244V7.48234V7.48224V7.48215V7.48205V7.48195V7.48186V7.48176V7.48166V7.48157V7.48147V7.48137V7.48127V7.48118V7.48108V7.48098V7.48089V7.48079V7.48069V7.4806V7.4805V7.4804V7.4803V7.48021V7.48011V7.48001V7.47992V7.47982V7.47972V7.47962V7.47953V7.47943V7.47933V7.47924V7.47914V7.47904V7.47895V7.47885V7.47875V7.47865V7.47856V7.47846V7.47836V7.47827V7.47817V7.47807V7.47797V7.47788V7.47778V7.47768V7.47758V7.47749V7.47739V7.47729V7.4772V7.4771V7.477V7.4769V7.47681V7.47671V7.47661V7.47652V7.47642V7.47632V7.47622V7.47613V7.47603V7.47593V7.47583V7.47574V7.47564V7.47554V7.47545V7.47535V7.47525V7.47515V7.47506V7.47496V7.47486V7.47476V7.47467V7.47457V7.47447V7.47438V7.47428V7.47418V7.47408V7.47399V7.47389V7.47379V7.47369V7.4736V7.4735V7.4734V7.4733V7.47321V7.47311V7.47301V7.47291V7.47282V7.47272V7.47262V7.47252V7.47243V7.47233V7.47223V7.47214V7.47204V7.47194V7.47184V7.47175V7.47165V7.47155V7.47145V7.47135V7.47126V7.47116V7.47106V7.47096V7.47087V7.47077V7.47067V7.47057V7.47048V7.47038V7.47028V7.47018V7.47009V7.46999V7.46989V7.46979V7.4697V7.4696V7.4695V7.4694V7.46931V7.46921V7.46911V7.46901V7.46892V7.46882V7.46872V7.46862V7.46853V7.46843V7.46833V7.46823V7.46814V7.46804V7.46794V7.46784V7.46774V7.46765V7.46755V7.46745V7.46735V7.46726V7.46716V7.46706V7.46696V7.46687V7.46677V7.46667V7.46657V7.46647V7.46638V7.46628V7.46618V7.46608V7.46599V7.46589V7.46579V7.46569V7.46559V7.4655V7.4654V7.4653V7.4652V7.46511V7.46501V7.46491V7.46481V7.46471V7.46462V7.46452V7.46442V7.46432V7.46423V7.46413V7.46403V7.46393V7.46383V7.46374V7.46364V7.46354V7.46344V7.46334V7.46325V7.46315V7.46305V7.46295V7.46286V7.46276V7.46266V7.46256V7.46246V7.46237V7.46227V7.46217V7.46207V7.46197V7.46188V7.46178V7.46168V7.46158V7.46148V7.46139V7.46129V7.46119V7.46109V7.46099V7.4609V7.4608V7.4607V7.4606V7.4605V7.46041V7.46031V7.46021V7.46011V7.46001V7.45992V7.45982V7.45972V7.45962V7.45952V7.45943V7.45933V7.45923V7.45913V7.45903V7.45894V7.45884V7.45874V7.45864V7.45854V7.45844V7.45835V7.45825V7.45815V7.45805V7.45795V7.45786V7.45776V7.45766V7.45756V7.45746V7.45737V7.45727V7.45717V7.45707V7.45697V7.45687V7.45678V7.45668V7.45658V7.45648V7.45638V7.45628V7.45619V7.45609V7.45599V7.45589V7.45579V7.4557V7.4556V7.4555V7.4554V7.4553V7.4552V7.45511V7.45501V7.45491V7.45481V7.45471V7.45461V7.45452V7.45442V7.45432V7.45422V7.45412V7.45402V7.45393V7.45383V7.45373V7.45363V7.45353V7.45343V7.45334V7.45324V7.45314V7.45304V7.45294V7.45284V7.45275V7.45265V7.45255V7.45245V7.45235V7.45225V7.45216V7.45206V7.45196V7.45186V7.45176V7.45166V7.45157V7.45147V7.45137V7.45127V7.45117V7.45107V7.45097V7.45088V7.45078V7.45068V7.45058V7.45048V7.45038V7.45028V7.45019C4.5 6.92541 4.92544 6.5 5.45 6.5H18.25C18.9404 6.5 19.5 7.05964 19.5 7.75V16.25C19.5 16.9404 18.9404 17.5 18.25 17.5H14.5C14.0858 17.5 13.75 17.8358 13.75 18.25C13.75 18.6642 14.0858 19 14.5 19H18.25C19.7688 19 21 17.7688 21 16.25V7.75C21 6.23122 19.7688 5 18.25 5H5.45ZM3.75 9.5C3.33579 9.5 3 9.83579 3 10.25C3 10.6642 3.33579 11 3.75 11C7.75406 11 11 14.2459 11 18.25C11 18.6642 11.3358 19 11.75 19C12.1642 19 12.5 18.6642 12.5 18.25C12.5 13.4175 8.58249 9.5 3.75 9.5ZM3 13.25C3 12.8358 3.33579 12.5 3.75 12.5C6.92564 12.5 9.5 15.0744 9.5 18.25C9.5 18.6642 9.16421 19 8.75 19C8.33579 19 8 18.6642 8 18.25C8 15.9028 6.09721 14 3.75 14C3.33579 14 3 13.6642 3 13.25ZM3.75 15.5C3.33579 15.5 3 15.8358 3 16.25C3 16.6642 3.33579 17 3.75 17C4.44036 17 5 17.5596 5 18.25C5 18.6642 5.33579 19 5.75 19C6.16421 19 6.5 18.6642 6.5 18.25C6.5 16.7312 5.26878 15.5 3.75 15.5Z" fill="#002B51"/>
</svg>
