<svg width="24" height="24" viewBox="0 0 24 24" fill="none" xmlns="http://www.w3.org/2000/svg">
<path fill-rule="evenodd" clip-rule="evenodd" d="M18.25,5c1.5188,0 2.75,1.23122 2.75,2.75v8.5c0,1.5188 -1.2312,2.75 -2.75,2.75h-3.75c-0.4142,0 -0.75,-0.3358 -0.75,-0.75c0,-0.4142 0.3358,-0.75 0.75,-0.75h3.75c0.6904,0 1.25,-0.5596 1.25,-1.25v-8.5c0,-0.69036 -0.5596,-1.25 -1.25,-1.25h-12.8c-0.52456,0 -0.95,0.42541 -0.95,0.95019v0.00009v0.0001v0.0001v0.0001v0.0001v0.0001v0.0001v0.00009v0.0001v0.0001v0.0001v0.0001v0.0001v0.0001v0.00009v0.0001v0.0001v0.0001v0.0001v0.0001v0.00009v0.0001v0.0001v0.0001v0.0001v0.0001v0.00009v0.0001v0.0001v0.0001v0.0001v0.0001v0.00009v0.0001v0.0001v0.0001v0.0001v0.0001v0.00009v0.0001v0.0001v0.0001v0.0001v0.0001v0.00009v0.0001v0.0001v0.0001v0.0001v0.0001v0.00009v0.0001v0.0001v0.0001v0.0001v0.0001v0.00009v0.0001v0.0001v0.0001v0.0001v0.00009v0.0001v0.0001v0.0001v0.0001v0.0001v0.00009v0.0001v0.0001v0.0001v0.0001v0.0001v0.00009v0.0001v0.0001v0.0001v0.0001v0.00009v0.0001v0.0001v0.0001v0.0001v0.00009v0.0001v0.0001v0.0001v0.0001v0.0001v0.00009v0.0001v0.0001v0.0001v0.0001v0.00009v0.0001v0.0001v0.0001v0.0001v0.00009v0.0001v0.0001v0.0001v0.0001v0.00009v0.0001v0.0001v0.0001v0.0001v0.00009v0.0001v0.0001v0.0001v0.0001v0.00009v0.0001v0.0001v0.0001v0.0001v0.00009v0.0001v0.0001v0.0001v0.0001v0.00009v0.0001v0.0001v0.0001v0.0001v0.00009v0.0001v0.0001v0.0001v0.00009v0.0001v0.0001v0.0001v0.0001v0.00009v0.0001v0.0001v0.0001v0.0001v0.00009v0.0001v0.0001v0.0001v0.00009v0.0001v0.0001v0.0001v0.0001v0.00009v0.0001v0.0001v0.0001v0.00009v0.0001v0.0001v0.0001v0.0001v0.00009v0.0001v0.0001v0.0001v0.00009v0.0001v0.0001v0.0001v0.0001v0.00009v0.0001v0.0001v0.0001v0.00009v0.0001v0.0001v0.0001v0.00009v0.0001v0.0001v0.0001v0.0001v0.00009v0.0001v0.0001v0.0001v0.00009v0.0001v0.0001v0.0001v0.00009v0.0001v0.0001v0.0001v0.00009v0.0001v0.0001v0.0001v0.00009v0.0001v0.0001v0.0001v0.00009v0.0001v0.0001v0.0001v0.00009v0.0001v0.0001v0.0001v0.00009v0.0001v0.0001v0.0001v0.00009v0.0001v0.0001v0.0001v0.0001v0.00009v0.0001v0.0001v0.0001v0.00009v0.0001v0.0001v0.00009v0.0001v0.0001v0.0001v0.00009v0.0001v0.0001v0.0001v0.00009v0.0001v0.0001v0.0001v0.00009v0.0001v0.0001v0.0001v0.00009v0.0001v0.0001v0.0001v0.00009v0.0001v0.0001v0.00009v0.0001v0.0001v0.0001v0.00009v0.0001v0.0001v0.0001v0.00009v0.0001v0.0001v0.00009v0.0001v0.0001v0.0001v0.00009v0.0001v0.0001v0.0001v0.00009v0.0001v0.0001v0.00009v0.0001v0.0001v0.0001v0.00009v0.0001v0.0001v0.00009v0.0001v0.0001v0.0001v0.00009v0.0001v0.0001v0.0001v0.00009v0.0001v0.0001v0.00009v0.0001v0.0001v0.0001v0.00009v0.0001v0.0001v0.00009v0.0001v0.0001v0.00009v0.0001v0.0001v0.0001v0.00009v0.0001v0.0001v0.00009v0.0001v0.0001v0.0001v0.00009v0.0001v0.0001v0.00009v0.0001v0.0001v0.00009v0.0001v0.0001v0.0001v0.00009v0.0001v0.0001v0.00009v0.0001v0.0001v0.00009v0.0001v0.0001v0.00009v0.0001v0.0001v0.0001v0.00009v0.0001v0.0001v0.00009v0.0001v0.0001v0.00009v0.0001v0.0001v0.00009v0.0001v0.0001v0.0001v0.00009v0.0001v0.0001v0.00009v0.0001v0.0001v0.00009v0.0001v0.0001v0.00009v0.0001v0.0001v0.00009v0.0001v0.0001v0.00009v0.0001v0.0001v0.00009v0.0001v0.0001v0.0001v0.00009v0.0001v0.0001v0.00009v0.0001v0.0001v0.00009v0.0001v0.0001v0.00009v0.0001v0.0001v0.00009v0.0001v0.0001v0.00009v0.0001v0.0001v0.00009v0.0001v0.0001v0.00009v0.0001v0.0001v0.00009v0.0001v0.0001v0.00009v0.0001v0.0001v0.00009v0.0001v0.0001v0.00009v0.0001v0.0001v0.00009v0.0001v0.00009v0.0001v0.0001v0.00009v0.0001v0.0001v0.00009v0.0001v0.0001v0.00009v0.0001v0.0001v0.00009v0.0001v0.0001v0.00009v0.0001v0.0001v0.00009v0.0001v0.00009v0.0001v0.0001v0.00009v0.0001v0.0001v0.00009v0.0001v0.0001v0.00009v0.0001v0.0001v0.00009v0.0001v0.00009v0.0001v0.0001v0.00009v0.0001v0.0001v0.00009v0.0001v0.0001v0.00009v0.0001v0.00009v0.0001v0.0001v0.00009v0.0001v0.0001v0.00009v0.0001v0.0001v0.00009v0.0001v0.00009v0.0001v0.0001v0.00009v0.0001v0.0001v0.00009v0.0001v0.00009v0.0001v0.0001v0.00009v0.0001v0.0001v0.00009v0.0001v0.00009v0.0001v0.0001v0.00009v0.0001v0.0001v0.00009v0.0001v0.00009v0.0001v0.0001v0.00009v0.0001v0.00009v0.0001v0.0001v0.00009v0.0001v0.00009v0.0001v0.0001v0.00009v0.0001v0.0001v0.00009v0.0001v0.00009v0.0001v0.0001v0.00009v0.0001v0.00009v0.0001c0,0.41421 -0.33579,0.75 -0.75,0.75c-0.41421,0 -0.75,-0.33579 -0.75,-0.75v-0.0001v-0.00009v-0.0001v-0.00009v-0.0001v-0.0001v-0.00009v-0.0001v-0.00009v-0.0001v-0.0001v-0.00009v-0.0001v-0.0001v-0.00009v-0.0001v-0.00009v-0.0001v-0.0001v-0.00009v-0.0001v-0.00009v-0.0001v-0.0001v-0.00009v-0.0001v-0.00009v-0.0001v-0.0001v-0.00009v-0.0001v-0.0001v-0.00009v-0.0001v-0.00009v-0.0001v-0.0001v-0.00009v-0.0001v-0.0001v-0.00009v-0.0001v-0.00009v-0.0001v-0.0001v-0.00009v-0.0001v-0.0001v-0.00009v-0.0001v-0.00009v-0.0001v-0.0001v-0.00009v-0.0001v-0.0001v-0.00009v-0.0001v-0.0001v-0.00009v-0.0001v-0.00009v-0.0001v-0.0001v-0.00009v-0.0001v-0.0001v-0.00009v-0.0001v-0.0001v-0.00009v-0.0001v-0.00009v-0.0001v-0.0001v-0.00009v-0.0001v-0.0001v-0.00009v-0.0001v-0.0001v-0.00009v-0.0001v-0.0001v-0.00009v-0.0001v-0.00009v-0.0001v-0.0001v-0.00009v-0.0001v-0.0001v-0.00009v-0.0001v-0.0001v-0.00009v-0.0001v-0.0001v-0.00009v-0.0001v-0.0001v-0.00009v-0.0001v-0.0001v-0.00009v-0.0001v-0.00009v-0.0001v-0.0001v-0.00009v-0.0001v-0.0001v-0.00009v-0.0001v-0.0001v-0.00009v-0.0001v-0.0001v-0.00009v-0.0001v-0.0001v-0.00009v-0.0001v-0.0001v-0.00009v-0.0001v-0.0001v-0.00009v-0.0001v-0.0001v-0.00009v-0.0001v-0.0001v-0.00009v-0.0001v-0.0001v-0.00009v-0.0001v-0.0001v-0.00009v-0.0001v-0.0001v-0.00009v-0.0001v-0.0001v-0.0001v-0.00009v-0.0001v-0.0001v-0.00009v-0.0001v-0.0001v-0.00009v-0.0001v-0.0001v-0.00009v-0.0001v-0.0001v-0.00009v-0.0001v-0.0001v-0.00009v-0.0001v-0.0001v-0.00009v-0.0001v-0.0001v-0.0001v-0.00009v-0.0001v-0.0001v-0.00009v-0.0001v-0.0001v-0.00009v-0.0001v-0.0001v-0.00009v-0.0001v-0.0001v-0.0001v-0.00009v-0.0001v-0.0001v-0.00009v-0.0001v-0.0001v-0.00009v-0.0001v-0.0001v-0.00009v-0.0001v-0.0001v-0.0001v-0.00009v-0.0001v-0.0001v-0.00009v-0.0001v-0.0001v-0.00009v-0.0001v-0.0001v-0.0001v-0.00009v-0.0001v-0.0001v-0.00009v-0.0001v-0.0001v-0.0001v-0.00009v-0.0001v-0.0001v-0.00009v-0.0001v-0.0001v-0.00009v-0.0001v-0.0001v-0.0001v-0.00009v-0.0001v-0.0001v-0.00009v-0.0001v-0.0001v-0.0001v-0.00009v-0.0001v-0.0001v-0.0001v-0.00009v-0.0001v-0.0001v-0.00009v-0.0001v-0.0001v-0.0001v-0.00009v-0.0001v-0.0001v-0.00009v-0.0001v-0.0001v-0.0001v-0.00009v-0.0001v-0.0001v-0.0001v-0.00009v-0.0001v-0.0001v-0.00009v-0.0001v-0.0001v-0.0001v-0.00009v-0.0001v-0.0001v-0.0001v-0.00009v-0.0001v-0.0001v-0.00009v-0.0001v-0.0001v-0.0001v-0.00009v-0.0001v-0.0001v-0.0001v-0.00009v-0.0001v-0.0001v-0.0001v-0.00009v-0.0001v-0.0001v-0.0001v-0.00009v-0.0001v-0.0001v-0.0001v-0.00009v-0.0001v-0.0001v-0.00009v-0.0001v-0.0001v-0.0001v-0.00009v-0.0001v-0.0001v-0.0001v-0.0001v-0.00009v-0.0001v-0.0001v-0.0001v-0.00009v-0.0001v-0.0001v-0.0001v-0.00009v-0.0001v-0.0001v-0.0001v-0.00009v-0.0001v-0.0001v-0.0001v-0.00009v-0.0001v-0.0001v-0.0001v-0.00009v-0.0001v-0.0001v-0.0001v-0.00009v-0.0001v-0.0001v-0.0001v-0.00009v-0.0001v-0.0001v-0.0001v-0.00009v-0.0001v-0.0001v-0.0001v-0.0001v-0.00009v-0.0001v-0.0001v-0.0001v-0.00009v-0.0001v-0.0001v-0.0001v-0.00009v-0.0001v-0.0001v-0.0001v-0.0001v-0.00009v-0.0001v-0.0001v-0.0001v-0.00009v-0.0001v-0.0001v-0.0001v-0.0001v-0.00009v-0.0001v-0.0001v-0.0001v-0.00009v-0.0001v-0.0001v-0.0001v-0.0001v-0.00009v-0.0001v-0.0001v-0.0001v-0.00009v-0.0001v-0.0001v-0.0001v-0.0001v-0.00009v-0.0001v-0.0001v-0.0001v-0.0001v-0.00009v-0.0001v-0.0001v-0.0001v-0.00009v-0.0001v-0.0001v-0.0001v-0.0001v-0.00009v-0.0001v-0.0001v-0.0001v-0.0001v-0.00009v-0.0001v-0.0001v-0.0001v-0.0001v-0.00009v-0.0001v-0.0001v-0.0001v-0.0001v-0.00009v-0.0001v-0.0001v-0.0001v-0.0001v-0.00009v-0.0001v-0.0001v-0.0001v-0.0001v-0.00009v-0.0001v-0.0001v-0.0001v-0.0001v-0.00009v-0.0001v-0.0001v-0.0001v-0.0001v-0.00009v-0.0001v-0.0001v-0.0001v-0.0001v-0.0001v-0.00009v-0.0001v-0.0001v-0.0001v-0.0001v-0.00009v-0.0001v-0.0001v-0.0001v-0.0001v-0.00009v-0.0001v-0.0001v-0.0001v-0.0001v-0.0001v-0.00009v-0.0001v-0.0001v-0.0001v-0.0001v-0.0001v-0.00009v-0.0001v-0.0001v-0.0001v-0.0001v-0.00009v-0.0001v-0.0001v-0.0001v-0.0001v-0.0001v-0.00009v-0.0001v-0.0001v-0.0001v-0.0001v-0.0001v-0.00009v-0.0001v-0.0001v-0.0001v-0.0001v-0.0001v-0.00009v-0.0001v-0.0001v-0.0001v-0.0001v-0.0001v-0.00009v-0.0001v-0.0001v-0.0001v-0.0001v-0.0001v-0.00009v-0.0001v-0.0001v-0.0001v-0.0001v-0.0001v-0.00009v-0.0001v-0.0001v-0.0001v-0.0001v-0.0001v-0.00009v-0.0001v-0.0001v-0.0001v-0.0001v-0.0001v-0.0001v-0.00009v-0.0001v-0.0001v-0.0001v-0.0001v-0.0001v-0.0001v-0.00009c0,-1.35299 1.0968,-2.45019 2.45,-2.45019zM12.5,18.25c0,0.4142 -0.3358,0.75 -0.75,0.75c-0.4142,0 -0.75,-0.3358 -0.75,-0.75c0,-4.0041 -3.24594,-7.25 -7.25,-7.25c-0.41421,0 -0.75,-0.3358 -0.75,-0.75c0,-0.41421 0.33579,-0.75 0.75,-0.75c4.83249,0 8.75,3.9175 8.75,8.75zM3,13.25c0,-0.4142 0.33579,-0.75 0.75,-0.75c3.17564,0 5.75,2.5744 5.75,5.75c0,0.4142 -0.33579,0.75 -0.75,0.75c-0.41421,0 -0.75,-0.3358 -0.75,-0.75c0,-2.3472 -1.90279,-4.25 -4.25,-4.25c-0.41421,0 -0.75,-0.3358 -0.75,-0.75zM6.5,18.25c0,0.4142 -0.33579,0.75 -0.75,0.75c-0.41421,0 -0.75,-0.3358 -0.75,-0.75c0,-0.6904 -0.55964,-1.25 -1.25,-1.25c-0.41421,0 -0.75,-0.3358 -0.75,-0.75c0,-0.4142 0.33579,-0.75 0.75,-0.75c1.51878,0 2.75,1.2312 2.75,2.75z" fill="#002B51"/>
</svg>
