<svg width="24" height="24" viewBox="0 0 24 24" fill="none" xmlns="http://www.w3.org/2000/svg">
<path fill-rule="evenodd" clip-rule="evenodd" d="M18.25,5c1.5188,0 2.75,1.23122 2.75,2.75v8.5c0,1.5188 -1.2312,2.75 -2.75,2.75h-3.777c-0.4053,0 -0.723,-0.3447 -0.723,-0.75c0,-5.5228 -4.47715,-10 -10,-10c-0.25103,0 -0.4999,0.00925 -0.74629,0.02743c-0.002,0.00014 -0.00371,-0.00144 -0.00371,-0.00345v-0.01482v-0.01479v-0.01477v-0.01473v-0.0147v-0.01468v-0.01464v-0.01461v-0.01459v-0.01455v-0.01452v-0.01449v-0.01446v-0.01443v-0.01439v-0.01437v-0.01433v-0.0143v-0.01427v-0.01424v-0.0142v-0.01418v-0.01414v-0.01411v-0.01407v-0.01405v-0.01401v-0.01397v-0.01395v-0.01391v-0.01387v-0.01385v-0.01381v-0.01377v-0.01375v-0.0137v-0.01368c0,-1.5206 1.23304,-2.74628 2.75,-2.74628zM12.5,18.25c0,0.4142 -0.3358,0.75 -0.75,0.75c-0.4142,0 -0.75,-0.3358 -0.75,-0.75c0,-4.0041 -3.24594,-7.25 -7.25,-7.25c-0.41421,0 -0.75,-0.3358 -0.75,-0.75c0,-0.41421 0.33579,-0.75 0.75,-0.75c4.83249,0 8.75,3.9175 8.75,8.75zM3,13.25c0,-0.4142 0.33579,-0.75 0.75,-0.75c3.17564,0 5.75,2.5744 5.75,5.75c0,0.4142 -0.33579,0.75 -0.75,0.75c-0.41421,0 -0.75,-0.3358 -0.75,-0.75c0,-2.3472 -1.90279,-4.25 -4.25,-4.25c-0.41421,0 -0.75,-0.3358 -0.75,-0.75zM6.5,18.25c0,0.4142 -0.33579,0.75 -0.75,0.75c-0.41421,0 -0.75,-0.3358 -0.75,-0.75c0,-0.6904 -0.55964,-1.25 -1.25,-1.25c-0.41421,0 -0.75,-0.3358 -0.75,-0.75c0,-0.4142 0.33579,-0.75 0.75,-0.75c1.51878,0 2.75,1.2312 2.75,2.75z" fill="#002B51"/>
</svg>
