<svg width="24" height="24" viewBox="0 0 24 24" fill="none" xmlns="http://www.w3.org/2000/svg">
<path fill-rule="evenodd" clip-rule="evenodd" d="M5.4502,5h12.7998c1.5188,0 2.75,1.23122 2.75,2.75v8.5c0,1.5188 -1.2312,2.75 -2.75,2.75h-3.75c-0.4142,0 -0.75,-0.3358 -0.75,-0.75c0,-0.4142 0.3358,-0.75 0.75,-0.75h3.75c0.6904,0 1.25,-0.5596 1.25,-1.25v-8.5c0,-0.69036 -0.5596,-1.25 -1.25,-1.25h-12.7998c-0.52456,0 -0.9502,0.42542 -0.9502,0.9502v0.0498c0,0.41421 -0.33578,0.75 -0.75,0.75c-0.41421,0 -0.75,-0.33579 -0.75,-0.75v-0.0498c0,-1.353 1.09699,-2.4502 2.4502,-2.4502zM3,10.25c0,-0.41421 0.33579,-0.75 0.75,-0.75c4.8325,0 8.75,3.9175 8.75,8.75c0,0.4142 -0.3358,0.75 -0.75,0.75c-0.4142,0 -0.75,-0.3358 -0.75,-0.75c0,-4.0041 -3.24593,-7.25 -7.25,-7.25c-0.41421,0 -0.75,-0.3358 -0.75,-0.75zM8,18.25c0,-2.3472 -1.90279,-4.25 -4.25,-4.25c-0.41421,0 -0.75,-0.3358 -0.75,-0.75c0,-0.4142 0.33579,-0.75 0.75,-0.75c3.17564,0 5.75,2.5744 5.75,5.75c0,0.4142 -0.33578,0.75 -0.75,0.75c-0.41421,0 -0.75,-0.3358 -0.75,-0.75zM3,16.25c0,-0.4142 0.33579,-0.75 0.75,-0.75c1.51879,0 2.75,1.2312 2.75,2.75c0,0.4142 -0.33578,0.75 -0.75,0.75c-0.41421,0 -0.75,-0.3358 -0.75,-0.75c0,-0.6904 -0.55964,-1.25 -1.25,-1.25c-0.41421,0 -0.75,-0.3358 -0.75,-0.75z" fill="#002B51"/>
</svg>
