<svg width="24" height="24" viewBox="0 0 24 24" fill="none" xmlns="http://www.w3.org/2000/svg">
<path fill-rule="evenodd" clip-rule="evenodd" d="M18.25,5c1.5188,0 2.75,1.23122 2.75,2.75v8.5c0,1.5188 -1.2312,2.75 -2.75,2.75h-3.777c-0.4053,0 -0.723,-0.3447 -0.723,-0.75c0,-5.5228 -4.47715,-10 -10,-10c-0.07321,0 -0.14623,0.00079 -0.21906,0.00235c-0.28695,0.00617 -0.53094,-0.21924 -0.53094,-0.50626c0.0001,-1.52051 1.2331,-2.74609 2.75,-2.74609zM3,10.25c0,-0.41421 0.33579,-0.75 0.75,-0.75c4.83249,0 8.75,3.9175 8.75,8.75c0,0.4142 -0.3358,0.75 -0.75,0.75c-0.4142,0 -0.75,-0.3358 -0.75,-0.75c0,-4.0041 -3.24594,-7.25 -7.25,-7.25c-0.41421,0 -0.75,-0.3358 -0.75,-0.75zM8,18.25c0,-2.3472 -1.90279,-4.25 -4.25,-4.25c-0.41421,0 -0.75,-0.3358 -0.75,-0.75c0,-0.4142 0.33579,-0.75 0.75,-0.75c3.17564,0 5.75,2.5744 5.75,5.75c0,0.4142 -0.33579,0.75 -0.75,0.75c-0.41421,0 -0.75,-0.3358 -0.75,-0.75zM3,16.25c0,-0.4142 0.33579,-0.75 0.75,-0.75c1.51878,0 2.75,1.2312 2.75,2.75c0,0.4142 -0.33579,0.75 -0.75,0.75c-0.41421,0 -0.75,-0.3358 -0.75,-0.75c0,-0.6904 -0.55964,-1.25 -1.25,-1.25c-0.41421,0 -0.75,-0.3358 -0.75,-0.75z" fill="#002B51"/>
</svg>
