<svg width="24" height="24" viewBox="0 0 24 24" fill="none" xmlns="http://www.w3.org/2000/svg">
<path fill-rule="evenodd" clip-rule="evenodd" d="M5.75 5C4.23304 5 3 6.22568 3 7.74628V7.75996V7.77366V7.78741V7.80118V7.81499V7.82884V7.84271V7.85662V7.87057V7.88454V7.89855V7.9126V7.92667V7.94078V7.95492V7.9691V7.9833V7.99754V8.01181V8.02611V8.04044V8.05481V8.0692V8.08363V8.09809V8.11258V8.1271V8.14165V8.15624V8.17085V8.18549V8.20017V8.21487V8.2296V8.24437V8.25916V8.27398C3 8.27599 3.00171 8.27757 3.00371 8.27743C3.2501 8.25925 3.49897 8.25 3.75 8.25C9.27285 8.25 13.75 12.7272 13.75 18.25C13.75 18.6553 14.0677 19 14.473 19H18.25C19.7688 19 21 17.7688 21 16.25V7.75C21 6.23122 19.7688 5 18.25 5H5.75ZM3.75 9.5C3.33579 9.5 3 9.83579 3 10.25C3 10.6642 3.33579 11 3.75 11C7.75406 11 11 14.2459 11 18.25C11 18.6642 11.3358 19 11.75 19C12.1642 19 12.5 18.6642 12.5 18.25C12.5 13.4175 8.58249 9.5 3.75 9.5ZM3 13.25C3 12.8358 3.33579 12.5 3.75 12.5C6.92564 12.5 9.5 15.0744 9.5 18.25C9.5 18.6642 9.16421 19 8.75 19C8.33579 19 8 18.6642 8 18.25C8 15.9028 6.09721 14 3.75 14C3.33579 14 3 13.6642 3 13.25ZM3.75 15.5C3.33579 15.5 3 15.8358 3 16.25C3 16.6642 3.33579 17 3.75 17C4.44036 17 5 17.5596 5 18.25C5 18.6642 5.33579 19 5.75 19C6.16421 19 6.5 18.6642 6.5 18.25C6.5 16.7312 5.26878 15.5 3.75 15.5Z" fill="#002B51"/>
</svg>
