<svg width="24" height="24" viewBox="0 0 24 24" fill="none" xmlns="http://www.w3.org/2000/svg">
<path d="M9.34864,3.59076c1.46436,-1.46415 3.83836,-1.46416 5.30276,0l0.0508,0.05078c0.3897,0.38959 0.9186,0.6084 1.4697,0.6084c1.976,0.00017 3.5779,1.60206 3.5781,3.57812c0,0.55109 0.2188,1.07998 0.6084,1.46973l0.0508,0.05078c1.4641,1.46443 1.4641,3.83833 0,5.30273l-0.0508,0.0508c-0.3896,0.3897 -0.6084,0.9186 -0.6084,1.4697c-0.0002,1.9761 -1.602,3.578 -3.5781,3.5781c-0.5511,0 -1.08,0.2189 -1.4697,0.6084l-0.0508,0.0508c-1.4644,1.4642 -3.8384,1.4642 -5.30276,0c-0.41993,-0.4199 -1.00292,-0.6592 -1.60254,-0.6592c-1.92621,-0.0001 -3.58738,-1.4327 -3.82812,-3.3584l-0.04493,-0.3564c-0.05877,-0.4702 -0.25638,-0.9236 -0.5625,-1.291c-1.30115,-1.5614 -1.22596,-3.8889 0.22266,-5.33791l0.1084,-0.1084c0.38958,-0.38975 0.6084,-0.91864 0.6084,-1.46973c0.00017,-1.97606 1.60206,-3.57796 3.57812,-3.57812c0.55109,0 1.07998,-0.21881 1.46973,-0.6084zM13.5908,4.65131c-0.8786,-0.87838 -2.303,-0.87837 -3.1816,0l-0.0508,0.05078c-0.67105,0.67089 -1.58136,1.04785 -2.53027,1.04785c-1.14764,0.00016 -2.07795,0.93049 -2.07812,2.07812c0,0.94891 -0.37697,1.85922 -1.04785,2.53024l-0.1084,0.1084c-0.88839,0.8888 -0.94598,2.3393 -0.13086,3.3174c0.48705,0.5846 0.80449,1.3051 0.89941,2.0645l0.04395,0.3564c0.1451,1.1608 1.15566,2.0448 2.33984,2.0449c0.99167,0 1.9578,0.3934 2.6631,1.0987c0.8786,0.8783 2.303,0.8783 3.1816,0l0.0508,-0.0508c0.6711,-0.6709 1.5814,-1.0479 2.5303,-1.0479c1.1476,-0.0001 2.0779,-0.9304 2.0781,-2.0781c0,-0.9489 0.377,-1.8592 1.0479,-2.5303l0.0507,-0.0507c0.8784,-0.8787 0.8784,-2.3031 0,-3.1817l-0.0507,-0.0508c-0.6709,-0.67102 -1.0479,-1.58132 -1.0479,-2.53024c-0.0002,-1.14763 -0.9305,-2.07795 -2.0781,-2.07812c-0.9489,0 -1.8592,-0.37696 -2.5303,-1.04785z" fill="#002B51"/>
</svg>
