<svg width="24" height="24" viewBox="0 0 24 24" fill="none" xmlns="http://www.w3.org/2000/svg">
<path d="M9.34865,3.59082c1.46445,-1.46415 3.83835,-1.46416 5.30275,0l0.0508,0.05078c0.3897,0.38959 0.9186,0.6084 1.4697,0.6084c1.9761,0.00017 3.5779,1.60206 3.5781,3.57812c0,0.55109 0.2188,1.07998 0.6084,1.46973l0.0508,0.05078c1.4642,1.46437 1.4641,3.83837 0,5.30277l-0.0508,0.0507c-0.3896,0.3898 -0.6084,0.9187 -0.6084,1.4698c-0.0002,1.976 -1.602,3.5779 -3.5781,3.5781c-0.5511,0 -1.08,0.2188 -1.4697,0.6084l-0.0508,0.0508c-1.4644,1.4641 -3.8383,1.4641 -5.30275,0c-0.41993,-0.4199 -1.00292,-0.6592 -1.60254,-0.6592c-1.92621,-0.0002 -3.58738,-1.4328 -3.82813,-3.3584l-0.04492,-0.3564c-0.05877,-0.4702 -0.25639,-0.9237 -0.5625,-1.2911c-1.30115,-1.5613 -1.22596,-3.8888 0.22266,-5.33785l0.1084,-0.1084c0.38958,-0.38975 0.60839,-0.91864 0.6084,-1.46973c0.00017,-1.97606 1.60205,-3.57796 3.57812,-3.57812c0.55109,0 1.07998,-0.21881 1.46973,-0.6084zM13.5908,4.65137c-0.8786,-0.87837 -2.303,-0.87837 -3.1816,0l-0.0508,0.05078c-0.67104,0.67089 -1.58135,1.04785 -2.53026,1.04785c-1.14764,0.00016 -2.07795,0.93049 -2.07812,2.07812c-0.00001,0.94891 -0.37697,1.85922 -1.04786,2.53028l-0.10839,0.1084c-0.88839,0.8888 -0.94598,2.3392 -0.13086,3.3174c0.48705,0.5846 0.80449,1.3051 0.89941,2.0644l0.04395,0.3565c0.1451,1.1608 1.15566,2.0447 2.33984,2.0449c0.99167,0 1.9578,0.3933 2.66309,1.0986c0.8786,0.8784 2.303,0.8784 3.1816,0l0.0508,-0.0507c0.6711,-0.6709 1.5814,-1.0479 2.5303,-1.0479c1.1476,-0.0002 2.078,-0.9305 2.0781,-2.0781c0,-0.9489 0.377,-1.8592 1.0479,-2.5303l0.0507,-0.0508c0.8784,-0.8786 0.8784,-2.303 0,-3.1816l-0.0507,-0.0508c-0.6709,-0.67106 -1.0479,-1.58136 -1.0479,-2.53028c-0.0002,-1.14763 -0.9305,-2.07795 -2.0781,-2.07812c-0.9489,0 -1.8592,-0.37696 -2.5303,-1.04785zM15.0264,9.16797c0.2945,-0.24025 0.7293,-0.22272 1.0039,0.05176c0.2746,0.27459 0.292,0.70932 0.0517,1.00387l-0.0517,0.0567l-4.5,4.5c-0.2746,0.2746 -0.7093,0.292 -1.0039,0.0517l-0.0567,-0.0517l-2.49996,-2.5l-0.05176,-0.0567c-0.24018,-0.2945 -0.2228,-0.7293 0.05176,-1.0039c0.27456,-0.2745 0.70934,-0.2919 1.00391,-0.0517l0.05664,0.0517l1.96971,1.9698l3.9697,-3.96977z" fill="#002B51"/>
</svg>
