<svg width="24" height="24" viewBox="0 0 24 24" fill="none" xmlns="http://www.w3.org/2000/svg">
<path d="M9.34851,3.59129c1.46439,-1.46417 3.83829,-1.46417 5.30269,0l0.0508,0.05078l0.1524,0.13769c0.3698,0.3029 0.8352,0.47068 1.3174,0.47071c1.976,0.00016 3.5779,1.60205 3.5781,3.57812c0.0001,0.55093 0.2189,1.08008 0.6084,1.46973l0.0508,0.05078c1.4183,1.4187 1.4627,3.6912 0.1328,5.1631l-0.1328,0.1396l-0.0508,0.0508c-0.3894,0.3897 -0.6084,0.9188 -0.6084,1.4697c-0.0004,1.9759 -1.6022,3.578 -3.5781,3.5782c-0.5511,0 -1.08,0.2188 -1.4698,0.6084l-0.0508,0.0507c-1.4186,1.4182 -3.6911,1.4626 -5.16304,0.1329l-0.13965,-0.1329c-0.41993,-0.4199 -1.00291,-0.6591 -1.60254,-0.6591c-1.92601,-0.0003 -3.58719,-1.4331 -3.82812,-3.3584l-0.04492,-0.3565c-0.05877,-0.4701 -0.25649,-0.9236 -0.5625,-1.291c-1.30107,-1.5613 -1.22569,-3.8888 0.22265,-5.33788l0.1084,-0.1084l0.1377,-0.15235c0.3029,-0.36971 0.4706,-0.83525 0.4707,-1.31738c0.00016,-1.97603 1.6021,-3.5779 3.57813,-3.57812c0.55095,0 1.08,-0.21899 1.46972,-0.6084zM16.0302,9.22019c-0.2746,-0.2746 -0.7094,-0.29206 -1.004,-0.05175l-0.0566,0.05175l-3.9697,3.96971l-1.96975,-1.9697l-0.05664,-0.0518c-0.29458,-0.2403 -0.7293,-0.2228 -1.0039,0.0518c-0.27436,0.2746 -0.29199,0.7094 -0.05176,1.0039l0.05176,0.0566l2.49999,2.5l0.0566,0.0518c0.2945,0.2402 0.7293,0.2226 1.004,-0.0518l4.5,-4.5l0.0517,-0.0566c0.2403,-0.29456 0.2228,-0.7293 -0.0517,-1.00391z" fill="#002B51"/>
</svg>
