<svg width="24" height="24" viewBox="0 0 24 24" fill="none" xmlns="http://www.w3.org/2000/svg">
<path d="M9.34863,3.59082c1.46437,-1.46415 3.83837,-1.46416 5.30277,0l0.0507,0.05078c0.3898,0.38959 0.9187,0.6084 1.4698,0.6084c1.976,0.00017 3.5779,1.60206 3.5781,3.57812c0,0.55109 0.2188,1.07998 0.6084,1.46973l0.0508,0.05078c1.4641,1.46437 1.4641,3.83837 0,5.30277l-0.0508,0.0507c-0.3896,0.3898 -0.6084,0.9187 -0.6084,1.4698c-0.0002,1.976 -1.6021,3.5779 -3.5781,3.5781c-0.5511,0 -1.08,0.2188 -1.4698,0.6084l-0.0507,0.0508c-1.4644,1.4641 -3.8384,1.4641 -5.30277,0c-0.41992,-0.4199 -1.00292,-0.6592 -1.60254,-0.6592c-1.9262,-0.0002 -3.58737,-1.4328 -3.82812,-3.3584l-0.04492,-0.3564c-0.05878,-0.4702 -0.2564,-0.9237 -0.5625,-1.2911c-1.30116,-1.5613 -1.22596,-3.8888 0.22265,-5.33785l0.1084,-0.1084c0.38958,-0.38975 0.6084,-0.91864 0.6084,-1.46973c0.00017,-1.97606 1.60206,-3.57796 3.57812,-3.57812c0.55109,0 1.07998,-0.21881 1.46973,-0.6084zM16.0303,9.21973c-0.2746,-0.2745 -0.7094,-0.29202 -1.0039,-0.05176l-0.0567,0.05176l-3.9697,3.96977l-1.96973,-1.9698l-0.05664,-0.0517c-0.29457,-0.2402 -0.72933,-0.2228 -1.0039,0.0517c-0.27457,0.2746 -0.29197,0.7094 -0.05176,1.0039l0.05176,0.0567l2.49997,2.5l0.0567,0.0517c0.2945,0.2403 0.7293,0.2229 1.0039,-0.0517l4.5,-4.5l0.0517,-0.0567c0.2403,-0.29455 0.2229,-0.72928 -0.0517,-1.00387z" fill="#002B51"/>
</svg>
