<svg width="24" height="24" viewBox="0 0 24 24" fill="none" xmlns="http://www.w3.org/2000/svg">
<path d="M9.34851,3.59123c1.46439,-1.46417 3.83829,-1.46417 5.30269,0l0.0508,0.05078l0.1524,0.13769c0.3698,0.30289 0.8352,0.47068 1.3174,0.47071c1.976,0.00016 3.5779,1.60205 3.5781,3.57812c0.0001,0.55093 0.2189,1.08008 0.6084,1.46973l0.0508,0.05078c1.4183,1.41876 1.4627,3.69116 0.1328,5.16306l-0.1328,0.1397l-0.0508,0.0508c-0.3894,0.3897 -0.6084,0.9187 -0.6084,1.4697c-0.0004,1.9758 -1.6022,3.5779 -3.5781,3.5781c-0.5511,0 -1.08,0.2188 -1.4698,0.6084l-0.0508,0.0508c-1.4186,1.4181 -3.6911,1.4625 -5.16304,0.1328l-0.13965,-0.1328c-0.41993,-0.4199 -1.00291,-0.6592 -1.60254,-0.6592c-1.92601,-0.0002 -3.58719,-1.433 -3.82812,-3.3584l-0.04492,-0.3564c-0.05877,-0.4701 -0.25649,-0.9237 -0.5625,-1.2911c-1.30107,-1.5612 -1.22569,-3.8888 0.22265,-5.33784l0.1084,-0.1084l0.1377,-0.15235c0.3029,-0.36972 0.4706,-0.83525 0.4707,-1.31738c0.00016,-1.97603 1.6021,-3.5779 3.57813,-3.57812c0.55095,0 1.08,-0.21899 1.46972,-0.6084z" fill="#002B51"/>
</svg>
