<svg width="24" height="24" viewBox="0 0 24 24" fill="none" xmlns="http://www.w3.org/2000/svg">
<path fill-rule="evenodd" clip-rule="evenodd" d="M13.591,4.65162c-0.8787,-0.87868 -2.3033,-0.87867 -3.182,0l-0.0502,0.05026c-0.67113,0.67108 -1.58132,1.04809 -2.53038,1.04809c-1.14788,0 -2.07842,0.93055 -2.07842,2.07843c0,0.94906 -0.37702,1.85925 -1.0481,2.5303l-0.1077,0.1077c-0.88877,0.8888 -0.9467,2.339 -0.13146,3.3173c0.4872,0.5847 0.80424,1.3055 0.89918,2.065l0.04459,0.3567c0.14512,1.1609 1.1556,2.0446 2.33993,2.0446c0.99168,0 1.95728,0.393 2.66256,1.0983c0.8787,0.8787 2.3033,0.8787 3.182,0l0.0502,-0.0502c0.6711,-0.6711 1.5813,-1.0481 2.5304,-1.0481c1.1479,0 2.0784,-0.9306 2.0784,-2.0785c0,-0.949 0.377,-1.8592 1.0481,-2.5303l0.0502,-0.0502c0.8787,-0.8787 0.8787,-2.3033 0,-3.182l-0.0502,-0.0503c-0.6711,-0.67105 -1.0481,-1.58124 -1.0481,-2.5303c0,-1.14788 -0.9305,-2.07843 -2.0784,-2.07843c-0.9491,0 -1.8593,-0.37701 -2.5304,-1.04809zM9.34834,3.59096c1.46446,-1.46446 3.83886,-1.46446 5.30326,0l0.0503,0.05026c0.3898,0.38978 0.9184,0.60875 1.4697,0.60875c1.9763,0 3.5784,1.60212 3.5784,3.57843c0,0.55123 0.219,1.07989 0.6088,1.46967l0.0502,0.05025c1.4645,1.46448 1.4645,3.83888 0,5.30328l-0.0502,0.0503c-0.3898,0.3898 -0.6088,0.9184 -0.6088,1.4696c0,1.9764 -1.6021,3.5785 -3.5784,3.5785c-0.5513,0 -1.0799,0.219 -1.4697,0.6087l-0.0503,0.0503c-1.4644,1.4644 -3.8388,1.4644 -5.30326,0c-0.41992,-0.4199 -1.00227,-0.659 -1.6019,-0.659c-1.92638,0 -3.58762,-1.4327 -3.82834,-3.3585l-0.0446,-0.3568c-0.05878,-0.4702 -0.25692,-0.9233 -0.56309,-1.2907c-1.30128,-1.5615 -1.22587,-3.8892 0.22313,-5.33823l0.1077,-0.1077c0.38978,-0.38978 0.60876,-0.91844 0.60876,-1.46967c0,-1.97631 1.60211,-3.57843 3.57842,-3.57843c0.55124,0 1.07989,-0.21897 1.46967,-0.60875z" fill="#002B51"/>
</svg>
