<svg width="24" height="24" viewBox="0 0 24 24" fill="none" xmlns="http://www.w3.org/2000/svg">
<path d="M9.34852,3.59122c1.46438,-1.46416 3.83828,-1.46416 5.30278,0l0.0507,0.05078l0.1524,0.1377c0.3698,0.30289 0.8352,0.47067 1.3174,0.4707c1.976,0.00017 3.5779,1.60206 3.5781,3.57813c0.0001,0.55092 0.2189,1.08008 0.6084,1.46972l0.0508,0.05078c1.4183,1.41877 1.4627,3.69117 0.1328,5.16307l-0.1328,0.1397l-0.0508,0.0508c-0.3894,0.3897 -0.6084,0.9187 -0.6084,1.4697c-0.0004,1.9758 -1.6022,3.5779 -3.5781,3.5781c-0.5511,0 -1.08,0.2188 -1.4698,0.6084l-0.0507,0.0508c-1.4187,1.4181 -3.6912,1.4625 -5.16313,0.1328l-0.13965,-0.1328c-0.41992,-0.4199 -1.00292,-0.6592 -1.60253,-0.6592c-1.92602,-0.0002 -3.5872,-1.433 -3.82813,-3.3584l-0.04492,-0.3564c-0.05877,-0.4701 -0.25649,-0.9237 -0.5625,-1.2911c-1.30107,-1.5612 -1.22569,-3.8888 0.22265,-5.33785l0.1084,-0.1084l0.1377,-0.15234c0.3029,-0.36972 0.4706,-0.83525 0.4707,-1.31738c0.00017,-1.97603 1.60211,-3.5779 3.57813,-3.57813c0.55095,0 1.08,-0.21898 1.46972,-0.6084zM13.5907,4.65177c-0.8786,-0.87837 -2.303,-0.87838 -3.1816,0l-0.0508,0.05078c-0.67104,0.67072 -1.5815,1.04785 -2.53028,1.04785c-1.14759,0.00023 -2.07796,0.93052 -2.07813,2.07813c-0.00012,0.94875 -0.37706,1.85932 -1.04785,2.53027l-0.1084,0.1084c-0.88811,0.8888 -0.94588,2.3393 -0.13086,3.3174c0.48695,0.5845 0.80451,1.3052 0.89942,2.0644l0.04394,0.3565c0.14529,1.1605 1.15587,2.0447 2.33985,2.0449c0.99167,0 1.95779,0.3934 2.66311,1.0986l0.1709,0.1543c0.8835,0.7204 2.187,0.6689 3.0107,-0.1543l0.0508,-0.0507c0.671,-0.6709 1.5814,-1.0479 2.5303,-1.0479c1.1475,-0.0002 2.0777,-0.9307 2.0781,-2.0781c0,-0.9488 0.3771,-1.8593 1.0478,-2.5303l0.0508,-0.0508l0.1543,-0.1709c0.6725,-0.8247 0.6724,-2.0151 0,-2.8398l-0.1543,-0.1709l-0.0508,-0.0508c-0.6707,-0.67095 -1.0477,-1.58152 -1.0478,-2.53027c-0.0002,-1.14765 -0.9305,-2.07796 -2.0781,-2.07813c-0.8897,-0.00003 -1.746,-0.33142 -2.4024,-0.92578l-0.1279,-0.12207zM15.0263,9.16837c0.2945,-0.24031 0.7293,-0.22284 1.0039,0.05176c0.2745,0.2746 0.292,0.70934 0.0517,1.00387l-0.0517,0.0567l-4.5,4.5c-0.2747,0.2743 -0.7095,0.292 -1.0039,0.0517l-0.0567,-0.0517l-2.49998,-2.5l-0.05176,-0.0567c-0.24023,-0.2945 -0.22259,-0.7293 0.05176,-1.0039c0.2746,-0.2746 0.70932,-0.292 1.0039,-0.0517l0.05664,0.0517l1.96974,1.9698l3.9697,-3.96977z" fill="#002B51"/>
</svg>
