<svg width="24" height="24" viewBox="0 0 24 24" fill="none" xmlns="http://www.w3.org/2000/svg">
<path d="M9.34852,3.59123c1.46438,-1.46417 3.83828,-1.46417 5.30278,0l0.0507,0.05078l0.1524,0.13769c0.3698,0.30289 0.8352,0.47068 1.3174,0.47071c1.976,0.00016 3.5779,1.60205 3.5781,3.57812c0.0001,0.55093 0.2189,1.08008 0.6084,1.46973l0.0508,0.05078c1.4183,1.41876 1.4627,3.69116 0.1328,5.16306l-0.1328,0.1397l-0.0508,0.0508c-0.3894,0.3897 -0.6084,0.9187 -0.6084,1.4697c-0.0004,1.9758 -1.6022,3.5779 -3.5781,3.5781c-0.5511,0 -1.08,0.2188 -1.4698,0.6084l-0.0507,0.0508c-1.4187,1.4181 -3.6912,1.4625 -5.16313,0.1328l-0.13965,-0.1328c-0.41993,-0.4199 -1.00292,-0.6592 -1.60254,-0.6592c-1.92602,-0.0002 -3.58719,-1.433 -3.82812,-3.3584l-0.04492,-0.3564c-0.05877,-0.4701 -0.25649,-0.9237 -0.56251,-1.2911c-1.30107,-1.5612 -1.22568,-3.8888 0.22266,-5.33784l0.1084,-0.1084l0.1377,-0.15235c0.3029,-0.36972 0.47059,-0.83525 0.4707,-1.31738c0.00016,-1.97603 1.6021,-3.5779 3.57812,-3.57812c0.55096,0 1.08,-0.21899 1.46973,-0.6084zM13.5907,4.65177c-0.8786,-0.87837 -2.303,-0.87837 -3.1816,0l-0.0508,0.05078c-0.67104,0.67072 -1.5815,1.04786 -2.53029,1.04786c-1.14759,0.00022 -2.07796,0.93051 -2.07812,2.07812c-0.00012,0.94875 -0.37706,1.85932 -1.04785,2.53027l-0.1084,0.1084c-0.88812,0.8888 -0.94589,2.3393 -0.13086,3.3174c0.48695,0.5845 0.80451,1.3052 0.89941,2.0644l0.04395,0.3565c0.14529,1.1605 1.15586,2.0447 2.33984,2.0449c0.99168,0 1.9578,0.3933 2.66312,1.0986l0.1709,0.1543c0.8835,0.7204 2.187,0.6689 3.0107,-0.1543l0.0508,-0.0507c0.671,-0.6709 1.5814,-1.0479 2.5303,-1.0479c1.1475,-0.0002 2.0777,-0.9307 2.0781,-2.0781c0,-0.9488 0.3771,-1.8593 1.0478,-2.5303l0.0508,-0.0508l0.1543,-0.1709c0.6725,-0.8247 0.6724,-2.0151 0,-2.8398l-0.1543,-0.1709l-0.0508,-0.0508c-0.6708,-0.67095 -1.0477,-1.58152 -1.0478,-2.53027c-0.0002,-1.14764 -0.9305,-2.07796 -2.0781,-2.07812c-0.8897,-0.00003 -1.746,-0.33142 -2.4024,-0.92579l-0.1279,-0.12207z" fill="#002B51"/>
</svg>
