<svg width="24" height="24" viewBox="0 0 24 24" fill="none" xmlns="http://www.w3.org/2000/svg">
<path fill-rule="evenodd" clip-rule="evenodd" d="M9.34834,3.59103c1.46446,-1.46447 3.83886,-1.46447 5.30326,-0.00001l0.0503,0.05026c0.3898,0.38978 0.9184,0.60875 1.4697,0.60875c1.9763,0 3.5784,1.60212 3.5784,3.57843c0,0.55123 0.219,1.07989 0.6087,1.46967l0.0503,0.05025c1.4645,1.46442 1.4645,3.83882 0,5.30332l-0.0503,0.0502c-0.3897,0.3898 -0.6087,0.9185 -0.6087,1.4697c0,1.9763 -1.6021,3.5784 -3.5784,3.5784c-0.5513,0 -1.0799,0.219 -1.4697,0.6088l-0.0503,0.0502c-1.4644,1.4645 -3.8388,1.4645 -5.30326,0c-0.41993,-0.4199 -1.00228,-0.659 -1.6019,-0.659c-1.92639,0 -3.58763,-1.4327 -3.82835,-3.3585l-0.0446,-0.3567c-0.05878,-0.4703 -0.25692,-0.9233 -0.56309,-1.2907c-1.30128,-1.5616 -1.22587,-3.8893 0.22313,-5.33827l0.1077,-0.1077c0.38978,-0.38978 0.60876,-0.91844 0.60876,-1.46967c0,-1.97631 1.60211,-3.57843 3.57842,-3.57843c0.55124,0 1.07989,-0.21897 1.46967,-0.60875zM16.0303,10.2804c0.2929,-0.29292 0.2929,-0.76779 0,-1.06069c-0.2929,-0.29289 -0.7678,-0.29289 -1.0607,0l-3.9696,3.96969l-1.96971,-1.9697c-0.2929,-0.2929 -0.76777,-0.2929 -1.06066,0c-0.2929,0.2929 -0.2929,0.7678 0,1.0607l2.49997,2.5c0.2929,0.2929 0.7678,0.2929 1.0607,0z" fill="#002B51"/>
</svg>
