<svg width="24" height="24" viewBox="0 0 24 24" fill="none" xmlns="http://www.w3.org/2000/svg">
<path fill-rule="evenodd" clip-rule="evenodd" d="M10.3588,4.70188c-0.67113,0.67108 -1.58131,1.04809 -2.53037,1.04809c-1.14788,0 -2.07843,0.93055 -2.07843,2.07843c0,0.94906 -0.37701,1.85925 -1.04809,2.5303l-0.1077,0.1077c-0.88877,0.8888 -0.94671,2.339 -0.13146,3.3173c0.4872,0.5847 0.80424,1.3055 0.89918,2.065l0.04459,0.3567c0.14512,1.1609 1.1556,2.0446 2.33993,2.0446c0.99168,0 1.95727,0.393 2.66255,1.0983c0.8787,0.8787 2.3033,0.8787 3.182,0l0.0502,-0.0502c0.6711,-0.6711 1.5813,-1.0481 2.5304,-1.0481c1.1479,0 2.0784,-0.9306 2.0784,-2.0785c0,-0.949 0.377,-1.8592 1.0481,-2.5303l0.0503,-0.0502c0.8786,-0.8787 0.8786,-2.3033 0,-3.182l-0.0503,-0.0503c-0.6711,-0.67106 -1.0481,-1.58124 -1.0481,-2.5303c0,-1.14788 -0.9305,-2.07843 -2.0784,-2.07843c-0.9491,0 -1.8593,-0.37701 -2.5304,-1.04809l-0.0502,-0.05026c-0.8787,-0.87868 -2.3033,-0.87867 -3.182,0zM14.7019,3.64122c0.3898,0.38978 0.9184,0.60875 1.4697,0.60875c1.9763,0 3.5784,1.60212 3.5784,3.57843c0,0.55123 0.219,1.07989 0.6088,1.46967l0.0502,0.05025c1.4645,1.46448 1.4645,3.83888 0,5.30328l-0.0502,0.0503c-0.3898,0.3898 -0.6088,0.9184 -0.6088,1.4696c0,1.9764 -1.6021,3.5785 -3.5784,3.5785c-0.5513,0 -1.0799,0.219 -1.4697,0.6087l-0.0502,0.0503c-1.4645,1.4644 -3.8389,1.4644 -5.30335,0c-0.41993,-0.4199 -1.00228,-0.659 -1.6019,-0.659c-1.92638,0 -3.58762,-1.4327 -3.82835,-3.3585l-0.04459,-0.3568c-0.05878,-0.4702 -0.25692,-0.9233 -0.5631,-1.2907c-1.30127,-1.5615 -1.22586,-3.8892 0.22314,-5.33823l0.1077,-0.1077c0.38978,-0.38978 0.60875,-0.91844 0.60875,-1.46967c0,-1.97631 1.60212,-3.57843 3.57843,-3.57843c0.55123,0 1.07989,-0.21897 1.46967,-0.60875l0.05025,-0.05026c1.46445,-1.46446 3.83885,-1.46446 5.30335,0zM11.5303,14.7803c-0.2929,0.2929 -0.7677,0.2929 -1.0606,0l-2.50004,-2.5c-0.29289,-0.2929 -0.29289,-0.7677 0,-1.0606c0.2929,-0.2929 0.76777,-0.2929 1.06066,0l1.96968,1.9696l3.9697,-3.96962c0.2929,-0.29289 0.7677,-0.29289 1.0606,0c0.2929,0.29289 0.2929,0.76777 0,1.06062z" fill="#002B51"/>
</svg>
