<svg width="24" height="24" viewBox="0 0 24 24" fill="none" xmlns="http://www.w3.org/2000/svg">
<path fill-rule="evenodd" clip-rule="evenodd" d="M14.7019,3.64122c0.3898,0.38978 0.9184,0.60875 1.4697,0.60875c1.9763,0 3.5784,1.60212 3.5784,3.57843c0,0.55123 0.219,1.07989 0.6087,1.46967l0.0503,0.05025c1.4645,1.46448 1.4645,3.83888 0,5.30328l-0.0503,0.0503c-0.3897,0.3898 -0.6087,0.9184 -0.6087,1.4696c0,1.9764 -1.6021,3.5785 -3.5784,3.5785c-0.5513,0 -1.0799,0.219 -1.4697,0.6087l-0.0503,0.0503c-1.4644,1.4644 -3.8388,1.4644 -5.30326,0c-0.41993,-0.4199 -1.00228,-0.659 -1.6019,-0.659c-1.92639,0 -3.58763,-1.4327 -3.82835,-3.3585l-0.0446,-0.3568c-0.05878,-0.4702 -0.25692,-0.9233 -0.56309,-1.2907c-1.30128,-1.5615 -1.22587,-3.8892 0.22313,-5.33823l0.1077,-0.1077c0.38978,-0.38978 0.60876,-0.91844 0.60876,-1.46967c0,-1.97631 1.60211,-3.57843 3.57842,-3.57843c0.55124,0 1.07989,-0.21897 1.46967,-0.60875l0.05026,-0.05026c1.46446,-1.46446 3.83886,-1.46446 5.30326,0z" fill="#002B51"/>
</svg>
