<svg width="24" height="24" viewBox="0 0 24 24" fill="none" xmlns="http://www.w3.org/2000/svg">
<path d="M9.34863,3.59076c1.46437,-1.46415 3.83837,-1.46416 5.30277,0l0.0507,0.05078c0.3898,0.38959 0.9187,0.6084 1.4698,0.6084c1.976,0.00017 3.5779,1.60206 3.5781,3.57812c0,0.55109 0.2188,1.07998 0.6084,1.46973l0.0508,0.05078c1.4641,1.46443 1.4641,3.83833 0,5.30273l-0.0508,0.0508c-0.3896,0.3897 -0.6084,0.9186 -0.6084,1.4697c-0.0002,1.9761 -1.6021,3.578 -3.5781,3.5781c-0.5511,0 -1.08,0.2189 -1.4698,0.6084l-0.0507,0.0508c-1.4644,1.4642 -3.8384,1.4642 -5.30277,0c-0.41992,-0.4199 -1.00292,-0.6592 -1.60254,-0.6592c-1.92621,-0.0001 -3.58738,-1.4327 -3.82812,-3.3584l-0.04492,-0.3564c-0.05878,-0.4702 -0.25639,-0.9236 -0.5625,-1.291c-1.30116,-1.5614 -1.22596,-3.8889 0.22265,-5.33791l0.1084,-0.1084c0.38959,-0.38975 0.6084,-0.91864 0.6084,-1.46973c0.00017,-1.97606 1.60206,-3.57796 3.57812,-3.57812c0.55109,0 1.07998,-0.21881 1.46973,-0.6084z" fill="#002B51"/>
</svg>
