<svg width="24" height="24" viewBox="0 0 24 24" fill="none" xmlns="http://www.w3.org/2000/svg">
<path fill-rule="evenodd" clip-rule="evenodd" d="M17.202,4.02593c0.6803,0.24295 1.2839,0.54973 1.7318,0.92792c0.4444,0.37524 0.8162,0.89459 0.8162,1.54615v11c0,0.6516 -0.3718,1.1709 -0.8162,1.5462c-0.4479,0.3781 -1.0515,0.6849 -1.7318,0.9279c-1.3671,0.4882 -3.2063,0.7759 -5.202,0.7759c-1.9957,0 -3.83495,-0.2877 -5.202,-0.7759c-0.68026,-0.243 -1.28389,-0.5498 -1.73177,-0.9279c-0.4444,-0.3753 -0.81623,-0.8946 -0.81623,-1.5462v-11c0,-0.65156 0.37183,-1.17091 0.81623,-1.54615c0.44788,-0.37819 1.05151,-0.68497 1.73177,-0.92792c1.36705,-0.48824 3.2063,-0.77593 5.202,-0.77593c1.9957,0 3.8349,0.28769 5.202,0.77593zM6.03396,6.90007c0.26055,0.22001 0.68206,0.45193 1.26854,0.66139c1.16645,0.41659 2.8272,0.68854 4.6975,0.68854c1.8703,0 3.531,-0.27195 4.6975,-0.68854c0.5865,-0.20946 1.008,-0.44138 1.2685,-0.66139c0.2641,-0.22294 0.284,-0.36127 0.284,-0.40007c0,-0.0388 -0.0199,-0.17713 -0.284,-0.40007c-0.2605,-0.22001 -0.682,-0.45193 -1.2685,-0.66139c-1.1665,-0.41659 -2.8272,-0.68854 -4.6975,-0.68854c-1.8703,0 -3.53105,0.27195 -4.6975,0.68854c-0.58648,0.20946 -1.00799,0.44138 -1.26854,0.66139c-0.26403,0.22294 -0.28396,0.36127 -0.28396,0.40007c0,0.0388 0.01993,0.17713 0.28396,0.40007zM6.13935,14.2064c1.41192,0.6536 3.5379,1.0436 5.86065,1.0436c2.3227,0 4.4487,-0.39 5.8606,-1.0436c0.1883,-0.0872 0.3234,-0.2425 0.3894,-0.4231v-0.5151c-0.0071,-0.0193 -0.015,-0.0385 -0.0238,-0.0575c-0.174,-0.3759 -0.6198,-0.5395 -0.9957,-0.3655c-1.1481,0.5314 -3.0381,0.9048 -5.2305,0.9048c-2.19242,0 -4.08237,-0.3734 -5.23052,-0.9048c-0.37589,-0.174 -0.82167,-0.0104 -0.99568,0.3655c-0.00879,0.019 -0.01672,0.0382 -0.0238,0.0575v0.5151c0.06602,0.1806 0.20106,0.3359 0.38935,0.4231z" fill="#002B51"/>
</svg>
