<svg width="24" height="24" viewBox="0 0 24 24" fill="none" xmlns="http://www.w3.org/2000/svg">
<path fill-rule="evenodd" clip-rule="evenodd" d="M5.5 3.75C3.98122 3.75 2.75 4.98122 2.75 6.5V8.5C2.75 10.0188 3.98122 11.25 5.5 11.25H18.5C20.0188 11.25 21.25 10.0188 21.25 8.5V6.5C21.25 4.98122 20.0188 3.75 18.5 3.75H5.5ZM4.25 6.5C4.25 5.80964 4.80964 5.25 5.5 5.25H18.5C19.1904 5.25 19.75 5.80964 19.75 6.5V8.5C19.75 9.19036 19.1904 9.75 18.5 9.75H5.5C4.80964 9.75 4.25 9.19036 4.25 8.5V6.5ZM5.5 12.75C3.98122 12.75 2.75 13.9812 2.75 15.5V17.5C2.75 19.0188 3.98122 20.25 5.5 20.25H18.5C20.0188 20.25 21.25 19.0188 21.25 17.5V15.5C21.25 13.9812 20.0188 12.75 18.5 12.75H5.5ZM4.25 15.5C4.25 14.8096 4.80964 14.25 5.5 14.25H18.5C19.1904 14.25 19.75 14.8096 19.75 15.5V17.5C19.75 18.1904 19.1904 18.75 18.5 18.75H5.5C4.80964 18.75 4.25 18.1904 4.25 17.5V15.5ZM6 7.5C6 6.94772 6.44772 6.5 7 6.5C7.55228 6.5 8 6.94772 8 7.5C8 8.05228 7.55228 8.5 7 8.5C6.44772 8.5 6 8.05228 6 7.5ZM7 15.5C6.44772 15.5 6 15.9477 6 16.5C6 17.0523 6.44772 17.5 7 17.5C7.55228 17.5 8 17.0523 8 16.5C8 15.9477 7.55228 15.5 7 15.5Z" fill="#002B51"/>
</svg>
