<svg width="24" height="24" viewBox="0 0 24 24" fill="none" xmlns="http://www.w3.org/2000/svg">
<path d="M18.5,12.75c1.5188,0 2.75,1.2312 2.75,2.75v2c0,1.5188 -1.2312,2.75 -2.75,2.75h-13c-1.51878,0 -2.75,-1.2312 -2.75,-2.75v-2c0,-1.5188 1.23122,-2.75 2.75,-2.75zM5.5,14.25c-0.69036,0 -1.25,0.5596 -1.25,1.25v2c0,0.6904 0.55964,1.25 1.25,1.25h13c0.6904,0 1.25,-0.5596 1.25,-1.25v-2c0,-0.6904 -0.5596,-1.25 -1.25,-1.25zM7,15.5c0.55228,0 1,0.4477 1,1c0,0.5523 -0.44772,1 -1,1c-0.55228,0 -1,-0.4477 -1,-1c0,-0.5523 0.44772,-1 1,-1zM18.5,3.75c1.5188,0 2.75,1.23122 2.75,2.75v2c0,1.5188 -1.2312,2.75 -2.75,2.75h-13c-1.51878,0 -2.75,-1.2312 -2.75,-2.75v-2c0,-1.51878 1.23122,-2.75 2.75,-2.75zM5.5,5.25c-0.69036,0 -1.25,0.55964 -1.25,1.25v2c0,0.69036 0.55964,1.25 1.25,1.25h13c0.6904,0 1.25,-0.55964 1.25,-1.25v-2c0,-0.69036 -0.5596,-1.25 -1.25,-1.25zM7,6.5c0.55228,0 1,0.44772 1,1c0,0.55228 -0.44772,1 -1,1c-0.55228,0 -1,-0.44772 -1,-1c0,-0.55228 0.44772,-1 1,-1z" fill="#002B51"/>
</svg>
