<svg width="24" height="24" viewBox="0 0 24 24" fill="none" xmlns="http://www.w3.org/2000/svg">
<path fill-rule="evenodd" clip-rule="evenodd" d="M5.5,11.25c-1.51878,0 -2.75,-1.2312 -2.75,-2.75v-2c0,-1.51878 1.23122,-2.75 2.75,-2.75h13c1.5188,0 2.75,1.23122 2.75,2.75v2c0,1.5188 -1.2312,2.75 -2.75,2.75zM5.5,20.25c-1.51878,0 -2.75,-1.2312 -2.75,-2.75v-2c0,-1.5188 1.23122,-2.75 2.75,-2.75h13c1.5188,0 2.75,1.2312 2.75,2.75v2c0,1.5188 -1.2312,2.75 -2.75,2.75zM7,6.5c-0.55228,0 -1,0.44772 -1,1c0,0.55228 0.44772,1 1,1c0.55228,0 1,-0.44772 1,-1c0,-0.55228 -0.44772,-1 -1,-1zM7,17.5c0.55228,0 1,-0.4477 1,-1c0,-0.5523 -0.44772,-1 -1,-1c-0.55228,0 -1,0.4477 -1,1c0,0.5523 0.44772,1 1,1z" fill="#002B51"/>
</svg>
