<svg width="24" height="24" viewBox="0 0 24 24" fill="none" xmlns="http://www.w3.org/2000/svg">
<path fill-rule="evenodd" clip-rule="evenodd" d="M5.5 3.75C3.98122 3.75 2.75 4.98122 2.75 6.5V8.5C2.75 10.0188 3.98122 11.25 5.5 11.25H18.5C20.0188 11.25 21.25 10.0188 21.25 8.5V6.5C21.25 4.98122 20.0188 3.75 18.5 3.75H5.5ZM5.5 12.75C3.98122 12.75 2.75 13.9812 2.75 15.5V17.5C2.75 19.0188 3.98122 20.25 5.5 20.25H18.5C20.0188 20.25 21.25 19.0188 21.25 17.5V15.5C21.25 13.9812 20.0188 12.75 18.5 12.75H5.5ZM7 6.5C6.44772 6.5 6 6.94772 6 7.5C6 8.05228 6.44772 8.5 7 8.5C7.55228 8.5 8 8.05228 8 7.5C8 6.94772 7.55228 6.5 7 6.5ZM6 16.5C6 15.9477 6.44772 15.5 7 15.5C7.55228 15.5 8 15.9477 8 16.5C8 17.0523 7.55228 17.5 7 17.5C6.44772 17.5 6 17.0523 6 16.5Z" fill="#002B51"/>
</svg>
