<svg width="24" height="24" viewBox="0 0 24 24" fill="none" xmlns="http://www.w3.org/2000/svg">
<path fill-rule="evenodd" clip-rule="evenodd" d="M11.2445,2.68583c0.4938,-0.14108 1.0172,-0.14108 1.511,0l5,1.42859c1.1806,0.33731 1.9945,1.41637 1.9945,2.64419v8.01929c0,0.8439 -0.3874,1.641 -1.051,2.1624l-5,3.9286c-0.9972,0.7835 -2.4008,0.7835 -3.398,0l-5.00001,-3.9286c-0.66355,-0.5214 -1.05099,-1.3185 -1.05099,-2.1624v-8.01929c0,-1.22782 0.81393,-2.30688 1.99451,-2.64419zM12.3434,4.12811c-0.2244,-0.06413 -0.4624,-0.06413 -0.6868,0l-5.00001,1.4286c-0.53662,0.15332 -0.90659,0.6438 -0.90659,1.2019v8.01929c0,0.3836 0.17611,0.7459 0.47772,0.9829l4.99998,3.9286c0.4533,0.3561 1.0913,0.3561 1.5446,0l5,-3.9286c0.3016,-0.237 0.4777,-0.5993 0.4777,-0.9829v-8.01929c0,-0.5581 -0.37,-1.04858 -0.9066,-1.2019z" fill="#002B51"/>
</svg>
