<svg width="24" height="24" viewBox="0 0 24 24" fill="none" xmlns="http://www.w3.org/2000/svg">
<path fill-rule="evenodd" clip-rule="evenodd" d="M12.3438,4.12791c-0.2245,-0.06413 -0.4631,-0.06413 -0.6876,0l-4.99995,1.42871c-0.53646,0.15342 -0.90625,0.64415 -0.90625,1.20215v8.01953c0.00012,0.3834 0.17612,0.7455 0.47754,0.9824l4.99996,3.9287c0.4533,0.3562 1.0917,0.3562 1.545,0l5,-3.9287l0.1074,-0.0947c0.2354,-0.2332 0.37,-0.5524 0.3701,-0.8877v-8.01953c0,-0.558 -0.3698,-1.04873 -0.9062,-1.20215zM18.6992,16.9404l-5,3.9287c-0.9972,0.7835 -2.4012,0.7835 -3.3984,0l-5.00002,-3.9287c-0.6634,-0.5213 -1.05066,-1.3184 -1.05078,-2.1621v-8.01953c0,-1.22772 0.81372,-2.30713 1.99414,-2.64453l4.99996,-1.42872c0.4938,-0.14108 1.018,-0.14108 1.5118,0l5,1.42872l0.2168,0.07226c1.062,0.40106 1.7773,1.42129 1.7773,2.57227v8.01953c-0.0001,0.791 -0.3404,1.5413 -0.9297,2.0615zM16.0821,10.2237l-0.0517,0.0566l-4.5,4.5c-0.2746,0.2747 -0.7093,0.2921 -1.0039,0.0518l-0.0567,-0.0518l-2.49996,-2.5l-0.05175,-0.0566c-0.24031,-0.2946 -0.22285,-0.7293 0.05175,-1.0039c0.27461,-0.2746 0.70933,-0.2921 1.00391,-0.0518l0.05664,0.0518l1.96971,1.9697l3.9697,-3.9697l0.0567,-0.05176c0.2946,-0.24031 0.7293,-0.22284 1.0039,0.05176c0.2746,0.2746 0.2921,0.70933 0.0517,1.0039z" fill="#002B51"/>
</svg>
