<svg width="24" height="24" viewBox="0 0 24 24" fill="none" xmlns="http://www.w3.org/2000/svg">
<path fill-rule="evenodd" clip-rule="evenodd" d="M17.7555,4.11436c1.1806,0.33731 1.9945,1.41637 1.9945,2.64419v8.01935c0,0.8438 -0.3874,1.641 -1.051,2.1623l-5,3.9286c-0.9972,0.7835 -2.4008,0.7835 -3.398,0l-5.00001,-3.9286c-0.66355,-0.5213 -1.05099,-1.3185 -1.05099,-2.1623v-8.01935c0,-1.22782 0.81393,-2.30688 1.99451,-2.64419l4.99999,-1.42859c0.4938,-0.14108 1.0172,-0.14108 1.511,0zM6.65659,5.55665c-0.53662,0.15332 -0.90659,0.6438 -0.90659,1.2019v8.01935c0,0.3835 0.17611,0.7459 0.47772,0.9828l4.99998,3.9286c0.4533,0.3562 1.0913,0.3562 1.5446,0l5,-3.9286c0.3016,-0.2369 0.4777,-0.5993 0.4777,-0.9828v-8.01935c0,-0.5581 -0.37,-1.04858 -0.9066,-1.2019l-5,-1.4286c-0.2244,-0.06413 -0.4624,-0.06413 -0.6868,0zM11.5303,14.7802c-0.2929,0.2929 -0.7677,0.2929 -1.0606,0l-2.50003,-2.5c-0.29289,-0.2929 -0.29289,-0.7677 0,-1.0606c0.29289,-0.2929 0.76777,-0.2929 1.06066,0l1.96967,1.9696l3.9697,-3.96963c0.2929,-0.29289 0.7677,-0.29289 1.0606,0c0.2929,0.2929 0.2929,0.76777 0,1.06063z" fill="#002B51"/>
</svg>
