<svg width="24" height="24" viewBox="0 0 24 24" fill="none" xmlns="http://www.w3.org/2000/svg">
<path d="M11.2441,2.68542c0.4938,-0.14104 1.018,-0.14104 1.5118,0l5,1.42872c1.1802,0.3374 1.9939,1.41701 1.9941,2.64453v8.01953c-0.0002,0.8435 -0.3876,1.6409 -1.0508,2.1621l-5,3.9287c-0.9971,0.7833 -2.4013,0.7833 -3.3984,0l-5.00002,-3.9287c-0.66319,-0.5212 -1.05055,-1.3186 -1.05078,-2.1621v-8.01953c0.00018,-1.22752 0.81391,-2.30713 1.99414,-2.64453zM16.0303,9.2196c-0.2929,-0.29266 -0.7677,-0.29266 -1.0606,0l-3.9697,3.9697l-1.96973,-1.9697c-0.29285,-0.2927 -0.76769,-0.2927 -1.06054,0c-0.29268,0.2929 -0.29267,0.7677 0,1.0606l2.49997,2.5c0.2929,0.2926 0.7677,0.2926 1.0606,0l4.5,-4.5c0.2926,-0.29288 0.2926,-0.76774 0,-1.0606z" fill="#002B51"/>
</svg>
