<svg width="24" height="24" viewBox="0 0 24 24" fill="none" xmlns="http://www.w3.org/2000/svg">
<path fill-rule="evenodd" clip-rule="evenodd" d="M11.2445,2.68577c0.4938,-0.14108 1.0172,-0.14108 1.511,0l5,1.42859c1.1806,0.33731 1.9945,1.41637 1.9945,2.64419v8.01935c0,0.8438 -0.3874,1.641 -1.051,2.1623l-5,3.9286c-0.9972,0.7835 -2.4008,0.7835 -3.398,0l-5.00001,-3.9286c-0.66355,-0.5213 -1.05099,-1.3185 -1.05099,-2.1623v-8.01935c0,-1.22782 0.81393,-2.30688 1.99451,-2.64419zM16.0303,10.2802c0.2929,-0.29286 0.2929,-0.76773 0,-1.06063c-0.2929,-0.29289 -0.7677,-0.29289 -1.0606,0l-3.9697,3.96963l-1.96967,-1.9696c-0.29289,-0.2929 -0.76777,-0.2929 -1.06066,0c-0.29289,0.2929 -0.29289,0.7677 0,1.0606l2.50003,2.5c0.2929,0.2929 0.7677,0.2929 1.0606,0z" fill="#002B51"/>
</svg>
