<svg width="24" height="24" viewBox="0 0 24 24" fill="none" xmlns="http://www.w3.org/2000/svg">
<path d="M11.2441,2.68579c0.4938,-0.14108 1.018,-0.14108 1.5118,0l5,1.42871c1.1803,0.33743 1.9941,1.41688 1.9941,2.64453v8.01957c-0.0002,0.8435 -0.3875,1.6409 -1.0508,2.1621l-5,3.9287c-0.9971,0.7833 -2.4013,0.7833 -3.3984,0l-5.00002,-3.9287c-0.66329,-0.5212 -1.05056,-1.3186 -1.05078,-2.1621v-8.01957c0.00003,-1.22765 0.81379,-2.3071 1.99414,-2.64453zM12.3438,4.12817c-0.2245,-0.06412 -0.4631,-0.06412 -0.6876,0l-4.99995,1.42871c-0.53639,0.15345 -0.90622,0.64422 -0.90625,1.20215v8.01957c0.00022,0.3832 0.17623,0.7456 0.47754,0.9824l4.99996,3.9287c0.4532,0.356 1.0918,0.356 1.545,0l5,-3.9287c0.3013,-0.2368 0.4773,-0.5992 0.4775,-0.9824v-8.01957c0,-0.55793 -0.3699,-1.0487 -0.9062,-1.20215zM14.9697,9.21997c0.2929,-0.29289 0.7677,-0.29289 1.0606,0c0.2927,0.29291 0.2928,0.76772 0,1.06053l-4.5,4.5c-0.2929,0.2927 -0.7677,0.2927 -1.0606,0l-2.49997,-2.5c-0.29285,-0.2928 -0.29275,-0.7676 0,-1.0605c0.29289,-0.2929 0.76765,-0.2929 1.06054,0l1.96973,1.9697z" fill="#002B51"/>
</svg>
