<svg width="24" height="24" viewBox="0 0 24 24" fill="none" xmlns="http://www.w3.org/2000/svg">
<path d="M11.2441,2.68546c0.4938,-0.14108 1.018,-0.14108 1.5118,0l5,1.42871l0.2168,0.07227c1.062,0.40105 1.7773,1.4213 1.7773,2.57226v8.0195c-0.0001,0.7911 -0.3404,1.5414 -0.9297,2.0616l-0.1211,0.1005l-5,3.9288c-0.9972,0.7835 -2.4012,0.7835 -3.3984,0l-5.00002,-3.9288c-0.66339,-0.5212 -1.05066,-1.3184 -1.05078,-2.1621v-8.0195c0.00002,-1.2277 0.81374,-2.30713 1.99414,-2.64453zM16.0303,9.21964c-0.2746,-0.27448 -0.7094,-0.29203 -1.0039,-0.05176l-0.0567,0.05176l-3.9697,3.96976l-1.96973,-1.9698l-0.05664,-0.0517c-0.29457,-0.2402 -0.72934,-0.2228 -1.0039,0.0517c-0.27456,0.2746 -0.29195,0.7094 -0.05176,1.0039l0.05176,0.0567l2.49997,2.5l0.0567,0.0517c0.2945,0.2404 0.7293,0.2229 1.0039,-0.0517l4.5,-4.5l0.0517,-0.0567c0.2403,-0.29453 0.2229,-0.72927 -0.0517,-1.00386z" fill="#002B51"/>
</svg>
