<svg width="24" height="24" viewBox="0 0 24 24" fill="none" xmlns="http://www.w3.org/2000/svg">
<path d="M11.2441,2.68546c0.4938,-0.14108 1.018,-0.14108 1.5118,0l5,1.42871l0.2168,0.07227c1.062,0.40105 1.7773,1.4213 1.7773,2.57226v8.0195c-0.0001,0.7911 -0.3404,1.5414 -0.9297,2.0616l-0.1211,0.1005l-5,3.9288c-0.9972,0.7835 -2.4012,0.7835 -3.3984,0l-5.00002,-3.9288c-0.66339,-0.5212 -1.05066,-1.3184 -1.05078,-2.1621v-8.0195c0.00002,-1.2277 0.81374,-2.30713 1.99414,-2.64453zM12.3438,4.12784c-0.2245,-0.06412 -0.4631,-0.06412 -0.6876,0l-4.99995,1.42871c-0.53645,0.15342 -0.90623,0.64417 -0.90625,1.20215v8.0195c0.00012,0.3834 0.17614,0.7456 0.47754,0.9825l4.99996,3.9287c0.4533,0.3561 1.0917,0.3561 1.545,0l5,-3.9287l0.1074,-0.0948c0.2354,-0.2332 0.37,-0.5524 0.3701,-0.8877v-8.0195c0,-0.55798 -0.3698,-1.04873 -0.9062,-1.20215z" fill="#002B51"/>
</svg>
