<svg width="24" height="24" viewBox="0 0 24 24" fill="none" xmlns="http://www.w3.org/2000/svg">
<path d="M11.2441,2.68579c0.4938,-0.14108 1.018,-0.14108 1.5118,0l5,1.42871c1.1803,0.33743 1.9941,1.41684 1.9941,2.64453v8.01957c-0.0002,0.8436 -0.3874,1.6409 -1.0508,2.1621l-5,3.9287c-0.9971,0.7833 -2.4013,0.7833 -3.3984,0l-5.00002,-3.9287c-0.66333,-0.5212 -1.05058,-1.3185 -1.05078,-2.1621v-8.01957c0,-1.22769 0.81376,-2.3071 1.99414,-2.64453zM12.3438,4.12817c-0.2245,-0.06412 -0.4631,-0.06412 -0.6876,0l-4.99995,1.42871c-0.53642,0.15345 -0.90625,0.64418 -0.90625,1.20215v8.01957c0.0002,0.3832 0.1762,0.7455 0.47754,0.9824l4.99996,3.9287c0.4532,0.356 1.0918,0.356 1.545,0l5,-3.9287c0.3013,-0.2369 0.4773,-0.5992 0.4775,-0.9824v-8.01957c0,-0.55797 -0.3698,-1.0487 -0.9062,-1.20215z" fill="#002B51"/>
</svg>
