<svg width="24" height="24" viewBox="0 0 24 24" fill="none" xmlns="http://www.w3.org/2000/svg">
<path fill-rule="evenodd" clip-rule="evenodd" d="M12.7555 2.68577C12.2617 2.54469 11.7383 2.54469 11.2445 2.68577L6.24451 4.11436C5.06393 4.45167 4.25 5.53073 4.25 6.75855V14.7779C4.25 15.6217 4.63744 16.4189 5.30099 16.9402L10.301 20.8688C11.2982 21.6523 12.7018 21.6523 13.699 20.8688L18.699 16.9402C19.3626 16.4189 19.75 15.6217 19.75 14.7779V6.75855C19.75 5.53073 18.9361 4.45167 17.7555 4.11436L12.7555 2.68577ZM11.6566 4.12805C11.881 4.06392 12.119 4.06392 12.3434 4.12805L17.3434 5.55665C17.88 5.70997 18.25 6.20045 18.25 6.75855V14.7779C18.25 15.1614 18.0739 15.5238 17.7723 15.7607L12.7723 19.6893C12.319 20.0455 11.681 20.0455 11.2277 19.6893L6.22772 15.7607C5.92611 15.5238 5.75 15.1614 5.75 14.7779V6.75855C5.75 6.20045 6.11997 5.70997 6.65659 5.55665L11.6566 4.12805ZM16.0303 10.2802C16.3232 9.98734 16.3232 9.51247 16.0303 9.21957C15.7374 8.92668 15.2626 8.92668 14.9697 9.21957L11 13.1892L9.03033 11.2196C8.73744 10.9267 8.26256 10.9267 7.96967 11.2196C7.67678 11.5125 7.67678 11.9873 7.96967 12.2802L10.4697 14.7802C10.7626 15.0731 11.2374 15.0731 11.5303 14.7802L16.0303 10.2802Z" fill="#002B51"/>
</svg>
