<svg width="24" height="24" viewBox="0 0 24 24" fill="none" xmlns="http://www.w3.org/2000/svg">
<path fill-rule="evenodd" clip-rule="evenodd" d="M12.7555 2.68583C12.2617 2.54475 11.7383 2.54475 11.2445 2.68583L6.24451 4.11442C5.06393 4.45173 4.25 5.53079 4.25 6.75861V14.7779C4.25 15.6218 4.63744 16.4189 5.30099 16.9403L10.301 20.8689C11.2982 21.6524 12.7018 21.6524 13.699 20.8689L18.699 16.9403C19.3626 16.4189 19.75 15.6218 19.75 14.7779V6.75861C19.75 5.53079 18.9361 4.45173 17.7555 4.11442L12.7555 2.68583Z" fill="#002B51"/>
<path fill-rule="evenodd" clip-rule="evenodd" d="M16.0303 9.21961C16.3232 9.5125 16.3232 9.98738 16.0303 10.2803L11.5303 14.7803C11.2374 15.0732 10.7626 15.0732 10.4697 14.7803L7.96967 12.2803C7.67678 11.9874 7.67678 11.5125 7.96967 11.2196C8.26256 10.9267 8.73744 10.9267 9.03033 11.2196L11 13.1893L14.9697 9.21961C15.2626 8.92672 15.7374 8.92672 16.0303 9.21961Z" fill="white"/>
</svg>
