<svg width="24" height="24" viewBox="0 0 24 24" fill="none" xmlns="http://www.w3.org/2000/svg">
<path fill-rule="evenodd" clip-rule="evenodd" d="M14.3799,2.91425c0.5621,-0.32114 1.2685,-0.15839 1.6367,0.35742l0.0684,0.10742l3.64,6.37093h2.275c0.6904,0 1.25,0.55968 1.25,1.24998c0,0.6904 -0.5596,1.25 -1.25,1.25h-0.3809l-0.6787,6.1094c-0.183,1.6457 -1.5746,2.8906 -3.2304,2.8906h-11.41996c-1.65587,0 -3.0474,-1.2449 -3.23047,-2.8906l-0.67871,-6.1094h-0.38086c-0.69036,0 -1.25,-0.5596 -1.25,-1.25c0,-0.6903 0.55964,-1.24998 1.25,-1.24998h2.2748l3.64025,-6.37043c0.34254,-0.59932 1.10571,-0.80734 1.70507,-0.46485c0.59928,0.34254 0.80738,1.10572 0.46488,1.70508l-2.93158,5.1302h9.69308l-2.9315,-5.13069l-0.0586,-0.11426c-0.2569,-0.57894 -0.0383,-1.26975 0.5235,-1.59082zM19.0172,12.25c-0.011,0.0002 -0.0219,0.0002 -0.0328,0h-2.8658l-0.2222,2.0001h2.9848l0.2223,-2.0001zM8.60362,18.75l-0.22222,-1.9999h-2.98466l0.14818,1.3329c0.0423,0.3797 0.36305,0.667 0.74512,0.667zM11.1186,18.75h1.7628l0.2222,-1.9999h-2.2072zM10.6186,14.2501h2.7628l0.2222,-2.0001h-3.2072zM7.8814,12.25h-2.98492l0.22234,2.0001h2.9848zM17.71,18.75c0.382,0 0.7028,-0.2873 0.7451,-0.667l0.1482,-1.3329h-2.9847l-0.2222,1.9999z" fill="#002B51"/>
</svg>
