<svg width="24" height="24" viewBox="0 0 24 24" fill="none" xmlns="http://www.w3.org/2000/svg">
<path d="M12,2.25c2.071,0.00003 3.75,1.67895 3.75,3.75v0.25h2.3193c0.9178,0.00026 1.6796,0.70954 1.7452,1.625l0.7802,10.9287c0.1137,1.5919 -1.1472,2.9463 -2.7431,2.9463h-11.70316c-1.59594,0 -2.85687,-1.3544 -2.74317,-2.9463l0.78028,-10.9287c0.06555,-0.91548 0.82731,-1.62477 1.74511,-1.625h2.31934v-0.25c0,-2.07107 1.67893,-3.75 3.75,-3.75zM8.25,10c0,0.4142 0.33579,0.75 0.75,0.75c0.41417,0 0.75,-0.3358 0.75,-0.75v-2.25h-1.5zM14.25,10c0,0.4142 0.3358,0.75 0.75,0.75c0.4142,0 0.75,-0.3358 0.75,-0.75v-2.25h-1.5zM12,3.75c-1.2426,0 -2.25,1.00736 -2.25,2.25v0.25h4.5v-0.25c0,-1.24262 -1.0074,-2.24997 -2.25,-2.25z" fill="#002B51"/>
</svg>
