<svg width="24" height="24" viewBox="0 0 24 24" fill="none" xmlns="http://www.w3.org/2000/svg">
<path fill-rule="evenodd" clip-rule="evenodd" d="M2 2.25C1.58579 2.25 1.25 2.58579 1.25 3C1.25 3.41421 1.58579 3.75 2 3.75H3.48308C4.04363 3.75 4.53564 4.12317 4.68678 4.66296L7.68093 15.3563L6.92796 16.4105C6.63806 16.3066 6.32564 16.25 6 16.25C4.48122 16.25 3.25 17.4812 3.25 19C3.25 20.5188 4.48122 21.75 6 21.75C7.25878 21.75 8.32002 20.9043 8.64648 19.75H14.3535C14.68 20.9043 15.7412 21.75 17 21.75C18.5188 21.75 19.75 20.5188 19.75 19C19.75 17.4812 18.5188 16.25 17 16.25C15.7412 16.25 14.68 17.0957 14.3535 18.25H8.64648C8.54545 17.8928 8.37404 17.5651 8.14817 17.2829L8.91153 16.2142L17.6634 15.3807C18.8235 15.2702 19.7879 14.4406 20.0706 13.31L21.7276 6.6819C21.7836 6.45785 21.7333 6.22048 21.5912 6.03844C21.449 5.8564 21.231 5.75 21 5.75H6.54885L6.13123 4.25852C5.79872 3.07097 4.7163 2.25 3.48308 2.25H2ZM15.75 19C15.75 19.6904 16.3096 20.25 17 20.25C17.6904 20.25 18.25 19.6904 18.25 19C18.25 18.3096 17.6904 17.75 17 17.75C16.3096 17.75 15.75 18.3096 15.75 19ZM7.25 19C7.25 18.3096 6.69036 17.75 6 17.75C5.30964 17.75 4.75 18.3096 4.75 19C4.75 19.6904 5.30964 20.25 6 20.25C6.69036 20.25 7.25 19.6904 7.25 19Z" fill="#002B51"/>
</svg>
