<svg width="24" height="24" viewBox="0 0 24 24" fill="none" xmlns="http://www.w3.org/2000/svg">
<path fill-rule="evenodd" clip-rule="evenodd" d="M9.75,7.75v2.25c0,0.4142 -0.33578,0.75 -0.75,0.75c-0.41421,0 -0.75,-0.3358 -0.75,-0.75v-2.25h-2.31932c-0.13095,0.00023 -0.23969,0.10175 -0.24902,0.23242l-0.78027,10.92868c-0.05159,0.7235 0.5217,1.3389 1.24707,1.3389h11.70314c0.7254,0 1.2986,-0.6154 1.2471,-1.3389l-0.7803,-10.92868c-0.0094,-0.13067 -0.1181,-0.23219 -0.249,-0.23242h-2.3194v2.25c0,0.4142 -0.3358,0.75 -0.75,0.75c-0.4142,0 -0.75,-0.3358 -0.75,-0.75v-2.25zM15.75,6.25h2.3194c0.9178,0.00023 1.6795,0.70952 1.7451,1.625l0.7802,10.9287c0.1138,1.5919 -1.1472,2.9463 -2.7431,2.9463h-11.70314c-1.59594,0 -2.85687,-1.3544 -2.74317,-2.9463l0.78028,-10.9287l0.0205,-0.16895c0.14101,-0.83232 0.86412,-1.45583 1.72461,-1.45605h2.31932v-0.25c0,-2.07107 1.67893,-3.75 3.75,-3.75c2.0711,0 3.75,1.67893 3.75,3.75zM14.25,6.25v-0.25c0,-1.24264 -1.0074,-2.25 -2.25,-2.25c-1.2426,0 -2.25,1.00736 -2.25,2.25v0.25z" fill="#002B51"/>
</svg>
