<svg width="24" height="24" viewBox="0 0 24 24" fill="none" xmlns="http://www.w3.org/2000/svg">
<path fill-rule="evenodd" clip-rule="evenodd" d="M14.6279,3.3478c0.3371,-0.19258 0.7605,-0.0944 0.9814,0.21484l0.042,0.06446l3.784,6.6229h2.5647c0.4142,0 0.75,0.3358 0.75,0.75c0,0.4142 -0.3358,0.75 -0.75,0.75h-0.8291l-0.7276,6.5537c-0.1547,1.3927 -1.3321,2.4463 -2.7334,2.4463h-11.41989c-1.40124,0 -2.57866,-1.0536 -2.7334,-2.4463l-0.72754,-6.5537h-0.8291c-0.41421,0 -0.75,-0.3358 -0.75,-0.75c0,-0.4142 0.33579,-0.75 0.75,-0.75h2.56442l3.78422,-6.62241l0.04199,-0.06445c0.22097,-0.30925 0.64431,-0.40742 0.98145,-0.21485c0.33722,0.1927 0.46791,0.60762 0.31347,0.95508l-0.03418,0.06836l-3.359,5.87827h11.41506l-3.3588,-5.87876l-0.0342,-0.06836c-0.1544,-0.34748 -0.0238,-0.76239 0.3135,-0.95508zM19.0226,11.75c-0.0143,0.0004 -0.0286,0.0004 -0.0429,0h-3.3087l-0.3334,3h3.991l0.3335,-3zM9.16229,19.25l-0.33333,-3h-3.99094l0.2098,1.8877c0.07034,0.633 0.60527,1.1123 1.24219,1.1123zM10.671,19.25h2.658l0.3333,-3h-3.3247zM10.171,14.75h3.658l0.3333,-3h-4.32466zM8.32896,11.75h-3.9911l0.33344,3h3.991zM17.7099,19.25c0.6369,0 1.1719,-0.4793 1.2422,-1.1123l0.2098,-1.8877h-3.9909l-0.3334,3z" fill="#002B51"/>
</svg>
