<svg width="24" height="24" viewBox="0 0 24 24" fill="none" xmlns="http://www.w3.org/2000/svg">
<path d="M12.0001,2.25c2.071,0.00004 3.75,1.67896 3.75,3.75v0.25h2.3193c0.9178,0.00026 1.6796,0.70954 1.7451,1.625l0.7803,10.9287c0.1137,1.5919 -1.1472,2.9463 -2.7431,2.9463h-11.70317c-1.59594,0 -2.85687,-1.3544 -2.74317,-2.9463l0.78028,-10.9287c0.06555,-0.91548 0.82731,-1.62477 1.74512,-1.625h2.31933v-0.25c0,-2.07107 1.67893,-3.75 3.75001,-3.75zM5.93076,7.75c-0.13096,0.00023 -0.23969,0.10175 -0.24903,0.23242l-0.78027,10.92868c-0.05158,0.7235 0.5217,1.3389 1.24707,1.3389h11.70317c0.7253,0 1.2986,-0.6154 1.247,-1.3389l-0.7802,-10.92868c-0.0094,-0.13065 -0.1181,-0.23216 -0.2491,-0.23242h-2.3193v2.25c0,0.4142 -0.3358,0.75 -0.75,0.75c-0.4142,0 -0.75,-0.3358 -0.75,-0.75v-2.25h-4.50001v2.25c0,0.4142 -0.33582,0.75 -0.75,0.75c-0.41421,0 -0.75,-0.3358 -0.75,-0.75v-2.25zM12.0001,3.75c-1.2426,0 -2.25001,1.00736 -2.25001,2.25v0.25h4.50001v-0.25c0,-1.24262 -1.0074,-2.24996 -2.25,-2.25z" fill="#002B51"/>
</svg>
