<svg width="24" height="24" viewBox="0 0 24 24" fill="none" xmlns="http://www.w3.org/2000/svg">
<path d="M12.0004,2.25c2.0709,0.0002 3.75,1.67905 3.75,3.75v0.25h2.3193c0.9176,0.00041 1.6796,0.70963 1.7451,1.625l0.7803,10.9287c0.1137,1.5918 -1.1474,2.9461 -2.7432,2.9463h-11.70311c-1.59594,0 -2.85687,-1.3544 -2.74316,-2.9463l0.78027,-10.9287l0.02051,-0.16895c0.14103,-0.83229 0.86413,-1.45583 1.72461,-1.45605h2.31933v-0.25c0,-2.07107 1.67894,-3.75 3.75005,-3.75zM5.93102,7.75c-0.13095,0.00023 -0.23968,0.10176 -0.24902,0.23242l-0.78028,10.92868c-0.05158,0.7235 0.5217,1.3389 1.24707,1.3389h11.70311c0.7252,-0.0002 1.2986,-0.6155 1.2471,-1.3389l-0.7803,-10.92868c-0.0093,-0.13056 -0.1182,-0.23201 -0.249,-0.23242h-2.3193v2.25c0,0.4141 -0.336,0.7498 -0.75,0.75c-0.4143,0 -0.75,-0.3358 -0.75,-0.75v-2.25h-4.50005v2.25c0,0.4141 -0.33595,0.7498 -0.75,0.75c-0.41421,0 -0.75,-0.3358 -0.75,-0.75v-2.25zM12.0004,3.75c-1.2427,0 -2.25005,1.00736 -2.25005,2.25v0.25h4.50005v-0.25c0,-1.24252 -1.0076,-2.2498 -2.25,-2.25z" fill="#002B51"/>
</svg>
