<svg width="24" height="24" viewBox="0 0 24 24" fill="none" xmlns="http://www.w3.org/2000/svg">
<path fill-rule="evenodd" clip-rule="evenodd" d="M15.75,6v0.25h2.3189c0.9181,0 1.6801,0.70953 1.7455,1.62532l0.7807,10.92878c0.1137,1.5919 -1.1471,2.9459 -2.743,2.9459h-11.70413c-1.59594,0 -2.85672,-1.354 -2.74301,-2.9459l0.78062,-10.92878c0.06542,-0.91579 0.82744,-1.62532 1.74555,-1.62532h2.31887v-0.25c0,-2.07107 1.67893,-3.75 3.75,-3.75c2.0711,0 3.75,1.67893 3.75,3.75zM9.75,7.75v2.25c0,0.4142 -0.33579,0.75 -0.75,0.75c-0.41421,0 -0.75,-0.3358 -0.75,-0.75v-2.25h-2.31887c-0.13115,0 -0.24001,0.10136 -0.24936,0.23219l-0.78062,10.92871c-0.05169,0.7236 0.52139,1.3391 1.24682,1.3391h11.70413c0.7254,0 1.2985,-0.6155 1.2468,-1.3391l-0.7806,-10.92871c-0.0094,-0.13083 -0.1182,-0.23219 -0.2494,-0.23219h-2.3189v2.25c0,0.4142 -0.3358,0.75 -0.75,0.75c-0.4142,0 -0.75,-0.3358 -0.75,-0.75v-2.25zM14.25,6.25v-0.25c0,-1.24264 -1.0074,-2.25 -2.25,-2.25c-1.2426,0 -2.25,1.00736 -2.25,2.25v0.25z" fill="#002B51"/>
</svg>
