<svg width="24" height="24" viewBox="0 0 24 24" fill="none" xmlns="http://www.w3.org/2000/svg">
<path fill-rule="evenodd" clip-rule="evenodd" d="M8.25002,6c0,-2.07107 1.67893,-3.75 3.74998,-3.75c2.0711,0 3.75,1.67893 3.75,3.75v0.25h2.3189c0.9181,0 1.6801,0.70953 1.7455,1.62532l0.7807,10.92878c0.1137,1.5919 -1.1471,2.9459 -2.743,2.9459h-11.70413c-1.59594,0 -2.85672,-1.354 -2.74301,-2.9459l0.78062,-10.92878c0.06542,-0.91579 0.82744,-1.62532 1.74555,-1.62532h2.31889zM12,3.75c-1.2426,0 -2.24998,1.00736 -2.24998,2.25v0.25h4.49998v-0.25c0,-1.24264 -1.0073,-2.25 -2.25,-2.25zM8.25,10c0,0.4142 0.33579,0.75 0.75,0.75c0.41421,0 0.75,-0.3358 0.75,-0.75v-2.25h-0.74998h-0.75002zM15.75,7.75h-0.75h-0.75v2.25c0,0.4142 0.3358,0.75 0.75,0.75c0.4142,0 0.75,-0.3358 0.75,-0.75z" fill="#002B51"/>
</svg>
