<svg width="24" height="24" viewBox="0 0 24 24" fill="none" xmlns="http://www.w3.org/2000/svg">
<path fill-rule="evenodd" clip-rule="evenodd" d="M14.2499,10c0,0.4142 0.3358,0.75 0.75,0.75c0.4142,0 0.75,-0.3358 0.75,-0.75v-2.25h-0.75h-0.75zM9.74991,7.75h-0.74998h-0.75002v2.25c0,0.4142 0.33579,0.75 0.75,0.75c0.41421,0 0.75,-0.3358 0.75,-0.75zM14.2499,6.25v-0.25c0,-1.24264 -1.0073,-2.25 -2.25,-2.25c-1.2426,0 -2.24997,1.00736 -2.24997,2.25v0.25zM11.9999,2.25c2.0711,0 3.75,1.67893 3.75,3.75v0.25h2.3194c0.9178,0.00023 1.6795,0.70952 1.7451,1.625l0.7803,10.9287c0.1137,1.5919 -1.1473,2.9463 -2.7432,2.9463h-11.70314c-1.59594,0 -2.85687,-1.3544 -2.74316,-2.9463l0.78027,-10.9287l0.02051,-0.16895c0.14101,-0.83232 0.86412,-1.45583 1.72461,-1.45605h2.31934v-0.25c0,-2.07107 1.67893,-3.75 3.74997,-3.75z" fill="#002B51"/>
</svg>
