<svg width="24" height="24" viewBox="0 0 24 24" fill="none" xmlns="http://www.w3.org/2000/svg">
<path d="M3.4834,2.25c1.23308,0.00014 2.31498,0.82135 2.64746,2.00879l0.41797,1.49121h14.45117c0.2308,0 0.4487,0.10628 0.5908,0.28809c0.1421,0.18197 0.1927,0.41956 0.1367,0.64355l-1.6572,6.62796c-0.2826,1.1305 -1.2472,1.9608 -2.4072,2.0713l-8.75294,0.833l-0.76368,1.0693c0.22596,0.2821 0.39593,0.6096 0.49707,0.9668h5.71285c0.3268,-1.1539 1.3851,-2 2.6436,-2c1.5188,0 2.75,1.2312 2.75,2.75c0,1.5188 -1.2312,2.75 -2.75,2.75c-1.2585,0 -2.3168,-0.8461 -2.6436,-2h-5.71285c-0.32671,1.1539 -1.38505,2 -2.64355,2c-1.51878,0 -2.75,-1.2312 -2.75,-2.75c0,-1.5188 1.23122,-2.75 2.75,-2.75c0.32522,0 0.63619,0.0594 0.92578,0.1631l0.75488,-1.0567l-2.99414,-10.69331c-0.15111,-0.53969 -0.6427,-0.91295 -1.20312,-0.91309h-1.4834c-0.41421,0 -0.75,-0.33579 -0.75,-0.75c0,-0.41421 0.33579,-0.75 0.75,-0.75zM6,17.75c-0.69036,0 -1.25,0.5596 -1.25,1.25c0,0.6904 0.55964,1.25 1.25,1.25c0.69036,0 1.25,-0.5596 1.25,-1.25c0,-0.6904 -0.55964,-1.25 -1.25,-1.25zM17,17.75c-0.6904,0 -1.25,0.5596 -1.25,1.25c0,0.6904 0.5596,1.25 1.25,1.25c0.6904,0 1.25,-0.5596 1.25,-1.25c0,-0.6904 -0.5596,-1.25 -1.25,-1.25z" fill="#002B51"/>
</svg>
