<svg width="24" height="24" viewBox="0 0 24 24" fill="none" xmlns="http://www.w3.org/2000/svg">
<path fill-rule="evenodd" clip-rule="evenodd" d="M6.54883,5.75h14.45117c0.2308,0 0.4487,0.10628 0.5908,0.28809c0.1421,0.18197 0.1927,0.41956 0.1367,0.64355l-1.6572,6.62796c-0.2826,1.1305 -1.2472,1.9608 -2.4072,2.0713l-8.75294,0.833l-0.76231,1.0686c0.22603,0.2823 0.39755,0.6101 0.49863,0.9675h5.70702c0.3265,-1.1543 1.3877,-2 2.6465,-2c1.5188,0 2.75,1.2312 2.75,2.75c0,1.5188 -1.2312,2.75 -2.75,2.75c-1.2588,0 -2.32,-0.8457 -2.6465,-2h-5.70702c-0.32646,1.1543 -1.3877,2 -2.64648,2c-1.51878,0 -2.75,-1.2312 -2.75,-2.75c0,-1.5188 1.23122,-2.75 2.75,-2.75c0.32567,0 0.63812,0.0566 0.92805,0.1605l0.75261,-1.0541l-2.99414,-10.69331c-0.15111,-0.53969 -0.6427,-0.91295 -1.20312,-0.91309h-1.4834c-0.41421,0 -0.75,-0.33579 -0.75,-0.75c0,-0.41421 0.33579,-0.75 0.75,-0.75h1.4834c1.23308,0.00014 2.31498,0.82135 2.64746,2.00879zM7.25,19c0,-0.6904 -0.55964,-1.25 -1.25,-1.25c-0.69036,0 -1.25,0.5596 -1.25,1.25c0,0.6904 0.55964,1.25 1.25,1.25c0.69036,0 1.25,-0.5596 1.25,-1.25zM15.75,19c0,0.6904 0.5596,1.25 1.25,1.25c0.6904,0 1.25,-0.5596 1.25,-1.25c0,-0.6904 -0.5596,-1.25 -1.25,-1.25c-0.6904,0 -1.25,0.5596 -1.25,1.25z" fill="#002B51"/>
</svg>
