<svg width="24" height="24" viewBox="0 0 24 24" fill="none" xmlns="http://www.w3.org/2000/svg">
<path fill-rule="evenodd" clip-rule="evenodd" d="M12 2.25C9.92893 2.25 8.25 3.92893 8.25 6V6.25H5.93113C5.01302 6.25 4.251 6.95953 4.18558 7.87532L3.40496 18.8041C3.29125 20.396 4.55203 21.75 6.14797 21.75H17.8521C19.448 21.75 20.7088 20.396 20.5951 18.8041L19.8144 7.87532C19.749 6.95953 18.987 6.25 18.0689 6.25H15.75V6C15.75 3.92893 14.0711 2.25 12 2.25ZM14.25 7.75V10C14.25 10.4142 14.5858 10.75 15 10.75C15.4142 10.75 15.75 10.4142 15.75 10V7.75H18.0689C18.2001 7.75 18.3089 7.85136 18.3183 7.98219L19.0989 18.9109C19.1506 19.6345 18.5775 20.25 17.8521 20.25H6.14797C5.42254 20.25 4.84946 19.6345 4.90115 18.9109L5.68177 7.98219C5.69112 7.85136 5.79998 7.75 5.93113 7.75H8.25V10C8.25 10.4142 8.58579 10.75 9 10.75C9.41421 10.75 9.75 10.4142 9.75 10V7.75H14.25ZM14.25 6.25V6C14.25 4.75736 13.2426 3.75 12 3.75C10.7574 3.75 9.75 4.75736 9.75 6V6.25H14.25Z" fill="#002B51"/>
</svg>
