<svg width="24" height="24" viewBox="0 0 24 24" fill="none" xmlns="http://www.w3.org/2000/svg">
<path fill-rule="evenodd" clip-rule="evenodd" d="M14.6279,3.34795c0.3597,-0.20549 0.8178,-0.08051 1.0233,0.27914l3.7839,6.62291h1.0649h1.5c0.4142,0 0.75,0.3358 0.75,0.75c0,0.4142 -0.3358,0.75 -0.75,0.75h-0.8287l-0.7282,6.5537c-0.1548,1.3926 -1.332,2.4463 -2.7332,2.4463h-11.41985c-1.40126,0 -2.57843,-1.0537 -2.73318,-2.4463l-0.72818,-6.5537h-0.82872c-0.41421,0 -0.75,-0.3358 -0.75,-0.75c0,-0.4142 0.33579,-0.75 0.75,-0.75h1.5h1.06458l3.78424,-6.62246c0.20551,-0.35964 0.66365,-0.48459 1.02329,-0.27908c0.35964,0.20551 0.48459,0.66365 0.27908,1.02329l-3.35898,5.87825h11.41542l-3.3588,-5.87878c-0.2055,-0.35965 -0.0805,-0.81779 0.2791,-1.02327zM19.0216,11.75c-0.014,0.0004 -0.0279,0.0004 -0.0419,0h-3.3084l-0.3334,3h3.9908l0.3333,-3zM8.66202,14.75l-0.33334,-3h-3.99076l0.33334,3zM8.82869,16.25h-3.99077l0.20978,1.888c0.07034,0.633 0.60542,1.112 1.24235,1.112h2.87197zM13.3287,19.25l0.3333,-3h-3.3241l0.3333,3zM13.8287,14.75l0.3333,-3h-4.32409l0.33339,3zM15.1713,16.25l-0.3334,3h2.872c0.6369,0 1.172,-0.479 1.2423,-1.112l0.2098,-1.888z" fill="#002B51"/>
</svg>
