<svg width="24" height="24" viewBox="0 0 24 24" fill="none" xmlns="http://www.w3.org/2000/svg">
<path d="M12.0003,2.25c2.0709,0.00019 3.75,1.67905 3.75,3.75v0.25h2.3193c0.9177,0.00041 1.6796,0.70963 1.7451,1.625l0.7803,10.9287c0.1137,1.5918 -1.1474,2.9461 -2.7431,2.9463h-11.70317c-1.59594,0 -2.85687,-1.3544 -2.74316,-2.9463l0.78027,-10.9287l0.02051,-0.16895c0.14103,-0.83229 0.86413,-1.45583 1.72461,-1.45605h2.31933v-0.25c0,-2.07107 1.67894,-3.75 3.75001,-3.75zM8.25029,10c0,0.4142 0.3358,0.75 0.75,0.75c0.41404,-0.0002 0.75,-0.3359 0.75,-0.75v-2.25h-1.5zM14.2503,10c0,0.4142 0.3358,0.75 0.75,0.75c0.414,-0.0002 0.75,-0.3359 0.75,-0.75v-2.25h-1.5zM12.0003,3.75c-1.2426,0 -2.25001,1.00736 -2.25001,2.25v0.25h4.50001v-0.25c0,-1.24252 -1.0075,-2.24981 -2.25,-2.25z" fill="#002B51"/>
</svg>
