<svg width="24" height="24" viewBox="0 0 24 24" fill="none" xmlns="http://www.w3.org/2000/svg">
<path fill-rule="evenodd" clip-rule="evenodd" d="M3.48308,2.25c1.23322,0 2.31564,0.82097 2.64815,2.00852l0.41762,1.49148h14.45115c0.231,0 0.449,0.1064 0.5912,0.28844c0.1421,0.18204 0.1924,0.41941 0.1364,0.64346l-1.657,6.6281c-0.2827,1.1306 -1.2471,1.9602 -2.4072,2.0707l-8.75187,0.8335l-0.76336,1.0687c0.22587,0.2822 0.39728,0.6099 0.49831,0.9671h5.70702c0.3265,-1.1543 1.3877,-2 2.6465,-2c1.5188,0 2.75,1.2312 2.75,2.75c0,1.5188 -1.2312,2.75 -2.75,2.75c-1.2588,0 -2.32,-0.8457 -2.6465,-2h-5.70702c-0.32646,1.1543 -1.3877,2 -2.64648,2c-1.51878,0 -2.75,-1.2312 -2.75,-2.75c0,-1.5188 1.23122,-2.75 2.75,-2.75c0.32564,0 0.63806,0.0566 0.92796,0.1605l0.75297,-1.0542l-2.99415,-10.69334c-0.15114,-0.53979 -0.64315,-0.91296 -1.2037,-0.91296h-1.48308c-0.41421,0 -0.75,-0.33579 -0.75,-0.75c0,-0.41421 0.33579,-0.75 0.75,-0.75zM15.75,19c0,0.6904 0.5596,1.25 1.25,1.25c0.6904,0 1.25,-0.5596 1.25,-1.25c0,-0.6904 -0.5596,-1.25 -1.25,-1.25c-0.6904,0 -1.25,0.5596 -1.25,1.25zM7.25,19c0,-0.6904 -0.55964,-1.25 -1.25,-1.25c-0.69036,0 -1.25,0.5596 -1.25,1.25c0,0.6904 0.55964,1.25 1.25,1.25c0.69036,0 1.25,-0.5596 1.25,-1.25z" fill="#002B51"/>
</svg>
