<svg width="24" height="24" viewBox="0 0 24 24" fill="none" xmlns="http://www.w3.org/2000/svg">
<path d="M14.3799,2.91387c0.562,-0.32105 1.2685,-0.15825 1.6367,0.35742l0.0684,0.10742l3.6396,6.37109h2.2754c0.6903,0 1.25,0.5597 1.25,1.25c0,0.6904 -0.5596,1.25 -1.25,1.25h-0.3809l-0.6787,6.1094c-0.183,1.6457 -1.5746,2.8906 -3.2304,2.8906h-11.41996c-1.65587,0 -3.0474,-1.2449 -3.23047,-2.8906l-0.67871,-6.1094h-0.38086c-0.69036,0 -1.25,-0.5596 -1.25,-1.25c0.00003,-0.6903 0.55966,-1.25 1.25,-1.25h2.27539l3.63965,-6.37011c0.34254,-0.59932 1.10572,-0.80734 1.70508,-0.46485c0.59918,0.34258 0.80728,1.10576 0.46488,1.70508l-2.93168,5.12988h9.69338l-2.9317,-5.13085l-0.0586,-0.11426c-0.2568,-0.57891 -0.0382,-1.26978 0.5235,-1.59082zM5.54492,18.0828c0.0423,0.3797 0.36305,0.667 0.74512,0.667h2.31348l-0.22168,-2h-2.98536zM11.1182,18.7498h1.7636l0.2217,-2h-2.207zM15.3965,18.7498h2.3135c0.382,0 0.7028,-0.2873 0.7451,-0.667l0.1484,-1.333h-2.9853zM5.11914,14.2498h2.98438l-0.22168,-2h-2.98536zM10.6182,14.2498h2.7636l0.2217,-2h-3.207zM15.8965,14.2498h2.9844l0.2226,-2h-2.9853z" fill="#002B51"/>
</svg>
