<svg width="24" height="24" viewBox="0 0 24 24" fill="none" xmlns="http://www.w3.org/2000/svg">
<path d="M14.6279,3.34775c0.3371,-0.19252 0.7605,-0.09432 0.9814,0.21485l0.042,0.06445l3.7842,6.62305h2.5645c0.4142,0 0.75,0.3358 0.75,0.75c0,0.4142 -0.3358,0.75 -0.75,0.75h-0.8291l-0.7276,6.5537c-0.1547,1.3927 -1.3321,2.4463 -2.7334,2.4463h-11.41989c-1.40123,0 -2.57864,-1.0536 -2.7334,-2.4463l-0.72754,-6.5537h-0.8291c-0.4142,0 -0.74998,-0.3358 -0.75,-0.75c0,-0.4142 0.33579,-0.75 0.75,-0.75h2.56445l3.78418,-6.62207l0.04199,-0.06446c0.22097,-0.30925 0.64432,-0.40742 0.98145,-0.21484c0.33712,0.19274 0.46789,0.60767 0.31348,0.95508l-0.03418,0.06836l-3.3584,5.87793h11.41506l-3.3594,-5.87891l-0.0342,-0.06836c-0.1543,-0.34746 -0.0237,-0.76241 0.3135,-0.95508zM5.04782,18.1378c0.07035,0.633 0.60528,1.1123 1.24219,1.1123h2.87207l-0.33301,-3h-3.99121zM10.6709,19.2501h2.6582l0.333,-3h-3.3242zM14.8379,19.2501h2.872c0.6369,0 1.1719,-0.4793 1.2422,-1.1123l0.21,-1.8877h-3.9912zM4.67087,14.7501h3.99121l-0.33301,-3h-3.99121zM10.1709,14.7501h3.6582l0.333,-3h-4.32424zM15.3379,14.7501h3.9912l0.333,-3h-3.9912z" fill="#002B51"/>
</svg>
