<svg width="24" height="24" viewBox="0 0 24 24" fill="none" xmlns="http://www.w3.org/2000/svg">
<path fill-rule="evenodd" clip-rule="evenodd" d="M6.5,5.75c-0.13807,0 -0.25,0.11193 -0.25,0.25v12c0,0.1381 0.11193,0.25 0.25,0.25h2c0.13807,0 0.25,-0.1119 0.25,-0.25v-12c0,-0.13807 -0.11193,-0.25 -0.25,-0.25zM6.5,19.75c-0.9665,0 -1.75,-0.7835 -1.75,-1.75v-12c0,-0.9665 0.7835,-1.75 1.75,-1.75h2c0.9665,0 1.75,0.7835 1.75,1.75v5.262c0.0265,-0.0361 0.0551,-0.0711 0.0859,-0.1047l0.1006,-0.0977l6.7403,-5.89841l0.1562,-0.11816c0.7512,-0.48133 1.7697,-0.01886 1.9024,0.86328l0.0146,0.19531v11.79688l-0.0146,0.1953c-0.1422,0.9452 -1.301,1.408 -2.0586,0.7451l-6.7403,-5.8984c-0.071,-0.0622 -0.1332,-0.1303 -0.1865,-0.2031v5.2626c0,0.9665 -0.7835,1.75 -1.75,1.75zM11.6396,12.0001l6.1104,5.3466v-10.6943z" fill="#002B51"/>
</svg>
