<svg width="24" height="24" viewBox="0 0 24 24" fill="none" xmlns="http://www.w3.org/2000/svg">
<path fill-rule="evenodd" clip-rule="evenodd" d="M8.5,4.25c0.9665,0 1.75,0.7835 1.75,1.75v5.2619c0.0532,-0.0725 0.1153,-0.1405 0.1862,-0.2026l6.7407,-5.89808c0.8082,-0.7072 2.0731,-0.13322 2.0731,0.94073v11.79625c0,1.0739 -1.2649,1.6479 -2.0731,0.9407l-6.7407,-5.8981c-0.0709,-0.062 -0.133,-0.1301 -0.1862,-0.2026v5.2618c0,0.9665 -0.7835,1.75 -1.75,1.75h-2c-0.9665,0 -1.75,-0.7835 -1.75,-1.75v-12c0,-0.9665 0.7835,-1.75 1.75,-1.75z" fill="#002B51"/>
</svg>
