<svg width="24" height="24" viewBox="0 0 24 24" fill="none" xmlns="http://www.w3.org/2000/svg">
<path fill-rule="evenodd" clip-rule="evenodd" d="M15.5 4.25C14.5335 4.25 13.75 5.0335 13.75 6V11.2619C13.6968 11.1894 13.6347 11.1214 13.5638 11.0593L6.82313 5.16122C6.0149 4.45402 4.75 5.028 4.75 6.10195V17.8982C4.75 18.9721 6.0149 19.5461 6.82313 18.8389L13.5638 12.9408C13.6347 12.8788 13.6968 12.8107 13.75 12.7382V18C13.75 18.9665 14.5335 19.75 15.5 19.75H17.5C18.4665 19.75 19.25 18.9665 19.25 18V6C19.25 5.0335 18.4665 4.25 17.5 4.25H15.5Z" fill="#002B51"/>
</svg>
