<svg width="24" height="24" viewBox="0 0 24 24" fill="none" xmlns="http://www.w3.org/2000/svg">
<path d="M8.5,4.25c0.9665,0 1.75,0.7835 1.75,1.75v5.2617c0.0264,-0.036 0.0552,-0.0709 0.0859,-0.1045l0.1006,-0.0976l6.7403,-5.89847l0.1562,-0.11816c0.7512,-0.48129 1.7696,-0.01881 1.9024,0.86328l0.0146,0.19531v11.79684l-0.0146,0.1954c-0.1422,0.9451 -1.301,1.408 -2.0586,0.7451l-6.7403,-5.8985c-0.071,-0.0621 -0.1332,-0.1304 -0.1865,-0.2031v5.2627c0,0.9665 -0.7835,1.75 -1.75,1.75h-2c-0.9665,0 -1.75,-0.7835 -1.75,-1.75v-12c0,-0.9665 0.7835,-1.75 1.75,-1.75zM6.5,5.75c-0.13807,0 -0.25,0.11193 -0.25,0.25v12c0,0.1381 0.11193,0.25 0.25,0.25h2c0.13807,0 0.25,-0.1119 0.25,-0.25v-12c0,-0.13807 -0.11193,-0.25 -0.25,-0.25zM11.6396,12l6.1104,5.3467v-10.69436z" fill="#002B51"/>
</svg>
