<svg width="24" height="24" viewBox="0 0 24 24" fill="none" xmlns="http://www.w3.org/2000/svg">
<path fill-rule="evenodd" clip-rule="evenodd" d="M17.5,4.25c0.9665,0 1.75,0.7835 1.75,1.75v12c0,0.9665 -0.7835,1.75 -1.75,1.75h-2c-0.9665,0 -1.75,-0.7835 -1.75,-1.75v-5.2618c-0.0532,0.0725 -0.1153,0.1406 -0.1862,0.2026l-6.74067,5.8981c-0.80823,0.7072 -2.07313,0.1332 -2.07313,-0.9407v-11.79625c0,-1.07395 1.2649,-1.64793 2.07313,-0.94073l6.74067,5.89808c0.0709,0.0621 0.133,0.1301 0.1862,0.2026v-5.2619c0,-0.9665 0.7835,-1.75 1.75,-1.75zM15.25,18c0,0.1381 0.1119,0.25 0.25,0.25h2c0.1381,0 0.25,-0.1119 0.25,-0.25v-12c0,-0.13807 -0.1119,-0.25 -0.25,-0.25h-2c-0.1381,0 -0.25,0.11193 -0.25,0.25zM6.25,6.65289v10.69431l6.1111,-5.3471z" fill="#002B51"/>
</svg>
