<svg width="24" height="24" viewBox="0 0 24 24" fill="none" xmlns="http://www.w3.org/2000/svg">
<path fill-rule="evenodd" clip-rule="evenodd" d="M15.5,5.75c-0.1381,0 -0.25,0.11193 -0.25,0.25v12c0,0.1381 0.1119,0.25 0.25,0.25h2c0.1381,0 0.25,-0.1119 0.25,-0.25v-12c0,-0.13807 -0.1119,-0.25 -0.25,-0.25zM15.5,19.75c-0.9665,0 -1.75,-0.7835 -1.75,-1.75v-5.2626c-0.0533,0.0728 -0.1155,0.1409 -0.1865,0.2031l-6.74026,5.8984c-0.75762,0.6629 -1.91643,0.2001 -2.05859,-0.7451l-0.01465,-0.1953v-11.79688l0.01465,-0.19531c0.13268,-0.88214 1.15117,-1.34461 1.90234,-0.86328l0.15625,0.11816l6.74026,5.89841l0.1006,0.0977c0.0308,0.0336 0.0594,0.0686 0.0859,0.1047v-5.262c0,-0.9665 0.7835,-1.75 1.75,-1.75h2c0.9665,0 1.75,0.7835 1.75,1.75v12c0,0.9665 -0.7835,1.75 -1.75,1.75zM6.25,6.6524v10.6943l6.1104,-5.3466z" fill="#002B51"/>
</svg>
