<svg width="24" height="24" viewBox="0 0 24 24" fill="none" xmlns="http://www.w3.org/2000/svg">
<path d="M17.5,4.25c0.9665,0 1.75,0.7835 1.75,1.75v12c0,0.9665 -0.7835,1.75 -1.75,1.75h-2c-0.9665,0 -1.75,-0.7835 -1.75,-1.75v-5.2637c-0.0534,0.073 -0.1153,0.1418 -0.1865,0.2041l-6.74026,5.8985c-0.75762,0.6629 -1.91643,0.2 -2.05859,-0.7451l-0.01465,-0.1954v-11.79684l0.01465,-0.19531c0.13272,-0.88209 1.15119,-1.34457 1.90234,-0.86328l0.15625,0.11816l6.74026,5.89847l0.1006,0.0976c0.0307,0.0336 0.0595,0.0685 0.0859,0.1045v-5.2617c0,-0.9665 0.7835,-1.75 1.75,-1.75z" fill="#002B51"/>
</svg>
