<svg width="24" height="24" viewBox="0 0 24 24" fill="none" xmlns="http://www.w3.org/2000/svg">
<path fill-rule="evenodd" clip-rule="evenodd" d="M3,5.75c0,-0.41421 0.33579,-0.75 0.75,-0.75h7.6035c0.3265,-1.15425 1.3877,-2 2.6465,-2c1.2588,0 2.32,0.84575 2.6465,2h3.6035c0.4142,0 0.75,0.33579 0.75,0.75c0,0.41421 -0.3358,0.75 -0.75,0.75h-3.6035c-0.3265,1.15425 -1.3877,2 -2.6465,2c-1.2588,0 -2.32,-0.84575 -2.6465,-2h-7.6035c-0.41421,0 -0.75,-0.33579 -0.75,-0.75zM3,12c0,-0.4142 0.33579,-0.75 0.75,-0.75h1.35352c0.32646,-1.1543 1.3877,-2 2.64648,-2c1.25878,0 2.32,0.8457 2.6465,2h9.8535c0.4142,0 0.75,0.3358 0.75,0.75c0,0.4142 -0.3358,0.75 -0.75,0.75h-9.8535c-0.3265,1.1543 -1.38772,2 -2.6465,2c-1.25878,0 -2.32002,-0.8457 -2.64648,-2h-1.35352c-0.41421,0 -0.75,-0.3358 -0.75,-0.75zM3,18.25c0,-0.4142 0.33579,-0.75 0.75,-0.75h10.6035c0.3265,-1.1543 1.3877,-2 2.6465,-2c1.2588,0 2.32,0.8457 2.6465,2h0.6035c0.4142,0 0.75,0.3358 0.75,0.75c0,0.4142 -0.3358,0.75 -0.75,0.75h-0.6035c-0.3265,1.1543 -1.3877,2 -2.6465,2c-1.2588,0 -2.32,-0.8457 -2.6465,-2h-10.6035c-0.41421,0 -0.75,-0.3358 -0.75,-0.75z" fill="#002B51"/>
</svg>
