<svg width="24" height="24" viewBox="0 0 24 24" fill="none" xmlns="http://www.w3.org/2000/svg">
<path d="M17,15.5c1.2585,0 2.3168,0.8461 2.6436,2h0.6064c0.4142,0 0.75,0.3358 0.75,0.75c0,0.4142 -0.3358,0.75 -0.75,0.75h-0.6064c-0.3268,1.1539 -1.3851,2 -2.6436,2c-1.2585,0 -2.3168,-0.8461 -2.6436,-2h-10.6064c-0.41421,0 -0.75,-0.3358 -0.75,-0.75c0,-0.4142 0.33579,-0.75 0.75,-0.75h10.6064c0.3268,-1.1539 1.3851,-2 2.6436,-2zM7.75,9.25c1.2585,0 2.3168,0.8461 2.6436,2h9.8564c0.4142,0 0.75,0.3358 0.75,0.75c0,0.4142 -0.3358,0.75 -0.75,0.75h-9.8564c-0.3268,1.1539 -1.3851,2 -2.6436,2c-1.2585,0 -2.31684,-0.8461 -2.64355,-2h-1.35645c-0.41421,0 -0.75,-0.3358 -0.75,-0.75c0,-0.4142 0.33579,-0.75 0.75,-0.75h1.35645c0.32671,-1.1539 1.38505,-2 2.64355,-2zM14,3c1.2585,0 2.3168,0.84614 2.6436,2h3.6064c0.4142,0 0.75,0.33579 0.75,0.75c0,0.41421 -0.3358,0.75 -0.75,0.75h-3.6064c-0.3268,1.15386 -1.3851,2 -2.6436,2c-1.2585,0 -2.3168,-0.84614 -2.6436,-2h-7.6064c-0.41421,0 -0.75,-0.33579 -0.75,-0.75c0,-0.41421 0.33579,-0.75 0.75,-0.75h7.6064c0.3268,-1.15386 1.3851,-2 2.6436,-2z" fill="#002B51"/>
</svg>
