<svg width="24" height="24" viewBox="0 0 24 24" fill="none" xmlns="http://www.w3.org/2000/svg">
<path fill-rule="evenodd" clip-rule="evenodd" d="M16.1114,7.29253c1.3107,1.14567 2.1386,2.82987 2.1386,4.70747c0,1.8776 -0.8279,3.5618 -2.1386,4.7075l-0.5313,2.3892c-0.2797,1.2581 -1.3957,2.1533 -2.6846,2.1533h-1.791c-1.28888,0 -2.40492,-0.8952 -2.68458,-2.1533l-0.53129,-2.3892c-1.3107,-1.1457 -2.13863,-2.8299 -2.13863,-4.7075c0,-1.8776 0.82793,-3.5618 2.13863,-4.70747l0.53129,-2.38921c0.27966,-1.25816 1.3957,-2.15332 2.68458,-2.15332h1.791c1.2889,0 2.4049,0.89516 2.6846,2.15332zM12,5.75c0.8242,0 1.6112,0.15955 2.3317,0.44946l-0.2155,-0.97094c-0.1272,-0.5718 -0.6349,-0.97852 -1.2207,-0.97852h-1.791c-0.5858,0 -1.0935,0.40672 -1.22071,0.97852l-0.21551,0.97094c0.72052,-0.28991 1.50752,-0.44946 2.33172,-0.44946zM9.66828,17.8005l0.21551,0.971c0.12721,0.5718 0.63491,0.9785 1.22071,0.9785h1.791c0.5858,0 1.0935,-0.4067 1.2207,-0.9785l0.2155,-0.971c-0.7205,0.2899 -1.5075,0.4495 -2.3317,0.4495c-0.8242,0 -1.6112,-0.1596 -2.33172,-0.4495z" fill="#002B51"/>
</svg>
