<svg width="24" height="24" viewBox="0 0 24 24" fill="none" xmlns="http://www.w3.org/2000/svg">
<path d="M13.0586,2.75c1.1836,0.00005 2.2341,0.75795 2.6084,1.88086l0.3926,1.17578c1.2505,0.25846 2.1904,1.36629 2.1904,2.69336v7c0,1.327 -0.94,2.4338 -2.1904,2.6924l-0.3926,1.1767c-0.3743,1.1229 -1.4248,1.8809 -2.6084,1.8809h-2.1172c-1.18363,0 -2.23409,-0.758 -2.60839,-1.8809l-0.39356,-1.1767c-1.24993,-0.2589 -2.18945,-1.3657 -2.18945,-2.6924v-7c0,-1.32674 0.93943,-2.43454 2.18945,-2.69336l0.39356,-1.17578c0.3743,-1.12291 1.42476,-1.88081 2.60839,-1.88086zM9.75586,18.8955c0.17021,0.5103 0.64764,0.8545 1.18554,0.8545h2.1172c0.5379,0 1.0153,-0.3442 1.1855,-0.8545l0.2149,-0.6455h-4.91798zM8.5,7.25c-0.69036,0 -1.25,0.55964 -1.25,1.25v7c0,0.6904 0.55964,1.25 1.25,1.25h7c0.6904,0 1.25,-0.5596 1.25,-1.25v-7c0,-0.69036 -0.5596,-1.25 -1.25,-1.25zM10.9414,4.25c-0.5379,0.00005 -1.01533,0.34424 -1.18554,0.85449l-0.21484,0.64551h4.91798l-0.2149,-0.64551c-0.1702,-0.51025 -0.6476,-0.85444 -1.1855,-0.85449z" fill="#002B51"/>
</svg>
