<svg width="24" height="24" viewBox="0 0 24 24" fill="none" xmlns="http://www.w3.org/2000/svg">
<path fill-rule="evenodd" clip-rule="evenodd" d="M9 2.75C7.48122 2.75 6.25 3.98122 6.25 5.5V18.5C6.25 20.0188 7.48122 21.25 9 21.25H15C16.5188 21.25 17.75 20.0188 17.75 18.5V5.5C17.75 3.98122 16.5188 2.75 15 2.75H9ZM9.75 17.5C9.75 17.0858 10.0858 16.75 10.5 16.75H13.5C13.9142 16.75 14.25 17.0858 14.25 17.5C14.25 17.9142 13.9142 18.25 13.5 18.25H10.5C10.0858 18.25 9.75 17.9142 9.75 17.5Z" fill="#002B51"/>
</svg>
