<svg width="24" height="24" viewBox="0 0 24 24" fill="none" xmlns="http://www.w3.org/2000/svg">
<path fill-rule="evenodd" clip-rule="evenodd" d="M9.66843 6.19939C10.3889 5.90953 11.1758 5.75 12 5.75C12.8242 5.75 13.6111 5.90953 14.3316 6.1994L14.1159 5.22884C13.9888 4.65691 13.4815 4.25 12.8957 4.25H11.1043C10.5185 4.25 10.0112 4.65691 9.88411 5.22884L9.66843 6.19939ZM16.111 7.29222L15.5802 4.90344C15.3006 3.64521 14.1846 2.75 12.8957 2.75H11.1043C9.81542 2.75 8.69943 3.64521 8.41983 4.90344L7.88899 7.29222C6.57808 8.4379 5.75 10.1222 5.75 12C5.75 13.8778 6.57808 15.5621 7.88899 16.7078L8.41983 19.0966C8.69943 20.3548 9.81542 21.25 11.1043 21.25H12.8957C14.1846 21.25 15.3006 20.3548 15.5802 19.0966L16.111 16.7078C17.4219 15.5621 18.25 13.8778 18.25 12C18.25 10.1222 17.4219 8.4379 16.111 7.29222ZM9.88411 18.7712L9.66843 17.8006C10.3889 18.0905 11.1758 18.25 12 18.25C12.8242 18.25 13.6111 18.0905 14.3316 17.8006L14.1159 18.7712C13.9888 19.3431 13.4815 19.75 12.8957 19.75H11.1043C10.5185 19.75 10.0112 19.3431 9.88411 18.7712Z" fill="#002B51"/>
</svg>
