<svg width="24" height="24" viewBox="0 0 24 24" fill="none" xmlns="http://www.w3.org/2000/svg">
<path d="M12.8955,2.75c1.2889,0 2.4049,0.89516 2.6846,2.15332l0.5312,2.3916c1.3101,1.14565 2.1387,2.82808 2.1387,4.70508c0,1.8768 -0.8289,3.5585 -2.1387,4.7041l-0.5312,2.3926c-0.2797,1.2581 -1.3957,2.1533 -2.6846,2.1533h-1.791c-1.28888,0 -2.40492,-0.8952 -2.68458,-2.1533l-0.53222,-2.3926c-1.30943,-1.1456 -2.1377,-2.8276 -2.1377,-4.7041c0,-1.8768 0.82799,-3.55944 2.1377,-4.70508l0.53222,-2.3916c0.27966,-1.25816 1.3957,-2.15332 2.68458,-2.15332zM14.332,17.7979c-0.7208,0.2902 -1.5073,0.4521 -2.332,0.4521c-0.825,0 -1.6119,-0.1617 -2.33301,-0.4521l0.2168,0.9736c0.12721,0.5718 0.63491,0.9785 1.22071,0.9785h1.791c0.5858,0 1.0935,-0.4067 1.2207,-0.9785zM12,7.25c-1.0302,0 -1.9834,0.32852 -2.76172,0.88574l-0.00586,0.02735l-0.02441,-0.00586c-1.18653,0.86356 -1.95801,2.26297 -1.95801,3.84277c0,1.5796 0.77174,2.9782 1.95801,3.8418l0.02441,-0.0049l0.00586,0.0264c0.77842,0.5574 1.73132,0.8867 2.76172,0.8867c1.0301,0 1.9825,-0.3296 2.7607,-0.8867l0.0069,-0.0264l0.0234,0.0049c1.1866,-0.8636 1.959,-2.2619 1.959,-3.8418c0,-1.5801 -0.7721,-2.97924 -1.959,-3.84277l-0.0234,0.00586l-0.0069,-0.02735c-0.7781,-0.55694 -1.7308,-0.88574 -2.7607,-0.88574zM11.1045,4.25c-0.5858,0 -1.0935,0.40672 -1.22071,0.97852l-0.2168,0.97265c0.72101,-0.29034 1.50811,-0.45117 2.33301,-0.45117c0.8246,0 1.6113,0.16105 2.332,0.45117l-0.2158,-0.97265c-0.1272,-0.5718 -0.6349,-0.97852 -1.2207,-0.97852z" fill="#002B51"/>
</svg>
