<svg width="24" height="24" viewBox="0 0 24 24" fill="none" xmlns="http://www.w3.org/2000/svg">
<path fill-rule="evenodd" clip-rule="evenodd" d="M9.66843,6.19939c0.72047,-0.28986 1.50737,-0.44939 2.33157,-0.44939c0.8242,0 1.6111,0.15953 2.3316,0.4494l-0.2157,-0.97056c-0.1271,-0.57193 -0.6344,-0.97884 -1.2202,-0.97884h-1.7914c-0.5858,0 -1.0931,0.40691 -1.22019,0.97884zM18.25,12c0,1.8778 -0.8281,3.5621 -2.139,4.7078l-0.5308,2.3888c-0.2796,1.2582 -1.3956,2.1534 -2.6845,2.1534h-1.7914c-1.28888,0 -2.40487,-0.8952 -2.68447,-2.1534l-0.53084,-2.3888c-1.31091,-1.1457 -2.13899,-2.83 -2.13899,-4.7078c0,-1.8778 0.82808,-3.5621 2.13899,-4.70778l0.53084,-2.38878c0.2796,-1.25823 1.39559,-2.15344 2.68447,-2.15344h1.7914c1.2889,0 2.4049,0.89521 2.6845,2.15344l0.5308,2.38878c1.3109,1.14568 2.139,2.82998 2.139,4.70778zM11.1043,19.75h1.7914c0.5858,0 1.0931,-0.4069 1.2202,-0.9788l0.2157,-0.9706c-0.7205,0.2899 -1.5074,0.4494 -2.3316,0.4494c-0.8242,0 -1.6111,-0.1595 -2.33157,-0.4494l0.21568,0.9706c0.12709,0.5719 0.63439,0.9788 1.22019,0.9788z" fill="#002B51"/>
</svg>
