<svg width="24" height="24" viewBox="0 0 24 24" fill="none" xmlns="http://www.w3.org/2000/svg">
<path fill-rule="evenodd" clip-rule="evenodd" d="M9 2.75C7.48122 2.75 6.25 3.98122 6.25 5.5V18.5C6.25 20.0188 7.48122 21.25 9 21.25H15C16.5188 21.25 17.75 20.0188 17.75 18.5V5.5C17.75 3.98122 16.5188 2.75 15 2.75H9ZM7.75 5.5C7.75 4.80964 8.30964 4.25 9 4.25H15C15.6904 4.25 16.25 4.80964 16.25 5.5V18.5C16.25 19.1904 15.6904 19.75 15 19.75H9C8.30964 19.75 7.75 19.1904 7.75 18.5V5.5ZM10.5 16.75C10.0858 16.75 9.75 17.0858 9.75 17.5C9.75 17.9142 10.0858 18.25 10.5 18.25H13.5C13.9142 18.25 14.25 17.9142 14.25 17.5C14.25 17.0858 13.9142 16.75 13.5 16.75H10.5Z" fill="#002B51"/>
</svg>
