<svg width="24" height="24" viewBox="0 0 24 24" fill="none" xmlns="http://www.w3.org/2000/svg">
<path fill-rule="evenodd" clip-rule="evenodd" d="M8.33301,4.63086c0.3743,-1.12291 1.42476,-1.88081 2.60839,-1.88086h2.1172c1.1836,0.00005 2.2341,0.75795 2.6084,1.88086l0.3927,1.17615c1.2504,0.25855 2.1903,1.36601 2.1903,2.69299v7c0,1.327 -0.9399,2.4344 -2.1903,2.693l-0.3927,1.1761c-0.3743,1.1229 -1.4248,1.8809 -2.6084,1.8809h-2.1172c-1.18363,0 -2.23409,-0.758 -2.60839,-1.8809l-0.39276,-1.1761c-1.25037,-0.2586 -2.19025,-1.366 -2.19025,-2.693v-7c0,-1.32698 0.93988,-2.43444 2.19025,-2.69299zM9.54102,5.75h4.91798l-0.2149,-0.64551c-0.1702,-0.51025 -0.6476,-0.85444 -1.1855,-0.85449h-2.1172c-0.5379,0.00005 -1.01533,0.34424 -1.18554,0.85449zM9.75586,18.8955c0.17021,0.5103 0.64764,0.8545 1.18554,0.8545h2.1172c0.5379,0 1.0153,-0.3442 1.1855,-0.8545l0.2149,-0.6455h-4.91798z" fill="#002B51"/>
</svg>
