<svg width="24" height="24" viewBox="0 0 24 24" fill="none" xmlns="http://www.w3.org/2000/svg">
<path fill-rule="evenodd" clip-rule="evenodd" d="M9,21.25c-1.51878,0 -2.75,-1.2312 -2.75,-2.75v-13c0,-1.51878 1.23122,-2.75 2.75,-2.75h6c1.5188,0 2.75,1.23122 2.75,2.75v13c0,1.5188 -1.2312,2.75 -2.75,2.75zM10.5,16.75c-0.4142,0 -0.75,0.3358 -0.75,0.75c0,0.4142 0.3358,0.75 0.75,0.75h3l0.0771,-0.0039c0.378,-0.0386 0.6729,-0.3579 0.6729,-0.7461c0,-0.3882 -0.2949,-0.7075 -0.6729,-0.7461l-0.0771,-0.0039z" fill="#002B51"/>
</svg>
