<svg width="24" height="24" viewBox="0 0 24 24" fill="none" xmlns="http://www.w3.org/2000/svg">
<path fill-rule="evenodd" clip-rule="evenodd" d="M15.5,7.25h-7c-0.69036,0 -1.25,0.55964 -1.25,1.25v7c0,0.6904 0.55964,1.25 1.25,1.25h7c0.6904,0 1.25,-0.5596 1.25,-1.25v-7c0,-0.69036 -0.5596,-1.25 -1.25,-1.25zM15.667,4.63086l0.3927,1.17615c1.2504,0.25855 2.1903,1.36601 2.1903,2.69299v7c0,1.327 -0.9399,2.4344 -2.1903,2.693l-0.3927,1.1761c-0.3743,1.1229 -1.4248,1.8809 -2.6084,1.8809h-2.1172c-1.18363,0 -2.23409,-0.758 -2.60839,-1.8809l-0.39276,-1.1761c-1.25037,-0.2586 -2.19025,-1.366 -2.19025,-2.693v-7c0,-1.32698 0.93988,-2.43444 2.19025,-2.69299l0.39276,-1.17615c0.3743,-1.12291 1.42476,-1.88081 2.60839,-1.88086h2.1172c1.1836,0.00005 2.2341,0.75795 2.6084,1.88086zM9.54102,5.75h4.91798l-0.2149,-0.64551c-0.1702,-0.51025 -0.6476,-0.85444 -1.1855,-0.85449h-2.1172c-0.5379,0.00005 -1.01533,0.34424 -1.18554,0.85449zM10.9414,19.75h2.1172c0.5379,0 1.0153,-0.3442 1.1855,-0.8545l0.2149,-0.6455h-4.91798l0.21484,0.6455c0.17021,0.5103 0.64764,0.8545 1.18554,0.8545z" fill="#002B51"/>
</svg>
