<svg width="24" height="24" viewBox="0 0 24 24" fill="none" xmlns="http://www.w3.org/2000/svg">
<path fill-rule="evenodd" clip-rule="evenodd" d="M9.54057 5.75H14.4594L14.2443 5.10472C14.0742 4.59429 13.5965 4.25 13.0585 4.25H10.9415C10.4035 4.25 9.92581 4.59429 9.75566 5.10472L9.54057 5.75ZM16.0596 5.80697L15.6674 4.63037C15.293 3.50743 14.2422 2.75 13.0585 2.75H10.9415C9.75783 2.75 8.70695 3.50743 8.33264 4.63037L7.94044 5.80697C6.68997 6.06545 5.75 7.17295 5.75 8.5V15.5C5.75 16.827 6.68997 17.9346 7.94044 18.193L8.33264 19.3696C8.70695 20.4926 9.75783 21.25 10.9415 21.25H13.0585C14.2422 21.25 15.293 20.4926 15.6674 19.3696L16.0596 18.193C17.31 17.9346 18.25 16.827 18.25 15.5V8.5C18.25 7.17295 17.31 6.06545 16.0596 5.80697ZM9.75566 18.8953L9.54057 18.25H14.4594L14.2443 18.8953C14.0742 19.4057 13.5965 19.75 13.0585 19.75H10.9415C10.4035 19.75 9.92581 19.4057 9.75566 18.8953Z" fill="#002B51"/>
</svg>
