<svg width="24" height="24" viewBox="0 0 24 24" fill="none" xmlns="http://www.w3.org/2000/svg">
<path fill-rule="evenodd" clip-rule="evenodd" d="M9.54057,5.75h4.91883l-0.2151,-0.64528c-0.1701,-0.51043 -0.6478,-0.85472 -1.1858,-0.85472h-2.117c-0.538,0 -1.01569,0.34429 -1.18584,0.85472zM18.25,8.5v7c0,1.327 -0.94,2.4346 -2.1904,2.693l-0.3922,1.1766c-0.3744,1.123 -1.4252,1.8804 -2.6089,1.8804h-2.117c-1.18367,0 -2.23455,-0.7574 -2.60886,-1.8804l-0.3922,-1.1766c-1.25047,-0.2584 -2.19044,-1.366 -2.19044,-2.693v-7c0,-1.32705 0.93997,-2.43455 2.19044,-2.69303l0.3922,-1.1766c0.37431,-1.12294 1.42519,-1.88037 2.60886,-1.88037h2.117c1.1837,0 2.2345,0.75743 2.6089,1.88037l0.3922,1.1766c1.2504,0.25848 2.1904,1.36598 2.1904,2.69303zM15.5,7.25h-7c-0.69036,0 -1.25,0.55964 -1.25,1.25v7c0,0.6904 0.55964,1.25 1.25,1.25h7c0.6904,0 1.25,-0.5596 1.25,-1.25v-7c0,-0.69036 -0.5596,-1.25 -1.25,-1.25zM9.75566,18.8953c0.17015,0.5104 0.64784,0.8547 1.18584,0.8547h2.117c0.538,0 1.0157,-0.3443 1.1858,-0.8547l0.2151,-0.6453h-4.91883z" fill="#002B51"/>
</svg>
