<svg width="24" height="24" viewBox="0 0 24 24" fill="none" xmlns="http://www.w3.org/2000/svg">
<path fill-rule="evenodd" clip-rule="evenodd" d="M17.4059,7.55123c0.1913,-0.03367 0.3881,-0.05124 0.5891,-0.05124c0.1173,0 0.2332,0.00599 0.3475,0.01768l0.7999,-3.19958c0.1004,-0.40184 0.5076,-0.64616 0.9095,-0.5457c0.4018,0.10046 0.6462,0.50766 0.5457,0.90951l-0.8301,3.32045c0.9617,0.59468 1.6025,1.65883 1.6025,2.87265v2.875c0,3.4518 -2.7982,6.25 -6.25,6.25h-0.5h-10.62002c-0.41421,0 -0.75,-0.3358 -0.75,-0.75c0,-0.4142 0.33579,-0.75 0.75,-0.75h1.45598c-1.7166,-1.2238 -2.83596,-3.2312 -2.83596,-5.5c0,-3.72793 3.02207,-6.75001 6.75,-6.75001c2.3592,0 4.4357,1.21033 5.6425,3.04392c0.2412,-0.45412 0.5831,-0.84659 0.996,-1.14764l-0.8661,-3.46437c-0.1005,-0.40185 0.1438,-0.80905 0.5457,-0.90951c0.4018,-0.10046 0.809,0.14386 0.9095,0.5457zM16.12,13v0.0103v0.2397h-0.0045c-0.0789,2.1659 -1.1782,4.0713 -2.8315,5.25h1.336h0.5c2.6233,0 4.75,-2.1267 4.75,-4.75v-2.875c0,-1.03554 -0.8395,-1.87501 -1.875,-1.87501c-1.0355,0 -1.875,0.83947 -1.875,1.87501v2.1147zM14.62,13.009v-0.0181c-0.0049,-2.8953 -2.3535,-5.24091 -5.25,-5.24091c-2.8995,0 -5.25,2.35051 -5.25,5.25001c0,2.8995 2.3505,5.25 5.25,5.25c2.8965,0 5.2451,-2.3456 5.25,-5.241z" fill="#002B51"/>
</svg>
