<svg width="24" height="24" viewBox="0 0 24 24" fill="none" xmlns="http://www.w3.org/2000/svg">
<path fill-rule="evenodd" clip-rule="evenodd" d="M16.5976 4.31809C16.4971 3.91625 16.0899 3.67193 15.6881 3.77239C15.2862 3.87285 15.0419 4.28005 15.1424 4.6819L16.0085 8.14627C15.5956 8.44732 15.2537 8.83979 15.0125 9.29391C13.8057 7.46032 11.7292 6.24999 9.37 6.24999C5.64207 6.24999 2.62 9.27207 2.62 13C2.62 15.2688 3.73936 17.2762 5.45596 18.5H3.99998C3.58576 18.5 3.24998 18.8358 3.24998 19.25C3.24998 19.6642 3.58576 20 3.99998 20H14.62H15.12C18.5718 20 21.37 17.2018 21.37 13.75V10.875C21.37 9.66118 20.7292 8.59703 19.7675 8.00235L20.5976 4.6819C20.6981 4.28005 20.4537 3.87285 20.0519 3.77239C19.65 3.67193 19.2428 3.91625 19.1424 4.31809L18.3425 7.51767C18.2282 7.50598 18.1123 7.49999 17.995 7.49999C17.794 7.49999 17.5972 7.51756 17.4059 7.55123L16.5976 4.31809ZM14.62 18.5H13.284C14.9373 17.3213 16.0366 15.4159 16.1155 13.25H16.12V13.0103L16.12 13L16.12 12.9897V10.875C16.12 9.83946 16.9595 8.99999 17.995 8.99999C19.0305 8.99999 19.87 9.83946 19.87 10.875V13.75C19.87 16.3733 17.7433 18.5 15.12 18.5H14.62Z" fill="#002B51"/>
</svg>
