<svg width="24" height="24" viewBox="0 0 24 24" fill="none" xmlns="http://www.w3.org/2000/svg">
<path d="M19.1425,4.31821c0.1005,-0.40166 0.5074,-0.64618 0.9091,-0.5459c0.4017,0.10043 0.6461,0.50746 0.5459,0.90918l-0.831,3.32129c0.962,0.59458 1.6034,1.65809 1.6035,2.87202v2.875c0,3.4518 -2.7983,6.25 -6.25,6.25h-11.12012c-0.41417,0 -0.75,-0.3358 -0.75,-0.75c0.00009,-0.414 0.33589,-0.7499 0.75,-0.75h1.45898c-1.71764,-1.2236 -2.83886,-3.2303 -2.83886,-5.5c0.00009,-3.72779 3.02213,-6.74995 6.75,-6.74995c2.3596,0 4.4349,1.21182 5.6416,3.0459c0.2413,-0.45491 0.5837,-0.84795 0.9971,-1.14942l-0.8662,-3.46484l-0.0147,-0.0752c-0.0543,-0.37612 0.1839,-0.73982 0.5606,-0.83398c0.3767,-0.09403 0.7578,0.11503 0.8867,0.47266l0.0224,0.07324l0.8077,3.2334c0.1915,-0.03377 0.3886,-0.05176 0.5898,-0.05176c0.117,0 0.2327,0.00595 0.3467,0.01758zM17.995,8.99985c-1.0354,0.00006 -1.8749,0.83958 -1.875,1.87495v2.375h-0.0059c-0.0788,2.1668 -1.1786,4.0715 -2.833,5.25h1.8389c2.6233,0 4.75,-2.1266 4.75,-4.75v-2.875c-0.0001,-1.03537 -0.8396,-1.87489 -1.875,-1.87495zM9.37,7.74985c-2.89944,0 -5.24991,2.35055 -5.25,5.24995c0,2.8995 2.3505,5.25 5.25,5.25c2.8995,0 5.25,-2.3505 5.25,-5.25c-0.0001,-2.8994 -2.3506,-5.24995 -5.25,-5.24995z" fill="#002B51"/>
</svg>
