<svg width="24" height="24" viewBox="0 0 24 24" fill="none" xmlns="http://www.w3.org/2000/svg">
<path fill-rule="evenodd" clip-rule="evenodd" d="M16.5975,4.31823l0.8083,3.23292c0.1913,-0.0337 0.3883,-0.05128 0.5893,-0.05128c0.1173,0 0.2333,0.00599 0.3475,0.01768l0.7998,-3.19932c0.1005,-0.40177 0.5075,-0.64621 0.9092,-0.5459c0.4018,0.10044 0.6462,0.50741 0.5459,0.90918l-0.8301,3.32063c0.9618,0.59466 1.6027,1.65886 1.6027,2.87276v2.875c0,3.4517 -2.7983,6.2499 -6.25,6.25h-11.12012c-0.41422,0 -0.75,-0.3358 -0.75,-0.75c0,-0.4142 0.33578,-0.75 0.75,-0.75h1.45598c-1.7166,-1.2238 -2.83596,-3.2312 -2.83596,-5.5c0,-3.72795 3.02207,-6.75003 6.75,-6.75003c2.3592,0 4.4358,1.21036 5.6425,3.04401c0.2413,-0.45417 0.5832,-0.84667 0.9961,-1.14776l-0.8662,-3.46461l-0.0146,-0.07519c-0.0544,-0.37619 0.1838,-0.73981 0.5605,-0.83399c0.3768,-0.09407 0.7579,0.11492 0.8868,0.47266zM19.8701,13.7499v-2.875c0,-1.03553 -0.8395,-1.87497 -1.875,-1.87503c-1.0355,0 -1.875,0.83947 -1.875,1.87503v2.375h-0.0046c-0.0789,2.1658 -1.1782,4.0713 -2.8315,5.25h1.8361c2.6233,-0.0001 4.75,-2.1267 4.75,-4.75z" fill="#002B51"/>
</svg>
