<svg width="24" height="24" viewBox="0 0 24 24" fill="none" xmlns="http://www.w3.org/2000/svg">
<path fill-rule="evenodd" clip-rule="evenodd" d="M21.25,11.3594c0,2.1197 -1.5022,3.8886 -3.5,4.3002v0.5904c0,1.5621 -1.102,2.8667 -2.571,3.179c-0.3122,1.469 -1.6169,2.571 -3.179,2.571c-1.7949,0 -3.25,-1.4551 -3.25,-3.25c0,-1.7949 1.4551,-3.25 3.25,-3.25c1.4943,0 2.7531,1.0085 3.1328,2.3821c0.6537,-0.2537 1.1172,-0.8888 1.1172,-1.6321v-0.5426c-0.47,-0.0659 -0.9277,-0.2079 -1.3545,-0.4213l-1.4424,-0.7207c-0.9148,-0.4573 -1.9914,-0.4573 -2.9062,0l-1.44241,0.7207c-0.60964,0.3049 -1.28227,0.4639 -1.96387,0.4639c-2.42484,0 -4.39062,-1.9658 -4.39062,-4.3906v-0.3594c0,-2.62335 2.12665,-4.75 4.75,-4.75h8.75v-3.25c0,-0.41421 0.3358,-0.75 0.75,-0.75c0.4142,0 0.75,0.33579 0.75,0.75v3.41619c2.0169,0.54872 3.5,2.39307 3.5,4.58381zM13.75,18.75c0,-0.9665 -0.7835,-1.75 -1.75,-1.75c-0.9665,0 -1.75,0.7835 -1.75,1.75c0,0.9665 0.7835,1.75 1.75,1.75c0.9665,0 1.75,-0.7835 1.75,-1.75z" fill="#002B51"/>
</svg>
