<svg width="24" height="24" viewBox="0 0 24 24" fill="none" xmlns="http://www.w3.org/2000/svg">
<path d="M17,2.25c0.4142,0 0.75,0.33579 0.75,0.75v3.41699c2.0168,0.54879 3.5,2.39234 3.5,4.58301v0.3594c0,2.1196 -1.5022,3.8881 -3.5,4.2998v0.5908c0,1.5624 -1.1028,2.8659 -2.5723,3.1777c-0.3118,1.4695 -1.6153,2.5723 -3.1777,2.5723c-1.7949,0 -3.25,-1.4551 -3.25,-3.25c0,-1.7949 1.4551,-3.25 3.25,-3.25c1.4934,0 2.7503,1.0076 3.1309,2.3799c0.6542,-0.2534 1.1191,-0.8862 1.1191,-1.6299v-0.5449c-0.4699,-0.066 -0.9278,-0.2056 -1.3545,-0.419l-1.4424,-0.7207c-0.9148,-0.4573 -1.9914,-0.4573 -2.9062,0l-1.44241,0.7207c-0.60964,0.3049 -1.28227,0.4639 -1.96387,0.4639c-2.42484,0 -4.39062,-1.9658 -4.39062,-4.3906v-0.3594c0,-2.62335 2.12665,-4.75 4.75,-4.75h8.75v-3.25c0,-0.41421 0.3358,-0.75 0.75,-0.75zM12,17c-0.9665,0 -1.75,0.7835 -1.75,1.75c0,0.9665 0.7835,1.75 1.75,1.75c0.9665,0 1.75,-0.7835 1.75,-1.75c0,-0.9665 -0.7835,-1.75 -1.75,-1.75z" fill="#002B51"/>
</svg>
