<svg width="24" height="24" viewBox="0 0 24 24" fill="none" xmlns="http://www.w3.org/2000/svg">
<path fill-rule="evenodd" clip-rule="evenodd" d="M17,2.25c0.4142,0 0.75,0.33579 0.75,0.75v3.41619c2.0169,0.54872 3.5,2.39307 3.5,4.58381v0.3594c0,2.1197 -1.5021,3.8886 -3.5,4.3002v0.5904c0,1.5621 -1.102,2.8667 -2.571,3.179c-0.3122,1.469 -1.6169,2.571 -3.179,2.571c-1.7949,0 -3.25,-1.4551 -3.25,-3.25c0,-1.7949 1.4551,-3.25 3.25,-3.25c1.4943,0 2.7531,1.0085 3.1328,2.3821c0.6537,-0.2537 1.1172,-0.8888 1.1172,-1.6321v-0.5425c-0.4699,-0.0659 -0.9273,-0.2076 -1.3541,-0.421l-1.4425,-0.7213c-0.9149,-0.4574 -1.9919,-0.4574 -2.9068,0l-1.4425,0.7213c-0.60965,0.3048 -1.28191,0.4635 -1.96352,0.4635c-2.42485,0 -4.39058,-1.9657 -4.39058,-4.3906v-0.3594c0,-2.62335 2.12665,-4.75 4.75,-4.75h8.75v-3.25c0,-0.41421 0.3358,-0.75 0.75,-0.75zM13.75,18.75c0,-0.9665 -0.7835,-1.75 -1.75,-1.75c-0.9665,0 -1.75,0.7835 -1.75,1.75c0,0.9665 0.7835,1.75 1.75,1.75c0.9665,0 1.75,-0.7835 1.75,-1.75z" fill="#002B51"/>
</svg>
