<svg width="24" height="24" viewBox="0 0 24 24" fill="none" xmlns="http://www.w3.org/2000/svg">
<path fill-rule="evenodd" clip-rule="evenodd" d="M12.0003,2.24817c0.4142,0 0.75,0.33579 0.75,0.75v2.00157l0.7997,-0.59974c0.3313,-0.24853 0.8014,-0.18137 1.05,0.15c0.2485,0.33137 0.1813,0.80147 -0.15,1.05l-1.6997,1.27474v3.82166l3.3136,-1.91313l0.2536,-2.10503c0.0496,-0.41124 0.4231,-0.70445 0.8344,-0.65491c0.4112,0.04955 0.7044,0.42309 0.6549,0.83433l-0.1191,0.98811l1.7341,-1.0012c0.3588,-0.2071 0.8174,-0.0842 1.0246,0.27452c0.2071,0.35872 0.0842,0.81741 -0.2746,1.02452l-1.739,1.00404l0.924,0.39469c0.3809,0.16271 0.5578,0.60336 0.3951,0.98436c-0.1628,0.3809 -0.6035,0.5578 -0.9844,0.3951l-1.9585,-0.8366l-3.3029,1.9069l3.3187,1.916l1.9427,-0.8299c0.381,-0.1627 0.8217,0.0142 0.9844,0.3951c0.1627,0.3809 -0.0142,0.8216 -0.3951,0.9844l-0.9082,0.3879l1.7279,0.9976c0.3587,0.2071 0.4816,0.6658 0.2745,1.0245c-0.2071,0.3587 -0.6658,0.4816 -1.0245,0.2745l-1.7408,-1.005l0.1211,1.0051c0.0495,0.4113 -0.2437,0.7848 -0.6549,0.8344c-0.4113,0.0495 -0.7848,-0.2437 -0.8344,-0.6549l-0.2556,-2.1221l-3.3116,-1.912v3.8376l1.6997,1.2747c0.3313,0.2485 0.3985,0.7186 0.15,1.05c-0.2486,0.3314 -0.7187,0.3985 -1.05,0.15l-0.7997,-0.5997v1.9979c0,0.4142 -0.3358,0.75 -0.75,0.75c-0.4142,0 -0.75,-0.3358 -0.75,-0.75v-1.9985l-0.8003,0.6003c-0.3314,0.2485 -0.8015,0.1814 -1.05003,-0.15c-0.24853,-0.3314 -0.18137,-0.8015 0.15,-1.05l1.70033,-1.2753v-3.8302l-3.31314,1.9128l-0.25475,2.1145c-0.04955,0.4112 -0.42309,0.7044 -0.83433,0.6549c-0.41124,-0.0496 -0.70445,-0.4231 -0.6549,-0.8344l0.12018,-0.9975l-1.72998,0.9988c-0.35872,0.2071 -0.81742,0.0842 -1.02452,-0.2745c-0.20711,-0.3587 -0.0842,-0.8174 0.27452,-1.0245l1.72504,-0.996l-0.91524,-0.3909c-0.38092,-0.1628 -0.55781,-0.6034 -0.3951,-0.9844c0.16271,-0.3809 0.60341,-0.5578 0.98433,-0.3951l1.94981,0.8329l3.32388,-1.919l-3.30806,-1.91l-1.96563,0.8397c-0.38092,0.1627 -0.82161,-0.0142 -0.98433,-0.3951c-0.16271,-0.381 0.01418,-0.82166 0.3951,-0.98437l0.93106,-0.39771l-1.73624,-1.00242c-0.35872,-0.2071 -0.48163,-0.6658 -0.27452,-1.02452c0.20711,-0.35872 0.6658,-0.48162 1.02452,-0.27451l1.72331,0.99495l-0.11813,-0.98047c-0.04954,-0.41124 0.24367,-0.78478 0.65491,-0.83433c0.41124,-0.04954 0.78478,0.24367 0.83432,0.65491l0.2527,2.09739l3.31519,1.91408v-3.81444l-1.70033,-1.27526c-0.33137,-0.24853 -0.39853,-0.71863 -0.15,-1.05c0.24853,-0.33137 0.71863,-0.39853 1.05003,-0.15l0.8003,0.60026v-2.00209c0,-0.41421 0.3358,-0.75 0.75,-0.75z" fill="#002B51"/>
</svg>
