<svg width="24" height="24" viewBox="0 0 24 24" fill="none" xmlns="http://www.w3.org/2000/svg">
<path fill-rule="evenodd" clip-rule="evenodd" d="M10.7504,16.8747v-2.7142l-2.34665,1.3548l-0.22485,1.8663c-0.08258,0.6854 -0.70514,1.1741 -1.39054,1.0915c-0.6854,-0.0826 -1.17409,-0.7052 -1.09151,-1.3906l0.00057,-0.0047l-0.86396,0.4988c-0.59787,0.3452 -1.36235,0.1404 -1.70753,-0.4575c-0.34518,-0.5979 -0.14034,-1.3624 0.45753,-1.7075l0.85903,-0.496c-0.63185,-0.2727 -0.9247,-1.0053 -0.65413,-1.6387c0.27118,-0.6348 1.00568,-0.9297 1.64054,-0.6585l1.71991,0.7347l2.35741,-1.361l-2.34159,-1.352l-1.73572,0.7415c-0.63487,0.2711 -1.36936,-0.0237 -1.64055,-0.6585c-0.27119,-0.6349 0.02363,-1.36939 0.65849,-1.64058l0.01145,-0.00489l-0.87022,-0.50241c-0.59786,-0.34518 -0.80271,-1.10967 -0.45753,-1.70754c0.34518,-0.59786 1.10967,-0.80271 1.70753,-0.45753l0.85735,0.49499c-0.07529,-0.68052 0.41164,-1.29614 1.09293,-1.37823c0.6854,-0.08257 1.30797,0.40611 1.39055,1.09151l0.22279,1.84919l2.3487,1.35602v-2.69837l-1.50035,-1.12526c-0.55228,-0.41421 -0.66421,-1.19772 -0.25,-1.75c0.41422,-0.55228 1.19775,-0.66421 1.75005,-0.25l0.0003,0.00026v-1.00209c0,-0.69036 0.5596,-1.25 1.25,-1.25c0.6904,0 1.25,0.55964 1.25,1.25v1.00157c0.5523,-0.41391 1.3355,-0.30191 1.7497,0.25026c0.4142,0.55228 0.3022,1.33579 -0.25,1.75l-1.4997,1.12474v2.70561l2.3471,-1.3551l0.2237,-1.85682c0.0826,-0.6854 0.7052,-1.17408 1.3906,-1.09151c0.6838,0.08239 1.1718,0.7023 1.092,1.38584l0.8681,-0.5012c0.5979,-0.34518 1.3624,-0.14033 1.7075,0.45753c0.3452,0.59787 0.1404,1.36236 -0.4575,1.70753l-0.873,0.50405l0.0044,0.00186c0.6348,0.27119 0.9296,1.00567 0.6585,1.64057c-0.2712,0.6348 -1.0057,0.9297 -1.6406,0.6585l-1.7286,-0.7384l-2.3364,1.3489l2.3522,1.358l1.7128,-0.7317c0.6349,-0.2712 1.3694,0.0237 1.6406,0.6585c0.2695,0.6311 -0.0202,1.3606 -0.6472,1.6356l0.8619,0.4977c0.5979,0.3451 0.8027,1.1096 0.4576,1.7075c-0.3452,0.5979 -1.1097,0.8027 -1.7076,0.4575l-0.8747,-0.505l0.0015,0.0123c0.0825,0.6854 -0.4061,1.308 -1.0915,1.3906c-0.6854,0.0825 -1.308,-0.4061 -1.3906,-1.0915l-0.2258,-1.8739l-2.345,-1.3539v2.7215l1.4997,1.1247c0.5522,0.4142 0.6642,1.1977 0.25,1.75c-0.4142,0.5522 -1.1974,0.6642 -1.7497,0.2503v0.9979c0,0.6903 -0.5596,1.25 -1.25,1.25c-0.6904,0 -1.25,-0.5597 -1.25,-1.25v-0.9985l-0.0003,0.0003c-0.5523,0.4142 -1.33583,0.3023 -1.75005,-0.25c-0.41421,-0.5523 -0.30228,-1.3358 0.25,-1.75z" fill="#002B51"/>
</svg>
