<svg width="24" height="24" viewBox="0 0 24 24" fill="none" xmlns="http://www.w3.org/2000/svg">
<path d="M12.0001,1.74817c0.6903,0 1.25,0.55964 1.25,1.25v1.00195c0.5523,-0.41416 1.3358,-0.30226 1.75,0.25c0.414,0.55226 0.3021,1.33582 -0.25,1.75l-1.5,1.125v2.7041l2.3467,-1.35547l0.2246,-1.85546c0.0826,-0.68531 0.7052,-1.17437 1.3906,-1.0918c0.6835,0.08254 1.1703,0.70249 1.0908,1.38574l0.8691,-0.50098c0.5979,-0.34495 1.362,-0.13976 1.7071,0.45801c0.3451,0.59777 0.1406,1.36178 -0.4571,1.70703l-0.874,0.50391l0.0049,0.00195c0.6347,0.27113 0.9301,1.00585 0.6592,1.64065c-0.2711,0.6347 -1.0059,0.93 -1.6406,0.6592l-1.7305,-0.7393l-2.3359,1.3486l2.3525,1.3584l1.7139,-0.7314c0.6347,-0.2709 1.3694,0.0236 1.6406,0.6582c0.2696,0.6311 -0.0212,1.3598 -0.6485,1.6348l0.8633,0.499c0.5975,0.3452 0.8019,1.1093 0.4571,1.707c-0.3451,0.5977 -1.1093,0.8029 -1.7071,0.458l-0.8759,-0.5058l0.0019,0.0127c0.0826,0.6852 -0.4056,1.3078 -1.0908,1.3906c-0.6853,0.0825 -1.3079,-0.4057 -1.3906,-1.0908l-0.2266,-1.875l-2.3447,-1.3536v2.7217l1.5,1.125c0.5521,0.4143 0.6641,1.1978 0.25,1.75c-0.3884,0.5179 -1.1018,0.6486 -1.6446,0.3213l-0.1054,-0.0713v0.9981c0,0.6903 -0.5597,1.25 -1.25,1.25c-0.6903,-0.0001 -1.25,-0.5597 -1.25,-1.25v-0.9981l-0.1065,0.0713c-0.5426,0.3269 -1.25519,0.1963 -1.64353,-0.3213c-0.41421,-0.5523 -0.30228,-1.3358 0.25,-1.75l1.50003,-1.125v-2.7158l-2.34671,1.3545l-0.22461,1.8682c-0.08276,0.6852 -0.70535,1.1733 -1.39062,1.0908c-0.68537,-0.0826 -1.17437,-0.7053 -1.0918,-1.3906v-0.0049l-0.86328,0.499c-0.59778,0.3451 -1.36178,0.1406 -1.70703,-0.457c-0.34517,-0.5979 -0.14082,-1.3629 0.45703,-1.708l0.8584,-0.4971c-0.63101,-0.2731 -0.92371,-1.0047 -0.65332,-1.6377c0.27131,-0.6346 1.00588,-0.9293 1.64062,-0.6582l1.71778,0.7344l2.3584,-1.3614l-2.34082,-1.3515l-1.73536,0.7422c-0.63483,0.2711 -1.36945,-0.0244 -1.64062,-0.6592c-0.27098,-0.6348 0.02352,-1.36945 0.6582,-1.64065l0.01074,-0.00488l-0.86914,-0.50195c-0.59786,-0.34518 -0.80318,-1.11014 -0.458,-1.70801c0.3452,-0.59779 1.11017,-0.80219 1.708,-0.45703l0.85743,0.49414c-0.07488,-0.68025 0.41171,-1.29588 1.09277,-1.37793c0.68535,-0.08256 1.30799,0.40647 1.39062,1.0918l0.22168,1.84863l2.34964,1.35644v-2.69824l-1.50003,-1.125c-0.55228,-0.41421 -0.66421,-1.19771 -0.25,-1.75c0.41422,-0.55227 1.19773,-0.66421 1.75003,-0.25v-1.00195c0,-0.6903 0.5597,-1.24992 1.25,-1.25z" fill="#002B51"/>
</svg>
