<svg width="24" height="24" viewBox="0 0 24 24" fill="none" xmlns="http://www.w3.org/2000/svg">
<path fill-rule="evenodd" clip-rule="evenodd" d="M11.2503,17.125v-3.8305l-3.31335,1.9129l-0.25478,2.1147l-0.01299,0.0752c-0.08333,0.3709 -0.43589,0.6256 -0.82146,0.5791c-0.38551,-0.0466 -0.66714,-0.3778 -0.65978,-0.758l0.00548,-0.0764l0.12004,-0.9973l-1.73008,0.9989c-0.35872,0.2071 -0.81742,0.0842 -1.02452,-0.2745c-0.20711,-0.3587 -0.0842,-0.8174 0.27452,-1.0245l1.72515,-0.996l-0.91492,-0.391l-0.06895,-0.0335c-0.3329,-0.1837 -0.47891,-0.5931 -0.32655,-0.9503c0.15255,-0.3572 0.54937,-0.5352 0.91228,-0.4219l0.07158,0.0264l1.95004,0.8329l3.32409,-1.9191l-3.30828,-1.9101l-1.96584,0.8397l-0.07159,0.0264c-0.3629,0.1133 -0.75972,-0.0647 -0.91228,-0.4219c-0.15236,-0.3572 -0.00635,-0.76665 0.32656,-0.95036l0.06895,-0.03348l0.93072,-0.39768l-1.73634,-1.00248c-0.35872,-0.2071 -0.48163,-0.6658 -0.27452,-1.02452c0.20711,-0.35872 0.6658,-0.48162 1.02452,-0.27451l1.72341,0.99501l-0.11799,-0.98016l-0.00547,-0.07646c-0.00736,-0.38016 0.27426,-0.71135 0.65977,-0.75799c0.38557,-0.04646 0.73813,0.2082 0.82146,0.57914l0.01299,0.07515l0.25273,2.09764l3.3154,1.9142v-3.81468l-1.70053,-1.27541l-0.05859,-0.04883c-0.27957,-0.25763 -0.32383,-0.69029 -0.09082,-1.00098c0.23315,-0.31053 0.66074,-0.38883 0.98634,-0.19238l0.0635,0.04297l0.8001,0.59999v-2.00221c0,-0.41421 0.3358,-0.75 0.75,-0.75c0.4142,0 0.75,0.33579 0.75,0.75v2.00169l0.7995,-0.59947l0.0635,-0.04297c0.3255,-0.19645 0.7531,-0.11815 0.9863,0.19238c0.233,0.31069 0.1887,0.74335 -0.0908,1.00098l-0.0586,0.04883l-1.6999,1.27488v3.82191l3.3138,-1.91325l0.2537,-2.10528l0.013,-0.07515c0.0833,-0.37094 0.4359,-0.6256 0.8214,-0.57915c0.3855,0.04665 0.6672,0.37784 0.6598,0.758l-0.0055,0.07646l-0.1189,0.9878l1.7342,-1.00126c0.3588,-0.2071 0.8174,-0.0842 1.0246,0.27452c0.2071,0.35872 0.0842,0.81741 -0.2746,1.02452l-1.7391,1.0041l0.9236,0.39466l0.069,0.03348c0.3329,0.1837 0.4789,0.59315 0.3265,0.95035c-0.1525,0.3572 -0.5493,0.5352 -0.9122,0.4219l-0.0716,-0.0264l-1.9588,-0.8367l-3.3031,1.9071l3.3189,1.9161l1.943,-0.8299l0.0716,-0.0264c0.3629,-0.1133 0.7597,0.0647 0.9122,0.4219c0.1524,0.3571 0.0064,0.7666 -0.3265,0.9503l-0.069,0.0335l-0.9078,0.3879l1.728,0.9977c0.3587,0.2071 0.4816,0.6658 0.2745,1.0245c-0.2071,0.3587 -0.6658,0.4816 -1.0245,0.2745l-1.7409,-1.0051l0.1209,1.0049l0.0055,0.0764c0.0074,0.3802 -0.2743,0.7114 -0.6598,0.758c-0.3855,0.0465 -0.7381,-0.2082 -0.8214,-0.5791l-0.013,-0.0752l-0.2557,-2.1223l-3.3118,-1.9121v3.8378l1.6999,1.2749l0.0586,0.0488c0.2795,0.2577 0.3238,0.6903 0.0908,1.001c-0.2332,0.3105 -0.6608,0.3888 -0.9863,0.1924l-0.0635,-0.043l-0.7995,-0.5995v1.9981c0,0.4142 -0.3358,0.75 -0.75,0.75c-0.4142,0 -0.75,-0.3358 -0.75,-0.75v-1.9986l-0.8001,0.6l-0.0635,0.043c-0.3256,0.1964 -0.75319,0.1181 -0.98634,-0.1924c-0.23301,-0.3107 -0.18875,-0.7433 0.09082,-1.001l0.05859,-0.0488z" fill="#002B51"/>
</svg>
