<svg width="24" height="24" viewBox="0 0 24 24" fill="none" xmlns="http://www.w3.org/2000/svg">
<path d="M12.0002,2.24817c0.4143,0 0.75,0.33579 0.75,0.75v2.00195l0.7998,-0.59961l0.0635,-0.04297c0.3255,-0.19634 0.7532,-0.1181 0.9863,0.19239c0.2329,0.31064 0.1887,0.74339 -0.0908,1.00097l-0.0586,0.04883l-1.7002,1.27442v3.82225l3.3135,-1.91307l0.2539,-2.10547l0.0127,-0.0752c0.0833,-0.37093 0.4367,-0.62555 0.8223,-0.5791c0.3852,0.0468 0.6664,0.37785 0.6592,0.75781l-0.0049,0.07617l-0.1192,0.98829l1.7344,-1.00098c0.3587,-0.20703 0.8173,-0.08428 1.0244,0.27441c0.2069,0.35863 0.0841,0.8173 -0.2744,1.02442l-1.7402,1.00293l0.9248,0.3955l0.0683,0.03418c0.3329,0.18371 0.4795,0.59301 0.3272,0.95021c-0.1526,0.3571 -0.5502,0.5352 -0.9131,0.4219l-0.0713,-0.0264l-1.9599,-0.8379l-3.3028,1.9072l3.3194,1.917l1.9433,-0.8301l0.0713,-0.0263c0.3629,-0.1133 0.7605,0.0647 0.9131,0.4219c0.1523,0.3571 0.0057,0.7665 -0.3272,0.9502l-0.0683,0.0332l-0.9082,0.3876l1.7275,0.9981c0.3586,0.207 0.4821,0.6658 0.2754,1.0244c-0.2071,0.3587 -0.6667,0.4815 -1.0254,0.2744l-1.7402,-1.0049l0.1211,1.0049l0.0049,0.0772c0.0071,0.3798 -0.274,0.711 -0.6592,0.7578c-0.3855,0.0464 -0.7389,-0.2083 -0.8223,-0.5791l-0.0127,-0.0752l-0.2558,-2.1231l-3.3116,-1.9121v3.8379l1.7002,1.2754l0.0586,0.0488c0.2794,0.2577 0.3238,0.6904 0.0908,1.001c-0.233,0.3105 -0.6608,0.3887 -0.9863,0.1924l-0.0635,-0.043l-0.7998,-0.6006v1.9991c0,0.4142 -0.3357,0.75 -0.75,0.75c-0.4141,-0.0001 -0.75,-0.3358 -0.75,-0.75v-1.9991l-0.7998,0.6006l-0.0634,0.043c-0.3255,0.1964 -0.75319,0.118 -0.98637,-0.1924c-0.23302,-0.3107 -0.18876,-0.7433 0.09082,-1.001l0.05859,-0.0488l1.70016,-1.2754v-3.831l-3.31344,1.9121l-0.25488,2.1162l-0.0127,0.0752c-0.08343,0.3707 -0.4359,0.6254 -0.82129,0.5791c-0.38536,-0.0466 -0.66729,-0.3779 -0.66015,-0.7578l0.00586,-0.0772l0.11914,-0.998l-1.7295,1c-0.35866,0.207 -0.81729,0.0841 -1.02441,-0.2744c-0.20707,-0.3587 -0.08414,-0.8173 0.27441,-1.0245l1.72461,-0.997l-0.91406,-0.3906l-0.06933,-0.0332c-0.33274,-0.1838 -0.4785,-0.5931 -0.32618,-0.9502c0.15258,-0.3571 0.54924,-0.5352 0.91211,-0.4219l0.07129,0.0263l1.94922,0.8321l3.3252,-1.919l-3.30762,-1.9101l-1.9668,0.8408l-0.07129,0.0264c-0.36278,0.1132 -0.75947,-0.065 -0.91211,-0.4219c-0.1523,-0.3571 -0.00648,-0.76641 0.32618,-0.95021l0.06933,-0.03418l0.93067,-0.39843l-1.73633,-1.00196c-0.35864,-0.20713 -0.4815,-0.66573 -0.27442,-1.02441c0.20721,-0.35842 0.66583,-0.48144 1.02442,-0.27441l1.72265,0.99414l-0.11718,-0.9795l-0.00586,-0.07617c-0.00727,-0.38007 0.27471,-0.71117 0.66015,-0.75781c0.38549,-0.04635 0.73796,0.20825 0.82129,0.5791l0.0127,0.0752l0.25293,2.09668l3.31539,1.91406v-3.81445l-1.70016,-1.27442l-0.05859,-0.04883c-0.27958,-0.25763 -0.32384,-0.69029 -0.09082,-1.00097c0.23316,-0.3105 0.66077,-0.38883 0.98637,-0.19239l0.0634,0.04297l0.7998,0.59961v-2.00195c0,-0.41419 0.3359,-0.74996 0.75,-0.75z" fill="#002B51"/>
</svg>
