<svg width="24" height="24" viewBox="0 0 24 24" fill="none" xmlns="http://www.w3.org/2000/svg">
<path d="M10.5,6.24978c0.3078,0 0.5841,0.1884 0.6973,0.47461l1.7187,4.35841l4.3594,1.7197c0.2862,0.1131 0.4745,0.3895 0.4746,0.6973c0,0.3078 -0.1883,0.5841 -0.4746,0.6972l-4.3594,1.7188l-1.7187,4.3594c-0.1131,0.2863 -0.3894,0.4746 -0.6973,0.4746c-0.3079,0 -0.58418,-0.1883 -0.69727,-0.4746l-1.71972,-4.3594l-4.3584,-1.7188c-0.28628,-0.1131 -0.47461,-0.3894 -0.47461,-0.6972c0.00011,-0.3078 0.18836,-0.5842 0.47461,-0.6973l4.3584,-1.7197l1.71972,-4.35841l0.04981,-0.10254c0.13294,-0.22773 0.37816,-0.37207 0.64746,-0.37207zM9.35938,11.9363c-0.07623,0.1933 -0.22961,0.3466 -0.42286,0.4229l-2.89355,1.1406l2.89355,1.1406l0.07032,0.0322c0.15989,0.083 0.28576,0.2215 0.35254,0.3907l1.14062,2.8925l1.1406,-2.8925l0.0323,-0.0704c0.0829,-0.1598 0.2214,-0.2858 0.3906,-0.3525l2.8926,-1.1406l-2.8926,-1.1406c-0.1933,-0.0763 -0.3467,-0.2296 -0.4229,-0.4229l-1.1406,-2.89355zM18.5234,8.50564c0.1476,-0.46488 0.8056,-0.46488 0.9532,0l0.166,0.52539c0.0491,0.15515 0.171,0.27706 0.3262,0.32617l0.5253,0.16602c0.4653,0.14741 0.4652,0.80558 0,0.95308l-0.5253,0.167c-0.1551,0.0492 -0.2771,0.1702 -0.3262,0.3252l-0.166,0.5254c-0.1474,0.4655 -0.8058,0.4655 -0.9532,0l-0.166,-0.5254c-0.0491,-0.155 -0.1711,-0.276 -0.3262,-0.3252l-0.5253,-0.167c-0.4652,-0.1475 -0.4653,-0.80567 0,-0.95308l0.5253,-0.16602c0.1552,-0.04911 0.2771,-0.17102 0.3262,-0.32617zM14.5234,4.00564c0.1476,-0.46488 0.8056,-0.46488 0.9532,0l0.166,0.52539c0.0491,0.15516 0.171,0.27706 0.3262,0.32617l0.5253,0.16602c0.4653,0.14741 0.4652,0.80561 0,0.95312l-0.5253,0.16699c-0.1551,0.04912 -0.2771,0.17013 -0.3262,0.3252l-0.166,0.52539c-0.1474,0.46546 -0.8058,0.46546 -0.9532,0l-0.166,-0.52539c-0.0491,-0.15507 -0.1711,-0.27608 -0.3262,-0.3252l-0.5253,-0.16699c-0.4652,-0.14751 -0.4653,-0.80571 0,-0.95312l0.5253,-0.16602c0.1552,-0.04911 0.2771,-0.17101 0.3262,-0.32617z" fill="#002B51"/>
</svg>
