<svg width="24" height="24" viewBox="0 0 24 24" fill="none" xmlns="http://www.w3.org/2000/svg">
<path d="M10.5,6.24976c0.3078,0 0.5841,0.18841 0.6973,0.47461l1.7187,4.35843l4.3594,1.7197c0.2862,0.1131 0.4745,0.3895 0.4746,0.6973c0,0.3078 -0.1883,0.5841 -0.4746,0.6972l-4.3594,1.7188l-1.7187,4.3594c-0.1131,0.2863 -0.3894,0.4746 -0.6973,0.4746c-0.3079,0 -0.58418,-0.1883 -0.69727,-0.4746l-1.71972,-4.3594l-4.3584,-1.7188c-0.28628,-0.1131 -0.47461,-0.3894 -0.47461,-0.6972c0.00011,-0.3078 0.18836,-0.5842 0.47461,-0.6973l4.3584,-1.7197l1.71972,-4.35843l0.04981,-0.10254c0.13294,-0.22772 0.37816,-0.37207 0.64746,-0.37207zM18.5234,8.50562c0.1476,-0.46485 0.8056,-0.46485 0.9532,0l0.166,0.52539c0.0491,0.15516 0.171,0.27707 0.3262,0.32618l0.5253,0.16601c0.4653,0.14741 0.4652,0.8056 0,0.9531l-0.5253,0.167c-0.1551,0.0491 -0.2771,0.1701 -0.3262,0.3252l-0.166,0.5254c-0.1474,0.4655 -0.8058,0.4655 -0.9532,0l-0.166,-0.5254c-0.0491,-0.1551 -0.1711,-0.2761 -0.3262,-0.3252l-0.5253,-0.167c-0.4652,-0.1475 -0.4653,-0.80569 0,-0.9531l0.5253,-0.16601c0.1552,-0.04911 0.2771,-0.17102 0.3262,-0.32618zM14.5234,4.00562c0.1476,-0.46485 0.8056,-0.46485 0.9532,0l0.166,0.52539c0.0491,0.15516 0.171,0.27707 0.3262,0.32618l0.5253,0.16601c0.4653,0.14741 0.4652,0.80561 0,0.95313l-0.5253,0.16699c-0.1551,0.04911 -0.2771,0.17013 -0.3262,0.32519l-0.166,0.5254c-0.1474,0.46548 -0.8058,0.46548 -0.9532,0l-0.166,-0.5254c-0.0491,-0.15506 -0.1711,-0.27608 -0.3262,-0.32519l-0.5253,-0.16699c-0.4652,-0.14752 -0.4653,-0.80572 0,-0.95313l0.5253,-0.16601c0.1552,-0.04911 0.2771,-0.17102 0.3262,-0.32618z" fill="#002B51"/>
</svg>
