<svg width="24" height="24" viewBox="0 0 24 24" fill="none" xmlns="http://www.w3.org/2000/svg">
<path fill-rule="evenodd" clip-rule="evenodd" d="M15.6429,4.53128c0.0491,0.15516 0.1707,0.27671 0.3258,0.32582l0.5252,0.16622c0.4655,0.14734 0.4655,0.80605 0,0.95339l-0.5252,0.16622c-0.1551,0.04911 -0.2767,0.17066 -0.3258,0.32582l-0.1662,0.52518c-0.1473,0.46549 -0.8061,0.46549 -0.9534,0l-0.1662,-0.52518c-0.0491,-0.15516 -0.1707,-0.27671 -0.3258,-0.32582l-0.5252,-0.16622c-0.4655,-0.14733 -0.4655,-0.80605 0,-0.95339l0.5252,-0.16622c0.1551,-0.04911 0.2767,-0.17066 0.3258,-0.32582l0.1662,-0.52518c0.1473,-0.46549 0.8061,-0.46549 0.9534,0zM10.5,6.25004c0.3079,0 0.5842,0.18827 0.6973,0.47461l1.7187,4.35835l4.3594,1.7198c0.2863,0.1131 0.4746,0.3894 0.4746,0.6972c0,0.3079 -0.1883,0.5842 -0.4746,0.6973l-4.3594,1.7188l-1.7187,4.3593c-0.1131,0.2864 -0.3894,0.4746 -0.6973,0.4746c-0.3079,0 -0.58418,-0.1882 -0.69727,-0.4746l-1.71972,-4.3593l-4.3584,-1.7188c-0.28633,-0.1131 -0.47461,-0.3894 -0.47461,-0.6973c0,-0.3078 0.18828,-0.5841 0.47461,-0.6972l4.3584,-1.7198l1.71972,-4.35835l0.04981,-0.10254c0.13291,-0.22784 0.37806,-0.37207 0.64746,-0.37207zM9.35938,11.9366c-0.07624,0.1933 -0.22956,0.3466 -0.42286,0.4228l-2.89355,1.1406l2.89355,1.1407l0.07032,0.0322c0.15997,0.083 0.28579,0.2214 0.35254,0.3906l1.14062,2.8926l1.1406,-2.8926l0.0323,-0.0703c0.0829,-0.16 0.2213,-0.2858 0.3906,-0.3525l2.8926,-1.1407l-2.8926,-1.1406c-0.1933,-0.0762 -0.3466,-0.2295 -0.4229,-0.4228l-1.1406,-2.89359zM18.5233,8.5061c0.1473,-0.46549 0.8061,-0.46549 0.9534,0l0.1662,0.52518c0.0491,0.15516 0.1707,0.27671 0.3258,0.32582l0.5252,0.16622c0.4655,0.14734 0.4655,0.80608 0,0.95338l-0.5252,0.1662c-0.1551,0.0491 -0.2767,0.1707 -0.3258,0.3258l-0.1662,0.5252c-0.1473,0.4655 -0.8061,0.4655 -0.9534,0l-0.1662,-0.5252c-0.0491,-0.1551 -0.1707,-0.2767 -0.3258,-0.3258l-0.5252,-0.1662c-0.4655,-0.1473 -0.4655,-0.80604 0,-0.95338l0.5252,-0.16622c0.1551,-0.04911 0.2767,-0.17066 0.3258,-0.32582z" fill="#002B51"/>
</svg>
