<svg width="24" height="24" viewBox="0 0 24 24" fill="none" xmlns="http://www.w3.org/2000/svg">
<path fill-rule="evenodd" clip-rule="evenodd" d="M15.4767 4.0061C15.3294 3.54061 14.6706 3.54061 14.5233 4.0061L14.3571 4.53128C14.308 4.68644 14.1864 4.80799 14.0313 4.8571L13.5061 5.02332C13.0406 5.17066 13.0406 5.82938 13.5061 5.97671L14.0313 6.14293C14.1864 6.19204 14.308 6.31359 14.3571 6.46875L14.5233 6.99393C14.6706 7.45942 15.3294 7.45942 15.4767 6.99393L15.6429 6.46875C15.692 6.31359 15.8136 6.19204 15.9687 6.14293L16.4939 5.97671C16.9594 5.82937 16.9594 5.17066 16.4939 5.02332L15.9687 4.8571C15.8136 4.80799 15.692 4.68644 15.6429 4.53128L15.4767 4.0061ZM11.1977 6.72485C11.0847 6.43832 10.808 6.25002 10.5 6.25002C10.192 6.25002 9.91531 6.43832 9.8023 6.72485L8.08333 11.0834L3.72483 12.8023C3.43831 12.9153 3.25 13.192 3.25 13.5C3.25 13.808 3.43831 14.0847 3.72483 14.1977L8.08333 15.9167L9.8023 20.2752C9.91531 20.5617 10.192 20.75 10.5 20.75C10.808 20.75 11.0847 20.5617 11.1977 20.2752L12.9167 15.9167L17.2752 14.1977C17.5617 14.0847 17.75 13.808 17.75 13.5C17.75 13.192 17.5617 12.9153 17.2752 12.8023L12.9167 11.0834L11.1977 6.72485ZM18.5233 8.5061C18.6706 8.04061 19.3294 8.04061 19.4767 8.5061L19.6429 9.03128C19.692 9.18644 19.8136 9.30799 19.9687 9.3571L20.4939 9.52332C20.9594 9.67066 20.9594 10.3294 20.4939 10.4767L19.9687 10.6429C19.8136 10.692 19.692 10.8136 19.6429 10.9687L19.4767 11.4939C19.3294 11.9594 18.6706 11.9594 18.5233 11.4939L18.3571 10.9687C18.308 10.8136 18.1864 10.692 18.0313 10.6429L17.5061 10.4767C17.0406 10.3294 17.0406 9.67066 17.5061 9.52332L18.0313 9.3571C18.1864 9.30799 18.308 9.18644 18.3571 9.03128L18.5233 8.5061Z" fill="#002B51"/>
</svg>
