<svg width="24" height="24" viewBox="0 0 24 24" fill="none" xmlns="http://www.w3.org/2000/svg">
<path d="M10,7.25c0.3079,0 0.5842,0.18828 0.6973,0.47461l1.5771,3.99999l4.001,1.5781l0.1025,0.0498c0.2279,0.1329 0.3721,0.3781 0.3721,0.6475c0,0.2694 -0.1442,0.5146 -0.3721,0.6475l-0.1025,0.0498l-4.001,1.5771l-1.5771,4.001c-0.1131,0.2863 -0.3894,0.4746 -0.6973,0.4746c-0.2694,0 -0.51455,-0.1442 -0.64746,-0.3721l-0.04981,-0.1025l-1.57812,-4.001l-4,-1.5771c-0.28633,-0.1131 -0.47461,-0.3894 -0.47461,-0.6973c0,-0.3079 0.18828,-0.5842 0.47461,-0.6973l4,-1.5781l1.57812,-3.99999l0.04981,-0.10254c0.13291,-0.22784 0.37806,-0.37207 0.64746,-0.37207zM9.00098,12.5781c-0.07624,0.1933 -0.22956,0.3466 -0.42286,0.4229l-2.53417,0.999l2.53417,0.999l0.07032,0.0322c0.15993,0.083 0.2858,0.2215 0.35254,0.3907l0.99902,2.5332l0.999,-2.5332l0.0322,-0.0703c0.083,-0.16 0.2215,-0.2858 0.3907,-0.3526l2.5332,-0.999l-2.5332,-0.999c-0.1933,-0.0763 -0.3466,-0.2296 -0.4229,-0.4229l-0.999,-2.5342zM17,3.25c0.274,0 0.5266,0.14928 0.6582,0.38965l0.9551,1.74609l1.7471,0.95606c0.2403,0.13159 0.3896,0.38415 0.3896,0.6582c0,0.27405 -0.1493,0.52661 -0.3896,0.6582l-1.7471,0.95508l-0.9551,1.74712c-0.1316,0.2403 -0.3842,0.3896 -0.6582,0.3896c-0.274,0 -0.5266,-0.1493 -0.6582,-0.3896l-0.9561,-1.74712l-1.7461,-0.95508c-0.2403,-0.13159 -0.3896,-0.38415 -0.3896,-0.6582c0,-0.27405 0.1493,-0.52661 0.3896,-0.6582l1.7461,-0.95606l0.9561,-1.74609l0.0547,-0.08496c0.1401,-0.19001 0.3634,-0.30469 0.6035,-0.30469zM16.5977,6.29883c-0.0689,0.12584 -0.173,0.23 -0.2989,0.29883l-0.7363,0.40234l0.7363,0.40234l0.0908,0.0586c0.0853,0.06398 0.1565,0.14602 0.2081,0.24023l0.4023,0.73535l0.4023,-0.73535l0.0586,-0.09082c0.064,-0.08521 0.1461,-0.15648 0.2403,-0.20801l0.7353,-0.40234l-0.7353,-0.40234c-0.0942,-0.05153 -0.1763,-0.1228 -0.2403,-0.20801l-0.0586,-0.09082l-0.4023,-0.73633z" fill="#002B51"/>
</svg>
