<svg width="24" height="24" viewBox="0 0 24 24" fill="none" xmlns="http://www.w3.org/2000/svg">
<path fill-rule="evenodd" clip-rule="evenodd" d="M15.6429,4.53128c0.0491,0.15516 0.1707,0.27671 0.3258,0.32582l0.5252,0.16622c0.4655,0.14734 0.4655,0.80605 0,0.95339l-0.5252,0.16622c-0.1551,0.04911 -0.2767,0.17066 -0.3258,0.32582l-0.1662,0.52518c-0.1473,0.46549 -0.8061,0.46549 -0.9534,0l-0.1662,-0.52518c-0.0491,-0.15516 -0.1707,-0.27671 -0.3258,-0.32582l-0.5252,-0.16622c-0.4655,-0.14733 -0.4655,-0.80605 0,-0.95339l0.5252,-0.16622c0.1551,-0.04911 0.2767,-0.17066 0.3258,-0.32582l0.1662,-0.52518c0.1473,-0.46549 0.8061,-0.46549 0.9534,0zM12.916,11.083l4.3594,1.7198c0.2863,0.113 0.4746,0.3893 0.4746,0.6972c0,0.3079 -0.1883,0.5842 -0.4746,0.6973l-4.3594,1.7187l-1.7187,4.3594c-0.1131,0.2863 -0.3894,0.4746 -0.6973,0.4746c-0.3079,0 -0.58418,-0.1883 -0.69727,-0.4746l-1.71972,-4.3594l-4.3584,-1.7187c-0.28633,-0.1131 -0.47461,-0.3894 -0.47461,-0.6973c0,-0.3079 0.18828,-0.5842 0.47461,-0.6972l4.3584,-1.7198l1.71972,-4.35837l0.04981,-0.10254c0.13291,-0.22784 0.37806,-0.37207 0.64746,-0.37207c0.3079,0 0.5842,0.18827 0.6973,0.47461zM18.5233,8.5061c0.1473,-0.46549 0.8061,-0.46549 0.9534,0l0.1662,0.52518c0.0491,0.15516 0.1707,0.27671 0.3258,0.32582l0.5252,0.16622c0.4655,0.14734 0.4655,0.80608 0,0.95338l-0.5252,0.1662c-0.1551,0.0491 -0.2767,0.1707 -0.3258,0.3258l-0.1662,0.5252c-0.1473,0.4655 -0.8061,0.4655 -0.9534,0l-0.1662,-0.5252c-0.0491,-0.1551 -0.1707,-0.2767 -0.3258,-0.3258l-0.5252,-0.1662c-0.4655,-0.1473 -0.4655,-0.80604 0,-0.95338l0.5252,-0.16622c0.1551,-0.04911 0.2767,-0.17066 0.3258,-0.32582z" fill="#002B51"/>
</svg>
