<svg width="24" height="24" viewBox="0 0 24 24" fill="none" xmlns="http://www.w3.org/2000/svg">
<path fill-rule="evenodd" clip-rule="evenodd" d="M18.6133,5.38673l1.7466,0.95525c0.2405,0.13155 0.3901,0.38386 0.3901,0.65802c0,0.27416 -0.1496,0.52647 -0.3901,0.65802l-1.7466,0.95525l-0.9553,1.74663c-0.1315,0.2405 -0.3838,0.3901 -0.658,0.3901c-0.2742,0 -0.5265,-0.1496 -0.658,-0.3901l-0.9553,-1.74663l-1.7466,-0.95525c-0.2405,-0.13155 -0.3901,-0.38386 -0.3901,-0.65802c0,-0.27416 0.1496,-0.52647 0.3901,-0.65802l1.7466,-0.95525l0.9553,-1.74661c0.1315,-0.24053 0.3838,-0.39012 0.658,-0.39012c0.2742,0 0.5265,0.14959 0.658,0.39012zM12.2752,11.7248l4,1.5775c0.2865,0.113 0.4748,0.3897 0.4748,0.6977c0,0.308 -0.1883,0.5847 -0.4748,0.6977l-4,1.5775l-1.5775,4c-0.113,0.2865 -0.3897,0.4748 -0.6977,0.4748c-0.308,0 -0.58469,-0.1883 -0.6977,-0.4748l-1.57754,-4l-3.99993,-1.5775c-0.28652,-0.113 -0.47483,-0.3897 -0.47483,-0.6977c0,-0.308 0.18831,-0.5847 0.47483,-0.6977l3.99993,-1.5775l1.57754,-3.99997c0.11301,-0.28652 0.3897,-0.47483 0.6977,-0.47483c0.308,0 0.5847,0.18831 0.6977,0.47483z" fill="#002B51"/>
</svg>
