<svg width="24" height="24" viewBox="0 0 24 24" fill="none" xmlns="http://www.w3.org/2000/svg">
<path fill-rule="evenodd" clip-rule="evenodd" d="M15.6429,4.53128c0.0491,0.15516 0.1707,0.27671 0.3258,0.32582l0.5252,0.16622c0.4655,0.14734 0.4655,0.80605 0,0.95339l-0.5252,0.16622c-0.1551,0.04911 -0.2767,0.17066 -0.3258,0.32582l-0.1662,0.52518c-0.1473,0.46549 -0.8061,0.46549 -0.9534,0l-0.1662,-0.52518c-0.0491,-0.15516 -0.1707,-0.27671 -0.3258,-0.32582l-0.5252,-0.16622c-0.4655,-0.14733 -0.4655,-0.80605 0,-0.95339l0.5252,-0.16622c0.1551,-0.04911 0.2767,-0.17066 0.3258,-0.32582l0.1662,-0.52518c0.1473,-0.46549 0.8061,-0.46549 0.9534,0zM10.5,6.25004c0.308,0 0.5847,0.1883 0.6977,0.47483l1.719,4.35853l4.3585,1.7189c0.2865,0.113 0.4748,0.3897 0.4748,0.6977c0,0.308 -0.1883,0.5847 -0.4748,0.6977l-4.3585,1.719l-1.719,4.3585c-0.113,0.2865 -0.3897,0.4748 -0.6977,0.4748c-0.308,0 -0.58469,-0.1883 -0.6977,-0.4748l-1.71897,-4.3585l-4.3585,-1.719c-0.28652,-0.113 -0.47483,-0.3897 -0.47483,-0.6977c0,-0.308 0.18831,-0.5847 0.47483,-0.6977l4.3585,-1.7189l1.71897,-4.35853c0.11301,-0.28653 0.3897,-0.47483 0.6977,-0.47483zM10.5,9.04424l-1.14078,2.89246c-0.07623,0.1933 -0.22924,0.3463 -0.42253,0.4226l-2.89248,1.1407l2.89248,1.1408c0.19329,0.0763 0.3463,0.2293 0.42253,0.4225l1.14078,2.8925l1.1408,-2.8925c0.0762,-0.1932 0.2292,-0.3462 0.4225,-0.4225l2.8925,-1.1408l-2.8925,-1.1407c-0.1933,-0.0763 -0.3463,-0.2293 -0.4225,-0.4226zM18.5233,8.5061c0.1473,-0.46549 0.8061,-0.46549 0.9534,0l0.1662,0.52518c0.0491,0.15516 0.1707,0.27671 0.3258,0.32582l0.5252,0.16622c0.4655,0.14734 0.4655,0.80608 0,0.95338l-0.5252,0.1662c-0.1551,0.0491 -0.2767,0.1707 -0.3258,0.3258l-0.1662,0.5252c-0.1473,0.4655 -0.8061,0.4655 -0.9534,0l-0.1662,-0.5252c-0.0491,-0.1551 -0.1707,-0.2767 -0.3258,-0.3258l-0.5252,-0.1662c-0.4655,-0.1473 -0.4655,-0.80604 0,-0.95338l0.5252,-0.16622c0.1551,-0.04911 0.2767,-0.17066 0.3258,-0.32582z" fill="#002B51"/>
</svg>
