<svg width="24" height="24" viewBox="0 0 24 24" fill="none" xmlns="http://www.w3.org/2000/svg">
<path fill-rule="evenodd" clip-rule="evenodd" d="M17.658 3.64012C17.5265 3.39959 17.2742 3.25 17 3.25C16.7258 3.25 16.4735 3.39959 16.342 3.64012L15.3867 5.38673L13.6401 6.34198C13.3996 6.47353 13.25 6.72584 13.25 7C13.25 7.27416 13.3996 7.52647 13.6401 7.65802L15.3867 8.61327L16.342 10.3599C16.4735 10.6004 16.7258 10.75 17 10.75C17.2742 10.75 17.5265 10.6004 17.658 10.3599L18.6133 8.61327L20.3599 7.65802C20.6004 7.52647 20.75 7.27416 20.75 7C20.75 6.72584 20.6004 6.47353 20.3599 6.34198L18.6133 5.38673L17.658 3.64012ZM10.6977 7.72483C10.5847 7.43831 10.308 7.25 10 7.25C9.692 7.25 9.41531 7.43831 9.3023 7.72483L7.72476 11.7248L3.72483 13.3023C3.43831 13.4153 3.25 13.692 3.25 14C3.25 14.308 3.43831 14.5847 3.72483 14.6977L7.72476 16.2752L9.3023 20.2752C9.41531 20.5617 9.692 20.75 10 20.75C10.308 20.75 10.5847 20.5617 10.6977 20.2752L12.2752 16.2752L16.2752 14.6977C16.5617 14.5847 16.75 14.308 16.75 14C16.75 13.692 16.5617 13.4153 16.2752 13.3023L12.2752 11.7248L10.6977 7.72483Z" fill="#002B51"/>
</svg>
