<svg width="24" height="24" viewBox="0 0 24 24" fill="none" xmlns="http://www.w3.org/2000/svg">
<path fill-rule="evenodd" clip-rule="evenodd" d="M18.6133,5.38574l1.7471,0.95606c0.2403,0.13159 0.3896,0.38415 0.3896,0.6582c0,0.27405 -0.1493,0.52661 -0.3896,0.6582l-1.7471,0.95508l-0.9551,1.74712c-0.1316,0.2403 -0.3842,0.3896 -0.6582,0.3896c-0.274,0 -0.5266,-0.1493 -0.6582,-0.3896l-0.9561,-1.74712l-1.7461,-0.95508c-0.2403,-0.13159 -0.3896,-0.38415 -0.3896,-0.6582c0,-0.27405 0.1493,-0.52661 0.3896,-0.6582l1.7461,-0.95606l0.9561,-1.74609l0.0547,-0.08496c0.1401,-0.19001 0.3634,-0.30469 0.6035,-0.30469c0.274,0 0.5266,0.14928 0.6582,0.38965zM12.2744,11.7246l4.001,1.5781l0.1025,0.0498c0.2279,0.1329 0.3721,0.3781 0.3721,0.6475c0,0.2694 -0.1442,0.5146 -0.3721,0.6475l-0.1025,0.0498l-4.001,1.5771l-1.5771,4.001c-0.1131,0.2863 -0.3894,0.4746 -0.6973,0.4746c-0.2694,0 -0.51455,-0.1442 -0.64746,-0.3721l-0.04981,-0.1025l-1.57812,-4.001l-4,-1.5771c-0.28633,-0.1131 -0.47461,-0.3894 -0.47461,-0.6973c0,-0.3079 0.18828,-0.5842 0.47461,-0.6973l4,-1.5781l1.57812,-3.99999l0.04981,-0.10254c0.13291,-0.22784 0.37806,-0.37207 0.64746,-0.37207c0.3079,0 0.5842,0.18828 0.6973,0.47461z" fill="#002B51"/>
</svg>
