<svg width="24" height="24" viewBox="0 0 24 24" fill="none" xmlns="http://www.w3.org/2000/svg">
<path d="M18,3.25c1.5188,0 2.75,1.23122 2.75,2.75v8c0,1.5188 -1.2312,2.75 -2.75,2.75h-5.7178l-3.53025,3.0889c-0.80815,0.7071 -2.07299,0.1333 -2.07324,-0.9405v-2.1484h-0.67871c-1.51878,0 -2.75,-1.2312 -2.75,-2.75v-8c0,-1.51878 1.23122,-2.75 2.75,-2.75zM7.91602,8.91699c-0.28701,0.00017 -0.56263,0.11448 -0.76563,0.31739c-0.20286,0.20311 -0.31738,0.47951 -0.31738,0.76662c0.00026,0.2869 0.11445,0.5627 0.31738,0.7656c0.203,0.2029 0.47862,0.3172 0.76563,0.3174c0.28708,0 0.56348,-0.1145 0.7666,-0.3174c0.20283,-0.2029 0.31712,-0.4787 0.31738,-0.7656c0,-0.28726 -0.11432,-0.56348 -0.31738,-0.76662c-0.20317,-0.20317 -0.47929,-0.31739 -0.7666,-0.31739zM11.999,8.91699c-0.2869,0.00026 -0.5627,0.11455 -0.7656,0.31739c-0.2028,0.2031 -0.3174,0.47958 -0.3174,0.76662c0.0003,0.2869 0.1146,0.5627 0.3174,0.7656c0.2029,0.2028 0.4787,0.3171 0.7656,0.3174c0.287,0 0.5635,-0.1146 0.7666,-0.3174c0.2029,-0.2029 0.3171,-0.4787 0.3174,-0.7656c0,-0.28726 -0.1143,-0.56348 -0.3174,-0.76662c-0.2031,-0.20307 -0.4793,-0.31739 -0.7666,-0.31739zM16.083,8.91699c-0.2869,0.00017 -0.5626,0.11458 -0.7656,0.31739c-0.2029,0.20311 -0.3174,0.47951 -0.3174,0.76662c0.0003,0.2869 0.1144,0.5627 0.3174,0.7656c0.203,0.2028 0.4787,0.3172 0.7656,0.3174c0.287,-0.0001 0.5636,-0.1146 0.7666,-0.3174c0.2027,-0.2029 0.3171,-0.4788 0.3174,-0.7656c0,-0.28719 -0.1144,-0.56349 -0.3174,-0.76662c-0.2031,-0.20309 -0.4794,-0.3173 -0.7666,-0.31739z" fill="#002B51"/>
</svg>
