<svg width="24" height="24" viewBox="0 0 24 24" fill="none" xmlns="http://www.w3.org/2000/svg">
<path fill-rule="evenodd" clip-rule="evenodd" d="M7.75039,7.25h7.74961c1.2426,0 2.25,1.00736 2.25,2.25v3.75h1.7504c0.4142,0 0.75,-0.3358 0.75,-0.75v-7c0,-0.41421 -0.3358,-0.75 -0.75,-0.75h-11.00001c-0.41421,0 -0.75,0.33579 -0.75,0.75zM6.25039,7.25v-1.75c0,-1.24264 1.00736,-2.25 2.25,-2.25h11.00001c1.2426,0 2.25,1.00736 2.25,2.25v7c0,1.2426 -1.0074,2.25 -2.25,2.25h-1.7504v1.75c0,1.2426 -1.0074,2.25 -2.25,2.25h-5.25l-3,2.25c-0.82405,0.618 -2,0.0301 -2,-1v-1.25h-0.75c-1.24264,0 -2.25,-1.0074 -2.25,-2.25v-7c0,-1.24264 1.00736,-2.25 2.25,-2.25z" fill="#002B51"/>
</svg>
