<svg width="24" height="24" viewBox="0 0 24 24" fill="none" xmlns="http://www.w3.org/2000/svg">
<path d="M18,3.25c1.5188,0 2.75,1.23122 2.75,2.75v8c0,1.5188 -1.2312,2.75 -2.75,2.75h-5.7178l-3.53025,3.0889c-0.80815,0.7071 -2.07299,0.1333 -2.07324,-0.9405v-2.1484h-0.67871c-1.51878,0 -2.75,-1.2312 -2.75,-2.75v-8c0,-1.51878 1.23122,-2.75 2.75,-2.75zM7.91602,8.91602c-0.28674,0.00025 -0.56274,0.11475 -0.76563,0.31738c-0.17743,0.17758 -0.28777,0.41156 -0.3125,0.65918l-0.00488,0.10742c0.00017,0.2869 0.11457,0.5626 0.31738,0.7656c0.20293,0.203 0.47866,0.3171 0.76563,0.3174c0.28704,-0.0001 0.56354,-0.1145 0.7666,-0.3174c0.2027,-0.2029 0.31721,-0.4787 0.31738,-0.7656c-0.00017,-0.28708 -0.11437,-0.56359 -0.31738,-0.7666c-0.20306,-0.20288 -0.47956,-0.3173 -0.7666,-0.31738zM12,8.91602c-0.2867,0.00017 -0.5627,0.11487 -0.7656,0.31738c-0.2028,0.20298 -0.3172,0.47967 -0.3174,0.7666c0.0002,0.2871 0.1144,0.5626 0.3174,0.7656c0.203,0.203 0.4785,0.3172 0.7656,0.3174c0.2869,-0.0002 0.5636,-0.1146 0.7666,-0.3174c0.2025,-0.2029 0.3172,-0.4789 0.3174,-0.7656c-0.0002,-0.28708 -0.1144,-0.56359 -0.3174,-0.7666c-0.203,-0.20301 -0.4795,-0.31721 -0.7666,-0.31738zM16.083,8.91602c-0.2868,0.00017 -0.5627,0.11477 -0.7656,0.31738c-0.2028,0.20298 -0.3172,0.47967 -0.3174,0.7666c0.0002,0.287 0.1145,0.5626 0.3174,0.7656c0.203,0.203 0.4785,0.3172 0.7656,0.3174c0.2871,-0.0001 0.5636,-0.1145 0.7666,-0.3174c0.2026,-0.2029 0.3172,-0.4788 0.3174,-0.7656c-0.0002,-0.28708 -0.1144,-0.56359 -0.3174,-0.7666c-0.2031,-0.20299 -0.4795,-0.3173 -0.7666,-0.31738z" fill="#002B51"/>
</svg>
