<svg width="24" height="24" viewBox="0 0 24 24" fill="none" xmlns="http://www.w3.org/2000/svg">
<path fill-rule="evenodd" clip-rule="evenodd" d="M7.75 5.5C7.75 5.08579 8.08579 4.75 8.5 4.75H19.5C19.9142 4.75 20.25 5.08579 20.25 5.5V12.5C20.25 12.9142 19.9142 13.25 19.5 13.25H17.75V9.5C17.75 8.25736 16.7426 7.25 15.5 7.25H7.75V5.5ZM6.25 7.25V5.5C6.25 4.25736 7.25736 3.25 8.5 3.25H19.5C20.7426 3.25 21.75 4.25736 21.75 5.5V12.5C21.75 13.7426 20.7426 14.75 19.5 14.75H17.75V16.5C17.75 17.7426 16.7426 18.75 15.5 18.75H10.25L7.25 21C6.42595 21.618 5.25 21.0301 5.25 20V18.75H4.5C3.25736 18.75 2.25 17.7426 2.25 16.5V9.5C2.25 8.25736 3.25736 7.25 4.5 7.25H6.25Z" fill="#002B51"/>
</svg>
