<svg width="24" height="24" viewBox="0 0 24 24" fill="none" xmlns="http://www.w3.org/2000/svg">
<path d="M18,3.25c1.5188,0 2.75,1.23122 2.75,2.75v8c0,1.5188 -1.2312,2.75 -2.75,2.75h-5.7178l-3.53025,3.0889c-0.80815,0.7071 -2.07299,0.1333 -2.07324,-0.9405v-2.1484h-0.67871c-1.51878,0 -2.75,-1.2312 -2.75,-2.75v-8c0,-1.51878 1.23122,-2.75 2.75,-2.75zM6,4.75c-0.69036,0 -1.25,0.55964 -1.25,1.25v8c0,0.6904 0.55964,1.25 1.25,1.25h1.42871c0.41415,0.0001 0.75,0.3358 0.75,0.75v2.3467l3.32719,-2.9112l0.1093,-0.0791c0.1157,-0.0691 0.2484,-0.1064 0.3848,-0.1064h6c0.6904,0 1.25,-0.5596 1.25,-1.25v-8c0,-0.69036 -0.5596,-1.25 -1.25,-1.25z" fill="#002B51"/>
</svg>
