<svg width="24" height="24" viewBox="0 0 24 24" fill="none" xmlns="http://www.w3.org/2000/svg">
<path d="M19.7305,3.26172c1.1343,0.11542 2.0195,1.07345 2.0195,2.23828v7c0,1.1648 -0.8852,2.1229 -2.0195,2.2383l-0.2305,0.0117h-1.75v1.75c0,1.2426 -1.0074,2.25 -2.25,2.25h-5.25l-3,2.25c-0.82405,0.618 -2,0.0301 -2,-1v-1.25h-0.75c-1.24264,0 -2.25,-1.0074 -2.25,-2.25v-7c0,-1.24264 1.00736,-2.25 2.25,-2.25h1.75v-1.75c0,-1.24251 1.00754,-2.24979 2.25,-2.25h11zM8.5,4.75c-0.41403,0.00021 -0.75,0.33592 -0.75,0.75v1.75h7.75l0.2305,0.01172c0.0742,0.00756 0.1478,0.0186 0.2197,0.0332c0.0112,0.00228 0.022,0.00635 0.0332,0.00879c0.0588,0.01289 0.1168,0.02753 0.1738,0.04492c0.0241,0.00735 0.0476,0.01629 0.0713,0.02442c0.0432,0.01476 0.086,0.0296 0.1279,0.04687c0.0281,0.01158 0.0555,0.02444 0.0831,0.03711c0.0372,0.01716 0.0742,0.03461 0.1103,0.05371c0.0271,0.01434 0.0536,0.02953 0.0801,0.04492c0.033,0.01923 0.0657,0.03875 0.0976,0.05957c0.0306,0.01997 0.0603,0.04111 0.0899,0.0625c0.026,0.01885 0.052,0.03771 0.0771,0.05762c0.0271,0.02139 0.0531,0.04383 0.0791,0.06641c0.031,0.02691 0.0614,0.05446 0.0909,0.08301c0.0183,0.01779 0.0359,0.03628 0.0537,0.05468c0.0281,0.02921 0.0554,0.05915 0.082,0.08985c0.0235,0.02711 0.0462,0.05478 0.0684,0.083c0.0188,0.02397 0.0368,0.04851 0.0546,0.07325c0.0224,0.03089 0.0447,0.0617 0.0655,0.09375c0.0202,0.03124 0.0389,0.06341 0.0576,0.0957c0.0148,0.0256 0.0301,0.05092 0.0439,0.07715c0.0222,0.04206 0.042,0.08532 0.0616,0.1289c0.0087,0.01954 0.0181,0.03877 0.0263,0.0586c0.0214,0.05144 0.0401,0.10394 0.0576,0.15723c0.0049,0.01466 0.0102,0.02915 0.0147,0.04394c0.0156,0.05102 0.029,0.10279 0.041,0.15527c0.0045,0.01953 0.0097,0.03889 0.0137,0.0586c0.0289,0.14401 0.0449,0.29277 0.0449,0.44531v3.75h1.75l0.0771,-0.0039c0.378,-0.0386 0.6729,-0.3579 0.6729,-0.7461v-7l-0.0039,-0.07715c-0.0361,-0.35259 -0.3164,-0.63292 -0.669,-0.66894l-0.0771,-0.00391z" fill="#002B51"/>
</svg>
