<svg width="24" height="24" viewBox="0 0 24 24" fill="none" xmlns="http://www.w3.org/2000/svg">
<path d="M18,3.25c1.5188,0 2.75,1.23122 2.75,2.75v8c0,1.5188 -1.2312,2.75 -2.75,2.75h-5.7178l-3.53023,3.0889c-0.80815,0.7071 -2.07299,0.1333 -2.07324,-0.9405v-2.1484h-0.67871c-1.51879,0 -2.75,-1.2312 -2.75,-2.75v-8c0,-1.51878 1.23121,-2.75 2.75,-2.75zM6.00002,4.75c-0.69036,0 -1.25,0.55964 -1.25,1.25v8c0,0.6904 0.55964,1.25 1.25,1.25h1.42871c0.41415,0.0001 0.75,0.3358 0.75,0.75v2.3467l3.32717,-2.9112l0.1093,-0.0791c0.1157,-0.0691 0.2485,-0.1064 0.3848,-0.1064h6c0.6904,0 1.25,-0.5596 1.25,-1.25v-8c0,-0.69036 -0.5596,-1.25 -1.25,-1.25zM7.91603,8.91699c0.28732,0 0.56344,0.11422 0.7666,0.31739c0.20306,0.20314 0.31739,0.47936 0.31739,0.76662c-0.00026,0.2869 -0.11456,0.5627 -0.31739,0.7656c-0.20312,0.2029 -0.47951,0.3174 -0.7666,0.3174c-0.28701,-0.0002 -0.56263,-0.1145 -0.76562,-0.3174c-0.20294,-0.2029 -0.31713,-0.4787 -0.31739,-0.7656c0,-0.28711 0.11453,-0.56351 0.31739,-0.76662c0.20299,-0.20291 0.47861,-0.31722 0.76562,-0.31739zM11.999,8.91699c0.2873,0 0.5635,0.11432 0.7666,0.31739c0.2031,0.20314 0.3174,0.47936 0.3174,0.76662c-0.0002,0.2869 -0.1145,0.5627 -0.3174,0.7656c-0.2031,0.2028 -0.4795,0.3174 -0.7666,0.3174c-0.2869,-0.0003 -0.5627,-0.1146 -0.7656,-0.3174c-0.2028,-0.2029 -0.3171,-0.4787 -0.3174,-0.7656c0,-0.28704 0.1147,-0.56352 0.3174,-0.76662c0.2029,-0.20284 0.4787,-0.31713 0.7656,-0.31739zM16.083,8.91699c0.2872,0.00009 0.5635,0.1143 0.7666,0.31739c0.203,0.20313 0.3174,0.47943 0.3174,0.76662c-0.0003,0.2868 -0.1146,0.5627 -0.3174,0.7656c-0.203,0.2028 -0.4796,0.3173 -0.7666,0.3174c-0.2869,-0.0002 -0.5626,-0.1146 -0.7656,-0.3174c-0.2029,-0.2029 -0.3171,-0.4787 -0.3174,-0.7656c0,-0.28711 0.1145,-0.56351 0.3174,-0.76662c0.203,-0.20281 0.4787,-0.31722 0.7656,-0.31739z" fill="#002B51"/>
</svg>
