<svg width="24" height="24" viewBox="0 0 24 24" fill="none" xmlns="http://www.w3.org/2000/svg">
<path fill-rule="evenodd" clip-rule="evenodd" d="M19.5004,4.75h-11.00001c-0.41421,0 -0.75,0.33579 -0.75,0.75v1.75h7.74961c0.0001,0 0.0003,0 0.0004,0c0.2822,0.00005 0.5523,0.05207 0.8012,0.14701c0.0444,0.01692 0.0881,0.03521 0.1311,0.05482c0.7772,0.35441 1.3177,1.13807 1.3177,2.04817v3.75h1.75l0.0771,-0.0039c0.378,-0.0386 0.6729,-0.3579 0.6729,-0.7461v-7l-0.0039,-0.07715c-0.036,-0.3526 -0.3164,-0.63291 -0.669,-0.66894zM6.25039,7.25v-1.75c0,-1.24264 1.00736,-2.25 2.25,-2.25h11.00001l0.2305,0.01172c1.1343,0.11542 2.0195,1.07345 2.0195,2.23828v7c0,1.1648 -0.8852,2.1229 -2.0195,2.2383l-0.2305,0.0117h-1.7504v1.75c0,1.2426 -1.0074,2.25 -2.25,2.25h-5.25l-3,2.25c-0.82405,0.618 -2,0.0301 -2,-1v-1.25h-0.75c-1.24264,0 -2.25,-1.0074 -2.25,-2.25v-7c0,-1.24264 1.00736,-2.25 2.25,-2.25z" fill="#002B51"/>
</svg>
