<svg width="24" height="24" viewBox="0 0 24 24" fill="none" xmlns="http://www.w3.org/2000/svg">
<path d="M19.7305,3.26172c1.1343,0.11542 2.0195,1.07345 2.0195,2.23828v7c0,1.1648 -0.8852,2.1229 -2.0195,2.2383l-0.2305,0.0117h-1.75v1.75c0,1.2426 -1.0074,2.25 -2.25,2.25h-5.25l-3,2.25c-0.82405,0.618 -2,0.0301 -2,-1v-1.25h-0.75c-1.24264,0 -2.25,-1.0074 -2.25,-2.25v-7c0,-1.24264 1.00736,-2.25 2.25,-2.25h1.75v-1.75c0,-1.24264 1.00736,-2.25 2.25,-2.25h11zM4.5,8.75c-0.41421,0 -0.75,0.33579 -0.75,0.75v7c0,0.4142 0.33579,0.75 0.75,0.75h1.5c0.41421,0 0.75,0.3358 0.75,0.75v1.499l2.7998,-2.0986l0.10254,-0.0645c0.10682,-0.0559 0.22591,-0.0859 0.34766,-0.0859h5.5c0.4142,0 0.75,-0.3358 0.75,-0.75v-7c0,-0.07539 -0.0145,-0.14718 -0.0352,-0.21582c-0.076,-0.25227 -0.2785,-0.4476 -0.5361,-0.51074c-0.0332,-0.00814 -0.0668,-0.01598 -0.1016,-0.01953l-0.0771,-0.00391zM8.5,4.75c-0.41421,0 -0.75,0.33579 -0.75,0.75v1.75h7.75l0.2305,0.01172c0.0743,0.00756 0.1477,0.01857 0.2197,0.0332c0.0066,0.00134 0.013,0.00349 0.0195,0.00488c0.0659,0.01399 0.1308,0.0302 0.1944,0.04981c0.0129,0.00398 0.0253,0.00947 0.038,0.01367c0.0523,0.01717 0.1038,0.03582 0.1543,0.05664c0.0281,0.01158 0.0555,0.02444 0.0831,0.03711c0.0368,0.01698 0.0736,0.03386 0.1093,0.05274c0.0313,0.01651 0.0615,0.03481 0.0918,0.05273c0.027,0.01591 0.0539,0.03184 0.0801,0.04883c0.0342,0.02218 0.0677,0.04538 0.1006,0.06933c0.0247,0.01795 0.0493,0.03578 0.0732,0.05469c0.0271,0.02139 0.0531,0.04383 0.0791,0.06641c0.031,0.02692 0.0614,0.05445 0.0909,0.08301c0.0183,0.01779 0.0359,0.03628 0.0537,0.05468c0.0281,0.02921 0.0554,0.05915 0.082,0.08985c0.0235,0.02711 0.0462,0.05478 0.0684,0.083c0.0188,0.02398 0.0368,0.04851 0.0546,0.07325c0.0224,0.03089 0.0447,0.0617 0.0655,0.09375c0.0185,0.02867 0.0354,0.05834 0.0527,0.08789c0.0183,0.03132 0.0369,0.06246 0.0537,0.09472c0.0152,0.02904 0.0281,0.05911 0.042,0.08887c0.0155,0.03309 0.032,0.06567 0.0459,0.09961c0.0154,0.03778 0.0286,0.07646 0.042,0.11523c0.0089,0.02566 0.0184,0.05109 0.0264,0.07715c0.0127,0.04173 0.0228,0.08424 0.0332,0.12696c0.0068,0.02825 0.0147,0.05629 0.0205,0.08496c0.0289,0.14399 0.0449,0.2928 0.0449,0.44531v3.75h1.75l0.0771,-0.0039c0.378,-0.0386 0.6729,-0.3579 0.6729,-0.7461v-7l-0.0039,-0.07715c-0.036,-0.3526 -0.3163,-0.63291 -0.669,-0.66894l-0.0771,-0.00391z" fill="#002B51"/>
</svg>
