<svg width="24" height="24" viewBox="0 0 24 24" fill="none" xmlns="http://www.w3.org/2000/svg">
<path d="M18,3.25c1.5188,0 2.75,1.23122 2.75,2.75v8c0,1.5188 -1.2312,2.75 -2.75,2.75h-5.7178l-3.53023,3.0889c-0.80815,0.7071 -2.07299,0.1333 -2.07324,-0.9405v-2.1484h-0.67871c-1.51879,0 -2.75,-1.2312 -2.75,-2.75v-8c0,-1.51878 1.23121,-2.75 2.75,-2.75zM6.00002,4.75c-0.69036,0 -1.25,0.55964 -1.25,1.25v8c0,0.6904 0.55964,1.25 1.25,1.25h1.42871c0.41415,0.0001 0.75,0.3358 0.75,0.75v2.3467l3.32717,-2.9112l0.1093,-0.0791c0.1157,-0.0691 0.2485,-0.1064 0.3848,-0.1064h6c0.6904,0 1.25,-0.5596 1.25,-1.25v-8c0,-0.69036 -0.5596,-1.25 -1.25,-1.25zM7.91603,8.91602c0.28705,0.00008 0.56355,0.1145 0.7666,0.31738c0.20301,0.20301 0.31721,0.47952 0.31739,0.7666c-0.00018,0.2869 -0.11468,0.5627 -0.31739,0.7656c-0.20305,0.2029 -0.47955,0.3173 -0.7666,0.3174c-0.28696,-0.0003 -0.56269,-0.1144 -0.76562,-0.3174c-0.20281,-0.203 -0.31721,-0.4787 -0.31739,-0.7656l0.00489,-0.10742c0.02473,-0.24762 0.13507,-0.4816 0.3125,-0.65918c0.20288,-0.20263 0.47888,-0.31713 0.76562,-0.31738zM12,8.91602c0.2871,0.00017 0.5636,0.11437 0.7666,0.31738c0.203,0.20301 0.3172,0.47952 0.3174,0.7666c-0.0002,0.2867 -0.1149,0.5627 -0.3174,0.7656c-0.203,0.2028 -0.4797,0.3172 -0.7666,0.3174c-0.2871,-0.0002 -0.5626,-0.1144 -0.7656,-0.3174c-0.203,-0.203 -0.3172,-0.4785 -0.3174,-0.7656c0.0002,-0.28693 0.1146,-0.56362 0.3174,-0.7666c0.2029,-0.20251 0.4789,-0.31721 0.7656,-0.31738zM16.083,8.91602c0.2871,0.00008 0.5636,0.11439 0.7666,0.31738c0.203,0.20301 0.3172,0.47952 0.3174,0.7666c-0.0002,0.2868 -0.1148,0.5627 -0.3174,0.7656c-0.203,0.2029 -0.4795,0.3173 -0.7666,0.3174c-0.2871,-0.0002 -0.5626,-0.1144 -0.7656,-0.3174c-0.2029,-0.203 -0.3172,-0.4786 -0.3174,-0.7656c0.0002,-0.28693 0.1146,-0.56362 0.3174,-0.7666c0.2029,-0.20261 0.4788,-0.31721 0.7656,-0.31738z" fill="#002B51"/>
</svg>
