<svg width="24" height="24" viewBox="0 0 24 24" fill="none" xmlns="http://www.w3.org/2000/svg">
<path d="M19.5,3.25c1.2426,0 2.25,1.00736 2.25,2.25v7c0,1.2426 -1.0074,2.25 -2.25,2.25h-1.75v1.75c0,1.2426 -1.0074,2.25 -2.25,2.25h-5.25l-3,2.25c-0.82405,0.618 -2,0.0301 -2,-1v-1.25h-0.75c-1.24264,0 -2.25,-1.0074 -2.25,-2.25v-7c0,-1.24264 1.00736,-2.25 2.25,-2.25h1.75v-1.75c0,-1.24251 1.00754,-2.24979 2.25,-2.25zM8.5,4.75c-0.41403,0.00021 -0.75,0.33592 -0.75,0.75v1.75h7.75c0.1556,0 0.3074,0.01584 0.4541,0.0459c0.1463,0.02998 0.2874,0.07399 0.4219,0.13086c0.4038,0.17084 0.7476,0.4562 0.9902,0.81543c0.1213,0.17953 0.2175,0.37752 0.2832,0.58886c0.0657,0.21128 0.1006,0.43606 0.1006,0.66895v3.75h1.75c0.4142,0 0.75,-0.3358 0.75,-0.75v-7c0,-0.41421 -0.3358,-0.75 -0.75,-0.75z" fill="#002B51"/>
</svg>
