<svg width="24" height="24" viewBox="0 0 24 24" fill="none" xmlns="http://www.w3.org/2000/svg">
<path fill-rule="evenodd" clip-rule="evenodd" d="M10.6782,10.512c0.1498,0.8986 0.0095,1.7727 -0.69199,2.4741c-0.31746,0.3175 -0.75861,0.6043 -1.20754,0.8608c-0.4541,0.2595 -0.9682,0.5166 -1.46094,0.7629h-0.00005l-0.01015,0.0051c-0.96765,0.4838 -1.64485,0.9448 -2.07132,1.3712c-0.42507,0.4251 -0.54864,0.7605 -0.54864,1.0139c0,0.123 0.00076,0.2104 0.00248,0.2738c0.04833,0.0057 0.11178,0.0116 0.19403,0.0164c0.24286,0.0142 0.56708,0.0172 1.02491,0.0214l0.09431,0.0009h11.9968c0.5084,0 0.8605,-0.0003 1.1181,-0.0146c0.0814,-0.0045 0.1441,-0.0102 0.1917,-0.0158c0.0019,-0.0646 0.0027,-0.1544 0.0027,-0.2821c0,-0.2534 -0.1236,-0.5888 -0.5487,-1.0139c-0.4264,-0.4264 -1.1036,-0.8874 -2.0713,-1.3712l-0.0101,-0.005v-0.0001c-0.4928,-0.2463 -1.0069,-0.5034 -1.461,-0.7629c-0.449,-0.2565 -0.8901,-0.5433 -1.2076,-0.8608c-0.7014,-0.7014 -0.8417,-1.5755 -0.692,-2.4741c0.1436,-0.86148 0.5624,-1.81773 1.0633,-2.81946c0.4674,-0.93496 0.6091,-1.6284 0.5858,-2.12943c-0.0224,-0.48257 -0.1982,-0.82153 -0.4536,-1.07739c-0.5544,-0.55533 -1.5746,-0.79822 -2.5173,-0.79822c-0.9369,0 -1.9579,0.24262 -2.51389,0.79864c-0.25627,0.25627 -0.4327,0.59548 -0.45567,1.07781c-0.02384,0.50073 0.11709,1.19388 0.58445,2.12859c0.50091,1.00173 0.91961,1.95798 1.06321,2.81946zM15.4905,3.51428c0.4933,0.49414 0.8155,1.15518 0.854,1.98511c0.0377,0.81147 -0.197,1.74303 -0.7295,2.80807c-0.4991,0.99827 -0.8304,1.79204 -0.9368,2.43054c-0.1002,0.6014 0.0095,0.9773 0.308,1.2759c0.1826,0.1825 0.4914,0.3957 0.9175,0.6392c0.4177,0.2387 0.8997,0.4799 1.4038,0.732c1.0324,0.5162 1.8552,1.0552 2.4287,1.6288c0.5749,0.5749 0.9514,1.2395 0.9514,1.9861v0.0432v0c0.0002,0.2101 0.0005,0.4672 -0.0476,0.6841c-0.0295,0.1324 -0.0829,0.285 -0.1875,0.4303c-0.1079,0.1499 -0.2456,0.2576 -0.395,0.3323c-0.2636,0.1319 -0.5791,0.1651 -0.863,0.1809c-0.131,0.0073 -0.2791,0.0114 -0.4444,0.0137v1.3155c0,0.9665 -0.7835,1.75 -1.75,1.75h-10.00003c-0.96649,0 -1.75,-0.7835 -1.75,-1.75v-1.3213c-0.16648,-0.0034 -0.31535,-0.0082 -0.44651,-0.0159c-0.28166,-0.0165 -0.59497,-0.0493 -0.85634,-0.1776c-0.14858,-0.0729 -0.28724,-0.1789 -0.39658,-0.3284c-0.10614,-0.1451 -0.16032,-0.298 -0.19011,-0.4307c-0.04855,-0.2162 -0.04825,-0.473 -0.04799,-0.6824l0.00003,-0.0437c0,-0.7466 0.37643,-1.4112 0.95137,-1.9861c0.57352,-0.5736 1.39632,-1.1126 2.42867,-1.6288c0.50416,-0.2521 0.9861,-0.4933 1.40387,-0.732c0.42607,-0.2435 0.73491,-0.4567 0.91746,-0.6392c0.29855,-0.2986 0.40822,-0.6745 0.30799,-1.2759c-0.10643,-0.6385 -0.43764,-1.43227 -0.93678,-2.43054c-0.53264,-1.06529 -0.76671,-1.99714 -0.72805,-2.80891c0.03953,-0.83017 0.36311,-1.49096 0.85684,-1.98469c0.94398,-0.94398 2.42306,-1.20136 3.48616,-1.20136c1.0676,0 2.5474,0.25711 3.4904,1.20178zM17.2501,18.6875h-10.50003v1.3125c0,0.1381 0.11193,0.25 0.25,0.25h10.00003c0.138,0 0.25,-0.1119 0.25,-0.25z" fill="#002B51"/>
</svg>
