<svg width="24" height="24" viewBox="0 0 24 24" fill="none" xmlns="http://www.w3.org/2000/svg">
<path d="M12.0001,2.3125c1.0676,0 2.5472,0.25748 3.4902,1.20215c0.4932,0.49406 0.8159,1.15466 0.8545,1.98437c0.0376,0.81147 -0.197,1.74355 -0.7295,2.8086c-0.4991,0.99826 -0.8311,1.79208 -0.9375,2.43068c-0.1001,0.6012 0.0101,0.9769 0.3086,1.2754c0.1825,0.1825 0.491,0.3962 0.917,0.6396c0.4178,0.2387 0.9001,0.4794 1.4043,0.7315c1.0323,0.5161 1.8552,1.0553 2.4287,1.6289c0.5749,0.5749 0.9512,1.2397 0.9512,1.9863c0,0.2173 0.0037,0.4955 -0.0479,0.7275c-0.0294,0.1324 -0.083,0.2846 -0.1875,0.4297c-0.1079,0.1499 -0.2451,0.2583 -0.3945,0.333c-0.2637,0.1319 -0.5794,0.1649 -0.8633,0.1807c-0.1309,0.0073 -0.279,0.0094 -0.4443,0.0117v1.3174c0,0.9665 -0.7835,1.75 -1.75,1.75h-10.00002c-0.96649,0 -1.75,-0.7835 -1.75,-1.75v-1.3223c-0.16638,-0.0033 -0.3152,-0.0069 -0.44629,-0.0146c-0.28161,-0.0165 -0.59511,-0.0496 -0.85645,-0.1777c-0.14846,-0.0729 -0.28718,-0.1789 -0.39648,-0.3282c-0.10604,-0.1449 -0.16062,-0.298 -0.19043,-0.4306c-0.05198,-0.2315 -0.04785,-0.51 -0.04785,-0.7266c0,-0.7466 0.37624,-1.4114 0.95117,-1.9863c0.57353,-0.5736 1.39636,-1.1128 2.42871,-1.6289c0.50416,-0.2521 0.98653,-0.4928 1.4043,-0.7315c0.42601,-0.2434 0.73446,-0.4571 0.91699,-0.6396c0.2985,-0.2985 0.40873,-0.6742 0.30859,-1.2754c-0.10642,-0.6386 -0.43836,-1.43242 -0.9375,-2.43068c-0.53254,-1.06509 -0.76608,-1.99694 -0.72754,-2.8086c0.03954,-0.83017 0.36272,-1.49162 0.85645,-1.98535c0.94398,-0.94398 2.42325,-1.20117 3.48635,-1.20117zM6.75008,18.6875v1.3125c0,0.1381 0.11193,0.25 0.25,0.25h10.00002c0.138,0 0.25,-0.1119 0.25,-0.25v-1.3125zM12.0001,3.6875c-0.9369,0 -1.9577,0.24282 -2.51369,0.79883c-0.25619,0.25619 -0.433,0.59507 -0.45606,1.07715c-0.02384,0.50073 0.11761,1.19419 0.58496,2.1289c0.50079,1.00161 0.91889,1.95797 1.06249,2.81932c0.1498,0.8986 0.0101,1.7732 -0.69139,2.4746c-0.31746,0.3175 -0.75909,0.6039 -1.20801,0.8604c-0.45721,0.2612 -0.97491,0.5206 -1.47071,0.7685c-0.96764,0.4839 -1.64482,0.9447 -2.07128,1.3711c-0.42506,0.4251 -0.54883,0.7603 -0.54883,1.0137c0,0.1208 0.00029,0.2074 0.00195,0.2705c0.04839,0.0058 0.11169,0.0147 0.19434,0.0195c0.25975,0.0153 0.61323,0.0178 1.12304,0.0225h11.99319c0.5084,0 0.8606,-0.0003 1.1181,-0.0146c0.0815,-0.0046 0.1438,-0.0139 0.1914,-0.0196c0.0019,-0.0643 0.003,-0.1531 0.003,-0.2783c0,-0.2534 -0.1238,-0.5886 -0.5489,-1.0137c-0.4264,-0.4264 -1.1036,-0.8872 -2.0712,-1.3711c-0.4958,-0.2479 -1.0135,-0.5073 -1.4707,-0.7685c-0.449,-0.2566 -0.8906,-0.5429 -1.2081,-0.8604c-0.7014,-0.7014 -0.8411,-1.576 -0.6914,-2.4746c0.1437,-0.86135 0.5617,-1.81771 1.0625,-2.81932c0.4674,-0.93473 0.6091,-1.6279 0.586,-2.1289c-0.0224,-0.48257 -0.1977,-0.82227 -0.4531,-1.07813c-0.5544,-0.55528 -1.575,-0.79785 -2.5176,-0.79785z" fill="#002B51"/>
</svg>
