<svg width="24" height="24" viewBox="0 0 24 24" fill="none" xmlns="http://www.w3.org/2000/svg">
<path fill-rule="evenodd" clip-rule="evenodd" d="M8.51394,3.51386c0.94398,-0.94398 2.42306,-1.20136 3.48616,-1.20136c1.0676,0 2.5474,0.25711 3.4904,1.20178c0.4933,0.49414 0.8155,1.15518 0.854,1.98511c0.0377,0.81147 -0.197,1.74303 -0.7295,2.80807c-0.4991,0.99827 -0.8304,1.79204 -0.9368,2.43054c-0.1002,0.6014 0.0095,0.9773 0.308,1.2759c0.1826,0.1825 0.4914,0.3957 0.9175,0.6392c0.4177,0.2387 0.8997,0.4799 1.4038,0.732c1.0324,0.5162 1.8552,1.0552 2.4287,1.6288c0.5749,0.5749 0.9514,1.2395 0.9514,1.9861v0.0432v0c0.0002,0.2101 0.0005,0.4672 -0.0476,0.6841c-0.0295,0.1324 -0.0829,0.285 -0.1875,0.4303c-0.1079,0.1499 -0.2456,0.2576 -0.395,0.3323c-0.2636,0.1319 -0.5791,0.1651 -0.863,0.1809c-0.131,0.0073 -0.2791,0.0114 -0.4444,0.0137v1.3155c0,0.9665 -0.7835,1.75 -1.75,1.75h-10.00003c-0.96649,0 -1.75,-0.7835 -1.75,-1.75v-1.3213c-0.16648,-0.0034 -0.31535,-0.0082 -0.44651,-0.0159c-0.28166,-0.0165 -0.59497,-0.0493 -0.85634,-0.1776c-0.14858,-0.0729 -0.28724,-0.1789 -0.39658,-0.3284c-0.10614,-0.1451 -0.16032,-0.298 -0.19011,-0.4307c-0.04855,-0.2162 -0.04825,-0.473 -0.04799,-0.6824l0.00003,-0.0437c0,-0.7466 0.37643,-1.4112 0.95137,-1.9861c0.57352,-0.5736 1.39632,-1.1126 2.42867,-1.6288c0.50416,-0.2521 0.9861,-0.4933 1.40387,-0.732c0.42607,-0.2435 0.73491,-0.4567 0.91746,-0.6392c0.29855,-0.2986 0.40822,-0.6745 0.30799,-1.2759c-0.10643,-0.6385 -0.43764,-1.43227 -0.93678,-2.43054c-0.53264,-1.06529 -0.76671,-1.99714 -0.72805,-2.80891c0.03953,-0.83017 0.36311,-1.49096 0.85684,-1.98469zM6.75007,20c0,0.1381 0.11193,0.25 0.25,0.25h10.00003c0.138,0 0.25,-0.1119 0.25,-0.25v-1.3125h-10.50003z" fill="#002B51"/>
</svg>
