<svg width="24" height="24" viewBox="0 0 24 24" fill="none" xmlns="http://www.w3.org/2000/svg">
<path fill-rule="evenodd" clip-rule="evenodd" d="M16.6924,14.6152c-0.4958,-0.2479 -1.0135,-0.5073 -1.4707,-0.7685c-0.4489,-0.2566 -0.8905,-0.5429 -1.208,-0.8604c-0.7014,-0.7014 -0.8411,-1.576 -0.6914,-2.4746c0.1437,-0.86135 0.5617,-1.81771 1.0625,-2.81932c0.4674,-0.93473 0.6091,-1.6279 0.586,-2.1289c-0.0224,-0.48257 -0.1977,-0.82227 -0.4532,-1.07813c-0.5543,-0.55528 -1.5749,-0.79785 -2.5175,-0.79785c-0.9369,0 -1.9577,0.24282 -2.51371,0.79883c-0.25619,0.25619 -0.433,0.59507 -0.45605,1.07715c-0.02385,0.50073 0.1176,1.19419 0.58496,2.1289c0.5008,1.00161 0.9189,1.95797 1.0625,2.81932c0.1498,0.8986 0.01,1.7732 -0.69141,2.4746c-0.31745,0.3175 -0.75908,0.6038 -1.20801,0.8604c-0.4572,0.2612 -0.9749,0.5206 -1.4707,0.7685c-0.96765,0.4839 -1.64482,0.9447 -2.07129,1.3711c-0.42506,0.4251 -0.54883,0.7603 -0.54883,1.0137c0,0.1208 0.0003,0.2074 0.00196,0.2705c0.00822,0.001 0.01687,0.0021 0.02597,0.0032c0.04448,0.0055 0.09975,0.0123 0.16836,0.0163c0.24485,0.0144 0.57297,0.0174 1.03681,0.0217c0.02824,0.0003 0.05698,0.0005 0.08624,0.0008h11.9932c0.5084,0 0.8606,-0.0003 1.1181,-0.0146c0.0647,-0.0036 0.1172,-0.0103 0.16,-0.0157c0.0111,-0.0014 0.0216,-0.0027 0.0314,-0.0039c0.0018,-0.0643 0.003,-0.1531 0.003,-0.2783c0,-0.2534 -0.1238,-0.5886 -0.5489,-1.0137c-0.4264,-0.4264 -1.1036,-0.8872 -2.0713,-1.3711zM20.6397,17.7275c-0.0294,0.1324 -0.083,0.2846 -0.1875,0.4297c-0.1079,0.1499 -0.2451,0.2583 -0.3945,0.333c-0.2637,0.1319 -0.5794,0.1649 -0.8633,0.1807c-0.131,0.0073 -0.279,0.0114 -0.4443,0.0137v1.3154c0,0.9665 -0.7835,1.75 -1.75,1.75h-10.00004c-0.96649,0 -1.75,-0.7835 -1.75,-1.75v-1.3212c-0.16639,-0.0033 -0.31519,-0.008 -0.44629,-0.0157c-0.28161,-0.0165 -0.5951,-0.0496 -0.85644,-0.1777c-0.14847,-0.0729 -0.28718,-0.1789 -0.39649,-0.3282c-0.10603,-0.1449 -0.16061,-0.298 -0.19043,-0.4306c-0.04847,-0.2159 -0.04815,-0.4727 -0.04789,-0.682c0.00002,-0.0151 0.00004,-0.03 0.00004,-0.0446c0,-0.7466 0.37624,-1.4114 0.95117,-1.9863c0.57353,-0.5736 1.39636,-1.1128 2.42872,-1.6289l0.02661,-0.0133c0.49452,-0.2473 0.96727,-0.4837 1.37768,-0.7182c0.42602,-0.2434 0.73446,-0.4571 0.91699,-0.6396c0.2985,-0.2985 0.40874,-0.6742 0.3086,-1.2754c-0.10643,-0.6386 -0.43837,-1.43242 -0.9375,-2.43068c-0.53254,-1.06509 -0.76609,-1.99694 -0.72754,-2.8086c0.03953,-0.83017 0.36272,-1.49162 0.85644,-1.98535c0.94399,-0.94399 2.42327,-1.20117 3.48637,-1.20117c1.0676,0 2.5472,0.25747 3.4902,1.20215c0.4932,0.49406 0.8159,1.15466 0.8545,1.98437c0.0376,0.81147 -0.197,1.74355 -0.7295,2.8086c-0.4991,0.99826 -0.8311,1.79208 -0.9375,2.43068c-0.1001,0.6012 0.0101,0.9769 0.3086,1.2754c0.1825,0.1825 0.491,0.3962 0.917,0.6396c0.4104,0.2345 0.8832,0.4709 1.3777,0.7182l0.0266,0.0133c1.0323,0.5161 1.8552,1.0553 2.4287,1.6289c0.5749,0.5749 0.9512,1.2397 0.9512,1.9863c0,0.0134 0,0.0271 0,0.041c0.0002,0.2105 0.0005,0.4689 -0.0479,0.6865zM17.2501,18.6875h-10.50004v1.3125c0,0.1381 0.11193,0.25 0.25,0.25h10.00004c0.138,0 0.25,-0.1119 0.25,-0.25z" fill="#002B51"/>
</svg>
