<svg width="24" height="24" viewBox="0 0 24 24" fill="none" xmlns="http://www.w3.org/2000/svg">
<path fill-rule="evenodd" clip-rule="evenodd" d="M20.6876,17v0.041c0.0002,0.2105 0.0005,0.4689 -0.0479,0.6865c-0.0294,0.1324 -0.083,0.2846 -0.1875,0.4297c-0.1079,0.1499 -0.2451,0.2583 -0.3945,0.333c-0.2637,0.1319 -0.5794,0.1649 -0.8633,0.1807c-0.1309,0.0073 -0.279,0.0114 -0.4443,0.0137v1.3154c0,0.9665 -0.7835,1.75 -1.75,1.75h-10.00002c-0.9665,0 -1.75,-0.7835 -1.75,-1.75v-1.3212c-0.16639,-0.0033 -0.31519,-0.008 -0.44629,-0.0157c-0.28161,-0.0165 -0.5951,-0.0496 -0.85645,-0.1777c-0.14846,-0.0729 -0.28718,-0.1789 -0.39648,-0.3282c-0.10604,-0.1449 -0.16062,-0.298 -0.19043,-0.4306c-0.04848,-0.2159 -0.04815,-0.4727 -0.04789,-0.682l0.00004,-0.0446c0,-0.7466 0.37623,-1.4114 0.95117,-1.9863c0.57353,-0.5736 1.39636,-1.1128 2.42871,-1.6289l0.02662,-0.0133c0.49451,-0.2473 0.96727,-0.4837 1.37768,-0.7182c0.42601,-0.2434 0.73446,-0.4571 0.91699,-0.6396c0.2985,-0.2985 0.40873,-0.6742 0.30859,-1.2754c-0.10642,-0.6386 -0.43836,-1.43242 -0.9375,-2.43068c-0.53254,-1.06509 -0.76608,-1.99694 -0.72754,-2.8086c0.03954,-0.83017 0.36272,-1.49162 0.85645,-1.98535c0.94399,-0.94399 2.42325,-1.20117 3.48635,-1.20117c1.0676,0 2.5472,0.25747 3.4902,1.20215c0.4932,0.49406 0.8159,1.15466 0.8545,1.98437c0.0376,0.81147 -0.197,1.74355 -0.7295,2.8086c-0.4991,0.99826 -0.8311,1.79208 -0.9375,2.43068c-0.1001,0.6012 0.0101,0.9769 0.3086,1.2754c0.1825,0.1825 0.491,0.3962 0.917,0.6396c0.4104,0.2345 0.8832,0.4709 1.3777,0.7182l0.0266,0.0133c1.0323,0.5161 1.8552,1.0553 2.4287,1.6289c0.5749,0.5749 0.9512,1.2397 0.9512,1.9863zM6.75008,20c0,0.1381 0.11193,0.25 0.25,0.25h10.00002c0.138,0 0.25,-0.1119 0.25,-0.25v-1.3125h-10.50002z" fill="#002B51"/>
</svg>
