<svg width="24" height="24" viewBox="0 0 24 24" fill="none" xmlns="http://www.w3.org/2000/svg">
<path d="M11.9999,4.12097l-2.22368,4.26172c-0.1543,0.29568 -0.41981,0.51555 -0.73437,0.61426l-0.1377,0.03515l-4.91894,0.94532l3.38379,3.57228c0.24034,0.2538 0.36291,0.595 0.34082,0.9394l-0.01856,0.1475l-0.9248,4.9883l4.65624,-2.4209l0.1387,-0.0615c0.1412,-0.0528 0.2899,-0.0792 0.4385,-0.0791v1.5312l-4.99516,2.5977c-0.92362,0.4802 -1.99503,-0.3124 -1.80566,-1.336l0.99316,-5.3681l-3.60938,-3.8096c-0.67901,-0.71674 -0.29765,-1.90145 0.67188,-2.0879l5.24609,-1.00879l2.39067,-4.5791l0.0966,-0.15723c0.2463,-0.34298 0.629,-0.51468 1.0118,-0.51465z" fill="#002B51"/>
</svg>
