<svg width="24" height="24" viewBox="0 0 24 24" fill="none" xmlns="http://www.w3.org/2000/svg">
<path fill-rule="evenodd" clip-rule="evenodd" d="M12,4.12162l-0.0002,-0.00022l-2.22331,4.26142c-0.17644,0.33816 -0.49761,0.57727 -0.87217,0.6493l-4.91853,0.94587l3.38352,3.57151c0.27488,0.2901 0.39444,0.6943 0.32166,1.0873l-0.92388,4.9889l4.65601,-2.4212c0.1808,-0.094 0.3788,-0.141 0.5769,-0.1409v1.5318l-0.0002,-0.0001l-4.9951,2.5975c-0.92369,0.4803 -1.99537,-0.3129 -1.80579,-1.3366l0.99397,-5.3675l-3.60985,-3.8104c-0.67901,-0.71669 -0.29815,-1.9007 0.67138,-2.08715l5.24806,-1.00924l2.38913,-4.57918c0.2337,-0.44791 0.671,-0.67184 1.1084,-0.6718z" fill="#002B51"/>
</svg>
