<svg width="24" height="24" viewBox="0 0 24 24" fill="none" xmlns="http://www.w3.org/2000/svg">
<path fill-rule="evenodd" clip-rule="evenodd" d="M13.1084,3.00291l2.3897,4.5791l5.2471,1.00879c0.9089,0.17479 1.3011,1.22692 0.7871,1.9482l-0.1153,0.1397l-3.6103,3.8096l0.9941,5.3681l0.0215,0.1885c0.0329,0.867 -0.8328,1.508 -1.6523,1.2236l-0.1748,-0.0761l-4.9952,-2.5977l-4.99508,2.5977c-0.92361,0.4802 -1.99503,-0.3124 -1.80566,-1.336l0.99316,-5.3681l-3.60937,-3.8096c-0.67901,-0.71674 -0.29766,-1.90145 0.67187,-2.0879l5.2461,-1.00879l2.39058,-4.5791l0.0967,-0.15723c0.4924,-0.68633 1.531,-0.68633 2.0235,0z" fill="#002B51"/>
</svg>
