<svg width="24" height="24" viewBox="0 0 24 24" fill="none" xmlns="http://www.w3.org/2000/svg">
<path fill-rule="evenodd" clip-rule="evenodd" d="M12,4.1212l-0.0001,-0.00013l-2.22365,4.26172c-0.15441,0.29589 -0.41953,0.51565 -0.73437,0.61426l-0.1377,0.03516l-4.91894,0.94531l3.38379,3.57228c0.24054,0.2539 0.36297,0.5948 0.34082,0.9394l-0.01856,0.1475l-0.9248,4.9883l4.65621,-2.4209l0.1387,-0.0615c0.1413,-0.053 0.2899,-0.0794 0.4386,-0.0794v1.5315h-0.0001l-4.99513,2.5977c-0.92362,0.4802 -1.99503,-0.3124 -1.80566,-1.336l0.99316,-5.3681l-3.60937,-3.8096c-0.67901,-0.71674 -0.29766,-1.90145 0.67187,-2.0879l5.24609,-1.00879l2.39064,-4.5791l0.0967,-0.15723c0.2462,-0.34318 0.629,-0.51477 1.0118,-0.51475z" fill="#002B51"/>
</svg>
