<svg width="24" height="24" viewBox="0 0 24 24" fill="none" xmlns="http://www.w3.org/2000/svg">
<path d="M12.0001,4.12097l-2.22367,4.26172c-0.15434,0.29574 -0.41974,0.51558 -0.73438,0.61426l-0.13769,0.03515l-4.91895,0.94532l3.38379,3.57228c0.24041,0.2538 0.36292,0.5949 0.34082,0.9394l-0.01855,0.1475l-0.92481,4.9883l4.65624,-2.4209l0.1387,-0.0615c0.1412,-0.0529 0.2898,-0.0792 0.4385,-0.0791v1.5312l-4.99516,2.5977c-0.92361,0.4802 -1.99503,-0.3124 -1.80566,-1.336l0.99316,-5.3681l-3.60937,-3.8096c-0.67901,-0.71674 -0.29766,-1.90145 0.67187,-2.0879l5.2461,-1.00879l2.39066,-4.5791l0.0966,-0.15723c0.2463,-0.34305 0.629,-0.51468 1.0118,-0.51465z" fill="#002B51"/>
</svg>
