<svg width="24" height="24" viewBox="0 0 24 24" fill="none" xmlns="http://www.w3.org/2000/svg">
<path fill-rule="evenodd" clip-rule="evenodd" d="M12 2.33093C11.5626 2.33089 11.1253 2.55482 10.8916 3.00273L8.50247 7.58191L3.25441 8.59115C2.28488 8.7776 1.90402 9.96161 2.58303 10.6783L6.19288 14.4887L5.19891 19.8562C5.00933 20.8799 6.08101 21.6731 7.0047 21.1928L11.9998 18.5953L12 18.5954V17.0636C11.8019 17.0635 11.6039 17.1105 11.4231 17.2045L6.76709 19.6257L7.69097 14.6368C7.76375 14.2438 7.64419 13.8396 7.36931 13.5495L3.98579 9.97799L8.90432 9.03212C9.27888 8.96009 9.60005 8.72098 9.77649 8.38282L11.9998 4.1214L12 4.12162V2.33093Z" fill="#002B51"/>
</svg>
