<svg width="24" height="24" viewBox="0 0 24 24" fill="none" xmlns="http://www.w3.org/2000/svg">
<path fill-rule="evenodd" clip-rule="evenodd" d="M12,4.1214l-2.22334,4.26142c-0.17644,0.33816 -0.49761,0.57727 -0.87218,0.6493l-4.91852,0.94587l3.38351,3.57151c0.27489,0.2901 0.39445,0.6943 0.32167,1.0873l-0.92388,4.9889l4.65604,-2.4212c0.3615,-0.1879 0.7919,-0.1879 1.1534,0l4.6561,2.4212l-0.9239,-4.9889c-0.0728,-0.393 0.0468,-0.7972 0.3216,-1.0873l3.3836,-3.57151l-4.9186,-0.94587c-0.3745,-0.07203 -0.6957,-0.31114 -0.8721,-0.6493zM10.8918,3.00273c0.4673,-0.89573 1.7491,-0.89573 2.2164,-0.00001l2.3892,4.57919l5.248,1.00924c0.9696,0.18645 1.3504,1.37046 0.6714,2.08715l-3.6098,3.8104l0.9939,5.3675c0.1896,1.0237 -0.8821,1.8169 -1.8058,1.3366l-4.9951,-2.5975l-4.99513,2.5975c-0.92369,0.4803 -1.99537,-0.3129 -1.8058,-1.3366l0.99398,-5.3675l-3.60985,-3.8104c-0.67901,-0.71669 -0.29815,-1.9007 0.67138,-2.08715l5.24805,-1.00924z" fill="#002B51"/>
</svg>
