<svg width="24" height="24" viewBox="0 0 24 24" fill="none" xmlns="http://www.w3.org/2000/svg">
<path d="M10.9883,2.84558c0.4925,-0.68613 1.5311,-0.68627 2.0235,0l0.0966,0.15723l2.3897,4.5791l5.2471,1.00879c0.9086,0.1749 1.3009,1.22698 0.7871,1.9482l-0.1153,0.1397l-3.6103,3.8096l0.9941,5.3681l0.0215,0.1885c0.0329,0.8669 -0.8328,1.5078 -1.6523,1.2236l-0.1748,-0.0761l-4.9952,-2.5977l-4.99508,2.5977c-0.92361,0.4802 -1.99503,-0.3124 -1.80566,-1.336l0.99316,-5.3681l-3.60937,-3.8096c-0.67901,-0.71674 -0.29766,-1.90145 0.67187,-2.0879l5.2461,-1.00879l2.39058,-4.5791zM9.77641,8.38269c-0.15437,0.2958 -0.41966,0.51561 -0.73438,0.61426l-0.13769,0.03516l-4.91895,0.94531l3.38379,3.57228c0.24048,0.2539 0.36293,0.5949 0.34082,0.9394l-0.01855,0.1475l-0.92481,4.9883l4.65626,-2.4209l0.1387,-0.0615c0.2824,-0.1058 0.5945,-0.1058 0.8769,0l0.1387,0.0615l4.6553,2.4209l-0.9239,-4.9883c-0.0727,-0.393 0.0475,-0.7968 0.3223,-1.0869l3.3828,-3.57228l-4.918,-0.94531c-0.3277,-0.06304 -0.615,-0.25403 -0.7998,-0.52735l-0.0722,-0.12207l-2.2237,-4.26172z" fill="#002B51"/>
</svg>
