<svg width="24" height="24" viewBox="0 0 24 24" fill="none" xmlns="http://www.w3.org/2000/svg">
<path d="M12,2.25c5.3848,0 9.75,4.36522 9.75,9.75c0,5.3848 -4.3652,9.75 -9.75,9.75c-5.38478,0 -9.75,-4.3652 -9.75,-9.75c0,-5.38478 4.36522,-9.75 9.75,-9.75zM20.2402,12.3643c-4.6451,-3.48235 -11.83654,-3.48262 -16.48141,0c0.0249,0.5731 0.1081,1.1309 0.24414,1.6679l0.21289,-0.0664c3.58693,-0.9789 6.90518,2.4345 5.75098,6.0303c0.6505,0.1649 1.3314,0.2539 2.0332,0.2539c0.7014,0 1.382,-0.0892 2.0322,-0.2539c-1.1767,-3.6667 2.2972,-7.1406 5.9639,-5.9639c0.1361,-0.537 0.2192,-1.0947 0.2441,-1.6679zM8.55273,19.4951c0.74663,-2.4432 -1.51035,-4.7458 -3.94921,-4.0801l-0.09961,0.0313c0.82233,1.7857 2.26325,3.2262 4.04882,4.0488zM19.4951,15.4463c-2.476,-0.7564 -4.8052,1.5728 -4.0488,4.0488c1.7858,-0.8225 3.2263,-2.263 4.0488,-4.0488zM12,11.5c0.8284,0 1.5,0.6716 1.5,1.5c0,0.8284 -0.6716,1.5 -1.5,1.5c-0.8284,0 -1.5,-0.6716 -1.5,-1.5c0,-0.8284 0.6716,-1.5 1.5,-1.5zM12,3.75c-4.02991,0 -7.383,2.8898 -8.10449,6.71c4.79841,-2.94367 11.40939,-2.94341 16.20799,0c-0.7215,-3.82011 -4.0737,-6.71 -8.1035,-6.71z" fill="#002B51"/>
</svg>
