<svg width="24" height="24" viewBox="0 0 24 24" fill="none" xmlns="http://www.w3.org/2000/svg">
<path d="M12,2c5.5228,0 10,4.47715 10,10c0,5.5228 -4.4772,10 -10,10c-5.52285,0 -10,-4.4772 -10,-10c0,-5.52285 4.47715,-10 10,-10zM9.32129,19.5391c0.75881,-2.9248 -1.93652,-5.6207 -4.86133,-4.8614c0.80392,2.2636 2.5979,4.0571 4.86133,4.8614zM19.5391,14.6777c-2.9244,-0.7585 -5.6199,1.937 -4.8614,4.8614c2.2638,-0.8041 4.0573,-2.5976 4.8614,-4.8614zM12,11.5c-0.8284,0 -1.5,0.6716 -1.5,1.5c0,0.8284 0.6716,1.5 1.5,1.5c0.8284,0 1.5,-0.6716 1.5,-1.5c0,-0.8284 -0.6716,-1.5 -1.5,-1.5zM12,4c-4.16766,0 -7.5899,3.18702 -7.96484,7.2568c4.65797,-3.00737 11.27044,-3.00789 15.92874,-0.0009c-0.3755,-4.06935 -3.7966,-7.2559 -7.9639,-7.2559z" fill="#002B51"/>
</svg>
