<svg width="24" height="24" viewBox="0 0 24 24" fill="none" xmlns="http://www.w3.org/2000/svg">
<path fill-rule="evenodd" clip-rule="evenodd" d="M4.00229,14.0327l0.21353,-0.0669c3.5873,-0.979 6.90988,2.4365 5.7546,6.0327c0.64928,0.1642 1.32928,0.2515 2.02958,0.2515c0.7003,0 1.3803,-0.0873 2.0296,-0.2515c-1.1782,-3.6676 2.3013,-7.1471 5.9689,-5.9689c0.1358,-0.5368 0.219,-1.0946 0.2437,-1.6675c-4.645,-3.48236 -11.83943,-3.48232 -16.4844,0c0.02479,0.574 0.10824,1.1328 0.24449,1.6706zM19.4984,15.4453c-2.478,-0.7592 -4.8123,1.5751 -4.0531,4.0531c1.7874,-0.8227 3.2304,-2.2657 4.0531,-4.0531zM4.50241,15.447c0.82277,1.7866 2.2654,3.229 4.0523,4.0514c0.74886,-2.4442 -1.51152,-4.7493 -3.95119,-4.0834zM3.89391,10.4577c4.79872,-2.94388 11.41349,-2.94392 16.21219,0c-0.7223,-3.81922 -4.0769,-6.7077 -8.1061,-6.7077c-4.02925,0 -7.38385,2.88848 -8.10609,6.7077zM21.75,12c0,5.3848 -4.3652,9.75 -9.75,9.75c-5.38478,0 -9.75,-4.3652 -9.75,-9.75c0,-5.38478 4.36522,-9.75 9.75,-9.75c5.3848,0 9.75,4.36522 9.75,9.75zM13.5,13c0,0.8284 -0.6716,1.5 -1.5,1.5c-0.8284,0 -1.5,-0.6716 -1.5,-1.5c0,-0.8284 0.6716,-1.5 1.5,-1.5c0.8284,0 1.5,0.6716 1.5,1.5z" fill="#002B51"/>
</svg>
