<svg width="24" height="24" viewBox="0 0 24 24" fill="none" xmlns="http://www.w3.org/2000/svg">
<path fill-rule="evenodd" clip-rule="evenodd" d="M12.75,2.25v2c0,0.41421 -0.3358,0.75 -0.75,0.75c-0.4142,0 -0.75,-0.33579 -0.75,-0.75v-2c0,-0.41421 0.3358,-0.75 0.75,-0.75c0.4142,0 0.75,0.33579 0.75,0.75zM7.05025,5.98959c0.2929,0.2929 0.2929,0.76777 0,1.06066c-0.29289,0.2929 -0.76776,0.2929 -1.06066,0l-1.41421,-1.41421c-0.29289,-0.29289 -0.29289,-0.76777 0,-1.06066c0.29289,-0.29289 0.76777,-0.29289 1.06066,0zM7.25,12c0,-2.62337 2.12665,-4.75001 4.75,-4.75001c2.6234,0 4.75,2.12664 4.75,4.75001c0,2.6233 -2.1266,4.75 -4.75,4.75c-2.62335,0 -4.75,-2.1267 -4.75,-4.75zM4.25,11.25c0.41421,0 0.75,0.3358 0.75,0.75c0,0.4142 -0.33579,0.75 -0.75,0.75h-2c-0.41421,0 -0.75,-0.3358 -0.75,-0.75c0,-0.4142 0.33579,-0.75 0.75,-0.75zM21.75,12.75h-2c-0.4142,0 -0.75,-0.3358 -0.75,-0.75c0,-0.4142 0.3358,-0.75 0.75,-0.75h2c0.4142,0 0.75,0.3358 0.75,0.75c0,0.4142 -0.3358,0.75 -0.75,0.75zM18.364,19.4246l-1.4143,-1.4142c-0.2928,-0.2929 -0.2928,-0.7678 0,-1.0607c0.2929,-0.2928 0.7678,-0.2928 1.0607,0l1.4142,1.4143c0.2929,0.2929 0.2929,0.7677 0,1.0606c-0.2929,0.2929 -0.7677,0.2929 -1.0606,0zM5.98959,16.9497c0.2929,-0.2928 0.76777,-0.2928 1.06066,0c0.2929,0.2929 0.2929,0.7678 0,1.0607l-1.41421,1.4142c-0.29289,0.2929 -0.76777,0.2929 -1.06066,0c-0.29289,-0.2929 -0.29289,-0.7677 0,-1.0606zM19.4246,5.63604l-1.4142,1.41421c-0.2929,0.2929 -0.7678,0.2929 -1.0607,0c-0.2928,-0.29289 -0.2928,-0.76776 0,-1.06066l1.4143,-1.41421c0.2929,-0.29289 0.7677,-0.29289 1.0606,0c0.2929,0.29289 0.2929,0.76777 0,1.06066zM11.25,19.75c0,-0.4142 0.3358,-0.75 0.75,-0.75c0.4142,0 0.75,0.3358 0.75,0.75v2c0,0.4142 -0.3358,0.75 -0.75,0.75c-0.4142,0 -0.75,-0.3358 -0.75,-0.75z" fill="#002B51"/>
</svg>
