<svg width="24" height="24" viewBox="0 0 24 24" fill="none" xmlns="http://www.w3.org/2000/svg">
<path d="M12,19c0.4142,0 0.75,0.3358 0.75,0.75v2c0,0.4142 -0.3358,0.75 -0.75,0.75c-0.4142,0 -0.75,-0.3358 -0.75,-0.75v-2c0,-0.4142 0.3358,-0.75 0.75,-0.75zM5.98926,16.9502c0.29289,-0.2929 0.76765,-0.2929 1.06054,0c0.2929,0.2929 0.2929,0.7676 0,1.0605l-1.41406,1.4141c-0.29291,0.2927 -0.76773,0.2928 -1.06054,0c-0.29282,-0.2928 -0.29266,-0.7676 0,-1.0605zM16.9502,16.9502c0.2929,-0.2929 0.7676,-0.2929 1.0605,0l1.4141,1.4141c0.2927,0.2929 0.2928,0.7677 0,1.0605c-0.2928,0.2928 -0.7676,0.2927 -1.0605,0l-1.4141,-1.4141c-0.2929,-0.2929 -0.2929,-0.7676 0,-1.0605zM12,7.25c2.6234,0 4.75,2.12665 4.75,4.75c0,2.6233 -2.1267,4.75 -4.75,4.75c-2.62335,0 -4.74999,-2.1267 -4.75,-4.75c0,-2.62335 2.12665,-4.75 4.75,-4.75zM4.25,11.25c0.41421,0 0.75,0.3358 0.75,0.75c0,0.4142 -0.33579,0.75 -0.75,0.75h-2c-0.41421,0 -0.75,-0.3358 -0.75,-0.75c0,-0.4142 0.33579,-0.75 0.75,-0.75zM21.75,11.25c0.4142,0 0.75,0.3358 0.75,0.75c0,0.4142 -0.3358,0.75 -0.75,0.75h-2c-0.4142,0 -0.75,-0.3358 -0.75,-0.75c0,-0.4142 0.3358,-0.75 0.75,-0.75zM4.5752,4.5752c0.29281,-0.29282 0.76763,-0.29266 1.06054,0l1.41406,1.41406c0.2929,0.29289 0.2929,0.76765 0,1.06054c-0.29289,0.2929 -0.76765,0.2929 -1.06054,0l-1.41406,-1.41406c-0.29266,-0.29291 -0.29282,-0.76773 0,-1.06054zM18.3643,4.5752c0.2929,-0.29266 0.7677,-0.29282 1.0605,0c0.2928,0.29281 0.2927,0.76763 0,1.06054l-1.4141,1.41406c-0.2929,0.2929 -0.7676,0.2929 -1.0605,0c-0.2929,-0.29289 -0.2929,-0.76765 0,-1.06054zM12,1.5c0.4142,0 0.75,0.33579 0.75,0.75v2c0,0.41421 -0.3358,0.75 -0.75,0.75c-0.4142,0 -0.75,-0.33579 -0.75,-0.75v-2c0,-0.41421 0.3358,-0.75 0.75,-0.75z" fill="#002B51"/>
</svg>
