<svg width="24" height="24" viewBox="0 0 24 24" fill="none" xmlns="http://www.w3.org/2000/svg">
<path fill-rule="evenodd" clip-rule="evenodd" d="M12.25 4C12.8023 4 13.25 3.55228 13.25 3C13.25 2.44772 12.8023 2 12.25 2C11.6977 2 11.25 2.44772 11.25 3C11.25 3.55228 11.6977 4 12.25 4ZM7.25 6C7.25 6.55228 6.80228 7 6.25 7C5.69772 7 5.25 6.55228 5.25 6C5.25 5.44772 5.69772 5 6.25 5C6.80228 5 7.25 5.44772 7.25 6ZM12 7.24999C9.37665 7.24999 7.25 9.37663 7.25 12C7.25 14.6233 9.37665 16.75 12 16.75C14.6234 16.75 16.75 14.6233 16.75 12C16.75 9.37663 14.6234 7.24999 12 7.24999ZM4.25 12C4.25 12.5523 3.80228 13 3.25 13C2.69772 13 2.25 12.5523 2.25 12C2.25 11.4477 2.69772 11 3.25 11C3.80228 11 4.25 11.4477 4.25 12ZM21.25 13C21.8023 13 22.25 12.5523 22.25 12C22.25 11.4477 21.8023 11 21.25 11C20.6977 11 20.25 11.4477 20.25 12C20.25 12.5523 20.6977 13 21.25 13ZM18.25 19C18.8023 19 19.25 18.5523 19.25 18C19.25 17.4477 18.8023 17 18.25 17C17.6977 17 17.25 17.4477 17.25 18C17.25 18.5523 17.6977 19 18.25 19ZM7.25 18C7.25 18.5523 6.80228 19 6.25 19C5.69772 19 5.25 18.5523 5.25 18C5.25 17.4477 5.69772 17 6.25 17C6.80228 17 7.25 17.4477 7.25 18ZM18.25 7C18.8023 7 19.25 6.55228 19.25 6C19.25 5.44772 18.8023 5 18.25 5C17.6977 5 17.25 5.44772 17.25 6C17.25 6.55228 17.6977 7 18.25 7ZM13.25 21C13.25 21.5523 12.8023 22 12.25 22C11.6977 22 11.25 21.5523 11.25 21C11.25 20.4477 11.6977 20 12.25 20C12.8023 20 13.25 20.4477 13.25 21Z" fill="#002B51"/>
</svg>
