<svg width="24" height="24" viewBox="0 0 24 24" fill="none" xmlns="http://www.w3.org/2000/svg">
<path fill-rule="evenodd" clip-rule="evenodd" d="M11.25,3c0,-0.55228 0.4477,-1 1,-1c0.5523,0 1,0.44772 1,1c0,0.55228 -0.4477,1 -1,1c-0.5523,0 -1,-0.44772 -1,-1zM7.25,6c0,0.55228 -0.44772,1 -1,1c-0.55228,0 -1,-0.44772 -1,-1c0,-0.55228 0.44772,-1 1,-1c0.55228,0 1,0.44772 1,1zM16.75,12c0,2.6233 -2.1266,4.75 -4.75,4.75c-2.62335,0 -4.75,-2.1267 -4.75,-4.75c0,-2.62337 2.12665,-4.75001 4.75,-4.75001c2.6234,0 4.75,2.12664 4.75,4.75001zM4.25,12c0,0.5523 -0.44772,1 -1,1c-0.55228,0 -1,-0.4477 -1,-1c0,-0.5523 0.44772,-1 1,-1c0.55228,0 1,0.4477 1,1zM20.25,12c0,-0.5523 0.4477,-1 1,-1c0.5523,0 1,0.4477 1,1c0,0.5523 -0.4477,1 -1,1c-0.5523,0 -1,-0.4477 -1,-1zM17.25,18c0,-0.5523 0.4477,-1 1,-1c0.5523,0 1,0.4477 1,1c0,0.5523 -0.4477,1 -1,1c-0.5523,0 -1,-0.4477 -1,-1zM7.25,18c0,0.5523 -0.44772,1 -1,1c-0.55228,0 -1,-0.4477 -1,-1c0,-0.5523 0.44772,-1 1,-1c0.55228,0 1,0.4477 1,1zM17.25,6c0,-0.55228 0.4477,-1 1,-1c0.5523,0 1,0.44772 1,1c0,0.55228 -0.4477,1 -1,1c-0.5523,0 -1,-0.44772 -1,-1zM13.25,21c0,0.5523 -0.4477,1 -1,1c-0.5523,0 -1,-0.4477 -1,-1c0,-0.5523 0.4477,-1 1,-1c0.5523,0 1,0.4477 1,1z" fill="#002B51"/>
</svg>
