<svg width="24" height="24" viewBox="0 0 24 24" fill="none" xmlns="http://www.w3.org/2000/svg">
<path d="M12.25,20c0.5523,0 1,0.4477 1,1c0,0.5523 -0.4477,1 -1,1c-0.5523,0 -1,-0.4477 -1,-1c0,-0.5523 0.4477,-1 1,-1zM6.25,17c0.55228,0 1,0.4477 1,1c0,0.5523 -0.44772,1 -1,1c-0.55228,0 -1,-0.4477 -1,-1c0,-0.5523 0.44772,-1 1,-1zM18.25,17c0.5523,0 1,0.4477 1,1c0,0.5523 -0.4477,1 -1,1c-0.5523,0 -1,-0.4477 -1,-1c0,-0.5523 0.4477,-1 1,-1zM12,7.25c2.6234,0 4.75,2.12665 4.75,4.75c0,2.6233 -2.1267,4.75 -4.75,4.75c-2.62335,0 -4.74999,-2.1267 -4.75,-4.75c0,-2.62335 2.12665,-4.75 4.75,-4.75zM3.25,11c0.55228,0 1,0.4477 1,1c0,0.5523 -0.44772,1 -1,1c-0.55228,0 -1,-0.4477 -1,-1c0,-0.5523 0.44772,-1 1,-1zM21.25,11c0.5523,0 1,0.4477 1,1c0,0.5523 -0.4477,1 -1,1c-0.5523,0 -1,-0.4477 -1,-1c0,-0.5523 0.4477,-1 1,-1zM6.25,5c0.55228,0 1,0.44772 1,1c0,0.55228 -0.44772,1 -1,1c-0.55228,0 -1,-0.44772 -1,-1c0,-0.55228 0.44772,-1 1,-1zM18.25,5c0.5523,0 1,0.44772 1,1c0,0.55228 -0.4477,1 -1,1c-0.5523,0 -1,-0.44772 -1,-1c0,-0.55228 0.4477,-1 1,-1zM12.25,2c0.5523,0 1,0.44772 1,1c0,0.55228 -0.4477,1 -1,1c-0.5523,0 -1,-0.44772 -1,-1c0,-0.55228 0.4477,-1 1,-1z" fill="#002B51"/>
</svg>
