<svg width="24" height="24" viewBox="0 0 24 24" fill="none" xmlns="http://www.w3.org/2000/svg">
<path d="M13.0732,5.25c0.8522,0.00011 1.6307,0.48196 2.0118,1.24414l2.3779,4.75586h1.5371c1.5188,0 2.75,1.2312 2.75,2.75v1.5c0,1.2612 -0.8501,2.3203 -2.0078,2.6445c-0.0753,1.4515 -1.272,2.6055 -2.7422,2.6055c-1.4345,0 -2.6109,-1.0984 -2.7373,-2.5h-4.5254c-0.12636,1.4016 -1.30283,2.5 -2.7373,2.5c-1.47025,0 -2.66792,-1.1539 -2.74316,-2.6055c-1.15724,-0.3245 -2.00684,-1.3836 -2.00684,-2.6445v-8c0,-1.24264 1.00736,-2.25 2.25,-2.25zM7,16.75c-0.69036,0 -1.25,0.5596 -1.25,1.25c0,0.6904 0.55964,1.25 1.25,1.25c0.69036,0 1.25,-0.5596 1.25,-1.25c0,-0.6904 -0.55964,-1.25 -1.25,-1.25zM17,16.75c-0.6904,0 -1.25,0.5596 -1.25,1.25c0,0.6904 0.5596,1.25 1.25,1.25c0.6904,0 1.25,-0.5596 1.25,-1.25c0,-0.6904 -0.5596,-1.25 -1.25,-1.25zM3.75,15.5c0,0.5458 0.3503,1.0082 0.83789,1.1787c0.46739,-0.8514 1.37225,-1.4287 2.41211,-1.4287c1.0682,0 1.99187,0.6102 2.44727,1.5h5.10543c0.4554,-0.8898 1.3791,-1.5 2.4473,-1.5c1.0397,0 1.9437,0.5775 2.4111,1.4287c0.4881,-0.1702 0.8389,-0.6326 0.8389,-1.1787v-1.5c0,-0.6904 -0.5596,-1.25 -1.25,-1.25h-15.25zM1,10.25c0.41421,0 0.75,0.3358 0.75,0.75v4c0,0.4142 -0.33579,0.75 -0.75,0.75c-0.41421,0 -0.75,-0.3358 -0.75,-0.75v-4c0,-0.4142 0.33579,-0.75 0.75,-0.75zM4.5,6.75c-0.41421,0 -0.75,0.33579 -0.75,0.75v3.75h3.5v-4.5zM8.75,11.25h7.0361l-2.042,-4.08496c-0.127,-0.254 -0.3869,-0.41493 -0.6709,-0.41504h-4.3232z" fill="#002B51"/>
</svg>
