<svg width="24" height="24" viewBox="0 0 24 24" fill="none" xmlns="http://www.w3.org/2000/svg">
<path fill-rule="evenodd" clip-rule="evenodd" d="M13.0732,5.25c0.8522,0.00011 1.6307,0.48196 2.0118,1.24414l2.3783,4.75586h1.5367c1.5188,0 2.75,1.2312 2.75,2.75v1.5c0,1.2602 -0.8477,2.3224 -2.0039,2.6476c-0.0767,1.4501 -1.2768,2.6024 -2.7461,2.6024c-1.4345,0 -2.6125,-1.0984 -2.7388,-2.5h-4.52241c-0.12631,1.4016 -1.30428,2.5 -2.73879,2.5c-1.46927,0 -2.66942,-1.1523 -2.7461,-2.6024c-1.15625,-0.3252 -2.0039,-1.3874 -2.0039,-2.6476v-2.75v-1.5v-3.75c0,-1.24264 1.00736,-2.25 2.25,-2.25zM13.0732,6.75h-4.3232v4.5h7.0361l-2.042,-4.08496c-0.127,-0.254 -0.3869,-0.41493 -0.6709,-0.41504zM4.5,6.75c-0.41421,0 -0.75,0.33579 -0.75,0.75v3.75h3.5v-4.5zM4.58686,16.6801c0.46715,-0.8523 1.37267,-1.4301 2.41314,-1.4301c1.06867,0 1.99497,0.6096 2.45014,1.5h5.09976c0.4551,-0.8904 1.3814,-1.5 2.4501,-1.5c1.0405,0 1.946,0.5778 2.4131,1.4301c0.4874,-0.1706 0.8369,-0.6345 0.8369,-1.1801v-1.5c0,-0.6904 -0.5596,-1.25 -1.25,-1.25h-2h-13.25v2.75c0,0.5456 0.34952,1.0095 0.83686,1.1801zM8.25,18c0,-0.6904 -0.55964,-1.25 -1.25,-1.25c-0.69036,0 -1.25,0.5596 -1.25,1.25c0,0.6904 0.55964,1.25 1.25,1.25c0.69036,0 1.25,-0.5596 1.25,-1.25zM18.25,18c0,-0.6904 -0.5596,-1.25 -1.25,-1.25c-0.6904,0 -1.25,0.5596 -1.25,1.25c0,0.6904 0.5596,1.25 1.25,1.25c0.6904,0 1.25,-0.5596 1.25,-1.25zM1,10.25c0.41421,0 0.75,0.3358 0.75,0.75v4c0,0.4142 -0.33579,0.75 -0.75,0.75c-0.41421,0 -0.75,-0.3358 -0.75,-0.75v-4c0,-0.4142 0.33579,-0.75 0.75,-0.75z" fill="#002B51"/>
</svg>
