<svg width="24" height="24" viewBox="0 0 24 24" fill="none" xmlns="http://www.w3.org/2000/svg">
<path fill-rule="evenodd" clip-rule="evenodd" d="M4.5,6.75c-0.41421,0 -0.75,0.33579 -0.75,0.75v3.75h3.5v-4.5zM4.5,5.25h3.5h5.0729c0.8523,0 1.6314,0.48151 2.0125,1.24377l2.3781,4.75623h1.5365c1.5188,0 2.75,1.2312 2.75,2.75v1.5c0,1.2602 -0.8477,2.3224 -2.0039,2.6476c-0.0767,1.4501 -1.2768,2.6024 -2.7461,2.6024c-1.4345,0 -2.6125,-1.0984 -2.7388,-2.5h-4.52241c-0.12631,1.4016 -1.30428,2.5 -2.73879,2.5c-1.46927,0 -2.66942,-1.1523 -2.7461,-2.6024c-1.15625,-0.3252 -2.0039,-1.3874 -2.0039,-2.6476v-2.75v-0.75v-0.75v-3.75c0,-1.24264 1.00736,-2.25 2.25,-2.25zM4.58686,16.6801c0.46715,-0.8523 1.37267,-1.4301 2.41314,-1.4301c1.06867,0 1.99497,0.6096 2.45014,1.5h5.09976c0.4551,-0.8904 1.3814,-1.5 2.4501,-1.5c1.0405,0 1.946,0.5778 2.4131,1.4301c0.4874,-0.1706 0.8369,-0.6345 0.8369,-1.1801v-1.5c0,-0.6904 -0.5596,-1.25 -1.25,-1.25h-2h-9h-4.25v2.75c0,0.5456 0.34952,1.0095 0.83686,1.1801zM13.0729,6.75h-4.3229v4.5h7.0365l-2.0427,-4.08541c-0.1271,-0.25409 -0.3868,-0.41459 -0.6709,-0.41459zM7,16.75c-0.69036,0 -1.25,0.5596 -1.25,1.25c0,0.6904 0.55964,1.25 1.25,1.25c0.69036,0 1.25,-0.5596 1.25,-1.25c0,-0.6904 -0.55964,-1.25 -1.25,-1.25zM17,16.75c-0.6904,0 -1.25,0.5596 -1.25,1.25c0,0.6904 0.5596,1.25 1.25,1.25c0.6904,0 1.25,-0.5596 1.25,-1.25c0,-0.6904 -0.5596,-1.25 -1.25,-1.25zM1.75,15c0,0.4142 -0.33579,0.75 -0.75,0.75c-0.41421,0 -0.75,-0.3358 -0.75,-0.75v-4c0,-0.4142 0.33579,-0.75 0.75,-0.75c0.41421,0 0.75,0.3358 0.75,0.75z" fill="#002B51"/>
</svg>
