<svg width="24" height="24" viewBox="0 0 24 24" fill="none" xmlns="http://www.w3.org/2000/svg">
<path fill-rule="evenodd" clip-rule="evenodd" d="M9,2.25c1.5188,0 2.75,1.23122 2.75,2.75v0.68934l0.8055,-0.80546c1.0739,-1.07394 2.8151,-1.07394 3.889,0l2.6716,2.67158c1.074,1.07394 1.074,2.81514 0,3.88904l-0.8054,0.8055h0.6893c1.5188,0 2.75,1.2312 2.75,2.75v4c0,1.5188 -1.2312,2.75 -2.75,2.75h-12c-2.62335,0 -4.75,-2.1266 -4.75,-4.75v-12c0,-1.51878 1.23122,-2.75 2.75,-2.75zM11.75,7.81066v8.87864l6.3055,-6.3054c0.4881,-0.48817 0.4881,-1.27963 0,-1.76778l-2.6716,-2.67158c-0.4882,-0.48815 -1.2796,-0.48815 -1.7678,0zM11.0058,19.5538c-0.159,0.2488 -0.3405,0.4819 -0.5417,0.6962h8.5359c0.6904,0 1.25,-0.5596 1.25,-1.25v-4c0,-0.6904 -0.5596,-1.25 -1.25,-1.25h-2.1893l-5.7804,5.7803c-0.008,0.0081 -0.0162,0.0159 -0.0245,0.0235zM7,18c0.55228,0 1,-0.4477 1,-1c0,-0.5523 -0.44772,-1 -1,-1c-0.55228,0 -1,0.4477 -1,1c0,0.5523 0.44772,1 1,1z" fill="#002B51"/>
</svg>
