<svg width="24" height="24" viewBox="0 0 24 24" fill="none" xmlns="http://www.w3.org/2000/svg">
<path fill-rule="evenodd" clip-rule="evenodd" d="M5 2.25C3.48122 2.25 2.25 3.48122 2.25 5V17C2.25 19.6234 4.37665 21.75 7 21.75H19C20.5188 21.75 21.75 20.5188 21.75 19V15C21.75 13.4812 20.5188 12.25 19 12.25H18.3107L19.1161 11.4445C20.1901 10.3706 20.1901 8.6294 19.1161 7.55546L16.4445 4.88388C15.3706 3.80994 13.6294 3.80994 12.5555 4.88388L11.75 5.68934V5C11.75 3.48122 10.5188 2.25 9 2.25H5ZM11.75 7.81066V16.6893L18.0555 10.3839C18.5436 9.89573 18.5436 9.10427 18.0555 8.61612L15.3839 5.94454C14.8957 5.45639 14.1043 5.45639 13.6161 5.94454L11.75 7.81066ZM11.0058 19.5538C10.8468 19.8026 10.6653 20.0357 10.4641 20.25H19C19.6904 20.25 20.25 19.6904 20.25 19V15C20.25 14.3096 19.6904 13.75 19 13.75H16.8107L11.0303 19.5303C11.0223 19.5384 11.0141 19.5462 11.0058 19.5538ZM10.25 17C10.25 18.7949 8.79493 20.25 7 20.25C5.20507 20.25 3.75 18.7949 3.75 17V5C3.75 4.30964 4.30964 3.75 5 3.75H9C9.69036 3.75 10.25 4.30964 10.25 5V17ZM7 16C6.44772 16 6 16.4477 6 17C6 17.5523 6.44772 18 7 18C7.55228 18 8 17.5523 8 17C8 16.4477 7.55228 16 7 16Z" fill="#002B51"/>
</svg>
