<svg width="24" height="24" viewBox="0 0 24 24" fill="none" xmlns="http://www.w3.org/2000/svg">
<path fill-rule="evenodd" clip-rule="evenodd" d="M5,3.75c-0.69036,0 -1.25,0.55964 -1.25,1.25v12c0,1.7949 1.45507,3.25 3.25,3.25c1.79493,0 3.25,-1.4551 3.25,-3.25v-12c0,-0.69036 -0.55964,-1.25 -1.25,-1.25zM11.0059,19.5536c-0.159,0.2489 -0.3405,0.482 -0.5418,0.6964h8.5359c0.6904,0 1.25,-0.5596 1.25,-1.25v-4c0,-0.6904 -0.5596,-1.25 -1.25,-1.25h-2.1895l-5.7802,5.7803c-0.008,0.008 -0.0161,0.0157 -0.0244,0.0233zM11.75,16.6895l6.3057,-6.3057l0.0859,-0.0947c0.4003,-0.49095 0.3715,-1.21527 -0.0859,-1.67289l-2.6719,-2.67187c-0.4576,-0.45747 -1.182,-0.48625 -1.6729,-0.08594l-0.0947,0.08594l-1.8662,1.86621zM12.5557,4.88379l0.2089,-0.18848c1.0801,-0.88084 2.6729,-0.81816 3.6797,0.18848l2.6719,2.67187c1.0738,1.07391 1.0738,2.81474 0,3.88864l-0.8057,0.8057h0.6895c1.5188,0 2.75,1.2312 2.75,2.75v4c0,1.5188 -1.2312,2.75 -2.75,2.75h-12c-2.62335,0 -4.75,-2.1266 -4.75,-4.75v-12c0,-1.51878 1.23122,-2.75 2.75,-2.75h4c1.5188,0 2.75,1.23122 2.75,2.75v0.68945zM8,17c0,0.5523 -0.44772,1 -1,1c-0.55228,0 -1,-0.4477 -1,-1c0,-0.5523 0.44772,-1 1,-1c0.55228,0 1,0.4477 1,1z" fill="#002B51"/>
</svg>
