<svg width="36" height="24" viewBox="0 0 36 24" fill="none" xmlns="http://www.w3.org/2000/svg">
<g clip-path="url(#clip0_4050_27838)">
<path d="M0,4c0,-2.20914 1.79086,-4 4,-4h28c2.2091,0 4,1.79086 4,4v16c0,2.2091 -1.7909,4 -4,4h-28c-2.20914,0 -4,-1.7909 -4,-4z" fill="#FF4E4E"/>
<path d="M37.2001,24h-38.40005v-24h38.40005z" fill="#006AA7"/>
<path d="M15.6,24h-4.8v-24h4.8z" fill="#FECC00"/>
<path d="M37.2001,14.4001h-38.40005v-4.8h38.40005z" fill="#FECC00"/>
</g>
<defs>
<clipPath id="clip0_4050_27838">
<path d="M0,4c0,-2.20914 1.79086,-4 4,-4h28c2.2091,0 4,1.79086 4,4v16c0,2.2091 -1.7909,4 -4,4h-28c-2.20914,0 -4,-1.7909 -4,-4z" fill="white"/>
</clipPath>
</defs>
</svg>
