<svg width="36" height="24" viewBox="0 0 36 24" fill="none" xmlns="http://www.w3.org/2000/svg">
<g clip-path="url(#clip0_4050_27837)">
<path d="M0,2c0,-1.10457 0.89543,-2 2,-2h32c1.1046,0 2,0.89543 2,2v20c0,1.1046 -0.8954,2 -2,2h-32c-1.10457,0 -2,-0.8954 -2,-2z" fill="#FF4E4E"/>
<path d="M37.2001,24h-38.40005v-24h38.40005z" fill="#006AA7"/>
<path d="M15.6,24h-4.8v-24h4.8z" fill="#FECC00"/>
<path d="M37.2001,14.4001h-38.40005v-4.8h38.40005z" fill="#FECC00"/>
</g>
<defs>
<clipPath id="clip0_4050_27837">
<path d="M0,2c0,-1.10457 0.89543,-2 2,-2h32c1.1046,0 2,0.89543 2,2v20c0,1.1046 -0.8954,2 -2,2h-32c-1.10457,0 -2,-0.8954 -2,-2z" fill="white"/>
</clipPath>
</defs>
</svg>
