<svg width="24" height="24" viewBox="0 0 24 24" fill="none" xmlns="http://www.w3.org/2000/svg">
<g clip-path="url(#clip0_4050_27843)">
<path d="M0,12c0,-6.62742 5.37258,-12 12,-12c6.6274,0 12,5.37258 12,12c0,6.6274 -5.3726,12 -12,12c-6.62742,0 -12,-5.3726 -12,-12z" fill="#FF4E4E"/>
<path d="M31.2001,24h-38.40005v-24h38.40005z" fill="#006AA7"/>
<path d="M9.60005,24h-4.8v-24h4.8z" fill="#FECC00"/>
<path d="M31.2001,14.4001h-38.40005v-4.8h38.40005z" fill="#FECC00"/>
</g>
<defs>
<clipPath id="clip0_4050_27843">
<path d="M0,12c0,-6.62742 5.37258,-12 12,-12c6.6274,0 12,5.37258 12,12c0,6.6274 -5.3726,12 -12,12c-6.62742,0 -12,-5.3726 -12,-12z" fill="white"/>
</clipPath>
</defs>
</svg>
