<svg width="24" height="24" viewBox="0 0 24 24" fill="none" xmlns="http://www.w3.org/2000/svg">
<path d="M16.5,2.75c1.5188,0 2.75,1.23122 2.75,2.75v13c0,1.5188 -1.2312,2.75 -2.75,2.75h-8.99999c-1.51879,0 -2.75,-1.2312 -2.75,-2.75v-13c0,-1.51878 1.23121,-2.75 2.75,-2.75zM7.50001,4.25c-0.69036,0 -1.25,0.55964 -1.25,1.25v13c0,0.6904 0.55964,1.25 1.25,1.25h8.99999c0.6904,0 1.25,-0.5596 1.25,-1.25v-13c0,-0.69036 -0.5596,-1.25 -1.25,-1.25zM13.5,16.75c0.4142,0 0.75,0.3358 0.75,0.75c0,0.4142 -0.3358,0.75 -0.75,0.75h-3c-0.4142,0 -0.74999,-0.3358 -0.74999,-0.75c0,-0.4142 0.33579,-0.75 0.74999,-0.75z" fill="#002B51"/>
</svg>
