<svg width="24" height="24" viewBox="0 0 24 24" fill="none" xmlns="http://www.w3.org/2000/svg">
<path fill-rule="evenodd" clip-rule="evenodd" d="M4.75 18.5C4.75 20.0188 5.98122 21.25 7.5 21.25H16.5C18.0188 21.25 19.25 20.0188 19.25 18.5L19.25 5.5C19.25 3.98122 18.0188 2.75 16.5 2.75L7.5 2.75C5.98122 2.75 4.75 3.98122 4.75 5.5L4.75 18.5ZM7.5 19.75C6.80964 19.75 6.25 19.1904 6.25 18.5L6.25 5.5C6.25 4.80964 6.80964 4.25 7.5 4.25L16.5 4.25C17.1904 4.25 17.75 4.80964 17.75 5.5L17.75 18.5C17.75 19.1904 17.1904 19.75 16.5 19.75H7.5ZM10.5 16.75C10.0858 16.75 9.75 17.0858 9.75 17.5C9.75 17.9142 10.0858 18.25 10.5 18.25H13.5C13.9142 18.25 14.25 17.9142 14.25 17.5C14.25 17.0858 13.9142 16.75 13.5 16.75H10.5Z" fill="#002B51"/>
</svg>
