<svg width="24" height="24" viewBox="0 0 24 24" fill="none" xmlns="http://www.w3.org/2000/svg">
<path d="M16.5,2.74994c1.5188,0 2.75,1.23122 2.75,2.75v12.99996c0,1.5188 -1.2312,2.75 -2.75,2.75h-9c-1.51878,0 -2.75,-1.2312 -2.75,-2.75v-12.99996c0,-1.51878 1.23122,-2.75 2.75,-2.75zM10.5,16.7499c-0.4142,0 -0.74998,0.3358 -0.75,0.75c0,0.4142 0.3358,0.75 0.75,0.75h3l0.0771,-0.0039c0.378,-0.0386 0.6729,-0.3579 0.6729,-0.7461c0,-0.3881 -0.2949,-0.7074 -0.6729,-0.7461l-0.0771,-0.0039z" fill="#002B51"/>
</svg>
