<svg width="24" height="24" viewBox="0 0 24 24" fill="none" xmlns="http://www.w3.org/2000/svg">
<path fill-rule="evenodd" clip-rule="evenodd" d="M19.25 5.49994C19.25 3.98116 18.0188 2.74994 16.5 2.74994H7.5C5.98122 2.74994 4.75 3.98116 4.75 5.49994V18.4999C4.75 20.0187 5.98122 21.2499 7.5 21.2499H16.5C18.0188 21.2499 19.25 20.0187 19.25 18.4999L19.25 5.49994ZM9.74999 17.5C9.74999 17.0858 10.0858 16.75 10.5 16.75H13.5C13.9142 16.75 14.25 17.0858 14.25 17.5C14.25 17.9142 13.9142 18.25 13.5 18.25H10.5C10.0858 18.25 9.74999 17.9142 9.74999 17.5Z" fill="#002B51"/>
</svg>
