<svg width="24" height="24" viewBox="0 0 24 24" fill="none" xmlns="http://www.w3.org/2000/svg">
<path fill-rule="evenodd" clip-rule="evenodd" d="M4.5 5.75C4.5 5.05964 5.05964 4.5 5.75 4.5H11.4069C11.7384 4.5 12.0563 4.6317 12.2907 4.86612L18.776 11.3514C19.2642 11.8396 19.2642 12.631 18.776 13.1192L13.1192 18.776C12.631 19.2642 11.8396 19.2642 11.3514 18.776L4.86612 12.2907C4.6317 12.0563 4.5 11.7384 4.5 11.4069V5.75ZM5.75 3C4.23122 3 3 4.23122 3 5.75V11.4069C3 12.1362 3.28973 12.8357 3.80546 13.3514L10.2907 19.8367C11.3647 20.9106 13.1059 20.9106 14.1798 19.8367L19.8367 14.1798C20.9106 13.1059 20.9106 11.3647 19.8367 10.2907L13.3514 3.80546C12.8357 3.28973 12.1362 3 11.4069 3H5.75ZM8 9.25C8.69036 9.25 9.25 8.69036 9.25 8C9.25 7.30964 8.69036 6.75 8 6.75C7.30964 6.75 6.75 7.30964 6.75 8C6.75 8.69036 7.30964 9.25 8 9.25Z" fill="#002B51"/>
</svg>
