<svg width="24" height="24" viewBox="0 0 24 24" fill="none" xmlns="http://www.w3.org/2000/svg">
<path fill-rule="evenodd" clip-rule="evenodd" d="M4.5,11.4069c0,0.3315 0.1317,0.6494 0.36612,0.8838l6.48528,6.4853c0.4882,0.4882 1.2796,0.4882 1.7678,0l5.6568,-5.6568c0.4882,-0.4882 0.4882,-1.2796 0,-1.7678l-6.4853,-6.48528c-0.2344,-0.23442 -0.5523,-0.36612 -0.8838,-0.36612h-5.6569c-0.69036,0 -1.25,0.55964 -1.25,1.25zM11.4069,3c0.7293,0 1.4288,0.28973 1.9445,0.80546l6.4853,6.48524c1.0739,1.074 1.0739,2.8152 0,3.8891l-5.6569,5.6569c-1.0739,1.0739 -2.8151,1.0739 -3.8891,0l-6.48524,-6.4853c-0.51573,-0.5157 -0.80546,-1.2152 -0.80546,-1.9445v-5.6569c0,-1.51878 1.23122,-2.75 2.75,-2.75zM6.75,8c0,-0.69036 0.55964,-1.25 1.25,-1.25c0.69036,0 1.25,0.55964 1.25,1.25c0,0.69036 -0.55964,1.25 -1.25,1.25c-0.69036,0 -1.25,-0.55964 -1.25,-1.25z" fill="#002B51"/>
</svg>
