<svg width="24" height="24" viewBox="0 0 24 24" fill="none" xmlns="http://www.w3.org/2000/svg">
<path fill-rule="evenodd" clip-rule="evenodd" d="M19.8369,10.291c1.0736,1.0739 1.0737,2.8148 0,3.8887l-5.6572,5.6572c-1.0739,1.0737 -2.8148,1.0736 -3.8887,0l-6.48534,-6.4853c-0.51563,-0.5157 -0.80556,-1.2152 -0.80566,-1.9444v-5.6572c0,-1.51878 1.23122,-2.75 2.75,-2.75h5.6572c0.7292,0.0001 1.4287,0.29003 1.9444,0.80566zM11.3516,18.7764c0.4881,0.4878 1.2795,0.4878 1.7675,0l5.6573,-5.6573c0.4878,-0.488 0.4878,-1.2794 0,-1.7675l-6.4854,-6.48539c-0.2343,-0.23433 -0.5524,-0.36611 -0.8838,-0.36621h-5.6572c-0.69035,0 -1.25,0.55964 -1.25,1.25v5.6572c0.0001,0.3314 0.13188,0.6495 0.36621,0.8838zM6.75,8c0,-0.69036 0.55964,-1.25 1.25,-1.25c0.69036,0 1.25,0.55964 1.25,1.25c0,0.69036 -0.55964,1.25 -1.25,1.25c-0.69036,0 -1.25,-0.55964 -1.25,-1.25z" fill="#002B51"/>
</svg>
