<svg width="24" height="24" viewBox="0 0 24 24" fill="none" xmlns="http://www.w3.org/2000/svg">
<path fill-rule="evenodd" clip-rule="evenodd" d="M5.75 3C4.23122 3 3 4.23122 3 5.75V11.4069C3 12.1362 3.28973 12.8357 3.80546 13.3514L10.2907 19.8367C11.3647 20.9106 13.1059 20.9106 14.1798 19.8367L19.8367 14.1798C20.9106 13.1059 20.9106 11.3647 19.8367 10.2907L13.3514 3.80546C12.8357 3.28973 12.1362 3 11.4069 3H5.75ZM9.25 8C9.25 8.69036 8.69036 9.25 8 9.25C7.30964 9.25 6.75 8.69036 6.75 8C6.75 7.30964 7.30964 6.75 8 6.75C8.69036 6.75 9.25 7.30964 9.25 8Z" fill="#002B51"/>
</svg>
