<svg width="24" height="24" viewBox="0 0 24 24" fill="none" xmlns="http://www.w3.org/2000/svg">
<path d="M11.4072,3c0.7292,0.0001 1.4287,0.29003 1.9444,0.80566l6.4853,6.48534c1.0736,1.0739 1.0737,2.8148 0,3.8887l-5.6572,5.6572c-1.0739,1.0737 -2.8148,1.0736 -3.8887,0l-6.48534,-6.4853c-0.51563,-0.5157 -0.80556,-1.2152 -0.80566,-1.9444v-5.6572c0,-1.51878 1.23122,-2.75 2.75,-2.75zM8,6.75c-0.69036,0 -1.25,0.55964 -1.25,1.25c0,0.69036 0.55964,1.25 1.25,1.25c0.69036,0 1.25,-0.55964 1.25,-1.25c0,-0.69036 -0.55964,-1.25 -1.25,-1.25z" fill="#002B51"/>
</svg>
