<svg width="24" height="24" viewBox="0 0 24 24" fill="none" xmlns="http://www.w3.org/2000/svg">
<path fill-rule="evenodd" clip-rule="evenodd" d="M11.4069,3c0.7293,0 1.4288,0.28973 1.9445,0.80546l6.4853,6.48524c1.0739,1.074 1.0739,2.8152 0,3.8891l-5.6569,5.6569c-1.0739,1.0739 -2.8151,1.0739 -3.8891,0l-6.48524,-6.4853c-0.51573,-0.5157 -0.80546,-1.2152 -0.80546,-1.9445v-5.6569c0,-1.51878 1.23122,-2.75 2.75,-2.75zM8,6.75c-0.69036,0 -1.25,0.55964 -1.25,1.25c0,0.69036 0.55964,1.25 1.25,1.25c0.69036,0 1.25,-0.55964 1.25,-1.25c0,-0.69036 -0.55964,-1.25 -1.25,-1.25z" fill="#002B51"/>
</svg>
