<svg width="24" height="24" viewBox="0 0 24 24" fill="none" xmlns="http://www.w3.org/2000/svg">
<path d="M7.07715,2.25391c0.37797,0.03862 0.67285,0.35792 0.67285,0.74609v1.77441c2.5267,0.25085 4.5,2.38291 4.5,4.97559c0,1.3631 -0.5461,2.5981 -1.4307,3.5h2.4307v-5.25c0,-0.9665 0.7835,-1.75 1.75,-1.75h3.4336c0.6147,0 1.1847,0.3225 1.501,0.84961l2.709,4.51469c0.0698,0.1165 0.1064,0.2499 0.1064,0.3857v6c0,0.9178 -0.7067,1.6686 -1.6055,1.7422c-0.3242,1.1577 -1.3833,2.0078 -2.6445,2.0078c-1.2585,0 -2.3168,-0.8461 -2.6436,-2h-3.2128c-0.3268,1.1539 -1.3851,2 -2.6436,2c-1.11144,0 -2.06637,-0.6605 -2.5,-1.6094c-0.43363,0.9489 -1.38856,1.6094 -2.5,1.6094c-1.2585,0 -2.31684,-0.8461 -2.64355,-2h-0.35645c-0.41421,0 -0.75,-0.3358 -0.75,-0.75v-5c0,-0.0621 0.00922,-0.122 0.02344,-0.1797c0.00634,-0.0257 0.01451,-0.0506 0.02344,-0.0752c0.00757,-0.0209 0.01508,-0.0415 0.02441,-0.0615c0.01123,-0.0241 0.02446,-0.0468 0.03809,-0.0693c0.00993,-0.0165 0.01914,-0.0333 0.03027,-0.0489c0.01657,-0.0232 0.03564,-0.0442 0.05469,-0.0654c0.01236,-0.0137 0.02377,-0.0282 0.03711,-0.041c0.02073,-0.0199 0.0435,-0.0373 0.0664,-0.0547c0.01462,-0.0111 0.02852,-0.0232 0.04395,-0.0332c0.02354,-0.0153 0.04894,-0.0274 0.07422,-0.04c0.01663,-0.0084 0.03249,-0.0183 0.0498,-0.0254c0.02979,-0.0122 0.06121,-0.02 0.09277,-0.0284c0.01537,-0.004 0.03017,-0.0105 0.0459,-0.0136c0.0032,-0.0007 0.00656,-0.0004 0.00977,-0.001c0.04405,-0.0081 0.08936,-0.0127 0.13574,-0.0127h5.25c1.933,0 3.5,-1.567 3.5,-3.5c0,-1.933 -1.567,-3.5 -3.5,-3.5h-5.25c-0.41421,0 -0.75,-0.33579 -0.75,-0.75c0,-0.41421 0.33579,-0.75 0.75,-0.75h1.25v-1.75l0.00391,-0.07715c0.03862,-0.37797 0.35792,-0.67285 0.74609,-0.67285h3zM5,17.75c-0.69036,0 -1.25,0.5596 -1.25,1.25c0,0.6904 0.55964,1.25 1.25,1.25c0.69036,0 1.25,-0.5596 1.25,-1.25c0,-0.6904 -0.55964,-1.25 -1.25,-1.25zM10,17.75c-0.69036,0 -1.25,0.5596 -1.25,1.25c0,0.6904 0.55964,1.25 1.25,1.25c0.6904,0 1.25,-0.5596 1.25,-1.25c0,-0.6904 -0.5596,-1.25 -1.25,-1.25zM18.5,17.75c-0.6904,0 -1.25,0.5596 -1.25,1.25c0,0.6904 0.5596,1.25 1.25,1.25c0.6904,0 1.25,-0.5596 1.25,-1.25c0,-0.6904 -0.5596,-1.25 -1.25,-1.25zM17.75,11c0,0.1381 0.1119,0.25 0.25,0.25h2.6758l-2.0274,-3.37891c-0.0452,-0.07524 -0.127,-0.12109 -0.2148,-0.12109h-0.6836z" fill="#002B51"/>
</svg>
