<svg width="24" height="24" viewBox="0 0 24 24" fill="none" xmlns="http://www.w3.org/2000/svg">
<path d="M7,2.25c0.41421,0 0.75,0.33579 0.75,0.75v1.78809c2.5356,0.30831 4.5,2.46804 4.5,5.08691c0,1.4157 -0.5739,2.6975 -1.502,3.625h2.502v-5.5c0,-0.9665 0.7835,-1.75 1.75,-1.75h4.6973c0.3269,0.00001 0.7122,0.0896 1.0312,0.3623c0.7282,0.62251 1.1937,1.54926 1.502,2.53418c0.3117,0.99592 0.4868,2.13052 0.581,3.25582c0.1886,2.2512 0.0619,4.5769 -0.0146,5.8965c-0.0521,0.8942 -0.7637,1.6214 -1.6524,1.6934c-0.3242,1.1577 -1.3833,2.0078 -2.6445,2.0078c-1.2585,0 -2.3168,-0.8461 -2.6436,-2h-3.2128c-0.3268,1.1539 -1.3851,2 -2.6436,2c-1.11144,0 -2.06637,-0.6605 -2.5,-1.6094c-0.43363,0.9489 -1.38856,1.6094 -2.5,1.6094c-1.2585,0 -2.31684,-0.8461 -2.64355,-2h-0.35645c-0.41421,0 -0.75,-0.3358 -0.75,-0.75c0,-0.4142 0.33579,-0.75 0.75,-0.75h0.35645c0.32671,-1.1539 1.38505,-2 2.64355,-2c1.11112,0 2.0662,0.66 2.5,1.6084c0.4338,-0.9484 1.38888,-1.6084 2.5,-1.6084c1.2585,0 2.3168,0.8461 2.6436,2h0.6064v-3.5h-11.25c-0.41421,0 -0.75,-0.3358 -0.75,-0.75c0,-0.4142 0.33579,-0.75 0.75,-0.75h5.125c2.00203,0 3.625,-1.623 3.625,-3.625c0,-2.00203 -1.62297,-3.625 -3.625,-3.625h-5.125c-0.41421,0 -0.75,-0.33579 -0.75,-0.75c0,-0.41421 0.33579,-0.75 0.75,-0.75h1.25v-1.75l0.00391,-0.07715c0.03862,-0.37797 0.35792,-0.67285 0.74609,-0.67285zM5,18c-0.69036,0 -1.25,0.5596 -1.25,1.25c0,0.6904 0.55964,1.25 1.25,1.25c0.69036,0 1.25,-0.5596 1.25,-1.25c0,-0.6904 -0.55964,-1.25 -1.25,-1.25zM10,18c-0.69036,0 -1.25,0.5596 -1.25,1.25c0,0.6904 0.55964,1.25 1.25,1.25c0.6904,0 1.25,-0.5596 1.25,-1.25c0,-0.6904 -0.5596,-1.25 -1.25,-1.25zM18.5,18c-0.6904,0 -1.25,0.5596 -1.25,1.25c0,0.6904 0.5596,1.25 1.25,1.25c0.6904,0 1.25,-0.5596 1.25,-1.25c0,-0.6904 -0.5596,-1.25 -1.25,-1.25zM15,7.75c-0.1381,0 -0.25,0.11193 -0.25,0.25v10.5h1.1064c0.3268,-1.1539 1.3851,-2 2.6436,-2c1.2454,0 2.2954,0.8285 2.6338,1.9639c0.0905,-0.0487 0.1595,-0.1422 0.166,-0.252c0.0512,-0.8834 0.119,-2.1719 0.1064,-3.5664l-4.5537,-0.9101c-0.3503,-0.0703 -0.6025,-0.378 -0.6025,-0.7354v-3.5c0,-0.41421 0.3358,-0.75 0.75,-0.75h3.4707c-0.2091,-0.43429 -0.4491,-0.76817 -0.7168,-0.99707c0.0089,0.00752 0.0124,0.00762 0.0039,0.00488c-0.0096,-0.00308 -0.0297,-0.00781 -0.0605,-0.00781zM17.75,12.3848l3.6045,0.7207c-0.0115,-0.1926 -0.022,-0.3854 -0.0381,-0.5772c-0.0674,-0.8047 -0.1761,-1.5803 -0.3398,-2.2783h-3.2266zM4.75,4.75h1.5v-1h-1.5z" fill="#002B51"/>
</svg>
