<svg width="24" height="24" viewBox="0 0 24 24" fill="none" xmlns="http://www.w3.org/2000/svg">
<path fill-rule="evenodd" clip-rule="evenodd" d="M18.4336,6.25c0.6147,0 1.1847,0.3225 1.501,0.84961l2.709,4.51469c0.0698,0.1165 0.1064,0.2499 0.1064,0.3857v6c0,0.9166 -0.7046,1.6686 -1.6018,1.7438c-0.3244,1.1574 -1.3872,2.0062 -2.6482,2.0062c-1.2588,0 -2.32,-0.8457 -2.6465,-2h-3.207c-0.3265,1.1543 -1.3877,2 -2.6465,2c-1.1093,0 -2.06519,-0.6568 -2.5,-1.6028c-0.4348,0.946 -1.3907,1.6028 -2.5,1.6028c-1.25878,0 -2.32002,-0.8457 -2.64648,-2h-0.35352c-0.41421,0 -0.75,-0.3358 -0.75,-0.75c0,-0.4142 0.33579,-0.75 0.75,-0.75h0.35352c0.32646,-1.1543 1.3877,-2 2.64648,-2c1.1093,0 2.0652,0.6568 2.5,1.6028c0.43481,-0.946 1.3907,-1.6028 2.5,-1.6028c1.2588,0 2.32,0.8457 2.6465,2h0.6035v-3.5h-11.25c-0.41421,0 -0.75,-0.3358 -0.75,-0.75c0,-0.4142 0.33579,-0.75 0.75,-0.75h5.25c1.933,0 3.5,-1.567 3.5,-3.5c0,-1.933 -1.567,-3.5 -3.5,-3.5h-5.25c-0.41421,0 -0.75,-0.33579 -0.75,-0.75c0,-0.41421 0.33579,-0.75 0.75,-0.75h1.25v-1.75l0.00391,-0.07715c0.03862,-0.37797 0.35792,-0.67285 0.74609,-0.67285h3l0.07715,0.00391c0.37797,0.03862 0.67285,0.35792 0.67285,0.74609v1.77441c2.5267,0.25085 4.5,2.38291 4.5,4.97559c0,1.3631 -0.5461,2.5981 -1.4307,3.5h2.4307v-5.25c0,-0.9665 0.7835,-1.75 1.75,-1.75zM21.135,18.2105c0.0692,-0.0445 0.115,-0.1221 0.115,-0.2105v-5.25h-3.25c-0.9665,0 -1.75,-0.7835 -1.75,-1.75v-3.25h-1.25c-0.1381,0 -0.25,0.11193 -0.25,0.25v10.25h1.1035c0.3265,-1.1543 1.3877,-2 2.6465,-2c1.2444,0 2.2957,0.8265 2.635,1.9605zM18,11.25h2.6753l-2.0269,-3.37891c-0.0452,-0.07524 -0.127,-0.12109 -0.2148,-0.12109h-0.6836v3.25c0,0.1381 0.1119,0.25 0.25,0.25zM11.25,19c0,-0.6904 -0.5596,-1.25 -1.25,-1.25c-0.69036,0 -1.25,0.5596 -1.25,1.25c0,0.6904 0.55964,1.25 1.25,1.25c0.6904,0 1.25,-0.5596 1.25,-1.25zM6.25,3.75h-1.5v1h1.5zM3.75,19c0,0.6904 0.55964,1.25 1.25,1.25c0.69036,0 1.25,-0.5596 1.25,-1.25c0,-0.6904 -0.55964,-1.25 -1.25,-1.25c-0.69036,0 -1.25,0.5596 -1.25,1.25zM17.25,19c0,0.6904 0.5596,1.25 1.25,1.25c0.6904,0 1.25,-0.5596 1.25,-1.25c0,-0.6904 -0.5596,-1.25 -1.25,-1.25c-0.6904,0 -1.25,0.5596 -1.25,1.25z" fill="#002B51"/>
</svg>
