<svg width="24" height="24" viewBox="0 0 24 24" fill="none" xmlns="http://www.w3.org/2000/svg">
<path fill-rule="evenodd" clip-rule="evenodd" d="M4 2.25C3.58579 2.25 3.25 2.58579 3.25 3V4.75H2C1.58579 4.75 1.25 5.08579 1.25 5.5C1.25 5.91421 1.58579 6.25 2 6.25H4H7H7.25C9.183 6.25 10.75 7.817 10.75 9.75C10.75 11.683 9.183 13.25 7.25 13.25H4H2C1.58579 13.25 1.25 13.5858 1.25 14V19C1.25 19.4142 1.58579 19.75 2 19.75H2.35352C2.67998 20.9043 3.74122 21.75 5 21.75C6.1093 21.75 7.0652 21.0932 7.5 20.1472C7.93481 21.0932 8.8907 21.75 10 21.75C11.2588 21.75 12.32 20.9043 12.6465 19.75H14H15.8535C16.18 20.9043 17.2412 21.75 18.5 21.75C19.761 21.75 20.8238 20.9012 21.1482 19.7438C22.0454 19.6686 22.75 18.9166 22.75 18V12C22.75 11.8641 22.7131 11.7307 22.6431 11.6141L19.9344 7.09963C19.6182 6.57252 19.0485 6.25 18.4338 6.25H15C14.0335 6.25 13.25 7.0335 13.25 8V13.25H10.8207C11.7048 12.3481 12.25 11.1127 12.25 9.75C12.25 7.15733 10.2767 5.02555 7.75 4.77469V3C7.75 2.58579 7.41421 2.25 7 2.25H4ZM17.75 7.75V11C17.75 11.1381 17.8619 11.25 18 11.25H20.6754L18.6482 7.87138C18.603 7.79607 18.5216 7.75 18.4338 7.75H17.75ZM11.25 19C11.25 18.3096 10.6904 17.75 10 17.75C9.30964 17.75 8.75 18.3096 8.75 19C8.75 19.6904 9.30964 20.25 10 20.25C10.6904 20.25 11.25 19.6904 11.25 19ZM5 20.25C4.30964 20.25 3.75 19.6904 3.75 19C3.75 18.3096 4.30964 17.75 5 17.75C5.69036 17.75 6.25 18.3096 6.25 19C6.25 19.6904 5.69036 20.25 5 20.25ZM18.5 17.75C17.8096 17.75 17.25 18.3096 17.25 19C17.25 19.6904 17.8096 20.25 18.5 20.25C19.1904 20.25 19.75 19.6904 19.75 19C19.75 18.3096 19.1904 17.75 18.5 17.75Z" fill="#002B51"/>
</svg>
