<svg width="24" height="24" viewBox="0 0 24 24" fill="none" xmlns="http://www.w3.org/2000/svg">
<path fill-rule="evenodd" clip-rule="evenodd" d="M7,2.25c0.41421,0 0.75,0.33579 0.75,0.75v1.77469c2.5267,0.25086 4.5,2.38264 4.5,4.97531c0,1.3627 -0.5452,2.5981 -1.4293,3.5h2.4293v-5.25c0,-0.9665 0.7835,-1.75 1.75,-1.75h3.4338c0.6147,0 1.1844,0.32252 1.5006,0.84963l2.7087,4.51447c0.07,0.1166 0.1069,0.25 0.1069,0.3859v6c0,0.9166 -0.7046,1.6686 -1.6018,1.7438c-0.3244,1.1574 -1.3872,2.0062 -2.6482,2.0062c-1.2588,0 -2.32,-0.8457 -2.6465,-2h-1.8535h-1.3535c-0.3265,1.1543 -1.3877,2 -2.6465,2c-1.1093,0 -2.06519,-0.6568 -2.5,-1.6028c-0.4348,0.946 -1.3907,1.6028 -2.5,1.6028c-1.25878,0 -2.32002,-0.8457 -2.64648,-2h-0.35352c-0.41421,0 -0.75,-0.3358 -0.75,-0.75c0,-0.4142 0.33579,-0.75 0.75,-0.75h0.35352c0.32646,-1.1543 1.3877,-2 2.64648,-2c1.1093,0 2.0652,0.6568 2.5,1.6028c0.43481,-0.946 1.3907,-1.6028 2.5,-1.6028c1.2588,0 2.32,0.8457 2.6465,2h0.6035v-3.5h-6h-3.25h-2c-0.41421,0 -0.75,-0.3358 -0.75,-0.75c0,-0.4142 0.33579,-0.75 0.75,-0.75h2h3.25c1.933,0 3.5,-1.567 3.5,-3.5c0,-1.933 -1.567,-3.5 -3.5,-3.5h-0.25h-3h-2c-0.41421,0 -0.75,-0.33579 -0.75,-0.75c0,-0.41421 0.33579,-0.75 0.75,-0.75h1.25v-1.75c0,-0.41421 0.33579,-0.75 0.75,-0.75zM21.135,18.2105c0.0692,-0.0445 0.115,-0.1221 0.115,-0.2105v-5.25h-3.25c-0.9665,0 -1.75,-0.7835 -1.75,-1.75v-3.25h-1.25c-0.1381,0 -0.25,0.11193 -0.25,0.25v6v4.25h1.1035c0.3265,-1.1543 1.3877,-2 2.6465,-2c1.2444,0 2.2957,0.8265 2.635,1.9605zM18,11.25h2.6754l-2.0272,-3.37862c-0.0452,-0.07531 -0.1266,-0.12138 -0.2144,-0.12138h-0.6838v3.25c0,0.1381 0.1119,0.25 0.25,0.25zM11.25,19c0,-0.6904 -0.5596,-1.25 -1.25,-1.25c-0.69036,0 -1.25,0.5596 -1.25,1.25c0,0.6904 0.55964,1.25 1.25,1.25c0.6904,0 1.25,-0.5596 1.25,-1.25zM6.25,3.75h-1.5v1h1.5zM6.25,19c0,-0.6904 -0.55964,-1.25 -1.25,-1.25c-0.69036,0 -1.25,0.5596 -1.25,1.25c0,0.6904 0.55964,1.25 1.25,1.25c0.69036,0 1.25,-0.5596 1.25,-1.25zM18.5,20.25c0.6904,0 1.25,-0.5596 1.25,-1.25c0,-0.6904 -0.5596,-1.25 -1.25,-1.25c-0.6904,0 -1.25,0.5596 -1.25,1.25c0,0.6904 0.5596,1.25 1.25,1.25z" fill="#002B51"/>
</svg>
