<svg width="24" height="24" viewBox="0 0 24 24" fill="none" xmlns="http://www.w3.org/2000/svg">
<path d="M7,2.25c0.41421,0 0.75,0.33579 0.75,0.75v1.77441c2.5267,0.25085 4.5,2.38291 4.5,4.97559c0,1.3631 -0.5461,2.5981 -1.4307,3.5h2.4307v-5.25c0,-0.9665 0.7835,-1.75 1.75,-1.75h3.4336c0.6147,0 1.1847,0.3225 1.501,0.84961l2.709,4.51469c0.0698,0.1165 0.1064,0.2499 0.1064,0.3857v6c0,0.9178 -0.7067,1.6686 -1.6055,1.7422c-0.3242,1.1577 -1.3833,2.0078 -2.6445,2.0078c-1.2585,0 -2.3168,-0.8461 -2.6436,-2h-3.2128c-0.3268,1.1539 -1.3851,2 -2.6436,2c-1.11144,0 -2.06637,-0.6605 -2.5,-1.6094c-0.43363,0.9489 -1.38856,1.6094 -2.5,1.6094c-1.2585,0 -2.31684,-0.8461 -2.64355,-2h-0.35645c-0.41421,0 -0.75,-0.3358 -0.75,-0.75c0,-0.4142 0.33579,-0.75 0.75,-0.75h0.35645c0.32671,-1.1539 1.38505,-2 2.64355,-2c1.11112,0 2.0662,0.66 2.5,1.6084c0.4338,-0.9484 1.38888,-1.6084 2.5,-1.6084c1.2585,0 2.3168,0.8461 2.6436,2h0.6064v-3.5h-11.25c-0.41421,0 -0.75,-0.3358 -0.75,-0.75c0,-0.4142 0.33579,-0.75 0.75,-0.75h5.25c1.933,0 3.5,-1.567 3.5,-3.5c0,-1.933 -1.567,-3.5 -3.5,-3.5h-5.25c-0.41421,0 -0.75,-0.33579 -0.75,-0.75c0,-0.41421 0.33579,-0.75 0.75,-0.75h1.25v-1.75l0.00391,-0.07715c0.03862,-0.37797 0.35792,-0.67285 0.74609,-0.67285zM5,17.75c-0.69036,0 -1.25,0.5596 -1.25,1.25c0,0.6904 0.55964,1.25 1.25,1.25c0.69036,0 1.25,-0.5596 1.25,-1.25c0,-0.6904 -0.55964,-1.25 -1.25,-1.25zM10,17.75c-0.69036,0 -1.25,0.5596 -1.25,1.25c0,0.6904 0.55964,1.25 1.25,1.25c0.6904,0 1.25,-0.5596 1.25,-1.25c0,-0.6904 -0.5596,-1.25 -1.25,-1.25zM18.5,17.75c-0.6904,0 -1.25,0.5596 -1.25,1.25c0,0.6904 0.5596,1.25 1.25,1.25c0.6904,0 1.25,-0.5596 1.25,-1.25c0,-0.6904 -0.5596,-1.25 -1.25,-1.25zM15,7.75c-0.1381,0 -0.25,0.11193 -0.25,0.25v10.25h1.1064c0.3268,-1.1539 1.3851,-2 2.6436,-2c1.244,0 2.2932,0.8265 2.6328,1.96c0.0699,-0.0444 0.1172,-0.1211 0.1172,-0.21v-5.25h-3.25c-0.9665,0 -1.75,-0.7835 -1.75,-1.75v-3.25zM17.75,11c0,0.1381 0.1119,0.25 0.25,0.25h2.6758l-2.0274,-3.37891c-0.0452,-0.07524 -0.127,-0.12109 -0.2148,-0.12109h-0.6836zM4.75,4.75h1.5v-1h-1.5z" fill="#002B51"/>
</svg>
