<svg width="24" height="24" viewBox="0 0 24 24" fill="none" xmlns="http://www.w3.org/2000/svg">
<path d="M9,4.25c1.7655,0 3.4007,0.41575 4.6201,1.12695c1.2011,0.70063 2.1299,1.77906 2.1299,3.12305v2.75h4.25c0.9665,0 1.75,0.7835 1.75,1.75v5c0,0.9665 -0.7835,1.75 -1.75,1.75h-13c-1.24392,0 -2.42501,-0.6145 -3.28027,-1.4697c-0.85526,-0.8553 -1.46973,-2.0364 -1.46973,-3.2803v-6.5c0,-1.34399 0.92881,-2.42242 2.12988,-3.12305c1.21944,-0.7112 2.85457,-1.12695 4.62012,-1.12695zM3.75,15c0,0.7561 0.38553,1.575 1.03027,2.2197c0.64474,0.6448 1.46365,1.0303 2.21973,1.0303h0.25v-1.25c0,-0.4142 0.33579,-0.75 0.75,-0.75c0.41421,0 0.75,0.3358 0.75,0.75v1.25h2.5v-1.25c0,-0.4142 0.3358,-0.75 0.75,-0.75c0.4142,0 0.75,0.3358 0.75,0.75v1.25h2.5v-1.25c0,-0.4142 0.3358,-0.75 0.75,-0.75c0.4142,0 0.75,0.3358 0.75,0.75v1.25h3.25c0.1381,0 0.25,-0.1119 0.25,-0.25v-5c0,-0.1381 -0.1119,-0.25 -0.25,-0.25h-11c-1.76555,0 -3.40068,-0.4158 -4.62012,-1.127c-0.22075,-0.1287 -0.4316,-0.2712 -0.62988,-0.4248zM14.1816,11.25h0.0684v-0.0518c-0.0226,0.0175 -0.0455,0.0346 -0.0684,0.0518zM9,8.75c-0.86014,0 -1.60178,0.20117 -2.10254,0.4873c-0.52197,0.29828 -0.64746,0.59571 -0.64746,0.7627c0,0.167 0.12549,0.4644 0.64746,0.7627c0.50076,0.2861 1.2424,0.4873 2.10254,0.4873c0.86014,0 1.6018,-0.2012 2.1025,-0.4873c0.522,-0.2983 0.6475,-0.5957 0.6475,-0.7627c0,-0.16699 -0.1255,-0.46442 -0.6475,-0.7627c-0.5007,-0.28613 -1.24236,-0.4873 -2.1025,-0.4873zM9,5.75c-1.54771,0 -2.91219,0.3676 -3.86426,0.92285c-0.9705,0.56613 -1.38574,1.23815 -1.38574,1.82715c0,0.50462 0.30531,1.06946 1.00293,1.5771c-0.00099,-0.0255 -0.00293,-0.0512 -0.00293,-0.0771c0,-0.93758 0.65854,-1.63984 1.40332,-2.06543c0.76596,-0.43762 1.77396,-0.68457 2.84668,-0.68457c1.0727,0 2.0807,0.24695 2.8467,0.68457c0.7448,0.42559 1.4033,1.12785 1.4033,2.06543c0,0.0259 -0.0029,0.0516 -0.0039,0.0771c0.6981,-0.50776 1.0039,-1.07232 1.0039,-1.5771c0,-0.589 -0.4152,-1.26102 -1.3857,-1.82715c-0.9521,-0.55525 -2.3166,-0.92285 -3.8643,-0.92285z" fill="#002B51"/>
</svg>
