<svg width="24" height="24" viewBox="0 0 24 24" fill="none" xmlns="http://www.w3.org/2000/svg">
<path d="M8.99998,4.25c1.76552,0 3.40072,0.41575 4.62012,1.12695c1.2011,0.70063 2.1299,1.77906 2.1299,3.12305v2.75h4.25c0.9665,0 1.75,0.7835 1.75,1.75v5c0,0.9665 -0.7835,1.75 -1.75,1.75h-13.00002c-1.24392,0 -2.42501,-0.6145 -3.28027,-1.4697c-0.85526,-0.8553 -1.46973,-2.0364 -1.46973,-3.2803v-6.5c0,-1.34399 0.92881,-2.42242 2.12989,-3.12305c1.21943,-0.7112 2.85457,-1.12695 4.62011,-1.12695zM3.74998,15c0,0.7561 0.38554,1.575 1.03028,2.2197c0.64474,0.6448 1.46365,1.0303 2.21972,1.0303h0.25v-1.25c0,-0.4142 0.33579,-0.75 0.75,-0.75c0.41422,0 0.75,0.3358 0.75,0.75v1.25h2.50002v-1.25c0,-0.4142 0.3358,-0.75 0.75,-0.75c0.4142,0 0.75,0.3358 0.75,0.75v1.25h2.5v-1.25c0,-0.4142 0.3358,-0.75 0.75,-0.75c0.4142,0 0.75,0.3358 0.75,0.75v1.25h3.25c0.1381,0 0.25,-0.1119 0.25,-0.25v-5c0,-0.1381 -0.1119,-0.25 -0.25,-0.25h-11.00002c-1.76554,0 -3.40068,-0.4158 -4.62011,-1.127c-0.22075,-0.1287 -0.43161,-0.2712 -0.62989,-0.4248zM14.1816,11.25h0.0684v-0.0518c-0.0226,0.0175 -0.0455,0.0346 -0.0684,0.0518zM8.99998,8.75c-0.86014,0 -1.60178,0.20117 -2.10253,0.4873c-0.52198,0.29828 -0.64747,0.59571 -0.64747,0.7627c0,0.167 0.12549,0.4644 0.64747,0.7627c0.50075,0.2861 1.24239,0.4873 2.10253,0.4873c0.86015,0 1.60182,-0.2012 2.10252,-0.4873c0.522,-0.2983 0.6475,-0.5957 0.6475,-0.7627c0,-0.16699 -0.1255,-0.46442 -0.6475,-0.7627c-0.5007,-0.28613 -1.24237,-0.4873 -2.10252,-0.4873zM8.99998,5.75c-1.54771,0 -2.91218,0.3676 -3.86425,0.92285c-0.9705,0.56613 -1.38575,1.23815 -1.38575,1.82715c0,0.50462 0.30531,1.06946 1.00293,1.5771c-0.00099,-0.0255 -0.00293,-0.0512 -0.00293,-0.0771c0,-0.93758 0.65855,-1.63984 1.40333,-2.06543c0.76596,-0.43762 1.77395,-0.68457 2.84667,-0.68457c1.07272,0 2.08072,0.24695 2.84672,0.68457c0.7447,0.42559 1.4033,1.12785 1.4033,2.06543c0,0.0259 -0.0029,0.0516 -0.0039,0.0771c0.6981,-0.50776 1.0039,-1.07232 1.0039,-1.5771c0,-0.589 -0.4153,-1.26102 -1.3858,-1.82715c-0.952,-0.55525 -2.3165,-0.92285 -3.86422,-0.92285z" fill="#002B51"/>
</svg>
