<svg width="24" height="24" viewBox="0 0 24 24" fill="none" xmlns="http://www.w3.org/2000/svg">
<path fill-rule="evenodd" clip-rule="evenodd" d="M5.13526,6.67296c-0.9705,0.56613 -1.38526,1.23804 -1.38526,1.82704c0,0.50451 0.3043,1.06985 1.00151,1.5774c-0.001,-0.0256 -0.00151,-0.0514 -0.00151,-0.0774c0,-0.93758 0.65825,-1.63981 1.40302,-2.0654c0.766,-0.43771 1.77414,-0.6846 2.84698,-0.6846c1.0728,0 2.081,0.24689 2.847,0.6846c0.7448,0.42559 1.403,1.12782 1.403,2.0654c0,0.026 -0.0005,0.0518 -0.0015,0.0774c0.6972,-0.50755 1.0015,-1.07289 1.0015,-1.5774c0,-0.589 -0.4148,-1.26091 -1.3853,-1.82704c-0.952,-0.55538 -2.3168,-0.92296 -3.8647,-0.92296c-1.54793,0 -2.91265,0.36758 -3.86474,0.92296zM14.25,11.1997c-0.0219,0.0169 -0.0439,0.0337 -0.066,0.0503h0.066zM20,11.25c0.9665,0 1.75,0.7835 1.75,1.75v5c0,0.9665 -0.7835,1.75 -1.75,1.75h-4h-4h-4h-1c-1.24392,0 -2.42507,-0.6144 -3.28033,-1.4697c-0.85526,-0.8552 -1.46967,-2.0364 -1.46967,-3.2803v-6.5c0,-1.34399 0.92838,-2.42208 2.12946,-3.12271c1.21948,-0.71136 2.85477,-1.12729 4.62054,-1.12729c1.7658,0 3.4011,0.41593 4.6205,1.12729c1.2011,0.70063 2.1295,1.77872 2.1295,3.12271v2.75zM15,12.75h-6c-1.76577,0 -3.40106,-0.4159 -4.62054,-1.1273c-0.22035,-0.1285 -0.43152,-0.2698 -0.62946,-0.423v3.8003c0,0.7561 0.38559,1.5749 1.03033,2.2197c0.64474,0.6447 1.46359,1.0303 2.21967,1.0303h0.25v-1.25c0,-0.4142 0.33579,-0.75 0.75,-0.75c0.41421,0 0.75,0.3358 0.75,0.75v1.25h2.5v-1.25c0,-0.4142 0.3358,-0.75 0.75,-0.75c0.4142,0 0.75,0.3358 0.75,0.75v1.25h2.5v-1.25c0,-0.4142 0.3358,-0.75 0.75,-0.75c0.4142,0 0.75,0.3358 0.75,0.75v1.25h3.25c0.1381,0 0.25,-0.1119 0.25,-0.25v-5c0,-0.1381 -0.1119,-0.25 -0.25,-0.25zM9,11.25c0.86016,0 1.602,-0.2008 2.1028,-0.487c0.5219,-0.2982 0.6472,-0.596 0.6472,-0.763c0,-0.16699 -0.1253,-0.46476 -0.6472,-0.76303c-0.5008,-0.28615 -1.24264,-0.48697 -2.1028,-0.48697c-0.86016,0 -1.60201,0.20082 -2.10277,0.48697c-0.52197,0.29827 -0.64723,0.59604 -0.64723,0.76303c0,0.167 0.12526,0.4648 0.64723,0.763c0.50076,0.2862 1.24261,0.487 2.10277,0.487z" fill="#002B51"/>
</svg>
