<svg width="24" height="24" viewBox="0 0 24 24" fill="none" xmlns="http://www.w3.org/2000/svg">
<path d="M12.0002,11.5001c1.3806,0.0001 2.5,1.1194 2.5,2.5c0,0.8473 -0.4235,1.5937 -1.0683,2.0459l2.6924,4.038c0.2296,0.3446 0.1364,0.8103 -0.208,1.0401c-0.3446,0.2297 -0.8103,0.1365 -1.0401,-0.208l-2.8769,-4.3145l-2.87503,4.3145c-0.22972,0.3446 -0.69542,0.4376 -1.04004,0.208c-0.34465,-0.2298 -0.43777,-0.6954 -0.20801,-1.0401l2.69048,-4.0371c-0.64461,-0.4521 -1.06644,-1.1997 -1.06646,-2.0468c0,-1.3808 1.11926,-2.5 2.49996,-2.5zM15.8655,2.42194c1.4408,-0.48017 2.9982,0.29753 3.4785,1.73828l1.7344,5.20508c0.4802,1.4407 -0.2977,2.9981 -1.7383,3.4785l-0.7061,0.2354c-1.0579,0.3524 -2.1766,0.0246 -2.8877,-0.7442l-0.5908,0.1475c-0.5652,-1.173 -1.766,-1.9823 -3.1553,-1.9824c-1.9329,0 -3.49996,1.567 -3.49996,3.5c0.00001,0.0487 0.00193,0.0972 0.00391,0.1455l-2.38184,0.5966c-1.47306,0.3681 -2.96634,-0.5271 -3.33496,-2l-0.11035,-0.4433c-0.32179,-1.2874 0.32137,-2.62162 1.5293,-3.17091l9.0879,-4.13086c0.1029,-1.047 0.8038,-1.98762 1.8662,-2.3418zM17.9211,4.63483c-0.2183,-0.65492 -0.9271,-1.00931 -1.582,-0.79102l-0.7041,0.23535c-0.6549,0.2183 -1.0093,0.92612 -0.791,1.58106l1.7041,5.11528l0.0303,0.0898c0.2183,0.6549 0.9271,1.0093 1.582,0.791l0.7051,-0.2353c0.6548,-0.2184 1.0083,-0.9262 0.79,-1.5811z" fill="#002B51"/>
</svg>
