<svg width="24" height="24" viewBox="0 0 24 24" fill="none" xmlns="http://www.w3.org/2000/svg">
<path d="M11.9997,11.5004c1.3807,0 2.5,1.1193 2.5,2.5c-0.0001,0.8474 -0.4233,1.5938 -1.0683,2.0459l2.6924,4.0381c0.2296,0.3446 0.1366,0.8103 -0.2081,1.04c-0.3445,0.2294 -0.8103,0.1364 -1.04,-0.208l-2.8769,-4.3145l-2.87505,4.3145c-0.22985,0.3443 -0.69552,0.4377 -1.04004,0.208c-0.34447,-0.2297 -0.43742,-0.6955 -0.208,-1.04l2.69139,-4.0381c-0.64444,-0.4521 -1.06725,-1.1989 -1.06737,-2.0459c0,-1.3807 1.11937,-2.4999 2.49997,-2.5zM15.865,2.42127c1.4407,-0.4802 2.999,0.29771 3.4795,1.73828l1.7343,5.20606c0.4799,1.44049 -0.2979,2.99809 -1.7382,3.47849l-0.7061,0.2354c-1.0577,0.3523 -2.1776,0.0253 -2.8887,-0.7432l-0.5908,0.1475c-0.565,-1.1733 -1.765,-1.9832 -3.1543,-1.9834c-1.933,0 -3.49999,1.567 -3.49999,3.5c0,0.0486 0.00096,0.0973 0.00293,0.1455l-2.38184,0.5967c-1.47293,0.3679 -2.96623,-0.5274 -3.33496,-2l-0.11035,-0.4434c-0.3218,-1.2874 0.32228,-2.62164 1.53027,-3.1709l9.08794,-4.13086c0.1028,-1.04708 0.8027,-1.98757 1.8652,-2.34179zM17.9216,4.63514c-0.2183,-0.65491 -0.9271,-1.01026 -1.582,-0.79199l-0.7051,0.23535c-0.6549,0.21833 -1.0083,0.92712 -0.79,1.58203l1.6738,5.02437l0.0605,0.1807c0.2185,0.6547 0.9273,1.0093 1.5821,0.791l0.7041,-0.2353c0.6547,-0.2183 1.009,-0.9263 0.791,-1.58108z" fill="#002B51"/>
</svg>
