<svg width="24" height="24" viewBox="0 0 24 24" fill="none" xmlns="http://www.w3.org/2000/svg">
<path d="M15.8656,2.42175c1.4407,-0.4801 2.9982,0.29757 3.4785,1.73828l1.7343,5.20508c0.4803,1.44079 -0.2975,2.99919 -1.7382,3.47949l-0.7061,0.2354c-1.0579,0.3523 -2.1767,0.0236 -2.8877,-0.7452l-0.8408,0.21c0.2197,0.4379 0.3447,0.9318 0.3447,1.4551c0,1.0641 -0.5142,2.0058 -1.3047,2.5986l2.1905,3.5039c0.2194,0.3511 0.1126,0.8136 -0.2383,1.0332c-0.3512,0.2195 -0.8137,0.1129 -1.0332,-0.2383l-2.3096,-3.6953c-0.1803,0.0311 -0.3655,0.0479 -0.5547,0.0479c-0.1893,0 -0.3752,-0.0168 -0.5556,-0.0479l-2.30864,3.6953c-0.21952,0.3512 -0.682,0.4577 -1.0332,0.2383c-0.35118,-0.2195 -0.4578,-0.682 -0.23828,-1.0332l2.18942,-3.5039c-0.76978,-0.5774 -1.27593,-1.4855 -1.30173,-2.5156l-2.63086,0.6592c-1.47314,0.368 -2.96641,-0.527 -3.33496,-2l-0.11035,-0.4434c-0.32183,-1.2875 0.3221,-2.62171 1.53028,-3.17089l9.08792,-4.13086c0.1029,-1.04675 0.8032,-1.98654 1.8652,-2.34082zM12.0003,12.2499c-0.9664,0 -1.7499,0.7835 -1.75,1.75c0,0.9665 0.7835,1.75 1.75,1.75c0.9664,-0.0002 1.75,-0.7836 1.75,-1.75c-0.0001,-0.9663 -0.7837,-1.7498 -1.75,-1.75zM4.82649,10.493c-0.54889,0.2497 -0.84141,0.8564 -0.69531,1.4414l0.11133,0.4434c0.16754,0.6695 0.84605,1.0764 1.51562,0.9092l3.38965,-0.8486c0.55229,-1.0066 1.62342,-1.6885 2.85252,-1.6885c0.6568,0 1.2672,0.1962 1.7783,0.5312l1.253,-0.3125l-1.4805,-4.44235zM17.9212,4.63464c-0.2183,-0.6549 -0.9271,-1.0093 -1.582,-0.79101l-0.7041,0.23535c-0.6549,0.21829 -1.0093,0.92615 -0.791,1.58105l0.8672,2.60254l0.8505,2.55373l0.0166,0.0488c0.2184,0.6549 0.9271,1.0093 1.5821,0.791l0.7051,-0.2353c0.6547,-0.2184 1.0083,-0.9262 0.79,-1.58108z" fill="#002B51"/>
</svg>
