<svg width="24" height="24" viewBox="0 0 24 24" fill="none" xmlns="http://www.w3.org/2000/svg">
<path d="M15.865,2.42102c1.4408,-0.48024 2.9992,0.29847 3.4795,1.73926l1.7344,5.20508c0.48,1.44074 -0.2986,2.99824 -1.7393,3.47854l-0.7051,0.2353c-1.058,0.3525 -2.1776,0.0248 -2.8886,-0.7441l-0.8399,0.2099c0.2196,0.4379 0.3438,0.9319 0.3438,1.4551c-0.0001,1.0643 -0.514,2.0059 -1.3047,2.5987l2.1904,3.5039c0.2195,0.3512 0.1129,0.8136 -0.2383,1.0332c-0.3512,0.2193 -0.8137,0.1128 -1.0332,-0.2383l-2.3105,-3.6963c-0.18,0.0309 -0.365,0.0488 -0.5537,0.0488c-0.1892,0 -0.3744,-0.0178 -0.5547,-0.0488l-2.3096,3.6963c-0.2196,0.351 -0.68204,0.4577 -1.0332,0.2383c-0.35102,-0.2196 -0.45761,-0.6821 -0.23828,-1.0332l2.18948,-3.5039c-0.76964,-0.5774 -1.27593,-1.4857 -1.30179,-2.5157l-2.62988,0.6592c-1.47319,0.3683 -2.96634,-0.527 -3.33496,-2l-0.11035,-0.4433c-0.3218,-1.2874 0.32135,-2.62166 1.52929,-3.17095l9.08889,-4.13086c0.1029,-1.047 0.8028,-1.98762 1.8652,-2.34179zM11.9998,12.2501c-0.9664,0.0001 -1.75,0.7836 -1.75,1.75c0,0.9664 0.7836,1.7499 1.75,1.75c0.9664,0 1.7499,-0.7835 1.75,-1.75c0,-0.9665 -0.7835,-1.75 -1.75,-1.75zM4.82593,10.4933c-0.54868,0.2498 -0.84052,0.8564 -0.69434,1.4414l0.11133,0.4434c0.16757,0.6693 0.8452,1.0762 1.51465,0.9091l3.3916,-0.8486c0.55232,-1.0063 1.62173,-1.6884 2.85063,-1.6885c0.6568,0 1.2681,0.1952 1.7793,0.5303l1.2519,-0.3125l-1.4795,-4.44141zM17.9216,4.63489c-0.2183,-0.65492 -0.9271,-1.00931 -1.582,-0.79102l-0.7051,0.23438c-0.6549,0.2183 -1.0083,0.92709 -0.79,1.58203l0.8672,2.60254l0.8408,2.52438l0.0264,0.0782c0.2183,0.6548 0.9271,1.0093 1.582,0.791l0.7041,-0.2354c0.6548,-0.2183 1.0091,-0.9262 0.791,-1.58103z" fill="#002B51"/>
</svg>
