<svg width="24" height="24" viewBox="0 0 24 24" fill="none" xmlns="http://www.w3.org/2000/svg">
<g clip-path="url(#clip0_4050_17758)">
<path d="M0,4c0,-2.20914 1.79086,-4 4,-4h16c2.2091,0 4,1.79086 4,4v16c0,2.2091 -1.7909,4 -4,4h-16c-2.20914,0 -4,-1.7909 -4,-4z" fill="#FF4E4E"/>
<path d="M24,24h-24v-24h24z" fill="#21468B"/>
<path d="M24,16h-24v-16h24z" fill="white"/>
<path d="M24,8h-24v-8h24z" fill="#AE1C28"/>
</g>
<defs>
<clipPath id="clip0_4050_17758">
<path d="M0,4c0,-2.20914 1.79086,-4 4,-4h16c2.2091,0 4,1.79086 4,4v16c0,2.2091 -1.7909,4 -4,4h-16c-2.20914,0 -4,-1.7909 -4,-4z" fill="white"/>
</clipPath>
</defs>
</svg>
