<svg width="24" height="24" viewBox="0 0 24 24" fill="none" xmlns="http://www.w3.org/2000/svg">
<path d="M17.5,2.25c1.7949,0 3.25,1.45508 3.25,3.25v6.7236c0,0.0695 0.0384,0.1804 0.1631,0.2871c1.1232,0.9618 1.8369,2.3926 1.8369,3.9893c0,2.8995 -2.3505,5.25 -5.25,5.25c-2.8995,0 -5.25,-2.3505 -5.25,-5.25c0,-1.5967 0.7137,-3.0275 1.8369,-3.9893c0.1247,-0.1067 0.1631,-0.2176 0.1631,-0.2871v-6.7236c0,-1.79492 1.4551,-3.25 3.25,-3.25zM17.5,3.75c-0.9665,0 -1.75,0.7835 -1.75,1.75v6.7236c0,0.598 -0.3053,1.0995 -0.6875,1.4268c-0.8045,0.6889 -1.3125,1.7095 -1.3125,2.8496c0,2.0711 1.6789,3.75 3.75,3.75c2.0711,0 3.75,-1.6789 3.75,-3.75c0,-1.1401 -0.508,-2.1607 -1.3125,-2.8496c-0.3822,-0.3273 -0.6875,-0.8288 -0.6875,-1.4268v-6.7236c0,-0.9665 -0.7835,-1.75 -1.75,-1.75zM17.5,8c0.5523,0 1,0.44772 1,1v3.915c0,0.6177 0.409,1.146 0.8633,1.5645c0.545,0.502 0.8867,1.2209 0.8867,2.0205c0,1.5188 -1.2312,2.75 -2.75,2.75c-1.5188,0 -2.75,-1.2312 -2.75,-2.75c0,-0.7996 0.3417,-1.5185 0.8867,-2.0205c0.4543,-0.4185 0.8633,-0.9468 0.8633,-1.5645v-3.915c0,-0.55228 0.4477,-1 1,-1zM11,10.25c0.4142,0 0.75,0.3358 0.75,0.75c0,0.4142 -0.3358,0.75 -0.75,0.75h-3c-0.41421,0 -0.75,-0.3358 -0.75,-0.75c0,-0.4142 0.33579,-0.75 0.75,-0.75zM11,7.25c0.4142,0 0.75,0.33579 0.75,0.75c0,0.41421 -0.3358,0.75 -0.75,0.75h-3c-0.41421,0 -0.75,-0.33579 -0.75,-0.75c0,-0.41421 0.33579,-0.75 0.75,-0.75zM11,4.25c0.4142,0 0.75,0.33579 0.75,0.75c0,0.41421 -0.3358,0.75 -0.75,0.75h-3c-0.41421,0 -0.75,-0.33579 -0.75,-0.75c0,-0.41421 0.33579,-0.75 0.75,-0.75z" fill="#002B51"/>
</svg>
