<svg width="24" height="24" viewBox="0 0 24 24" fill="none" xmlns="http://www.w3.org/2000/svg">
<path d="M9.5,2.25c1.7949,0 3.25,1.45507 3.25,3.25v6.7236c0,0.0695 0.0384,0.1804 0.1631,0.2871l0.206,0.1856c1.0039,0.9555 1.6309,2.3068 1.6309,3.8037c0,2.8995 -2.3505,5.25 -5.25,5.25c-2.89949,0 -5.25,-2.3505 -5.25,-5.25c0,-1.5967 0.71372,-3.0275 1.83691,-3.9893l0.07813,-0.08c0.06343,-0.0795 0.08496,-0.155 0.08496,-0.2071v-6.7236c0,-1.79493 1.45507,-3.25 3.25,-3.25zM9.5,3.75c-0.9665,0 -1.75,0.7835 -1.75,1.75v6.7236c0,0.5232 -0.2334,0.9726 -0.54785,1.2959l-0.13965,0.1309c-0.8045,0.6889 -1.3125,1.7095 -1.3125,2.8496c0,2.0711 1.67893,3.75 3.75,3.75c2.0711,0 3.75,-1.6789 3.75,-3.75c0,-1.0689 -0.4463,-2.0328 -1.165,-2.7168l-0.1475,-0.1328c-0.3822,-0.3273 -0.6875,-0.8288 -0.6875,-1.4268v-6.7236l-0.0088,-0.17871c-0.0895,-0.88256 -0.835,-1.57129 -1.7412,-1.57129zM9.5,8c0.5523,0 1,0.44772 1,1v3.915c0,0.6177 0.409,1.146 0.8633,1.5645c0.545,0.502 0.8867,1.2209 0.8867,2.0205c0,1.5188 -1.2312,2.75 -2.75,2.75c-1.51878,0 -2.75,-1.2312 -2.75,-2.75c0,-0.7996 0.34175,-1.5185 0.88672,-2.0205c0.4543,-0.4185 0.86328,-0.9468 0.86328,-1.5645v-3.915c0,-0.55228 0.44772,-1 1,-1zM19,10.25c0.4142,0 0.75,0.3358 0.75,0.75c0,0.4142 -0.3358,0.75 -0.75,0.75h-3c-0.4142,0 -0.75,-0.3358 -0.75,-0.75c0,-0.4142 0.3358,-0.75 0.75,-0.75zM19,7.25c0.4142,0 0.75,0.33579 0.75,0.75c0,0.41421 -0.3358,0.75 -0.75,0.75h-3c-0.4142,0 -0.75,-0.33579 -0.75,-0.75c0,-0.41421 0.3358,-0.75 0.75,-0.75zM19,4.25c0.4142,0 0.75,0.33579 0.75,0.75c0,0.41421 -0.3358,0.75 -0.75,0.75h-3c-0.4142,0 -0.75,-0.33579 -0.75,-0.75c0,-0.41421 0.3358,-0.75 0.75,-0.75z" fill="#002B51"/>
</svg>
