<svg width="24" height="24" viewBox="0 0 24 24" fill="none" xmlns="http://www.w3.org/2000/svg">
<path d="M12,2.25c1.7949,0 3.25,1.45507 3.25,3.25v6.7236c0,0.0695 0.0384,0.1804 0.1631,0.2871l0.206,0.1856c1.0039,0.9555 1.6309,2.3068 1.6309,3.8037c0,2.8995 -2.3505,5.25 -5.25,5.25c-2.89949,0 -5.25,-2.3505 -5.25,-5.25c0,-1.5967 0.71372,-3.0275 1.83691,-3.9893l0.07813,-0.08c0.06344,-0.0795 0.08496,-0.155 0.08496,-0.2071v-6.7236c0,-1.79493 1.4551,-3.25 3.25,-3.25zM12,3.75c-0.9665,0 -1.75,0.7835 -1.75,1.75v6.7236c0,0.5232 -0.2334,0.9726 -0.54785,1.2959l-0.13965,0.1309c-0.80449,0.6889 -1.3125,1.7095 -1.3125,2.8496c0,2.0711 1.67893,3.75 3.75,3.75c2.0711,0 3.75,-1.6789 3.75,-3.75c0,-1.0689 -0.4464,-2.0328 -1.165,-2.7168l-0.1475,-0.1328c-0.3822,-0.3273 -0.6875,-0.8288 -0.6875,-1.4268v-6.7236c0,-0.9665 -0.7835,-1.75 -1.75,-1.75zM12,8c0.5523,0 1,0.44772 1,1v3.9131c0.0001,0.6176 0.4092,1.1457 0.8633,1.5644c0.545,0.5025 0.8867,1.2227 0.8867,2.0225c0,1.5188 -1.2312,2.75 -2.75,2.75c-1.5188,0 -2.75,-1.2312 -2.75,-2.75c0,-0.7998 0.34172,-1.52 0.8867,-2.0225c0.4541,-0.4187 0.8632,-0.9468 0.8633,-1.5644v-3.9131c0,-0.55228 0.4477,-1 1,-1z" fill="#002B51"/>
</svg>
