<svg width="24" height="24" viewBox="0 0 24 24" fill="none" xmlns="http://www.w3.org/2000/svg">
<path fill-rule="evenodd" clip-rule="evenodd" d="M10.25,12.2238c0,0.5979 -0.30516,1.099 -0.68739,1.4262c-0.80463,0.689 -1.31261,1.7098 -1.31261,2.85c0,2.0711 1.67893,3.75 3.75,3.75c2.0711,0 3.75,-1.6789 3.75,-3.75c0,-1.1402 -0.508,-2.161 -1.3126,-2.85c-0.3822,-0.3272 -0.6874,-0.8283 -0.6874,-1.4262v-6.7238c0,-0.9665 -0.7835,-1.75 -1.75,-1.75c-0.9665,0 -1.75,0.7835 -1.75,1.75zM15.25,5.5v6.7238c0,0.0695 0.0382,0.1801 0.163,0.2868c1.1232,0.9618 1.837,2.3926 1.837,3.9894c0,2.8995 -2.3505,5.25 -5.25,5.25c-2.89949,0 -5.25,-2.3505 -5.25,-5.25c0,-1.5968 0.71377,-3.0276 1.83704,-3.9894c0.12471,-0.1067 0.16296,-0.2173 0.16296,-0.2868v-6.7238c0,-1.79492 1.4551,-3.25 3.25,-3.25c1.7949,0 3.25,1.45507 3.25,3.25zM11,9c0,-0.55228 0.4477,-1 1,-1c0.5523,0 1,0.44772 1,1v3.9129c0,0.6179 0.4094,1.146 0.8636,1.5648c0.545,0.5025 0.8864,1.2225 0.8864,2.0223c0,1.5188 -1.2312,2.75 -2.75,2.75c-1.5188,0 -2.75,-1.2312 -2.75,-2.75c0,-0.7998 0.34139,-1.5198 0.8864,-2.0223c0.4542,-0.4188 0.8636,-0.9469 0.8636,-1.5648z" fill="#002B51"/>
</svg>
