<svg width="24" height="24" viewBox="0 0 24 24" fill="none" xmlns="http://www.w3.org/2000/svg">
<path d="M11.6045,2.75391c1.752,0.08858 3.1453,1.53751 3.1455,3.31152v2.18457h3.459c1.6662,0.00013 2.9494,1.47018 2.7246,3.1211l-0.9551,7c-0.1858,1.3626 -1.3494,2.3789 -2.7246,2.3789h-11.2539c-1.51878,0 -2.75,-1.2312 -2.75,-2.75v-5c0,-1.5188 1.23122,-2.75 2.75,-2.75h1.49219l2.65041,-6.625l0.0429,-0.09766c0.2325,-0.4731 0.7158,-0.77734 1.2491,-0.77734zM6,11.75c-0.69036,0 -1.25,0.5596 -1.25,1.25v5c0,0.6904 0.55964,1.25 1.25,1.25h1.25v-7.5zM8.75,11.1436v8.1064h8.5039c0.6251,0 1.1548,-0.4617 1.2393,-1.0811l0.9541,-7c0.1023,-0.7504 -0.4809,-1.41877 -1.2383,-1.4189h-4.209c-0.4142,0 -0.75,-0.33579 -0.75,-0.75v-2.93457c-0.0002,-0.97867 -0.7747,-1.77488 -1.7441,-1.8125z" fill="#002B51"/>
</svg>
