<svg width="24" height="24" viewBox="0 0 24 24" fill="none" xmlns="http://www.w3.org/2000/svg">
<path d="M17.2539,3.25c1.3752,0 2.5388,1.01632 2.7246,2.37891l0.9551,6.99999c0.2248,1.6509 -1.0584,3.121 -2.7246,3.1211h-3.459v2.1846c-0.0002,1.774 -1.3935,3.2229 -3.1455,3.3115l-0.1699,0.0039c-0.5333,0 -1.0166,-0.3042 -1.2491,-0.7773l-0.0429,-0.0977l-2.65041,-6.625h-1.49219c-1.51878,0 -2.75,-1.2312 -2.75,-2.75v-5c0,-1.51878 1.23122,-2.75 2.75,-2.75zM6,4.75c-0.69036,0 -1.25,0.55964 -1.25,1.25v5c0,0.6904 0.55964,1.25 1.25,1.25h1.25v-7.5z" fill="#002B51"/>
</svg>
