<svg width="24" height="24" viewBox="0 0 24 24" fill="none" xmlns="http://www.w3.org/2000/svg">
<path fill-rule="evenodd" clip-rule="evenodd" d="M11.5059,19.7471c0.9695,-0.0377 1.7439,-0.8339 1.7441,-1.8125v-2.9346c0,-0.4142 0.3358,-0.75 0.75,-0.75h4.209c0.71,-0.0001 1.2675,-0.5875 1.25,-1.2793l-0.0117,-0.1396l-0.9541,-7.00005c-0.0845,-0.61935 -0.6142,-1.08105 -1.2393,-1.08105h-8.50389v8.1064zM6.00001,13.75c-1.51879,0 -2.75,-1.2312 -2.75,-2.75v-5c0,-1.51878 1.23121,-2.75 2.75,-2.75h2h0.75h8.50389c1.3752,0 2.5388,1.01632 2.7246,2.37891l0.9551,6.99999l0.0166,0.1533c0.1281,1.5876 -1.1268,2.9677 -2.7412,2.9678h-3.459v2.1846c-0.0001,1.774 -1.3935,3.2229 -3.1455,3.3115l-0.1699,0.0039c-0.5333,0 -1.0166,-0.3042 -1.249,-0.7773l-0.043,-0.0977l-2.6502,-6.625zM7.25001,4.75h-1.25c-0.69036,0 -1.25,0.55964 -1.25,1.25v5c0,0.6904 0.55964,1.25 1.25,1.25h1.25z" fill="#002B51"/>
</svg>
