<svg width="24" height="24" viewBox="0 0 24 24" fill="none" xmlns="http://www.w3.org/2000/svg">
<path d="M11.6045,2.75391c1.752,0.08858 3.1453,1.53751 3.1455,3.31152v2.18457h3.459c1.6662,0.00013 2.9494,1.47018 2.7246,3.1211l-0.9551,7c-0.1858,1.3626 -1.3494,2.3789 -2.7246,2.3789h-11.2539c-1.51878,0 -2.75,-1.2312 -2.75,-2.75v-5c0,-1.5188 1.23122,-2.75 2.75,-2.75h1.49219l2.65041,-6.625l0.0429,-0.09766c0.2325,-0.4731 0.7158,-0.77734 1.2491,-0.77734zM6,11.75c-0.69036,0 -1.25,0.5596 -1.25,1.25v5c0,0.6904 0.55964,1.25 1.25,1.25h1.25v-7.5z" fill="#002B51"/>
</svg>
