<svg width="24" height="24" viewBox="0 0 24 24" fill="none" xmlns="http://www.w3.org/2000/svg">
<path fill-rule="evenodd" clip-rule="evenodd" d="M10.1424 3.62467L7.49223 10.25H6C4.48122 10.25 3.25 11.4812 3.25 13V18C3.25 19.5188 4.48122 20.75 6 20.75H8H8.75H17.2542C18.6294 20.75 19.7932 19.7341 19.979 18.3716L20.9335 11.3716C21.1587 9.72038 19.8752 8.25 18.2088 8.25H14.75V6.06573C14.75 4.2345 13.2655 2.75 11.4343 2.75C10.8653 2.75 10.3537 3.0964 10.1424 3.62467ZM6 11.75H7.25V19.25H6C5.30964 19.25 4.75 18.6904 4.75 18V13C4.75 12.3096 5.30964 11.75 6 11.75Z" fill="#002B51"/>
</svg>
