<svg width="24" height="24" viewBox="0 0 24 24" fill="none" xmlns="http://www.w3.org/2000/svg">
<path fill-rule="evenodd" clip-rule="evenodd" d="M11.4343,2.75c1.8312,0 3.3157,1.4845 3.3157,3.31573v2.18427h3.4588c1.6664,0 2.9499,1.47038 2.7247,3.1216l-0.9545,7c-0.1858,1.3625 -1.3496,2.3784 -2.7248,2.3784h-8.5042h-0.75h-2c-1.51878,0 -2.75,-1.2312 -2.75,-2.75v-5c0,-1.5188 1.23122,-2.75 2.75,-2.75h1.49223l2.65017,-6.62533c0.2113,-0.52827 0.7229,-0.87467 1.2919,-0.87467zM4.75,13v5c0,0.6904 0.55964,1.25 1.25,1.25h1.25v-7.5h-1.25c-0.69036,0 -1.25,0.5596 -1.25,1.25z" fill="#002B51"/>
</svg>
