<svg width="24" height="24" viewBox="0 0 24 24" fill="none" xmlns="http://www.w3.org/2000/svg">
<path fill-rule="evenodd" clip-rule="evenodd" d="M10.1424,20.3753l-2.65017,-6.6253h-1.49223c-1.51878,0 -2.75,-1.2312 -2.75,-2.75v-5c0,-1.51878 1.23122,-2.75 2.75,-2.75h2h0.75h8.5042c1.3752,0 2.539,1.01585 2.7248,2.37844l0.9545,6.99996c0.2252,1.6512 -1.0583,3.1216 -2.7247,3.1216h-3.4588v2.1843c0,1.8312 -1.4845,3.3157 -3.3157,3.3157c-0.569,0 -1.0806,-0.3464 -1.2919,-0.8747zM6,12.25h1.25v-7.5h-1.25c-0.69036,0 -1.25,0.55964 -1.25,1.25v5c0,0.6904 0.55964,1.25 1.25,1.25z" fill="#002B51"/>
</svg>
