<svg width="24" height="24" viewBox="0 0 24 24" fill="none" xmlns="http://www.w3.org/2000/svg">
<path fill-rule="evenodd" clip-rule="evenodd" d="M8.75,19.25h8.5042c0.6251,0 1.1541,-0.4618 1.2386,-1.0811l0.9545,-7c0.1023,-0.7505 -0.4811,-1.4189 -1.2385,-1.4189h-4.2088c-0.4142,0 -0.75,-0.33579 -0.75,-0.75v-2.93427c0,-0.97837 -0.7738,-1.77602 -1.7428,-1.81429l-2.7572,6.89296zM7.49223,10.25l2.65017,-6.62533c0.2113,-0.52827 0.7229,-0.87467 1.2919,-0.87467c1.8312,0 3.3157,1.4845 3.3157,3.31573v2.18427h3.4588c1.6664,0 2.9499,1.47038 2.7247,3.1216l-0.9545,7c-0.1858,1.3625 -1.3496,2.3784 -2.7248,2.3784h-8.5042h-0.75h-2c-1.51878,0 -2.75,-1.2312 -2.75,-2.75v-5c0,-1.5188 1.23122,-2.75 2.75,-2.75zM7.25,11.75h-1.25c-0.69036,0 -1.25,0.5596 -1.25,1.25v5c0,0.6904 0.55964,1.25 1.25,1.25h1.25z" fill="#002B51"/>
</svg>
