<svg width="24" height="24" viewBox="0 0 24 24" fill="none" xmlns="http://www.w3.org/2000/svg">
<path fill-rule="evenodd" clip-rule="evenodd" d="M8.75 12.8556L11.5072 19.7486C12.4762 19.7103 13.25 18.9126 13.25 17.9343V15C13.25 14.5858 13.5858 14.25 14 14.25H18.2088C18.9662 14.25 19.5496 13.5816 19.4473 12.8311L18.4928 5.83111C18.4083 5.21175 17.8793 4.75 17.2542 4.75H8.75V12.8556ZM7.49223 13.75L10.1424 20.3753C10.3537 20.9036 10.8653 21.25 11.4343 21.25C13.2655 21.25 14.75 19.7655 14.75 17.9343V15.75H18.2088C19.8752 15.75 21.1587 14.2796 20.9335 12.6284L19.979 5.62844C19.7932 4.26585 18.6294 3.25 17.2542 3.25H8.75H8H6C4.48122 3.25 3.25 4.48122 3.25 6V11C3.25 12.5188 4.48122 13.75 6 13.75H7.49223ZM7.25 12.25H6C5.30964 12.25 4.75 11.6904 4.75 11V6C4.75 5.30964 5.30964 4.75 6 4.75H7.25V12.25Z" fill="#002B51"/>
</svg>
