<svg width="24" height="24" viewBox="0 0 24 24" fill="none" xmlns="http://www.w3.org/2000/svg">
<path fill-rule="evenodd" clip-rule="evenodd" d="M8.75,12.8556l2.7572,6.893c0.969,-0.0383 1.7428,-0.836 1.7428,-1.8143v-2.9343c0,-0.4142 0.3358,-0.75 0.75,-0.75h4.2088c0.7574,0 1.3408,-0.6684 1.2385,-1.4189l-0.9545,-6.99999c-0.0845,-0.61936 -0.6135,-1.08111 -1.2386,-1.08111h-8.5042zM6,13.75c-1.51878,0 -2.75,-1.2312 -2.75,-2.75v-5c0,-1.51878 1.23122,-2.75 2.75,-2.75h2h0.75h8.5042c1.3752,0 2.539,1.01585 2.7248,2.37844l0.9545,6.99996c0.2252,1.6512 -1.0583,3.1216 -2.7247,3.1216h-3.4588v2.1843c0,1.8312 -1.4845,3.3157 -3.3157,3.3157c-0.569,0 -1.0806,-0.3464 -1.2919,-0.8747l-2.65017,-6.6253zM7.25,4.75h-1.25c-0.69036,0 -1.25,0.55964 -1.25,1.25v5c0,0.6904 0.55964,1.25 1.25,1.25h1.25z" fill="#002B51"/>
</svg>
