<svg width="24" height="24" viewBox="0 0 24 24" fill="none" xmlns="http://www.w3.org/2000/svg">
<path fill-rule="evenodd" clip-rule="evenodd" d="M10.1855,3.52734c0.2325,-0.4731 0.7158,-0.77734 1.2491,-0.77734l0.1699,0.00391c1.752,0.08858 3.1453,1.53751 3.1455,3.31152v2.18457h3.459c1.6144,0.00013 2.8693,1.38025 2.7412,2.9678l-0.0166,0.1533l-0.9551,7c-0.1858,1.3626 -1.3494,2.3789 -2.7246,2.3789h-8.5039h-0.75h-2c-1.51878,0 -2.75,-1.2312 -2.75,-2.75v-5c0,-1.5188 1.23122,-2.75 2.75,-2.75h1.4924l2.6502,-6.625zM4.75,13v5c0,0.6904 0.55964,1.25 1.25,1.25h1.25v-7.5h-1.25c-0.69036,0 -1.25,0.5596 -1.25,1.25z" fill="#002B51"/>
</svg>
