<svg width="24" height="24" viewBox="0 0 24 24" fill="none" xmlns="http://www.w3.org/2000/svg">
<path d="M12.8839,2.98441c0.6834,-0.68342 1.7914,-0.68342 2.4749,0l1.4142,1.41421c0.2929,0.29289 0.2929,0.76777 0,1.06066c-0.4882,0.48816 -0.4882,1.27961 0,1.76777l0.0953,0.08562c0.4909,0.40034 1.2148,0.37198 1.6724,-0.08562c0.2929,-0.2929 0.7678,-0.2929 1.0607,0l1.4142,1.41421c0.6834,0.68342 0.6834,1.79144 0,2.47484l-9.8995,9.8995c-0.6834,0.6834 -1.79144,0.6834 -2.47486,0l-1.41421,-1.4142c-0.2929,-0.2929 -0.2929,-0.7678 0,-1.0606c0.4576,-0.4577 0.48595,-1.1816 0.08562,-1.6725l-0.08562,-0.0953c-0.48816,-0.4882 -1.27962,-0.4882 -1.76777,0c-0.29289,0.2929 -0.76777,0.2929 -1.06066,0l-1.41421,-1.4142c-0.68342,-0.6834 -0.68342,-1.7915 0,-2.4749zM16.9497,13.0607l3.0052,-3.0052c0.0977,-0.09766 0.0977,-0.25595 0,-0.35358l-0.9598,-0.95984c-1.0469,0.58472 -2.393,0.43545 -3.2828,-0.45437c-0.8899,-0.8899 -1.0399,-2.23657 -0.4551,-3.28349l-0.9591,-0.95915c-0.0976,-0.09763 -0.2559,-0.09763 -0.3536,0l-3.0052,3.0052zM4.04505,13.9446c-0.09764,0.0976 -0.09764,0.2559 0,0.3535l0.95915,0.9592c1.04692,-0.5849 2.39359,-0.4349 3.28349,0.455l0.18851,0.2093c0.7198,0.8826 0.80646,2.1056 0.26586,3.0735l0.95984,0.9599c0.09763,0.0976 0.25592,0.0976 0.3536,0l5.8336,-5.8337l-6.01042,-6.01037z" fill="#002B51"/>
</svg>
