<svg width="24" height="24" viewBox="0 0 24 24" fill="none" xmlns="http://www.w3.org/2000/svg">
<path fill-rule="evenodd" clip-rule="evenodd" d="M2.98449 15.3587C2.30107 14.6753 2.30107 13.5673 2.98449 12.8839L8.8183 7.05005L16.95 15.1818L11.1162 21.0156C10.4328 21.699 9.32476 21.699 8.64134 21.0156L7.22713 19.6014C6.93423 19.3085 6.93423 18.8336 7.22713 18.5407C7.71528 18.0526 7.71528 17.2611 7.22713 16.7729C6.73897 16.2848 5.94752 16.2848 5.45936 16.7729C5.16647 17.0658 4.69159 17.0658 4.3987 16.7729L2.98449 15.3587ZM18.0107 14.1211L21.0157 11.1161C21.6991 10.4327 21.6991 9.32464 21.0157 8.64122L19.6015 7.22701C19.3086 6.93411 18.8337 6.93411 18.5408 7.22701C18.0527 7.71516 17.2612 7.71516 16.7731 7.22701C16.2849 6.73885 16.2849 5.94739 16.7731 5.45924C17.066 5.16635 17.066 4.69147 16.7731 4.39858L15.3589 2.98436C14.6754 2.30095 13.5674 2.30095 12.884 2.98436L9.87896 5.98938L18.0107 14.1211Z" fill="#002B51"/>
</svg>
