<svg width="24" height="24" viewBox="0 0 24 24" fill="none" xmlns="http://www.w3.org/2000/svg">
<path fill-rule="evenodd" clip-rule="evenodd" d="M10.9393,7.05027l6.0104,6.01043l3.0052,-3.0052c0.0977,-0.09766 0.0977,-0.25595 0,-0.35358l-0.9591,-0.95915c-0.9731,0.54363 -2.2043,0.45271 -3.0881,-0.2776l-0.1954,-0.17746c-0.8899,-0.8899 -1.0399,-2.23657 -0.4551,-3.28349l-0.9591,-0.95915c-0.0976,-0.09763 -0.2559,-0.09763 -0.3536,0zM9.87868,8.11093l-5.83363,5.83367c-0.09764,0.0976 -0.09764,0.2559 0,0.3535l0.95846,0.9585c1.04709,-0.5851 2.39394,-0.4345 3.28418,0.4557l0.18851,0.2093c0.7198,0.8826 0.80646,2.1056 0.26586,3.0735l0.95984,0.9599c0.09763,0.0976 0.25592,0.0976 0.3536,0l5.8336,-5.8337zM16.773,7.22705l0.089,0.08079c0.4552,0.37583 1.1143,0.37971 1.5738,0.01174l0.1332,-0.11946c0.2965,-0.26685 0.7503,-0.25513 1.0324,0.02693l1.4142,1.41421c0.6834,0.68342 0.6834,1.79144 0,2.47484l-9.8995,9.8995c-0.6834,0.6834 -1.79144,0.6834 -2.47486,0l-1.41421,-1.4142l-0.05179,-0.0573c-0.23996,-0.2946 -0.22269,-0.7289 0.05179,-1.0033c0.4576,-0.4577 0.48595,-1.1816 0.08562,-1.6725l-0.08562,-0.0953c-0.45474,-0.4547 -1.17381,-0.486 -1.66419,-0.0925l-0.13189,0.1194c-0.2965,0.2669 -0.75029,0.2551 -1.03235,-0.0269l-1.41421,-1.4142c-0.68342,-0.6834 -0.68342,-1.7915 0,-2.4749l9.89951,-9.89949c0.6834,-0.68342 1.7914,-0.68342 2.4749,0l1.4142,1.41421c0.2929,0.29289 0.2929,0.76777 0,1.06066c-0.4882,0.48816 -0.4882,1.27961 0,1.76777z" fill="#002B51"/>
</svg>
