<svg width="24" height="24" viewBox="0 0 24 24" fill="none" xmlns="http://www.w3.org/2000/svg">
<path fill-rule="evenodd" clip-rule="evenodd" d="M2.98439 12.8839C2.30097 13.5673 2.30097 14.6754 2.98439 15.3588L4.3986 16.773C4.53925 16.9136 4.73002 16.9927 4.92893 16.9927C5.12784 16.9927 5.31861 16.9136 5.45926 16.773C5.94741 16.2848 6.73887 16.2848 7.22703 16.773C7.71518 17.2611 7.71518 18.0526 7.22703 18.5408C6.93413 18.8336 6.93413 19.3085 7.22703 19.6014L8.64124 21.0156C9.32466 21.699 10.4327 21.699 11.1161 21.0156L21.0156 11.1161C21.699 10.4327 21.699 9.32468 21.0156 8.64126L19.6014 7.22705C19.3085 6.93415 18.8336 6.93415 18.5407 7.22705C18.0526 7.7152 17.2611 7.7152 16.773 7.22705C16.2848 6.73889 16.2848 5.94743 16.773 5.45928C17.0659 5.16639 17.0659 4.69151 16.773 4.39862L15.3588 2.9844C14.6753 2.30099 13.5673 2.30099 12.8839 2.9844L2.98439 12.8839ZM4.04505 14.2981C3.94741 14.2005 3.94741 14.0422 4.04505 13.9446L9.87868 8.11093L15.8891 14.1213L10.0555 19.955C9.95782 20.0526 9.79953 20.0526 9.7019 19.955L8.74482 18.9979C9.33015 17.9509 9.17778 16.6024 8.28769 15.7123C7.3976 14.8222 6.04915 14.6699 5.00213 15.2552L4.04505 14.2981ZM16.9497 13.0607L19.9549 10.0555C20.0526 9.95784 20.0526 9.79955 19.955 9.70192L18.9979 8.74484C17.9508 9.33017 16.6024 9.1778 15.7123 8.28771C14.8222 7.39762 14.6698 6.04917 15.2552 5.00215L14.2981 4.04506C14.2005 3.94743 14.0422 3.94743 13.9445 4.04506L10.9393 7.05027L16.9497 13.0607Z" fill="#002B51"/>
</svg>
