<svg width="24" height="24" viewBox="0 0 24 24" fill="none" xmlns="http://www.w3.org/2000/svg">
<path fill-rule="evenodd" clip-rule="evenodd" d="M2.98449,15.3587c-0.68342,-0.6834 -0.68342,-1.7914 0,-2.4748l5.83381,-5.83385l8.1317,8.13175l-5.8338,5.8338c-0.6834,0.6834 -1.79144,0.6834 -2.47486,0l-1.41421,-1.4142c-0.2929,-0.2929 -0.2929,-0.7678 0,-1.0607c0.48815,-0.4881 0.48815,-1.2796 0,-1.7678c-0.48816,-0.4881 -1.27961,-0.4881 -1.76777,0c-0.29289,0.2929 -0.76777,0.2929 -1.06066,0zM9.87896,5.98938l3.00504,-3.00502c0.6834,-0.68341 1.7914,-0.68341 2.4749,0l1.4142,1.41422c0.2929,0.29289 0.2929,0.76777 0,1.06066c-0.4882,0.48815 -0.4882,1.27961 0,1.76777c0.4881,0.48815 1.2796,0.48815 1.7677,0c0.2929,-0.2929 0.7678,-0.2929 1.0607,0l1.4142,1.41421c0.6834,0.68342 0.6834,1.79148 0,2.47488l-3.005,3.005z" fill="#002B51"/>
</svg>
