<svg width="24" height="24" viewBox="0 0 24 24" fill="none" xmlns="http://www.w3.org/2000/svg">
<path d="M16.9502,15.1816l-5.834,5.834c-0.6832,0.6832 -1.79112,0.6829 -2.47456,0l-1.41504,-1.4141l-0.05176,-0.0576c-0.23964,-0.2944 -0.22223,-0.7285 0.05176,-1.003c0.48808,-0.488 0.48795,-1.2803 0,-1.7685c-0.45475,-0.4543 -1.17384,-0.4851 -1.66406,-0.0918l-0.13184,0.1191c-0.29643,0.2666 -0.75021,0.2545 -1.03223,-0.0273l-1.41406,-1.4141c-0.68328,-0.6834 -0.68335,-1.7912 0,-2.4746l5.83399,-5.83397zM12.8838,2.9843c0.6834,-0.68337 1.7912,-0.68329 2.4746,0l1.4151,1.41406c0.2923,0.29283 0.2924,0.76777 0,1.06055c-0.4882,0.48816 -0.4882,1.27942 0,1.76758c0.4544,0.45419 1.1718,0.48535 1.6621,0.09277l0.1338,-0.11914c0.2964,-0.26676 0.7501,-0.25559 1.0322,0.02637l1.4141,1.41406c0.6832,0.68343 0.6833,1.79225 0,2.47555l-3.0049,3.0049l-8.13186,-8.13182z" fill="#002B51"/>
</svg>
