<svg width="24" height="24" viewBox="0 0 24 24" fill="none" xmlns="http://www.w3.org/2000/svg">
<path fill-rule="evenodd" clip-rule="evenodd" d="M16.7731,4.39858c0.2929,0.29289 0.2929,0.76777 0,1.06066c-0.4882,0.48815 -0.4882,1.27961 0,1.76777c0.4544,0.45447 1.1724,0.48526 1.6628,0.09253l0.1332,-0.11947c0.2965,-0.26684 0.7503,-0.25513 1.0324,0.02694l1.4142,1.41421c0.6834,0.68342 0.6834,1.79148 0,2.47488l-3.005,3.005l-8.13174,-8.13172l3.00504,-3.00502c0.6834,-0.68341 1.7914,-0.68341 2.4749,0zM16.95,15.1818l-5.8338,5.8338c-0.6834,0.6834 -1.79144,0.6834 -2.47486,0l-1.41421,-1.4142l-0.05179,-0.0573c-0.23996,-0.2946 -0.22269,-0.7289 0.05179,-1.0034c0.48815,-0.4881 0.48815,-1.2796 0,-1.7678c-0.45474,-0.4547 -1.17381,-0.4859 -1.66419,-0.0925l-0.13189,0.1195c-0.2965,0.2668 -0.75029,0.2551 -1.03235,-0.027l-1.41421,-1.4142c-0.68342,-0.6834 -0.68342,-1.7914 0,-2.4748l5.83381,-5.83386z" fill="#002B51"/>
</svg>
