<svg width="24" height="24" viewBox="0 0 24 24" fill="none" xmlns="http://www.w3.org/2000/svg">
<path fill-rule="evenodd" clip-rule="evenodd" d="M12.8839,2.9844c0.6834,-0.68341 1.7914,-0.68341 2.4749,0l1.4142,1.41422c0.2929,0.29289 0.2929,0.76777 0,1.06066c-0.4882,0.48815 -0.4882,1.27961 0,1.76777c0.4881,0.48815 1.2796,0.48815 1.7677,0c0.2929,-0.2929 0.7678,-0.2929 1.0607,0l1.4142,1.41421c0.6834,0.68342 0.6834,1.79144 0,2.47484l-9.8995,9.8995c-0.6834,0.6834 -1.79144,0.6834 -2.47486,0l-1.41421,-1.4142c-0.2929,-0.2929 -0.2929,-0.7678 0,-1.0606c0.48815,-0.4882 0.48815,-1.2797 0,-1.7678c-0.48816,-0.4882 -1.27962,-0.4882 -1.76777,0c-0.14065,0.1406 -0.33142,0.2197 -0.53033,0.2197c-0.19891,0 -0.38968,-0.0791 -0.53033,-0.2197l-1.41421,-1.4142c-0.68342,-0.6834 -0.68342,-1.7915 0,-2.4749zM5.00213,15.2552c1.04702,-0.5853 2.39547,-0.433 3.28556,0.4571c0.89009,0.8901 1.04246,2.2386 0.45713,3.2856l0.95708,0.9571c0.09763,0.0976 0.25592,0.0976 0.3536,0l5.8336,-5.8337l-6.01042,-6.01037l-5.83363,5.83367c-0.09764,0.0976 -0.09764,0.2559 0,0.3535zM16.9497,13.0607l3.0052,-3.0052c0.0977,-0.09766 0.0977,-0.25595 0.0001,-0.35358l-0.9571,-0.95708c-1.0471,0.58533 -2.3955,0.43296 -3.2856,-0.45713c-0.8901,-0.89009 -1.0425,-2.23854 -0.4571,-3.28556l-0.9571,-0.95709c-0.0976,-0.09763 -0.2559,-0.09763 -0.3536,0l-3.0052,3.00521z" fill="#002B51"/>
</svg>
