<svg width="24" height="24" viewBox="0 0 24 24" fill="none" xmlns="http://www.w3.org/2000/svg">
<path fill-rule="evenodd" clip-rule="evenodd" d="M11.9999,5.25c0.0001,0 0.0001,0 0.0001,0h4.6132c-0.1483,-0.14936 -0.3265,-0.29907 -0.5381,-0.44456c-0.8527,-0.58619 -2.1974,-1.05543 -4.0751,-1.05544c-1.9209,0 -3.2649,0.36241 -4.10256,0.88589c-0.29863,0.18662 -0.53311,0.39271 -0.71011,0.61411zM6.74996,6.75v2.59294c0.35731,0.0452 0.84025,0.1032 1.39107,0.16118c0.94506,0.09948 2.07507,0.19729 3.10897,0.23232v-2.29188v-0.69456zM12.75,6.75v0.69453v2.29192c1.034,-0.03504 2.1639,-0.13285 3.109,-0.23233c0.5507,-0.05797 1.0336,-0.11596 1.3909,-0.16117l0.0001,-2.59295zM18.75,6.49976l-0.0001,3.48421c0.0003,0.01136 0.0003,0.02263 0,0.03393v0.1401l0.0001,5.3417c0,0.3789 -0.1795,0.6758 -0.3976,0.8789c-0.2033,0.1895 -0.4541,0.3139 -0.6862,0.4013c-0.45,0.1692 -1.0258,0.2695 -1.6186,0.334l3.09,4.9915c0.218,0.3522 0.1093,0.8144 -0.2429,1.0324c-0.3522,0.2181 -0.8145,0.1093 -1.0325,-0.2429l-0.5541,-0.8951h-10.61636l-0.55412,0.8951c-0.21802,0.3522 -0.68027,0.461 -1.03246,0.2429c-0.35219,-0.218 -0.46096,-0.6802 -0.24294,-1.0324l3.08993,-4.9915c-0.59275,-0.0645 -1.16848,-0.1648 -1.61842,-0.334c-0.2321,-0.0874 -0.48288,-0.2118 -0.68624,-0.4013c-0.21803,-0.2031 -0.39754,-0.5 -0.39753,-0.8788v-5.4917v-0.01435v-3.49399c0,-1.29075 0.66194,-2.39186 1.85254,-3.13591c1.16235,-0.72639 2.8184,-1.11385 4.8975,-1.11385c2.1222,0.00001 3.7776,0.53065 4.9248,1.31934c1.1276,0.77516 1.8252,1.85374 1.8252,2.93042zM12,11.25c-1.2901,0 -2.82132,-0.1284 -4.016,-0.2541c-0.47159,-0.0497 -0.89435,-0.0993 -1.23404,-0.1413v4.4737c0.02962,0.0145 0.06659,0.0306 0.11192,0.0476c0.28142,0.1059 0.72735,0.1921 1.31017,0.2529c1.15148,0.1201 2.60935,0.121 3.82795,0.121c1.2185,0 2.6764,-0.0009 3.8279,-0.121c0.5828,-0.0608 1.0287,-0.147 1.3102,-0.2529c0.0453,-0.017 0.0822,-0.0331 0.1118,-0.0476v-4.4737c-0.3396,0.042 -0.7624,0.0916 -1.2339,0.1413c-1.1946,0.1257 -2.7259,0.2541 -4.016,0.2541zM14.3513,17.2235c-0.8074,0.0263 -1.6266,0.0263 -2.3291,0.0263v0h-0.0222h-0.0223v0c-0.7025,0 -1.5218,0 -2.32924,-0.0263l-0.48058,0.7763h5.66402zM8.49994,13.25c0.55228,0 1,0.4477 1,1c0,0.5523 -0.44772,1 -1,1c-0.55229,0 -1,-0.4477 -1,-1c0,-0.5523 0.44771,-1 1,-1zM15.4999,15.25c-0.5522,0 -1,-0.4477 -1,-1c0,-0.5523 0.4478,-1 1,-1c0.5523,0 1,0.4477 1,1c0,0.5523 -0.4477,1 -1,1zM8.23933,19.4998l-0.61904,1h8.75921l-0.619,-1z" fill="#002B51"/>
</svg>
