<svg width="24" height="24" viewBox="0 0 24 24" fill="none" xmlns="http://www.w3.org/2000/svg">
<path fill-rule="evenodd" clip-rule="evenodd" d="M14.2281,3.1809l3.8452,0.7693l0.125,0.03613c0.2795,0.10874 0.472,0.37728 0.4775,0.68555l0.0703,4.09472l0.878,1.3174c0.0821,0.1232 0.1259,0.2679 0.1259,0.416v7.5c0,0.3536 -0.247,0.6593 -0.5927,0.7334l-2.567,0.5501l1.5337,2.3005l0.0391,0.0664c0.1776,0.3359 0.0759,0.7583 -0.2471,0.9736c-0.3231,0.2154 -0.7524,0.1469 -0.9941,-0.1465l-0.0459,-0.0615l-1.8631,-2.7945l-2.8556,0.6119c-0.1036,0.0222 -0.2109,0.0222 -0.3145,0l-2.85573,-0.6119l-1.86304,2.7945c-0.22977,0.3447 -0.6954,0.4378 -1.04004,0.208c-0.34465,-0.2297 -0.43777,-0.6954 -0.20801,-1.04l1.5337,-2.3006l-2.56688,-0.55c-0.34576,-0.0741 -0.59277,-0.3798 -0.59277,-0.7334v-7.5c0,-0.1481 0.04384,-0.2928 0.12598,-0.416l0.87695,-1.3174l0.07129,-4.09472l0.01367,-0.12891c0.05677,-0.29467 0.28641,-0.53214 0.58887,-0.59277l3.8452,-0.7693c-0.01435,-0.05794 -0.02196,-0.11853 -0.02196,-0.1809c0,-0.41421 0.33577,-0.75 0.74997,-0.75h3c0.4142,0 0.75,0.33579 0.75,0.75c0,0.06237 -0.0076,0.12296 -0.0219,0.1809zM11.25,4.41462l-4.43649,0.88714l-0.04676,2.73353l4.48325,-1.12122zM6.46325,9.65713l-0.71322,1.06947v6.667l6.24997,1.3388l6.25,-1.3388v-6.667l-0.7132,-1.06948l-5.5368,-1.38465zM17.2331,8.03522l-0.0475,-2.73346l-4.4356,-0.88711v2.49942zM7.75003,17c-0.69036,0 -1.25,-0.5596 -1.25,-1.25c0,-0.6904 0.55964,-1.25 1.25,-1.25c0.69036,0 1.25,0.5596 1.25,1.25c0,0.6904 -0.55964,1.25 -1.25,1.25zM12,13.75c0.6904,0 1.25,-0.5596 1.25,-1.25c0,-0.6904 -0.5596,-1.25 -1.25,-1.25c-0.6903,0 -1.25,0.5596 -1.25,1.25c0,0.6904 0.5597,1.25 1.25,1.25zM12,9.75c1.5188,0 2.75,1.2312 2.75,2.75c0,1.5188 -1.2312,2.75 -2.75,2.75c-1.5188,0 -2.74997,-1.2312 -2.74997,-2.75c0,-1.5188 1.23117,-2.75 2.74997,-2.75zM16.25,17c-0.6903,0 -1.25,-0.5596 -1.25,-1.25c0,-0.6904 0.5597,-1.25 1.25,-1.25c0.6904,0 1.25,0.5596 1.25,1.25c0,0.6904 -0.5596,1.25 -1.25,1.25z" fill="#002B51"/>
</svg>
