<svg width="24" height="24" viewBox="0 0 24 24" fill="none" xmlns="http://www.w3.org/2000/svg">
<path d="M12.3922,2.25586c1.9346,0.06121 3.4567,0.57415 4.5323,1.31348c1.1276,0.77516 1.8252,1.85398 1.8252,2.93066c0,3.71 -0.0002,6.5001 0,9l-0.0078,0.1377c-0.0373,0.3135 -0.1989,0.5634 -0.3897,0.7412c-0.2033,0.1894 -0.4545,0.3141 -0.6865,0.4014c-0.4501,0.1692 -1.0263,0.2685 -1.6192,0.333l3.0909,4.9922l0.0371,0.0674c0.1661,0.3416 0.0497,0.7604 -0.2803,0.9648c-0.3301,0.2042 -0.7566,0.1214 -0.9883,-0.1797l-0.0439,-0.0635l-0.5537,-0.8945h-10.61722l-0.55372,0.8945c-0.21799,0.3522 -0.68004,0.4611 -1.03222,0.2432c-0.35205,-0.218 -0.46099,-0.6801 -0.24317,-1.0322l3.08985,-4.9922c-0.59248,-0.0645 -1.16838,-0.1639 -1.61817,-0.333c-0.23202,-0.0873 -0.48321,-0.212 -0.68652,-0.4014c-0.21795,-0.203 -0.39739,-0.5002 -0.39746,-0.8789v-9c0,-1.29065 0.66212,-2.3917 1.85254,-3.13574c1.16232,-0.72638 2.81846,-1.11424 4.89749,-1.11426zM7.61979,20.5h8.75981l-0.6192,-1h-7.52147zM14.3503,17.2227c-0.8157,0.0265 -1.6435,0.0273 -2.3506,0.0273c-0.7075,0 -1.5356,-0.0008 -2.35159,-0.0273l-0.48047,0.7773h5.66406zM8.49967,13.25c-0.55223,0.0001 -1,0.4478 -1,1c0,0.5522 0.44777,0.9999 1,1c0.55228,0 1,-0.4477 1,-1c0,-0.5523 -0.44772,-1 -1,-1zM15.4997,13.25c-0.5523,0.0001 -1,0.4478 -1,1c0,0.5522 0.4477,0.9999 1,1c0.5523,0 1,-0.4477 1,-1c0,-0.5523 -0.4477,-1 -1,-1zM6.74967,6.75c0,0.81736 0,1.70049 0,2.5918c0.35721,0.04519 0.84005,0.10415 1.39062,0.16211c0.94499,0.09947 2.07551,0.1964 3.10941,0.23144v-2.98535zM12.7497,6.75v2.98535c1.0338,-0.03503 2.1643,-0.13197 3.1093,-0.23144c0.5505,-0.05795 1.0335,-0.11692 1.3907,-0.16211c0,-0.81388 0,-1.67453 0,-2.5918zM11.9997,3.75c-1.9208,0.00002 -3.26493,0.36229 -4.10257,0.88574c-0.29859,0.18662 -0.53298,0.39281 -0.70996,0.61426h9.42583c-0.1484,-0.1493 -0.3266,-0.2989 -0.5381,-0.44434c-0.7995,-0.54953 -2.0314,-0.99611 -3.7295,-1.0498z" fill="#002B51"/>
</svg>
