<svg width="24" height="24" viewBox="0 0 24 24" fill="none" xmlns="http://www.w3.org/2000/svg">
<path d="M22,18c0.4142,0 0.75,0.3358 0.75,0.75c0,0.4142 -0.3358,0.75 -0.75,0.75h-20c-0.41421,0 -0.75,-0.3358 -0.75,-0.75c0,-0.4142 0.33579,-0.75 0.75,-0.75zM9.32715,4.25391c0.37797,0.03862 0.67285,0.35792 0.67285,0.74609v9h0.25c0.4142,0 0.75,0.3358 0.75,0.75c0,0.4142 -0.3358,0.75 -0.75,0.75h-0.75c-0.04267,0 -0.08428,-0.0049 -0.125,-0.0117c-0.04072,0.0068 -0.08233,0.0117 -0.125,0.0117h-1.26465c0.00953,0.082 0.01465,0.1654 0.01465,0.25c0,1.2426 -1.00736,2.25 -2.25,2.25c-1.24264,0 -2.25,-1.0074 -2.25,-2.25c0,-0.0846 0.00512,-0.168 0.01465,-0.25h-1.76465c-0.41421,0 -0.75,-0.3358 -0.75,-0.75v-9.75l0.00391,-0.07715c0.03862,-0.37797 0.35792,-0.67285 0.74609,-0.67285h7.5zM22,2c0.4142,0 0.75,0.33579 0.75,0.75c0,0.41421 -0.3358,0.75 -0.75,0.75h-1.25v0.75h0.6787c0.7297,0.00008 1.3212,0.59159 1.3213,1.32129v8.60741c-0.0001,0.7297 -0.5916,1.3212 -1.3213,1.3213h-0.6933c0.0095,0.082 0.0146,0.1654 0.0146,0.25c0,1.2426 -1.0074,2.25 -2.25,2.25c-1.2426,0 -2.25,-1.0074 -2.25,-2.25c0,-0.0846 0.0051,-0.168 0.0146,-0.25h-2.2646c-0.4142,0 -0.75,-0.3358 -0.75,-0.75c0,-0.4142 0.3358,-0.75 0.75,-0.75h1.0518c-1.1079,-1.0273 -1.8018,-2.4949 -1.8018,-4.125c0,-3.1066 2.5184,-5.625 5.625,-5.625h0.375v-1.5l0.0039,-0.07715c0.0386,-0.37797 0.3579,-0.67285 0.7461,-0.67285zM5.0459,15.5c-0.02838,0.0782 -0.0459,0.1618 -0.0459,0.25c0,0.4142 0.33579,0.75 0.75,0.75c0.41421,0 0.75,-0.3358 0.75,-0.75c0,-0.0882 -0.01752,-0.1718 -0.0459,-0.25zM17.7959,15.5c-0.0284,0.0782 -0.0459,0.1618 -0.0459,0.25c0,0.4142 0.3358,0.75 0.75,0.75c0.4142,0 0.75,-0.3358 0.75,-0.75c0,-0.0882 -0.0175,-0.1718 -0.0459,-0.25zM3.5,6.5c-0.41421,0 -0.75,0.33579 -0.75,0.75v5c0,0.4142 0.33579,0.75 0.75,0.75c0.41421,0 0.75,-0.3358 0.75,-0.75v-5c0,-0.41421 -0.33579,-0.75 -0.75,-0.75zM6.5,6.5c-0.41421,0 -0.75,0.33579 -0.75,0.75v5c0,0.4142 0.33579,0.75 0.75,0.75c0.41421,0 0.75,-0.3358 0.75,-0.75v-5c0,-0.41421 -0.33579,-0.75 -0.75,-0.75z" fill="#002B51"/>
</svg>
