<svg width="24" height="24" viewBox="0 0 24 24" fill="none" xmlns="http://www.w3.org/2000/svg">
<path fill-rule="evenodd" clip-rule="evenodd" d="M10.5 2.25C10.0858 2.25 9.75 2.58579 9.75 3C9.75 3.06232 9.7576 3.12287 9.77193 3.18077L5.92701 3.94975C5.58119 4.01892 5.33027 4.31968 5.32421 4.67231L5.25389 8.76708L4.37596 10.084C4.29383 10.2072 4.25 10.3519 4.25 10.5V18C4.25 18.3537 4.49705 18.6593 4.84285 18.7334L7.40967 19.2834L5.87594 21.584C5.64617 21.9286 5.7393 22.3943 6.08395 22.624C6.42859 22.8538 6.89425 22.7607 7.12401 22.416L8.98709 19.6214L11.8429 20.2334C11.9464 20.2555 12.0536 20.2555 12.1571 20.2334L15.0129 19.6214L16.8759 22.416C17.1057 22.7607 17.5714 22.8538 17.916 22.624C18.2606 22.3943 18.3538 21.9286 18.124 21.584L16.5903 19.2834L19.1571 18.7334C19.5029 18.6593 19.75 18.3537 19.75 18V10.5C19.75 10.3519 19.7062 10.2072 19.624 10.084L18.7461 8.76709L18.6758 4.67232C18.6698 4.31969 18.4189 4.01892 18.073 3.94975L14.2281 3.18076C14.2424 3.12286 14.25 3.06232 14.25 3C14.25 2.58579 13.9142 2.25 13.5 2.25H10.5ZM11.25 4.41485L6.81362 5.30213L6.76668 8.03525L11.25 6.91442L11.25 4.41485ZM17.2333 8.03525L17.1864 5.30213L12.75 4.41485L12.75 6.91442L17.2333 8.03525ZM7.75 14.5C8.44036 14.5 9 15.0596 9 15.75C9 16.4404 8.44036 17 7.75 17C7.05964 17 6.5 16.4404 6.5 15.75C6.5 15.0596 7.05964 14.5 7.75 14.5ZM12 13.75C11.3096 13.75 10.75 13.1904 10.75 12.5C10.75 11.8096 11.3096 11.25 12 11.25C12.6904 11.25 13.25 11.8096 13.25 12.5C13.25 13.1904 12.6904 13.75 12 13.75ZM9.25 12.5C9.25 14.0188 10.4812 15.25 12 15.25C13.5188 15.25 14.75 14.0188 14.75 12.5C14.75 10.9812 13.5188 9.75 12 9.75C10.4812 9.75 9.25 10.9812 9.25 12.5ZM16.25 14.5C16.9404 14.5 17.5 15.0596 17.5 15.75C17.5 16.4404 16.9404 17 16.25 17C15.5596 17 15 16.4404 15 15.75C15 15.0596 15.5596 14.5 16.25 14.5Z" fill="#002B51"/>
</svg>
