<svg width="24" height="24" viewBox="0 0 24 24" fill="none" xmlns="http://www.w3.org/2000/svg">
<path fill-rule="evenodd" clip-rule="evenodd" d="M16.959 4.87404C17.3633 5.14359 17.6587 5.44102 17.8641 5.74999H6.13594C6.3413 5.44102 6.6367 5.14359 7.04102 4.87404C8.00069 4.23426 9.58768 3.75 12 3.75C14.4123 3.75 15.9993 4.23426 16.959 4.87404ZM12.75 7.24999H18.25V7.26221V7.28805V7.31383V7.33953V7.36517V7.39074V7.41625V7.44169V7.46706V7.49236V7.5176V7.54277V7.56788V7.59292V7.61789V7.6428V7.66765V7.69243V7.71714V7.74179V7.76638V7.7909V7.81536V7.83975V7.86408V7.88835V7.91256V7.9367V7.96078V7.9848V8.00875V8.03264V8.05647V8.08024V8.10395V8.1276V8.15118V8.17471V8.19817V8.22158V8.24492V8.26821V8.29143V8.31459V8.3377V8.36075V8.38373V8.40666V8.42953V8.45234V8.4751V8.49779V8.52043V8.54301V8.56554V8.588V8.61041V8.63276V8.65506V8.6773V8.69948V8.72161V8.74369V8.7657V8.78766V8.80957V8.83142V8.85322V8.87496V8.89665V8.91829V8.93987V8.9614V8.98287V9.00429V9.02566V9.04698V9.06824V9.08945V9.11061V9.13171V9.15277V9.17377V9.19472V9.21563V9.23647V9.25727V9.27802V9.29872V9.31937V9.33997V9.36052V9.38102V9.40147V9.42187V9.44222V9.46252V9.48278V9.50299V9.52315V9.54326V9.56332V9.58334V9.60331V9.62323V9.6431V9.66293V9.68271V9.70245V9.72214V9.74178V9.76138V9.78094V9.80045V9.81991V9.83933V9.8587V9.87803V9.89732V9.91656V9.93576V9.95491V9.97402V9.99309V10.0121V10.0311V10.05V10.0689V10.0878V10.1066V10.1254V10.1441V10.1628V10.1815V10.2001V10.2186V10.2372V10.2556V10.2741V10.2925V10.3109V10.3292V10.3475V10.3657V10.3839V10.4021V10.4202V10.4383V10.4564V10.4744V10.4924V10.5104V10.5283V10.5461V10.564V10.5818V10.5995V10.6173V10.6349V10.6526V10.6702V10.6878V10.7054V10.7229V10.7403V10.7578V10.7752V10.7926V10.8099V10.8272V10.8445V10.8508C17.9212 10.8944 17.4723 10.949 16.9254 11.0037C15.8531 11.111 14.4067 11.2182 12.75 11.2441V11.2422V11.2267V11.2112V11.1957V11.1802V11.1647V11.1492V11.1338V11.1183V11.1028V11.0873V11.0718V11.0564V11.0409V11.0254V11.01V10.9945V10.9791V10.9636V10.9482V10.9327V10.9173V10.9018V10.8864V10.871V10.8555V10.8401V10.8247V10.8093V10.7939V10.7785V10.7631V10.7477V10.7323V10.7169V10.7016V10.6862V10.6709V10.6555V10.6402V10.6248V10.6095V10.5942V10.5788V10.5635V10.5482V10.5329V10.5176V10.5023V10.4871V10.4718V10.4565V10.4413V10.426V10.4108V10.3956V10.3804V10.3652V10.35V10.3348V10.3196V10.3044V10.2893V10.2741V10.259V10.2438V10.2287V10.2136V10.1985V10.1834V10.1683V10.1533V10.1382V10.1232V10.1081V10.0931V10.0781V10.0631V10.0481V10.0331V10.0182V10.0032V9.9883V9.97337V9.95846V9.94356V9.92867V9.9138V9.89894V9.88409V9.86926V9.85444V9.83963V9.82484V9.81006V9.7953V9.78055V9.76581V9.75109V9.73639V9.7217V9.70702V9.69236V9.67772V9.66309V9.64848V9.63388V9.6193V9.60473V9.59018V9.57565V9.56113V9.54663V9.53215V9.51768V9.50323V9.4888V9.47439V9.45999V9.44561V9.43125V9.4169V9.40258V9.38827V9.37398V9.35971V9.34546V9.33122V9.31701V9.30281V9.28864V9.27448V9.26034V9.24622V9.23212V9.21804V9.20399V9.18995V9.17593V9.16193V9.14795V9.134V9.12006V9.10615V9.09225V9.07838V9.06453V9.0507V9.03689V9.0231V9.00934V8.9956V8.98188V8.96818V8.9545V8.94085V8.92722V8.91361V8.90003V8.88647V8.87293V8.85942V8.84593V8.83246V8.81902V8.8056V8.79221V8.77884V8.76549V8.75217V8.73887V8.7256V8.71236V8.69913V8.68594V8.67277V8.65962V8.6465V8.63341V8.62034V8.6073V8.59429V8.5813V8.56834V8.5554V8.54249V8.52961V8.51676V8.50393V8.49113V8.47836V8.46561V8.4529V8.44021V8.42755V8.41492V8.40231V8.38974V8.37719V8.36467V8.35218V8.33972V8.32729V8.31489V8.30252V8.29017V8.27786V8.26558V8.25332V8.2411V8.22891V8.21675V8.20462V8.19252V8.18045V8.16841V8.1564V8.14442V8.13248V8.12057V8.10869V8.09684V8.08502V8.07323V8.06148V8.04976V8.03807V8.02642V8.01479V8.0032V7.99165V7.98012V7.96863V7.95718V7.94575V7.93437V7.92301V7.91169V7.9004V7.88915V7.87793V7.86675V7.8556V7.84449V7.83341V7.82237V7.81136V7.80039V7.78945V7.77855V7.76768V7.75686V7.74606V7.73531V7.72459V7.7139V7.70326V7.69265V7.68207V7.67154V7.66104V7.65058V7.64016V7.62977V7.61942V7.60911V7.59884V7.58861V7.57842V7.56826V7.55814V7.54806V7.53802V7.52802V7.51806V7.50814V7.49826V7.48842V7.47861V7.46885V7.45913V7.44945V7.4398V7.4302V7.42064V7.41112V7.40164V7.3922V7.38281V7.37345V7.36414V7.35486V7.34563V7.33644V7.3273V7.31819V7.30913V7.30011V7.29114V7.2822V7.27331V7.26446V7.25566V7.24999ZM11.25 7.24999V7.25566V7.26446V7.27331V7.2822V7.29114V7.30011V7.30913V7.31819V7.3273V7.33644V7.34563V7.35486V7.36414V7.37345V7.38281V7.3922V7.40164V7.41112V7.42064V7.4302V7.4398V7.44945V7.45913V7.46885V7.47861V7.48842V7.49826V7.50814V7.51806V7.52802V7.53802V7.54806V7.55814V7.56826V7.57842V7.58861V7.59884V7.60911V7.61942V7.62977V7.64016V7.65058V7.66104V7.67154V7.68207V7.69265V7.70326V7.7139V7.72459V7.73531V7.74606V7.75686V7.76768V7.77855V7.78945V7.80039V7.81136V7.82237V7.83341V7.84449V7.8556V7.86675V7.87793V7.88915V7.9004V7.91169V7.92301V7.93437V7.94575V7.95718V7.96863V7.98012V7.99165V8.0032V8.01479V8.02642V8.03807V8.04976V8.06148V8.07323V8.08502V8.09684V8.10869V8.12057V8.13248V8.14442V8.1564V8.16841V8.18045V8.19252V8.20462V8.21675V8.22891V8.2411V8.25332V8.26558V8.27786V8.29017V8.30252V8.31489V8.32729V8.33972V8.35218V8.36467V8.37719V8.38974V8.40231V8.41492V8.42755V8.44021V8.4529V8.46561V8.47836V8.49113V8.50393V8.51676V8.52961V8.54249V8.5554V8.56834V8.5813V8.59429V8.6073V8.62034V8.63341V8.6465V8.65962V8.67277V8.68594V8.69913V8.71236V8.7256V8.73887V8.75217V8.76549V8.77884V8.79221V8.8056V8.81902V8.83246V8.84593V8.85942V8.87293V8.88647V8.90003V8.91361V8.92722V8.94085V8.9545V8.96818V8.98188V8.9956V9.00934V9.0231V9.03689V9.0507V9.06453V9.07838V9.09225V9.10615V9.12006V9.134V9.14795V9.16193V9.17593V9.18995V9.20399V9.21804V9.23212V9.24622V9.26034V9.27448V9.28864V9.30281V9.31701V9.33122V9.34546V9.35971V9.37398V9.38827V9.40258V9.4169V9.43125V9.44561V9.45999V9.47439V9.4888V9.50323V9.51768V9.53215V9.54663V9.56113V9.57565V9.59018V9.60473V9.6193V9.63388V9.64848V9.66309V9.67772V9.69236V9.70702V9.7217V9.73639V9.75109V9.76581V9.78055V9.7953V9.81006V9.82484V9.83963V9.85444V9.86926V9.88409V9.89894V9.9138V9.92867V9.94356V9.95846V9.97337V9.9883V10.0032V10.0182V10.0331V10.0481V10.0631V10.0781V10.0931V10.1081V10.1232V10.1382V10.1533V10.1683V10.1834V10.1985V10.2136V10.2287V10.2438V10.259V10.2741V10.2893V10.3044V10.3196V10.3348V10.35V10.3652V10.3804V10.3956V10.4108V10.426V10.4413V10.4565V10.4718V10.4871V10.5023V10.5176V10.5329V10.5482V10.5635V10.5788V10.5942V10.6095V10.6248V10.6402V10.6555V10.6709V10.6862V10.7016V10.7169V10.7323V10.7477V10.7631V10.7785V10.7939V10.8093V10.8247V10.8401V10.8555V10.871V10.8864V10.9018V10.9173V10.9327V10.9482V10.9636V10.9791V10.9945V11.01V11.0254V11.0409V11.0564V11.0718V11.0873V11.1028V11.1183V11.1338V11.1492V11.1647V11.1802V11.1957V11.2112V11.2267V11.2422V11.2441C9.59327 11.2182 8.14686 11.111 7.07462 11.0037C6.52765 10.949 6.07881 10.8944 5.74999 10.8508V7.24999H11.25ZM4.24999 11.4877V7C4.24999 5.72246 4.89863 4.49953 6.20897 3.62596C7.4993 2.76574 9.41231 2.25 12 2.25C14.5877 2.25 16.5007 2.76574 17.791 3.62596C19.1014 4.49953 19.75 5.72246 19.75 7V7.02653V7.053V7.07939V7.10571V7.13197V7.15815V7.18427V7.21032V7.2363V7.26221V7.28805V7.31383V7.33953V7.36517V7.39074V7.41625V7.44169V7.46706V7.49236V7.5176V7.54277V7.56788V7.59292V7.61789V7.6428V7.66765V7.69243V7.71714V7.74179V7.76638V7.7909V7.81536V7.83975V7.86408V7.88835V7.91256V7.9367V7.96078V7.9848V8.00875V8.03264V8.05647V8.08024V8.10395V8.1276V8.15118V8.17471V8.19817V8.22158V8.24492V8.26821V8.29143V8.31459V8.3377V8.36075V8.38373V8.40666V8.42953V8.45234V8.4751V8.49779V8.52043V8.54301V8.56554V8.588V8.61041V8.63276V8.65506V8.6773V8.69948V8.72161V8.74369V8.7657V8.78766V8.80957V8.83142V8.85322V8.87496V8.89665V8.91829V8.93987V8.9614V8.98287V9.00429V9.02566V9.04698V9.06824V9.08945V9.11061V9.13171V9.15277V9.17377V9.19472V9.21563V9.23647V9.25727V9.27802V9.29872V9.31937V9.33997V9.36052V9.38102V9.40147V9.42187V9.44222V9.46252V9.48278V9.50299V9.52315V9.54326V9.56332V9.58334V9.60331V9.62323V9.6431V9.66293V9.68271V9.70245V9.72214V9.74178V9.76138V9.78094V9.80045V9.81991V9.83933V9.8587V9.87803V9.89732V9.91656V9.93576V9.95491V9.97402V9.99309V10.0121V10.0311V10.05V10.0689V10.0878V10.1066V10.1254V10.1441V10.1628V10.1815V10.2001V10.2186V10.2372V10.2556V10.2741V10.2925V10.3109V10.3292V10.3475V10.3657V10.3839V10.4021V10.4202V10.4383V10.4564V10.4744V10.4924V10.5104V10.5283V10.5461V10.564V10.5818V10.5995V10.6173V10.6349V10.6526V10.6702V10.6878V10.7054V10.7229V10.7403V10.7578V10.7752V10.7926V10.8099V10.8272V10.8445V10.8618V10.879V10.8961V10.9133V10.9304V10.9475V10.9645V10.9815V10.9985V11.0155V11.0324V11.0493V11.0661V11.083V11.0998V11.1165V11.1333V11.15V11.1667V11.1833V11.2V11.2165V11.2331V11.2496V11.2662V11.2826V11.2991V11.3155V11.3319V11.3483V11.3646V11.3809V11.3972V11.4135V11.4297V11.4459V11.4621V11.4783V11.4877C19.7502 11.4965 19.7502 11.5053 19.75 11.5141V11.5266V11.5427V11.5587V11.5747V11.5907V11.6067V11.6226V11.6385V11.6544V11.6703V11.6861V11.7019V11.7177V11.7335V11.7493V11.765V11.7807V11.7964V11.8121V11.8277V11.8433V11.859V11.8745V11.8901V11.9057V11.9212V11.9367V11.9522V11.9676V11.9831V11.9985V12.0139V12.0293V12.0447V12.0601V12.0754V12.0907V12.106V12.1213V12.1366V12.1518V12.1671V12.1823V12.1975V12.2127V12.2279V12.243V12.2582V12.2733V12.2884V12.3035V12.3186V12.3336V12.3487V12.3637V12.3788V12.3938V12.4088V12.4238V12.4387V12.4537V12.4687V12.4836V12.4985V12.5134V12.5283V12.5432V12.5581V12.573V12.5878V12.6027V12.6175V12.6323V12.6472V12.662V12.6768V12.6915V12.7063V12.7211V12.7359V12.7506V12.7654V12.7801V12.7948V12.8095V12.8243V12.839V12.8537V12.8684V12.883V12.8977V12.9124V12.9271V12.9417V12.9564V12.971V12.9857V13.0003V13.0149V13.0296V13.0442V13.0588V13.0734V13.0881V13.1027V13.1173V13.1319V13.1465V13.1611V13.1757V13.1903V13.2049V13.2194V13.234V13.2486V13.2632V13.2778V13.2924V13.307V13.3215V13.3361V13.3507V13.3653V13.3799V13.3944V13.409V13.4236V13.4382V13.4528V13.4674V13.482V13.4965V13.5111V13.5257V13.5403V13.5549V13.5695V13.5842V13.5988V13.6134V13.628V13.6426V13.6573V13.6719V13.6865V13.7012V13.7158V13.7305V13.7451V13.7598V13.7744V13.7891V13.8038V13.8185V13.8332V13.8479V13.8626V13.8773V13.892V13.9068V13.9215V13.9363V13.951V13.9658V13.9805V13.9953V14.0101V14.0249V14.0397V14.0545V14.0694V14.0842V14.0991V14.1139V14.1288V14.1437V14.1586V14.1735V14.1884V14.2033V14.2183V14.2332V14.2482V14.2632V14.2782V14.2932V14.3082V14.3232V14.3383V14.3533V14.3684V14.3835V14.3986V14.4137V14.4288V14.444V14.4591V14.4743V14.4895V14.5047V14.52V14.5352V14.5505V14.5657V14.581V14.5963V14.6117V14.627V14.6424V14.6578V14.6732V14.6886V14.704V14.7195V14.7349V14.7504V14.7659V14.7815V14.797V14.8126V14.8282V14.8438V14.8594V14.8751V14.8908V14.9065V14.9222V14.9379V14.9537V14.9695V14.9853V15.0011V15.017V15.0328V15.0487V15.0647V15.0806V15.0966V15.1126V15.1286V15.1446V15.1607V15.1768V15.1929V15.2091V15.2252V15.2414V15.2576V15.2739V15.2902V15.3065V15.3228V15.3391V15.3555V15.3719V15.3883V15.4048V15.4213V15.4378V15.4544V15.4709V15.4875V15.5042V15.5208V15.5375V15.5542V15.571V15.5878V15.6046V15.6214V15.6383V15.6552V15.6721V15.6891V15.7061V15.7231V15.7402V15.7573V15.7744V15.7915V15.8087V15.8259V15.8432V15.8605V15.8778V15.8952V15.9125V15.93V15.9474V15.9649V15.9824V16C19.75 16.7663 19.6908 17.4643 19.4354 18.039C19.1548 18.6703 18.6735 19.0797 18.0133 19.3272C17.6649 19.4579 17.2616 19.5456 16.8052 19.6057L18.1241 21.584C18.3538 21.9286 18.2607 22.3943 17.916 22.624C17.5714 22.8538 17.1057 22.7607 16.876 22.416L15.0819 19.7248C14.2322 19.75 13.2177 19.75 12.0204 19.75H12.0201H12H11.9799H11.9796C10.7823 19.75 9.76778 19.75 8.91818 19.7248L7.12406 22.416C6.89429 22.7607 6.42864 22.8538 6.084 22.624C5.73935 22.3943 5.64622 21.9286 5.87598 21.584L7.19484 19.6057C6.73839 19.5456 6.33513 19.4579 5.98665 19.3272C5.32645 19.0797 4.84524 18.6703 4.56464 18.039C4.30921 17.4643 4.24999 16.7663 4.24999 16V11.5141C4.24984 11.5053 4.24984 11.4965 4.24999 11.4877ZM8 15C8.69036 15 9.25 15.5596 9.25 16.25C9.25 16.9404 8.69036 17.5 8 17.5C7.30964 17.5 6.75 16.9404 6.75 16.25C6.75 15.5596 7.30964 15 8 15ZM17.25 16.25C17.25 15.5596 16.6904 15 16 15C15.3096 15 14.75 15.5596 14.75 16.25C14.75 16.9404 15.3096 17.5 16 17.5C16.6904 17.5 17.25 16.9404 17.25 16.25Z" fill="#002B51"/>
</svg>
