<svg width="24" height="24" viewBox="0 0 24 24" fill="none" xmlns="http://www.w3.org/2000/svg">
<path fill-rule="evenodd" clip-rule="evenodd" d="M17.1471 3.51456L13.7309 2.83134C13.6544 2.49834 13.3562 2.25 13 2.25H11C10.6438 2.25 10.3455 2.49834 10.269 2.83134L6.8529 3.51456C6.50233 3.58468 6.24999 3.89249 6.24999 4.25V7.43934L5.46966 8.21967C5.329 8.36032 5.24999 8.55109 5.24999 8.75V15.75C5.24999 16.1166 5.51505 16.4295 5.87669 16.4898L8.10816 16.8617L4.86216 22.1053C4.64414 22.4575 4.75291 22.9198 5.1051 23.1378C5.45729 23.3558 5.91954 23.2471 6.13756 22.8949L6.69168 21.9997H17.308L17.8622 22.8949C18.0802 23.2471 18.5424 23.3558 18.8946 23.1378C19.2468 22.9198 19.3556 22.4575 19.1376 22.1053L15.8915 16.8618L18.1233 16.4898C18.4849 16.4295 18.75 16.1166 18.75 15.75V8.75C18.75 8.55109 18.671 8.36032 18.5303 8.21967L17.75 7.43934V4.25C17.75 3.89249 17.4976 3.58468 17.1471 3.51456ZM14.2923 17.1283L12.1233 17.4898C12.0416 17.5034 11.9583 17.5034 11.8767 17.4898L9.70731 17.1282L9.16782 17.9997H14.8318L14.2923 17.1283ZM7.74999 4.86485V7.08515L11.25 6.38515V4.16485L7.74999 4.86485ZM6.74999 9.06066L7.06325 8.74739C7.09107 8.745 7.11905 8.74104 7.14707 8.73544L12 7.76485L16.8529 8.73544C16.8809 8.74104 16.9089 8.74501 16.9367 8.7474L17.25 9.06066V15.1147L12 15.9897L6.74999 15.1147V9.06066ZM16.25 4.86485V7.08515L12.75 6.38515V4.16485L16.25 4.86485ZM8.24999 13C8.80227 13 9.24999 13.4477 9.24999 14C9.24999 14.5523 8.80227 15 8.24999 15C7.6977 15 7.24999 14.5523 7.24999 14C7.24999 13.4477 7.6977 13 8.24999 13ZM12 12.25C11.5858 12.25 11.25 11.9142 11.25 11.5C11.25 11.0858 11.5858 10.75 12 10.75C12.4142 10.75 12.75 11.0858 12.75 11.5C12.75 11.9142 12.4142 12.25 12 12.25ZM9.74999 11.5C9.74999 12.7426 10.7573 13.75 12 13.75C13.2426 13.75 14.25 12.7426 14.25 11.5C14.25 10.2574 13.2426 9.25 12 9.25C10.7573 9.25 9.74999 10.2574 9.74999 11.5ZM15.75 13C16.3023 13 16.75 13.4477 16.75 14C16.75 14.5523 16.3023 15 15.75 15C15.1977 15 14.75 14.5523 14.75 14C14.75 13.4477 15.1977 13 15.75 13ZM15.7604 19.4997H8.23927L7.62023 20.4997H16.3794L15.7604 19.4997Z" fill="#002B51"/>
</svg>
