<svg width="24" height="24" viewBox="0 0 24 24" fill="none" xmlns="http://www.w3.org/2000/svg">
<path fill-rule="evenodd" clip-rule="evenodd" d="M7.18727,5.25h4.81263v0h4.6133c-0.1484,-0.14936 -0.3265,-0.29907 -0.5382,-0.44456c-0.8527,-0.58619 -2.1973,-1.05543 -4.0751,-1.05544c-1.9209,0 -3.26486,0.36241 -4.10252,0.88589c-0.29863,0.18662 -0.53311,0.39271 -0.71011,0.61411zM17.2499,6.75h-4.5v0.69453v2.29192c1.034,-0.03504 2.164,-0.13285 3.109,-0.23233c0.5508,-0.05797 1.0337,-0.11596 1.391,-0.16117zM6.7499,6.75v2.59294c0.35731,0.0452 0.84025,0.1032 1.39107,0.16118c0.94506,0.09948 2.07503,0.19729 3.10893,0.23232v-2.29188v-0.69456zM18.7499,10.0179v0.1401v5.3417c0,0.3789 -0.1795,0.6758 -0.3975,0.8789c-0.2034,0.1895 -0.4542,0.3139 -0.6863,0.4013c-0.4499,0.1692 -1.0257,0.2695 -1.6185,0.334l3.09,4.9915c0.218,0.3522 0.1092,0.8144 -0.243,1.0324c-0.3522,0.2181 -0.8144,0.1093 -1.0324,-0.2429l-0.5542,-0.8951h-10.61632l-0.55412,0.8951c-0.21802,0.3522 -0.68027,0.461 -1.03246,0.2429c-0.35219,-0.218 -0.46096,-0.6802 -0.24294,-1.0324l3.08993,-4.9915c-0.59276,-0.0645 -1.16848,-0.1648 -1.61843,-0.334c-0.23209,-0.0874 -0.48287,-0.2118 -0.68623,-0.4013c-0.21803,-0.2031 -0.39754,-0.5 -0.39753,-0.8788v-5.4917v-0.01435v-3.49399c0,-1.29075 0.66194,-2.39186 1.85254,-3.13591c1.16235,-0.72639 2.81839,-1.11385 4.89746,-1.11385c2.1222,0.00001 3.7776,0.53065 4.9249,1.31934c1.1276,0.77516 1.8251,1.85374 1.8251,2.93042v3.48421c0.0002,0.01136 0.0002,0.02263 0,0.03393zM12.0222,17.2498h-0.0223h-0.0223v0c-0.7025,0 -1.5217,0 -2.32921,-0.0263l-0.48057,0.7763h5.66398l-0.4806,-0.7763c-0.8074,0.0263 -1.6266,0.0263 -2.329,0.0263zM16.3794,20.4998l-0.619,-1h-7.52113l-0.61904,1zM9.49988,14.25c0,-0.5523 -0.44772,-1 -1,-1c-0.55229,0 -1,0.4477 -1,1c0,0.5523 0.44771,1 1,1c0.55228,0 1,-0.4477 1,-1zM14.4999,14.25c0,0.5523 0.4477,1 1,1c0.5523,0 1,-0.4477 1,-1c0,-0.5523 -0.4477,-1 -1,-1c-0.5523,0 -1,0.4477 -1,1z" fill="#002B51"/>
</svg>
