<svg width="24" height="24" viewBox="0 0 24 24" fill="none" xmlns="http://www.w3.org/2000/svg">
<path d="M22,18c0.4142,0 0.75,0.3358 0.75,0.75c0,0.4142 -0.3358,0.75 -0.75,0.75h-20c-0.41421,0 -0.75,-0.3358 -0.75,-0.75c0,-0.4142 0.33579,-0.75 0.75,-0.75zM14,2c0.4142,0 0.75,0.33579 0.75,0.75v1.5h1.375c3.1066,0 5.625,2.5184 5.625,5.625c0,1.6301 -0.6939,3.0977 -1.8018,4.125h1.0518c0.4142,0 0.75,0.3358 0.75,0.75c0,0.4142 -0.3358,0.75 -0.75,0.75h-2.2656c0.0094,0.0821 0.0156,0.1654 0.0156,0.25c0,1.2426 -1.0074,2.25 -2.25,2.25c-1.2426,0 -2.25,-1.0074 -2.25,-2.25c0,-0.0846 0.0062,-0.1679 0.0156,-0.25h-4.53122c0.00945,0.0821 0.01562,0.1654 0.01562,0.25c0,1.2426 -1.00736,2.25 -2.25,2.25c-1.24264,0 -2.25,-1.0074 -2.25,-2.25c0,-0.0846 0.00617,-0.1679 0.01562,-0.25h-2.26562c-0.41421,0 -0.75,-0.3358 -0.75,-0.75c0,-0.4142 0.33579,-0.75 0.75,-0.75h1.05176c-1.1079,-1.0273 -1.80176,-2.4949 -1.80176,-4.125c0,-3.1066 2.5184,-5.625 5.625,-5.625h1.375v-1.5c0,-0.41421 0.33579,-0.75 0.75,-0.75zM6.7959,15.5c-0.02787,0.0785 -0.0459,0.162 -0.0459,0.25c0,0.4142 0.33579,0.75 0.75,0.75c0.41421,0 0.75,-0.3358 0.75,-0.75c0,-0.088 -0.01803,-0.1715 -0.0459,-0.25zM15.7959,15.5c-0.0279,0.0785 -0.0459,0.162 -0.0459,0.25c0,0.4142 0.3358,0.75 0.75,0.75c0.4142,0 0.75,-0.3358 0.75,-0.75c0,-0.088 -0.018,-0.1715 -0.0459,-0.25zM7.875,5.75c-2.27817,0 -4.125,1.84683 -4.125,4.125c0,2.2782 1.84683,4.125 4.125,4.125h8.25c2.2782,0 4.125,-1.8468 4.125,-4.125c0,-2.27817 -1.8468,-4.125 -4.125,-4.125zM10.75,4.25h2.5v-0.75h-2.5z" fill="#002B51"/>
</svg>
