<svg width="24" height="24" viewBox="0 0 24 24" fill="none" xmlns="http://www.w3.org/2000/svg">
<path fill-rule="evenodd" clip-rule="evenodd" d="M17.75,4.25v3.18934l0.7803,0.78033c0.1407,0.14065 0.2197,0.33142 0.2197,0.53033v7c0,0.3666 -0.2651,0.6795 -0.6267,0.7398l-2.2318,0.372l3.2461,5.2435c0.218,0.3522 0.1092,0.8145 -0.243,1.0325c-0.3522,0.218 -0.8144,0.1093 -1.0324,-0.2429l-0.5542,-0.8952h-10.61632l-0.55411,0.8952c-0.21802,0.3522 -0.68027,0.4609 -1.03247,0.2429c-0.35219,-0.218 -0.46096,-0.6803 -0.24294,-1.0325l3.246,-5.2436l-2.23147,-0.3719c-0.36164,-0.0603 -0.6267,-0.3732 -0.6267,-0.7398v-7c0,-0.19891 0.07902,-0.38968 0.21967,-0.53033l0.78033,-0.78033v-3.18934c0,-0.35751 0.25235,-0.66532 0.60291,-0.73544l3.4161,-0.68322c0.0766,-0.333 0.3748,-0.58134 0.731,-0.58134h2c0.3562,0 0.6544,0.24834 0.731,0.58134l3.4161,0.68322c0.3505,0.07012 0.6029,0.37793 0.6029,0.73544zM14.2923,17.1283l-2.169,0.3615c-0.0816,0.0136 -0.165,0.0136 -0.2466,0l-2.16938,-0.3616l-0.53949,0.8715h5.66397zM7.74999,4.86485v2.2203l3.50001,-0.7v-2.2203zM6.74999,15.1147l5.25001,0.875l5.25,-0.875v-6.05404l-0.3133,-0.31326c-0.0278,-0.00239 -0.0558,-0.00636 -0.0838,-0.01196l-4.8529,-0.97059l-4.85292,0.97059c-0.02803,0.0056 -0.056,0.00956 -0.08382,0.01195l-0.31327,0.31327zM12.75,4.16485v2.2203l3.5,0.7v-2.2203zM8.24999,13c0.55229,0 1,0.4477 1,1c0,0.5523 -0.44771,1 -1,1c-0.55228,0 -1,-0.4477 -1,-1c0,-0.5523 0.44772,-1 1,-1zM12.75,11.5c0,-0.4142 -0.3358,-0.75 -0.75,-0.75c-0.4142,0 -0.75,0.3358 -0.75,0.75c0,0.4142 0.3358,0.75 0.75,0.75c0.4142,0 0.75,-0.3358 0.75,-0.75zM12,9.25c1.2426,0 2.25,1.0074 2.25,2.25c0,1.2426 -1.0074,2.25 -2.25,2.25c-1.2426,0 -2.25001,-1.0074 -2.25001,-2.25c0,-1.2426 1.00741,-2.25 2.25001,-2.25zM15.75,13c0.5523,0 1,0.4477 1,1c0,0.5523 -0.4477,1 -1,1c-0.5523,0 -1,-0.4477 -1,-1c0,-0.5523 0.4477,-1 1,-1zM15.7604,19.4997h-7.52113l-0.61903,1h8.75916z" fill="#002B51"/>
</svg>
