<svg width="24" height="24" viewBox="0 0 24 24" fill="none" xmlns="http://www.w3.org/2000/svg">
<path fill-rule="evenodd" clip-rule="evenodd" d="M9.25,2.75c0,-0.41421 0.33579,-0.75 0.75,-0.75h4c0.4142,0 0.75,0.33579 0.75,0.75v1.5h1.375c3.1066,0 5.625,2.5184 5.625,5.625c0,1.6298 -0.6931,3.0977 -1.8007,4.125h1.0507c0.4142,0 0.75,0.3358 0.75,0.75c0,0.4142 -0.3358,0.75 -0.75,0.75h-2.2637c0.009,0.0821 0.0137,0.1655 0.0137,0.25c0,1.2426 -1.0074,2.25 -2.25,2.25c-1.2426,0 -2.25,-1.0074 -2.25,-2.25c0,-0.0845 0.0047,-0.1679 0.0137,-0.25h-4.52743c0.00907,0.0821 0.01373,0.1655 0.01373,0.25c0,1.2426 -1.00736,2.25 -2.25,2.25c-1.24264,0 -2.25,-1.0074 -2.25,-2.25c0,-0.0845 0.00466,-0.1679 0.01373,-0.25h-2.26373c-0.41421,0 -0.75,-0.3358 -0.75,-0.75c0,-0.4142 0.33579,-0.75 0.75,-0.75h1.0507c-1.10757,-1.0273 -1.8007,-2.4952 -1.8007,-4.125c0,-3.1066 2.5184,-5.625 5.625,-5.625h1.375zM6.79268,15.5c-0.02764,0.0782 -0.04268,0.1623 -0.04268,0.25c0,0.4142 0.33579,0.75 0.75,0.75c0.41421,0 0.75,-0.3358 0.75,-0.75c0,-0.0877 -0.01504,-0.1718 -0.04268,-0.25h-0.33232zM15.7927,15.5c-0.0277,0.0782 -0.0427,0.1623 -0.0427,0.25c0,0.4142 0.3358,0.75 0.75,0.75c0.4142,0 0.75,-0.3358 0.75,-0.75c0,-0.0877 -0.015,-0.1718 -0.0427,-0.25h-1.0823zM7.5,18h9h5.5c0.4142,0 0.75,0.3358 0.75,0.75c0,0.4142 -0.3358,0.75 -0.75,0.75h-20c-0.41421,0 -0.75,-0.3358 -0.75,-0.75c0,-0.4142 0.33579,-0.75 0.75,-0.75zM10.75,3.5v0.75h2.5v-0.75zM3.75,9.875c0,2.2782 1.84683,4.125 4.125,4.125h8.25c2.2782,0 4.125,-1.8468 4.125,-4.125c0,-2.27817 -1.8468,-4.125 -4.125,-4.125h-2.125h-4h-2.125c-2.27817,0 -4.125,1.84683 -4.125,4.125z" fill="#002B51"/>
</svg>
