<svg width="24" height="24" viewBox="0 0 24 24" fill="none" xmlns="http://www.w3.org/2000/svg">
<path fill-rule="evenodd" clip-rule="evenodd" d="M20.75 5C20.75 4.58579 20.4142 4.25 20 4.25H4C3.58579 4.25 3.25 4.58579 3.25 5V14H3C2.58579 14 2.25 14.3358 2.25 14.75C2.25 15.1642 2.58579 15.5 3 15.5H4H5.26373C5.25466 15.5821 5.25 15.6655 5.25 15.75C5.25 16.9926 6.25736 18 7.5 18H2C1.58579 18 1.25 18.3358 1.25 18.75C1.25 19.1642 1.58579 19.5 2 19.5H22C22.4142 19.5 22.75 19.1642 22.75 18.75C22.75 18.3358 22.4142 18 22 18H16.5C17.7426 18 18.75 16.9926 18.75 15.75C18.75 15.6655 18.7453 15.5821 18.7363 15.5H20H21C21.4142 15.5 21.75 15.1642 21.75 14.75C21.75 14.3358 21.4142 14 21 14H20.75V5ZM17.2073 15.5C17.235 15.5782 17.25 15.6623 17.25 15.75C17.25 16.1642 16.9142 16.5 16.5 16.5C16.0858 16.5 15.75 16.1642 15.75 15.75C15.75 15.6623 15.765 15.5782 15.7927 15.5H17.2073ZM14.2637 15.5C14.2547 15.5821 14.25 15.6655 14.25 15.75C14.25 16.9926 15.2574 18 16.5 18H7.5C8.74264 18 9.75 16.9926 9.75 15.75C9.75 15.6655 9.74534 15.5821 9.73627 15.5H14.2637ZM8.20732 15.5C8.23496 15.5782 8.25 15.6623 8.25 15.75C8.25 16.1642 7.91421 16.5 7.5 16.5C7.08579 16.5 6.75 16.1642 6.75 15.75C6.75 15.6623 6.76504 15.5782 6.79268 15.5H8.20732ZM19.25 14H4.75V5.75H19.25V14ZM7.5 6.5C7.91421 6.5 8.25 6.83579 8.25 7.25V12.25C8.25 12.6642 7.91421 13 7.5 13C7.08579 13 6.75 12.6642 6.75 12.25V7.25C6.75 6.83579 7.08579 6.5 7.5 6.5ZM10.5 6.5C10.9142 6.5 11.25 6.83579 11.25 7.25V12.25C11.25 12.6642 10.9142 13 10.5 13C10.0858 13 9.75 12.6642 9.75 12.25V7.25C9.75 6.83579 10.0858 6.5 10.5 6.5ZM14.25 7.25C14.25 6.83579 13.9142 6.5 13.5 6.5C13.0858 6.5 12.75 6.83579 12.75 7.25V12.25C12.75 12.6642 13.0858 13 13.5 13C13.9142 13 14.25 12.6642 14.25 12.25V7.25ZM16.5 6.5C16.9142 6.5 17.25 6.83579 17.25 7.25V12.25C17.25 12.6642 16.9142 13 16.5 13C16.0858 13 15.75 12.6642 15.75 12.25V7.25C15.75 6.83579 16.0858 6.5 16.5 6.5Z" fill="#002B51"/>
</svg>
