<svg width="24" height="24" viewBox="0 0 24 24" fill="none" xmlns="http://www.w3.org/2000/svg">
<path fill-rule="evenodd" clip-rule="evenodd" d="M13,2.25l0.0771,0.00391c0.3215,0.03285 0.5829,0.26878 0.6538,0.57744l3.4165,0.6833l0.126,0.03711c0.2833,0.11074 0.4766,0.38537 0.4766,0.69824v3.18945l0.7803,0.78028c0.1406,0.14065 0.2197,0.33136 0.2197,0.53027v7c0,0.3666 -0.2653,0.68 -0.627,0.7402l-2.2314,0.3719l3.2458,5.2434l0.0372,0.0673c0.1662,0.3418 0.0498,0.7606 -0.2803,0.9649c-0.3301,0.2042 -0.7566,0.1215 -0.9883,-0.1797l-0.0439,-0.0635l-0.554,-0.8949h-10.61673l-0.55398,0.8949c-0.21801,0.3522 -0.68004,0.4612 -1.03223,0.2432c-0.35212,-0.218 -0.461,-0.6801 -0.24316,-1.0322l3.24591,-5.2434l-2.23097,-0.3719c-0.36164,-0.0602 -0.62695,-0.3736 -0.62695,-0.7402v-7c0,-0.19891 0.07907,-0.38962 0.21972,-0.53027l0.78028,-0.78028v-3.18945l0.01172,-0.13184c0.05323,-0.29903 0.28442,-0.54207 0.59082,-0.60351l3.41647,-0.6833c0.0765,-0.333 0.3748,-0.58135 0.731,-0.58135zM9.70681,17.1285l-0.53925,0.8711h5.66434l-0.5392,-0.871l-2.1697,0.3616c-0.0407,0.0068 -0.0819,0.0098 -0.123,0.0098l-0.1231,-0.0098zM7.74999,4.86426v2.22082l3.50001,-0.70031v-2.22019zM12.75,4.16458v2.22019l3.5,0.70031v-2.22082zM9.24999,14c0,-0.5523 -0.44772,-1 -1,-1c-0.55229,0 -1,0.4477 -1,1c0,0.5523 0.44771,1 1,1c0.55228,0 1,-0.4477 1,-1zM11.25,11.25c0,-0.4142 0.3358,-0.75 0.75,-0.75c0.4142,0 0.75,0.3358 0.75,0.75c0,0.4142 -0.3358,0.75 -0.75,0.75c-0.4142,0 -0.75,-0.3358 -0.75,-0.75zM9.74999,11.25c0,1.2426 1.00731,2.25 2.25001,2.25c1.2426,0 2.25,-1.0074 2.25,-2.25c0,-1.2426 -1.0074,-2.25 -2.25,-2.25c-1.2427,0 -2.25001,1.0074 -2.25001,2.25zM16.75,14c0,-0.5523 -0.4477,-1 -1,-1c-0.5523,0 -1,0.4477 -1,1c0,0.5523 0.4477,1 1,1c0.5523,0 1,-0.4477 1,-1zM8.23899,19.4996l-0.61904,1h8.75955l-0.619,-1z" fill="#002B51"/>
</svg>
