<svg width="24" height="24" viewBox="0 0 24 24" fill="none" xmlns="http://www.w3.org/2000/svg">
<path fill-rule="evenodd" clip-rule="evenodd" d="M10.5001 2.25C10.0858 2.25 9.75006 2.58579 9.75006 3C9.75006 3.06232 9.75766 3.12287 9.77199 3.18077L5.92708 3.94975C5.58125 4.01892 5.33033 4.31968 5.32427 4.67231L5.25395 8.76708L4.37602 10.084C4.29389 10.2072 4.25006 10.3519 4.25006 10.5V18C4.25006 18.3537 4.49711 18.6593 4.84291 18.7334L7.40973 19.2834L5.876 21.584C5.64623 21.9286 5.73936 22.3943 6.08401 22.624C6.42866 22.8538 6.89431 22.7607 7.12407 22.416L8.98716 19.6214L11.8429 20.2334C11.9465 20.2555 12.0536 20.2555 12.1572 20.2334L15.0129 19.6214L16.876 22.416C17.1058 22.7607 17.5714 22.8538 17.9161 22.624C18.2607 22.3943 18.3538 21.9286 18.1241 21.584L16.5903 19.2834L19.1572 18.7334C19.503 18.6593 19.7501 18.3537 19.7501 18V10.5C19.7501 10.3519 19.7062 10.2072 19.6241 10.084L18.7462 8.76709L18.6759 4.67232C18.6699 4.31969 18.4189 4.01892 18.0731 3.94975L14.2281 3.18076C14.2425 3.12286 14.2501 3.06232 14.2501 3C14.2501 2.58579 13.9143 2.25 13.5001 2.25H10.5001ZM11.2501 4.41485L6.81368 5.30213L6.76674 8.03525L11.2501 6.91442L11.2501 4.41485ZM6.46326 9.65729L5.75006 10.7271V17.3937L12.0001 18.733L18.2501 17.3937V10.7271L17.5369 9.65729L12.0001 8.27309L6.46326 9.65729ZM17.2334 8.03525L17.1865 5.30213L12.7501 4.41485L12.7501 6.91442L17.2334 8.03525ZM9.00006 15.75C9.00006 15.0596 8.44042 14.5 7.75006 14.5C7.05971 14.5 6.50006 15.0596 6.50006 15.75C6.50006 16.4404 7.05971 17 7.75006 17C8.44042 17 9.00006 16.4404 9.00006 15.75ZM10.7501 12.5C10.7501 13.1904 11.3097 13.75 12.0001 13.75C12.6904 13.75 13.2501 13.1904 13.2501 12.5C13.2501 11.8096 12.6904 11.25 12.0001 11.25C11.3097 11.25 10.7501 11.8096 10.7501 12.5ZM12.0001 15.25C10.4813 15.25 9.25006 14.0188 9.25006 12.5C9.25006 10.9812 10.4813 9.75 12.0001 9.75C13.5188 9.75 14.7501 10.9812 14.7501 12.5C14.7501 14.0188 13.5188 15.25 12.0001 15.25ZM17.5001 15.75C17.5001 15.0596 16.9404 14.5 16.2501 14.5C15.5597 14.5 15.0001 15.0596 15.0001 15.75C15.0001 16.4404 15.5597 17 16.2501 17C16.9404 17 17.5001 16.4404 17.5001 15.75Z" fill="#002B51"/>
</svg>
