<svg width="24" height="24" viewBox="0 0 24 24" fill="none" xmlns="http://www.w3.org/2000/svg">
<path fill-rule="evenodd" clip-rule="evenodd" d="M13.5001,2.25c0.4142,0 0.75,0.33579 0.75,0.75c0,0.06232 -0.0076,0.12286 -0.022,0.18076l3.845,0.76899c0.3458,0.06917 0.5968,0.36994 0.6028,0.72257l0.0703,4.09477l0.8779,1.31691c0.0821,0.1232 0.126,0.2679 0.126,0.416v7.5c0,0.3537 -0.2471,0.6593 -0.5929,0.7334l-2.5669,0.55l1.5338,2.3006c0.2297,0.3446 0.1366,0.8103 -0.208,1.04c-0.3447,0.2298 -0.8103,0.1367 -1.0401,-0.208l-1.8631,-2.7946l-2.8557,0.612c-0.1036,0.0221 -0.2107,0.0221 -0.3143,0l-2.85574,-0.612l-1.86309,2.7946c-0.22976,0.3447 -0.69541,0.4378 -1.04006,0.208c-0.34465,-0.2297 -0.43778,-0.6954 -0.20801,-1.04l1.53373,-2.3006l-2.56682,-0.55c-0.3458,-0.0741 -0.59285,-0.3797 -0.59285,-0.7334v-7.5c0,-0.1481 0.04383,-0.2928 0.12596,-0.416l0.87793,-1.31692l0.07032,-4.09477c0.00606,-0.35263 0.25698,-0.65339 0.60281,-0.72256l3.84491,-0.76898c-0.01433,-0.0579 -0.02193,-0.11845 -0.02193,-0.18077c0,-0.41421 0.33574,-0.75 0.75004,-0.75zM11.2501,4.41485l-4.43642,0.88728l-0.04694,2.73312l4.48336,-1.12083zM6.46326,9.65729l-0.7132,1.06981v6.6666l6.25004,1.3393l6.25,-1.3393v-6.6666l-0.7132,-1.06981l-5.5368,-1.3842zM17.2334,8.03525l-0.0469,-2.73312l-4.4364,-0.88728v2.49957zM7.75006,17c-0.69035,0 -1.25,-0.5596 -1.25,-1.25c0,-0.6904 0.55965,-1.25 1.25,-1.25c0.69036,0 1.25,0.5596 1.25,1.25c0,0.6904 -0.55964,1.25 -1.25,1.25zM10.7501,12.5c0,0.6904 0.5596,1.25 1.25,1.25c0.6903,0 1.25,-0.5596 1.25,-1.25c0,-0.6904 -0.5597,-1.25 -1.25,-1.25c-0.6904,0 -1.25,0.5596 -1.25,1.25zM12.0001,15.25c-1.5188,0 -2.75004,-1.2312 -2.75004,-2.75c0,-1.5188 1.23124,-2.75 2.75004,-2.75c1.5187,0 2.75,1.2312 2.75,2.75c0,1.5188 -1.2313,2.75 -2.75,2.75zM16.2501,17c-0.6904,0 -1.25,-0.5596 -1.25,-1.25c0,-0.6904 0.5596,-1.25 1.25,-1.25c0.6903,0 1.25,0.5596 1.25,1.25c0,0.6904 -0.5597,1.25 -1.25,1.25z" fill="#002B51"/>
</svg>
