<svg width="24" height="24" viewBox="0 0 24 24" fill="none" xmlns="http://www.w3.org/2000/svg">
<path fill-rule="evenodd" clip-rule="evenodd" d="M17.2499,6.75h-4.4999v2.98535c1.034,-0.03504 2.1643,-0.13196 3.1094,-0.23144c0.5504,-0.05795 1.0333,-0.11591 1.3905,-0.1611zM11.25,6.75h-4.50005v2.59279c0.35723,0.04519 0.84016,0.10316 1.39069,0.16112c0.94505,0.09948 2.07546,0.1964 3.10936,0.23144zM12.3457,3.75586l-0.3457,-0.00586c-1.9209,0 -3.26493,0.36228 -4.10259,0.88574c-0.29864,0.18664 -0.53312,0.39278 -0.71012,0.61426h4.81271h4.613c-0.1483,-0.14929 -0.3263,-0.29892 -0.5379,-0.44434c-0.7994,-0.54956 -2.0313,-0.99611 -3.7294,-1.0498zM12,11.25c-1.2899,0 -2.821,-0.1282 -4.01561,-0.2539c-0.47161,-0.0496 -0.89464,-0.0993 -1.23444,-0.1413v4.4704l0.01092,0.0054h0.00001h0.00003c0.02771,0.0137 0.06088,0.0302 0.10135,0.0454c0.28141,0.1058 0.72709,0.1921 1.30957,0.2529c1.15147,0.1201 2.60957,0.1211 3.82817,0.1211c1.2185,0 2.6766,-0.001 3.8281,-0.1211c0.5824,-0.0608 1.0281,-0.1471 1.3095,-0.2529c0.0405,-0.0153 0.0737,-0.0317 0.1014,-0.0454l0.011,-0.0054l-0.0001,-4.4704c-0.3398,0.042 -0.7627,0.0917 -1.2343,0.1413c-1.1946,0.1257 -2.7256,0.2539 -4.0156,0.2539zM17.666,16.7803c-0.4499,0.1691 -1.0256,0.2694 -1.6181,0.3339l3.0898,4.9912c0.2179,0.3521 0.1089,0.8142 -0.2432,1.0322c-0.3521,0.2179 -0.8142,0.109 -1.0322,-0.2431l-0.5537,-0.8946h-10.6172l-0.55371,0.8946c-0.21801,0.3521 -0.68005,0.4611 -1.03223,0.2431c-0.3521,-0.2179 -0.461,-0.68 -0.24316,-1.0322l3.08978,-4.9912c-0.59255,-0.0645 -1.16831,-0.1648 -1.61814,-0.3339c-0.23207,-0.0873 -0.48318,-0.212 -0.68653,-0.4014c-0.21798,-0.203 -0.39739,-0.5002 -0.39746,-0.8789v-9c0,-1.29068 0.66206,-2.3917 1.85254,-3.13574c1.16235,-0.72639 2.8184,-1.11426 4.89751,-1.11426c2.1222,0.00001 3.7775,0.53067 4.9248,1.31934c1.1276,0.77516 1.8252,1.85398 1.8252,2.93066l-0.0001,3.6582l0.0001,5.3418c-0.0001,0.3787 -0.1795,0.6758 -0.3975,0.8789c-0.2034,0.1894 -0.4545,0.3141 -0.6865,0.4014zM12.0255,17.25h-0.0001v0h-0.0254h-0.0255v0h-0.0001c-0.7018,0 -1.5198,0 -2.3261,-0.0262l-0.48034,0.7761h5.66404l-0.4803,-0.7761c-0.8063,0.0262 -1.6244,0.0262 -2.3262,0.0262zM8.49993,13.25c0.55229,0 1,0.4477 1,1c0,0.5523 -0.44771,1 -1,1c-0.55228,0 -1,-0.4477 -1,-1c0,-0.5523 0.44772,-1 1,-1zM15.4999,15.25c-0.5523,0 -1,-0.4477 -1,-1c0,-0.5523 0.4477,-1 1,-1c0.5523,0 1,0.4477 1,1c0,0.5523 -0.4477,1 -1,1zM8.23925,19.4999l-0.61914,1h8.75979l-0.6192,-1z" fill="#002B51"/>
</svg>
