<svg width="24" height="24" viewBox="0 0 24 24" fill="none" xmlns="http://www.w3.org/2000/svg">
<path fill-rule="evenodd" clip-rule="evenodd" d="M17.75,4.25v3.18934l0.7803,0.78033c0.1407,0.14065 0.2197,0.33142 0.2197,0.53033v7c0,0.3666 -0.2651,0.6795 -0.6267,0.7398l-2.2318,0.372l3.2461,5.2435c0.218,0.3522 0.1092,0.8145 -0.243,1.0325c-0.3522,0.218 -0.8144,0.1093 -1.0324,-0.2429l-0.5542,-0.8952h-10.61632l-0.55412,0.8952c-0.21802,0.3522 -0.68027,0.4609 -1.03246,0.2429c-0.35219,-0.218 -0.46096,-0.6803 -0.24294,-1.0325l3.246,-5.2436l-2.23147,-0.3719c-0.36164,-0.0603 -0.6267,-0.3732 -0.6267,-0.7398v-7c0,-0.19891 0.07901,-0.38968 0.21967,-0.53033l0.78033,-0.78033v-3.18934c0,-0.35751 0.25234,-0.66532 0.60291,-0.73544l3.4161,-0.68322c0.0765,-0.333 0.3748,-0.58134 0.731,-0.58134h2c0.3562,0 0.6544,0.24834 0.7309,0.58134l3.4162,0.68322c0.3505,0.07012 0.6029,0.37793 0.6029,0.73544zM14.2923,17.1283l-2.169,0.3615c-0.0817,0.0136 -0.165,0.0136 -0.2466,0l-2.16939,-0.3616l-0.53949,0.8715h5.66398zM7.74999,4.86485v2.2203l3.50001,-0.7v-2.2203zM12.75,4.16485v2.2203l3.5,0.7v-2.2203zM9.24999,14c0,-0.5523 -0.44772,-1 -1,-1c-0.55229,0 -1,0.4477 -1,1c0,0.5523 0.44771,1 1,1c0.55228,0 1,-0.4477 1,-1zM12,10.5c0.4142,0 0.75,0.3358 0.75,0.75c0,0.4142 -0.3358,0.75 -0.75,0.75c-0.4142,0 -0.75,-0.3358 -0.75,-0.75c0,-0.4142 0.3358,-0.75 0.75,-0.75zM14.25,11.25c0,-1.2426 -1.0074,-2.25 -2.25,-2.25c-1.2427,0 -2.25001,1.0074 -2.25001,2.25c0,1.2426 1.00731,2.25 2.25001,2.25c1.2426,0 2.25,-1.0074 2.25,-2.25zM16.75,14c0,-0.5523 -0.4477,-1 -1,-1c-0.5523,0 -1,0.4477 -1,1c0,0.5523 0.4477,1 1,1c0.5523,0 1,-0.4477 1,-1zM15.7604,19.4997h-7.52113l-0.61904,1h8.75917z" fill="#002B51"/>
</svg>
