<svg width="24" height="24" viewBox="0 0 24 24" fill="none" xmlns="http://www.w3.org/2000/svg">
<path fill-rule="evenodd" clip-rule="evenodd" d="M16.6129,5.25c-0.1483,-0.14929 -0.3263,-0.29892 -0.5378,-0.44434c-0.7994,-0.54956 -2.0313,-0.99611 -3.7295,-1.0498l-0.3457,-0.00586c-1.9209,0 -3.26488,0.36228 -4.10254,0.88574c-0.29865,0.18664 -0.53312,0.39278 -0.71013,0.61426h4.81277zM17.2499,6.75h-4.4999v2.98535c1.0339,-0.03504 2.1643,-0.13197 3.1093,-0.23144c0.5505,-0.05795 1.0334,-0.11591 1.3906,-0.1611zM11.25,6.75h-4.5001v2.59279c0.35723,0.04519 0.84016,0.10316 1.39068,0.16112c0.94505,0.09947 2.07542,0.1964 3.10942,0.23144zM18.7499,15.5l-0.0078,0.1377c-0.0373,0.3135 -0.1988,0.5634 -0.3897,0.7412c-0.2033,0.1894 -0.4544,0.3141 -0.6865,0.4014c-0.4499,0.1692 -1.0257,0.2695 -1.6183,0.3339l3.0898,4.9913l0.0372,0.0674c0.1662,0.3417 0.0498,0.7605 -0.2803,0.9648c-0.3301,0.2042 -0.7566,0.1215 -0.9883,-0.1797l-0.0439,-0.0634l-0.554,-0.8949h-10.61673l-0.55398,0.8949c-0.21801,0.3521 -0.68004,0.4611 -1.03223,0.2431c-0.35212,-0.2179 -0.461,-0.68 -0.24316,-1.0322l3.08985,-4.9913c-0.59249,-0.0645 -1.16817,-0.1648 -1.61797,-0.3339c-0.23206,-0.0873 -0.48318,-0.212 -0.68652,-0.4014c-0.21799,-0.2031 -0.3974,-0.5002 -0.39746,-0.8789v-9c0,-1.29068 0.66205,-2.3917 1.85254,-3.13574c1.16234,-0.72639 2.81839,-1.11426 4.89746,-1.11426l0.3926,0.00586c1.9346,0.06121 3.4566,0.57412 4.5322,1.31348c1.1276,0.77516 1.8252,1.85398 1.8252,2.93066v3.6582zM12.0253,17.25h-0.0254h-0.0255v0v0h-0.0001c-0.7018,0 -1.52,0 -2.32641,-0.0262l-0.48033,0.7759h5.66434l-0.4803,-0.7759c-0.8063,0.0262 -1.6244,0.0262 -2.3262,0.0262v0v0zM16.3795,20.4997l-0.619,-1h-7.52151l-0.61904,1zM9.49988,14.25c0,-0.5523 -0.44772,-1 -1,-1c-0.55229,0 -1,0.4477 -1,1c0,0.5523 0.44771,1 1,1c0.55228,0 1,-0.4477 1,-1zM14.4999,14.25c0,0.5523 0.4477,1 1,1c0.5523,0 1,-0.4477 1,-1c0,-0.5523 -0.4477,-1 -1,-1c-0.5523,0 -1,0.4477 -1,1z" fill="#002B51"/>
</svg>
