<svg width="24" height="24" viewBox="0 0 24 24" fill="none" xmlns="http://www.w3.org/2000/svg">
<path fill-rule="evenodd" clip-rule="evenodd" d="M12,3.75c-2.41232,0 -3.99931,0.48426 -4.95898,1.12404c-0.40432,0.26955 -0.69972,0.56698 -0.90508,0.87595h11.72816c-0.2054,-0.30897 -0.5008,-0.6064 -0.9051,-0.87595c-0.9597,-0.63978 -2.5467,-1.12404 -4.959,-1.12404zM12.75,7.25566v0.0088v0.00885v0.00889v0.00894v0.00897v0.00902v0.00906v0.00911v0.00914v0.00919v0.00923v0.00928v0.00931v0.00936v0.00939v0.00944v0.00948v0.00952v0.00956v0.0096v0.00965v0.00968v0.00972v0.00976v0.00981v0.00984v0.00988v0.00992v0.00996v0.01v0.01004v0.01008v0.01012v0.01016v0.01019v0.01023v0.01027v0.01031v0.01035v0.01039v0.01042v0.01046v0.0105v0.01053v0.01058v0.01061v0.01064v0.01069v0.01072v0.01075v0.0108v0.01082v0.01087v0.0109v0.01094v0.01097v0.01101v0.01104v0.01108v0.01111v0.01115v0.01118v0.01122v0.01125v0.01129v0.01132v0.01136v0.01138v0.01143v0.01145v0.01149v0.01153v0.01155v0.01159v0.01163v0.01165v0.01169v0.01172v0.01175v0.01179v0.01182v0.01185v0.01188v0.01191v0.01194v0.01198v0.01201v0.01204v0.01207v0.0121v0.01213v0.01216v0.01219v0.01222v0.01226v0.01228v0.01231v0.01235v0.01237v0.0124v0.01243v0.01246v0.01249v0.01252v0.01255v0.01257v0.01261v0.01263v0.01266v0.01269v0.01271v0.01275v0.01277v0.0128v0.01283v0.01285v0.01288v0.01291v0.01294v0.01296v0.01299v0.01301v0.01304v0.01307v0.01309v0.01312v0.01315v0.01317v0.01319v0.01323v0.01324v0.01327v0.0133v0.01332v0.01335v0.01337v0.01339v0.01342v0.01344v0.01347v0.01349v0.01351v0.01354v0.01356v0.01358v0.01361v0.01363v0.01365v0.01368v0.0137v0.01372v0.01374v0.01376v0.01379v0.01381v0.01383v0.01385v0.01387v0.0139v0.01391v0.01394v0.01395v0.01398v0.014v0.01402v0.01404v0.01405v0.01408v0.0141v0.01412v0.01414v0.01416v0.01417v0.0142v0.01421v0.01424v0.01425v0.01427v0.01429v0.01431v0.01432v0.01435v0.01436v0.01438v0.0144v0.01441v0.01443v0.01445v0.01447v0.01448v0.0145v0.01452v0.01453v0.01455v0.01457v0.01458v0.0146v0.01461v0.01463v0.01464v0.01466v0.01468v0.01469v0.0147v0.01472v0.01474v0.01475v0.01476v0.01478v0.01479v0.01481v0.01482v0.01483v0.01485v0.01486v0.01487v0.01489v0.0149v0.01491v0.01493v0.0149v0.015v0.0149v0.015v0.015v0.015v0.015v0.015v0.0151v0.015v0.0151v0.015v0.0151v0.0151v0.0151v0.0151v0.0151v0.0152v0.0151v0.0152v0.0151v0.0152v0.0152v0.0152v0.0152v0.0152v0.0152v0.0152v0.0152v0.0153v0.0152v0.0153v0.0153v0.0152v0.0153v0.0153v0.0153v0.0153v0.0153v0.0154v0.0153v0.0153v0.0154v0.0153v0.0154v0.0153v0.0154v0.0153v0.0154v0.0154v0.0154v0.0154v0.0154v0.0154v0.0154v0.0154v0.0154v0.0155v0.0154v0.0154v0.0155v0.0154v0.0155v0.0154v0.0155v0.0154v0.0155v0.0154v0.0155v0.0155v0.0154v0.0155v0.0155v0.0155v0.0155v0.0154v0.0155v0.0155v0.0155v0.0155v0.0155v0.0155v0.0019c1.6567,-0.0259 3.1031,-0.1331 4.1754,-0.2404c0.5469,-0.0547 0.9958,-0.1093 1.3246,-0.1529v-0.0063v-0.0173v-0.0173v-0.0173v-0.0174v-0.0174v-0.0175v-0.0174v-0.0175v-0.0176v-0.0176v-0.0176v-0.0177v-0.0176v-0.0178v-0.0177v-0.0178v-0.0179v-0.0178v-0.0179v-0.018v-0.018v-0.018v-0.0181v-0.0181v-0.0181v-0.0182v-0.0182v-0.0182v-0.0183v-0.0183v-0.0184v-0.0184v-0.0185v-0.0184v-0.0186v-0.0185v-0.0186v-0.0187v-0.0187v-0.0187v-0.0188v-0.0188v-0.0189v-0.0189v-0.0189v-0.019v-0.01901v-0.01907v-0.01911v-0.01915v-0.0192v-0.01924v-0.01929v-0.01933v-0.01937v-0.01942v-0.01946v-0.01951v-0.01956v-0.0196v-0.01964v-0.01969v-0.01974v-0.01978v-0.01983v-0.01987v-0.01992v-0.01997v-0.02002v-0.02006v-0.02011v-0.02016v-0.02021v-0.02026v-0.0203v-0.02035v-0.0204v-0.02045v-0.0205v-0.02055v-0.0206v-0.02065v-0.0207v-0.02075v-0.0208v-0.02084v-0.02091v-0.02095v-0.021v-0.02106v-0.0211v-0.02116v-0.02121v-0.02126v-0.02132v-0.02137v-0.02142v-0.02147v-0.02153v-0.02158v-0.02164v-0.02169v-0.02174v-0.0218v-0.02185v-0.02191v-0.02196v-0.02201v-0.02208v-0.02213v-0.02218v-0.02224v-0.0223v-0.02235v-0.02241v-0.02246v-0.02253v-0.02258v-0.02264v-0.02269v-0.02276v-0.02281v-0.02287v-0.02293v-0.02298v-0.02305v-0.02311v-0.02316v-0.02322v-0.02329v-0.02334v-0.02341v-0.02346v-0.02353v-0.02358v-0.02365v-0.02371v-0.02377v-0.02383v-0.02389v-0.02395v-0.02402v-0.02408v-0.02414v-0.02421v-0.02427v-0.02433v-0.02439v-0.02446v-0.02452v-0.02459v-0.02465v-0.02471v-0.02478v-0.02485v-0.02491v-0.02497v-0.02504v-0.02511v-0.02517v-0.02524v-0.0253v-0.02537v-0.02544v-0.02551v-0.02557v-0.02564v-0.0257v-0.02578v-0.02584v-0.01222h-5.5zM5.74999,7.24999v3.60081c0.32882,0.0436 0.77766,0.0982 1.32463,0.1529c1.07224,0.1073 2.51865,0.2145 4.17538,0.2404v-0.0019v-0.0155v-0.0155v-0.0155v-0.0155v-0.0155v-0.0155v-0.0154v-0.0155v-0.0155v-0.0155v-0.0155v-0.0154v-0.0155v-0.0155v-0.0154v-0.0155v-0.0154v-0.0155v-0.0154v-0.0155v-0.0154v-0.0155v-0.0154v-0.0154v-0.0155v-0.0154v-0.0154v-0.0154v-0.0154v-0.0154v-0.0154v-0.0154v-0.0154v-0.0154v-0.0153v-0.0154v-0.0153v-0.0154v-0.0153v-0.0154v-0.0153v-0.0153v-0.0154v-0.0153v-0.0153v-0.0153v-0.0153v-0.0153v-0.0152v-0.0153v-0.0153v-0.0152v-0.0153v-0.0152v-0.0152v-0.0152v-0.0152v-0.0152v-0.0152v-0.0152v-0.0152v-0.0151v-0.0152v-0.0151v-0.0152v-0.0151v-0.0151v-0.0151v-0.0151v-0.0151v-0.015v-0.0151v-0.015v-0.0151v-0.015v-0.015v-0.015v-0.015v-0.015v-0.0149v-0.015v-0.0149v-0.01493v-0.01491v-0.0149v-0.01489v-0.01487v-0.01486v-0.01485v-0.01483v-0.01482v-0.01481v-0.01479v-0.01478v-0.01476v-0.01475v-0.01474v-0.01472v-0.0147v-0.01469v-0.01468v-0.01466v-0.01464v-0.01463v-0.01461v-0.0146v-0.01458v-0.01457v-0.01455v-0.01453v-0.01452v-0.0145v-0.01448v-0.01447v-0.01445v-0.01443v-0.01441v-0.0144v-0.01438v-0.01436v-0.01435v-0.01432v-0.01431v-0.01429v-0.01427v-0.01425v-0.01424v-0.01421v-0.0142v-0.01417v-0.01416v-0.01414v-0.01412v-0.0141v-0.01408v-0.01405v-0.01404v-0.01402v-0.014v-0.01398v-0.01395v-0.01394v-0.01391v-0.0139v-0.01387v-0.01385v-0.01383v-0.01381v-0.01379v-0.01376v-0.01374v-0.01372v-0.0137v-0.01368v-0.01365v-0.01363v-0.01361v-0.01358v-0.01356v-0.01354v-0.01351v-0.01349v-0.01347v-0.01344v-0.01342v-0.01339v-0.01337v-0.01335v-0.01332v-0.0133v-0.01327v-0.01324v-0.01323v-0.01319v-0.01317v-0.01315v-0.01312v-0.01309v-0.01307v-0.01304v-0.01301v-0.01299v-0.01296v-0.01294v-0.01291v-0.01288v-0.01285v-0.01283v-0.0128v-0.01277v-0.01275v-0.01271v-0.01269v-0.01266v-0.01263v-0.01261v-0.01257v-0.01255v-0.01252v-0.01249v-0.01246v-0.01243v-0.0124v-0.01237v-0.01235v-0.01231v-0.01228v-0.01226v-0.01222v-0.01219v-0.01216v-0.01213v-0.0121v-0.01207v-0.01204v-0.01201v-0.01198v-0.01194v-0.01191v-0.01188v-0.01185v-0.01182v-0.01179v-0.01175v-0.01172v-0.01169v-0.01165v-0.01163v-0.01159v-0.01155v-0.01153v-0.01149v-0.01145v-0.01143v-0.01138v-0.01136v-0.01132v-0.01129v-0.01125v-0.01122v-0.01118v-0.01115v-0.01111v-0.01108v-0.01104v-0.01101v-0.01097v-0.01094v-0.0109v-0.01087v-0.01082v-0.0108v-0.01075v-0.01072v-0.01069v-0.01064v-0.01061v-0.01058v-0.01053v-0.0105v-0.01046v-0.01042v-0.01039v-0.01035v-0.01031v-0.01027v-0.01023v-0.01019v-0.01016v-0.01012v-0.01008v-0.01004v-0.01v-0.00996v-0.00992v-0.00988v-0.00984v-0.00981v-0.00976v-0.00972v-0.00968v-0.00965v-0.0096v-0.00956v-0.00952v-0.00948v-0.00944v-0.00939v-0.00936v-0.00931v-0.00928v-0.00923v-0.00919v-0.00914v-0.00911v-0.00906v-0.00902v-0.00897v-0.00894v-0.00889v-0.00885v-0.0088v-0.00567zM4.24999,11.4877v-4.4877c0,-1.27754 0.64864,-2.50047 1.95898,-3.37404c1.29033,-0.86022 3.20334,-1.37596 5.79103,-1.37596c2.5877,0 4.5007,0.51574 5.791,1.37596c1.3104,0.87357 1.959,2.0965 1.959,3.37404v0.02653v0.02647v0.02639v0.02632v0.02626v0.02618v0.02612v0.02605v0.02598v0.02591v0.02584v0.02578v0.0257v0.02564v0.02557v0.02551v0.02544v0.02537v0.0253v0.02524v0.02517v0.02511v0.02504v0.02497v0.02491v0.02485v0.02478v0.02471v0.02465v0.02459v0.02452v0.02446v0.02439v0.02433v0.02427v0.02421v0.02414v0.02408v0.02402v0.02395v0.02389v0.02383v0.02377v0.02371v0.02365v0.02358v0.02353v0.02346v0.02341v0.02334v0.02329v0.02322v0.02316v0.02311v0.02305v0.02298v0.02293v0.02287v0.02281v0.02276v0.02269v0.02264v0.02258v0.02253v0.02246v0.02241v0.02235v0.0223v0.02224v0.02218v0.02213v0.02208v0.02201v0.02196v0.02191v0.02185v0.0218v0.02174v0.02169v0.02164v0.02158v0.02153v0.02147v0.02142v0.02137v0.02132v0.02126v0.02121v0.02116v0.0211v0.02106v0.021v0.02095v0.02091v0.02084v0.0208v0.02075v0.0207v0.02065v0.0206v0.02055v0.0205v0.02045v0.0204v0.02035v0.0203v0.02026v0.02021v0.02016v0.02011v0.02006v0.02002v0.01997v0.01992v0.01987v0.01983v0.01978v0.01974v0.01969v0.01964v0.0196v0.01956v0.01951v0.01946v0.01942v0.01937v0.01933v0.01929v0.01924v0.0192v0.01915v0.01911v0.01907v0.01901v0.019v0.0189v0.0189v0.0189v0.0188v0.0188v0.0187v0.0187v0.0187v0.0186v0.0185v0.0186v0.0184v0.0185v0.0184v0.0184v0.0183v0.0183v0.0182v0.0182v0.0182v0.0181v0.0181v0.0181v0.018v0.018v0.018v0.0179v0.0178v0.0179v0.0178v0.0177v0.0178v0.0176v0.0177v0.0176v0.0176v0.0176v0.0175v0.0174v0.0175v0.0174v0.0174v0.0173v0.0173v0.0173v0.0173v0.0172v0.0171v0.0172v0.0171v0.0171v0.017v0.017v0.017v0.017v0.0169v0.0169v0.0168v0.0169v0.0168v0.0167v0.0168v0.0167v0.0167v0.0166v0.0167v0.0165v0.0166v0.0165v0.0166v0.0164v0.0165v0.0164v0.0164v0.0164v0.0163v0.0163v0.0163v0.0163v0.0162v0.0162v0.0162v0.0162v0.0094c0.0002,0.0088 0.0002,0.0176 0,0.0264v0.0125v0.0161v0.016v0.016v0.016v0.016v0.0159v0.0159v0.0159v0.0159v0.0158v0.0158v0.0158v0.0158v0.0158v0.0157v0.0157v0.0157v0.0157v0.0156v0.0156v0.0157v0.0155v0.0156v0.0156v0.0155v0.0155v0.0155v0.0154v0.0155v0.0154v0.0154v0.0154v0.0154v0.0154v0.0153v0.0153v0.0153v0.0153v0.0153v0.0152v0.0153v0.0152v0.0152v0.0152v0.0152v0.0151v0.0152v0.0151v0.0151v0.0151v0.0151v0.015v0.0151v0.015v0.0151v0.015v0.015v0.015v0.0149v0.015v0.015v0.0149v0.0149v0.0149v0.0149v0.0149v0.0149v0.0149v0.0148v0.0149v0.0148v0.0148v0.0149v0.0148v0.0148v0.0147v0.0148v0.0148v0.0148v0.0147v0.0148v0.0147v0.0147v0.0147v0.0148v0.0147v0.0147v0.0147v0.0146v0.0147v0.0147v0.0147v0.0146v0.0147v0.0146v0.0147v0.0146v0.0146v0.0147v0.0146v0.0146v0.0146v0.0147v0.0146v0.0146v0.0146v0.0146v0.0146v0.0146v0.0146v0.0146v0.0145v0.0146v0.0146v0.0146v0.0146v0.0146v0.0146v0.0145v0.0146v0.0146v0.0146v0.0146v0.0145v0.0146v0.0146v0.0146v0.0146v0.0146v0.0146v0.0145v0.0146v0.0146v0.0146v0.0146v0.0146v0.0147v0.0146v0.0146v0.0146v0.0146v0.0147v0.0146v0.0146v0.0147v0.0146v0.0147v0.0146v0.0147v0.0146v0.0147v0.0147v0.0147v0.0147v0.0147v0.0147v0.0147v0.0147v0.0148v0.0147v0.0148v0.0147v0.0148v0.0147v0.0148v0.0148v0.0148v0.0148v0.0148v0.0149v0.0148v0.0149v0.0148v0.0149v0.0149v0.0149v0.0149v0.0149v0.0149v0.015v0.0149v0.015v0.015v0.015v0.015v0.015v0.015v0.0151v0.015v0.0151v0.0151v0.0151v0.0151v0.0151v0.0152v0.0151v0.0152v0.0152v0.0152v0.0153v0.0152v0.0153v0.0152v0.0153v0.0153v0.0154v0.0153v0.0154v0.0154v0.0154v0.0154v0.0154v0.0155v0.0154v0.0155v0.0155v0.0156v0.0155v0.0156v0.0156v0.0156v0.0156v0.0157v0.0157v0.0157v0.0157v0.0157v0.0158v0.0158v0.0158v0.0158v0.0159v0.0158v0.0159v0.016v0.0159v0.016v0.016v0.016v0.016v0.0161v0.0161v0.0161v0.0162v0.0161v0.0162v0.0162v0.0163v0.0163v0.0163v0.0163v0.0163v0.0164v0.0164v0.0164v0.0165v0.0165v0.0165v0.0166v0.0165v0.0166v0.0167v0.0166v0.0167v0.0167v0.0168v0.0168v0.0168v0.0168v0.0169v0.0169v0.0169v0.017v0.017v0.017v0.0171v0.0171v0.0171v0.0171v0.0172v0.0172v0.0173v0.0173v0.0173v0.0174v0.0173v0.0175v0.0174v0.0175v0.0175v0.0176c0,0.7663 -0.0592,1.4643 -0.3146,2.039c-0.2806,0.6313 -0.7619,1.0407 -1.4221,1.2882c-0.3484,0.1307 -0.7517,0.2184 -1.2081,0.2785l1.3189,1.9783c0.2297,0.3446 0.1366,0.8103 -0.2081,1.04c-0.3446,0.2298 -0.8103,0.1367 -1.04,-0.208l-1.7941,-2.6912c-0.8497,0.0252 -1.8642,0.0252 -3.0615,0.0252h-0.0003h-0.0201h-0.0201h-0.0003c-1.1973,0 -2.21182,0 -3.06142,-0.0252l-1.79412,2.6912c-0.22977,0.3447 -0.69542,0.4378 -1.04006,0.208c-0.34465,-0.2297 -0.43778,-0.6954 -0.20802,-1.04l1.31886,-1.9783c-0.45645,-0.0601 -0.85971,-0.1478 -1.20819,-0.2785c-0.6602,-0.2475 -1.14141,-0.6569 -1.42201,-1.2882c-0.25543,-0.5747 -0.31465,-1.2727 -0.31465,-2.039v-4.4859c-0.00015,-0.0088 -0.00015,-0.0176 0,-0.0264zM6.75,16.25c0,0.6904 0.55964,1.25 1.25,1.25c0.69036,0 1.25,-0.5596 1.25,-1.25c0,-0.6904 -0.55964,-1.25 -1.25,-1.25c-0.69036,0 -1.25,0.5596 -1.25,1.25zM17.25,16.25c0,-0.6904 -0.5596,-1.25 -1.25,-1.25c-0.6904,0 -1.25,0.5596 -1.25,1.25c0,0.6904 0.5596,1.25 1.25,1.25c0.6904,0 1.25,-0.5596 1.25,-1.25z" fill="#002B51"/>
</svg>
