<svg width="24" height="24" viewBox="0 0 24 24" fill="none" xmlns="http://www.w3.org/2000/svg">
<path fill-rule="evenodd" clip-rule="evenodd" d="M12.75,11.2432c1.6567,-0.0259 3.1035,-0.1321 4.1758,-0.2393c0.5468,-0.0547 0.9955,-0.1095 1.3242,-0.1532v-3.60071h-5.5zM11.25,7.24999h-5.5v3.60071c0.32873,0.0437 0.77741,0.0985 1.32422,0.1532c1.07223,0.1072 2.51906,0.2134 4.17578,0.2393zM4.25,7c0,-1.27754 0.64864,-2.50046 1.95898,-3.37402c1.29033,-0.86023 3.20333,-1.37598 5.79102,-1.37598c2.5877,0 4.5007,0.51575 5.791,1.37598c1.3104,0.87356 1.959,2.09648 1.959,3.37402v4.4736c0.0007,0.0182 0.0007,0.0363 0,0.0542v4.4722c0,0.7663 -0.059,1.4643 -0.3145,2.0391c-0.2805,0.6312 -0.7618,1.0405 -1.4218,1.288c-0.3485,0.1307 -0.752,0.2184 -1.2086,0.2785l1.3189,1.9784c0.2298,0.3446 0.1367,0.8103 -0.208,1.04c-0.3446,0.2298 -0.8102,0.1367 -1.04,-0.208l-1.7941,-2.6912c-0.851,0.0252 -1.8674,0.0252 -3.0672,0.0252h-0.0147h-0.0147c-1.1998,0 -2.21616,0 -3.06711,-0.0252l-1.79414,2.6912c-0.22977,0.3447 -0.6954,0.4378 -1.04004,0.208c-0.34465,-0.2297 -0.43777,-0.6954 -0.20801,-1.04l1.3189,-1.9784c-0.45663,-0.0601 -0.8601,-0.1478 -1.20858,-0.2785c-0.66003,-0.2475 -1.14131,-0.6568 -1.42187,-1.288c-0.25543,-0.5748 -0.31445,-1.2728 -0.31445,-2.0391v-4.4725c-0.00065,-0.0178 -0.00065,-0.0357 0,-0.0538zM17.0742,12.4961c-1.2688,0.1269 -3.0441,0.2539 -5.0742,0.2539c-2.03007,0 -3.80541,-0.127 -5.07422,-0.2539c-0.46265,-0.0463 -0.85879,-0.0925 -1.17578,-0.1327v3.6366c0,0.7337 0.06597,1.1607 0.18554,1.4297c0.0944,0.2124 0.23833,0.3657 0.57813,0.4932c0.38435,0.144 0.97262,0.2349 1.89844,0.2812c0.91444,0.0457 2.08049,0.0459 3.58789,0.0459c1.5074,0 2.6734,-0.0002 3.5879,-0.0459c0.9258,-0.0463 1.5141,-0.1372 1.8984,-0.2812c0.3398,-0.1275 0.4838,-0.2808 0.5782,-0.4932c0.1195,-0.269 0.1855,-0.696 0.1855,-1.4297v-3.6366c-0.317,0.0402 -0.7131,0.0864 -1.1758,0.1327zM17.8641,5.74999c-0.2054,-0.30898 -0.5008,-0.60642 -0.9051,-0.87597c-0.9597,-0.63977 -2.5467,-1.12402 -4.959,-1.12402c-2.41232,0 -3.99932,0.48425 -4.95899,1.12402c-0.40432,0.26955 -0.69973,0.56699 -0.90508,0.87597zM8,17.5c-0.69035,0 -1.25,-0.5596 -1.25,-1.25c0,-0.6904 0.55965,-1.25 1.25,-1.25c0.69036,0 1.25,0.5596 1.25,1.25c0,0.6904 -0.55964,1.25 -1.25,1.25zM16,15c0.6904,0 1.25,0.5596 1.25,1.25c0,0.6904 -0.5596,1.25 -1.25,1.25c-0.6904,0 -1.25,-0.5596 -1.25,-1.25c0,-0.6904 0.5596,-1.25 1.25,-1.25z" fill="#002B51"/>
</svg>
