<svg width="24" height="24" viewBox="0 0 24 24" fill="none" xmlns="http://www.w3.org/2000/svg">
<path d="M13.5,2.25c0.4142,0 0.75,0.33579 0.75,0.75c0,0.06225 -0.0111,0.12186 -0.0254,0.17969l3.8486,0.77051l0.125,0.03613c0.2796,0.10874 0.4721,0.37728 0.4776,0.68555l0.0703,4.09472l0.8779,1.3174c0.0822,0.1232 0.126,0.2679 0.126,0.416v7.5c0,0.3536 -0.247,0.6593 -0.5928,0.7334l-2.5674,0.5498l1.5342,2.3008c0.2298,0.3446 0.1366,0.8103 -0.208,1.04c-0.3446,0.2298 -0.8103,0.1367 -1.04,-0.208l-1.8633,-2.7949l-2.8555,0.6123c-0.1036,0.0222 -0.2108,0.0222 -0.3144,0l-2.85647,-0.6123l-1.86231,2.7949c-0.22976,0.3447 -0.69539,0.4378 -1.04004,0.208c-0.34464,-0.2297 -0.43777,-0.6954 -0.208,-1.04l1.5332,-2.3008l-2.56641,-0.5498c-0.34576,-0.0741 -0.59277,-0.3798 -0.59277,-0.7334v-7.5c0,-0.1481 0.04384,-0.2928 0.12598,-0.416l0.87695,-1.3174l0.07129,-4.09472l0.01367,-0.12891c0.05677,-0.29467 0.28641,-0.53214 0.58887,-0.59277l3.84765,-0.77051c-0.01425,-0.05777 -0.02441,-0.11752 -0.02441,-0.17969c0,-0.41421 0.3358,-0.75 0.75,-0.75zM7.75,14.5c-0.69036,0 -1.25,0.5596 -1.25,1.25c0,0.6904 0.55964,1.25 1.25,1.25c0.69036,0 1.25,-0.5596 1.25,-1.25c0,-0.6904 -0.55964,-1.25 -1.25,-1.25zM16.25,14.5c-0.6904,0 -1.25,0.5596 -1.25,1.25c0,0.6904 0.5596,1.25 1.25,1.25c0.6904,0 1.25,-0.5596 1.25,-1.25c0,-0.6904 -0.5596,-1.25 -1.25,-1.25zM12,9.75c-1.5188,0 -2.75,1.2312 -2.75,2.75c0,1.5188 1.2312,2.75 2.75,2.75c1.5188,0 2.75,-1.2312 2.75,-2.75c0,-1.5188 -1.2312,-2.75 -2.75,-2.75zM12,11.25c0.6904,0 1.25,0.5596 1.25,1.25c0,0.6904 -0.5596,1.25 -1.25,1.25c-0.6904,0 -1.25,-0.5596 -1.25,-1.25c0,-0.6904 0.5596,-1.25 1.25,-1.25zM6.81348,5.30176l-0.04688,2.7334l4.4834,-1.1211v-2.5zM12.75,6.91406l4.4824,1.1211l-0.0469,-2.7334l-4.4355,-0.8877z" fill="#002B51"/>
</svg>
