<svg width="24" height="24" viewBox="0 0 24 24" fill="none" xmlns="http://www.w3.org/2000/svg">
<path fill-rule="evenodd" clip-rule="evenodd" d="M12,3.75c-2.41231,0 -3.99931,0.48425 -4.95898,1.12402c-0.40433,0.26955 -0.69973,0.56699 -0.90508,0.87597h11.72816c-0.2054,-0.30898 -0.5008,-0.60642 -0.9051,-0.87597c-0.9597,-0.63977 -2.5467,-1.12402 -4.959,-1.12402zM12.75,11.2432c1.6567,-0.0259 3.1035,-0.1321 4.1758,-0.2393c0.5468,-0.0547 0.9955,-0.1095 1.3242,-0.1532v-3.60071h-5.5zM11.25,7.24999h-5.5v3.60071c0.32874,0.0437 0.77742,0.0985 1.32422,0.1532c1.07224,0.1072 2.51907,0.2134 4.17578,0.2393zM4.25,11.4736v-4.4736c0,-1.27754 0.64864,-2.50046 1.95899,-3.37402c1.29033,-0.86023 3.20333,-1.37598 5.79101,-1.37598c2.5877,0 4.5007,0.51575 5.791,1.37598c1.3104,0.87356 1.959,2.09648 1.959,3.37402v4.4736c0.0007,0.0182 0.0007,0.0363 0,0.0542v4.4722c0,0.7663 -0.059,1.4643 -0.3144,2.0391c-0.2806,0.6312 -0.7619,1.0405 -1.4219,1.288c-0.3485,0.1307 -0.7519,0.2184 -1.2086,0.2785l1.319,1.9784l0.039,0.0664c0.1777,0.3359 0.076,0.7583 -0.2471,0.9736c-0.3231,0.2154 -0.7524,0.1469 -0.9941,-0.1465l-0.0459,-0.0615l-1.7941,-2.6912c-0.851,0.0252 -1.8674,0.0252 -3.0672,0.0252h-0.0147h-0.0147c-1.1998,0 -2.21615,0 -3.0671,-0.0252l-1.79415,2.6912c-0.22976,0.3447 -0.69539,0.4378 -1.04003,0.208c-0.34465,-0.2297 -0.43778,-0.6954 -0.20801,-1.04l1.3189,-1.9784c-0.45663,-0.0601 -0.8601,-0.1478 -1.20858,-0.2785c-0.66003,-0.2475 -1.14131,-0.6568 -1.42187,-1.288c-0.25543,-0.5748 -0.31446,-1.2728 -0.31446,-2.0391v-4.4722c-0.00065,-0.0179 -0.00066,-0.036 0,-0.0542zM8.00001,17.5c0.69036,0 1.25,-0.5596 1.25,-1.25c0,-0.6904 -0.55964,-1.25 -1.25,-1.25c-0.69036,0 -1.25,0.5596 -1.25,1.25c0,0.6904 0.55964,1.25 1.25,1.25zM16,17.5c0.6904,0 1.25,-0.5596 1.25,-1.25c0,-0.6904 -0.5596,-1.25 -1.25,-1.25c-0.6903,0 -1.25,0.5596 -1.25,1.25c0,0.6904 0.5597,1.25 1.25,1.25z" fill="#002B51"/>
</svg>
