<svg width="24" height="24" viewBox="0 0 24 24" fill="none" xmlns="http://www.w3.org/2000/svg">
<path fill-rule="evenodd" clip-rule="evenodd" d="M7.18727 5.25H11.9999C11.9999 5.25 11.9999 5.25 11.9999 5.25H16.6132C16.4648 5.10064 16.2867 4.95093 16.075 4.80544C15.2223 4.21925 13.8777 3.75001 11.9999 3.75C10.079 3.75 8.73504 4.11241 7.89738 4.63589C7.59875 4.82251 7.36427 5.0286 7.18727 5.25ZM17.2499 6.75H12.7499L12.7499 7.44453L12.7499 9.73645C13.7839 9.70141 14.9139 9.6036 15.8589 9.50412C16.4097 9.44615 16.8926 9.38816 17.2499 9.34295L17.2499 6.75ZM11.2499 6.75L11.2499 7.44456L11.2499 9.73644C10.216 9.70141 9.08603 9.6036 8.14097 9.50412C7.59015 9.44614 7.10721 9.38814 6.7499 9.34294V6.75H11.2499ZM18.7499 9.98397L18.7499 6.49976C18.7499 5.42308 18.0524 4.3445 16.9248 3.56934C15.7775 2.78065 14.1221 2.25001 11.9999 2.25C9.92083 2.25 8.26479 2.63746 7.10244 3.36385C5.91184 4.1079 5.2499 5.20901 5.2499 6.49976V9.99375V10.0081V15.4998C5.24989 15.8786 5.4294 16.1755 5.64743 16.3786C5.85079 16.5681 6.10157 16.6925 6.33366 16.7799C6.78361 16.9491 7.35933 17.0494 7.95209 17.1139L4.86216 22.1054C4.64414 22.4576 4.75291 22.9198 5.1051 23.1378C5.45729 23.3559 5.91954 23.2471 6.13756 22.8949L6.69168 21.9998H17.308L17.8622 22.8949C18.0802 23.2471 18.5424 23.3559 18.8946 23.1378C19.2468 22.9198 19.3556 22.4576 19.1376 22.1054L16.0476 17.1139C16.6404 17.0494 17.2162 16.9491 17.6661 16.7799C17.8982 16.6925 18.149 16.5681 18.3524 16.3786C18.5704 16.1755 18.7499 15.8786 18.7499 15.4997L18.7499 10.158L18.7499 10.0179C18.7501 10.0066 18.7501 9.99533 18.7499 9.98397ZM12.0222 17.2498C12.7246 17.2498 13.5438 17.2498 14.3512 17.2235L14.8318 17.9998H9.16782L9.64839 17.2235C10.4559 17.2498 11.2751 17.2498 11.9776 17.2498H11.9776H11.9999H12.0222H12.0222ZM7.62023 20.4998L8.23927 19.4998H15.7604L16.3794 20.4998H7.62023ZM9.49988 14.25C9.49988 13.6977 9.05216 13.25 8.49988 13.25C7.94759 13.25 7.49988 13.6977 7.49988 14.25C7.49988 14.8023 7.94759 15.25 8.49988 15.25C9.05216 15.25 9.49988 14.8023 9.49988 14.25ZM15.4999 13.25C16.0522 13.25 16.4999 13.6977 16.4999 14.25C16.4999 14.8023 16.0522 15.25 15.4999 15.25C14.9476 15.25 14.4999 14.8023 14.4999 14.25C14.4999 13.6977 14.9476 13.25 15.4999 13.25Z" fill="#002B51"/>
</svg>
