<svg width="24" height="24" viewBox="0 0 24 24" fill="none" xmlns="http://www.w3.org/2000/svg">
<path d="M13.5,2.25c0.4142,0 0.75,0.33579 0.75,0.75c0,0.06225 -0.0072,0.12283 -0.0215,0.18066l3.8448,0.76954l0.125,0.03613c0.2795,0.10874 0.472,0.37728 0.4775,0.68555l0.0703,4.09472l0.878,1.3174c0.0821,0.1232 0.1259,0.2679 0.1259,0.416v7.5c0,0.3536 -0.247,0.6593 -0.5927,0.7334l-2.5674,0.5498l1.5342,2.3008l0.039,0.0664c0.1776,0.3359 0.076,0.7583 -0.2471,0.9736c-0.3231,0.2154 -0.7524,0.1469 -0.9941,-0.1465l-0.0459,-0.0615l-1.8633,-2.7949l-2.8554,0.6123c-0.1036,0.0222 -0.2109,0.0222 -0.3145,0l-2.85644,-0.6123l-1.86231,2.7949c-0.22976,0.3447 -0.69539,0.4378 -1.04004,0.208c-0.34464,-0.2297 -0.43777,-0.6954 -0.208,-1.04l1.5332,-2.3008l-2.56641,-0.5498c-0.34576,-0.0741 -0.59277,-0.3798 -0.59277,-0.7334v-7.5c0,-0.1481 0.04384,-0.2928 0.12598,-0.416l0.87695,-1.3174l0.07129,-4.09472l0.01367,-0.12891c0.05677,-0.29467 0.28641,-0.53214 0.58887,-0.59277l3.84472,-0.76954c-0.01429,-0.05783 -0.02148,-0.11841 -0.02148,-0.18066c0,-0.41421 0.33577,-0.75 0.74997,-0.75zM6.46292,9.65723l-0.71289,1.06937v6.667l6.24997,1.3388l6.25,-1.3388v-6.667l-0.7129,-1.06937l-5.5371,-1.38477zM7.75003,14.5c0.69036,0 1.25,0.5596 1.25,1.25c0,0.6904 -0.55964,1.25 -1.25,1.25c-0.69036,0 -1.25,-0.5596 -1.25,-1.25c0,-0.6904 0.55964,-1.25 1.25,-1.25zM16.25,14.5c0.6904,0 1.25,0.5596 1.25,1.25c0,0.6904 -0.5596,1.25 -1.25,1.25c-0.6903,0 -1.25,-0.5596 -1.25,-1.25c0,-0.6904 0.5597,-1.25 1.25,-1.25zM12,9.75c1.5188,0 2.75,1.2312 2.75,2.75c0,1.5188 -1.2312,2.75 -2.75,2.75c-1.5188,0 -2.74997,-1.2312 -2.74997,-2.75c0,-1.5188 1.23117,-2.75 2.74997,-2.75zM12,11.25c-0.6903,0 -1.25,0.5596 -1.25,1.25c0,0.6904 0.5597,1.25 1.25,1.25c0.6904,0 1.25,-0.5596 1.25,-1.25c0,-0.6904 -0.5596,-1.25 -1.25,-1.25zM6.81351,5.30176l-0.04688,2.7334l4.48337,-1.1211v-2.49902zM12.75,6.91406l4.4834,1.1211l-0.0478,-2.7334l-4.4356,-0.88672z" fill="#002B51"/>
</svg>
