<svg width="24" height="24" viewBox="0 0 24 24" fill="none" xmlns="http://www.w3.org/2000/svg">
<path d="M12.9998,2.25c0.3555,0 0.6513,0.24798 0.7285,0.58008l3.4189,0.68457c0.3504,0.07026 0.6026,0.37797 0.6026,0.73535v3.18945l0.7802,0.78028c0.1407,0.14065 0.2198,0.33136 0.2198,0.53027v7c0,0.3666 -0.2654,0.68 -0.627,0.7402l-2.2324,0.3711l3.2471,5.2442c0.2178,0.3521 0.1088,0.8142 -0.2432,1.0322c-0.3522,0.2177 -0.8143,0.1089 -1.0322,-0.2432l-0.5538,-0.8945h-10.61714l-0.55371,0.8945c-0.21804,0.3521 -0.68009,0.4611 -1.03223,0.2432c-0.35198,-0.218 -0.46086,-0.6801 -0.24316,-1.0322l3.24609,-5.2442l-2.23144,-0.3711c-0.36153,-0.0603 -0.62695,-0.3736 -0.62695,-0.7402v-7c0,-0.19886 0.07914,-0.38963 0.21972,-0.53027l0.78028,-0.78028v-3.18945c0,-0.35731 0.25228,-0.66501 0.60253,-0.73535l3.41801,-0.68457c0.077,-0.33216 0.3739,-0.57997 0.7295,-0.58008zM8.23901,19.5l-0.61914,1h8.75973l-0.6191,-1zM12.1228,17.4902c-0.0814,0.0135 -0.1647,0.0136 -0.2461,0l-2.16991,-0.3623l-0.53907,0.8721h5.66408l-0.5401,-0.8721zM8.24976,13c-0.55218,0.0001 -1,0.4478 -1,1c0,0.5522 0.44782,0.9999 1,1c0.55228,0 1,-0.4477 1,-1c0,-0.5523 -0.44772,-1 -1,-1zM15.7498,13c-0.5522,0.0001 -1,0.4478 -1,1c0,0.5522 0.4478,0.9999 1,1c0.5522,0 1,-0.4477 1,-1c0,-0.5523 -0.4478,-1 -1,-1zM11.9998,9c-1.2426,0.00012 -2.25004,1.0074 -2.25004,2.25c0,1.2426 1.00744,2.2499 2.25004,2.25c1.2426,0 2.25,-1.0074 2.25,-2.25c0,-1.2426 -1.0074,-2.25 -2.25,-2.25zM11.9998,10.5c0.4142,0 0.75,0.3358 0.75,0.75c0,0.4142 -0.3358,0.75 -0.75,0.75c-0.4142,-0.0001 -0.75,-0.3359 -0.75,-0.75c0,-0.4141 0.3358,-0.7499 0.75,-0.75zM7.74976,4.86426v2.2207l3.50004,-0.70019v-2.22071zM12.7498,6.38477l3.5,0.70019v-2.2207l-3.5,-0.7002z" fill="#002B51"/>
</svg>
