<svg width="24" height="24" viewBox="0 0 24 24" fill="none" xmlns="http://www.w3.org/2000/svg">
<path fill-rule="evenodd" clip-rule="evenodd" d="M22.75,5.57129v8.60741c-0.0001,0.7297 -0.5916,1.3212 -1.3213,1.3213h-0.6924c0.009,0.0821 0.0137,0.1655 0.0137,0.25c0,1.2426 -1.0074,2.25 -2.25,2.25h3.5c0.4142,0 0.75,0.3358 0.75,0.75c0,0.4142 -0.3358,0.75 -0.75,0.75h-20c-0.41421,0 -0.75,-0.3358 -0.75,-0.75c0,-0.4142 0.33579,-0.75 0.75,-0.75h3.75c-1.24264,0 -2.25,-1.0074 -2.25,-2.25c0,-0.0845 0.00466,-0.1679 0.01373,-0.25h-1.76373c-0.41421,0 -0.75,-0.3358 -0.75,-0.75v-9.75l0.00391,-0.07715c0.03862,-0.37797 0.35792,-0.67285 0.74609,-0.67285h7.5l0.07715,0.00391c0.37797,0.03862 0.67285,0.35792 0.67285,0.74609v9h0.25c0.4142,0 0.75,0.3358 0.75,0.75c0,0.4142 -0.3358,0.75 -0.75,0.75h-0.75c-0.04259,0 -0.08435,-0.0036 -0.125,-0.0104c-0.04065,0.0068 -0.08241,0.0104 -0.125,0.0104h-1.26373c0.00907,0.0821 0.01373,0.1655 0.01373,0.25c0,1.2426 -1.00736,2.25 -2.25,2.25h12.75c-1.2426,0 -2.25,-1.0074 -2.25,-2.25c0,-0.0845 0.0047,-0.1679 0.0137,-0.25h-2.2637c-0.4142,0 -0.75,-0.3358 -0.75,-0.75c0,-0.4142 0.3358,-0.75 0.75,-0.75h1.0507c-1.1076,-1.0273 -1.8007,-2.4952 -1.8007,-4.125c0,-3.1066 2.5184,-5.625 5.625,-5.625h0.375v-1.5l0.0039,-0.07715c0.0386,-0.37797 0.3579,-0.67285 0.7461,-0.67285h2c0.4142,0 0.75,0.33579 0.75,0.75c0,0.41421 -0.3358,0.75 -0.75,0.75h-1.25v0.75h0.6787c0.7297,0.00008 1.3212,0.59159 1.3213,1.32129zM17.7927,15.5c-0.0277,0.0782 -0.0427,0.1623 -0.0427,0.25c0,0.4142 0.3358,0.75 0.75,0.75c0.4142,0 0.75,-0.3358 0.75,-0.75c0,-0.0877 -0.015,-0.1718 -0.0427,-0.25h-0.3323zM5.75,16.5c0.41421,0 0.75,-0.3358 0.75,-0.75c0,-0.0877 -0.01504,-0.1718 -0.04268,-0.25h-1.41464c-0.02764,0.0782 -0.04268,0.1623 -0.04268,0.25c0,0.4142 0.33579,0.75 0.75,0.75zM3.5,13c0.41421,0 0.75,-0.3358 0.75,-0.75v-5c0,-0.41421 -0.33579,-0.75 -0.75,-0.75c-0.41421,0 -0.75,0.33579 -0.75,0.75v5c0,0.4142 0.33579,0.75 0.75,0.75zM5.75,7.25v5c0,0.4142 0.33579,0.75 0.75,0.75c0.41421,0 0.75,-0.3358 0.75,-0.75v-5c0,-0.41421 -0.33579,-0.75 -0.75,-0.75c-0.41421,0 -0.75,0.33579 -0.75,0.75z" fill="#002B51"/>
</svg>
