<svg width="24" height="24" viewBox="0 0 24 24" fill="none" xmlns="http://www.w3.org/2000/svg">
<path fill-rule="evenodd" clip-rule="evenodd" d="M17.25,6.75h-4.5v2.98535c1.034,-0.03504 2.1643,-0.13197 3.1094,-0.23144c0.5504,-0.05795 1.0333,-0.11591 1.3905,-0.1611zM11.25,6.75h-4.50004v2.59279c0.35723,0.04519 0.84016,0.10316 1.39068,0.16112c0.94505,0.09947 2.07546,0.1964 3.10936,0.23144zM12.3457,3.75586l-0.3457,-0.00586c-1.9209,0 -3.26492,0.36228 -4.10258,0.88574c-0.29865,0.18664 -0.53312,0.39278 -0.71013,0.61426h4.81271h4.613c-0.1483,-0.14929 -0.3263,-0.29892 -0.5378,-0.44434c-0.7995,-0.54956 -2.0314,-0.99611 -3.7295,-1.0498zM12.4942,11.2441l-0.4942,0.0059c-1.2899,0 -2.82099,-0.1282 -4.01561,-0.2539c-0.4716,-0.0496 -0.89463,-0.0993 -1.23443,-0.1413v4.4704l0.01091,0.0054h0.00002h0.00003c0.02771,0.0137 0.06087,0.0302 0.10134,0.0454c0.28142,0.1058 0.7271,0.1921 1.30957,0.2529c1.15148,0.1201 2.60957,0.1211 3.82817,0.1211c1.2185,0 2.6766,-0.001 3.8281,-0.1211c0.5825,-0.0608 1.0281,-0.1471 1.3096,-0.2529c0.0404,-0.0153 0.0736,-0.0317 0.1014,-0.0454l0.0109,-0.0054l-0.0001,-4.4704c-0.3397,0.042 -0.7627,0.0917 -1.2343,0.1413c-1.0452,0.11 -2.348,0.2217 -3.5214,0.248zM18.3525,16.3789c-0.2033,0.1894 -0.4545,0.3141 -0.6865,0.4014c-0.4499,0.1692 -1.0257,0.2695 -1.6183,0.3339l3.0898,4.9913l0.0371,0.0674c0.1662,0.3417 0.0498,0.7605 -0.2803,0.9648c-0.33,0.2042 -0.7565,0.1215 -0.9882,-0.1797l-0.044,-0.0634l-0.554,-0.8949h-10.61666l-0.55399,0.8949c-0.21801,0.3521 -0.68004,0.4611 -1.03223,0.2431c-0.35212,-0.2179 -0.461,-0.68 -0.24316,-1.0322l3.08985,-4.9913c-0.59249,-0.0645 -1.16817,-0.1648 -1.61797,-0.3339c-0.23206,-0.0873 -0.48318,-0.212 -0.68652,-0.4014c-0.21798,-0.2031 -0.3974,-0.5002 -0.39746,-0.8789v-9c0,-1.29068 0.66205,-2.3917 1.85254,-3.13574c1.16235,-0.72639 2.8184,-1.11426 4.8975,-1.11426l0.3925,0.00586c1.9347,0.06121 3.4567,0.57412 4.5323,1.31348c1.1276,0.77516 1.8252,1.85398 1.8252,2.93066l-0.0001,3.6582l0.0001,5.3418l-0.0079,0.1377c-0.0372,0.3135 -0.1988,0.5634 -0.3896,0.7412zM12.0255,17.25h-0.0001v0h-0.0254h-0.0255v0h-0.0001c-0.7019,0 -1.5201,0 -2.32645,-0.0262l-0.48032,0.7759h5.66427l-0.4803,-0.7759c-0.8063,0.0262 -1.6243,0.0262 -2.3261,0.0262zM8.49994,13.25c0.55228,0 1,0.4477 1,1c0,0.5523 -0.44772,1 -1,1c-0.55229,0 -1,-0.4477 -1,-1c0,-0.5523 0.44771,-1 1,-1zM15.4999,15.25c-0.5522,0 -1,-0.4477 -1,-1c0,-0.5523 0.4478,-1 1,-1c0.5523,0 1,0.4477 1,1c0,0.5523 -0.4477,1 -1,1zM8.23905,19.4997l-0.61904,1h8.75959l-0.6191,-1z" fill="#002B51"/>
</svg>
