<svg width="24" height="24" viewBox="0 0 24 24" fill="none" xmlns="http://www.w3.org/2000/svg">
<path d="M22,18c0.4142,0 0.75,0.3358 0.75,0.75c0,0.4142 -0.3358,0.75 -0.75,0.75h-20c-0.41421,0 -0.75,-0.3358 -0.75,-0.75c0,-0.4142 0.33579,-0.75 0.75,-0.75zM20,4.25c0.4142,0 0.75,0.33579 0.75,0.75v9h0.25c0.4142,0 0.75,0.3358 0.75,0.75c0,0.4142 -0.3358,0.75 -0.75,0.75h-2.2656c0.0094,0.0821 0.0156,0.1654 0.0156,0.25c0,1.2426 -1.0074,2.25 -2.25,2.25c-1.2426,0 -2.25,-1.0074 -2.25,-2.25c0,-0.0846 0.0062,-0.1679 0.0156,-0.25h-4.53122c0.00945,0.0821 0.01562,0.1654 0.01562,0.25c0,1.2426 -1.00736,2.25 -2.25,2.25c-1.24264,0 -2.25,-1.0074 -2.25,-2.25c0,-0.0846 0.00617,-0.1679 0.01562,-0.25h-2.26562c-0.41421,0 -0.75,-0.3358 -0.75,-0.75c0,-0.4142 0.33579,-0.75 0.75,-0.75h0.25v-9c0,-0.41421 0.33579,-0.75 0.75,-0.75zM6.7959,15.5c-0.02787,0.0785 -0.0459,0.162 -0.0459,0.25c0,0.4142 0.33579,0.75 0.75,0.75c0.41421,0 0.75,-0.3358 0.75,-0.75c0,-0.088 -0.01803,-0.1715 -0.0459,-0.25zM15.7959,15.5c-0.0279,0.0785 -0.0459,0.162 -0.0459,0.25c0,0.4142 0.3358,0.75 0.75,0.75c0.4142,0 0.75,-0.3358 0.75,-0.75c0,-0.088 -0.018,-0.1715 -0.0459,-0.25zM7.5,6.5c-0.41421,0 -0.75,0.33579 -0.75,0.75v5c0,0.4142 0.33579,0.75 0.75,0.75c0.41421,0 0.75,-0.3358 0.75,-0.75v-5c0,-0.41421 -0.33579,-0.75 -0.75,-0.75zM10.5,6.5c-0.4142,0 -0.75,0.33579 -0.75,0.75v5c0,0.4142 0.3358,0.75 0.75,0.75c0.4142,0 0.75,-0.3358 0.75,-0.75v-5c0,-0.41421 -0.3358,-0.75 -0.75,-0.75zM13.5,6.5c-0.4142,0 -0.75,0.33579 -0.75,0.75v5c0,0.4142 0.3358,0.75 0.75,0.75c0.4142,0 0.75,-0.3358 0.75,-0.75v-5c0,-0.41421 -0.3358,-0.75 -0.75,-0.75zM16.5,6.5c-0.4142,0 -0.75,0.33579 -0.75,0.75v5c0,0.4142 0.3358,0.75 0.75,0.75c0.4142,0 0.75,-0.3358 0.75,-0.75v-5c0,-0.41421 -0.3358,-0.75 -0.75,-0.75z" fill="#002B51"/>
</svg>
