<svg width="24" height="24" viewBox="0 0 24 24" fill="none" xmlns="http://www.w3.org/2000/svg">
<path d="M13.0768,2.25391c0.3208,0.03278 0.5788,0.2685 0.6504,0.57617l3.4199,0.68457l0.126,0.03711c0.2832,0.11074 0.4766,0.38537 0.4766,0.69824v3.18945l0.7802,0.78028c0.1407,0.14065 0.2198,0.33136 0.2198,0.53027v7c0,0.3666 -0.2653,0.68 -0.627,0.7402l-2.2324,0.3711l3.2471,5.2442l0.0371,0.0674c0.1661,0.3416 0.0497,0.7604 -0.2803,0.9648c-0.3301,0.2042 -0.7566,0.1214 -0.9883,-0.1797l-0.0439,-0.0635l-0.5537,-0.8945h-10.61722l-0.55372,0.8945c-0.21799,0.3522 -0.68005,0.4611 -1.03222,0.2432c-0.35205,-0.218 -0.46099,-0.6801 -0.24317,-1.0322l3.2461,-5.2442l-2.23145,-0.3711c-0.36152,-0.0603 -0.62695,-0.3736 -0.62695,-0.7402v-7c0,-0.19886 0.07915,-0.38963 0.21973,-0.53027l0.78027,-0.78028v-3.18945l0.01172,-0.13184c0.05322,-0.29896 0.28453,-0.542 0.59082,-0.60351l3.41799,-0.68457c0.077,-0.33216 0.3739,-0.57997 0.7295,-0.58008h2zM8.23893,19.5l-0.61914,1h8.75981l-0.6192,-1zM12.1227,17.4902c-0.0406,0.0068 -0.082,0.0098 -0.123,0.0098l-0.1231,-0.0098l-2.1699,-0.3623l-0.53906,0.8721h5.66406l-0.54,-0.8721zM8.24967,13c-0.55218,0.0001 -1,0.4478 -1,1c0,0.5522 0.44782,0.9999 1,1c0.55228,0 1,-0.4477 1,-1c0,-0.5523 -0.44772,-1 -1,-1zM15.7497,13c-0.5522,0.0001 -1,0.4478 -1,1c0,0.5522 0.4478,0.9999 1,1c0.5523,0 1,-0.4477 1,-1c0,-0.5523 -0.4477,-1 -1,-1zM11.9997,9c-1.2426,0.00012 -2.25003,1.0074 -2.25003,2.25c0,1.2426 1.00743,2.2499 2.25003,2.25c1.2426,0 2.25,-1.0074 2.25,-2.25c0,-1.2426 -1.0074,-2.25 -2.25,-2.25zM11.9997,10.5c0.4142,0 0.75,0.3358 0.75,0.75c0,0.4142 -0.3358,0.75 -0.75,0.75c-0.4141,-0.0001 -0.75,-0.3359 -0.75,-0.75c0,-0.4141 0.3359,-0.7499 0.75,-0.75zM7.74967,4.86426v2.2207l3.50003,-0.70019v-2.22071zM12.7497,6.38477l3.5,0.70019v-2.2207l-3.5,-0.7002z" fill="#002B51"/>
</svg>
