<svg width="24" height="24" viewBox="0 0 24 24" fill="none" xmlns="http://www.w3.org/2000/svg">
<path fill-rule="evenodd" clip-rule="evenodd" d="M20,4.25c0.3882,0 0.7075,0.29488 0.7461,0.67285l0.0039,0.07715v9h0.25c0.4142,0 0.75,0.3358 0.75,0.75c0,0.4142 -0.3358,0.75 -0.75,0.75h-1h-1.2637c0.009,0.0821 0.0137,0.1655 0.0137,0.25c0,1.2426 -1.0074,2.25 -2.25,2.25h5.5c0.4142,0 0.75,0.3358 0.75,0.75c0,0.4142 -0.3358,0.75 -0.75,0.75h-20c-0.41421,0 -0.75,-0.3358 -0.75,-0.75c0,-0.4142 0.33579,-0.75 0.75,-0.75h5.5c-1.24264,0 -2.25,-1.0074 -2.25,-2.25c0,-0.0845 0.00466,-0.1679 0.01373,-0.25h-1.26373h-1c-0.41421,0 -0.75,-0.3358 -0.75,-0.75c0,-0.4142 0.33579,-0.75 0.75,-0.75h0.25v-9c0,-0.38817 0.29488,-0.70747 0.67285,-0.74609l0.07715,-0.00391zM15.75,15.75c0,0.4142 0.3358,0.75 0.75,0.75c0.4142,0 0.75,-0.3358 0.75,-0.75c0,-0.0877 -0.015,-0.1718 -0.0427,-0.25h-1.4146c-0.0277,0.0782 -0.0427,0.1623 -0.0427,0.25zM9.73627,15.5c0.00907,0.0821 0.01373,0.1655 0.01373,0.25c0,1.2426 -1.00736,2.25 -2.25,2.25h9c-1.2426,0 -2.25,-1.0074 -2.25,-2.25c0,-0.0845 0.0047,-0.1679 0.0137,-0.25zM6.79268,15.5c-0.02764,0.0782 -0.04268,0.1623 -0.04268,0.25c0,0.4142 0.33579,0.75 0.75,0.75c0.41421,0 0.75,-0.3358 0.75,-0.75c0,-0.0877 -0.01504,-0.1718 -0.04268,-0.25zM19.25,5.75h-14.5v8.25h14.5zM6.75,12.25v-5c0,-0.41421 0.33579,-0.75 0.75,-0.75c0.41421,0 0.75,0.33579 0.75,0.75v5c0,0.4142 -0.33579,0.75 -0.75,0.75c-0.41421,0 -0.75,-0.3358 -0.75,-0.75zM9.75,12.25v-5c0,-0.41421 0.3358,-0.75 0.75,-0.75c0.4142,0 0.75,0.33579 0.75,0.75v5c0,0.4142 -0.3358,0.75 -0.75,0.75c-0.4142,0 -0.75,-0.3358 -0.75,-0.75zM13.5,6.5c0.4142,0 0.75,0.33579 0.75,0.75v5c0,0.4142 -0.3358,0.75 -0.75,0.75c-0.4142,0 -0.75,-0.3358 -0.75,-0.75v-5c0,-0.41421 0.3358,-0.75 0.75,-0.75zM15.75,12.25v-5c0,-0.41421 0.3358,-0.75 0.75,-0.75c0.4142,0 0.75,0.33579 0.75,0.75v5c0,0.4142 -0.3358,0.75 -0.75,0.75c-0.4142,0 -0.75,-0.3358 -0.75,-0.75z" fill="#002B51"/>
</svg>
