<svg width="24" height="24" viewBox="0 0 24 24" fill="none" xmlns="http://www.w3.org/2000/svg">
<path fill-rule="evenodd" clip-rule="evenodd" d="M8.24988,4c0,-0.9665 0.7835,-1.75 1.75,-1.75h4.00002c0.9665,0 1.75,0.7835 1.75,1.75v2.25h3.25h1c0.4142,0 0.75,0.33579 0.75,0.75c0,0.41421 -0.3358,0.75 -0.75,0.75h-0.3017l-0.8176,11.4459c-0.1027,1.4391 -1.3002,2.5541 -2.743,2.5541h-8.27548c-1.44276,0 -2.64022,-1.115 -2.74302,-2.5541l-0.81756,-11.4459h-0.30166c-0.41422,0 -0.75,-0.33579 -0.75,-0.75c0,-0.41421 0.33578,-0.75 0.75,-0.75h1h3.25zM13.9999,3.75h-4.00002c-0.13807,0 -0.25,0.11193 -0.25,0.25v2.25h4.50002v-2.25c0,-0.13807 -0.112,-0.25 -0.25,-0.25zM9.24992,11v6c0,0.4142 0.33579,0.75 0.75,0.75c0.41418,0 0.74998,-0.3358 0.74998,-0.75v-6c0,-0.4142 -0.3358,-0.75 -0.74998,-0.75c-0.41421,0 -0.75,0.3358 -0.75,0.75zM13.2499,11v6c0,0.4142 0.3358,0.75 0.75,0.75c0.4142,0 0.75,-0.3358 0.75,-0.75v-6c0,-0.4142 -0.3358,-0.75 -0.75,-0.75c-0.4142,0 -0.75,0.3358 -0.75,0.75z" fill="#002B51"/>
</svg>
