<svg width="24" height="24" viewBox="0 0 24 24" fill="none" xmlns="http://www.w3.org/2000/svg">
<path fill-rule="evenodd" clip-rule="evenodd" d="M9.99997,3.75c-0.13807,0 -0.25,0.11193 -0.25,0.25v2.25h4.50003v-2.25c0,-0.13807 -0.112,-0.25 -0.25,-0.25zM8.24997,6.25v-2.25c0,-0.9665 0.7835,-1.75 1.75,-1.75h4.00003c0.9665,0 1.75,0.7835 1.75,1.75v2.25h4.25c0.4142,0 0.75,0.33579 0.75,0.75c0,0.41421 -0.3358,0.75 -0.75,0.75h-0.3018l-0.8174,11.4463c-0.1029,1.4389 -1.3005,2.5537 -2.7431,2.5537h-8.27543c-1.44263,0 -2.6402,-1.1148 -2.74316,-2.5537l-0.81738,-11.4463h-0.30176c-0.41421,0 -0.75,-0.33579 -0.75,-0.75c0,-0.41421 0.33579,-0.75 0.75,-0.75zM8.99997,7.75h-3.19434l0.80957,11.3389c0.04673,0.6541 0.59128,1.1611 1.24707,1.1611h8.27543c0.6558,0 1.2003,-0.507 1.247,-1.1611l0.8096,-11.3389h-3.1943z" fill="#002B51"/>
</svg>
