<svg width="24" height="24" viewBox="0 0 24 24" fill="none" xmlns="http://www.w3.org/2000/svg">
<path fill-rule="evenodd" clip-rule="evenodd" d="M8.24991,4c0,-0.9665 0.7835,-1.75 1.75,-1.75h3.99999c0.9665,0 1.75,0.7835 1.75,1.75v2.25h3.25h1c0.4142,0 0.75,0.33579 0.75,0.75c0,0.41421 -0.3358,0.75 -0.75,0.75h-0.3017l-0.8175,11.4459c-0.1028,1.4391 -1.3003,2.5541 -2.743,2.5541h-8.27555c-1.44276,0 -2.64022,-1.115 -2.74301,-2.5541l-0.81757,-11.4459h-0.30166c-0.41422,0 -0.75,-0.33579 -0.75,-0.75c0,-0.41421 0.33578,-0.75 0.75,-0.75h1h3.25zM13.9999,3.75h-3.99999c-0.13807,0 -0.25,0.11193 -0.25,0.25v2.25h4.49999v-2.25c0,-0.13807 -0.1119,-0.25 -0.25,-0.25zM6.61532,19.0891c0.04673,0.6541 0.59103,1.1609 1.24683,1.1609h8.27555c0.6558,0 1.2001,-0.5068 1.2468,-1.1609l0.8099,-11.3391h-3.1945h-5.99999h-3.19452zM9.99995,10.25c0.41425,0 0.75005,0.3358 0.75005,0.75v6c0,0.4142 -0.3358,0.75 -0.75005,0.75c-0.41421,0 -0.75,-0.3358 -0.75,-0.75v-6c0,-0.4142 0.33579,-0.75 0.75,-0.75zM14,10.25c0.4142,0 0.75,0.3358 0.75,0.75v6c0,0.4142 -0.3358,0.75 -0.75,0.75c-0.4143,0 -0.75,-0.3358 -0.75,-0.75v-6c0,-0.4142 0.3357,-0.75 0.75,-0.75z" fill="#002B51"/>
</svg>
