<svg width="24" height="24" viewBox="0 0 24 24" fill="none" xmlns="http://www.w3.org/2000/svg">
<path fill-rule="evenodd" clip-rule="evenodd" d="M8.24988,4c0,-0.9665 0.7835,-1.75 1.75,-1.75h4.00002c0.9665,0 1.75,0.7835 1.75,1.75v2.25h3.25h1c0.4142,0 0.75,0.33579 0.75,0.75c0,0.41421 -0.3358,0.75 -0.75,0.75h-0.3017l-0.8175,11.4459c-0.1028,1.4391 -1.3003,2.5541 -2.7431,2.5541h-8.27548c-1.44276,0 -2.64022,-1.115 -2.74302,-2.5541l-0.81756,-11.4459h-0.30166c-0.41422,0 -0.75,-0.33579 -0.75,-0.75c0,-0.41421 0.33578,-0.75 0.75,-0.75h1h3.25zM13.9999,3.75h-4.00002c-0.13807,0 -0.25,0.11193 -0.25,0.25v2.25h4.50002v-2.25c0,-0.13807 -0.112,-0.25 -0.25,-0.25zM13.9696,10.9697l-1.9697,1.9696l-1.9696,-1.9696c-0.29294,-0.2929 -0.76781,-0.2929 -1.0607,0c-0.2929,0.2929 -0.29289,0.7678 0,1.0606l1.9697,1.9697l-1.9697,1.9697c-0.29289,0.2928 -0.29289,0.7677 0,1.0606c0.29289,0.2929 0.76777,0.2929 1.0607,0l1.9696,-1.9697l1.9697,1.9697c0.2929,0.2929 0.7678,0.2929 1.0607,0c0.2929,-0.2929 0.2929,-0.7678 0,-1.0606l-1.9697,-1.9697l1.9697,-1.9697c0.2929,-0.2929 0.2929,-0.7678 0,-1.0606c-0.2929,-0.2929 -0.7678,-0.2929 -1.0607,0z" fill="#002B51"/>
</svg>
