<svg width="24" height="24" viewBox="0 0 24 24" fill="none" xmlns="http://www.w3.org/2000/svg">
<path fill-rule="evenodd" clip-rule="evenodd" d="M14.2499,4c0,-0.13807 -0.112,-0.25 -0.25,-0.25h-4.00002c-0.13807,0 -0.25,0.11193 -0.25,0.25v2.25h4.50002zM9.99988,2.25h4.00002c0.9665,0 1.75,0.7835 1.75,1.75v2.25h4.25c0.4142,0 0.75,0.33579 0.75,0.75c0,0.41421 -0.3358,0.75 -0.75,0.75h-0.3018l-0.8174,11.4463c-0.1029,1.4389 -1.3005,2.5537 -2.7431,2.5537h-8.27542c-1.44264,0 -2.6402,-1.1148 -2.74316,-2.5537l-0.81738,-11.4463h-0.30176c-0.41422,0 -0.75,-0.33579 -0.75,-0.75c0,-0.41421 0.33578,-0.75 0.75,-0.75h4.25v-2.25c0,-0.9665 0.7835,-1.75 1.75,-1.75zM13.9698,10.9698l-1.9698,1.9698l-1.9697,-1.9697l-0.05662,-0.0518c-0.29458,-0.2403 -0.7293,-0.2228 -1.00391,0.0518c-0.2746,0.2746 -0.29206,0.7093 -0.05176,1.0039l0.05176,0.0566l1.96973,1.9697l-1.96973,1.9697c-0.29289,0.2929 -0.29289,0.7677 0,1.0606c0.2929,0.2929 0.76766,0.2929 1.06053,0l1.9697,-1.9697l1.9698,1.9697l0.0566,0.0518c0.2946,0.2403 0.7293,0.2228 1.0039,-0.0518c0.2746,-0.2746 0.2921,-0.7093 0.0518,-1.0039l-0.0518,-0.0566l-1.9697,-1.9698l1.9697,-1.9697l0.0518,-0.0567c0.2403,-0.2945 0.2228,-0.7293 -0.0518,-1.0039c-0.2746,-0.2746 -0.7093,-0.292 -1.0039,-0.0517z" fill="#002B51"/>
</svg>
