<svg width="24" height="24" viewBox="0 0 24 24" fill="none" xmlns="http://www.w3.org/2000/svg">
<path fill-rule="evenodd" clip-rule="evenodd" d="M9.99995 2.25C9.03346 2.25 8.24995 3.0335 8.24995 4V6.25H4.99995H3.99995C3.58574 6.25 3.24995 6.58579 3.24995 7C3.24995 7.41421 3.58574 7.75 3.99995 7.75H4.30161L5.11918 19.1959C5.22197 20.635 6.41944 21.75 7.86219 21.75H16.1377C17.5805 21.75 18.7779 20.635 18.8807 19.1959L19.6983 7.75H20C20.4142 7.75 20.75 7.41421 20.75 7C20.75 6.58579 20.4142 6.25 20 6.25H19H15.75V4C15.75 3.0335 14.9665 2.25 14 2.25H9.99995ZM14.25 6.25V4C14.25 3.86193 14.138 3.75 14 3.75H9.99995C9.86188 3.75 9.74995 3.86193 9.74995 4V6.25H14.25ZM8.99995 7.75H5.80544L6.61537 19.0891C6.66209 19.7432 7.20639 20.25 7.86219 20.25H16.1377C16.7935 20.25 17.3378 19.7432 17.3845 19.0891L18.1945 7.75H15H8.99995Z" fill="#002B51"/>
</svg>
