<svg width="24" height="24" viewBox="0 0 24 24" fill="none" xmlns="http://www.w3.org/2000/svg">
<path fill-rule="evenodd" clip-rule="evenodd" d="M8.24992,4c0,-0.9665 0.78351,-1.75 1.75,-1.75h3.99998c0.9665,0 1.75,0.7835 1.75,1.75v2.25h3.25h1c0.4142,0 0.75,0.33579 0.75,0.75c0,0.41421 -0.3358,0.75 -0.75,0.75h-0.3016l-0.8176,11.4459c-0.1028,1.4391 -1.3003,2.5541 -2.743,2.5541h-8.27554c-1.44276,0 -2.64022,-1.115 -2.74301,-2.5541l-0.81757,-11.4459h-0.30166c-0.41421,0 -0.75,-0.33579 -0.75,-0.75c0,-0.41421 0.33579,-0.75 0.75,-0.75h1h3.25zM13.9999,3.75h-3.99998c-0.13807,0 -0.25,0.11193 -0.25,0.25v2.25h4.49998v-2.25c0,-0.13807 -0.1119,-0.25 -0.25,-0.25zM6.61534,19.0891c0.04672,0.6541 0.59102,1.1609 1.24682,1.1609h8.27554c0.6558,0 1.2001,-0.5068 1.2468,-1.1609l0.8099,-11.3391h-3.1945h-5.99998h-3.19451zM15.0303,10.9697c0.2929,0.2929 0.2929,0.7677 0,1.0606l-1.9697,1.9697l1.9697,1.9697c0.2929,0.2928 0.2929,0.7677 0,1.0606c-0.2929,0.2929 -0.7678,0.2929 -1.0607,0l-1.9696,-1.9696l-1.9697,1.9696c-0.2929,0.2929 -0.76777,0.2929 -1.06066,0c-0.2929,-0.2929 -0.2929,-0.7677 0,-1.0606l1.96966,-1.9697l-1.96966,-1.9697c-0.2929,-0.2928 -0.2929,-0.7677 0,-1.0606c0.29289,-0.2929 0.76776,-0.2929 1.06066,0l1.9697,1.9696l1.9696,-1.9696c0.2929,-0.2929 0.7678,-0.2929 1.0607,0z" fill="#002B51"/>
</svg>
