<svg width="24" height="24" viewBox="0 0 24 24" fill="none" xmlns="http://www.w3.org/2000/svg">
<path d="M13.9999,2.25c0.9665,0 1.75,0.7835 1.75,1.75v2.25h4.25c0.4143,0 0.75,0.33579 0.75,0.75c0,0.41421 -0.3357,0.75 -0.75,0.75h-0.3017l-0.8174,11.4463c-0.103,1.4389 -1.3005,2.5537 -2.7432,2.5537h-8.27536c-1.44264,0 -2.6402,-1.1148 -2.74316,-2.5537l-0.81738,-11.4463h-0.30176c-0.41421,0 -0.75,-0.33579 -0.75,-0.75c0,-0.41421 0.33579,-0.75 0.75,-0.75h4.25v-2.25c0,-0.9665 0.7835,-1.75 1.75,-1.75zM6.61517,19.0889c0.04673,0.6541 0.59128,1.1611 1.24707,1.1611h8.27536c0.6558,0 1.2004,-0.507 1.2471,-1.1611l0.8096,-11.3389h-12.3887zM9.99994,10.25c0.41426,0 0.74996,0.3358 0.74996,0.75v6c0,0.4142 -0.3358,0.75 -0.74996,0.75c-0.41419,0 -0.74999,-0.3358 -0.75,-0.75v-6c0,-0.4142 0.33581,-0.75 0.75,-0.75zM13.9999,10.25c0.4143,0 0.75,0.3358 0.75,0.75v6c0,0.4142 -0.3358,0.75 -0.75,0.75c-0.4142,0 -0.75,-0.3358 -0.75,-0.75v-6c0,-0.4142 0.3358,-0.75 0.75,-0.75zM9.99994,3.75c-0.13807,0 -0.25,0.11193 -0.25,0.25v2.25h4.49996v-2.25c0,-0.13807 -0.1119,-0.25 -0.25,-0.25z" fill="#002B51"/>
</svg>
