<svg width="24" height="24" viewBox="0 0 24 24" fill="none" xmlns="http://www.w3.org/2000/svg">
<path fill-rule="evenodd" clip-rule="evenodd" d="M14,2.25c0.9665,0 1.75,0.7835 1.75,1.75v2.25h3.25h1c0.4142,0 0.75,0.33579 0.75,0.75c0,0.41421 -0.3358,0.75 -0.75,0.75h-0.3017l-0.8176,11.4459c-0.1028,1.4391 -1.3002,2.5541 -2.743,2.5541h-8.27551c-1.44275,0 -2.64022,-1.115 -2.74301,-2.5541l-0.81757,-11.4459h-0.30166c-0.41421,0 -0.75,-0.33579 -0.75,-0.75c0,-0.41421 0.33579,-0.75 0.75,-0.75h1h3.25v-2.25c0,-0.9665 0.78351,-1.75 1.75,-1.75zM14.25,6.25v-2.25c0,-0.13807 -0.112,-0.25 -0.25,-0.25h-4.00005c-0.13807,0 -0.25,0.11193 -0.25,0.25v2.25zM8.99995,7.75h-3.19451l0.80993,11.3391c0.04672,0.6541 0.59102,1.1609 1.24682,1.1609h8.27551c0.6558,0 1.2001,-0.5068 1.2468,-1.1609l0.81,-11.3391h-3.1945z" fill="#002B51"/>
</svg>
