<svg width="24" height="24" viewBox="0 0 24 24" fill="none" xmlns="http://www.w3.org/2000/svg">
<path d="M13.9999,2.25c0.9665,0 1.75,0.7835 1.75,1.75v2.25h4.25c0.4143,0 0.75,0.33579 0.75,0.75c0,0.41421 -0.3357,0.75 -0.75,0.75h-0.3017l-0.8174,11.4463c-0.103,1.4389 -1.3005,2.5537 -2.7432,2.5537h-8.27536c-1.44264,0 -2.6402,-1.1148 -2.74316,-2.5537l-0.81738,-11.4463h-0.30176c-0.41421,0 -0.75,-0.33579 -0.75,-0.75c0,-0.41421 0.33579,-0.75 0.75,-0.75h4.25v-2.25c0,-0.9665 0.7835,-1.75 1.75,-1.75zM6.61517,19.0889c0.04673,0.6541 0.59128,1.1611 1.24707,1.1611h8.27536c0.6558,0 1.2004,-0.507 1.2471,-1.1611l0.8096,-11.3389h-12.3887zM13.9697,10.9697c0.2929,-0.2929 0.7676,-0.2929 1.0605,0c0.2929,0.2929 0.2929,0.7677 0,1.0606l-1.9697,1.9697l1.9697,1.9697c0.2928,0.2929 0.2929,0.7677 0,1.0606c-0.2929,0.2928 -0.7677,0.2928 -1.0605,0l-1.9698,-1.9698l-1.9697,1.9698c-0.29287,0.2928 -0.76765,0.2928 -1.06053,0c-0.29289,-0.2929 -0.29287,-0.7677 0,-1.0606l1.96973,-1.9697l-1.96973,-1.9697c-0.29287,-0.2929 -0.29286,-0.7677 0,-1.0606c0.29288,-0.2928 0.76765,-0.2928 1.06053,0l1.9697,1.9698zM9.99994,3.75c-0.13807,0 -0.25,0.11193 -0.25,0.25v2.25h4.49996v-2.25c0,-0.13807 -0.1119,-0.25 -0.25,-0.25z" fill="#002B51"/>
</svg>
