<svg width="24" height="24" viewBox="0 0 24 24" fill="none" xmlns="http://www.w3.org/2000/svg">
<path fill-rule="evenodd" clip-rule="evenodd" d="M8.24988 4C8.24988 3.0335 9.03338 2.25 9.99988 2.25H13.9999C14.9664 2.25 15.7499 3.0335 15.7499 4V6.25H18.9999H19.9999C20.4141 6.25 20.7499 6.58579 20.7499 7C20.7499 7.41421 20.4141 7.75 19.9999 7.75H19.6982L18.8806 19.1959C18.7779 20.635 17.5804 21.75 16.1376 21.75H7.86212C6.41936 21.75 5.2219 20.635 5.1191 19.1959L4.30154 7.75H3.99988C3.58566 7.75 3.24988 7.41421 3.24988 7C3.24988 6.58579 3.58566 6.25 3.99988 6.25H4.99988H8.24988V4ZM14.2499 4V6.25H9.74988V4C9.74988 3.86193 9.86181 3.75 9.99988 3.75H13.9999C14.1379 3.75 14.2499 3.86193 14.2499 4ZM9.99992 10.25C10.4141 10.25 10.7499 10.5858 10.7499 11V17C10.7499 17.4142 10.4141 17.75 9.99992 17.75C9.58571 17.75 9.24992 17.4142 9.24992 17V11C9.24992 10.5858 9.58571 10.25 9.99992 10.25ZM13.9999 10.25C14.4141 10.25 14.7499 10.5858 14.7499 11V17C14.7499 17.4142 14.4141 17.75 13.9999 17.75C13.5857 17.75 13.2499 17.4142 13.2499 17V11C13.2499 10.5858 13.5857 10.25 13.9999 10.25Z" fill="#002B51"/>
</svg>
