<svg width="24" height="24" viewBox="0 0 24 24" fill="none" xmlns="http://www.w3.org/2000/svg">
<path d="M13.9999,2.25c0.9665,0 1.75,0.7835 1.75,1.75v2.25h4.25c0.4142,0 0.75,0.33579 0.75,0.75c0,0.41421 -0.3358,0.75 -0.75,0.75h-0.3018l-0.8174,11.4463c-0.1029,1.4389 -1.3005,2.5537 -2.7431,2.5537h-8.27542c-1.44264,0 -2.6402,-1.1148 -2.74316,-2.5537l-0.81738,-11.4463h-0.30176c-0.41422,0 -0.75,-0.33579 -0.75,-0.75c0,-0.41421 0.33578,-0.75 0.75,-0.75h4.25v-2.25c0,-0.9665 0.7835,-1.75 1.75,-1.75zM15.0302,10.9697c-0.2747,-0.2745 -0.7094,-0.292 -1.004,-0.0517l-0.0566,0.0517l-1.9697,1.9698l-1.9697,-1.9698l-0.05669,-0.0517c-0.29457,-0.2402 -0.72935,-0.2228 -1.00391,0.0517c-0.27452,0.2746 -0.29192,0.7094 -0.05175,1.0039l0.05175,0.0567l1.9697,1.9697l-1.9697,1.9697c-0.29282,0.2929 -0.29275,0.7677 0,1.0606c0.29289,0.2929 0.76766,0.2928 1.0606,0l1.9697,-1.9698l1.9697,1.9698l0.0566,0.0517c0.2946,0.2403 0.7294,0.2228 1.004,-0.0517c0.2745,-0.2746 0.292,-0.7094 0.0517,-1.0039l-0.0517,-0.0567l-1.9698,-1.9697l1.9698,-1.9697l0.0517,-0.0567c0.2403,-0.2945 0.2229,-0.7293 -0.0517,-1.0039zM9.99988,3.75c-0.13807,0 -0.25,0.11193 -0.25,0.25v2.25h4.50002v-2.25c0,-0.13807 -0.112,-0.25 -0.25,-0.25z" fill="#002B51"/>
</svg>
