<svg width="24" height="24" viewBox="0 0 24 24" fill="none" xmlns="http://www.w3.org/2000/svg">
<path fill-rule="evenodd" clip-rule="evenodd" d="M8.24988 4C8.24988 3.0335 9.03338 2.25 9.99988 2.25H13.9999C14.9664 2.25 15.7499 3.0335 15.7499 4V6.25H18.9999H19.9999C20.4141 6.25 20.7499 6.58579 20.7499 7C20.7499 7.41421 20.4141 7.75 19.9999 7.75H19.6982L18.8807 19.1959C18.7779 20.635 17.5804 21.75 16.1376 21.75H7.86212C6.41936 21.75 5.2219 20.635 5.1191 19.1959L4.30154 7.75H3.99988C3.58566 7.75 3.24988 7.41421 3.24988 7C3.24988 6.58579 3.58566 6.25 3.99988 6.25H4.99988H8.24988V4ZM14.2499 4V6.25H9.74988V4C9.74988 3.86193 9.86181 3.75 9.99988 3.75H13.9999C14.1379 3.75 14.2499 3.86193 14.2499 4ZM15.0303 10.9697C15.3232 11.2625 15.3232 11.7374 15.0303 12.0303L13.0606 14L15.0303 15.9697C15.3232 16.2625 15.3232 16.7374 15.0303 17.0303C14.7374 17.3232 14.2625 17.3232 13.9696 17.0303L11.9999 15.0606L10.0303 17.0303C9.73737 17.3232 9.26249 17.3232 8.9696 17.0303C8.67671 16.7374 8.67671 16.2625 8.9696 15.9697L10.9393 14L8.9696 12.0303C8.67671 11.7375 8.6767 11.2626 8.9696 10.9697C9.26249 10.6768 9.73736 10.6768 10.0303 10.9697L11.9999 12.9393L13.9696 10.9697C14.2625 10.6768 14.7374 10.6768 15.0303 10.9697Z" fill="#002B51"/>
</svg>
