<svg width="24" height="24" viewBox="0 0 24 24" fill="none" xmlns="http://www.w3.org/2000/svg">
<path d="M13.9999,2.25c0.9665,0 1.75,0.7835 1.75,1.75v2.25h4.25c0.4143,0 0.75,0.33579 0.75,0.75c0,0.41421 -0.3357,0.75 -0.75,0.75h-0.3017l-0.8174,11.4463c-0.103,1.4389 -1.3005,2.5537 -2.7432,2.5537h-8.27536c-1.44264,0 -2.6402,-1.1148 -2.74316,-2.5537l-0.81738,-11.4463h-0.30176c-0.41421,0 -0.75,-0.33579 -0.75,-0.75c0,-0.41421 0.33579,-0.75 0.75,-0.75h4.25v-2.25c0,-0.9665 0.7835,-1.75 1.75,-1.75zM6.61517,19.0889c0.04673,0.6541 0.59128,1.1611 1.24707,1.1611h8.27536c0.6558,0 1.2004,-0.507 1.2471,-1.1611l0.8096,-11.3389h-12.3887zM14.0263,10.918c0.2945,-0.2403 0.7293,-0.2228 1.0039,0.0517c0.2746,0.2746 0.2921,0.7094 0.0518,1.0039l-0.0518,0.0567l-1.9697,1.9697l1.9697,1.9697l0.0518,0.0567c0.2403,0.2945 0.2228,0.7293 -0.0518,1.0039c-0.2746,0.2745 -0.7093,0.292 -1.0039,0.0517l-0.0566,-0.0517l-1.9698,-1.9698l-1.9697,1.9698c-0.29288,0.2928 -0.76765,0.2929 -1.06053,0c-0.29276,-0.2929 -0.29283,-0.7677 0,-1.0606l1.96973,-1.9697l-1.96973,-1.9697l-0.05176,-0.0567c-0.24017,-0.2945 -0.22278,-0.7293 0.05176,-1.0039c0.27455,-0.2745 0.70933,-0.2919 1.0039,-0.0517l0.05663,0.0517l1.9697,1.9698l1.9698,-1.9698zM9.99994,3.75c-0.13807,0 -0.25,0.11193 -0.25,0.25v2.25h4.49996v-2.25c0,-0.13807 -0.1119,-0.25 -0.25,-0.25z" fill="#002B51"/>
</svg>
