<svg width="24" height="24" viewBox="0 0 24 24" fill="none" xmlns="http://www.w3.org/2000/svg">
<path fill-rule="evenodd" clip-rule="evenodd" d="M10 2.25C9.0335 2.25 8.25 3.0335 8.25 4V6.25H5H4C3.58579 6.25 3.25 6.58579 3.25 7C3.25 7.41421 3.58579 7.75 4 7.75H4.30166L5.11923 19.1959C5.22202 20.635 6.41948 21.75 7.86224 21.75H16.1378C17.5805 21.75 18.778 20.635 18.8808 19.1959L19.6983 7.75H20C20.4142 7.75 20.75 7.41421 20.75 7C20.75 6.58579 20.4142 6.25 20 6.25H19H15.75V4C15.75 3.0335 14.9665 2.25 14 2.25H10ZM14.25 6.25V4C14.25 3.86193 14.1381 3.75 14 3.75H10C9.86193 3.75 9.75 3.86193 9.75 4V6.25H14.25Z" fill="#002B51"/>
</svg>
