<svg width="24" height="24" viewBox="0 0 24 24" fill="none" xmlns="http://www.w3.org/2000/svg">
<path fill-rule="evenodd" clip-rule="evenodd" d="M10,3.75c-0.13807,0 -0.25,0.11193 -0.25,0.25v2.25h4.5v-2.25c0,-0.13807 -0.1119,-0.25 -0.25,-0.25zM8.25,6.25v-2.25c0,-0.9665 0.7835,-1.75 1.75,-1.75h4c0.9665,0 1.75,0.7835 1.75,1.75v2.25h4.25c0.4142,0 0.75,0.33579 0.75,0.75c0,0.41421 -0.3358,0.75 -0.75,0.75h-0.3018l-0.8173,11.4463c-0.103,1.4389 -1.3006,2.5537 -2.7432,2.5537h-8.2754c-1.44263,0 -2.6402,-1.1148 -2.74316,-2.5537l-0.81738,-11.4463h-0.30176c-0.41421,0 -0.75,-0.33579 -0.75,-0.75c0,-0.41421 0.33579,-0.75 0.75,-0.75z" fill="#002B51"/>
</svg>
