<svg width="24" height="24" viewBox="0 0 24 24" fill="none" xmlns="http://www.w3.org/2000/svg">
<path d="M8.83282,5.04291c0.80475,-0.51565 1.91648,0.05219 1.91698,1.05859v11.7969c-0.0005,1.0734 -1.26515,1.6472 -2.07323,0.9404l-6.74023,-5.8984c-0.56879,-0.4981 -0.56889,-1.3829 0,-1.8809l6.74023,-5.89843zM19.8328,5.04291c0.8048,-0.51565 1.9165,0.05219 1.917,1.05859v11.7969c-0.0005,1.0734 -1.2652,1.6472 -2.0732,0.9404l-6.7403,-5.8984c-0.5687,-0.498 -0.5688,-1.3829 0,-1.8809l6.7403,-5.89843zM3.13947,11.9999l6.11035,5.3467v-10.69432zM14.1395,11.9999l6.1103,5.3467v-10.69432z" fill="#002B51"/>
</svg>
