<svg width="24" height="24" viewBox="0 0 24 24" fill="none" xmlns="http://www.w3.org/2000/svg">
<path fill-rule="evenodd" clip-rule="evenodd" d="M4.32324,5.16116l6.74026,5.89844l0.1006,0.0977c0.4666,0.5094 0.4329,1.3163 -0.1006,1.7832l-6.74026,5.8984c-0.75762,0.6629 -1.91643,0.2 -2.05859,-0.7451l-0.01465,-0.1953v-11.79691l0.01465,-0.19531c0.13268,-0.88214 1.15117,-1.34461 1.90234,-0.86328zM15.3232,5.16117l6.7403,5.89843l0.1006,0.0977c0.4666,0.5094 0.4329,1.3163 -0.1006,1.7832l-6.7403,5.8984c-0.7576,0.6629 -1.9164,0.2 -2.0586,-0.7451l-0.0146,-0.1953v-11.7969l0.0146,-0.19531c0.1327,-0.88214 1.1512,-1.34461 1.9024,-0.86328z" fill="#002B51"/>
</svg>
