<svg width="24" height="24" viewBox="0 0 24 24" fill="none" xmlns="http://www.w3.org/2000/svg">
<path d="M8.83257,5.04249c0.75101,-0.48115 1.76933,-0.01847 1.90233,0.86329l0.0147,0.19531v11.79691l-0.0147,0.1953c-0.1421,0.9451 -1.30096,1.408 -2.05858,0.7451l-6.74024,-5.8984c-0.53301,-0.4669 -0.56707,-1.2739 -0.10058,-1.7832l0.10058,-0.0977l6.74024,-5.89844zM19.8326,5.04249c0.751,-0.48115 1.7693,-0.01848 1.9023,0.86329l0.0147,0.19531v11.79691l-0.0147,0.1953c-0.1421,0.9451 -1.301,1.408 -2.0586,0.7451l-6.7402,-5.8984c-0.533,-0.4669 -0.5671,-1.2739 -0.1006,-1.7832l0.1006,-0.0977l6.7402,-5.89844z" fill="#002B51"/>
</svg>
