<svg width="24" height="24" viewBox="0 0 24 24" fill="none" xmlns="http://www.w3.org/2000/svg">
<path d="M9.63928,3.23901c1.06712,-1.78527 3.65342,-1.78513 4.72072,0l7.9756,13.35059c1.0948,1.8329 -0.2255,4.1598 -2.3604,4.1602h-15.95115c-2.13491,-0.0004 -3.45532,-2.3273 -2.36035,-4.1602zM13.0729,4.00854c-0.4852,-0.81124 -1.6615,-0.81136 -2.1465,0l-7.97559,13.35056c-0.49719,0.833 0.10317,1.8903 1.07324,1.8907h15.95115c0.9701,-0.0004 1.5703,-1.0577 1.0733,-1.8907zM11.9996,14.2498c0.6213,0 1.1249,0.5038 1.125,1.125c0,0.6213 -0.5036,1.125 -1.125,1.125c-0.6211,-0.0002 -1.125,-0.5038 -1.125,-1.125c0.0002,-0.6211 0.504,-1.1249 1.125,-1.125zM11.9996,7.49976c0.4142,0 0.7499,0.3359 0.75,0.75v4.00004c0,0.4142 -0.3358,0.75 -0.75,0.75c-0.414,-0.0002 -0.75,-0.3359 -0.75,-0.75v-4.00004c0.0002,-0.41399 0.3361,-0.74982 0.75,-0.75z" fill="#002B51"/>
</svg>
