<svg width="24" height="24" viewBox="0 0 24 24" fill="none" xmlns="http://www.w3.org/2000/svg">
<path d="M9.6394,3.2392c1.0672,-1.7854 3.6535,-1.78532 4.7207,0l7.9756,13.3506c1.0945,1.8328 -0.2256,4.1597 -2.3604,4.1601h-15.95113c-2.13488,-0.0003 -3.45512,-2.3272 -2.36035,-4.1601zM11.9998,14.2499c-0.6211,0.0003 -1.1249,0.504 -1.125,1.125c0.0001,0.6211 0.5039,1.1248 1.125,1.125c0.6211,0 1.1248,-0.5038 1.125,-1.125c-0.0002,-0.6211 -0.5039,-1.1249 -1.125,-1.125zM11.9998,7.49994c-0.4139,0.00022 -0.7499,0.33609 -0.75,0.75v3.99996c0.0001,0.414 0.336,0.7498 0.75,0.75c0.414,0 0.7498,-0.3359 0.75,-0.75v-3.99996c-0.0002,-0.41401 -0.336,-0.74993 -0.75,-0.75z" fill="#002B51"/>
</svg>
