<svg width="24" height="24" viewBox="0 0 24 24" fill="none" xmlns="http://www.w3.org/2000/svg">
<path fill-rule="evenodd" clip-rule="evenodd" d="M19.8331,5.04294c0.7511,-0.48134 1.7696,-0.01886 1.9023,0.86328l0.0147,0.19531v11.79687l-0.0147,0.1953c-0.1421,0.9452 -1.301,1.4081 -2.0586,0.7451l-6.7402,-5.8984c-0.5335,-0.4668 -0.5673,-1.2737 -0.1006,-1.7832l0.1006,-0.0977l6.7402,-5.8984zM14.1397,12l6.1104,5.3466v-10.69429zM8.83307,5.04295c0.75117,-0.48133 1.76963,-0.01886 1.90233,0.86328l0.0147,0.19531v11.79686l-0.0147,0.1953c-0.1421,0.9452 -1.30096,1.4081 -2.05858,0.7451l-6.74024,-5.8984c-0.53351,-0.4668 -0.56727,-1.2737 -0.10058,-1.7832l0.10058,-0.0976l6.74024,-5.89849zM3.13971,12l6.11035,5.3467v-10.69438z" fill="#002B51"/>
</svg>
