<svg width="24" height="24" viewBox="0 0 24 24" fill="none" xmlns="http://www.w3.org/2000/svg">
<path d="M9.63936,3.24023c1.06714,-1.78581 3.65354,-1.7858 4.72074,0l7.9755,13.35057c1.0942,1.8328 -0.2256,4.1599 -2.3603,4.1602h-15.95118c-2.13484,-0.0002 -3.45469,-2.3273 -2.36035,-4.1602zM11.9997,14.25c-0.621,0.0002 -1.1248,0.504 -1.125,1.125c0.0002,0.621 0.504,1.1248 1.125,1.125c0.6212,-0.0001 1.1248,-0.5039 1.125,-1.125c-0.0002,-0.6211 -0.5038,-1.1249 -1.125,-1.125zM11.9997,7.5c-0.4139,0.00022 -0.7498,0.33609 -0.75,0.75v4c0.0002,0.4139 0.3361,0.7498 0.75,0.75c0.4141,-0.0001 0.7498,-0.336 0.75,-0.75v-4c-0.0002,-0.41401 -0.336,-0.74993 -0.75,-0.75z" fill="#002B51"/>
</svg>
