<svg width="24" height="24" viewBox="0 0 24 24" fill="none" xmlns="http://www.w3.org/2000/svg">
<path d="M9.63929,3.24c1.06711,-1.78577 3.65351,-1.78571 4.72071,0l7.9756,13.3506c1.0946,1.8329 -0.2254,4.16 -2.3604,4.1601h-15.95114c-2.13489,-0.0002 -3.45496,-2.3272 -2.36035,-4.1601zM13.0729,4.00954c-0.4851,-0.81182 -1.6615,-0.81188 -2.1465,0l-7.97558,13.35056c-0.49683,0.833 0.10319,1.8904 1.07324,1.8906h15.95114c0.9701,-0.0001 1.5701,-1.0576 1.0733,-1.8906zM11.9996,14.2498c0.6213,0 1.1249,0.5038 1.125,1.125c0,0.6213 -0.5036,1.125 -1.125,1.125c-0.6211,-0.0002 -1.125,-0.5038 -1.125,-1.125c0.0002,-0.6211 0.504,-1.1248 1.125,-1.125zM11.9996,7.49977c0.4142,0 0.7499,0.3359 0.75,0.75v4.00003c0,0.4142 -0.3357,0.75 -0.75,0.75c-0.414,-0.0002 -0.75,-0.3359 -0.75,-0.75v-4.00003c0.0002,-0.41398 0.3361,-0.74982 0.75,-0.75z" fill="#002B51"/>
</svg>
