<svg width="24" height="24" viewBox="0 0 24 24" fill="none" xmlns="http://www.w3.org/2000/svg">
<path d="M2.26465,5.90658c0.13268,-0.88214 1.15117,-1.34461 1.90234,-0.86328l0.15625,0.11817l6.74026,5.89843l0.1006,0.0977c0.4665,0.5094 0.4328,1.3164 -0.1006,1.7832l-6.74026,5.8984c-0.75753,0.6626 -1.91621,0.1997 -2.05859,-0.7451l-0.01465,-0.1953v-11.7969zM13.2646,5.90658c0.1327,-0.88214 1.1512,-1.34461 1.9024,-0.86328l0.1562,0.11817l6.7403,5.89843l0.1006,0.0977c0.4665,0.5094 0.4328,1.3164 -0.1006,1.7832l-6.7403,5.8984c-0.7575,0.6626 -1.9162,0.1997 -2.0586,-0.7451l-0.0146,-0.1953v-11.7969zM3.75,17.347l6.11035,-5.3467l-6.11035,-5.34762zM14.75,17.347l6.1104,-5.3467l-6.1104,-5.34762z" fill="#002B51"/>
</svg>
