<svg width="24" height="24" viewBox="0 0 24 24" fill="none" xmlns="http://www.w3.org/2000/svg">
<path fill-rule="evenodd" clip-rule="evenodd" d="M9.86106 12L3.75 17.3471V6.6528L9.86106 12ZM4.32313 5.16114C3.5149 4.45394 2.25 5.02792 2.25 6.10186V17.8981C2.25 18.972 3.5149 19.546 4.32313 18.8388L11.0638 12.9407C11.633 12.4427 11.633 11.5573 11.0638 11.0593L4.32313 5.16114ZM20.8611 12L14.75 17.3472V6.65281L20.8611 12ZM15.3231 5.16115C14.5149 4.45395 13.25 5.02793 13.25 6.10187V17.8981C13.25 18.9721 14.5149 19.546 15.3231 18.8388L22.0638 12.9407C22.633 12.4427 22.633 11.5573 22.0638 11.0593L15.3231 5.16115Z" fill="#002B51"/>
</svg>
