<svg width="24" height="24" viewBox="0 0 24 24" fill="none" xmlns="http://www.w3.org/2000/svg">
<path d="M8.8326,5.04293c0.75112,-0.48122 1.7696,-0.01872 1.9023,0.86328l0.0147,0.19532v11.79687l-0.0147,0.1953c-0.1422,0.945 -1.30097,1.408 -2.05855,0.7451l-6.74023,-5.8984c-0.53313,-0.4668 -0.56691,-1.2738 -0.10059,-1.7832l0.10059,-0.0977l6.74023,-5.8984zM19.8326,5.04293c0.7511,-0.48123 1.7696,-0.01873 1.9023,0.86328l0.0147,0.19532v11.79687l-0.0147,0.1953c-0.1422,0.945 -1.301,1.408 -2.0585,0.7451l-6.7403,-5.8984c-0.5331,-0.4668 -0.5669,-1.2738 -0.1006,-1.7832l0.1006,-0.0977l6.7403,-5.8984zM3.13924,12l6.11035,5.3466v-10.69429zM14.1392,12l6.1104,5.3466v-10.69429z" fill="#002B51"/>
</svg>
