<svg width="24" height="24" viewBox="0 0 24 24" fill="none" xmlns="http://www.w3.org/2000/svg">
<path d="M8.8326,5.04249c0.75101,-0.48114 1.7693,-0.01847 1.9023,0.86328l0.0147,0.19531v11.79692l-0.0147,0.1953c-0.1421,0.9451 -1.30093,1.408 -2.05855,0.7451l-6.74023,-5.8984c-0.56863,-0.4981 -0.56889,-1.383 0,-1.8809l6.74023,-5.89844zM19.8326,5.04249c0.751,-0.48115 1.7693,-0.01848 1.9023,0.86328l0.0147,0.19531v11.79692l-0.0147,0.1953c-0.1421,0.9451 -1.3009,1.408 -2.0586,0.7451l-6.7402,-5.8984c-0.5686,-0.4981 -0.5689,-1.383 0,-1.8809l6.7402,-5.89844zM3.13924,11.9995l6.11035,5.3467v-10.69433zM14.1392,11.9995l6.1104,5.3467v-10.69433z" fill="#002B51"/>
</svg>
