<svg width="24" height="24" viewBox="0 0 24 24" fill="none" xmlns="http://www.w3.org/2000/svg">
<path fill-rule="evenodd" clip-rule="evenodd" d="M15,5.0246c0.3592,0 0.668,0.25474 0.7363,0.60745l1.0883,5.62115c0.0582,-0.0021 0.1167,-0.0032 0.1754,-0.0032c2.6234,0 4.75,2.1266 4.75,4.75c0,2.6234 -2.1266,4.75 -4.75,4.75c-2.6234,0 -4.75,-2.1266 -4.75,-4.75c0,-2.0443 1.2914,-3.7869 3.1029,-4.4567l-0.1665,-0.8599c-0.172,0.0152 -0.3992,0.0377 -0.6668,0.0694c-0.6307,0.0747 -1.4772,0.1999 -2.351,0.4014c-1.0545,0.2432 -1.9333,0.9087 -2.56999,1.5595c-0.31377,0.3207 -0.55661,0.6255 -0.71996,0.8487c-0.08142,0.1112 -0.14237,0.2012 -0.18184,0.2615c-0.01972,0.0301 -0.03401,0.0527 -0.04276,0.0668l-0.00893,0.0144l-0.00048,0.0008l-0.00022,0.0004l-0.00018,0.0003l-0.00926,0.0151l-0.81716,1.3001c0.57653,0.5865 0.93218,1.3908 0.93218,2.2782c0,1.7949 -1.45507,3.25 -3.25,3.25c-1.79493,0 -3.25,-1.4551 -3.25,-3.25c0,-1.7949 1.45507,-3.25 3.25,-3.25c0.36681,0 0.71943,0.0608 1.04833,0.1728l0.62158,-0.9889l-1.19555,-3.2936h-0.47436c-0.41421,0 -0.75,-0.33576 -0.75,-0.74997c0,-0.41422 0.33579,-0.75 0.75,-0.75h1h2c0.41421,0 0.75,0.33578 0.75,0.75c0,0.41421 -0.33579,0.74997 -0.75,0.74997h-0.92987l0.66609,1.835c0.09011,-0.101 0.18688,-0.205 0.29017,-0.3106c0.73828,-0.7546 1.85951,-1.6387 3.30501,-1.97212c0.9431,-0.21751 1.8466,-0.3506 2.5117,-0.42939c0.2107,-0.02497 0.3984,-0.04458 0.5568,-0.05975l-0.5186,-2.67884h-1.6313c-0.4142,0 -0.75,-0.33579 -0.75,-0.75c0,-0.41422 0.3358,-0.75 0.75,-0.75zM13.75,16c0,1.7949 1.4551,3.25 3.25,3.25c1.7949,0 3.25,-1.4551 3.25,-3.25c0,-1.7565 -1.3935,-3.1876 -3.1353,-3.248l0.6216,3.2107c0.0788,0.4067 -0.1871,0.8001 -0.5937,0.8789c-0.4067,0.0787 -0.8002,-0.1871 -0.8789,-0.5938l-0.62,-3.2021c-1.1177,0.5139 -1.8937,1.6435 -1.8937,2.9543zM5.5,15.75c-0.9665,0 -1.75,0.7835 -1.75,1.75c0,0.9665 0.7835,1.75 1.75,1.75c0.9665,0 1.75,-0.7835 1.75,-1.75c0,-0.3459 -0.10033,-0.6683 -0.27347,-0.9398l-0.84155,1.3389c-0.22042,0.3507 -0.68341,0.4563 -1.0341,0.2359c-0.35069,-0.2204 -0.45629,-0.6834 -0.23586,-1.0341l0.84151,-1.3388c-0.06773,-0.008 -0.13665,-0.0121 -0.20653,-0.0121z" fill="#002B51"/>
</svg>
