<svg width="24" height="24" viewBox="0 0 24 24" fill="none" xmlns="http://www.w3.org/2000/svg">
<path fill-rule="evenodd" clip-rule="evenodd" d="M21.7499,15.9999c0,2.6234 -2.1267,4.75 -4.75,4.75c-2.6234,0 -4.75,-2.1266 -4.75,-4.75c0,-2.6233 2.1266,-4.75 4.75,-4.75c2.6233,0 4.75,2.1267 4.75,4.75zM5.49988,14.2499c-1.79493,0 -3.25,1.4551 -3.25,3.25c0,1.795 1.45507,3.25 3.25,3.25c1.79492,0 3.25,-1.455 3.25,-3.25c0,-1.7949 -1.45508,-3.25 -3.25,-3.25zM11.9999,5.7746c0,-0.41422 0.3358,-0.75 0.75,-0.75h2.25c0.3592,0 0.668,0.25474 0.7363,0.60745l2,10.33065c0.0787,0.4067 -0.1871,0.8001 -0.5938,0.8789c-0.4066,0.0787 -0.8001,-0.1871 -0.8789,-0.5938l-1.0772,-5.5644c-0.1721,0.0152 -0.3993,0.0377 -0.6669,0.0694c-0.6306,0.0747 -1.4771,0.1999 -2.351,0.4014c-1.0544,0.2432 -1.9332,0.9087 -2.56992,1.5595c-0.31376,0.3207 -0.5566,0.6255 -0.71995,0.8487c-0.08142,0.1112 -0.14238,0.2012 -0.18184,0.2615c-0.01972,0.0301 -0.03401,0.0527 -0.04276,0.0668l-0.00893,0.0144l-0.00048,0.0008l-0.00022,0.0004l-0.00019,0.0003l-0.00925,0.0151l-2.5,3.9774c-0.22043,0.3507 -0.68341,0.4563 -1.0341,0.2359c-0.35069,-0.2204 -0.45629,-0.6834 -0.23587,-1.0341l2.3049,-3.667l-1.19555,-3.2936h-0.47436c-0.41422,0 -0.75,-0.33576 -0.75,-0.74997c0,-0.41422 0.33578,-0.75 0.75,-0.75h1h2c0.41421,0 0.75,0.33578 0.75,0.75c0,0.41421 -0.33579,0.74997 -0.75,0.74997h-0.92987l0.66609,1.835c0.09011,-0.101 0.18688,-0.205 0.29017,-0.3106c0.73828,-0.7546 1.85943,-1.6387 3.30503,-1.97212c0.9431,-0.21751 1.8465,-0.3506 2.5117,-0.42939c0.2107,-0.02497 0.3984,-0.04458 0.5568,-0.05975l-0.5186,-2.67884h-1.6313c-0.4142,0 -0.75,-0.33579 -0.75,-0.75z" fill="#002B51"/>
</svg>
