<svg width="24" height="24" viewBox="0 0 24 24" fill="none" xmlns="http://www.w3.org/2000/svg">
<path fill-rule="evenodd" clip-rule="evenodd" d="M12.75 5.0246C12.3358 5.0246 12 5.36038 12 5.7746C12 6.18881 12.3358 6.5246 12.75 6.5246H14.3813L14.8999 9.20344C14.7415 9.21861 14.5538 9.23822 14.3431 9.26319C13.678 9.34198 12.7745 9.47507 11.8314 9.69258C10.3859 10.026 9.26467 10.9101 8.52639 11.6647C8.4231 11.7703 8.32633 11.8743 8.23622 11.9753L7.57013 10.1403H8.5C8.91421 10.1403 9.25 9.80454 9.25 9.39033C9.25 8.97611 8.91421 8.64033 8.5 8.64033H6.5H5.5C5.08579 8.64033 4.75 8.97611 4.75 9.39033C4.75 9.80454 5.08579 10.1403 5.5 10.1403H5.97436L7.16991 13.4339L6.54833 14.4228C6.21943 14.3108 5.86681 14.25 5.5 14.25C3.70507 14.25 2.25 15.7051 2.25 17.5C2.25 19.2949 3.70507 20.75 5.5 20.75C7.29493 20.75 8.75 19.2949 8.75 17.5C8.75 16.6126 8.39435 15.8083 7.81782 15.2218L8.63498 13.9217L8.64424 13.9066L8.64442 13.9063L8.64464 13.9059L8.64512 13.9051L8.65405 13.8907C8.6628 13.8766 8.67709 13.854 8.69681 13.8239C8.73628 13.7636 8.79723 13.6736 8.87865 13.5624C9.042 13.3392 9.28484 13.0344 9.59861 12.7137C10.2353 12.0629 11.1141 11.3974 12.1686 11.1542C13.0424 10.9527 13.8889 10.8275 14.5196 10.7528C14.7872 10.7211 15.0144 10.6986 15.1864 10.6834L15.3529 11.5433C13.5414 12.2131 12.25 13.9557 12.25 16C12.25 18.6234 14.3766 20.75 17 20.75C19.6234 20.75 21.75 18.6234 21.75 16C21.75 13.3766 19.6234 11.25 17 11.25C16.9413 11.25 16.8828 11.2511 16.8246 11.2532L15.7363 5.63205C15.668 5.27934 15.3592 5.0246 15 5.0246H12.75ZM15.6437 13.0457L16.2637 16.2478C16.3424 16.6545 16.7359 16.9203 17.1426 16.8416C17.5492 16.7628 17.8151 16.3694 17.7363 15.9627L17.1147 12.752C18.8565 12.8124 20.25 14.2435 20.25 16C20.25 17.7949 18.7949 19.25 17 19.25C15.2051 19.25 13.75 17.7949 13.75 16C13.75 14.6892 14.526 13.5596 15.6437 13.0457ZM5.70653 15.7621L4.86502 17.1009C4.64459 17.4516 4.75019 17.9146 5.10088 18.135C5.45157 18.3554 5.91456 18.2498 6.13498 17.8991L6.97653 16.5602C7.14967 16.8317 7.25 17.1541 7.25 17.5C7.25 18.4665 6.4665 19.25 5.5 19.25C4.5335 19.25 3.75 18.4665 3.75 17.5C3.75 16.5335 4.5335 15.75 5.5 15.75C5.56988 15.75 5.6388 15.7541 5.70653 15.7621Z" fill="#002B51"/>
</svg>
