<svg width="24" height="24" viewBox="0 0 24 24" fill="none" xmlns="http://www.w3.org/2000/svg">
<path d="M5.49988,14.2502c0.36636,0 0.71831,0.0611 1.04687,0.1728l-1.68164,2.6778c-0.22038,0.3506 -0.11516,0.8137 0.23535,1.0341c0.35055,0.2204 0.81365,0.115 1.03418,-0.2353l1.68164,-2.6777c0.57691,0.5865 0.9336,1.3906 0.9336,2.2783c-0.00013,1.7948 -1.45516,3.25 -3.25,3.25c-1.79485,0 -3.24987,-1.4552 -3.25,-3.25c0,-1.7949 1.45507,-3.25 3.25,-3.25zM16.9999,11.2502c2.6233,0 4.75,2.1266 4.75,4.75c-0.0002,2.6232 -2.1268,4.75 -4.75,4.75c-2.6233,0 -4.7499,-2.1268 -4.75,-4.75c0,-2.0442 1.2912,-3.7872 3.1025,-4.457l0.9111,4.705c0.079,0.4064 0.4724,0.6725 0.879,0.5938c0.4065,-0.0787 0.6722,-0.4724 0.5937,-0.8789l-0.9121,-4.709c0.0583,-0.0021 0.1169,-0.0039 0.1758,-0.0039zM14.9999,5.0246c0.3592,0 0.668,0.25473 0.7363,0.60742l1.0879,5.62208c-0.5157,0.0188 -1.0106,0.1186 -1.4717,0.2891l-0.166,-0.8594c-0.172,0.0152 -0.3994,0.0376 -0.667,0.0693c-0.6306,0.0747 -1.4769,0.1999 -2.3506,0.4014c-1.0544,0.2432 -1.9336,0.9087 -2.57029,1.5596c-0.31369,0.3206 -0.5564,0.6254 -0.71973,0.8486c-0.08115,0.1109 -0.14217,0.2005 -0.18164,0.2607c-0.01971,0.0301 -0.03422,0.0534 -0.04297,0.0674c-0.00437,0.007 -0.00721,0.0121 -0.00878,0.0147l-0.00098,0.0009c0.00001,0 0.00002,-0.0003 -0.00098,-0.0009c-0.00312,0.0052 -0.00553,0.0114 -0.00879,0.0166l-0.81836,1.2998c-0.35149,-0.3574 -0.78448,-0.6339 -1.26953,-0.7989l0.62207,-0.9892l-1.19433,-3.293h-0.47461c-0.41405,0 -0.74974,-0.336 -0.75,-0.74999c0,-0.41422 0.33578,-0.75 0.75,-0.75h3c0.41421,0 0.75,0.33578 0.75,0.75c-0.00026,0.41399 -0.33595,0.74999 -0.75,0.74999h-0.92969l0.66602,1.834c0.09002,-0.1008 0.18686,-0.2051 0.29004,-0.3106c0.73821,-0.7545 1.85945,-1.6382 3.30465,-1.97163c0.943,-0.21748 1.8466,-0.35089 2.5118,-0.42969c0.2104,-0.02493 0.3983,-0.04246 0.5566,-0.05762l-0.5186,-2.68066h-1.6308c-0.4142,0 -0.75,-0.33579 -0.75,-0.75c0,-0.41422 0.3358,-0.75 0.75,-0.75z" fill="#002B51"/>
</svg>
