<svg width="24" height="24" viewBox="0 0 24 24" fill="none" xmlns="http://www.w3.org/2000/svg">
<path fill-rule="evenodd" clip-rule="evenodd" d="M16.8245,11.2532c0.0583,-0.0021 0.1168,-0.0032 0.1755,-0.0032c2.6234,0 4.75,2.1266 4.75,4.75c0,2.6234 -2.1266,4.75 -4.75,4.75c-2.6234,0 -4.75,-2.1266 -4.75,-4.75c0,-2.0443 1.2914,-3.7869 3.1029,-4.4567l-0.1664,-0.8595c-0.172,0.0152 -0.3993,0.0376 -0.667,0.0693c-0.473,0.0561 -1.0677,0.1399 -1.7041,0.2637l-0.6465,0.1377c-1.0544,0.2432 -1.9335,0.9087 -2.57027,1.5596c-0.31369,0.3206 -0.5564,0.6254 -0.71972,0.8486c-0.08116,0.1109 -0.14218,0.2005 -0.18164,0.2607c-0.01972,0.0301 -0.03422,0.0534 -0.04297,0.0674c-0.00298,0.0048 -0.00525,0.0087 -0.00689,0.0115c-0.00077,0.0013 -0.0014,0.0023 -0.0019,0.0032l-0.00098,0.0009c0.00001,0 0.00002,-0.0003 -0.00098,-0.0009l-0.00878,0.0166l-0.81694,1.2997c0.57653,0.5865 0.93217,1.3908 0.93217,2.2782c0,1.7949 -1.45507,3.25 -3.25,3.25c-1.79493,0 -3.25,-1.4551 -3.25,-3.25c0,-1.7949 1.45507,-3.25 3.25,-3.25c0.36659,0 0.71901,0.0607 1.04775,0.1726l0.6212,-0.9888l-1.19434,-3.293h-0.47461c-0.41405,0 -0.74974,-0.336 -0.75,-0.74999c0,-0.41422 0.33579,-0.75 0.75,-0.75h3l0.07715,0.00293c0.37799,0.0386 0.67285,0.35888 0.67285,0.74707c-0.00024,0.38796 -0.29502,0.70749 -0.67285,0.74609l-0.07715,0.0039h-0.92969l0.66602,1.834c0.09002,-0.1008 0.18686,-0.2051 0.29004,-0.3106c0.73822,-0.7545 1.85943,-1.6382 3.30473,-1.97163l0.6972,-0.14747c0.683,-0.13285 1.3157,-0.22313 1.8145,-0.28222c0.1933,-0.0229 0.3676,-0.03955 0.5173,-0.05386c0.0133,-0.00127 0.0264,-0.00252 0.0393,-0.00376l-0.5185,-2.68066h-1.6309c-0.4142,0 -0.75,-0.33579 -0.75,-0.75c0,-0.41422 0.3358,-0.75 0.75,-0.75h2.25c0.3592,0 0.668,0.25473 0.7363,0.60742zM13.75,16c0,1.7949 1.4551,3.25 3.25,3.25c1.7949,0 3.25,-1.4551 3.25,-3.25c0,-1.7565 -1.3935,-3.1876 -3.1353,-3.248l0.6216,3.2111l0.0108,0.0752c0.0344,0.3787 -0.2231,0.7298 -0.6045,0.8037c-0.3812,0.0737 -0.7507,-0.1557 -0.8604,-0.5196l-0.0185,-0.0742l-0.62,-3.2025c-1.1177,0.5139 -1.8937,1.6435 -1.8937,2.9543zM5.5,15.75c-0.9665,0 -1.75,0.7835 -1.75,1.75c0,0.9665 0.7835,1.75 1.75,1.75c0.9665,0 1.75,-0.7835 1.75,-1.75c0,-0.3458 -0.10032,-0.6682 -0.27344,-0.9397l-0.84179,1.3393c-0.22054,0.3503 -0.68364,0.4557 -1.03418,0.2353c-0.35051,-0.2204 -0.45573,-0.6835 -0.23536,-1.0341l0.84104,-1.3388c-0.06765,-0.0079 -0.13648,-0.012 -0.20627,-0.012z" fill="#002B51"/>
</svg>
