<svg width="24" height="24" viewBox="0 0 24 24" fill="none" xmlns="http://www.w3.org/2000/svg">
<path d="M15,5.0246c0.3592,0 0.668,0.25473 0.7363,0.60742l1.0879,5.62208c0.0584,-0.0021 0.1169,-0.0039 0.1758,-0.0039c2.6234,0 4.75,2.1266 4.75,4.75c-0.0001,2.6233 -2.1267,4.75 -4.75,4.75c-2.6233,0 -4.7499,-2.1267 -4.75,-4.75c0,-2.0442 1.2912,-3.7872 3.1025,-4.457l-0.166,-0.8594c-0.172,0.0152 -0.3993,0.0376 -0.667,0.0693c-0.6305,0.0747 -1.4769,0.1999 -2.3506,0.4014c-1.0544,0.2432 -1.9335,0.9087 -2.57027,1.5596c-0.31369,0.3206 -0.5564,0.6254 -0.71972,0.8486c-0.08116,0.1109 -0.14218,0.2005 -0.18164,0.2607c-0.01972,0.0301 -0.03422,0.0534 -0.04297,0.0674c-0.00438,0.007 -0.00722,0.0121 -0.00879,0.0147l-0.00098,0.0009c0.00001,0 0.00002,-0.0003 -0.00098,-0.0009c-0.00312,0.0052 -0.00553,0.0114 -0.00878,0.0166l-0.81836,1.3007c0.57663,0.5866 0.93359,1.3899 0.93359,2.2774c-0.0001,1.7948 -1.45514,3.25 -3.25,3.25c-1.79486,0 -3.2499,-1.4552 -3.25,-3.25c0,-1.7949 1.45507,-3.25 3.25,-3.25c0.36635,0 0.71832,0.0611 1.04688,0.1728l0.62207,-0.9892l-1.19434,-3.293h-0.47461c-0.41405,0 -0.74974,-0.336 -0.75,-0.74999c0,-0.41422 0.33579,-0.75 0.75,-0.75h3c0.41421,0 0.75,0.33578 0.75,0.75c-0.00026,0.41399 -0.33595,0.74999 -0.75,0.74999h-0.92969l0.66602,1.834c0.09002,-0.1008 0.18686,-0.2051 0.29004,-0.3106c0.73822,-0.7545 1.85943,-1.6382 3.30473,-1.97163c0.9429,-0.21748 1.8466,-0.35089 2.5117,-0.42969c0.2104,-0.02493 0.3983,-0.04246 0.5566,-0.05762l-0.5185,-2.68066h-1.6309c-0.4142,0 -0.75,-0.33579 -0.75,-0.75c0,-0.41422 0.3358,-0.75 0.75,-0.75zM5.5,15.7502c-0.9665,0 -1.75,0.7835 -1.75,1.75c0.0001,0.9664 0.78356,1.75 1.75,1.75c0.96644,0 1.7499,-0.7836 1.75,-1.75c0,-0.3456 -0.10151,-0.6671 -0.27441,-0.9385l-0.84082,1.3379c-0.22054,0.3503 -0.68364,0.4557 -1.03418,0.2353c-0.35051,-0.2204 -0.45573,-0.6835 -0.23536,-1.0341l0.83985,-1.3379c-0.06731,-0.0079 -0.13566,-0.0127 -0.20508,-0.0127zM17.7363,15.9631c0.0785,0.4065 -0.1872,0.8002 -0.5937,0.8789c-0.4065,0.0787 -0.8,-0.1874 -0.8789,-0.5938l-0.6201,-3.2021c-1.1176,0.514 -1.8936,1.6434 -1.8936,2.9541c0.0001,1.7948 1.4551,3.25 3.25,3.25c1.7949,0 3.2499,-1.4552 3.25,-3.25c0,-1.7567 -1.3937,-3.1879 -3.1357,-3.2481z" fill="#002B51"/>
</svg>
