<svg width="24" height="24" viewBox="0 0 24 24" fill="none" xmlns="http://www.w3.org/2000/svg">
<path fill-rule="evenodd" clip-rule="evenodd" d="M1.5 4.75C1.08579 4.75 0.75 5.08579 0.75 5.5V17.5C0.75 17.9142 1.08579 18.25 1.5 18.25H2.85352C3.17998 19.4043 4.24122 20.25 5.5 20.25C6.75878 20.25 7.82002 19.4043 8.14648 18.25H14.5H15.8535C16.18 19.4043 17.2412 20.25 18.5 20.25C19.7588 20.25 20.82 19.4043 21.1465 18.25H21.5C22.4665 18.25 23.25 17.4665 23.25 16.5V12.5C23.25 12.3641 23.2131 12.2307 23.1431 12.1141L20.4344 7.59963C20.1182 7.07252 19.5485 6.75 18.9338 6.75H17.5H15.5C15.3619 6.75 15.25 6.63807 15.25 6.5V5.5C15.25 5.08579 14.9142 4.75 14.5 4.75H1.5ZM17.25 17.5C17.25 18.1904 17.8096 18.75 18.5 18.75C19.1904 18.75 19.75 18.1904 19.75 17.5C19.75 16.8096 19.1904 16.25 18.5 16.25C17.8096 16.25 17.25 16.8096 17.25 17.5ZM6.75 17.5C6.75 16.8096 6.19036 16.25 5.5 16.25C4.80964 16.25 4.25 16.8096 4.25 17.5C4.25 18.1904 4.80964 18.75 5.5 18.75C6.19036 18.75 6.75 18.1904 6.75 17.5ZM18.25 11.5V8.25H18.9338C19.0216 8.25 19.103 8.29607 19.1482 8.37138L21.1754 11.75H18.5C18.3619 11.75 18.25 11.6381 18.25 11.5Z" fill="#002B51"/>
</svg>
