<svg width="24" height="24" viewBox="0 0 24 24" fill="none" xmlns="http://www.w3.org/2000/svg">
<path d="M14.5771,4.25391c0.378,0.03862 0.6729,0.35792 0.6729,0.74609v1c0,0.13807 0.1119,0.25 0.25,0.25h3.4062c0.6404,0 1.2295,0.34993 1.5362,0.91211l2.7158,4.97849c0.0601,0.1102 0.0918,0.2339 0.0918,0.3594v4c0,0.9665 -0.7835,1.75 -1.75,1.75h-0.2607c-0.1263,1.4016 -1.3048,2.5 -2.7393,2.5c-1.4345,0 -2.613,-1.0984 -2.7393,-2.5h-7.52144c-0.12631,1.4016 -1.30475,2.5 -2.73926,2.5c-1.43451,0 -2.61295,-1.0984 -2.73926,-2.5h-0.26074c-0.41421,0 -0.75,-0.3358 -0.75,-0.75c0,-0.4142 0.33579,-0.75 0.75,-0.75h0.5c0.01641,0 0.03268,0.0009 0.04883,0.002c0.45489,-0.8913 1.38187,-1.502 2.45117,-1.502c1.06867,0 1.99502,0.6096 2.4502,1.5h5.7998v-11h-9.25c-0.41421,0 -0.75,-0.33579 -0.75,-0.75c0,-0.41421 0.33579,-0.75 0.75,-0.75h10zM5.5,16.75c-0.69036,0 -1.25,0.5596 -1.25,1.25c0,0.6904 0.55964,1.25 1.25,1.25c0.69036,0 1.25,-0.5596 1.25,-1.25c0,-0.6904 -0.55964,-1.25 -1.25,-1.25zM18.5,16.75c-0.6904,0 -1.25,0.5596 -1.25,1.25c0,0.6904 0.5596,1.25 1.25,1.25c0.6904,0 1.25,-0.5596 1.25,-1.25c0,-0.6904 -0.5596,-1.25 -1.25,-1.25zM15.25,16.75h0.7998c0.4552,-0.8904 1.3815,-1.5 2.4502,-1.5c1.0693,0 1.9963,0.6107 2.4512,1.502c0.0161,-0.0011 0.0324,-0.002 0.0488,-0.002h0.5c0.1381,0 0.25,-0.1119 0.25,-0.25v-3.25h-3.25c-0.9665,0 -1.75,-0.7835 -1.75,-1.75v-3.5c0,-0.08766 0.0153,-0.17181 0.043,-0.25h-1.293c-0.085,0 -0.1682,-0.00879 -0.25,-0.02051zM10,11.25c0.4142,0 0.75,0.3358 0.75,0.75c0,0.4142 -0.3358,0.75 -0.75,0.75h-6c-0.41421,0 -0.75,-0.3358 -0.75,-0.75c0,-0.4142 0.33579,-0.75 0.75,-0.75zM18.207,7.75c0.0277,0.07819 0.043,0.16234 0.043,0.25v3.5c0,0.1381 0.1119,0.25 0.25,0.25h2.7373l-2.1113,-3.87012c-0.0439,-0.08016 -0.1284,-0.12988 -0.2198,-0.12988zM8,8.25c0.41421,0 0.75,0.33579 0.75,0.75c0,0.41421 -0.33579,0.75 -0.75,0.75h-6c-0.41421,0 -0.75,-0.33579 -0.75,-0.75c0,-0.41421 0.33579,-0.75 0.75,-0.75z" fill="#002B51"/>
</svg>
