<svg width="24" height="24" viewBox="0 0 24 24" fill="none" xmlns="http://www.w3.org/2000/svg">
<path d="M19.5,1.25c0.4142,0 0.75,0.33579 0.75,0.75v17.5c0,0.4142 -0.3358,0.75 -0.75,0.75h-0.25v1.25c0,0.6904 -0.5596,1.25 -1.25,1.25h-3c-0.6904,0 -1.25,-0.5596 -1.25,-1.25v-1.25h-3.5v1.25c0,0.6904 -0.55964,1.25 -1.25,1.25h-3c-0.69036,0 -1.25,-0.5596 -1.25,-1.25v-1.25h-0.25c-0.41421,0 -0.75,-0.3358 -0.75,-0.75v-17.5c0,-0.41421 0.33579,-0.75 0.75,-0.75zM6.25,21.25h2.5v-1h-2.5zM15.25,21.25h2.5v-1h-2.5zM11.25,18.75h1.5v-16h-1.5zM17,15.25c-0.4142,0 -0.75,0.3358 -0.75,0.75c0,0.4142 0.3358,0.75 0.75,0.75h1.75v-1.5zM5.25,16.75h1.75c0.41421,0 0.75,-0.3358 0.75,-0.75c0,-0.4142 -0.33579,-0.75 -0.75,-0.75h-1.75z" fill="#002B51"/>
</svg>
