<svg width="24" height="24" viewBox="0 0 24 24" fill="none" xmlns="http://www.w3.org/2000/svg">
<path d="M19.5,1.25c0.4142,0 0.75,0.33579 0.75,0.75v6.75h1.75c0.4142,0 0.75,0.33579 0.75,0.75v3.5c0,0.4142 -0.3358,0.75 -0.75,0.75h-1.75v5.75c0,0.4142 -0.3358,0.75 -0.75,0.75h-0.25v1.25c0,0.6904 -0.5596,1.25 -1.25,1.25h-3c-0.6904,0 -1.25,-0.5596 -1.25,-1.25v-1.25h-3.5v1.25c0,0.6904 -0.55964,1.25 -1.25,1.25h-3c-0.69036,0 -1.25,-0.5596 -1.25,-1.25v-1.25h-0.25c-0.41421,0 -0.75,-0.3358 -0.75,-0.75v-5.75h-1.75c-0.41421,0 -0.75,-0.3358 -0.75,-0.75v-3.5c0,-0.41421 0.33579,-0.75 0.75,-0.75h1.75v-6.75c0,-0.41421 0.33579,-0.75 0.75,-0.75zM6.25,21.25h2.5v-1h-2.5zM15.25,21.25h2.5v-1h-2.5zM5.25,15.25h1.75c0.41421,0 0.75,0.3358 0.75,0.75c0,0.4142 -0.33579,0.75 -0.75,0.75h-1.75v2h3v-2.25c0,-0.4142 0.33579,-0.75 0.75,-0.75h6c0.4142,0 0.75,0.3358 0.75,0.75v2.25h3v-2h-1.75c-0.4142,0 -0.75,-0.3358 -0.75,-0.75c0,-0.4142 0.3358,-0.75 0.75,-0.75h1.75v-1.5h-13.5zM9.75,18.75h4.5v-1.5h-4.5zM2.75,12.25h1v-2h-1zM5.25,12.25h13.5v-3.5h-13.5zM20.25,12.25h1v-2h-1zM7.55469,4.75c-0.08619,0 -0.16721,0.04411 -0.21289,0.11719l-1.48926,2.38281h12.29496l-1.4893,-2.38281c-0.0457,-0.07308 -0.1267,-0.11719 -0.2129,-0.11719zM5.25,5.38477l0.82031,-1.3125c0.31982,-0.51156 0.88107,-0.82227 1.48438,-0.82227h8.89061c0.6033,0 1.1646,0.31072 1.4844,0.82227l0.8203,1.3125v-2.63477h-13.5z" fill="#002B51"/>
</svg>
