<svg width="24" height="24" viewBox="0 0 24 24" fill="none" xmlns="http://www.w3.org/2000/svg">
<path d="M19.0771,2.25391c0.378,0.03862 0.6729,0.35792 0.6729,0.74609v6.75h1.25l0.0771,0.00391c0.378,0.03862 0.6729,0.35789 0.6729,0.74609v2.5c0,0.4142 -0.3358,0.75 -0.75,0.75h-1.25v5.25c0,0.4142 -0.3358,0.75 -0.75,0.75h-0.25v0.75c0,0.6904 -0.5596,1.25 -1.25,1.25h-2c-0.6904,0 -1.25,-0.5596 -1.25,-1.25v-0.75h-4.5v0.75c0,0.6904 -0.55964,1.25 -1.25,1.25h-2c-0.69036,0 -1.25,-0.5596 -1.25,-1.25v-0.75h-0.25c-0.41421,0 -0.75,-0.3358 -0.75,-0.75v-5.25h-1.25c-0.41421,0 -0.75,-0.3358 -0.75,-0.75v-2.5l0.00391,-0.0771c0.03862,-0.378 0.35792,-0.6729 0.74609,-0.6729h1.25v-6.75l0.00391,-0.07715c0.03862,-0.37797 0.35792,-0.67285 0.74609,-0.67285h14zM6.75,20.25h1.5v-0.5h-1.5zM15.75,20.25h1.5v-0.5h-1.5zM5.75,13.75v1.5h1.25c0.41421,0 0.75,0.3358 0.75,0.75c0,0.4142 -0.33579,0.75 -0.75,0.75h-1.25v1.5h3.5v-1.25l0.00391,-0.0771c0.03862,-0.378 0.35792,-0.6729 0.74609,-0.6729h4l0.0771,0.0039c0.378,0.0386 0.6729,0.3579 0.6729,0.7461v1.25h3.5v-1.5h-1.25c-0.4142,0 -0.75,-0.3358 -0.75,-0.75c0,-0.4142 0.3358,-0.75 0.75,-0.75h1.25v-1.5zM10.75,18.25h2.5v-0.5h-2.5zM3.75,12.25h0.5v-1h-0.5zM5.99414,12.25h12.01176l-1.5713,-5.5h-8.86917zM19.75,12.25h0.5v-1h-0.5zM5.75,7.64648l0.5293,-1.85253l0.04297,-0.11622c0.12258,-0.25805 0.38482,-0.42773 0.67773,-0.42773h10l0.123,0.00977c0.2821,0.04676 0.5171,0.25239 0.5977,0.53418l0.5293,1.85253v-3.89648h-12.5z" fill="#002B51"/>
</svg>
