<svg width="24" height="24" viewBox="0 0 24 24" fill="none" xmlns="http://www.w3.org/2000/svg">
<path fill-rule="evenodd" clip-rule="evenodd" d="M5.5 14.75C4.24122 14.75 3.17998 15.5957 2.85352 16.75H2.5C2.08579 16.75 1.75 17.0858 1.75 17.5C1.75 17.9142 2.08579 18.25 2.5 18.25H2.85352C3.17998 19.4043 4.24122 20.25 5.5 20.25C6.75878 20.25 7.82002 19.4043 8.14648 18.25H14.5H15.8535C16.18 19.4043 17.2412 20.25 18.5 20.25C19.7588 20.25 20.82 19.4043 21.1465 18.25H21.5C22.4665 18.25 23.25 17.4665 23.25 16.5V12.5C23.25 12.3641 23.2131 12.2307 23.1431 12.1141L20.4344 7.59963C20.1182 7.07252 19.5485 6.75 18.9338 6.75H17.5H15.5C15.3619 6.75 15.25 6.63807 15.25 6.5V5.5C15.25 5.08579 14.9142 4.75 14.5 4.75H6H4.5C4.08579 4.75 3.75 5.08579 3.75 5.5C3.75 5.91421 4.08579 6.25 4.5 6.25H6H13.75V6.5V16.75H8.14648C7.82002 15.5957 6.75878 14.75 5.5 14.75ZM18.5 18.75C17.8096 18.75 17.25 18.1904 17.25 17.5C17.25 16.8096 17.8096 16.25 18.5 16.25C19.1904 16.25 19.75 16.8096 19.75 17.5C19.75 18.1904 19.1904 18.75 18.5 18.75ZM18.25 8.25V11.5C18.25 11.6381 18.3619 11.75 18.5 11.75H21.1754L19.1482 8.37138C19.103 8.29607 19.0216 8.25 18.9338 8.25H18.25ZM5.5 16.25C4.80964 16.25 4.25 16.8096 4.25 17.5C4.25 18.1904 4.80964 18.75 5.5 18.75C6.19036 18.75 6.75 18.1904 6.75 17.5C6.75 16.8096 6.19036 16.25 5.5 16.25ZM4 11.25C3.58579 11.25 3.25 11.5858 3.25 12C3.25 12.4142 3.58579 12.75 4 12.75H10C10.4142 12.75 10.75 12.4142 10.75 12C10.75 11.5858 10.4142 11.25 10 11.25H4ZM1.25 9C1.25 8.58579 1.58579 8.25 2 8.25H8C8.41421 8.25 8.75 8.58579 8.75 9C8.75 9.41421 8.41421 9.75 8 9.75H2C1.58579 9.75 1.25 9.41421 1.25 9Z" fill="#002B51"/>
</svg>
