<svg width="24" height="24" viewBox="0 0 24 24" fill="none" xmlns="http://www.w3.org/2000/svg">
<path fill-rule="evenodd" clip-rule="evenodd" d="M21.75,16.5v-3.25h-3.25c-0.9665,0 -1.75,-0.7835 -1.75,-1.75v-3.5c0,-0.08766 0.015,-0.17181 0.0427,-0.25h-1.2927c-0.085,0 -0.1682,-0.00879 -0.25,-0.02051v9.02051h0.7999c0.4551,-0.8904 1.3814,-1.5 2.4501,-1.5c1.0693,0 1.9961,0.6103 2.4509,1.5016c0.0163,-0.0011 0.0326,-0.0016 0.0491,-0.0016h0.5c0.1381,0 0.25,-0.1119 0.25,-0.25zM18.5,20.75c-1.4345,0 -2.6125,-1.0984 -2.7388,-2.5h-7.52241c-0.12631,1.4016 -1.30428,2.5 -2.73879,2.5c-1.43451,0 -2.61248,-1.0984 -2.73879,-2.5h-1.26121c-0.41421,0 -0.75,-0.3358 -0.75,-0.75v-12.5l0.00391,-0.07715c0.03862,-0.37797 0.35792,-0.67285 0.74609,-0.67285h13l0.0771,0.00391c0.378,0.03862 0.6729,0.35792 0.6729,0.74609v1c0,0.13807 0.1119,0.25 0.25,0.25h3.4062c0.6404,0 1.2295,0.34993 1.5362,0.91211l2.7158,4.97849c0.0601,0.1102 0.0918,0.2339 0.0918,0.3594v4c0,0.9665 -0.7835,1.75 -1.75,1.75h-0.2612c-0.1263,1.4016 -1.3043,2.5 -2.7388,2.5zM18.9062,7.75h-0.6989c0.0277,0.07819 0.0427,0.16234 0.0427,0.25v3.5c0,0.1381 0.1119,0.25 0.25,0.25h2.737l-2.111,-3.87012c-0.0439,-0.08016 -0.1284,-0.12988 -0.2198,-0.12988zM7.95015,16.75h5.79985v-11h-11.5v11h0.75c0.01648,0 0.03284,0.0005 0.04905,0.0016c0.45489,-0.8913 1.38165,-1.5016 2.45095,-1.5016c1.06867,0 1.99497,0.6096 2.45015,1.5zM4.25,18c0,0.6904 0.55964,1.25 1.25,1.25c0.69036,0 1.25,-0.5596 1.25,-1.25c0,-0.6904 -0.55964,-1.25 -1.25,-1.25c-0.69036,0 -1.25,0.5596 -1.25,1.25zM17.25,18c0,0.6904 0.5596,1.25 1.25,1.25c0.6904,0 1.25,-0.5596 1.25,-1.25c0,-0.6904 -0.5596,-1.25 -1.25,-1.25c-0.6904,0 -1.25,0.5596 -1.25,1.25z" fill="#002B51"/>
</svg>
