<svg width="24" height="24" viewBox="0 0 24 24" fill="none" xmlns="http://www.w3.org/2000/svg">
<path d="M19.5,1.25c0.4142,0 0.75,0.33579 0.75,0.75v6.75h1.75c0.4142,0 0.75,0.33579 0.75,0.75v3.5c0,0.4142 -0.3358,0.75 -0.75,0.75h-1.75v5.75c0,0.4142 -0.3358,0.75 -0.75,0.75h-0.25v1.25c0,0.6904 -0.5596,1.25 -1.25,1.25h-3c-0.6904,0 -1.25,-0.5596 -1.25,-1.25v-1.25h-3.5v1.25c0,0.6904 -0.55964,1.25 -1.25,1.25h-3c-0.69036,0 -1.25,-0.5596 -1.25,-1.25v-1.25h-0.25c-0.41421,0 -0.75,-0.3358 -0.75,-0.75v-5.75h-1.75c-0.41421,0 -0.75,-0.3358 -0.75,-0.75v-3.5c0,-0.41421 0.33579,-0.75 0.75,-0.75h1.75v-6.75c0,-0.41421 0.33579,-0.75 0.75,-0.75zM6.25,21.25h2.5v-1h-2.5zM15.25,21.25h2.5v-1h-2.5zM9,16c-0.27614,0 -0.5,0.2239 -0.5,0.5v2.25h7v-2.25c0,-0.2761 -0.2239,-0.5 -0.5,-0.5zM5.25,16.75h1.75c0.41421,0 0.75,-0.3358 0.75,-0.75c0,-0.4142 -0.33579,-0.75 -0.75,-0.75h-1.75zM17,15.25c-0.4142,0 -0.75,0.3358 -0.75,0.75c0,0.4142 0.3358,0.75 0.75,0.75h1.75v-1.5zM2.75,12.25h1v-2h-1zM5.25,12.25h13.5v-3.5h-13.5zM20.25,12.25h1v-2h-1zM6.69336,4.75c-0.10417,0 -0.19775,0.0646 -0.23438,0.16211l-0.87695,2.33789h12.83597l-0.877,-2.33789c-0.0366,-0.09751 -0.1302,-0.16211 -0.2344,-0.16211z" fill="#002B51"/>
</svg>
