<svg width="24" height="24" viewBox="0 0 24 24" fill="none" xmlns="http://www.w3.org/2000/svg">
<path fill-rule="evenodd" clip-rule="evenodd" d="M1.5 4.75C1.08579 4.75 0.75 5.08579 0.75 5.5V17.5C0.75 17.9142 1.08579 18.25 1.5 18.25H2.85352C3.17998 19.4043 4.24122 20.25 5.5 20.25C6.75878 20.25 7.82002 19.4043 8.14648 18.25H14.5H15.8535C16.18 19.4043 17.2412 20.25 18.5 20.25C19.7588 20.25 20.82 19.4043 21.1465 18.25H21.5C22.4665 18.25 23.25 17.4665 23.25 16.5V12.5C23.25 12.3745 23.2185 12.251 23.1584 12.1409L20.4427 7.16201C20.136 6.5998 19.5468 6.25 18.9064 6.25H15.5C15.3619 6.25 15.25 6.13807 15.25 6V5.5C15.25 5.08579 14.9142 4.75 14.5 4.75H1.5ZM21.1465 16.75H21.5C21.6381 16.75 21.75 16.6381 21.75 16.5V13.25H18.5C17.5335 13.25 16.75 12.4665 16.75 11.5V8C16.75 7.91234 16.765 7.82819 16.7927 7.75H15.5C15.4151 7.75 15.3317 7.74396 15.25 7.73228V16.75H15.8535C16.18 15.5957 17.2412 14.75 18.5 14.75C19.7588 14.75 20.82 15.5957 21.1465 16.75ZM17.25 17.5C17.25 18.1904 17.8096 18.75 18.5 18.75C19.1904 18.75 19.75 18.1904 19.75 17.5C19.75 16.8096 19.1904 16.25 18.5 16.25C17.8096 16.25 17.25 16.8096 17.25 17.5ZM18.25 8C18.25 7.91234 18.235 7.82819 18.2073 7.75H18.9064C18.9979 7.75 19.082 7.79997 19.1258 7.88029L21.2366 11.75H18.5C18.3619 11.75 18.25 11.6381 18.25 11.5V8ZM8.14648 16.75H13.75V6.25H2.25V16.75H2.85352C3.17998 15.5957 4.24122 14.75 5.5 14.75C6.75878 14.75 7.82002 15.5957 8.14648 16.75ZM4.25 17.5C4.25 16.8096 4.80964 16.25 5.5 16.25C6.19036 16.25 6.75 16.8096 6.75 17.5C6.75 18.1904 6.19036 18.75 5.5 18.75C4.80964 18.75 4.25 18.1904 4.25 17.5Z" fill="#002B51"/>
</svg>
