<svg width="24" height="24" viewBox="0 0 24 24" fill="none" xmlns="http://www.w3.org/2000/svg">
<path fill-rule="evenodd" clip-rule="evenodd" d="M8.14648,16.75h5.60352v-10.25v-0.25h-7.75h-1.5c-0.41421,0 -0.75,-0.33579 -0.75,-0.75c0,-0.41421 0.33579,-0.75 0.75,-0.75h1.5h8.5c0.4142,0 0.75,0.33579 0.75,0.75v1c0,0.13807 0.1119,0.25 0.25,0.25h2h1.4338c0.6147,0 1.1844,0.32252 1.5006,0.84963l2.7087,4.51447c0.07,0.1166 0.1069,0.25 0.1069,0.3859v4c0,0.9665 -0.7835,1.75 -1.75,1.75h-0.3535c-0.3265,1.1543 -1.3877,2 -2.6465,2c-1.2588,0 -2.32,-0.8457 -2.6465,-2h-1.3535h-6.35352c-0.32646,1.1543 -1.3877,2 -2.64648,2c-1.25878,0 -2.32002,-0.8457 -2.64648,-2h-0.35352c-0.41421,0 -0.75,-0.3358 -0.75,-0.75c0,-0.4142 0.33579,-0.75 0.75,-0.75h0.35352c0.32646,-1.1543 1.3877,-2 2.64648,-2c1.25878,0 2.32002,0.8457 2.64648,2zM19.75,17.5c0,-0.6904 -0.5596,-1.25 -1.25,-1.25c-0.6904,0 -1.25,0.5596 -1.25,1.25c0,0.6904 0.5596,1.25 1.25,1.25c0.6904,0 1.25,-0.5596 1.25,-1.25zM18.25,8.25v3.25c0,0.1381 0.1119,0.25 0.25,0.25h2.6754l-2.0272,-3.37862c-0.0452,-0.07531 -0.1266,-0.12138 -0.2144,-0.12138zM5.5,16.25c-0.69036,0 -1.25,0.5596 -1.25,1.25c0,0.6904 0.55964,1.25 1.25,1.25c0.69036,0 1.25,-0.5596 1.25,-1.25c0,-0.6904 -0.55964,-1.25 -1.25,-1.25zM10,11.25c0.4142,0 0.75,0.3358 0.75,0.75c0,0.4142 -0.3358,0.75 -0.75,0.75h-6c-0.41421,0 -0.75,-0.3358 -0.75,-0.75c0,-0.4142 0.33579,-0.75 0.75,-0.75zM1.25,9c0,-0.41421 0.33579,-0.75 0.75,-0.75h6c0.41421,0 0.75,0.33579 0.75,0.75c0,0.41421 -0.33579,0.75 -0.75,0.75h-6c-0.41421,0 -0.75,-0.33579 -0.75,-0.75z" fill="#002B51"/>
</svg>
