<svg width="24" height="24" viewBox="0 0 24 24" fill="none" xmlns="http://www.w3.org/2000/svg">
<path fill-rule="evenodd" clip-rule="evenodd" d="M8.14648,16.75h5.60352v-10.5h-7.75h-1.5c-0.41421,0 -0.75,-0.33579 -0.75,-0.75c0,-0.41421 0.33579,-0.75 0.75,-0.75h1.5h8.5c0.4142,0 0.75,0.33579 0.75,0.75v0.5c0,0.13807 0.1119,0.25 0.25,0.25h3.4064c0.6404,0 1.2296,0.3498 1.5363,0.91201l2.7157,4.97889c0.0601,0.1101 0.0916,0.2336 0.0916,0.3591v4c0,0.9665 -0.7835,1.75 -1.75,1.75h-0.3535c-0.3265,1.1543 -1.3877,2 -2.6465,2c-1.2588,0 -2.32,-0.8457 -2.6465,-2h-1.3535h-6.35352c-0.32646,1.1543 -1.3877,2 -2.64648,2c-1.25878,0 -2.32002,-0.8457 -2.64648,-2h-0.35352c-0.41421,0 -0.75,-0.3358 -0.75,-0.75c0,-0.4142 0.33579,-0.75 0.75,-0.75h0.35352c0.32646,-1.1543 1.3877,-2 2.64648,-2c1.25878,0 2.32002,0.8457 2.64648,2zM21.75,16.5v-3.25h-3.25c-0.9665,0 -1.75,-0.7835 -1.75,-1.75v-3.5c0,-0.08766 0.015,-0.17181 0.0427,-0.25h-1.2927c-0.0849,0 -0.1683,-0.00604 -0.25,-0.01772v9.01772h0.6035c0.3265,-1.1543 1.3877,-2 2.6465,-2c1.2588,0 2.32,0.8457 2.6465,2h0.3535c0.1381,0 0.25,-0.1119 0.25,-0.25zM19.75,17.5c0,-0.6904 -0.5596,-1.25 -1.25,-1.25c-0.6904,0 -1.25,0.5596 -1.25,1.25c0,0.6904 0.5596,1.25 1.25,1.25c0.6904,0 1.25,-0.5596 1.25,-1.25zM18.2073,7.75c0.0277,0.07819 0.0427,0.16234 0.0427,0.25v3.5c0,0.1381 0.1119,0.25 0.25,0.25h2.7366l-2.1108,-3.86971c-0.0438,-0.08032 -0.1279,-0.13029 -0.2194,-0.13029zM5.5,16.25c-0.69036,0 -1.25,0.5596 -1.25,1.25c0,0.6904 0.55964,1.25 1.25,1.25c0.69036,0 1.25,-0.5596 1.25,-1.25c0,-0.6904 -0.55964,-1.25 -1.25,-1.25zM10,11.25c0.4142,0 0.75,0.3358 0.75,0.75c0,0.4142 -0.3358,0.75 -0.75,0.75h-6c-0.41421,0 -0.75,-0.3358 -0.75,-0.75c0,-0.4142 0.33579,-0.75 0.75,-0.75zM1.25,9c0,-0.41421 0.33579,-0.75 0.75,-0.75h6c0.41421,0 0.75,0.33579 0.75,0.75c0,0.41421 -0.33579,0.75 -0.75,0.75h-6c-0.41421,0 -0.75,-0.33579 -0.75,-0.75z" fill="#002B51"/>
</svg>
