<svg width="24" height="24" viewBox="0 0 24 24" fill="none" xmlns="http://www.w3.org/2000/svg">
<path d="M14.5,4.25c0.4142,0 0.75,0.33579 0.75,0.75v1.5l0.0049,0.05078c0.0234,0.11375 0.1244,0.19922 0.2451,0.19922h3.4336c0.6147,0 1.1847,0.3225 1.501,0.84961l2.709,4.51469c0.0698,0.1165 0.1064,0.2499 0.1064,0.3857v4c0,0.9665 -0.7835,1.75 -1.75,1.75h-0.2627c-0.1264,1.4016 -1.3028,2.5 -2.7373,2.5c-1.4345,0 -2.6109,-1.0984 -2.7373,-2.5h-7.5254c-0.12636,1.4016 -1.30283,2.5 -2.7373,2.5c-1.43447,0 -2.61094,-1.0984 -2.7373,-2.5h-0.2627c-0.41421,0 -0.75,-0.3358 -0.75,-0.75c0,-0.4142 0.33579,-0.75 0.75,-0.75h0.5c0.01707,0 0.03399,0.0008 0.05078,0.002c0.45496,-0.8911 1.38008,-1.502 2.44922,-1.502c1.0682,0 1.99188,0.6102 2.44727,1.5h5.80273v-11h-9.25c-0.41421,0 -0.75,-0.33579 -0.75,-0.75c0,-0.41421 0.33579,-0.75 0.75,-0.75zM5.5,16.75c-0.69036,0 -1.25,0.5596 -1.25,1.25c0,0.6904 0.55964,1.25 1.25,1.25c0.69036,0 1.25,-0.5596 1.25,-1.25c0,-0.6904 -0.55964,-1.25 -1.25,-1.25zM18.5,16.75c-0.6904,0 -1.25,0.5596 -1.25,1.25c0,0.6904 0.5596,1.25 1.25,1.25c0.6904,0 1.25,-0.5596 1.25,-1.25c0,-0.6904 -0.5596,-1.25 -1.25,-1.25zM10,11.25c0.4142,0 0.75,0.3358 0.75,0.75c0,0.4142 -0.3358,0.75 -0.75,0.75h-6c-0.41421,0 -0.75,-0.3358 -0.75,-0.75c0,-0.4142 0.33579,-0.75 0.75,-0.75zM18.25,11.5c0,0.1381 0.1119,0.25 0.25,0.25h2.6748l-2.0264,-3.37891c-0.0452,-0.07524 -0.127,-0.12109 -0.2148,-0.12109h-0.6836zM8,8.25c0.41421,0 0.75,0.33579 0.75,0.75c0,0.41421 -0.33579,0.75 -0.75,0.75h-6c-0.41421,0 -0.75,-0.33579 -0.75,-0.75c0,-0.41421 0.33579,-0.75 0.75,-0.75z" fill="#002B51"/>
</svg>
