<svg width="24" height="24" viewBox="0 0 24 24" fill="none" xmlns="http://www.w3.org/2000/svg">
<path fill-rule="evenodd" clip-rule="evenodd" d="M14.5,4.25c0.4142,0 0.75,0.33579 0.75,0.75v1.5c0,0.13807 0.1119,0.25 0.25,0.25h2h1.4338c0.6147,0 1.1844,0.32252 1.5006,0.84963l2.7087,4.51447c0.07,0.1166 0.1069,0.25 0.1069,0.3859v4c0,0.9665 -0.7835,1.75 -1.75,1.75h-0.2612c-0.1263,1.4016 -1.3043,2.5 -2.7388,2.5c-1.4345,0 -2.6125,-1.0984 -2.7388,-2.5h-1.2612h-6.26121c-0.12631,1.4016 -1.30428,2.5 -2.73879,2.5c-1.43451,0 -2.61248,-1.0984 -2.73879,-2.5h-1.26121c-0.41421,0 -0.75,-0.3358 -0.75,-0.75v-12.5c0,-0.41421 0.33579,-0.75 0.75,-0.75zM18.5,11.75h2.6754l-2.0272,-3.37862c-0.0452,-0.07531 -0.1266,-0.12138 -0.2144,-0.12138h-0.6838v3.25c0,0.1381 0.1119,0.25 0.25,0.25zM5.5,16.75c-0.69036,0 -1.25,0.5596 -1.25,1.25c0,0.6904 0.55964,1.25 1.25,1.25c0.69036,0 1.25,-0.5596 1.25,-1.25c0,-0.6904 -0.55964,-1.25 -1.25,-1.25zM18.5,16.75c-0.6904,0 -1.25,0.5596 -1.25,1.25c0,0.6904 0.5596,1.25 1.25,1.25c0.6904,0 1.25,-0.5596 1.25,-1.25c0,-0.6904 -0.5596,-1.25 -1.25,-1.25z" fill="#002B51"/>
</svg>
