<svg width="24" height="24" viewBox="0 0 24 24" fill="none" xmlns="http://www.w3.org/2000/svg">
<path d="M14.5,4.25c0.4142,0 0.75,0.33579 0.75,0.75v1c0,0.13807 0.1119,0.25 0.25,0.25h3.4062c0.6404,0 1.2295,0.34993 1.5362,0.91211l2.7158,4.97849c0.0085,0.0155 0.0151,0.0319 0.0225,0.0479c0.0042,0.0091 0.0088,0.018 0.0127,0.0273c0.016,0.0392 0.0278,0.0798 0.0371,0.1211c0.0036,0.0162 0.0072,0.0323 0.0097,0.0488c0.0014,0.0091 0.0029,0.0182 0.0039,0.0274c0.0025,0.0216 0.0043,0.0433 0.0049,0.0654c0.0002,0.0072 0.001,0.0143 0.001,0.0215v4c0,0.9665 -0.7835,1.75 -1.75,1.75h-0.2627c-0.1264,1.4016 -1.3028,2.5 -2.7373,2.5c-1.4345,0 -2.6109,-1.0984 -2.7373,-2.5h-7.5254c-0.12636,1.4016 -1.30283,2.5 -2.7373,2.5c-1.43447,0 -2.61093,-1.0984 -2.7373,-2.5h-1.2627c-0.41421,0 -0.75,-0.3358 -0.75,-0.75v-12.5c0,-0.41421 0.33579,-0.75 0.75,-0.75zM5.5,16.75c-0.69036,0 -1.25,0.5596 -1.25,1.25c0,0.6904 0.55964,1.25 1.25,1.25c0.69036,0 1.25,-0.5596 1.25,-1.25c0,-0.6904 -0.55964,-1.25 -1.25,-1.25zM18.5,16.75c-0.6904,0 -1.25,0.5596 -1.25,1.25c0,0.6904 0.5596,1.25 1.25,1.25c0.6904,0 1.25,-0.5596 1.25,-1.25c0,-0.6904 -0.5596,-1.25 -1.25,-1.25zM15.25,16.75h0.8027c0.4554,-0.8898 1.3791,-1.5 2.4473,-1.5c1.069,0 1.9932,0.6111 2.4482,1.502c0.0171,-0.0012 0.0344,-0.002 0.0518,-0.002h0.5c0.1381,0 0.25,-0.1119 0.25,-0.25v-3.25h-3.25c-0.9665,0 -1.75,-0.7835 -1.75,-1.75v-3.75h-1.25c-0.085,0 -0.1682,-0.00879 -0.25,-0.02051zM2.25,16.75h0.75c0.01707,0 0.03399,0.0008 0.05078,0.002c0.45496,-0.8911 1.38008,-1.502 2.44922,-1.502c1.0682,0 1.99188,0.6102 2.44727,1.5h5.80273v-11h-11.5zM18.25,11.5c0,0.1381 0.1119,0.25 0.25,0.25h2.7373l-2.1113,-3.87012c-0.0439,-0.08016 -0.1284,-0.12988 -0.2198,-0.12988h-0.6562z" fill="#002B51"/>
</svg>
