<svg width="24" height="24" viewBox="0 0 24 24" fill="none" xmlns="http://www.w3.org/2000/svg">
<path d="M19.0771,2.25391c0.378,0.03862 0.6729,0.35792 0.6729,0.74609v16c0,0.4142 -0.3358,0.75 -0.75,0.75h-0.25v0.75c0,0.6904 -0.5596,1.25 -1.25,1.25h-2c-0.6904,0 -1.25,-0.5596 -1.25,-1.25v-0.75h-4.5v0.75c0,0.6904 -0.55964,1.25 -1.25,1.25h-2c-0.69036,0 -1.25,-0.5596 -1.25,-1.25v-0.75h-0.25c-0.41421,0 -0.75,-0.3358 -0.75,-0.75v-16l0.00391,-0.07715c0.03862,-0.37797 0.35792,-0.67285 0.74609,-0.67285h14zM6.75,20.25h1.5v-0.5h-1.5zM15.75,20.25h1.5v-0.5h-1.5zM5.75,15.25h1.25c0.41421,0 0.75,0.3358 0.75,0.75c0,0.4142 -0.33579,0.75 -0.75,0.75h-1.25v1.5h5.5v-14.5h-5.5zM12.75,18.25h5.5v-1.5h-1.25c-0.4142,0 -0.75,-0.3358 -0.75,-0.75c0,-0.4142 0.3358,-0.75 0.75,-0.75h1.25v-11.5h-5.5z" fill="#002B51"/>
</svg>
