<svg width="24" height="24" viewBox="0 0 24 24" fill="none" xmlns="http://www.w3.org/2000/svg">
<path d="M19.0771,2.25391c0.378,0.03862 0.6729,0.35792 0.6729,0.74609v6.75h1.25l0.0771,0.00391c0.378,0.03862 0.6729,0.35789 0.6729,0.74609v2.5c0,0.4142 -0.3358,0.75 -0.75,0.75h-1.25v5.25c0,0.4142 -0.3358,0.75 -0.75,0.75h-0.25v0.75c0,0.6904 -0.5596,1.25 -1.25,1.25h-2c-0.6904,0 -1.25,-0.5596 -1.25,-1.25v-0.75h-4.5v0.75c0,0.6904 -0.55964,1.25 -1.25,1.25h-2c-0.69036,0 -1.25,-0.5596 -1.25,-1.25v-0.75h-0.25c-0.41421,0 -0.75,-0.3358 -0.75,-0.75v-5.25h-1.25c-0.41421,0 -0.75,-0.3358 -0.75,-0.75v-2.5l0.00391,-0.0771c0.03862,-0.378 0.35792,-0.6729 0.74609,-0.6729h1.25v-6.75l0.00391,-0.07715c0.03862,-0.37797 0.35792,-0.67285 0.74609,-0.67285h14zM6.75,20.25h1.5v-0.5h-1.5zM15.75,20.25h1.5v-0.5h-1.5zM10,16.25c-0.38817,0 -0.70747,0.2949 -0.74609,0.6729l-0.00391,0.0771v1.25h5.5v-1.25c0,-0.3882 -0.2949,-0.7075 -0.6729,-0.7461l-0.0771,-0.0039zM5.75,16.75h1.25c0.41421,0 0.75,-0.3358 0.75,-0.75c0,-0.4142 -0.33579,-0.75 -0.75,-0.75h-1.25zM17,15.25c-0.4142,0 -0.75,0.3358 -0.75,0.75c0,0.4142 0.3358,0.75 0.75,0.75h1.25v-1.5zM3.75,12.25h0.5v-1h-0.5zM5.99414,12.25h12.01176l-1.5713,-5.5h-8.86917zM19.75,12.25h0.5v-1h-0.5z" fill="#002B51"/>
</svg>
