<svg width="24" height="24" viewBox="0 0 24 24" fill="none" xmlns="http://www.w3.org/2000/svg">
<path d="M19.5771,1.25391c0.378,0.03862 0.6729,0.35792 0.6729,0.74609v6.75h1.75l0.0771,0.00391c0.378,0.03862 0.6729,0.35792 0.6729,0.74609v3.5c0,0.4142 -0.3358,0.75 -0.75,0.75h-1.75v5.75c0,0.4142 -0.3358,0.75 -0.75,0.75h-0.25v1.25c0,0.6904 -0.5596,1.25 -1.25,1.25h-3c-0.6904,0 -1.25,-0.5596 -1.25,-1.25v-1.25h-3.5v1.25c0,0.6904 -0.55964,1.25 -1.25,1.25h-3c-0.69036,0 -1.25,-0.5596 -1.25,-1.25v-1.25h-0.25c-0.41421,0 -0.75,-0.3358 -0.75,-0.75v-5.75h-1.75c-0.41421,0 -0.75,-0.3358 -0.75,-0.75v-3.5l0.00391,-0.07715c0.03862,-0.37797 0.35792,-0.67285 0.74609,-0.67285h1.75v-6.75l0.00391,-0.07715c0.03862,-0.37797 0.35792,-0.67285 0.74609,-0.67285h15zM6.25,21.25h2.5v-1h-2.5zM15.25,21.25h2.5v-1h-2.5zM9,16c-0.24171,0 -0.44371,0.1714 -0.49023,0.3994l-0.00977,0.1006v2.25h7v-2.25c0,-0.2417 -0.1714,-0.4437 -0.3994,-0.4902l-0.1006,-0.0098zM5.25,16.75h1.75c0.41421,0 0.75,-0.3358 0.75,-0.75c0,-0.4142 -0.33579,-0.75 -0.75,-0.75h-1.75zM17,15.25c-0.4142,0 -0.75,0.3358 -0.75,0.75c0,0.4142 0.3358,0.75 0.75,0.75h1.75v-1.5zM2.75,12.25h1v-2h-1zM5.25,12.25h13.5v-3.5h-13.5zM20.25,12.25h1v-2h-1zM6.69336,4.75c-0.10417,0 -0.19775,0.0646 -0.23438,0.16211l-0.87695,2.33789h12.83597l-0.877,-2.33789c-0.0366,-0.09751 -0.1302,-0.16211 -0.2344,-0.16211z" fill="#002B51"/>
</svg>
