<svg width="24" height="24" viewBox="0 0 24 24" fill="none" xmlns="http://www.w3.org/2000/svg">
<path fill-rule="evenodd" clip-rule="evenodd" d="M14.5,4.25c0.4142,0 0.75,0.33579 0.75,0.75v1c0,0.13807 0.1119,0.25 0.25,0.25h3.4064c0.6404,0 1.2296,0.3498 1.5363,0.91201l2.7157,4.97889c0.0601,0.1101 0.0916,0.2336 0.0916,0.3591v4c0,0.9665 -0.7835,1.75 -1.75,1.75h-0.2612c-0.1263,1.4016 -1.3043,2.5 -2.7388,2.5c-1.4345,0 -2.6125,-1.0984 -2.7388,-2.5h-1.2612h-6.26121c-0.12631,1.4016 -1.30428,2.5 -2.73879,2.5c-1.43451,0 -2.61248,-1.0984 -2.73879,-2.5h-1.26121c-0.41421,0 -0.75,-0.3358 -0.75,-0.75v-12.5c0,-0.41421 0.33579,-0.75 0.75,-0.75zM20.9509,16.7516c0.0163,-0.0011 0.0326,-0.0016 0.0491,-0.0016h0.5c0.1381,0 0.25,-0.1119 0.25,-0.25v-3.25h-3.25c-0.9665,0 -1.75,-0.7835 -1.75,-1.75v-3.5c0,-0.08766 0.015,-0.17181 0.0427,-0.25h-1.2927c-0.0849,0 -0.1683,-0.00604 -0.25,-0.01772v9.01772h0.7999c0.4551,-0.8904 1.3814,-1.5 2.4501,-1.5c1.0693,0 1.9961,0.6103 2.4509,1.5016zM18.25,11.5c0,0.1381 0.1119,0.25 0.25,0.25h2.7366l-2.1108,-3.86971c-0.0438,-0.08032 -0.1279,-0.13029 -0.2194,-0.13029h-0.6991c0.0277,0.07819 0.0427,0.16234 0.0427,0.25zM7.95015,16.75h5.79985v-10.75v-0.25h-11.5v11h0.75c0.01648,0 0.03284,0.0005 0.04905,0.0016c0.45489,-0.8913 1.38165,-1.5016 2.45095,-1.5016c1.06867,0 1.99497,0.6096 2.45015,1.5zM5.5,19.25c0.69036,0 1.25,-0.5596 1.25,-1.25c0,-0.6904 -0.55964,-1.25 -1.25,-1.25c-0.69036,0 -1.25,0.5596 -1.25,1.25c0,0.6904 0.55964,1.25 1.25,1.25zM18.5,19.25c0.6904,0 1.25,-0.5596 1.25,-1.25c0,-0.6904 -0.5596,-1.25 -1.25,-1.25c-0.6904,0 -1.25,0.5596 -1.25,1.25c0,0.6904 0.5596,1.25 1.25,1.25z" fill="#002B51"/>
</svg>
