<svg width="24" height="24" viewBox="0 0 24 24" fill="none" xmlns="http://www.w3.org/2000/svg">
<g clip-path="url(#clip0_4050_37759)">
<path d="M0,0h24v24h-24" fill="#B31942"/>
<path d="M0,2.76923h24zM24,6.46153h-24zM0,10.1538h24zM24,13.8461h-24zM0,17.5385h24zM0,21.2308h24z" fill="black"/>
<path fill-rule="evenodd" clip-rule="evenodd" d="M24,3.69228h-24v-1.84615h24zM0,5.53844h24v1.84615h-24zM24,11.0769h-24v-1.84615h24zM0,12.9231h24v1.8461h-24zM24,18.4615h-24v-1.8461h24zM0,20.3077h24v1.8461h-24z" fill="white"/>
<path d="M-6,0h18.3371v12.9231h-18.3371" fill="#0A3161"/>
<path d="M0.11255,1.84613l0.43637,1.33589l-1.14242,-0.82563h1.41211l-1.14242,0.82563z" fill="white"/>
<path d="M0.11255,4.43073l0.43637,1.33588l-1.14242,-0.82562h1.41211l-1.14242,0.82562z" fill="white"/>
<path d="M0.11255,7.01538l0.43637,1.33589l-1.14242,-0.82562h1.41211l-1.14242,0.82562z" fill="white"/>
<path d="M0.11255,9.59998l0.43637,1.33592l-1.14242,-0.8257h1.41211l-1.14242,0.8257z" fill="white"/>
<path d="M1.64063,0.55383l0.43636,1.33589l-1.14242,-0.82562h1.41211l-1.14242,0.82562z" fill="white"/>
<path d="M1.64063,3.13843l0.43636,1.33589l-1.14242,-0.82563h1.41211l-1.14242,0.82563z" fill="white"/>
<path d="M1.64063,5.72308l0.43636,1.33589l-1.14242,-0.82562h1.41211l-1.14242,0.82562z" fill="white"/>
<path d="M1.64063,8.30768l0.43636,1.33589l-1.14242,-0.82563h1.41211l-1.14242,0.82563z" fill="white"/>
<path d="M1.64063,10.8923l0.43636,1.3359l-1.14242,-0.8257h1.41211l-1.14242,0.8257z" fill="white"/>
<path d="M3.1687,1.84613l0.43637,1.33589l-1.14242,-0.82563h1.41211l-1.14242,0.82563z" fill="white"/>
<path d="M3.1687,4.43073l0.43637,1.33588l-1.14242,-0.82562h1.41211l-1.14242,0.82562z" fill="white"/>
<path d="M3.1687,7.01538l0.43637,1.33589l-1.14242,-0.82562h1.41211l-1.14242,0.82562z" fill="white"/>
<path d="M3.1687,9.59998l0.43637,1.33592l-1.14242,-0.8257h1.41211l-1.14242,0.8257z" fill="white"/>
<path d="M4.69678,0.55383l0.43637,1.33589l-1.14243,-0.82562h1.41212l-1.14243,0.82562z" fill="white"/>
<path d="M4.69678,3.13843l0.43637,1.33589l-1.14243,-0.82563h1.41212l-1.14243,0.82563z" fill="white"/>
<path d="M4.69678,5.72308l0.43637,1.33589l-1.14243,-0.82562h1.41212l-1.14243,0.82562z" fill="white"/>
<path d="M4.69678,8.30768l0.43637,1.33589l-1.14243,-0.82563h1.41212l-1.14243,0.82563z" fill="white"/>
<path d="M4.69678,10.8923l0.43637,1.3359l-1.14243,-0.8257h1.41212l-1.14243,0.8257z" fill="white"/>
<path d="M6.22486,1.84613l0.43636,1.33589l-1.14242,-0.82563h1.41211l-1.14242,0.82563z" fill="white"/>
<path d="M6.22486,4.43073l0.43636,1.33588l-1.14242,-0.82562h1.41211l-1.14242,0.82562z" fill="white"/>
<path d="M6.22486,7.01538l0.43636,1.33589l-1.14242,-0.82562h1.41211l-1.14242,0.82562z" fill="white"/>
<path d="M6.22486,9.59998l0.43636,1.33592l-1.14242,-0.8257h1.41211l-1.14242,0.8257z" fill="white"/>
<path d="M7.75293,0.55383l0.43637,1.33589l-1.14242,-0.82562h1.41211l-1.14243,0.82562z" fill="white"/>
<path d="M7.75293,3.13843l0.43637,1.33589l-1.14242,-0.82563h1.41211l-1.14243,0.82563z" fill="white"/>
<path d="M7.75293,5.72308l0.43637,1.33589l-1.14242,-0.82562h1.41211l-1.14243,0.82562z" fill="white"/>
<path d="M7.75293,8.30768l0.43637,1.33589l-1.14242,-0.82563h1.41211l-1.14243,0.82563z" fill="white"/>
<path d="M7.75293,10.8923l0.43637,1.3359l-1.14242,-0.8257h1.41211l-1.14243,0.8257z" fill="white"/>
<path d="M9.28101,1.84613l0.43636,1.33589l-1.14242,-0.82563h1.41211l-1.14242,0.82563z" fill="white"/>
<path d="M9.28101,4.43073l0.43636,1.33588l-1.14242,-0.82562h1.41211l-1.14242,0.82562z" fill="white"/>
<path d="M9.28101,7.01538l0.43636,1.33589l-1.14242,-0.82562h1.41211l-1.14242,0.82562z" fill="white"/>
<path d="M9.28101,9.59998l0.43636,1.33592l-1.14242,-0.8257h1.41211l-1.14242,0.8257z" fill="white"/>
<path d="M10.8093,0.55383l0.4364,1.33589l-1.1424,-0.82562h1.4121l-1.1424,0.82562z" fill="white"/>
<path d="M10.8093,3.13843l0.4364,1.33589l-1.1424,-0.82563h1.4121l-1.1424,0.82563z" fill="white"/>
<path d="M10.8093,5.72308l0.4364,1.33589l-1.1424,-0.82562h1.4121l-1.1424,0.82562z" fill="white"/>
<path d="M10.8093,8.30768l0.4364,1.33589l-1.1424,-0.82563h1.4121l-1.1424,0.82563z" fill="white"/>
<path d="M10.8093,10.8923l0.4364,1.3359l-1.1424,-0.8257h1.4121l-1.1424,0.8257z" fill="white"/>
</g>
<defs>
<clipPath id="clip0_4050_37759">
<path d="M0,12c0,-6.62742 5.37258,-12 12,-12c6.6274,0 12,5.37258 12,12c0,6.6274 -5.3726,12 -12,12c-6.62742,0 -12,-5.3726 -12,-12z" fill="white"/>
</clipPath>
</defs>
</svg>
