<svg width="36" height="24" viewBox="0 0 36 24" fill="none" xmlns="http://www.w3.org/2000/svg">
<g clip-path="url(#clip0_4050_37753)">
<path d="M0,0h36v24h-36" fill="#B31942"/>
<path d="M0,2.76923h36zM36,6.46153h-36zM0,10.1538h36zM36,13.8461h-36zM0,17.5385h36zM36,21.2308h-36z" fill="black"/>
<path fill-rule="evenodd" clip-rule="evenodd" d="M36,3.69228h-36v-1.84615h36zM0,5.53844h36v1.84615h-36zM36,11.0769h-36v-1.84615h36zM0,12.9231h36v1.8461h-36zM36,18.4615h-36v-1.8461h36zM0,20.3077h36v1.8461h-36z" fill="white"/>
<path d="M0,0h18.3371v12.9231h-18.3371" fill="#0A3161"/>
<path d="M1.52808,0.55383l0.43637,1.33589l-1.14243,-0.82562h1.41211l-1.14242,0.82562z" fill="white"/>
<path d="M1.52808,3.13843l0.43637,1.33589l-1.14243,-0.82563h1.41211l-1.14242,0.82563z" fill="white"/>
<path d="M1.52808,5.72308l0.43637,1.33589l-1.14243,-0.82562h1.41211l-1.14242,0.82562z" fill="white"/>
<path d="M1.52808,8.30768l0.43637,1.33589l-1.14243,-0.82563h1.41211l-1.14242,0.82563z" fill="white"/>
<path d="M1.52808,10.8923l0.43637,1.3359l-1.14243,-0.8257h1.41211l-1.14242,0.8257z" fill="white"/>
<path d="M3.05615,1.84613l0.43637,1.33589l-1.14242,-0.82563h1.41211l-1.14242,0.82563z" fill="white"/>
<path d="M3.05615,4.43073l0.43637,1.33588l-1.14242,-0.82562h1.41211l-1.14242,0.82562z" fill="white"/>
<path d="M3.05615,7.01538l0.43637,1.33589l-1.14242,-0.82562h1.41211l-1.14242,0.82562z" fill="white"/>
<path d="M3.05615,9.59998l0.43637,1.33592l-1.14242,-0.8257h1.41211l-1.14242,0.8257z" fill="white"/>
<path d="M4.58423,0.55383l0.43637,1.33589l-1.14243,-0.82562h1.41212l-1.14243,0.82562z" fill="white"/>
<path d="M4.58423,3.13843l0.43637,1.33589l-1.14243,-0.82563h1.41212l-1.14243,0.82563z" fill="white"/>
<path d="M4.58423,5.72308l0.43637,1.33589l-1.14243,-0.82562h1.41212l-1.14243,0.82562z" fill="white"/>
<path d="M4.58423,8.30768l0.43637,1.33589l-1.14243,-0.82563h1.41212l-1.14243,0.82563z" fill="white"/>
<path d="M4.58423,10.8923l0.43637,1.3359l-1.14243,-0.8257h1.41212l-1.14243,0.8257z" fill="white"/>
<path d="M6.11231,1.84613l0.43636,1.33589l-1.14242,-0.82563h1.41211l-1.14242,0.82563z" fill="white"/>
<path d="M6.11231,4.43073l0.43636,1.33588l-1.14242,-0.82562h1.41211l-1.14242,0.82562z" fill="white"/>
<path d="M6.11231,7.01538l0.43636,1.33589l-1.14242,-0.82562h1.41211l-1.14242,0.82562z" fill="white"/>
<path d="M6.11231,9.59998l0.43636,1.33592l-1.14242,-0.8257h1.41211l-1.14242,0.8257z" fill="white"/>
<path d="M7.64038,0.55383l0.43637,1.33589l-1.14242,-0.82562h1.41211l-1.14242,0.82562z" fill="white"/>
<path d="M7.64038,3.13843l0.43637,1.33589l-1.14242,-0.82563h1.41211l-1.14242,0.82563z" fill="white"/>
<path d="M7.64038,5.72308l0.43637,1.33589l-1.14242,-0.82562h1.41211l-1.14242,0.82562z" fill="white"/>
<path d="M7.64038,8.30768l0.43637,1.33589l-1.14242,-0.82563h1.41211l-1.14242,0.82563z" fill="white"/>
<path d="M7.64038,10.8923l0.43637,1.3359l-1.14242,-0.8257h1.41211l-1.14242,0.8257z" fill="white"/>
<path d="M9.16846,1.84613l0.43637,1.33589l-1.14243,-0.82563h1.41212l-1.14243,0.82563z" fill="white"/>
<path d="M9.16846,4.43073l0.43637,1.33588l-1.14243,-0.82562h1.41212l-1.14243,0.82562z" fill="white"/>
<path d="M9.16846,7.01538l0.43637,1.33589l-1.14243,-0.82562h1.41212l-1.14243,0.82562z" fill="white"/>
<path d="M9.16846,9.59998l0.43637,1.33592l-1.14243,-0.8257h1.41212l-1.14243,0.8257z" fill="white"/>
<path d="M10.6965,0.55383l0.4364,1.33589l-1.14242,-0.82562h1.41212l-1.1424,0.82562z" fill="white"/>
<path d="M10.6965,3.13843l0.4364,1.33589l-1.14242,-0.82563h1.41212l-1.1424,0.82563z" fill="white"/>
<path d="M10.6965,5.72308l0.4364,1.33589l-1.14242,-0.82562h1.41212l-1.1424,0.82562z" fill="white"/>
<path d="M10.6965,8.30768l0.4364,1.33589l-1.14242,-0.82563h1.41212l-1.1424,0.82563z" fill="white"/>
<path d="M10.6965,10.8923l0.4364,1.3359l-1.14242,-0.8257h1.41212l-1.1424,0.8257z" fill="white"/>
<path d="M12.2246,1.84613l0.4364,1.33589l-1.1424,-0.82563h1.4121l-1.1425,0.82563z" fill="white"/>
<path d="M12.2246,4.43073l0.4364,1.33588l-1.1424,-0.82562h1.4121l-1.1425,0.82562z" fill="white"/>
<path d="M12.2246,7.01538l0.4364,1.33589l-1.1424,-0.82562h1.4121l-1.1425,0.82562z" fill="white"/>
<path d="M12.2246,9.59998l0.4364,1.33592l-1.1424,-0.8257h1.4121l-1.1425,0.8257z" fill="white"/>
<path d="M13.7527,0.55383l0.4364,1.33589l-1.1425,-0.82562h1.4121l-1.1424,0.82562z" fill="white"/>
<path d="M13.7527,3.13843l0.4364,1.33589l-1.1425,-0.82563h1.4121l-1.1424,0.82563z" fill="white"/>
<path d="M13.7527,5.72308l0.4364,1.33589l-1.1425,-0.82562h1.4121l-1.1424,0.82562z" fill="white"/>
<path d="M13.7527,8.30768l0.4364,1.33589l-1.1425,-0.82563h1.4121l-1.1424,0.82563z" fill="white"/>
<path d="M13.7527,10.8923l0.4364,1.3359l-1.1425,-0.8257h1.4121l-1.1424,0.8257z" fill="white"/>
<path d="M15.2808,1.84613l0.4363,1.33589l-1.1424,-0.82563h1.4121l-1.1424,0.82563z" fill="white"/>
<path d="M15.2808,4.43073l0.4363,1.33588l-1.1424,-0.82562h1.4121l-1.1424,0.82562z" fill="white"/>
<path d="M15.2808,7.01538l0.4363,1.33589l-1.1424,-0.82562h1.4121l-1.1424,0.82562z" fill="white"/>
<path d="M15.2808,9.59998l0.4363,1.33592l-1.1424,-0.8257h1.4121l-1.1424,0.8257z" fill="white"/>
<path d="M16.8091,0.55383l0.4364,1.33589l-1.1425,-0.82562h1.4121l-1.1424,0.82562z" fill="white"/>
<path d="M16.8091,3.13843l0.4364,1.33589l-1.1425,-0.82563h1.4121l-1.1424,0.82563z" fill="white"/>
<path d="M16.8091,5.72308l0.4364,1.33589l-1.1425,-0.82562h1.4121l-1.1424,0.82562z" fill="white"/>
<path d="M16.8091,8.30768l0.4364,1.33589l-1.1425,-0.82563h1.4121l-1.1424,0.82563z" fill="white"/>
<path d="M16.8091,10.8923l0.4364,1.3359l-1.1425,-0.8257h1.4121l-1.1424,0.8257z" fill="white"/>
</g>
<defs>
<clipPath id="clip0_4050_37753">
<path d="M0,2c0,-1.10457 0.89543,-2 2,-2h32c1.1046,0 2,0.89543 2,2v20c0,1.1046 -0.8954,2 -2,2h-32c-1.10457,0 -2,-0.8954 -2,-2z" fill="white"/>
</clipPath>
</defs>
</svg>
