<svg width="24" height="24" viewBox="0 0 24 24" fill="none" xmlns="http://www.w3.org/2000/svg">
<path d="M19,4.25c1.5188,0 2.75,1.23122 2.75,2.75v10c0,1.5188 -1.2312,2.75 -2.75,2.75h-14c-1.51878,0 -2.75,-1.2312 -2.75,-2.75v-10c0,-1.51878 1.23122,-2.75 2.75,-2.75zM5,5.75c-0.69036,0 -1.25,0.55964 -1.25,1.25v10c0,0.6904 0.55964,1.25 1.25,1.25h14c0.6904,0 1.25,-0.5596 1.25,-1.25v-10c0,-0.69036 -0.5596,-1.25 -1.25,-1.25zM10,12.75c1.5188,0 2.75,1.2312 2.75,2.75v0.5c0,0.4142 -0.3358,0.75 -0.75,0.75c-0.4142,0 -0.75,-0.3358 -0.75,-0.75v-0.5c0,-0.6903 -0.5597,-1.25 -1.25,-1.25h-2c-0.69035,0 -1.24999,0.5597 -1.25,1.25v0.5c0,0.4142 -0.33579,0.75 -0.75,0.75c-0.41421,0 -0.75,-0.3358 -0.75,-0.75v-0.5c0.00001,-1.5188 1.23122,-2.75 2.75,-2.75zM17,11.25c0.4142,0 0.75,0.3358 0.75,0.75c0,0.4142 -0.3358,0.75 -0.75,0.75h-2.5c-0.4142,0 -0.75,-0.3358 -0.75,-0.75c0,-0.4142 0.3358,-0.75 0.75,-0.75zM9.03027,7.25c1.44963,0.00011 2.62503,1.17537 2.62503,2.625c-0.0001,1.4496 -1.1754,2.6249 -2.62503,2.625c-1.44967,0 -2.62495,-1.1753 -2.625,-2.625c0.00001,-1.4497 1.17531,-2.625 2.625,-2.625zM9.03027,8.75c-0.62127,0 -1.12499,0.50373 -1.125,1.125c0.00005,0.6212 0.50376,1.125 1.125,1.125c0.62116,-0.0001 1.12493,-0.5038 1.12503,-1.125c0,-0.6212 -0.50385,-1.12489 -1.12503,-1.125zM18,8.25c0.4142,0 0.75,0.33579 0.75,0.75c0,0.41421 -0.3358,0.75 -0.75,0.75h-3.5c-0.4142,0 -0.75,-0.33579 -0.75,-0.75c0,-0.41421 0.3358,-0.75 0.75,-0.75z" fill="#002B51"/>
</svg>
