<svg width="24" height="24" viewBox="0 0 24 24" fill="none" xmlns="http://www.w3.org/2000/svg">
<path fill-rule="evenodd" clip-rule="evenodd" d="M5.60019,17.2067c0.70765,-1.7344 2.41099,-2.9567 4.39981,-2.9567h4c1.9888,0 3.6922,1.2223 4.3998,2.9567c1.1567,-1.4201 1.8502,-3.2324 1.8502,-5.2067c0,-4.55635 -3.6937,-8.25 -8.25,-8.25c-4.55635,0 -8.25,3.69365 -8.25,8.25c0,1.9743 0.6935,3.7866 1.85019,5.2067zM6.80374,18.4083c1.41848,1.1516 3.22676,1.8417 5.19626,1.8417c1.9695,0 3.7778,-0.6901 5.1963,-1.8417c-0.2783,-1.5124 -1.6035,-2.6583 -3.1963,-2.6583h-4c-1.59284,0 -2.91804,1.1459 -3.19626,2.6583zM21.75,12c0,5.3848 -4.3652,9.75 -9.75,9.75c-5.38478,0 -9.75,-4.3652 -9.75,-9.75c0,-5.38478 4.36522,-9.75 9.75,-9.75c5.3848,0 9.75,4.36522 9.75,9.75zM12,12.25c1.2426,0 2.25,-1.0074 2.25,-2.25c0,-1.24264 -1.0074,-2.25 -2.25,-2.25c-1.2427,0 -2.25005,1.00736 -2.25005,2.25c0,1.2426 1.00735,2.25 2.25005,2.25zM15.75,10c0,2.0711 -1.679,3.75 -3.75,3.75c-2.07111,0 -3.75005,-1.6789 -3.75005,-3.75c0,-2.07107 1.67894,-3.75 3.75005,-3.75c2.071,0 3.75,1.67893 3.75,3.75z" fill="#002B51"/>
</svg>
