<svg width="24" height="24" viewBox="0 0 24 24" fill="none" xmlns="http://www.w3.org/2000/svg">
<path fill-rule="evenodd" clip-rule="evenodd" d="M3.75 12C3.75 7.44365 7.44365 3.75 12 3.75C16.5563 3.75 20.25 7.44365 20.25 12C20.25 13.9743 19.5565 15.7866 18.3998 17.2067C17.6922 15.4723 15.9888 14.25 14 14.25H10C8.01118 14.25 6.30784 15.4723 5.60019 17.2067C4.4435 15.7866 3.75 13.9743 3.75 12ZM6.80374 18.4083C8.22222 19.5599 10.0305 20.25 12 20.25C13.9695 20.25 15.7778 19.5599 17.1963 18.4083C16.918 16.8959 15.5928 15.75 14 15.75H10C8.40716 15.75 7.08196 16.8959 6.80374 18.4083ZM12 2.25C6.61522 2.25 2.25 6.61522 2.25 12C2.25 17.3848 6.61522 21.75 12 21.75C17.3848 21.75 21.75 17.3848 21.75 12C21.75 6.61522 17.3848 2.25 12 2.25ZM9.74995 10C9.74995 8.75736 10.7573 7.75 12 7.75C13.2426 7.75 14.25 8.75736 14.25 10C14.25 11.2426 13.2426 12.25 12 12.25C10.7573 12.25 9.74995 11.2426 9.74995 10ZM12 6.25C9.92889 6.25 8.24995 7.92893 8.24995 10C8.24995 12.0711 9.92889 13.75 12 13.75C14.071 13.75 15.75 12.0711 15.75 10C15.75 7.92893 14.071 6.25 12 6.25Z" fill="#002B51"/>
</svg>
