<svg width="24" height="24" viewBox="0 0 24 24" fill="none" xmlns="http://www.w3.org/2000/svg">
<path fill-rule="evenodd" clip-rule="evenodd" d="M14.7551,4.41297c0.048,-0.41142 0.4205,-0.70596 0.8319,-0.65789c2.2373,0.26141 3.973,2.16209 3.973,4.46924c0,2.30718 -1.7357,4.20778 -3.973,4.46928c-0.4114,0.048 -0.7839,-0.2465 -0.8319,-0.6579c-0.0481,-0.4114 0.2464,-0.7839 0.6579,-0.832c1.4901,-0.1741 2.647,-1.4422 2.647,-2.97938c0,-1.53719 -1.1569,-2.80526 -2.647,-2.97938c-0.4115,-0.04807 -0.706,-0.42056 -0.6579,-0.83197zM9.06012,11.2497c1.65678,0 2.99988,-1.34308 2.99988,-2.99984c0,-1.65677 -1.3431,-2.99984 -2.99988,-2.99984c-1.65676,0 -2.99984,1.34307 -2.99984,2.99984c0,1.65676 1.34308,2.99984 2.99984,2.99984zM13.56,8.24986c0,2.48514 -2.0147,4.49984 -4.49988,4.49984c-2.48519,0 -4.49984,-2.0147 -4.49984,-4.49984c0,-2.48519 2.01465,-4.49984 4.49984,-4.49984c2.48518,0 4.49988,2.01465 4.49988,4.49984zM11,13.75c2.6234,0 4.75,2.1267 4.75,4.75v1c0,0.4142 -0.3358,0.75 -0.75,0.75c-0.4142,0 -0.75,-0.3358 -0.75,-0.75v-1c0,-1.7949 -1.4551,-3.25 -3.25,-3.25h-4c-1.79493,0 -3.25,1.4551 -3.25,3.25v1c0,0.4142 -0.33579,0.75 -0.75,0.75c-0.41421,0 -0.75,-0.3358 -0.75,-0.75v-1c0,-2.6233 2.12665,-4.75 4.75,-4.75zM17.1,13.75c2.5681,0 4.65,2.0819 4.65,4.65v1.1c0,0.4142 -0.3358,0.75 -0.75,0.75c-0.4142,0 -0.75,-0.3358 -0.75,-0.75v-1.1c0,-1.7397 -1.4103,-3.15 -3.15,-3.15h-0.1c-0.4142,0 -0.75,-0.3358 -0.75,-0.75c0,-0.4142 0.3358,-0.75 0.75,-0.75z" fill="#002B51"/>
</svg>
