<svg width="24" height="24" viewBox="0 0 24 24" fill="none" xmlns="http://www.w3.org/2000/svg">
<path fill-rule="evenodd" clip-rule="evenodd" d="M18.0596,8.22464c0,-1.44105 -1.0163,-2.64609 -2.3711,-2.93457l-0.2754,-0.04492l-0.0762,-0.0127c-0.371,-0.08214 -0.627,-0.43378 -0.582,-0.81933c0.0451,-0.38581 0.3756,-0.66899 0.7558,-0.66309l0.0762,0.00488l0.208,0.0293c2.136,0.35118 3.7647,2.20525 3.7647,4.44043c-0.0002,2.30706 -1.7355,4.20736 -3.9727,4.46876c-0.4112,0.048 -0.7837,-0.2461 -0.832,-0.6572c-0.0451,-0.3856 0.211,-0.7372 0.582,-0.8194l0.3516,-0.0586c1.3547,-0.2885 2.3709,-1.49267 2.3711,-2.93356zM4.56028,8.25002c0,-2.48519 2.01481,-4.5 4.5,-4.5c2.48512,0.00009 4.50002,2.01486 4.50002,4.5c-0.0001,2.48508 -2.015,4.49988 -4.50002,4.49998c-2.48513,0 -4.49991,-2.0149 -4.5,-4.49998zM15.75,19.5c0,0.4142 -0.3358,0.75 -0.75,0.75h-12c-0.41421,0 -0.75,-0.3358 -0.75,-0.75v-1c0,-2.6233 2.12665,-4.75 4.75,-4.75h4c2.6234,0 4.75,2.1267 4.75,4.75zM17.0996,15.25h-0.0996c-0.4142,0 -0.75,-0.3358 -0.75,-0.75c0,-0.4142 0.3358,-0.75 0.75,-0.75h0.0996c2.5681,0 4.6504,2.0823 4.6504,4.6504v1.0996c0,0.4142 -0.3358,0.75 -0.75,0.75c-0.4142,0 -0.75,-0.3358 -0.75,-0.75v-1.0996c0,-1.7397 -1.4107,-3.1504 -3.1504,-3.1504z" fill="#002B51"/>
</svg>
