<svg width="24" height="24" viewBox="0 0 24 24" fill="none" xmlns="http://www.w3.org/2000/svg">
<path d="M18.9398,12.7637c1.0005,0.1233 1.6933,1.0791 1.4991,2.0683l-0.0547,0.2119l-0.9824,3c-0.2354,0.7193 -0.9064,1.2061 -1.6631,1.2061h-9.6387c-0.41422,0 -0.75,-0.3358 -0.75,-0.75c0,-0.4142 0.33578,-0.75 0.75,-0.75h2.9561l1.2421,-3.7939l0.0489,-0.1329c0.2705,-0.6459 0.9048,-1.0732 1.6142,-1.0732h4.7588zM10.35,12.75c0.4142,0 0.75,0.3358 0.75,0.75c0,0.4142 -0.3358,0.75 -0.75,0.75h-2c-1.79491,0 -3.25,1.4551 -3.25,3.25v0.75c0,0.4142 -0.33579,0.75 -0.75,0.75c-0.41419,0 -0.75,-0.3358 -0.75,-0.75v-0.75c0,-2.6233 2.12667,-4.75 4.75,-4.75zM13.8832,14.2627c-0.0492,0.0162 -0.0923,0.0472 -0.123,0.0889l-0.0362,0.0703l-1.0888,3.3281h5.1035c0.1079,0 0.2035,-0.0694 0.2373,-0.1719l0.9824,-3l0.0117,-0.0605c0.0088,-0.1202 -0.0716,-0.2306 -0.1885,-0.2598l-0.0615,-0.0078h-4.7588zM10.35,4.5c2.0711,0 3.75,1.67893 3.75,3.75c0,2.0711 -1.6789,3.75 -3.75,3.75c-2.07107,0 -3.75,-1.6789 -3.75,-3.75c0,-2.07107 1.67893,-3.75 3.75,-3.75zM10.35,6c-1.24264,0 -2.25,1.00736 -2.25,2.25c0,1.24264 1.00736,2.25 2.25,2.25c1.2426,0 2.25,-1.00736 2.25,-2.25c0,-1.24264 -1.0074,-2.25 -2.25,-2.25z" fill="#002B51"/>
</svg>
