<svg width="24" height="24" viewBox="0 0 24 24" fill="none" xmlns="http://www.w3.org/2000/svg">
<path fill-rule="evenodd" clip-rule="evenodd" d="M9.06028,8.25c0.00009,1.65669 1.34332,3 3.00002,3c1.6566,-0.0001 2.9999,-1.34337 3,-3c0,-1.65671 -1.3433,-2.99991 -3,-3c-1.6568,0 -3.00002,1.34324 -3.00002,3zM7.56028,8.25c0,-2.48519 2.01481,-4.5 4.50002,-4.5c2.4851,0.00009 4.5,2.01486 4.5,4.5c-0.0001,2.4851 -2.015,4.4999 -4.5,4.5c-2.48515,0 -4.49993,-2.0149 -4.50002,-4.5zM14,15.25h-4c-1.79493,0 -3.25,1.4551 -3.25,3.25v1c0,0.4142 -0.33579,0.75 -0.75,0.75c-0.41421,0 -0.75,-0.3358 -0.75,-0.75v-1c0,-2.6234 2.12665,-4.75 4.75,-4.75h4c2.6234,0 4.75,2.1266 4.75,4.75v1c0,0.4142 -0.3358,0.75 -0.75,0.75c-0.4142,0 -0.75,-0.3358 -0.75,-0.75v-1c0,-1.7949 -1.4551,-3.25 -3.25,-3.25z" fill="#002B51"/>
</svg>
