<svg width="24" height="24" viewBox="0 0 24 24" fill="none" xmlns="http://www.w3.org/2000/svg">
<path d="M18.9398,12.7637c1.0005,0.1233 1.6933,1.0791 1.499,2.0683l-0.0546,0.2119l-0.9825,3c-0.2354,0.7193 -0.9063,1.2061 -1.6631,1.2061h-9.63862c-0.41422,0 -0.75,-0.3358 -0.75,-0.75c0,-0.4142 0.33578,-0.75 0.75,-0.75h2.95602l1.2422,-3.7939l0.0488,-0.1329c0.2706,-0.6459 0.9049,-1.0732 1.6143,-1.0732h4.7588zM11.5258,12.75c-0.1306,0.1818 -0.2425,0.3792 -0.3311,0.5908l-0.085,0.2256l-0.9599,2.9336h-2.04982c-1.10457,0 -2,0.8954 -2,2c0,0.1729 0.0242,0.34 0.06543,0.5h-0.86524c-0.93888,0 -1.70019,-0.7613 -1.70019,-1.7002c0.0001,-2.5127 2.03706,-4.5497 4.5498,-4.5498zM10.35,4.5c2.071,0 3.75,1.67893 3.75,3.75c0,2.0711 -1.679,3.75 -3.75,3.75c-2.07109,0 -3.75002,-1.6789 -3.75002,-3.75c0,-2.07107 1.67893,-3.75 3.75002,-3.75z" fill="#002B51"/>
</svg>
