<svg width="24" height="24" viewBox="0 0 24 24" fill="none" xmlns="http://www.w3.org/2000/svg">
<path fill-rule="evenodd" clip-rule="evenodd" d="M5.60017,17.2066c0.70766,-1.7343 2.41099,-2.9566 4.3998,-2.9566h4.00003c1.9888,0 3.6921,1.2223 4.3998,2.9567c1.1567,-1.4201 1.8502,-3.2324 1.8502,-5.2067c0,-4.55635 -3.6937,-8.25 -8.25,-8.25c-4.55635,0 -8.25,3.69365 -8.25,8.25c0,1.9743 0.6935,3.7866 1.85017,5.2066zM21.75,12c0,5.3848 -4.3652,9.75 -9.75,9.75c-5.38478,0 -9.75,-4.3652 -9.75,-9.75c0,-5.38478 4.36522,-9.75 9.75,-9.75c5.3848,0 9.75,4.36522 9.75,9.75zM15.7499,10c0,2.0711 -1.6789,3.75 -3.75,3.75c-2.07104,0 -3.74998,-1.6789 -3.74998,-3.75c0,-2.07107 1.67894,-3.75 3.74998,-3.75c2.0711,0 3.75,1.67893 3.75,3.75z" fill="#002B51"/>
</svg>
