<svg width="24" height="24" viewBox="0 0 24 24" fill="none" xmlns="http://www.w3.org/2000/svg">
<path d="M13,9.25c2.0711,0 3.75,1.6789 3.75,3.75v0.25h2.25c0.9665,0 1.75,0.7835 1.75,1.75v5c0,0.4142 -0.3358,0.75 -0.75,0.75c-0.4142,0 -0.75,-0.3358 -0.75,-0.75v-5c0,-0.1381 -0.1119,-0.25 -0.25,-0.25h-14c-0.13807,0 -0.25,0.1119 -0.25,0.25v5c0,0.4142 -0.33579,0.75 -0.75,0.75c-0.41421,0 -0.75,-0.3358 -0.75,-0.75v-5c0,-0.9665 0.7835,-1.75 1.75,-1.75h2.25v-0.25c0,-2.0711 1.67893,-3.75 3.75,-3.75zM12,3.25c1.5188,0 2.75,1.23122 2.75,2.75c0,1.51878 -1.2312,2.75 -2.75,2.75c-1.5188,0 -2.75,-1.23122 -2.75,-2.75c0,-1.51878 1.2312,-2.75 2.75,-2.75z" fill="#002B51"/>
</svg>
