<svg width="24" height="24" viewBox="0 0 24 24" fill="none" xmlns="http://www.w3.org/2000/svg">
<path fill-rule="evenodd" clip-rule="evenodd" d="M14.7551 4.41297C14.8031 4.00155 15.1756 3.70701 15.587 3.75508C17.8243 4.01649 19.56 5.91717 19.56 8.22432C19.56 10.5315 17.8243 12.4321 15.587 12.6936C15.1756 12.7416 14.8031 12.4471 14.7551 12.0357C14.707 11.6243 15.0015 11.2518 15.413 11.2037C16.9031 11.0296 18.06 9.7615 18.06 8.22432C18.06 6.68713 16.9031 5.41906 15.413 5.24494C15.0015 5.19687 14.707 4.82438 14.7551 4.41297ZM6.06028 8.24986C6.06028 6.59309 7.40336 5.25002 9.06012 5.25002C10.7169 5.25002 12.06 6.59309 12.06 8.24986C12.06 9.90662 10.7169 11.2497 9.06012 11.2497C7.40336 11.2497 6.06028 9.90662 6.06028 8.24986ZM9.06012 3.75002C6.57493 3.75002 4.56028 5.76467 4.56028 8.24986C4.56028 10.735 6.57493 12.7497 9.06012 12.7497C11.5453 12.7497 13.56 10.735 13.56 8.24986C13.56 5.76467 11.5453 3.75002 9.06012 3.75002ZM7 13.75C4.37665 13.75 2.25 15.8767 2.25 18.5V19.5C2.25 19.9142 2.58579 20.25 3 20.25C3.41421 20.25 3.75 19.9142 3.75 19.5V18.5C3.75 16.7051 5.20507 15.25 7 15.25H11C12.7949 15.25 14.25 16.7051 14.25 18.5V19.5C14.25 19.9142 14.5858 20.25 15 20.25C15.4142 20.25 15.75 19.9142 15.75 19.5V18.5C15.75 15.8767 13.6234 13.75 11 13.75H7ZM17 13.75C16.5858 13.75 16.25 14.0858 16.25 14.5C16.25 14.9142 16.5858 15.25 17 15.25H17.1C18.8397 15.25 20.25 16.6603 20.25 18.4V19.5C20.25 19.9142 20.5858 20.25 21 20.25C21.4142 20.25 21.75 19.9142 21.75 19.5V18.4C21.75 15.8319 19.6681 13.75 17.1 13.75H17Z" fill="#002B51"/>
</svg>
