<svg width="24" height="24" viewBox="0 0 24 24" fill="none" xmlns="http://www.w3.org/2000/svg">
<path d="M11,13.75c2.6233,0 4.75,2.1267 4.75,4.75v1c0,0.4142 -0.3358,0.75 -0.75,0.75h-12c-0.41421,0 -0.75,-0.3358 -0.75,-0.75v-1c0.00003,-2.6233 2.12667,-4.75 4.75,-4.75zM17.0996,13.75c2.5681,0 4.6504,2.0823 4.6504,4.6504v1.0996c0,0.4142 -0.3358,0.75 -0.75,0.75c-0.4142,0 -0.75,-0.3358 -0.75,-0.75v-1.0996c0,-1.7396 -1.4107,-3.1504 -3.1504,-3.1504h-0.0996c-0.4142,0 -0.75,-0.3358 -0.75,-0.75c0,-0.4142 0.3358,-0.75 0.75,-0.75zM9.06055,3.75003c2.48495,0.00023 4.49995,2.01498 4.49995,4.5c0,2.48497 -2.015,4.49977 -4.49995,4.49997c-2.48514,0 -4.49991,-2.0149 -4.5,-4.49997c0.00003,-2.48516 2.01483,-4.5 4.5,-4.5zM15.5869,3.75491l0.208,0.0293c2.136,0.35117 3.7646,2.20528 3.7647,4.44043c-0.0002,2.30696 -1.7355,4.20736 -3.9727,4.46876c-0.4112,0.048 -0.7837,-0.2461 -0.832,-0.6572c-0.045,-0.3856 0.2111,-0.7372 0.582,-0.8194l0.3516,-0.0586c1.3547,-0.2885 2.3709,-1.49268 2.3711,-2.93356c-0.0001,-1.44102 -1.0163,-2.64609 -2.3711,-2.93457l-0.2754,-0.04492l-0.0762,-0.0127c-0.371,-0.08214 -0.627,-0.43379 -0.582,-0.81933c0.0451,-0.38578 0.3756,-0.66899 0.7558,-0.66309z" fill="#002B51"/>
</svg>
