<svg width="24" height="24" viewBox="0 0 24 24" fill="none" xmlns="http://www.w3.org/2000/svg">
<path fill-rule="evenodd" clip-rule="evenodd" d="M12.0601,11.2497c1.6568,0 2.9999,-1.3431 2.9999,-2.99986c0,-1.65677 -1.3431,-2.99984 -2.9999,-2.99984c-1.6567,0 -2.99982,1.34307 -2.99982,2.99984c0,1.65676 1.34312,2.99986 2.99982,2.99986zM16.56,8.24984c0,2.48516 -2.0147,4.49986 -4.4999,4.49986c-2.48517,0 -4.49982,-2.0147 -4.49982,-4.49986c0,-2.48519 2.01465,-4.49984 4.49982,-4.49984c2.4852,0 4.4999,2.01465 4.4999,4.49984zM14,13.75c2.6234,0 4.75,2.1266 4.75,4.75v1c0,0.4142 -0.3358,0.75 -0.75,0.75c-0.4142,0 -0.75,-0.3358 -0.75,-0.75v-1c0,-1.7949 -1.4551,-3.25 -3.25,-3.25h-4c-1.79493,0 -3.25,1.4551 -3.25,3.25v1c0,0.4142 -0.33579,0.75 -0.75,0.75c-0.41421,0 -0.75,-0.3358 -0.75,-0.75v-1c0,-2.6234 2.12665,-4.75 4.75,-4.75z" fill="#002B51"/>
</svg>
