<svg width="24" height="24" viewBox="0 0 24 24" fill="none" xmlns="http://www.w3.org/2000/svg">
<path d="M12,2.25c5.3848,0 9.75,4.36522 9.75,9.75c0,5.3848 -4.3652,9.75 -9.75,9.75c-5.38478,0 -9.75,-4.3652 -9.75,-9.75c0,-5.38478 4.36522,-9.75 9.75,-9.75zM12,3.75c-4.55635,0 -8.25,3.69365 -8.25,8.25c0,1.9742 0.69398,3.786 1.85059,5.2061c0.70777,-1.734 2.41095,-2.956 4.39941,-2.9561h4c1.9886,0.0001 3.69,1.2228 4.3975,2.957c1.1573,-1.4202 1.8525,-3.2321 1.8525,-5.207c0,-4.55635 -3.6937,-8.25 -8.25,-8.25zM12,6.25c2.071,0.00014 3.75,1.67902 3.75,3.75c0,2.071 -1.679,3.7499 -3.75,3.75c-2.07096,-0.0001 -3.75,-1.679 -3.75,-3.75c0,-2.07099 1.67904,-3.74988 3.75,-3.75z" fill="#002B51"/>
</svg>
