<svg width="24" height="24" viewBox="0 0 24 24" fill="none" xmlns="http://www.w3.org/2000/svg">
<path d="M14,13.75c2.6234,0 4.75,2.1266 4.75,4.75v1c0,0.4142 -0.3358,0.75 -0.75,0.75c-0.4142,0 -0.75,-0.3358 -0.75,-0.75v-1c0,-1.7949 -1.4551,-3.25 -3.25,-3.25h-4c-1.79493,0 -3.25,1.4551 -3.25,3.25v1c0,0.4142 -0.33579,0.75 -0.75,0.75c-0.41421,0 -0.75,-0.3358 -0.75,-0.75v-1c0,-2.6234 2.12665,-4.75 4.75,-4.75zM12.0605,3.75c2.485,0.00023 4.5,2.01495 4.5,4.5c0,2.485 -2.015,4.4998 -4.5,4.5c-2.48509,0 -4.49986,-2.0149 -4.49995,-4.5c0,-2.48519 2.01481,-4.5 4.49995,-4.5zM12.0605,5.25c-1.6567,0 -2.99995,1.34324 -2.99995,3c0.00009,1.65669 1.34325,3 2.99995,3c1.6566,-0.0002 3,-1.34345 3,-3c0,-1.65662 -1.3434,-2.99977 -3,-3z" fill="#002B51"/>
</svg>
