<svg width="24" height="24" viewBox="0 0 24 24" fill="none" xmlns="http://www.w3.org/2000/svg">
<path fill-rule="evenodd" clip-rule="evenodd" d="M9.06028 8.24984C9.06028 6.59307 10.4034 5.25 12.0601 5.25C13.7169 5.25 15.06 6.59307 15.06 8.24984C15.06 9.9066 13.7169 11.2497 12.0601 11.2497C10.4034 11.2497 9.06028 9.9066 9.06028 8.24984ZM12.0601 3.75C9.57493 3.75 7.56028 5.76465 7.56028 8.24984C7.56028 10.735 9.57493 12.7497 12.0601 12.7497C14.5453 12.7497 16.56 10.735 16.56 8.24984C16.56 5.76465 14.5453 3.75 12.0601 3.75ZM10 13.75C7.37665 13.75 5.25 15.8766 5.25 18.5V19.5C5.25 19.9142 5.58579 20.25 6 20.25C6.41421 20.25 6.75 19.9142 6.75 19.5V18.5C6.75 16.7051 8.20507 15.25 10 15.25H14C15.7949 15.25 17.25 16.7051 17.25 18.5V19.5C17.25 19.9142 17.5858 20.25 18 20.25C18.4142 20.25 18.75 19.9142 18.75 19.5V18.5C18.75 15.8766 16.6234 13.75 14 13.75H10Z" fill="#002B51"/>
</svg>
