<svg width="24" height="24" viewBox="0 0 24 24" fill="none" xmlns="http://www.w3.org/2000/svg">
<path fill-rule="evenodd" clip-rule="evenodd" d="M3.75 12C3.75 7.44365 7.44365 3.75 12 3.75C16.5563 3.75 20.25 7.44365 20.25 12C20.25 13.9743 19.5565 15.7866 18.3998 17.2067C17.6921 15.4723 15.9888 14.25 14 14.25H9.99997C8.01116 14.25 6.30783 15.4723 5.60017 17.2066C4.4435 15.7866 3.75 13.9743 3.75 12ZM12 2.25C6.61522 2.25 2.25 6.61522 2.25 12C2.25 17.3848 6.61522 21.75 12 21.75C17.3848 21.75 21.75 17.3848 21.75 12C21.75 6.61522 17.3848 2.25 12 2.25ZM11.9999 6.25C9.92886 6.25 8.24992 7.92893 8.24992 10C8.24992 12.0711 9.92886 13.75 11.9999 13.75C14.071 13.75 15.7499 12.0711 15.7499 10C15.7499 7.92893 14.071 6.25 11.9999 6.25Z" fill="#002B51"/>
</svg>
