<svg width="24" height="24" viewBox="0 0 24 24" fill="none" xmlns="http://www.w3.org/2000/svg">
<path fill-rule="evenodd" clip-rule="evenodd" d="M0.75,6c0,-0.9665 0.7835,-1.75 1.75,-1.75h11.5h1.7639c1.0417,0 1.9939,0.58851 2.4597,1.52016l2.4083,4.81654l2.2125,2.655c0.2621,0.3145 0.4056,0.711 0.4056,1.1204v2.6379c0,0.9665 -0.7835,1.75 -1.75,1.75h-0.3535c-0.3265,1.1543 -1.3877,2 -2.6465,2c-1.2588,0 -2.32,-0.8457 -2.6465,-2h-1.8535h-5.85352c-0.32646,1.1543 -1.3877,2 -2.64648,2c-1.25878,0 -2.32002,-0.8457 -2.64648,-2h-0.35352c-0.9665,0 -1.75,-0.7835 -1.75,-1.75zM15.8535,17.25c0.3265,-1.1543 1.3877,-2 2.6465,-2c1.2588,0 2.32,0.8457 2.6465,2h0.3535c0.1381,0 0.25,-0.1119 0.25,-0.25v-2.6379c0,-0.0585 -0.0205,-0.1152 -0.0579,-0.1601l-2.0434,-2.452h-4.8987v5.5zM19.75,18c0,-0.6904 -0.5596,-1.25 -1.25,-1.25c-0.6904,0 -1.25,0.5596 -1.25,1.25c0,0.6904 0.5596,1.25 1.25,1.25c0.6904,0 1.25,-0.5596 1.25,-1.25zM13.25,11v-5.25h-10.75c-0.13807,0 -0.25,0.11193 -0.25,0.25v11c0,0.1381 0.11193,0.25 0.25,0.25h0.35352c0.32646,-1.1543 1.3877,-2 2.64648,-2c1.25878,0 2.32002,0.8457 2.64648,2h5.10352zM14.75,5.75v4.5h4.0365l-1.9045,-3.80902c-0.2118,-0.42348 -0.6446,-0.69098 -1.1181,-0.69098zM5.5,16.75c-0.69036,0 -1.25,0.5596 -1.25,1.25c0,0.6904 0.55964,1.25 1.25,1.25c0.69036,0 1.25,-0.5596 1.25,-1.25c0,-0.6904 -0.55964,-1.25 -1.25,-1.25z" fill="#002B51"/>
</svg>
