<svg width="24" height="24" viewBox="0 0 24 24" fill="none" xmlns="http://www.w3.org/2000/svg">
<path fill-rule="evenodd" clip-rule="evenodd" d="M0.75,17v-11c0,-0.9665 0.7835,-1.75 1.75,-1.75h13.2637c1.0416,0 1.9941,0.58885 2.4599,1.52051l2.4073,4.81449l2.2138,2.6572l0.0928,0.1211c0.203,0.2921 0.3125,0.6408 0.3125,0.999v2.6377c0,0.9665 -0.7835,1.75 -1.75,1.75h-0.3535c-0.3265,1.1543 -1.3877,2 -2.6465,2c-1.2588,0 -2.32,-0.8457 -2.6465,-2h-7.70702c-0.32646,1.1543 -1.3877,2 -2.64648,2c-1.25878,0 -2.32002,-0.8457 -2.64648,-2h-0.35352c-0.9665,0 -1.75,-0.7835 -1.75,-1.75zM15.8535,17.25c0.3265,-1.1543 1.3877,-2 2.6465,-2c1.2588,0 2.32,0.8457 2.6465,2h0.3535c0.1381,0 0.25,-0.1119 0.25,-0.25v-2.6377c0,-0.044 -0.0115,-0.0873 -0.0332,-0.125l-0.0244,-0.0352l-2.044,-2.4521h-4.8984v5.5zM19.75,18c0,-0.6904 -0.5596,-1.25 -1.25,-1.25c-0.6904,0 -1.25,0.5596 -1.25,1.25c0,0.6904 0.5596,1.25 1.25,1.25c0.6904,0 1.25,-0.5596 1.25,-1.25zM13.25,5.75h-10.75c-0.13807,0 -0.25,0.11193 -0.25,0.25v11c0,0.1381 0.11193,0.25 0.25,0.25h0.35352c0.32646,-1.1543 1.3877,-2 2.64648,-2c1.25878,0 2.32002,0.8457 2.64648,2h5.10352zM14.75,10.25h4.0361l-1.9043,-3.80859c-0.2117,-0.42348 -0.6447,-0.69141 -1.1181,-0.69141h-1.0137zM6.75,18c0,-0.6904 -0.55964,-1.25 -1.25,-1.25c-0.69036,0 -1.25,0.5596 -1.25,1.25c0,0.6904 0.55964,1.25 1.25,1.25c0.69036,0 1.25,-0.5596 1.25,-1.25z" fill="#002B51"/>
</svg>
