<svg width="24" height="24" viewBox="0 0 24 24" fill="none" xmlns="http://www.w3.org/2000/svg">
<path fill-rule="evenodd" clip-rule="evenodd" d="M0.75,6.5c0,-0.9665 0.7835,-1.75 1.75,-1.75h11.5h1.8127c1.0064,0 1.9324,0.54969 2.4142,1.43316l2.3963,4.39314l2.2212,2.6654c0.2621,0.3145 0.4056,0.711 0.4056,1.1204v2.1379c0,0.9665 -0.7835,1.75 -1.75,1.75h-0.3535c-0.3265,1.1543 -1.3877,2 -2.6465,2c-1.2588,0 -2.32,-0.8457 -2.6465,-2h-1.8535h-5.85352c-0.32646,1.1543 -1.3877,2 -2.64648,2c-1.25878,0 -2.32002,-0.8457 -2.64648,-2h-0.35352c-0.9665,0 -1.75,-0.7835 -1.75,-1.75zM15.8535,16.75c0.3265,-1.1543 1.3877,-2 2.6465,-2c1.2588,0 2.32,0.8457 2.6465,2h0.3535c0.1381,0 0.25,-0.1119 0.25,-0.25v-2.1379c0,-0.0585 -0.0205,-0.1152 -0.0579,-0.1601l-2.0434,-2.452h-4.8987v5zM19.75,17.5c0,-0.6904 -0.5596,-1.25 -1.25,-1.25c-0.6904,0 -1.25,0.5596 -1.25,1.25c0,0.6904 0.5596,1.25 1.25,1.25c0.6904,0 1.25,-0.5596 1.25,-1.25zM13.25,11v-4.75h-10.75c-0.13807,0 -0.25,0.11193 -0.25,0.25v10c0,0.1381 0.11193,0.25 0.25,0.25h0.35352c0.32646,-1.1543 1.3877,-2 2.64648,-2c1.25878,0 2.32002,0.8457 2.64648,2h5.10352zM14.75,6.25v4h3.9866l-1.8265,-3.34857c-0.219,-0.40157 -0.6399,-0.65143 -1.0974,-0.65143zM5.5,16.25c-0.69036,0 -1.25,0.5596 -1.25,1.25c0,0.6904 0.55964,1.25 1.25,1.25c0.69036,0 1.25,-0.5596 1.25,-1.25c0,-0.6904 -0.55964,-1.25 -1.25,-1.25z" fill="#002B51"/>
</svg>
