<svg width="24" height="24" viewBox="0 0 24 24" fill="none" xmlns="http://www.w3.org/2000/svg">
<path fill-rule="evenodd" clip-rule="evenodd" d="M2.5 4.75C1.5335 4.75 0.75 5.5335 0.75 6.5V16.5C0.75 17.4665 1.5335 18.25 2.5 18.25H2.85352C3.17998 19.4043 4.24122 20.25 5.5 20.25C6.75878 20.25 7.82002 19.4043 8.14648 18.25H14H15.8535C16.18 19.4043 17.2412 20.25 18.5 20.25C19.7588 20.25 20.82 19.4043 21.1465 18.25H21.5C22.4665 18.25 23.25 17.4665 23.25 16.5V14.3621C23.25 13.9527 23.1065 13.5562 22.8444 13.2417L20.6232 10.5763L18.2269 6.18316C17.7451 5.29969 16.8191 4.75 15.8127 4.75H14H2.5ZM18.5 16.25C19.1904 16.25 19.75 16.8096 19.75 17.5C19.75 18.1904 19.1904 18.75 18.5 18.75C17.8096 18.75 17.25 18.1904 17.25 17.5C17.25 16.8096 17.8096 16.25 18.5 16.25ZM14.75 10.25V6.25H15.8127C16.2702 6.25 16.6911 6.49986 16.9101 6.90143L18.7366 10.25H14.75ZM4.25 17.5C4.25 16.8096 4.80964 16.25 5.5 16.25C6.19036 16.25 6.75 16.8096 6.75 17.5C6.75 18.1904 6.19036 18.75 5.5 18.75C4.80964 18.75 4.25 18.1904 4.25 17.5Z" fill="#002B51"/>
</svg>
