<svg width="24" height="24" viewBox="0 0 24 24" fill="none" xmlns="http://www.w3.org/2000/svg">
<path fill-rule="evenodd" clip-rule="evenodd" d="M14,4.25h1.7639c1.0417,0 1.9939,0.58851 2.4597,1.52016l2.4083,4.81654l2.2125,2.655c0.2621,0.3145 0.4056,0.711 0.4056,1.1204v2.1379c0,0.9665 -0.7835,1.75 -1.75,1.75h-0.2612c-0.1263,1.4016 -1.3043,2.5 -2.7388,2.5c-1.4345,0 -2.6125,-1.0984 -2.7388,-2.5h-1.7612h-5.76121c-0.12631,1.4016 -1.30428,2.5 -2.73879,2.5c-1.43451,0 -2.61248,-1.0984 -2.73879,-2.5h-0.26121c-0.9665,0 -1.75,-0.7835 -1.75,-1.75v-10.5c0,-0.9665 0.7835,-1.75 1.75,-1.75zM18.7865,10.25l-1.9045,-3.80902c-0.2118,-0.42348 -0.6446,-0.69098 -1.1181,-0.69098h-1.0139v4.5zM5.5,19.25c0.69036,0 1.25,-0.5596 1.25,-1.25c0,-0.6904 -0.55964,-1.25 -1.25,-1.25c-0.69036,0 -1.25,0.5596 -1.25,1.25c0,0.6904 0.55964,1.25 1.25,1.25zM18.5,16.75c-0.6904,0 -1.25,0.5596 -1.25,1.25c0,0.6904 0.5596,1.25 1.25,1.25c0.6904,0 1.25,-0.5596 1.25,-1.25c0,-0.6904 -0.5596,-1.25 -1.25,-1.25z" fill="#002B51"/>
</svg>
