<svg width="24" height="24" viewBox="0 0 24 24" fill="none" xmlns="http://www.w3.org/2000/svg">
<path d="M15.7637,4.25c1.0416,0 1.9941,0.58885 2.4599,1.52051l2.4073,4.81449l2.2138,2.6572l0.0928,0.1211c0.203,0.2921 0.3125,0.6408 0.3125,0.999v2.1377c0,0.9665 -0.7835,1.75 -1.75,1.75h-0.2627c-0.1264,1.4016 -1.3028,2.5 -2.7373,2.5c-1.4345,0 -2.6109,-1.0984 -2.7373,-2.5h-7.5254c-0.12636,1.4016 -1.30283,2.5 -2.7373,2.5c-1.43447,0 -2.61093,-1.0984 -2.7373,-2.5h-0.2627c-0.9665,0 -1.75,-0.7835 -1.75,-1.75v-10.5c0,-0.9665 0.7835,-1.75 1.75,-1.75zM5.5,16.75c-0.69036,0 -1.25,0.5596 -1.25,1.25c0,0.6904 0.55964,1.25 1.25,1.25c0.69036,0 1.25,-0.5596 1.25,-1.25c0,-0.6904 -0.55964,-1.25 -1.25,-1.25zM18.5,16.75c-0.6904,0 -1.25,0.5596 -1.25,1.25c0,0.6904 0.5596,1.25 1.25,1.25c0.6904,0 1.25,-0.5596 1.25,-1.25c0,-0.6904 -0.5596,-1.25 -1.25,-1.25zM14.75,10.25h4.0361l-1.9043,-3.80859c-0.2117,-0.42348 -0.6447,-0.69141 -1.1181,-0.69141h-1.0137z" fill="#002B51"/>
</svg>
