<svg width="24" height="24" viewBox="0 0 24 24" fill="none" xmlns="http://www.w3.org/2000/svg">
<path fill-rule="evenodd" clip-rule="evenodd" d="M1.25,6c0,-1.51878 1.23122,-2.75 2.75,-2.75h11c1.5188,0 2.75,1.23122 2.75,2.75v1.67536l2.3496,-1.40978c1.1664,-0.69985 2.6504,0.14034 2.6504,1.50061v8.46761c0,1.3603 -1.4839,2.2005 -2.6504,1.5006l-2.3496,-1.4098v1.6754c0,1.5188 -1.2312,2.75 -2.75,2.75h-11c-1.51878,0 -2.75,-1.2312 -2.75,-2.75zM11.5,8c-0.8284,0 -1.5,0.67157 -1.5,1.5c0,0.8284 0.6716,1.5 1.5,1.5c0.8284,0 1.5,-0.6716 1.5,-1.5c0,-0.82843 -0.6716,-1.5 -1.5,-1.5z" fill="#002B51"/>
</svg>
