<svg width="24" height="24" viewBox="0 0 24 24" fill="none" xmlns="http://www.w3.org/2000/svg">
<path d="M15,3.25c1.5188,0 2.75,1.23122 2.75,2.75v1.6748l2.3496,-1.40918l0.1104,-0.06152c1.1474,-0.58548 2.54,0.24483 2.54,1.5625v8.4668c0,1.3603 -1.484,2.2008 -2.6504,1.501l-2.3496,-1.4102v1.6758c0,1.5188 -1.2312,2.75 -2.75,2.75h-11c-1.51878,0 -2.75,-1.2312 -2.75,-2.75v-12c0,-1.51878 1.23122,-2.75 2.75,-2.75zM11.5,8c-0.8284,0 -1.5,0.67157 -1.5,1.5c0,0.8284 0.6716,1.5 1.5,1.5c0.8284,0 1.5,-0.6716 1.5,-1.5c0,-0.82843 -0.6716,-1.5 -1.5,-1.5z" fill="#002B51"/>
</svg>
