<svg width="24" height="24" viewBox="0 0 24 24" fill="none" xmlns="http://www.w3.org/2000/svg">
<path fill-rule="evenodd" clip-rule="evenodd" d="M1.25,6c0,-1.51878 1.23122,-2.75 2.75,-2.75h11c1.5188,0 2.75,1.23122 2.75,2.75v1.67536l2.3496,-1.40978c1.1664,-0.69985 2.6504,0.14034 2.6504,1.50061v8.46761c0,1.3603 -1.4839,2.2005 -2.6504,1.5006l-2.3496,-1.4098v1.6754c0,1.5188 -1.2312,2.75 -2.75,2.75h-11c-1.51878,0 -2.75,-1.2312 -2.75,-2.75zM17.8714,14.6482l3,1.8c0.1666,0.1 0.3786,-0.0201 0.3786,-0.2144v-8.46761c0,-0.19432 -0.212,-0.31435 -0.3786,-0.21437l-3,1.8c-0.0753,0.04518 -0.1214,0.12655 -0.1214,0.21437v4.86761c0,0.0878 0.0461,0.1692 0.1214,0.2144zM15,4.75h-11c-0.69036,0 -1.25,0.55964 -1.25,1.25v12c0,0.6904 0.55964,1.25 1.25,1.25h11c0.6904,0 1.25,-0.5596 1.25,-1.25v-3.5662v-4.86761v-3.56619c0,-0.69036 -0.5596,-1.25 -1.25,-1.25zM10,9.5c0,-0.82843 0.6716,-1.5 1.5,-1.5c0.8284,0 1.5,0.67157 1.5,1.5c0,0.8284 -0.6716,1.5 -1.5,1.5c-0.8284,0 -1.5,-0.6716 -1.5,-1.5z" fill="#002B51"/>
</svg>
