<svg width="24" height="24" viewBox="0 0 24 24" fill="none" xmlns="http://www.w3.org/2000/svg">
<path d="M15,3.25c1.5188,0 2.75,1.23122 2.75,2.75v1.6748l2.3496,-1.40918l0.1104,-0.06152c1.1474,-0.58548 2.54,0.24483 2.54,1.5625v8.4668c0,1.3603 -1.484,2.2008 -2.6504,1.501l-2.3496,-1.4102v1.6758c0,1.5188 -1.2312,2.75 -2.75,2.75h-11c-1.51878,0 -2.75,-1.2312 -2.75,-2.75v-12c0,-1.51878 1.23122,-2.75 2.75,-2.75zM4,4.75c-0.69036,0 -1.25,0.55964 -1.25,1.25v12c0,0.6904 0.55964,1.25 1.25,1.25h11c0.6904,0 1.25,-0.5596 1.25,-1.25v-12c0,-0.69036 -0.5596,-1.25 -1.25,-1.25zM20.9355,7.52441l-0.0644,0.02735l-3,1.7998c-0.0753,0.04519 -0.1211,0.12707 -0.1211,0.21485v4.86719c0,0.0878 0.0458,0.1696 0.1211,0.2148l3,1.7998c0.1666,0.1 0.3789,-0.0205 0.3789,-0.2148v-8.4668c0,-0.17001 -0.1623,-0.2835 -0.3145,-0.24219zM11.5,8c0.8284,0 1.5,0.67157 1.5,1.5c0,0.8284 -0.6716,1.5 -1.5,1.5c-0.8284,0 -1.5,-0.6716 -1.5,-1.5c0,-0.82843 0.6716,-1.5 1.5,-1.5z" fill="#002B51"/>
</svg>
