<svg width="24" height="24" viewBox="0 0 24 24" fill="none" xmlns="http://www.w3.org/2000/svg">
<path fill-rule="evenodd" clip-rule="evenodd" d="M12.3301,5.1006l-4.53414,4.18555c-0.32315,0.29822 -0.7468,0.46378 -1.18652,0.46387h-2.60938c-0.13807,0 -0.25,0.11193 -0.25,0.24998v4c0,0.1381 0.11193,0.25 0.25,0.25h2.60938l0.16406,0.0078c0.38002,0.0359 0.73973,0.1952 1.02246,0.4561l4.53414,4.1855c0.1602,0.1479 0.42,0.0344 0.42,-0.1836v-13.4316c0,-0.19065 -0.1986,-0.30172 -0.3555,-0.22754zM6.77838,15.8164c-0.03465,-0.0319 -0.07734,-0.0529 -0.12305,-0.0615l-0.04589,-0.0049h-2.60938c-0.96648,0 -1.75,-0.7835 -1.75,-1.75v-4c0,-0.96648 0.7835,-1.74998 1.75,-1.74998h2.60938c0.06267,-0.00009 0.12286,-0.02391 0.16894,-0.06641l4.53512,-4.18555l0.1065,-0.09179c1.1257,-0.8927 2.8301,-0.09998 2.8301,1.37793v13.4316c0,1.5255 -1.8155,2.3206 -2.9366,1.2862zM20.2501,12.0001c0,-0.8207 -0.1616,-1.6334 -0.4756,-2.39162c-0.2748,-0.6633 -0.6616,-1.27376 -1.1426,-1.80469l-0.2129,-0.22266l-0.0508,-0.05761c-0.2402,-0.29457 -0.2237,-0.72932 0.0508,-1.00391c0.2746,-0.27458 0.7093,-0.29104 1.0039,-0.05078l0.0576,0.05078l0.2627,0.27637c0.5967,0.65848 1.0762,1.41557 1.417,2.23828c0.3895,0.94027 0.5899,1.94804 0.5899,2.96584l-0.0098,0.3808c-0.0374,0.761 -0.1867,1.5122 -0.4434,2.2295l-0.1367,0.3555c-0.3895,0.9403 -0.96,1.795 -1.6797,2.5146c-0.2929,0.2929 -0.7686,0.2929 -1.0615,0c-0.2928,-0.2928 -0.2929,-0.7686 0,-1.0615c0.5804,-0.5803 1.0414,-1.269 1.3555,-2.0273l0.1103,-0.2871c0.2068,-0.5782 0.3272,-1.1836 0.3574,-1.7969zM17.2501,12.0001c0,-0.4268 -0.0838,-0.8499 -0.2471,-1.2442c-0.143,-0.345 -0.3445,-0.6623 -0.5947,-0.93844l-0.1104,-0.11523l-0.0508,-0.05762c-0.2401,-0.29447 -0.2235,-0.72833 0.0508,-1.00293c0.2746,-0.27459 0.7093,-0.29204 1.0039,-0.05176l0.0567,0.05176l0.1611,0.16895c0.3658,0.40362 0.6602,0.86776 0.8691,1.37207c0.2386,0.5762 0.3614,1.1937 0.3614,1.8174l-0.0059,0.2334c-0.0229,0.4662 -0.1143,0.9266 -0.2715,1.3662l-0.084,0.2178c-0.2387,0.5763 -0.5892,1.0999 -1.0302,1.541c-0.2929,0.2929 -0.7677,0.2929 -1.0606,0c-0.2926,-0.2929 -0.2928,-0.7678 0,-1.0606c0.3017,-0.3017 0.5418,-0.6595 0.7051,-1.0537l0.0576,-0.1494c0.1075,-0.3006 0.1698,-0.6157 0.1856,-0.9346z" fill="#002B51"/>
</svg>
