<svg width="24" height="24" viewBox="0 0 24 24" fill="none" xmlns="http://www.w3.org/2000/svg">
<path d="M3.46973,3.46978c0.27457,-0.27454 0.70934,-0.29197 1.0039,-0.05175l0.05664,0.05175l16.00003,16.00002l0.0517,0.0566c0.2403,0.2946 0.2228,0.7293 -0.0517,1.0039c-0.2746,0.2746 -0.7094,0.2921 -1.0039,0.0518l-0.0567,-0.0518l-5.2197,-5.2197v3.4053c-0.0001,1.5253 -1.8155,2.3204 -2.9365,1.2861l-4.53518,-4.1855c-0.03464,-0.032 -0.07736,-0.0529 -0.12305,-0.0616l-0.04589,-0.0048h-2.60938c-0.96642,-0.0001 -1.74991,-0.7836 -1.75,-1.75v-4c0.00002,-0.96652 0.78352,-1.75004 1.75,-1.75004h2.60938c0.06263,-0.0001 0.12288,-0.02397 0.16894,-0.06641l0.17871,-0.16602l-3.4873,-3.4873l-0.05176,-0.05664c-0.24022,-0.29458 -0.22281,-0.72934 0.05176,-1.00391zM11.4199,3.90631c1.1257,-0.89265 2.8301,-0.09993 2.8301,1.37793v5.90526l-5.14941,-5.1494l2.21291,-2.042z" fill="#002B51"/>
</svg>
