<svg width="24" height="24" viewBox="0 0 24 24" fill="none" xmlns="http://www.w3.org/2000/svg">
<path fill-rule="evenodd" clip-rule="evenodd" d="M11.313 3.99801C12.434 2.96324 14.25 3.75834 14.25 5.28392V18.7161C14.25 20.2416 12.434 21.0367 11.313 20.002L6.77857 15.8163C6.73239 15.7737 6.67186 15.75 6.60901 15.75L3.99995 15.75C3.03347 15.7499 2.25 14.9664 2.25 14V9.99993C2.25 9.03343 3.0335 8.24993 4 8.24993H6.60902C6.67186 8.24993 6.73241 8.22626 6.77859 8.18363L11.313 3.99801ZM19.4801 6.51992C19.1872 6.22702 18.7123 6.22702 18.4194 6.51992C18.1265 6.81281 18.1265 7.28768 18.4194 7.58058C18.9998 8.16094 19.4602 8.84994 19.7742 9.60822C20.0883 10.3665 20.25 11.1792 20.25 12C20.25 12.8208 20.0883 13.6335 19.7742 14.3918C19.4602 15.1501 18.9998 15.839 18.4194 16.4194C18.1265 16.7123 18.1265 17.1872 18.4194 17.4801C18.7123 17.773 19.1872 17.773 19.4801 17.4801C20.1997 16.7604 20.7706 15.9061 21.1601 14.9658C21.5495 14.0255 21.75 13.0177 21.75 12C21.75 10.9823 21.5495 9.97447 21.1601 9.0342C20.7706 8.09393 20.1997 7.23957 19.4801 6.51992ZM17.3588 8.64124C17.0659 8.34834 16.591 8.34834 16.2981 8.64124C16.0052 8.93413 16.0052 9.409 16.2981 9.7019C16.5999 10.0037 16.8393 10.362 17.0026 10.7563C17.1659 11.1506 17.25 11.5732 17.25 12C17.25 12.4268 17.1659 12.8494 17.0026 13.2437C16.8393 13.638 16.5999 13.9963 16.2981 14.2981C16.0052 14.591 16.0052 15.0659 16.2981 15.3588C16.591 15.6516 17.0659 15.6516 17.3588 15.3588C17.7998 14.9177 18.1497 14.394 18.3884 13.8177C18.6271 13.2414 18.75 12.6238 18.75 12C18.75 11.3762 18.6271 10.7585 18.3884 10.1822C18.1497 9.60595 17.7998 9.08232 17.3588 8.64124Z" fill="#002B51"/>
</svg>
