<svg width="24" height="24" viewBox="0 0 24 24" fill="none" xmlns="http://www.w3.org/2000/svg">
<path d="M11.4199,3.90627c1.1257,-0.8927 2.8301,-0.09998 2.8301,1.37793v13.4316c-0.0001,1.5254 -1.8155,2.3205 -2.9365,1.2862l-4.53518,-4.1856c-0.03464,-0.0319 -0.07735,-0.0529 -0.12305,-0.0615l-0.04589,-0.0049h-2.60938c-0.96642,0 -1.74991,-0.7836 -1.75,-1.75v-4c0,-0.96648 0.7835,-1.74998 1.75,-1.74998h2.60938c0.06264,-0.00009 0.12287,-0.02396 0.16894,-0.06641l4.53518,-4.18555zM16.2979,8.64162c0.2745,-0.27459 0.7093,-0.29204 1.0039,-0.05176l0.0566,0.05176l0.1611,0.16894c0.3658,0.40361 0.6603,0.86779 0.8692,1.37204c0.2385,0.5762 0.3613,1.1938 0.3613,1.8174l-0.0059,0.2334c-0.0229,0.4662 -0.1142,0.9267 -0.2714,1.3662l-0.084,0.2178c-0.2387,0.5763 -0.5892,1.1 -1.0303,1.541c-0.2929,0.2928 -0.7677,0.2928 -1.0605,0c-0.2926,-0.2929 -0.2928,-0.7677 0,-1.0605c0.3017,-0.3017 0.5417,-0.6596 0.705,-1.0537l0.0576,-0.1495c0.1076,-0.3006 0.1699,-0.6156 0.1856,-0.9345l0.0039,-0.1602c0,-0.4267 -0.0838,-0.8498 -0.2471,-1.2441c-0.1429,-0.345 -0.3445,-0.6624 -0.5947,-0.9385l-0.1103,-0.11523l-0.0508,-0.05762c-0.2402,-0.29446 -0.2235,-0.72833 0.0508,-1.00293z" fill="#002B51"/>
</svg>
