<svg width="24" height="24" viewBox="0 0 24 24" fill="none" xmlns="http://www.w3.org/2000/svg">
<path d="M11.3135,3.99774c1.121,-1.03415 2.9363,-0.23909 2.9365,1.28613v13.43163c0,1.5255 -1.8155,2.3206 -2.9365,1.2861l-4.53515,-4.1855c-0.04605,-0.0424 -0.10635,-0.0663 -0.16894,-0.0664h-2.60938c-0.96648,0 -1.75,-0.7835 -1.75,-1.75v-4.00001c0.00014,-0.96637 0.78359,-1.75 1.75,-1.75h2.60938c0.06267,-0.00009 0.12286,-0.02391 0.16894,-0.0664zM12.75,5.28387c-0.0002,-0.21771 -0.2598,-0.33117 -0.4199,-0.18359l-4.53417,4.18555c-0.32316,0.29821 -0.7468,0.46377 -1.18652,0.46386h-2.60938c-0.13798,0 -0.24986,0.11205 -0.25,0.25v4.00001c0,0.1381 0.11193,0.25 0.25,0.25h2.60938c0.43964,0.0001 0.86339,0.1658 1.18652,0.4639l4.53417,4.1855c0.1602,0.1478 0.4199,0.0344 0.4199,-0.1836zM18.419,6.51923c0.2745,-0.27438 0.7094,-0.29086 1.0039,-0.05079l0.0576,0.05079l0.2627,0.27636c0.5966,0.65841 1.0762,1.41568 1.417,2.23828c0.3894,0.94018 0.5898,1.94823 0.5898,2.96583c0,1.0176 -0.2004,2.0256 -0.5898,2.9658c-0.3895,0.9402 -0.9601,1.795 -1.6797,2.5147c-0.2929,0.2929 -0.7686,0.2929 -1.0615,0c-0.2927,-0.2929 -0.2929,-0.7687 0,-1.0616c0.5803,-0.5803 1.0414,-1.2691 1.3554,-2.0273c0.314,-0.7582 0.4756,-1.571 0.4756,-2.3916c0,-0.8206 -0.1616,-1.6335 -0.4756,-2.39161c-0.2747,-0.66319 -0.6616,-1.27383 -1.1425,-1.80468l-0.2129,-0.22266l-0.0508,-0.05762c-0.2401,-0.29456 -0.2237,-0.72937 0.0508,-1.0039zM16.2979,8.6413c0.2745,-0.27439 0.7094,-0.29186 1.0039,-0.05176l0.0566,0.05176l0.1612,0.16894c0.3657,0.40355 0.6602,0.86787 0.8691,1.37206c0.2386,0.5761 0.3613,1.1939 0.3613,1.8174c0,0.6235 -0.1228,1.2413 -0.3613,1.8174c-0.2387,0.5762 -0.5893,1.0999 -1.0303,1.541c-0.2929,0.2929 -0.7676,0.2929 -1.0605,0c-0.2924,-0.2929 -0.2928,-0.7678 0,-1.0606c0.3016,-0.3016 0.5418,-0.6595 0.7051,-1.0537c0.1632,-0.3942 0.247,-0.8174 0.247,-1.2441c0,-0.4267 -0.0838,-0.8499 -0.247,-1.2441c-0.143,-0.345 -0.3446,-0.6625 -0.5948,-0.93852l-0.1103,-0.11524l-0.0508,-0.05761c-0.24,-0.29447 -0.2234,-0.7284 0.0508,-1.00293z" fill="#002B51"/>
</svg>
