<svg width="24" height="24" viewBox="0 0 24 24" fill="none" xmlns="http://www.w3.org/2000/svg">
<path d="M3.46973,3.46978c0.27457,-0.27454 0.70934,-0.29197 1.0039,-0.05175l0.05664,0.05175l16.00003,16.00002l0.0517,0.0566c0.2403,0.2946 0.2228,0.7293 -0.0517,1.0039c-0.2746,0.2746 -0.7094,0.2921 -1.0039,0.0518l-0.0567,-0.0518l-5.2197,-5.2197v3.4043c0,1.5255 -1.8155,2.3206 -2.9365,1.2861l-4.53518,-4.1855c-0.03457,-0.0317 -0.07754,-0.0529 -0.12305,-0.0615l-0.04589,-0.0049h-2.60938c-0.96648,0 -1.75,-0.7835 -1.75,-1.75v-4.00002c0.0005,-0.96607 0.78381,-1.75 1.75,-1.75h2.60938c0.06266,-0.0001 0.12287,-0.02392 0.16894,-0.06641l0.17773,-0.16601l-3.48632,-3.48633l-0.05176,-0.05664c-0.24022,-0.29458 -0.22281,-0.72934 0.05176,-1.00391zM11.4199,3.90533c1.1255,-0.89192 2.8294,-0.09917 2.8301,1.37793v5.90624l-5.15039,-5.15038l2.21389,-2.04199z" fill="#002B51"/>
</svg>
