<svg width="24" height="24" viewBox="0 0 24 24" fill="none" xmlns="http://www.w3.org/2000/svg">
<path d="M11.3135,3.99878c1.121,-1.03439 2.9365,-0.23932 2.9365,1.28613v13.43169c-0.0006,1.5248 -1.8156,2.3198 -2.9365,1.2861l-4.53515,-4.1856c-0.04607,-0.0424 -0.10629,-0.0663 -0.16894,-0.0664h-2.60938c-0.96622,0 -1.74958,-0.7838 -1.75,-1.75v-4c0,-0.96647 0.7835,-1.74997 1.75,-1.74997h2.60938c0.0625,-0.00009 0.12291,-0.02413 0.16894,-0.0664zM12.75,5.28491c0,-0.21794 -0.2598,-0.33141 -0.4199,-0.18359l-4.53417,4.18555c-0.32311,0.29799 -0.74697,0.46377 -1.18652,0.46386h-2.60938c-0.13807,0 -0.25,0.11193 -0.25,0.24997v4c0.00042,0.1377 0.11219,0.25 0.25,0.25h2.60938c0.4397,0.0001 0.86337,0.1657 1.18652,0.4639l4.53417,4.1855c0.16,0.1472 0.4193,0.0337 0.4199,-0.1835zM16.2979,8.64233c0.2746,-0.27459 0.7093,-0.29203 1.0039,-0.05175l0.0566,0.05175l0.1612,0.16895c0.3656,0.40353 0.6603,0.86793 0.8691,1.37202c0.2384,0.5761 0.3613,1.194 0.3613,1.8174c-0.0001,0.6234 -0.1228,1.2415 -0.3613,1.8174c-0.2387,0.5761 -0.5893,1.1001 -1.0303,1.541c-0.2928,0.2924 -0.7677,0.2924 -1.0605,0c-0.2925,-0.2928 -0.2925,-0.7677 0,-1.0605c0.3016,-0.3016 0.5417,-0.6598 0.7051,-1.0537c0.1632,-0.3941 0.2469,-0.8176 0.247,-1.2442c0,-0.4265 -0.0839,-0.85 -0.247,-1.2441c-0.1429,-0.3449 -0.3447,-0.6624 -0.5948,-0.93848l-0.1103,-0.11524l-0.0508,-0.05762c-0.2401,-0.29434 -0.2232,-0.72831 0.0508,-1.00293z" fill="#002B51"/>
</svg>
