<svg width="24" height="24" viewBox="0 0 24 24" fill="none" xmlns="http://www.w3.org/2000/svg">
<path fill-rule="evenodd" clip-rule="evenodd" d="M20.5303,19.4697c0.2929,0.2929 0.2929,0.7677 0,1.0606c-0.2929,0.2929 -0.7677,0.2929 -1.0606,0l-5.2197,-5.2196v3.4054c0,1.5256 -1.816,2.3207 -2.937,1.2859l-4.5344,-4.1856c-0.04618,-0.0427 -0.10671,-0.0663 -0.16956,-0.0663l-2.60906,-0.0001c-0.96648,-0.0001 -1.74995,-0.7835 -1.74995,-1.75v-4.00006c0,-0.96649 0.7835,-1.75 1.75,-1.75h2.60902c0.06284,0 0.12339,-0.02367 0.16957,-0.0663l0.17907,-0.16529l-3.48802,-3.48802c-0.29289,-0.29289 -0.29289,-0.76777 0,-1.06066c0.29289,-0.29289 0.76777,-0.29289 1.06066,0zM12.75,13.8107l-4.7308,-4.73084l-0.22316,0.20599c-0.32327,0.2984 -0.74706,0.46409 -1.18699,0.46409h-2.60902c-0.13807,0 -0.25,0.11193 -0.25,0.25v4.00006c0,0.138 0.11192,0.25 0.24999,0.25l2.60907,0.0001c0.43991,0 0.86368,0.1657 1.18693,0.464l4.53448,4.1857c0.1601,0.1478 0.4195,0.0342 0.4195,-0.1837zM12.3305,5.10023l-2.1682,2.0014l-1.06154,-1.0615l2.21224,-2.04211c1.121,-1.03477 2.937,-0.23966 2.937,1.28591v5.90547l-1.5,-1.50001v-4.40546c0,-0.21794 -0.2594,-0.33153 -0.4195,-0.1837z" fill="#002B51"/>
</svg>
