<svg width="24" height="24" viewBox="0 0 24 24" fill="none" xmlns="http://www.w3.org/2000/svg">
<path d="M3.46973,3.46973c0.27457,-0.27454 0.70934,-0.29197 1.0039,-0.05176l0.05664,0.05176l16.00003,15.99997l0.0517,0.0567c0.2403,0.2945 0.2228,0.7293 -0.0517,1.0039c-0.2746,0.2746 -0.7094,0.292 -1.0039,0.0517l-0.0567,-0.0517l-5.2197,-5.2198v3.4063c-0.0008,1.5246 -1.8157,2.3196 -2.9365,1.2861l-4.53518,-4.1855c-0.04606,-0.0425 -0.1063,-0.0663 -0.16894,-0.0664h-2.60938c-0.96614,-0.0001 -1.74945,-0.784 -1.75,-1.75v-4c0,-0.96652 0.7835,-1.75002 1.75,-1.75002h2.60938c0.06244,-0.0001 0.12293,-0.0242 0.16894,-0.06641l0.17871,-0.16699l-3.4873,-3.48731l-0.05176,-0.05664c-0.24022,-0.29458 -0.22281,-0.72933 0.05176,-1.0039zM11.3135,3.99902c1.121,-1.03439 2.9365,-0.23931 2.9365,1.28614v5.90434l-5.14941,-5.14946z" fill="#002B51"/>
</svg>
