<svg width="24" height="24" viewBox="0 0 24 24" fill="none" xmlns="http://www.w3.org/2000/svg">
<path fill-rule="evenodd" clip-rule="evenodd" d="M11.313,3.99801c1.121,-1.03477 2.937,-0.23967 2.937,1.28591v13.43218c0,1.5255 -1.816,2.3206 -2.937,1.2859l-4.53443,-4.1857c-0.04618,-0.0426 -0.10671,-0.0663 -0.16956,-0.0663h-2.60906c-0.96648,-0.0001 -1.74995,-0.7836 -1.74995,-1.75v-4.00007c0,-0.9665 0.7835,-1.75 1.75,-1.75h2.60902c0.06284,0 0.12339,-0.02367 0.16957,-0.0663zM16.2981,8.64124c0.2929,-0.2929 0.7678,-0.2929 1.0607,0c0.441,0.44108 0.7909,0.96471 1.0296,1.54096c0.2387,0.5763 0.3616,1.194 0.3616,1.8178c0,0.6238 -0.1229,1.2414 -0.3616,1.8177c-0.2387,0.5763 -0.5886,1.1 -1.0296,1.5411c-0.2929,0.2928 -0.7678,0.2928 -1.0607,0c-0.2929,-0.2929 -0.2929,-0.7678 0,-1.0607c0.3018,-0.3018 0.5412,-0.6601 0.7045,-1.0544c0.1633,-0.3943 0.2474,-0.8169 0.2474,-1.2437c0,-0.4268 -0.0841,-0.8494 -0.2474,-1.2437c-0.1633,-0.3943 -0.4027,-0.7526 -0.7045,-1.0544c-0.2929,-0.2929 -0.2929,-0.76777 0,-1.06066z" fill="#002B51"/>
</svg>
