<svg width="24" height="24" viewBox="0 0 24 24" fill="none" xmlns="http://www.w3.org/2000/svg">
<path fill-rule="evenodd" clip-rule="evenodd" d="M14.25,18.7158c0,1.5255 -1.8155,2.3206 -2.9365,1.2862l-4.53518,-4.1856c-0.03465,-0.0319 -0.07734,-0.0529 -0.12305,-0.0615l-0.04589,-0.0049h-2.60938c-0.96648,0 -1.75,-0.7835 -1.75,-1.75v-4c0,-0.96648 0.7835,-1.74998 1.75,-1.74998h2.60938c0.06267,-0.00009 0.12286,-0.02391 0.16894,-0.06641l4.53518,-4.18555l0.1064,-0.09179c1.1257,-0.8927 2.8301,-0.09998 2.8301,1.37793zM18.6318,7.80379l-0.2129,-0.22266l-0.0507,-0.05761c-0.2403,-0.29457 -0.2238,-0.72932 0.0507,-1.00391c0.2746,-0.27458 0.7094,-0.29104 1.004,-0.05078l0.0576,0.05078l0.2627,0.27637c0.5966,0.65848 1.0762,1.41557 1.417,2.23828c0.3894,0.94027 0.5898,1.94804 0.5898,2.96584l-0.0098,0.3808c-0.0374,0.761 -0.1867,1.5122 -0.4433,2.2295l-0.1367,0.3555c-0.3895,0.9403 -0.9601,1.795 -1.6797,2.5146c-0.2929,0.2929 -0.7687,0.2929 -1.0616,0c-0.2928,-0.2928 -0.2928,-0.7686 0,-1.0615c0.5804,-0.5803 1.0414,-1.269 1.3555,-2.0273l0.1104,-0.2871c0.2067,-0.5782 0.3272,-1.1836 0.3574,-1.7969l0.0078,-0.3076c0,-0.8207 -0.1615,-1.6334 -0.4756,-2.39162c-0.2747,-0.6633 -0.6616,-1.27376 -1.1426,-1.80469zM16.4082,9.81746l-0.1103,-0.11523l-0.0508,-0.05762c-0.2402,-0.29447 -0.2235,-0.72833 0.0508,-1.00293c0.2745,-0.27459 0.7093,-0.29204 1.0039,-0.05176l0.0566,0.05176l0.1611,0.16895c0.3658,0.40362 0.6603,0.86776 0.8692,1.37207c0.2386,0.5762 0.3613,1.1937 0.3613,1.8174l-0.0059,0.2334c-0.0229,0.4662 -0.1142,0.9266 -0.2714,1.3662l-0.084,0.2178c-0.2387,0.5763 -0.5892,1.0999 -1.0303,1.541c-0.2929,0.2929 -0.7677,0.2929 -1.0605,0c-0.2926,-0.2929 -0.2928,-0.7678 0,-1.0606c0.3017,-0.3017 0.5417,-0.6595 0.705,-1.0537l0.0576,-0.1494c0.1076,-0.3006 0.1699,-0.6157 0.1856,-0.9346l0.0039,-0.1601c0,-0.4268 -0.0837,-0.8499 -0.2471,-1.2442c-0.1429,-0.345 -0.3444,-0.6623 -0.5947,-0.93844z" fill="#002B51"/>
</svg>
