<svg width="24" height="24" viewBox="0 0 24 24" fill="none" xmlns="http://www.w3.org/2000/svg">
<path fill-rule="evenodd" clip-rule="evenodd" d="M4.53033 3.46967C4.23744 3.17678 3.76256 3.17678 3.46967 3.46967C3.17678 3.76256 3.17678 4.23744 3.46967 4.53033L6.95769 8.01835L6.77862 8.18364C6.73244 8.22627 6.67189 8.24994 6.60905 8.24994H4.00003C3.03353 8.24994 2.25003 9.03345 2.25003 9.99994V14C2.25003 14.9665 3.0335 15.7499 3.99998 15.75L6.60904 15.7501C6.67189 15.7501 6.73242 15.7737 6.7786 15.8164L11.313 20.002C12.434 21.0368 14.25 20.2417 14.25 18.7161V15.3107L19.4697 20.5303C19.7626 20.8232 20.2374 20.8232 20.5303 20.5303C20.8232 20.2374 20.8232 19.7626 20.5303 19.4697L4.53033 3.46967ZM12.75 13.8107L8.0192 9.07986L7.79604 9.28585C7.47277 9.58425 7.04898 9.74994 6.60905 9.74994H4.00003C3.86196 9.74994 3.75003 9.86187 3.75003 9.99994V14C3.75003 14.138 3.86195 14.25 4.00002 14.25L6.60909 14.2501C7.049 14.2501 7.47277 14.4158 7.79602 14.7141L12.3305 18.8998C12.4906 19.0476 12.75 18.934 12.75 18.7161V13.8107ZM12.75 5.28393V9.68939L14.25 11.1894V5.28393C14.25 3.75836 12.434 2.96325 11.313 3.99802L9.10076 6.04013L10.1623 7.10163L12.3305 5.10023C12.4906 4.9524 12.75 5.06599 12.75 5.28393Z" fill="#002B51"/>
</svg>
