<svg width="24" height="24" viewBox="0 0 24 24" fill="none" xmlns="http://www.w3.org/2000/svg">
<path d="M11.42,3.90627c1.1256,-0.8927 2.83,-0.09998 2.83,1.37793v13.4316c-0.0003,1.5251 -1.8156,2.3203 -2.9365,1.2862l-4.53515,-4.1856c-0.03463,-0.0319 -0.07737,-0.0529 -0.12305,-0.0615l-0.04589,-0.0049h-2.60938c-0.96634,0 -1.74977,-0.7837 -1.75,-1.75v-4c0,-0.96648 0.7835,-1.74998 1.75,-1.74998h2.60938c0.06258,-0.00009 0.12289,-0.02403 0.16894,-0.06641l4.53515,-4.18555zM12.75,5.2842c0,-0.19065 -0.1985,-0.30172 -0.3554,-0.22754l-0.0645,0.04394l-4.53417,4.18555c-0.32313,0.2981 -0.74689,0.46378 -1.18652,0.46387h-2.60938c-0.13807,0 -0.25,0.11193 -0.25,0.24998v4c0.00023,0.1379 0.11207,0.25 0.25,0.25h2.60938l0.16406,0.0078c0.38,0.0359 0.73974,0.1952 1.02246,0.4561l4.53417,4.1855c0.1601,0.1475 0.4196,0.034 0.4199,-0.1836zM16.2979,8.64162c0.2746,-0.27459 0.7093,-0.29204 1.0039,-0.05176l0.0566,0.05176l0.1612,0.16894c0.3656,0.40358 0.6602,0.86785 0.8691,1.37204c0.2385,0.5761 0.3613,1.1939 0.3613,1.8174l-0.0058,0.2334c-0.023,0.4662 -0.1143,0.9268 -0.2715,1.3662l-0.084,0.2178c-0.2387,0.5762 -0.5893,1.1 -1.0303,1.541c-0.2928,0.2927 -0.7677,0.2927 -1.0605,0c-0.2925,-0.2928 -0.2926,-0.7677 0,-1.0605c0.3016,-0.3017 0.5417,-0.6597 0.7051,-1.0537l0.0576,-0.1495c0.1075,-0.3005 0.1698,-0.6157 0.1855,-0.9345l0.0039,-0.1602c0,-0.4267 -0.0838,-0.8499 -0.247,-1.2441c-0.1429,-0.345 -0.3446,-0.6624 -0.5948,-0.9385l-0.1103,-0.11523l-0.0508,-0.05762c-0.2401,-0.29441 -0.2233,-0.72833 0.0508,-1.00293z" fill="#002B51"/>
</svg>
