<svg width="24" height="24" viewBox="0 0 24 24" fill="none" xmlns="http://www.w3.org/2000/svg">
<path fill-rule="evenodd" clip-rule="evenodd" d="M12.3305 5.10021C12.4906 4.95239 12.75 5.06597 12.75 5.28392V18.7161C12.75 18.934 12.4906 19.0476 12.3305 18.8998L7.79603 14.7141C7.47278 14.4157 7.049 14.2501 6.60909 14.25L4.00003 14.25C3.86196 14.25 3.75003 14.138 3.75003 14V9.99993C3.75003 9.86186 3.86196 9.74993 4.00003 9.74993H6.60905C7.04898 9.74993 7.47278 9.58423 7.79604 9.28584L12.3305 5.10021ZM14.25 5.28392C14.25 3.75834 12.434 2.96324 11.313 3.99801L6.77862 8.18363C6.73244 8.22626 6.6719 8.24993 6.60905 8.24993H4.00003C3.03354 8.24993 2.25003 9.03343 2.25003 9.99993V14C2.25003 14.9664 3.0335 15.7499 3.99998 15.75L6.60905 15.75C6.67189 15.75 6.73243 15.7737 6.77861 15.8163L11.313 20.002C12.434 21.0367 14.25 20.2416 14.25 18.7161V5.28392ZM17.3588 8.64124C17.0659 8.34834 16.591 8.34834 16.2981 8.64124C16.0052 8.93413 16.0052 9.409 16.2981 9.7019C16.5999 10.0037 16.8393 10.362 17.0026 10.7563C17.166 11.1506 17.25 11.5732 17.25 12C17.25 12.4268 17.166 12.8494 17.0026 13.2437C16.8393 13.638 16.5999 13.9963 16.2981 14.2981C16.0052 14.591 16.0052 15.0659 16.2981 15.3588C16.591 15.6516 17.0659 15.6516 17.3588 15.3588C17.7999 14.9177 18.1498 14.394 18.3885 13.8177C18.6272 13.2414 18.75 12.6238 18.75 12C18.75 11.3762 18.6272 10.7585 18.3885 10.1822C18.1498 9.60595 17.7999 9.08232 17.3588 8.64124Z" fill="#002B51"/>
</svg>
