<svg width="24" height="24" viewBox="0 0 24 24" fill="none" xmlns="http://www.w3.org/2000/svg">
<path d="M11.4199,3.90547c1.1255,-0.89211 2.8295,-0.09936 2.8301,1.37793v13.4316c0,1.5255 -1.8155,2.3207 -2.9365,1.2862l-4.53518,-4.1856c-0.03459,-0.0317 -0.0775,-0.0529 -0.12305,-0.0615l-0.04589,-0.0049h-2.60938c-0.96648,0 -1.75,-0.7835 -1.75,-1.75v-3.99998c0.00039,-0.96617 0.78374,-1.75 1.75,-1.75h2.60938c0.06267,-0.00009 0.12286,-0.02391 0.16894,-0.06641l4.53518,-4.18554zM16.2979,8.64082c0.2744,-0.2741 0.7094,-0.29159 1.0039,-0.05176l0.0566,0.05176l0.1611,0.16895c0.3656,0.40344 0.6603,0.86802 0.8692,1.37203c0.2385,0.576 0.3612,1.1941 0.3613,1.8174l-0.0059,0.2334c-0.0229,0.466 -0.1144,0.9269 -0.2714,1.3662l-0.084,0.2178c-0.2387,0.5761 -0.5894,1.1 -1.0303,1.541c-0.2929,0.2929 -0.7677,0.2929 -1.0605,0c-0.2922,-0.2929 -0.2927,-0.7679 0,-1.0605c0.3015,-0.3017 0.5418,-0.6597 0.705,-1.0537l0.0576,-0.1495c0.1074,-0.3004 0.1699,-0.6159 0.1856,-0.9345l0.0039,-0.1602c-0.0001,-0.4265 -0.0838,-0.8501 -0.2471,-1.2441c-0.1429,-0.3448 -0.3446,-0.6625 -0.5947,-0.9385l-0.1103,-0.11523l-0.0508,-0.05762c-0.2398,-0.29446 -0.2234,-0.72848 0.0508,-1.00293z" fill="#002B51"/>
</svg>
