<svg width="24" height="24" viewBox="0 0 24 24" fill="none" xmlns="http://www.w3.org/2000/svg">
<path d="M3.46976,3.46965c0.29289,-0.29286 0.76766,-0.29288 1.06054,0l16,16.00005l0.0518,0.0566c0.2402,0.2946 0.2227,0.7293 -0.0518,1.0039c-0.2746,0.2746 -0.7093,0.292 -1.0039,0.0518l-0.0566,-0.0518l-5.2198,-5.2197v3.4052c-0.0003,1.5251 -1.8156,2.3202 -2.9365,1.2862l-4.53515,-4.1856c-0.04605,-0.0424 -0.10634,-0.0663 -0.16894,-0.0664h-2.60938c-0.96632,0 -1.74975,-0.7837 -1.75,-1.75v-3.99997c0.00011,-0.96641 0.78357,-1.75 1.75,-1.75h2.60938c0.06256,-0.0001 0.1229,-0.02405 0.16894,-0.06641l0.17871,-0.16602l-3.4873,-3.4873c-0.2929,-0.29289 -0.2929,-0.76765 0,-1.06055zM7.79593,9.28606c-0.32312,0.29808 -0.74691,0.46377 -1.18652,0.46387h-2.60938c-0.138,0 -0.24989,0.11202 -0.25,0.25v3.99997c0.00025,0.1379 0.11209,0.25 0.25,0.25h2.60938c0.43965,0.0001 0.86339,0.1658 1.18652,0.4639l4.53417,4.1855c0.1601,0.1474 0.4196,0.034 0.4199,-0.1836v-4.9052l-4.73141,-4.73147zM11.3135,3.99797c1.121,-1.03418 2.9364,-0.23912 2.9365,1.28614v5.90529l-1.5,-1.50002v-4.40527c-0.0001,-0.21775 -0.2598,-0.33121 -0.4199,-0.1836l-2.168,2.00098l-1.06148,-1.06152z" fill="#002B51"/>
</svg>
