<svg width="24" height="24" viewBox="0 0 24 24" fill="none" xmlns="http://www.w3.org/2000/svg">
<path fill-rule="evenodd" clip-rule="evenodd" d="M20.5303,19.4697c0.2929,0.2929 0.2929,0.7677 0,1.0606c-0.2929,0.2929 -0.7678,0.2929 -1.0607,0l-5.2196,-5.2196v3.4054c0,1.5256 -1.816,2.3207 -2.937,1.2859l-4.53443,-4.1856c-0.04618,-0.0427 -0.10671,-0.0663 -0.16956,-0.0663l-2.60906,-0.0001c-0.96648,-0.0001 -1.74995,-0.7835 -1.74995,-1.75v-4.00006c0,-0.96649 0.7835,-1.75 1.75,-1.75h2.60902c0.06284,0 0.12339,-0.02367 0.16957,-0.0663l0.17907,-0.16529l-3.48802,-3.48802c-0.29289,-0.29289 -0.29289,-0.76777 0,-1.06066c0.29289,-0.29289 0.76777,-0.29289 1.06066,0zM14.25,5.28393v5.90547l-5.14927,-5.14927l2.21227,-2.04211c1.121,-1.03477 2.937,-0.23966 2.937,1.28591z" fill="#002B51"/>
</svg>
