<svg width="24" height="24" viewBox="0 0 24 24" fill="none" xmlns="http://www.w3.org/2000/svg">
<path d="M3.46976,3.46973c0.29289,-0.29286 0.76766,-0.29289 1.06054,0l16,15.99997l0.0518,0.0567c0.2402,0.2945 0.2227,0.7293 -0.0518,1.0039c-0.2746,0.2745 -0.7093,0.292 -1.0039,0.0517l-0.0566,-0.0517l-5.2198,-5.2198v3.4063c-0.0008,1.5246 -1.8157,2.3196 -2.9365,1.2861l-4.53515,-4.1855c-0.04606,-0.0425 -0.1063,-0.0663 -0.16894,-0.0664h-2.60938c-0.96614,-0.0001 -1.74945,-0.784 -1.75,-1.75v-4c0,-0.96652 0.7835,-1.75002 1.75,-1.75002h2.60938c0.06244,-0.0001 0.12293,-0.0242 0.16894,-0.06641l0.17871,-0.16699l-3.4873,-3.48731c-0.2929,-0.29289 -0.2929,-0.76765 0,-1.06054zM7.79593,9.28711c-0.32309,0.29792 -0.74703,0.46377 -1.18652,0.46387h-2.60938c-0.13807,0 -0.25,0.11193 -0.25,0.25002v4c0.00055,0.1376 0.11227,0.25 0.25,0.25h2.60938c0.43969,0.0001 0.86338,0.1657 1.18652,0.4638l4.53417,4.1856c0.1599,0.1469 0.4191,0.0334 0.4199,-0.1836v-4.9063l-4.73044,-4.73042zM11.3135,3.99902c1.121,-1.03439 2.9365,-0.23931 2.9365,1.28614v5.90434l-1.5,-1.50005v-4.40429c0,-0.21794 -0.2598,-0.33142 -0.4199,-0.1836l-2.168,2l-1.06148,-1.06152z" fill="#002B51"/>
</svg>
