<svg width="24" height="24" viewBox="0 0 24 24" fill="none" xmlns="http://www.w3.org/2000/svg">
<path d="M11.42,3.90627c1.1256,-0.8927 2.83,-0.09998 2.83,1.37793v13.4316c-0.0002,1.5253 -1.8155,2.3204 -2.9365,1.2862l-4.53515,-4.1856c-0.03464,-0.0319 -0.07736,-0.0529 -0.12305,-0.0615l-0.04589,-0.0049h-2.60938c-0.96639,0 -1.74986,-0.7836 -1.75,-1.75v-4c0,-0.96648 0.7835,-1.74998 1.75,-1.74998h2.60938c0.06262,-0.00009 0.12288,-0.02399 0.16894,-0.06641l4.53515,-4.18555zM12.75,5.2842c0,-0.19065 -0.1985,-0.30172 -0.3554,-0.22754l-0.0645,0.04394l-4.53417,4.18555c-0.32314,0.29814 -0.74686,0.46378 -1.18652,0.46387h-2.60938c-0.13807,0 -0.25,0.11193 -0.25,0.24998v4c0.00014,0.138 0.11202,0.25 0.25,0.25h2.60938l0.16406,0.0078c0.38001,0.0359 0.73974,0.1952 1.02246,0.4561l4.53417,4.1855c0.1601,0.1476 0.4197,0.0342 0.4199,-0.1836zM18.419,6.51955c0.2746,-0.27459 0.7093,-0.29104 1.0039,-0.05078l0.0576,0.05078l0.2627,0.27637c0.5966,0.65845 1.0762,1.41561 1.417,2.23828c0.3894,0.94022 0.5898,1.9481 0.5898,2.9658l-0.0097,0.3809c-0.0375,0.7609 -0.1868,1.5122 -0.4434,2.2295l-0.1367,0.3554c-0.3895,0.9402 -0.9601,1.7951 -1.6797,2.5147c-0.2929,0.2928 -0.7687,0.2928 -1.0615,0c-0.2928,-0.2929 -0.2928,-0.7686 0,-1.0615c0.5803,-0.5804 1.0414,-1.2692 1.3554,-2.0274l0.1104,-0.2871c0.2067,-0.5781 0.3272,-1.1836 0.3574,-1.7969l0.0078,-0.3076c0,-0.8206 -0.1616,-1.6334 -0.4756,-2.39158c-0.2747,-0.66326 -0.6616,-1.27378 -1.1425,-1.80469l-0.2129,-0.22266l-0.0508,-0.05762c-0.2402,-0.29453 -0.2237,-0.72931 0.0508,-1.0039zM16.2979,8.64162c0.2746,-0.27459 0.7093,-0.29204 1.0039,-0.05176l0.0566,0.05176l0.1612,0.16894c0.3657,0.4036 0.6602,0.86781 0.8691,1.37204c0.2386,0.5762 0.3613,1.1938 0.3613,1.8174l-0.0058,0.2334c-0.023,0.4662 -0.1143,0.9267 -0.2715,1.3662l-0.084,0.2178c-0.2387,0.5762 -0.5892,1.1 -1.0303,1.541c-0.2928,0.2928 -0.7676,0.2928 -1.0605,0c-0.2926,-0.2929 -0.2927,-0.7677 0,-1.0605c0.3017,-0.3017 0.5417,-0.6596 0.7051,-1.0537l0.0576,-0.1495c0.1075,-0.3005 0.1698,-0.6157 0.1855,-0.9345l0.0039,-0.1602c0,-0.4267 -0.0838,-0.8499 -0.247,-1.2441c-0.143,-0.345 -0.3445,-0.6624 -0.5948,-0.9385l-0.1103,-0.11523l-0.0508,-0.05762c-0.2401,-0.29444 -0.2234,-0.72833 0.0508,-1.00293z" fill="#002B51"/>
</svg>
