<svg width="24" height="24" viewBox="0 0 24 24" fill="none" xmlns="http://www.w3.org/2000/svg">
<path fill-rule="evenodd" clip-rule="evenodd" d="M7.79604,9.28584c-0.32326,0.29839 -0.74706,0.46409 -1.18699,0.46409h-2.60902c-0.13807,0 -0.25,0.11193 -0.25,0.25v4.00007c0,0.138 0.11193,0.25 0.25,0.25h2.60906c0.43991,0.0001 0.86369,0.1657 1.18694,0.4641l4.53447,4.1857c0.1601,0.1478 0.4195,0.0342 0.4195,-0.1837v-13.43218c0,-0.21795 -0.2594,-0.33153 -0.4195,-0.18371zM14.25,18.7161c0,1.5255 -1.816,2.3206 -2.937,1.2859l-4.53439,-4.1857c-0.04618,-0.0426 -0.10672,-0.0663 -0.16956,-0.0663h-2.60907c-0.96648,-0.0001 -1.74995,-0.7836 -1.74995,-1.75v-4.00007c0,-0.9665 0.78351,-1.75 1.75,-1.75h2.60902c0.06285,0 0.12339,-0.02367 0.16957,-0.0663l4.53438,-4.18562c1.121,-1.03477 2.937,-0.23967 2.937,1.28591zM18.4195,6.51992c0.2928,-0.2929 0.7677,-0.2929 1.0606,0c0.7197,0.71965 1.2905,1.57401 1.68,2.51428c0.3895,0.94027 0.5899,1.9481 0.5899,2.9658c0,1.0177 -0.2004,2.0255 -0.5899,2.9658c-0.3895,0.9403 -0.9603,1.7946 -1.68,2.5143c-0.2929,0.2929 -0.7678,0.2929 -1.0607,0c-0.2928,-0.2929 -0.2928,-0.7678 0,-1.0607c0.5804,-0.5804 1.0408,-1.2693 1.3549,-2.0276c0.3141,-0.7583 0.4757,-1.571 0.4757,-2.3918c0,-0.8208 -0.1616,-1.6335 -0.4757,-2.39178c-0.3141,-0.75828 -0.7745,-1.44728 -1.3548,-2.02764c-0.2929,-0.2929 -0.2929,-0.76777 0,-1.06066zM16.2981,8.64124c0.2929,-0.2929 0.7678,-0.2929 1.0607,0c0.4411,0.44108 0.791,0.96471 1.0297,1.54096c0.2387,0.5763 0.3615,1.194 0.3615,1.8178c0,0.6238 -0.1228,1.2414 -0.3615,1.8177c-0.2387,0.5763 -0.5886,1.1 -1.0297,1.5411c-0.2929,0.2928 -0.7678,0.2928 -1.0607,0c-0.2929,-0.2929 -0.2929,-0.7678 0,-1.0607c0.3018,-0.3018 0.5412,-0.6601 0.7045,-1.0544c0.1634,-0.3943 0.2474,-0.8169 0.2474,-1.2437c0,-0.4268 -0.084,-0.8494 -0.2474,-1.2437c-0.1633,-0.3943 -0.4027,-0.7526 -0.7045,-1.0544c-0.2929,-0.2929 -0.2929,-0.76777 0,-1.06066z" fill="#002B51"/>
</svg>
