<svg width="24" height="24" viewBox="0 0 24 24" fill="none" xmlns="http://www.w3.org/2000/svg">
<path d="M3.46979,3.46978c0.27457,-0.27454 0.70934,-0.29197 1.0039,-0.05175l0.05664,0.05175l15.99997,16.00002l0.0518,0.0566c0.2403,0.2946 0.2228,0.7293 -0.0518,1.0039c-0.2746,0.2746 -0.7093,0.2921 -1.0039,0.0518l-0.0566,-0.0518l-5.2197,-5.2197v3.4053c-0.0002,1.5253 -1.8156,2.3204 -2.9366,1.2861l-4.53512,-4.1855c-0.03464,-0.032 -0.07736,-0.0529 -0.12305,-0.0616l-0.04589,-0.0048h-2.60938c-0.96642,-0.0001 -1.74991,-0.7836 -1.75,-1.75v-4c0.00002,-0.96652 0.78352,-1.75004 1.75,-1.75004h2.60938c0.06263,-0.0001 0.12288,-0.02397 0.16894,-0.06641l0.17871,-0.16602l-3.4873,-3.4873l-0.05176,-0.05664c-0.24022,-0.29458 -0.22281,-0.72934 0.05176,-1.00391zM7.79596,9.28619c-0.32314,0.29816 -0.74684,0.46377 -1.18652,0.46387h-2.60938c-0.13806,0 -0.24998,0.11195 -0.25,0.25004v4c0.00009,0.1379 0.11199,0.25 0.25,0.25h2.60938l0.16406,0.0078c0.38,0.0358 0.73974,0.1951 1.02246,0.456l4.53414,4.1856c0.1601,0.1476 0.4198,0.0342 0.42,-0.1836v-4.9053l-4.73148,-4.73144zM11.42,3.90631c1.1256,-0.89265 2.83,-0.09993 2.8301,1.37793v5.90526l-1.5,-1.49999v-4.40527c-0.0001,-0.1906 -0.1986,-0.30168 -0.3555,-0.22754l-0.0645,0.04394l-2.1679,2.00098l-1.06155,-1.06152l2.21285,-2.042z" fill="#002B51"/>
</svg>
