<svg width="24" height="24" viewBox="0 0 24 24" fill="none" xmlns="http://www.w3.org/2000/svg">
<path fill-rule="evenodd" clip-rule="evenodd" d="M4.5303 3.46967C4.23741 3.17678 3.76253 3.17678 3.46964 3.46967C3.17675 3.76256 3.17675 4.23744 3.46964 4.53033L6.95766 8.01835L6.77859 8.18364C6.73241 8.22627 6.67186 8.24994 6.60902 8.24994H4C3.0335 8.24994 2.25 9.03345 2.25 9.99994V14C2.25 14.9665 3.03347 15.7499 3.99995 15.75L6.60901 15.7501C6.67186 15.7501 6.73239 15.7737 6.77857 15.8164L11.313 20.002C12.434 21.0368 14.25 20.2417 14.25 18.7161V15.3107L19.4696 20.5303C19.7625 20.8232 20.2374 20.8232 20.5303 20.5303C20.8232 20.2374 20.8232 19.7626 20.5303 19.4697L4.5303 3.46967ZM14.25 5.28393V11.1894L9.10073 6.04013L11.313 3.99802C12.434 2.96325 14.25 3.75836 14.25 5.28393Z" fill="#002B51"/>
</svg>
