<svg width="24" height="24" viewBox="0 0 24 24" fill="none" xmlns="http://www.w3.org/2000/svg">
<path d="M11.3135,3.99774c1.1209,-1.03415 2.9363,-0.23909 2.9365,1.28613v13.43163c0,1.5255 -1.8155,2.3206 -2.9365,1.2861l-4.53518,-4.1855c-0.04605,-0.0424 -0.10635,-0.0663 -0.16894,-0.0664h-2.60938c-0.96648,0 -1.75,-0.7835 -1.75,-1.75v-4.00001c0.00014,-0.96637 0.78359,-1.75 1.75,-1.75h2.60938c0.06267,-0.00009 0.12286,-0.02391 0.16894,-0.0664zM18.4189,6.51923c0.2746,-0.27438 0.7094,-0.29086 1.004,-0.05079l0.0576,0.05079l0.2627,0.27636c0.5966,0.65841 1.0762,1.41568 1.417,2.23828c0.3894,0.94018 0.5898,1.94823 0.5898,2.96583c0,1.0176 -0.2004,2.0256 -0.5898,2.9658c-0.3895,0.9402 -0.9602,1.795 -1.6797,2.5147c-0.2929,0.2929 -0.7687,0.2929 -1.0616,0c-0.2926,-0.2929 -0.2928,-0.7687 0,-1.0616c0.5803,-0.5803 1.0415,-1.2691 1.3555,-2.0273c0.314,-0.7582 0.4756,-1.571 0.4756,-2.3916c0,-0.8206 -0.1616,-1.6335 -0.4756,-2.39161c-0.2747,-0.66319 -0.6616,-1.27383 -1.1426,-1.80468l-0.2129,-0.22266l-0.0507,-0.05762c-0.2401,-0.29456 -0.2237,-0.72937 0.0507,-1.0039zM16.2979,8.6413c0.2745,-0.27439 0.7093,-0.29186 1.0039,-0.05176l0.0566,0.05176l0.1611,0.16894c0.3657,0.40355 0.6603,0.86787 0.8692,1.37206c0.2385,0.5761 0.3613,1.1939 0.3613,1.8174c0,0.6235 -0.1228,1.2413 -0.3613,1.8174c-0.2387,0.5762 -0.5893,1.0999 -1.0303,1.541c-0.2929,0.2929 -0.7677,0.2929 -1.0605,0c-0.2925,-0.2929 -0.2928,-0.7678 0,-1.0606c0.3016,-0.3016 0.5417,-0.6595 0.705,-1.0537c0.1633,-0.3942 0.2471,-0.8174 0.2471,-1.2441c0,-0.4267 -0.0838,-0.8499 -0.2471,-1.2441c-0.1429,-0.345 -0.3445,-0.6625 -0.5947,-0.93852l-0.1103,-0.11524l-0.0508,-0.05761c-0.24,-0.29447 -0.2235,-0.7284 0.0508,-1.00293z" fill="#002B51"/>
</svg>
