<svg width="24" height="24" viewBox="0 0 24 24" fill="none" xmlns="http://www.w3.org/2000/svg">
<path fill-rule="evenodd" clip-rule="evenodd" d="M10.5 5.75C10.0858 5.75 9.75 6.08579 9.75 6.5C9.75 6.91421 10.0858 7.25 10.5 7.25H13.5C13.9142 7.25 14.25 6.91421 14.25 6.5C14.25 6.08579 13.9142 5.75 13.5 5.75H10.5ZM8 8.25C6.74122 8.25 5.67998 9.09575 5.35352 10.25H4C3.0335 10.25 2.25 11.0335 2.25 12V14C2.25 14.9665 3.0335 15.75 4 15.75H5.68252C6.31127 16.9395 7.56098 17.75 9 17.75H9.1264C9.83959 17.75 10.538 17.5466 11.1397 17.1637L11.6125 16.8628C11.7283 16.7891 11.8627 16.75 12 16.75C12.1373 16.75 12.2717 16.7891 12.3875 16.8628L12.8603 17.1637C13.462 17.5466 14.1604 17.75 14.8736 17.75H15C16.439 17.75 17.6887 16.9395 18.3175 15.75H20C20.9665 15.75 21.75 14.9665 21.75 14V12C21.75 11.0335 20.9665 10.25 20 10.25H18.6465C18.32 9.09575 17.2588 8.25 16 8.25H8ZM6.75 14V11C6.75 10.3096 7.30964 9.75 8 9.75H16C16.6904 9.75 17.25 10.3096 17.25 11V14C17.25 15.2426 16.2426 16.25 15 16.25H14.8736C14.4457 16.25 14.0266 16.128 13.6656 15.8982L13.1928 15.5973C12.8363 15.3705 12.4225 15.25 12 15.25C11.5775 15.25 11.1637 15.3705 10.8072 15.5973L10.3344 15.8982C9.97335 16.128 9.55431 16.25 9.1264 16.25H9C7.75736 16.25 6.75 15.2426 6.75 14ZM4 11.75H5.25V14V14.25H4C3.86193 14.25 3.75 14.1381 3.75 14V12C3.75 11.8619 3.86193 11.75 4 11.75ZM18.75 11.75V14V14.25H20C20.1381 14.25 20.25 14.1381 20.25 14V12C20.25 11.8619 20.1381 11.75 20 11.75H18.75Z" fill="#002B51"/>
</svg>
