<svg width="24" height="24" viewBox="0 0 24 24" fill="none" xmlns="http://www.w3.org/2000/svg">
<path fill-rule="evenodd" clip-rule="evenodd" d="M13.5,5.75c0.4142,0 0.75,0.33579 0.75,0.75c0,0.41421 -0.3358,0.75 -0.75,0.75h-3c-0.4142,0 -0.75,-0.33579 -0.75,-0.75c0,-0.41421 0.3358,-0.75 0.75,-0.75zM16,8.25c1.2588,0 2.32,0.84575 2.6465,2h1.3535c0.9665,0 1.75,0.7835 1.75,1.75v2c0,0.9665 -0.7835,1.75 -1.75,1.75h-1.6825c-0.6288,1.1895 -1.8785,2 -3.3175,2h-0.1264c-0.7132,0 -1.4116,-0.2034 -2.0133,-0.5863l-0.4728,-0.3009c-0.1158,-0.0737 -0.2502,-0.1128 -0.3875,-0.1128c-0.1373,0 -0.2717,0.0391 -0.3875,0.1128l-0.4728,0.3009c-0.6017,0.3829 -1.30011,0.5863 -2.0133,0.5863h-0.1264c-1.43902,0 -2.68873,-0.8105 -3.31748,-2h-1.68252c-0.9665,0 -1.75,-0.7835 -1.75,-1.75v-2c0,-0.9665 0.7835,-1.75 1.75,-1.75h1.35352c0.32646,-1.15425 1.3877,-2 2.64648,-2zM9,16.25h0.1264c0.42791,0 0.84695,-0.122 1.208,-0.3518l0.4728,-0.3009c0.3565,-0.2268 0.7703,-0.3473 1.1928,-0.3473c0.4225,0 0.8363,0.1205 1.1928,0.3473l0.4728,0.3009c0.361,0.2298 0.7801,0.3518 1.208,0.3518h0.1264c1.2426,0 2.25,-1.0074 2.25,-2.25v-3c0,-0.6904 -0.5596,-1.25 -1.25,-1.25h-8c-0.69036,0 -1.25,0.5596 -1.25,1.25v3c0,1.2426 1.00736,2.25 2.25,2.25zM3.75,12v2c0,0.1381 0.11193,0.25 0.25,0.25h1.25v-0.25v-2.25h-1.25c-0.13807,0 -0.25,0.1119 -0.25,0.25zM18.75,11.75v2.25v0.25h1.25c0.1381,0 0.25,-0.1119 0.25,-0.25v-2c0,-0.1381 -0.1119,-0.25 -0.25,-0.25z" fill="#002B51"/>
</svg>
