<svg width="24" height="24" viewBox="0 0 24 24" fill="none" xmlns="http://www.w3.org/2000/svg">
<path fill-rule="evenodd" clip-rule="evenodd" d="M13.5,7.25h-3c-0.4142,0 -0.75,-0.33579 -0.75,-0.75c0,-0.41421 0.3358,-0.75 0.75,-0.75h3c0.4142,0 0.75,0.33579 0.75,0.75c0,0.41421 -0.3358,0.75 -0.75,0.75zM8,9.75c-0.69036,0 -1.25,0.5596 -1.25,1.25v3c0,1.2426 1.00736,2.25 2.25,2.25h0.12598c0.42777,0 0.84707,-0.122 1.20802,-0.3516l0.4736,-0.3007l0.1358,-0.0801c0.3238,-0.1751 0.6868,-0.2676 1.0566,-0.2676c0.4225,0 0.8359,0.1209 1.1924,0.3477l0.4736,0.3007l0.1377,0.0811c0.3279,0.1772 0.6959,0.2705 1.0703,0.2705h0.126c1.2426,0 2.25,-1.0074 2.25,-2.25v-3c0,-0.6904 -0.5596,-1.25 -1.25,-1.25zM9,17.75c-1.43902,0 -2.68873,-0.8105 -3.31748,-2h-1.68252c-0.9665,0 -1.75,-0.7835 -1.75,-1.75v-2c0,-0.9665 0.7835,-1.75 1.75,-1.75h1.35352c0.32646,-1.15425 1.3877,-2 2.64648,-2h8c1.2588,0 2.32,0.84575 2.6465,2h1.3535c0.9665,0 1.75,0.7835 1.75,1.75v2c0,0.9665 -0.7835,1.75 -1.75,1.75h-1.6825c-0.6288,1.1895 -1.8785,2 -3.3175,2h-0.126c-0.6242,0 -1.2375,-0.1556 -1.7842,-0.4512l-0.2294,-0.1347l-0.4727,-0.3008c-0.1158,-0.0737 -0.2504,-0.1133 -0.3877,-0.1133c-0.1031,0 -0.2046,0.0222 -0.2979,0.0645l-0.0898,0.0488l-0.4727,0.3008c-0.6016,0.3828 -1.3005,0.5859 -2.01362,0.5859zM3.75,12v2c0,0.1381 0.11193,0.25 0.25,0.25h1.25v-0.25v-2.25h-1.25c-0.13807,0 -0.25,0.1119 -0.25,0.25zM18.75,11.75v2.25v0.25h1.25c0.1381,0 0.25,-0.1119 0.25,-0.25v-2c0,-0.1381 -0.1119,-0.25 -0.25,-0.25z" fill="#002B51"/>
</svg>
