<svg width="24" height="24" viewBox="0 0 24 24" fill="none" xmlns="http://www.w3.org/2000/svg">
<path d="M16,8.25c1.2585,0 2.3168,0.84614 2.6436,2h1.3564c0.9665,0 1.75,0.7835 1.75,1.75v2c0,0.9665 -0.7835,1.75 -1.75,1.75h-1.6836c-0.6288,1.1892 -1.8776,2 -3.3164,2h-0.126c-0.6242,0 -1.2375,-0.1556 -1.7842,-0.4512l-0.2294,-0.1347l-0.4727,-0.3008c-0.1158,-0.0737 -0.2504,-0.1133 -0.3877,-0.1133c-0.1031,0 -0.2046,0.0222 -0.2979,0.0645l-0.0898,0.0488l-0.4727,0.3008c-0.6016,0.3828 -1.3005,0.5859 -2.01362,0.5859h-0.12598c-1.43884,0 -2.68758,-0.8108 -3.31641,-2h-1.68359c-0.9665,0 -1.75,-0.7835 -1.75,-1.75v-2c0,-0.9665 0.7835,-1.75 1.75,-1.75h1.35645c0.32671,-1.15386 1.38505,-2 2.64355,-2zM4,11.75c-0.13807,0 -0.25,0.1119 -0.25,0.25v2c0,0.1381 0.11193,0.25 0.25,0.25h1.25v-2.5zM18.75,14.25h1.25c0.1381,0 0.25,-0.1119 0.25,-0.25v-2c0,-0.1381 -0.1119,-0.25 -0.25,-0.25h-1.25zM13.5,5.75c0.4142,0 0.75,0.33579 0.75,0.75c0,0.41421 -0.3358,0.75 -0.75,0.75h-3c-0.4142,0 -0.75,-0.33579 -0.75,-0.75c0,-0.41421 0.3358,-0.75 0.75,-0.75z" fill="#002B51"/>
</svg>
