<svg width="24" height="24" viewBox="0 0 24 24" fill="none" xmlns="http://www.w3.org/2000/svg">
<path fill-rule="evenodd" clip-rule="evenodd" d="M2.25,6c0,-1.51878 1.23122,-2.75 2.75,-2.75h11.5c1.2426,0 2.25,1.00736 2.25,2.25v1.76373c1.125,0.12436 2,1.07813 2,2.23627v2.5v4v2.5c0,1.2426 -1.0074,2.25 -2.25,2.25h-14c-1.24264,0 -2.25,-1.0074 -2.25,-2.25zM3.75,8.45015v10.04985c0,0.4142 0.33579,0.75 0.75,0.75h14c0.4142,0 0.75,-0.3358 0.75,-0.75v-1.75h-3.25c-1.5188,0 -2.75,-1.2312 -2.75,-2.75c0,-1.5188 1.2312,-2.75 2.75,-2.75h3.25v-1.75c0,-0.41421 -0.3358,-0.75 -0.75,-0.75h-0.5h-13c-0.45011,0 -0.87497,-0.10814 -1.25,-0.29985zM5,7.25h12.25v-1.75c0,-0.41421 -0.3358,-0.75 -0.75,-0.75h-11.5c-0.69036,0 -1.25,0.55964 -1.25,1.25c0,0.69036 0.55964,1.25 1.25,1.25zM16,12.75c-0.6904,0 -1.25,0.5596 -1.25,1.25c0,0.6904 0.5596,1.25 1.25,1.25h3.25v-2.5z" fill="#002B51"/>
</svg>
