<svg width="24" height="24" viewBox="0 0 24 24" fill="none" xmlns="http://www.w3.org/2000/svg">
<path fill-rule="evenodd" clip-rule="evenodd" d="M16.5,3.25c1.2426,0 2.25,1.00736 2.25,2.25v1.76373c1.125,0.12436 2,1.07813 2,2.23627v2.5v4v2.5c0,1.2426 -1.0074,2.25 -2.25,2.25h-14c-1.24264,0 -2.25,-1.0074 -2.25,-2.25v-12.5c0,-1.51878 1.23122,-2.75 2.75,-2.75zM5,4.75c-0.69036,0 -1.25,0.55964 -1.25,1.25c0,0.69036 0.55964,1.25 1.25,1.25h12.25v-1.75c0,-0.41421 -0.3358,-0.75 -0.75,-0.75zM16,15.25h3.25v-2.5h-3.25c-0.6904,0 -1.25,0.5596 -1.25,1.25c0,0.6904 0.5596,1.25 1.25,1.25z" fill="#002B51"/>
</svg>
