<svg width="24" height="24" viewBox="0 0 24 24" fill="none" xmlns="http://www.w3.org/2000/svg">
<path d="M16.5,3.25c1.2426,0 2.25,1.00736 2.25,2.25v1.76465c1.1249,0.12441 2,1.07725 2,2.23535v9c0,1.2426 -1.0074,2.25 -2.25,2.25h-14c-1.24264,0 -2.25,-1.0074 -2.25,-2.25v-12.5c0,-1.51878 1.23122,-2.75 2.75,-2.75zM3.75,18.5c0,0.4142 0.33579,0.75 0.75,0.75h14c0.4142,0 0.75,-0.3358 0.75,-0.75v-1.75h-3.25c-1.5188,0 -2.75,-1.2312 -2.75,-2.75c0,-1.5188 1.2312,-2.75 2.75,-2.75h3.25v-1.75c0,-0.41421 -0.3358,-0.75 -0.75,-0.75h-13.5c-0.45074,0 -0.87458,-0.1115 -1.25,-0.30371zM16,12.75c-0.6904,0 -1.25,0.5596 -1.25,1.25c0,0.6904 0.5596,1.25 1.25,1.25h3.25v-2.5zM5,4.75c-0.69036,0 -1.25,0.55964 -1.25,1.25c0,0.69036 0.55964,1.25 1.25,1.25h12.25v-1.75c0,-0.41421 -0.3358,-0.75 -0.75,-0.75z" fill="#002B51"/>
</svg>
