<svg width="24" height="24" viewBox="0 0 24 24" fill="none" xmlns="http://www.w3.org/2000/svg">
<path fill-rule="evenodd" clip-rule="evenodd" d="M5 3.25C3.48122 3.25 2.25 4.48122 2.25 6V18.5C2.25 19.7426 3.25736 20.75 4.5 20.75H18.5C19.7426 20.75 20.75 19.7426 20.75 18.5V16V12V9.5C20.75 8.34186 19.875 7.38809 18.75 7.26373V5.5C18.75 4.25736 17.7426 3.25 16.5 3.25H5ZM5 4.75C4.30964 4.75 3.75 5.30964 3.75 6C3.75 6.69036 4.30964 7.25 5 7.25H17.25V5.5C17.25 5.08579 16.9142 4.75 16.5 4.75H5ZM14.75 14C14.75 13.3096 15.3096 12.75 16 12.75H19.25V15.25H16C15.3096 15.25 14.75 14.6904 14.75 14Z" fill="#002B51"/>
</svg>
