<svg width="24" height="24" viewBox="0 0 24 24" fill="none" xmlns="http://www.w3.org/2000/svg">
<path d="M10.6992,6c0.4143,-0.71711 1.3316,-0.9629 2.0488,-0.54883c0.7171,0.41427 0.9628,1.33155 0.5489,2.04883c-0.0014,0.00242 -0.0035,0.00443 -0.0049,0.00684l3.3496,5.80176c0.0281,0.0485 0.0845,0.1025 0.1992,0.1396c0.0902,0.0291 0.2024,0.0418 0.3213,0.0332l0.1211,-0.0166c0.2326,-0.0447 0.4703,-0.0673 0.709,-0.0673c0.6582,0 1.3059,0.1738 1.876,0.5029c0.4985,0.2879 0.9234,0.6863 1.2422,1.1631l0.1298,0.2099c0.3288,0.5698 0.5029,1.2162 0.503,1.8741c-0.0001,0.6581 -0.1739,1.306 -0.503,1.8759c-0.3291,0.5697 -0.8032,1.0432 -1.373,1.3721c-0.5699,0.3289 -1.217,0.5029 -1.875,0.5029c-0.6579,-0.0001 -1.3043,-0.1741 -1.874,-0.5029c-0.3586,-0.207 -0.4812,-0.6658 -0.2744,-1.0244c0.207,-0.3586 0.6647,-0.4813 1.0234,-0.2744c0.3418,0.1973 0.7303,0.3006 1.125,0.3008c0.3946,0 0.7831,-0.1037 1.125,-0.3008c0.3418,-0.1974 0.6258,-0.4825 0.8232,-0.8242c0.1974,-0.3419 0.3027,-0.7303 0.3028,-1.125c-0.0001,-0.3946 -0.1047,-0.7823 -0.3018,-1.1241l-0.0781,-0.1259c-0.1913,-0.2862 -0.446,-0.5255 -0.7451,-0.6983c-0.3421,-0.1975 -0.7311,-0.3008 -1.126,-0.3008c-0.1431,0.0001 -0.2855,0.0133 -0.4248,0.0401l-0.1358,0.0215c-0.6953,0.0926 -1.6192,-0.0883 -2.0888,-0.9014l-3.3545,-5.80958c-0.2517,-0.00141 -0.5067,-0.06543 -0.7403,-0.20019c-0.7172,-0.41429 -0.9629,-1.33148 -0.5488,-2.04883zM4.125,13.9004c0.35866,-0.2071 0.81726,-0.0842 1.02441,0.2744c0.20691,0.3587 0.0842,0.8173 -0.27441,1.0244c-0.3417,0.1974 -0.62586,0.4816 -0.82324,0.8233c-0.19726,0.3418 -0.30169,0.7303 -0.30176,1.125c0.00006,0.3947 0.10445,0.7831 0.30176,1.125c0.19742,0.3418 0.48139,0.6268 0.82324,0.8242c0.34188,0.1973 0.73026,0.3007 1.125,0.3008l0.14746,-0.0049c0.34341,-0.0226 0.67832,-0.1233 0.97754,-0.2959c0.34191,-0.1974 0.62577,-0.4824 0.82324,-0.8242c0.07157,-0.124 0.13124,-0.2545 0.17774,-0.3887l0.04882,-0.1279c0.26737,-0.6486 0.88603,-1.3583 1.8252,-1.3584h6.6953c0.1272,-0.2207 0.3114,-0.4123 0.5479,-0.5489c0.7173,-0.414 1.6346,-0.1684 2.0488,0.5489c0.4139,0.7173 0.1683,1.6346 -0.5488,2.0488c-0.6726,0.3883 -1.5211,0.1967 -1.9659,-0.4199l-0.083,-0.1289h-6.6943c-0.05606,0.0001 -0.13018,0.0217 -0.21973,0.1025c-0.07026,0.0636 -0.13738,0.1545 -0.18945,0.2617l-0.04687,0.1133c-0.07749,0.2237 -0.17663,0.4408 -0.2959,0.6475c-0.32912,0.5698 -0.80312,1.044 -1.37305,1.373c-0.49872,0.2879 -1.05649,0.4565 -1.62891,0.4941l-0.24609,0.0079c-0.65808,-0.0001 -1.30507,-0.173 -1.875,-0.502c-0.56988,-0.3291 -1.04397,-0.8032 -1.37305,-1.373c-0.32883,-0.5699 -0.50189,-1.2171 -0.50195,-1.875c0.00007,-0.658 0.17305,-1.3052 0.50195,-1.875c0.32904,-0.5699 0.80323,-1.043 1.37305,-1.3721zM11.998,3c0.658,0.00013 1.3052,0.17393 1.875,0.50293c0.5699,0.32909 1.044,0.80222 1.3731,1.37207c0.3289,0.56988 0.5019,1.217 0.5019,1.875c0,0.41404 -0.336,0.7498 -0.75,0.75c-0.4141,0 -0.7499,-0.33581 -0.75,-0.75c0,-0.39467 -0.1045,-0.78316 -0.3017,-1.125c-0.1974,-0.34164 -0.4816,-0.62589 -0.8233,-0.82324c-0.3419,-0.19739 -0.7301,-0.30169 -1.125,-0.30176c-0.3946,0 -0.7831,0.1036 -1.125,0.30078c-0.3418,0.19738 -0.6257,0.48243 -0.8232,0.82422l-0.06933,0.12988c-0.15219,0.30873 -0.23235,0.64962 -0.23242,0.99512c0.00003,0.39482 0.10437,0.78305 0.30175,1.125c0.0716,0.12398 0.1551,0.24029 0.2481,0.34766l0.0859,0.10644c0.428,0.5558 0.7329,1.44638 0.2637,2.2598l-3.35258,5.8056c0.12928,0.2217 0.20508,0.4788 0.20508,0.7539c-0.00043,0.8281 -0.67184,1.5 -1.5,1.5c-0.82805,-0.0001 -1.49957,-0.672 -1.5,-1.5c0,-0.8264 0.66852,-1.4967 1.49414,-1.5l3.35449,-5.80953c0.02786,-0.0486 0.04663,-0.12351 0.02149,-0.24121c-0.0199,-0.09263 -0.06503,-0.19621 -0.13184,-0.29493l-0.07519,-0.09765c-0.15492,-0.17889 -0.29379,-0.37257 -0.41309,-0.5791c-0.32905,-0.57001 -0.50194,-1.21781 -0.50195,-1.87598c0.00005,-0.57589 0.13309,-1.14361 0.38672,-1.6582l0.11621,-0.2168c0.32911,-0.5698 0.8022,-1.04403 1.37202,-1.37305c0.5699,-0.32884 1.2171,-0.50188 1.875,-0.50195z" fill="#002B51"/>
</svg>
