<svg width="24" height="24" viewBox="0 0 24 24" fill="none" xmlns="http://www.w3.org/2000/svg">
<path d="M12.1852,2.25482c0.9269,0.04589 1.8065,0.43446 2.4658,1.09375c0.7033,0.70326 1.0987,1.65681 1.0987,2.65137c0,0.81636 -0.2666,1.60464 -0.751,2.25h2.166l0.1533,0.00683c0.3548,0.0311 0.6935,0.16971 0.9688,0.39942c0.3145,0.26251 0.5272,0.62721 0.6006,1.03027l1.6367,9.00004l0.0234,0.1904c0.0135,0.1909 -0.0037,0.3834 -0.0527,0.5693c-0.0653,0.2478 -0.1845,0.4781 -0.3486,0.6748c-0.1643,0.1969 -0.3704,0.3553 -0.6026,0.4639c-0.174,0.0814 -0.3597,0.1334 -0.5498,0.1543l-0.1914,0.0107h-13.60449c-0.25619,0 -0.50914,-0.0565 -0.74121,-0.165c-0.23221,-0.1086 -0.43827,-0.267 -0.60254,-0.4639c-0.16413,-0.1967 -0.2833,-0.427 -0.34863,-0.6748c-0.06535,-0.2479 -0.07519,-0.5075 -0.0293,-0.7597l1.63672,-9.00004l0.03418,-0.14941c0.09416,-0.34333 0.29121,-0.65121 0.56641,-0.88086c0.31455,-0.26245 0.71145,-0.40521 1.12109,-0.40527v-0.00098h2.16699c-0.48443,-0.64538 -0.75195,-1.43359 -0.75195,-2.25c0,-0.99448 0.39549,-1.94812 1.09863,-2.65137c0.7032,-0.70317 1.6569,-1.09853 2.6514,-1.09863zM6.79166,9.75385c-0.04277,0.00751 -0.08345,0.02557 -0.11718,0.05371c-0.03371,0.02812 -0.05915,0.06477 -0.07422,0.10546l-0.01172,0.042l-1.63672,8.99998c-0.00654,0.0359 -0.00535,0.0731 0.00391,0.1084c0.0093,0.0353 0.02644,0.0686 0.0498,0.0967c0.02347,0.0281 0.05374,0.0509 0.08691,0.0664c0.03305,0.0154 0.06902,0.0234 0.10547,0.0234h13.60449l0.0537,-0.0058c0.0178,-0.0039 0.0352,-0.0099 0.0518,-0.0176c0.0331,-0.0155 0.0625,-0.0384 0.0859,-0.0664c0.0235,-0.0281 0.0405,-0.0613 0.0498,-0.0967c0.0047,-0.0176 0.0081,-0.0356 0.0088,-0.0537l-0.0039,-0.0547l-1.6377,-8.99998c-0.0105,-0.05748 -0.0401,-0.11001 -0.085,-0.14746c-0.0337,-0.02812 -0.0744,-0.04617 -0.1171,-0.05371l-0.044,-0.00391h-10.33007zM11.9997,3.74994c-0.5966,0.0001 -1.169,0.23731 -1.5908,0.65918c-0.42189,0.42194 -0.65923,0.99417 -0.65923,1.59082c0,0.59665 0.23734,1.16888 0.65923,1.59082c0.4218,0.42187 0.9942,0.65908 1.5908,0.65918c0.5966,0 1.1689,-0.23734 1.5908,-0.65918c0.4219,-0.42196 0.6592,-0.99408 0.6592,-1.59082c0,-0.59674 -0.2373,-1.16886 -0.6592,-1.59082c-0.3691,-0.36905 -0.8533,-0.59726 -1.3682,-0.64844z" fill="#002B51"/>
</svg>
