<svg width="24" height="24" viewBox="0 0 24 24" fill="none" xmlns="http://www.w3.org/2000/svg">
<path fill-rule="evenodd" clip-rule="evenodd" d="M14.25,5.99994c0,-0.59674 -0.2372,-1.16886 -0.6591,-1.59082c-0.3692,-0.36916 -0.8532,-0.59725 -1.3682,-0.64844l-0.2227,-0.01074c-0.5967,0 -1.1688,0.23722 -1.5908,0.65918c-0.42194,0.42196 -0.65916,0.99408 -0.65916,1.59082c0,0.59674 0.23722,1.16886 0.65916,1.59082c0.422,0.42196 0.9941,0.65918 1.5908,0.65918c0.5968,0 1.1689,-0.23722 1.5909,-0.65918c0.4219,-0.42196 0.6591,-0.99408 0.6591,-1.59082zM15.75,5.99994c0,0.81617 -0.2662,1.60472 -0.7504,2.25h2.1651l0.1533,0.00683c0.3548,0.0311 0.6935,0.16971 0.9688,0.39942c0.3145,0.26251 0.5272,0.62721 0.6006,1.03027l1.6367,9.00004l0.0234,0.1904c0.0135,0.1909 -0.0037,0.3834 -0.0527,0.5693c-0.0653,0.2478 -0.1845,0.4781 -0.3486,0.6748c-0.1643,0.1969 -0.3704,0.3553 -0.6026,0.4639c-0.174,0.0814 -0.3597,0.1334 -0.5498,0.1543l-0.1914,0.0107h-13.60449c-0.25619,0 -0.50914,-0.0565 -0.74121,-0.165c-0.23221,-0.1086 -0.43827,-0.267 -0.60254,-0.4639c-0.16413,-0.1967 -0.2833,-0.427 -0.34863,-0.6748c-0.06535,-0.2479 -0.07519,-0.5075 -0.0293,-0.7597l1.63672,-9.00004l0.03418,-0.14941c0.09416,-0.34333 0.29121,-0.65121 0.56641,-0.88086c0.31455,-0.26245 0.71145,-0.40521 1.12109,-0.40527v-0.00098h2.16584c-0.48417,-0.64528 -0.75043,-1.43383 -0.75043,-2.25c0,-0.99456 0.39537,-1.94811 1.09863,-2.65137c0.70323,-0.70326 1.65683,-1.09863 2.65133,-1.09863l0.1856,0.00488c0.927,0.04589 1.8064,0.43435 2.4658,1.09375c0.7033,0.70326 1.0986,1.65681 1.0986,2.65137z" fill="#002B51"/>
</svg>
