<svg width="24" height="24" viewBox="0 0 24 24" fill="none" xmlns="http://www.w3.org/2000/svg">
<path fill-rule="evenodd" clip-rule="evenodd" d="M14.6517,3.34829c0.7032,0.70326 1.0983,1.65709 1.0983,2.65165c0,0.81606 -0.266,1.6047 -0.75,2.25h2.1649h0.0001c0.4098,-0.00004 0.8066,0.14375 1.1213,0.40628c0.3147,0.26257 0.5273,0.62725 0.6006,1.03047v0.00003l1.637,8.99998v0c0.0459,0.2522 0.0358,0.5114 -0.0295,0.7593c-0.0654,0.2479 -0.1844,0.4785 -0.3487,0.6753c-0.1642,0.1968 -0.3697,0.3551 -0.602,0.4638c-0.2321,0.1086 -0.4853,0.1649 -0.7417,0.1648l-1.436,-1.5h-0.0001l1.436,1.5h-13.60376h-0.00011c-0.25633,0.0001 -0.50953,-0.0562 -0.74171,-0.1648c-0.23222,-0.1087 -0.43772,-0.267 -0.60199,-0.4638c-0.16427,-0.1969 -0.28329,-0.4274 -0.34864,-0.6753c-0.06535,-0.2478 -0.07544,-0.5071 -0.02956,-0.7593h0.00001l1.63699,-8.99998l0.00001,-0.00003c0.07336,-0.40322 0.28592,-0.7679 0.60061,-1.03047c0.31466,-0.26253 0.71148,-0.40632 1.12128,-0.40628l1.43602,1.5h0.00012l-1.43603,-1.5h2.16484c-0.48398,-0.6453 -0.74998,-1.43394 -0.74998,-2.25c0,-0.99456 0.39509,-1.94839 1.09835,-2.65165c0.70325,-0.70326 1.65705,-1.09835 2.65165,-1.09835c0.9946,0 1.9484,0.39509 2.6517,1.09835zM18.802,19.2499h0.0001c0.0367,0 0.0728,-0.008 0.106,-0.0235c0.0332,-0.0155 0.0625,-0.0382 0.086,-0.0663c0.0235,-0.0281 0.0405,-0.061 0.0498,-0.0964c0.0094,-0.0354 0.0108,-0.0725 0.0042,-0.1085v0l-1.637,-9.00001v-0.00004c-0.0105,-0.05759 -0.0408,-0.10967 -0.0858,-0.14717c-0.0449,-0.03751 -0.1016,-0.05805 -0.1602,-0.05804h-0.0001h-5.165h-3.72883l9.09483,9.49996zM17.3659,19.2499l-9.09485,-9.49996h-1.43602h-0.00012c-0.05855,-0.00001 -0.11524,0.02053 -0.1602,0.05804c-0.04494,0.0375 -0.0753,0.08958 -0.08579,0.14717l-0.00001,0.00004l-1.63699,9.00001h-0.00001c-0.00655,0.036 -0.00511,0.0731 0.00423,0.1085c0.00933,0.0354 0.02633,0.0683 0.0498,0.0964c0.02347,0.0281 0.05283,0.0508 0.086,0.0663c0.03317,0.0155 0.06935,0.0235 0.10597,0.0235h0.00012zM12,8.24994c0.5967,0 1.169,-0.23705 1.591,-0.65901c0.4219,-0.42196 0.659,-0.99425 0.659,-1.59099c0,-0.59674 -0.2371,-1.16903 -0.659,-1.59099c-0.422,-0.42196 -0.9943,-0.65901 -1.591,-0.65901c-0.5967,0 -1.169,0.23705 -1.591,0.65901c-0.42195,0.42196 -0.659,0.99425 -0.659,1.59099c0,0.59674 0.23705,1.16903 0.659,1.59099c0.422,0.42196 0.9943,0.65901 1.591,0.65901z" fill="#002B51"/>
</svg>
