<svg width="24" height="24" viewBox="0 0 24 24" fill="none" xmlns="http://www.w3.org/2000/svg">
<path d="M9.16045,10.252c0.41376,0.0117 0.74081,0.3567 0.72949,0.7705c-0.01156,0.4138 -0.3568,0.7406 -0.77051,0.7295c-0.73811,-0.0207 -1.46971,0.1512 -2.12109,0.499c-0.57,0.3044 -1.06175,0.7345 -1.43945,1.2558l-0.15528,0.2286c-0.3934,0.6248 -0.61718,1.3414 -0.64941,2.0791c-0.03221,0.7376 0.12837,1.4711 0.46582,2.1279l0.13476,0.2422c0.3308,0.5519 0.78314,1.0232 1.32422,1.3759l0.23633,0.1426c0.56106,0.3159 1.18789,0.5008 1.83301,0.5391l0.27637,0.0078c0.64344,-0.0037 1.27939,-0.1534 1.85839,-0.4395l0.2441,-0.1308c0.5572,-0.3221 1.0353,-0.7673 1.3965,-1.3027l0.0459,-0.0616c0.2433,-0.292 0.6732,-0.3585 0.9951,-0.1416c0.3432,0.2317 0.4337,0.6987 0.2022,1.042l-0.2188,0.3028c-0.4568,0.5904 -1.0245,1.0864 -1.6709,1.4599l-0.3291,0.1768c-0.7835,0.3872 -1.64391,0.5896 -2.51461,0.5947l-0.37402,-0.0098c-0.87259,-0.0518 -1.72056,-0.3023 -2.47949,-0.7295l-0.31934,-0.1943c-0.73234,-0.4774 -1.34535,-1.1142 -1.79297,-1.8613l-0.18164,-0.3272c-0.45657,-0.8885 -0.67345,-1.8808 -0.62988,-2.8789c0.04361,-0.9981 0.34653,-1.9681 0.87891,-2.8135l0.20898,-0.3095c0.51101,-0.7052 1.17716,-1.2865 1.94824,-1.6983c0.88112,-0.4703 1.86975,-0.7036 2.86817,-0.6757zM8.9124,6.50391c0.83801,-0.16321 1.7096,0.0093 2.4238,0.48535l3.0987,2.0664l0.1132,0.08399c0.5327,0.44786 0.6008,1.26095 0.1231,1.79195l-2.9873,3.3184h3.0762c0.3323,0.0001 0.649,0.1324 0.8818,0.3643l0.0937,0.1045l3.8506,4.8124l0.045,0.0626c0.206,0.3192 0.1408,0.7496 -0.1622,0.9921c-0.3031,0.2426 -0.7376,0.2117 -1.0039,-0.0595l-0.0507,-0.0576l-3.7745,-4.7188h-3.5166c-1.0821,0 -1.65327,-1.2815 -0.9296,-2.0859l3.1679,-3.5215l-2.8574,-1.9053c-0.359,-0.2392 -0.79189,-0.33596 -1.21485,-0.27636l-0.17968,0.03515l-2.92774,0.73145c-0.40175,0.1003 -0.80871,-0.14417 -0.90918,-0.5459c-0.10031,-0.40177 0.14413,-0.80874 0.5459,-0.90918l2.92676,-0.73144zM16.2503,5c0.9664,0.00016 1.75,0.7836 1.75,1.75c0,0.9664 -0.7836,1.74984 -1.75,1.75c-0.9665,0 -1.75,-0.7835 -1.75,-1.75c0,-0.9665 0.7835,-1.75 1.75,-1.75z" fill="#002B51"/>
</svg>
