<svg width="24" height="24" viewBox="0 0 24 24" fill="none" xmlns="http://www.w3.org/2000/svg">
<path fill-rule="evenodd" clip-rule="evenodd" d="M12.75,5.25c0,0.9665 -0.7835,1.75 -1.75,1.75c-0.9665,0 -1.75,-0.7835 -1.75,-1.75c0,-0.9665 0.7835,-1.75 1.75,-1.75c0.9665,0 1.75,0.7835 1.75,1.75zM7.99467,11.045c0.14167,0.3893 -0.05902,0.8196 -0.44826,0.9613c-0.63024,0.2294 -1.19725,0.6047 -1.65466,1.0952c-0.45742,0.4905 -0.79224,1.0823 -0.97711,1.727c-0.18487,0.6448 -0.21453,1.3241 -0.08656,1.9824c0.12798,0.6584 0.40995,1.2771 0.82287,1.8057c0.41292,0.5285 0.94507,0.9518 1.55292,1.2352c0.60786,0.2835 1.27417,0.419 1.94445,0.3956c0.67029,-0.0234 1.32548,-0.2051 1.91208,-0.5303c0.5866,-0.3251 1.088,-0.7845 1.463,-1.3405c0.2316,-0.3434 0.6978,-0.434 1.0412,-0.2024c0.3434,0.2316 0.434,0.6978 0.2024,1.0412c-0.5075,0.7522 -1.1857,1.3737 -1.9793,1.8137c-0.7937,0.4399 -1.6802,0.6857 -2.58703,0.7174c-0.90685,0.0317 -1.80833,-0.1517 -2.63072,-0.5352c-0.8224,-0.3835 -1.54235,-0.9562 -2.10101,-1.6712c-0.55866,-0.7151 -0.94015,-1.5522 -1.1133,-2.4429c-0.17314,-0.8908 -0.13301,-1.8099 0.11711,-2.6821c0.25011,-0.8723 0.70311,-1.673 1.32197,-2.3366c0.61885,-0.6636 1.38598,-1.1714 2.23866,-1.4817c0.38924,-0.1417 0.81962,0.059 0.96129,0.4482zM11.75,10.25h4.25c0.4142,0 0.75,0.3358 0.75,0.75c0,0.4142 -0.3358,0.75 -0.75,0.75h-4.25v2.5h3.0097c0.3797,0 0.7389,0.1726 0.9761,0.4691l3.8499,4.8124c0.2587,0.3234 0.2063,0.7954 -0.1172,1.0542c-0.3234,0.2587 -0.7954,0.2063 -1.0542,-0.1172l-3.7748,-4.7185h-3.1395c-0.6904,0 -1.25,-0.5596 -1.25,-1.25v-3.5v-2.25c0,-0.41421 0.3358,-0.75 0.75,-0.75c0.4142,0 0.75,0.33579 0.75,0.75z" fill="#002B51"/>
</svg>
