<svg width="24" height="24" viewBox="0 0 24 24" fill="none" xmlns="http://www.w3.org/2000/svg">
<path fill-rule="evenodd" clip-rule="evenodd" d="M18,6.75c0,0.9665 -0.7835,1.75 -1.75,1.75c-0.9665,0 -1.75,-0.7835 -1.75,-1.75c0,-0.9665 0.7835,-1.75 1.75,-1.75c0.9665,0 1.75,0.7835 1.75,1.75zM9.11867,11.7517c-0.7382,-0.0207 -1.46903,0.1514 -2.12047,0.4993c-0.65144,0.3478 -1.201,0.8594 -1.59452,1.4843c-0.39352,0.6249 -0.61742,1.3415 -0.64963,2.0793c-0.03222,0.7378 0.12837,1.4712 0.46593,2.1281c0.33756,0.6568 0.84044,1.2143 1.45909,1.6176c0.61864,0.4033 1.33169,0.6384 2.06888,0.6822c0.73719,0.0438 1.47305,-0.1052 2.13515,-0.4324c0.662,-0.3272 1.2274,-0.8213 1.6403,-1.4335c0.2316,-0.3434 0.6978,-0.434 1.0412,-0.2024c0.3434,0.2316 0.434,0.6978 0.2024,1.0412c-0.5587,0.8283 -1.3236,1.4967 -2.2193,1.9394c-0.8957,0.4427 -1.89134,0.6443 -2.88871,0.5851c-0.99737,-0.0593 -1.96209,-0.3774 -2.79907,-0.923c-0.83699,-0.5456 -1.51736,-1.2999 -1.97406,-2.1886c-0.4567,-0.8886 -0.67397,-1.8809 -0.63039,-2.8791c0.04358,-0.9982 0.34651,-1.9678 0.87892,-2.8132c0.53241,-0.8455 1.27593,-1.5376 2.15729,-2.0082c0.88136,-0.4706 1.87013,-0.7035 2.86887,-0.6756c0.41405,0.0116 0.74033,0.3566 0.72877,0.7707c-0.01157,0.414 -0.3566,0.7403 -0.77065,0.7288zM6.1819,8.72761c-0.40184,0.10046 -0.80904,-0.14386 -0.90951,-0.54571c-0.10046,-0.40184 0.14386,-0.80905 0.54571,-0.90951l2.92709,-0.73177c0.88834,-0.22208 1.82911,-0.05912 2.59101,0.4488l3.0987,2.06581c0.6342,0.42277 0.7456,1.30977 0.2358,1.87627l-2.9867,3.3185h3.0757c0.3797,0 0.7389,0.1726 0.9761,0.4691l3.8499,4.8124c0.2587,0.3234 0.2063,0.7954 -0.1172,1.0542c-0.3234,0.2587 -0.7954,0.2063 -1.0542,-0.1172l-3.7748,-4.7185h-3.5168c-1.0822,0 -1.6531,-1.2818 -0.9291,-2.0862l3.1687,-3.5209l-2.8581,-1.90541c-0.4103,-0.27349 -0.91687,-0.36124 -1.3952,-0.24166z" fill="#002B51"/>
</svg>
