<svg width="24" height="24" viewBox="0 0 24 24" fill="none" xmlns="http://www.w3.org/2000/svg">
<path fill-rule="evenodd" clip-rule="evenodd" d="M12.7501,5.25c0,0.9665 -0.7835,1.75 -1.75,1.75c-0.9665,0 -1.75,-0.7835 -1.75,-1.75c0,-0.9665 0.7835,-1.75 1.75,-1.75c0.9665,0 1.75,0.7835 1.75,1.75zM7.0333,10.5967c0.38924,-0.1417 0.82025,0.059 0.96192,0.4482c0.14156,0.3891 -0.05939,0.8191 -0.44825,0.961c-0.55142,0.2007 -1.05496,0.5134 -1.47851,0.917l-0.17676,0.1787c-0.40007,0.429 -0.70621,0.9356 -0.90039,1.4873l-0.07617,0.2392c-0.18484,0.6446 -0.21481,1.3242 -0.08692,1.9824l0.05469,0.2452c0.14533,0.5668 0.40719,1.098 0.76856,1.5605l0.16015,0.1934c0.38679,0.4389 0.86071,0.7939 1.39258,1.042l0.23047,0.0996c0.54388,0.2155 1.12741,0.3163 1.71387,0.2959l0.25,-0.0157c0.58263,-0.0548 1.14866,-0.23 1.66206,-0.5146l0.2159,-0.1279c0.4939,-0.3133 0.9189,-0.7256 1.247,-1.2119l0.0459,-0.0616c0.2433,-0.2922 0.6732,-0.3586 0.9952,-0.1416c0.3433,0.2317 0.4337,0.6986 0.2021,1.042l-0.1982,0.2754c-0.4119,0.5389 -0.9156,1.001 -1.4883,1.3643l-0.292,0.1738c-0.6943,0.3849 -1.4601,0.621 -2.24806,0.6953l-0.33985,0.0215c-0.79336,0.0276 -1.5826,-0.1089 -2.31836,-0.4004l-0.31152,-0.1348c-0.71959,-0.3355 -1.36146,-0.8153 -1.88476,-1.4091l-0.2168,-0.2618c-0.55862,-0.715 -0.94015,-1.5526 -1.11328,-2.4433c-0.17304,-0.8906 -0.13289,-1.8096 0.11718,-2.6817l0.10352,-0.3232c0.26272,-0.7468 0.6772,-1.4329 1.21875,-2.0137l0.23828,-0.2412c0.57307,-0.546 1.25389,-0.9686 2,-1.2402zM11.7501,8.75v1.5h4.25c0.4142,0 0.75,0.3358 0.75,0.75c0,0.4142 -0.3358,0.75 -0.75,0.75h-4.25v2.5h3.0098c0.3324,0 0.6489,0.1324 0.8818,0.3643l0.0937,0.1045l3.8506,4.8124l0.045,0.0626c0.2061,0.3192 0.141,0.7496 -0.1622,0.9921c-0.3032,0.2426 -0.7376,0.2118 -1.0039,-0.0595l-0.0507,-0.0576l-3.7745,-4.7188h-3.1396c-0.6904,0 -1.25,-0.5596 -1.25,-1.25v-5.75c0,-0.41421 0.3358,-0.75 0.75,-0.75c0.4142,0 0.75,0.33579 0.75,0.75z" fill="#002B51"/>
</svg>
