<svg width="24" height="24" viewBox="0 0 24 24" fill="none" xmlns="http://www.w3.org/2000/svg">
<path d="M7.0332,10.5967c0.38923,-0.1417 0.82025,0.059 0.96192,0.4482c0.14156,0.3891 -0.0594,0.8191 -0.44824,0.961c-0.63025,0.2293 -1.19787,0.6052 -1.65528,1.0957c-0.45724,0.4903 -0.79168,1.082 -0.97656,1.7265c-0.18483,0.6446 -0.21481,1.3242 -0.08692,1.9824c0.12798,0.6584 0.41033,1.2772 0.82325,1.8057c0.41292,0.5285 0.94488,0.9519 1.55273,1.2354c0.60783,0.2834 1.27409,0.4189 1.94434,0.3955c0.67023,-0.0235 1.32556,-0.2052 1.91206,-0.5303c0.5865,-0.3251 1.088,-0.784 1.4629,-1.3398l0.0459,-0.0616c0.2433,-0.2921 0.6732,-0.3586 0.9952,-0.1416c0.3433,0.2317 0.4337,0.6986 0.2021,1.042l-0.1982,0.2754c-0.4806,0.6288 -1.0861,1.1532 -1.7803,1.5381c-0.7936,0.4399 -1.6811,0.6851 -2.5879,0.7168c-0.90664,0.0316 -1.80768,-0.1518 -2.62989,-0.5352c-0.82239,-0.3834 -1.5429,-0.9558 -2.10156,-1.6709c-0.55861,-0.715 -0.94015,-1.5526 -1.11328,-2.4433c-0.17303,-0.8906 -0.13288,-1.8096 0.11719,-2.6817c0.25011,-0.8722 0.70342,-1.6732 1.32226,-2.3369c0.61877,-0.6634 1.38578,-1.1711 2.23828,-1.4814zM11,8c0.4142,0.00001 0.75,0.33579 0.75,0.75v1.5h4.25c0.4142,0 0.75,0.3358 0.75,0.75c0,0.4142 -0.3358,0.75 -0.75,0.75h-4.25v2.5h3.0098c0.3795,0 0.7384,0.1725 0.9756,0.4688l3.8505,4.8124l0.045,0.0626c0.2061,0.3192 0.141,0.7496 -0.1621,0.9921c-0.3033,0.2426 -0.7377,0.2118 -1.004,-0.0595l-0.0507,-0.0576l-3.7745,-4.7188h-3.1396c-0.6904,0 -1.25,-0.5596 -1.25,-1.25v-5.75c0,-0.41421 0.3358,-0.75 0.75,-0.75zM11,3.5c0.9665,0.00001 1.75,0.78351 1.75,1.75c0,0.96649 -0.7835,1.74999 -1.75,1.75c-0.9665,0 -1.75,-0.7835 -1.75,-1.75c0,-0.9665 0.7835,-1.75 1.75,-1.75z" fill="#002B51"/>
</svg>
