<svg width="24" height="24" viewBox="0 0 24 24" fill="none" xmlns="http://www.w3.org/2000/svg">
<path fill-rule="evenodd" clip-rule="evenodd" d="M12.7501,5.25c0,0.9665 -0.7835,1.75 -1.75,1.75c-0.9665,0 -1.75002,-0.7835 -1.75002,-1.75c0,-0.9665 0.78352,-1.75 1.75002,-1.75c0.9665,0 1.75,0.7835 1.75,1.75zM7.03329,10.5967c0.38923,-0.1417 0.82024,0.059 0.96191,0.4482c0.14156,0.3891 -0.05939,0.8191 -0.44824,0.961c-0.63025,0.2294 -1.19786,0.6051 -1.65527,1.0957c-0.45725,0.4903 -0.79168,1.082 -0.97657,1.7265c-0.18483,0.6446 -0.2148,1.3242 -0.08691,1.9824c0.12797,0.6584 0.41033,1.2772 0.82324,1.8057c0.41292,0.5285 0.94488,0.9519 1.55274,1.2354c0.60783,0.2834 1.27408,0.4189 1.94433,0.3955c0.67024,-0.0235 1.32558,-0.2052 1.91208,-0.5303c0.5864,-0.3251 1.0879,-0.784 1.4629,-1.3398l0.0459,-0.0616c0.2432,-0.2922 0.6731,-0.3586 0.9951,-0.1416c0.3434,0.2317 0.4338,0.6986 0.2022,1.042l-0.1983,0.2754c-0.4805,0.6288 -1.086,1.1532 -1.7802,1.5381c-0.7937,0.4399 -1.6811,0.6851 -2.58792,0.7168c-0.90664,0.0316 -1.80768,-0.1518 -2.62988,-0.5352c-0.8224,-0.3835 -1.54291,-0.9558 -2.10157,-1.6709c-0.55861,-0.715 -0.94014,-1.5526 -1.11328,-2.4433c-0.17303,-0.8906 -0.13288,-1.8096 0.11719,-2.6817c0.25012,-0.8722 0.70342,-1.6732 1.32227,-2.3369c0.61877,-0.6634 1.38578,-1.1711 2.23828,-1.4814zM11.7501,8.75v1.5h4.25c0.4142,0 0.75,0.3358 0.75,0.75c0,0.4142 -0.3358,0.75 -0.75,0.75h-4.25v2.5h3.0097c0.3796,0 0.7384,0.1725 0.9756,0.4688l3.8506,4.8124l0.0449,0.0626c0.2062,0.3192 0.1411,0.7496 -0.1621,0.9921c-0.3032,0.2426 -0.7376,0.2118 -1.0039,-0.0595l-0.0508,-0.0576l-3.7744,-4.7188h-3.1396c-0.6904,0 -1.25,-0.5596 -1.25,-1.25v-5.75c0,-0.41421 0.3358,-0.75 0.75,-0.75c0.4142,0 0.75,0.33579 0.75,0.75z" fill="#002B51"/>
</svg>
