<svg width="24" height="24" viewBox="0 0 24 24" fill="none" xmlns="http://www.w3.org/2000/svg">
<path d="M9.15985,10.252c0.41391,0.0115 0.74082,0.3566 0.72949,0.7705c-0.01156,0.4138 -0.35667,0.7408 -0.7705,0.7295c-0.7381,-0.0206 -1.46975,0.1512 -2.1211,0.499c-0.65128,0.3478 -1.20128,0.8596 -1.59472,1.4844c-0.39336,0.6247 -0.61719,1.3415 -0.64942,2.0791c-0.0322,0.7376 0.12842,1.4712 0.46582,2.1279c0.3375,0.6567 0.8405,1.2149 1.45899,1.6181c0.61855,0.4033 1.33225,0.6378 2.06933,0.6817c0.73693,0.0438 1.47296,-0.1047 2.13476,-0.4317c0.6619,-0.3271 1.2277,-0.8215 1.6406,-1.4335l0.0459,-0.0616c0.2432,-0.2921 0.6732,-0.3584 0.9951,-0.1416c0.3434,0.2317 0.4338,0.6986 0.2022,1.042l-0.2188,0.3028c-0.5329,0.6887 -1.2163,1.2494 -2,1.6367c-0.8955,0.4425 -1.89143,0.6441 -2.88863,0.5849c-0.99722,-0.0593 -1.96194,-0.3783 -2.79882,-0.9238c-0.83689,-0.5456 -1.51795,-1.2999 -1.97461,-2.1885c-0.45653,-0.8885 -0.67346,-1.8809 -0.62989,-2.8789c0.04361,-0.998 0.34659,-1.9681 0.87891,-2.8135c0.53234,-0.8451 1.27614,-1.5373 2.15723,-2.0078c0.88108,-0.4704 1.86976,-0.7035 2.86816,-0.6757zM8.74481,6.54102c0.88815,-0.22204 1.82899,-0.05944 2.59079,0.44824l3.0987,2.0664c0.6341,0.42276 0.7461,1.30944 0.2363,1.87594l-2.9873,3.3184h3.0762c0.3794,0 0.7383,0.1726 0.9755,0.4688l3.8506,4.8124l0.045,0.0626c0.2061,0.3192 0.141,0.7496 -0.1622,0.9921c-0.3032,0.2425 -0.7377,0.2118 -1.0039,-0.0595l-0.0507,-0.0576l-3.7745,-4.7188h-3.5166c-1.0818,-0.0002 -1.65299,-1.2816 -0.9296,-2.0859l3.1679,-3.5215l-2.8574,-1.9053c-0.4101,-0.27319 -0.91647,-0.36063 -1.39453,-0.24121l-2.92773,0.73145c-0.40168,0.10012 -0.80877,-0.14423 -0.90918,-0.5459c-0.10024,-0.40165 0.14432,-0.80862 0.54589,-0.90918zM16.2497,5c0.9665,0 1.75,0.7835 1.75,1.75c0,0.9665 -0.7835,1.75 -1.75,1.75c-0.9664,-0.00016 -1.75,-0.7836 -1.75,-1.75c0,-0.9664 0.7836,-1.74984 1.75,-1.75z" fill="#002B51"/>
</svg>
