<svg width="24" height="24" viewBox="0 0 24 24" fill="none" xmlns="http://www.w3.org/2000/svg">
<path fill-rule="evenodd" clip-rule="evenodd" d="M17.9999,6.75c0,0.9665 -0.7835,1.75 -1.75,1.75c-0.9665,0 -1.75,-0.7835 -1.75,-1.75c0,-0.9665 0.7835,-1.75 1.75,-1.75c0.9665,0 1.75,0.7835 1.75,1.75zM9.16007,10.252c0.4139,0.0115 0.74081,0.3566 0.72949,0.7705c-0.01156,0.4139 -0.35667,0.7408 -0.77051,0.7295c-0.73819,-0.0207 -1.46965,0.1511 -2.12109,0.499c-0.57005,0.3044 -1.06173,0.7344 -1.43945,1.2558l-0.15528,0.2286c-0.39341,0.6248 -0.61718,1.3414 -0.64941,2.0791c-0.03221,0.7376 0.12837,1.4711 0.46582,2.1279l0.13476,0.2422c0.33081,0.552 0.7831,1.0232 1.32422,1.3759l0.23633,0.1426c0.56112,0.316 1.1878,0.5008 1.83301,0.5391l0.27637,0.0078c0.64354,-0.0037 1.27927,-0.1533 1.85837,-0.4395l0.2442,-0.1308c0.5572,-0.3221 1.0352,-0.7672 1.3965,-1.3027l0.0458,-0.0616c0.2433,-0.2922 0.6732,-0.3586 0.9952,-0.1416c0.3434,0.2317 0.4337,0.6986 0.2021,1.042l-0.2187,0.3028c-0.4569,0.5905 -1.0245,1.0864 -1.6709,1.4599l-0.3291,0.1768c-0.7836,0.3872 -1.64389,0.5897 -2.51468,0.5947l-0.37403,-0.0098c-0.87267,-0.0518 -1.7205,-0.3023 -2.47949,-0.7295l-0.31934,-0.1943c-0.73238,-0.4774 -1.34534,-1.1141 -1.79296,-1.8613l-0.18165,-0.3272c-0.45657,-0.8885 -0.67345,-1.8808 -0.62988,-2.8789c0.04361,-0.9981 0.34653,-1.968 0.87891,-2.8135l0.20898,-0.3095c0.51103,-0.7053 1.17711,-1.2865 1.94824,-1.6983c0.88118,-0.4704 1.86966,-0.7036 2.86817,-0.6757zM14.4345,9.05566l0.1133,0.08399c0.5328,0.44787 0.6009,1.26095 0.123,1.79195l-2.9873,3.3184h3.0762c0.3324,0 0.649,0.1324 0.8818,0.3643l0.0938,0.1045l3.8506,4.8124l0.0449,0.0626c0.2061,0.3192 0.1411,0.7496 -0.1621,0.9921c-0.3033,0.2426 -0.7377,0.2118 -1.0039,-0.0595l-0.0508,-0.0576l-3.7744,-4.7188h-3.5166c-1.0821,0 -1.65335,-1.2815 -0.9297,-2.0859l3.1679,-3.5215l-2.8574,-1.9053c-0.359,-0.23926 -0.79178,-0.33605 -1.21482,-0.27636l-0.17969,0.03515l-2.92774,0.73145c-0.40177,0.10031 -0.80873,-0.14413 -0.90918,-0.5459c-0.10031,-0.40177 0.14413,-0.80874 0.5459,-0.90918l2.92676,-0.73144l0.16699,-0.03711c0.8381,-0.1633 1.70958,0.00925 2.42388,0.48535z" fill="#002B51"/>
</svg>
