<svg width="24" height="24" viewBox="0 0 24 24" fill="none" xmlns="http://www.w3.org/2000/svg">
<path fill-rule="evenodd" clip-rule="evenodd" d="M4,19.75c-0.41421,0 -0.75,-0.3358 -0.75,-0.75v-14c0,-0.41421 0.33579,-0.75 0.75,-0.75c0.41421,0 0.75,0.33579 0.75,0.75v14c0,0.4142 -0.33579,0.75 -0.75,0.75zM8.96967,8.96967c0.29289,-0.29289 0.76777,-0.29289 1.06063,0c0.2929,0.29289 0.2929,0.76777 0,1.06063l-1.21964,1.2197h6.37864l-1.2196,-1.2197c-0.2929,-0.29286 -0.2929,-0.76774 0,-1.06063c0.2929,-0.29289 0.7677,-0.29289 1.0606,0l2.5,2.50003c0.1407,0.1406 0.2197,0.3314 0.2197,0.5303c0,0.1989 -0.079,0.3897 -0.2197,0.5303l-2.5,2.5c-0.2929,0.2929 -0.7677,0.2929 -1.0606,0c-0.2929,-0.2929 -0.2929,-0.7677 0,-1.0606l1.2196,-1.2197h-6.37864l1.21964,1.2197c0.2929,0.2929 0.2929,0.7677 0,1.0606c-0.29286,0.2929 -0.76774,0.2929 -1.06063,0l-2.5,-2.5c-0.29289,-0.2929 -0.29289,-0.7677 0,-1.0606zM19.25,5c0,-0.41421 0.3358,-0.75 0.75,-0.75c0.4142,0 0.75,0.33579 0.75,0.75v14c0,0.4142 -0.3358,0.75 -0.75,0.75c-0.4142,0 -0.75,-0.3358 -0.75,-0.75z" fill="#002B51"/>
</svg>
