<svg width="24" height="24" viewBox="0 0 24 24" fill="none" xmlns="http://www.w3.org/2000/svg">
<path d="M4,4.25c0.41422,0 0.75,0.33579 0.75,0.75v14c0,0.4142 -0.33578,0.75 -0.75,0.75c-0.41421,0 -0.75,-0.3358 -0.75,-0.75v-14c0,-0.41421 0.33579,-0.75 0.75,-0.75zM20,4.25c0.4142,0 0.75,0.33579 0.75,0.75v14c0,0.4142 -0.3358,0.75 -0.75,0.75c-0.4142,0 -0.75,-0.3358 -0.75,-0.75v-14c0,-0.41421 0.3358,-0.75 0.75,-0.75zM8.96973,8.96973c0.29289,-0.2929 0.76765,-0.2929 1.06057,0c0.2929,0.29289 0.2929,0.76765 0,1.06057l-1.21975,1.2197h6.37895l-1.2198,-1.2197l-0.0517,-0.05667c-0.2403,-0.29458 -0.2229,-0.7293 0.0517,-1.0039c0.2746,-0.27461 0.7094,-0.29207 1.0039,-0.05176l0.0567,0.05176l2.5,2.49997c0.1406,0.1407 0.2197,0.3314 0.2197,0.5303c0,0.1989 -0.0791,0.3896 -0.2197,0.5303l-2.5,2.5c-0.2929,0.2929 -0.7677,0.2929 -1.0606,0c-0.2929,-0.2929 -0.2929,-0.7677 0,-1.0606l1.2198,-1.2197h-6.37895l1.21975,1.2197l0.0517,0.0567c0.2403,0.2945 0.2229,0.7293 -0.0517,1.0039c-0.27463,0.2746 -0.70935,0.292 -1.00393,0.0517l-0.05664,-0.0517l-2.5,-2.5c-0.2746,-0.2746 -0.29207,-0.7094 -0.05176,-1.0039l0.05176,-0.0567z" fill="#002B51"/>
</svg>
