<svg width="24" height="24" viewBox="0 0 24 24" fill="none" xmlns="http://www.w3.org/2000/svg">
<path fill-rule="evenodd" clip-rule="evenodd" d="M4.53044,3.46984l15.99996,15.99996l0.0518,0.0567c0.2403,0.2946 0.2228,0.7293 -0.0518,1.0039c-0.2746,0.2746 -0.7093,0.2921 -1.0039,0.0517l-0.0566,-0.0517l-4.5002,-4.5002l-2.2627,2.2627c-0.3905,0.3905 -1.0236,0.3905 -1.4142,0l-8.48525,-8.48531c-0.39052,-0.39053 -0.39275,-1.02672 0.02465,-1.38838c0.8238,-0.71378 1.72796,-1.32875 2.69397,-1.83254l-2.05628,-2.05628l-0.05176,-0.05664c-0.24031,-0.29458 -0.22285,-0.7293 0.05176,-1.00391c0.2746,-0.2746 0.70932,-0.29206 1.0039,-0.05175zM21.1923,9.80759l-4.162,4.16211l-8.52622,-8.52623c1.13943,-0.29383 2.31392,-0.44349 3.49582,-0.44349c1.8385,0 3.659,0.36212 5.3576,1.06569c1.3901,0.5758 2.6763,1.37108 3.8102,2.35355c0.4174,0.36165 0.4152,0.99785 0.0246,1.38837z" fill="#002B51"/>
</svg>
