<svg width="24" height="24" viewBox="0 0 24 24" fill="none" xmlns="http://www.w3.org/2000/svg">
<path fill-rule="evenodd" clip-rule="evenodd" d="M20.5304,19.4697c0.2929,0.2929 0.2929,0.7677 0,1.0606c-0.2929,0.2929 -0.7678,0.2929 -1.0607,0l-4.5,-4.5l-2.2627,2.2626c-0.3905,0.3905 -1.0236,0.3905 -1.4142,0l-8.48525,-8.48531c-0.39052,-0.39053 -0.39275,-1.02672 0.02465,-1.38838c0.82377,-0.71376 1.72791,-1.32872 2.69389,-1.8325l-2.05638,-2.05638c-0.29289,-0.29289 -0.29289,-0.76777 0,-1.06066c0.2929,-0.29289 0.76777,-0.29289 1.06067,0zM21.1923,9.80759l-4.162,4.16201l-8.52615,-8.52615c1.13941,-0.29382 2.31385,-0.44347 3.49575,-0.44347c1.8385,0 3.659,0.36212 5.3576,1.06569c1.3901,0.5758 2.6763,1.37108 3.8102,2.35355c0.4174,0.36165 0.4152,0.99785 0.0246,1.38837z" fill="#002B51"/>
</svg>
