<svg width="24" height="24" viewBox="0 0 24 24" fill="none" xmlns="http://www.w3.org/2000/svg">
<path d="M3.46997,3.46973c0.27461,-0.27451 0.70936,-0.29203 1.00391,-0.05176l0.05664,0.05176l15.99998,15.99997l0.0518,0.0567c0.2403,0.2945 0.2227,0.7293 -0.0518,1.0039c-0.2746,0.2746 -0.7093,0.292 -1.0039,0.0517l-0.0566,-0.0517l-4.5,-4.5l-2.2627,2.2627c-0.3905,0.3904 -1.0235,0.3902 -1.4141,0l-8.48534,-8.48538c-0.39052,-0.39052 -0.39297,-1.02702 0.02442,-1.38867c0.82393,-0.71388 1.72978,-1.32657 2.69628,-1.83008l-2.05859,-2.0586l-0.05176,-0.05664c-0.24028,-0.29458 -0.22283,-0.72931 0.05176,-1.0039zM12.0002,5c1.8384,0.00004 3.659,0.3619 5.3575,1.06543c1.3899,0.57574 2.6758,1.37122 3.8095,2.35352c0.4174,0.36161 0.4158,0.99813 0.0254,1.38867l-4.1621,4.16208l-8.52635,-8.52634c1.13953,-0.29381 2.31415,-0.44336 3.49605,-0.44336z" fill="#002B51"/>
</svg>
