<svg width="24" height="24" viewBox="0 0 24 24" fill="none" xmlns="http://www.w3.org/2000/svg">
<path fill-rule="evenodd" clip-rule="evenodd" d="M4.53038 3.46967C4.23748 3.17678 3.76261 3.17678 3.46971 3.46967C3.17682 3.76256 3.17682 4.23744 3.46971 4.53033L5.52609 6.58671C4.56011 7.09049 3.65597 7.70545 2.8322 8.41921C2.4148 8.78087 2.41703 9.41706 2.80755 9.80759L11.2928 18.2929C11.6834 18.6834 12.3165 18.6834 12.707 18.2929L14.9697 16.0303L19.4697 20.5303C19.7626 20.8232 20.2375 20.8232 20.5304 20.5303C20.8233 20.2374 20.8233 19.7626 20.5304 19.4697L4.53038 3.46967ZM21.1923 9.80759L17.0303 13.9696L8.50415 5.44345C9.64356 5.14963 10.818 4.99998 11.9999 4.99998C13.8384 4.99998 15.6589 5.3621 17.3575 6.06567C18.7476 6.64147 20.0338 7.43675 21.1677 8.41922C21.5851 8.78087 21.5829 9.41707 21.1923 9.80759Z" fill="#002B51"/>
</svg>
