<svg width="24" height="24" viewBox="0 0 24 24" fill="none" xmlns="http://www.w3.org/2000/svg">
<path fill-rule="evenodd" clip-rule="evenodd" d="M21.0312,8.75l0.0517,0.05664c0.2399,0.29499 0.2214,0.72976 -0.0537,1.00391c-0.2751,0.27415 -0.7097,0.29075 -1.0039,0.0498l-0.0566,-0.05176l-0.3906,-0.37402c-2,-1.82383 -4.6589,-2.93457 -7.5782,-2.93457c-3.11372,0 -5.93097,1.26388 -7.96872,3.30859c-0.29238,0.29341 -0.76714,0.29431 -1.06054,0.00196c-0.29338,-0.29239 -0.29434,-0.76716 -0.00196,-1.06055c2.30769,-2.31565 5.50269,-3.75 9.03122,-3.75c3.3079,0 6.3225,1.26069 8.5879,3.32617zM11.9997,8.75c2.4,0 4.588,0.91458 6.2314,2.4131l0.3213,0.3076l0.0508,0.0566c0.24,0.295 0.2223,0.7297 -0.0527,1.0039c-0.2751,0.2741 -0.7098,0.2905 -1.0039,0.0499l-0.0567,-0.0518l-0.2695,-0.2578c-1.3779,-1.2566 -3.2096,-2.0215 -5.2207,-2.0215c-2.14499,0.0001 -4.08529,0.8705 -5.48927,2.2793c-0.29237,0.2934 -0.76714,0.2943 -1.06054,0.0019c-0.29338,-0.2923 -0.29428,-0.7671 -0.00196,-1.0605c1.67391,-1.67968 3.992,-2.72062 6.55177,-2.7207zM15.7054,15.0889c-0.2921,0.2935 -0.7669,0.294 -1.0606,0.0019c-0.6787,-0.6751 -1.6125,-1.0907 -2.6445,-1.0908c-1.0319,0 -1.9657,0.4158 -2.64453,1.0908l-0.05762,0.0518c-0.29506,0.2393 -0.72907,0.2211 -1.00293,-0.0537c-0.29211,-0.2937 -0.29171,-0.7694 0.00195,-1.0616l0.18262,-0.1718c0.93066,-0.8416 2.16631,-1.3555 3.52051,-1.3555c1.4443,0.0001 2.7538,0.5841 3.7021,1.5273c0.2937,0.2922 0.2951,0.7679 0.003,1.0616zM13.4999,17.75c0,0.8284 -0.6715,1.5 -1.5,1.5c-0.8284,0 -1.5,-0.6716 -1.5,-1.5c0,-0.8284 0.6716,-1.5 1.5,-1.5c0.8285,0 1.5,0.6716 1.5,1.5z" fill="#002B51"/>
</svg>
