<svg width="24" height="24" viewBox="0 0 24 24" fill="none" xmlns="http://www.w3.org/2000/svg">
<path d="M3.46973,3.46973c0.27456,-0.27456 0.70932,-0.29195 1.0039,-0.05176l0.05664,0.05176l16.00003,15.99997l0.0517,0.0567c0.2403,0.2945 0.2229,0.7293 -0.0517,1.0039c-0.2746,0.2746 -0.7094,0.292 -1.0039,0.0517l-0.0567,-0.0517l-6.3652,-6.3653c-0.3491,-0.1073 -0.72,-0.165 -1.1045,-0.165c-1.0318,0.0001 -1.9658,0.4159 -2.64453,1.0908l-0.05762,0.0518c-0.29503,0.2391 -0.72913,0.221 -1.00293,-0.0537c-0.29187,-0.2936 -0.29145,-0.7695 0.00196,-1.0616l0.18261,-0.1718c0.80668,-0.7295 1.84271,-1.2133 2.98631,-1.3291l-1.88963,-1.8897c-1.1693,0.3845 -2.21561,1.0399 -3.06543,1.8926c-0.29231,0.2933 -0.76713,0.2941 -1.06054,0.0019c-0.29337,-0.2923 -0.29427,-0.7671 -0.00196,-1.0605c0.84212,-0.845 1.84778,-1.52693 2.96485,-1.99707l-1.66895,-1.66894c-1.0034,0.53079 -1.91816,1.20647 -2.71289,2.0039c-0.29237,0.29341 -0.76715,0.29431 -1.06055,0.00196c-0.29337,-0.29239 -0.29432,-0.76716 -0.00195,-1.06055c0.79269,-0.79542 1.69121,-1.48487 2.6709,-2.0498l-2.16992,-2.16993l-0.05176,-0.05664c-0.24019,-0.29457 -0.22279,-0.72934 0.05176,-1.0039zM12,16.25c0.8284,0 1.5,0.6716 1.5,1.5c0,0.8284 -0.6716,1.5 -1.5,1.5c-0.8284,0 -1.5,-0.6716 -1.5,-1.5c0,-0.8284 0.6716,-1.5 1.5,-1.5zM12,8.75c2.3998,0.00008 4.5881,0.91464 6.2314,2.4131l0.3213,0.3076l0.0508,0.0566c0.2398,0.2949 0.2221,0.7298 -0.0527,1.0039c-0.275,0.2741 -0.7098,0.2903 -1.0039,0.0499l-0.0567,-0.0518l-0.2695,-0.2578c-1.0394,-0.9479 -2.3373,-1.6157 -3.7754,-1.8867l-1.6308,-1.63089c0.0616,-0.00122 0.1235,-0.00391 0.1855,-0.00391zM12,5c3.3079,0.00002 6.3225,1.26071 8.5879,3.32617l0.4433,0.42383l0.0518,0.05664c0.2398,0.29498 0.2213,0.72978 -0.0537,1.00391c-0.2751,0.27415 -0.7097,0.29065 -1.0039,0.0498l-0.0566,-0.05176l-0.3907,-0.37402c-1.9999,-1.82382 -4.6588,-2.93455 -7.5781,-2.93457c-0.7599,0 -1.5021,0.07618 -2.21973,0.21973l-1.24316,-1.24317c1.10121,-0.31011 2.26269,-0.47656 3.46289,-0.47656z" fill="#002B51"/>
</svg>
