<svg width="24" height="24" viewBox="0 0 24 24" fill="none" xmlns="http://www.w3.org/2000/svg">
<path fill-rule="evenodd" clip-rule="evenodd" d="M4.53035 3.46967C4.23746 3.17678 3.76259 3.17678 3.46969 3.46967C3.1768 3.76256 3.1768 4.23744 3.46969 4.53033L5.63783 6.69847C4.65844 7.26344 3.76128 7.95476 2.96876 8.75002C2.67637 9.04342 2.67719 9.51829 2.97059 9.81068C3.26398 10.1031 3.73886 10.1022 4.03124 9.80885C4.82567 9.01167 5.73856 8.33316 6.74131 7.80194L8.41143 9.47207C7.29481 9.94253 6.28993 10.6257 5.44801 11.4706C5.15562 11.764 5.15643 12.2388 5.44983 12.5312C5.74323 12.8236 6.2181 12.8228 6.51049 12.5294C7.3603 11.6767 8.4066 11.0211 9.57585 10.6365L11.4662 12.5268C10.2344 12.6514 9.12776 13.202 8.29761 14.0278C8.00395 14.3199 8.00269 14.7948 8.29481 15.0884C8.58692 15.3821 9.06179 15.3834 9.35546 15.0913C10.0343 14.416 10.9679 14 12 14C12.3845 14 12.7554 14.0577 13.1044 14.1651L19.4697 20.5303C19.7626 20.8232 20.2375 20.8232 20.5304 20.5303C20.8232 20.2374 20.8232 19.7626 20.5304 19.4697L4.53035 3.46967ZM11.8125 8.75184L13.445 10.3843C15.0102 10.6793 16.4088 11.4449 17.4896 12.5294C17.782 12.8228 18.2569 12.8236 18.5503 12.5312C18.8437 12.2388 18.8445 11.764 18.5521 11.4706C16.8781 9.79081 14.5599 8.74997 12 8.74997C11.9374 8.74997 11.8749 8.7506 11.8125 8.75184ZM8.53678 5.47611L9.77962 6.71894C10.4974 6.57531 11.2399 6.49997 12 6.49997C15.1138 6.49997 17.931 7.76405 19.9688 9.80885C20.2611 10.1022 20.736 10.1031 21.0294 9.81068C21.3228 9.51829 21.3236 9.04342 21.0312 8.75002C18.7236 6.43435 15.5286 4.99997 12 4.99997C10.7997 4.99997 9.63806 5.16594 8.53678 5.47611ZM13.5 17.75C13.5 18.5784 12.8284 19.25 12 19.25C11.1716 19.25 10.5 18.5784 10.5 17.75C10.5 16.9215 11.1716 16.25 12 16.25C12.8284 16.25 13.5 16.9215 13.5 17.75Z" fill="#002B51"/>
</svg>
