<svg width="24" height="24" viewBox="0 0 24 24" fill="none" xmlns="http://www.w3.org/2000/svg">
<path d="M11.9999,16.25c0.8285,0 1.5,0.6716 1.5,1.5c0,0.8284 -0.6715,1.5 -1.5,1.5c-0.8284,0 -1.5,-0.6716 -1.5,-1.5c0,-0.8284 0.6716,-1.5 1.5,-1.5zM11.9999,12.5c1.4442,0.0001 2.7538,0.5842 3.7022,1.5273c0.2937,0.2922 0.295,0.7679 0.0029,1.0616c-0.2921,0.2934 -0.767,0.2939 -1.0605,0.0019c-0.6788,-0.675 -1.6127,-1.0907 -2.6446,-1.0908c-1.0318,0.0001 -1.9658,0.4159 -2.6445,1.0908l-0.05761,0.0518c-0.29506,0.2391 -0.72914,0.2211 -1.00293,-0.0537c-0.29188,-0.2937 -0.29147,-0.7695 0.00195,-1.0616l0.18262,-0.1718c0.93057,-0.8415 2.16647,-1.3554 3.52047,-1.3555zM11.9999,8.75c2.3999,0.00006 4.5881,0.91463 6.2315,2.4131l0.3213,0.3076l0.0507,0.0566c0.2399,0.2949 0.2222,0.7298 -0.0527,1.0039c-0.275,0.2741 -0.7097,0.2904 -1.0039,0.0499l-0.0566,-0.0518l-0.2696,-0.2578c-1.3778,-1.2565 -3.2097,-2.0214 -5.2207,-2.0215c-2.14488,0.0001 -4.08526,0.8706 -5.48922,2.2793c-0.29233,0.2933 -0.76714,0.2942 -1.06055,0.0019c-0.29338,-0.2923 -0.29428,-0.7671 -0.00195,-1.0605c1.6739,-1.6796 3.99206,-2.72062 6.55172,-2.7207zM11.9999,5c3.3079,0 6.3225,1.26069 8.5879,3.32617l0.4434,0.42383l0.0517,0.05664c0.2399,0.29499 0.2214,0.72976 -0.0537,1.00391c-0.2751,0.27415 -0.7097,0.29075 -1.0039,0.0498l-0.0566,-0.05176l-0.3906,-0.37402c-2,-1.82383 -4.6589,-2.93457 -7.5782,-2.93457c-3.11372,0 -5.93097,1.26388 -7.96872,3.30859c-0.29238,0.29341 -0.76714,0.29431 -1.06054,0.00196c-0.29338,-0.29239 -0.29434,-0.76716 -0.00196,-1.06055c2.30769,-2.31565 5.50269,-3.75 9.03122,-3.75z" fill="#002B51"/>
</svg>
