<svg width="24" height="24" viewBox="0 0 24 24" fill="none" xmlns="http://www.w3.org/2000/svg">
<path fill-rule="evenodd" clip-rule="evenodd" d="M20.5304,19.4697c0.2928,0.2929 0.2928,0.7677 0,1.0606c-0.2929,0.2929 -0.7678,0.2929 -1.0607,0l-6.3653,-6.3652c-0.349,-0.1074 -0.7199,-0.1651 -1.1044,-0.1651c-1.0321,0 -1.9657,0.416 -2.64454,1.0913c-0.29367,0.2921 -0.76854,0.2908 -1.06065,-0.0029c-0.29212,-0.2936 -0.29086,-0.7685 0.0028,-1.0606c0.83015,-0.8258 1.93679,-1.3764 3.16859,-1.501l-1.89035,-1.8903c-1.16925,0.3846 -2.21555,1.0402 -3.06536,1.8929c-0.29239,0.2934 -0.76726,0.2942 -1.06066,0.0018c-0.2934,-0.2924 -0.29421,-0.7672 -0.00182,-1.0606c0.84192,-0.8449 1.8468,-1.52807 2.96342,-1.99853l-1.67012,-1.67013c-1.00275,0.53122 -1.91564,1.20973 -2.71007,2.00691c-0.29238,0.29335 -0.76726,0.29425 -1.06065,0.00183c-0.2934,-0.29239 -0.29422,-0.76726 -0.00183,-1.06066c0.79252,-0.79526 1.68968,-1.48658 2.66907,-2.05155l-2.16814,-2.16814c-0.29289,-0.29289 -0.29289,-0.76777 0,-1.06066c0.2929,-0.29289 0.76777,-0.29289 1.06066,0zM12,8.74997c2.5599,0 4.8781,1.04084 6.5521,2.72063c0.2924,0.2934 0.2916,0.7682 -0.0018,1.0606c-0.2934,0.2924 -0.7683,0.2916 -1.0607,-0.0018c-1.0808,-1.0845 -2.4794,-1.8501 -4.0446,-2.1451l-1.6325,-1.63246c0.0624,-0.00124 0.1249,-0.00187 0.1875,-0.00187zM12,4.99997c3.5286,0 6.7236,1.43438 9.0312,3.75005c0.2924,0.2934 0.2916,0.76827 -0.0018,1.06066c-0.2934,0.29242 -0.7683,0.29152 -1.0606,-0.00183c-2.0378,-2.0448 -4.855,-3.30888 -7.9688,-3.30888c-0.7601,0 -1.5026,0.07534 -2.22038,0.21897l-1.24284,-1.24283c1.10128,-0.31017 2.26292,-0.47614 3.46322,-0.47614zM13.5,17.75c0,0.8284 -0.6716,1.5 -1.5,1.5c-0.8284,0 -1.5,-0.6716 -1.5,-1.5c0,-0.8285 0.6716,-1.5 1.5,-1.5c0.8284,0 1.5,0.6715 1.5,1.5z" fill="#002B51"/>
</svg>
