<svg width="24" height="24" viewBox="0 0 24 24" fill="none" xmlns="http://www.w3.org/2000/svg">
<path fill-rule="evenodd" clip-rule="evenodd" d="M4.03124 9.80888C6.069 7.76407 8.88617 6.5 12 6.5C15.1138 6.5 17.931 7.76407 19.9688 9.80888C20.2611 10.1023 20.736 10.1031 21.0294 9.81071C21.3228 9.51832 21.3236 9.04345 21.0312 8.75005C18.7236 6.43438 15.5286 5 12 5C8.47142 5 5.27645 6.43438 2.96876 8.75005C2.67637 9.04345 2.67719 9.51832 2.97059 9.81071C3.26398 10.1031 3.73886 10.1023 4.03124 9.80888ZM12 10.25C9.85492 10.25 7.91454 11.1205 6.51049 12.5294C6.2181 12.8228 5.74323 12.8236 5.44983 12.5312C5.15643 12.2389 5.15562 11.764 5.44801 11.4706C7.12198 9.79084 9.44017 8.75 12 8.75C14.5599 8.75 16.8781 9.79084 18.5521 11.4706C18.8445 11.764 18.8437 12.2389 18.5503 12.5312C18.2569 12.8236 17.782 12.8228 17.4896 12.5294C16.0856 11.1205 14.1452 10.25 12 10.25ZM9.35546 15.0913C10.0343 14.416 10.9679 14 12 14C13.0322 14 13.9657 14.416 14.6446 15.0913C14.9383 15.3834 15.4131 15.3821 15.7052 15.0885C15.9974 14.7948 15.9961 14.3199 15.7024 14.0278C14.754 13.0844 13.4445 12.5 12 12.5C10.5555 12.5 9.24608 13.0844 8.29761 14.0278C8.00395 14.3199 8.00269 14.7948 8.29481 15.0885C8.58692 15.3821 9.06179 15.3834 9.35546 15.0913ZM13.5 17.75C13.5 18.5784 12.8284 19.25 12 19.25C11.1716 19.25 10.5 18.5784 10.5 17.75C10.5 16.9216 11.1716 16.25 12 16.25C12.8284 16.25 13.5 16.9216 13.5 17.75Z" fill="#002B51"/>
</svg>
