<svg width="24" height="24" viewBox="0 0 24 24" fill="none" xmlns="http://www.w3.org/2000/svg">
<path fill-rule="evenodd" clip-rule="evenodd" d="M4.53041,3.46984l15.99999,15.99996l0.0518,0.0567c0.2403,0.2946 0.2228,0.7293 -0.0518,1.0039c-0.2746,0.2746 -0.7093,0.2921 -1.0039,0.0517l-0.0566,-0.0517l-6.3655,-6.3655c-0.349,-0.1072 -0.7197,-0.1649 -1.1041,-0.1649c-1.0319,0 -1.9657,0.4158 -2.64453,1.0908l-0.05762,0.0518c-0.29506,0.2392 -0.72907,0.2211 -1.00293,-0.0538c-0.29211,-0.2936 -0.29171,-0.7694 0.00195,-1.0615l0.18262,-0.1719c0.8068,-0.7295 1.84281,-1.2128 2.98651,-1.3286l-1.8904,-1.8904c-1.1693,0.3846 -2.21563,1.0401 -3.06547,1.8929c-0.29237,0.2933 -0.76714,0.2942 -1.06054,0.0019c-0.29338,-0.2923 -0.29428,-0.7671 -0.00196,-1.0605c0.84197,-0.8449 1.84691,-1.52815 2.9636,-1.99864l-1.67026,-1.67027c-1.00276,0.53117 -1.91566,1.20963 -2.71009,2.00678c-0.29238,0.29343 -0.76714,0.29433 -1.06054,0.00195c-0.29338,-0.29239 -0.29434,-0.76716 -0.00196,-1.06055c0.79255,-0.79528 1.68975,-1.48661 2.66918,-2.05159l-2.16799,-2.16799l-0.05176,-0.05664c-0.24031,-0.29458 -0.22285,-0.7293 0.05176,-1.00391c0.2746,-0.2746 0.70932,-0.29206 1.0039,-0.05175zM11.9997,8.74997c2.4,0 4.588,0.91458 6.2314,2.41313l0.3213,0.3076l0.0508,0.0566c0.24,0.295 0.2223,0.7297 -0.0527,1.0039c-0.2751,0.2741 -0.7098,0.2905 -1.0039,0.0498l-0.0567,-0.0517l-0.2695,-0.2578c-1.0395,-0.948 -2.3373,-1.6161 -3.7755,-1.8872l-1.6325,-1.63246c0.0623,-0.00124 0.1247,-0.00186 0.1873,-0.00187zM11.9999,4.99997c3.3079,0 6.3225,1.2607 8.5879,3.32618l0.4434,0.42382l0.0517,0.05664c0.2399,0.29499 0.2214,0.72977 -0.0537,1.00391c-0.2751,0.27418 -0.7097,0.29078 -1.0039,0.0498l-0.0566,-0.05175l-0.3906,-0.37403c-2,-1.82383 -4.6589,-2.93457 -7.5782,-2.93457c-0.7601,0 -1.5026,0.07533 -2.22039,0.21895l-1.24282,-1.24282c1.10129,-0.31016 2.26301,-0.47613 3.46321,-0.47613zM13.4999,17.75c0,0.8284 -0.6715,1.5 -1.5,1.5c-0.8284,0 -1.5,-0.6716 -1.5,-1.5c0,-0.8285 0.6716,-1.5 1.5,-1.5c0.8285,0 1.5,0.6715 1.5,1.5z" fill="#002B51"/>
</svg>
