<svg width="24" height="24" viewBox="0 0 24 24" fill="none" xmlns="http://www.w3.org/2000/svg">
<path d="M3.46978,3.4698c0.2746,-0.27451 0.70936,-0.29204 1.0039,-0.05176l0.05664,0.05176l15.99998,16l0.0518,0.0566c0.2403,0.2946 0.2227,0.7293 -0.0518,1.0039c-0.2746,0.2746 -0.7093,0.2921 -1.0039,0.0518l-0.0566,-0.0518l-4.5,-4.5l-2.2627,2.2627c-0.3904,0.3904 -1.0235,0.3901 -1.4141,0l-8.48533,-8.48531c-0.39053,-0.39053 -0.39299,-1.02702 0.02441,-1.38868c0.82397,-0.71387 1.72976,-1.32656 2.69629,-1.83007l-2.05859,-2.0586l-0.05176,-0.05664c-0.24029,-0.29458 -0.22284,-0.72931 0.05176,-1.0039zM12,5.00007c1.8383,0.00009 3.6591,0.36195 5.3575,1.06543c1.3898,0.57572 2.6758,1.37129 3.8095,2.35351c0.4171,0.36159 0.4156,0.9982 0.0254,1.38868l-4.1621,4.16211l-8.52635,-8.52637c1.13942,-0.29375 2.31425,-0.44336 3.49605,-0.44336z" fill="#002B51"/>
</svg>
