<svg width="24" height="24" viewBox="0 0 24 24" fill="none" xmlns="http://www.w3.org/2000/svg">
<path fill-rule="evenodd" clip-rule="evenodd" d="M2.97059,9.81071c-0.2934,-0.29239 -0.29422,-0.76726 -0.00183,-1.06066c2.30769,-2.31567 5.50266,-3.75005 9.03124,-3.75005c3.5286,0 6.7236,1.43438 9.0312,3.75005c0.2924,0.2934 0.2916,0.76827 -0.0018,1.06066c-0.2934,0.29239 -0.7683,0.29159 -1.0606,-0.00183c-2.0378,-2.04481 -4.855,-3.30888 -7.9688,-3.30888c-3.11383,0 -5.931,1.26407 -7.96876,3.30888c-0.29238,0.29342 -0.76726,0.29422 -1.06065,0.00183zM12,10.25c-2.14508,0 -4.08546,0.8705 -5.48951,2.2794c-0.29239,0.2934 -0.76726,0.2942 -1.06066,0.0018c-0.2934,-0.2923 -0.29421,-0.7672 -0.00182,-1.0606c1.67397,-1.67976 3.99216,-2.7206 6.55199,-2.7206c2.5599,0 4.8781,1.04084 6.5521,2.7206c0.2924,0.2934 0.2916,0.7683 -0.0018,1.0606c-0.2934,0.2924 -0.7683,0.2916 -1.0607,-0.0018c-1.404,-1.4089 -3.3444,-2.2794 -5.4896,-2.2794zM8.29481,15.0885c-0.29212,-0.2937 -0.29086,-0.7686 0.0028,-1.0607c0.94847,-0.9434 2.25789,-1.5278 3.70239,-1.5278c1.4445,0 2.754,0.5844 3.7024,1.5278c0.2937,0.2921 0.295,0.767 0.0028,1.0607c-0.2921,0.2936 -0.7669,0.2949 -1.0606,0.0028c-0.6789,-0.6753 -1.6124,-1.0913 -2.6446,-1.0913c-1.0321,0 -1.9657,0.416 -2.64454,1.0913c-0.29367,0.2921 -0.76854,0.2908 -1.06065,-0.0028zM13.5,17.75c0,0.8284 -0.6716,1.5 -1.5,1.5c-0.8284,0 -1.5,-0.6716 -1.5,-1.5c0,-0.8284 0.6716,-1.5 1.5,-1.5c0.8284,0 1.5,0.6716 1.5,1.5z" fill="#002B51"/>
</svg>
