<svg width="24" height="24" viewBox="0 0 24 24" fill="none" xmlns="http://www.w3.org/2000/svg">
<path d="M3.46966,3.46978c0.27456,-0.27456 0.70933,-0.29195 1.00391,-0.05176l0.05664,0.05176l15.99999,16.00002l0.0518,0.0566c0.2403,0.2946 0.2228,0.7293 -0.0518,1.0039c-0.2746,0.2746 -0.7093,0.2921 -1.0039,0.0518l-0.0566,-0.0518l-6.3653,-6.3652c-0.3491,-0.1074 -0.72,-0.165 -1.1045,-0.165c-1.0317,0.0001 -1.9658,0.4159 -2.6445,1.0908l-0.05761,0.0517c-0.29503,0.2391 -0.72914,0.221 -1.00293,-0.0537c-0.29188,-0.2936 -0.29147,-0.7694 0.00195,-1.0615l0.18262,-0.1719c0.80668,-0.7294 1.84267,-1.2133 2.98637,-1.3291l-1.88969,-1.8896c-1.16933,0.3844 -2.2156,1.0399 -3.06543,1.8926c-0.2923,0.2933 -0.76713,0.294 -1.06055,0.0019c-0.29338,-0.2924 -0.29428,-0.7671 -0.00195,-1.0605c0.84212,-0.845 1.84776,-1.52698 2.96484,-1.99711l-1.66895,-1.66895c-1.0034,0.5308 -1.91815,1.20647 -2.71289,2.00391c-0.29236,0.29335 -0.76714,0.29425 -1.06054,0.00195c-0.29338,-0.29239 -0.29434,-0.76716 -0.00196,-1.06055c0.79271,-0.79543 1.6912,-1.48487 2.6709,-2.0498l-2.16992,-2.16992l-0.05176,-0.05664c-0.24018,-0.29458 -0.22279,-0.72935 0.05176,-1.00391zM11.9999,16.2501c0.8284,0 1.5,0.6716 1.5,1.5c0,0.8283 -0.6716,1.4999 -1.5,1.5c-0.8284,0 -1.5,-0.6716 -1.5,-1.5c0,-0.8285 0.6716,-1.5 1.5,-1.5zM11.9999,8.75005c2.3999,0.0001 4.5882,0.91466 6.2315,2.41305l0.3213,0.3077l0.0507,0.0566c0.2398,0.2949 0.2221,0.7297 -0.0527,1.0039c-0.2749,0.274 -0.7097,0.2903 -1.0039,0.0498l-0.0566,-0.0517l-0.2696,-0.2579c-1.0394,-0.9478 -2.3373,-1.6156 -3.7754,-1.8867l-1.6308,-1.63084c0.0617,-0.00122 0.1236,-0.0039 0.1855,-0.00391zM11.9999,5.00005c3.3079,0.00004 6.3226,1.26072 8.5879,3.32618l0.4434,0.42382l0.0517,0.05664c0.2398,0.29497 0.2213,0.72979 -0.0537,1.00391c-0.2751,0.2741 -0.7097,0.2907 -1.0039,0.0498l-0.0566,-0.05175l-0.3906,-0.37403c-2,-1.8238 -4.6589,-2.93453 -7.5782,-2.93457c-0.7599,0 -1.5021,0.07619 -2.21969,0.21973l-1.24317,-1.24316c1.10119,-0.31011 2.26276,-0.47657 3.46286,-0.47657z" fill="#002B51"/>
</svg>
