<svg width="24" height="24" viewBox="0 0 24 24" fill="none" xmlns="http://www.w3.org/2000/svg">
<path d="M13.8078,2.26206c1.3757,-0.23604 2.7912,-0.04003 4.0508,0.56152c0.2196,0.10495 0.3748,0.30988 0.416,0.54981c0.0411,0.23988 -0.0369,0.48512 -0.209,0.65722l-3.2803,3.28028v1.93945h1.9395l3.2803,-3.28027c0.1721,-0.17217 0.4172,-0.25016 0.6572,-0.20899c0.21,0.03605 0.393,0.15943 0.5059,0.33692l0.0439,0.0791c0.6015,1.25951 0.7975,2.67511 0.5615,4.0508c-0.2361,1.3753 -0.8922,2.644 -1.8789,3.6308c-0.9869,0.9869 -2.2562,1.6439 -3.6318,1.8799c-1.1981,0.2056 -2.4257,0.0817 -3.5547,-0.3506l-5.64259,5.6426l-0.20996,0.1904c-0.51097,0.4188 -1.15387,0.6504 -1.82031,0.6504l-0.2832,-0.0136c-0.65743,-0.0652 -1.27581,-0.356 -1.74707,-0.8272c-0.47122,-0.4712 -0.76193,-1.0897 -0.82715,-1.7471l-0.01367,-0.2832c0,-0.6664 0.23163,-1.3093 0.65039,-1.8203l0.19043,-0.2099l5.64257,-5.6426c-0.43231,-1.129 -0.55608,-2.35667 -0.35058,-3.5547c0.23606,-1.37563 0.89297,-2.64487 1.87984,-3.63184c0.9869,-0.9867 2.2555,-1.64281 3.6309,-1.8789zM16.1672,3.80796c-0.6864,-0.16364 -1.4026,-0.18896 -2.1055,-0.06836c-1.07,0.18361 -2.0566,0.69524 -2.8242,1.46289c-0.7675,0.76764 -1.27836,1.75431 -1.46193,2.82422c-0.18351,1.06994 -0.03132,2.17079 0.43653,3.15039c0.1368,0.2868 0.0782,0.6288 -0.1465,0.8535l-5.99999,6l-0.09082,0.1006c-0.17128,0.2091 -0.27699,0.4644 -0.30371,0.7334l-0.00683,0.1357c0.0001,0.3636 0.14429,0.7127 0.40136,0.9698c0.22492,0.2248 0.52026,0.3633 0.83399,0.3945l0.13574,0.0068c0.31817,0 0.62515,-0.1107 0.86914,-0.3105l0.10059,-0.0908l6.00003,-6c0.1967,-0.1968 0.4833,-0.2662 0.7441,-0.1885l0.1094,0.042c0.9796,0.4678 2.0804,0.6201 3.1504,0.4365c1.0699,-0.1836 2.0565,-0.6944 2.8242,-1.4619c0.7676,-0.7676 1.2792,-1.7543 1.4629,-2.82423c0.1206,-0.70281 0.0952,-1.41919 -0.0684,-2.10547l-2.6621,2.6621c-0.1406,0.1405 -0.3315,0.2197 -0.5303,0.2197h-3c-0.414,0 -0.7497,-0.336 -0.75,-0.75v-2.99996c0,-0.14901 0.0446,-0.29379 0.126,-0.41602l0.0938,-0.11425z" fill="#002B51"/>
</svg>
