<svg width="24" height="24" viewBox="0 0 24 24" fill="none" xmlns="http://www.w3.org/2000/svg">
<path d="M13.8507,2.50833c1.2419,-0.21303 2.517,-0.06062 3.6709,0.43652l0.2295,0.10449c0.1462,0.06998 0.2499,0.20647 0.2773,0.36621c0.0273,0.15984 -0.0249,0.32382 -0.1396,0.43848l-3.3535,3.35352v2.29297h2.2929l3.3536,-3.35352c0.1147,-0.11478 0.2785,-0.1671 0.4384,-0.13965c0.12,0.02065 0.2264,0.0846 0.3018,0.17676l0.0645,0.10059c0.5791,1.21277 0.7682,2.57578 0.541,3.9004c-0.2274,1.3246 -0.8602,2.5467 -1.8106,3.4971c-0.9503,0.9501 -2.1716,1.5832 -3.4961,1.8105c-1.2069,0.2071 -2.4453,0.0668 -3.5732,-0.3975l-5.75881,5.7588l-0.19238,0.1739c-0.4664,0.382 -1.05296,0.5937 -1.66113,0.5937l-0.25879,-0.0127c-0.60003,-0.0595 -1.16458,-0.3248 -1.59473,-0.7549c-0.43006,-0.43 -0.69523,-0.9947 -0.75488,-1.5947l-0.0127,-0.2588c0,-0.6081 0.21176,-1.1947 0.59375,-1.6611l0.17383,-0.1924l5.75879,-5.7588c-0.46429,-1.1278 -0.60443,-2.36638 -0.39746,-3.57323c0.22733,-1.32447 0.8604,-2.54578 1.81051,-3.4961c0.9505,-0.95044 2.1723,-1.58323 3.4971,-1.81054z" fill="#002B51"/>
</svg>
