<svg width="24" height="24" viewBox="0 0 24 24" fill="none" xmlns="http://www.w3.org/2000/svg">
<path fill-rule="evenodd" clip-rule="evenodd" d="M7.93453,17.8337c-0.48816,0.4881 -1.27961,0.4881 -1.76777,0c-0.48815,-0.4882 -0.48815,-1.2797 0,-1.7678l4.06584,-4.0659l-4.06584,-4.06584c-0.48815,-0.48815 -0.48815,-1.27961 0,-1.76777c0.48816,-0.48815 1.27961,-0.48815 1.76777,0l4.06587,4.06591l4.0659,-4.06591c0.4881,-0.48815 1.2796,-0.48815 1.7677,0c0.4882,0.48816 0.4882,1.27962 0,1.76777l-4.0658,4.06584l4.0658,4.0659c0.4882,0.4881 0.4882,1.2796 0,1.7678c-0.4881,0.4881 -1.2796,0.4881 -1.7677,0l-4.0659,-4.0659z" fill="#002B51"/>
</svg>
