<svg width="24" height="24" viewBox="0 0 24 24" fill="none" xmlns="http://www.w3.org/2000/svg">
<path fill-rule="evenodd" clip-rule="evenodd" d="M6.53083,5.46984l5.46977,5.46976l5.4697,-5.46976c0.2929,-0.29289 0.7676,-0.29289 1.0605,0c0.2929,0.2929 0.2929,0.76766 0,1.06055l-5.4697,5.46971l5.4697,5.4697l0.0518,0.0567c0.2403,0.2946 0.2228,0.7293 -0.0518,1.0039c-0.2746,0.2746 -0.7093,0.2921 -1.0039,0.0517l-0.0566,-0.0517l-5.4697,-5.4697l-5.46977,5.4697c-0.29289,0.2929 -0.76765,0.2929 -1.06054,0c-0.2929,-0.2929 -0.2929,-0.7677 0,-1.0606l5.46971,-5.4697l-5.46971,-5.46971l-0.05176,-0.05664c-0.24031,-0.29458 -0.22285,-0.7293 0.05176,-1.00391c0.2746,-0.2746 0.70932,-0.29206 1.0039,-0.05175z" fill="#002B51"/>
</svg>
