<svg width="24" height="24" viewBox="0 0 24 24" fill="none" xmlns="http://www.w3.org/2000/svg">
<path fill-rule="evenodd" clip-rule="evenodd" d="M13.0611,12l5.4697,5.4697c0.2929,0.2929 0.2929,0.7677 0,1.0606c-0.2929,0.2929 -0.7678,0.2929 -1.0607,0l-5.4696,-5.4696l-5.46971,5.4696c-0.2929,0.2929 -0.76777,0.2929 -1.06066,0c-0.2929,-0.2929 -0.2929,-0.7677 0,-1.0606l5.46967,-5.4697l-5.46967,-5.46967c-0.2929,-0.29289 -0.2929,-0.76777 0,-1.06066c0.29289,-0.29289 0.76776,-0.29289 1.06066,0l5.46971,5.46963l5.4696,-5.46963c0.2929,-0.29289 0.7678,-0.29289 1.0607,0c0.2929,0.29289 0.2929,0.76777 0,1.06066z" fill="#002B51"/>
</svg>
