<svg width="24" height="24" viewBox="0 0 24 24" fill="none" xmlns="http://www.w3.org/2000/svg">
<path fill-rule="evenodd" clip-rule="evenodd" d="M12,10.9394l4.4194,-4.41947c0.2929,-0.29289 0.7678,-0.29289 1.0607,0c0.2929,0.2929 0.2929,0.76777 0,1.06066l-4.4194,4.41941l4.4194,4.4194c0.2929,0.2929 0.2929,0.7678 0,1.0607c-0.2929,0.2929 -0.7678,0.2929 -1.0607,0l-4.4194,-4.4194l-4.41941,4.4194c-0.29289,0.2929 -0.76776,0.2929 -1.06066,0c-0.29289,-0.2929 -0.29289,-0.7678 0,-1.0607l4.41947,-4.4194l-4.41947,-4.41941c-0.29289,-0.29289 -0.29289,-0.76776 0,-1.06066c0.2929,-0.29289 0.76777,-0.29289 1.06066,0z" fill="#002B51"/>
</svg>
