<svg width="24" height="24" viewBox="0 0 24 24" fill="none" xmlns="http://www.w3.org/2000/svg">
<path fill-rule="evenodd" clip-rule="evenodd" d="M7.93453 6.16639C7.44637 5.67824 6.65492 5.67824 6.16676 6.16639C5.67861 6.65455 5.67861 7.44601 6.16676 7.93416L10.2326 12L6.16676 16.0659C5.67861 16.554 5.67861 17.3455 6.16676 17.8337C6.65492 18.3218 7.44637 18.3218 7.93453 17.8337L12.0004 13.7678L16.0663 17.8337C16.5544 18.3218 17.3459 18.3218 17.834 17.8337C18.3222 17.3455 18.3222 16.554 17.834 16.0659L13.7682 12L17.834 7.93416C18.3222 7.44601 18.3222 6.65455 17.834 6.16639C17.3459 5.67824 16.5544 5.67824 16.0663 6.16639L12.0004 10.2323L7.93453 6.16639Z" fill="#002B51"/>
</svg>
