<svg width="24" height="24" viewBox="0 0 24 24" fill="none" xmlns="http://www.w3.org/2000/svg">
<path d="M17.1167,5.11621c0.4882,-0.48815 1.2794,-0.48815 1.7676,0c0.4881,0.48816 0.4881,1.27942 0,1.76758l-5.1162,5.11621l5.1162,5.1162l0.0859,0.0947c0.4005,0.491 0.3717,1.2152 -0.0859,1.6729c-0.4577,0.4577 -1.1819,0.4864 -1.6729,0.0859l-0.0947,-0.0859l-5.1162,-5.1162l-5.11622,5.1162c-0.48816,0.4881 -1.27943,0.4881 -1.76758,0c-0.48816,-0.4882 -0.48816,-1.2794 0,-1.7676l5.1162,-5.1162l-5.1162,-5.11621l-0.08594,-0.09473c-0.40048,-0.49097 -0.37172,-1.21519 0.08594,-1.67285c0.45766,-0.45766 1.18188,-0.48642 1.67285,-0.08594l0.09473,0.08594l5.11622,5.11619z" fill="#002B51"/>
</svg>
