<svg width="24" height="24" viewBox="0 0 24 24" fill="none" xmlns="http://www.w3.org/2000/svg">
<path d="M17.4009,3.55023c0.2486,-0.3311 0.7185,-0.39786 1.0498,-0.14941c0.3306,0.24869 0.3977,0.71871 0.1494,1.0498l-5.0996,6.79888h3.499c0.4141,0 0.7498,0.336 0.75,0.75c0,0.4142 -0.3358,0.75 -0.75,0.75h-4.249v1.5h4.249c0.4141,0 0.7498,0.336 0.75,0.75c0,0.4142 -0.3358,0.75 -0.75,0.75h-4.249v4.2509c-0.0003,0.4139 -0.3362,0.7498 -0.75,0.75c-0.4141,0 -0.7498,-0.336 -0.75,-0.75v-4.2509h-4.25099c-0.414,-0.0003 -0.75,-0.336 -0.75,-0.75c0.00025,-0.4139 0.33615,-0.7498 0.75,-0.75h4.25099v-1.5h-4.25099c-0.414,-0.0003 -0.75,-0.336 -0.75,-0.75c0.00025,-0.4139 0.33615,-0.7498 0.75,-0.75h3.50099l-5.09962,-6.79888c-0.24845,-0.33126 -0.18169,-0.80121 0.14941,-1.0498c0.33127,-0.24838 0.80124,-0.18166 1.04981,0.14941l5.4004,7.20017z" fill="#002B51"/>
</svg>
