<svg width="24" height="24" viewBox="0 0 24 24" fill="none" xmlns="http://www.w3.org/2000/svg">
<path fill-rule="evenodd" clip-rule="evenodd" d="M16.9999,3.24992c0.4142,-0.55225 1.1977,-0.66414 1.75,-0.25c0.5523,0.41421 0.6642,1.19772 0.25,1.75l-4.6875,6.24998h2.6875c0.6903,0 1.25,0.5597 1.25,1.25c0,0.6904 -0.5596,1.25 -1.25,1.25h-3.75v1.25h3.75c0.6903,0 1.25,0.5597 1.25,1.25c0,0.6904 -0.5596,1.25 -1.25,1.25h-3.75v2.75c0,0.6904 -0.5596,1.25 -1.25,1.25c-0.6903,0 -1.25,-0.5596 -1.25,-1.25v-2.75h-3.74999c-0.69036,0 -1.25,-0.5596 -1.25,-1.25c0.00001,-0.6903 0.55965,-1.25 1.25,-1.25h3.74999v-1.25h-3.74999c-0.69036,0 -1.25,-0.5596 -1.25,-1.25c0.00001,-0.6903 0.55965,-1.25 1.25,-1.25h2.6875l-4.6875,-6.24998c-0.41414,-0.55227 -0.30225,-1.3358 0.25,-1.75c0.55226,-0.41419 1.33577,-0.30221 1.75,0.25l4.99999,6.66602z" fill="#002B51"/>
</svg>
