<svg width="24" height="24" viewBox="0 0 24 24" fill="none" xmlns="http://www.w3.org/2000/svg">
<path d="M3.29877,3.94309c0.51232,-0.17078 1.07507,-0.09546 1.52441,0.2041l2.47168,1.64746c2.50269,-0.93974 5.38914,-1.54785 7.70504,-1.54785c4.3115,0 7.7499,2.92647 7.75,6.75c0,2.8445 -1.9035,5.1911 -4.6533,6.207l-1.9902,2.7373c-0.1412,0.194 -0.3666,0.3086 -0.6065,0.3086h-5.99996c-0.41421,0 -0.75,-0.3358 -0.75,-0.75v-2.8066c-0.49239,-0.1516 -0.97764,-0.3162 -1.44922,-0.4932l-2.88477,1.9239c-0.19257,0.1283 -0.43375,0.161 -0.65332,0.0878l-1.5,-0.5c-0.38083,-0.1269 -0.59359,-0.5319 -0.48339,-0.9179l0.90332,-3.167c-0.80463,-0.724 -1.43262,-1.6119 -1.43262,-2.6299c0.00009,-1.01818 0.62771,-1.90678 1.43262,-2.63086l-0.90332,-3.16015c-0.11023,-0.38598 0.10262,-0.78994 0.48339,-0.917zM10.2499,18.7497h4.8682l0.7588,-1.0449c-0.2877,0.0271 -0.5802,0.042 -0.877,0.042c-1.4394,0 -3.0989,-0.2362 -4.75,-0.6396zM3.41693,16.5154l0.47168,0.1572l1.75586,-1.1709c-0.5986,-0.2833 -1.16466,-0.5882 -1.67773,-0.9131zM14.9999,5.7468c-2.3792,0 -5.52819,0.72129 -8.07906,1.81446c-1.27374,0.54588 -2.357,1.16662 -3.10742,1.80371c-0.77468,0.65773 -1.06337,1.21753 -1.06348,1.63183c0,0.4143 0.28873,0.974 1.06348,1.6318c0.75041,0.6371 1.83365,1.2578 3.10742,1.8038c2.55088,1.0931 5.69986,1.8144 8.07906,1.8144c3.6885,0 6.25,-2.4462 6.25,-5.25c-0.0001,-2.80373 -2.5616,-5.25 -6.25,-5.25zM3.77338,5.36594l-0.35547,0.11817l0.54883,1.9209c0.51171,-0.32402 1.07602,-0.62847 1.67285,-0.91114l-1.64844,-1.09863c-0.06411,-0.04274 -0.14466,-0.05358 -0.21777,-0.0293z" fill="#002B51"/>
</svg>
