<svg width="24" height="24" viewBox="0 0 24 24" fill="none" xmlns="http://www.w3.org/2000/svg">
<path fill-rule="evenodd" clip-rule="evenodd" d="M3.29876,3.9431c0.51233,-0.17079 1.07481,-0.09547 1.52416,0.20409l2.47206,1.64804c2.5027,-0.93986 5.38892,-1.5482 7.70492,-1.5482c4.3116,0 7.75,2.92638 7.75,6.75007c0,2.8451 -1.9037,5.1934 -4.6543,6.209l-1.9891,2.735c-0.1411,0.194 -0.3666,0.3089 -0.6066,0.3089h-5.99996c-0.41421,0 -0.75,-0.3358 -0.75,-0.75v-2.8052c-0.49247,-0.1516 -0.97772,-0.3169 -1.44939,-0.4939l-2.88459,1.9231c-0.19257,0.1284 -0.43363,0.1607 -0.65319,0.0875l-1.5,-0.5c-0.38088,-0.127 -0.59423,-0.5314 -0.48402,-0.9174l0.90288,-3.1628c-0.80544,-0.7244 -1.43169,-1.6155 -1.43169,-2.6342c0,-1.01871 0.62619,-1.90984 1.43158,-2.63416l-0.90268,-3.15678c-0.11041,-0.38612 0.10292,-0.7907 0.48391,-0.9177zM3.96787,14.59l-0.54967,1.9255l0.47092,0.157l1.75467,-1.1698c-0.59804,-0.283 -1.16321,-0.5883 -1.67592,-0.9127zM3.77313,5.36611l-0.35463,0.11822l0.54903,1.92c0.51134,-0.32356 1.07488,-0.62817 1.67117,-0.91051l-1.64783,-1.09855c-0.06419,-0.0428 -0.14455,-0.05356 -0.21774,-0.02916zM15.8772,17.7061c-0.2877,0.0271 -0.5804,0.041 -0.8773,0.041c-1.4394,0 -3.099,-0.235 -4.75,-0.6385v1.6414h4.8681zM3.81349,12.6285c0.75044,0.6371 1.833,1.2582 3.10689,1.8042c2.55094,1.0933 5.70022,1.8144 8.07952,1.8144c3.6885,0 6.25,-2.4463 6.25,-5.25c0,-2.80387 -2.5615,-5.25007 -6.25,-5.25007c-2.3793,0 -5.52857,0.72109 -8.07952,1.81436c-1.27389,0.54596 -2.35645,1.16708 -3.10689,1.80425c-0.77483,0.65786 -1.06355,1.21706 -1.06355,1.63146c0,0.4143 0.28872,0.9735 1.06355,1.6314z" fill="#002B51"/>
</svg>
