<svg width="24" height="24" viewBox="0 0 24 24" fill="none" xmlns="http://www.w3.org/2000/svg">
<path d="M3.29883,3.94309c0.51232,-0.17078 1.07507,-0.09546 1.52441,0.2041l2.47168,1.64746c2.50269,-0.93974 5.38918,-1.54785 7.70508,-1.54785c4.3115,0 7.7499,2.92647 7.75,6.75c0,2.8445 -1.9036,5.1911 -4.6533,6.207l-1.9903,2.7373c-0.1411,0.194 -0.3665,0.3086 -0.6064,0.3086h-6c-0.41421,0 -0.75,-0.3358 -0.75,-0.75v-2.8066c-0.49239,-0.1516 -0.97764,-0.3162 -1.44922,-0.4932l-2.88476,1.9239c-0.19258,0.1283 -0.43376,0.161 -0.65332,0.0878l-1.5,-0.5c-0.38084,-0.1269 -0.5936,-0.5319 -0.4834,-0.9179l0.90332,-3.167c-0.80463,-0.724 -1.43262,-1.6119 -1.43262,-2.6299c0.0001,-1.01818 0.62771,-1.90678 1.43262,-2.63086l-0.90332,-3.16015c-0.11023,-0.38598 0.10262,-0.78994 0.4834,-0.917zM10.25,18.7497h4.8682l0.7588,-1.0449c-0.2877,0.0271 -0.5802,0.042 -0.877,0.042c-1.4394,0 -3.0989,-0.2362 -4.75,-0.6396zM3.73633,15.3933l0.15918,1.2734l1.74902,-1.165c-0.5986,-0.2833 -1.16466,-0.5882 -1.67773,-0.9131zM3.85742,7.02512l0.10938,0.37989c0.51171,-0.32402 1.07602,-0.62847 1.67285,-0.91114l-1.42188,-0.94726z" fill="#002B51"/>
</svg>
