<svg width="24" height="24" viewBox="0 0 24 24" fill="none" xmlns="http://www.w3.org/2000/svg">
<path fill-rule="evenodd" clip-rule="evenodd" d="M9.5 3.5C9.5 3.08579 9.83579 2.75 10.25 2.75H14.25C14.6642 2.75 15 3.08579 15 3.5V19.75H15.75V7.75C15.75 7.33579 16.0858 7 16.5 7H20.5C20.9142 7 21.25 7.33579 21.25 7.75V19.75H22.25C22.6642 19.75 23 20.0858 23 20.5C23 20.9142 22.6642 21.25 22.25 21.25H20.5H16.5H14.25H10.25H8H4H2.25C1.83579 21.25 1.5 20.9142 1.5 20.5C1.5 20.0858 1.83579 19.75 2.25 19.75H3.25V12C3.25 11.5858 3.58579 11.25 4 11.25H8C8.41421 11.25 8.75 11.5858 8.75 12V19.75H9.5V3.5Z" fill="#002B51"/>
</svg>
