<svg width="24" height="24" viewBox="0 0 24 24" fill="none" xmlns="http://www.w3.org/2000/svg">
<path fill-rule="evenodd" clip-rule="evenodd" d="M19.75 11.8106L20.4697 12.5303C20.7626 12.8232 21.2374 12.8232 21.5303 12.5303C21.8232 12.2374 21.8232 11.7625 21.5303 11.4696L13.2374 3.17675C12.554 2.49333 11.446 2.49333 10.7626 3.17675L4.47012 9.46919L4.46922 9.47009L2.46967 11.4696C2.17678 11.7625 2.17678 12.2374 2.46967 12.5303C2.76256 12.8232 3.23744 12.8232 3.53033 12.5303L4.25 11.8106V20C4.25 20.0849 4.25604 20.1683 4.26773 20.25H3.00002C2.58581 20.25 2.25002 20.5858 2.25002 21C2.25002 21.4142 2.58581 21.75 3.00002 21.75H21C21.4142 21.75 21.75 21.4142 21.75 21C21.75 20.5858 21.4142 20.25 21 20.25H19.7323C19.744 20.1683 19.75 20.0849 19.75 20V11.8106ZM14.25 20.25V15.25C14.25 14.5625 13.695 14.0046 13.0085 14H10.9915C10.305 14.0046 9.75 14.5625 9.75 15.25V20.25H14.25Z" fill="#002B51"/>
</svg>
