<svg width="24" height="24" viewBox="0 0 24 24" fill="none" xmlns="http://www.w3.org/2000/svg">
<path fill-rule="evenodd" clip-rule="evenodd" d="M20.5 14.5C20.9142 14.5 21.25 14.1642 21.25 13.75V9.75C21.25 9.33579 20.9142 9 20.5 9H4.25V8.25H16.25C16.6642 8.25 17 7.91421 17 7.5V3.5C17 3.08579 16.6642 2.75 16.25 2.75H4.25V1.75C4.25 1.33579 3.91421 1 3.5 1C3.08579 1 2.75 1.33579 2.75 1.75V3.5V7.5V9.75V13.75V16V20V21.75C2.75 22.1642 3.08579 22.5 3.5 22.5C3.91421 22.5 4.25 22.1642 4.25 21.75V20.75H12C12.4142 20.75 12.75 20.4142 12.75 20V16C12.75 15.5858 12.4142 15.25 12 15.25H4.25V14.5H20.5Z" fill="#002B51"/>
</svg>
