<svg width="24" height="24" viewBox="0 0 24 24" fill="none" xmlns="http://www.w3.org/2000/svg">
<path fill-rule="evenodd" clip-rule="evenodd" d="M3.29883,3.94309c0.51232,-0.17078 1.07507,-0.09546 1.52441,0.2041l2.47173,1.64782c2.5027,-0.93976 5.38913,-1.54797 7.70503,-1.54797c4.3115,0 7.75,2.92637 7.75,6.74996c0,2.8451 -1.9037,5.1934 -4.6542,6.209l-1.9894,2.7354c-0.1411,0.1939 -0.3665,0.3086 -0.6064,0.3086h-6c-0.41421,0 -0.75,-0.3358 -0.75,-0.75v-2.8051c-0.49259,-0.1516 -0.97797,-0.3168 -1.44974,-0.4938l-2.88424,1.9228c-0.19258,0.1284 -0.43376,0.1611 -0.65332,0.0879l-1.5,-0.5c-0.38086,-0.127 -0.5936,-0.532 -0.4834,-0.918l0.90285,-3.1626c-0.80556,-0.7244 -1.43215,-1.6154 -1.43215,-2.6342c0.00001,-1.01874 0.62656,-1.90971 1.4321,-2.63403l-0.9028,-3.15718c-0.11023,-0.38598 0.10262,-0.78994 0.4834,-0.917zM10.25,17.1087v1.6413h4.8682l0.7591,-1.0439c-0.2878,0.0271 -0.5805,0.0409 -0.8773,0.0409c-1.4393,0 -3.099,-0.2349 -4.75,-0.6383z" fill="#002B51"/>
</svg>
