<svg width="24" height="24" viewBox="0 0 24 24" fill="none" xmlns="http://www.w3.org/2000/svg">
<path fill-rule="evenodd" clip-rule="evenodd" d="M3.29877,3.94309c0.51232,-0.17078 1.07507,-0.09546 1.52441,0.2041l2.47173,1.64782c2.5027,-0.93976 5.38909,-1.54797 7.70499,-1.54797c4.3116,0 7.75,2.92637 7.75,6.74996c0,2.8451 -1.9036,5.1934 -4.6542,6.209l-1.9893,2.7354c-0.1412,0.1939 -0.3666,0.3086 -0.6065,0.3086h-5.99996c-0.41421,0 -0.75,-0.3358 -0.75,-0.75v-2.8051c-0.4926,-0.1516 -0.97797,-0.3168 -1.44974,-0.4938l-2.88425,1.9228c-0.19257,0.1284 -0.43375,0.1611 -0.65332,0.0879l-1.5,-0.5c-0.38085,-0.127 -0.5936,-0.532 -0.48339,-0.918l0.90285,-3.1626c-0.80557,-0.7244 -1.43215,-1.6154 -1.43215,-2.6342c0.00001,-1.01874 0.62656,-1.90971 1.4321,-2.63403l-0.9028,-3.15718c-0.11023,-0.38598 0.10262,-0.78994 0.48339,-0.917zM3.96734,14.5894l-0.55041,1.9261l0.47168,0.1572l1.75491,-1.1699c-0.59816,-0.2831 -1.16342,-0.5888 -1.67618,-0.9134zM3.77338,5.36594l-0.35547,0.11817l0.54932,1.92064c0.51142,-0.32379 1.07504,-0.62866 1.67146,-0.91115l-1.64754,-1.09836c-0.06411,-0.04274 -0.14466,-0.05358 -0.21777,-0.0293zM6.92084,7.56149c-1.27379,0.54592 -2.35699,1.1666 -3.10742,1.80371c-0.77481,0.6579 -1.06347,1.2175 -1.06348,1.6318c0,0.4144 0.28865,0.974 1.06348,1.6319c0.75043,0.6371 1.83361,1.2578 3.10742,1.8037c2.55088,1.0932 5.69986,1.8144 8.07906,1.8144c3.6885,0 6.25,-2.4462 6.25,-5.25c0,-2.80378 -2.5615,-5.24996 -6.25,-5.24996c-2.3792,0 -5.52818,0.72127 -8.07906,1.81445zM15.8772,17.7061c-0.2877,0.0271 -0.5804,0.0409 -0.8773,0.0409c-1.4393,0 -3.099,-0.2349 -4.75,-0.6383v1.6413h4.8682z" fill="#002B51"/>
</svg>
