<svg width="24" height="24" viewBox="0 0 24 24" fill="none" xmlns="http://www.w3.org/2000/svg">
<path fill-rule="evenodd" clip-rule="evenodd" d="M3.29882,3.9431c0.51233,-0.17079 1.07481,-0.09547 1.52416,0.20409l2.47206,1.64804c2.5027,-0.93986 5.38896,-1.5482 7.70496,-1.5482c4.3116,0 7.75,2.92638 7.75,6.75007c0,2.8451 -1.9037,5.1934 -4.6544,6.209l-1.989,2.735c-0.1412,0.194 -0.3666,0.3089 -0.6066,0.3089h-6c-0.41421,0 -0.75,-0.3358 -0.75,-0.75v-2.8052c-0.49247,-0.1516 -0.97772,-0.3169 -1.44939,-0.4939l-2.88458,1.9231c-0.19258,0.1284 -0.43363,0.1607 -0.6532,0.0875l-1.5,-0.5c-0.38088,-0.127 -0.59423,-0.5314 -0.48402,-0.9174l0.90288,-3.1628c-0.80544,-0.7244 -1.43169,-1.6155 -1.43169,-2.6342c0,-1.01871 0.62619,-1.90984 1.43158,-2.63416l-0.90268,-3.15678c-0.11041,-0.38612 0.10292,-0.7907 0.48391,-0.9177zM10.25,17.1086v1.6414h4.8681l0.7591,-1.0439c-0.2877,0.0271 -0.5804,0.041 -0.8772,0.041c-1.4394,0 -3.0991,-0.235 -4.75,-0.6385z" fill="#002B51"/>
</svg>
